<?xml version="1.0" standalone="no"?>
<svg width="24" height="24" viewBox="0 0 29.93 29.94" xmlns="http://www.w3.org/2000/svg">
	<path fill="currentColor" class="st4" d="M0,21.32c0-4.22,0-8.43,0-12.65c0.02-0.09,0.04-0.19,0.05-0.28C0.38,4.73,3.1,1.42,6.63,0.42
		C7.29,0.23,7.98,0.14,8.65,0c4.21,0,8.42,0,12.62,0c0.58,0.11,1.17,0.17,1.74,0.33c4.13,1.14,6.9,4.78,6.91,9.08
		c0.01,3.72,0,7.44,0,11.15c0,0.3-0.02,0.6-0.05,0.91c-0.33,3.84-3.07,7.15-6.78,8.15c-0.6,0.16-1.22,0.24-1.83,0.36
		c-4.21,0-8.42,0-12.62,0c-0.07-0.02-0.13-0.04-0.2-0.05c-3.87-0.39-7.07-3.06-8.1-6.82C0.19,22.53,0.11,21.92,0,21.32z
			M2.81,14.96c0,1.85,0,3.71,0,5.56c0,0.37,0.02,0.74,0.08,1.11c0.55,3.27,3.24,5.54,6.54,5.54c3.69,0,7.38,0,11.07,0
		c0.36,0,0.72-0.02,1.08-0.08c3.26-0.55,5.53-3.24,5.54-6.55c0-3.7,0-7.4,0-11.09c0-0.36-0.02-0.72-0.08-1.08
		c-0.54-3.26-3.23-5.55-6.53-5.55c-3.7-0.01-7.4,0-11.1,0c-0.36,0-0.72,0.02-1.08,0.08C5.05,3.46,2.81,6.14,2.81,9.49
		C2.8,11.31,2.81,13.14,2.81,14.96z" />
	<path fill="currentColor" class="st4" d="M7.48,14.97c0.01-4.14,3.38-7.49,7.51-7.48c4.12,0.02,7.46,3.38,7.45,7.51c-0.01,4.14-3.38,7.49-7.51,7.48
		C10.81,22.47,7.47,19.1,7.48,14.97z M14.97,10.31c-2.57,0-4.68,2.09-4.69,4.66c-0.01,2.59,2.08,4.71,4.66,4.71
		c2.57,0,4.68-2.09,4.69-4.66C19.65,12.43,17.55,10.31,14.97,10.31z" />
	<path fill="currentColor" class="st4" d="M23,7.93c-0.56,0-0.99-0.44-0.99-1c0-0.54,0.44-0.98,0.98-0.99C23.53,5.92,24,6.38,24,6.93
		C24.01,7.47,23.56,7.93,23,7.93z" />
</svg>