<?xml version="1.0" standalone="no"?>
<svg width="24" height="24" viewBox="0 0 22.15 22.15" xmlns="http://www.w3.org/2000/svg">
	<path fill="currentColor" d="M0,5.91c0.18-0.89,0.73-1.54,1.38-2.13C1.78,3.41,2.14,3,2.54,2.63c0.71-0.66,1.55-0.68,2.24-0.02
		c0.94,0.89,1.85,1.81,2.74,2.75C8.21,6.1,8.19,6.89,7.48,7.64C7,8.15,6.5,8.65,5.99,9.13C5.71,9.38,5.68,9.62,5.84,9.95
		c0.93,1.87,2.31,3.38,3.9,4.69c0.76,0.63,1.65,1.1,2.48,1.66c0.3,0.2,0.53,0.15,0.77-0.11c0.5-0.52,1.01-1.03,1.53-1.53
		c0.72-0.69,1.55-0.72,2.27-0.03c0.92,0.88,1.83,1.79,2.72,2.71c0.69,0.72,0.69,1.54,0.01,2.28c-0.58,0.63-1.16,1.26-1.81,1.8
		c-0.41,0.34-0.97,0.5-1.46,0.74c-0.39,0-0.79,0-1.18,0c-0.8-0.21-1.63-0.35-2.4-0.66c-3.97-1.57-7.12-4.19-9.61-7.62
		C1.57,11.82,0.44,9.61,0,7.09C0,6.69,0,6.3,0,5.91z" />
	<path fill="currentColor" d="M11.62,0c1.09,0.33,2.23,0.55,3.25,1.02c3.87,1.8,6.27,4.82,7.19,8.99c0.02,0.08,0.06,0.15,0.09,0.22
		c0,0.07,0,0.13,0,0.2c-0.44,0.06-0.87,0.12-1.3,0.19c-0.23,0.04-0.4,0.03-0.47-0.26c-1.16-4.8-4.18-7.66-9.01-8.63
		c-0.03-0.01-0.06-0.03-0.14-0.07c0.06-0.54,0.13-1.1,0.2-1.66C11.48,0,11.55,0,11.62,0z" />
	<path fill="currentColor" d="M17.59,10.69c-0.55,0.09-1.07,0.18-1.6,0.27c-0.65-2.67-2.29-4.29-5.01-4.86c0.08-0.57,0.15-1.11,0.23-1.65
		C14.94,4.93,17.36,8.15,17.59,10.69z" />
</svg>