<?xml version="1.0" standalone="no"?>
<!DOCTYPE svg PUBLIC "-//W3C//DTD SVG 20010904//EN"
 "http://www.w3.org/TR/2001/REC-SVG-20010904/DTD/svg10.dtd">
<svg version="1.0" xmlns="http://www.w3.org/2000/svg"
 width="660.000000pt" height="660.000000pt" viewBox="0 0 660.000000 660.000000"
 preserveAspectRatio="xMidYMid meet">
<metadata>
Created by potrace 1.14, written by Peter Selinger 2001-2017
</metadata>
<g transform="translate(0.000000,660.000000) scale(0.100000,-0.100000)"
fill="#000000" stroke="none">
<path d="M1589 5957 c-15 -12 -46 -38 -69 -57 -23 -19 -54 -45 -68 -58 -15
-13 -40 -33 -56 -45 -15 -12 -40 -33 -55 -47 -15 -14 -63 -54 -107 -90 -43
-35 -84 -69 -90 -75 -6 -5 -33 -28 -60 -50 -26 -22 -123 -103 -215 -180 -91
-77 -186 -156 -210 -176 -37 -31 -191 -160 -362 -302 -21 -18 -48 -41 -61 -52
-27 -23 -53 -45 -116 -98 -47 -39 -52 -51 -23 -54 10 -1 70 -16 133 -32 63
-17 126 -33 140 -36 14 -2 108 -25 210 -50 102 -25 279 -68 395 -95 116 -28
226 -55 245 -60 30 -8 136 -34 180 -45 8 -2 47 -11 85 -20 39 -9 77 -18 85
-20 8 -2 44 -11 80 -20 36 -9 74 -18 85 -20 11 -2 49 -11 85 -20 36 -9 72 -18
80 -20 8 -2 71 -17 140 -34 69 -18 136 -34 150 -37 48 -10 315 -75 350 -84 29
-9 133 -33 190 -45 8 -2 71 -17 140 -35 69 -18 132 -33 141 -35 8 -2 44 -10
80 -19 60 -15 82 -20 136 -32 12 -2 34 -9 48 -14 14 -5 29 -9 33 -9 4 1 9 0
12 -1 3 -1 12 -3 20 -5 8 -1 99 -23 202 -49 103 -25 198 -48 210 -50 13 -3 43
-10 68 -17 25 -6 52 -12 60 -14 8 -2 53 -13 100 -24 47 -12 96 -24 110 -27 31
-7 72 -17 180 -44 47 -11 96 -23 110 -26 14 -3 43 -10 65 -16 22 -5 49 -12 60
-15 11 -2 25 -5 30 -7 47 -13 230 -57 260 -62 17 -3 37 -7 45 -10 19 -7 206
-54 240 -60 14 -3 50 -11 80 -19 51 -14 456 -112 491 -120 8 -2 44 -10 80 -19
35 -9 74 -18 87 -21 44 -10 58 -13 102 -25 25 -7 53 -14 63 -16 10 -2 26 -5
35 -8 9 -3 32 -8 51 -11 19 -3 38 -8 43 -11 4 -3 18 -7 30 -9 37 -7 320 -75
353 -85 38 -11 85 -20 85 -15 0 2 -35 23 -77 46 -43 23 -80 45 -83 48 -3 4
-16 12 -30 19 -14 7 -43 23 -65 37 -22 14 -51 30 -65 36 -14 6 -32 16 -40 23
-8 7 -40 27 -70 43 -30 16 -111 63 -180 103 -69 40 -138 80 -155 90 -45 26
-138 80 -155 90 -56 35 -151 90 -155 90 -6 0 -258 148 -272 160 -7 5 -15 10
-18 10 -4 0 -64 33 -133 74 -124 72 -181 105 -232 133 -14 8 -38 23 -55 33
-16 11 -37 23 -45 26 -30 14 -135 79 -138 87 -2 4 -12 7 -22 7 -9 0 -23 7 -30
15 -7 8 -19 15 -26 15 -8 0 -14 5 -14 10 0 6 -4 10 -10 10 -10 0 -254 140
-397 228 -30 17 -56 32 -60 32 -3 0 -29 14 -57 32 -28 17 -66 39 -83 49 -18
10 -162 94 -320 185 -352 204 -357 207 -413 239 -25 14 -66 38 -91 53 -111 65
-142 82 -150 82 -5 0 -9 5 -9 11 0 5 -4 8 -9 4 -5 -3 -12 -1 -15 4 -3 5 -52
35 -108 67 -57 31 -110 63 -118 70 -8 7 -19 14 -25 15 -5 1 -26 12 -45 24 -19
12 -97 57 -173 101 -76 43 -159 92 -185 107 -26 15 -58 33 -72 40 -14 6 -29
16 -35 20 -5 4 -104 62 -220 128 -115 66 -232 134 -258 150 -27 16 -49 29 -50
29 -1 -1 -14 -11 -28 -23z"/>
<path d="M6 4373 c2 -87 6 -210 9 -273 8 -214 17 -515 19 -612 0 -54 3 -98 6
-98 3 0 5 -44 6 -98 1 -96 11 -447 19 -632 2 -52 7 -183 10 -290 4 -107 8
-240 10 -295 3 -55 7 -174 9 -265 3 -91 6 -165 6 -165 1 0 3 -72 6 -160 2 -88
6 -203 8 -255 2 -52 7 -194 11 -315 4 -121 8 -221 9 -223 2 -1 12 6 24 16 27
24 138 122 166 147 40 36 161 143 185 164 12 11 55 49 95 84 96 86 177 158
199 177 21 17 51 44 123 109 43 39 145 129 188 166 6 6 34 30 61 55 28 25 79
70 113 100 35 30 83 73 107 95 24 22 67 60 96 85 29 25 71 62 93 82 l39 37 0
1056 c0 618 -4 1059 -9 1064 -8 7 -59 21 -170 46 -10 2 -66 16 -124 31 -58 14
-109 27 -115 28 -5 1 -16 5 -22 9 -7 5 -13 6 -13 4 0 -3 -33 4 -72 14 -40 11
-82 22 -93 24 -26 5 -53 11 -101 24 -52 13 -124 31 -149 36 -11 2 -58 13 -105
25 -47 12 -92 24 -100 25 -8 2 -15 4 -15 5 0 1 -9 3 -20 5 -11 3 -129 31 -262
65 -133 33 -245 60 -247 60 -3 0 -3 -71 0 -157z"/>
<path d="M6000 2484 c-41 -6 -97 -15 -125 -18 -111 -15 -162 -23 -205 -30 -14
-3 -52 -7 -85 -11 -33 -3 -69 -8 -80 -11 -11 -2 -36 -6 -55 -9 -19 -2 -51 -7
-70 -9 -19 -3 -55 -8 -80 -11 -25 -3 -61 -8 -80 -10 -19 -3 -46 -7 -60 -10
-14 -3 -47 -8 -75 -10 -27 -3 -57 -8 -65 -10 -8 -2 -44 -7 -79 -10 -35 -3 -67
-7 -71 -10 -4 -3 -32 -7 -61 -10 -30 -2 -63 -7 -75 -9 -12 -2 -45 -7 -74 -11
-29 -4 -62 -9 -74 -11 -12 -2 -39 -6 -61 -9 -22 -3 -51 -7 -65 -8 -14 -2 -50
-7 -80 -11 -30 -4 -66 -9 -80 -11 -46 -7 -109 -16 -142 -20 -38 -5 -113 -16
-143 -20 -11 -2 -20 -4 -20 -5 0 0 -20 -3 -45 -5 -25 -3 -56 -7 -69 -9 -13 -3
-49 -8 -80 -12 -31 -3 -65 -8 -76 -10 -19 -4 -66 -10 -140 -20 -51 -7 -79 -11
-135 -20 -25 -4 -56 -8 -70 -10 -32 -3 -103 -13 -155 -20 -22 -3 -49 -7 -60
-9 -11 -1 -44 -6 -74 -10 -30 -3 -63 -9 -75 -11 -12 -3 -37 -6 -56 -9 -62 -7
-114 -15 -139 -20 -13 -2 -49 -7 -80 -10 -31 -3 -81 -9 -111 -15 -30 -5 -75
-12 -100 -15 -25 -3 -63 -8 -85 -11 -22 -3 -51 -7 -65 -9 -14 -2 -74 -10 -135
-19 -60 -9 -130 -18 -155 -22 -25 -3 -56 -8 -70 -10 -14 -2 -45 -7 -70 -10
-25 -3 -54 -7 -65 -9 -11 -1 -45 -6 -75 -10 -30 -4 -62 -13 -71 -19 -15 -10
-119 -102 -204 -181 -43 -40 -193 -175 -219 -198 -35 -31 -107 -96 -172 -156
-60 -56 -209 -191 -244 -221 -16 -14 -136 -123 -210 -190 -15 -14 -65 -59
-111 -100 -45 -41 -95 -87 -111 -103 -16 -15 -31 -27 -33 -27 -2 0 -23 -18
-45 -39 l-42 -39 89 28 c48 15 126 40 173 54 47 15 92 30 100 33 8 4 18 7 23
8 4 2 9 4 12 5 3 1 8 3 13 4 5 1 335 108 522 169 19 6 37 12 40 12 3 1 12 5
20 8 18 7 299 98 314 102 6 1 18 5 26 8 25 9 125 42 310 102 96 30 182 58 190
62 8 3 17 7 20 7 15 4 197 63 270 88 47 16 92 31 100 32 24 6 272 86 305 99
17 7 32 12 35 13 3 0 32 9 65 19 33 11 62 20 65 20 3 1 12 4 20 8 8 3 67 22
130 42 63 20 122 39 130 42 16 7 33 12 53 16 6 1 18 6 24 10 7 5 21 10 30 12
18 3 353 111 383 122 8 3 20 7 25 8 6 2 37 12 70 23 33 11 195 63 360 117 165
53 314 102 330 108 17 6 35 12 40 13 6 2 73 23 150 49 77 25 147 48 155 50 8
2 125 40 260 85 135 45 252 83 260 85 8 2 71 22 140 45 69 23 130 43 135 44 6
1 82 26 170 55 88 29 165 54 172 55 17 3 26 13 11 12 -7 0 -47 -5 -88 -12z"/>
</g>
</svg>
