<?xml version="1.0" encoding="UTF-8" standalone="no"?>
<svg
   xmlns:dc="http://purl.org/dc/elements/1.1/"
   xmlns:cc="http://creativecommons.org/ns#"
   xmlns:rdf="http://www.w3.org/1999/02/22-rdf-syntax-ns#"
   xmlns:svg="http://www.w3.org/2000/svg"
   xmlns="http://www.w3.org/2000/svg"
   xmlns:sodipodi="http://sodipodi.sourceforge.net/DTD/sodipodi-0.dtd"
   xmlns:inkscape="http://www.inkscape.org/namespaces/inkscape"
   version="1.1"
   width="20"
   height="20"
   viewBox="0 0 20 20"
   id="svg6"
   sodipodi:docname="closed-menu.svg"
   inkscape:version="1.0.2-2 (e86c870879, 2021-01-15)">
  <metadata
     id="metadata12">
    <rdf:RDF>
      <cc:Work
         rdf:about="">
        <dc:format>image/svg+xml</dc:format>
        <dc:type
           rdf:resource="http://purl.org/dc/dcmitype/StillImage" />
      </cc:Work>
    </rdf:RDF>
  </metadata>
  <defs
     id="defs10" />
  <sodipodi:namedview
     pagecolor="#ffffff"
     bordercolor="#666666"
     borderopacity="1"
     objecttolerance="10"
     gridtolerance="10"
     guidetolerance="10"
     inkscape:pageopacity="0"
     inkscape:pageshadow="2"
     inkscape:window-width="1366"
     inkscape:window-height="705"
     id="namedview8"
     showgrid="false"
     inkscape:zoom="26.9"
     inkscape:cx="10"
     inkscape:cy="10"
     inkscape:window-x="-8"
     inkscape:window-y="-8"
     inkscape:window-maximized="1"
     inkscape:current-layer="svg6"
     inkscape:document-rotation="0" />
  <title
     id="title2">menu</title>
  <path
     d="M 4.7674098,6.1816234 13.818377,15.23259 c 0.390323,0.390323 0.74034,0.108188 1.13137,-0.282843 0.391031,-0.39103 0.673166,-0.741047 0.282843,-1.13137 L 6.1816234,4.7674098 C 5.7913004,4.3770869 5.4412826,4.6592225 5.0502525,5.0502525 4.6592225,5.4412826 4.3770869,5.7913004 4.7674098,6.1816234 Z"
     id="path835" />
  <path
     d="M 13.818377,4.7674098 4.7674098,13.818377 c -0.3903229,0.390323 -0.1081873,0.74034 0.2828427,1.13137 0.3910301,0.391031 0.7410479,0.673166 1.1313709,0.282843 L 15.23259,6.181623 C 15.622913,5.7913004 15.340778,5.4412826 14.949747,5.0502525 14.558717,4.6592225 14.2087,4.3770869 13.818377,4.7674098 Z"
     id="path833" />
</svg>
