<?xml version="1.0" encoding="utf-8"?>
<!-- Generator: Adobe Illustrator 24.2.0, SVG Export Plug-In . SVG Version: 6.00 Build 0)  -->
<svg version="1.1" id="Camada_1" xmlns="http://www.w3.org/2000/svg" xmlns:xlink="http://www.w3.org/1999/xlink" x="0px" y="0px"
	 viewBox="0 0 190.7 160.9" style="enable-background:new 0 0 190.7 160.9;" xml:space="preserve">
<g>
	<path d="M81.1,56.8c0-2.4-0.1-4.6,0.1-6.7c0-0.4,0.7-1,1.1-1c1.2-0.1,2.5-0.1,3.7-0.1c12,0,24,0,36,0c2.6,0,2.6,0,2.6,2.7
		c0,1.2-0.1,2.5,0,3.7c0.1,1.2-0.5,1.6-1.6,1.5c-1.4-0.1-2.7-0.1-4.1-0.2c-3.6-0.2-5.8,1.6-5.8,5.1C113,73.6,113.1,85.3,113,97
		c0,0.3,0.1,0.5,0.1,1c10.1,0,20.1,0,30.2,0c0-0.7,0.1-1.3,0.1-1.9c0-10.7,0-21.3,0-32c0-0.9-0.1-1.8-0.2-2.7
		c-0.4-3.3-1.7-4.4-5-4.6c-1.6-0.1-3.3-0.1-4.9,0c-0.9,0-1.3-0.3-1.3-1.3c0-1.6,0-3.2-0.1-4.8c-0.1-1.5,0.5-1.8,1.9-1.8
		c8.9,0,17.8,0,26.8,0c4.4,0,8.8,0.1,13.1,0c1.4,0,1.9,0.5,1.8,1.9c-0.1,1.6-0.1,3.2-0.1,4.8c0,1.1-0.5,1.4-1.5,1.4
		c-1.2,0-2.4,0-3.6-0.1c-4.3-0.4-6.1,1.1-6.3,5.5c-0.1,1.1-0.1,2.3-0.1,3.4c0,26.1,0,52.2,0,78.3c0,1.5,0.1,3,0.3,4.4
		c0.4,2.9,1.5,3.9,4.5,4.1c1.8,0.1,3.5,0.1,5.3,0c1.1,0,1.5,0.4,1.5,1.5c-0.1,1.8-0.1,3.5-0.1,5.3c0,1-0.4,1.4-1.4,1.4
		c-1.9-0.1-3.9-0.1-5.8-0.1c-11.4,0-22.7,0-34.1,0c-1.7,0-2.2-0.5-2.1-2.1c0.1-1.5,0-3.1,0-4.6c0-1,0.3-1.5,1.4-1.4
		c1.5,0.1,3,0,4.4,0.1c3.4,0.2,5.1-1.1,5.6-4.5c0.1-0.8,0.2-1.6,0.2-2.4c0-11.9,0-23.7,0-35.6c0-2.2,0-2.2-2.3-2.2
		c-8.8,0-17.6,0-26.4,0c-1.4,0-1.9,0.4-1.8,1.8c0.1,11.9,0.1,23.7,0.1,35.6c0,6.1,1.2,7.2,7.4,7.2c4.2,0,4.2,0,4.2,4.2
		c0,3.9,0,4-3.9,4c-12.6,0-25.1-0.1-37.7-0.1c-0.5,0-1,0-1.7-0.1c0-2.6,0-5.2,0-7.9c1.7,0,3.4-0.1,5.1,0c4.1,0.4,6-1.1,6.3-5.2
		c0.1-0.8,0.1-1.7,0.1-2.6c0-26.7,0-53.4,0-80c0-1.5-0.2-3.1-0.4-4.6c-0.3-2-1.5-3.1-3.5-3.4c-0.9-0.1-1.8-0.2-2.7-0.2
		C84.6,56.8,83,56.8,81.1,56.8z"/>
	<path d="M158.3,12.7c-0.6-0.1-1.2-0.2-1.8-0.3c-5.4-1.3-10.9-2.6-16.3-3.8c-0.9-0.2-1.9-0.1-2.9,0c-6.1,0.7-12.2,1.8-18.1,3.6
		c-0.6,0.2-1.3,0.2-2,0.3c-4,0.3-8,0.6-12.3,0.9c0.8-0.4,1.4-0.6,2-0.9c5.6-2.2,11.1-4.6,17-5.8c1.6-0.3,3.2-0.2,4.9-0.2
		c0.8,0,1.6,0.1,2.4-0.1c-0.6-0.1-1.3-0.3-1.9-0.4c0-0.1,0-0.2-0.1-0.3c1-0.2,2-0.3,3-0.5c0-0.1,0-0.1,0-0.2
		c-1.4-0.1-2.9-0.4-4.3-0.4c-4.5,0.2-8.8-0.6-13.2-1c-5-0.5-10-0.6-15.1,0.1C94.3,4.5,89,4.8,83.8,5.6c-2.6,0.4-5.1,1.2-7.6,2
		c-3.3,1-6.5,2.3-9.8,3.2c-3.9,1.1-7.4,3-10.7,5.2c-3.5,2.3-7.2,4.5-10.7,6.8c-0.9,0.6-1.8,1.3-2.5,2c-3.3,3.3-6.6,6.6-10,9.9
		c-2.3,2.2-4.2,4.7-5.9,7.4c-2.2,3.6-4.6,7.2-6.9,10.8c-0.9,1.5-1.7,3.1-2.4,4.7c-2,5-4,9.9-5.7,15c-1.1,3.3-1.6,6.8-2.2,10.2
		c-0.8,4-1.4,8.1-2.1,12.2c-0.1,0.7-0.2,1.4-0.2,2.1c-0.1,6.4-0.4,12.9-0.2,19.3c0.1,3.4,1,6.8,1.5,10.2c0.3,2,0.8,4,1.1,6
		c0.3,1.6,0.8,3.1,1.7,4.4c1.2,1.8,2.3,3.7,3.7,5.8c-0.7,0-1.2,0.1-1.6,0c-2-0.6-4.1-1.2-6.1-1.8c-0.4-0.1-0.9-0.5-1.1-0.9
		c-1.4-2.8-3-5.6-4.2-8.5c-0.6-1.5-0.6-3.2-0.8-4.8c-0.4-4-1-8-1.2-12c-0.1-2.6,0.1-5.3,0.3-7.9c0.5-5.3,1-10.7,1.6-16
		c0.3-2.1,0.9-4.2,1.4-6.3c1.1-4.2,2.5-8.3,3.4-12.5c1.1-4.7,3.4-8.7,5.6-12.9c1.3-2.6,2.8-5.2,4-7.9c1.9-4.2,5-7.6,7.8-11.2
		c2.5-3.2,4.9-6.4,7.6-9.4c1.8-2,4.1-3.7,6.1-5.5c2.5-2.1,5.2-4.1,7.5-6.3c3.2-3,7-4.9,10.8-6.7c4.4-2.1,8.7-4.4,13.2-6.4
		c1.7-0.8,3.7-1.1,5.5-1.5c4.9-1.1,9.9-2.2,14.9-3.4c2.5-0.6,5-0.8,7.6-0.7c7,0.1,13.9,0.1,20.9,0.3c3.3,0.1,6.7,0.5,9.8,1.4
		c6,1.6,11.9,3.6,17.8,5.7c3.9,1.4,7.6,3.2,11.3,4.9C157.6,12.4,157.9,12.5,158.3,12.7C158.2,12.7,158.3,12.7,158.3,12.7z"/>
	<path d="M168.1,17.8c0.6,0.2,1.2,0.2,1.7,0.5c6.9,3.8,13.8,7.7,20.7,11.5c0.1,0,0.1,0.1,0.3,0.3c-0.3,0-0.4-0.1-0.5-0.1
		c-11.1-4.2-22.7-5.9-34.4-7.3c-6.6-0.8-13.3-0.8-19.9-0.4c-9.3,0.6-18.5,2.3-27.6,4.7c-7,1.9-13.6,4.8-20.4,7.4
		c-1.9,0.7-3.4,2.2-5.2,3.2C76,41.6,70.3,46.7,64.8,52c-2.1,2-3.7,4.6-5.5,6.9c-6,7.7-10.1,16.3-12.8,25.6c-1.5,5-2.1,10.2-2.6,15.5
		c-0.3,4.2-1.1,8.3-1.8,12.4c-0.2,1.2-1,2.4-1.5,3.5c-1.2,2.4-2.4,4.9-3.6,7.3c-0.2,0.4-0.5,0.7-1,0.9c0.2-0.4,0.5-0.9,0.7-1.3
		c2.3-3.9,3.4-8.4,4.7-12.7c0.6-2.1,0.8-4.5,0.7-6.8c-0.3-8,1.5-15.6,3.7-23.1c1.7-5.8,4.3-11.3,7.3-16.6c4-7.2,9.2-13.4,14.8-19.3
		c1.4-1.5,3.3-2.6,4.9-4c5.1-4.5,11-7.7,17.1-10.7c10-4.9,20.5-8.5,31.4-10.8c5.7-1.2,11.4-1.9,17.2-2.4c5.4-0.4,10.9-0.4,16.3-0.3
		c3.5,0.1,7.1,0.8,10.6,1.3C166.4,17.6,167.3,17.7,168.1,17.8C168.1,17.8,168.1,17.8,168.1,17.8z"/>
	<path d="M19.1,124.7c0.4,1.2,0.8,2.6,1.2,3.9c0.8,2.6,1.5,5.3,2.5,7.9c0.6,1.4,1.7,2.6,2.6,3.9c0.3,0.4,0.5,0.8,0.9,1.5
		c-1,0.3-1.9,0.7-2.8,0.8c-0.2,0.1-0.7-0.2-0.8-0.5c-1.3-1.6-2.5-3.3-3.7-5c-0.2-0.3-0.4-0.8-0.5-1.2c-1-4.1-2.3-8.3-3-12.4
		c-0.7-3.9-1.1-8-1.5-12c-0.4-3.5-0.8-7.1-1-10.6c-0.1-2,0.2-4,0.4-6c0.3-3.5,0.7-7,0.9-10.5c0.2-4.9,2.1-9.3,3-14
		c1.3-6.6,4.2-12.4,7.2-18.3c0.4-0.7,0.8-1.5,1.1-2.3c1.5-4.1,4.6-7.1,7.3-10.5c1.6-2,3.1-4,4.8-5.8c1.1-1.3,2.4-2.4,3.8-3.5
		c3.5-2.8,7-5.6,10.7-8.1c2.5-1.7,5.3-3,8-4.3c2.9-1.5,5.9-2.7,8.7-4.3c2.9-1.5,6.1-1.9,9.2-2.7c5-1.2,10-2.4,15.1-3.3
		c3.4-0.6,7-0.7,10.5-1c0,0.1,0,0.2,0.1,0.4c-2.2,0.4-4.3,1-6.5,1.2c-8.1,1-15.8,3.6-23.6,5.7c-6.9,1.8-12.9,5.6-19.2,8.5
		c-4.1,1.9-7.2,5-10.5,7.9c-2.1,1.9-4.4,3.7-6.3,5.7c-1.9,2-3.5,4.4-5.1,6.6c-1.7,2.2-3.5,4.4-5,6.8c-1.1,1.8-1.9,3.8-2.8,5.8
		c-1.4,3-2.8,5.9-4,9c-0.7,1.9-1.2,4-1.7,6c-1.2,5-2.5,9.9-3.4,15c-0.6,3.2-0.5,6.6-0.8,9.9c-0.9,8.1-0.4,16.3,0.3,24.4
		c0.2,1.9,1.3,3.6,2.2,5.4C17.2,124.9,18.2,124.7,19.1,124.7z"/>
	<path d="M68.1,38.8c-1.4,1.4-2.7,2.8-4,4.2c-1.5,1.7-3,3.3-4.3,5.1c-4.9,6.3-8.8,13.3-12.1,20.5c-1.2,2.6-2,5.3-2.8,8
		c-1.3,4.4-2.8,8.8-3.7,13.3c-0.7,3.3-1,6.8-1.1,10.2c-0.1,6.5-1.2,12.8-2.9,19c-0.1,0.3-0.2,0.5-0.3,1c0.5-3.3,1-6.4,1.3-9.4
		c0.3-2.9,0.5-5.9,0.5-8.8c0-4,0.6-7.9,1.4-11.9c1.3-6.1,3-12.1,5.1-18c1.3-3.7,3.1-7.2,4.6-10.8c2.6-6.2,6.6-11.3,11.5-15.9
		c2.1-1.9,4.1-3.9,6.2-5.8C67.5,39.1,67.8,39,68.1,38.8z"/>
	<path d="M168.1,17.8C168.1,17.8,168.1,17.8,168.1,17.8c-4.5-1.7-9-3.3-13.6-5c0-0.1,0-0.1,0-0.2c0.7,0.1,1.4,0.3,2.1,0.3
		c0.6,0,1.1-0.2,1.7-0.3c0,0,0,0,0,0c3,1.5,6,3,9,4.5C167.6,17.3,167.8,17.6,168.1,17.8z"/>
</g>
</svg>
