<svg id="Camada_1" data-name="Camada 1"
    xmlns="http://www.w3.org/2000/svg" viewBox="0 0 579 255">
    <!-- <defs>
        <style>.cls-1{fill:#fff;}</style>
    </defs> -->
    <path class="cls-1" d="M182.33,123c0-.74.09-1.37.09-2q0-16.45,0-32.89a20,20,0,0,0-.19-2.79c-.44-3.37-1.73-4.57-5.13-4.73-1.63-.08-3.27-.06-4.9,0-1.09,0-1.61-.26-1.56-1.46a44.51,44.51,0,0,0-.07-4.9c-.08-1.31.42-1.71,1.71-1.7,6.83.05,13.65,0,20.48,0s13.77,0,20.65,0c1.43,0,2,.4,1.9,1.87-.13,1.63-.15,3.26-.13,4.89,0,1.09-.49,1.48-1.47,1.45-1.4,0-2.8,0-4.19-.14-3.82-.27-5.74,1.34-6,5.13-.09,1.34-.11,2.68-.11,4q0,40.33,0,80.66a29.42,29.42,0,0,0,.42,5.05c.39,2.26,1.47,3.25,3.78,3.44,2,.16,4.07.14,6.11.12,1.11,0,1.61.36,1.55,1.52-.09,1.86-.13,3.73-.13,5.59,0,1.17-.69,1.32-1.6,1.3-2.33,0-4.66-.09-7-.09-11.26,0-22.52,0-33.78,0-1.66,0-2.3-.42-2.16-2.14a32.78,32.78,0,0,0-.05-4.54c-.06-1.16.29-1.75,1.56-1.67,1.46.09,2.92,0,4.37.12,3.52.24,5.27-1.12,5.74-4.58a18.19,18.19,0,0,0,.17-2.44q0-18.28,0-36.57c0-2.3,0-2.31-2.31-2.31-9,0-18,0-27,0-1.52,0-2.12.3-2.1,2,.1,12.07.07,24.14.13,36.21,0,6.49,1.22,7.6,7.71,7.61,4.14,0,4.14,0,4.15,4.13,0,4.29,0,4.31-4.2,4.29q-19.25,0-38.5-.12c-.57,0-1.13-.07-1.83-.11v-8.14c1.78,0,3.52-.12,5.24,0,4.34.38,6.22-1.11,6.55-5.43.06-.82.06-1.63.06-2.45q0-41.11,0-82.23a26.39,26.39,0,0,0-.33-4.35c-.45-2.66-1.41-3.67-4.14-3.91-2.36-.21-4.76,0-7.48,0,0-2.63,0-5,0-7.36,0-.26.45-.61.76-.73a3.72,3.72,0,0,1,1.21-.06c13.54,0,27.07,0,40.61,0,1.62,0,2.18.49,2.05,2.09a41.29,41.29,0,0,0,0,4.72c0,1.07-.39,1.49-1.44,1.43-1.33-.06-2.68,0-4-.12-4.09-.36-6.31,1.45-6.33,5.53-.09,11.78-.06,23.56-.12,35.34,0,1.32.57,1.51,1.68,1.5,6.42,0,12.84,0,19.25,0Z"/>
    <path class="cls-1" d="M490.49,129.88c.09,9.92-.83,19.21-4.26,28-4.6,11.81-11.66,21.76-23.05,28.05-13.06,7.21-30.69,4.78-41.42-5.57-11.24-10.84-17.26-24.11-18.76-39.55-1.29-13.33-.58-26.47,4-39.16,4.08-11.3,10.39-21,21.08-27.21,6.19-3.59,13-4.78,20-4.54,8.34.28,15.95,2.73,22.33,8.3A54.07,54.07,0,0,1,486,101.53,81.09,81.09,0,0,1,490.49,129.88ZM467.55,129a143.52,143.52,0,0,0-2.2-27.4c-1.17-6.16-2.78-12.18-6.7-17.26A15.16,15.16,0,0,0,437,81.64c-3.72,2.92-5.67,7.06-7.14,11.41-3,8.75-3.89,17.84-4.25,27-.48,12.49-.38,24.95,1.74,37.31,1.05,6.11,2.59,12.08,6.15,17.33,5.91,8.69,17.51,9.47,24.44,1.59,3.44-3.92,5.13-8.72,6.37-13.66C467,151.92,467.58,141,467.55,129Z"/>
    <path class="cls-1" d="M300.36,144.38c0,4.1.09,7.94,0,11.77-.29,10-.7,19.93-1,29.89,0,1.51-.85,1.48-1.93,1.47q-20.4-.09-40.79-.13-17.07,0-34.14,0c-1.48,0-2.13-.33-2-1.93a40.09,40.09,0,0,0-.12-4.9c-.08-1.16.42-1.57,1.53-1.51,1.52.08,3,0,4.55.13,3.42.19,5.3-1.27,5.75-4.66a37.11,37.11,0,0,0,.29-4.71q0-39.81,0-79.62a42.8,42.8,0,0,0-.55-6.08,3.59,3.59,0,0,0-3.42-3.23,63.11,63.11,0,0,0-6.45-.25c-1.12,0-1.57-.37-1.56-1.51,0-1.69,0-3.38-.13-5.07-.06-1,.29-1.56,1.38-1.47a8.42,8.42,0,0,0,.87,0h71.78c2.38,0,2.39,0,2.44,2.38.27,12.3.51,24.6.83,36.9,0,1.5-.28,2-1.89,2-3.69-.08-3.48,0-4.39-3.55a125.93,125.93,0,0,0-4.54-14.84c-3.44-8.66-10.14-13.51-19.36-14.58a50.26,50.26,0,0,0-10.26,0c-2.87.26-4,1.81-4.08,4.76q-.21,5.94-.25,11.89c0,8.17,0,16.33,0,24.5,0,1.46.48,1.94,1.92,1.88,7.66-.29,11.78-3.18,14.13-10.49a74.54,74.54,0,0,0,2.14-9.88c.25-1.44.74-1.93,2.23-1.9,3.76.08,3.76,0,3.76,3.84q0,23.27,0,46.55c0,2.3,0,2.3-2.29,2.31-3.18,0-3.15,0-3.73-3.12-.85-4.6-1.72-9.19-4.3-13.22a13.3,13.3,0,0,0-13.92-5.52c0,1.21,0,2.48,0,3.75,0,11.08,0,22.17.11,33.25a45.18,45.18,0,0,0,.51,5.91,4,4,0,0,0,3.7,3.64c12.56,1.56,26.79-1.26,32.91-16.62a72.91,72.91,0,0,0,4.69-16.79c.2-1.41.77-1.92,2.17-1.67C298.05,144.18,299.27,144.26,300.36,144.38Z"/>
    <path class="cls-1" d="M385.37,146.09c1.78.79,3.45,1.44,5,2.26a1.64,1.64,0,0,1,.6,1.4c-2.19,12.23-5.73,23.86-15.27,32.64-6.5,6-14.35,8.3-23,7.89-15.49-.75-25.55-9.59-32.74-22.43-5.25-9.38-7.6-19.62-8.35-30.27-.77-11-.12-21.79,3.21-32.35a64.93,64.93,0,0,1,10.14-20c8.88-11.67,20.68-16.42,35.11-14.56A26.8,26.8,0,0,1,375.29,78c1.19,1.13,1.87.94,2.76-.23,1.44-1.91,3-3.74,4.47-5.61.81-1,4.06-1.87,5-1.1a2.74,2.74,0,0,1,.56,1.86c.23,5.89.4,11.78.6,17.66.29,8.16.56,16.31.93,24.47.06,1.4-.4,1.8-1.71,1.91-3.77.3-3.78.35-4.6-3.35-1.64-7.36-3.73-14.58-7.25-21.29-2.68-5.13-6-9.74-11.34-12.48-6.53-3.37-17.59-3.07-23.26,6.45-3,5.07-4.41,10.61-5.2,16.36-2.53,18.5-2.78,37,.59,55.39a42.84,42.84,0,0,0,3.94,11.7c7.11,13.91,25,13.1,33.43,2.68,5.83-7.22,8.6-15.66,10.64-24.46C385,147.38,385.17,146.83,385.37,146.09Z"/>
    <path class="cls-1" d="M497.66,187.16c0-2.4,0-4.67.06-6.92,0-.33.69-.88,1.1-.91,1.62-.1,3.26,0,4.89-.05,3.86-.11,5.24-1.34,5.73-5.15a27.1,27.1,0,0,0,.16-3.49q0-40.59,0-81.18a33.55,33.55,0,0,0-.33-4.7c-.41-2.78-1.67-3.92-4.56-4.12-1.74-.12-3.5,0-5.25-.06-.51,0-1,0-1.78-.1,0-2.33,0-4.59,0-6.84,0-.3.49-.73.83-.86a4.27,4.27,0,0,1,1.39-.06c13.83,0,27.65,0,41.48,0,1.68,0,2.47.31,2.28,2.2s0,3.59,0,5.71H538c-6.23,0-7.38,1-7.67,7.2-.12,2.61-.15,5.24-.15,7.86q0,36.48,0,73a45.7,45.7,0,0,0,.57,6.6,3.43,3.43,0,0,0,2.89,3.14c9.86,1.53,19.17.47,26.75-6.75,3.83-3.65,6-8.46,7.54-13.45,1.31-4.23,2.34-8.54,3.35-12.85.32-1.39.82-1.8,2.22-1.57,3.55.6,3.6.55,3.48,4.17q-.66,18.87-1.35,37.74c0,1.09-.23,1.69-1.55,1.69q-37.62-.06-75.26,0C498.53,187.3,498.24,187.23,497.66,187.16Z"/>
    <path class="cls-1" d="M231,19.54c-.85-.15-1.71-.27-2.55-.47-8-1.85-15.88-3.75-23.84-5.52a12.74,12.74,0,0,0-4.18,0,152.85,152.85,0,0,0-26.36,5.26,13.68,13.68,0,0,1-2.94.37l-18,1.3c1.24-.53,2.07-.92,2.91-1.26,8.13-3.21,16.19-6.7,24.8-8.45a38.92,38.92,0,0,1,7.09-.34,18.38,18.38,0,0,0,3.54-.11l-2.81-.6-.08-.43,4.32-.67,0-.24a50.22,50.22,0,0,0-6.33-.54c-6.51.25-12.88-.86-19.31-1.51a90.42,90.42,0,0,0-22,.21C137.67,7.6,130,8.1,122.36,9.22a75,75,0,0,0-11.12,2.94c-4.8,1.47-9.48,3.31-14.31,4.65a55.48,55.48,0,0,0-15.68,7.53c-5.16,3.4-10.46,6.6-15.66,10a23,23,0,0,0-3.68,2.91C57,42,52.29,46.89,47.35,51.6a53.21,53.21,0,0,0-8.58,10.75c-3.28,5.32-6.77,10.49-10,15.81A43.34,43.34,0,0,0,25.27,85c-2.88,7.26-5.87,14.5-8.29,21.92-1.56,4.79-2.29,9.86-3.22,14.83-1.1,5.91-2,11.84-3,17.77a20.43,20.43,0,0,0-.24,3.13c-.15,9.39-.56,18.78-.3,28.16.14,5,1.43,9.89,2.26,14.83.49,2.93,1.15,5.84,1.62,8.77a15.82,15.82,0,0,0,2.49,6.45c1.79,2.66,3.42,5.42,5.36,8.52a10.53,10.53,0,0,1-2.35,0c-3-.83-5.95-1.7-8.88-2.66A3.09,3.09,0,0,1,9.1,205.3C7,201.21,4.76,197.15,3,192.9c-.87-2.14-.87-4.66-1.13-7C1.25,180,.48,174.17.15,168.3a80.33,80.33,0,0,1,.42-11.49C1.23,149,2,141.25,2.89,133.49A67,67,0,0,1,5,124.3c1.63-6.08,3.6-12.08,5-18.21,1.57-6.83,5-12.77,8.11-18.9C20,83.34,22.23,79.61,24,75.67c2.74-6.19,7.26-11.09,11.34-16.32,3.63-4.64,7.13-9.4,11.06-13.78a90.16,90.16,0,0,1,9-8c3.64-3.11,7.52-5.95,11-9.22C71,24,76.53,21.23,82.15,18.52c6.41-3.09,12.73-6.38,19.22-9.3a44.21,44.21,0,0,1,8.07-2.17c7.22-1.65,14.47-3.16,21.67-4.9a43.22,43.22,0,0,1,11.1-1.08c10.15.16,20.3.07,30.44.47a64,64,0,0,1,14.34,2C195.75,6,204.4,8.8,213,11.86c5.65,2,11,4.74,16.53,7.14.48.21,1,.37,1.46.56Z"/>
    <path class="cls-1" d="M245.25,27.07a13.25,13.25,0,0,1,2.46.75q15.14,8.4,30.24,16.86a2.9,2.9,0,0,1,.39.4,7.61,7.61,0,0,1-.81-.15c-16.19-6.08-33.11-8.62-50.19-10.59a161.58,161.58,0,0,0-29-.52,208.54,208.54,0,0,0-40.28,6.91c-10.27,2.73-19.9,7-29.75,10.77-2.72,1-5,3.22-7.57,4.69C111,61.77,102.65,69.17,94.68,77c-3.06,3-5.38,6.73-8,10.13A109.48,109.48,0,0,0,68,124.42,113.7,113.7,0,0,0,64.29,147c-.48,6.09-1.58,12.13-2.64,18.15a21.23,21.23,0,0,1-2.2,5.12q-2.6,5.34-5.28,10.65a2.91,2.91,0,0,1-1.5,1.38c.35-.63.69-1.27,1.06-1.89,3.4-5.75,5-12.2,6.86-18.49a30.87,30.87,0,0,0,1-9.89c-.42-11.61,2.14-22.7,5.42-33.68A124.26,124.26,0,0,1,77.61,94c5.8-10.52,13.5-19.57,21.66-28.24,2.1-2.22,4.86-3.81,7.17-5.86,7.45-6.62,16.08-11.29,24.95-15.65a190.42,190.42,0,0,1,45.88-15.75,207.77,207.77,0,0,1,25.1-3.46,216.39,216.39,0,0,1,23.76-.42c5.16.15,10.29,1.22,15.43,1.88,1.27.16,2.53.34,3.8.51Z"/>
    <path class="cls-1" d="M27.86,183c.6,1.91,1.25,3.94,1.88,6,1.19,3.84,2.16,7.77,3.63,11.5.82,2,2.48,3.76,3.76,5.63.38.57.74,1.14,1.33,2.05-1.53.48-2.81.95-4.13,1.23-.34.08-.92-.4-1.2-.77q-2.72-3.54-5.33-7.16a5.83,5.83,0,0,1-.83-1.89c-1.52-6-3.28-11.93-4.41-18-1.09-5.82-1.58-11.76-2.24-17.66-.57-5.09-1.18-10.2-1.46-15.31a67.06,67.06,0,0,1,.51-8.71c.43-5.34.81-10.69,1.4-16a79.71,79.71,0,0,1,1.71-10c1.41-5.83,2.92-11.64,4.66-17.39A78.22,78.22,0,0,1,31,86.6c2.42-5.24,4.9-10.46,7.61-15.55a50.39,50.39,0,0,1,5-7.31c3.57-4.55,7.19-9,11-13.42a40.07,40.07,0,0,1,5.6-5.21C65.4,41,70.55,36.9,76,33.19A103.24,103.24,0,0,1,87.48,27c4.27-2.16,8.67-4.05,12.89-6.28s8.89-2.77,13.4-3.86c7.31-1.76,14.62-3.54,22-4.86,5-.89,10.07-1,15.11-1.44L151,11c-2.67.57-5.31,1.37-8,1.67C130.73,14,119.1,17.89,107.28,21c-10.2,2.72-19,8.2-28.35,12.61-5.85,2.76-10.31,7.11-15,11.27-3.19,2.83-6.54,5.5-9.43,8.6a112.89,112.89,0,0,0-7.28,9.38c-2.52,3.36-5.13,6.66-7.45,10.15a45.33,45.33,0,0,0-3.12,6.42c-2,4.35-3.85,8.76-6,13-1.91,3.88-2.59,8.08-3.54,12.22C25.6,111.5,24,118.24,22.57,125a64.31,64.31,0,0,0-.78,8.35c-.38,5.4-1,10.82-1,16.23,0,7.39.63,14.78.67,22.17,0,4,1.75,7.29,3.2,10.76C25.49,184.49,26.63,182.68,27.86,183Z"/>
    <path class="cls-1" d="M263.61,253.76H248.16c.48-.32.59-.47.73-.49,3.54-.6,3.68-.74,3.68-4.32q0-10.06,0-20.13c0-.59-.07-1.19-.11-1.79L252,227q-5.59,13.42-11.21,26.86l-.48,0L228.7,227l-.66.12c0,1.66,0,3.31,0,5,.07,5.6.12,11.19.23,16.79.06,3.07.69,3.75,3.79,4.4a4.37,4.37,0,0,1,.8.49H222.59c.09-.21.11-.38.17-.39,3.5-.84,4.06-1.52,4.08-5.12,0-6.59,0-13.19,0-19.78,0-3.1-.49-3.66-3.66-4.15-.19,0-.37-.14-.53-.66h3.18c2.51,0,5,0,7.53,0a1.83,1.83,0,0,1,2,1.33c2.21,5.21,4.48,10.39,6.7,15.59.23.52.25,1.14.47,1.66a6.81,6.81,0,0,0,.82,1.19c.34-.33.84-.6,1-1,1.06-2.45,2.08-4.91,3-7.4,1.31-3.39,2.52-6.83,3.85-10.22.17-.45.76-1,1.16-1.05,3.72-.08,7.43-.05,11.21-.05-.09.29-.1.47-.16.49-3.67.87-3.72.87-3.74,4.66,0,6.54,0,13.07,0,19.6C259.71,252.47,259.77,252.51,263.61,253.76Z"/>
    <path class="cls-1" d="M286.3,243.44a40.85,40.85,0,0,1-1.18,5.22c-1.34,3.66-4.18,5.46-8,5.79a8.5,8.5,0,0,1-8.91-4.85,12.59,12.59,0,0,1,1.17-14c3.85-5.29,13-3.81,15.58,2.48A36.09,36.09,0,0,1,286.3,243.44Zm-13.4,1.2c.22,1.73.37,4.05.86,6.31a2.7,2.7,0,0,0,3,2.18c1.6-.06,2.21-1.18,2.44-2.51a26.18,26.18,0,0,0,.45-4.49c0-3.19-.13-6.39-.4-9.56a2.69,2.69,0,0,0-2.92-2.65c-1.79,0-2.58,1.21-2.75,2.82C273.3,239.16,273.15,241.6,272.9,244.64Z"/>
    <path class="cls-1" d="M53.86,175.71c.78-6.17,1.64-12.4,2.31-18.64a55.5,55.5,0,0,0,.13-7.52c-.16-5.94.91-11.71,2.1-17.49A199.24,199.24,0,0,1,65.75,106c1.89-5.37,4.51-10.49,6.75-15.74A69.53,69.53,0,0,1,89.22,67c3-2.84,6-5.7,9-8.54a2.24,2.24,0,0,1,1.28-.58A34.58,34.58,0,0,1,97,60.39C90.49,65.74,86,72.75,81.4,79.6a128.9,128.9,0,0,0-17,36.24c-1.6,5.48-3.36,11-4.48,16.53a81.84,81.84,0,0,0-1.51,14.57,113.43,113.43,0,0,1-4.23,27.91A8.83,8.83,0,0,1,53.86,175.71Z"/>
    <path class="cls-1" d="M329.41,248.43c-2,4.5-5,6.4-8.88,5.93a8,8,0,0,1-6.92-5.63,14.3,14.3,0,0,1,.65-11.39,8.66,8.66,0,0,1,9.3-4.75c3.35.64,6.06,4,6.34,7.91.11,1.48-.2,2.24-2,2.15a76.53,76.53,0,0,0-7.87.08c-.51,0-1.38.55-1.44.94-.38,2.62,2.42,6.75,4.84,7.46a4.25,4.25,0,0,0,5.06-1.71C328.78,249.06,329.12,248.76,329.41,248.43ZM324.85,239a11.22,11.22,0,0,0-.72-3.36,3.71,3.71,0,0,0-2.48-1.73c-.74,0-1.67,1-2.24,1.76a5.6,5.6,0,0,0-.72,2.31c-.56,3-.37,3.24,2.7,3.34.29,0,.58,0,.87,0C324.74,241.63,324.74,241.63,324.85,239Z"/>
    <path class="cls-1" d="M346.77,253.5c-.1-1.68-.23-3.75-.36-5.81l.31-.16a7,7,0,0,0,1,1.8A25.52,25.52,0,0,0,352,253a2.39,2.39,0,0,0,3.34-1,2.61,2.61,0,0,0-.54-3.5c-1.82-1.54-3.77-2.92-5.65-4.39s-3.35-3.46-2.95-6.13a6.05,6.05,0,0,1,8.49-4.87c1.39.56,2.62,1,4-.72v6.68a10.34,10.34,0,0,0-1.56-2.53,12.91,12.91,0,0,0-3.94-2.58c-.68-.24-2.19.59-2.6,1.33a3,3,0,0,0,.71,2.7c2.07,1.86,4.43,3.39,6.57,5.18,2.35,2,2.79,4.86,1.37,7.74a6.22,6.22,0,0,1-6.82,3.4c-.68-.13-1.34-.43-2-.52C349.26,253.63,348.11,253.59,346.77,253.5Z"/>
    <path class="cls-1" d="M303.91,233.25h6.16c-4,4.44-5,10.22-7.58,15.21-.8,1.55-1.35,3.23-2.09,4.81a5.87,5.87,0,0,1-1,1.2,5.54,5.54,0,0,1-.9-1.17c-2.31-5.22-4.54-10.47-6.91-15.66a38.7,38.7,0,0,0-2.71-4.31h10.1c-.48.68-1.34,1.37-1.43,2.14a6.41,6.41,0,0,0,.78,2.82c1.1,2.61,2.27,5.19,3.46,7.92.27-.21.51-.31.58-.48,1.13-2.8,2.33-5.59,3.35-8.44C306.47,235.05,306.22,234.7,303.91,233.25Z"/>
    <path class="cls-1" d="M342.62,253.72h-9.7c2-.71,2.07-2.41,2.07-4.11,0-3.72,0-7.45,0-11.17,0-3.37,0-3.37-2.61-5.13,2.71,0,5.22-.06,7.73.07.25,0,.64,1.1.65,1.7.05,4.88,0,9.77.06,14.66C340.85,251.21,340.59,252.93,342.62,253.72Z"/>
    <path class="cls-1" d="M334.74,226a3,3,0,0,1,2.7-3.06,3.58,3.58,0,0,1,3.62,3.49,3.17,3.17,0,1,1-6.32-.43Z"/>
    <path class="cls-1" d="M274.19,229.93c.72-2.29,1.36-4.45,2.11-6.57a1.58,1.58,0,0,1,1.14-.81c1.67-.09,3.34,0,5.09,0C281.25,225.37,276,230.17,274.19,229.93Z"/>
    <path class="cls-1" d="M245.25,27.07l.11,0-20-7.27.05-.22a21.66,21.66,0,0,0,3.08.48,12,12,0,0,0,2.45-.49h0c4.4,2.16,8.81,4.31,13.19,6.5A5.89,5.89,0,0,1,245.25,27.07Z"/>
</svg>