<?xml version="1.0" encoding="UTF-8" standalone="no"?>
<svg xmlns="http://www.w3.org/2000/svg" viewBox="0 0 702.02185 186.35193" width="702.02185" height="186.35193">
   <style>
      path {
         animation-iteration-count: infinite;
         animation-direction: alternate;
         animation-duration: 5s;
         animation-name: drawing;
         fill: #5f594f;
         stroke: transparent;
         stroke-width: 2px;
      }

      @keyframes drawing {
         0% {
               fill: transparent;
               stroke: #5f594f;
               stroke-dasharray: 1160px;
               stroke-dashoffset: 1160px;
         }
         70% {
               fill: transparent;
               stroke: #5f594f;
               stroke-dasharray: 1160px;
               stroke-dashoffset: 0px;
         }
         100% {
               fill: #5f594f;
               stroke: transparent;
         }
      }
   </style>
   <path d="m 417.55,121.2395 v 0 c -3.1,20.83 -9.6,36.64 -19.35,47.72 -9.6,10.92 -22.16,16.39 -37.52,16.39 a 55.68,55.68 0 0 1 -21.57,-4.13 57.91,57.91 0 0 1 -18.16,-12.71 84.85,84.85 0 0 1 -19.35,-32.65 c -4.44,-12.71 -6.65,-27 -6.65,-42.690004 a 135.1,135.1 0 0 1 4.27,-34.41 103.87,103.87 0 0 1 12.85,-29.1 c 6.2,-9.45 13.45,-16.54 21.57,-21.1199997 8.12,-4.58 17.58,-6.94 28.22,-6.94 a 48.13,48.13 0 0 1 18,3.25 47.37,47.37 0 0 1 15.22,10.1899997 l 10,-12.5599997 h 7.53 l 2.61,70.7599997 -9.15,0.88 c -3.85,-19.79 -9.35,-34.86 -16.29,-45.05 -6.94,-10.19 -15.51,-15.21 -25.41,-15.21 -11.81,0 -20.23,6.2 -25.7,18.46 -5.32,12.26 -8,32.05 -8,59.23 q 0,41.880004 8.42,59.830004 c 5.62,11.81 14.78,17.72 27.77,17.72 10,0 18.47,-4.43 25.41,-13.29 q 10.64,-13.51 15.51,-39 z m -261,59.53 v 0 -12.85 h 9 c 3.55,0 5.91,-0.89 7.24,-2.36 1.18,-1.63 1.92,-5 1.92,-10.34 V 30.859496 c 0,-5.31 -0.74,-8.71 -1.92,-10.34 -1.18,-1.63 -3.69,-2.51 -7.24,-2.51 h -9 V 5.4394963 h 116.54 l 1.47,63.2199997 h -8.86 c -3.1,-18.76 -8.12,-31.91 -14.92,-39.44 -7.09,-7.68 -17.43,-11.36 -31.31,-11.36 -5.91,0 -9.6,0.74 -11.08,2.52 -1.33,1.62 -2.07,5.17 -2.07,10.48 v 52.87 h 2.51 q 11.74,0 17.29,-7.54 c 3.84,-5 6.49,-13.88 8.12,-26.29 h 8.86 V 130.2495 h -8.88 c -1.63,-12.4 -4.28,-21 -8.12,-26 -3.84,-5.000004 -9.46,-7.540004 -17.29,-7.540004 h -2.49 V 155.2095 c 0,5.46 0.74,9 2.36,10.78 1.62,1.78 5.32,2.51 11.23,2.51 15.22,0 26.59,-4.13 34,-12.41 7.53,-8.12 13.14,-22.15 16.54,-42.09 l 9,0.88 -2.37,65.88 z M 501.45,1.0094963 v 0 13.5899997 q -16.17,0 -23.93,19.49 c -5.32,12.85 -7.83,32.5 -7.83,59.09 0,26.590004 2.53,46.380004 7.83,59.080004 5.17,12.86 13.15,19.35 23.93,19.35 v 13.3 a 54.74,54.74 0 0 1 -27.33,-6.8 c -8,-4.58 -15.36,-11.52 -22.16,-21.12 a 93.36,93.36 0 0 1 -13.74,-28.36 c -2.81,-10.19 -4.29,-22 -4.29,-35.450004 a 141.66,141.66 0 0 1 4.59,-36.32 92.45,92.45 0 0 1 13.7,-29.27 c 6.2,-9 13.44,-15.65 21.56,-19.9399997 a 56.66,56.66 0 0 1 27.67,-6.64 z M 80.62,167.9195 h 9 c 3.55,0 5.91,-0.89 7.09,-2.36 1.18,-1.47 1.77,-5 1.77,-10.34 V 98.219496 H 51.08 V 155.2195 c 0,5.32 0.59,8.71 1.92,10.34 1.18,1.47 3.69,2.36 7.24,2.36 h 9 v 12.85 H 1 v -12.85 h 9.16 c 3.55,0 6.06,-0.89 7.24,-2.36 1.18,-1.47 1.77,-5 1.77,-10.34 V 30.859496 c 0,-5.31 -0.59,-8.71 -1.92,-10.34 -1.33,-1.63 -3.54,-2.51 -7.09,-2.51 H 1 V 5.4394963 H 69.22 V 17.989496 h -9 c -3.55,0 -5.91,0.89 -7.24,2.51 -1.33,1.78 -1.92,5.17 -1.92,10.34 v 51.56 h 47.41 v -51.54 c 0,-5.31 -0.59,-8.71 -1.77,-10.34 -1.18,-1.63 -3.48,-2.53 -7.07,-2.53 h -9 V 5.4394963 h 68.24 V 17.989496 h -9.16 c -3.54,0 -5.9,0.89 -7.09,2.51 -1.19,1.62 -1.77,5 -1.77,10.34 V 155.2195 c 0,5.32 0.59,8.86 1.77,10.34 1.18,1.48 3.55,2.36 7.09,2.36 h 9.16 v 12.85 H 80.62 Z m 618,12.85 H 579.14 v -12.85 h 9 c 3.7,0 6.06,-0.89 7.39,-2.36 1.18,-1.63 1.77,-5 1.77,-10.34 V 30.859496 c 0,-5.31 -0.59,-8.86 -1.77,-10.48 -1.18,-1.62 -3.69,-2.37 -7.24,-2.37 h -9.16 V 5.4394963 h 70.76 V 17.989496 h -11.22 c -3.54,0 -5.91,0.89 -7.24,2.51 -1.33,1.78 -1.92,5.17 -1.92,10.34 V 154.6295 c 0,5.17 0.74,8.56 2.22,10.34 1.47,1.62 5.17,2.36 11.37,2.36 14.48,0 25.41,-4 32.64,-12.11 7.39,-8.13 12.71,-22 16.25,-42 l 9,1.18 z m -197.19,4.14 v -13.3 c 10.63,0 18.61,-6.49 23.78,-19.49 q 8,-19.5 8,-58.940004 c 0,-26.74 -2.66,-46.38 -7.83,-59.23 -5.17,-12.85 -13.16,-19.35 -23.93,-19.35 V 1.0094963 c 10.63,0 19.79,2.21 27.91,6.64 8.12,4.4299997 15.37,11.0799997 21.72,20.3899997 a 89,89 0 0 1 13.29,29.1 133.12,133.12 0 0 1 4.58,36 c 0,13.440004 -1.33,25.110004 -4.14,35.300004 a 92.11,92.11 0 0 1 -13.29,28.07 q -10,14 -22.6,21.27 a 55.23,55.23 0 0 1 -27.47,7.13 z" />
</svg>
