<svg id="Camada_1" data-name="Camada 1" xmlns="http://www.w3.org/2000/svg" xmlns:xlink="http://www.w3.org/1999/xlink" viewBox="0 0 2374 1647"><defs><style>.cls-1{fill:none;}.cls-2{clip-path:url(#clip-path);}.cls-3{opacity:0.2;}.cls-4{fill:#cdcabf;}</style><clipPath id="clip-path"><rect class="cls-1" x="-9.01" y="-55.28" width="2555.59" height="1719.69"/></clipPath></defs><g class="cls-2"><g class="cls-3"><path class="cls-4" d="M1975.34,157.19c-7.23-1.2-14.53-2.13-21.68-3.65-67.4-14.35-134.71-29.12-202.25-42.89-11.28-2.3-23.74-1.46-35.41-.2-75.72,8.2-150.52,20.71-223.66,41-7.89,2.18-16.53,2.34-24.87,2.92-49.53,3.39-99.07,6.62-152.6,10.18,10.49-4.19,17.48-7.21,24.66-9.81,69-25,137.28-52.16,210.37-65.8,19.45-3.63,40.07-2.33,60.16-2.67,9.81-.16,19.64,1.13,30-.88l-23.86-4.6c-.23-1.12-.47-2.24-.7-3.37l36.65-5.24.29-1.81c-17.92-1.52-35.92-4.87-53.75-4.22-55.22,2-109.23-6.62-163.79-11.69-61.85-5.74-124.24-6.46-186.55,1.72-64.62,8.48-130,12.41-194.54,21.12-32,4.32-63.22,14.11-94.31,22.86-40.67,11.46-80.42,25.81-121.39,36.23-48.42,12.31-91.43,33.52-133,58.62-43.79,26.46-88.73,51.31-132.83,77.35A196.82,196.82,0,0,0,541.13,295c-41.36,37.13-81.55,75.38-123.46,112-28.57,25-52.18,52.94-72.79,83.63-27.75,41.31-57.38,81.57-85.13,122.89a332,332,0,0,0-29.31,53.12c-24.39,56.49-49.76,112.78-70.26,170.49-13.23,37.2-19.39,76.61-27.26,115.28-9.34,45.9-17.23,92.05-25.47,138.13a153.92,153.92,0,0,0-2.09,24.35c-1.22,73-4.66,146-2.39,218.92,1.2,38.57,12.16,76.91,19.19,115.29,4.17,22.8,9.78,45.38,13.78,68.19a117.16,117.16,0,0,0,21.14,50.16c15.14,20.66,29,42.1,45.47,66.21-8.43,0-14.57,1.18-19.94-.19-25.27-6.41-50.47-13.14-75.37-20.66A25.62,25.62,0,0,1,93.6,1602c-17.89-31.84-36.84-63.36-51.59-96.43-7.42-16.64-7.4-36.23-9.61-54.61-5.48-45.49-12-91-14.81-136.61-1.85-29.63.77-59.66,3.53-89.34,5.61-60.5,11.71-121,19.58-181.28,3.16-24.11,10.77-47.85,17.67-71.43,13.82-47.28,30.48-93.93,42.37-141.6,13.26-53.11,42.55-99.28,68.72-146.94,16.45-30,35.15-59,49.94-89.61C242.65,546,281,507.92,315.57,467.29c30.76-36.1,60.48-73.11,93.74-107.2,22.55-23.11,50.11-42.21,76-62.47,30.87-24.14,63.77-46.23,93.25-71.68,39.35-34,86.54-55.14,134.22-76.24,54.36-24.06,108-49.63,163-72.33,21.28-8.79,45.4-12,68.45-16.9,61.24-12.91,122.78-24.65,183.83-38.22,31.16-6.93,62.33-8.91,94.13-8.44,86.1,1.27,172.26.53,258.27,3.59,40.8,1.45,82.44,5.92,121.68,15.78,74.26,18.67,147.7,40.58,220.25,64.3,47.86,15.65,93.55,36.84,140.24,55.5,4,1.62,8.27,2.88,12.35,4.35C1974.92,157.38,1975.34,157.19,1975.34,157.19Z"/><path class="cls-4" d="M2096.39,215.69c7,1.89,14.65,2.67,20.87,5.82q128.47,65.19,256.58,131c.81.42,1.36,1.26,3.3,3.11-3.15-.53-5.08-.6-6.8-1.19-137.39-47.21-281-66.93-425.8-82.18-82-8.64-164.38-8.75-246.09-3.93-115.58,6.82-229.3,26.46-341.68,53.85-87.06,21.23-168.74,54.67-252.32,83.8-23.09,8.05-42.29,25.05-64.16,36.52-82.82,43.39-153.45,100.95-221,161.48-25.94,23.23-45.66,52.3-68.17,78.74C677,769.67,626.53,867.92,593.33,973c-17.94,56.81-26.5,116-31.65,175.45-4.1,47.28-13.42,94.26-22.43,141-2.67,13.85-11.77,26.77-18.64,39.81q-21.92,41.63-44.7,82.86c-2.51,4.54-6.73,8.29-12.74,10.75,3-4.92,5.86-9.91,9-14.76,28.8-44.68,42.13-94.84,58.16-143.7,8-24.26,9.32-51.3,8.29-76.89-3.65-90.27,18-176.51,45.84-261.9,21.6-66.27,53.69-128.37,90.07-188.9C723.68,655,788.93,584.68,858.18,517.25,876,499.92,899.39,487.58,919,471.63c63.15-51.48,136.35-87.81,211.62-121.75a1719.43,1719.43,0,0,1,389.17-122.6c70-13.21,141.56-21.64,212.88-26.94,66.87-5,134.43-5.08,201.56-3.33,43.76,1.15,87.29,9.43,130.92,14.54,10.76,1.26,21.5,2.65,32.25,4Z"/><path class="cls-4" d="M252.72,1428.19c5.1,14.85,10.6,30.64,16,46.47,10.09,29.87,18.31,60.41,30.85,89.38,6.9,16,21,29.28,31.85,43.82,3.26,4.38,6.34,8.87,11.31,15.88-13,3.73-23.85,7.46-35.06,9.64-2.84.56-7.75-3.17-10.15-6q-23-27.51-45.2-55.63A42.39,42.39,0,0,1,245.2,1557c-12.9-46.53-27.83-92.73-37.49-139.83-9.28-45.27-13.42-91.45-19.05-137.31-4.87-39.62-10-79.28-12.39-119.05-1.34-22.42,2.35-45.12,4.31-67.66,3.62-41.56,6.78-83.19,11.8-124.61a577,577,0,0,1,14.49-77.4c11.93-45.34,24.74-90.55,39.45-135.19,8.66-26.28,20.49-51.86,33-76.87,20.44-40.76,41.54-81.31,64.51-120.91,11.71-20.17,27.1-38.78,42.56-56.86C416.63,466,447.37,431,479.27,397c14-15,30.49-28.34,47.47-40.55,44-31.63,87.67-63.81,133.8-92.65,30.39-19,64.5-33.14,97.49-48.47,36.17-16.8,73.49-31.58,109.36-48.9s75.37-21.56,113.65-30c62-13.7,124-27.62,186.71-37.9,42.08-6.9,85.37-7.67,128.11-11.19.24,1.19.47,2.37.7,3.55-22.6,4.45-45,10.67-67.85,13-103.83,10.8-202.44,40.81-302.74,65.33C839.45,190.39,764.89,233,685.53,267.33,635.9,288.8,598,322.61,558.26,355c-27,22-55.42,42.78-80,66.88-22.81,22.4-41.51,48.36-61.7,73-21.41,26.08-43.53,51.75-63.19,78.9-11.07,15.28-18.05,33.1-26.47,50-16.89,33.79-32.61,68.09-50.5,101.43-16.22,30.22-22,62.85-30,95-13.16,52.57-27.05,105-38.8,157.85-4.71,21.16-4.92,43.21-6.57,64.89-3.2,42-8.33,84.12-8.34,126.19,0,57.47,5.4,114.94,5.68,172.42.16,31.06,14.92,56.59,27.24,83.58C232.56,1440.22,242.25,1426.12,252.72,1428.19Z"/><path class="cls-4" d="M473.22,1371.8c6.58-48,13.88-96.35,19.56-144.92,2.26-19.29,1.65-39,1.07-58.42-1.38-46.17,7.67-91.06,17.76-136,15.5-68.93,36.8-136.44,62.27-202.65,16.07-41.77,38.24-81.55,57.21-122.41,32.52-70,81.89-128.86,141.78-180.84,25.44-22.09,50.7-44.35,76.16-66.42a19.93,19.93,0,0,1,10.85-4.55c-7,6.56-13.37,13.78-21,19.57-55.18,41.57-93,96.05-132.25,149.34Q610.39,755,562.39,906.37c-13.59,42.61-28.48,85.1-37.93,128.52a583.48,583.48,0,0,0-12.81,113.25c-1.31,74-14.81,145.93-35.77,217A63.38,63.38,0,0,1,473.22,1371.8Z"/><path class="cls-4" d="M2096.39,215.69l1-.17L1927.94,159l.36-1.71c8.72,1.33,17.42,3.57,26.15,3.7,6.9.09,13.85-2.42,20.83-3.81.06,0-.36.16-.29.11,37.37,16.77,74.72,33.5,111.91,50.52C2090.57,209.53,2093.25,213,2096.39,215.69Z"/></g></g></svg>