<?xml version="1.0" encoding="UTF-8" standalone="no"?>
<svg xmlns="http://www.w3.org/2000/svg" version="1.1" width="20" height="20" viewBox="0 0 20 20">
   <path d="M 3.6,7 H 16.4 C 16.952,7 17,6.553 17,6 17,5.447 16.952,5 16.4,5 H 3.6 C 3.048,5 3,5.447 3,6 3,6.553 3.048,7 3.6,7 Z" id="path868" />
   <path d="M 16.4,13 H 3.6 C 3.048,13 3,13.447 3,14 c 0,0.553 0.048,1 0.6,1 h 12.8 c 0.552,0 0.6,-0.447 0.6,-1 0,-0.553 -0.048,-1 -0.6,-1 z" id="path866" />
   <path d="M 16.4,9 H 3.6 C 3.048,9 3,9.447 3,10 c 0,0.553 0.048,1 0.6,1 H 16.4 C 16.952,11 17,10.553 17,10 17,9.447 16.952,9 16.4,9 Z" id="path4" />
</svg>
