<!-- Generated by IcoMoon.io -->
<svg version="1.1" xmlns="http://www.w3.org/2000/svg" width="32" height="32" viewBox="0 0 32 32">
<title>bars</title>
<path d="M30.667 17.305h-29.333c-0.736 0-1.333-0.597-1.333-1.333s0.597-1.333 1.333-1.333h29.333c0.736 0 1.333 0.597 1.333 1.333s-0.597 1.333-1.333 1.333z"></path>
<path d="M30.667 7.084h-29.333c-0.736 0-1.333-0.597-1.333-1.333s0.597-1.333 1.333-1.333h29.333c0.736 0 1.333 0.597 1.333 1.333s-0.597 1.333-1.333 1.333z"></path>
<path d="M30.667 27.528h-29.333c-0.736 0-1.333-0.597-1.333-1.333s0.597-1.333 1.333-1.333h29.333c0.736 0 1.333 0.597 1.333 1.333s-0.597 1.333-1.333 1.333z"></path>
</svg>
