<!-- Generated by IcoMoon.io -->
<svg version="1.1" xmlns="http://www.w3.org/2000/svg" width="32" height="32" viewBox="0 0 32 32">
<title>facebook</title>
<path d="M23.999 0.007l-4.149-0.007c-4.663 0-7.675 3.091-7.675 7.875v3.631h-4.172c-0.36 0-0.652 0.292-0.652 0.653v5.261c0 0.36 0.292 0.652 0.652 0.652h4.172v13.275c0 0.36 0.292 0.652 0.652 0.652h5.444c0.36 0 0.652-0.292 0.652-0.652v-13.275h4.879c0.36 0 0.652-0.292 0.652-0.652l0.003-5.261c0-0.173-0.069-0.339-0.191-0.461s-0.288-0.192-0.461-0.192h-4.88v-3.079c0-1.48 0.352-2.231 2.28-2.231l2.796-0.001c0.36 0 0.652-0.292 0.652-0.652v-4.885c0-0.36-0.292-0.652-0.652-0.652z"></path>
</svg>
