<!-- Generated by IcoMoon.io -->
<svg version="1.1" xmlns="http://www.w3.org/2000/svg" width="32" height="32" viewBox="0 0 32 32">
<title>tripadvisor</title>
<path d="M9 17.397c0 0.718-0.581 1.3-1.286 1.3-0.718 0-1.3-0.581-1.3-1.3 0-0.705 0.581-1.286 1.3-1.286 0.705 0 1.286 0.581 1.286 1.286zM24.954 17.382c0 0.718-0.581 1.3-1.3 1.3s-1.3-0.581-1.3-1.3 0.581-1.286 1.3-1.286 1.3 0.567 1.3 1.286zM10.577 17.397c0-1.466-1.203-2.668-2.668-2.668-1.479 0-2.668 1.203-2.668 2.668 0 1.479 1.189 2.668 2.668 2.668 1.466 0 2.668-1.189 2.668-2.668zM26.517 17.382c0-1.466-1.189-2.668-2.668-2.668-1.466 0-2.668 1.203-2.668 2.668 0 1.479 1.203 2.668 2.668 2.668 1.479 0 2.668-1.189 2.668-2.668zM11.751 17.397c0 2.13-1.715 3.858-3.843 3.858s-3.858-1.728-3.858-3.858c0-2.115 1.728-3.843 3.858-3.843s3.843 1.728 3.843 3.843zM27.705 17.382c0 2.13-1.728 3.843-3.858 3.843-2.115 0-3.843-1.715-3.843-3.843s1.728-3.843 3.843-3.843c2.129 0 3.858 1.715 3.858 3.843zM14.378 17.423c0-3.525-2.861-6.388-6.387-6.388-3.512 0-6.373 2.861-6.373 6.388s2.861 6.388 6.373 6.388c3.525 0 6.387-2.861 6.387-6.388zM23.613 9.502c-2.281-0.995-4.853-1.535-7.686-1.535s-5.655 0.539-7.922 1.521c4.383 0.013 7.922 3.553 7.922 7.935 0-4.299 3.415-7.798 7.686-7.922zM30.235 17.423c0-3.525-2.848-6.388-6.373-6.388s-6.388 2.861-6.388 6.388 2.861 6.388 6.388 6.388 6.373-2.861 6.373-6.388zM26.558 9.599h5.294c-0.83 0.967-1.438 2.267-1.59 3.166 0.954 1.313 1.521 2.917 1.521 4.659 0 4.383-3.553 7.922-7.922 7.922-2.489 0-4.701-1.133-6.152-2.917 0 0-0.649 0.774-1.784 2.474-0.194-0.401-1.175-1.797-1.769-2.489-1.451 1.797-3.678 2.931-6.166 2.931-4.369 0-7.922-3.54-7.922-7.922 0-1.742 0.567-3.346 1.521-4.659-0.152-0.899-0.761-2.198-1.59-3.166h5.046c2.71-1.811 6.65-2.945 10.88-2.945s7.922 1.133 10.631 2.945z"></path>
</svg>
