<!-- Generated by IcoMoon.io -->
<svg version="1.1" xmlns="http://www.w3.org/2000/svg" width="32" height="32" viewBox="0 0 32 32">
<title>whatsapp</title>
<path d="M0.151 31.957c-0.043 0-0.085 0-0.129 0 0.891-2.629 1.771-5.259 2.683-7.876 0.119-0.344 0.085-0.612-0.085-0.923-1.877-3.359-2.436-6.932-1.685-10.699 0.655-3.295 2.253-6.095 4.743-8.339 3.477-3.144 7.587-4.464 12.233-4.045 2.812 0.257 5.376 1.245 7.651 2.929 3.337 2.468 5.419 5.752 6.171 9.84 0.107 0.58 0.172 1.169 0.247 1.749 0 0.644 0 1.288 0 1.932-0.021 0.085-0.043 0.183-0.053 0.268-0.172 0.965-0.257 1.964-0.525 2.908-1.76 6.267-7.2 10.785-13.649 11.353-3.069 0.268-5.977-0.289-8.713-1.707-0.193-0.107-0.376-0.161-0.612-0.085-2.253 0.729-4.507 1.437-6.76 2.157-0.504 0.183-1.009 0.365-1.513 0.536zM3.981 28.083c0.129-0.032 0.215-0.053 0.3-0.085 1.437-0.451 2.876-0.901 4.303-1.373 0.321-0.107 0.547-0.075 0.837 0.096 2.447 1.492 5.108 2.125 7.963 1.877 3.681-0.311 6.717-1.9 9.068-4.721 2.543-3.048 3.488-6.6 2.833-10.527-0.536-3.208-2.136-5.837-4.636-7.887-2.103-1.728-4.528-2.715-7.255-2.929-2.651-0.215-5.151 0.311-7.48 1.599-2.125 1.18-3.82 2.823-5.044 4.925-1.395 2.383-1.953 4.957-1.707 7.695 0.204 2.275 0.965 4.347 2.275 6.224 0.14 0.204 0.151 0.376 0.075 0.601-0.472 1.373-0.944 2.747-1.405 4.132-0.043 0.096-0.075 0.215-0.129 0.376z"></path>
<path d="M24.252 19.563c-0.032 1.76-0.997 2.693-2.791 3.208-0.772 0.215-1.524 0.129-2.264-0.107-1.749-0.536-3.477-1.148-4.957-2.264-1.395-1.063-2.576-2.317-3.605-3.735-0.676-0.933-1.352-1.867-1.707-2.993-0.569-1.76-0.289-3.337 1.020-4.689 0.344-0.355 0.751-0.547 1.256-0.504 0.172 0.011 0.355 0.032 0.525 0.011 0.397-0.032 0.655 0.14 0.805 0.493 0.44 1.031 0.88 2.060 1.299 3.101 0.064 0.172 0.043 0.461-0.053 0.623-0.279 0.44-0.612 0.859-0.944 1.267-0.247 0.311-0.289 0.472-0.075 0.816 1.256 2.092 3.005 3.616 5.291 4.507 0.311 0.119 0.569 0.064 0.772-0.193 0.376-0.472 0.761-0.933 1.137-1.405 0.279-0.344 0.451-0.419 0.869-0.225 1.063 0.483 2.103 0.997 3.155 1.492 0.279 0.129 0.289 0.387 0.268 0.601z"></path>
</svg>
