<?xml version="1.0" standalone="no"?>
<!DOCTYPE svg PUBLIC "-//W3C//DTD SVG 20010904//EN"
 "http://www.w3.org/TR/2001/REC-SVG-20010904/DTD/svg10.dtd">
<svg version="1.0" xmlns="http://www.w3.org/2000/svg"
 width="922.000000pt" height="922.000000pt" viewBox="0 0 922.000000 922.000000"
 preserveAspectRatio="xMidYMid meet">
<metadata>
Created by potrace 1.14, written by Peter Selinger 2001-2017
</metadata>
<g transform="translate(0.000000,922.000000) scale(0.100000,-0.100000)"
fill="#000000" stroke="none">
<path d="M2230 8329 c-14 -12 -41 -35 -60 -52 -19 -18 -51 -44 -70 -58 -19
-15 -47 -37 -61 -50 -14 -13 -47 -42 -75 -64 -27 -21 -51 -42 -54 -45 -4 -5
-217 -183 -264 -220 -10 -8 -23 -20 -30 -25 -6 -6 -40 -35 -76 -64 -36 -29
-69 -58 -75 -64 -5 -7 -26 -24 -45 -39 -19 -15 -47 -37 -62 -50 -14 -13 -35
-30 -45 -38 -34 -28 -138 -115 -149 -125 -6 -5 -30 -26 -54 -45 -24 -19 -48
-40 -54 -45 -6 -6 -36 -30 -66 -55 -30 -25 -64 -53 -75 -64 -11 -10 -36 -30
-55 -45 -19 -14 -44 -35 -56 -46 -12 -11 -30 -27 -40 -35 -36 -29 -128 -105
-144 -120 -10 -8 -36 -31 -60 -50 -23 -19 -47 -40 -54 -45 -6 -6 -49 -42 -96
-80 -47 -38 -117 -97 -155 -130 -39 -33 -92 -78 -118 -99 l-48 -40 93 -24 c51
-13 102 -25 113 -26 16 -3 405 -97 505 -123 14 -3 30 -7 36 -8 6 -2 51 -12
100 -24 93 -22 124 -29 136 -31 4 -1 22 -6 40 -11 18 -6 42 -12 53 -14 11 -3
34 -8 50 -12 17 -4 35 -8 40 -9 10 -1 74 -17 135 -34 19 -6 46 -12 60 -14 14
-3 52 -12 85 -21 33 -9 69 -18 80 -20 11 -1 40 -8 65 -14 25 -7 54 -14 65 -15
11 -2 40 -9 65 -16 25 -7 52 -14 60 -16 8 -2 71 -17 140 -34 69 -17 134 -33
145 -35 22 -5 23 -6 145 -35 47 -11 112 -27 145 -34 33 -8 137 -33 230 -56 94
-23 177 -43 185 -45 8 -2 61 -14 116 -29 56 -14 112 -27 125 -30 13 -2 87 -20
164 -39 77 -20 151 -38 165 -41 14 -3 44 -10 68 -16 23 -5 61 -15 85 -20 23
-6 53 -13 67 -15 14 -3 32 -8 40 -11 8 -3 26 -8 40 -10 14 -3 43 -10 65 -16
22 -5 48 -12 57 -14 10 -2 26 -6 36 -8 16 -4 265 -65 287 -70 43 -11 83 -21
250 -61 105 -25 210 -51 235 -57 25 -7 50 -13 55 -14 6 0 12 -2 15 -3 7 -3 40
-11 70 -16 14 -2 25 -4 25 -5 0 -2 38 -12 143 -35 13 -3 87 -22 165 -41 78
-19 151 -37 162 -39 11 -3 58 -14 105 -26 47 -11 93 -23 103 -25 20 -5 12 -3
182 -43 110 -26 143 -34 185 -46 3 0 41 -9 85 -19 44 -10 87 -20 95 -23 8 -2
17 -5 20 -6 30 -7 119 -29 134 -32 42 -10 195 -47 251 -61 33 -9 70 -17 82
-19 12 -2 37 -8 55 -14 18 -6 47 -13 63 -16 17 -3 35 -7 40 -9 18 -5 58 -15
170 -41 61 -14 126 -30 145 -35 45 -12 122 -32 135 -34 31 -6 172 -39 185 -44
8 -3 24 -7 35 -9 11 -2 49 -10 84 -19 36 -9 72 -17 80 -19 9 -2 135 -33 281
-69 146 -35 306 -74 355 -86 50 -12 180 -44 290 -71 110 -27 216 -52 235 -55
19 -3 39 -8 44 -12 5 -3 19 -6 30 -8 12 -1 95 -21 186 -44 91 -23 172 -43 180
-45 8 -2 28 -6 44 -11 21 -5 27 -4 22 5 -4 6 -11 11 -16 11 -5 0 -39 18 -75
40 -36 22 -70 40 -75 40 -6 0 -10 5 -10 10 0 6 -4 10 -9 10 -9 0 -94 47 -156
85 -11 7 -23 12 -26 11 -4 -1 -15 6 -25 15 -11 9 -39 28 -64 41 -25 14 -85 49
-135 78 -49 28 -157 91 -240 138 -82 47 -151 90 -153 94 -2 4 -8 8 -14 8 -6 0
-44 20 -85 45 -40 25 -76 45 -79 45 -2 0 -34 18 -70 40 -36 22 -68 40 -70 40
-3 0 -33 18 -68 40 -35 22 -66 40 -69 40 -4 0 -31 16 -62 35 -30 19 -66 40
-80 45 -14 5 -25 14 -25 20 0 5 -8 10 -18 10 -10 0 -23 5 -28 10 -14 14 -74
49 -96 56 -10 4 -18 10 -18 15 0 5 -5 9 -10 9 -6 0 -65 32 -133 71 -67 40
-142 83 -167 97 -25 14 -62 36 -82 49 -21 12 -39 23 -42 23 -2 0 -34 18 -71
41 -37 22 -84 50 -104 61 -148 82 -457 264 -463 273 -4 5 -8 6 -8 2 0 -5 -12
0 -28 10 -46 31 -66 43 -82 50 -8 4 -17 9 -20 12 -3 3 -21 14 -40 25 -89 47
-146 80 -161 92 -8 8 -18 14 -21 14 -4 0 -39 19 -80 43 -40 24 -93 55 -118 69
-25 14 -101 58 -170 98 -69 40 -145 84 -170 98 -25 14 -62 36 -82 49 -21 12
-42 23 -48 23 -5 0 -10 5 -10 10 0 6 -5 10 -11 10 -6 0 -45 20 -86 45 -40 25
-75 45 -77 45 -4 0 -128 72 -156 91 -8 5 -23 12 -32 15 -10 4 -18 9 -18 13 0
3 -15 13 -32 20 -18 8 -68 36 -111 63 -43 26 -80 48 -82 48 -1 0 -64 36 -140
80 -76 44 -141 80 -146 80 -5 0 -9 5 -9 10 0 6 -6 10 -13 10 -7 0 -28 10 -47
23 -19 13 -60 37 -90 53 -30 16 -57 32 -60 35 -3 3 -30 19 -60 36 -52 28 -269
153 -465 268 -49 29 -112 65 -140 80 -27 15 -54 31 -60 35 -18 14 -120 71
-137 77 -10 3 -18 9 -18 14 0 5 -4 9 -9 9 -4 0 -86 45 -182 101 -96 55 -203
117 -239 137 -36 19 -67 38 -70 41 -3 3 -25 17 -50 30 -25 13 -97 54 -160 91
-63 37 -131 77 -150 88 -19 10 -75 43 -123 71 -49 28 -89 51 -90 51 -1 -1 -13
-10 -27 -21z"/>
<path d="M5 6183 c12 -356 15 -446 20 -576 3 -76 8 -209 10 -295 3 -86 7 -211
10 -277 2 -66 7 -190 9 -275 3 -85 8 -225 11 -310 8 -227 14 -395 20 -570 3
-85 7 -213 10 -285 2 -71 7 -213 11 -315 4 -102 7 -236 8 -297 0 -62 3 -113 6
-113 3 0 6 -62 7 -138 1 -75 5 -204 8 -287 6 -180 13 -371 21 -600 7 -232 11
-360 19 -560 3 -93 7 -203 8 -242 2 -75 6 -83 29 -60 14 14 84 77 192 172 37
33 78 69 90 80 12 11 53 47 91 80 37 33 91 80 118 105 65 59 83 75 136 118 24
21 54 47 65 58 12 12 48 45 81 74 33 29 76 67 95 84 46 41 207 184 244 216 16
14 34 30 40 36 6 5 54 47 106 93 52 46 126 111 164 145 38 33 79 70 91 81 25
22 133 118 169 150 12 11 55 49 96 85 41 36 84 74 96 85 87 79 158 141 168
147 8 5 11 395 11 1493 0 817 0 1485 -1 1485 -1 0 -39 9 -85 21 -46 11 -93 23
-104 26 -11 3 -36 9 -55 13 -19 5 -53 13 -75 19 -22 5 -49 12 -60 14 -11 3
-49 13 -85 22 -36 9 -81 20 -99 25 -19 5 -39 7 -43 4 -4 -3 -8 -1 -8 4 0 5 -6
9 -12 10 -44 5 -81 13 -98 22 -11 6 -20 9 -20 6 0 -3 -20 1 -45 8 -25 8 -45
12 -45 9 0 -3 -7 0 -15 7 -8 7 -15 10 -15 7 0 -3 -16 -1 -36 5 -20 5 -44 11
-53 13 -58 13 -199 48 -211 52 -8 3 -21 7 -29 9 -40 8 -120 27 -146 35 -26 7
-129 33 -176 44 -9 2 -33 8 -53 13 -20 6 -36 8 -36 6 0 -3 -8 0 -19 5 -10 6
-33 13 -52 16 -19 3 -77 17 -129 31 -52 13 -111 27 -130 30 -19 3 -38 8 -42
11 -4 2 -63 17 -130 34 -68 16 -131 32 -140 35 -16 5 -17 -7 -13 -143z"/>
<path d="M8456 3482 c-2 -1 -23 -5 -47 -8 -24 -3 -55 -8 -69 -10 -14 -3 -41
-7 -60 -9 -31 -3 -74 -9 -150 -20 -138 -21 -189 -28 -215 -30 -16 -2 -30 -4
-30 -5 0 -1 -18 -3 -40 -6 -22 -2 -53 -6 -70 -9 -16 -3 -50 -8 -75 -10 -25 -2
-54 -7 -65 -9 -11 -3 -43 -8 -71 -11 -28 -3 -61 -7 -73 -10 -13 -2 -49 -7 -80
-10 -31 -4 -63 -8 -71 -10 -16 -4 -93 -15 -145 -21 -16 -1 -30 -3 -30 -4 0 -1
-7 -2 -90 -14 -22 -3 -56 -8 -75 -11 -19 -3 -55 -7 -80 -10 -25 -2 -56 -7 -69
-10 -14 -2 -47 -7 -75 -10 -28 -3 -62 -7 -76 -10 -25 -5 -62 -10 -150 -20 -25
-3 -52 -8 -60 -10 -8 -2 -38 -7 -66 -10 -28 -3 -59 -7 -70 -9 -11 -2 -47 -7
-79 -11 -33 -4 -69 -9 -80 -11 -11 -2 -38 -6 -60 -9 -22 -3 -56 -8 -75 -11
-19 -2 -51 -7 -70 -9 -19 -3 -50 -7 -67 -10 -48 -7 -104 -15 -138 -20 -97 -13
-193 -26 -215 -29 -24 -4 -82 -12 -160 -22 -19 -2 -46 -6 -60 -9 -14 -2 -45
-7 -70 -10 -25 -3 -56 -8 -70 -10 -14 -2 -49 -7 -79 -10 -30 -4 -61 -8 -70
-10 -9 -1 -36 -6 -61 -10 -25 -3 -58 -9 -75 -11 -16 -3 -50 -7 -75 -9 -25 -2
-54 -6 -65 -8 -11 -3 -45 -8 -75 -12 -30 -3 -66 -8 -80 -10 -14 -2 -54 -9 -90
-14 -36 -5 -90 -13 -120 -17 -58 -7 -72 -9 -132 -18 -92 -14 -206 -29 -225
-29 -7 0 -13 -4 -13 -8 0 -5 -6 -6 -14 -3 -8 3 -40 1 -72 -5 -33 -6 -81 -13
-109 -16 -27 -4 -61 -9 -75 -11 -14 -3 -45 -7 -70 -10 -25 -2 -56 -7 -70 -10
-14 -2 -47 -7 -75 -10 -27 -3 -61 -7 -75 -10 -14 -3 -41 -7 -60 -9 -58 -8
-123 -16 -160 -21 -19 -2 -46 -6 -60 -9 -14 -3 -42 -7 -62 -10 -21 -3 -55 -7
-75 -10 -21 -3 -69 -10 -106 -15 -38 -6 -73 -8 -78 -4 -5 3 -9 0 -9 -6 0 -6
-3 -9 -8 -6 -4 2 -28 1 -52 -4 -25 -4 -70 -11 -101 -14 -31 -4 -67 -9 -80 -12
-13 -3 -42 -7 -64 -9 -119 -14 -154 -25 -186 -62 -8 -10 -47 -46 -85 -79 -79
-70 -110 -99 -174 -157 -25 -23 -86 -78 -134 -122 -49 -44 -104 -93 -121 -110
-18 -16 -66 -59 -106 -95 -40 -36 -87 -78 -104 -93 -16 -16 -55 -51 -85 -77
-30 -26 -69 -61 -86 -77 -65 -61 -172 -157 -329 -298 -21 -20 -155 -140 -221
-200 -97 -89 -180 -163 -208 -188 -17 -16 -61 -55 -97 -88 -36 -32 -83 -75
-105 -94 -21 -19 -34 -35 -28 -35 6 0 130 39 275 86 145 47 280 90 299 96 19
6 44 14 55 19 11 4 38 13 60 19 22 6 49 15 60 20 11 5 45 16 75 25 30 9 62 19
70 22 8 3 20 7 25 8 8 2 376 121 435 141 8 3 17 5 20 6 3 0 21 6 40 14 19 8
37 15 40 16 7 1 17 4 65 19 22 7 42 13 45 14 3 0 49 15 102 33 53 18 105 35
115 37 10 2 50 15 88 28 113 40 239 80 253 80 6 0 12 4 12 9 0 4 8 8 18 8 9 0
41 9 70 19 28 11 52 17 52 14 0 -3 7 0 15 7 8 7 15 9 15 5 0 -4 6 -3 13 2 10
9 32 16 77 28 3 0 154 49 335 109 182 59 359 116 395 127 36 11 74 24 85 29
24 10 274 91 295 95 8 2 33 10 55 18 22 9 155 52 295 97 140 45 280 91 310
102 30 11 62 21 72 23 9 2 92 28 185 58 92 31 186 61 208 67 22 7 46 17 53 23
6 5 12 6 12 3 0 -4 8 -2 18 3 11 6 30 12 43 15 13 3 74 21 134 41 116 39 132
44 140 45 3 1 20 7 39 15 18 8 36 11 40 8 3 -4 6 -2 6 4 0 5 6 10 13 10 12 0
184 54 242 76 17 7 32 12 35 13 3 0 37 10 75 23 39 12 77 24 85 26 8 2 42 14
75 25 33 12 67 24 75 25 8 2 78 25 155 50 77 26 145 47 150 49 6 1 24 7 40 13
35 13 284 94 299 98 6 1 18 4 26 7 34 13 113 39 235 78 72 23 137 44 145 47 8
3 20 7 25 8 6 2 123 39 260 85 138 45 257 83 265 85 8 2 98 31 200 65 102 34
192 63 200 65 8 2 35 11 60 20 25 9 52 18 60 20 8 2 56 17 105 34 70 24 82 30
52 28 -21 -1 -40 -3 -41 -5z"/>
</g>
</svg>
