<svg id="Camada_1" data-name="Camada 1" xmlns="http://www.w3.org/2000/svg" viewBox="0 0 467.65 490.72"><defs><style>.cls-1,.cls-12{fill:#ececec;}.cls-2,.cls-8{fill:#fff;}.cls-3,.cls-4,.cls-5,.cls-9{fill:#023dff;}.cls-12,.cls-3,.cls-4,.cls-5,.cls-9{stroke:#fff;}.cls-11,.cls-3,.cls-4,.cls-5,.cls-9{stroke-linecap:round;stroke-linejoin:round;}.cls-11,.cls-12,.cls-3,.cls-4,.cls-5,.cls-9{stroke-width:0.75px;}.cls-4,.cls-6{opacity:0.1;}.cls-5,.cls-8{opacity:0.2;}.cls-7{fill:#030304;}.cls-9{opacity:0.4;}.cls-10{fill:#dcdcdc;}.cls-11{stroke:#023dff;}.cls-12{stroke-miterlimit:10;}</style></defs><path class="cls-1" d="M401.8,171.45l5.89-9.49-2.91-1.8a2.65,2.65,0,0,1-1.23-2.5,13.25,13.25,0,0,0,.05-1.67,2.68,2.68,0,0,1,1.39-2.41l3-1.61-5.28-9.85-3,1.62a2.68,2.68,0,0,1-2.78-.18,14.65,14.65,0,0,0-1.42-.88,2.63,2.63,0,0,1-1.39-2.41l.1-3.42-11.16-.34-.1,3.43a2.67,2.67,0,0,1-1.56,2.31c-.25.11-.49.24-.73.37l-.72.4a2.65,2.65,0,0,1-2.77,0l-2.93-1.82-5.89,9.49,2.92,1.81a2.68,2.68,0,0,1,1.23,2.5,15.35,15.35,0,0,0-.06,1.66,2.66,2.66,0,0,1-1.38,2.41l-3,1.62,5.28,9.84,3-1.61a2.64,2.64,0,0,1,2.77.17c.46.32.93.61,1.41.88a2.64,2.64,0,0,1,1.41,2.4l-.11,3.43,11.16.35.11-3.43a2.64,2.64,0,0,1,1.55-2.3c.25-.12.5-.24.74-.38l.72-.4a2.65,2.65,0,0,1,2.78,0Zm-9.45-7A9.15,9.15,0,1,1,396.1,152,9.14,9.14,0,0,1,392.35,164.4Z"/><path class="cls-1" d="M80.11,279,86,269.5l-2.9-1.8a2.67,2.67,0,0,1-1.24-2.5,15.44,15.44,0,0,0,.06-1.67,2.67,2.67,0,0,1,1.38-2.41l3-1.61L81,249.66l-3,1.62a2.66,2.66,0,0,1-2.77-.18,16,16,0,0,0-1.42-.88,2.66,2.66,0,0,1-1.4-2.41l.11-3.42-11.16-.34-.11,3.43a2.66,2.66,0,0,1-1.55,2.31c-.25.11-.5.24-.74.37s-.48.26-.71.4a2.65,2.65,0,0,1-2.78,0l-2.92-1.81-5.89,9.49,2.91,1.81a2.64,2.64,0,0,1,1.23,2.5,13.15,13.15,0,0,0-.05,1.66,2.68,2.68,0,0,1-1.39,2.41l-3,1.61,5.28,9.85,3-1.62a2.66,2.66,0,0,1,2.77.18,16,16,0,0,0,1.42.88,2.65,2.65,0,0,1,1.4,2.4l-.11,3.43,11.17.35.1-3.43A2.64,2.64,0,0,1,73,278l.74-.38c.24-.13.48-.26.71-.4a2.67,2.67,0,0,1,2.79,0Zm-9.45-7.05a9.15,9.15,0,1,1,3.74-12.38A9.14,9.14,0,0,1,70.66,271.94Z"/><path class="cls-1" d="M194.45,97.22l-3.91-6.78-2.08,1.2a1.87,1.87,0,0,1-2-.06,10.23,10.23,0,0,0-1-.59,1.85,1.85,0,0,1-1-1.65v-2.4h-7.83v2.4a1.85,1.85,0,0,1-1,1.65,10.23,10.23,0,0,0-1,.59,1.87,1.87,0,0,1-1.95.06l-2.07-1.2-3.91,6.78,2.08,1.2a1.85,1.85,0,0,1,.91,1.73c0,.19,0,.38,0,.57s0,.39,0,.58a1.86,1.86,0,0,1-.91,1.72l-2.08,1.2,3.91,6.78,2.08-1.2a1.85,1.85,0,0,1,2,.07,10,10,0,0,0,1,.58,1.86,1.86,0,0,1,1,1.66v2.39h7.83v-2.39a1.86,1.86,0,0,1,1-1.66,10,10,0,0,0,1-.58,1.87,1.87,0,0,1,2-.07l2.08,1.2,3.91-6.78-2.09-1.2a1.86,1.86,0,0,1-.9-1.72c0-.19,0-.38,0-.58s0-.38,0-.57a1.85,1.85,0,0,1,.91-1.73Zm-7.49,3.5a6.41,6.41,0,1,1-6.4-6.41A6.4,6.4,0,0,1,187,100.72Z"/><path class="cls-2" d="M67.41,294.32c-13.07,12.8-15.26,32.59-12.51,49.93.08.39.68.28.68-.09,0-3.94-.12-7.86-.1-11.75l.2-.53c3.41-2.48,6.55-5.28,8.49-9.12,2.18-4.29,3-9.13,4.71-13.62.15-.43-.3-.3-.6-.08-8,5.86-10.49,12.17-12.77,20.6a69.62,69.62,0,0,1,1.39-13.12c1.71-8,5.11-15.94,10.86-21.87C68,294.44,67.64,294.09,67.41,294.32Z"/><path class="cls-3" d="M69.87,295.81c2.25.08,3.66,3.67,5.41,4.72a1.69,1.69,0,0,0,2.48-.39c1.74-2.42-.65-5.41-2.89-7.08,1.61.65,2.93,1.81,4.66,2.14a1.62,1.62,0,0,0,2.1-1.26c.77-3.3-3.38-4.77-6.22-4.84,1.38-1,5.33-3.57,3.23-4.85s-6.76,2.44-8.28,3.67c-2.22,1.8-4.87,4.5-5,7.32C65.26,298.53,68.14,296.5,69.87,295.81Z"/><path class="cls-4" d="M69.87,295.81c2.25.08,3.66,3.67,5.41,4.72a1.69,1.69,0,0,0,2.48-.39c1.74-2.42-.65-5.41-2.89-7.08,1.61.65,2.93,1.81,4.66,2.14a1.62,1.62,0,0,0,2.1-1.26c.77-3.3-3.38-4.77-6.22-4.84,1.38-1,5.33-3.57,3.23-4.85s-6.76,2.44-8.28,3.67c-2.22,1.8-4.87,4.5-5,7.32C65.26,298.53,68.14,296.5,69.87,295.81Z"/><path class="cls-3" d="M69.22,296.37c2.87-1.31,8.39.57,8.86-.52,1-2.21-3.46-3.73-5.84-4,2.19-.6,6.4-1.55,6.27-3.66-.16-2.58-6.45-.36-9.63,2.08-4,3.07-4,6-3.32,6.63C66.47,297.7,68.74,296.58,69.22,296.37Z"/><path class="cls-2" d="M37.65,293.05c13.55,12.29,16.49,32,14.4,49.42-.06.39-.67.31-.68-.06-.15-3.94-.18-7.86-.34-11.75l-.23-.52c-3.5-2.35-6.74-5-8.83-8.79-2.34-4.21-3.38-9-5.22-13.43-.17-.42.29-.31.6-.1,8.16,5.55,10.94,11.76,13.54,20.1A70.55,70.55,0,0,0,49,314.85c-2-7.93-5.71-15.72-11.68-21.44A.24.24,0,0,1,37.65,293.05Z"/><path class="cls-3" d="M35.25,294.64c-2.24.16-3.51,3.8-5.22,4.92a1.69,1.69,0,0,1-2.5-.3c-1.83-2.35.44-5.43,2.62-7.19-1.58.72-2.86,1.93-4.58,2.32a1.63,1.63,0,0,1-2.15-1.17c-.88-3.28,3.2-4.9,6-5.08-1.41-.91-5.46-3.36-3.41-4.72s6.85,2.18,8.41,3.35c2.29,1.72,5,4.31,5.24,7.12C40,297.18,37,295.26,35.25,294.64Z"/><path class="cls-3" d="M35.25,294.64c-2.24.16-3.51,3.8-5.22,4.92a1.69,1.69,0,0,1-2.5-.3c-1.83-2.35.44-5.43,2.62-7.19-1.58.72-2.86,1.93-4.58,2.32a1.63,1.63,0,0,1-2.15-1.17c-.88-3.28,3.2-4.9,6-5.08-1.41-.91-5.46-3.36-3.41-4.72s6.85,2.18,8.41,3.35c2.29,1.72,5,4.31,5.24,7.12C40,297.18,37,295.26,35.25,294.64Z"/><path class="cls-3" d="M35.92,295.17C33,294,27.56,296.06,27,295c-1-2.18,3.32-3.86,5.69-4.25-2.21-.51-6.45-1.29-6.4-3.41.06-2.59,6.43-.61,9.7,1.71,4.12,2.92,4.21,5.89,3.57,6.51C38.72,296.39,36.41,295.37,35.92,295.17Z"/><path class="cls-2" d="M51.5,325.51a132.94,132.94,0,0,0,4.21,19.43.48.48,0,0,0,.94-.19c-.89-6-2.51-11.87-3.4-17.86a90.6,90.6,0,0,1-1-18.32c.57-10.09,3.31-20.82,9.9-28.72.14-.19-.17-.45-.32-.28-13.18,15.37-11.08,34.21-11.07,35.9-1.86-6.36-3.79-13.65-10.84-20.13-.31-.28-.55-.15-.5.33,1.27,11.8,4.55,18,11.39,24.27Q51.06,322.75,51.5,325.51Z"/><path class="cls-3" d="M62.23,281.62c2.37-1.05,5.64,2,8,2.17a2,2,0,0,0,2.38-1.65c.58-3.39-3.39-5.29-6.56-5.9,2-.12,4,.41,5.91-.12a1.88,1.88,0,0,0,1.55-2.37c-.87-3.81-5.91-3.25-8.9-1.89,1-1.69,3.74-6.38.92-6.65s-5.79,5.93-6.74,8c-1.4,3-2.8,7.12-1.48,10.09C58.81,286.76,60.78,283.21,62.23,281.62Z"/><path class="cls-4" d="M62.23,281.62c2.37-1.05,5.64,2,8,2.17a2,2,0,0,0,2.38-1.65c.58-3.39-3.39-5.29-6.56-5.9,2-.12,4,.41,5.91-.12a1.88,1.88,0,0,0,1.55-2.37c-.87-3.81-5.91-3.25-8.9-1.89,1-1.69,3.74-6.38.92-6.65s-5.79,5.93-6.74,8c-1.4,3-2.8,7.12-1.48,10.09C58.81,286.76,60.78,283.21,62.23,281.62Z"/><path class="cls-3" d="M61.83,282.52c2.32-2.8,9-3.63,8.94-5-.13-2.78-5.47-2.14-8.09-1.24,2-1.72,5.86-4.82,4.66-7-1.46-2.6-6.87,2.87-8.94,7-2.62,5.21-1.1,8.28-.11,8.56C59.65,285.29,61.45,283,61.83,282.52Z"/><path class="cls-3" d="M42.83,329.06,37,373.47H72.39c-.73-3.93-7.31-44.46-7.31-44.46Z"/><polygon points="21.95 373.63 73.61 373.44 125.26 373.38 228.58 373.25 331.89 373.38 383.55 373.44 435.2 373.63 383.55 373.81 331.89 373.87 228.58 374 125.26 373.87 73.61 373.81 21.95 373.63"/><ellipse class="cls-1" cx="228.58" cy="439.52" rx="149.06" ry="21.08"/><path class="cls-2" d="M136.15,218.15l-6.21-24.43-49,12.47-6.48-25.5,39.19-89.32,19.44-4.94L152,160.79l15.69-4,6.52,25.67-15.69,4,6.21,24.43Zm-33.6-44.8,24.25-6.17-8-31.56Z"/><path class="cls-2" d="M276.6,136.6A65.5,65.5,0,0,1,272.92,159a55.67,55.67,0,0,1-10.12,17.67,46,46,0,0,1-15.18,11.59,43.94,43.94,0,0,1-19,4.14,44.54,44.54,0,0,1-19.14-4.14,45.55,45.55,0,0,1-15.27-11.59,54.19,54.19,0,0,1-10-17.67,67,67,0,0,1-3.58-22.35,67,67,0,0,1,3.58-22.35,54.19,54.19,0,0,1,10-17.67A46.48,46.48,0,0,1,209.44,84.9a43.74,43.74,0,0,1,19.14-4.23,43.15,43.15,0,0,1,19,4.23A47,47,0,0,1,262.8,96.58a55.67,55.67,0,0,1,10.12,17.67A65.5,65.5,0,0,1,276.6,136.6Zm-29.62,0q0-12.87-5.16-20.88t-13.24-8q-8.47,0-13.53,8T210,136.6q0,12.89,5.06,20.79t13.53,7.91q8.08,0,13.24-7.91T247,136.6Z"/><path class="cls-2" d="M329.42,213.45l4-24.89-49.94-8.09,4.2-26,71.51-66.33L379,91.38l-12.27,75.74,16,2.59-4.24,26.15-16-2.59-4,24.88Zm-13-54.48,24.7,4,5.21-32.15Z"/><path class="cls-2" d="M187.25,62.94a13,13,0,0,1-5.71-1.23,14.09,14.09,0,0,1-4.41-3.27,15.15,15.15,0,0,1-2.85-4.67,14.9,14.9,0,0,1-1-5.37,14.28,14.28,0,0,1,1.07-5.49,15.18,15.18,0,0,1,2.94-4.65,14,14,0,0,1,4.47-3.21,13.13,13.13,0,0,1,5.61-1.19,12.57,12.57,0,0,1,5.68,1.27,14.22,14.22,0,0,1,4.38,3.33,15.43,15.43,0,0,1,2.83,4.69,14.82,14.82,0,0,1,1,5.33A14.47,14.47,0,0,1,200.22,54a14.79,14.79,0,0,1-2.91,4.61,14,14,0,0,1-4.44,3.19A13.21,13.21,0,0,1,187.25,62.94ZM178.93,48.4A11.38,11.38,0,0,0,179.5,52a9.41,9.41,0,0,0,1.63,3.07,8.21,8.21,0,0,0,2.63,2.15,8.21,8.21,0,0,0,7.11,0A8.22,8.22,0,0,0,193.49,55a9.51,9.51,0,0,0,1.62-3.09,11.56,11.56,0,0,0,.54-3.49,11.22,11.22,0,0,0-.58-3.6,9.88,9.88,0,0,0-1.66-3.07,8.09,8.09,0,0,0-2.62-2.12,8.26,8.26,0,0,0-7.09,0,8.11,8.11,0,0,0-2.63,2.18,9.79,9.79,0,0,0-1.59,3.08A11.22,11.22,0,0,0,178.93,48.4Z"/><path class="cls-2" d="M214.8,63.14a11.63,11.63,0,0,1-4.64-.88,10.4,10.4,0,0,1-5.7-5.9,11.73,11.73,0,0,1,0-8.36,10.7,10.7,0,0,1,2.2-3.5,10.39,10.39,0,0,1,3.5-2.4,11.63,11.63,0,0,1,4.64-.89,11.52,11.52,0,0,1,4.63.89,10.36,10.36,0,0,1,3.47,2.4,10.54,10.54,0,0,1,2.2,3.5,11.73,11.73,0,0,1,0,8.36,10.77,10.77,0,0,1-2.18,3.49,10.33,10.33,0,0,1-3.47,2.41A11.68,11.68,0,0,1,214.8,63.14ZM209.27,52.2a7.43,7.43,0,0,0,.42,2.56,6.1,6.1,0,0,0,1.17,2A5.26,5.26,0,0,0,217,58.07a5,5,0,0,0,1.76-1.31,6.09,6.09,0,0,0,1.17-2,7.35,7.35,0,0,0,.43-2.58,7.26,7.26,0,0,0-.43-2.55,6.2,6.2,0,0,0-1.17-2A5.27,5.27,0,0,0,217,46.28a5.14,5.14,0,0,0-2.18-.47,5,5,0,0,0-2.18.49,5.57,5.57,0,0,0-1.76,1.33,6.2,6.2,0,0,0-1.17,2A7.5,7.5,0,0,0,209.27,52.2Z"/><path class="cls-2" d="M242.19,63.14A8.34,8.34,0,0,1,237.83,62a7.86,7.86,0,0,1-2.91-3V71.34h-5.41V41.57h4.72v3.64a8.58,8.58,0,0,1,3-2.93,8.47,8.47,0,0,1,4.28-1.07,9,9,0,0,1,4,.87,9.81,9.81,0,0,1,3.13,2.34,10.65,10.65,0,0,1,2.06,3.47,12,12,0,0,1,.75,4.23,13.3,13.3,0,0,1-.69,4.32A10.79,10.79,0,0,1,248.84,60a9.09,9.09,0,0,1-2.93,2.35A8.26,8.26,0,0,1,242.19,63.14Zm-1.82-4.6a4.84,4.84,0,0,0,2.24-.53,5.38,5.38,0,0,0,1.76-1.41,6.52,6.52,0,0,0,1.13-2.06,7.37,7.37,0,0,0,.41-2.42,6.8,6.8,0,0,0-.45-2.49,6,6,0,0,0-1.23-2,5.76,5.76,0,0,0-1.86-1.33,5.61,5.61,0,0,0-2.32-.49,5,5,0,0,0-1.58.27,5.61,5.61,0,0,0-1.49.74A6.61,6.61,0,0,0,235.75,48a4.76,4.76,0,0,0-.83,1.42v5a7.17,7.17,0,0,0,2.22,3A5.1,5.1,0,0,0,240.37,58.54Z"/><path class="cls-2" d="M263.12,63.14a16.58,16.58,0,0,1-5.22-.84,12.83,12.83,0,0,1-4.36-2.43l2-3.39a17.43,17.43,0,0,0,3.78,2.08,10.11,10.11,0,0,0,3.65.71,4.67,4.67,0,0,0,2.55-.61,2,2,0,0,0,.93-1.74,1.73,1.73,0,0,0-1.09-1.65,22.68,22.68,0,0,0-3.56-1.21c-1.37-.38-2.54-.75-3.51-1.1A8.78,8.78,0,0,1,256,51.77a4,4,0,0,1-1.3-1.53,4.92,4.92,0,0,1-.4-2.08,6.54,6.54,0,0,1,.63-2.91,6.24,6.24,0,0,1,1.75-2.2,8.28,8.28,0,0,1,2.65-1.4,10.81,10.81,0,0,1,3.29-.48,14,14,0,0,1,4.46.69,10.66,10.66,0,0,1,3.82,2.22l-2.18,3.27a12.76,12.76,0,0,0-3.13-1.78,8.47,8.47,0,0,0-3-.56,4.31,4.31,0,0,0-2.3.56,2,2,0,0,0-.93,1.82,1.73,1.73,0,0,0,.22.93,1.87,1.87,0,0,0,.71.64,6.23,6.23,0,0,0,1.27.55c.53.18,1.18.36,2,.55,1.45.37,2.7.75,3.74,1.13a9.85,9.85,0,0,1,2.54,1.29,4.63,4.63,0,0,1,1.46,1.68,5.26,5.26,0,0,1,.46,2.28,5.91,5.91,0,0,1-2.3,4.91A9.93,9.93,0,0,1,263.12,63.14Z"/><path class="cls-2" d="M276.24,52V33.78h5.42V52Zm0,10.79v-6.1h5.42v6.1Z"/><rect class="cls-2" x="213.67" y="304.33" width="35.51" height="2.91"/><rect class="cls-2" x="213.67" y="308.12" width="35.51" height="2.91"/><rect class="cls-2" x="213.67" y="311.91" width="35.51" height="2.91"/><rect class="cls-2" x="213.67" y="315.69" width="35.51" height="2.91"/><rect class="cls-2" x="213.67" y="319.48" width="35.51" height="2.91"/><rect class="cls-2" x="197.03" y="395.07" width="67.52" height="2.91"/><rect class="cls-2" x="197.03" y="398.86" width="67.52" height="2.91"/><rect class="cls-2" x="197.03" y="402.65" width="67.52" height="2.91"/><rect class="cls-2" x="197.03" y="406.44" width="67.52" height="2.91"/><rect class="cls-2" x="197.03" y="410.23" width="67.52" height="2.91"/><path class="cls-3" d="M167.41,280.28c0-.39-14.78-5.35-14.78-5.35l.88-50.89,19.64-4.22Z"/><path class="cls-5" d="M167.41,280.28c0-.39-14.78-5.35-14.78-5.35l.88-50.89,19.64-4.22Z"/><path class="cls-3" d="M303.07,300.25c.1-.38,15.71.06,15.71.06l16.69-48.08-17-10.71Z"/><path class="cls-5" d="M303.07,300.25c.1-.38,15.71.06,15.71.06l16.69-48.08-17-10.71Z"/><path class="cls-3" d="M164.56,299s5.49-82.3,10.31-109.37c0,0,99.41,7.51,153.08,28,0,0-27.67,96.13-29.1,100.9C298.85,318.58,228.84,304.79,164.56,299Z"/><path class="cls-2" d="M249.64,206.28a1.94,1.94,0,0,1-1.74,1.94,2,2,0,0,1-1.46-.47,2,2,0,0,1-.66-1.47,1.93,1.93,0,1,1,3.86,0Zm0,0a1.55,1.55,0,0,0-1.74-1.55,1.57,1.57,0,0,0,0,3.11,1.55,1.55,0,0,0,1.74-1.56Z"/><path class="cls-2" d="M247.9,218.53a1.94,1.94,0,0,1-3.21,1.46,2,2,0,0,1-.66-1.46,1.94,1.94,0,1,1,3.87,0Zm0,0a1.64,1.64,0,0,0-.55-1.2,1.62,1.62,0,0,0-1.2-.36,1.57,1.57,0,1,0,1.2,2.76A1.64,1.64,0,0,0,247.9,218.53Z"/><path class="cls-2" d="M245.75,231.47a1.94,1.94,0,0,1-3.21,1.46,2,2,0,0,1-.66-1.46,2,2,0,0,1,.66-1.46,2,2,0,0,1,1.46-.48A2,2,0,0,1,245.75,231.47Zm0,0a1.64,1.64,0,0,0-.55-1.2A1.57,1.57,0,1,0,244,233a1.62,1.62,0,0,0,1.2-.36A1.64,1.64,0,0,0,245.75,231.47Z"/><path class="cls-2" d="M243.6,244.41a1.94,1.94,0,0,1-3.21,1.46,2,2,0,0,1-.66-1.46,1.93,1.93,0,0,1,2.12-1.94A2,2,0,0,1,243.6,244.41Zm0,0a1.64,1.64,0,0,0-.55-1.2,1.57,1.57,0,1,0-1.2,2.76,1.63,1.63,0,0,0,1.2-.37A1.6,1.6,0,0,0,243.6,244.41Z"/><path class="cls-6" d="M250.92,265a1.93,1.93,0,1,1-3.86,0,1.92,1.92,0,0,1,2.12-1.93A1.93,1.93,0,0,1,250.92,265Zm0,0a1.59,1.59,0,0,0-.54-1.2,1.69,1.69,0,0,0-1.2-.36,1.57,1.57,0,0,0,0,3.12,1.55,1.55,0,0,0,1.74-1.56Z"/><path class="cls-6" d="M263.14,268a1.94,1.94,0,1,1-3.87,0,2,2,0,0,1,.66-1.46,1.94,1.94,0,0,1,3.21,1.46Zm0,0a1.64,1.64,0,0,0-.55-1.2,1.66,1.66,0,0,0-1.2-.36,1.57,1.57,0,1,0,1.2,2.76A1.64,1.64,0,0,0,263.14,268Z"/><path class="cls-6" d="M275.35,271a1.94,1.94,0,0,1-3.21,1.46,1.94,1.94,0,0,1,0-2.92,2,2,0,0,1,1.46-.47A1.93,1.93,0,0,1,275.35,271Zm0,0a1.6,1.6,0,0,0-.55-1.2,1.62,1.62,0,0,0-1.2-.36,1.57,1.57,0,1,0,1.2,2.76A1.6,1.6,0,0,0,275.35,271Z"/><path class="cls-6" d="M287.56,274a1.93,1.93,0,0,1-3.2,1.46,2,2,0,0,1-.66-1.46,1.93,1.93,0,1,1,3.86,0Zm0,0a1.59,1.59,0,0,0-.54-1.2,1.63,1.63,0,0,0-1.2-.36,1.57,1.57,0,1,0,1.2,2.76A1.59,1.59,0,0,0,287.56,274Z"/><path class="cls-6" d="M299.77,277.09a1.94,1.94,0,0,1-1.89,1.8,2,2,0,0,1-1.42-.59,2,2,0,0,1-.54-1.5,1.93,1.93,0,1,1,3.85.29Zm0,0a1.59,1.59,0,0,0-.45-1.23,1.56,1.56,0,0,0-1.17-.45,1.57,1.57,0,1,0,1,2.84A1.61,1.61,0,0,0,299.77,277.09Z"/><path class="cls-2" d="M241.45,257.35a1.94,1.94,0,0,1-3.21,1.46,2,2,0,0,1-.66-1.46,2,2,0,0,1,.66-1.47,1.94,1.94,0,0,1,3.21,1.47Zm0,0a1.64,1.64,0,0,0-.55-1.2,1.57,1.57,0,1,0-1.2,2.76,1.58,1.58,0,0,0,1.75-1.56Z"/><circle class="cls-2" cx="202.01" cy="257.79" r="28.23" transform="translate(-120.57 201.16) rotate(-41.96)"/><circle class="cls-7" cx="202.01" cy="257.79" r="22.64" transform="translate(-110.6 355.46) rotate(-69.27)"/><circle class="cls-2" cx="277.77" cy="269.62" r="28.23" transform="translate(-106.83 313.58) rotate(-50.67)"/><circle class="cls-8" cx="277.77" cy="269.62" r="28.23" transform="translate(-106.83 313.58) rotate(-50.67)"/><path class="cls-8" d="M305.24,276.15c-.13.56-.28,1.1-.45,1.63l-55-11.73c.13-1,.31-2,.54-3a28.24,28.24,0,1,1,54.94,13.06Z"/><circle class="cls-7" cx="277.77" cy="269.62" r="22.64" transform="translate(-82.47 127.93) rotate(-22.68)"/><path class="cls-2" d="M306.88,275.62l-57.81-13.73a29.71,29.71,0,0,1,57.81,13.73Z"/><path class="cls-8" d="M306.88,275.62l-57.81-13.73a29.71,29.71,0,0,1,57.81,13.73Z"/><path class="cls-2" d="M228.65,286.4a10.39,10.39,0,0,1,2.61-6.35,7.7,7.7,0,0,1,3.07-2.07,8.66,8.66,0,0,1,3.7-.41,6.9,6.9,0,0,1,5.8,4.33,11.57,11.57,0,0,1,.59,6.85,18.19,18.19,0,0,0-2-6.13,5.85,5.85,0,0,0-4.61-3.06,7,7,0,0,0-5.49,1.6A14.87,14.87,0,0,0,228.65,286.4Z"/><path class="cls-3" d="M167.72,349.73c-7.23,0-23.07-1.62-33.25-14.72-13-16.76-8.33-48.92-8.12-50.28l5.66.86c0,.31-4.55,31.09,7,45.91,11.27,14.48,31.7,12.4,31.9,12.37l.65,5.69A35.43,35.43,0,0,1,167.72,349.73Z"/><path class="cls-9" d="M167.72,349.73c-7.23,0-23.07-1.62-33.25-14.72-13-16.76-8.33-48.92-8.12-50.28l5.66.86c0,.31-4.55,31.09,7,45.91,11.27,14.48,31.7,12.4,31.9,12.37l.65,5.69A35.43,35.43,0,0,1,167.72,349.73Z"/><path class="cls-3" d="M133.67,289.49a20.07,20.07,0,0,1-3.15-.26c-9.55-1.55-13.78-7.26-15.64-11.78s-2.3-10-1.29-16.29l12.11,2c-.63,3.89-.45,7.32.52,9.65.68,1.66,2,3.66,6.26,4.35,1.93.31,4,.15,6.22-3.16a22.87,22.87,0,0,0,3.07-8.23l12.11,2a35.56,35.56,0,0,1-4.95,13.05C145.13,286.45,139.8,289.49,133.67,289.49Z"/><path class="cls-3" d="M179.68,366.11c0-.26-10.26-1.89-10.26-1.89l-5-33.41,12.4-4.89Z"/><path class="cls-5" d="M179.68,366.11c0-.26-10.26-1.89-10.26-1.89l-5-33.41,12.4-4.89Z"/><path class="cls-3" d="M280.87,366.18c0-.26,10.3-1.67,10.3-1.67l5.7-33.29-12.28-5.17Z"/><path class="cls-5" d="M280.87,366.18c0-.26,10.3-1.67,10.3-1.67l5.7-33.29-12.28-5.17Z"/><path class="cls-3" d="M175.42,318.44s82.78-3.54,110.75,1.12c0,0-8.21,80.1-8.66,81.66,0,0-82.35-.23-95.22,0C182.29,401.22,175.31,348,175.42,318.44Z"/><path class="cls-7" d="M200.56,340.39s45.2-1.79,60.46.56c0,0-4.48,40.4-4.72,41.18,0,0-45-.11-52,0C204.31,382.13,201.23,354.48,200.56,340.39Z"/><path class="cls-2" d="M220.07,350.35a4.81,4.81,0,1,0,3.14,6A4.82,4.82,0,0,0,220.07,350.35Zm2.58,5.86a4.22,4.22,0,1,1-2.75-5.3A4.22,4.22,0,0,1,222.65,356.21Zm-2.58-5.86a4.81,4.81,0,1,0,3.14,6A4.82,4.82,0,0,0,220.07,350.35Zm2.58,5.86a4.22,4.22,0,1,1-2.75-5.3A4.22,4.22,0,0,1,222.65,356.21Zm-2.58-5.86a4.81,4.81,0,1,0,3.14,6A4.82,4.82,0,0,0,220.07,350.35Zm2.58,5.86a4.22,4.22,0,1,1-2.75-5.3A4.22,4.22,0,0,1,222.65,356.21Zm-1-10.93a10.13,10.13,0,1,0,6.62,12.7A10.13,10.13,0,0,0,221.67,345.28Zm2.25,11.33a5.55,5.55,0,1,1-3.62-7A5.56,5.56,0,0,1,223.92,356.61Zm-.71-.23a4.81,4.81,0,1,0-6,3.14A4.81,4.81,0,0,0,223.21,356.38Zm-.56-.17a4.22,4.22,0,1,1-2.75-5.3A4.22,4.22,0,0,1,222.65,356.21Zm-2.58-5.86a4.81,4.81,0,1,0,3.14,6A4.82,4.82,0,0,0,220.07,350.35Zm2.58,5.86a4.22,4.22,0,1,1-2.75-5.3A4.22,4.22,0,0,1,222.65,356.21Zm-2.58-5.86a4.81,4.81,0,1,0,3.14,6A4.82,4.82,0,0,0,220.07,350.35Zm2.58,5.86a4.22,4.22,0,1,1-2.75-5.3A4.22,4.22,0,0,1,222.65,356.21Z"/><polygon class="cls-2" points="217.56 364.79 213.85 363.62 213.23 366.31 216.53 367.35 217.56 364.79"/><polygon class="cls-2" points="210.89 361.31 209.09 357.85 206.74 359.32 208.34 362.39 210.89 361.31"/><polygon class="cls-2" points="208.63 354.12 209.8 350.41 207.1 349.79 206.06 353.09 208.63 354.12"/><polygon class="cls-2" points="212.11 347.45 215.56 345.65 214.1 343.3 211.02 344.9 212.11 347.45"/><polygon class="cls-2" points="219.29 345.19 223 346.36 223.63 343.66 220.32 342.62 219.29 345.19"/><polygon class="cls-2" points="225.97 348.67 227.77 352.12 230.11 350.66 228.51 347.58 225.97 348.67"/><polygon class="cls-2" points="228.23 355.85 227.06 359.56 229.75 360.19 230.79 356.88 228.23 355.85"/><polygon class="cls-2" points="224.75 362.53 221.29 364.32 222.76 366.67 225.83 365.07 224.75 362.53"/><path class="cls-10" d="M236.41,364.49a3.24,3.24,0,1,0,1,4.48A3.24,3.24,0,0,0,236.41,364.49Zm.62,4.27a2.84,2.84,0,1,1-.83-3.93A2.86,2.86,0,0,1,237,368.76Zm-.62-4.27a3.24,3.24,0,1,0,1,4.48A3.24,3.24,0,0,0,236.41,364.49Zm.62,4.27a2.84,2.84,0,1,1-.83-3.93A2.86,2.86,0,0,1,237,368.76Zm-.62-4.27a3.24,3.24,0,1,0,1,4.48A3.24,3.24,0,0,0,236.41,364.49Zm.62,4.27a2.84,2.84,0,1,1-.83-3.93A2.86,2.86,0,0,1,237,368.76Zm1.34-7.27a6.82,6.82,0,1,0,2,9.44A6.82,6.82,0,0,0,238.37,361.49Zm-.59,7.76a3.74,3.74,0,1,1-1.09-5.18A3.74,3.74,0,0,1,237.78,369.25Zm-.42-.28a3.24,3.24,0,1,0-4.48.95A3.24,3.24,0,0,0,237.36,369Zm-.33-.21a2.84,2.84,0,1,1-.83-3.93A2.86,2.86,0,0,1,237,368.76Zm-.62-4.27a3.24,3.24,0,1,0,1,4.48A3.24,3.24,0,0,0,236.41,364.49Zm.62,4.27a2.84,2.84,0,1,1-.83-3.93A2.86,2.86,0,0,1,237,368.76Zm-.62-4.27a3.24,3.24,0,1,0,1,4.48A3.24,3.24,0,0,0,236.41,364.49Zm.62,4.27a2.84,2.84,0,1,1-.83-3.93A2.86,2.86,0,0,1,237,368.76Z"/><polygon class="cls-10" points="232.18 373.4 229.98 371.97 229.09 373.6 231.04 374.88 232.18 373.4"/><polygon class="cls-10" points="228.48 369.94 227.93 367.37 226.15 367.89 226.63 370.18 228.48 369.94"/><polygon class="cls-10" points="228.31 364.87 229.74 362.67 228.1 361.78 226.83 363.73 228.31 364.87"/><polygon class="cls-10" points="231.77 361.17 234.34 360.63 233.81 358.84 231.53 359.32 231.77 361.17"/><polygon class="cls-10" points="236.84 361 239.04 362.43 239.93 360.8 237.97 359.52 236.84 361"/><polygon class="cls-10" points="240.54 364.46 241.08 367.03 242.87 366.5 242.39 364.22 240.54 364.46"/><polygon class="cls-10" points="240.71 369.53 239.28 371.73 240.91 372.62 242.19 370.67 240.71 369.53"/><polygon class="cls-10" points="237.24 373.23 234.68 373.77 235.2 375.56 237.49 375.08 237.24 373.23"/><polygon class="cls-3" points="284.17 391.89 287.35 392.49 296.45 330.86 292.83 330.19 284.17 391.89"/><path class="cls-3" d="M256.3,382.13,261,341l31.81-10.76s-8.66,62.37-8.66,61.71Z"/><path class="cls-9" d="M256.3,382.13,261,341l31.81-10.76s-8.66,62.37-8.66,61.71Z"/><polygon class="cls-6" points="192.98 318.6 193.52 328.9 193.97 339.2 194.77 359.81 195.39 380.43 195.64 390.74 195.81 401.05 195.27 390.75 194.81 380.45 194.02 359.84 193.4 339.22 193.15 328.92 192.98 318.6"/><path class="cls-6" d="M190,324.81a1.94,1.94,0,0,1-1.33,2.24,1.93,1.93,0,0,1-2.46-1.47,1.93,1.93,0,1,1,3.79-.77Zm0,0a1.56,1.56,0,0,0-2-1.18,1.57,1.57,0,1,0,2,1.18Z"/><path class="cls-6" d="M190.74,337.16a1.94,1.94,0,0,1-1.33,2.24,1.94,1.94,0,1,1-.76-3.79A2,2,0,0,1,190.74,337.16Zm0,0a1.58,1.58,0,0,0-.78-1.06,1.55,1.55,0,0,0-1.24-.12,1.57,1.57,0,1,0,2,1.18Z"/><path class="cls-6" d="M191.19,350.27a2,2,0,0,1-1.33,2.24,2,2,0,0,1-1.53-.17,1.94,1.94,0,0,1,.77-3.62A2,2,0,0,1,191.19,350.27Zm0,0a1.62,1.62,0,0,0-.78-1.07,1.57,1.57,0,0,0-2.28,1.69,1.57,1.57,0,0,0,1.66,1.25,1.6,1.6,0,0,0,1.1-.59A1.58,1.58,0,0,0,191.19,350.27Z"/><path class="cls-6" d="M191.64,363.38a2,2,0,0,1-1.33,2.24,2,2,0,0,1-1.53-.18,1.93,1.93,0,0,1-.93-1.3,2,2,0,0,1,.35-1.56,1.94,1.94,0,0,1,3.44.8Zm0,0a1.62,1.62,0,0,0-.78-1.07,1.59,1.59,0,0,0-1.24-.11,1.57,1.57,0,0,0,.62,3.05,1.6,1.6,0,0,0,1.1-.59A1.58,1.58,0,0,0,191.64,363.38Z"/><path class="cls-6" d="M192.09,376.49a2,2,0,0,1-1.33,2.24,2,2,0,0,1-1.53-.18,2,2,0,0,1-.58-2.86,1.94,1.94,0,0,1,3.44.8Zm0,0a1.62,1.62,0,0,0-.78-1.07,1.64,1.64,0,0,0-1.24-.12,1.57,1.57,0,0,0,.62,3.06,1.64,1.64,0,0,0,1.1-.59A1.58,1.58,0,0,0,192.09,376.49Z"/><path class="cls-6" d="M192.54,389.59a1.94,1.94,0,0,1-1.33,2.24,1.93,1.93,0,0,1-2.46-1.47,2,2,0,0,1,.35-1.57,2,2,0,0,1,1.35-.75A2,2,0,0,1,192.54,389.59Zm0,0a1.62,1.62,0,0,0-.78-1.06,1.56,1.56,0,0,0-2.28,1.68,1.58,1.58,0,0,0,1.66,1.26,1.64,1.64,0,0,0,1.1-.59A1.6,1.6,0,0,0,192.54,389.59Z"/><rect class="cls-3" x="149.51" y="416.62" width="48.98" height="5.72" transform="translate(-114.19 68.5) rotate(-16.86)"/><rect class="cls-9" x="149.51" y="416.62" width="48.98" height="5.72" transform="translate(-114.19 68.5) rotate(-16.86)"/><rect class="cls-3" x="169.85" y="415.23" width="5.72" height="8.5" transform="translate(-119.02 72.08) rotate(-17.64)"/><polygon class="cls-3" points="151 437.34 138.91 384.96 102.4 393.62 120.38 444.67 151 437.34"/><polygon class="cls-3" points="159.1 434.68 151 437.34 138.91 384.96 150.56 387.74 159.1 434.68"/><polygon class="cls-5" points="159.1 434.68 151 437.34 138.91 384.96 150.56 387.74 159.1 434.68"/><circle class="cls-3" cx="197.44" cy="412.38" r="6.21"/><rect class="cls-3" x="281.12" y="394.89" width="5.72" height="48.98" transform="translate(-200.05 568.51) rotate(-73.02)"/><rect class="cls-9" x="281.12" y="394.89" width="5.72" height="48.98" transform="translate(-200.05 568.51) rotate(-73.02)"/><rect class="cls-3" x="281.02" y="416.52" width="8.5" height="5.72" transform="translate(-201.18 563.03) rotate(-72.23)"/><polygon class="cls-3" points="306.93 437.3 319.14 384.95 355.63 393.68 337.55 444.69 306.93 437.3"/><polygon class="cls-3" points="298.84 434.62 306.93 437.3 319.14 384.95 307.48 387.69 298.84 434.62"/><polygon class="cls-5" points="298.84 434.62 306.93 437.3 319.14 384.95 307.48 387.69 298.84 434.62"/><path class="cls-3" d="M254.34,412.22a6.22,6.22,0,1,0,6.23-6.2A6.22,6.22,0,0,0,254.34,412.22Z"/><path class="cls-3" d="M301.24,347.61c.15-.13,15.2-14.1,32.91-9.32,18.12,4.88,33.07,32.16,33.22,32.44l5-2.72c-.65-1.21-16.25-29.73-36.76-35.25-20.85-5.62-37.64,10-38.34,10.7Z"/><path class="cls-9" d="M301.24,347.61c.15-.13,15.2-14.1,32.91-9.32,18.12,4.88,33.07,32.16,33.22,32.44l5-2.72c-.65-1.21-16.25-29.73-36.76-35.25-20.85-5.62-37.64,10-38.34,10.7Z"/><path class="cls-3" d="M360.69,398.19l10.85-5.72a23,23,0,0,1-2.51-8.42c-.24-4,1.33-5.36,3.07-6.28,3.8-2,6.07-1.21,7.62-.29,2.17,1.28,4.38,3.9,6.22,7.39l10.84-5.73c-3-5.62-6.61-9.73-10.83-12.23s-11-4.5-19.58,0c-6.66,3.52-10.07,9.86-9.58,17.86A35.55,35.55,0,0,0,360.69,398.19Z"/><path d="M250.2,346.27a26.77,26.77,0,0,1,5.33-11.12,12.74,12.74,0,0,1,5-3.72,8.8,8.8,0,0,1,6.25.08,8.37,8.37,0,0,1,4.45,4.42,10.06,10.06,0,0,1,.83,3.08,6.79,6.79,0,0,1-.37,3.21,2.88,2.88,0,0,1-1.06,1.37,2,2,0,0,1-1.79.23,2.63,2.63,0,0,1-1.23-1.26,7.34,7.34,0,0,1-.58-1.51,20.13,20.13,0,0,1-.51-6.27,25.73,25.73,0,0,1,3.62-11.91,15.4,15.4,0,0,1,4.3-4.58,13.16,13.16,0,0,1,5.85-2.27,16.31,16.31,0,0,1,3.12-.28,9.13,9.13,0,0,1,1.57.09,10,10,0,0,1,1.55.21,19,19,0,0,1,5.84,2.19,26.69,26.69,0,0,1,8.79,8.64,26.45,26.45,0,0,0-9-8.32,18.78,18.78,0,0,0-5.74-2.05,9.56,9.56,0,0,0-1.51-.17,9.8,9.8,0,0,0-1.53-.07,16.14,16.14,0,0,0-3,.33,13,13,0,0,0-5.58,2.23,14.86,14.86,0,0,0-4.09,4.41,25.11,25.11,0,0,0-3.45,11.59,19.38,19.38,0,0,0,.45,6,3.59,3.59,0,0,0,1.37,2.31,1.26,1.26,0,0,0,.59.05,1.31,1.31,0,0,0,.58-.21,2.21,2.21,0,0,0,.81-1.05,6.19,6.19,0,0,0,.33-2.88,9.31,9.31,0,0,0-.77-2.88,7.85,7.85,0,0,0-4.07-4.16,8.22,8.22,0,0,0-5.86-.16,12.46,12.46,0,0,0-4.9,3.51A26.55,26.55,0,0,0,250.2,346.27Z"/><path class="cls-2" d="M157.79,372.18a15.3,15.3,0,0,1,9.66-7.25,11.9,11.9,0,0,1,6.21.14,12.38,12.38,0,0,1,5.29,3.31,15.77,15.77,0,0,1,3.32,5.3,14.43,14.43,0,0,1,1,6.18,5,5,0,0,1-1.13,3.05,2.33,2.33,0,0,1-1.61.73,3.57,3.57,0,0,1-1.66-.38A2.67,2.67,0,0,1,177.7,382a4.28,4.28,0,0,1-.36-1.63,9,9,0,0,1,.53-3.15,18.4,18.4,0,0,1,3-5.48,22,22,0,0,1,4.5-4.33,16.78,16.78,0,0,1,11.83-3.27,15.89,15.89,0,0,1,5.93,1.91,16.09,16.09,0,0,1,4.71,4,21.7,21.7,0,0,1,3.1,5.35,26.18,26.18,0,0,1,1.67,5.93,24.65,24.65,0,0,0-5.06-11,15.75,15.75,0,0,0-4.66-3.86,15.48,15.48,0,0,0-5.76-1.74A16.35,16.35,0,0,0,185.81,368a20.59,20.59,0,0,0-7.24,9.48,8.31,8.31,0,0,0-.51,2.89,2.54,2.54,0,0,0,1.16,2.31,2.93,2.93,0,0,0,1.31.3,1.57,1.57,0,0,0,1.13-.51,4.41,4.41,0,0,0,1-2.63,13.89,13.89,0,0,0-1-5.89,15.44,15.44,0,0,0-3.15-5.11,12,12,0,0,0-5-3.23,11.51,11.51,0,0,0-6-.24A15.29,15.29,0,0,0,157.79,372.18Z"/><path class="cls-2" d="M111.53,130.69a26.58,26.58,0,0,0-2.85-11.9,12.39,12.39,0,0,0-3.91-4.58A8.19,8.19,0,0,0,99,113a7.88,7.88,0,0,0-5,3.06,9.16,9.16,0,0,0-1.43,2.62,6.23,6.23,0,0,0-.37,2.88,2.15,2.15,0,0,0,.54,1.2,1.3,1.3,0,0,0,.51.35,1.23,1.23,0,0,0,.58.09c.77-.16,1.42-1.08,1.89-1.92a19.61,19.61,0,0,0,1.88-5.75,25.07,25.07,0,0,0-.59-12.08,14.79,14.79,0,0,0-2.92-5.26,13.13,13.13,0,0,0-4.88-3.5,16.31,16.31,0,0,0-2.86-1,10.76,10.76,0,0,0-1.5-.3,9.59,9.59,0,0,0-1.51-.19,18.79,18.79,0,0,0-6.06.62,26.5,26.5,0,0,0-10.7,5.94,26.75,26.75,0,0,1,10.6-6.3,19.25,19.25,0,0,1,6.19-.73,9.08,9.08,0,0,1,1.56.17,9.94,9.94,0,0,1,1.54.28,16.79,16.79,0,0,1,3,1,13.23,13.23,0,0,1,5.14,3.6,15.49,15.49,0,0,1,3.08,5.48,25.79,25.79,0,0,1,.67,12.43,20.23,20.23,0,0,1-2,6,7.42,7.42,0,0,1-.92,1.34,2.75,2.75,0,0,1-1.5.92,2,2,0,0,1-1.68-.65,2.84,2.84,0,0,1-.71-1.58,6.77,6.77,0,0,1,.41-3.2,10.22,10.22,0,0,1,1.55-2.8A8.34,8.34,0,0,1,99,112.4a8.75,8.75,0,0,1,6.08,1.42,12.75,12.75,0,0,1,4,4.8A26.84,26.84,0,0,1,111.53,130.69Z"/><path class="cls-2" d="M332.35,182.85a26.64,26.64,0,0,0-12.24,0,12.6,12.6,0,0,0-5.37,2.74,8.26,8.26,0,0,0-2.54,5.29,7.85,7.85,0,0,0,1.83,5.52,9.3,9.3,0,0,0,2.2,2,6.22,6.22,0,0,0,2.72,1,2.18,2.18,0,0,0,1.3-.24,1.39,1.39,0,0,0,.68-1,3.62,3.62,0,0,0-1.43-2.28,19.26,19.26,0,0,0-5.15-3.17,25,25,0,0,0-11.88-2.25,14.74,14.74,0,0,0-5.8,1.61,12.91,12.91,0,0,0-4.54,3.93,16.42,16.42,0,0,0-1.68,2.54,10.27,10.27,0,0,0-.64,1.39,9,9,0,0,0-.54,1.42,19,19,0,0,0-.82,6,26.65,26.65,0,0,0,3.28,11.79,26.81,26.81,0,0,1-3.64-11.77,18.86,18.86,0,0,1,.73-6.2,9.94,9.94,0,0,1,.53-1.47,9.24,9.24,0,0,1,.63-1.44,17.49,17.49,0,0,1,1.69-2.65,13.2,13.2,0,0,1,4.69-4.15,15.52,15.52,0,0,1,6.05-1.72,25.76,25.76,0,0,1,12.24,2.24,20.34,20.34,0,0,1,5.34,3.33,7.35,7.35,0,0,1,1.08,1.21,2.74,2.74,0,0,1,.55,1.67,2,2,0,0,1-1,1.49,2.84,2.84,0,0,1-1.7.32,6.82,6.82,0,0,1-3-1.15,10,10,0,0,1-2.35-2.15,8.32,8.32,0,0,1-1.89-6,8.79,8.79,0,0,1,2.79-5.59,12.77,12.77,0,0,1,5.61-2.74A26.72,26.72,0,0,1,332.35,182.85Z"/><path class="cls-2" d="M270.44,118.15a17.3,17.3,0,0,1-.35-7.34,17.87,17.87,0,0,1,2.58-6.93,14.21,14.21,0,0,1,5.43-5.06,14.79,14.79,0,0,1,7.28-1.58A18.8,18.8,0,0,1,292.63,99a17.35,17.35,0,0,1,6,4.42,6,6,0,0,1,1.57,3.52,2.7,2.7,0,0,1-.75,1.92,4.1,4.1,0,0,1-1.71,1,3.2,3.2,0,0,1-2-.09,5.07,5.07,0,0,1-1.66-1.08,10.88,10.88,0,0,1-2.17-3.12,22.23,22.23,0,0,1-2-7.21,26.27,26.27,0,0,1,.22-7.46,20.08,20.08,0,0,1,7.37-12.68,18.93,18.93,0,0,1,14.06-3.82,26.31,26.31,0,0,1,7.14,2,31.93,31.93,0,0,1,6.4,3.66,31.36,31.36,0,0,0-6.48-3.48,26.52,26.52,0,0,0-7.1-1.78,19,19,0,0,0-7.23.59,18.84,18.84,0,0,0-11.1,8.81,21.34,21.34,0,0,0-2.38,6.84,25.9,25.9,0,0,0-.18,7.25,22.28,22.28,0,0,0,1.91,7,10.38,10.38,0,0,0,2,2.93,3.09,3.09,0,0,0,3,1,3.54,3.54,0,0,0,1.41-.85,2,2,0,0,0,.56-1.44,5.36,5.36,0,0,0-1.4-3.09,16.54,16.54,0,0,0-5.78-4.26,18.47,18.47,0,0,0-7-1.74,14.27,14.27,0,0,0-7,1.44A13.63,13.63,0,0,0,273,104.1,18.24,18.24,0,0,0,270.44,118.15Z"/><path class="cls-2" d="M154.45,372.4a4.25,4.25,0,1,0,2.78,5.34A4.25,4.25,0,0,0,154.45,372.4Zm2.28,5.18a3.73,3.73,0,1,1-2.43-4.68A3.73,3.73,0,0,1,156.73,377.58Zm-2.28-5.18a4.25,4.25,0,1,0,2.78,5.34A4.25,4.25,0,0,0,154.45,372.4Zm2.28,5.18a3.73,3.73,0,1,1-2.43-4.68A3.73,3.73,0,0,1,156.73,377.58Zm-2.28-5.18a4.25,4.25,0,1,0,2.78,5.34A4.25,4.25,0,0,0,154.45,372.4Zm2.28,5.18a3.73,3.73,0,1,1-2.43-4.68A3.73,3.73,0,0,1,156.73,377.58Zm-.86-9.67a9,9,0,1,0,5.85,11.24A9,9,0,0,0,155.87,367.91Zm2,10a4.91,4.91,0,1,1-3.21-6.16A4.92,4.92,0,0,1,157.86,377.93Zm-.63-.19a4.25,4.25,0,1,0-5.33,2.77A4.27,4.27,0,0,0,157.23,377.74Zm-.5-.16a3.73,3.73,0,1,1-2.43-4.68A3.73,3.73,0,0,1,156.73,377.58Zm-2.28-5.18a4.25,4.25,0,1,0,2.78,5.34A4.25,4.25,0,0,0,154.45,372.4Zm2.28,5.18a3.73,3.73,0,1,1-2.43-4.68A3.73,3.73,0,0,1,156.73,377.58Zm-2.28-5.18a4.25,4.25,0,1,0,2.78,5.34A4.25,4.25,0,0,0,154.45,372.4Zm2.28,5.18a3.73,3.73,0,1,1-2.43-4.68A3.73,3.73,0,0,1,156.73,377.58Z"/><polygon class="cls-2" points="152.23 385.17 148.95 384.13 148.4 386.52 151.32 387.44 152.23 385.17"/><polygon class="cls-2" points="146.33 382.09 144.74 379.04 142.66 380.33 144.07 383.05 146.33 382.09"/><polygon class="cls-2" points="144.33 375.74 145.36 372.45 142.98 371.9 142.06 374.82 144.33 375.74"/><polygon class="cls-2" points="147.41 369.83 150.46 368.24 149.17 366.16 146.45 367.58 147.41 369.83"/><polygon class="cls-2" points="153.76 367.83 157.05 368.87 157.6 366.48 154.67 365.56 153.76 367.83"/><polygon class="cls-2" points="159.67 370.91 161.26 373.96 163.33 372.67 161.92 369.95 159.67 370.91"/><polygon class="cls-2" points="161.67 377.26 160.63 380.55 163.01 381.1 163.94 378.18 161.67 377.26"/><polygon class="cls-2" points="158.59 383.17 155.53 384.76 156.83 386.84 159.54 385.42 158.59 383.17"/><path class="cls-2" d="M320.25,343.83a13.7,13.7,0,1,0-19.16,2.84A13.69,13.69,0,0,0,320.25,343.83Zm-5.86-4.35a6.4,6.4,0,1,1-1.33-9A6.4,6.4,0,0,1,314.39,339.48Z"/><polygon class="cls-2" points="303.54 347.78 299.31 344.64 297.32 347.81 301.08 350.6 303.54 347.78"/><polygon class="cls-2" points="296.55 340.38 295.77 335.17 292.13 336 292.81 340.64 296.55 340.38"/><polygon class="cls-2" points="296.83 330.2 299.97 325.97 296.81 323.98 294.01 327.75 296.83 330.2"/><polygon class="cls-2" points="304.24 323.21 309.44 322.44 308.61 318.79 303.98 319.48 304.24 323.21"/><polygon class="cls-2" points="314.41 323.5 318.64 326.64 320.63 323.47 316.87 320.68 314.41 323.5"/><polygon class="cls-2" points="321.41 330.9 322.18 336.11 325.82 335.27 325.14 330.64 321.41 330.9"/><polygon class="cls-2" points="321.12 341.07 317.98 345.31 321.15 347.29 323.94 343.53 321.12 341.07"/><polygon class="cls-2" points="313.72 348.07 308.51 348.84 309.34 352.49 313.98 351.8 313.72 348.07"/><path class="cls-2" d="M304.34,336.32l2.91,3.67,4.64-.68,1.72-4.36-2.91-3.66-4.63.68Zm5.52-1.87a1.48,1.48,0,1,1-1.77,2.38,1.48,1.48,0,1,1,1.77-2.38Z"/><path class="cls-2" d="M330.52,77.08A3.72,3.72,0,1,0,333,81.75,3.72,3.72,0,0,0,330.52,77.08Zm2,4.53a3.27,3.27,0,1,1-2.14-4.09A3.27,3.27,0,0,1,332.52,81.61Zm-2-4.53A3.72,3.72,0,1,0,333,81.75,3.72,3.72,0,0,0,330.52,77.08Zm2,4.53a3.27,3.27,0,1,1-2.14-4.09A3.27,3.27,0,0,1,332.52,81.61Zm-2-4.53A3.72,3.72,0,1,0,333,81.75,3.72,3.72,0,0,0,330.52,77.08Zm2,4.53a3.27,3.27,0,1,1-2.14-4.09A3.27,3.27,0,0,1,332.52,81.61Zm-.76-8.46A7.84,7.84,0,1,0,336.88,83,7.85,7.85,0,0,0,331.76,73.15Zm1.74,8.77a4.3,4.3,0,1,1-2.81-5.39A4.3,4.3,0,0,1,333.5,81.92Zm-.55-.17a3.72,3.72,0,1,0-4.67,2.43A3.72,3.72,0,0,0,333,81.75Zm-.43-.14a3.27,3.27,0,1,1-2.14-4.09A3.27,3.27,0,0,1,332.52,81.61Zm-2-4.53A3.72,3.72,0,1,0,333,81.75,3.72,3.72,0,0,0,330.52,77.08Zm2,4.53a3.27,3.27,0,1,1-2.14-4.09A3.27,3.27,0,0,1,332.52,81.61Zm-2-4.53A3.72,3.72,0,1,0,333,81.75,3.72,3.72,0,0,0,330.52,77.08Zm2,4.53a3.27,3.27,0,1,1-2.14-4.09A3.27,3.27,0,0,1,332.52,81.61Z"/><polygon class="cls-2" points="328.58 88.25 325.7 87.35 325.22 89.43 327.78 90.24 328.58 88.25"/><polygon class="cls-2" points="323.41 85.56 322.02 82.89 320.2 84.02 321.44 86.4 323.41 85.56"/><polygon class="cls-2" points="321.66 80 322.57 77.12 320.48 76.64 319.68 79.2 321.66 80"/><polygon class="cls-2" points="324.36 74.83 327.03 73.44 325.9 71.62 323.52 72.86 324.36 74.83"/><polygon class="cls-2" points="329.92 73.08 332.79 73.99 333.27 71.9 330.71 71.09 329.92 73.08"/><polygon class="cls-2" points="335.08 75.77 336.48 78.45 338.29 77.31 337.05 74.94 335.08 75.77"/><polygon class="cls-2" points="336.83 81.33 335.93 84.21 338.01 84.69 338.82 82.14 336.83 81.33"/><polygon class="cls-2" points="334.14 86.5 331.46 87.9 332.6 89.71 334.98 88.47 334.14 86.5"/><path class="cls-2" d="M292.3,220a3.72,3.72,0,1,0,2.43,4.66A3.71,3.71,0,0,0,292.3,220Zm2,4.53a3.27,3.27,0,1,1-2.13-4.1A3.26,3.26,0,0,1,294.3,224.48Zm-2-4.53a3.72,3.72,0,1,0,2.43,4.66A3.71,3.71,0,0,0,292.3,220Zm2,4.53a3.27,3.27,0,1,1-2.13-4.1A3.26,3.26,0,0,1,294.3,224.48Zm-2-4.53a3.72,3.72,0,1,0,2.43,4.66A3.71,3.71,0,0,0,292.3,220Zm2,4.53a3.27,3.27,0,1,1-2.13-4.1A3.26,3.26,0,0,1,294.3,224.48Zm-.76-8.46a7.84,7.84,0,1,0,5.12,9.83A7.83,7.83,0,0,0,293.54,216Zm1.75,8.77a4.3,4.3,0,1,1-2.81-5.39A4.32,4.32,0,0,1,295.29,224.79Zm-.56-.18a3.72,3.72,0,1,0-4.66,2.44A3.71,3.71,0,0,0,294.73,224.61Zm-.43-.13a3.27,3.27,0,1,1-2.13-4.1A3.26,3.26,0,0,1,294.3,224.48Zm-2-4.53a3.72,3.72,0,1,0,2.43,4.66A3.71,3.71,0,0,0,292.3,220Zm2,4.53a3.27,3.27,0,1,1-2.13-4.1A3.26,3.26,0,0,1,294.3,224.48Zm-2-4.53a3.72,3.72,0,1,0,2.43,4.66A3.71,3.71,0,0,0,292.3,220Zm2,4.53a3.27,3.27,0,1,1-2.13-4.1A3.26,3.26,0,0,1,294.3,224.48Z"/><polygon class="cls-2" points="290.36 231.12 287.49 230.21 287.01 232.3 289.56 233.1 290.36 231.12"/><polygon class="cls-2" points="285.19 228.43 283.8 225.75 281.99 226.88 283.23 229.26 285.19 228.43"/><polygon class="cls-2" points="283.44 222.87 284.35 219.99 282.27 219.51 281.46 222.06 283.44 222.87"/><polygon class="cls-2" points="286.14 217.7 288.81 216.3 287.68 214.49 285.3 215.73 286.14 217.7"/><polygon class="cls-2" points="291.7 215.95 294.57 216.85 295.06 214.77 292.5 213.96 291.7 215.95"/><polygon class="cls-2" points="296.87 218.64 298.26 221.31 300.08 220.18 298.84 217.8 296.87 218.64"/><polygon class="cls-2" points="298.62 224.2 297.71 227.08 299.8 227.56 300.6 225 298.62 224.2"/><polygon class="cls-2" points="295.92 229.37 293.25 230.76 294.38 232.58 296.76 231.34 295.92 229.37"/><path class="cls-2" d="M73.6,107.47a11.79,11.79,0,1,0-14.25,8.67A11.8,11.8,0,0,0,73.6,107.47ZM67.49,106a5.51,5.51,0,1,1-4-6.66A5.52,5.52,0,0,1,67.49,106Z"/><polygon class="cls-2" points="61.66 116.2 57.26 115.13 56.74 118.31 60.66 119.27 61.66 116.2"/><polygon class="cls-2" points="53.64 112.68 51.28 108.8 48.67 110.68 50.77 114.13 53.64 112.68"/><polygon class="cls-2" points="50.46 104.51 51.53 100.1 48.35 99.58 47.4 103.5 50.46 104.51"/><polygon class="cls-2" points="53.99 96.48 57.86 94.12 55.98 91.51 52.53 93.61 53.99 96.48"/><polygon class="cls-2" points="62.16 93.3 66.56 94.37 67.08 91.19 63.16 90.24 62.16 93.3"/><polygon class="cls-2" points="70.18 96.83 72.54 100.7 75.15 98.82 73.06 95.37 70.18 96.83"/><polygon class="cls-2" points="73.36 105 72.29 109.41 75.47 109.92 76.42 106 73.36 105"/><polygon class="cls-2" points="69.83 113.02 65.96 115.38 67.84 117.99 71.29 115.9 69.83 113.02"/><path class="cls-2" d="M58.47,106.85,62,108.78l3.45-2.09-.1-4-3.53-1.94-3.45,2.1Zm3.74-3.34a1.28,1.28,0,1,1-1.54.94A1.27,1.27,0,0,1,62.21,103.51Z"/><path class="cls-11" d="M340.17,229.42A24.58,24.58,0,0,1,336,215.85c0-17.2,18.89-31.14,42.17-31.14s42.14,13.94,42.14,31.14S401.41,247,378.13,247c-11.29,0-21.52-3.27-29.08-8.61l-14.53,3.69Z"/><path class="cls-2" d="M356.44,220.94v2.32H347V209.67h9.27V212h-6.62v3.27h5.72v2.14h-5.72v3.54Z"/><path class="cls-2" d="M358.51,223.26V209.67h6a3.88,3.88,0,0,1,1.73.39,4.52,4.52,0,0,1,1.36,1,4.64,4.64,0,0,1,.9,1.45,4.36,4.36,0,0,1,.33,1.64,4.51,4.51,0,0,1-.66,2.4,3.81,3.81,0,0,1-1.79,1.56l3.1,5.11h-3l-2.77-4.55h-2.6v4.55Zm2.64-6.87h3.31a1.46,1.46,0,0,0,.68-.17,1.73,1.73,0,0,0,.54-.47,2.23,2.23,0,0,0,.37-.7,2.67,2.67,0,0,0,.13-.86,2.5,2.5,0,0,0-.15-.88,2.33,2.33,0,0,0-.42-.7,1.85,1.85,0,0,0-.59-.46,1.51,1.51,0,0,0-.68-.16h-3.19Z"/><path class="cls-2" d="M371.23,223.26V209.67h6a3.85,3.85,0,0,1,1.73.39,4.56,4.56,0,0,1,1.37,1,5,5,0,0,1,.9,1.45,4.36,4.36,0,0,1,.33,1.64,4.43,4.43,0,0,1-.67,2.4,3.74,3.74,0,0,1-1.78,1.56l3.1,5.11h-3l-2.77-4.55h-2.61v4.55Zm2.64-6.87h3.31a1.43,1.43,0,0,0,.68-.17,1.89,1.89,0,0,0,.55-.47,2.43,2.43,0,0,0,.36-.7,2.67,2.67,0,0,0,.14-.86,2.5,2.5,0,0,0-.16-.88,2.31,2.31,0,0,0-.41-.7,1.85,1.85,0,0,0-.59-.46,1.54,1.54,0,0,0-.68-.16h-3.2Z"/><path class="cls-2" d="M389.76,223.36a6.16,6.16,0,0,1-2.71-.59,6.59,6.59,0,0,1-2.09-1.55,7.12,7.12,0,0,1-1.82-4.75,6.81,6.81,0,0,1,.5-2.61,7.3,7.3,0,0,1,1.4-2.2,6.7,6.7,0,0,1,2.11-1.52,6.41,6.41,0,0,1,2.66-.56,6,6,0,0,1,2.69.6,6.67,6.67,0,0,1,2.08,1.58,7.36,7.36,0,0,1,1.34,2.22,7,7,0,0,1-1.4,7.3,6.67,6.67,0,0,1-2.1,1.51A6.26,6.26,0,0,1,389.76,223.36Zm-3.95-6.89a5.45,5.45,0,0,0,.27,1.7,4.5,4.5,0,0,0,.78,1.45,4,4,0,0,0,1.24,1,3.65,3.65,0,0,0,1.68.38,3.57,3.57,0,0,0,1.69-.39,3.89,3.89,0,0,0,1.24-1,4.7,4.7,0,0,0,.77-1.47,5.36,5.36,0,0,0,0-3.36,4.92,4.92,0,0,0-.78-1.45,3.84,3.84,0,0,0-1.25-1,3.71,3.71,0,0,0-1.65-.37,3.65,3.65,0,0,0-1.71.39,3.69,3.69,0,0,0-1.24,1,4.56,4.56,0,0,0-.76,1.45A5.53,5.53,0,0,0,385.81,216.47Z"/><path class="cls-2" d="M398.43,223.26V209.67h6a3.88,3.88,0,0,1,1.73.39,4.52,4.52,0,0,1,1.36,1,4.64,4.64,0,0,1,.9,1.45,4.36,4.36,0,0,1,.33,1.64,4.51,4.51,0,0,1-.66,2.4,3.81,3.81,0,0,1-1.79,1.56l3.1,5.11h-3l-2.77-4.55h-2.6v4.55Zm2.64-6.87h3.31a1.46,1.46,0,0,0,.68-.17,1.73,1.73,0,0,0,.54-.47,2.23,2.23,0,0,0,.37-.7,2.67,2.67,0,0,0,.13-.86,2.5,2.5,0,0,0-.15-.88,2.33,2.33,0,0,0-.42-.7,1.85,1.85,0,0,0-.59-.46,1.51,1.51,0,0,0-.68-.16h-3.19Z"/><line class="cls-12" x1="192.67" y1="242.57" x2="208.11" y2="272.1"/><line class="cls-12" x1="215.66" y1="248.44" x2="187.55" y2="266.34"/><line class="cls-12" x1="269.86" y1="253.83" x2="285.31" y2="283.36"/><line class="cls-12" x1="292.85" y1="259.7" x2="264.74" y2="277.59"/></svg>