<svg id="Camada_1" data-name="Camada 1" xmlns="http://www.w3.org/2000/svg" viewBox="0 0 708 702"><defs><style>.cls-1{fill:#5ae4a7;}.cls-2,.cls-6{fill:#fff;}.cls-3,.cls-8{fill:none;}.cls-3,.cls-5,.cls-6,.cls-7,.cls-8{stroke:#1a2e35;stroke-linecap:round;stroke-linejoin:round;}.cls-3{stroke-dasharray:4 4;}.cls-4,.cls-7{fill:#1a2e35;}.cls-5{fill:#023dff;}</style></defs><path class="cls-1" d="M602.31,111.85c-26.16-25.59-56.14-46.86-88-61.76-48.52-22.69-102-33.62-155.41-34.27-156.2-1.9-168.09,181.6-216.12,207.11S7.71,251.45,4.7,353.5C2.81,417.69,17.8,483.7,59.94,533.71c38.59,45.81,95.29,69,151.14,86.17C273.81,639.15,340.34,658,406.32,645,474,631.71,521.6,578.09,577.21,541.86c35-22.81,66.43-46.83,88-83.44,2.58-4.37,5-8.84,7.31-13.36,28.94-56.89,34.62-122.5,18.66-184C676.9,205.78,644.57,153.18,602.31,111.85Z"/><path class="cls-2" d="M602.31,111.85c-26.16-25.59-56.14-46.86-88-61.76-48.52-22.69-102-33.62-155.41-34.27-156.2-1.9-168.09,181.6-216.12,207.11S7.71,251.45,4.7,353.5C2.81,417.69,17.8,483.7,59.94,533.71c38.59,45.81,95.29,69,151.14,86.17C273.81,639.15,340.34,658,406.32,645,474,631.71,521.6,578.09,577.21,541.86c35-22.81,66.43-46.83,88-83.44,2.58-4.37,5-8.84,7.31-13.36,28.94-56.89,34.62-122.5,18.66-184C676.9,205.78,644.57,153.18,602.31,111.85Z"/><path class="cls-3" d="M343.77,509h-215a18.81,18.81,0,0,1-18.81-18.8V367.73"/><polygon class="cls-4" points="114.9 369.19 109.91 360.55 104.92 369.19 114.9 369.19"/><path class="cls-3" d="M110.49,192.76V118.3A18.81,18.81,0,0,1,129.3,99.49H329.19"/><polygon class="cls-4" points="327.73 104.48 336.37 99.49 327.73 94.5 327.73 104.48"/><path class="cls-3" d="M597.74,222.24V488.09a18.81,18.81,0,0,1-18.81,18.81H464.18"/><polygon class="cls-4" points="465.64 501.91 457 506.9 465.64 511.88 465.64 501.91"/><rect class="cls-5" x="624.01" y="341.26" width="29.29" height="81.99" transform="translate(1277.32 764.52) rotate(180)"/><polygon class="cls-5" points="638.13 369.32 667.41 369.32 653.3 341.26 624.01 341.26 638.13 369.32"/><polygon class="cls-5" points="551.48 369.32 522.19 369.32 541.32 341.26 570.61 341.26 551.48 369.32"/><rect class="cls-5" x="542.02" y="341.26" width="81.99" height="81.99"/><polygon class="cls-5" points="612.2 370.69 530.2 370.69 542.02 341.26 624.01 341.26 612.2 370.69"/><rect class="cls-6" x="595.44" y="392.7" width="19.67" height="12.56"/><circle class="cls-5" cx="295.84" cy="448.68" r="27.79"/><path class="cls-6" d="M293.48,464.34V439.6c-.28.15-.6.3-1,.46l-1.13.48-1.15.48c-.37.15-.71.3-1,.46v-4.76l1.19-.63q.78-.4,1.65-.9t1.65-1a8.58,8.58,0,0,0,1.15-.9h5v31.07Z"/><circle class="cls-5" cx="69.91" cy="165.17" r="27.79"/><path class="cls-6" d="M61.62,180.83V176.3l7.45-11.43c.56-.84,1.09-1.66,1.59-2.45A14.52,14.52,0,0,0,71.89,160a7,7,0,0,0,.48-2.57,3.1,3.1,0,0,0-.54-2,1.81,1.81,0,0,0-1.46-.65,2.15,2.15,0,0,0-1.61.58,3,3,0,0,0-.79,1.53,10.11,10.11,0,0,0-.21,2.15v1.53H61.55v-1.64a12.9,12.9,0,0,1,.88-4.93,7.2,7.2,0,0,1,2.8-3.42,9.1,9.1,0,0,1,5-1.25c2.78,0,4.89.73,6.31,2.17a8.26,8.26,0,0,1,2.13,6,10,10,0,0,1-.6,3.5,16.29,16.29,0,0,1-1.57,3.12c-.65,1-1.35,2.07-2.09,3.17l-5.68,8.47h9.09v5Z"/><circle class="cls-5" cx="639.67" cy="247.59" r="27.79" transform="translate(118.97 694.07) rotate(-61.77)"/><path class="cls-6" d="M639.82,263.82a9.21,9.21,0,0,1-5.12-1.22,6.73,6.73,0,0,1-2.65-3.44,15.19,15.19,0,0,1-.78-5.08V253h6.4v1.11a13.85,13.85,0,0,0,.19,2.49,2.41,2.41,0,0,0,.7,1.4,2,2,0,0,0,1.38.45,1.74,1.74,0,0,0,1.32-.47,2.53,2.53,0,0,0,.59-1.38,13.4,13.4,0,0,0,.16-2.3,7.66,7.66,0,0,0-.64-3.51,2.73,2.73,0,0,0-2.62-1.24h-1.19V245.1h1a3,3,0,0,0,2.73-1.11,6.71,6.71,0,0,0,.69-3.45,6.33,6.33,0,0,0-.48-2.76,1.82,1.82,0,0,0-1.79-1,1.6,1.6,0,0,0-1.66,1.07,8,8,0,0,0-.41,2.76v1.62h-6.4v-1.88a10.19,10.19,0,0,1,1-4.74,6.85,6.85,0,0,1,2.92-2.94,9.69,9.69,0,0,1,4.54-1,10.36,10.36,0,0,1,4.61.95,6.76,6.76,0,0,1,2.95,2.82,9.44,9.44,0,0,1,1,4.63,8.61,8.61,0,0,1-1.12,4.56,4.63,4.63,0,0,1-2.68,2.27,5.26,5.26,0,0,1,1.94,1.22,5.89,5.89,0,0,1,1.36,2.29,11.38,11.38,0,0,1,.5,3.66,14.13,14.13,0,0,1-.83,5,7,7,0,0,1-2.7,3.44A8.93,8.93,0,0,1,639.82,263.82Z"/><rect class="cls-7" x="449.4" y="107.95" width="179.83" height="100.22" transform="translate(1078.64 316.11) rotate(180)"/><rect class="cls-6" x="359.7" y="107.95" width="190.39" height="100.22" transform="translate(909.79 316.11) rotate(180)"/><rect class="cls-6" x="494.36" y="146.35" width="31.38" height="61.82" transform="translate(1020.1 354.52) rotate(180)"/><rect class="cls-7" x="499.51" y="146.35" width="26.23" height="61.82" transform="translate(1025.25 354.52) rotate(180)"/><rect class="cls-6" x="438.16" y="146.35" width="31.38" height="61.82" transform="translate(907.7 354.52) rotate(180)"/><rect class="cls-7" x="443.31" y="146.35" width="26.23" height="61.82" transform="translate(912.85 354.52) rotate(180)"/><rect class="cls-6" x="381.96" y="146.35" width="31.38" height="61.82" transform="translate(795.31 354.52) rotate(180)"/><rect class="cls-7" x="387.12" y="146.35" width="26.23" height="61.82" transform="translate(800.46 354.52) rotate(180)"/><rect class="cls-6" x="604.9" y="119.42" width="17.12" height="15.7" transform="translate(1226.91 254.53) rotate(180)"/><rect class="cls-6" x="581.76" y="119.42" width="17.12" height="15.7" transform="translate(1180.64 254.53) rotate(180)"/><rect class="cls-6" x="558.62" y="119.42" width="17.12" height="15.7" transform="translate(1134.36 254.53) rotate(180)"/><rect class="cls-6" x="497.64" y="119.42" width="25.57" height="15.7" transform="translate(1020.86 254.53) rotate(180)"/><rect class="cls-6" x="499.1" y="119.42" width="25.57" height="15.7" transform="translate(1023.77 254.53) rotate(180)"/><rect class="cls-6" x="441.5" y="119.42" width="25.57" height="15.7" transform="translate(908.56 254.53) rotate(180)"/><rect class="cls-6" x="442.95" y="119.42" width="25.57" height="15.7" transform="translate(911.47 254.53) rotate(180)"/><rect class="cls-6" x="385.35" y="119.42" width="25.57" height="15.7" transform="translate(796.27 254.53) rotate(180)"/><rect class="cls-6" x="386.81" y="119.42" width="25.57" height="15.7" transform="translate(799.18 254.53) rotate(180)"/><rect class="cls-5" x="631.74" y="134.94" width="22.77" height="13.19" transform="translate(1286.25 283.08) rotate(180)"/><rect class="cls-5" x="624.56" y="134.94" width="22.77" height="13.19" transform="translate(1271.9 283.08) rotate(180)"/><rect class="cls-7" x="603.9" y="142.36" width="56.15" height="65.81" transform="translate(1263.95 350.53) rotate(180)"/><rect class="cls-5" x="562.24" y="142.36" width="56.15" height="65.81" transform="translate(1180.64 350.53) rotate(180)"/><rect class="cls-7" x="582.77" y="184.02" width="15.09" height="24.15" transform="translate(1180.64 392.19) rotate(180)"/><rect class="cls-5" x="623.83" y="150.21" width="9.34" height="44.68" transform="translate(1256.99 345.09) rotate(180)"/><rect class="cls-5" x="635.76" y="150.21" width="9.34" height="44.68" transform="translate(1280.86 345.09) rotate(180)"/><rect class="cls-5" x="647.69" y="150.21" width="9.34" height="44.68" transform="translate(1304.72 345.09) rotate(180)"/><rect class="cls-6" x="530.38" y="118.18" width="13.44" height="89.58" transform="translate(1074.21 325.94) rotate(180)"/><rect class="cls-5" x="528.28" y="118.18" width="13.44" height="89.58" transform="translate(1069.99 325.94) rotate(180)"/><rect class="cls-6" x="475.58" y="118.18" width="13.44" height="89.58" transform="translate(964.6 325.94) rotate(180)"/><rect class="cls-5" x="473.47" y="118.18" width="13.44" height="89.58" transform="translate(960.38 325.94) rotate(180)"/><rect class="cls-6" x="419.46" y="118.18" width="13.44" height="89.58" transform="translate(852.36 325.94) rotate(180)"/><rect class="cls-5" x="417.35" y="118.18" width="13.44" height="89.58" transform="translate(848.14 325.94) rotate(180)"/><rect class="cls-6" x="363.27" y="118.18" width="13.44" height="89.58" transform="translate(739.97 325.94) rotate(180)"/><rect class="cls-5" x="361.16" y="118.18" width="13.44" height="89.58" transform="translate(735.75 325.94) rotate(180)"/><polygon class="cls-7" points="536.76 58.32 455.37 58.32 431.72 108.49 641.79 108.49 536.76 58.32"/><polygon class="cls-6" points="455.37 58.32 350.33 108.49 560.41 108.49 455.37 58.32"/><polygon class="cls-6" points="455.37 64.13 548.24 108.49 560.41 108.49 455.37 58.32 350.33 108.49 362.51 108.49 455.37 64.13"/><rect class="cls-6" x="45.17" y="248.34" width="143.9" height="97.43"/><line class="cls-8" x1="45.48" y1="324.73" x2="96.53" y2="324.73"/><line class="cls-8" x1="45.48" y1="335.4" x2="96.53" y2="335.4"/><line class="cls-8" x1="55.99" y1="314.72" x2="55.99" y2="324.56"/><line class="cls-8" x1="55.99" y1="335.57" x2="55.99" y2="345.41"/><line class="cls-8" x1="78.68" y1="314.72" x2="78.68" y2="324.56"/><line class="cls-8" x1="66.67" y1="325.39" x2="66.67" y2="335.24"/><line class="cls-8" x1="91.19" y1="325.39" x2="91.19" y2="335.24"/><line class="cls-8" x1="46.98" y1="325.39" x2="46.98" y2="335.24"/><line class="cls-8" x1="78.68" y1="335.57" x2="78.68" y2="345.41"/><line class="cls-8" x1="188.29" y1="324.73" x2="137.24" y2="324.73"/><line class="cls-8" x1="188.29" y1="335.4" x2="137.24" y2="335.4"/><line class="cls-8" x1="177.78" y1="314.72" x2="177.78" y2="324.56"/><line class="cls-8" x1="177.78" y1="335.57" x2="177.78" y2="345.41"/><line class="cls-8" x1="155.09" y1="314.72" x2="155.09" y2="324.56"/><line class="cls-8" x1="167.1" y1="325.39" x2="167.1" y2="335.24"/><line class="cls-8" x1="142.58" y1="325.39" x2="142.58" y2="335.24"/><line class="cls-8" x1="186.79" y1="325.39" x2="186.79" y2="335.24"/><line class="cls-8" x1="155.09" y1="335.57" x2="155.09" y2="345.41"/><rect class="cls-6" x="138.97" y="251.16" width="48.59" height="62.87"/><rect class="cls-6" x="46.73" y="251.16" width="48.59" height="62.87"/><polygon class="cls-7" points="187.56 276.95 138.97 293.92 138.97 251.16 187.56 251.16 187.56 276.95"/><polygon class="cls-7" points="95.32 276.95 46.73 297.12 46.73 251.16 95.32 251.16 95.32 276.95"/><rect class="cls-5" x="97.26" y="248.34" width="39.72" height="97.43"/><polygon class="cls-4" points="99.51 298.11 134.74 282.74 134.74 252.01 99.51 252.01 99.51 298.11"/><polygon class="cls-5" points="191.56 250.19 43.16 250.19 52.07 219.03 182.65 219.03 191.56 250.19"/><path class="cls-6" d="M43.17,250.26c0,.19,0,.37,0,.55a8.23,8.23,0,0,0,16.45,0c0-.18,0-.36,0-.55Z"/><path class="cls-5" d="M59.65,250.26c0,.19,0,.37,0,.55a8.23,8.23,0,0,0,16.45,0c0-.18,0-.36,0-.55Z"/><path class="cls-6" d="M76.13,250.26c0,.19,0,.37,0,.55a8.23,8.23,0,0,0,16.45,0c0-.18,0-.36,0-.55Z"/><path class="cls-5" d="M92.61,250.26c0,.19,0,.37,0,.55a8.23,8.23,0,0,0,16.45,0c0-.18,0-.36,0-.55Z"/><path class="cls-6" d="M109.09,250.26c0,.19,0,.37,0,.55a8.23,8.23,0,0,0,16.45,0c0-.18,0-.36,0-.55Z"/><path class="cls-5" d="M125.57,250.26c0,.19,0,.37,0,.55a8.23,8.23,0,0,0,16.45,0c0-.18,0-.36,0-.55Z"/><path class="cls-6" d="M142.05,250.26c0,.19,0,.37,0,.55a8.23,8.23,0,0,0,16.45,0c0-.18,0-.36,0-.55Z"/><path class="cls-5" d="M158.53,250.26c0,.19,0,.37,0,.55a8.23,8.23,0,0,0,16.45,0c0-.18,0-.36,0-.55Z"/><path class="cls-6" d="M175,250.26c0,.19,0,.37,0,.55a8.23,8.23,0,0,0,16.45,0c0-.18,0-.36,0-.55Z"/><polygon class="cls-6" points="65.59 219.03 59.74 250.19 43.16 250.19 52.07 219.03 65.59 219.03"/><polygon class="cls-6" points="76.13 250.26 79.3 219.35 94.26 219.35 92.61 250.26 76.13 250.26"/><polygon class="cls-6" points="109 250.26 109.63 218.95 124.69 218.95 125.57 250.26 109 250.26"/><polygon class="cls-6" points="139.21 219.09 142.05 250.26 158.53 250.26 154.13 219.09 139.21 219.09"/><polygon class="cls-6" points="175.01 250.26 168.79 219.09 182.65 219.03 191.4 250.26 175.01 250.26"/><path class="cls-4" d="M135.71,297.6A2.41,2.41,0,1,0,133.3,300,2.41,2.41,0,0,0,135.71,297.6Z"/><path class="cls-4" d="M133.91,297.6a.61.61,0,0,0-.61-.61.61.61,0,0,0-.62.61.62.62,0,0,0,.62.62A.61.61,0,0,0,133.91,297.6Z"/><path class="cls-5" d="M55,207.87H179.91a3.45,3.45,0,0,1,3.45,3.45v8.28a0,0,0,0,1,0,0H51.58a0,0,0,0,1,0,0v-8.28A3.45,3.45,0,0,1,55,207.87Z"/><circle class="cls-6" cx="230.73" cy="99.71" r="41.3"/><circle class="cls-6" cx="230.73" cy="99.71" r="34.22" transform="matrix(0.38, -0.93, 0.93, 0.38, 51.29, 275.72)"/><path class="cls-4" d="M230.21,121.83v-4.28c-3-.14-5.19-1.1-6.67-2.87s-2.28-4.5-2.4-8.19l6.61-1a16.86,16.86,0,0,0,.39,3.63,3.91,3.91,0,0,0,1,2,2.32,2.32,0,0,0,1.62.61,1.53,1.53,0,0,0,1.58-.82,4.11,4.11,0,0,0,.37-1.73,6.3,6.3,0,0,0-1-3.65,15.47,15.47,0,0,0-2.78-3l-3.07-2.64a25.13,25.13,0,0,1-2.35-2.39,9.92,9.92,0,0,1-1.71-2.85,10.45,10.45,0,0,1-.65-3.87,8.64,8.64,0,0,1,2.36-6.43,9.65,9.65,0,0,1,6.32-2.64V77.6H232v4.06a7.8,7.8,0,0,1,4,1.14,6.55,6.55,0,0,1,2.27,2.51,10.81,10.81,0,0,1,1,3.15,24.22,24.22,0,0,1,.32,3.09l-6.69.82c0-1-.1-1.94-.2-2.72a3.88,3.88,0,0,0-.6-1.79,1.57,1.57,0,0,0-1.45-.59,1.74,1.74,0,0,0-1.6.91,3.66,3.66,0,0,0-.51,1.81,5.09,5.09,0,0,0,1,3.35,23.77,23.77,0,0,0,2.31,2.4l2.94,2.55a25.89,25.89,0,0,1,2.7,2.85,12.45,12.45,0,0,1,2,3.37,11.5,11.5,0,0,1,.74,4.27,9.28,9.28,0,0,1-.95,4.19,7.88,7.88,0,0,1-2.72,3.09,9.3,9.3,0,0,1-4.23,1.45v4.32Z"/><circle class="cls-6" cx="185.23" cy="507.12" r="41.3"/><circle class="cls-6" cx="185.23" cy="507.12" r="34.22"/><path class="cls-4" d="M184.71,529.23V525c-3-.15-5.19-1.1-6.67-2.88s-2.29-4.49-2.4-8.18l6.61-1a17,17,0,0,0,.39,3.63,3.91,3.91,0,0,0,1,2,2.36,2.36,0,0,0,1.62.61,1.56,1.56,0,0,0,1.58-.82,4.3,4.3,0,0,0,.37-1.73,6.3,6.3,0,0,0-1-3.65,15.26,15.26,0,0,0-2.79-3l-3.06-2.64A27.91,27.91,0,0,1,178,504.9a9.86,9.86,0,0,1-2.35-6.72,8.66,8.66,0,0,1,2.35-6.44,9.72,9.72,0,0,1,6.33-2.63V485h2.2v4.06a7.77,7.77,0,0,1,4,1.14,6.63,6.63,0,0,1,2.27,2.51,11.11,11.11,0,0,1,1,3.15,24.22,24.22,0,0,1,.32,3.09l-6.69.82c0-1-.1-1.95-.2-2.72a4,4,0,0,0-.6-1.8,1.6,1.6,0,0,0-1.45-.58,1.72,1.72,0,0,0-1.6.91,3.57,3.57,0,0,0-.52,1.81,5.11,5.11,0,0,0,1.06,3.35,23.77,23.77,0,0,0,2.31,2.4l2.94,2.54a27.81,27.81,0,0,1,2.7,2.85,12.87,12.87,0,0,1,2,3.37,11.6,11.6,0,0,1,.74,4.28,9.28,9.28,0,0,1-.95,4.19,8,8,0,0,1-2.72,3.09,9.18,9.18,0,0,1-4.24,1.44v4.32Z"/><path class="cls-5" d="M375.37,661.35s-12.86,10.35-15.26,14.27.24,4.13,4.38,3.89S375.29,677,379,676s7.17,0,7.7-3.86-.36-10.31-.36-10.31A8.24,8.24,0,0,0,375.37,661.35Z"/><path class="cls-5" d="M410.58,664.09l-12.53,17.73c-2.79,3.94,2.68,7,7.19,6.74s13.61-6.09,15.26-10,.75-12.88.75-12.88S414.76,664.59,410.58,664.09Z"/><path class="cls-7" d="M371.26,497.69s-.82,25.39-1.56,38.27,2.49,79.87,3.23,92.29,3.16,33.1,3.16,33.1,3.61,3.56,11,.48c0,0,2.69-30,3.23-39.88s4.51-70.12,4.73-72.78-.56-18.07-.56-18.07,6,43.35,6.67,55,9.13,79.55,9.13,79.55,1.93.64,4.61,1.23,7.1-1.17,7.1-1.17,2.13-21.27,2.63-31.87.91-54.41.13-67.58-.75-25.24-.49-27.15S427.79,491,425.93,485s-31.65-3.91-41.14-4.86S371,487.51,371.26,497.69Z"/><path class="cls-5" d="M342.73,450.74s14.55,16.12,18.91,19.64,11.42,1.58,13.5-1.56,1.92-31.07,1.92-31.07l-5.42-34L364,452.12l-16.51-4.68S342,445.5,342.73,450.74Z"/><path class="cls-5" d="M397.06,393.15s-21.79,8.09-24.38,9-3.95,13.82-3.53,23.24c.18,4,2.51,42.06,1.16,70.14-.19,4.07,7.81,8,17.59,7.39s27.18.48,32.67-2.49,4.42-5.52,4.42-5.52,7.59-63.11,9.13-75.28-2.25-18.74-7-22.61S397.06,393.15,397.06,393.15Z"/><line class="cls-8" x1="389.47" y1="414.28" x2="389.47" y2="435.04"/><line class="cls-8" x1="397.78" y1="415.37" x2="397.78" y2="445.53"/><path class="cls-6" d="M393.53,416.38s9.82-1.36,13.76-4.67,7.87-12.24,11-13.27a46.51,46.51,0,0,1,8.84-1.42s.49-5.63-6.35-8.74-23.43-1.45-26.95.62-10.36,6.64-9.95,9.33S387,417.33,393.53,416.38Z"/><path class="cls-6" d="M391.3,391.6s2.46,9.67,1.67,15.38-2.07,9.56.56,9.4S405.25,404,406.09,399s.51-23.06.51-23.06Z"/><path class="cls-7" d="M402.12,386l-8.41,15.81-2.21-7.4S398.91,389.62,402.12,386Z"/><path class="cls-6" d="M375.17,355.19s2.55,17.59,4,23.54,5.52,16.66,8.55,16.86,14.65-7.67,17.08-11.21,2.18-14.1,2.57-20.16-1.91-13.1-5.78-14.75S377.18,350.92,375.17,355.19Z"/><path class="cls-6" d="M377.47,367.11l4.07.72-.72,13.88s4.31.48,5.51,0"/><path class="cls-6" d="M384.17,386s5.75,1.2,8.86-2.39"/><path class="cls-6" d="M386.33,367.59a5,5,0,0,1,8.14,1.2"/><path class="cls-4" d="M390.64,372.26c0,1-.54,1.79-1.2,1.79s-1.2-.8-1.2-1.79.54-1.8,1.2-1.8S390.64,371.27,390.64,372.26Z"/><path class="cls-7" d="M397.78,354.6s-1.89,1.89-13.55,2.58-16.5-5.61-14.85-8.58c3.2-5.76,10.4-14.21,26.73-12.54S415.94,349,415.1,354s-3,13-3,13-.67-2.48-2.46-.87-4,6.92-4,6.92l-1.63-.39a23.12,23.12,0,0,0-1.91-4.55c-.82-1.09-5.88-4.11-6-6S397.78,354.6,397.78,354.6Z"/><path class="cls-6" d="M404.63,374.58s.4-9.72,5-8.49,3.75,3.44,1.36,7.73-5.33,5.6-5.33,5.6"/><path class="cls-5" d="M423.53,406.67s-2.8,10-2.54,14.5,18.95,48.34,19.48,50.95,7.77,3.69,11.38.84,5.26-6.73,2.77-16.78c-1.53-6.22-16.75-43.19-17.88-49.54S431.2,396,427.11,397"/><path class="cls-5" d="M440.82,459l-23,39.63,8.85,5.66s22.06-28.6,25.18-31.28,7.38-8.23,2.77-16.78"/><path class="cls-6" d="M417.82,498.58l-6,1.41s-3.18,5.66-3.89,6.72-4.25,2.83-.71,3.19,5-3.54,5-3.54l9.2,6,5.31-8.13Z"/><polygon class="cls-7" points="337.67 429.15 349.48 456.38 361.96 456.77 350.86 428.74 337.67 429.15"/><path class="cls-6" d="M347.37,439.9s-8-1.79-9.05.16,3.68,11.1,5.69,13.25,6.87,1.1,9.43-.19.33-7.19-1.22-7.85-9.16-1.72-9.16-1.72,6.86,1.1,7.9-.47S350.42,440.47,347.37,439.9Z"/></svg>