<?xml version="1.0" encoding="UTF-8"?>
<svg width="300.17" height="57.75" data-name="Camada 1" version="1.1" viewBox="0 0 300.17 57.75" xmlns="http://www.w3.org/2000/svg">
    <polygon transform="translate(-3.51,-11.16)" points="69.53 48.65 7.25 68.91 22.34 55.27"/>
    <polygon transform="translate(-3.51,-11.16)" points="21 53.97 4.95 68.2 3.51 26.76 21 31.09"/>
    <polygon transform="translate(-3.51,-11.16)" points="74.67 42.24 4.19 25.17 20.93 11.16"/>
    <path d="m84.18 48.56c-1.68-1.86-2.52-4.54-2.52-8v-2.48h6.39v2.95q0 4.19 3.5 4.18a3.33 3.33 0 0 0 2.62-1 5 5 0 0 0 0.89-3.29 9.13 9.13 0 0 0-1.23-4.77 23 23 0 0 0-4.55-4.95 27 27 0 0 1-5.79-6.68 13.54 13.54 0 0 1-1.71-6.68q0-5.1 2.58-7.9t7.5-2.79q4.86 0 7.35 2.79t2.49 8v1.79h-6.4v-2.24a4.9 4.9 0 0 0-0.81-3.23 3.1 3.1 0 0 0-2.52-1c-2.25 0-3.38 1.38-3.38 4.12a8.16 8.16 0 0 0 1.26 4.37 24.34 24.34 0 0 0 4.58 4.92 25 25 0 0 1 5.84 6.7 14.79 14.79 0 0 1 1.6 7.07c0 3.52-0.87 6.23-2.61 8.11s-4.27 2.83-7.59 2.83-5.81-0.95-7.49-2.82z"/>
    <path d="m110.3 7.71h18.45v6.13h-11.68v11.39h9.28v6.15h-9.28v13.22h11.68v6.14h-18.45z"/>
    <path d="m151.49 50.62a12.4 12.4 0 0 1-4.48 0.74q-5 0-7.63-2.83c-1.76-1.88-2.64-4.55-2.64-8v-22.62q0-5.16 2.64-8t7.63-2.82q5 0 7.62 2.82t2.64 8v22.63a12.21 12.21 0 0 1-1.9 7.07 1.72 1.72 0 0 0 0.92 0.8 5.45 5.45 0 0 0 1.6 0.18h1v6.15h-1.78q-4.56 0-5.62-4.12zm-1-9.65v-23.48q0-4.24-3.5-4.25t-3.5 4.25v23.48q0 4.24 3.51 4.24t3.49-4.24z"/>
    <path d="m168.77 48.56c-1.72-1.86-2.58-4.54-2.58-8v-32.85h6.76v33.32a4.72 4.72 0 0 0 0.89 3.2 3.81 3.81 0 0 0 5.1 0 4.67 4.67 0 0 0 0.9-3.2v-33.32h6.51v32.83c0 3.48-0.86 6.16-2.58 8s-4.22 2.8-7.5 2.8-5.78-0.91-7.5-2.78z"/>
    <path d="m195.76 7.71h18.44v6.13h-11.71v11.39h9.28v6.15h-9.28v13.22h11.68v6.14h-18.41z"/>
    <path d="m222.68 7.71h8.49l6.58 25.76h0.12v-25.76h6v43h-6.94l-8.12-31.41h-0.12v31.44h-6z"/>
    <path d="m255.67 48.59q-2.56-2.76-2.56-7.81v-23.11q0-5 2.56-7.81t7.4-2.76q4.86 0 7.41 2.76t2.55 7.81v4.55h-6.39v-5q0-4-3.38-4c-2.26 0-3.38 1.33-3.38 4v24c0 2.62 1.12 3.93 3.38 3.93s3.38-1.31 3.38-3.93v-6.52h6.39v6.08q0 5.06-2.55 7.81t-7.41 2.77q-4.84 0-7.4-2.77z"/>
    <path d="m281.7 7.71h18.44v6.13h-11.65v11.39h9.29v6.15h-9.29v13.22h11.68v6.14h-18.47z"/>
</svg>
