<?xml version="1.0" encoding="utf-8"?>
<!-- Generator: Adobe Illustrator 24.2.0, SVG Export Plug-In . SVG Version: 6.00 Build 0)  -->
<svg version="1.1" id="Camada_1" xmlns="http://www.w3.org/2000/svg" xmlns:xlink="http://www.w3.org/1999/xlink" x="0px" y="0px"
	 viewBox="0 0 54 54" style="enable-background:new 0 0 54 54;" xml:space="preserve">
<style type="text/css">
	.st0{
		clip-path:url(#SVGID_2_);
    }
	.st1{
		fill: #f3f2f2;
		stroke:#f3f2f2;
		stroke-miterlimit:10;
    }
</style>
<g>
	<defs>
		<rect id="SVGID_1_" x="0" y="0" width="54" height="54"/>
	</defs>
	<clipPath id="SVGID_2_">
		<use xlink:href="#SVGID_1_"  style="overflow:visible;"/>
	</clipPath>
	<g class="st0">
		<path class="st1" d="M-1.8,77.1c-15-0.2-26.9-12.6-26.6-27.9c0.3-15.1,12.6-27.3,27.5-27c15.2,0.3,26.8,12.6,26.5,28.1
			C25.3,65.2,13,77.3-1.8,77.1z"/>
		<path class="st1" d="M-24.7-20.4C-8.7-19.8,2.7-7.3,2,8.7c-0.1,3.2-1,6.2-2.1,9.2c-0.3,0.8-0.7,1-1.6,1c-5.1,0-9.8,1.1-14.4,3.5
			c-4.8,2.5-8.5,6-11.4,10.5c-0.8,1.2-1.5,1.5-2.7,1.2c-9.5-2.3-16.4-7.8-19.9-17.2c-6.3-16.6,4.3-34.7,21.6-37.1
			C-27.2-20.3-25.8-20.3-24.7-20.4z"/>
		<path class="st1" d="M49.5,9.7c-0.3,13.4-10.1,24.8-23.1,26.8c-0.8,0.1-1.3,0-1.7-0.8c-4.5-8.6-11.5-14-20.9-16.1
			c-0.9-0.2-1-0.5-0.7-1.3C6.4,9.6,5.9,1.2,1.9-7C1.6-7.8,1.7-8.3,2.2-8.8c6.1-6.9,13.7-10,22.8-9.3c12.5,1,22.6,10.9,24.3,23.6
			C49.4,6.9,49.5,8.3,49.5,9.7z"/>
	</g>
</g>
</svg>
