<?xml version="1.0" encoding="utf-8"?>
<!-- Generator: Adobe Illustrator 24.2.0, SVG Export Plug-In . SVG Version: 6.00 Build 0)  -->
<svg version="1.1" id="Camada_1" xmlns="http://www.w3.org/2000/svg" xmlns:xlink="http://www.w3.org/1999/xlink" x="0px" y="0px"
	 viewBox="0 0 427.5 103.5" style="enable-background:new 0 0 427.5 103.5;" xml:space="preserve">
<style type="text/css">
	.st0{fill:#FFFFFF;}
	.st1{fill:#FFFFFF;}
	.st2{fill:#FFFFFF;}
	
	.st4{fill:#FFFFFF;}
</style>
<path class="st0" d="M1,29.7C1.1,14.9,12.5,2.6,27.2,1.3C42.6,0,56.1,10.6,58.3,25.8c0.7,5.1,0,10.1-1.9,14.9c-0.3,0.8-0.7,1-1.6,1
	c-11.9,0.2-21,5.3-27.5,15.1c-0.6,0.9-1,1.1-2.1,0.9C13.2,55.6,4.1,47,1.7,35.2C1.3,33.4,1.2,31.5,1,29.7z"/>
<path class="st1" d="M59.9,41.8c0.6-2.2,1.2-4.4,1.6-6.6c1.3-7.1,0.3-13.9-3-20.3c-0.5-1-0.4-1.6,0.3-2.3
	c6.4-6.9,14.3-10.2,23.6-9.5c13.6,1,23.6,11,25.9,22.8c2.9,15.4-6.5,29.7-21.9,33.2h-0.1c-2.5,0.6-2.5,0.5-3.8-1.6
	c-5-8.3-12.2-13.5-21.8-15.4c-0.2,0-0.4-0.1-0.6-0.2C60,41.9,59.9,41.8,59.9,41.8z"/>
<path class="st2" d="M303.8,34.7c6.3,4.9,8.4,11.9,5.8,19.3c-1.7,5-5.5,7.7-10.4,8.8c-2.3,0.5-4.7,0.9-7.1,0.9
	c-7.2,0.1-14.4,0.1-21.7,0.1c-0.2,0-0.4,0-0.7,0c0-18,0-36,0-54.1c0.3,0,0.6-0.1,1-0.1c6.5,0,13.1-0.1,19.6,0c2.5,0,5,0.3,7.5,0.9
	c7.2,1.6,10.7,6,10.8,13.3C308.7,28.2,307.5,32,303.8,34.7z M283.9,41.2c0,0-0.1,0.1-0.1,0.2c0,3.5,0,7,0,10.5
	c0,0.3,0.5,0.7,0.8,0.7c2.4,0,4.7,0,7.1-0.2c2.9-0.2,4.4-2,4.6-4.9c0-0.6,0-1.2,0-1.8c-0.2-2.6-1.5-4.3-4-4.5
	C289.5,41,286.7,41.2,283.9,41.2z M283.9,29.6c2.6,0,5,0.2,7.5-0.1c1.9-0.2,2.9-1.7,3-3.9c0.1-2.5-0.7-4.3-2.7-4.6
	c-2.5-0.4-5.1-0.3-7.7-0.5C283.9,23.9,283.9,26.8,283.9,29.6z"/>
<path class="st2" d="M338.9,63.8c-4.8,0-9.4,0-14.1,0c0-18,0-36,0-54.1c0.3,0,0.7-0.1,1-0.1c6.5,0,13.1-0.1,19.6,0.1
	c2.7,0.1,5.5,0.4,8.1,1.2c5.9,1.6,9.2,5.7,9.7,11.7c0.2,2.7,0.2,5.4-0.6,8c-0.9,3-2.8,5.4-5.5,7.1c-0.3,0.2-0.7,0.4-1.1,0.7
	c4.1,2.8,5.7,7.2,7.6,11.4c1.9,4.3,3.9,8.6,5.8,12.9c0.1,0.3,0.3,0.7,0.4,1.1c-0.7,0-1.3,0-1.9,0c-4,0-8.1,0-12.1,0
	c-1,0-1.4-0.3-1.7-1.2c-1.7-4-3.5-8.1-5.3-12.1c-0.6-1.2-1.2-2.4-1.9-3.6c-1.2-2.1-3.1-3-5.5-3c-0.8,0-1.6,0-2.6,0
	C338.9,50.7,338.9,57.2,338.9,63.8z M338.9,32.7c1.9,0,3.8,0.1,5.6,0c2-0.1,3.8-0.8,4.2-3c0.3-1.7,0.2-3.5,0-5.2
	c-0.2-1.5-1.3-2.5-2.8-2.7c-2.3-0.3-4.6-0.3-7-0.5C338.9,25.2,338.9,28.9,338.9,32.7z"/>
<path class="st2" d="M125.7,9.7c4.7,0,9.4,0,14.2,0c0,0.5,0,1,0,1.5c0,11.1,0,22.1,0.1,33.2c0,1.6,0.4,3.2,0.9,4.8
	c0.6,2.1,2.2,3.3,4.4,3.6c1.3,0.1,2.6,0.1,3.9-0.1c2-0.3,3.5-1.6,3.9-3.6c0.5-2.1,0.9-4.2,1-6.3c0.1-10.5,0-21.1,0.1-31.6
	c0-0.5,0-0.9,0-1.5c4.8,0,9.4,0,14.3,0c0,0.4,0,0.8,0,1.2c0,10.3,0,20.5,0,30.8c0,3.7-0.4,7.4-1.6,11c-2,5.8-6,9.6-12.1,11.1
	c-5,1.3-10.1,1.3-15.2,0.1c-7.5-1.8-11.7-6.9-13.2-14.2c-0.4-2.1-0.7-4.3-0.7-6.5c-0.1-10.9,0-21.7,0-32.6
	C125.6,10.4,125.7,10.1,125.7,9.7z"/>
<path class="st2" d="M388.6,63.8c-4.8,0-9.5,0-14.4,0c0.1-0.5,0.2-0.9,0.4-1.3c5.8-17.2,11.6-34.5,17.3-51.7
	c0.3-0.9,0.7-1.2,1.6-1.2c4.6,0.1,9.2,0,13.8,0c0.8,0,1.1,0.2,1.3,1c5.8,17.4,11.7,34.8,17.5,52.2c0.1,0.3,0.2,0.7,0.3,1.1
	c-4.7,0-9.2,0-13.8,0c-0.3,0-0.7-0.5-0.9-0.8c-0.8-2.6-1.6-5.1-2.4-7.7c-0.2-0.7-0.5-0.9-1.2-0.9c-5.2,0-10.5,0-15.7,0
	c-0.7,0-1.1,0.2-1.3,0.9C390.4,58.1,389.5,60.9,388.6,63.8z M405.4,42.5c-1.7-5.4-3.3-10.6-4.9-15.7c-0.1,0-0.2,0-0.3,0
	c-1.6,5.2-3.3,10.4-4.9,15.7C398.8,42.5,402,42.5,405.4,42.5z"/>
<path class="st2" d="M178,9.6c4.7,0,9.2,0,13.7,0c0.8,0,0.8,0.6,1,1.1c3.1,9.3,6.1,18.7,9.1,28c0.7,2.2,1.5,4.5,2.3,7
	c0.3-0.7,0.4-1.2,0.6-1.6c3.6-11.1,7.2-22.2,10.8-33.3c0.3-0.8,0.6-1.2,1.5-1.2c4,0.1,8.1,0,12.1,0c0.4,0,0.7,0,1.2,0
	c-1.3,3.9-2.6,7.8-3.9,11.6c-4.6,13.8-9.3,27.5-13.9,41.3c-0.3,1-0.8,1.3-1.8,1.3c-4.5-0.1-9.1,0-13.6,0c-0.7,0-1-0.2-1.3-0.9
	C190,45.5,184.1,28,178.2,10.6C178.1,10.3,178.1,10,178,9.6z"/>
<path class="st2" d="M239.8,63.7c0-18,0-36,0-54c4.7,0,9.3,0,14.1,0c0,18,0,35.9,0,54C249.3,63.7,244.6,63.7,239.8,63.7z"/>
<path class="st2" d="M203,74.8c0,8.7,0,17.3,0,26.2c-2.3,0-4.6,0-6.9,0c-0.3,0-0.6-0.5-0.8-0.9c-2.1-4.4-4.2-8.8-6.3-13.2
	c-0.2-0.4-0.3-0.7-0.7-1c0,5,0,10,0,15.1c-2.1,0-4.1,0-6.1,0c-0.2,0-0.5-0.5-0.5-0.8c-0.1-1.3,0-2.7,0-4c0-6.6,0-13.2,0-19.7
	c0-0.5,0-0.9,0-1.5c2.4,0,4.7,0,6.9,0c0.3,0,0.7,0.5,0.9,0.9c2.1,4.4,4.2,8.8,6.4,13.2c0.2,0.3,0.4,0.7,0.8,0.9c0-5,0-9.9,0-15
	C198.7,74.8,200.8,74.8,203,74.8z"/>
<path class="st2" d="M175.5,87.8c-0.3,1.7-0.4,3.5-0.8,5.1c-1.6,5.9-6.9,9.2-13.1,8.4c-6.5-0.8-10.2-5-10.7-12.1
	c-0.2-2.8,0.1-5.5,1.2-8c1.8-4.2,5.1-6.6,9.7-6.8c2-0.1,4,0,5.9,0.6c4.9,1.6,7,5.5,7.6,10.4c0.1,0.8,0.1,1.6,0.1,2.4
	C175.4,87.8,175.4,87.8,175.5,87.8z M157.6,87.8c0.4,1.8,0.7,3.6,1.3,5.2c0.7,1.8,2.2,2.8,4.2,2.8s3.4-0.9,4.2-2.7
	c1.5-3.5,1.5-7,0-10.5c-0.8-1.7-2.2-2.7-4.2-2.7s-3.5,0.9-4.1,2.7C158.3,84.2,158,86,157.6,87.8z"/>
<path class="st2" d="M381.6,74.7c1.4,0,2.8,0,4.2,0c2.8,0.1,5.7,0,8.5,0.3c3,0.3,5.2,1.9,5.7,5c0.6,3.2,0.2,6.2-2.8,8.2
	c-0.1,0.1-0.2,0.2-0.3,0.3c3.4,3.5,4.3,8.1,6.6,12.3c-2.5,0-4.6,0-6.8,0c-0.3,0-0.8-0.5-0.9-0.8c-1-2.1-1.9-4.2-2.8-6.3
	c-1-2.2-1.9-2.6-4.4-2.3c0,3.1,0,6.2,0,9.4c-2.3,0-4.6,0-6.8,0C381.6,92.2,381.6,83.5,381.6,74.7z M388.4,85.9
	c1.7-0.2,3.4,0.5,4.6-1.1c0.6-0.8,0.5-3-0.1-3.6c-1.3-1.3-2.9-0.8-4.4-0.8C388.4,82.3,388.4,84,388.4,85.9z"/>
<path class="st2" d="M236.1,74.8c5.6,0,11.1,0,16.7,0c0,1.9,0,3.8,0,5.8c-1.1,0-2.2,0-3.3,0c-1.9,0-3.8,0-5.6,0
	c-0.3,0-0.9,0.4-0.9,0.7c-0.1,1,0,2,0,3.1c3.2,0,6.2,0,9.4,0c0,2,0,3.9,0,5.9c-3.1,0-6.1,0-9.3,0c0,1.6,0,3.2,0,4.8
	c3.4,0,6.8,0,10.2,0c0,2,0,3.9,0,5.9c-5.7,0-11.3,0-17,0C236.1,92.2,236.1,83.5,236.1,74.8z"/>
<path class="st2" d="M339.9,93.2c2.5,0.8,4.9,1.7,7.3,2.4c1,0.3,2.1,0.1,3.2-0.1c1-0.2,1.6-0.8,1.7-1.9s-0.5-1.8-1.5-2.1
	c-1.5-0.4-3-0.8-4.5-1.2c-2.9-0.8-5.5-2.2-6.1-5.5c-1.1-5.9,1.7-10.1,7.7-10.4c3.2-0.2,6.4,0.3,9.5,1.3c0,2.1,0,4.1,0,6.4
	c-0.4-0.2-0.8-0.3-1.2-0.5c-2.4-1.1-4.9-1.8-7.5-1.5c-0.5,0.1-1.1,0.1-1.4,0.4c-0.5,0.5-1,1.1-1,1.7c0,0.5,0.5,1.3,1,1.5
	c1.1,0.5,2.3,0.7,3.4,1c0.7,0.2,1.5,0.3,2.2,0.5c4.7,1.4,6.6,4.5,5.9,9.3c-0.7,4.5-3.3,6.7-8.5,7c-3.3,0.2-6.4-0.5-9.5-1.7
	c-0.3-0.1-0.7-0.6-0.8-0.9C339.8,96.9,339.9,95,339.9,93.2z"/>
<path class="st2" d="M227.5,81.6c-2.4-0.6-4.7-1.2-7-1.6c-0.9-0.2-1.9,0.1-2.8,0.3c-0.9,0.2-1.3,0.9-1.3,1.8s0.4,1.4,1.2,1.7
	c1.1,0.3,2.1,0.6,3.2,0.9c0.5,0.1,1.1,0.2,1.6,0.4c5.8,1.4,7.7,5.1,6,11.4c-0.8,2.9-3,4.3-5.8,4.8c-4.1,0.8-8,0-11.8-1.5
	c-0.3-0.1-0.5-0.6-0.5-0.9c0-1.9,0-3.8,0-5.9c0.5,0.3,0.9,0.5,1.3,0.7c2.3,1.3,4.8,2.2,7.5,2.2c0.7,0,1.6-0.1,2.2-0.5
	c0.6-0.4,1.1-1.2,1.1-1.9c0-0.6-0.6-1.4-1.1-1.7c-1.1-0.5-2.3-0.8-3.5-1.1c-0.5-0.1-0.9-0.2-1.4-0.3c-5.1-1.4-7.3-5.2-6-10.3
	c0.8-3.2,3.4-5.3,6.9-5.6c3.2-0.3,6.4,0.1,9.5,1c0.3,0.1,0.7,0.5,0.8,0.8C227.5,78.1,227.5,79.9,227.5,81.6z"/>
<path class="st2" d="M425.3,75.7c0,2.1,0,4.1,0,6.3c-0.5-0.2-0.9-0.4-1.3-0.6c-2.4-1.1-4.9-1.8-7.5-1.4c-0.6,0.1-1.3,0.4-1.8,0.8
	c-0.9,0.8-0.6,2.4,0.6,2.8c1.3,0.5,2.6,0.7,3.9,1c0.5,0.1,0.9,0.2,1.4,0.4c5.8,1.7,8.1,7.1,5.3,12.5c-1.2,2.3-3.3,3.3-5.7,3.7
	c-3.9,0.7-7.7,0-11.4-1.5c-0.3-0.1-0.7-0.4-0.7-0.7c-0.1-2,0-4,0-6.1c1.3,0.6,2.5,1.3,3.7,1.7c2.1,0.8,4.2,1.4,6.4,0.9
	c1.1-0.2,1.9-0.7,2-2c0.1-1.2-0.6-1.9-1.7-2.2c-1.4-0.4-2.8-0.8-4.3-1.1c-5.2-1.4-7.4-5.1-6.1-10.3c0.8-3,3.2-5,6.6-5.5
	C417.6,74,422.4,74.6,425.3,75.7z"/>
<path class="st2" d="M257.4,74.7c2.1,0,4.2,0,6.2,0c0.3,0,0.7,0.6,0.8,0.9c1.7,5,3.3,10.1,5,15.1c0.1,0.4,0.3,0.7,0.5,1.3
	c0.2-0.7,0.4-1.2,0.6-1.6c1.6-4.9,3.2-9.8,4.7-14.7c0.3-0.9,0.7-1.2,1.6-1.1c1.8,0.1,3.7,0,5.7,0c-0.1,0.5-0.2,0.9-0.3,1.2
	c-2.7,8-5.4,16-8,24c-0.3,0.8-0.7,1.1-1.5,1.1c-1.9-0.1-3.8,0-5.7,0c-0.4,0-0.9-0.3-1-0.6c-2.9-8.4-5.7-16.8-8.5-25.2
	C257.4,75,257.4,75,257.4,74.7z"/>
<path class="st2" d="M145.5,93.2c0,1.8,0,3.7,0,5.5c0,0.3-0.3,0.8-0.6,1c-7.2,3.9-18.7,1.7-19.7-10c-0.2-2.9,0-5.7,1.2-8.4
	c1.9-4.2,5.3-6.5,10-6.9c2.9-0.3,5.7,0.2,8.4,1.5c0.6,0.3,0.9,0.6,0.9,1.4c-0.1,1.7,0,3.5,0,5.5c-0.5-0.3-0.8-0.5-1.1-0.7
	c-1.7-1.2-3.5-2-5.7-2c-2.9-0.1-5,1.2-6,4c-0.9,2.6-0.9,5.2,0,7.8c1.2,3.4,4.3,4.8,8.2,3.6C142.5,94.9,143.9,94,145.5,93.2z"/>
<path class="st2" d="M313.5,100.9c-2.4,0-4.6,0-6.9,0c0-6.7,0-13.5,0-20.3c-2.6,0-5,0-7.5,0c0-2,0-3.9,0-5.8c7.3,0,14.6,0,21.9,0
	c0,1.9,0,3.8,0,5.8c-2.5,0-4.9,0-7.5,0C313.5,87.4,313.5,94.1,313.5,100.9z"/>
<path class="st2" d="M332.7,100.9c-2.3,0-4.4,0-6.7,0c0-8.7,0-17.4,0-26.1c2.2,0,4.4,0,6.7,0C332.7,83.5,332.7,92.2,332.7,100.9z"/>
<path class="st2" d="M294,74.8c0,8.7,0,17.3,0,26c-2.2,0-4.4,0-6.7,0c0-8.6,0-17.3,0-26C289.6,74.8,291.7,74.8,294,74.8z"/>
<path class="st2" d="M364.6,93.3c0-1.9,0-3.7,0-5.7c3.5,0,6.9,0,10.4,0c0,1.9,0,3.8,0,5.7C371.5,93.3,368.1,93.3,364.6,93.3z"/>
<path class="st3" d="M283.9,41.2c2.8,0,5.6-0.2,8.3,0.1c2.5,0.2,3.9,2,4,4.5c0,0.6,0,1.2,0,1.8c-0.2,2.9-1.7,4.6-4.6,4.9
	c-2.3,0.2-4.7,0.2-7.1,0.2c-0.3,0-0.8-0.5-0.8-0.7c0-3.5,0-7,0-10.5C283.8,41.3,283.9,41.2,283.9,41.2z"/>
<path class="st3" d="M283.9,29.6c0-2.8,0-5.7,0-8.9c2.6,0.1,5.2,0.1,7.7,0.5c2,0.3,2.8,2,2.7,4.6c-0.1,2.2-1.1,3.7-3,3.9
	C288.9,29.8,286.4,29.6,283.9,29.6z"/>
<path class="st3" d="M338.9,32.7c0-3.8,0-7.5,0-11.4c2.4,0.2,4.7,0.2,7,0.5c1.5,0.2,2.7,1.2,2.8,2.7c0.2,1.7,0.3,3.5,0,5.2
	c-0.4,2.2-2.2,2.9-4.2,3C342.7,32.8,340.9,32.7,338.9,32.7z"/>
<path class="st3" d="M405.4,42.5c-3.4,0-6.7,0-10.1,0c1.7-5.3,3.3-10.5,4.9-15.7c0.1,0,0.2,0,0.3,0C402.2,32,403.8,37.2,405.4,42.5z
	"/>
<path class="st3" d="M157.6,87.8c0.4-1.8,0.7-3.5,1.3-5.2c0.7-1.8,2.2-2.7,4.1-2.7c2,0,3.4,0.9,4.2,2.7c1.5,3.5,1.5,7,0,10.5
	c-0.8,1.7-2.2,2.7-4.2,2.7s-3.5-1-4.2-2.8C158.3,91.3,158,89.6,157.6,87.8z"/>
<path class="st3" d="M388.4,85.9c0-1.9,0-3.6,0-5.6c1.6,0.1,3.2-0.4,4.4,0.8c0.6,0.7,0.7,2.8,0.1,3.6
	C391.8,86.4,390.1,85.8,388.4,85.9z"/>
<ellipse class="st4" cx="54.1" cy="73.5" rx="28.8" ry="28.6"/>
</svg>
