<?xml version="1.0" encoding="utf-8"?>
<!-- Generator: Adobe Illustrator 24.2.0, SVG Export Plug-In . SVG Version: 6.00 Build 0)  -->
<svg version="1.1" id="Camada_1" xmlns="http://www.w3.org/2000/svg" xmlns:xlink="http://www.w3.org/1999/xlink" x="0px" y="0px"
	 viewBox="0 0 63.3 83.6" style="enable-background:new 0 0 63.3 83.6;" xml:space="preserve">
<style type="text/css">
	.st0{display:none;}
	.st1{fill:none;stroke:#FFFFFF;stroke-width:2;stroke-miterlimit:10;}
	.st2{fill:none;stroke:#FFFFFF;stroke-width:3;stroke-miterlimit:10;}
</style>
<g>
	<g>
		<path class="st1" d="M1.4,69.3l15.2-2L24,80.5c3.6-7.1,7.1-14.2,10.7-21.3c-0.7,0.6-1.8,1.4-3.2,1.4c-2.1-0.1-2.4-2.3-4.7-2.9
			c-2.5-0.7-3.8,1.3-6.1,0.7c-1.1-0.3-2.6-1.4-3.8-4.7c-0.3-0.3-0.9-0.7-1.6-0.9c-0.9-0.2-1.5,0.1-2.5,0c-0.6,0-1.5-0.2-2.5-0.9
			C7.3,57.6,4.4,63.4,1.4,69.3z"/>
	</g>
	<path class="st1" d="M61.4,69l-7.7-1.1L46,66.8l-3.6,6.7l-3.6,6.7L31.7,66c-1.3-2.6-2.5-5.1-3.8-7.7c2.6,2.2,4.1,2.4,5,2
		c1.4-0.5,2.2-2.6,4.3-2.7c0.1,0,0.1,0,0.3,0c1.8,0,2.6,0.5,3.8,0.7c0.5,0.1,1.3,0.1,2.3-0.2c0.3-0.5,0.7-1.2,1.4-2
		c1-1.4,1.5-2,2.3-2.5c0.4-0.2,0.6-0.2,3.2-0.9c0.8-0.2,1.4-0.4,1.9-0.5c0,0,0.3-0.2,0.5-0.1c0.2,0,0.3,0.2,0.4,0.3l1.2,2.3L61.4,69
		z"/>
	<g>
		
			<image style="overflow:visible;opacity:0.75;" width="93" height="92" xlink:href="A18DEE2776F740FD.png"  transform="matrix(1 0 0 1 -7.6014 -8)">
		</image>
		<g>
			<path class="st2" d="M61.3,31c0,1.9-2.6,3.5-2.9,5.3c-0.4,1.8,1.4,4.3,0.7,6c-0.7,1.7-3.7,2.2-4.7,3.8c-1,1.5-0.4,4.5-1.7,5.8
				c-1.3,1.3-4.3,0.6-5.8,1.7c-1.5,1-2,4-3.8,4.7c-1.7,0.7-4.2-1-6-0.7c-1.8,0.4-3.4,2.9-5.3,2.9c-1.9,0-3.5-2.6-5.3-2.9
				c-2.7-0.5-4,1.7-6,0.7c-1-0.5-1.7-1.5-2.4-2.5c-1-1.3-0.7-1.6-1.3-2.2c-1.7-1.8-4.2-0.1-5.8-1.7c-1.3-1.3-0.6-4.3-1.7-5.8
				c-1-1.5-4-2-4.7-3.8c-0.7-1.7,1-4.2,0.7-6c-0.4-1.8-2.9-3.4-2.9-5.3c0-1.9,2.6-3.5,2.9-5.3c0.4-1.8-1.4-4.3-0.7-6
				c0.7-1.7,3.7-2.2,4.7-3.8c1-1.5,0.4-4.5,1.7-5.8c1.3-1.3,4.3-0.6,5.8-1.7c1.5-1,2-4,3.8-4.7c1.7-0.7,4.2,1,6,0.7
				c1.8-0.4,3.4-2.9,5.3-2.9c1.9,0,3.5,2.6,5.3,2.9c1.8,0.4,4.3-1.4,6-0.7c1.7,0.7,2.2,3.7,3.8,4.7c1.5,1,4.5,0.4,5.8,1.7
				c1.3,1.3,0.6,4.3,1.7,5.8c1,1.5,4,2,4.7,3.8c0.7,1.7-1,4.2-0.7,6C58.8,27.5,61.3,29.1,61.3,31z"/>
		</g>
	</g>
	<g>
		
			<image style="overflow:visible;opacity:0.75;" width="83" height="84" xlink:href="A18DEE2776F740FF.png"  transform="matrix(1 0 0 1 -2.6014 -4)">
		</image>
		<g>
			<path class="st2" d="M56.4,31c0,6.8-2.7,12.9-7.2,17.3s-10.6,7.2-17.3,7.2c-6.8,0-12.9-2.7-17.3-7.2S7.3,37.8,7.3,31
				c0-6.8,2.7-12.9,7.2-17.3s10.6-7.2,17.3-7.2c6.8,0,12.9,2.7,17.3,7.2S56.4,24.2,56.4,31z"/>
		</g>
	</g>
</g>
</svg>
