<svg viewBox="0 0 85 85" xmlns="http://www.w3.org/2000/svg">
	<style>
		path {
			fill: #73122c;
		}
	</style>
	<path d="M2,17.1c0.7-3.6,2.9-6.2,5.5-8.5c1.6-1.4,3-3.1,4.6-4.6c2.8-2.6,6.2-2.7,9-0.1c3.7,3.6,7.4,7.2,11,11 c2.8,2.9,2.7,6.1-0.2,9.1c-1.9,2-3.9,4.1-6,6c-1.1,1-1.2,1.9-0.6,3.3c3.7,7.5,9.2,13.5,15.6,18.7c3,2.5,6.6,4.4,9.9,6.6 c1.2,0.8,2.1,0.6,3.1-0.4c2-2.1,4-4.1,6.1-6.1c2.9-2.8,6.2-2.9,9.1-0.1c3.7,3.5,7.3,7.1,10.9,10.8c2.8,2.9,2.8,6.1,0,9.1 c-2.3,2.5-4.6,5-7.2,7.2c-1.6,1.3-3.9,2-5.8,3c-1.6,0-3.1,0-4.7,0c-3.2-0.9-6.5-1.4-9.6-2.6c-15.8-6.3-28.5-16.7-38.4-30.5 C8.3,40.7,3.7,31.9,2,21.8C2,20.2,2,18.7,2,17.1z" />
</svg>