<?xml version="1.0" standalone="no"?>
<!DOCTYPE svg PUBLIC "-//W3C//DTD SVG 1.1//EN" "http://www.w3.org/Graphics/SVG/1.1/DTD/svg11.dtd" >
<svg xmlns="http://www.w3.org/2000/svg" xmlns:xlink="http://www.w3.org/1999/xlink" version="1.1">
<metadata></metadata>
<defs>
<font id="neue_hans_kendrickheavy" horiz-adv-x="1463" >
<font-face units-per-em="2048" ascent="1536" descent="-512" />
<missing-glyph horiz-adv-x="570" />
<glyph unicode="&#xfb01;" horiz-adv-x="1586" d="M29 803v314h187v237q0 210 125.5 334.5t338.5 124.5q162 0 211 -36v-373q-54 43 -131 43q-35 0 -61.5 -17.5t-40.5 -49t-14 -74.5v-189h800v-1117h-424v803h-376v-803h-428v803h-187zM1007 1523q0 60 30.5 111.5t82.5 81.5t113 30q93 0 159 -65.5t66 -157.5 q0 -93 -66.5 -159.5t-158.5 -66.5q-93 0 -159.5 66.5t-66.5 159.5z" />
<glyph unicode="&#xfb02;" horiz-adv-x="1636" d="M29 803v314h187v237q0 210 125.5 334.5t338.5 124.5q162 0 211 -36v-373q-54 43 -131 43q-35 0 -61.5 -17.5t-40.5 -49t-14 -74.5v-189h252v-314h-252v-803h-428v803h-187zM1067 0v1782h428v-1782h-428z" />
<glyph horiz-adv-x="0" />
<glyph horiz-adv-x="682" />
<glyph unicode=" "  horiz-adv-x="570" />
<glyph unicode="&#x09;" horiz-adv-x="570" />
<glyph unicode="&#xa0;" horiz-adv-x="570" />
<glyph unicode="!" horiz-adv-x="788" d="M161 204q0 97 67 164t162 67q96 0 163.5 -67t67.5 -164q0 -94 -68 -160.5t-163 -66.5t-162 66.5t-67 160.5zM176 644v1138h427v-1138h-427z" />
<glyph unicode="&#x22;" horiz-adv-x="1282" d="M168 1782h403l-48 -762h-292zM715 1782h400l-61 -762h-292z" />
<glyph unicode="#" horiz-adv-x="1922" d="M71 378l40 297h336l61 404h-340l50 294h331l54 388h295l-52 -388h371l54 388h297l-54 -388h339l-48 -294h-332l-57 -404h332l-39 -297h-333l-57 -378h-295l52 378h-375l-50 -378h-297l52 378h-335zM746 675h371l59 404h-376z" />
<glyph unicode="$" horiz-adv-x="1513" d="M86 297l290 297q49 -61 96 -105.5t97.5 -76.5t105 -47.5t114.5 -15.5q94 0 142 39.5t48 110.5q0 20 -5 38.5t-12 33.5t-22.5 30.5t-28 26.5t-36.5 24.5t-40 22t-48 22t-50 21t-56 21.5q-26 11 -40 16q-54 22 -93 39t-93 45.5t-91 57t-78 70t-65.5 87t-40.5 105.5t-16 129 q0 93 28.5 173.5t80 141t120 103.5t151.5 68v193h374v-178q234 -50 436 -252l-273 -266q-148 176 -324 176q-32 0 -60.5 -8.5t-49 -23.5t-32.5 -37.5t-12 -49.5q0 -21 7.5 -40.5t18.5 -34.5t32.5 -31t39 -26.5t49.5 -25.5t53 -23.5t60.5 -24.5t61.5 -25q55 -23 98.5 -43.5 t97 -51.5t93 -63t79 -76t65 -92t41 -110.5t15.5 -132.5q0 -112 -38.5 -207t-106.5 -162t-157.5 -111t-193.5 -61v-173h-374v196q-148 42 -267 122t-191 165z" />
<glyph unicode="%" horiz-adv-x="2216" d="M84 1358q0 91 35.5 174t95.5 142.5t142.5 95t172.5 35.5q91 0 174 -35.5t142.5 -95t95 -142.5t35.5 -174q0 -89 -35.5 -171.5t-95 -143t-142.5 -96t-174 -35.5q-61 0 -119 16t-107 44.5t-90 70t-69.5 90.5t-44.5 107t-16 118zM397 1358q0 -55 39 -93.5t94 -38.5 q37 0 67.5 18t47.5 48t17 66.5t-18 67t-48.5 48.5t-65.5 18q-18 0 -35.5 -4.5t-32 -13t-27 -20.5t-21 -27t-13 -32.5t-4.5 -36.5zM465 0l897 1782h381l-897 -1782h-381zM1240 428q0 91 35.5 174t96 142.5t143.5 95t174 35.5q121 0 223.5 -60t161.5 -162.5t59 -224.5 q0 -90 -35 -172.5t-94 -142.5t-141.5 -96t-173.5 -36q-123 0 -226 59.5t-163 162t-60 225.5zM1553 428q0 -55 40 -93t96 -38q37 0 67.5 17t48 47.5t17.5 66.5q0 53 -39.5 92.5t-93.5 39.5q-36 0 -67.5 -17.5t-50 -48t-18.5 -66.5z" />
<glyph unicode="&#x26;" horiz-adv-x="1804" d="M88 508q0 72 16 134t43 112t73.5 101t97 93.5t124.5 96.5q-75 82 -110 159.5t-35 168.5q0 124 58.5 222t161 151.5t229.5 53.5q125 0 227 -49.5t163 -143t61 -213.5q0 -57 -15 -108.5t-37 -90t-59.5 -79t-69.5 -67.5t-80 -63l236 -281l281 342l234 -242l-300 -365 l359 -445l-442 5l-157 188q-112 -102 -227.5 -156.5t-259.5 -54.5q-92 0 -176.5 21.5t-156.5 66t-125 107t-83.5 149t-30.5 187.5zM430 506q0 -61 35 -108.5t85 -70.5t103 -23q39 0 78 13t77 39t62.5 46t58.5 52l-278 330q-7 -5 -32.5 -21.5t-46.5 -31t-48.5 -40t-47 -51 t-33 -61t-13.5 -73.5zM628 1383q0 -26 11.5 -52.5t21.5 -40.5t35.5 -43t30.5 -36q7 5 27.5 19t29 20.5t25 19.5t24.5 23.5t17.5 25t13.5 30.5t4 34q0 49 -34.5 78.5t-82.5 27.5q-52 -1 -87.5 -29.5t-35.5 -76.5z" />
<glyph unicode="'" horiz-adv-x="743" d="M171 1782h402l-56 -762h-291z" />
<glyph unicode="(" horiz-adv-x="847" d="M73 810q0 444 136 805.5t373 546.5l247 -290q-164 -118 -266 -410t-102 -652q0 -239 46.5 -454t130.5 -372.5t191 -235.5l-247 -290q-157 123 -272 327.5t-176 467.5t-61 557z" />
<glyph unicode=")" horiz-adv-x="847" d="M19 -252q80 59 148.5 165t117 243t75.5 306t27 348q0 360 -102 652t-266 410l247 290q117 -92 212.5 -232.5t160.5 -314t100.5 -379.5t35.5 -426q0 -444 -136 -805.5t-373 -546.5z" />
<glyph unicode="*" horiz-adv-x="1164" d="M93 1226v225l358 -37l-211 289l195 117l147 -328l148 328l199 -117l-217 -289l360 37v-225l-360 41l217 -290l-199 -117l-148 326l-147 -326l-195 117l211 290z" />
<glyph unicode="+" horiz-adv-x="1387" d="M104 670v314h433v432h313v-432h433v-314h-433v-432h-313v432h-433z" />
<glyph unicode="," horiz-adv-x="712" d="M129 -433l147 435q-56 29 -90 84t-34 118q0 95 67.5 163t160.5 68q95 0 162.5 -68t67.5 -163q0 -54 -24 -100h1l-254 -537h-204z" />
<glyph unicode="-" horiz-adv-x="1111" d="M140 404v308h832v-308h-832z" />
<glyph unicode="." horiz-adv-x="743" d="M143 204q0 95 67.5 163t159.5 68q95 0 163 -68t68 -163q0 -60 -31 -112.5t-84.5 -83.5t-115.5 -31q-92 0 -159.5 67.5t-67.5 159.5z" />
<glyph unicode="/" horiz-adv-x="1622" d="M-21 -499l1268 2494h397l-1268 -2494h-397z" />
<glyph unicode="0" horiz-adv-x="1520" d="M88 891q0 285 79 490.5t231 314.5t364 109q211 0 363 -109t231 -314.5t79 -490.5t-79 -491t-231 -314.5t-363 -108.5q-212 0 -364 108.5t-231 314.5t-79 491zM515 891q0 -166 30.5 -288.5t86.5 -187t130 -64.5q111 0 178 145t67 394.5t-67 394.5t-178 145 q-113 0 -180 -144.5t-67 -394.5z" />
<glyph unicode="1" horiz-adv-x="1520" d="M283 1408v374h762v-1782h-428v1408h-334z" />
<glyph unicode="2" horiz-adv-x="1520" d="M107 1233q0 178 77.5 308.5t219 198.5t330.5 68q180 0 320 -60t219.5 -173.5t80.5 -263.5q0 -59 -7 -109.5t-25.5 -102.5t-43.5 -98.5t-68 -102.5t-90.5 -108t-120 -121t-148 -136.5t-182.5 -158.5h718v-374h-1269v316q195 187 317 307.5t219 223.5t145.5 162.5t80 116 t39.5 93t8 85.5q0 40 -12.5 71.5t-32 50t-46 30t-51 16t-51.5 4.5q-101 0 -150 -60t-49 -183h-428z" />
<glyph unicode="3" horiz-adv-x="1520" d="M79 546h436q0 -46 13 -83t34 -60t51 -38t62 -21t69 -6q118 0 174 60.5t56 164.5q0 100 -63.5 155t-166.5 55h-112v320h83q40 0 76.5 10.5t67.5 32t49.5 59.5t18.5 88q0 83 -50.5 124.5t-135.5 41.5q-37 0 -65.5 -8.5t-52.5 -28t-37 -55.5t-13 -88h-430q0 103 30 190.5 t83 150.5t126.5 107.5t160.5 66t184 21.5q127 0 238.5 -38t190.5 -103t124.5 -154.5t45.5 -190.5q0 -68 -21 -130.5t-54 -106.5t-67 -74.5t-67 -45.5q35 -10 68.5 -26.5t67 -41t61 -59t49 -77.5t33.5 -99.5t12 -121.5q0 -170 -80 -296.5t-229.5 -195t-350.5 -68.5 q-110 0 -206.5 19t-182.5 62t-147.5 108t-97 162t-35.5 218z" />
<glyph unicode="4" horiz-adv-x="1520" d="M57 328v373l594 1081h560v-1081h258v-373h-258v-328h-427v328h-727zM380 701h404v750z" />
<glyph unicode="5" horiz-adv-x="1520" d="M100 539h449q13 -76 76.5 -117.5t154.5 -41.5q44 0 83.5 17.5t69.5 49.5t47.5 82t17.5 110q0 59 -18.5 108.5t-49 80.5t-69.5 48t-81 17q-71 0 -138 -42.5t-107 -116.5h-433l188 1048h1074v-374h-770l-41 -300q151 116 340 116q81 0 157 -23t143 -70.5t117 -114.5 t79.5 -162t29.5 -206q0 -152 -52.5 -280t-141.5 -213.5t-209.5 -133.5t-255.5 -48q-105 0 -203.5 25.5t-181 75t-144.5 117.5t-96.5 157.5t-34.5 190.5z" />
<glyph unicode="6" horiz-adv-x="1520" d="M84 606q0 105 37.5 210.5t123.5 226.5l530 739h481l-471 -630q62 13 117 13q90 0 173 -30t148 -83.5t113.5 -124t74 -155.5t24.5 -173q-1 -133 -56.5 -249.5t-148.5 -197.5t-217.5 -128t-259.5 -47q-138 0 -262.5 49t-213.5 133t-141 200.5t-52 246.5zM508 610 q-4 -112 63 -186.5t184 -74.5q114 0 185.5 70.5t73.5 179.5q3 112 -65.5 186.5t-188.5 74.5q-113 0 -180.5 -70t-71.5 -180z" />
<glyph unicode="7" horiz-adv-x="1520" d="M86 1408v374h1358v-318l-764 -1464h-485l765 1408h-874z" />
<glyph unicode="8" horiz-adv-x="1520" d="M111 546q0 142 66 257t184 190q-141 135 -141 328q0 102 41 191.5t111.5 154t171 101.5t216.5 37t216.5 -37t171 -101.5t111 -154t40.5 -191.5q0 -194 -138 -328q78 -49 134 -116t86.5 -151.5t30.5 -179.5q0 -96 -31.5 -183.5t-90 -157.5t-138 -121.5t-180 -79 t-212.5 -27.5q-139 0 -259.5 43.5t-206 118.5t-134.5 181t-49 226zM542 582q0 -98 62 -165.5t156 -67.5q63 0 114 31t79 84t28 118q0 96 -62 156t-159 60q-47 0 -87 -16t-69 -44t-45.5 -68.5t-16.5 -87.5zM585 1280.5q0 -76.5 50.5 -127.5t126.5 -51q75 0 125.5 51 t50.5 127.5t-50.5 127t-125.5 50.5q-76 0 -126.5 -50.5t-50.5 -127z" />
<glyph unicode="9" horiz-adv-x="1520" d="M86 1183q1 132 56.5 249t148.5 198t217.5 128t259.5 47q138 0 262 -49t213.5 -133t141.5 -200.5t52 -246.5q0 -70 -15.5 -137t-51.5 -143t-94 -157l-530 -739h-482l471 630q-62 -13 -117 -13q-112 0 -212 46.5t-170 124t-110.5 181t-39.5 214.5zM507 1183 q-3 -112 65.5 -186.5t188.5 -74.5q75 0 132 33t87 89t33 128q2 73 -26 131.5t-85.5 94t-135.5 35.5q-115 0 -186 -70.5t-73 -179.5z" />
<glyph unicode=":" horiz-adv-x="714" d="M129 204q0 95 67.5 163t159.5 68q95 0 163 -68t68 -163q0 -92 -68 -159.5t-163 -67.5q-92 0 -159.5 67.5t-67.5 159.5zM129 984q0 92 67.5 159.5t159.5 67.5q62 0 115.5 -31t84.5 -83.5t31 -112.5q0 -95 -68 -163t-163 -68q-92 0 -159.5 68t-67.5 163z" />
<glyph unicode=";" horiz-adv-x="702" d="M111 -433l149 435q-56 29 -90 84t-34 118q0 95 67.5 163t159.5 68q95 0 163 -68t68 -163q0 -54 -24 -100h1l-255 -537h-205zM136 984q0 92 67.5 159.5t159.5 67.5q62 0 115.5 -31t84.5 -83.5t31 -112.5q0 -95 -68 -163t-163 -68q-92 0 -159.5 68t-67.5 163z" />
<glyph unicode="&#x3c;" horiz-adv-x="1530" d="M90 725v377l1311 659v-347l-988 -500l988 -501v-352z" />
<glyph unicode="=" horiz-adv-x="1539" d="M211 404v313h1117v-313h-1117zM211 936v313h1117v-313h-1117z" />
<glyph unicode="&#x3e;" horiz-adv-x="1530" d="M129 61v352l988 501l-988 500v347l1311 -659v-377z" />
<glyph unicode="?" horiz-adv-x="1361" d="M59 1190q0 136 45.5 251t126.5 195.5t196.5 126t252.5 45.5q84 0 164 -18.5t147 -52t123 -81.5t95.5 -105.5t61 -126t21.5 -141.5q0 -70 -14 -127.5t-38.5 -96.5t-56 -70.5t-66.5 -54.5t-69.5 -43.5t-66 -41t-56 -43.5t-39 -55.5t-14.5 -73.5v-81h-382v107q0 65 12 118.5 t32.5 90t48 67t58.5 49.5t63.5 38t63.5 32.5t58.5 32t48.5 38t33 48.5t12 66q0 81 -69.5 130t-170.5 49q-115 0 -181 -74t-66 -198h-374zM458 204q0 97 67 164t164 67q62 0 114.5 -30.5t83.5 -84t31 -116.5q0 -94 -67.5 -160.5t-161.5 -66.5q-96 0 -163.5 66.5t-67.5 160.5z " />
<glyph unicode="@" horiz-adv-x="2021" d="M107 601q0 132 34.5 255t96.5 223.5t149.5 183.5t191 139.5t223.5 87.5t245 31q135 0 261.5 -31.5t238 -97t194.5 -158.5t131 -224t48 -285q0 -95 -16.5 -177.5t-44.5 -144.5t-67 -112t-83 -83.5t-93 -56t-97 -32.5t-96 -10q-100 0 -158.5 37t-72.5 95q-13 -21 -35 -42 t-56 -42.5t-83.5 -34.5t-105.5 -13q-88 0 -160 33t-118.5 90.5t-71.5 133.5t-25 164q0 75 19.5 152.5t60.5 152.5t99 134t142 95t183 36q88 0 153.5 -32.5t90.5 -81.5l17 79h226q-67 -304 -102 -485q-10 -49 -15 -77t-8.5 -59t-1 -47t9.5 -30t20.5 -19.5t34.5 -5.5 q45 0 83 27.5t64.5 75.5t41.5 115.5t15 144.5q0 120 -33.5 218t-91.5 164t-138 111t-170.5 65t-191.5 20q-122 0 -228.5 -35.5t-186 -99t-137 -149t-86.5 -188.5t-29 -215q0 -157 52.5 -285t145 -212.5t218.5 -130t273 -45.5q250 0 454 118l132 -200q-248 -154 -606 -154 q-140 0 -267.5 31.5t-230.5 89.5t-186 141t-139.5 184t-86.5 220t-30 248zM780 523q0 -27 4 -53.5t15.5 -56t29.5 -51.5t49.5 -36.5t71.5 -14.5q56 0 102.5 24t76 62t50 86.5t29.5 95.5t9 91q0 45 -8.5 83.5t-27.5 72t-55 53t-85 19.5t-92 -23t-73.5 -61t-52.5 -86.5 t-32.5 -101t-10.5 -103.5z" />
<glyph unicode="A" horiz-adv-x="1881" d="M27 0l640 1782h544l644 -1782h-486l-85 268h-687l-84 -268h-486zM712 630h457l-228 723z" />
<glyph unicode="B" horiz-adv-x="1629" d="M179 0v1782h750q114 0 213 -34t172 -96t115 -157.5t42 -211.5q0 -259 -200 -374q285 -105 285 -419q0 -117 -41.5 -211t-114.5 -154.5t-170 -92.5t-210 -32h-841zM606 374h351q73 0 123.5 50t50.5 120t-51 121.5t-123 51.5h-351v-343zM606 1065h271q69 0 118.5 51.5 t49.5 121.5t-49.5 120t-118.5 50h-271v-343z" />
<glyph unicode="C" horiz-adv-x="1752" d="M71 891q0 94 18.5 184.5t53 171.5t84.5 155t111.5 135.5t135.5 111.5t155.5 84.5t172 53t184.5 18.5q146 0 283 -44t250 -125t197 -192l-336 -252q-66 97 -168.5 149.5t-225.5 52.5q-104 0 -195 -37.5t-156.5 -104t-103 -160t-37.5 -201.5t37.5 -202t103 -160t156.5 -104 t195 -38q123 0 225.5 53t168.5 149l336 -251q-127 -169 -318.5 -265t-411.5 -96q-125 0 -243.5 32.5t-219 91.5t-185 143.5t-143.5 184.5t-91.5 218.5t-32.5 243.5z" />
<glyph unicode="D" horiz-adv-x="1779" d="M179 0v1782h610q179 0 329 -45.5t257 -126.5t181.5 -193t110.5 -244.5t36 -281.5t-36 -281.5t-110.5 -244.5t-181.5 -193t-257 -126.5t-329 -45.5h-610zM621 385h143q120 0 212 38.5t149 107.5t86 160t29 200q0 72 -12.5 136.5t-38 121t-65 102t-91.5 78t-120.5 50.5 t-148.5 18h-143v-1012z" />
<glyph unicode="E" horiz-adv-x="1439" d="M179 0v1782h1145v-385h-703v-314h603v-385h-603v-313h703v-385h-1145z" />
<glyph unicode="F" horiz-adv-x="1392" d="M179 0v1782h1145v-385h-703v-314h603v-385h-603v-698h-442z" />
<glyph unicode="G" horiz-adv-x="1910" d="M71 891q0 94 18.5 184.5t53 171.5t84.5 155t111.5 135.5t135.5 111.5t155.5 84.5t172 53t184.5 18.5q146 0 283 -44t250 -125t197 -192l-336 -252q-66 97 -168.5 149.5t-225.5 52.5q-104 0 -195 -37.5t-156.5 -104t-103 -160t-37.5 -201.5t37.5 -202t103 -160t156.5 -104 t195 -38q58 0 113 12.5t103.5 36t90.5 58.5t76 79v100h-364v361h788v-1034h-294l-46 104q-215 -127 -467 -127q-125 0 -243.5 32.5t-219 91.5t-185 143.5t-143.5 184.5t-91.5 218.5t-32.5 243.5z" />
<glyph unicode="H" horiz-adv-x="1897" d="M179 0v1782h442v-696h657v696h442v-1782h-442v698h-657v-698h-442z" />
<glyph unicode="I" horiz-adv-x="798" d="M179 0v1782h442v-1782h-442z" />
<glyph unicode="J" horiz-adv-x="1292" d="M23 107l188 358q139 -97 274 -97q112 0 164 76.5t52 230.5v1107h442v-1190q0 -133 -42 -245t-120 -194.5t-198.5 -129t-269.5 -46.5q-300 0 -490 130z" />
<glyph unicode="K" horiz-adv-x="1879" d="M179 0v1782h442v-802l648 802h563l-758 -891l781 -891h-586l-648 802v-802h-442z" />
<glyph unicode="L" horiz-adv-x="1240" d="M179 0v1782h442v-1397h571v-385h-1013z" />
<glyph unicode="M" horiz-adv-x="2299" d="M179 0v1782h392l577 -903l584 903h390v-1782h-442v987l-533 -844l-526 843v-986h-442z" />
<glyph unicode="N" horiz-adv-x="2012" d="M179 0v1782h462l751 -1107v1107h442v-1782h-465l-748 1112v-1112h-442z" />
<glyph unicode="O" horiz-adv-x="1971" d="M71 891q0 94 18.5 184.5t53 171.5t84.5 155t111.5 135.5t135.5 111.5t155.5 84.5t172 53t184.5 18.5q125 0 243.5 -33t218.5 -91.5t184.5 -143t143.5 -184.5t91.5 -219t32.5 -243q0 -107 -24 -210t-69 -193t-107.5 -169t-141.5 -141.5t-169 -107.5t-193 -69t-210 -24 q-125 0 -243.5 32.5t-219 91.5t-185 143.5t-143.5 184.5t-91.5 218.5t-32.5 243.5zM494 891q0 -104 37.5 -195t103 -156.5t156.5 -103t195 -37.5t195 37.5t156.5 103t103 156.5t37.5 195t-37.5 195t-103 156t-156.5 103t-195 38t-195 -38t-156.5 -103t-103 -156t-37.5 -195z " />
<glyph unicode="P" horiz-adv-x="1655" d="M179 0v1782h880q91 0 174.5 -27.5t149.5 -78t115.5 -118t76 -150.5t26.5 -173t-26.5 -172.5t-76 -147.5t-116 -113t-149.5 -73.5t-174 -25.5h-438v-703h-442zM621 1061h365q55 0 99 22t69 61t25 87q0 73 -54.5 119.5t-138.5 46.5h-365v-336z" />
<glyph unicode="Q" horiz-adv-x="2028" d="M71 891q0 94 18.5 184.5t53 171.5t84.5 155t111.5 135.5t135.5 111.5t155.5 84.5t172 53t184.5 18.5q125 0 243.5 -33t218.5 -91.5t184.5 -143t143.5 -184.5t91.5 -219t32.5 -243q0 -255 -129 -469l213 -196l-297 -297l-199 197q-226 -149 -502 -149q-125 0 -243.5 32.5 t-219 91.5t-185 143.5t-143.5 184.5t-91.5 218.5t-32.5 243.5zM494 891q0 -104 37.5 -195t103 -156.5t156.5 -103t195 -37.5q102 0 191 36l-215 213l271 272l217 -201q28 86 28 172q0 104 -37.5 195t-103 156t-156.5 103t-195 38t-195 -38t-156.5 -103t-103 -156t-37.5 -195 z" />
<glyph unicode="R" horiz-adv-x="1693" d="M179 0v1782h880q91 0 174.5 -27.5t149.5 -78t115.5 -118t76 -150.5t26.5 -173q0 -174 -93.5 -307.5t-248.5 -189.5l373 -738h-480l-331 703h-200v-703h-442zM621 1061h365q55 0 99 22t69 61t25 87q0 73 -54.5 119.5t-138.5 46.5h-365v-336z" />
<glyph unicode="S" horiz-adv-x="1430" d="M41 297l290 297q99 -124 197 -184.5t216 -60.5q94 0 142 39.5t48 110.5q0 20 -5 38.5t-12.5 33.5t-22.5 30.5t-27.5 26.5t-36.5 24.5t-40 22t-48 22t-50 21t-56 21.5l-13.5 6t-12 5t-14.5 5q-37 15 -64.5 26.5t-65.5 29t-66.5 34.5t-62.5 39t-59 46t-51.5 52.5t-45 61.5 t-33.5 70t-22.5 81t-7.5 93q0 70 16.5 133.5t47 115t73 95t94 75.5t111 54t123.5 33t132 11q326 0 593 -268l-272 -266q-148 176 -324 176q-32 0 -60.5 -8.5t-49 -23.5t-32.5 -37.5t-12 -49.5q0 -19 5 -36t16.5 -32t24 -28t34 -26t39 -22.5t46 -21.5t48.5 -20.5t53.5 -22 t54.5 -22.5q56 -23 99.5 -43.5t97 -51.5t92.5 -63t79 -76t65 -92t41 -110.5t16 -132.5q0 -87 -23.5 -164t-65.5 -136.5t-100 -107.5t-128 -79t-148.5 -47.5t-162.5 -16.5q-96 0 -190.5 21t-169 53.5t-142.5 76t-115 85.5t-83 84z" />
<glyph unicode="T" horiz-adv-x="1411" d="M48 1397v385h1316v-385h-437v-1397h-440v1397h-439z" />
<glyph unicode="U" horiz-adv-x="1808" d="M145 615v1167h442v-1084q0 -153 90 -245t225 -92q67 0 125.5 23.5t101.5 66.5t67.5 107t24.5 140v1084h442v-1167q0 -140 -58.5 -259.5t-160.5 -202.5t-242 -129.5t-300 -46.5q-126 0 -241 29.5t-208.5 86t-162.5 133.5t-107 177t-38 212z" />
<glyph unicode="V" horiz-adv-x="1833" d="M27 1782h474l417 -1263l415 1263h475l-643 -1782h-498z" />
<glyph unicode="W" horiz-adv-x="2668" d="M29 1782h465l443 -1410l195 541l-336 869h428l110 -306l110 306h428l-336 -869l195 -541l443 1410h465l-596 -1782h-558l-151 390l-151 -390h-558z" />
<glyph unicode="X" horiz-adv-x="1765" d="M27 0l617 921l-578 861h505l311 -494l315 494h501l-580 -860l621 -922h-504l-353 557l-352 -557h-503z" />
<glyph unicode="Y" horiz-adv-x="1724" d="M16 1782h492l356 -567l357 567h488l-623 -940v-842h-442v835z" />
<glyph unicode="Z" horiz-adv-x="1539" d="M79 0v240l791 1157h-768v385h1354v-240l-789 -1157h780v-385h-1368z" />
<glyph unicode="[" horiz-adv-x="890" d="M171 -594v2763h677v-294h-306v-2174h306v-295h-677z" />
<glyph unicode="\" horiz-adv-x="1622" d="M-21 1995h397l1268 -2494h-397z" />
<glyph unicode="]" horiz-adv-x="890" d="M43 -299h306v2174h-306v294h677v-2763h-677v295z" />
<glyph unicode="^" horiz-adv-x="1822" d="M61 471l662 1311h377l661 -1311h-353l-497 988l-498 -988h-352z" />
<glyph unicode="_" horiz-adv-x="1582" d="M197 -60h1188v-309h-1188v309z" />
<glyph unicode="`" horiz-adv-x="591" d="M-22 1639l193 214l356 -395l-142 -156z" />
<glyph unicode="a" d="M61 563q0 128 42 238.5t113 185.5t166 117.5t200 42.5q196 0 311 -131v101h428v-1117h-380l-19 137q-117 -160 -340 -160q-105 0 -200 42t-166 117.5t-113 186t-42 240.5zM490 563q0 -96 63 -163t155 -67q93 0 157 67t64 163t-64 162t-157 66t-155.5 -66t-62.5 -162z" />
<glyph unicode="b" d="M143 0v1782h428v-766q115 131 311 131q105 0 200 -42.5t166 -117.5t112.5 -185.5t41.5 -238.5q0 -130 -41.5 -240.5t-112.5 -186t-166 -117.5t-200 -42q-223 0 -340 160l-19 -137h-380zM535 563q0 -96 64 -163t157 -67q92 0 155 67t63 163t-62.5 162t-155.5 66 q-61 0 -112 -30t-80 -82.5t-29 -115.5z" />
<glyph unicode="c" horiz-adv-x="1228" d="M52 558q0 121 45.5 228t124.5 184.5t191.5 122.5t241.5 45q185 0 330.5 -99.5t209.5 -263.5l-345 -140q-23 59 -75.5 96t-119.5 37q-88 0 -147 -61t-59 -149q0 -87 59 -147t147 -60q68 0 120 36t75 96l345 -141q-64 -164 -209.5 -263.5t-330.5 -99.5q-86 0 -166 20.5 t-146 57.5t-120.5 90t-92 116.5t-58 139t-20.5 155.5z" />
<glyph unicode="d" d="M61 563q0 128 42 238.5t113 185.5t166 117.5t200 42.5q196 0 311 -131v766h428v-1782h-380l-19 137q-117 -160 -340 -160q-105 0 -200 42t-166 117.5t-113 186t-42 240.5zM490 563q0 -96 63 -163t155 -67q93 0 157 67t64 163t-64 162t-157 66t-155.5 -66t-62.5 -162z" />
<glyph unicode="e" horiz-adv-x="1285" d="M55 556q0 122 43.5 229.5t121 186t191 123.5t247.5 45q121 0 225 -38t180.5 -109t119.5 -179.5t43 -242.5v-81h-738q7 -50 22 -86.5t39 -59.5t56 -34t72 -11q67 0 120 30t82 91l330 -137q-61 -143 -199 -223.5t-333 -80.5q-143 0 -261.5 45t-197 122.5t-121 183 t-42.5 226.5zM491 698h327q-9 88 -44.5 129t-111.5 41q-51 0 -86 -18.5t-56 -55.5t-29 -96z" />
<glyph unicode="f" horiz-adv-x="924" d="M29 803v314h187v237q0 210 125.5 334.5t338.5 124.5q162 0 211 -36v-373q-54 43 -131 43q-35 0 -61.5 -17.5t-40.5 -49t-14 -74.5v-189h252v-314h-252v-803h-428v803h-187z" />
<glyph unicode="g" horiz-adv-x="1477" d="M59 563q0 129 41 239t112 185t167.5 117.5t205.5 42.5q206 0 322 -151v121h428v-1046q0 -165 -47 -290.5t-135 -204t-207 -117.5t-269 -39q-66 0 -133.5 8t-149 28.5t-160 63.5t-139.5 104l204 272q177 -131 347 -131q124 0 192.5 74t68.5 229v54q-115 -145 -318 -145 q-110 0 -207.5 42t-168.5 117.5t-112.5 186t-41.5 240.5zM487 563q0 -96 63 -163t155 -67q61 0 112 30.5t80.5 83.5t29.5 116q0 96 -64.5 162t-157.5 66q-60 0 -110 -30t-79 -82.5t-29 -115.5z" />
<glyph unicode="h" horiz-adv-x="1421" d="M143 0v1782h428v-804q117 160 322 160q122 0 216.5 -56.5t145.5 -155.5t51 -223v-703h-427v646q0 58 -37 90t-101 32q-75 0 -122.5 -42.5t-47.5 -104.5v-621h-428z" />
<glyph unicode="i" horiz-adv-x="709" d="M131 1523q0 60 30.5 111.5t82.5 81.5t112 30q93 0 159.5 -65.5t66.5 -157.5q0 -93 -66.5 -159.5t-159.5 -66.5q-92 0 -158.5 66.5t-66.5 159.5zM143 0v1117h424v-1117h-424z" />
<glyph unicode="j" horiz-adv-x="712" d="M129 1523q0 92 66.5 157.5t160.5 65.5q60 0 111.5 -30t82 -81.5t30.5 -111.5q0 -61 -30.5 -113t-82 -82.5t-111.5 -30.5q-94 0 -160.5 66.5t-66.5 159.5zM143 -558v1675h428v-1675h-428z" />
<glyph unicode="k" horiz-adv-x="1487" d="M143 0v1782h428v-1115l391 450h504l-492 -546l513 -571h-528l-388 470v-470h-428z" />
<glyph unicode="l" horiz-adv-x="712" d="M143 0v1782h428v-1782h-428z" />
<glyph unicode="m" horiz-adv-x="2064" d="M143 0v1117h428v-126q110 147 291 147q105 0 192 -50.5t140 -138.5q56 90 143 139.5t200 49.5q121 0 215 -56t145 -154.5t51 -222.5v-705h-427v648q0 62 -32 98t-92 36q-72 0 -105 -45.5t-33 -115.5v-621h-427v648q0 62 -32 98t-95 36q-47 0 -78.5 -23.5t-43.5 -58 t-12 -79.5v-621h-428z" />
<glyph unicode="n" horiz-adv-x="1421" d="M143 0v1117h428v-140q62 81 151 121t187 40q111 0 202 -56.5t143 -156t52 -222.5v-703h-427v639q0 47 -18.5 79.5t-52 48t-78.5 15.5q-36 0 -65.5 -12.5t-50 -35t-32 -53.5t-11.5 -69v-612h-428z" />
<glyph unicode="o" horiz-adv-x="1310" d="M52 558q0 121 45.5 228t124.5 184.5t191.5 122.5t241.5 45t241.5 -45t192 -122.5t125 -184.5t45.5 -228q0 -120 -45.5 -227t-125 -184.5t-192 -122.5t-241.5 -45q-86 0 -166 20.5t-146 57.5t-120.5 90t-92 116.5t-58 139t-20.5 155.5zM454 558q0 -101 56.5 -158.5 t142.5 -57.5q88 0 145 59t57 157t-57 158.5t-145 60.5q-86 0 -142.5 -59t-56.5 -160z" />
<glyph unicode="p" d="M143 -571v1688h380l19 -137q117 160 340 160q105 0 200 -42.5t165.5 -117.5t112 -186t41.5 -241q0 -128 -41.5 -238.5t-112 -185.5t-165.5 -117.5t-200 -42.5q-195 0 -311 130v-670h-428zM535 553q0 -95 64 -161t156 -66q93 0 156 65.5t63 161.5q0 97 -63 164t-156 67 q-92 0 -156 -67t-64 -164z" />
<glyph unicode="q" d="M63 553q0 130 41.5 241t112 186t165.5 117.5t200 42.5q223 0 340 -160l19 137h380v-1688h-428v670q-116 -130 -311 -130q-84 0 -162 26.5t-143 78t-113 122t-74.5 162.5t-26.5 195zM490 553q0 -96 63 -161.5t156 -65.5q92 0 156 66t64 161q0 97 -64 164t-156 67 q-93 0 -156 -67t-63 -164z" />
<glyph unicode="r" horiz-adv-x="1090" d="M143 0v1117h428v-183q50 97 130 151.5t189.5 54.5t192.5 -68l-145 -367q-65 41 -133 41q-30 0 -59 -8.5t-55 -24.5t-48 -40.5t-38 -55.5t-25 -71t-9 -85v-461h-428z" />
<glyph unicode="s" horiz-adv-x="1144" d="M45 118l157 269q75 -46 183 -78.5t186 -32.5q55 0 86.5 16.5t31.5 45.5q0 12 -6 22t-20 17.5t-30.5 13t-42 11.5t-51 11t-62 13.5t-69.5 17.5q-53 15 -95 32.5t-87 45.5t-74.5 62.5t-48.5 85.5t-19 112q0 46 10.5 87.5t31 74.5t49 61.5t63.5 50t76 37.5t86.5 26.5 t93 15.5t98.5 5q131 0 251.5 -32t213.5 -91l-159 -235q-70 36 -169 65.5t-169 29.5q-27 0 -46.5 -5.5t-30 -16.5t-10.5 -26q0 -9 3.5 -17.5t12.5 -16t17.5 -13.5t25 -12t28 -10t34 -10t35.5 -9t40 -9q34 -7 51 -12q76 -18 132 -39.5t102.5 -51t75.5 -66.5t44.5 -86.5 t15.5 -111.5q0 -126 -63.5 -214.5t-175 -131t-264.5 -42.5q-159 0 -301.5 42t-240.5 99z" />
<glyph unicode="t" horiz-adv-x="872" d="M29 803v314h195v401h427v-401h192v-314h-192v-803h-427v803h-195z" />
<glyph unicode="u" horiz-adv-x="1358" d="M111 440v677h428v-646q0 -75 37.5 -111t100.5 -36q41 0 72 14t51 48t20 85v646h427v-677q0 -215 -147 -339t-423 -124q-274 0 -420 123.5t-146 339.5z" />
<glyph unicode="v" horiz-adv-x="1301" d="M2 1117h454l194 -656l196 656h453l-453 -1117h-395z" />
<glyph unicode="w" horiz-adv-x="1936" d="M12 1117h444l154 -629l188 629h338l186 -624l156 624h446l-363 -1119h-411l-183 648l-185 -648h-414z" />
<glyph unicode="x" horiz-adv-x="1468" d="M5 0l473 558l-473 559h508l219 -285l220 285h512l-476 -561l476 -556h-514l-216 281l-217 -281h-512z" />
<glyph unicode="y" horiz-adv-x="1394" d="M-23 1117h465l261 -782l274 782h437l-670 -1675h-433l223 558h-97z" />
<glyph unicode="z" horiz-adv-x="1171" d="M48 0l479 803h-461v314h1049l-483 -804h483v-313h-1067z" />
<glyph unicode="{" horiz-adv-x="843" d="M21 687v268q12 4 34 10q21 7 31 10.5t26.5 10t23 11.5t18 15t15.5 20t11 26t9.5 35t5.5 44.5t4 55.5t1 68v530q0 86 28 161t80 131.5t132.5 89t180.5 32.5h170v-355h-88q-47 0 -77 -28t-30 -90v-456q0 -81 -6.5 -138t-26 -111.5t-54.5 -91.5t-92 -66t-139 -47 q82 -18 139 -48t92 -67t54.5 -91.5t26 -111t6.5 -136.5v-461q0 -46 11.5 -71.5t34 -35t61.5 -9.5h88v-351h-170q-100 0 -180.5 32t-132.5 88.5t-80 131t-28 161.5v530q0 37 -1 66.5t-4 54.5t-5.5 43.5t-9 34.5t-10.5 26t-15.5 19.5t-18 15t-22.5 12t-25.5 10t-30.5 9.5 q-24 8 -37 13z" />
<glyph unicode="|" horiz-adv-x="686" d="M213 -356v2138h260v-2138h-260z" />
<glyph unicode="}" horiz-adv-x="843" d="M52 -209h88q59 0 83 24.5t24 91.5v461q0 56 3 99.5t12 87t24 76.5t38.5 64t57 53.5t79 41.5t104.5 32q-81 18 -138.5 47t-92.5 66t-54.5 91.5t-26 111.5t-6.5 138v456q0 62 -29.5 90t-77.5 28h-88v355h171q50 0 96 -8.5t84.5 -24t72 -38t59.5 -50.5t47 -61.5t34.5 -70.5 t20.5 -77.5t7 -83.5v-530q0 -38 0.5 -68t4 -55.5t5.5 -44.5t9 -35t11.5 -26t15.5 -20t18 -15t23 -11.5t26 -10t31 -10.5q22 -6 34 -10v-268q-13 -5 -37 -13q-21 -6 -30.5 -9.5t-25.5 -10t-22.5 -12t-17.5 -15t-15.5 -19.5t-11 -26t-9 -34.5t-5.5 -43.5t-3.5 -54.5 t-0.5 -66.5v-530q0 -57 -12.5 -110t-36.5 -99t-60 -83.5t-82 -64.5t-105 -41.5t-125 -14.5h-171v351z" />
<glyph unicode="~" horiz-adv-x="1548" d="M145 356q-7 148 40.5 260t148.5 175.5t244 63.5q107 0 176.5 -39t134.5 -129q12 -18 22 -29t29 -22t41 -11q56 0 93.5 55.5t29.5 148.5h288q15 -136 -30 -247.5t-138.5 -175.5t-216.5 -64q-48 0 -93.5 11t-78 26.5t-65.5 39t-51.5 40.5t-41.5 39.5t-31 29.5 q-41 35 -79 35q-34 0 -60 -18.5t-40.5 -49t-21.5 -65.5t-8 -74h-292z" />
<glyph unicode="&#xa1;" horiz-adv-x="795" d="M168 984q0 94 67 160.5t162 66.5q62 0 115.5 -30.5t84.5 -83t31 -113.5q0 -97 -67.5 -164t-163.5 -67q-47 0 -89 18t-73 49t-49 73.5t-18 90.5zM183 544h427v-1138h-427v1138z" />
<glyph unicode="&#xa2;" horiz-adv-x="1349" d="M109 836q0 143 60.5 263.5t170.5 201t252 105.5v260h242v-261q96 -20 178.5 -68.5t143.5 -121t96 -162.5l-345 -140q-15 39 -43.5 69t-67.5 47t-84 17q-58 0 -105.5 -28t-74 -76t-26.5 -106q0 -87 59 -146.5t147 -59.5q67 0 119.5 35.5t75.5 95.5l345 -140 q-53 -136 -163 -229t-255 -123v-271h-242v270q-142 25 -252 105t-170.5 201t-60.5 262z" />
<glyph unicode="&#xa3;" horiz-adv-x="1700" d="M136 0v292l190 39v358h-190v331h190v127q0 142 48.5 264.5t133 208.5t204.5 135.5t258 49.5q136 0 264.5 -58t223.5 -164t134 -239l-364 -152q-13 93 -88.5 158.5t-169.5 65.5q-120 0 -187.5 -71.5t-67.5 -197.5v-127h442v-331h-442v-328h836v-361h-1415z" />
<glyph unicode="&#xa4;" horiz-adv-x="1591" d="M143 437l127 128q-77 135 -77 295q0 162 77 299l-125 126l220 233l134 -133q140 79 299 79q158 0 295 -79l131 131l225 -226l-128 -129q76 -132 76 -299q0 -165 -76 -299l126 -126l-221 -233l-133 134q-139 -77 -297 -77q-157 0 -300 77l-133 -134zM510 857 q0 -80 40.5 -145.5t105.5 -101t140 -35.5q60 0 114 24.5t91 64.5t58.5 92t21.5 108q0 118 -83.5 200.5t-201.5 82.5q-119 0 -202.5 -85.5t-83.5 -204.5z" />
<glyph unicode="&#xa5;" horiz-adv-x="1824" d="M66 1782h492l356 -567l357 567h488l-592 -893h315v-266h-346v-150h346v-244h-346v-229h-442v229h-352v244h352v150h-352v266h316z" />
<glyph unicode="&#xa6;" horiz-adv-x="686" d="M213 -356v855h260v-855h-260zM213 927v855h260v-855h-260z" />
<glyph unicode="&#xa7;" horiz-adv-x="1446" d="M102 603q2 56 15 108.5t35.5 97.5t53.5 84t70 71q-126 130 -119 338q3 103 38.5 189.5t92.5 145t132.5 98t157.5 56.5t168 14q107 -3 208 -38.5t184 -94.5t147 -137l-271 -240q-137 160 -284 163q-36 1 -67 -7t-55.5 -25t-39.5 -46t-17 -66q-1 -36 15 -67t37.5 -52 t67 -45t76 -37t93.5 -37q47 -18 71.5 -28t70.5 -30t72 -35.5t66.5 -40.5t64 -49t54 -56.5t47.5 -69t32.5 -79.5t21.5 -94.5t4 -108.5q-6 -222 -172 -362q122 -134 116 -336q-4 -104 -39 -190.5t-91.5 -145t-131 -98t-156 -56.5t-167.5 -14q-160 5 -303 78.5t-239 191.5 l272 241q133 -161 284 -164q48 -2 86.5 12.5t63.5 48.5t26 83q2 36 -14 67t-37 52t-66.5 45t-76.5 37t-93 37q-52 20 -79.5 31t-78.5 34.5t-80 41.5t-71.5 48t-67 59t-53.5 70t-43.5 85.5t-23.5 101.5t-7 120zM494 587q-1 -22 4.5 -42t13 -36t24 -32.5t29.5 -28t39 -26 t42.5 -23t49.5 -22.5t51 -20.5t56 -21.5q64 2 105 51.5t44 114.5q1 28 -7.5 52.5t-21 43.5t-38.5 38.5t-47 32.5t-59.5 30t-64 27.5t-70.5 27.5q-67 -3 -107.5 -52.5t-42.5 -113.5z" />
<glyph unicode="&#xa8;" horiz-adv-x="1088" d="M126 1499q0 78 57 134t136 56t136 -56t57 -134q0 -80 -57 -136.5t-136 -56.5q-39 0 -74.5 15.5t-61.5 41t-41.5 61.5t-15.5 75zM646 1499q0 78 56.5 134t136.5 56q78 0 134 -56t56 -134q0 -80 -56 -136.5t-134 -56.5q-80 0 -136.5 56.5t-56.5 136.5z" />
<glyph unicode="&#xa9;" horiz-adv-x="2038" d="M104 891q0 124 33 242.5t92 218.5t144 184.5t185 143.5t218.5 92t243.5 33q106 0 208.5 -24t192.5 -69.5t169.5 -108t142 -142t108 -169.5t69.5 -192.5t24 -208.5t-24 -209t-69.5 -193t-108 -169.5t-142 -142t-169.5 -107.5t-192.5 -69t-208.5 -24q-125 0 -243.5 33 t-218.5 92t-185 143.5t-144 184.5t-92 218.5t-33 242.5zM326 891q0 -144 54 -272.5t146.5 -221t221 -146.5t272.5 -54q143 0 271.5 54t221 146.5t146.5 221t54 272.5t-54 272.5t-146.5 221t-221 146.5t-271.5 54q-144 0 -272.5 -54t-221 -146.5t-146.5 -221t-54 -272.5z M517 891q0 104 40.5 198.5t109 162t162.5 107.5t198 40q123 0 230 -54t176 -148l-191 -143q-23 36 -55.5 61.5t-73 38.5t-86.5 13q-115 0 -191 -78t-76 -198q0 -119 76 -196.5t191 -77.5q69 0 124 29t91 84l191 -143q-46 -62 -108.5 -108t-139.5 -71t-158 -25 q-104 0 -198 40t-162.5 108t-109 162t-40.5 198z" />
<glyph unicode="&#xaa;" horiz-adv-x="1009" d="M68 1425.5q0 101.5 47 187t127 134.5t176 49q132 0 219 -94v80h233v-712h-233v78q-88 -94 -219 -94q-96 0 -176 49.5t-127 135t-47 187zM299 1426q0 -46 23 -85t61.5 -62t83.5 -23q70 0 120 50t50 120t-49.5 119t-120.5 49q-69 0 -118.5 -49t-49.5 -119z" />
<glyph unicode="&#xab;" horiz-adv-x="1380" d="M36 558l361 437h333l-362 -437l362 -437h-333zM639 558l361 437h335l-361 -437l361 -437h-335z" />
<glyph unicode="&#xac;" horiz-adv-x="1872" d="M107 822v266h1554v-875h-264v609h-1290z" />
<glyph unicode="&#xad;" horiz-adv-x="1111" d="M140 404v308h832v-308h-832z" />
<glyph unicode="&#xae;" horiz-adv-x="2038" d="M104 891q0 124 33 242.5t92 218.5t144 184.5t185 143.5t218.5 92t243.5 33q106 0 208.5 -24t192.5 -69.5t169.5 -108t142 -142t108 -169.5t69.5 -192.5t24 -208.5t-24 -209t-69.5 -193t-108 -169.5t-142 -142t-169.5 -107.5t-192.5 -69t-208.5 -24q-125 0 -243.5 33 t-218.5 92t-185 143.5t-144 184.5t-92 218.5t-33 242.5zM326 891q0 -144 54 -272.5t146.5 -221t221 -146.5t272.5 -54q143 0 271.5 54t221 146.5t146.5 221t54 272.5t-54 272.5t-146.5 221t-221 146.5t-271.5 54q-144 0 -272.5 -54t-221 -146.5t-146.5 -221t-54 -272.5z M694 406v972h430q81 0 149 -40t107 -108t39 -149q0 -56 -18.5 -106t-51.5 -88t-78 -62l173 -419h-261l-142 383h-105v-383h-242zM936 986h147q45 0 75 25.5t30 64.5q0 41 -30 67t-75 26h-147v-183z" />
<glyph unicode="&#xaf;" horiz-adv-x="1017" d="M222 1387v243h736v-243h-736z" />
<glyph unicode="&#xb0;" horiz-adv-x="922" d="M143 1558q0 134 92 226.5t226 92.5q133 0 226 -92.5t93 -226.5q0 -133 -93 -225.5t-226 -92.5q-134 0 -226 92.5t-92 225.5zM340 1558q0 -51 34.5 -86t86.5 -35q34 0 62 16t43.5 43.5t15.5 61.5q0 52 -34.5 87t-86.5 35t-86.5 -35t-34.5 -87z" />
<glyph unicode="&#xb2;" horiz-adv-x="820" d="M12 1435q-5 103 43.5 186t137 130t199.5 47q157 0 252 -92.5t95 -238.5q0 -86 -35.5 -181.5t-94 -181t-133.5 -159.5h299v-233h-761v57q128 122 220.5 223.5t144 169t81 125t38 91t8.5 66.5q0 42 -12 71.5t-32 43t-41.5 18.5t-44.5 3q-36 -3 -61.5 -18.5t-37 -38 t-15.5 -45t-1 -43.5h-249z" />
<glyph unicode="&#xb3;" horiz-adv-x="777" d="M14 1012l249 2q0 -36 32.5 -58.5t78.5 -22.5q54 0 88 36t34 90q0 50 -31 70.5t-87 20.5h-110l-2 227h95q42 0 69.5 28.5t27.5 68.5q0 41 -27 65t-68 24q-37 0 -59.5 -18t-22.5 -46l-243 4q0 128 92.5 210.5t232.5 82.5q91 0 163.5 -37.5t114 -107t41.5 -157.5 q0 -115 -72 -190q62 -45 96.5 -110.5t34.5 -146.5q0 -71 -28 -135.5t-76.5 -111t-117 -74.5t-145.5 -28q-99 0 -181.5 40.5t-130.5 112.5t-48 161z" />
<glyph unicode="&#xb4;" horiz-adv-x="598" d="M-17 1462l364 391l192 -214l-403 -347z" />
<glyph unicode="&#xb5;" horiz-adv-x="1451" d="M143 -558v1675h428v-625q0 -40 18.5 -73t51 -51.5t71.5 -18.5q48 0 87.5 18.5t62 51.5t22.5 73v625h424v-1117h-424v102q-129 -123 -302 -123q-70 0 -133 21v-558h-306z" />
<glyph unicode="&#xb6;" horiz-adv-x="1380" d="M77 1385q0 128 51 217.5t145.5 134.5t225.5 45h235v-2138h-209v1342h-26q-198 0 -310 103.5t-112 295.5zM955 -356v2138h212v-2138h-212z" />
<glyph unicode="&#xb7;" horiz-adv-x="682" d="M150 855q0 77 57 134.5t133 57.5q75 0 133.5 -58t58.5 -134q0 -79 -58 -134.5t-134 -55.5q-51 0 -94.5 25t-69.5 69t-26 96z" />
<glyph unicode="&#xb8;" horiz-adv-x="662" d="M52 -426l181 58q12 -27 41.5 -46t58.5 -19q34 0 57 25t23 59q0 57 -49.5 70.5t-121.5 -25.5l-145 80l127 229h191l-82 -136q112 18 190 -45.5t78 -172.5q0 -112 -78 -190t-190 -78q-95 0 -176 55.5t-105 135.5z" />
<glyph unicode="&#xb9;" horiz-adv-x="510" d="M9 1549v233h388v-1070h-240v837h-148z" />
<glyph unicode="&#xba;" horiz-adv-x="926" d="M64 1426q0 76 31 144.5t84 118t127 78.5t157 29q110 0 202.5 -49t145.5 -134.5t53 -186.5q0 -76 -31.5 -145t-85 -118.5t-128 -79t-156.5 -29.5q-111 0 -202.5 49.5t-144 135t-52.5 187.5zM295 1426q0 -70 49 -120t119 -50q34 0 65.5 13.5t54 36.5t36 54t13.5 66 q0 70 -49.5 119t-119.5 49q-46 0 -84.5 -22t-61 -61t-22.5 -85z" />
<glyph unicode="&#xbb;" horiz-adv-x="1380" d="M45 121l361 437l-361 437h333l361 -437l-361 -437h-333zM648 121l361 437l-361 437h336l360 -437l-360 -437h-336z" />
<glyph unicode="&#xbc;" horiz-adv-x="1988" d="M9 1549v233h388v-1070h-240v837h-148zM82 0l1243 1782h257l-1242 -1782h-258zM1104 226v152l433 692h313v-612h86v-232h-86v-226h-242v226h-504zM1414 458h194v340z" />
<glyph unicode="&#xbd;" horiz-adv-x="1974" d="M9 1549v233h388v-1070h-240v837h-148zM82 0l1243 1782h257l-1242 -1782h-258zM1166 723q-5 102 43.5 185.5t137.5 130.5t199 47q157 0 252 -92.5t95 -238.5q0 -128 -73.5 -268.5t-189.5 -253.5h299v-233h-761v57q92 88 166 165.5t125 136.5t88 111t58.5 89t34 71 t16.5 56.5t4 45.5q0 42 -12 71.5t-32 43t-41 18.5t-45 3q-36 -3 -61.5 -18.5t-37 -38t-15.5 -45t-1 -43.5h-249z" />
<glyph unicode="&#xbe;" horiz-adv-x="2255" d="M14 1012l249 2q0 -36 32.5 -58.5t78.5 -22.5q54 0 88 36t34 90q0 50 -31 70.5t-87 20.5h-110l-2 227h95q42 0 69.5 28.5t27.5 68.5q0 41 -27 65t-68 24q-37 0 -59.5 -18t-22.5 -46l-243 4q0 128 92.5 210.5t232.5 82.5q91 0 163.5 -37.5t114 -107t41.5 -157.5 q0 -115 -72 -190q62 -45 96.5 -110.5t34.5 -146.5q0 -71 -28 -135.5t-76.5 -111t-117 -74.5t-145.5 -28q-99 0 -181.5 40.5t-130.5 112.5t-48 161zM349 0l1243 1782h257l-1242 -1782h-258zM1371 226v152l433 692h313v-612h86v-232h-86v-226h-242v226h-504zM1681 458h194v340 z" />
<glyph unicode="&#xbf;" horiz-adv-x="1358" d="M70 -93q0 63 11.5 116.5t31.5 90.5t47 69t57.5 53.5t62 42.5t62 37t57.5 36.5t47 41.5t32 51.5t12 67.5v81h382v-107q0 -72 -14.5 -129.5t-39.5 -95.5t-57.5 -68t-68 -50t-71 -38t-68 -36t-57.5 -39t-39.5 -52t-14.5 -72q0 -81 69.5 -129.5t170.5 -48.5q115 0 181 73.5 t66 197.5h374q0 -135 -45.5 -250.5t-126.5 -196t-196.5 -126t-252.5 -45.5q-126 0 -239.5 41t-195.5 111t-129.5 167.5t-47.5 205.5zM444 986q0 94 67.5 160.5t161.5 66.5q47 0 90 -18t73.5 -48.5t49 -72.5t18.5 -88q0 -97 -67.5 -164t-163.5 -67q-95 0 -162 67.5t-67 163.5 z" />
<glyph unicode="&#xc0;" horiz-adv-x="1881" d="M27 0l640 1782h544l644 -1782h-486l-85 268h-687l-84 -268h-486zM558 2233l193 213l356 -394l-142 -157zM712 630h457l-228 723z" />
<glyph unicode="&#xc1;" horiz-adv-x="1881" d="M27 0l640 1782h544l644 -1782h-486l-85 268h-687l-84 -268h-486zM712 630h457l-228 723zM788 2056l364 390l192 -213l-403 -347z" />
<glyph unicode="&#xc2;" horiz-adv-x="1881" d="M27 0l640 1782h544l644 -1782h-486l-85 268h-687l-84 -268h-486zM516 1979l306 349h236l311 -349l-167 -107l-261 223l-259 -223zM712 630h457l-228 723z" />
<glyph unicode="&#xc3;" horiz-adv-x="1881" d="M27 0l640 1782h544l644 -1782h-486l-85 268h-687l-84 -268h-486zM506 1899q0 165 75 268.5t204 103.5q79 0 140.5 -38.5t102.5 -100.5q9 -14 15.5 -21t18 -13.5t26.5 -6.5q39 0 55 42t16 122h216q0 -79 -18.5 -146.5t-52.5 -118.5t-88.5 -79.5t-122.5 -28.5 q-147 0 -240 140q-28 40 -57 40q-27 0 -44.5 -22t-25 -57.5t-7.5 -83.5h-213zM712 630h457l-228 723z" />
<glyph unicode="&#xc4;" horiz-adv-x="1881" d="M27 0l640 1782h544l644 -1782h-486l-85 268h-687l-84 -268h-486zM490 2093q0 78 57 134t135.5 56t135.5 -56t57 -134q0 -53 -26.5 -97.5t-70.5 -70t-96 -25.5q-79 0 -135.5 56.5t-56.5 136.5zM712 630h457l-228 723zM1009 2093q0 78 56.5 134t136.5 56q78 0 134 -56 t56 -134q0 -80 -56 -136.5t-134 -56.5q-80 0 -136.5 56.5t-56.5 136.5z" />
<glyph unicode="&#xc5;" horiz-adv-x="1881" d="M27 0l640 1782h544l644 -1782h-486l-85 268h-687l-84 -268h-486zM638 2220q0 122 89 209.5t214 87.5q122 0 209.5 -87.5t87.5 -209.5q0 -124 -87.5 -212.5t-209.5 -88.5q-125 0 -214 88.5t-89 212.5zM712 630h457l-228 723zM812 2220q0 -39 16.5 -69.5t46 -46.5t66.5 -16 q56 0 93 36.5t37 95.5q0 35 -17 65.5t-47.5 49.5t-65.5 19q-55 0 -92 -40t-37 -94z" />
<glyph unicode="&#xc6;" horiz-adv-x="2359" d="M23 0l716 1782h1506v-381h-696v-322h596v-376h-596v-323h696v-380h-1105v358h-489l-134 -358h-494zM774 691h366v717h-99z" />
<glyph unicode="&#xc7;" horiz-adv-x="1752" d="M71 891q0 94 18.5 184.5t53 171.5t84.5 155t111.5 135.5t135.5 111.5t155.5 84.5t172 53t184.5 18.5q146 0 283 -44t250 -125t197 -192l-336 -252q-66 97 -168.5 149.5t-225.5 52.5q-104 0 -195 -37.5t-156.5 -104t-103 -160t-37.5 -201.5t37.5 -202t103 -160t156.5 -104 t195 -38q123 0 225.5 53t168.5 149l336 -251q-116 -154 -286.5 -248t-368.5 -110l-67 -111q112 18 190 -45.5t78 -172.5q0 -112 -78 -190t-190 -78q-94 0 -175.5 55.5t-105.5 135.5l181 58q8 -17 24.5 -32t36.5 -24t39 -9q34 0 57 25t23 59q0 57 -49.5 70.5t-120.5 -25.5 l-145 80l114 208q-167 20 -315.5 99.5t-255.5 199t-169 278t-62 330.5z" />
<glyph unicode="&#xc8;" horiz-adv-x="1439" d="M179 0v1782h1145v-385h-703v-314h603v-385h-603v-313h703v-385h-1145zM368 2233l192 213l356 -394l-141 -157z" />
<glyph unicode="&#xc9;" horiz-adv-x="1439" d="M179 0v1782h1145v-385h-703v-314h603v-385h-603v-313h703v-385h-1145zM597 2056l365 390l192 -213l-403 -347z" />
<glyph unicode="&#xca;" horiz-adv-x="1439" d="M179 0v1782h1145v-385h-703v-314h603v-385h-603v-313h703v-385h-1145zM326 1979l306 349h236l311 -349l-167 -107l-261 223l-259 -223z" />
<glyph unicode="&#xcb;" horiz-adv-x="1439" d="M179 0v1782h1145v-385h-703v-314h603v-385h-603v-313h703v-385h-1145zM299 2093q0 78 57 134t135.5 56t135.5 -56t57 -134q0 -53 -26 -97.5t-70.5 -70t-95.5 -25.5q-79 0 -136 56.5t-57 136.5zM819 2093q0 78 56.5 134t136.5 56q78 0 134 -56t56 -134q0 -80 -56 -136.5 t-134 -56.5q-81 0 -137 56.5t-56 136.5z" />
<glyph unicode="&#xcc;" horiz-adv-x="798" d="M14 2233l192 213l357 -394l-142 -157zM179 0v1782h442v-1782h-442z" />
<glyph unicode="&#xcd;" horiz-adv-x="798" d="M179 0v1782h442v-1782h-442zM244 2056l364 390l192 -213l-403 -347z" />
<glyph unicode="&#xce;" horiz-adv-x="798" d="M-28 1979l306 349h236l311 -349l-167 -107l-261 223l-259 -223zM179 0v1782h442v-1782h-442z" />
<glyph unicode="&#xcf;" horiz-adv-x="798" d="M-55 2093q0 78 57.5 134t135.5 56q51 0 95.5 -25.5t71 -69.5t26.5 -95q0 -80 -57 -136.5t-136 -56.5t-136 56.5t-57 136.5zM179 0v1782h442v-1782h-442zM465 2093q0 78 56.5 134t136.5 56q78 0 134 -56t56 -134q0 -80 -56 -136.5t-134 -56.5q-80 0 -136.5 56.5 t-56.5 136.5z" />
<glyph unicode="&#xd0;" horiz-adv-x="1779" d="M14 764v252h165v766h610q179 0 329 -45.5t257 -126.5t181.5 -193t110.5 -244.5t36 -281.5t-36 -281.5t-110.5 -244.5t-181.5 -193t-257 -126.5t-329 -45.5h-610v764h-165zM621 385h143q120 0 212 38.5t149 107.5t86 160t29 200q0 72 -12.5 136.5t-38 121t-65 102 t-91.5 78t-120.5 50.5t-148.5 18h-143v-381h257v-252h-257v-379z" />
<glyph unicode="&#xd1;" horiz-adv-x="2012" d="M179 0v1782h462l751 -1107v1107h442v-1782h-465l-748 1112v-1112h-442zM582 1899q0 165 75.5 268.5t204.5 103.5q79 0 140 -38.5t102 -100.5q10 -14 16 -21t18 -13.5t27 -6.5q26 0 42 21t22 55.5t6 87.5h216q0 -106 -31 -189.5t-95.5 -133.5t-155.5 -50q-147 0 -240 140 q-27 40 -57 40q-39 0 -57.5 -44.5t-18.5 -118.5h-214z" />
<glyph unicode="&#xd2;" horiz-adv-x="1971" d="M71 891q0 94 18.5 184.5t53 171.5t84.5 155t111.5 135.5t135.5 111.5t155.5 84.5t172 53t184.5 18.5q125 0 243.5 -33t218.5 -91.5t184.5 -143t143.5 -184.5t91.5 -219t32.5 -243q0 -107 -24 -210t-69 -193t-107.5 -169t-141.5 -141.5t-169 -107.5t-193 -69t-210 -24 q-125 0 -243.5 32.5t-219 91.5t-185 143.5t-143.5 184.5t-91.5 218.5t-32.5 243.5zM494 891q0 -104 37.5 -195t103 -156.5t156.5 -103t195 -37.5t195 37.5t156.5 103t103 156.5t37.5 195t-37.5 195t-103 156t-156.5 103t-195 38t-195 -38t-156.5 -103t-103 -156t-37.5 -195z M603 2233l193 213l356 -394l-142 -157z" />
<glyph unicode="&#xd3;" horiz-adv-x="1971" d="M71 891q0 94 18.5 184.5t53 171.5t84.5 155t111.5 135.5t135.5 111.5t155.5 84.5t172 53t184.5 18.5q125 0 243.5 -33t218.5 -91.5t184.5 -143t143.5 -184.5t91.5 -219t32.5 -243q0 -107 -24 -210t-69 -193t-107.5 -169t-141.5 -141.5t-169 -107.5t-193 -69t-210 -24 q-125 0 -243.5 32.5t-219 91.5t-185 143.5t-143.5 184.5t-91.5 218.5t-32.5 243.5zM494 891q0 -104 37.5 -195t103 -156.5t156.5 -103t195 -37.5t195 37.5t156.5 103t103 156.5t37.5 195t-37.5 195t-103 156t-156.5 103t-195 38t-195 -38t-156.5 -103t-103 -156t-37.5 -195z M833 2056l364 390l193 -213l-404 -347z" />
<glyph unicode="&#xd4;" horiz-adv-x="1971" d="M71 891q0 94 18.5 184.5t53 171.5t84.5 155t111.5 135.5t135.5 111.5t155.5 84.5t172 53t184.5 18.5q125 0 243.5 -33t218.5 -91.5t184.5 -143t143.5 -184.5t91.5 -219t32.5 -243q0 -107 -24 -210t-69 -193t-107.5 -169t-141.5 -141.5t-169 -107.5t-193 -69t-210 -24 q-125 0 -243.5 32.5t-219 91.5t-185 143.5t-143.5 184.5t-91.5 218.5t-32.5 243.5zM494 891q0 -104 37.5 -195t103 -156.5t156.5 -103t195 -37.5t195 37.5t156.5 103t103 156.5t37.5 195t-37.5 195t-103 156t-156.5 103t-195 38t-195 -38t-156.5 -103t-103 -156t-37.5 -195z M561 1979l307 349h235l311 -349l-167 -107l-261 223l-259 -223z" />
<glyph unicode="&#xd5;" horiz-adv-x="1971" d="M71 891q0 94 18.5 184.5t53 171.5t84.5 155t111.5 135.5t135.5 111.5t155.5 84.5t172 53t184.5 18.5q125 0 243.5 -33t218.5 -91.5t184.5 -143t143.5 -184.5t91.5 -219t32.5 -243q0 -107 -24 -210t-69 -193t-107.5 -169t-141.5 -141.5t-169 -107.5t-193 -69t-210 -24 q-125 0 -243.5 32.5t-219 91.5t-185 143.5t-143.5 184.5t-91.5 218.5t-32.5 243.5zM494 891q0 -104 37.5 -195t103 -156.5t156.5 -103t195 -37.5t195 37.5t156.5 103t103 156.5t37.5 195t-37.5 195t-103 156t-156.5 103t-195 38t-195 -38t-156.5 -103t-103 -156t-37.5 -195z M551 1899q0 165 75.5 268.5t204.5 103.5q79 0 140 -38.5t102 -100.5q9 -14 15.5 -21t18.5 -13.5t26 -6.5q39 0 55 42t16 122h216q0 -106 -31 -189.5t-95.5 -133.5t-155.5 -50q-147 0 -240 140q-28 40 -57 40q-26 0 -43.5 -22t-25.5 -57.5t-8 -83.5h-213z" />
<glyph unicode="&#xd6;" horiz-adv-x="1971" d="M71 891q0 94 18.5 184.5t53 171.5t84.5 155t111.5 135.5t135.5 111.5t155.5 84.5t172 53t184.5 18.5q125 0 243.5 -33t218.5 -91.5t184.5 -143t143.5 -184.5t91.5 -219t32.5 -243q0 -107 -24 -210t-69 -193t-107.5 -169t-141.5 -141.5t-169 -107.5t-193 -69t-210 -24 q-125 0 -243.5 32.5t-219 91.5t-185 143.5t-143.5 184.5t-91.5 218.5t-32.5 243.5zM494 891q0 -104 37.5 -195t103 -156.5t156.5 -103t195 -37.5t195 37.5t156.5 103t103 156.5t37.5 195t-37.5 195t-103 156t-156.5 103t-195 38t-195 -38t-156.5 -103t-103 -156t-37.5 -195z M535 2093q0 78 57 134t135 56q52 0 96.5 -25.5t70.5 -69.5t26 -95q0 -80 -57 -136.5t-135.5 -56.5t-135.5 56.5t-57 136.5zM1054 2093q0 51 26 95t70.5 69.5t96.5 25.5q78 0 134 -56t56 -134q0 -80 -56 -136.5t-134 -56.5q-80 0 -136.5 56.5t-56.5 136.5z" />
<glyph unicode="&#xd7;" horiz-adv-x="1242" d="M93 521l306 306l-306 306l223 223l307 -306l304 306l223 -223l-307 -306l307 -306l-223 -224l-304 306l-307 -306z" />
<glyph unicode="&#xd8;" horiz-adv-x="1971" d="M71 891q0 94 18.5 184.5t53 171.5t84.5 155t111.5 135.5t135.5 111.5t155.5 84.5t172 53t184.5 18.5q238 0 445 -115l149 214l157 -93l-157 -225q150 -128 235 -309t85 -386q0 -107 -24 -210t-69 -193t-107.5 -169t-141.5 -141.5t-169 -107.5t-193 -69t-210 -24 q-240 0 -447 116l-149 -216l-157 93l158 226q-150 128 -235 309t-85 386zM494 891q0 -103 36.5 -192.5t101.5 -155.5l557 799q-94 41 -203 41q-104 0 -195 -38t-156.5 -103t-103 -156t-37.5 -195zM782 440q98 -41 204 -41q104 0 195 37.5t156.5 103t103 156.5t37.5 195 q0 103 -36.5 192.5t-102.5 156.5z" />
<glyph unicode="&#xd9;" horiz-adv-x="1808" d="M145 615v1167h442v-1084q0 -153 90 -245t225 -92q67 0 125.5 23.5t101.5 66.5t67.5 107t24.5 140v1084h442v-1167q0 -140 -58.5 -259.5t-160.5 -202.5t-242 -129.5t-300 -46.5q-126 0 -241 29.5t-208.5 86t-162.5 133.5t-107 177t-38 212zM520 2233l192 213l356 -394 l-141 -157z" />
<glyph unicode="&#xda;" horiz-adv-x="1808" d="M145 615v1167h442v-1084q0 -153 90 -245t225 -92q67 0 125.5 23.5t101.5 66.5t67.5 107t24.5 140v1084h442v-1167q0 -140 -58.5 -259.5t-160.5 -202.5t-242 -129.5t-300 -46.5q-126 0 -241 29.5t-208.5 86t-162.5 133.5t-107 177t-38 212zM749 2056l365 390l192 -213 l-404 -347z" />
<glyph unicode="&#xdb;" horiz-adv-x="1808" d="M145 615v1167h442v-1084q0 -153 90 -245t225 -92q67 0 125.5 23.5t101.5 66.5t67.5 107t24.5 140v1084h442v-1167q0 -140 -58.5 -259.5t-160.5 -202.5t-242 -129.5t-300 -46.5q-126 0 -241 29.5t-208.5 86t-162.5 133.5t-107 177t-38 212zM478 1979l306 349h236l311 -349 l-168 -107l-261 223l-258 -223z" />
<glyph unicode="&#xdc;" horiz-adv-x="1808" d="M145 615v1167h442v-1084q0 -153 90 -245t225 -92q67 0 125.5 23.5t101.5 66.5t67.5 107t24.5 140v1084h442v-1167q0 -140 -58.5 -259.5t-160.5 -202.5t-242 -129.5t-300 -46.5q-126 0 -241 29.5t-208.5 86t-162.5 133.5t-107 177t-38 212zM451 2093q0 78 57 134t135.5 56 t135.5 -56t57 -134q0 -53 -26 -97.5t-70.5 -70t-95.5 -25.5q-79 0 -136 56.5t-57 136.5zM971 2093q0 51 25.5 95t70 69.5t96.5 25.5t96 -25.5t69.5 -69.5t25.5 -95q0 -80 -56 -136.5t-135 -56.5q-80 0 -136 56.5t-56 136.5z" />
<glyph unicode="&#xdd;" horiz-adv-x="1724" d="M16 1782h492l356 -567l357 567h488l-623 -940v-842h-442v835zM711 2056l364 390l193 -213l-404 -347z" />
<glyph unicode="&#xde;" horiz-adv-x="1550" d="M179 0v1784h427v-266h351q111 0 211 -43t172 -116t114 -175.5t42 -216.5q0 -87 -26.5 -167.5t-76 -145t-116 -112.5t-149 -74t-171.5 -26h-351v-442h-427zM606 818h337q46 0 84 22t60 59.5t22 81.5q0 70 -48 116t-118 46h-337v-325z" />
<glyph unicode="&#xdf;" horiz-adv-x="1582" d="M143 0v1107q0 157 51 286t141 213.5t211.5 130t263.5 45.5q132 0 247 -39.5t196 -108t127 -164.5t46 -206q0 -182 -119 -322q104 -79 162.5 -192t58.5 -247q0 -107 -38 -203.5t-103.5 -165.5t-159 -105.5t-198.5 -28.5h-224v370h140q62 5 108.5 49.5t46.5 112.5 q0 83 -65.5 142.5t-157.5 59.5h-72v347h27q77 0 134.5 53t57.5 122q0 45 -27 79.5t-74.5 53.5t-108.5 19q-54 0 -97 -17.5t-76.5 -54.5t-51.5 -101t-18 -152v-1083h-428z" />
<glyph unicode="&#xe0;" d="M61 563q0 128 42 238.5t113 185.5t166 117.5t200 42.5q196 0 311 -131v101h428v-1117h-380l-19 137q-117 -160 -340 -160q-105 0 -200 42t-166 117.5t-113 186t-42 240.5zM309 1575l192 214l356 -395l-141 -156zM490 563q0 -96 63 -163t155 -67q93 0 157 67t64 163 t-64 162t-157 66t-155.5 -66t-62.5 -162z" />
<glyph unicode="&#xe1;" d="M61 563q0 128 42 238.5t113 185.5t166 117.5t200 42.5q196 0 311 -131v101h428v-1117h-380l-19 137q-117 -160 -340 -160q-105 0 -200 42t-166 117.5t-113 186t-42 240.5zM490 563q0 -96 63 -163t155 -67q93 0 157 67t64 163t-64 162t-157 66t-155.5 -66t-62.5 -162z M538 1398l364 391l193 -214l-404 -347z" />
<glyph unicode="&#xe2;" d="M61 563q0 128 42 238.5t113 185.5t166 117.5t200 42.5q196 0 311 -131v101h428v-1117h-380l-19 137q-117 -160 -340 -160q-105 0 -200 42t-166 117.5t-113 186t-42 240.5zM267 1321l306 349h236l310 -349l-167 -106l-261 222l-258 -222zM490 563q0 -96 63 -163t155 -67 q93 0 157 67t64 163t-64 162t-157 66t-155.5 -66t-62.5 -162z" />
<glyph unicode="&#xe3;" d="M61 563q0 128 42 238.5t113 185.5t166 117.5t200 42.5q196 0 311 -131v101h428v-1117h-380l-19 137q-117 -160 -340 -160q-105 0 -200 42t-166 117.5t-113 186t-42 240.5zM256 1241q0 165 75.5 269t204.5 104q79 0 140 -38.5t102 -101.5q10 -13 16 -20.5t18 -13.5t27 -6 q39 0 54.5 41.5t15.5 121.5h216q0 -63 -11 -119t-34 -102.5t-56.5 -80.5t-79.5 -52.5t-101 -18.5q-147 0 -240 140q-27 41 -57 41q-39 0 -57.5 -45t-18.5 -119h-214zM490 563q0 -96 63 -163t155 -67q93 0 157 67t64 163t-64 162t-157 66t-155.5 -66t-62.5 -162z" />
<glyph unicode="&#xe4;" d="M61 563q0 128 42 238.5t113 185.5t166 117.5t200 42.5q196 0 311 -131v101h428v-1117h-380l-19 137q-117 -160 -340 -160q-105 0 -200 42t-166 117.5t-113 186t-42 240.5zM240 1506q0 78 57 134t135.5 56t135.5 -56t57 -134q0 -53 -26 -97.5t-70.5 -70t-95.5 -25.5 q-79 0 -136 56.5t-57 136.5zM490 563q0 -96 63 -163t155 -67q93 0 157 67t64 163t-64 162t-157 66t-155.5 -66t-62.5 -162zM760 1506q0 38 15 73.5t41 61t61.5 40.5t74.5 15q52 0 95.5 -25.5t69.5 -69.5t26 -95q0 -80 -56 -136.5t-135 -56.5q-80 0 -136 56.5t-56 136.5z" />
<glyph unicode="&#xe5;" d="M61 563q0 128 42 238.5t113 185.5t166 117.5t200 42.5q196 0 311 -131v101h428v-1117h-380l-19 137q-117 -160 -340 -160q-105 0 -200 42t-166 117.5t-113 186t-42 240.5zM389 1563q0 122 88.5 209t213.5 87q123 0 210 -87t87 -209q0 -125 -87 -213.5t-210 -88.5 q-125 0 -213.5 88.5t-88.5 213.5zM490 563q0 -96 63 -163t155 -67q93 0 157 67t64 163t-64 162t-157 66t-155.5 -66t-62.5 -162zM563 1563q0 -60 36 -96.5t92 -36.5t93 36.5t37 96.5q0 34 -17 64.5t-47 49.5t-66 19q-54 0 -91 -40t-37 -93z" />
<glyph unicode="&#xe6;" horiz-adv-x="1976" d="M50 311q0 169 156 259t469 90h77q1 5 2.5 14.5t2.5 14.5v28q0 76 -35 109t-105 38q-140 13 -191 -111l-324 97q64 155 188.5 226t330.5 71q236 0 384 -100q147 93 342 93q121 0 225 -38t180.5 -109t119.5 -179.5t43 -242.5v-81h-729v-14l-6 -2q15 -90 61.5 -132.5 t124.5 -42.5q67 0 120 30t82 91l330 -137q-61 -143 -199 -223.5t-333 -80.5q-278 0 -450 159q-169 -161 -445 -161q-208 0 -314.5 88.5t-106.5 245.5zM492 338q0 -26 14 -42.5t36 -23t52 -6.5q57 0 105.5 25.5t74.5 70.5q-10 32 -18 68h-51q-213 0 -213 -92zM1184 724 q0 -4 1 -13t1 -13h321q-9 88 -44 129t-112 41q-47 0 -80.5 -15.5t-54.5 -47.5t-32 -81z" />
<glyph unicode="&#xe7;" horiz-adv-x="1228" d="M52 558q0 121 45.5 228t124.5 184.5t191.5 122.5t241.5 45q185 0 330.5 -99.5t209.5 -263.5l-345 -140q-23 59 -75.5 96t-119.5 37q-88 0 -147 -61t-59 -149q0 -87 59 -147t147 -60q68 0 120 36t75 96l345 -141q-59 -151 -189 -248.5t-297 -112.5l-69 -112 q112 18 190 -45.5t78 -172.5q0 -112 -77.5 -190t-190.5 -78q-94 0 -175.5 55.5t-104.5 135.5l181 58q6 -13 17 -25t24.5 -20.5t28.5 -14t29 -5.5q22 0 40.5 11.5t29 30.5t10.5 42q0 57 -49.5 70.5t-120.5 -25.5l-145 80l119 216q-211 41 -341.5 197.5t-130.5 368.5z" />
<glyph unicode="&#xe8;" horiz-adv-x="1285" d="M55 556q0 122 43.5 229.5t121 186t191 123.5t247.5 45q121 0 225 -38t180.5 -109t119.5 -179.5t43 -242.5v-81h-738q7 -50 22 -86.5t39 -59.5t56 -34t72 -11q67 0 120 30t82 91l330 -137q-61 -143 -199 -223.5t-333 -80.5q-143 0 -261.5 45t-197 122.5t-121 183 t-42.5 226.5zM288 1568l192 214l356 -395l-141 -156zM491 698h327q-9 88 -44.5 129t-111.5 41q-51 0 -86 -18.5t-56 -55.5t-29 -96z" />
<glyph unicode="&#xe9;" horiz-adv-x="1285" d="M55 556q0 122 43.5 229.5t121 186t191 123.5t247.5 45q121 0 225 -38t180.5 -109t119.5 -179.5t43 -242.5v-81h-738q7 -50 22 -86.5t39 -59.5t56 -34t72 -11q67 0 120 30t82 91l330 -137q-61 -143 -199 -223.5t-333 -80.5q-143 0 -261.5 45t-197 122.5t-121 183 t-42.5 226.5zM491 698h327q-9 88 -44.5 129t-111.5 41q-51 0 -86 -18.5t-56 -55.5t-29 -96zM517 1391l365 391l192 -214l-404 -347z" />
<glyph unicode="&#xea;" horiz-adv-x="1285" d="M55 556q0 122 43.5 229.5t121 186t191 123.5t247.5 45q121 0 225 -38t180.5 -109t119.5 -179.5t43 -242.5v-81h-738q7 -50 22 -86.5t39 -59.5t56 -34t72 -11q67 0 120 30t82 91l330 -137q-61 -143 -199 -223.5t-333 -80.5q-143 0 -261.5 45t-197 122.5t-121 183 t-42.5 226.5zM246 1314l306 349h236l311 -349l-168 -106l-261 222l-258 -222zM491 698h327q-9 88 -44.5 129t-111.5 41q-51 0 -86 -18.5t-56 -55.5t-29 -96z" />
<glyph unicode="&#xeb;" horiz-adv-x="1285" d="M55 556q0 122 43.5 229.5t121 186t191 123.5t247.5 45q121 0 225 -38t180.5 -109t119.5 -179.5t43 -242.5v-81h-738q7 -50 22 -86.5t39 -59.5t56 -34t72 -11q67 0 120 30t82 91l330 -137q-61 -143 -199 -223.5t-333 -80.5q-143 0 -261.5 45t-197 122.5t-121 183 t-42.5 226.5zM219 1499q0 78 57 134t135.5 56t135.5 -56t57 -134q0 -39 -15.5 -75t-41.5 -61.5t-61.5 -41t-73.5 -15.5q-79 0 -136 56.5t-57 136.5zM491 698h327q-9 88 -44.5 129t-111.5 41q-51 0 -86 -18.5t-56 -55.5t-29 -96zM739 1499q0 78 56.5 134t135.5 56 q52 0 96 -25.5t69.5 -69.5t25.5 -95q0 -80 -56 -136.5t-135 -56.5q-80 0 -136 56.5t-56 136.5z" />
<glyph unicode="&#xec;" horiz-adv-x="712" d="M-27 1568l193 214l356 -395l-142 -156zM143 0v1117h428v-1117h-428z" />
<glyph unicode="&#xed;" horiz-adv-x="712" d="M143 0v1117h428v-1117h-428zM203 1391l364 391l193 -214l-404 -347z" />
<glyph unicode="&#xee;" horiz-adv-x="712" d="M-68 1314l306 349h235l311 -349l-167 -106l-261 222l-259 -222zM143 0v1117h428v-1117h-428z" />
<glyph unicode="&#xef;" horiz-adv-x="712" d="M-95 1499q0 78 57 134t135.5 56t135.5 -56t57 -134q0 -80 -57 -136.5t-136 -56.5q-51 0 -95.5 25.5t-70.5 70t-26 97.5zM143 0v1117h428v-1117h-428zM425 1499q0 78 56 134t136 56q78 0 134 -56t56 -134q0 -80 -55.5 -136.5t-134.5 -56.5q-80 0 -136 56.5t-56 136.5z" />
<glyph unicode="&#xf0;" horiz-adv-x="1337" d="M52 558q0 121 45.5 228t124.5 184.5t191.5 122.5t241.5 45q45 0 79 -5q-76 120 -200 224l-99 -126l-159 116l96 122q-106 61 -220 111l124 218q137 -47 266 -114l113 145l155 -118l-99 -128q90 -59 166 -127.5t149.5 -162t124.5 -197.5t82 -237t31 -279h-5v-22 q0 -120 -45.5 -227t-125 -184.5t-192 -122.5t-241.5 -45q-86 0 -166 20.5t-146 57.5t-120.5 90t-92 116.5t-58 139t-20.5 155.5zM454 558q0 -85 58 -142.5t143 -57.5t142.5 57.5t57.5 142.5q0 86 -57.5 144t-142.5 58t-143 -58t-58 -144z" />
<glyph unicode="&#xf1;" horiz-adv-x="1421" d="M143 0v1117h428v-140q62 81 151 121t187 40q111 0 202 -56.5t143 -156t52 -222.5v-703h-427v639q0 47 -18.5 79.5t-52 48t-78.5 15.5q-36 0 -65.5 -12.5t-50 -35t-32 -53.5t-11.5 -69v-612h-428zM297 1234q0 165 75 269t205 104q79 0 140 -38.5t102 -101.5 q7 -10 11.5 -15.5t12 -12t16.5 -9.5t20 -3q39 0 55 41.5t16 121.5h216q0 -79 -18 -146.5t-52.5 -118t-89 -79.5t-122.5 -29q-147 0 -240 140q-28 41 -57 41q-26 0 -44 -22t-25.5 -58t-7.5 -84h-213z" />
<glyph unicode="&#xf2;" horiz-adv-x="1310" d="M52 558q0 121 45.5 228t124.5 184.5t191.5 122.5t241.5 45t241.5 -45t192 -122.5t125 -184.5t45.5 -228q0 -120 -45.5 -227t-125 -184.5t-192 -122.5t-241.5 -45q-86 0 -166 20.5t-146 57.5t-120.5 90t-92 116.5t-58 139t-20.5 155.5zM273 1566l192 213l356 -394 l-141 -157zM454 558q0 -101 56.5 -158.5t142.5 -57.5q88 0 145 59t57 157t-57 158.5t-145 60.5q-86 0 -142.5 -59t-56.5 -160z" />
<glyph unicode="&#xf3;" horiz-adv-x="1310" d="M52 558q0 121 45.5 228t124.5 184.5t191.5 122.5t241.5 45t241.5 -45t192 -122.5t125 -184.5t45.5 -228q0 -120 -45.5 -227t-125 -184.5t-192 -122.5t-241.5 -45q-86 0 -166 20.5t-146 57.5t-120.5 90t-92 116.5t-58 139t-20.5 155.5zM454 558q0 -101 56.5 -158.5 t142.5 -57.5q88 0 145 59t57 157t-57 158.5t-145 60.5q-86 0 -142.5 -59t-56.5 -160zM502 1389l365 390l192 -213l-404 -347z" />
<glyph unicode="&#xf4;" horiz-adv-x="1310" d="M52 558q0 121 45.5 228t124.5 184.5t191.5 122.5t241.5 45t241.5 -45t192 -122.5t125 -184.5t45.5 -228q0 -120 -45.5 -227t-125 -184.5t-192 -122.5t-241.5 -45q-86 0 -166 20.5t-146 57.5t-120.5 90t-92 116.5t-58 139t-20.5 155.5zM231 1312l306 349h236l310 -349 l-167 -107l-261 223l-258 -223zM454 558q0 -101 56.5 -158.5t142.5 -57.5q88 0 145 59t57 157t-57 158.5t-145 60.5q-86 0 -142.5 -59t-56.5 -160z" />
<glyph unicode="&#xf5;" horiz-adv-x="1310" d="M52 558q0 121 45.5 228t124.5 184.5t191.5 122.5t241.5 45t241.5 -45t192 -122.5t125 -184.5t45.5 -228q0 -120 -45.5 -227t-125 -184.5t-192 -122.5t-241.5 -45q-86 0 -166 20.5t-146 57.5t-120.5 90t-92 116.5t-58 139t-20.5 155.5zM220 1232q0 165 75.5 268.5 t204.5 103.5q79 0 140 -38.5t102 -100.5q10 -14 16 -21t18 -13.5t27 -6.5q39 0 54.5 42t15.5 122h216q0 -106 -30.5 -189.5t-95.5 -133.5t-156 -50q-147 0 -240 140q-27 40 -57 40q-26 0 -43.5 -22t-25 -57.5t-7.5 -83.5h-214zM454 558q0 -101 56.5 -158.5t142.5 -57.5 q88 0 145 59t57 157t-57 158.5t-145 60.5q-86 0 -142.5 -59t-56.5 -160z" />
<glyph unicode="&#xf6;" horiz-adv-x="1310" d="M52 558q0 121 45.5 228t124.5 184.5t191.5 122.5t241.5 45t241.5 -45t192 -122.5t125 -184.5t45.5 -228q0 -120 -45.5 -227t-125 -184.5t-192 -122.5t-241.5 -45q-86 0 -166 20.5t-146 57.5t-120.5 90t-92 116.5t-58 139t-20.5 155.5zM204 1496q0 78 57 134.5t135.5 56.5 t135.5 -56.5t57 -134.5q0 -79 -57 -135.5t-135.5 -56.5t-135.5 56.5t-57 135.5zM454 558q0 -101 56.5 -158.5t142.5 -57.5q88 0 145 59t57 157t-57 158.5t-145 60.5q-86 0 -142.5 -59t-56.5 -160zM724 1496q0 79 56.5 135t135.5 56t135 -56t56 -135t-56 -135.5t-135 -56.5 q-80 0 -136 56t-56 136z" />
<glyph unicode="&#xf7;" horiz-adv-x="1316" d="M100 670v314h1117v-314h-1117zM444 376q0 80 61 141t141 61t141 -61t61 -141q0 -85 -60 -143.5t-141.5 -58.5t-142 58.5t-60.5 143.5zM444 1278q0 80 61 141t141 61t141 -61t61 -141q0 -84 -60.5 -143t-141.5 -59q-53 0 -99 26.5t-74.5 73.5t-28.5 102z" />
<glyph unicode="&#xf8;" horiz-adv-x="1310" d="M52 558q0 121 45.5 228t124.5 184.5t191.5 122.5t241.5 45q159 0 292 -67l60 87l93 -55l-63 -89q105 -80 163.5 -198.5t58.5 -257.5q0 -120 -45.5 -227t-125 -184.5t-192 -122.5t-241.5 -45q-157 0 -291 66l-62 -89l-93 56l64 91q-104 79 -162.5 197.5t-58.5 257.5z M454 558q0 -82 39 -138l239 342q-35 15 -79 15q-86 0 -142.5 -59t-56.5 -160zM579 355q36 -13 74 -13q88 0 145 59t57 157q0 81 -40 137z" />
<glyph unicode="&#xf9;" horiz-adv-x="1358" d="M111 440v677h428v-646q0 -75 37.5 -111t100.5 -36q41 0 72 14t51 48t20 85v646h427v-677q0 -215 -147 -339t-423 -124q-274 0 -420 123.5t-146 339.5zM297 1568l193 214l356 -395l-142 -156z" />
<glyph unicode="&#xfa;" horiz-adv-x="1358" d="M111 440v677h428v-646q0 -75 37.5 -111t100.5 -36q41 0 72 14t51 48t20 85v646h427v-677q0 -215 -147 -339t-423 -124q-274 0 -420 123.5t-146 339.5zM527 1391l364 391l192 -214l-403 -347z" />
<glyph unicode="&#xfb;" horiz-adv-x="1358" d="M111 440v677h428v-646q0 -75 37.5 -111t100.5 -36q41 0 72 14t51 48t20 85v646h427v-677q0 -215 -147 -339t-423 -124q-274 0 -420 123.5t-146 339.5zM255 1314l306 349h236l311 -349l-167 -106l-261 222l-259 -222z" />
<glyph unicode="&#xfc;" horiz-adv-x="1358" d="M111 440v677h428v-646q0 -75 37.5 -111t100.5 -36q41 0 72 14t51 48t20 85v646h427v-677q0 -215 -147 -339t-423 -124q-274 0 -420 123.5t-146 339.5zM229 1499q0 78 57 134t135.5 56t135.5 -56t57 -134q0 -80 -57 -136.5t-136 -56.5t-135.5 56.5t-56.5 136.5zM748 1499 q0 78 56.5 134t136.5 56q78 0 134 -56t56 -134q0 -80 -56 -136.5t-134 -56.5q-80 0 -136.5 56.5t-56.5 136.5z" />
<glyph unicode="&#xfd;" horiz-adv-x="1394" d="M-23 1117h465l261 -782l274 782h437l-670 -1675h-433l223 558h-97zM570 1391l364 391l192 -214l-403 -347z" />
<glyph unicode="&#xfe;" horiz-adv-x="1448" d="M143 -558v2340h428v-744q116 100 282 100q112 0 212.5 -45t172.5 -122.5t114 -185t42 -227.5t-42 -227.5t-114 -184.5t-172.5 -122t-212.5 -45q-166 0 -282 100v-639zM546 558q0 -88 62 -149.5t149 -61.5q90 0 150 61t60 150q0 90 -60 151t-150 61q-57 0 -105.5 -28 t-77 -76.5t-28.5 -107.5z" />
<glyph unicode="&#xff;" horiz-adv-x="1394" d="M-23 1117h465l261 -782l274 782h437l-670 -1675h-433l223 558h-97zM271 1499q0 78 57 134t136 56t136 -56t57 -134q0 -80 -57 -136.5t-136 -56.5t-136 56.5t-57 136.5zM791 1499q0 78 56.5 134t136.5 56q78 0 134 -56t56 -134q0 -80 -56 -136.5t-134 -56.5 q-80 0 -136.5 56.5t-56.5 136.5z" />
<glyph unicode="&#x152;" horiz-adv-x="2681" d="M71 891q0 94 18.5 184.5t53 171.5t84.5 155t111.5 135.5t135.5 111.5t155.5 84.5t172 53t184.5 18.5q155 0 297.5 -49.5t260.5 -139.5v166h1022v-374h-666v-329h566v-376h-566v-329h666v-374h-1022v166q-118 -91 -260.5 -140t-297.5 -49q-125 0 -243.5 32.5t-219 91.5 t-185 143.5t-143.5 184.5t-91.5 218.5t-32.5 243.5zM499 891q0 -101 38 -191.5t102.5 -155.5t155 -102.5t191.5 -37.5t191 38t155 102.5t103 155t38 191.5t-38 191.5t-103 155t-155 102.5t-191 38t-191.5 -38t-155 -102.5t-102.5 -155t-38 -191.5z" />
<glyph unicode="&#x153;" horiz-adv-x="2128" d="M50 558q0 96 31.5 185t90 160t136.5 124t176 82t205 29q236 0 411 -132q162 134 399 134q121 0 225 -38t180.5 -109t119.5 -179.5t43 -242.5l-5 -98h-730q15 -90 61.5 -132t124.5 -42q67 0 120 30t82 91l330 -137q-61 -143 -199 -223.5t-333 -80.5q-251 0 -418 132 q-177 -132 -411 -132q-133 0 -251.5 45t-203.5 122.5t-134.5 184.5t-49.5 227zM478 558q0 -89 61 -149t150 -60q79 0 138 51.5t69 129.5v26q0 19 1 29q-11 79 -70 131t-138 52q-89 0 -150 -60.5t-61 -149.5zM1342 723h309q-10 36 -27.5 59.5t-47.5 36.5t-73 13 q-123 0 -161 -109z" />
<glyph unicode="&#x178;" horiz-adv-x="1724" d="M16 1782h492l356 -567l357 567h488l-623 -940v-842h-442v835zM413 2093q0 78 57 134t135.5 56t135.5 -56t57 -134q0 -53 -26 -97.5t-70.5 -70t-95.5 -25.5q-79 0 -136 56.5t-57 136.5zM933 2093q0 78 56 134t136 56q78 0 134 -56t56 -134q0 -53 -25.5 -97.5t-69 -70 t-95.5 -25.5q-80 0 -136 56.5t-56 136.5z" />
<glyph unicode="&#x2c6;" horiz-adv-x="911" d="M2 1433l307 349h235l311 -349l-167 -107l-261 223l-259 -223z" />
<glyph unicode="&#x2dc;" horiz-adv-x="1045" d="M117 1426q0 165 75.5 268.5t204.5 103.5q79 0 140 -38.5t102 -100.5q10 -14 16 -21t18 -13.5t26 -6.5q27 0 43 21t22 55.5t6 87.5h216q0 -107 -31 -190t-95.5 -133.5t-155.5 -50.5q-147 0 -240 141q-28 40 -57 40q-39 0 -57.5 -44.5t-18.5 -118.5h-214z" />
<glyph unicode="&#x2000;" horiz-adv-x="1258" />
<glyph unicode="&#x2001;" horiz-adv-x="2517" />
<glyph unicode="&#x2002;" horiz-adv-x="1258" />
<glyph unicode="&#x2003;" horiz-adv-x="2517" />
<glyph unicode="&#x2004;" horiz-adv-x="839" />
<glyph unicode="&#x2005;" horiz-adv-x="629" />
<glyph unicode="&#x2006;" horiz-adv-x="419" />
<glyph unicode="&#x2007;" horiz-adv-x="419" />
<glyph unicode="&#x2008;" horiz-adv-x="314" />
<glyph unicode="&#x2009;" horiz-adv-x="503" />
<glyph unicode="&#x200a;" horiz-adv-x="139" />
<glyph unicode="&#x2010;" horiz-adv-x="1111" d="M140 404v308h832v-308h-832z" />
<glyph unicode="&#x2011;" horiz-adv-x="1111" d="M140 404v308h832v-308h-832z" />
<glyph unicode="&#x2012;" horiz-adv-x="1111" d="M140 404v308h832v-308h-832z" />
<glyph unicode="&#x2013;" horiz-adv-x="1468" d="M140 404v308h1188v-308h-1188z" />
<glyph unicode="&#x2014;" horiz-adv-x="2375" d="M0 404v308h2376v-308h-2376z" />
<glyph unicode="&#x2018;" horiz-adv-x="657" d="M74 1145q0 54 25 100h-2l254 537h205l-148 -435q37 -19 65 -50t43.5 -70.5t15.5 -81.5q0 -47 -18 -89.5t-49 -73.5t-73 -49.5t-88 -18.5q-94 0 -162 68t-68 163z" />
<glyph unicode="&#x2019;" horiz-adv-x="657" d="M102 941l147 435q-55 29 -89.5 83.5t-34.5 118.5q0 94 68 162t161 68q94 0 161.5 -68t67.5 -162q0 -55 -24 -100h1l-254 -537h-204z" />
<glyph unicode="&#x201a;" horiz-adv-x="657" d="M102 -433l147 435q-55 29 -89.5 84t-34.5 118q0 95 68 163t161 68q94 0 161.5 -68t67.5 -163q0 -54 -24 -100h1l-254 -537h-204z" />
<glyph unicode="&#x201c;" horiz-adv-x="1233" d="M74 1145q0 54 25 100h-2l254 537h205l-148 -435q37 -19 65 -50t43.5 -70.5t15.5 -81.5q0 -47 -18 -89.5t-49 -73.5t-73 -49.5t-88 -18.5q-94 0 -162 68t-68 163zM650 1145q0 54 24 100h-1l254 537h204l-147 -435q36 -19 64 -50t44 -70.5t16 -81.5q0 -95 -67.5 -163 t-161.5 -68t-161.5 68t-67.5 163z" />
<glyph unicode="&#x201d;" horiz-adv-x="1233" d="M102 938l147 435q-36 20 -64 50.5t-44 70t-16 81.5q0 95 68 163t161 68q94 0 161.5 -68t67.5 -163q0 -54 -24 -99h1l-254 -538h-204zM677 938l148 435q-28 15 -50.5 36.5t-39 47t-25.5 56.5t-9 62q0 95 67.5 163t160.5 68q62 0 115 -31t84 -84.5t31 -115.5q0 -54 -25 -99 h2l-254 -538h-205z" />
<glyph unicode="&#x201e;" horiz-adv-x="1253" d="M102 -433l147 435q-55 29 -89.5 84t-34.5 118q0 95 68 163t161 68q94 0 161.5 -68t67.5 -163q0 -54 -24 -100h1l-254 -537h-204zM699 -433l148 435q-56 29 -90 84t-34 118q0 95 67.5 163t160.5 68q94 0 162 -68t68 -163q0 -54 -24 -100h1l-254 -537h-205z" />
<glyph unicode="&#x2022;" horiz-adv-x="1085" d="M116 786q0 85 34.5 164.5t92.5 137t137 92.5t164 35q84 0 162.5 -35t136 -92.5t92.5 -137t35 -164.5q0 -117 -58.5 -215.5t-156.5 -154t-211 -55.5q-114 0 -212.5 55.5t-157 154t-58.5 215.5z" />
<glyph unicode="&#x2026;" horiz-adv-x="2418" d="M143 204q0 95 67.5 163t159.5 68q95 0 163 -68t68 -163q0 -60 -31 -112.5t-84.5 -83.5t-115.5 -31q-92 0 -159.5 67.5t-67.5 159.5zM981 204q0 95 67.5 163t160.5 68q95 0 163 -68t68 -163q0 -60 -31.5 -112.5t-84.5 -83.5t-115 -31q-93 0 -160.5 67.5t-67.5 159.5z M1818 204q0 95 67.5 163t159.5 68q95 0 163 -68t68 -163q0 -92 -68 -159.5t-163 -67.5q-92 0 -159.5 67.5t-67.5 159.5z" />
<glyph unicode="&#x202f;" horiz-adv-x="503" />
<glyph unicode="&#x2039;" horiz-adv-x="774" d="M36 558l361 437h333l-362 -437l362 -437h-333z" />
<glyph unicode="&#x203a;" horiz-adv-x="774" d="M45 121l361 437l-361 437h333l361 -437l-361 -437h-333z" />
<glyph unicode="&#x205f;" horiz-adv-x="629" />
<glyph unicode="&#x20ac;" horiz-adv-x="2012" d="M126 556v266h158q-2 45 -2 69t2 68h-158v267h220q66 170 192 300.5t297.5 204.5t361.5 74q147 0 283.5 -44t249.5 -125t197 -192l-335 -252q-33 49 -76 86.5t-93 63t-107.5 39t-118.5 13.5q-114 0 -211 -44t-164 -124h497v-267h-610q-4 -33 -4 -68t4 -69h610v-266h-497 q67 -80 164 -124.5t211 -44.5q82 0 155.5 24t134.5 69t105 109l335 -251q-127 -169 -318.5 -265t-411.5 -96q-190 0 -361.5 73.5t-297.5 204.5t-192 301h-220z" />
<glyph unicode="&#x2122;" horiz-adv-x="1831" d="M93 1611v171h553v-171h-183v-659h-189v659h-181zM764 952v830h208l220 -371l224 371h205v-830h-191v513l-235 -389l-238 393v-517h-193z" />
<glyph unicode="&#x25fc;" horiz-adv-x="1119" d="M0 0v1119h1119v-1119h-1119z" />
<glyph unicode="&#xfb03;" horiz-adv-x="2439" d="M29 803v314h206v237q0 210 125.5 334.5t337.5 124.5q75 0 132 -9.5t79 -26.5v-373q-52 43 -129 43q-54 0 -86 -38t-32 -103v-189h383v237q0 210 125.5 334.5t337.5 124.5q164 0 212 -36v-373q-54 43 -131 43q-35 0 -61 -17.5t-40.5 -49t-14.5 -74.5v-189h824v-1117h-425 v803h-399v-803h-428v803h-383v-803h-427v803h-206zM1861 1523q0 60 30 111.5t82 81.5t113 30q93 0 159.5 -65.5t66.5 -157.5q0 -93 -66.5 -159.5t-159.5 -66.5t-159 66.5t-66 159.5z" />
<glyph unicode="&#xfb04;" horiz-adv-x="2411" d="M29 800v317h205v237q0 210 126 334.5t338 124.5q163 0 211 -36v-373q-54 43 -131 43q-53 0 -84.5 -38t-31.5 -103v-189h383v237q0 210 126 334.5t338 124.5q163 0 211 -36v-373q-54 43 -131 43q-35 0 -61 -17.5t-40.5 -49t-14.5 -74.5v-189h252v-314h-20v-3h-232v-800 h-428v800h-383v-800h-428v800h-205zM1841 0v1782h428v-1782h-428z" />
</font>
</defs>
</svg>
