<?xml version="1.0" standalone="no"?>
<!DOCTYPE svg PUBLIC "-//W3C//DTD SVG 1.1//EN" "http://www.w3.org/Graphics/SVG/1.1/DTD/svg11.dtd" >
<svg xmlns="http://www.w3.org/2000/svg" xmlns:xlink="http://www.w3.org/1999/xlink" version="1.1">
<metadata></metadata>
<defs>
<font id="neue_hans_kendrickbold" horiz-adv-x="1501" >
<font-face units-per-em="2048" ascent="1536" descent="-512" />
<missing-glyph horiz-adv-x="580" />
<glyph unicode="&#xfb01;" horiz-adv-x="1481" d="M43 857v260h188v280q0 190 111 302t299 112q143 0 188 -35v-300q-56 42 -130 42q-40 0 -70.5 -19.5t-47 -55.5t-16.5 -85v-241h750v-1117h-332v857h-418v-857h-334v857h-188zM963 1494q0 77 55 131.5t133 54.5q76 0 131 -54.5t55 -131.5q0 -76 -55 -131.5t-131 -55.5 q-78 0 -133 55t-55 132z" />
<glyph unicode="&#xfb02;" horiz-adv-x="1521" d="M43 857v260h188v280q0 190 111 302t299 112q143 0 188 -35v-300q-56 42 -130 42q-40 0 -70.5 -19.5t-47 -55.5t-16.5 -85v-241h269v-260h-269v-857h-334v857h-188zM1021 0v1782h335v-1782h-335z" />
<glyph horiz-adv-x="0" />
<glyph horiz-adv-x="682" />
<glyph unicode=" "  horiz-adv-x="580" />
<glyph unicode="&#x09;" horiz-adv-x="580" />
<glyph unicode="&#xa0;" horiz-adv-x="580" />
<glyph unicode="!" horiz-adv-x="767" d="M187 166q0 79 56 135t134 56q79 0 135 -55.5t56 -135.5q0 -78 -56 -133.5t-135 -55.5q-78 0 -134 56t-56 133zM210 592v1190h334v-1190h-334z" />
<glyph unicode="&#x22;" horiz-adv-x="1227" d="M213 1782h315l-27 -757h-250zM699 1782h315l-35 -757h-252z" />
<glyph unicode="#" horiz-adv-x="1844" d="M81 393l33 237h335l70 464h-339l39 234h331l57 400h234l-55 -400h403l57 400h235l-57 -400h339l-37 -234h-333l-66 -464h333l-31 -237h-333l-61 -393h-233l55 393h-406l-54 -393h-235l54 393h-335zM687 630h402l68 464h-405z" />
<glyph unicode="$" horiz-adv-x="1474" d="M77 281l232 236q93 -121 195.5 -182.5t228.5 -61.5q120 0 189 56.5t69 155.5q0 38 -11 70t-38.5 59t-51.5 46.5t-73 43.5t-79.5 37t-92.5 38q-12 4 -17 6q-44 18 -74 31t-72.5 34t-72.5 39t-66.5 45t-61.5 53.5t-50 62t-40 73.5t-24.5 85t-9.5 99q0 99 32.5 183.5 t90.5 145t135.5 101t169.5 56.5v184h300v-192q216 -52 390 -238l-212 -210q-90 100 -175.5 140.5t-172.5 40.5q-93 0 -153.5 -48.5t-60.5 -132.5q0 -22 6 -43.5t14 -38.5t24.5 -34t30.5 -29.5t39.5 -28t42.5 -24.5t49 -23.5t50.5 -22t54.5 -22.5q4 -1 6 -2t5 -2t5.5 -2 t5.5 -2q48 -20 79 -33.5t77 -36.5t77 -42t70 -48t65 -57t53 -66t42.5 -78.5t25.5 -91t10 -105.5q0 -106 -34.5 -195t-95.5 -152t-141.5 -105.5t-176.5 -61.5v-184h-300v184q-161 29 -294.5 110.5t-213.5 179.5z" />
<glyph unicode="%" horiz-adv-x="2057" d="M97 1393q0 112 56 207t151.5 150t207.5 55t207 -55t150.5 -149.5t55.5 -207t-55.5 -208.5t-150.5 -151.5t-207.5 -55.5t-208 55.5t-151 151t-55.5 208.5zM349 1393q0 -67 48 -114.5t115 -47.5q44 0 81 21.5t58.5 59t21.5 81.5q0 66 -47.5 113t-113.5 47 q-68 0 -115.5 -46.5t-47.5 -113.5zM383 0l973 1782h313l-973 -1782h-313zM1134 396q0 111 56 206t151.5 150t208.5 55q112 0 206.5 -55t150 -150t55.5 -206.5t-55.5 -207t-150.5 -151.5t-206 -56q-114 0 -209.5 55t-151 150.5t-55.5 209.5zM1386 396q0 -68 48 -115t116 -47 q67 0 114 47t47 115q0 42 -22 79t-59 59t-80 22q-68 0 -116 -47t-48 -113z" />
<glyph unicode="&#x26;" horiz-adv-x="1758" d="M106 499q0 60 10 112t34 99t52 86t74 83t90 79.5t110 84.5q-84 95 -122 178.5t-38 173.5q0 88 32 164t88 129.5t134.5 84t168.5 30.5q120 0 217 -49t153 -138.5t56 -202.5q0 -47 -9.5 -89t-30 -79.5t-43 -68.5t-58 -65t-65 -58.5t-74.5 -59.5l283 -352l265 325l199 -193 l-284 -351l337 -424h-366l-171 212q-118 -113 -236 -174.5t-258 -61.5q-114 0 -214 37t-174.5 103t-117 165.5t-42.5 219.5zM387 498q0 -69 37 -127t96 -90.5t124 -32.5q30 0 60.5 7.5t59.5 21t55 30t53.5 38.5t49 42t47.5 45l-319 396q-13 -9 -41.5 -29.5t-44.5 -32.5 t-42.5 -33.5t-42.5 -38.5t-35.5 -41t-30.5 -46.5t-18.5 -51t-7.5 -57.5zM588 1401q0 -26 6 -49t21.5 -48t25.5 -39t36 -44t35 -41q5 3 29.5 20.5t31 22.5t26.5 20.5t26.5 23t21 22t20 25.5l13 26t10 30.5t2.5 31.5q0 65 -44 104t-106 39q-67 1 -110.5 -38t-43.5 -106z" />
<glyph unicode="'" horiz-adv-x="745" d="M215 1782h316l-32 -757h-252z" />
<glyph unicode="(" horiz-adv-x="799" d="M95 786q0 457 133.5 807.5t365.5 518.5l184 -221q-116 -83 -203.5 -240.5t-136.5 -380.5t-49 -484q0 -262 49 -485t136.5 -379t203.5 -239l-184 -221q-153 112 -265 304t-173 453.5t-61 566.5z" />
<glyph unicode=")" horiz-adv-x="799" d="M21 -317q177 126 283.5 418t106.5 685q0 391 -106.5 685t-283.5 420l184 221q232 -168 365.5 -518.5t133.5 -807.5q0 -458 -133 -806t-366 -518z" />
<glyph unicode="*" horiz-adv-x="1143" d="M119 1295v178l351 -30l-202 287l155 90l150 -313l147 313l159 -90l-204 -287l350 30v-178l-350 30l204 -284l-159 -93l-147 312l-150 -312l-155 93l202 284z" />
<glyph unicode="+" horiz-adv-x="1389" d="M115 679v262h449v449h262v-449h449v-262h-449v-449h-262v449h-449z" />
<glyph unicode="," horiz-adv-x="722" d="M161 -434l141 433q-47 24 -75.5 69t-28.5 98q0 78 57 134.5t134 56.5q78 0 134.5 -56.5t56.5 -134.5q0 -44 -21 -86l-217 -514h-181z" />
<glyph unicode="-" horiz-adv-x="1151" d="M160 435v246h832v-246h-832z" />
<glyph unicode="." horiz-adv-x="741" d="M180 166q0 78 56.5 134.5t133.5 56.5q51 0 95 -25.5t70 -70t26 -95.5q0 -77 -56.5 -133t-134 -56t-134 56t-56.5 133z" />
<glyph unicode="/" horiz-adv-x="1518" d="M-29 -461l1263 2447h313l-1262 -2447h-314z" />
<glyph unicode="0" d="M90 891q0 275 79 481t229 319.5t354 113.5q152 0 276 -65.5t208.5 -184.5t130 -288.5t45.5 -375.5q0 -274 -81 -481t-230.5 -320t-348.5 -113q-150 0 -273.5 65.5t-209 184t-132.5 289t-47 375.5zM429 891q0 -113 14.5 -209.5t42.5 -171.5t67 -128.5t90 -81t110 -27.5 q97 0 170 75t112.5 215.5t39.5 327.5q0 142 -24 258t-67 192.5t-102 117.5t-129 41q-144 0 -234 -162t-90 -447z" />
<glyph unicode="1" d="M306 1477v305h686v-1782h-338v1477h-348z" />
<glyph unicode="2" d="M117 0v197q193 191 329.5 332t232 250t151.5 183.5t87 137.5t40.5 107t9.5 97q0 59 -21 103.5t-57 70t-77.5 38t-87.5 12.5q-120 0 -185 -72.5t-65 -205.5h-343q0 102 28 190.5t81 155.5t126 115t165 72.5t197 24.5q125 0 231 -35t182.5 -98.5t120 -156.5t43.5 -205 q0 -81 -16 -155.5t-55 -152t-90 -150t-134 -163.5t-173 -179t-220 -208h746v-305h-1246z" />
<glyph unicode="3" d="M89 525l344 2q0 -65 23.5 -115.5t65.5 -81t95.5 -46t115.5 -15.5q144 0 223 74t79 201q0 125 -83.5 194t-218.5 69h-139v268h118q108 0 179.5 62t71.5 169q0 99 -64 154.5t-171 55.5q-102 0 -164 -53.5t-62 -159.5h-338q0 116 43.5 212t119 159t176.5 97t216 34 q159 0 288 -61t202.5 -169.5t73.5 -242.5q0 -68 -19.5 -128.5t-52.5 -105.5t-72.5 -78t-82.5 -53q67 -19 123 -55t101.5 -89.5t71 -130t25.5 -168.5q0 -164 -81 -289t-226 -191.5t-335 -66.5q-106 0 -201 21t-176.5 65t-141 107.5t-93.5 154.5t-34 200z" />
<glyph unicode="4" d="M55 347v276l679 1159h438v-1136h280v-299h-280v-347h-338v347h-779zM356 646h478v838z" />
<glyph unicode="5" d="M110 524h355q13 -74 58 -126t105 -75.5t132 -23.5q125 0 207.5 88.5t82.5 231.5q0 72 -23 132t-62.5 100t-91 62.5t-109.5 22.5q-40 0 -80.5 -11.5t-78 -32.5t-70.5 -52.5t-57 -70.5h-343l177 1013h1015v-302h-769l-59 -393q74 60 164.5 91t184.5 31q109 0 207 -40 t173 -112.5t119 -183.5t44 -244q0 -116 -32.5 -219t-91 -181.5t-138 -135.5t-177 -86.5t-204.5 -29.5q-98 0 -190.5 23.5t-172 70t-139.5 111.5t-96 153t-40 189z" />
<glyph unicode="6" d="M94 588q-5 215 158 433l569 761h389l-487 -624q65 16 135 16q104 0 202.5 -44.5t174 -119.5t122 -181.5t48.5 -224.5q1 -129 -51 -246t-140.5 -200t-208.5 -131.5t-251 -48.5q-135 0 -256 47t-209 128t-140.5 194.5t-54.5 240.5zM428 592q2 -91 42.5 -161.5t114 -110 t169.5 -39.5q143 0 233 93t86 229q-3 141 -93 230t-231 89q-147 0 -235 -94t-86 -236z" />
<glyph unicode="7" d="M102 1481v301h1310v-245l-827 -1537h-387l823 1481h-919z" />
<glyph unicode="8" d="M133 534q0 146 72 265.5t198 191.5q-80 60 -121.5 148.5t-41.5 197.5q0 98 38.5 184.5t106 149t163 98.5t204.5 36q108 0 203.5 -36t162.5 -98.5t105.5 -149t38.5 -184.5q0 -109 -41 -197.5t-119 -148.5q125 -72 196.5 -191.5t71.5 -265.5q0 -117 -47 -220t-128.5 -177 t-197 -117t-246.5 -43t-246 43t-196.5 117t-128.5 177t-47 220zM473 561q0 -79 36.5 -145.5t100.5 -105.5t141 -39q119 0 199 84.5t80 205.5q0 59 -21.5 110.5t-58 88t-88.5 58t-111 21.5q-47 0 -89.5 -13.5t-76.5 -38.5t-59 -59t-39 -77t-14 -90zM534 1300q0 -61 28.5 -111 t78.5 -79t112 -29q92 0 155 63t63 156q0 94 -63 157.5t-155 63.5q-94 0 -156.5 -63.5t-62.5 -157.5z" />
<glyph unicode="9" d="M90 1177q-1 130 51 246.5t140.5 199.5t208.5 132t251 49q135 0 256 -47t209 -128t140.5 -194.5t54.5 -240.5q5 -215 -157 -433l-570 -761h-389l488 624q-65 -16 -136 -16q-103 0 -202 44t-174 119.5t-122 182t-49 223.5zM422 1179q2 -70 26 -129t66.5 -101t102 -65.5 t129.5 -23.5q98 0 172 44t112 118.5t37 167.5q-2 138 -91.5 224.5t-234.5 86.5q-142 0 -232 -93t-87 -229z" />
<glyph unicode=":" horiz-adv-x="716" d="M167 166q0 78 56.5 134.5t133.5 56.5q79 0 135.5 -56.5t56.5 -134.5t-56.5 -133.5t-135.5 -55.5q-50 0 -94 25.5t-70 69t-26 94.5zM167 1022q0 76 57 132.5t133 56.5q52 0 96 -26t70 -69.5t26 -93.5q0 -52 -26 -96t-70 -69.5t-96 -25.5q-50 0 -94 25.5t-70 69.5t-26 96z " />
<glyph unicode=";" horiz-adv-x="711" d="M142 -434l139 433q-46 24 -74 69t-28 98q0 78 56 134.5t133 56.5q78 0 135 -56.5t57 -134.5q0 -44 -19 -84l-220 -516h-179zM179 1022q0 77 55.5 133t133.5 56t135 -56t57 -133q0 -79 -57 -135t-135 -56q-51 0 -94.5 25.5t-69 69.5t-25.5 96z" />
<glyph unicode="&#x3c;" horiz-adv-x="1548" d="M97 725v314l1312 659v-290l-1040 -525l1040 -527v-295z" />
<glyph unicode="=" d="M247 423v263h1006v-263h-1006zM247 935v262h1006v-262h-1006z" />
<glyph unicode="&#x3e;" horiz-adv-x="1548" d="M139 61v295l1041 527l-1041 525v290l1312 -659v-314z" />
<glyph unicode="?" horiz-adv-x="1298" d="M65 1235q0 98 27.5 186t79 157t122 119.5t160 77t189.5 26.5q120 0 226.5 -39t182.5 -107t120.5 -163t44.5 -202q0 -72 -14.5 -130t-39 -98t-56.5 -72t-67 -55t-70 -43.5t-67 -41t-56.5 -44t-39 -57t-14.5 -75.5v-117h-300v124q0 65 12 117.5t32.5 88t48.5 65t58.5 48.5 t63.5 38t64 33.5t58.5 35.5t48 44.5t32.5 59t12 79.5q0 104 -80 169t-200 65q-127 0 -204.5 -80t-78.5 -209h-295zM461 166q0 79 56 135t135 56q78 0 134 -56t56 -135q0 -78 -56 -133.5t-134 -55.5q-79 0 -135 55.5t-56 133.5z" />
<glyph unicode="@" horiz-adv-x="2027" d="M129 600q0 110 24.5 214t70 193t109 166.5t143.5 137.5t171 102.5t194 65t210 22.5q133 0 257 -31t232 -95t188.5 -154.5t126.5 -218.5t46 -278q0 -123 -28 -224.5t-74.5 -169.5t-108.5 -114.5t-128 -67t-135 -20.5q-101 0 -158.5 43t-66.5 110q-13 -24 -36 -48.5 t-58 -49t-86 -39.5t-108 -15q-110 0 -192 53t-123 143t-41 205q0 64 14.5 129.5t41.5 127t69.5 115t95 93.5t120.5 63t144 23q89 0 155.5 -36.5t92.5 -90.5l20 93h192l-97 -475q-8 -39 -12.5 -66t-7 -55t-1 -46.5t6 -35t14.5 -26t24.5 -14.5t35.5 -5q64 0 115.5 47 t80.5 134.5t29 199.5q0 99 -22.5 184.5t-64.5 150t-100.5 115t-130 82.5t-153.5 48.5t-171 16.5q-155 0 -285 -55t-218 -150t-137 -224t-49 -277q0 -159 53.5 -290.5t148.5 -218.5t224 -134.5t279 -47.5q296 0 508 153l115 -164q-262 -189 -642 -189q-161 0 -304 43 t-254.5 123t-192.5 189t-123.5 247t-42.5 293zM775 523q0 -23 3.5 -46t10.5 -47.5t21 -46t32.5 -38.5t46 -26.5t61.5 -9.5q56 0 102.5 23t76.5 60.5t51.5 85.5t31 95t9.5 92q1 47 -7 87.5t-27.5 75t-56 54t-87.5 19.5q-61 0 -113.5 -34.5t-85 -89.5t-51 -121.5t-18.5 -132.5 z" />
<glyph unicode="A" horiz-adv-x="1715" d="M12 0l678 1782h333l682 -1782h-381l-94 275h-745l-94 -275h-379zM586 567h544l-273 795z" />
<glyph unicode="B" horiz-adv-x="1611" d="M208 0v1782h701q110 0 205.5 -34.5t166 -96.5t111.5 -155t41 -204q0 -267 -216 -384q69 -24 123 -61.5t94 -90t61 -122.5t21 -153q0 -88 -26 -165t-73 -134.5t-111.5 -98.5t-142.5 -62t-164 -21h-791zM544 305h407q96 0 162.5 63.5t66.5 155.5q0 94 -66.5 159t-162.5 65 h-407v-443zM544 1034h326q94 0 160 65.5t66 159.5q0 92 -65.5 155t-160.5 63h-326v-443z" />
<glyph unicode="C" horiz-adv-x="1745" d="M87 891q0 107 24 210t69 193t107.5 169.5t142 141.5t169.5 107t193 69t210 24q201 0 386 -87t310 -237l-258 -207q-79 96 -193.5 150t-244.5 54q-97 0 -185.5 -28.5t-160 -82t-124 -125t-81.5 -162t-29 -189.5t29 -189.5t81.5 -162.5t124 -125t160 -81.5t185.5 -28.5 q130 0 244.5 53.5t193.5 150.5l258 -208q-125 -149 -310 -236t-386 -87q-125 0 -243.5 32.5t-219 91.5t-185 143t-143 184.5t-91.5 219t-33 243.5z" />
<glyph unicode="D" horiz-adv-x="1764" d="M208 0v1782h562q166 0 310.5 -45.5t252.5 -127t186 -192.5t117.5 -245t39.5 -281t-39.5 -281.5t-117.5 -245t-186 -192.5t-252.5 -127t-310.5 -45h-562zM552 312h203q129 0 235.5 44t177.5 121.5t110 184t39 229.5t-39 229t-110 183.5t-177.5 122t-235.5 44.5h-203v-1158 z" />
<glyph unicode="E" horiz-adv-x="1404" d="M208 0v1782h1078v-309h-733v-428h634v-308h-634v-428h733v-309h-1078z" />
<glyph unicode="F" horiz-adv-x="1353" d="M208 0v1782h1078v-309h-733v-428h634v-308h-634v-737h-345z" />
<glyph unicode="G" horiz-adv-x="1902" d="M87 891q0 107 24 210t69 193t107.5 169.5t142 141.5t169.5 107t193 69t210 24q201 0 386 -87t310 -237l-258 -207q-79 96 -193.5 150t-244.5 54q-97 0 -185.5 -28.5t-160 -82t-124 -125t-81.5 -162t-29 -189.5t29 -189.5t81.5 -162.5t124 -125t160 -81.5t185.5 -28.5 q125 0 236 49.5t190 140.5v209h-421v292h757v-995h-248l-35 114q-222 -137 -479 -137q-125 0 -243.5 32.5t-219 91.5t-185 143t-143 184.5t-91.5 219t-33 243.5z" />
<glyph unicode="H" horiz-adv-x="1888" d="M208 0v1782h345v-733h782v733h346v-1782h-346v735h-782v-735h-345z" />
<glyph unicode="I" horiz-adv-x="760" d="M208 0v1782h345v-1782h-345z" />
<glyph unicode="J" horiz-adv-x="1251" d="M23 93l150 287q57 -40 132 -65t145 -25q92 0 155 43t93 119t30 181v1149h346v-1212q0 -128 -42 -237t-120 -188t-193.5 -123.5t-256.5 -44.5q-262 0 -439 116z" />
<glyph unicode="K" horiz-adv-x="1729" d="M208 0v1782h345v-823l682 823h441l-756 -884l782 -898h-455l-694 836v-836h-345z" />
<glyph unicode="L" horiz-adv-x="1201" d="M208 0v1782h345v-1470h607v-312h-952z" />
<glyph unicode="M" horiz-adv-x="2226" d="M193 0v1782h276l642 -1015l651 1015h273v-1782h-345v1095l-579 -919l-573 916v-1092h-345z" />
<glyph unicode="N" horiz-adv-x="1908" d="M193 0v1782h259l918 -1176v1176h346v-1782h-263l-915 1180v-1180h-345z" />
<glyph unicode="O" horiz-adv-x="2002" d="M87 890.5q0 124.5 33 243.5t91.5 219t143 184.5t184.5 143t219 91.5t243.5 33t243 -33t219 -91.5t185 -143t143.5 -184.5t91.5 -219t32.5 -243.5t-32.5 -243t-91.5 -218.5t-143.5 -184.5t-185 -143.5t-219 -91.5t-243 -32.5t-243.5 32.5t-219 91.5t-184.5 143.5 t-143 184.5t-91.5 218.5t-33 243zM421 891q0 -121 45 -228.5t122.5 -184.5t185 -122t227.5 -45q121 0 228.5 45t184.5 122t122 184.5t45 228.5t-45 228.5t-122 184.5t-184.5 122t-228.5 45q-120 0 -227.5 -45t-185 -122t-122.5 -184.5t-45 -228.5z" />
<glyph unicode="P" horiz-adv-x="1619" d="M208 0v1782h824q109 0 206.5 -42t167 -112.5t110.5 -168.5t41 -205q0 -109 -41 -205t-111 -164t-167 -107.5t-206 -39.5h-479v-738h-345zM553 1030h427q105 0 173 60.5t68 159.5t-68.5 161t-172.5 62h-427v-443z" />
<glyph unicode="Q" horiz-adv-x="2062" d="M87 890.5q0 124.5 33 243.5t91.5 219t143 184.5t184.5 143t219 91.5t243.5 33t243 -33t219 -91.5t185 -143t143.5 -184.5t91.5 -219t32.5 -243q0 -275 -148 -500l224 -212l-232 -232l-211 211q-117 -87 -257 -134t-291 -47q-124 0 -243 32.5t-219 91.5t-184.5 143.5 t-143 184.5t-91.5 218.5t-33 243zM421 891q0 -121 45 -228.5t122.5 -184.5t185 -122t227.5 -45q167 0 309 85l-213 212l214 213l209 -197q61 125 61 267q0 121 -45 228.5t-122 184.5t-184.5 122t-228.5 45q-120 0 -227.5 -45t-185 -122t-122.5 -184.5t-45 -228.5z" />
<glyph unicode="R" horiz-adv-x="1668" d="M208 0v1782h824q109 0 206.5 -42t167 -112.5t110.5 -168.5t41 -205q0 -175 -99.5 -308t-259.5 -184l395 -762h-376l-369 738h-295v-738h-345zM553 1030h427q105 0 173 60.5t68 159.5t-68.5 161t-172.5 62h-427v-443z" />
<glyph unicode="S" horiz-adv-x="1385" d="M53 281l232 236q94 -121 196.5 -182.5t228.5 -61.5q120 0 188.5 56.5t68.5 155.5q0 38 -11 70t-38 59t-51 46.5t-73 43.5t-79.5 37t-93.5 38q-11 4 -17 6q-57 24 -95 40.5t-92 45.5t-90 56.5t-76 68t-63 84.5t-39 102.5t-16 124.5q0 116 45 211t121.5 157t177 96 t213.5 34q320 0 562 -258l-213 -210q-61 69 -123.5 110.5t-115 56t-109.5 14.5q-92 0 -152.5 -48.5t-60.5 -132.5q0 -22 5.5 -43.5t14 -38.5t25 -34t30 -29.5t39 -28t42.5 -24.5t49.5 -23.5t51 -22t54.5 -22.5q4 -1 6 -2t5 -2t5.5 -2t5.5 -2q48 -20 79 -33.5t77 -36.5 t77 -42t70 -48t64.5 -57t52.5 -66t43 -78.5t26 -91t10 -105.5q0 -101 -31.5 -186.5t-87 -148t-130.5 -106.5t-163.5 -65.5t-184.5 -21.5q-108 0 -212.5 27t-187.5 72t-148 97t-112 108z" />
<glyph unicode="T" horiz-adv-x="1345" d="M42 1470v312h1262v-312h-458v-1470h-345v1470h-459z" />
<glyph unicode="U" horiz-adv-x="1792" d="M172 603v1179h345v-1116q0 -112 50 -198.5t136 -133t193 -46.5t193 46.5t136 133t50 198.5v1116h347v-1179q0 -136 -56 -253t-152.5 -198.5t-230.5 -128t-287 -46.5q-123 0 -234 29.5t-199.5 85t-154 131.5t-101 173.5t-35.5 206.5z" />
<glyph unicode="V" horiz-adv-x="1687" d="M7 1782h373l463 -1304l463 1304h375l-682 -1782h-312z" />
<glyph unicode="W" horiz-adv-x="2477" d="M8 1782h368l479 -1397l221 599l-317 798h345l135 -361l133 361h347l-318 -799l222 -598l478 1397h369l-653 -1782h-350l-228 575l-230 -575h-349z" />
<glyph unicode="X" horiz-adv-x="1671" d="M35 0l613 914l-582 868h399l370 -580l373 580h397l-583 -867l615 -915h-400l-402 630l-400 -630h-400z" />
<glyph unicode="Y" horiz-adv-x="1624" d="M16 1782h396l401 -634l404 634h391l-621 -940v-842h-346v835z" />
<glyph unicode="Z" horiz-adv-x="1553" d="M51 0v123l920 1347h-853v312h1375v-119l-921 -1351h892v-312h-1413z" />
<glyph unicode="[" horiz-adv-x="835" d="M200 -594v2723h597v-237h-306v-2249h306v-237h-597z" />
<glyph unicode="\" horiz-adv-x="1518" d="M-29 1986h314l1262 -2447h-313z" />
<glyph unicode="]" horiz-adv-x="835" d="M38 -357h307v2249h-307v237h598v-2723h-598v237z" />
<glyph unicode="^" horiz-adv-x="1765" d="M73 471l660 1311h298l661 -1311h-278l-531 1054l-532 -1054h-278z" />
<glyph unicode="_" horiz-adv-x="1641" d="M226 -60h1188v-246h-1188v246z" />
<glyph unicode="`" horiz-adv-x="581" d="M-7 1647l161 180l354 -389l-115 -127z" />
<glyph unicode="a" horiz-adv-x="1459" d="M72 561q0 125 43 234t116 185t171 120t206 44q221 0 351 -158v131h336v-1117h-307l-11 153q-132 -176 -369 -176q-108 0 -206 44t-171 120t-116 185.5t-43 234.5zM407 561q0 -122 83.5 -208t203.5 -86t203.5 86t83.5 208q0 81 -38 148t-104 106t-145 39 q-120 0 -203.5 -85t-83.5 -208z" />
<glyph unicode="b" horiz-adv-x="1460" d="M166 0v1782h335v-796q130 158 352 158q107 0 205.5 -44t171 -120t116 -185t43.5 -234t-43.5 -234.5t-116 -185.5t-171 -120t-205.5 -44q-238 0 -369 176l-12 -153h-306zM479 561q0 -48 14.5 -93t41 -81t62 -63.5t79.5 -42t91 -14.5q120 0 203 86t83 208q0 123 -83 208 t-203 85t-204 -85t-84 -208z" />
<glyph unicode="c" horiz-adv-x="1245" d="M66 558q0 120 45.5 227.5t124 185t189.5 122.5t236 45q182 0 326.5 -96.5t209.5 -256.5l-278 -117q-33 78 -101.5 125t-156.5 47q-59 0 -111 -22t-89 -59.5t-58 -89.5t-21 -111q0 -119 80 -199.5t199 -80.5q88 0 156.5 46.5t101.5 123.5l278 -116q-65 -160 -209.5 -256.5 t-326.5 -96.5q-125 0 -236 45.5t-189.5 122.5t-124 184t-45.5 227z" />
<glyph unicode="d" horiz-adv-x="1460" d="M72 561q0 125 43 234t116 185t171 120t206 44q221 0 351 -158v796h336v-1782h-307l-11 153q-132 -176 -369 -176q-108 0 -206 44t-171 120t-116 185.5t-43 234.5zM407 561q0 -122 83.5 -208t203.5 -86t203.5 86t83.5 208q0 81 -38 148t-104 106t-145 39 q-120 0 -203.5 -85t-83.5 -208z" />
<glyph unicode="e" horiz-adv-x="1300" d="M68 557q0 96 28.5 185t81.5 160.5t125 125t164.5 82.5t194.5 29q121 0 226 -40.5t182 -113t121 -180t44 -234.5v-75h-832q17 -121 89.5 -188t181.5 -67q83 0 150.5 38t106.5 110l264 -109q-66 -141 -202 -221t-318 -80q-108 0 -204 29t-169 82t-126 124t-80.5 159 t-27.5 184zM419 709h475q-53 175 -228 175q-92 0 -155.5 -46t-91.5 -129z" />
<glyph unicode="f" horiz-adv-x="854" d="M43 857v260h188v280q0 190 111 302t299 112q143 0 188 -35v-300q-56 42 -130 42q-40 0 -70.5 -19.5t-47 -55.5t-16.5 -85v-241h269v-260h-269v-857h-334v857h-188z" />
<glyph unicode="g" horiz-adv-x="1468" d="M70 561q0 125 43 234t116.5 185.5t174 120t213.5 43.5q221 0 349 -163v136h336v-1074q0 -147 -47 -265.5t-131 -196.5t-199 -119.5t-252 -41.5q-97 0 -195 24t-197.5 83t-166.5 145l185 205q81 -86 173 -130t182 -44q139 0 225.5 90t86.5 249v96q-127 -161 -347 -161 q-113 0 -214.5 43.5t-175 120t-116.5 186t-43 234.5zM405 561q0 -80 37.5 -147.5t103.5 -107t145 -39.5q120 0 204 86t84 208q0 123 -83.5 208t-204.5 85q-120 0 -203 -85t-83 -208z" />
<glyph unicode="h" horiz-adv-x="1349" d="M166 0v1782h335v-780q117 136 302 136q117 0 211 -55.5t146 -152t52 -214.5v-716h-334v675q0 75 -50 121.5t-127 46.5q-87 0 -143 -51t-57 -127v-665h-335z" />
<glyph unicode="i" horiz-adv-x="664" d="M146 1494q0 77 55 131.5t133 54.5q76 0 131.5 -54.5t55.5 -131.5q0 -76 -55.5 -131.5t-131.5 -55.5q-77 0 -132.5 55t-55.5 132zM166 0v1117h333v-1117h-333z" />
<glyph unicode="j" horiz-adv-x="665" d="M145 1494q0 51 25.5 93.5t69 67.5t94.5 25q75 0 130 -54.5t55 -131.5q0 -76 -55 -131.5t-130 -55.5q-78 0 -133.5 55t-55.5 132zM166 -558v1675h334v-1675h-334z" />
<glyph unicode="k" horiz-adv-x="1364" d="M166 0v1782h335v-1129l408 464h408l-484 -529l533 -588h-422l-443 517v-517h-335z" />
<glyph unicode="l" horiz-adv-x="667" d="M166 0v1782h335v-1782h-335z" />
<glyph unicode="m" horiz-adv-x="1987" d="M166 0v1117h335v-116q52 65 122.5 101t154.5 36q98 0 182.5 -47.5t140.5 -131.5q57 85 143 132t193 47q119 0 213.5 -56.5t147 -154.5t52.5 -219v-708h-334v673q0 76 -45.5 125.5t-120.5 49.5q-54 0 -94.5 -26.5t-60.5 -70t-20 -97.5v-654h-334v673q0 76 -46 125.5 t-122 49.5q-54 0 -93.5 -26.5t-59 -70t-19.5 -97.5v-654h-335z" />
<glyph unicode="n" horiz-adv-x="1349" d="M166 0v1117h335v-114q60 67 140.5 101t171.5 34q110 0 201.5 -55.5t144.5 -152.5t53 -214v-716h-334v672q0 81 -52 130t-132 49q-84 0 -138 -53.5t-55 -137.5v-660h-335z" />
<glyph unicode="o" horiz-adv-x="1322" d="M66 558q0 120 45.5 227t124 184.5t189.5 123t236 45.5t235.5 -45.5t189.5 -123t124.5 -184.5t45.5 -227t-45.5 -227t-124.5 -184t-189.5 -122.5t-235.5 -45.5t-236 45.5t-189.5 122.5t-124 184t-45.5 227zM384 558q0 -125 79.5 -205t196.5 -80t196.5 81t79.5 204 q0 124 -79.5 206t-196.5 82t-196.5 -81.5t-79.5 -206.5z" />
<glyph unicode="p" horiz-adv-x="1460" d="M166 -571v1688h306l12 -154q131 176 369 176q107 0 205.5 -43.5t171 -119.5t116 -185.5t43.5 -234.5t-43.5 -234.5t-116 -185t-171 -119.5t-205.5 -44q-222 0 -352 158v-702h-335zM479 555.5q0 -122.5 84 -207.5t204 -85q121 0 203.5 85t82.5 208t-83 208t-203 85 t-204 -85.5t-84 -208z" />
<glyph unicode="q" horiz-adv-x="1460" d="M72 556q0 125 43 234.5t116 185.5t171 119.5t206 43.5q237 0 369 -176l11 154h307v-1688h-336v702q-130 -158 -351 -158q-86 0 -167 28t-147.5 80t-116.5 122.5t-77.5 161.5t-27.5 191zM407 556q0 -81 38 -148t103.5 -106t145.5 -39q79 0 145 39t104 106t38 148 q0 122 -83.5 207.5t-203.5 85.5q-121 0 -204 -85t-83 -208z" />
<glyph unicode="r" horiz-adv-x="988" d="M166 0v1117h335v-180q48 96 125.5 149t182.5 53q102 0 179 -58l-113 -286q-58 32 -116 32q-108 0 -183 -86.5t-75 -227.5v-513h-335z" />
<glyph unicode="s" horiz-adv-x="1092" d="M59 121l138 225q70 -50 168.5 -84.5t180.5 -34.5q21 0 39.5 2.5t34.5 7t29 11t23.5 15t17.5 19t10.5 22.5t3.5 25q0 18 -6 32t-20.5 24.5t-29.5 18.5t-41.5 16t-48 13.5t-58 15t-62.5 16.5q-39 11 -69 21t-67 26t-64 33.5t-54 42.5t-44.5 54t-28 67.5t-10.5 83.5 q0 58 17.5 107.5t48.5 87t74 67t95.5 47.5t110.5 27.5t120 9.5q117 0 227 -31t194 -86l-139 -202q-43 26 -97 47t-109.5 33.5t-100.5 12.5q-62 0 -98 -22.5t-36 -61.5q0 -13 4.5 -24.5t14 -21t19.5 -17.5t27 -15.5t31 -12.5t37.5 -11.5t39.5 -11t43 -11t43 -10.5 q67 -17 117.5 -35.5t96.5 -46.5t75.5 -63t46.5 -84.5t17 -111.5q0 -181 -126.5 -278.5t-341.5 -97.5q-147 0 -273 41.5t-220 102.5z" />
<glyph unicode="t" horiz-adv-x="816" d="M30 857v260h211v401h336v-401h208v-260h-208v-857h-336v857h-211z" />
<glyph unicode="u" horiz-adv-x="1294" d="M136 426v691h334v-665q0 -92 48.5 -141.5t127.5 -49.5q80 0 129.5 50t49.5 141v665h334v-691q0 -208 -134.5 -328.5t-378.5 -120.5q-243 0 -376.5 120.5t-133.5 328.5z" />
<glyph unicode="v" horiz-adv-x="1221" d="M5 1117h355l249 -720l252 720h356l-476 -1117h-265z" />
<glyph unicode="w" horiz-adv-x="1838" d="M9 1117h344l207 -704l238 704h240l237 -705l209 705h345l-382 -1118h-293l-235 714l-239 -714h-294z" />
<glyph unicode="x" horiz-adv-x="1366" d="M13 0l470 558l-470 559h399l269 -339l273 339h400l-471 -560l471 -557h-402l-269 335l-268 -335h-402z" />
<glyph unicode="y" horiz-adv-x="1315" d="M-7 1117h367l304 -857l306 857h349l-671 -1675h-342l222 558h-77z" />
<glyph unicode="z" horiz-adv-x="1136" d="M49 0l533 857h-505v260h1001l-536 -857h532v-260h-1025z" />
<glyph unicode="{" horiz-adv-x="778" d="M42 681v212q41 17 64.5 28t46.5 29.5t33.5 39t19.5 55.5t11.5 78t2.5 108v548q0 78 24.5 145.5t69 117.5t111 78.5t146.5 28.5h144v-267h-78q-56 0 -86 -39t-30 -117v-500q0 -71 -5.5 -122.5t-21.5 -103.5t-44 -89t-74.5 -69t-112.5 -54q66 -23 112.5 -55t74.5 -69.5 t44 -89t21.5 -103t5.5 -122.5v-503q0 -82 26.5 -117t89.5 -35h78v-268h-144q-106 0 -187 50t-122.5 133.5t-41.5 186.5v549q0 64 -2.5 107t-11.5 78t-19.5 54.5t-33.5 38.5t-46 30t-65 28z" />
<glyph unicode="|" horiz-adv-x="707" d="M249 -356v2138h208v-2138h-208z" />
<glyph unicode="}" horiz-adv-x="778" d="M64 -306h78q63 0 89.5 35t26.5 117v503q0 71 5 122.5t21 103t44 89t74.5 69.5t112.5 55q-66 22 -112.5 54t-74.5 69t-44 89t-21 103.5t-5 122.5v500q0 78 -30.5 117t-85.5 39h-78v267h144q106 0 186.5 -49.5t122 -133t41.5 -187.5v-548q0 -65 2.5 -108t11.5 -78 t19.5 -55.5t33.5 -39t46.5 -29.5t65.5 -28v-212q-42 -17 -65 -28t-46.5 -30t-34 -38.5t-19.5 -54.5t-11.5 -78t-2.5 -107v-549q0 -103 -41.5 -186.5t-122 -133.5t-186.5 -50h-144v268z" />
<glyph unicode="~" horiz-adv-x="1586" d="M180 382q-7 138 39 244t140 165t224 59q102 0 170.5 -40t136.5 -129q19 -25 32 -38.5t37.5 -27t52.5 -13.5q42 0 76.5 26t54 77.5t14.5 118.5h242q13 -129 -30.5 -234.5t-132 -165.5t-204.5 -60q-44 0 -87.5 11t-72 23.5t-63.5 38t-49 38t-43 41.5t-31 32q-58 58 -109 58 t-86 -33.5t-50.5 -82.5t-15.5 -108h-245z" />
<glyph unicode="&#xa1;" horiz-adv-x="779" d="M198 1022q0 77 56.5 133t134.5 56q51 0 95.5 -25.5t70 -69t25.5 -94.5q0 -80 -56 -135.5t-135 -55.5q-78 0 -134.5 55.5t-56.5 135.5zM222 -594v1190h334v-1190h-334z" />
<glyph unicode="&#xa2;" horiz-adv-x="1376" d="M96 694q0 120 45.5 227t124 184.5t189.5 123t236 45.5q182 0 326.5 -97t209.5 -256l-278 -117q-33 78 -101.5 125t-156.5 47q-119 0 -199 -81.5t-80 -200.5t80 -199.5t199 -80.5q59 0 110.5 21.5t88.5 59.5t59 88l278 -116q-52 -128 -158 -217.5t-244 -119.5v-132h-195 v119q-115 11 -214 60t-169.5 125t-110.5 177.5t-40 214.5zM630 1365v301h195v-301h-195z" />
<glyph unicode="&#xa3;" horiz-adv-x="1658" d="M154 0v246l191 28v451h-191v269h191v189q0 134 45.5 249.5t125 197.5t193 128.5t243.5 46.5q128 0 248 -54.5t209 -153.5t126 -222l-297 -127q-16 102 -99.5 171.5t-186.5 69.5q-134 0 -212.5 -82.5t-78.5 -223.5v-189h442v-269h-442v-433h841v-292h-1348z" />
<glyph unicode="&#xa4;" horiz-adv-x="1599" d="M191 437l127 124q-88 135 -88 300q0 166 88 302l-123 122l175 186l128 -130q137 90 304 90q162 0 299 -89l125 127l180 -179l-125 -124q88 -137 88 -304q0 -166 -88 -303l123 -122l-176 -185l-127 128q-139 -87 -302 -87t-304 87l-127 -128zM480 857q0 -88 44 -160.5 t117 -113t158 -40.5q89 0 162.5 44.5t114.5 118t41 158.5q0 86 -43 158.5t-116 115t-159 42.5q-87 0 -160.5 -43.5t-116 -118t-42.5 -161.5z" />
<glyph unicode="&#xa5;" horiz-adv-x="1770" d="M92 1782h395l403 -632l403 632h391l-599 -906h373v-226h-395v-170h395v-213h-395v-267h-346v267h-399v213h399v170h-399v226h372z" />
<glyph unicode="&#xa6;" horiz-adv-x="707" d="M249 -356v855h208v-855h-208zM249 927v855h208v-855h-208z" />
<glyph unicode="&#xa7;" horiz-adv-x="1423" d="M138 615q9 219 167 355q-154 134 -146 352q3 97 35 178t85.5 138t124 96.5t150 57t164.5 14.5q155 -5 289 -75.5t223 -183.5l-228 -196q-124 161 -294 166q-98 3 -163 -44t-69 -140q-2 -44 16 -81t41.5 -62t74 -54t84 -44t101.5 -43q67 -28 102 -43.5t97 -48.5 t96.5 -60.5t79 -73t66.5 -93.5t37.5 -114.5t12.5 -142.5q-7 -220 -166 -355q72 -67 109.5 -151.5t34.5 -200.5q-3 -97 -35 -178t-85 -138t-122.5 -96.5t-149 -57t-164.5 -14.5q-155 5 -290.5 75.5t-222.5 183.5l227 196q59 -78 134.5 -121t161.5 -45q96 -3 161 44t67 140 q2 44 -16 81.5t-41.5 62.5t-73.5 53.5t-83.5 43.5t-101.5 43q-67 28 -102 44t-97 48.5t-96.5 60.5t-78.5 73t-66 93t-37.5 114.5t-12.5 142.5zM455 604q-2 -46 16.5 -85.5t43 -66t76.5 -57t86.5 -46t104.5 -44.5q8 -4 12.5 -6t11.5 -5t13 -5q65 14 105.5 69t42.5 126 q1 26 -4.5 49.5t-13.5 43t-25.5 39t-32 34t-41.5 31.5t-45.5 27.5t-52.5 26.5t-53.5 24.5t-58.5 24.5l-36 15q-67 -15 -107.5 -69t-41.5 -126z" />
<glyph unicode="&#xa8;" horiz-adv-x="1059" d="M138 1481q0 69 50 118t118 49q69 0 119.5 -48.5t50.5 -118.5q0 -45 -23.5 -84t-62.5 -61.5t-84 -22.5q-44 0 -83 22.5t-62 61.5t-23 84zM625 1481.5q0 69.5 49.5 118t119 48.5t118 -48.5t48.5 -118t-48.5 -119t-118 -49.5t-119 49.5t-49.5 119z" />
<glyph unicode="&#xa9;" horiz-adv-x="2079" d="M125 891q0 124 33 242.5t92 218.5t143.5 184.5t185 143.5t219 92t243.5 33q106 0 208.5 -24t192.5 -69.5t169.5 -108t142 -142t107.5 -169.5t69.5 -192.5t24.5 -208.5t-24.5 -209t-69.5 -193t-107.5 -169.5t-142 -142t-169.5 -107.5t-192.5 -69t-208.5 -24 q-125 0 -243.5 33t-219 92t-185 143.5t-143.5 184.5t-92 218.5t-33 242.5zM305 891q0 -152 57.5 -288.5t155.5 -234.5t234.5 -155.5t288 -57.5t288 57.5t234.5 155.5t155.5 234.5t57.5 288.5t-57.5 288t-155.5 234t-234.5 155.5t-288 57.5t-288 -57.5t-234.5 -155.5 t-155.5 -234t-57.5 -288zM537 891q0 83 25.5 161t72.5 140.5t109.5 109t140 72t160.5 25.5q112 0 215.5 -49t172.5 -132l-147 -117q-42 54 -105 84t-136 30q-135 0 -226.5 -92.5t-91.5 -231.5q0 -138 91.5 -229.5t226.5 -91.5q73 0 136 29.5t105 83.5l147 -118 q-69 -84 -172.5 -133t-215.5 -49q-103 0 -197 40t-162 108t-108.5 162t-40.5 198z" />
<glyph unicode="&#xaa;" horiz-adv-x="1077" d="M106 1426q0 101 47 186t128.5 134.5t177.5 49.5q25 0 49 -3.5t46.5 -10.5t43 -17t39 -23t35 -28t30.5 -33v101h194v-712h-194v99q-44 -54 -106 -84.5t-137 -30.5q-96 0 -177.5 49.5t-128.5 135t-47 187.5zM297 1426q0 -84 59 -143.5t143 -59.5t143.5 59.5t59.5 143.5 q0 83 -59.5 141.5t-143.5 58.5t-143 -58.5t-59 -141.5z" />
<glyph unicode="&#xab;" horiz-adv-x="1277" d="M48 558l360 437h266l-361 -437l361 -437h-266zM583 558l362 437h270l-361 -437l361 -437h-270z" />
<glyph unicode="&#xac;" horiz-adv-x="1883" d="M119 841v229h1517v-837h-227v608h-1290z" />
<glyph unicode="&#xad;" horiz-adv-x="1155" d="M162 427v256h832v-256h-832z" />
<glyph unicode="&#xae;" horiz-adv-x="2079" d="M125 891q0 124 33 242.5t92 218.5t143.5 184.5t185 143.5t219 92t243.5 33q106 0 208.5 -24t192.5 -69.5t169.5 -108t142 -142t107.5 -169.5t69.5 -192.5t24.5 -208.5t-24.5 -209t-69.5 -193t-107.5 -169.5t-142 -142t-169.5 -107.5t-192.5 -69t-208.5 -24 q-125 0 -243.5 33t-219 92t-185 143.5t-143.5 184.5t-92 218.5t-33 242.5zM305 891q0 -152 57.5 -288.5t155.5 -234.5t234.5 -155.5t288 -57.5t288 57.5t234.5 155.5t155.5 234.5t57.5 288.5t-57.5 288t-155.5 234t-234.5 155.5t-288 57.5t-288 -57.5t-234.5 -155.5 t-155.5 -234t-57.5 -288zM715 370v1043h424q128 0 217 -89.5t89 -216.5q0 -92 -46 -164.5t-123 -109.5l198 -463h-212l-177 433h-173v-433h-197zM912 972h198q62 0 103 36t41 95t-41 97t-103 38h-198v-266z" />
<glyph unicode="&#xaf;" horiz-adv-x="1059" d="M210 1405v198h737v-198h-737z" />
<glyph unicode="&#xb0;" horiz-adv-x="1025" d="M168 1592q0 94 45.5 173t125 125t174.5 46q47 0 91.5 -12.5t82 -34.5t69 -53.5t53.5 -69.5t34.5 -82.5t12.5 -91.5q0 -94 -46 -173t-125 -125t-172 -46q-71 0 -135 27t-110 73t-73 109.5t-27 134.5zM328 1591.5q0 -77.5 53.5 -130.5t131.5 -53q76 0 129.5 53t53.5 131 q0 38 -14.5 72t-39 58.5t-58.5 39t-71 14.5q-78 0 -131.5 -53.5t-53.5 -131z" />
<glyph unicode="&#xb2;" horiz-adv-x="822" d="M27 712v74q127 128 218.5 229t143 168t80.5 121t37.5 86t8.5 65t-8 59t-21.5 41.5t-31.5 25t-36 12.5t-38 2q-46 -2 -75.5 -25.5t-40.5 -55t-9 -67.5h-226q-3 102 43.5 182.5t130 124.5t189.5 44q152 0 245 -88.5t94 -233.5q0 -256 -311 -554h343v-210h-736z" />
<glyph unicode="&#xb3;" horiz-adv-x="793" d="M27 1014l227 2q0 -23 10.5 -42.5t28 -33t40.5 -21t49 -7.5q60 0 99.5 40.5t39.5 100.5q0 58 -37.5 87t-98.5 29h-105l-2 203h92q31 0 56.5 15t39.5 40.5t14 54.5q0 46 -31 73.5t-77 27.5q-28 0 -50 -10t-34 -29t-12 -43l-221 5q0 127 90 208.5t227 81.5q88 0 159.5 -37.5 t112 -104.5t40.5 -152q0 -120 -82 -195q67 -43 104.5 -111t37.5 -152q0 -95 -47 -174t-131 -125.5t-186 -46.5q-97 0 -177.5 40.5t-128 113t-47.5 162.5z" />
<glyph unicode="&#xb4;" horiz-adv-x="589" d="M10 1440l359 387l160 -180l-397 -341z" />
<glyph unicode="&#xb5;" horiz-adv-x="1425" d="M166 -558v1675h335v-645q0 -85 59 -144t144 -59q94 0 159 59t65 144v645h332v-1117h-332v124q-41 -45 -91.5 -77.5t-110 -50t-122.5 -17.5q-102 0 -195 45v-582h-243z" />
<glyph unicode="&#xb6;" horiz-adv-x="1366" d="M87 1385q0 128 51.5 217.5t145.5 134.5t225 45h216v-2138h-169v1342h-47q-131 0 -225 45.5t-145.5 135.5t-51.5 218zM947 -356v2138h170v-2138h-170z" />
<glyph unicode="&#xb7;" horiz-adv-x="689" d="M187 855q0 41 21.5 78t57.5 59t77 22t77.5 -22t59 -59t22.5 -78q0 -65 -48 -111t-111 -46q-41 0 -77 20.5t-57.5 57t-21.5 79.5z" />
<glyph unicode="&#xb8;" horiz-adv-x="683" d="M66 -440l152 51q11 -19 32.5 -35.5t46.5 -25.5t48 -9q41 0 70 29.5t29 72.5q0 66 -56.5 85.5t-138.5 -18.5l-123 72l119 223h161l-80 -147q115 21 196.5 -42t81.5 -173q0 -109 -75.5 -184.5t-183.5 -75.5q-89 0 -170 51.5t-109 125.5z" />
<glyph unicode="&#xb9;" horiz-adv-x="527" d="M23 1572v210h371v-1070h-220v860h-151z" />
<glyph unicode="&#xba;" horiz-adv-x="990" d="M101 1426q0 101 52 186t142.5 134.5t199 49.5t199.5 -49.5t144 -134.5t53 -186q0 -76 -31.5 -145t-84.5 -118.5t-126.5 -79t-154.5 -29.5q-108 0 -198.5 49.5t-142.5 135t-52 187.5zM292 1426q0 -84 59.5 -143.5t142.5 -59.5q84 0 143.5 59.5t59.5 143.5q0 83 -59 141.5 t-144 58.5q-83 0 -142.5 -58.5t-59.5 -141.5z" />
<glyph unicode="&#xbb;" horiz-adv-x="1277" d="M63 121l360 437l-360 437h265l361 -437l-361 -437h-265zM600 121l360 437l-360 437h269l361 -437l-361 -437h-269z" />
<glyph unicode="&#xbc;" horiz-adv-x="1967" d="M23 1572v210h371v-1070h-220v860h-151zM100 0l1242 1782h237l-1243 -1782h-236zM1083 226v139l438 705h290v-634h90v-210h-90v-226h-222v226h-506zM1362 436h227v392z" />
<glyph unicode="&#xbd;" horiz-adv-x="1973" d="M23 1572v210h371v-1070h-220v860h-151zM100 0l1242 1782h237l-1243 -1782h-236zM1177 0v74q128 128 219.5 229t143 168t80.5 121t37.5 86t8.5 64q0 42 -12 72t-32.5 44.5t-43 20t-47.5 4.5q-46 -2 -76 -25.5t-40.5 -55t-8.5 -68.5h-226q-5 155 98.5 253.5t264.5 98.5 q151 0 244.5 -89t94.5 -234q0 -255 -311 -553h343v-210h-737z" />
<glyph unicode="&#xbe;" horiz-adv-x="2233" d="M27 1014l227 2q0 -23 10.5 -42.5t28 -33t40.5 -21t49 -7.5q60 0 99.5 40.5t39.5 100.5q0 58 -37.5 87t-98.5 29h-105l-2 203h92q31 0 56.5 15t39.5 40.5t14 54.5q0 46 -31 73.5t-77 27.5q-28 0 -50 -10t-34 -29t-12 -43l-221 5q0 127 90 208.5t227 81.5q88 0 159.5 -37.5 t112 -104.5t40.5 -152q0 -120 -82 -195q67 -43 104.5 -111t37.5 -152q0 -95 -47 -174t-131 -125.5t-186 -46.5q-97 0 -177.5 40.5t-128 113t-47.5 162.5zM365 0l1243 1782h236l-1242 -1782h-237zM1349 226v139l437 705h290v-634h91v-210h-91v-226h-221v226h-506zM1627 436 h228v392z" />
<glyph unicode="&#xbf;" horiz-adv-x="1295" d="M81 -100q0 65 12 119t32.5 91.5t47.5 70t57.5 54t62.5 42.5t62.5 37.5t57.5 37.5t47.5 42.5t32.5 52.5t12 69v117h300v-124q0 -71 -14.5 -128t-39.5 -94t-57.5 -65.5t-68 -49t-71 -38.5t-68 -38.5t-57.5 -45.5t-39.5 -63t-14.5 -87q0 -104 80 -169t200 -65 q127 0 204.5 80t78.5 209h295q0 -123 -43.5 -228t-119 -179.5t-183 -116.5t-232.5 -42q-96 0 -184 25t-158.5 71.5t-122.5 109t-80.5 141.5t-28.5 164zM456 1024q0 78 56 133.5t134 55.5q79 0 135.5 -55t56.5 -134q0 -52 -26 -96t-70 -69.5t-96 -25.5q-78 0 -134 56t-56 135 z" />
<glyph unicode="&#xc0;" horiz-adv-x="1715" d="M12 0l678 1782h333l682 -1782h-381l-94 275h-745l-94 -275h-379zM474 2241l162 180l353 -389l-114 -127zM586 567h544l-273 795z" />
<glyph unicode="&#xc1;" horiz-adv-x="1715" d="M12 0l678 1782h333l682 -1782h-381l-94 275h-745l-94 -275h-379zM586 567h544l-273 795zM718 2033l358 388l161 -180l-397 -341z" />
<glyph unicode="&#xc2;" horiz-adv-x="1715" d="M12 0l678 1782h333l682 -1782h-381l-94 275h-745l-94 -275h-379zM469 1981l277 347h221l281 -347l-140 -88l-250 244l-250 -244zM586 567h544l-273 795z" />
<glyph unicode="&#xc3;" horiz-adv-x="1715" d="M12 0l678 1782h333l682 -1782h-381l-94 275h-745l-94 -275h-379zM432 1904q0 156 72.5 255.5t196.5 99.5q142 0 233 -137q11 -17 18.5 -25t23 -16.5t33.5 -8.5q88 0 88 173h187q0 -60 -11 -113.5t-33 -97.5t-54 -76.5t-76.5 -50t-96.5 -17.5q-140 0 -232 137 q-32 49 -72 49q-45 0 -68.5 -48t-23.5 -124h-185zM586 567h544l-273 795z" />
<glyph unicode="&#xc4;" horiz-adv-x="1715" d="M12 0l678 1782h333l682 -1782h-381l-94 275h-745l-94 -275h-379zM447 2074q0 70 49.5 118.5t118.5 48.5t119 -48.5t50 -118.5q0 -69 -50 -118t-119 -49t-118.5 49t-49.5 118zM586 567h544l-273 795zM934 2074q0 70 49 118.5t119 48.5t118.5 -48.5t48.5 -118.5 t-48.5 -118.5t-118.5 -48.5q-46 0 -84.5 22t-61 60.5t-22.5 84.5z" />
<glyph unicode="&#xc5;" horiz-adv-x="1715" d="M12 0l678 1782h333l682 -1782h-381l-94 275h-745l-94 -275h-379zM577 2209q0 114 82.5 195.5t198.5 81.5q56 0 107.5 -22t88.5 -59.5t59.5 -88.5t22.5 -107q0 -116 -82 -198.5t-196 -82.5q-116 0 -198.5 82.5t-82.5 198.5zM586 567h544l-273 795zM724 2209 q0 -61 38 -99.5t96 -38.5t97 38.5t39 99.5q0 54 -40 96t-96 42t-95 -41.5t-39 -96.5z" />
<glyph unicode="&#xc6;" horiz-adv-x="2255" d="M28 0l714 1782h1395v-309h-730v-429h630v-305h-630v-430h730v-309h-1054v384h-522l-146 -384h-387zM666 661h417v827h-103z" />
<glyph unicode="&#xc7;" horiz-adv-x="1745" d="M87 891q0 107 24 210t69 193t107.5 169.5t142 141.5t169.5 107t193 69t210 24q201 0 386 -87t310 -237l-258 -207q-79 96 -193.5 150t-244.5 54q-97 0 -185.5 -28.5t-160 -82t-124 -125t-81.5 -162t-29 -189.5t29 -189.5t81.5 -162.5t124 -125t160 -81.5t185.5 -28.5 q130 0 244.5 53.5t193.5 150.5l258 -208q-115 -138 -283.5 -223.5t-354.5 -97.5l-66 -121q116 21 197.5 -42t81.5 -173q0 -109 -76 -184.5t-184 -75.5q-89 0 -170 51.5t-109 125.5l152 51q12 -19 33 -35.5t46 -25.5t48 -9q41 0 70 29.5t29 72.5q0 66 -56.5 85.5 t-137.5 -18.5l-123 72l106 201q-170 18 -320.5 96.5t-259 198t-171.5 279t-63 334.5z" />
<glyph unicode="&#xc8;" horiz-adv-x="1404" d="M208 0v1782h1078v-309h-733v-428h634v-308h-634v-428h733v-309h-1078zM363 2241l161 180l354 -389l-115 -127z" />
<glyph unicode="&#xc9;" horiz-adv-x="1404" d="M208 0v1782h1078v-309h-733v-428h634v-308h-634v-428h733v-309h-1078zM607 2033l358 388l160 -180l-397 -341z" />
<glyph unicode="&#xca;" horiz-adv-x="1404" d="M208 0v1782h1078v-309h-733v-428h634v-308h-634v-428h733v-309h-1078zM357 1981l278 347h221l281 -347l-141 -88l-249 244l-251 -244z" />
<glyph unicode="&#xcb;" horiz-adv-x="1404" d="M208 0v1782h1078v-309h-733v-428h634v-308h-634v-428h733v-309h-1078zM335 2074q0 70 50 118.5t118 48.5q46 0 85 -22t62 -60.5t23 -84.5q0 -69 -50 -118t-120 -49q-68 0 -118 49t-50 118zM822 2074q0 46 23 84.5t61.5 60.5t84.5 22q69 0 118 -48.5t49 -118.5t-49 -118.5 t-118.5 -48.5t-119 49t-49.5 118z" />
<glyph unicode="&#xcc;" horiz-adv-x="760" d="M-6 2241l161 180l354 -389l-115 -127zM208 0v1782h345v-1782h-345z" />
<glyph unicode="&#xcd;" horiz-adv-x="760" d="M208 0v1782h345v-1782h-345zM238 2033l358 388l160 -180l-396 -341z" />
<glyph unicode="&#xce;" horiz-adv-x="760" d="M-12 1981l278 347h221l281 -347l-140 -88l-250 244l-250 -244zM208 0v1782h345v-1782h-345z" />
<glyph unicode="&#xcf;" horiz-adv-x="760" d="M-34 2074q0 70 50 118.5t119 48.5t119 -48.5t50 -118.5q0 -69 -50 -118t-119 -49t-119 49t-50 118zM208 0v1782h345v-1782h-345zM454 2074q0 46 22.5 84.5t61 60.5t84.5 22q70 0 118.5 -48.5t48.5 -118.5t-49 -118.5t-118 -48.5q-46 0 -84.5 22t-61 60.5t-22.5 84.5z" />
<glyph unicode="&#xd0;" horiz-adv-x="1764" d="M36 783v206h172v793h562q166 0 310.5 -45.5t252.5 -127t186 -192.5t117.5 -245t39.5 -281t-39.5 -281.5t-117.5 -245t-186 -192.5t-252.5 -127t-310.5 -45h-562v783h-172zM552 312h203q129 0 235.5 44t177.5 121.5t110 184t39 229.5t-39 229t-110 183.5t-177.5 122 t-235.5 44.5h-203v-481h282v-206h-282v-471z" />
<glyph unicode="&#xd1;" horiz-adv-x="1908" d="M193 0v1782h259l918 -1176v1176h346v-1782h-263l-915 1180v-1180h-345zM516 1904q0 156 73 255.5t196 99.5q142 0 233 -137q12 -17 19.5 -25t22.5 -16.5t34 -8.5q88 0 88 173h187q0 -101 -30 -180.5t-92.5 -127t-149.5 -47.5q-140 0 -232 137q-32 49 -72 49 q-45 0 -68 -48t-23 -124h-186z" />
<glyph unicode="&#xd2;" horiz-adv-x="2002" d="M87 890.5q0 124.5 33 243.5t91.5 219t143 184.5t184.5 143t219 91.5t243.5 33t243 -33t219 -91.5t185 -143t143.5 -184.5t91.5 -219t32.5 -243.5t-32.5 -243t-91.5 -218.5t-143.5 -184.5t-185 -143.5t-219 -91.5t-243 -32.5t-243.5 32.5t-219 91.5t-184.5 143.5 t-143 184.5t-91.5 218.5t-33 243zM421 891q0 -121 45 -228.5t122.5 -184.5t185 -122t227.5 -45q121 0 228.5 45t184.5 122t122 184.5t45 228.5t-45 228.5t-122 184.5t-184.5 122t-228.5 45q-120 0 -227.5 -45t-185 -122t-122.5 -184.5t-45 -228.5zM617 2241l161 180 l354 -389l-115 -127z" />
<glyph unicode="&#xd3;" horiz-adv-x="2002" d="M87 890.5q0 124.5 33 243.5t91.5 219t143 184.5t184.5 143t219 91.5t243.5 33t243 -33t219 -91.5t185 -143t143.5 -184.5t91.5 -219t32.5 -243.5t-32.5 -243t-91.5 -218.5t-143.5 -184.5t-185 -143.5t-219 -91.5t-243 -32.5t-243.5 32.5t-219 91.5t-184.5 143.5 t-143 184.5t-91.5 218.5t-33 243zM421 891q0 -121 45 -228.5t122.5 -184.5t185 -122t227.5 -45q121 0 228.5 45t184.5 122t122 184.5t45 228.5t-45 228.5t-122 184.5t-184.5 122t-228.5 45q-120 0 -227.5 -45t-185 -122t-122.5 -184.5t-45 -228.5zM861 2033l358 388 l160 -180l-396 -341z" />
<glyph unicode="&#xd4;" horiz-adv-x="2002" d="M87 890.5q0 124.5 33 243.5t91.5 219t143 184.5t184.5 143t219 91.5t243.5 33t243 -33t219 -91.5t185 -143t143.5 -184.5t91.5 -219t32.5 -243.5t-32.5 -243t-91.5 -218.5t-143.5 -184.5t-185 -143.5t-219 -91.5t-243 -32.5t-243.5 32.5t-219 91.5t-184.5 143.5 t-143 184.5t-91.5 218.5t-33 243zM421 891q0 -121 45 -228.5t122.5 -184.5t185 -122t227.5 -45q121 0 228.5 45t184.5 122t122 184.5t45 228.5t-45 228.5t-122 184.5t-184.5 122t-228.5 45q-120 0 -227.5 -45t-185 -122t-122.5 -184.5t-45 -228.5zM611 1981l278 347h221 l281 -347l-141 -88l-249 244l-250 -244z" />
<glyph unicode="&#xd5;" horiz-adv-x="2002" d="M87 890.5q0 124.5 33 243.5t91.5 219t143 184.5t184.5 143t219 91.5t243.5 33t243 -33t219 -91.5t185 -143t143.5 -184.5t91.5 -219t32.5 -243.5t-32.5 -243t-91.5 -218.5t-143.5 -184.5t-185 -143.5t-219 -91.5t-243 -32.5t-243.5 32.5t-219 91.5t-184.5 143.5 t-143 184.5t-91.5 218.5t-33 243zM421 891q0 -121 45 -228.5t122.5 -184.5t185 -122t227.5 -45q121 0 228.5 45t184.5 122t122 184.5t45 228.5t-45 228.5t-122 184.5t-184.5 122t-228.5 45q-120 0 -227.5 -45t-185 -122t-122.5 -184.5t-45 -228.5zM574 1904q0 156 73 255.5 t196 99.5q142 0 233 -137q12 -17 19.5 -25t22.5 -16.5t34 -8.5q88 0 88 173h187q0 -101 -30 -180.5t-92.5 -127t-149.5 -47.5q-140 0 -232 137q-32 49 -72 49q-45 0 -68 -48t-23 -124h-186z" />
<glyph unicode="&#xd6;" horiz-adv-x="2002" d="M87 890.5q0 124.5 33 243.5t91.5 219t143 184.5t184.5 143t219 91.5t243.5 33t243 -33t219 -91.5t185 -143t143.5 -184.5t91.5 -219t32.5 -243.5t-32.5 -243t-91.5 -218.5t-143.5 -184.5t-185 -143.5t-219 -91.5t-243 -32.5t-243.5 32.5t-219 91.5t-184.5 143.5 t-143 184.5t-91.5 218.5t-33 243zM421 891q0 -121 45 -228.5t122.5 -184.5t185 -122t227.5 -45q121 0 228.5 45t184.5 122t122 184.5t45 228.5t-45 228.5t-122 184.5t-184.5 122t-228.5 45q-120 0 -227.5 -45t-185 -122t-122.5 -184.5t-45 -228.5zM589 2074q0 70 50 118.5 t118 48.5q46 0 85 -22t62 -60.5t23 -84.5q0 -69 -50 -118t-120 -49q-33 0 -64 13t-53.5 35.5t-36.5 53.5t-14 65zM1076 2074q0 70 49.5 118.5t119 48.5t118.5 -48.5t49 -118.5t-49 -118.5t-118.5 -48.5t-119 49t-49.5 118z" />
<glyph unicode="&#xd7;" horiz-adv-x="1240" d="M126 495l308 309l-308 307l185 187l310 -307l307 307l186 -187l-310 -307l310 -309l-186 -185l-307 307l-310 -307z" />
<glyph unicode="&#xd8;" horiz-adv-x="2002" d="M87 891q0 124 33 243t91.5 219t143 184.5t184.5 143t219 91.5t243 33q241 0 448 -116l146 210l153 -93l-153 -219q151 -129 236 -310t85 -386q0 -125 -32.5 -243.5t-91.5 -218.5t-143.5 -184.5t-185 -143.5t-219 -91.5t-243.5 -32.5q-242 0 -447 116l-148 -212l-154 91 l155 223q-150 129 -235 310t-85 386zM421 891q0 -124 46.5 -233t131.5 -189l658 945q-117 57 -256 57q-120 0 -227.5 -45t-185 -122t-122.5 -184.5t-45 -228.5zM746 368q117 -57 255 -57q121 0 228.5 45t184.5 122t122 184.5t45 228.5q0 124 -46.5 232.5t-129.5 189.5z" />
<glyph unicode="&#xd9;" horiz-adv-x="1792" d="M172 603v1179h345v-1116q0 -112 50 -198.5t136 -133t193 -46.5t193 46.5t136 133t50 198.5v1116h347v-1179q0 -136 -56 -253t-152.5 -198.5t-230.5 -128t-287 -46.5q-123 0 -234 29.5t-199.5 85t-154 131.5t-101 173.5t-35.5 206.5zM512 2241l161 180l354 -389l-115 -127 z" />
<glyph unicode="&#xda;" horiz-adv-x="1792" d="M172 603v1179h345v-1116q0 -112 50 -198.5t136 -133t193 -46.5t193 46.5t136 133t50 198.5v1116h347v-1179q0 -136 -56 -253t-152.5 -198.5t-230.5 -128t-287 -46.5q-123 0 -234 29.5t-199.5 85t-154 131.5t-101 173.5t-35.5 206.5zM755 2033l359 388l160 -180l-397 -341 z" />
<glyph unicode="&#xdb;" horiz-adv-x="1792" d="M172 603v1179h345v-1116q0 -112 50 -198.5t136 -133t193 -46.5t193 46.5t136 133t50 198.5v1116h347v-1179q0 -136 -56 -253t-152.5 -198.5t-230.5 -128t-287 -46.5q-123 0 -234 29.5t-199.5 85t-154 131.5t-101 173.5t-35.5 206.5zM506 1981l277 347h222l280 -347 l-140 -88l-249 244l-251 -244z" />
<glyph unicode="&#xdc;" horiz-adv-x="1792" d="M172 603v1179h345v-1116q0 -112 50 -198.5t136 -133t193 -46.5t193 46.5t136 133t50 198.5v1116h347v-1179q0 -136 -56 -253t-152.5 -198.5t-230.5 -128t-287 -46.5q-123 0 -234 29.5t-199.5 85t-154 131.5t-101 173.5t-35.5 206.5zM484 2074q0 70 49.5 118.5t118.5 48.5 q45 0 84 -22t62 -60.5t23 -84.5q0 -69 -50 -118t-119 -49q-68 0 -118 49t-50 118zM971 2074q0 70 49 118.5t119 48.5t118.5 -48.5t48.5 -118.5t-48.5 -118.5t-118.5 -48.5q-46 0 -84.5 22t-61 60.5t-22.5 84.5z" />
<glyph unicode="&#xdd;" horiz-adv-x="1624" d="M16 1782h396l401 -634l404 634h391l-621 -940v-842h-346v835zM674 2033l358 388l160 -180l-396 -341z" />
<glyph unicode="&#xde;" horiz-adv-x="1514" d="M208 0v1779h334v-255h389q86 0 166 -26.5t144 -75t112 -114t74 -146.5t26 -169q0 -105 -41 -200t-110.5 -163t-166.5 -108.5t-204 -40.5h-389v-481h-334zM542 785h374q96 0 160 62.5t64 155.5q0 96 -63.5 157t-160.5 61h-374v-436z" />
<glyph unicode="&#xdf;" horiz-adv-x="1547" d="M166 0v1174q0 138 48 253t132 192.5t199 120t247 42.5q126 0 234.5 -38.5t185 -105.5t120.5 -160.5t44 -200.5q0 -100 -37 -188.5t-105 -158.5q114 -74 179 -189.5t65 -253.5q0 -104 -37.5 -197t-101.5 -158t-154.5 -101t-191.5 -31h-215v303h151q87 3 150.5 58.5 t63.5 146.5q0 105 -79 179t-191 74h-96v274h38q101 0 173.5 70t72.5 166q0 95 -74.5 156t-190.5 61q-64 0 -117.5 -20.5t-93 -60.5t-62 -103.5t-22.5 -144.5v-1159h-335z" />
<glyph unicode="&#xe0;" horiz-adv-x="1459" d="M72 561q0 125 43 234t116 185t171 120t206 44q221 0 351 -158v131h336v-1117h-307l-11 153q-132 -176 -369 -176q-108 0 -206 44t-171 120t-116 185.5t-43 234.5zM299 1580l162 180l353 -389l-115 -127zM407 561q0 -122 83.5 -208t203.5 -86t203.5 86t83.5 208 q0 81 -38 148t-104 106t-145 39q-120 0 -203.5 -85t-83.5 -208z" />
<glyph unicode="&#xe1;" horiz-adv-x="1459" d="M72 561q0 125 43 234t116 185t171 120t206 44q221 0 351 -158v131h336v-1117h-307l-11 153q-132 -176 -369 -176q-108 0 -206 44t-171 120t-116 185.5t-43 234.5zM407 561q0 -122 83.5 -208t203.5 -86t203.5 86t83.5 208q0 81 -38 148t-104 106t-145 39 q-120 0 -203.5 -85t-83.5 -208zM543 1372l358 388l160 -180l-396 -341z" />
<glyph unicode="&#xe2;" horiz-adv-x="1459" d="M72 561q0 125 43 234t116 185t171 120t206 44q221 0 351 -158v131h336v-1117h-307l-11 153q-132 -176 -369 -176q-108 0 -206 44t-171 120t-116 185.5t-43 234.5zM293 1320l278 347h221l281 -347l-140 -88l-250 244l-250 -244zM407 561q0 -122 83.5 -208t203.5 -86 t203.5 86t83.5 208q0 81 -38 148t-104 106t-145 39q-120 0 -203.5 -85t-83.5 -208z" />
<glyph unicode="&#xe3;" horiz-adv-x="1459" d="M72 561q0 125 43 234t116 185t171 120t206 44q221 0 351 -158v131h336v-1117h-307l-11 153q-132 -176 -369 -176q-108 0 -206 44t-171 120t-116 185.5t-43 234.5zM256 1242q0 157 73 256t196 99q142 0 234 -137q11 -16 18.5 -24.5t23 -16.5t33.5 -8q88 0 88 172h187 q0 -101 -30 -180t-92.5 -127t-148.5 -48q-141 0 -232 137q-33 50 -72 50q-45 0 -68.5 -48t-23.5 -125h-186zM407 561q0 -122 83.5 -208t203.5 -86t203.5 86t83.5 208q0 81 -38 148t-104 106t-145 39q-120 0 -203.5 -85t-83.5 -208z" />
<glyph unicode="&#xe4;" horiz-adv-x="1459" d="M72 561q0 125 43 234t116 185t171 120t206 44q221 0 351 -158v131h336v-1117h-307l-11 153q-132 -176 -369 -176q-108 0 -206 44t-171 120t-116 185.5t-43 234.5zM271 1485q0 69 50 118t119 49q45 0 84 -22.5t62 -61t23 -83.5q0 -69 -50 -118.5t-119 -49.5t-119 49.5 t-50 118.5zM407 561q0 -122 83.5 -208t203.5 -86t203.5 86t83.5 208q0 81 -38 148t-104 106t-145 39q-120 0 -203.5 -85t-83.5 -208zM759 1484.5q0 69.5 49 118.5t118.5 49t118.5 -49t49 -118.5t-49 -118.5t-118.5 -49t-118.5 49t-49 118.5z" />
<glyph unicode="&#xe5;" horiz-adv-x="1459" d="M72 561q0 125 43 234t116 185t171 120t206 44q221 0 351 -158v131h336v-1117h-307l-11 153q-132 -176 -369 -176q-108 0 -206 44t-171 120t-116 185.5t-43 234.5zM407 561q0 -122 83.5 -208t203.5 -86t203.5 86t83.5 208q0 81 -38 148t-104 106t-145 39 q-120 0 -203.5 -85t-83.5 -208zM411 1559q0 75 38 139.5t103 101.5t141 37q114 0 195.5 -81.5t81.5 -196.5t-81.5 -198t-195.5 -83q-116 0 -199 83t-83 198zM559 1559q0 -40 17.5 -71.5t48 -48.5t68.5 -17q57 0 96 38.5t39 98.5q0 56 -40 97.5t-95 41.5q-57 0 -95.5 -41.5 t-38.5 -97.5z" />
<glyph unicode="&#xe6;" horiz-adv-x="2020" d="M68 320q0 131 89.5 215t269.5 116q21 140 103 253q-49 -13 -85.5 -44.5t-54.5 -79.5l-269 83q55 139 178.5 210t310.5 71q121 0 217 -32q89 27 187 27q120 0 225 -40.5t182 -113t121.5 -180t44.5 -234.5v-75h-487l-178 -32h-162q14 -66 47 -114q24 32 39 68l183 -158 l-14 -19h10q55 0 103 16.5t88.5 50t66.5 81.5l263 -109q-66 -141 -202 -221t-317 -80q-149 0 -274 55q-128 -57 -270 -57q-196 0 -305.5 92.5t-109.5 250.5zM412 334q0 -47 29 -75.5t81 -36.5q-60 87 -84 184q-26 -28 -26 -72zM770 709h26v14q0 14 -3 37q-11 -21 -23 -51z M1101 872q30 -81 30 -163h115q-40 128 -145 163z" />
<glyph unicode="&#xe7;" horiz-adv-x="1245" d="M66 558q0 120 45.5 227.5t124 185t189.5 122.5t236 45q182 0 326.5 -96.5t209.5 -256.5l-278 -117q-33 78 -101.5 125t-156.5 47q-59 0 -111 -22t-89 -59.5t-58 -89.5t-21 -111q0 -119 80 -199.5t199 -80.5q88 0 156.5 46.5t101.5 123.5l278 -116q-60 -148 -188.5 -242.5 t-293.5 -108.5l-68 -123q116 21 197.5 -42t81.5 -173q0 -109 -75.5 -184.5t-184.5 -75.5q-89 0 -170 51.5t-109 125.5l152 51q12 -19 33 -35.5t46 -25.5t48 -9q42 0 71 29.5t29 72.5q0 66 -57 85.5t-138 -18.5l-123 72l109 205q-142 23 -254 103t-174.5 202.5t-62.5 265.5z " />
<glyph unicode="&#xe8;" horiz-adv-x="1300" d="M68 557q0 96 28.5 185t81.5 160.5t125 125t164.5 82.5t194.5 29q121 0 226 -40.5t182 -113t121 -180t44 -234.5v-75h-832q17 -121 89.5 -188t181.5 -67q83 0 150.5 38t106.5 110l264 -109q-66 -141 -202 -221t-318 -80q-108 0 -204 29t-169 82t-126 124t-80.5 159 t-27.5 184zM291 1581l161 180l354 -389l-115 -127zM419 709h475q-53 175 -228 175q-92 0 -155.5 -46t-91.5 -129z" />
<glyph unicode="&#xe9;" horiz-adv-x="1300" d="M68 557q0 96 28.5 185t81.5 160.5t125 125t164.5 82.5t194.5 29q121 0 226 -40.5t182 -113t121 -180t44 -234.5v-75h-832q17 -121 89.5 -188t181.5 -67q83 0 150.5 38t106.5 110l264 -109q-66 -141 -202 -221t-318 -80q-108 0 -204 29t-169 82t-126 124t-80.5 159 t-27.5 184zM419 709h475q-53 175 -228 175q-92 0 -155.5 -46t-91.5 -129zM535 1373l358 388l160 -180l-396 -341z" />
<glyph unicode="&#xea;" horiz-adv-x="1300" d="M68 557q0 96 28.5 185t81.5 160.5t125 125t164.5 82.5t194.5 29q121 0 226 -40.5t182 -113t121 -180t44 -234.5v-75h-832q17 -121 89.5 -188t181.5 -67q83 0 150.5 38t106.5 110l264 -109q-66 -141 -202 -221t-318 -80q-108 0 -204 29t-169 82t-126 124t-80.5 159 t-27.5 184zM285 1321l278 347h221l281 -347l-140 -88l-250 244l-250 -244zM419 709h475q-53 175 -228 175q-92 0 -155.5 -46t-91.5 -129z" />
<glyph unicode="&#xeb;" horiz-adv-x="1300" d="M68 557q0 96 28.5 185t81.5 160.5t125 125t164.5 82.5t194.5 29q121 0 226 -40.5t182 -113t121 -180t44 -234.5v-75h-832q17 -121 89.5 -188t181.5 -67q83 0 150.5 38t106.5 110l264 -109q-66 -141 -202 -221t-318 -80q-108 0 -204 29t-169 82t-126 124t-80.5 159 t-27.5 184zM263 1486q0 69 50 118t119 49q45 0 84 -22t62 -61t23 -84q0 -69 -50 -118.5t-119 -49.5t-119 49.5t-50 118.5zM419 709h475q-53 175 -228 175q-92 0 -155.5 -46t-91.5 -129zM751 1485.5q0 69.5 49 118.5t118.5 49t118.5 -48.5t49 -118.5t-49 -119t-118.5 -49 t-118.5 49t-49 118.5z" />
<glyph unicode="&#xec;" horiz-adv-x="667" d="M-50 1576l161 180l354 -388l-115 -128zM166 0v1117h335v-1117h-335z" />
<glyph unicode="&#xed;" horiz-adv-x="667" d="M166 0v1117h335v-1117h-335zM194 1369l358 387l160 -180l-396 -341z" />
<glyph unicode="&#xee;" horiz-adv-x="667" d="M-56 1317l278 346h221l281 -346l-141 -89l-249 244l-250 -244zM166 0v1117h335v-1117h-335z" />
<glyph unicode="&#xef;" horiz-adv-x="667" d="M-78 1481q0 69 50 118t118 49q70 0 120 -48.5t50 -118t-50 -119t-120 -49.5q-68 0 -118 49.5t-50 118.5zM166 0v1117h335v-1117h-335zM409 1481.5q0 69.5 49.5 118t119 48.5t118.5 -48.5t49 -118t-49 -119t-118.5 -49.5t-119 49.5t-49.5 119z" />
<glyph unicode="&#xf0;" horiz-adv-x="1366" d="M65 558q0 120 46 227t125.5 184.5t192 123t238.5 45.5q99 0 186 -28q-83 158 -220 268l-108 -138l-132 97l103 132q-120 65 -262 104l86 188q157 -26 319 -114l109 138l127 -97l-99 -127q83 -60 154.5 -132.5t135 -166.5t108.5 -199t71 -233t26 -266h-2v-14 q0 -122 -46 -228.5t-126 -181.5t-191.5 -118t-238.5 -43q-85 0 -164 20.5t-145 57.5t-120.5 90t-92.5 117t-59 139t-21 155zM382 558q0 -119 82.5 -201.5t202.5 -82.5q118 0 200 82.5t82 201.5q0 120 -82 202.5t-200 82.5q-120 0 -202.5 -82.5t-82.5 -202.5z" />
<glyph unicode="&#xf1;" horiz-adv-x="1349" d="M166 0v1117h335v-114q60 67 140.5 101t171.5 34q110 0 201.5 -55.5t144.5 -152.5t53 -214v-716h-334v672q0 81 -52 130t-132 49q-84 0 -138 -53.5t-55 -137.5v-660h-335zM268 1239q0 156 72.5 255.5t196.5 99.5q142 0 233 -137q12 -16 19.5 -24.5t22.5 -17t34 -8.5 q88 0 88 173h187q0 -75 -18 -139.5t-51 -112.5t-85.5 -75.5t-117.5 -27.5q-140 0 -232 137q-32 50 -72 50q-45 0 -68 -48.5t-23 -124.5h-186z" />
<glyph unicode="&#xf2;" horiz-adv-x="1322" d="M66 558q0 120 45.5 227t124 184.5t189.5 123t236 45.5t235.5 -45.5t189.5 -123t124.5 -184.5t45.5 -227t-45.5 -227t-124.5 -184t-189.5 -122.5t-235.5 -45.5t-236 45.5t-189.5 122.5t-124 184t-45.5 227zM277 1574l161 180l354 -389l-115 -127zM384 558 q0 -125 79.5 -205t196.5 -80t196.5 81t79.5 204q0 124 -79.5 206t-196.5 82t-196.5 -81.5t-79.5 -206.5z" />
<glyph unicode="&#xf3;" horiz-adv-x="1322" d="M66 558q0 120 45.5 227t124 184.5t189.5 123t236 45.5t235.5 -45.5t189.5 -123t124.5 -184.5t45.5 -227t-45.5 -227t-124.5 -184t-189.5 -122.5t-235.5 -45.5t-236 45.5t-189.5 122.5t-124 184t-45.5 227zM384 558q0 -125 79.5 -205t196.5 -80t196.5 81t79.5 204 q0 124 -79.5 206t-196.5 82t-196.5 -81.5t-79.5 -206.5zM521 1366l358 388l160 -180l-396 -341z" />
<glyph unicode="&#xf4;" horiz-adv-x="1322" d="M66 558q0 120 45.5 227t124 184.5t189.5 123t236 45.5t235.5 -45.5t189.5 -123t124.5 -184.5t45.5 -227t-45.5 -227t-124.5 -184t-189.5 -122.5t-235.5 -45.5t-236 45.5t-189.5 122.5t-124 184t-45.5 227zM271 1314l278 347h221l281 -347l-140 -88l-250 244l-250 -244z M384 558q0 -125 79.5 -205t196.5 -80t196.5 81t79.5 204q0 124 -79.5 206t-196.5 82t-196.5 -81.5t-79.5 -206.5z" />
<glyph unicode="&#xf5;" horiz-adv-x="1322" d="M66 558q0 120 45.5 227t124 184.5t189.5 123t236 45.5t235.5 -45.5t189.5 -123t124.5 -184.5t45.5 -227t-45.5 -227t-124.5 -184t-189.5 -122.5t-235.5 -45.5t-236 45.5t-189.5 122.5t-124 184t-45.5 227zM234 1237q0 156 73 255.5t196 99.5q142 0 234 -137 q11 -17 18.5 -25t23 -16.5t33.5 -8.5q88 0 88 173h187q0 -101 -30 -180.5t-92.5 -127t-149.5 -47.5q-140 0 -232 137q-32 49 -71 49q-45 0 -68.5 -48t-23.5 -124h-186zM384 558q0 -125 79.5 -205t196.5 -80t196.5 81t79.5 204q0 124 -79.5 206t-196.5 82t-196.5 -81.5 t-79.5 -206.5z" />
<glyph unicode="&#xf6;" horiz-adv-x="1322" d="M66 558q0 120 45.5 227t124 184.5t189.5 123t236 45.5t235.5 -45.5t189.5 -123t124.5 -184.5t45.5 -227t-45.5 -227t-124.5 -184t-189.5 -122.5t-235.5 -45.5t-236 45.5t-189.5 122.5t-124 184t-45.5 227zM249 1479q0 69 50 118t119 49q45 0 84 -22t62 -61t23 -84 q0 -69 -50 -118.5t-119 -49.5t-119 49.5t-50 118.5zM384 558q0 -125 79.5 -205t196.5 -80t196.5 81t79.5 204q0 124 -79.5 206t-196.5 82t-196.5 -81.5t-79.5 -206.5zM737 1478.5q0 69.5 49 118.5t118.5 49t118.5 -48.5t49 -118.5t-49 -119t-118.5 -49t-118.5 49t-49 118.5z " />
<glyph unicode="&#xf7;" horiz-adv-x="1231" d="M113 679v262h1005v-262h-1005zM432 374q0 70 52.5 123t122.5 53q46 0 87.5 -24.5t66 -65t24.5 -86.5q0 -75 -53 -126.5t-125 -51.5q-71 0 -123 51.5t-52 126.5zM432 1246q0 70 52.5 123.5t122.5 53.5q71 0 124.5 -53.5t53.5 -123.5q0 -74 -53 -125t-125 -51 q-71 0 -123 51t-52 125z" />
<glyph unicode="&#xf8;" horiz-adv-x="1322" d="M66 558q0 120 45.5 227t124 184.5t189.5 123t236 45.5q154 0 288 -70l86 123l95 -58l-87 -125q100 -80 156.5 -197t56.5 -253q0 -120 -45.5 -227t-124.5 -184t-189.5 -122.5t-235.5 -45.5q-158 0 -287 69l-86 -123l-98 56l90 128q-50 40 -89.5 89t-67 106t-42.5 121.5 t-15 132.5zM384 558q0 -117 71 -197l321 460q-56 25 -116 25q-117 0 -196.5 -81.5t-79.5 -206.5zM546 296q54 -23 114 -23q117 0 196.5 81t79.5 204q0 116 -71 196z" />
<glyph unicode="&#xf9;" horiz-adv-x="1294" d="M136 426v691h334v-665q0 -92 48.5 -141.5t127.5 -49.5q80 0 129.5 50t49.5 141v665h334v-691q0 -208 -134.5 -328.5t-378.5 -120.5q-243 0 -376.5 120.5t-133.5 328.5zM263 1576l162 180l353 -388l-114 -128z" />
<glyph unicode="&#xfa;" horiz-adv-x="1294" d="M136 426v691h334v-665q0 -92 48.5 -141.5t127.5 -49.5q80 0 129.5 50t49.5 141v665h334v-691q0 -208 -134.5 -328.5t-378.5 -120.5q-243 0 -376.5 120.5t-133.5 328.5zM507 1369l358 387l160 -180l-396 -341z" />
<glyph unicode="&#xfb;" horiz-adv-x="1294" d="M136 426v691h334v-665q0 -92 48.5 -141.5t127.5 -49.5q80 0 129.5 50t49.5 141v665h334v-691q0 -208 -134.5 -328.5t-378.5 -120.5q-243 0 -376.5 120.5t-133.5 328.5zM258 1317l277 346h221l281 -346l-140 -89l-250 244l-250 -244z" />
<glyph unicode="&#xfc;" horiz-adv-x="1294" d="M136 426v691h334v-665q0 -92 48.5 -141.5t127.5 -49.5q80 0 129.5 50t49.5 141v665h334v-691q0 -208 -134.5 -328.5t-378.5 -120.5q-243 0 -376.5 120.5t-133.5 328.5zM235 1481q0 69 50 118t119 49q45 0 84 -22t62 -60.5t23 -84.5q0 -69 -50 -118.5t-119 -49.5 t-119 49.5t-50 118.5zM723 1481.5q0 69.5 49 118t118.5 48.5t118.5 -48.5t49 -118t-49 -119t-118.5 -49.5t-118.5 49.5t-49 119z" />
<glyph unicode="&#xfd;" horiz-adv-x="1315" d="M-7 1117h367l304 -857l306 857h349l-671 -1675h-342l222 558h-77zM537 1369l359 387l160 -180l-397 -341z" />
<glyph unicode="&#xfe;" horiz-adv-x="1447" d="M167 -558v2340h335v-769q133 125 330 125q111 0 212.5 -45.5t175 -123t117 -185t43.5 -226.5t-43.5 -226.5t-117 -184.5t-175 -122.5t-212.5 -45.5q-197 0 -330 125v-664zM483 558q0 -118 82.5 -200t200.5 -82q117 0 198.5 82t81.5 200t-81.5 200.5t-198.5 82.5 q-78 0 -143 -37.5t-102.5 -102.5t-37.5 -143z" />
<glyph unicode="&#xff;" horiz-adv-x="1315" d="M-7 1117h367l304 -857l306 857h349l-671 -1675h-342l222 558h-77zM266 1481q0 69 49.5 118t118.5 49q45 0 84 -22t62 -60.5t23 -84.5q0 -69 -50 -118.5t-119 -49.5q-68 0 -118 49.5t-50 118.5zM753 1481.5q0 69.5 49 118t119 48.5t118.5 -48.5t48.5 -118t-48.5 -119 t-118.5 -49.5t-119 49.5t-49 119z" />
<glyph unicode="&#x152;" horiz-adv-x="2745" d="M87 890.5q0 124.5 33 243.5t91.5 219t143 184.5t184.5 143t219 91.5t243 33q181 0 345 -67.5t290 -187.5v232h991v-302h-711v-437h612v-304h-612v-437h711v-302h-991v232q-84 -80 -183.5 -136.5t-215 -87.5t-236.5 -31q-124 0 -243 32.5t-219 91.5t-184.5 143.5 t-143 184.5t-91.5 218.5t-33 243zM421 891q0 -119 45.5 -226.5t123 -185t185.5 -123t227 -45.5t226.5 45.5t184.5 123t122.5 185t45.5 226.5t-45.5 226.5t-122.5 185t-184.5 123t-226.5 45.5q-96 0 -185 -29t-160 -82.5t-124.5 -124.5t-82.5 -160t-29 -184z" />
<glyph unicode="&#x153;" horiz-adv-x="2200" d="M64 558q0 119 48 226.5t130 185t196.5 123t242.5 45.5q130 0 245 -46.5t200 -129.5q82 83 193.5 130t243.5 47q80 0 154 -18t136.5 -52t114.5 -84t88.5 -112.5t57 -139.5t22.5 -162l-5 -75h-828q17 -121 89 -188t182 -67q83 0 150 38t108 110l263 -109 q-44 -93 -118.5 -160.5t-177.5 -104t-224 -36.5q-138 0 -253 46.5t-197 129.5q-85 -83 -199.5 -129.5t-244.5 -46.5q-128 0 -242.5 45.5t-196.5 122.5t-130 184.5t-48 226.5zM394 558q0 -119 83.5 -201.5t203.5 -82.5q118 0 201 82.5t83 201.5q0 120 -83 202.5t-201 82.5 q-120 0 -203.5 -82.5t-83.5 -202.5zM1319 709h474q-53 175 -227 175q-61 0 -110.5 -21t-83.5 -60t-53 -94z" />
<glyph unicode="&#x178;" horiz-adv-x="1624" d="M16 1782h396l401 -634l404 634h391l-621 -940v-842h-346v835zM403 2074q0 70 49.5 118.5t118.5 48.5t119 -48.5t50 -118.5q0 -69 -50 -118t-119 -49t-118.5 49t-49.5 118zM890 2074q0 70 49 118.5t119 48.5t118.5 -48.5t48.5 -118.5t-48.5 -118.5t-118.5 -48.5t-119 49 t-49 118z" />
<glyph unicode="&#x2c6;" horiz-adv-x="885" d="M36 1435l277 347h222l280 -347l-140 -88l-249 243l-251 -243z" />
<glyph unicode="&#x2dc;" horiz-adv-x="1070" d="M148 1441q0 102 32 182t93.5 126.5t144.5 46.5q142 0 233 -137q11 -16 18.5 -24.5t23 -17t33.5 -8.5q88 0 88 173h187q0 -101 -30 -180t-92.5 -127t-148.5 -48q-140 0 -232 137q-33 50 -72 50q-31 0 -52 -23.5t-30.5 -62t-9.5 -87.5h-186z" />
<glyph unicode="&#x2000;" horiz-adv-x="1243" />
<glyph unicode="&#x2001;" horiz-adv-x="2486" />
<glyph unicode="&#x2002;" horiz-adv-x="1243" />
<glyph unicode="&#x2003;" horiz-adv-x="2486" />
<glyph unicode="&#x2004;" horiz-adv-x="828" />
<glyph unicode="&#x2005;" horiz-adv-x="621" />
<glyph unicode="&#x2006;" horiz-adv-x="414" />
<glyph unicode="&#x2007;" horiz-adv-x="414" />
<glyph unicode="&#x2008;" horiz-adv-x="310" />
<glyph unicode="&#x2009;" horiz-adv-x="497" />
<glyph unicode="&#x200a;" horiz-adv-x="138" />
<glyph unicode="&#x2010;" horiz-adv-x="1151" d="M160 435v246h832v-246h-832z" />
<glyph unicode="&#x2011;" horiz-adv-x="1151" d="M160 435v246h832v-246h-832z" />
<glyph unicode="&#x2012;" horiz-adv-x="1151" d="M160 435v246h832v-246h-832z" />
<glyph unicode="&#x2013;" horiz-adv-x="1508" d="M160 435v246h1188v-246h-1188z" />
<glyph unicode="&#x2014;" horiz-adv-x="2375" d="M0 435v246h2376v-246h-2376z" />
<glyph unicode="&#x2018;" horiz-adv-x="656" d="M109 1182q0 44 21 86l217 514h181l-141 -433q47 -24 75.5 -69t28.5 -98q0 -78 -57 -134.5t-134 -56.5q-78 0 -134.5 56.5t-56.5 134.5z" />
<glyph unicode="&#x2019;" horiz-adv-x="656" d="M129 1015l140 433q-30 15 -53.5 40.5t-36.5 58t-13 68.5q0 78 56.5 134.5t133.5 56.5q78 0 135 -56.5t57 -134.5q0 -44 -21 -86l-217 -514h-181z" />
<glyph unicode="&#x201a;" horiz-adv-x="656" d="M130 -434l140 433q-46 24 -74.5 69t-28.5 98q0 78 56.5 134.5t133.5 56.5q79 0 135.5 -56.5t56.5 -134.5q0 -44 -21 -86l-217 -514h-181z" />
<glyph unicode="&#x201c;" horiz-adv-x="1173" d="M109 1182q0 44 21 86l217 514h181l-141 -433q47 -24 75.5 -69t28.5 -98q0 -78 -57 -134.5t-134 -56.5q-78 0 -134.5 56.5t-56.5 134.5zM626 1182q0 44 21 86l217 514h181l-140 -433q30 -16 53 -41t36.5 -58t13.5 -68q0 -78 -56.5 -134.5t-133.5 -56.5q-78 0 -135 56.5 t-57 134.5z" />
<glyph unicode="&#x201d;" horiz-adv-x="1179" d="M129 1013l140 432q-22 12 -41 29.5t-33 39t-21.5 47t-7.5 51.5q0 78 56.5 135t133.5 57q78 0 135 -56.5t57 -135.5q0 -44 -21 -85l-217 -514h-181zM652 1014l140 433q-46 23 -74.5 68.5t-28.5 98.5q0 78 56.5 134.5t133.5 56.5q79 0 135.5 -56.5t56.5 -134.5 q0 -45 -21 -86l-217 -514h-181z" />
<glyph unicode="&#x201e;" horiz-adv-x="1175" d="M130 -434l140 433q-46 24 -74.5 69t-28.5 98q0 78 56.5 134.5t133.5 56.5q79 0 135.5 -56.5t56.5 -134.5q0 -44 -21 -86l-217 -514h-181zM647 -434l141 433q-47 24 -75.5 69t-28.5 98q0 78 57 134.5t134 56.5q78 0 134.5 -56.5t56.5 -134.5q0 -44 -21 -86l-217 -514h-181 z" />
<glyph unicode="&#x2022;" horiz-adv-x="1048" d="M152 780q0 73 30 142t80.5 119.5t119.5 81t143 30.5q73 0 141.5 -30.5t119 -81t81 -119.5t30.5 -142q0 -102 -51.5 -188t-136.5 -135t-184 -49t-185 49t-137 134.5t-51 188.5z" />
<glyph unicode="&#x2026;" horiz-adv-x="2271" d="M180 166q0 78 56.5 134.5t133.5 56.5q51 0 95 -25.5t70 -70t26 -95.5q0 -77 -56.5 -133t-134 -56t-134 56t-56.5 133zM942 166q0 78 56.5 134.5t134 56.5t134.5 -56.5t57 -134.5q0 -77 -57 -133t-134.5 -56t-134 56t-56.5 133zM1710 166q0 78 56.5 134.5t134 56.5 t134 -56.5t56.5 -134.5q0 -51 -26 -94.5t-70 -69t-95 -25.5q-77 0 -133.5 56t-56.5 133z" />
<glyph unicode="&#x202f;" horiz-adv-x="497" />
<glyph unicode="&#x2039;" horiz-adv-x="736" d="M48 558l360 437h266l-361 -437l361 -437h-266z" />
<glyph unicode="&#x203a;" horiz-adv-x="736" d="M63 121l360 437l-360 437h265l361 -437l-361 -437h-265z" />
<glyph unicode="&#x205f;" horiz-adv-x="621" />
<glyph unicode="&#x20ac;" horiz-adv-x="1981" d="M139 575v227h41q-5 38 -5 89q0 43 4 85h-40v226h90q63 176 189.5 312t301.5 213.5t370 77.5q201 0 386.5 -87t309.5 -237l-258 -207q-79 96 -193.5 150t-244.5 54q-158 0 -289 -74t-207 -202h730v-226h-808q-6 -47 -6 -85q0 -41 6 -89h808v-227h-728q77 -126 207 -198.5 t287 -72.5q130 0 244.5 53.5t193.5 150.5l258 -208q-82 -98 -192.5 -171t-240 -112.5t-263.5 -39.5q-194 0 -368.5 76.5t-301 212t-189.5 309.5h-92z" />
<glyph unicode="&#x2122;" horiz-adv-x="1842" d="M119 1636v146h540v-146h-192v-685h-160v685h-188zM769 951v831h174l239 -400l240 400h173v-831h-161v562l-251 -414l-252 412v-560h-162z" />
<glyph unicode="&#x25fc;" horiz-adv-x="1119" d="M0 0v1119h1119v-1119h-1119z" />
<glyph unicode="&#xfb03;" horiz-adv-x="2241" d="M43 857v260h198v280q0 190 112 302t300 112q143 0 188 -35v-300q-57 42 -130 42q-41 0 -71.5 -19.5t-46.5 -55.5t-16 -85v-241h409v280q0 94 29 171.5t82 130.5t130 82.5t170 29.5q142 0 188 -35v-300q-57 42 -130 42q-62 0 -98.5 -43t-36.5 -117v-241h755v-1117h-333 v857h-422v-857h-334v857h-409v-857h-336v857h-198zM1723 1494q0 77 55 131.5t133 54.5q37 0 71.5 -15t59.5 -39.5t40 -59t15 -72.5q0 -76 -55.5 -131.5t-130.5 -55.5q-78 0 -133 55t-55 132z" />
<glyph unicode="&#xfb04;" horiz-adv-x="2234" d="M48 853v264h194v280q0 190 111.5 302t299.5 112q143 0 188 -35v-300q-57 42 -130 42q-41 0 -71.5 -19.5t-46.5 -55.5t-16 -85v-241h409v280q0 94 29 171.5t82 130.5t130 82.5t170 29.5q142 0 188 -35v-300q-57 42 -130 42q-62 0 -98.5 -43t-36.5 -117v-241h269v-260h-7 v-4h-262v-853h-334v853h-409v-853h-335v853h-194zM1732 0v1782h335v-1782h-335z" />
</font>
</defs>
</svg>
