<?xml version="1.0" standalone="no"?>
<!DOCTYPE svg PUBLIC "-//W3C//DTD SVG 1.1//EN" "http://www.w3.org/Graphics/SVG/1.1/DTD/svg11.dtd" >
<svg xmlns="http://www.w3.org/2000/svg" xmlns:xlink="http://www.w3.org/1999/xlink" version="1.1">
<metadata></metadata>
<defs>
<font id="neue_hans_kendrickMdIt" horiz-adv-x="1487" >
<font-face units-per-em="2048" ascent="1536" descent="-512" />
<missing-glyph horiz-adv-x="586" />
<glyph unicode="&#xfb01;" horiz-adv-x="1397" d="M111 898l39 219h186l60 321q29 174 141.5 273t276.5 99q60 0 106.5 -12t67.5 -29l-28 -234q-38 37 -112 37q-48 0 -90 -24t-70 -65.5t-37 -93.5l-49 -272h712l-195 -1117h-262l157 898h-450l-157 -898h-265l157 898h-188zM1092 1492q10 58 58.5 98t106.5 40 q72 0 114.5 -51.5t29.5 -125.5q-10 -57 -57.5 -97.5t-104.5 -40.5q-72 0 -115.5 52t-31.5 125z" />
<glyph unicode="&#xfb02;" horiz-adv-x="1432" d="M111 898l39 219h189l57 321q29 174 141.5 273t276.5 99q60 0 106.5 -12t67.5 -29l-28 -234q-38 37 -112 37q-48 0 -90 -24t-70 -65.5t-37 -93.5l-48 -272h280l-37 -219h-281l-158 -898h-265l158 898h-189zM886 0l313 1782h265l-313 -1782h-265z" />
<glyph horiz-adv-x="0" />
<glyph horiz-adv-x="682" />
<glyph unicode=" "  horiz-adv-x="586" />
<glyph unicode="&#x09;" horiz-adv-x="586" />
<glyph unicode="&#xa0;" horiz-adv-x="586" />
<glyph unicode="!" horiz-adv-x="751" d="M136 157q10 59 60 101t109 42q73 0 117.5 -53.5t31.5 -128.5q-8 -38 -33 -70.5t-61.5 -51.5t-75.5 -19q-73 0 -116.5 53t-31.5 127zM235 552l217 1230h265l-217 -1230h-265z" />
<glyph unicode="&#x22;" horiz-adv-x="1185" d="M348 1031l115 751h249l-145 -751h-219zM783 1031l121 751h251l-150 -751h-222z" />
<glyph unicode="#" horiz-adv-x="1787" d="M61 405l61 191h334l167 509h-339l66 190h331l131 409h190l-127 -409h423l130 409h194l-131 -409h338l-65 -190h-333l-161 -509h333l-60 -191h-332l-133 -405h-192l129 405h-428l-125 -405h-194l129 405h-336zM652 596h423l164 509h-427z" />
<glyph unicode="$" horiz-adv-x="1545" d="M44 276l210 176q132 -237 379 -237q146 0 250.5 76t125.5 202q8 47 -4 87.5t-32 67.5t-67 58.5t-79 48t-98 47.5q-6 3 -9.5 4.5t-9 4t-9.5 4.5q-41 19 -65.5 30t-63 30.5t-62 35t-56 38t-51.5 45t-41.5 51t-33.5 59.5t-20 68t-8.5 79.5t9.5 90.5q23 130 100 231 t186.5 158.5t237.5 69.5l32 183h247l-36 -201q199 -54 331 -234l-183 -155q-32 43 -65 74.5t-63.5 51t-65 31.5t-65.5 16.5t-67 4.5q-77 0 -144 -29t-114.5 -85.5t-59.5 -131.5q-8 -46 3.5 -85.5t31.5 -66t65.5 -56t78 -45.5t95.5 -44q45 -19 71 -30.5t68.5 -31t68 -35.5 t60.5 -40t55.5 -47t44.5 -53.5t36 -64t21 -73.5t7.5 -86.5t-10.5 -98.5q-18 -102 -66 -186.5t-117 -144t-153.5 -97.5t-179.5 -54l-33 -185h-247l34 184q-158 25 -279.5 105t-190.5 185z" />
<glyph unicode="%" horiz-adv-x="1888" d="M136 0l1345 1782h267l-1341 -1782h-271zM180 1438q17 100 82 184.5t159.5 133.5t195.5 49q110 0 193.5 -54.5t121 -148t18.5 -203.5q-18 -101 -82.5 -187t-158.5 -135.5t-194 -49.5q-111 0 -195 55t-122 150t-18 206zM378 1399q-11 -69 28.5 -117t108.5 -48 q83 0 152.5 60t84.5 144q10 67 -29 114.5t-106 47.5q-55 0 -106.5 -27t-87.5 -73.5t-45 -100.5zM942 390q18 100 83 185t159 133.5t194 48.5q110 0 193.5 -54t122 -147.5t18.5 -204.5q-18 -100 -82 -185t-158 -135t-195 -50q-110 0 -194.5 55t-122 149t-18.5 205zM1140 351 q-6 -33 1.5 -63.5t26 -52.5t47 -35t62.5 -13q83 0 152.5 59.5t84.5 143.5q12 67 -28 114.5t-108 47.5q-83 0 -153 -59t-85 -142z" />
<glyph unicode="&#x26;" horiz-adv-x="1723" d="M110 512q9 50 25.5 94.5t37 82t55 76.5t66.5 70t84.5 71t96.5 71t113 79q-70 103 -95.5 191.5t-7.5 185.5q28 161 155.5 266t296.5 105q120 0 208 -51.5t126.5 -142.5t18.5 -203q-8 -43 -24 -82.5t-42.5 -75.5t-54.5 -66t-70.5 -64.5t-79 -61t-91.5 -64.5l238 -399 l304 311l155 -156l-334 -340l246 -410l-304 -2l-138 225q-139 -120 -269.5 -184.5t-262.5 -64.5q-117 0 -211 39t-154.5 108.5t-84.5 170.5t-3 221zM339 472q-9 -52 4 -101t42 -85t74 -58t98 -22q41 0 86 13t84 32t85 49.5t81 57.5t79 64l-263 432q-10 -7 -30 -20 q-45 -28 -67.5 -43.5t-62 -43.5t-61.5 -47.5t-51.5 -48.5t-46 -54.5t-31 -58t-20.5 -66.5zM703 1361.5q0 -16.5 2 -30t7.5 -30.5t10.5 -28t15 -29.5t16.5 -28.5t19.5 -31t19 -32q13 9 43.5 29.5t43 29t38 27t37.5 29.5t31 28.5t29 32t21.5 32.5t18 37t10.5 40 q12 68 -26.5 108t-104.5 42q-84 3 -148.5 -50.5t-80.5 -141.5q-2 -17 -2 -33.5z" />
<glyph unicode="'" horiz-adv-x="748" d="M347 1031l117 751h253l-150 -751h-220z" />
<glyph unicode="(" horiz-adv-x="765" d="M111 203.5q-18 259.5 39 584.5q82 459 271 798t441 495l121 -182q-211 -131 -376 -430.5t-239 -719.5q-50 -281 -40 -503t72 -377t172 -240l-152 -159q-133 104 -212 289t-97 444.5z" />
<glyph unicode=")" horiz-adv-x="765" d="M-142 -358q212 130 375.5 426t238.5 720q71 418 17 706t-219 418l152 157q99 -77 168.5 -203.5t106 -293t35.5 -377t-43 -446.5q-81 -463 -268.5 -798t-441.5 -494z" />
<glyph unicode="*" horiz-adv-x="1128" d="M278 1346l25 143l343 -24l-145 283l131 72l96 -302l203 302l122 -72l-243 -283l343 24l-24 -143l-344 22l149 -280l-135 -75l-95 302l-204 -302l-120 75l242 280z" />
<glyph unicode="+" horiz-adv-x="1390" d="M123 684v224h460v461h224v-461h461v-224h-461v-460h-224v460h-460z" />
<glyph unicode="," horiz-adv-x="729" d="M10 -436l214 441q-34 24 -50.5 64.5t-7.5 87.5q6 38 31 71t62 52.5t75 19.5q73 0 117 -54t32 -128q-7 -41 -38 -77l-266 -477h-169z" />
<glyph unicode="-" horiz-adv-x="1182" d="M158 458l35 200h831l-36 -200h-830z" />
<glyph unicode="." horiz-adv-x="738" d="M137 157q9 58 60 100.5t109 42.5q72 0 116 -54t32 -128q-7 -38 -32.5 -71t-62 -51.5t-75.5 -18.5q-72 0 -116 53t-31 127z" />
<glyph unicode="/" horiz-adv-x="1446" d="M-209 -433l1685 2412h256l-1681 -2412h-260z" />
<glyph unicode="0" d="M132.5 603q-4.5 142 22.5 308q35 196 108 361.5t175 283t232.5 183.5t276.5 66q121 0 218.5 -44.5t163 -126.5t104 -197.5t42 -258t-23.5 -307.5q-35 -195 -111 -361.5t-179 -283.5t-232.5 -183t-268.5 -66q-117 0 -213.5 44.5t-163 126.5t-106.5 197.5t-44.5 257.5z M402 523q16 -146 85 -228t180 -82q119 0 224.5 86.5t182 244.5t114.5 367q27 156 21 275.5t-40.5 201t-93 123t-135.5 41.5q-86 0 -167 -45.5t-149.5 -130.5t-122 -214.5t-81.5 -290.5q-34 -202 -18 -348z" />
<glyph unicode="1" d="M495 1529l46 253h627l-313 -1782h-270l269 1529h-359z" />
<glyph unicode="2" d="M19 0l11 115q232 198 402 350.5t289 270t195 202t121 155.5t65 121.5t30 107.5q11 63 -2 111t-45.5 76.5t-76 43t-96.5 14.5q-139 0 -237 -86.5t-122 -226.5l-278 20q29 162 122.5 284.5t231 186.5t298.5 63q120 0 217 -37t160 -103t88 -162t6 -210q-14 -81 -46.5 -160 t-87.5 -161t-122.5 -161t-164.5 -172.5t-199 -183.5t-241 -205h754l-44 -253h-1228z" />
<glyph unicode="3" d="M92 331q-18 87 0 188l269 -17q-13 -70 3.5 -124.5t56 -89t97 -52.5t129.5 -18q170 0 287.5 90t144.5 241q24 136 -57.5 210.5t-238.5 74.5h-169l40 229h137q82 0 154 35t120.5 99t62.5 145q19 104 -39 164t-176 60q-127 0 -218 -67.5t-110 -179.5l-267 18 q19 108 74.5 197t135.5 148t180 91t208 32q116 0 212 -36t159 -99t90.5 -153t8.5 -195q-23 -125 -104 -217t-201 -141q69 -21 123.5 -61t91.5 -99t49 -136t-4 -172q-27 -156 -127 -275t-248 -181.5t-323 -62.5q-106 0 -199 23t-165.5 69t-120.5 110.5t-66 151.5z" />
<glyph unicode="4" d="M16 361l34 204l960 1217h348l-207 -1176h298l-44 -245h-297l-64 -361h-269l64 361h-823zM350 606h532l157 900z" />
<glyph unicode="5" d="M113 517l278 -9q0 -71 23 -124.5t63 -84t89 -45.5t106 -15q156 0 277 107.5t151 276.5q14 78 0.5 142t-48.5 109t-88.5 70t-119.5 25q-95 0 -193.5 -49.5t-167.5 -131.5l-285 8l344 986h973l-45 -248h-768l-149 -448q81 56 173 83.5t182 27.5q119 0 216.5 -43.5 t161.5 -120.5t89 -191t1 -248q-24 -135 -91.5 -250.5t-163.5 -195t-217 -124.5t-250 -45q-96 0 -182.5 23t-157 69t-120 110t-71.5 150.5t-10 185.5z" />
<glyph unicode="6" d="M108 594q30 210 219 418l743 770h324l-604 -614q60 13 128 13q79 0 155.5 -27.5t139.5 -81t108 -124.5t63.5 -164t2.5 -195q-18 -123 -86 -236.5t-164.5 -195t-219 -130t-247.5 -48.5q-134 0 -248 47.5t-189 128.5t-109.5 195.5t-15.5 243.5zM369 558q-17 -149 70 -238.5 t247 -89.5q113 0 210.5 53.5t159 144t73.5 198.5q11 102 -25 181t-109 121t-170 42q-90 0 -170.5 -32.5t-139.5 -88t-97.5 -131t-48.5 -160.5z" />
<glyph unicode="7" d="M99 0l1133 1535h-943l43 247h1272l-31 -189l-1154 -1593h-320z" />
<glyph unicode="8" d="M147 544q26 148 123.5 267.5t239.5 183.5q-77 62 -105.5 158t-6.5 216q16 91 66 172t122.5 139t166.5 91.5t195 33.5q107 0 194.5 -37t143.5 -100t79.5 -151.5t5.5 -187.5q-10 -56 -30 -107.5t-50 -96t-69.5 -81.5t-88.5 -65q118 -74 171.5 -198t26.5 -275 q-26 -148 -122.5 -269t-241.5 -190.5t-308 -69.5q-128 0 -233.5 44t-173.5 119.5t-96.5 180.5t-8.5 223zM416 527q-13 -86 16 -158t92 -114t148 -42q94 0 180 47.5t143.5 128.5t71.5 176q14 85 -15 154.5t-93.5 109t-149.5 39.5q-143 0 -256.5 -98.5t-136.5 -242.5z M625 1296q-15 -98 42 -164t157 -66q112 0 201 78t106 191q16 98 -40.5 165t-154.5 67q-113 0 -202.5 -78.5t-108.5 -192.5z" />
<glyph unicode="9" d="M81 0l605 614q-61 -13 -128 -13q-80 0 -156.5 27.5t-139.5 81t-108 124t-63 164t-3 194.5q15 100 61.5 193t116.5 168t155.5 131.5t184.5 87.5t199 31q135 0 248.5 -47.5t189 -128.5t109.5 -195.5t16 -243.5q-30 -211 -220 -418l-742 -770h-325zM347 1155 q-12 -102 24 -180.5t109 -120.5t171 -42q90 0 170.5 32.5t139.5 88t97.5 131t48.5 160.5q8 74 -10.5 135t-60 103.5t-104.5 66t-142 23.5q-113 0 -211 -53.5t-159 -144t-73 -199.5z" />
<glyph unicode=":" horiz-adv-x="716" d="M126 157q9 58 59.5 100.5t109.5 42.5q72 0 116 -54t32 -128q-10 -59 -60 -100t-109 -41q-73 0 -117 53t-31 127zM288 1070q3 22 14 43.5t27.5 39t37 30.5t43.5 20.5t46 7.5q73 0 117 -53.5t31 -126.5q-10 -59 -60 -101.5t-109 -42.5q-73 0 -117 54t-30 129z" />
<glyph unicode=";" horiz-adv-x="714" d="M-15 -436l213 441q-34 24 -50 64.5t-8 87.5q9 58 59.5 100.5t109.5 42.5q72 0 116 -54t32 -128q-7 -41 -37 -77l-267 -477h-168zM300 1070q5 28 21 54t39 45t51.5 30.5t58.5 11.5q72 0 116 -53.5t32 -126.5q-10 -59 -60 -101.5t-109 -42.5q-74 0 -118 54t-31 129z" />
<glyph unicode="&#x3c;" horiz-adv-x="1563" d="M103 725v268l1312 658v-247l-1080 -546l1080 -545v-252z" />
<glyph unicode="=" horiz-adv-x="1470" d="M275 438v223h922v-223h-922zM275 934v224h922v-224h-922z" />
<glyph unicode="&#x3e;" horiz-adv-x="1563" d="M148 61v252l1080 545l-1080 546v247l1311 -658v-268z" />
<glyph unicode="?" horiz-adv-x="1248" d="M195 1277q27 151 115.5 269.5t220 184t282.5 65.5q119 0 216.5 -40t160 -108.5t88 -165t6.5 -205.5q-11 -64 -32.5 -117.5t-48.5 -91t-59.5 -69.5t-67 -53t-70.5 -42t-69 -37.5t-64 -37.5t-55 -42.5t-41 -53.5t-24 -71l-23 -134h-240l25 146q12 71 36.5 127t56 92 t69 64.5t76.5 49t78 40t75.5 42.5t66.5 52t52.5 73t32.5 101q13 76 -14.5 135t-88.5 91t-145 32q-140 0 -248.5 -90t-134.5 -224zM390 157q9 59 59.5 101t109.5 42q74 0 117 -53.5t30 -128.5q-10 -59 -59 -100t-109 -41q-73 0 -117 53t-31 127z" />
<glyph unicode="@" horiz-adv-x="2031" d="M142.5 367.5q-11.5 118.5 12.5 250.5q19 106 60 206t100 186t133 160.5t161.5 132.5t183 99.5t199.5 63t209 21.5q134 0 253 -32t215.5 -95.5t160 -158t87 -219t-3.5 -278.5q-20 -113 -61.5 -207.5t-94.5 -159.5t-117.5 -110t-131 -66t-133.5 -21q-99 0 -152 46.5 t-55 113.5q-20 -27 -49 -53t-67.5 -50.5t-89 -39t-102.5 -14.5q-110 0 -182.5 52.5t-99 144t-6.5 209.5q17 96 65 188.5t118 166t164.5 118.5t196.5 45q97 0 161 -43t80 -105l3 9l41 107l168 -10q-12 -34 -76 -206.5t-100 -270.5q-11 -29 -19 -50.5t-15.5 -45t-10.5 -41 t-4 -34.5t3.5 -29t12.5 -21t22 -13.5t33 -4.5q50 0 100 29.5t93.5 82.5t77 132t49.5 172q26 142 -2 255.5t-100.5 186.5t-182 111.5t-247.5 38.5q-128 0 -248 -36.5t-219.5 -103.5t-178.5 -158t-132 -204.5t-75 -237.5q-28 -159 2.5 -289t108.5 -216.5t197.5 -133.5 t268.5 -47q330 0 589 184l94 -147q-299 -209 -694 -209q-132 0 -248 30t-207 85.5t-160 135.5t-108 179.5t-50.5 218zM758 467.5q-1 -17.5 0.5 -37.5t6 -37.5t14.5 -33.5t24 -27.5t35.5 -18.5t48.5 -7q58 0 112 24.5t93.5 63t72 88.5t52.5 100t30 99q10 46 10 84t-11.5 70.5 t-42.5 51t-80 18.5q-53 0 -104 -24t-92 -64t-75 -91.5t-57 -108.5t-33 -114q-3 -18 -4 -35.5z" />
<glyph unicode="A" horiz-adv-x="1591" d="M-100 0l1022 1782h173l397 -1782h-300l-52 281h-786l-152 -281h-302zM484 521h612l-156 843z" />
<glyph unicode="B" horiz-adv-x="1597" d="M132 0l313 1782h642q111 0 202.5 -36.5t151.5 -101.5q61 -64 85 -158q13 -52 13 -109q0 -46 -9 -96q-23 -135 -98 -230.5t-192 -148.5q134 -51 196 -165q41 -77 41 -177q0 -49 -10 -103q-23 -137 -107 -242t-205.5 -160t-261.5 -55h-761zM445 253h439q122 0 214.5 75.5 t112.5 193.5q4 24 4 46q0 42 -15 79q-23 56 -80.5 89.5t-140.5 33.5h-444zM577 1012h359q120 0 213 78t114 196q5 26 5 50q0 76 -48 126q-63 68 -181 67h-373z" />
<glyph unicode="C" horiz-adv-x="1751" d="M146 696q-1 21 0 42q0 84 14 173q22 122 74 238t127 214t172 180.5t205.5 140t230.5 89.5t244 32q104 0 199.5 -22t177 -63.5t149 -100.5t118.5 -132l-230 -154q-69 99 -178.5 152.5t-245.5 53.5t-267 -52t-234.5 -141t-176.5 -213t-96 -262q-10 -56 -9 -110 q0 -69 15 -133q28 -116 95.5 -199t174 -131.5t235.5 -48.5q143 0 279.5 57t246.5 159l188 -184q-99 -94 -215 -162t-247.5 -105t-263.5 -37q-109 0 -210 24.5t-184 70t-153.5 110t-119 144.5t-80 173t-35.5 197z" />
<glyph unicode="D" horiz-adv-x="1752" d="M132 0l313 1782h519q111 0 212 -24t182.5 -68.5t149 -108t112.5 -141.5t73.5 -169t31.5 -191q0 -15 1 -31q0 -86 -15 -178q-31 -179 -125 -339t-229.5 -277.5t-315 -186t-373.5 -68.5h-536zM449 256h238q136 0 263 50t226 137t168 208t93 260q12 64 12 124q0 63 -13 121 q-25 114 -91 195t-173.5 127.5t-243.5 46.5h-255z" />
<glyph unicode="E" horiz-adv-x="1376" d="M132 0l313 1782h1029l-45 -252h-755l-91 -513h657l-46 -253h-655l-90 -512h755l-43 -252h-1029z" />
<glyph unicode="F" horiz-adv-x="1324" d="M132 0l313 1782h1029l-45 -252h-755l-89 -513h655l-46 -253h-655l-133 -764h-274z" />
<glyph unicode="G" horiz-adv-x="1895" d="M148 696v41q0 84 14 174q19 105 60 206t100.5 189t134 165.5t163.5 138.5t185 104.5t201 67t211 23.5q191 0 360 -82.5t271 -220.5l-221 -161q-69 96 -180.5 147.5t-240.5 51.5q-137 0 -268 -51.5t-234.5 -140.5t-176 -213.5t-97.5 -263.5q-10 -60 -10 -116 q0 -68 14 -132q28 -117 95.5 -200.5t174.5 -132.5t237 -49q142 0 278 55.5t237 157.5l46 271h-465l43 242h733l-168 -967h-212l-4 144q-112 -84 -241 -125.5t-258 -41.5q-109 0 -210 24.5t-184.5 70t-154 110t-119 144t-79 173t-35.5 197.5z" />
<glyph unicode="H" horiz-adv-x="1881" d="M132 0l313 1782h275l-134 -761h874l134 761h274l-314 -1782h-273l134 763h-874l-135 -763h-274z" />
<glyph unicode="I" horiz-adv-x="733" d="M132 0l313 1782h275l-314 -1782h-274z" />
<glyph unicode="J" horiz-adv-x="1219" d="M-59 87l149 223q47 -38 117.5 -58t139.5 -20q80 0 150.5 29.5t122.5 81t87 120.5t48 148l207 1171h275l-220 -1238q-29 -166 -122 -294.5t-238.5 -200.5t-320.5 -72q-236 0 -395 110z" />
<glyph unicode="K" horiz-adv-x="1611" d="M132 0l313 1782h275l-147 -835l850 835h355l-913 -880l619 -902h-348l-578 858l-152 -858h-274z" />
<glyph unicode="L" horiz-adv-x="1173" d="M132 0l313 1782h275l-268 -1526h631l-45 -256h-906z" />
<glyph unicode="M" horiz-adv-x="2171" d="M107 0l313 1782h186l497 -1100l895 1100h187l-313 -1782h-271l205 1172l-779 -970l-441 971l-206 -1173h-273z" />
<glyph unicode="N" horiz-adv-x="1829" d="M107 0l313 1782h105l833 -1207l213 1207h272l-313 -1782h-107l-830 1209l-213 -1209h-273z" />
<glyph unicode="O" horiz-adv-x="2025" d="M148 696q-1 22 -1 44q0 83 13 171q18 104 59.5 205t101 189t134.5 165.5t163.5 138.5t184.5 105t201.5 67.5t210.5 23.5q109 0 209.5 -24.5t184 -70t154 -110.5t119 -145t79.5 -173q31 -92 35 -196q1 -19 1 -38q0 -86 -15 -177q-21 -122 -73.5 -238t-127.5 -214 t-172.5 -180.5t-206 -140t-230.5 -89.5t-244 -32q-109 0 -209.5 24.5t-184 70t-153.5 110t-118.5 144.5t-79.5 173t-35 197zM429 871q-10 -57 -9 -111q0 -70 16 -135q28 -116 96.5 -199.5t175.5 -132t236 -48.5q137 0 268 52t233.5 141t174 212t94.5 261q10 57 10 111 q0 69 -16 134q-28 116 -96 199.5t-175.5 132.5t-237.5 49q-136 0 -267 -52t-233.5 -141t-174.5 -212t-95 -261z" />
<glyph unicode="P" horiz-adv-x="1588" d="M132 0l313 1782h745q116 0 211 -42.5t155 -113.5q60 -72 84 -170q14 -55 13 -114q0 -46 -8 -93q-24 -137 -110 -247.5t-218.5 -174.5t-285.5 -64h-493l-132 -763h-274zM580 1006h459q131 0 226.5 71.5t118.5 198.5q4 25 4 49q0 79 -50 134q-65 71 -183 71h-483z" />
<glyph unicode="Q" horiz-adv-x="2079" d="M148 696q-1 22 -1 44q0 83 13 171q18 104 59.5 205t101 189t134.5 165.5t163.5 138.5t184.5 105t201.5 67.5t210.5 23.5q109 0 209.5 -24.5t184 -70t154 -110.5t119 -145t79.5 -173t35 -196q1 -19 1 -38q0 -86 -15 -177q-51 -291 -263 -525l190 -217l-193 -168l-182 219 q-136 -98 -291 -150.5t-315 -52.5q-109 0 -209.5 24.5t-184 70t-153.5 110t-118.5 144.5t-79.5 173.5t-35 196.5zM426 871q-10 -57 -10 -111q0 -70 16 -135q29 -116 97.5 -199.5t176 -132t238.5 -48.5q227 0 424 132l-166 200l178 156l169 -191q135 164 169 369 q10 57 10 111q0 69 -16 134q-29 116 -97.5 199.5t-176 132.5t-239.5 49q-137 0 -269 -52t-235 -141t-175 -212t-94 -261z" />
<glyph unicode="R" horiz-adv-x="1646" d="M132 0l313 1782h759q74 0 140.5 -19t119 -54t93.5 -83.5t63.5 -107.5t30.5 -127q3 -25 3 -50q0 -45 -9 -92q-30 -172 -156.5 -301t-300.5 -170l272 -778h-290l-262 763h-370l-132 -763h-274zM580 1006h441q140 0 240 72t123 199q5 27 5 51q0 78 -47 132q-61 70 -183 70 h-487z" />
<glyph unicode="S" horiz-adv-x="1350" d="M14 276l210 176q131 -237 379 -237q146 0 250 76t126 202q3 19 3 37q0 26 -7 50q-12 40 -32 67.5t-67 59t-79 48t-98 47.5q-19 9 -29 13q-40 19 -64.5 30t-63 30.5t-62 35t-56 38t-52 45t-41.5 51t-33.5 59.5t-19.5 68q-8 35 -9 75q0 44 9 95q19 107 75.5 195t136.5 146 t178 90t203 32q317 0 506 -256l-183 -155q-76 102 -154 140t-172 38q-77 0 -144 -29t-114.5 -85.5t-59.5 -131.5q-4 -20 -4 -38q0 -26 7 -48q12 -40 32 -66t65.5 -55.5t78 -45.5t95.5 -44q45 -19 71 -30.5t68.5 -31t68 -35.5t60.5 -40t55.5 -47t44.5 -53.5t36 -63.5 q10 -34 20 -74q8 -35 9 -74q-1 -6 -1 -12q-2 -46 -10 -99q-17 -95 -60 -175t-104.5 -138t-138.5 -98.5t-162.5 -60.5t-174.5 -20q-104 0 -199 25t-169 68.5t-130 95.5t-94 110z" />
<glyph unicode="T" horiz-adv-x="1296" d="M208 1525l46 257h1222l-47 -257h-473l-268 -1525h-274l269 1525h-475z" />
<glyph unicode="U" horiz-adv-x="1780" d="M196 603l209 1179h275l-204 -1150q-8 -43 -8 -83q0 -69 24 -126q36 -91 119.5 -140.5t200.5 -49.5q75 0 147 20.5t133 58t110.5 88.5t82.5 115.5t46 135.5l199 1131h274l-212 -1197q-32 -178 -144.5 -317t-281 -215t-363.5 -76q-152 0 -276.5 47.5t-204.5 129.5 q-82 84 -116 200q-20 69 -20 143q0 51 10 106z" />
<glyph unicode="V" horiz-adv-x="1577" d="M211 1782h292l265 -1326l731 1326h304l-1023 -1782h-174z" />
<glyph unicode="W" horiz-adv-x="2335" d="M211 1782h290l262 -1384l358 643l-171 741h278l83 -399l221 399h290l-439 -754l130 -631l747 1385h301l-1012 -1782h-191l-162 708l-412 -708h-195z" />
<glyph unicode="X" horiz-adv-x="1598" d="M-59 0l777 919l-430 863h314l297 -645l532 645h328l-747 -881l447 -901h-313l-315 684l-558 -684h-332z" />
<glyph unicode="Y" horiz-adv-x="1548" d="M231 1782h318l315 -683l560 683h325l-790 -943l-147 -839h-274l149 843z" />
<glyph unicode="Z" horiz-adv-x="1568" d="M-65 0l2 36l1276 1489h-909l45 257h1391l-1 -27l-1285 -1499h973l-45 -256h-1447z" />
<glyph unicode="[" horiz-adv-x="792" d="M16 -594l476 2691h537l-34 -192h-306l-406 -2305h306l-36 -194h-537z" />
<glyph unicode="\" horiz-adv-x="1432" d="M216 1979h246l831 -2412h-243z" />
<glyph unicode="]" horiz-adv-x="792" d="M-169 -594l34 194h307l407 2305h-306l33 192h537l-475 -2691h-537z" />
<glyph unicode="^" horiz-adv-x="1722" d="M61 471l895 1311h238l427 -1311h-215l-363 1103l-748 -1103h-234z" />
<glyph unicode="_" horiz-adv-x="1685" d="M104 -259l35 200h1188l-35 -200h-1188z" />
<glyph unicode="`" horiz-adv-x="576" d="M234 1654l160 152l290 -383l-105 -104z" />
<glyph unicode="a" horiz-adv-x="1455" d="M84 579q20 117 81.5 222t146 179t189 117t210.5 43q129 0 221.5 -49t147.5 -135l27 161h265l-195 -1117h-250l20 147q-170 -169 -404 -169q-113 0 -208.5 46.5t-158.5 125.5q-62 80 -88 192q-14 61 -14 125q0 55 10 112zM342 541q-4 -28 -4 -55q0 -58 20 -108 q30 -74 97 -117t155 -43q98 0 187.5 48.5t149.5 131t76 181.5q5 29 5 57q0 56 -20 106q-30 74 -97 116.5t-156 42.5q-97 0 -186.5 -48t-150 -131t-76.5 -181z" />
<glyph unicode="b" horiz-adv-x="1455" d="M85 0l313 1782h264l-138 -798q165 156 389 156q112 0 208 -46t159 -125.5t89 -191.5q14 -61 14 -125q0 -54 -10 -111q-20 -118 -81.5 -223.5t-146.5 -179.5t-190 -117t-210 -43q-135 0 -228 52t-147 143l-35 -173h-250zM434 541q-5 -30 -5 -58q0 -56 20 -105 q30 -74 97 -117t155 -43q97 0 186.5 48.5t150 131.5t76.5 181q4 28 4 55q0 58 -20 108q-30 74 -97 116.5t-155 42.5q-97 0 -186.5 -48t-149.5 -131t-76 -181z" />
<glyph unicode="c" horiz-adv-x="1264" d="M79 578q14 77 46.5 150t80 134.5t108.5 113t130 87t148 55.5t159 20q183 0 313.5 -98.5t172.5 -256.5l-239 -80q-18 59 -54 101.5t-89.5 65.5t-117.5 23q-151 0 -268 -102t-141 -252q-5 -29 -5 -56q0 -57 20 -105q29 -72 95.5 -113t156.5 -41q72 0 140.5 27.5t121 73.5 t88.5 107l214 -118q-93 -155 -248 -245t-330 -90q-126 0 -230.5 47t-170.5 127q-67 81 -95 191q-16 62 -16 127q0 52 10 107z" />
<glyph unicode="d" horiz-adv-x="1458" d="M84 579q20 117 81.5 222t146 179t189 117t210.5 43q131 0 223.5 -50t146.5 -138l145 830h265l-314 -1782h-250l20 147q-170 -169 -404 -169q-113 0 -208.5 46.5t-158.5 125.5q-62 80 -88 192q-14 61 -14 125q0 55 10 112zM342 541q-4 -28 -4 -55q0 -58 20 -108 q30 -74 97 -117t155 -43q98 0 187.5 48.5t149.5 131t76 181.5q5 29 5 57q0 56 -20 106q-30 74 -97 116.5t-156 42.5q-97 0 -186.5 -48t-150 -131t-76.5 -181z" />
<glyph unicode="e" horiz-adv-x="1310" d="M81 577q20 115 82 219t150.5 179.5t202.5 119.5t235 44q122 0 224 -43.5t168 -119.5q65 -76 93 -184q15 -60 16 -125q0 -52 -10 -106l-7 -47h-907q-3 -25 -3 -49q1 -109 61 -180q74 -87 204 -87q96 0 185 45.5t152 123.5l209 -100q-94 -137 -237 -212.5t-310 -75.5 q-131 0 -237.5 47t-172.5 128q-67 80 -93 190q-15 61 -14 127q0 52 9 106zM386 699h610q-12 100 -77 162t-168 62q-115 0 -211 -60t-154 -164z" />
<glyph unicode="f" horiz-adv-x="801" d="M111 898l39 219h189l57 321q29 174 141.5 273t276.5 99q60 0 106.5 -12t67.5 -29l-28 -234q-38 37 -112 37q-48 0 -90 -24t-70 -65.5t-37 -93.5l-48 -272h280l-37 -219h-281l-158 -898h-265l158 898h-189z" />
<glyph unicode="g" horiz-adv-x="1461" d="M-19 -285l191 141q46 -96 129 -147.5t185 -51.5t194 48t156 133.5t83 191.5l17 102q-156 -154 -377 -154q-119 0 -219 46.5t-164 126t-90 191.5q-14 60 -14 125q0 54 10 112q29 158 124.5 287t232.5 201.5t287 72.5q247 0 356 -181l27 158h266l-194 -1105 q-24 -133 -88.5 -244.5t-156.5 -187.5t-207.5 -118t-241.5 -42q-163 0 -301 79t-205 216zM341 541q-4 -28 -4 -55q0 -58 20 -108q30 -74 96.5 -117t155.5 -43q96 0 186 48.5t150.5 131.5t75.5 181q5 29 5 57q0 56 -20 106q-31 74 -98 116.5t-154 42.5q-73 0 -143.5 -28.5 t-125.5 -76.5t-93.5 -115t-50.5 -140z" />
<glyph unicode="h" horiz-adv-x="1291" d="M85 0l312 1782h265l-132 -752q129 108 292 108q114 0 201 -57t126 -155q26 -64 26 -135q0 -37 -7 -75l-126 -716h-265l122 690q4 25 4 48q0 66 -35 109q-47 58 -131 58q-91 0 -164 -55.5t-99 -138.5l-125 -711h-264z" />
<glyph unicode="i" horiz-adv-x="625" d="M85 0l195 1117h262l-195 -1117h-262zM319 1492q10 58 58.5 98t107.5 40q71 0 114 -52q33 -40 33 -92q0 -16 -3 -33q-7 -37 -31 -69t-59 -50.5t-73 -18.5q-72 0 -115 52q-34 41 -34 96q0 14 2 29z" />
<glyph unicode="j" horiz-adv-x="631" d="M-13 -558l295 1675h262l-295 -1675h-262zM320 1492q11 59 59.5 98.5t107.5 39.5q71 0 114 -52q33 -39 33 -92q0 -16 -3 -33q-11 -57 -58.5 -97.5t-103.5 -40.5q-73 0 -117 53q-34 41 -34 96q0 13 2 28z" />
<glyph unicode="k" horiz-adv-x="1265" d="M85 0l313 1782h264l-199 -1138l497 473h345l-574 -515l439 -602h-334l-391 549l-96 -549h-264z" />
<glyph unicode="l" horiz-adv-x="631" d="M85 0l313 1782h264l-313 -1782h-264z" />
<glyph unicode="m" horiz-adv-x="1924" d="M85 0l195 1117h264l-17 -99q123 120 271 120q62 0 118.5 -21t101 -59.5t75.5 -90.5q68 80 159.5 125.5t191.5 45.5q121 0 210 -59q90 -59 128 -159q25 -66 25 -141q0 -39 -7 -80l-123 -699h-264l121 686q5 27 5 51q1 61 -31 103q-44 58 -124 58q-87 0 -155 -57t-93 -142 l-123 -699h-265l122 689q4 25 4 47q0 61 -32 104q-44 58 -124 58q-93 0 -164.5 -67t-87.5 -161l-117 -670h-264z" />
<glyph unicode="n" horiz-adv-x="1291" d="M85 0l195 1117h264l-15 -87q129 108 293 108q114 0 201 -57t126 -155q26 -64 26 -135q0 -37 -7 -75l-126 -716h-265l122 690q4 25 4 48q0 66 -35 109q-47 58 -131 58q-62 0 -117 -27t-93.5 -73t-54.5 -102l-123 -703h-264z" />
<glyph unicode="o" horiz-adv-x="1331" d="M79 578q20 115 82.5 218.5t151.5 178.5t203.5 119t234.5 44q124 0 228 -47t171 -127q66 -82 94 -192q16 -62 16 -127q0 -52 -10 -106q-20 -115 -82 -218.5t-151 -178.5t-203 -119t-233 -44q-126 0 -230.5 47t-171 127.5t-94.5 190.5q-16 62 -16 128q0 52 10 106zM329 539 q-6 -34 -7 -66q0 -93 56 -161q74 -92 209 -92q95 0 183.5 47t150 129.5t79.5 181.5q6 33 6 63q0 94 -56 164q-74 92 -206 92q-97 0 -186 -47t-150 -129t-79 -182z" />
<glyph unicode="p" horiz-adv-x="1458" d="M-15 -571l297 1688h250l-19 -147q167 169 403 169q112 0 207.5 -46.5t158.5 -126t89 -192.5q14 -60 14 -125q0 -55 -10 -112q-21 -117 -82 -222t-146 -179t-189.5 -117t-210.5 -43q-131 0 -223.5 50t-146.5 139l-128 -736h-264zM436 537q-4 -27 -4 -53q0 -58 22 -109 q31 -74 98 -116.5t156 -42.5q97 0 185.5 48t148 131t74.5 182q4 26 4 50q0 60 -22 112q-32 74 -99.5 117t-155.5 43q-97 0 -186 -48.5t-148 -131.5t-73 -182z" />
<glyph unicode="q" horiz-adv-x="1455" d="M84 577q20 117 81 222t146 179t189.5 117.5t210.5 43.5q135 0 228 -52t147 -143l36 173h250l-297 -1688h-265l123 703q-167 -156 -390 -156q-113 0 -208.5 46.5t-158 126t-88.5 191.5q-14 61 -14 125q0 55 10 112zM342 537q-5 -29 -5 -57q0 -55 21 -105q30 -74 97 -116.5 t155 -42.5q97 0 186.5 48t150 131t76.5 182q5 27 5 54q0 37 -10 71q-15 60 -50.5 103t-91 68.5t-121.5 25.5q-97 0 -186.5 -48.5t-150 -131.5t-76.5 -182z" />
<glyph unicode="r" horiz-adv-x="896" d="M85 0l195 1117h264l-32 -167q54 87 131.5 138t170.5 51q97 0 174 -57l-117 -217q-59 32 -118 32q-108 0 -194 -94t-115 -260l-95 -543h-264z" />
<glyph unicode="s" horiz-adv-x="1053" d="M-2 128l145 181q54 -51 137.5 -85t164.5 -34q93 0 156.5 42t75.5 111q4 19 1 33.5t-14.5 26.5t-23.5 20.5t-34.5 17t-40 14.5t-48.5 15.5t-52 16.5q-58 15 -98.5 29t-88.5 41t-75 60t-40 85q-7 28 -7 61q0 27 5 58q14 78 58 139.5t108.5 100t142 58.5t162.5 20 q111 0 209.5 -32t172.5 -87l-142 -165q-57 42 -127.5 63.5t-132.5 21.5q-84 0 -141 -35.5t-67 -94.5q-4 -18 0 -32.5t17 -26t26.5 -20t38 -17.5t43.5 -14.5t50.5 -15t50.5 -15.5q33 -8 60.5 -16t56 -19.5t51.5 -24t45 -29t37.5 -35t27.5 -42t18 -50.5t6 -59.5t-6 -69.5 q-29 -166 -158.5 -256t-324.5 -90q-246 0 -445 150z" />
<glyph unicode="t" horiz-adv-x="774" d="M92 898l37 219h224l70 401h267l-71 -401h221l-38 -219h-221l-158 -898h-265l156 898h-222z" />
<glyph unicode="u" horiz-adv-x="1244" d="M125 423l122 694h265l-120 -688q-6 -33 -6 -61q0 -60 28 -98q41 -55 125 -55q98 0 172.5 63.5t93.5 169.5l116 669h265l-125 -712q-34 -201 -174 -314t-353 -113q-224 0 -334 122q-83 92 -83 230q0 44 8 93z" />
<glyph unicode="v" horiz-adv-x="1161" d="M107 1117h278l159 -745l423 745h287l-687 -1117h-168z" />
<glyph unicode="w" horiz-adv-x="1765" d="M107 1117h267l114 -749l408 749h165l142 -754l382 754h273l-594 -1117h-205l-143 751l-410 -751h-204z" />
<glyph unicode="x" horiz-adv-x="1296" d="M-81 0l569 558l-364 559h309l239 -378l380 378h326l-571 -559l366 -558h-311l-238 377l-377 -377h-328z" />
<glyph unicode="y" horiz-adv-x="1200" d="M31 -571l334 587l-257 1101h288l157 -833l445 833h287l-973 -1688h-281z" />
<glyph unicode="z" horiz-adv-x="1120" d="M-49 0l732 898h-535l39 219h970l-734 -898h566l-38 -219h-1000z" />
<glyph unicode="{" horiz-adv-x="731" d="M92 680l12 170q85 34 130.5 75t72.5 107t48 186l100 561q25 146 119.5 237.5t227.5 91.5h132l-35 -204h-61q-65 0 -109 -51t-59 -141l-93 -532q-12 -66 -23.5 -111t-33 -95.5t-50 -86.5t-73.5 -70.5t-106 -61.5q58 -31 93 -74.5t47 -100.5t10 -116.5t-15 -137.5l-94 -536 q-19 -90 -1.5 -129t84.5 -39h80l-37 -205h-115q-65 0 -117.5 27.5t-83.5 74.5t-43.5 110t1.5 133l97 563q11 64 16.5 103t5.5 77t-6.5 60t-22.5 44t-39 37.5t-59 33.5z" />
<glyph unicode="|" horiz-adv-x="722" d="M116 -356l377 2138h169l-378 -2138h-168z" />
<glyph unicode="}" horiz-adv-x="733" d="M-131 -583l36 205h63q133 0 165 187l94 536q12 65 23.5 110t33 95.5t50 86.5t74 70.5t105.5 61.5q-40 21 -68.5 47.5t-45.5 58.5t-26 67t-10.5 77.5t2.5 84.5t13 94l95 533q8 45 7.5 77.5t-10 53.5t-29.5 31.5t-52 10.5h-80l34 204h116q88 0 150.5 -47t87 -126t7.5 -174 l-98 -562q-12 -63 -17 -102.5t-5 -77.5t6.5 -60.5t22.5 -44.5t39.5 -37.5t59.5 -33.5l-13 -169q-64 -27 -103.5 -53t-68.5 -69t-46 -98.5t-33 -147.5l-99 -562q-25 -144 -120 -235.5t-227 -91.5h-133z" />
<glyph unicode="~" horiz-adv-x="1615" d="M206 401q-6 131 38 232t133 157.5t210 56.5q98 0 166 -41t137 -130q19 -22 30 -34t30 -27.5t40 -22.5t45 -7q47 0 85 27.5t59 82t17 124.5h208q11 -122 -31 -223t-127 -158.5t-194 -57.5q-29 0 -56 4t-52 13t-44.5 16.5t-42 23t-35.5 24t-33 28t-27 26t-25.5 26.5 t-20.5 22q-38 40 -68.5 57.5t-65.5 17.5q-53 0 -92 -33.5t-57 -86.5t-18 -117h-209z" />
<glyph unicode="&#xa1;" horiz-adv-x="767" d="M46 -594l220 1230h264l-219 -1230h-265zM313 1070q6 38 31 70.5t62 51.5t75 19q73 0 117 -53.5t32 -126.5q-11 -60 -60.5 -102t-108.5 -42q-74 0 -118 54t-30 129z" />
<glyph unicode="&#xa2;" horiz-adv-x="1401" d="M136 713q16 93 59.5 178.5t107.5 154.5t143 120.5t172.5 79.5t188.5 28q122 0 224 -46t168.5 -126t93.5 -183l-239 -80q-26 89 -94.5 139.5t-166.5 50.5q-150 0 -267 -102t-141 -252q-14 -89 15 -161t95.5 -113t156.5 -41q108 0 201.5 57.5t148.5 149.5l214 -117 q-84 -139 -217.5 -226t-288.5 -105l-21 -121h-161l22 123q-144 20 -248 103t-148.5 211.5t-17.5 277.5zM769 1361l53 305h162l-55 -305h-160z" />
<glyph unicode="&#xa3;" horiz-adv-x="1768" d="M106 0l36 211l194 19l92 522h-191l40 224h190l43 244q30 171 125 304.5t236.5 207t304.5 73.5q125 0 233 -54t177.5 -149.5t83.5 -212.5l-259 -89q1 53 -18.5 99t-53 77.5t-79 49.5t-95.5 18q-151 0 -260.5 -95.5t-136.5 -246.5l-40 -226h442l-40 -224h-441l-90 -511h844 l-42 -241h-1295z" />
<glyph unicode="&#xa4;" horiz-adv-x="1605" d="M229 437l124 122q-95 135 -95 303q0 171 95 304l-122 119l141 150l126 -127q135 99 307 99q166 0 302 -97l121 123l144 -143l-122 -122q97 -134 97 -306q0 -171 -97 -305l122 -120l-141 -149l-124 126q-137 -96 -307 -96q-168 0 -305 96l-125 -126zM457 857 q0 -94 47 -172t125.5 -122t170.5 -44q95 0 174.5 46.5t124.5 125.5t45 172q0 92 -46 171t-125.5 124.5t-172.5 45.5t-172 -46.5t-125 -126.5t-46 -174z" />
<glyph unicode="&#xa5;" horiz-adv-x="1829" d="M129 296l48 190h448l33 184h-432l50 197h400l-444 915h318l315 -683l561 683h324l-766 -915h435l-51 -197h-437l-32 -184h419l-49 -190h-404l-52 -296h-274l53 296h-463z" />
<glyph unicode="&#xa6;" horiz-adv-x="722" d="M116 -356l152 855h168l-152 -855h-168zM341 927l152 855h169l-152 -855h-169z" />
<glyph unicode="&#xa7;" horiz-adv-x="1404" d="M38 -462l215 146q79 -152 261 -157q77 -3 144.5 21.5t117.5 79.5t66 132q12 54 -2.5 98.5t-48.5 76.5t-82 61.5t-104 54t-114 54.5t-112.5 62t-99.5 77.5t-74.5 100t-37.5 130t12 168.5q49 211 224 344q-152 137 -103 369q24 109 83 197.5t140 144.5t178 84.5t199 24.5 q154 -5 273 -76.5t185 -180.5l-212 -146q-39 75 -106 115t-154 42q-77 3 -144.5 -21.5t-118 -79.5t-66.5 -132q-5 -24 -5.5 -46t5.5 -41.5t12.5 -36t22.5 -33.5t27.5 -29.5t35.5 -27.5t39 -25t44.5 -24.5t46 -22.5l49.5 -24q48 -22 72.5 -34.5t70 -37t70 -42.5t60 -48.5 t54 -58t39 -67t27 -81t6 -93.5t-12.5 -111q-48 -214 -222 -344q147 -141 99 -369q-23 -109 -81.5 -197.5t-139.5 -144.5t-177 -84.5t-198 -24.5q-155 5 -275.5 76.5t-187.5 180.5zM426.5 552q-0.5 -23 5.5 -43.5t12.5 -38t22 -34.5t27 -30t35 -28.5t38.5 -25t44 -24.5 t45 -23t49 -24q9 -4 14 -6.5l13 -6.5l15 -7.5t14 -6.5q77 26 133 89t72 145q6 25 6.5 48t-5.5 43.5t-12.5 37.5t-22 34.5t-27 30t-35 28t-38 25.5t-43.5 25t-45 23t-48 23q-38 19 -57 28q-79 -27 -135 -89.5t-71 -144.5q-6 -25 -6.5 -48z" />
<glyph unicode="&#xa8;" horiz-adv-x="1039" d="M302 1487q9 55 55 92.5t101 37.5q69 0 110 -49.5t28 -119.5q-9 -54 -55 -92t-101 -38q-68 0 -109.5 50t-28.5 119zM764 1487q9 55 54.5 92.5t101.5 37.5q69 0 109.5 -49t28.5 -120q-5 -27 -19.5 -51t-35 -41.5t-47 -27.5t-54.5 -10q-68 0 -109 50t-29 119z" />
<glyph unicode="&#xa9;" horiz-adv-x="2111" d="M142 891q0 106 24 208.5t69 192.5t107.5 169.5t142 142t169.5 108t192.5 69.5t209 24t209 -24t192.5 -69.5t170 -108t142.5 -142t108 -169.5t69.5 -192.5t24 -208.5q0 -124 -33 -242.5t-92.5 -218.5t-144 -184.5t-185 -143.5t-218.5 -92t-242 -33q-94 0 -184.5 18.5 t-171.5 53t-155 84.5t-135.5 111.5t-111.5 136t-84.5 155.5t-53 171.5t-18.5 183.5zM289 891q0 -158 60 -300t162.5 -244.5t244.5 -162.5t300 -60t300.5 60t245 162.5t163 244.5t60.5 300t-60.5 300t-163 244.5t-245 162.5t-300.5 60t-300 -60t-244.5 -162.5t-162.5 -244.5 t-60 -300zM551 891q0 104 40 198.5t108 162t162 107.5t198 40q105 0 205 -44.5t169 -120.5l-114 -97q-32 36 -73.5 61.5t-89 39.5t-97.5 14q-98 0 -180 -47t-129.5 -130t-47.5 -184q0 -75 28 -141.5t75.5 -114t113.5 -75.5t140 -28q50 0 97.5 14t89 39.5t73.5 61.5l114 -98 q-69 -76 -169 -121t-205 -45q-83 0 -160.5 25.5t-140 72.5t-109.5 109t-72.5 140t-25.5 161z" />
<glyph unicode="&#xaa;" horiz-adv-x="1042" d="M235 1444q18 97 77.5 177.5t145.5 127.5t178 47q61 0 112 -19.5t88 -54.5t60 -84l26 144h154l-125 -712h-148l23 128q-26 -33 -58 -59t-67.5 -45t-76 -29.5t-82.5 -10.5q-101 0 -178 52t-112 142t-17 196zM400 1406q-13 -87 40 -148t141 -61q50 0 97.5 19.5t85 53t63 79 t31.5 95.5q8 57 -13 104.5t-65 75t-101 27.5q-102 0 -184 -72t-95 -173z" />
<glyph unicode="&#xab;" horiz-adv-x="1206" d="M56 558l434 437h225l-444 -437l280 -437h-208zM543 558l434 437h228l-442 -437l280 -437h-212z" />
<glyph unicode="&#xac;" horiz-adv-x="1891" d="M129 855v202h1488v-810h-198v608h-1290z" />
<glyph unicode="&#xad;" horiz-adv-x="1185" d="M158 449l37 209h832l-39 -209h-830z" />
<glyph unicode="&#xae;" horiz-adv-x="2111" d="M142 891q0 106 24 208.5t69 192.5t107.5 169.5t142 142t169.5 108t192.5 69.5t209 24t209 -24t192.5 -69.5t170 -108t142.5 -142t108 -169.5t69.5 -192.5t24 -208.5q0 -124 -33 -242.5t-92.5 -218.5t-144 -184.5t-185 -143.5t-218.5 -92t-242 -33q-94 0 -184.5 18.5 t-171.5 53t-155 84.5t-135.5 111.5t-111.5 136t-84.5 155.5t-53 171.5t-18.5 183.5zM289 891q0 -158 60 -300t162.5 -244.5t244.5 -162.5t300 -60t300.5 60t245 162.5t163 244.5t60.5 300t-60.5 300t-163 244.5t-245 162.5t-300.5 60t-300 -60t-244.5 -162.5t-162.5 -244.5 t-60 -300zM731 343v1097h420q131 0 222.5 -92t91.5 -222q0 -97 -51 -174t-135 -113l219 -496h-177l-202 470h-225v-470h-163zM894 960h236q75 0 124.5 44t49.5 119q0 49 -23.5 87t-63 58.5t-87.5 20.5h-236v-329z" />
<glyph unicode="&#xaf;" horiz-adv-x="1090" d="M329 1418l29 165h737l-29 -165h-737z" />
<glyph unicode="&#xb0;" horiz-adv-x="1103" d="M188 1617q0 99 48.5 182.5t132 132t182.5 48.5q74 0 141 -28.5t115.5 -77.5t77.5 -116t29 -141q0 -99 -49 -182.5t-132.5 -132t-181.5 -48.5q-99 0 -182.5 48.5t-132 132t-48.5 182.5zM320 1617q0 -97 67 -164t164 -67t164 67t67 164t-67 164t-164 67t-164 -67t-67 -164z " />
<glyph unicode="&#xb2;" horiz-adv-x="824" d="M64 712l8 93q189 165 310.5 280t184 190t86.5 118.5t33 87.5q4 40 -0.5 65t-21.5 38.5t-35 18.5t-41 4q-74 -1 -122.5 -48t-58.5 -112l-205 18q24 153 132 243t258 90q154 0 235.5 -92.5t55.5 -243.5q-21 -122 -122.5 -253.5t-305.5 -303.5h362l-35 -193h-718z" />
<glyph unicode="&#xb3;" horiz-adv-x="807" d="M118 1024l208 -16q-9 -52 21 -81.5t82 -29.5q72 0 129 49.5t70 121.5q10 57 -21.5 86.5t-96.5 29.5h-111l31 184h82q51 0 96.5 41t55.5 98q5 28 -4.5 49.5t-30 32.5t-49.5 11q-35 0 -66 -14.5t-51 -39t-26 -52.5l-203 22q24 126 120 203t225 77q137 0 215.5 -88 t55.5 -219q-21 -121 -124 -187q63 -47 90.5 -118.5t11.5 -160.5t-73.5 -163.5t-144 -118t-182.5 -43.5q-100 0 -176.5 42.5t-113 117.5t-20.5 166z" />
<glyph unicode="&#xb4;" horiz-adv-x="580" d="M196 1424l415 382l115 -152l-445 -339z" />
<glyph unicode="&#xb5;" horiz-adv-x="1407" d="M-13 -558l171 970l3 23l121 682h264l-117 -669q-18 -103 36.5 -170.5t152.5 -67.5q76 0 147.5 35t119 94t59.5 127l114 651h262l-195 -1117h-262l23 132q-73 -72 -164 -112.5t-186 -40.5q-142 0 -245 82l-109 -619h-195z" />
<glyph unicode="&#xb6;" horiz-adv-x="1357" d="M244 1405q32 184 157 280.5t323 96.5h210l-378 -2138h-140l238 1342h-52q-199 0 -296.5 110t-61.5 309zM778 -356l379 2138h139l-377 -2138h-141z" />
<glyph unicode="&#xb7;" horiz-adv-x="692" d="M269 875q9 45 49 79t86 34q59 0 97 -46t28 -106q-6 -32 -27 -58t-50 -40t-60 -14q-60 0 -97 43.5t-26 107.5z" />
<glyph unicode="&#xb8;" horiz-adv-x="699" d="M-95 -441l127 30q15 -31 51.5 -50t71.5 -19q55 0 100.5 39.5t55.5 95.5q12 66 -43 83t-150 -21l-106 70l148 218h149l-119 -151q81 15 144 -12t92.5 -87.5t16.5 -138.5q-12 -65 -52.5 -118.5t-99.5 -84t-124 -30.5q-91 0 -167 52t-95 124z" />
<glyph unicode="&#xb9;" horiz-adv-x="540" d="M215 712l154 876h-153l35 194h358l-188 -1070h-206z" />
<glyph unicode="&#xba;" horiz-adv-x="933" d="M231 1444q10 58 38.5 112t70 97t93 75.5t111 50t121.5 17.5q112 0 197 -52t124 -142t20 -196q-14 -72 -54.5 -137.5t-98 -112t-131.5 -74.5t-151 -28q-111 0 -196 52.5t-123.5 142t-20.5 195.5zM389 1406q-13 -87 39.5 -148t139.5 -61q67 0 128 33.5t101.5 90t49.5 123.5 q12 87 -40.5 147t-139.5 60q-102 0 -183.5 -72t-94.5 -173z" />
<glyph unicode="&#xbb;" horiz-adv-x="1201" d="M-3 121l443 437l-280 437h208l287 -437l-433 -437h-225zM484 121l443 437l-281 437h212l288 -437l-434 -437h-228z" />
<glyph unicode="&#xbc;" horiz-adv-x="2035" d="M56 0l1558 1782h226l-1556 -1782h-228zM258 712l156 877h-152l34 193h358l-190 -1070h-206zM1052 226l20 130l567 714h277l-115 -651h93l-33 -193h-93l-40 -226h-207l39 226h-508zM1349 419h245l74 424z" />
<glyph unicode="&#xbd;" horiz-adv-x="2057" d="M56 0l1558 1782h226l-1556 -1782h-228zM258 712l156 877h-152l34 193h358l-190 -1070h-206zM1131 0l8 93q191 166 312 280t185 189t88 119.5t29 87.5q9 68 -22 97.5t-85 27.5q-68 0 -114.5 -47.5t-57.5 -112.5l-205 19q17 102 69.5 177.5t134.5 115.5t185 40 q144 0 226.5 -87.5t65.5 -232.5q-9 -90 -64 -181.5t-149.5 -183.5t-244.5 -208h392l-34 -193h-719z" />
<glyph unicode="&#xbe;" horiz-adv-x="2263" d="M151 1024l207 -16q-9 -51 21 -81t82 -30q72 0 129 49.5t69 121.5q11 57 -20.5 86.5t-95.5 29.5h-111l31 184h80q52 0 97.5 41.5t55.5 98.5q7 42 -17.5 67t-67.5 25q-53 0 -93.5 -31t-48.5 -74l-202 21q22 127 118.5 203.5t224.5 76.5q138 0 216.5 -88t56.5 -217 q-21 -121 -124 -189q62 -46 89.5 -118t12.5 -161q-16 -89 -74 -163.5t-144.5 -118t-181.5 -43.5q-101 0 -178 42.5t-113 117.5t-19 166zM307 0l1559 1782h227l-1557 -1782h-229zM1305 226l20 130l567 714h277l-115 -651h93l-35 -193h-91l-40 -226h-207l39 226h-508z M1602 419h245l74 424z" />
<glyph unicode="&#xbf;" horiz-adv-x="1247" d="M-23 -87q12 71 37 129t56 97t68.5 71t76.5 54.5t78 42.5t74.5 41t64.5 45t49.5 58t27.5 77l25 134h239l-27 -146q-13 -71 -37.5 -127t-55.5 -92t-68.5 -64.5t-76.5 -48.5t-78 -39.5t-75.5 -42.5t-66.5 -52t-52.5 -73.5t-32.5 -101.5q-20 -114 50.5 -186t198.5 -72 q140 0 248 90t135 225l232 -19q-28 -151 -116.5 -269.5t-220 -184t-282.5 -65.5q-119 0 -216.5 40t-159.5 108.5t-88 165t-7 205.5zM554 1072q11 59 60.5 101t109.5 42q73 0 117 -54t31 -127q-10 -60 -60 -102t-109 -42q-74 0 -118 54t-31 128z" />
<glyph unicode="&#xc0;" horiz-adv-x="1591" d="M-100 0l1022 1782h173l397 -1782h-300l-52 281h-786l-152 -281h-302zM484 521h612l-156 843zM708 2248l160 152l290 -383l-106 -104z" />
<glyph unicode="&#xc1;" horiz-adv-x="1591" d="M-100 0l1022 1782h173l397 -1782h-300l-52 281h-786l-152 -281h-302zM484 521h612l-156 843zM923 2018l416 382l114 -152l-445 -339z" />
<glyph unicode="&#xc2;" horiz-adv-x="1591" d="M-100 0l1022 1782h173l397 -1782h-300l-52 281h-786l-152 -281h-302zM484 521h612l-156 843zM682 1982l313 346h211l200 -346l-127 -74l-194 260l-290 -260z" />
<glyph unicode="&#xc3;" horiz-adv-x="1591" d="M-100 0l1022 1782h173l397 -1782h-300l-52 281h-786l-152 -281h-302zM484 521h612l-156 843zM614 1917q16 95 56 169t105 118.5t146 44.5q39 0 70 -10t54 -30t37.5 -38.5t31.5 -46.5q19 -32 39.5 -48.5t54.5 -16.5q55 0 93 50t53 138l154 -19q-18 -99 -58 -173t-103 -116 t-141 -42q-42 0 -75 10t-56 31t-36.5 38.5t-29.5 45.5q-22 35 -39.5 50t-47.5 15q-29 0 -55 -15.5t-45 -42t-32.5 -59.5t-20.5 -71z" />
<glyph unicode="&#xc4;" horiz-adv-x="1591" d="M-100 0l1022 1782h173l397 -1782h-300l-52 281h-786l-152 -281h-302zM484 521h612l-156 843zM683 2080q6 37 30 67t57.5 47t69.5 17q68 0 109.5 -49.5t29.5 -119.5q-10 -54 -56 -92t-101 -38q-68 0 -109.5 49.5t-29.5 118.5zM1145 2080q10 56 56 93.5t101 37.5 q69 0 110 -49t29 -120q-11 -55 -56 -92.5t-101 -37.5q-68 0 -109.5 49.5t-29.5 118.5z" />
<glyph unicode="&#xc5;" horiz-adv-x="1591" d="M-100 0l1022 1782h173l397 -1782h-300l-52 281h-786l-152 -281h-302zM484 521h612l-156 843zM821 2218q19 102 104.5 173.5t188.5 71.5q114 0 181.5 -83.5t47.5 -199.5q-11 -67 -53.5 -123.5t-104.5 -89.5t-128 -33q-77 0 -136 38.5t-86 104t-14 141.5zM945 2180 q-2 -27 4.5 -49.5t21 -38.5t35.5 -25t47 -9q43 0 81 20.5t62.5 57.5t28.5 82q4 32 -9 61t-39.5 46t-59.5 17q-65 0 -115 -48.5t-57 -113.5z" />
<glyph unicode="&#xc6;" horiz-adv-x="2180" d="M-67 0l1029 1782h1313l-45 -255h-754l-91 -509h654l-44 -254h-655l-88 -509h754l-44 -255h-1015l70 404h-544l-227 -404h-313zM604 638h454l160 911h-101z" />
<glyph unicode="&#xc7;" horiz-adv-x="1741" d="M148 679.5q-10 111.5 12 231.5q22 122 74 238t127 214t172 180.5t205.5 140t230.5 89.5t244 32q104 0 199.5 -22t177 -63.5t149 -100.5t118.5 -132l-230 -154q-69 99 -178.5 152.5t-245.5 53.5t-267 -52t-234.5 -141t-176.5 -213t-96 -262q-22 -128 6 -243.5t95.5 -198.5 t174 -131.5t235.5 -48.5q143 0 279.5 57t246.5 159l188 -184q-94 -91 -205.5 -157t-236 -104.5t-252.5 -42.5l-97 -123q80 15 143.5 -12t93 -87.5t16.5 -138.5q-12 -65 -52.5 -118.5t-99.5 -84t-124 -30.5q-92 0 -167.5 52t-94.5 124l127 30q15 -31 51.5 -50t71.5 -19 q54 0 100 39.5t56 95.5q12 66 -43 83t-150 -21l-107 70l134 197q-112 13 -212 54t-179 104t-140 146t-95 181.5t-44 210z" />
<glyph unicode="&#xc8;" horiz-adv-x="1376" d="M132 0l313 1782h1029l-45 -252h-755l-91 -513h657l-46 -253h-655l-90 -512h755l-43 -252h-1029zM657 2248l160 152l290 -383l-106 -104z" />
<glyph unicode="&#xc9;" horiz-adv-x="1376" d="M132 0l313 1782h1029l-45 -252h-755l-91 -513h657l-46 -253h-655l-90 -512h755l-43 -252h-1029zM872 2018l416 382l114 -152l-445 -339z" />
<glyph unicode="&#xca;" horiz-adv-x="1376" d="M132 0l313 1782h1029l-45 -252h-755l-91 -513h657l-46 -253h-655l-90 -512h755l-43 -252h-1029zM631 1982l313 346h211l200 -346l-127 -74l-194 260l-290 -260z" />
<glyph unicode="&#xcb;" horiz-adv-x="1376" d="M132 0l313 1782h1029l-45 -252h-755l-91 -513h657l-46 -253h-655l-90 -512h755l-43 -252h-1029zM632 2080q10 56 56 93.5t101 37.5q68 0 109.5 -49.5t29.5 -119.5q-10 -54 -56.5 -92t-100.5 -38q-68 0 -109.5 49.5t-29.5 118.5zM1094 2080q10 56 56 93.5t100 37.5 q70 0 111 -49t29 -120q-11 -55 -56 -92.5t-101 -37.5q-68 0 -109.5 49.5t-29.5 118.5z" />
<glyph unicode="&#xcc;" horiz-adv-x="733" d="M132 0l313 1782h275l-314 -1782h-274zM277 2248l160 152l290 -383l-105 -104z" />
<glyph unicode="&#xcd;" horiz-adv-x="733" d="M132 0l313 1782h275l-314 -1782h-274zM493 2018l415 382l115 -152l-445 -339z" />
<glyph unicode="&#xce;" horiz-adv-x="733" d="M132 0l313 1782h275l-314 -1782h-274zM252 1982l313 346h211l200 -346l-127 -74l-195 260l-290 -260z" />
<glyph unicode="&#xcf;" horiz-adv-x="733" d="M132 0l313 1782h275l-314 -1782h-274zM253 2080q9 56 55.5 93.5t100.5 37.5q34 0 62.5 -13t47.5 -35.5t27.5 -54t2.5 -66.5q-11 -54 -57 -92t-100 -38q-68 0 -109.5 49.5t-29.5 118.5zM715 2080q10 56 55.5 93.5t100.5 37.5q70 0 110.5 -49t28.5 -120 q-10 -55 -55.5 -92.5t-100.5 -37.5q-68 0 -110 49.5t-29 118.5z" />
<glyph unicode="&#xd0;" horiz-adv-x="1752" d="M94 797l30 172h179l142 813h519q111 0 212 -24t182.5 -68.5t149 -108t112.5 -141.5t73.5 -169t31.5 -191.5t-14 -208.5q-31 -179 -125 -339t-229.5 -277.5t-315 -186t-373.5 -68.5h-536l141 797h-179zM449 256h238q136 0 263 50t226 137t168 208t93 260q24 131 -1 244.5 t-91 195t-173.5 128t-243.5 46.5h-255l-99 -556h298l-30 -172h-298z" />
<glyph unicode="&#xd1;" horiz-adv-x="1829" d="M107 0l313 1782h105l833 -1207l213 1207h272l-313 -1782h-107l-830 1209l-213 -1209h-273zM706 1917q17 95 57 169t105 118.5t146 44.5q39 0 70 -10t54 -30t37.5 -38.5t30.5 -46.5q20 -32 40.5 -48.5t53.5 -16.5q37 0 66.5 23t50 65t30.5 100l154 -19q-18 -99 -58 -173 t-103 -116t-141 -42q-42 0 -75 10t-56.5 31t-36.5 38.5t-29 45.5q-23 35 -40.5 50t-46.5 15q-57 0 -97.5 -54.5t-55.5 -133.5z" />
<glyph unicode="&#xd2;" horiz-adv-x="2025" d="M147.5 696.5q-4.5 103.5 12.5 214.5q18 104 59.5 205t101 189t134.5 165.5t163.5 138.5t184.5 105t201.5 67.5t210.5 23.5q109 0 209.5 -24.5t184 -70t154 -110.5t119 -145t79.5 -173t35 -196.5t-14 -214.5q-21 -122 -73.5 -238t-127.5 -214t-172.5 -180.5t-206 -140 t-230.5 -89.5t-244 -32q-109 0 -209.5 24.5t-184 70t-153.5 110t-118.5 144.5t-79.5 173.5t-35.5 197zM429 871q-22 -130 6.5 -246t97 -199.5t175.5 -132t236 -48.5q137 0 268 52t233.5 141t174 212t94.5 261q22 129 -6 245t-96 199.5t-175.5 132.5t-237.5 49 q-136 0 -267 -52t-233.5 -141t-174.5 -212t-95 -261zM925 2248l160 152l290 -383l-106 -104z" />
<glyph unicode="&#xd3;" horiz-adv-x="2025" d="M147.5 696.5q-4.5 103.5 12.5 214.5q18 104 59.5 205t101 189t134.5 165.5t163.5 138.5t184.5 105t201.5 67.5t210.5 23.5q109 0 209.5 -24.5t184 -70t154 -110.5t119 -145t79.5 -173t35 -196.5t-14 -214.5q-21 -122 -73.5 -238t-127.5 -214t-172.5 -180.5t-206 -140 t-230.5 -89.5t-244 -32q-109 0 -209.5 24.5t-184 70t-153.5 110t-118.5 144.5t-79.5 173.5t-35.5 197zM429 871q-22 -130 6.5 -246t97 -199.5t175.5 -132t236 -48.5q137 0 268 52t233.5 141t174 212t94.5 261q22 129 -6 245t-96 199.5t-175.5 132.5t-237.5 49 q-136 0 -267 -52t-233.5 -141t-174.5 -212t-95 -261zM1140 2018l416 382l114 -152l-445 -339z" />
<glyph unicode="&#xd4;" horiz-adv-x="2025" d="M147.5 696.5q-4.5 103.5 12.5 214.5q18 104 59.5 205t101 189t134.5 165.5t163.5 138.5t184.5 105t201.5 67.5t210.5 23.5q109 0 209.5 -24.5t184 -70t154 -110.5t119 -145t79.5 -173t35 -196.5t-14 -214.5q-21 -122 -73.5 -238t-127.5 -214t-172.5 -180.5t-206 -140 t-230.5 -89.5t-244 -32q-109 0 -209.5 24.5t-184 70t-153.5 110t-118.5 144.5t-79.5 173.5t-35.5 197zM429 871q-22 -130 6.5 -246t97 -199.5t175.5 -132t236 -48.5q137 0 268 52t233.5 141t174 212t94.5 261q22 129 -6 245t-96 199.5t-175.5 132.5t-237.5 49 q-136 0 -267 -52t-233.5 -141t-174.5 -212t-95 -261zM899 1982l313 346h211l200 -346l-127 -74l-194 260l-290 -260z" />
<glyph unicode="&#xd5;" horiz-adv-x="2025" d="M147.5 696.5q-4.5 103.5 12.5 214.5q18 104 59.5 205t101 189t134.5 165.5t163.5 138.5t184.5 105t201.5 67.5t210.5 23.5q109 0 209.5 -24.5t184 -70t154 -110.5t119 -145t79.5 -173t35 -196.5t-14 -214.5q-21 -122 -73.5 -238t-127.5 -214t-172.5 -180.5t-206 -140 t-230.5 -89.5t-244 -32q-109 0 -209.5 24.5t-184 70t-153.5 110t-118.5 144.5t-79.5 173.5t-35.5 197zM429 871q-22 -130 6.5 -246t97 -199.5t175.5 -132t236 -48.5q137 0 268 52t233.5 141t174 212t94.5 261q22 129 -6 245t-96 199.5t-175.5 132.5t-237.5 49 q-136 0 -267 -52t-233.5 -141t-174.5 -212t-95 -261zM831 1917q16 95 56 169t105 118.5t146 44.5q39 0 70 -10t54 -30t37.5 -38.5t31.5 -46.5q19 -32 39.5 -48.5t53.5 -16.5q55 0 93.5 50t53.5 138l154 -19q-18 -99 -58 -173t-103 -116t-141 -42q-42 0 -75 10t-56 31 t-36.5 38.5t-29.5 45.5q-15 23 -24.5 35t-25.5 21t-37 9q-57 0 -97.5 -54.5t-55.5 -133.5z" />
<glyph unicode="&#xd6;" horiz-adv-x="2025" d="M147.5 696.5q-4.5 103.5 12.5 214.5q18 104 59.5 205t101 189t134.5 165.5t163.5 138.5t184.5 105t201.5 67.5t210.5 23.5q109 0 209.5 -24.5t184 -70t154 -110.5t119 -145t79.5 -173t35 -196.5t-14 -214.5q-21 -122 -73.5 -238t-127.5 -214t-172.5 -180.5t-206 -140 t-230.5 -89.5t-244 -32q-109 0 -209.5 24.5t-184 70t-153.5 110t-118.5 144.5t-79.5 173.5t-35.5 197zM429 871q-22 -130 6.5 -246t97 -199.5t175.5 -132t236 -48.5q137 0 268 52t233.5 141t174 212t94.5 261q22 129 -6 245t-96 199.5t-175.5 132.5t-237.5 49 q-136 0 -267 -52t-233.5 -141t-174.5 -212t-95 -261zM900 2080q10 56 56 93.5t101 37.5q68 0 109.5 -49.5t29.5 -119.5q-7 -36 -30.5 -66t-57 -47t-69.5 -17q-68 0 -109.5 49.5t-29.5 118.5zM1362 2080q10 56 56 93.5t100 37.5q70 0 111 -49t29 -120q-11 -55 -56.5 -92.5 t-100.5 -37.5q-68 0 -109.5 49.5t-29.5 118.5z" />
<glyph unicode="&#xd7;" horiz-adv-x="1237" d="M151 477l310 309l-310 309l156 159l312 -309l309 309l159 -159l-312 -309l312 -309l-159 -158l-309 310l-312 -310z" />
<glyph unicode="&#xd8;" horiz-adv-x="2025" d="M160 911q18 104 59.5 205t101 189t134.5 165.5t163.5 138.5t184.5 105t201.5 67.5t210.5 23.5q246 0 438 -121l186 213l139 -93l-195 -224q85 -87 138 -197t69.5 -239.5t-8.5 -272.5q-21 -122 -73.5 -238t-127.5 -214t-172.5 -180.5t-206 -140t-230.5 -89.5t-244 -32 q-246 0 -436 119l-186 -213l-142 91l197 227q-130 131 -184 315.5t-17 394.5zM423 695.5q9 -83.5 40 -155t82 -128.5l925 1061q-121 64 -271 64q-136 0 -267 -52t-233.5 -141t-174.5 -212t-95 -261q-15 -92 -6 -175.5zM676 309q121 -64 268 -64q137 0 268 52t233.5 141 t174 212t94.5 261q24 135 -6.5 253.5t-107.5 204.5z" />
<glyph unicode="&#xd9;" horiz-adv-x="1780" d="M196 603l209 1179h275l-204 -1150q-21 -118 15.5 -209t120 -140.5t200.5 -49.5q75 0 147 20.5t133 58t110.5 88.5t82.5 115.5t46 135.5l199 1131h274l-212 -1197q-32 -178 -144.5 -317t-281 -215t-363.5 -76q-152 0 -276.5 47.5t-205 130t-115 199t-10.5 249.5zM799 2248 l160 152l290 -383l-105 -104z" />
<glyph unicode="&#xda;" horiz-adv-x="1780" d="M196 603l209 1179h275l-204 -1150q-21 -118 15.5 -209t120 -140.5t200.5 -49.5q75 0 147 20.5t133 58t110.5 88.5t82.5 115.5t46 135.5l199 1131h274l-212 -1197q-32 -178 -144.5 -317t-281 -215t-363.5 -76q-152 0 -276.5 47.5t-205 130t-115 199t-10.5 249.5z M1015 2018l415 382l115 -152l-445 -339z" />
<glyph unicode="&#xdb;" horiz-adv-x="1780" d="M196 603l209 1179h275l-204 -1150q-21 -118 15.5 -209t120 -140.5t200.5 -49.5q75 0 147 20.5t133 58t110.5 88.5t82.5 115.5t46 135.5l199 1131h274l-212 -1197q-32 -178 -144.5 -317t-281 -215t-363.5 -76q-152 0 -276.5 47.5t-205 130t-115 199t-10.5 249.5zM774 1982 l313 346h211l200 -346l-127 -74l-195 260l-290 -260z" />
<glyph unicode="&#xdc;" horiz-adv-x="1780" d="M196 603l209 1179h275l-204 -1150q-21 -118 15.5 -209t120 -140.5t200.5 -49.5q75 0 147 20.5t133 58t110.5 88.5t82.5 115.5t46 135.5l199 1131h274l-212 -1197q-32 -178 -144.5 -317t-281 -215t-363.5 -76q-152 0 -276.5 47.5t-205 130t-115 199t-10.5 249.5zM775 2080 q9 56 55.5 93.5t100.5 37.5q34 0 62.5 -13t47.5 -35.5t27.5 -54t2.5 -66.5q-11 -54 -57 -92t-100 -38q-68 0 -109.5 49.5t-29.5 118.5zM1237 2080q10 56 55.5 93.5t100.5 37.5q70 0 110.5 -49t28.5 -120q-10 -55 -55.5 -92.5t-100.5 -37.5q-68 0 -110 49.5t-29 118.5z" />
<glyph unicode="&#xdd;" horiz-adv-x="1548" d="M231 1782h318l315 -683l560 683h325l-790 -943l-147 -839h-274l149 843zM901 2018l416 382l114 -152l-445 -339z" />
<glyph unicode="&#xde;" d="M131 0l89 512l48 266l131 752h1l43 246h266l-43 -246h409q104 0 192 -42.5t145 -114t81 -171t5 -208.5q-24 -133 -109.5 -243.5t-211.5 -174.5t-264 -64h-428l-88 -512h-266zM530 761h361q144 0 240 74t117 195q19 113 -39.5 182t-180.5 69h-406z" />
<glyph unicode="&#xdf;" horiz-adv-x="1520" d="M85 0l218 1233q21 123 82.5 226.5t151 174t202.5 109.5t235 39q124 0 225 -39.5t165 -107.5t91 -163.5t8 -203.5q-8 -43 -22.5 -83.5t-34.5 -78t-45.5 -72t-55.5 -65t-65 -56.5q53 -36 92.5 -84.5t63.5 -107t31 -125.5t-5 -140q-24 -132 -103 -237.5t-196 -163.5 t-248 -54l-215 -1l44 253h149q69 0 134 29.5t114.5 89.5t63.5 138q20 114 -50.5 192.5t-195.5 78.5h-126l39 219h38q78 0 153 40.5t128 110t68 149.5q19 110 -50 179.5t-196 69.5q-152 0 -268 -94.5t-142 -246.5l-214 -1208h-264z" />
<glyph unicode="&#xe0;" horiz-adv-x="1455" d="M84 579q20 117 81.5 222t146 179t189 117t210.5 43q129 0 221.5 -49t147.5 -135l27 161h265l-195 -1117h-250l20 147q-170 -169 -404 -169q-113 0 -208.5 46.5t-158 125.5t-88.5 191.5t-4 237.5zM342 541q-14 -89 16.5 -163t97 -117t154.5 -43q98 0 187.5 48.5t149.5 131 t76 181.5q15 88 -15.5 162.5t-97 117t-155.5 42.5q-97 0 -186.5 -48t-150 -131t-76.5 -181zM471 1585l160 152l290 -383l-106 -105z" />
<glyph unicode="&#xe1;" horiz-adv-x="1455" d="M84 579q20 117 81.5 222t146 179t189 117t210.5 43q129 0 221.5 -49t147.5 -135l27 161h265l-195 -1117h-250l20 147q-170 -169 -404 -169q-113 0 -208.5 46.5t-158 125.5t-88.5 191.5t-4 237.5zM342 541q-14 -89 16.5 -163t97 -117t154.5 -43q98 0 187.5 48.5t149.5 131 t76 181.5q15 88 -15.5 162.5t-97 117t-155.5 42.5q-97 0 -186.5 -48t-150 -131t-76.5 -181zM687 1355l415 382l115 -152l-446 -339z" />
<glyph unicode="&#xe2;" horiz-adv-x="1455" d="M84 579q20 117 81.5 222t146 179t189 117t210.5 43q129 0 221.5 -49t147.5 -135l27 161h265l-195 -1117h-250l20 147q-170 -169 -404 -169q-113 0 -208.5 46.5t-158 125.5t-88.5 191.5t-4 237.5zM342 541q-14 -89 16.5 -163t97 -117t154.5 -43q98 0 187.5 48.5t149.5 131 t76 181.5q15 88 -15.5 162.5t-97 117t-155.5 42.5q-97 0 -186.5 -48t-150 -131t-76.5 -181zM445 1319l314 346h211l199 -346l-126 -74l-195 260l-290 -260z" />
<glyph unicode="&#xe3;" horiz-adv-x="1455" d="M84 579q20 117 81.5 222t146 179t189 117t210.5 43q129 0 221.5 -49t147.5 -135l27 161h265l-195 -1117h-250l20 147q-170 -169 -404 -169q-113 0 -208.5 46.5t-158 125.5t-88.5 191.5t-4 237.5zM342 541q-14 -89 16.5 -163t97 -117t154.5 -43q98 0 187.5 48.5t149.5 131 t76 181.5q15 88 -15.5 162.5t-97 117t-155.5 42.5q-97 0 -186.5 -48t-150 -131t-76.5 -181zM377 1254q12 70 38.5 130t64.5 105.5t90.5 71t113.5 25.5q39 0 70.5 -10.5t54 -30.5t37 -38.5t31.5 -46.5q13 -20 23 -32t28.5 -22.5t42.5 -10.5q55 0 93 50t53 138l154 -18 q-26 -152 -105.5 -242t-195.5 -90q-35 0 -63.5 8t-47.5 19t-37 29.5t-27.5 33t-21.5 35.5q-12 18 -19 27.5t-18 19.5t-23 14t-27 4q-57 0 -98 -54t-56 -134z" />
<glyph unicode="&#xe4;" horiz-adv-x="1455" d="M84 579q20 117 81.5 222t146 179t189 117t210.5 43q129 0 221.5 -49t147.5 -135l27 161h265l-195 -1117h-250l20 147q-170 -169 -404 -169q-113 0 -208.5 46.5t-158 125.5t-88.5 191.5t-4 237.5zM342 541q-14 -89 16.5 -163t97 -117t154.5 -43q98 0 187.5 48.5t149.5 131 t76 181.5q15 88 -15.5 162.5t-97 117t-155.5 42.5q-97 0 -186.5 -48t-150 -131t-76.5 -181zM458 1488q10 55 56 92.5t101 37.5q45 0 79.5 -22t50.5 -61.5t8 -85.5q-10 -54 -56 -92t-101 -38q-67 0 -108.5 50t-29.5 119zM921 1488q9 55 54.5 92.5t100.5 37.5q70 0 110.5 -49 t28.5 -120q-10 -54 -55 -92t-101 -38q-68 0 -109 50t-29 119z" />
<glyph unicode="&#xe5;" horiz-adv-x="1455" d="M84 579q20 117 81.5 222t146 179t189 117t210.5 43q129 0 221.5 -49t147.5 -135l27 161h265l-195 -1117h-250l20 147q-170 -169 -404 -169q-113 0 -208.5 46.5t-158 125.5t-88.5 191.5t-4 237.5zM342 541q-14 -89 16.5 -163t97 -117t154.5 -43q98 0 187.5 48.5t149.5 131 t76 181.5q15 88 -15.5 162.5t-97 117t-155.5 42.5q-97 0 -186.5 -48t-150 -131t-76.5 -181zM607 1576q11 67 53.5 123t105.5 89t131 33q75 0 133 -38t84.5 -103.5t13.5 -141.5q-19 -101 -103 -173.5t-185 -72.5q-77 0 -135.5 38.5t-85.5 104.5t-12 141zM731 1538 q-7 -54 23 -88t82 -34q66 0 116 46t57 114q4 33 -9 61.5t-39.5 46t-60.5 17.5q-63 0 -113 -49t-56 -114z" />
<glyph unicode="&#xe6;" horiz-adv-x="2041" d="M43 347q58 332 643 332h153q1 4 4 11.5t4 11.5l6 33q12 66 -6 114t-60 72t-104 26q-88 1 -165 -43t-112 -114l-222 92q48 83 123 141t170.5 87.5t205.5 29.5q128 0 224 -40t151 -113q91 72 199.5 112t223.5 40q123 0 224.5 -43.5t168 -119.5t94 -184t5.5 -231l-7 -47 h-907q-16 -142 57.5 -229t204.5 -87q96 0 185 45.5t152 123.5l208 -100q-93 -137 -236.5 -212.5t-309.5 -75.5q-139 0 -247.5 51t-176.5 142q-117 -94 -244.5 -144t-246.5 -50q-194 0 -292.5 101.5t-69.5 267.5zM306 313q-11 -64 28 -100.5t117 -36.5q84 0 182.5 51 t178.5 140q-13 66 -9 134h-134q-329 0 -363 -188zM1117 699h610q-12 100 -77 162t-169 62q-114 0 -210.5 -60t-153.5 -164z" />
<glyph unicode="&#xe7;" horiz-adv-x="1264" d="M79 578q14 77 46.5 150t80 134.5t108.5 113t130 87t148 55.5t159 20q183 0 313.5 -98.5t172.5 -256.5l-239 -80q-18 59 -54 101.5t-89.5 65.5t-117.5 23q-151 0 -268 -102t-141 -252q-14 -88 15 -160.5t95.5 -113.5t156.5 -41q72 0 140.5 27.5t121 73.5t88.5 107 l214 -118q-88 -146 -231.5 -234.5t-306.5 -99.5l-100 -126q80 15 143 -12t93 -87.5t17 -138.5q-19 -99 -98 -166t-178 -67q-61 0 -117 24.5t-94.5 64.5t-51.5 87l128 30q10 -21 31 -37t45 -24t47 -8q54 0 100 39.5t55 95.5q13 66 -42 83t-150 -21l-107 70l137 200 q-140 24 -240 107t-143 209.5t-17 274.5z" />
<glyph unicode="&#xe8;" horiz-adv-x="1310" d="M81 577q20 115 82 219t150.5 179.5t202.5 119.5t235 44q122 0 224 -43.5t168 -119.5t93.5 -184t5.5 -231l-7 -47h-907q-16 -142 57.5 -229t204.5 -87q96 0 185 45.5t152 123.5l209 -100q-94 -137 -237 -212.5t-310 -75.5q-131 0 -237.5 47t-172.5 127.5t-92.5 190.5 t-5.5 233zM386 699h610q-12 100 -77 162t-168 62q-115 0 -211 -60t-154 -164zM473 1592l160 151l290 -382l-105 -105z" />
<glyph unicode="&#xe9;" horiz-adv-x="1310" d="M81 577q20 115 82 219t150.5 179.5t202.5 119.5t235 44q122 0 224 -43.5t168 -119.5t93.5 -184t5.5 -231l-7 -47h-907q-16 -142 57.5 -229t204.5 -87q96 0 185 45.5t152 123.5l209 -100q-94 -137 -237 -212.5t-310 -75.5q-131 0 -237.5 47t-172.5 127.5t-92.5 190.5 t-5.5 233zM386 699h610q-12 100 -77 162t-168 62q-115 0 -211 -60t-154 -164zM689 1362l415 381l115 -151l-445 -339z" />
<glyph unicode="&#xea;" horiz-adv-x="1310" d="M81 577q20 115 82 219t150.5 179.5t202.5 119.5t235 44q122 0 224 -43.5t168 -119.5t93.5 -184t5.5 -231l-7 -47h-907q-16 -142 57.5 -229t204.5 -87q96 0 185 45.5t152 123.5l209 -100q-94 -137 -237 -212.5t-310 -75.5q-131 0 -237.5 47t-172.5 127.5t-92.5 190.5 t-5.5 233zM386 699h610q-12 100 -77 162t-168 62q-115 0 -211 -60t-154 -164zM448 1326l313 346h211l200 -346l-127 -74l-195 259l-290 -259z" />
<glyph unicode="&#xeb;" horiz-adv-x="1310" d="M81 577q20 115 82 219t150.5 179.5t202.5 119.5t235 44q122 0 224 -43.5t168 -119.5t93.5 -184t5.5 -231l-7 -47h-907q-16 -142 57.5 -229t204.5 -87q96 0 185 45.5t152 123.5l209 -100q-94 -137 -237 -212.5t-310 -75.5q-131 0 -237.5 47t-172.5 127.5t-92.5 190.5 t-5.5 233zM386 699h610q-12 100 -77 162t-168 62q-115 0 -211 -60t-154 -164zM461 1495q9 55 55 92.5t101 37.5q69 0 110 -49.5t28 -119.5q-6 -36 -29.5 -65.5t-57 -47t-69.5 -17.5q-68 0 -109.5 50t-28.5 119zM923 1495q9 55 54.5 92.5t101.5 37.5q69 0 109.5 -49 t28.5 -120q-10 -54 -55 -92t-101 -38q-68 0 -109 50t-29 119z" />
<glyph unicode="&#xec;" horiz-adv-x="627" d="M85 0l195 1117h264l-195 -1117h-264zM108 1583l160 152l290 -382l-106 -105z" />
<glyph unicode="&#xed;" horiz-adv-x="627" d="M85 0l195 1117h264l-195 -1117h-264zM324 1354l415 381l115 -152l-446 -338z" />
<glyph unicode="&#xee;" horiz-adv-x="627" d="M82 1318l314 345h211l199 -345l-126 -74l-195 259l-290 -259zM85 0l195 1117h264l-195 -1117h-264z" />
<glyph unicode="&#xef;" horiz-adv-x="627" d="M85 0l195 1117h264l-195 -1117h-264zM95 1487q10 55 56 92.5t101 37.5q44 0 79 -22t51 -61.5t8 -85.5q-10 -54 -56 -92t-101 -38q-67 0 -108.5 50t-29.5 119zM558 1487q6 36 29 66t56.5 47t69.5 17q70 0 110.5 -49t27.5 -120q-9 -54 -54 -92t-101 -38q-68 0 -109 50 t-29 119z" />
<glyph unicode="&#xf0;" horiz-adv-x="1388" d="M77 578q20 115 83.5 218.5t154.5 178.5t207 119t238 44q178 0 314 -95q-41 237 -196 370l-156 -166l-106 84l151 156q-122 63 -287 82l71 163q182 -14 340 -116l131 137l99 -83l-126 -133q86 -76 149.5 -175t104.5 -222.5t49 -265t-19 -303.5l-2 1l-2 -13 q-18 -106 -63 -198.5t-110 -162t-145.5 -119t-173.5 -75t-191 -25.5q-128 0 -234.5 47.5t-175 127.5t-97.5 190.5t-8 233.5zM315 432q7 -50 31 -92t59.5 -72t85 -47t105.5 -17q101 0 194.5 50t157.5 136t82 188q16 92 -14.5 169.5t-99.5 122t-161 44.5q-102 0 -196.5 -50 t-159.5 -136.5t-82 -188.5q-9 -57 -2 -107z" />
<glyph unicode="&#xf1;" horiz-adv-x="1291" d="M85 0l195 1117h264l-15 -87q129 108 293 108q114 0 201 -57t126 -154.5t19 -210.5l-126 -716h-265l122 690q16 99 -31 157t-131 58q-62 0 -117 -27t-93.5 -73t-54.5 -102l-123 -703h-264zM364 1253q17 95 56.5 168.5t105 118.5t146.5 45q31 0 58 -8t45.5 -18.5t36.5 -29 t28.5 -33.5t23.5 -37q20 -31 40 -48t54 -17q55 0 93 50t53 138l155 -18q-27 -152 -106 -242t-196 -90q-43 0 -76 10.5t-56 31t-36 38.5t-29 45q-23 35 -40.5 50t-46.5 15q-57 0 -97.5 -54t-55.5 -134z" />
<glyph unicode="&#xf2;" horiz-adv-x="1331" d="M79 578q20 115 82.5 218.5t151.5 178.5t203.5 119t234.5 44q124 0 228 -47t170.5 -127.5t94.5 -191t6 -233.5q-20 -115 -82 -218.5t-151 -178.5t-203 -119t-233 -44q-126 0 -230.5 47t-171 127.5t-94.5 191t-6 233.5zM329 539q-25 -136 49.5 -227.5t208.5 -91.5 q95 0 183.5 47t150 129.5t79.5 181.5q24 135 -50.5 227t-205.5 92q-97 0 -186 -47t-150 -129t-79 -182zM459 1582l160 152l290 -383l-105 -104z" />
<glyph unicode="&#xf3;" horiz-adv-x="1331" d="M79 578q20 115 82.5 218.5t151.5 178.5t203.5 119t234.5 44q124 0 228 -47t170.5 -127.5t94.5 -191t6 -233.5q-20 -115 -82 -218.5t-151 -178.5t-203 -119t-233 -44q-126 0 -230.5 47t-171 127.5t-94.5 191t-6 233.5zM329 539q-25 -136 49.5 -227.5t208.5 -91.5 q95 0 183.5 47t150 129.5t79.5 181.5q24 135 -50.5 227t-205.5 92q-97 0 -186 -47t-150 -129t-79 -182zM675 1353l415 381l115 -152l-445 -338z" />
<glyph unicode="&#xf4;" horiz-adv-x="1331" d="M79 578q20 115 82.5 218.5t151.5 178.5t203.5 119t234.5 44q124 0 228 -47t170.5 -127.5t94.5 -191t6 -233.5q-20 -115 -82 -218.5t-151 -178.5t-203 -119t-233 -44q-126 0 -230.5 47t-171 127.5t-94.5 191t-6 233.5zM329 539q-25 -136 49.5 -227.5t208.5 -91.5 q95 0 183.5 47t150 129.5t79.5 181.5q24 135 -50.5 227t-205.5 92q-97 0 -186 -47t-150 -129t-79 -182zM434 1317l313 345h211l200 -345l-127 -75l-195 260l-290 -260z" />
<glyph unicode="&#xf5;" horiz-adv-x="1331" d="M79 578q20 115 82.5 218.5t151.5 178.5t203.5 119t234.5 44q124 0 228 -47t170.5 -127.5t94.5 -191t6 -233.5q-20 -115 -82 -218.5t-151 -178.5t-203 -119t-233 -44q-126 0 -230.5 47t-171 127.5t-94.5 191t-6 233.5zM329 539q-25 -136 49.5 -227.5t208.5 -91.5 q95 0 183.5 47t150 129.5t79.5 181.5q24 135 -50.5 227t-205.5 92q-97 0 -186 -47t-150 -129t-79 -182zM365 1252q17 95 57 168.5t105 118t146 44.5q39 0 70 -10t54 -30t37 -38.5t31 -46.5q20 -31 40.5 -48t53.5 -17q55 0 93 50t53 138l155 -18q-27 -152 -106 -242t-196 -90 q-34 0 -63 7.5t-48 18.5t-36.5 29.5t-27.5 33t-22 36.5q-23 35 -40.5 50t-46.5 15q-57 0 -97.5 -54t-55.5 -134z" />
<glyph unicode="&#xf6;" horiz-adv-x="1331" d="M79 578q20 115 82.5 218.5t151.5 178.5t203.5 119t234.5 44q124 0 228 -47t170.5 -127.5t94.5 -191t6 -233.5q-20 -115 -82 -218.5t-151 -178.5t-203 -119t-233 -44q-126 0 -230.5 47t-171 127.5t-94.5 191t-6 233.5zM329 539q-25 -136 49.5 -227.5t208.5 -91.5 q95 0 183.5 47t150 129.5t79.5 181.5q24 135 -50.5 227t-205.5 92q-97 0 -186 -47t-150 -129t-79 -182zM447 1486q6 36 29.5 66t57.5 47t69 17q69 0 110 -49.5t28 -119.5q-9 -54 -55 -92t-101 -38q-44 0 -79 22.5t-51 62t-8 84.5zM909 1486q9 55 54.5 92.5t101.5 37.5 q69 0 109.5 -49.5t28.5 -119.5q-5 -27 -19.5 -51t-35 -41.5t-47 -27.5t-54.5 -10q-68 0 -109 50t-29 119z" />
<glyph unicode="&#xf7;" horiz-adv-x="1168" d="M123 684v224h922v-224h-922zM421 372q0 63 47 110t110 47q64 0 112.5 -47t48.5 -110q0 -67 -48 -113t-113 -46q-64 0 -110.5 46t-46.5 113zM421 1221q0 65 47 112t110 47q64 0 112.5 -47t48.5 -112t-48 -110.5t-113 -45.5q-42 0 -78 20t-57.5 56.5t-21.5 79.5z" />
<glyph unicode="&#xf8;" horiz-adv-x="1331" d="M72 -41l139 160q-85 85 -120.5 204t-11.5 255q20 115 82.5 218.5t151.5 178.5t203.5 119t234.5 44q159 0 284 -75l133 153l91 -61l-140 -160q85 -83 120 -202t11 -254q-20 -115 -82 -218.5t-151 -178.5t-203 -119t-233 -44q-157 0 -282 73l-133 -153zM329 539 q-24 -137 50 -228l488 559q-56 27 -123 27q-97 0 -186 -47t-150 -129t-79 -182zM466 245q54 -25 121 -25q95 0 183.5 47t150 129.5t79.5 181.5q24 132 -49 225z" />
<glyph unicode="&#xf9;" horiz-adv-x="1244" d="M125 423l122 694h265l-120 -688q-19 -104 22 -159t125 -55q98 0 172.5 63.5t93.5 169.5l116 669h265l-125 -712q-34 -201 -174 -314t-353 -113q-225 0 -334.5 121.5t-74.5 323.5zM412 1583l160 152l290 -382l-106 -105z" />
<glyph unicode="&#xfa;" horiz-adv-x="1244" d="M125 423l122 694h265l-120 -688q-19 -104 22 -159t125 -55q98 0 172.5 63.5t93.5 169.5l116 669h265l-125 -712q-34 -201 -174 -314t-353 -113q-225 0 -334.5 121.5t-74.5 323.5zM628 1354l415 381l115 -152l-446 -338z" />
<glyph unicode="&#xfb;" horiz-adv-x="1244" d="M125 423l122 694h265l-120 -688q-19 -104 22 -159t125 -55q98 0 172.5 63.5t93.5 169.5l116 669h265l-125 -712q-34 -201 -174 -314t-353 -113q-225 0 -334.5 121.5t-74.5 323.5zM386 1318l313 345h212l199 -345l-126 -74l-195 259l-290 -259z" />
<glyph unicode="&#xfc;" horiz-adv-x="1244" d="M125 423l122 694h265l-120 -688q-19 -104 22 -159t125 -55q98 0 172.5 63.5t93.5 169.5l116 669h265l-125 -712q-34 -201 -174 -314t-353 -113q-225 0 -334.5 121.5t-74.5 323.5zM399 1487q9 55 55.5 92.5t101.5 37.5q44 0 79 -22t51 -61.5t8 -85.5q-10 -54 -56 -92 t-101 -38q-67 0 -108.5 50t-29.5 119zM862 1487q8 55 54 92.5t101 37.5q69 0 109.5 -49t28.5 -120q-9 -54 -54.5 -92t-100.5 -38q-68 0 -109 50t-29 119z" />
<glyph unicode="&#xfd;" horiz-adv-x="1200" d="M31 -571l334 587l-257 1101h288l157 -833l445 833h287l-973 -1688h-281zM589 1354l416 381l114 -152l-445 -338z" />
<glyph unicode="&#xfe;" horiz-adv-x="1445" d="M-14 -558l413 2340h266l-135 -776q160 132 368 132q114 0 211 -47.5t160 -127t89.5 -191t5.5 -233.5q-16 -92 -58.5 -177.5t-104.5 -154.5t-137 -120.5t-161.5 -79.5t-172.5 -28q-118 0 -209 42.5t-150 118.5l-120 -699zM430 539q-14 -87 16 -160t97 -115t154 -42 q95 0 183.5 47.5t149 129.5t75.5 179q15 86 -15 159t-96 115t-153 42q-96 0 -185 -47.5t-149.5 -129t-76.5 -178.5z" />
<glyph unicode="&#xff;" horiz-adv-x="1200" d="M31 -571l334 587l-257 1101h288l157 -833l445 833h287l-973 -1688h-281zM361 1487q9 55 55.5 92.5t100.5 37.5q69 0 110 -49.5t28 -119.5q-9 -54 -55 -92t-101 -38q-68 0 -109 50t-29 119zM824 1487q8 55 54 92.5t101 37.5q69 0 109.5 -49t28.5 -120q-10 -54 -55 -92 t-100 -38q-68 0 -109.5 50t-28.5 119z" />
<glyph unicode="&#x152;" horiz-adv-x="2793" d="M147.5 696.5q-4.5 103.5 12.5 214.5q18 104 59.5 205t101 189t134.5 165.5t163.5 138.5t184.5 105t201.5 67.5t210.5 23.5q139 0 264 -40t222 -113t165 -174l54 304h970l-45 -248h-747l-91 -519h648l-45 -248h-646l-92 -519h747l-43 -248h-969l48 281 q-149 -143 -338.5 -223.5t-388.5 -80.5q-109 0 -209.5 24.5t-184 70t-153.5 110t-118.5 144.5t-79.5 173.5t-35.5 197zM426 871q-21 -129 9.5 -245.5t101.5 -201t180.5 -134t239.5 -49.5q136 0 268 53t235.5 142t176.5 213t95 262q21 129 -10 245.5t-101.5 200.5t-180 133.5 t-238.5 49.5q-137 0 -269.5 -52.5t-236 -142t-176 -213.5t-94.5 -261z" />
<glyph unicode="&#x153;" horiz-adv-x="2259" d="M78 578q16 92 60 177.5t109.5 154.5t146 120.5t175 79.5t191.5 28q143 0 257.5 -59t183.5 -163q96 104 226 163.5t272 59.5q123 0 224 -43.5t166.5 -119.5t93.5 -183.5t8 -231.5l-10 -47h-904q-16 -142 57.5 -229t204.5 -87q99 0 190 47.5t153 129.5l205 -107 q-95 -138 -238.5 -213.5t-310.5 -75.5q-149 0 -263 58.5t-180 162.5q-98 -103 -230 -162t-273 -59q-127 0 -233.5 47.5t-175 127.5t-98 190.5t-7.5 233.5zM324.5 434.5q7.5 -48.5 32 -89t59.5 -70t83 -46t103 -16.5q97 0 188 49t153.5 133t78.5 183q14 89 -17 164t-99 118.5 t-157 43.5q-99 0 -191 -49t-154.5 -133t-78.5 -184q-8 -55 -0.5 -103.5zM1336 699h608q-12 106 -75 165t-170 59q-114 0 -210 -60t-153 -164z" />
<glyph unicode="&#x178;" horiz-adv-x="1548" d="M231 1782h318l315 -683l560 683h325l-790 -943l-147 -839h-274l149 843zM661 2080q6 37 30 67t57.5 47t69.5 17q68 0 109.5 -49.5t29.5 -119.5q-10 -54 -56.5 -92t-100.5 -38q-68 0 -109.5 49.5t-29.5 118.5zM1123 2080q10 56 56 93.5t100 37.5q70 0 111 -49t29 -120 q-11 -55 -56 -92.5t-101 -37.5q-68 0 -109.5 49.5t-29.5 118.5z" />
<glyph unicode="&#x2c6;" horiz-adv-x="861" d="M225 1436l313 346h211l200 -346l-127 -74l-194 260l-290 -260z" />
<glyph unicode="&#x2dc;" horiz-adv-x="1100" d="M289 1462q27 148 107.5 239.5t195.5 91.5q81 0 132.5 -42t74.5 -107q4 -3 12 -11t12.5 -12t12.5 -9t17 -7t19 -2q56 0 95.5 50t54.5 138l161 -19q-26 -148 -105 -239.5t-198 -91.5q-152 0 -206 149q-35 41 -70 41q-56 0 -97 -54.5t-56 -133.5z" />
<glyph unicode="&#x2000;" horiz-adv-x="1231" />
<glyph unicode="&#x2001;" horiz-adv-x="2463" />
<glyph unicode="&#x2002;" horiz-adv-x="1231" />
<glyph unicode="&#x2003;" horiz-adv-x="2463" />
<glyph unicode="&#x2004;" horiz-adv-x="821" />
<glyph unicode="&#x2005;" horiz-adv-x="615" />
<glyph unicode="&#x2006;" horiz-adv-x="410" />
<glyph unicode="&#x2007;" horiz-adv-x="410" />
<glyph unicode="&#x2008;" horiz-adv-x="307" />
<glyph unicode="&#x2009;" horiz-adv-x="492" />
<glyph unicode="&#x200a;" horiz-adv-x="136" />
<glyph unicode="&#x2010;" horiz-adv-x="1182" d="M158 458l35 200h831l-36 -200h-830z" />
<glyph unicode="&#x2011;" horiz-adv-x="1182" d="M158 458l35 200h831l-36 -200h-830z" />
<glyph unicode="&#x2012;" horiz-adv-x="1182" d="M158 458l35 200h831l-36 -200h-830z" />
<glyph unicode="&#x2013;" horiz-adv-x="1538" d="M158 458l35 200h1187l-34 -200h-1188z" />
<glyph unicode="&#x2014;" horiz-adv-x="2375" d="M-17 458l34 200h2376l-35 -200h-2375z" />
<glyph unicode="&#x2018;" horiz-adv-x="655" d="M251 1227q9 48 39 80l264 475h169l-215 -440q35 -25 51.5 -65.5t7.5 -87.5q-10 -58 -60 -100.5t-108 -42.5q-73 0 -117.5 54t-30.5 127z" />
<glyph unicode="&#x2019;" horiz-adv-x="655" d="M239 1071l215 439q-35 24 -51.5 65.5t-8.5 87.5q11 59 60.5 101t108.5 42q72 0 116 -54t32 -127q-7 -44 -38 -79l-266 -475h-168z" />
<glyph unicode="&#x201a;" horiz-adv-x="655" d="M-27 -436l215 439q-35 25 -51.5 66t-7.5 88q9 58 59.5 100.5t108.5 42.5q73 0 117 -54t31 -128q-6 -41 -37 -77l-266 -477h-169z" />
<glyph unicode="&#x201c;" horiz-adv-x="1131" d="M253 1227q6 31 18 56l286 499h168l-222 -435q36 -21 56 -64t11 -94q-11 -58 -60.5 -100.5t-108.5 -42.5q-47 0 -84.5 25t-55 66.5t-8.5 89.5zM728 1227q0 15 18 56l285 499h170l-223 -435q36 -21 56 -64t11 -94q-10 -58 -60.5 -100.5t-108.5 -42.5q-73 0 -117 54t-31 127 z" />
<glyph unicode="&#x201d;" horiz-adv-x="1131" d="M237 1070l222 435q-36 20 -55.5 63t-11.5 94q7 38 32.5 71t62 52.5t74.5 19.5q73 0 117.5 -54t30.5 -127q0 -14 -18 -56l-285 -498h-169zM712 1070l222 435q-17 10 -31 25.5t-24 36t-13 45t2 50.5q10 59 60 101t108 42q73 0 117 -54t31 -127q-6 -31 -18 -56l-286 -498 h-168z" />
<glyph unicode="&#x201e;" horiz-adv-x="1113" d="M-27 -436l215 439q-35 25 -51.5 66t-7.5 88q9 58 59.5 100.5t108.5 42.5q73 0 117 -54t31 -128q-6 -41 -37 -77l-266 -477h-169zM433 -436l213 439q-35 25 -51.5 66t-7.5 88q10 58 60 100.5t108 42.5q73 0 117 -54t32 -128q-7 -41 -37 -77l-266 -477h-168z" />
<glyph unicode="&#x2022;" horiz-adv-x="1020" d="M219 793q15 84 70.5 156.5t135.5 115.5t163 43q92 0 164.5 -48.5t106.5 -130t18 -174.5q-16 -86 -72 -158t-135 -112.5t-162 -40.5q-93 0 -165.5 46t-106.5 127t-17 176z" />
<glyph unicode="&#x2026;" horiz-adv-x="2161" d="M137 157q9 58 60 100.5t109 42.5q72 0 116 -54t32 -128q-7 -38 -32.5 -71t-62 -51.5t-75.5 -18.5q-72 0 -116 53t-31 127zM842 157q10 58 60.5 100.5t109.5 42.5q72 0 116 -54t32 -128q-10 -58 -60.5 -99.5t-108.5 -41.5q-73 0 -117 53t-32 127zM1559 157q6 38 31.5 71 t62.5 52.5t75 19.5q72 0 116 -54t32 -128q-11 -59 -60.5 -100t-109.5 -41q-72 0 -116 53t-31 127z" />
<glyph unicode="&#x202f;" horiz-adv-x="492" />
<glyph unicode="&#x2039;" horiz-adv-x="714" d="M56 558l434 437h225l-444 -437l280 -437h-208z" />
<glyph unicode="&#x203a;" horiz-adv-x="711" d="M-3 121l443 437l-280 437h208l287 -437l-433 -437h-225z" />
<glyph unicode="&#x205f;" horiz-adv-x="615" />
<glyph unicode="&#x20ac;" horiz-adv-x="2129" d="M113 589l51 196h78q5 74 14 126q7 38 18 77h-56l51 196h78q89 180 238 320.5t338 220.5t387 80q206 0 373 -84.5t270 -233.5l-229 -154q-46 65 -110 111.5t-144 70.5t-171 24q-189 0 -362 -96.5t-284 -258.5h794l-52 -196h-841q-18 -55 -29 -117q-7 -48 -9 -86h825 l-51 -196h-748q32 -102 101 -178t170 -119t223 -43q144 0 280.5 57t246.5 159l187 -184q-149 -143 -338 -223.5t-388 -80.5q-149 0 -280.5 45.5t-230 126.5t-165.5 194t-92 246h-143z" />
<glyph unicode="&#x2122;" horiz-adv-x="1974" d="M172 1654l22 128h583l-23 -128h-220l-125 -705h-145l125 705h-217zM744 949l147 833h154l208 -425l362 425h157l-147 -833h-143l106 601l-367 -435l-225 442l-107 -608h-145z" />
<glyph unicode="&#x25fc;" horiz-adv-x="1119" d="M0 0v1119h1119v-1119h-1119z" />
<glyph unicode="&#xfb03;" horiz-adv-x="2113" d="M137 898l38 219h193l59 321q29 174 141.5 273t277.5 99q59 0 106 -12t68 -29l-28 -234q-39 37 -113 37q-72 0 -127.5 -52t-69.5 -131l-49 -272h428l60 321q29 174 141.5 273t276.5 99q60 0 106.5 -12t67.5 -29l-28 -234q-38 37 -112 37q-48 0 -90 -24t-70 -65.5 t-37 -93.5l-49 -272h703l-195 -1117h-262l157 898h-441l-157 -898h-264l156 898h-429l-157 -898h-264l157 898h-194zM1807 1492q7 38 32 70t60.5 50t73.5 18q71 0 114 -51.5t30 -125.5q-10 -57 -57.5 -97.5t-106.5 -40.5q-71 0 -114 52.5t-32 124.5z" />
<glyph unicode="&#xfb04;" horiz-adv-x="2210" d="M111 898l39 219h189l57 321q29 174 141.5 273t276.5 99q60 0 106.5 -12t67.5 -29l-28 -234q-38 37 -112 37q-48 0 -90 -24t-70 -65.5t-37 -93.5l-48 -272h280l-37 -219h-281l-158 -898h-265l158 898h-189zM890 898l38 219h189l57 321q29 174 141.5 273t277.5 99 q59 0 106 -12t68 -29l-28 -234q-39 37 -113 37q-72 0 -127.5 -52t-69.5 -131l-47 -272h279l-37 -219h-281l-157 -898h-266l159 898h-189zM1665 0l313 1782h264l-313 -1782h-264z" />
</font>
</defs>
</svg>
