<?xml version="1.0" encoding="utf-8"?>
<!-- Generator: Adobe Illustrator 24.2.0, SVG Export Plug-In . SVG Version: 6.00 Build 0)  -->
<svg version="1.1" xmlns="http://www.w3.org/2000/svg" xmlns:xlink="http://www.w3.org/1999/xlink" x="0px" y="0px"
	 viewBox="0 0 99.69 104.68" style="enable-background:new 0 0 99.69 104.68;" xml:space="preserve">
<style type="text/css">
	.st0{fill:#FFFFFF;}
	.st1{opacity:0.1;}
	.st2{clip-path:url(#SVGID_2_);}
	.st3{clip-path:url(#SVGID_4_);}
	.st4{filter:url(#Adobe_OpacityMaskFilter);}
	.st5{clip-path:url(#SVGID_6_);}
	.st6{opacity:0.05;}
	.st7{clip-path:url(#SVGID_11_);}
	.st8{clip-path:url(#SVGID_13_);}
	.st9{opacity:0.66;fill:url(#SVGID_16_);}
	.st10{display:none;}
	.st11{display:inline;}
	.st12{display:inline;clip-path:url(#SVGID_18_);}
	.st13{fill:#EBF9FB;}
	.st14{fill:#3B3D40;}
	.st15{fill:#8D9298;}
	.st16{display:inline;fill:#FFFFFF;}
	.st17{display:inline;fill:#FBB032;}
	.st18{fill:none;stroke:#000000;stroke-miterlimit:10;}
	.st19{clip-path:url(#SVGID_20_);}
	.st20{fill:url(#SVGID_21_);}
	.st21{opacity:0.19;fill:#FFFFFF;stroke:#FFFFFF;stroke-width:2;stroke-miterlimit:10;}
	.st22{fill:none;stroke:#FFFFFF;stroke-width:2;stroke-miterlimit:10;}
	.st23{display:inline;fill:url(#SVGID_22_);}
	.st24{fill:#005CAB;}
	.st25{clip-path:url(#SVGID_24_);}
	.st26{clip-path:url(#SVGID_26_);}
	.st27{clip-path:url(#SVGID_28_);}
	.st28{clip-path:url(#SVGID_30_);}
	.st29{clip-path:url(#SVGID_32_);}
	.st30{opacity:0.82;fill:#392862;}
	.st31{display:inline;opacity:0.3;}
	.st32{fill:none;stroke:#FFFFFF;stroke-width:3;stroke-miterlimit:10;}
	.st33{clip-path:url(#SVGID_34_);}
	.st34{clip-path:url(#SVGID_36_);}
	.st35{fill:#757575;}
	.st36{clip-path:url(#SVGID_38_);}
	.st37{clip-path:url(#SVGID_40_);}
	.st38{clip-path:url(#SVGID_42_);}
	.st39{fill:#009BD5;}
	.st40{fill:url(#SVGID_43_);}
	.st41{opacity:0.47;}
	.st42{fill:url(#SVGID_44_);}
	.st43{fill:url(#SVGID_45_);}
	.st44{fill:none;stroke:url(#SVGID_46_);stroke-width:7;stroke-miterlimit:10;stroke-dasharray:11.9174,11.9174;}
	.st45{fill:#392862;}
	.st46{fill:#2A224C;}
	.st47{fill:#028FBA;}
	.st48{fill:#493782;}
	.st49{fill:#03B2E8;}
	.st50{fill:#51459B;}
	.st51{fill:#00CFFF;}
	.st52{display:inline;fill:none;stroke:#FFFFFF;stroke-miterlimit:10;}
	.st53{fill:none;stroke:#FFFFFF;stroke-miterlimit:10;}
	.st54{display:none;opacity:0.5;}
	.st55{display:none;fill:none;stroke:#3B3D40;stroke-width:4;stroke-miterlimit:10;}
	.st56{display:none;fill:none;stroke:#00AEEE;stroke-miterlimit:10;}
	.st57{fill:none;stroke:#FFFFFF;stroke-width:4;stroke-miterlimit:10;}
	.st58{fill:none;stroke:#3B3D40;stroke-width:4;stroke-miterlimit:10;}
	.st59{display:none;fill:none;stroke:#000000;stroke-miterlimit:10;}
	.st60{fill:none;stroke:#392862;stroke-width:5;stroke-linecap:round;stroke-linejoin:round;stroke-miterlimit:10;}
</style>
<g id="Camada_9">
</g>
<g id="Camada_14">
</g>
<g id="Rodapé">
</g>
<g id="newsletter_1_">
</g>
<g id="faça_sua_cotaçao" class="st10">
</g>
<g id="Somos_representantes">
</g>
<g id="Consumiveis_hosp">
</g>
<g id="BW_hospitalar">
</g>
<g id="qualidade_dos_equi">
</g>
<g id="menu">
	<g id="Background">
	</g>
	<g id="barra_menu_1_">
	</g>
	<g id="cabeçario">
	</g>
</g>
<g id="stuffs">
	<path d="M55.2,52.43c3.4,3.59,6.78,7.16,10.16,10.73c10.99,11.59,21.99,23.18,32.98,34.77c1.72,1.82,1.75,4.23,0.11,5.74
		c-1.61,1.49-3.96,1.32-5.65-0.45C81.72,91.55,70.66,79.87,59.59,68.19c-3.25-3.42-6.5-6.85-9.76-10.28
		c-1.79,1.78-3.55,3.48-5.27,5.23c-4.9,4.98-9.78,9.99-14.68,14.97c-7.68,7.8-15.38,15.59-23.05,23.4
		c-1.25,1.28-2.68,1.78-4.38,1.15c-2.36-0.86-3.23-3.8-1.64-5.81c1.07-1.35,2.34-2.54,3.55-3.77C14.9,82.39,25.44,71.7,35.98,61
		c2.67-2.71,5.32-5.44,7.97-8.16c0.16-0.16,0.3-0.34,0.51-0.58c-2.54-2.68-5.04-5.32-7.54-7.96C26.15,32.94,15.37,21.57,4.59,10.2
		C3.45,9,2.29,7.83,1.19,6.59C-0.4,4.81-0.36,2.52,1.23,1.03c1.56-1.46,3.79-1.39,5.46,0.32c3.61,3.72,7.17,7.49,10.73,11.25
		C28.1,23.87,38.77,35.13,49.45,46.39c0.1,0.11,0.23,0.2,0.42,0.38c0.28-0.25,0.56-0.49,0.82-0.75
		C64.53,31.94,78.38,17.86,92.22,3.78c1.01-1.02,1.99-2.04,3.6-2c1.51,0.04,2.68,0.65,3.39,2c0.72,1.38,0.65,2.77-0.28,4.02
		c-0.62,0.82-1.38,1.55-2.1,2.29c-8.22,8.35-16.46,16.68-24.68,25.03c-5.47,5.56-10.93,11.13-16.39,16.69
		C55.56,51.98,55.4,52.19,55.2,52.43z"/>
</g>
</svg>
