<?xml version="1.0" standalone="no"?>
<svg width="23" height="24" viewBox="0 0 19.64 20.52" xmlns="http://www.w3.org/2000/svg">
	<path fill="currentColor" d="M17.54,20.52c-0.12,0-0.24,0-0.36,0c-0.03-0.04-0.05-0.08-0.09-0.11c-0.54-0.55-1.09-1.09-1.63-1.63
		c-0.2-0.2-0.39-0.39-0.57-0.57c-3.39,2.1-6.76,2.1-10.13,0c-0.03,0.03-0.08,0.06-0.12,0.1c-0.48,0.48-0.97,0.96-1.45,1.45
		c-0.25,0.25-0.49,0.51-0.74,0.76c-0.02,0-0.04,0-0.07,0c-0.09-0.03-0.18-0.07-0.27-0.1c-0.36-0.15-0.63-0.38-0.7-0.77
		c-0.01-0.08,0.01-0.19,0.07-0.25c0.53-0.55,1.08-1.09,1.62-1.62c0.17-0.17,0.36-0.33,0.54-0.5c-1.8-1.84-2.72-3.99-2.67-6.52
		C1.02,8.23,2,6.1,3.86,4.38c3.06-2.84,8.19-3.3,11.83-0.08c1.5,1.33,2.47,2.99,2.82,4.96c0.54,3.07-0.32,5.74-2.48,7.99
		c0.02,0.03,0.04,0.05,0.05,0.07c0.68,0.68,1.36,1.37,2.05,2.05c0.08,0.08,0.11,0.16,0.1,0.27C18.2,20.09,17.99,20.4,17.54,20.52z
			M3.18,10.92c0.02,3.71,2.99,6.64,6.64,6.64c3.67,0,6.63-2.94,6.64-6.64c0.01-3.66-2.98-6.65-6.63-6.65
		C6.15,4.29,3.17,7.27,3.18,10.92z" />
	<path fill="currentColor" d="M19.64,4.13c-0.07,0.26-0.12,0.53-0.2,0.79c-0.14,0.45-0.39,0.84-0.72,1.2c-0.51-1.1-1.19-2.04-2.06-2.85
		c-0.87-0.8-1.87-1.39-2.98-1.79c-0.01-0.02-0.02-0.04-0.03-0.05c0.08-0.06,0.16-0.12,0.23-0.19c1.33-1.24,3.47-1.2,4.78,0.14
		c0.51,0.52,0.82,1.15,0.94,1.87c0.01,0.06,0.03,0.13,0.04,0.19C19.64,3.67,19.64,3.9,19.64,4.13z" />
	<path fill="currentColor" d="M3.8,0c0.28,0.07,0.57,0.13,0.85,0.23C5.12,0.38,5.52,0.66,5.87,1c0.04,0.04,0.07,0.08,0.11,0.14
		c-1.13,0.4-2.13,1-3,1.8C2.1,3.74,1.43,4.68,0.92,5.77C0.66,5.52,0.46,5.23,0.34,4.91c-0.12-0.32-0.2-0.65-0.3-0.98
		C0.02,3.88,0.01,3.84,0,3.8c0-0.24,0-0.48,0-0.72c0.01-0.05,0.03-0.09,0.04-0.14c0.1-0.34,0.17-0.69,0.32-1.01
		C0.76,1.09,1.42,0.52,2.3,0.2C2.55,0.11,2.82,0.07,3.08,0C3.32,0,3.56,0,3.8,0z" />
	<path fill="currentColor" d="M8.89,12.05c0-0.08,0-0.13,0-0.18c0-1.89,0-3.78,0-5.67c0-0.39,0.14-0.7,0.5-0.89
		c0.56-0.29,1.24,0.06,1.32,0.7c0.01,0.08,0.01,0.16,0.01,0.25c0,1.26,0,2.52-0.01,3.79c0,0.16,0.05,0.19,0.2,0.19
		c1.28,0,2.56,0,3.84,0c0.41,0,0.73,0.16,0.91,0.55c0.26,0.56-0.11,1.2-0.72,1.27c-0.09,0.01-0.17,0.02-0.26,0.02
		c-1.86,0-3.72,0-5.57,0C9.03,12.05,8.97,12.05,8.89,12.05z" />
</svg>