<?xml version="1.0" standalone="no"?>
<!-- Generator: Adobe Illustrator 24.2.0, SVG Export Plug-In . SVG Version: 6.00 Build 0)  -->
<svg viewBox="0 0 14.04 22.41" width="15" height="24" xmlns="http://www.w3.org/2000/svg">
	<path fill="currentColor" d="M0,7.43c0-0.29,0-0.59,0-0.88c0.03-0.1,0.08-0.2,0.09-0.3c0.52-4.76,5.4-7.56,9.78-5.64
		c3.28,1.44,5.35,5.43,3.44,9.3c-0.7,1.42-1.6,2.76-2.5,4.08c-1.68,2.47-3.01,5.08-3.57,8.04c-0.02,0.09-0.08,0.18-0.18,0.38
		c-0.09-0.24-0.16-0.36-0.19-0.49c-0.42-1.88-1.07-3.69-2.05-5.35c-0.96-1.62-2.05-3.17-3.09-4.75c-0.75-1.13-1.41-2.29-1.6-3.66
		C0.09,7.92,0.04,7.68,0,7.43z M7.06,9.93c1.51,0,2.74-1.24,2.76-2.78c0.02-1.51-1.2-2.73-2.74-2.74C5.62,4.4,4.42,5.6,4.39,7.1
		C4.36,8.6,5.61,9.93,7.06,9.93z" />
</svg>