<?xml version="1.0" standalone="no"?>
<!-- Generator: Adobe Illustrator 24.2.0, SVG Export Plug-In . SVG Version: 6.00 Build 0)  -->
<svg viewBox="0 0 90.41 110.91" width="20" height="24" xmlns="http://www.w3.org/2000/svg">
	<path fill="currentColor" d="M51.68,2.25c0.84,0.19,1.45,0.69,2,1.33c0.59,0.69,1.25,1.33,1.87,2c1.09,1.2,2.47,1.57,4.02,1.35
			c1.06-0.15,2.11-0.39,3.17-0.6c1.44-0.28,2.71,0.34,3.34,1.67c0.44,0.94,0.89,1.88,1.29,2.83c0.72,1.71,2.01,2.55,3.84,2.69
			c1,0.07,1.99,0.21,2.99,0.34c1.11,0.15,2.07,1.07,2.23,2.18c0.17,1.17,0.29,2.35,0.43,3.53c0.17,1.48,0.95,2.54,2.27,3.19
			c1.08,0.53,2.19,0.99,3.28,1.5c1.22,0.57,1.76,1.68,1.5,3.01c-0.22,1.13-0.47,2.25-0.65,3.38c-0.22,1.43,0.09,2.71,1.16,3.76
			c0.93,0.91,1.83,1.83,2.74,2.75c0.85,0.86,1.03,2.06,0.45,3.12c-0.57,1.04-1.17,2.06-1.74,3.1c-0.69,1.26-0.71,2.54-0.05,3.82
			c0.53,1.04,1.08,2.07,1.62,3.1c0.7,1.35,0.48,2.64-0.61,3.67c-0.84,0.79-1.69,1.56-2.51,2.36c-1.01,0.99-1.42,2.18-1.14,3.58
			c0.23,1.16,0.46,2.32,0.68,3.49c0.26,1.39-0.3,2.48-1.59,3.07c-1.06,0.49-2.13,0.95-3.18,1.45c-1.26,0.59-2.04,1.57-2.25,2.96
			c-0.17,1.15-0.29,2.32-0.41,3.48c-0.13,1.29-1.03,2.29-2.32,2.46c-1.16,0.16-2.32,0.27-3.47,0.42c-1.43,0.18-2.48,0.93-3.11,2.21
			c-0.48,0.96-0.9,1.95-1.34,2.93c-0.81,1.78-1.9,2.33-3.82,1.93c-0.95-0.2-1.89-0.42-2.84-0.54c-1.41-0.18-2.68,0.17-3.7,1.22
			c-0.76,0.79-1.5,1.59-2.25,2.39c-1.14,1.2-2.47,1.4-3.9,0.58c-0.85-0.49-1.7-0.99-2.55-1.49c-1.43-0.84-2.87-0.82-4.32-0.06
			c-0.92,0.48-1.82,1.01-2.71,1.53c-1.28,0.75-2.88,0.63-3.86-0.56c-0.68-0.83-1.46-1.58-2.2-2.36c-1.1-1.16-2.47-1.49-4-1.24
			c-0.99,0.16-1.97,0.38-2.95,0.57c-1.36,0.26-2.79-0.48-3.38-1.76c-0.43-0.94-0.87-1.89-1.28-2.84c-0.67-1.54-1.83-2.4-3.5-2.58
			c-1.05-0.11-2.1-0.24-3.15-0.35c-1.28-0.14-2.28-1.15-2.4-2.44c-0.12-1.27-0.22-2.54-0.4-3.81C12.76,69.2,12,68.2,10.78,67.6
			c-1.06-0.52-2.15-0.99-3.23-1.48c-1.32-0.6-1.88-1.68-1.6-3.11c0.22-1.14,0.49-2.28,0.66-3.43c0.21-1.41-0.13-2.68-1.2-3.68
			c-0.88-0.83-1.76-1.65-2.63-2.47c-0.94-0.89-1.15-2.11-0.53-3.24c0.53-0.97,1.08-1.94,1.64-2.9c0.81-1.4,0.83-2.79,0.02-4.2
			c-0.52-0.9-1.03-1.81-1.53-2.71c-0.69-1.24-0.48-2.61,0.55-3.58c0.85-0.8,1.71-1.59,2.55-2.4c1.03-1,1.44-2.2,1.16-3.63
			c-0.24-1.21-0.48-2.43-0.69-3.65c-0.21-1.23,0.35-2.28,1.48-2.83c0.89-0.43,1.76-0.88,2.67-1.25c1.83-0.76,2.75-2.12,2.86-4.08
			c0.06-0.94,0.2-1.88,0.32-2.82c0.16-1.21,1.16-2.15,2.38-2.28c1.18-0.13,2.36-0.26,3.53-0.42c1.37-0.19,2.35-0.96,2.96-2.17
			c0.54-1.07,1-2.19,1.5-3.28c0.62-1.34,1.81-1.94,3.27-1.66c1,0.2,1.99,0.43,3,0.59c1.53,0.24,2.9-0.09,4-1.25
			c0.56-0.6,1.14-1.18,1.68-1.8c0.62-0.71,1.3-1.32,2.21-1.62c0.33,0,0.66,0,0.99,0c0.46,0.2,0.93,0.37,1.37,0.61
			c0.88,0.47,1.73,1,2.61,1.46c1.35,0.71,2.7,0.72,4.06,0c1.32-0.71,2.66-1.38,4-2.07C51.1,2.25,51.39,2.25,51.68,2.25z
			 M44.86,79.09c17.28,0.09,33.84-13.91,33.86-33.86c0.03-18.69-15.18-33.81-33.99-33.83c-18.49-0.02-33.68,15.25-33.69,33.8
			C11.03,65.48,28.27,79.44,44.86,79.09z" />
	<path fill="currentColor" d="M44.83,89.9c-0.27,1.2-0.54,2.39-0.82,3.59c-1.13,4.97-2.26,9.94-3.39,14.91c-0.05,0.21-0.12,0.42-0.22,0.61
			c-0.3,0.55-0.77,0.67-1.28,0.31c-0.2-0.14-0.38-0.34-0.55-0.53c-1.83-2.18-3.65-4.37-5.47-6.56c-1.03-1.23-2.31-1.59-3.81-1.06
			c-3.54,1.24-7.08,2.48-10.62,3.72c-0.43,0.15-0.89,0.38-1.29,0c-0.42-0.39-0.3-0.91-0.14-1.39c0.52-1.59,1.05-3.18,1.57-4.77
			c1.36-4.11,2.71-8.23,4.06-12.34c0.05-0.15,0.11-0.3,0.18-0.5c0.13,0.08,0.24,0.14,0.33,0.21c1.48,1.12,3.12,1.39,4.91,0.93
			c0.95-0.24,1.93-0.38,2.89-0.58c0.4-0.08,0.7,0.02,0.98,0.32c0.8,0.9,1.63,1.77,2.43,2.66c1.68,1.89,4.27,2.4,6.51,1.22
			c1.18-0.62,2.3-1.32,3.48-1.94c0.21-0.11,0.59-0.09,0.81,0.02c1.15,0.59,2.27,1.24,3.4,1.86c2.25,1.24,4.97,0.75,6.65-1.19
			c0.8-0.92,1.63-1.83,2.49-2.69c0.19-0.19,0.6-0.3,0.88-0.26c1.13,0.17,2.27,0.37,3.38,0.65c1.58,0.4,2.95-0.03,4.25-0.87
			c0.15-0.1,0.3-0.21,0.45-0.31c0.01-0.01,0.03-0.01,0.1-0.03c0.47,1.43,0.95,2.86,1.42,4.29c1.45,4.37,2.9,8.74,4.34,13.12
			c0.17,0.51,0.48,1.07,0.01,1.54c-0.47,0.48-1.02,0.16-1.53-0.02c-3.52-1.23-7.04-2.47-10.56-3.7c-1.41-0.49-2.66-0.15-3.63,1
			c-1.84,2.2-3.67,4.4-5.5,6.6c-0.34,0.41-0.67,0.9-1.29,0.76c-0.67-0.15-0.74-0.8-0.87-1.34c-1.47-6.03-2.93-12.06-4.39-18.1
			c-0.01-0.05-0.04-0.1-0.05-0.15C44.91,89.92,44.87,89.91,44.83,89.9z" />
	<path fill="currentColor"
		d="M75.31,45.4c-0.04,16.56-13.35,30.24-30.43,30.24c-17.33,0-30.52-13.9-30.43-30.49
			c0.09-16.69,13.83-30.24,30.67-30.18C61.72,15.04,75.37,28.79,75.31,45.4z M56.34,60.03c-0.05-0.33-0.08-0.56-0.12-0.78
			c-0.64-3.57-1.28-7.13-1.93-10.7c-0.06-0.33,0.01-0.53,0.26-0.75c2.8-2.56,5.58-5.14,8.37-7.71c0.13-0.12,0.31-0.17,0.47-0.25
			c-0.23-0.2-0.29-0.23-0.36-0.24c-3.95-0.55-7.9-1.11-11.85-1.64c-0.35-0.05-0.5-0.2-0.64-0.48c-1.69-3.27-3.39-6.53-5.09-9.79
			c-0.1-0.19-0.2-0.37-0.33-0.6c-0.1,0.17-0.15,0.27-0.2,0.36c-1.74,3.34-3.49,6.68-5.22,10.03c-0.16,0.31-0.34,0.44-0.69,0.49
			c-3.65,0.49-7.29,1-10.93,1.51c-0.36,0.05-0.73,0.12-1.25,0.2c0.26,0.21,0.4,0.32,0.53,0.44c2.74,2.54,5.48,5.08,8.23,7.61
			c0.29,0.27,0.36,0.51,0.29,0.9c-0.65,3.49-1.27,6.99-1.9,10.48c-0.05,0.27-0.08,0.55-0.13,0.9c0.27-0.13,0.45-0.21,0.63-0.3
			c3.39-1.69,6.78-3.37,10.16-5.07c0.35-0.18,0.61-0.17,0.96,0c2.55,1.29,5.11,2.56,7.67,3.84C54.25,59,55.25,59.49,56.34,60.03z" />
</svg>