<?xml version="1.0" encoding="UTF-8" standalone="no"?>
<svg
   xmlns:dc="http://purl.org/dc/elements/1.1/"
   xmlns:cc="http://creativecommons.org/ns#"
   xmlns:rdf="http://www.w3.org/1999/02/22-rdf-syntax-ns#"
   xmlns:svg="http://www.w3.org/2000/svg"
   xmlns="http://www.w3.org/2000/svg"
   xmlns:sodipodi="http://sodipodi.sourceforge.net/DTD/sodipodi-0.dtd"
   xmlns:inkscape="http://www.inkscape.org/namespaces/inkscape"
   version="1.1"
   id="Camada_1"
   x="0px"
   y="0px"
   viewBox="0 0 529.46996 404.16102"
   xml:space="preserve"
   sodipodi:docname="boschi-logo.svg"
   width="529.46997"
   height="404.16104"
   inkscape:version="1.0.1 (3bc2e813f5, 2020-09-07)"><metadata
   id="metadata105"><rdf:RDF><cc:Work
       rdf:about=""><dc:format>image/svg+xml</dc:format><dc:type
         rdf:resource="http://purl.org/dc/dcmitype/StillImage" /></cc:Work></rdf:RDF></metadata><defs
   id="defs103" /><sodipodi:namedview
   pagecolor="#ffffff"
   bordercolor="#666666"
   borderopacity="1"
   objecttolerance="10"
   gridtolerance="10"
   guidetolerance="10"
   inkscape:pageopacity="0"
   inkscape:pageshadow="2"
   inkscape:window-width="1366"
   inkscape:window-height="705"
   id="namedview101"
   showgrid="false"
   inkscape:zoom="0.90377633"
   inkscape:cx="274.25889"
   inkscape:cy="200.66612"
   inkscape:window-x="-8"
   inkscape:window-y="-8"
   inkscape:window-maximized="1"
   inkscape:current-layer="Camada_1" />
<style
   type="text/css"
   id="style2">
	.st0{fill:#B77333;}
	.st1{fill:#282929;}
</style>
<g
   id="g98"
   transform="translate(-156.79,-95.44)">
	<path
   class="st0"
   d="m 453.75,175 c -0.28,0 -0.6,0.08 -1.03,0.21 l -0.13,0.04 -9.92,2.65 c -0.88,0.17 -1.09,0.41 -1.33,1.08 l -0.05,0.27 c 0,3.62 -0.21,5.8 -1.47,9.23 -0.19,0.61 -0.25,1.04 -0.14,1.36 0.09,0.41 0.36,0.66 0.82,0.83 1.75,0.21 3.41,0.47 4.99,0.7 1.12,0.17 2.19,0.32 3.2,0.46 0.28,0.04 0.5,0.07 0.74,0.07 0.91,0 1.38,-0.45 1.96,-1.29 1.98,-4.57 3.21,-7.51 3.39,-14 -0.01,-0.5 -0.01,-1.61 -1.03,-1.61 m -1.2,2.47 c -0.02,0.18 -0.04,0.39 -0.04,0.62 l -0.03,0.19 c -0.95,4.86 -1.3,6.68 -3.22,11.17 -0.08,0.26 -0.14,0.32 -0.18,0.33 0,0 -0.05,0 -0.25,0 h -0.9 l -5.16,-1.01 c -0.56,-0.07 -0.7,-0.1 -0.73,-0.13 0.07,-0.01 0.07,-0.22 0.12,-0.41 l 0.05,-0.33 c 0.78,-2.82 1.14,-4.24 1.33,-7.47 0,-0.42 0,-0.56 0.77,-0.83 l 8.24,-2.21 z"
   id="path4" />
	<path
   class="st0"
   d="m 437.29,178.54 -10.07,1.66 c -0.9,0.14 -1.62,0.35 -1.62,1.36 -0.08,0.5 -0.13,1.02 -0.15,1.52 -0.07,0.51 -0.08,0.98 -0.15,1.46 -0.12,0.27 -0.16,0.55 -0.08,0.81 0.13,0.33 0.4,0.6 0.82,0.83 3.16,1.38 6.98,2.86 9.51,3.66 0.23,0.08 0.45,0.12 0.67,0.12 0.75,0 1.27,-0.5 1.55,-1.51 0.89,-2.66 1.31,-5.23 1.31,-7.71 l -0.04,-0.35 c -0.13,-0.98 -0.22,-2.1 -1.75,-1.85 m -1.59,8.3 c -0.18,0.62 -0.22,0.69 -0.33,0.69 -0.06,0 -0.15,0 -0.31,-0.04 -2.25,-0.59 -4.82,-1.54 -7.86,-2.95 -0.06,-0.03 -0.09,-0.05 -0.13,-0.07 0.04,-0.08 0.07,-0.19 0.11,-0.29 l 0.17,-1.73 c 0.03,-0.06 0.08,-0.18 1.17,-0.33 l 7.44,-1.17 c 0.17,-0.01 0.31,-0.04 0.44,-0.04 0.43,0 0.43,0.08 0.43,0.33 -0.18,1.86 -0.53,3.65 -1.13,5.6"
   id="path6" />
	<path
   class="st0"
   d="m 440.53,239.3 c -0.29,0.04 -0.85,0.16 -1.04,0.61 -0.18,0.46 0.14,0.86 0.39,1.17 0.06,0.06 0.12,0.16 0.16,0.25 1.54,2 2.14,2.18 4.1,2.5 l 0.24,0.04 c 0.19,0.03 0.3,0.03 0.44,0.03 1.01,0 1.61,-0.31 1.75,-0.91 0.27,-1.13 -1.62,-2.43 -2.67,-2.95 -1.37,-0.52 -2.13,-0.74 -3.37,-0.74 m 4.95,3.44 c -0.08,0 -0.38,0.07 -0.97,0.05 l -0.21,-0.05 c -1.7,-0.26 -2.05,-0.33 -3.36,-2.04 -0.04,-0.11 -0.13,-0.2 -0.19,-0.29 0.92,0.02 1.5,0.18 2.74,0.61 1.19,0.63 1.94,1.45 1.99,1.72"
   id="path8" />
	<path
   class="st0"
   d="m 467.39,191.93 c 3.29,-5.87 4.94,-11.64 2.39,-20.92 l -0.08,-0.17 c -0.06,-0.1 -0.11,-0.2 -0.17,-0.28 -0.19,-0.34 -0.45,-0.8 -1.29,-0.8 l -0.2,0.05 -9.74,3.8 c -0.98,0.4 -1.17,0.74 -1.17,1.5 -0.48,6.12 -0.92,9.27 -3.4,15.4 -0.19,0.26 -0.23,0.59 -0.08,0.92 0.22,0.54 0.86,1.06 1.54,1.06 l 9.79,0.68 0.08,-0.01 c 0.13,-0.04 0.28,-0.06 0.38,-0.07 0.6,-0.08 1.28,-0.18 1.95,-1.16 m -1.99,-1.25 -0.69,0.23 -8.12,-0.48 c 1.86,-5.79 2.8,-9.59 2.8,-14.33 0,-0.1 0,-0.15 0.55,-0.3 l 7.54,-2.99 c -0.03,0.02 0.07,0 0.11,0 0,0 0.06,0.3 0.1,0.56 l 0.04,0.18 c 1.29,7.17 0.74,11.22 -2.33,17.13"
   id="path10" />
	<path
   class="st0"
   d="m 379.72,236.5 c -1.82,0 -3.36,1.61 -3.36,3.53 0,1.78 1.57,3.34 3.36,3.34 1.8,0 3.36,-1.56 3.36,-3.34 0,-1.92 -1.53,-3.53 -3.36,-3.53 m 0,5.79 c -1.19,0 -2.26,-1.07 -2.26,-2.25 0,-1.33 1.03,-2.43 2.26,-2.43 1.23,0 2.26,1.1 2.26,2.43 0.01,1.18 -1.08,2.25 -2.26,2.25"
   id="path12" />
	<path
   class="st0"
   d="m 426.31,265.85 c 0.91,0 1.55,-0.68 1.55,-1.71 0,-0.65 -0.59,-1.55 -1.55,-1.55 -0.81,0 -1.53,0.96 -1.53,1.55 0,0.92 0.72,1.71 1.53,1.71"
   id="path14" />
	<path
   class="st0"
   d="m 443.48,273.02 c 1.01,0 1.71,-0.96 1.71,-1.85 0,-0.84 -0.79,-1.55 -1.71,-1.55 -0.66,0 -1.38,0.79 -1.38,1.55 0,0.82 0.64,1.85 1.38,1.85"
   id="path16" />
	<path
   class="st0"
   d="m 408.63,262.87 c 1.77,0 3.22,-1.51 3.22,-3.36 0,-1.86 -1.44,-3.35 -3.22,-3.35 -1.9,0 -3.5,1.56 -3.5,3.35 0,1.82 1.6,3.36 3.5,3.36 m 0,-5.63 c 1.13,0 2.11,1.06 2.11,2.27 0,1.23 -0.98,2.26 -2.11,2.26 -1.31,0 -2.41,-1.03 -2.41,-2.26 0,-1.21 1.1,-2.27 2.41,-2.27"
   id="path18" />
	<path
   class="st0"
   d="m 408.46,261.21 c 0.97,0 1.73,-0.75 1.73,-1.7 0,-0.9 -0.72,-1.54 -1.73,-1.54 -1.02,0 -1.7,0.63 -1.7,1.54 0,0.96 0.77,1.7 1.7,1.7"
   id="path20" />
	<path
   class="st0"
   d="m 394,246.52 c -1.9,0 -3.52,1.55 -3.52,3.36 0,1.91 1.54,3.36 3.52,3.36 1.71,0 3.02,-1.48 3.02,-3.36 0,-1.8 -1.4,-3.36 -3.02,-3.36 m 0,5.6 c -1.4,0 -2.42,-0.94 -2.42,-2.25 0,-1.23 1.11,-2.27 2.42,-2.27 1.02,0 1.96,1.09 1.96,2.27 0,1.26 -0.86,2.25 -1.96,2.25"
   id="path22" />
	<path
   class="st0"
   d="m 379.72,238.49 c -0.79,0 -1.53,0.75 -1.53,1.54 0,0.77 0.7,1.69 1.53,1.69 0.85,0 1.36,-0.66 1.36,-1.69 0.01,-1.14 -0.68,-1.54 -1.36,-1.54"
   id="path24" />
	<path
   class="st0"
   d="m 393.83,248.34 c -1.01,0 -1.7,0.61 -1.7,1.54 0,0.98 0.74,1.7 1.7,1.7 0.97,0 1.71,-0.75 1.71,-1.7 0.01,-0.93 -0.68,-1.54 -1.71,-1.54"
   id="path26" />
	<path
   class="st0"
   d="m 460.99,276.42 c 1.94,0 3.5,-1.58 3.5,-3.53 0,-1.9 -1.5,-3.36 -3.5,-3.36 -1.88,0 -3.37,1.48 -3.37,3.36 0,1.9 1.54,3.53 3.37,3.53 m 0,-5.79 c 1.41,0 2.42,0.97 2.42,2.26 0,1.33 -1.08,2.42 -2.42,2.42 -1.22,0 -2.25,-1.11 -2.25,-2.42 0,-1.42 1.14,-2.26 2.25,-2.26"
   id="path28" />
	<path
   class="st0"
   d="m 394.72,219.95 -0.06,0.32 1.01,0.83 c 1.22,1.04 1.78,1.51 3.58,1.95 l 0.56,-0.88 c -0.14,-0.15 -0.26,-0.52 -0.42,-0.95 0.35,0.55 0.63,1.08 0.88,1.6 0.26,0.52 0.49,1.02 0.81,1.49 0.94,0.97 1.85,1.19 3.08,1.5 l 0.22,0.05 0.46,-0.96 c -0.14,-0.11 -0.24,-0.31 -0.35,-0.53 l 0.29,0.4 c 0.34,0.48 0.56,0.96 0.8,1.46 0.31,0.65 0.61,1.36 1.22,2.06 1.11,1.09 1.97,1.29 2.96,1.5 0.22,0.05 0.4,0.1 0.62,0.16 l 0.48,-0.96 c -0.26,-0.19 -0.52,-0.73 -0.81,-1.27 -0.48,-0.92 -1.05,-2.07 -2.05,-2.7 -1.09,-0.74 -1.99,-1.09 -2.76,-1.09 h -0.94 c -0.04,-0.08 -0.05,-0.13 -0.07,-0.18 -0.29,-0.8 -0.69,-1.79 -1.59,-2.35 -0.96,-0.64 -1.87,-1.03 -2.81,-1.23 l -0.52,0.77 c -0.05,-0.15 -0.08,-0.32 -0.13,-0.47 -0.35,-1.25 -0.75,-2.52 -1.48,-3.02 l -0.13,-0.1 h -0.18 c -1.42,-0.01 -2.45,1 -2.67,2.6 m 12.67,5.95 c 0.75,0.5 1.26,1.46 1.69,2.3 0.04,0.12 0.1,0.23 0.18,0.35 -0.57,-0.16 -1.07,-0.42 -1.67,-1.01 -0.47,-0.57 -0.75,-1.15 -1.02,-1.77 -0.1,-0.15 -0.16,-0.31 -0.22,-0.46 0.31,0.14 0.65,0.33 1.04,0.59 m -5.36,-3.59 c 0.63,0.38 0.89,1.12 1.17,1.82 0.05,0.1 0.08,0.21 0.12,0.33 -0.56,-0.18 -0.99,-0.4 -1.41,-0.84 -0.22,-0.34 -0.44,-0.79 -0.68,-1.28 -0.1,-0.22 -0.19,-0.44 -0.32,-0.65 0.37,0.15 0.76,0.36 1.12,0.62 m -3.91,-1.56 c 0.08,0.31 0.17,0.61 0.27,0.88 -0.74,-0.3 -1.21,-0.68 -2.03,-1.38 l -0.52,-0.43 c 0.14,-0.57 0.49,-1.28 1.36,-1.37 0.36,0.4 0.69,1.49 0.92,2.3"
   id="path30" />
	<path
   class="st0"
   d="m 411.57,229.67 c 0.32,0.67 0.62,1.34 1.22,2.05 1.11,1.1 1.98,1.3 2.99,1.53 0.18,0.02 0.4,0.07 0.61,0.12 l 0.47,-0.96 c -0.25,-0.2 -0.52,-0.71 -0.81,-1.28 -0.47,-0.91 -1.05,-2.04 -2.03,-2.71 -1.09,-0.72 -2,-1.07 -2.78,-1.07 h -1.09 l 0.64,0.86 c 0.34,0.47 0.57,0.95 0.78,1.46 m 1.85,-0.33 c 0.76,0.5 1.22,1.46 1.66,2.31 0.06,0.11 0.12,0.24 0.2,0.33 -0.59,-0.16 -1.09,-0.4 -1.68,-1.01 -0.47,-0.55 -0.75,-1.13 -1.03,-1.75 -0.08,-0.18 -0.15,-0.32 -0.22,-0.5 0.31,0.17 0.67,0.36 1.07,0.62"
   id="path32" />
	<path
   class="st0"
   d="m 443.67,274.67 c 1.91,0 3.49,-1.58 3.49,-3.5 0,-1.85 -1.61,-3.38 -3.49,-3.38 -1.8,0 -3.39,1.58 -3.39,3.38 0,1.89 1.53,3.5 3.39,3.5 m 0,-5.78 c 1.28,0 2.41,1.03 2.41,2.28 0,1.32 -1.11,2.43 -2.41,2.43 -1.23,0 -2.28,-1.13 -2.28,-2.43 -0.01,-1.19 1.07,-2.28 2.28,-2.28"
   id="path34" />
	<path
   class="st0"
   d="m 460.99,274.59 c 0.92,0 1.53,-0.69 1.53,-1.71 0,-1 -0.6,-1.71 -1.53,-1.71 -0.92,0 -1.53,0.71 -1.53,1.71 0,1.03 0.62,1.71 1.53,1.71"
   id="path36" />
	<path
   class="st0"
   d="m 417.48,232.59 c 0.31,0.66 0.61,1.36 1.21,2.04 1.11,1.12 1.99,1.3 2.99,1.53 0.18,0.04 0.38,0.09 0.61,0.13 l 0.48,-0.96 c -0.26,-0.19 -0.52,-0.72 -0.81,-1.27 -0.47,-0.93 -1.04,-2.06 -2.04,-2.7 -1.1,-0.73 -2,-1.1 -2.78,-1.1 h -1.06 l 0.6,0.86 c 0.36,0.49 0.58,0.96 0.8,1.47 m 1.84,-0.34 c 0.75,0.51 1.25,1.46 1.67,2.3 0.07,0.12 0.11,0.26 0.19,0.35 -0.59,-0.16 -1.07,-0.4 -1.68,-0.99 -0.47,-0.59 -0.75,-1.17 -1.02,-1.77 -0.09,-0.16 -0.18,-0.33 -0.23,-0.49 0.32,0.16 0.67,0.35 1.07,0.6"
   id="path38" />
	<path
   class="st0"
   d="m 388.25,297.27 0.14,0.08 c 11.62,7 23.64,14.22 32.49,23.25 l 0.65,0.63 0.61,-0.68 c 8.82,-9.01 20.89,-16.27 32.57,-23.29 l 0.15,-0.08 c 23.51,-14.14 47.81,-28.74 47.81,-58.67 L 503,106.2 v -0.54 l -1.27,0.6 c -12.91,6.25 -26.41,9.42 -40.12,9.42 -13.67,0 -27.01,-3.17 -39.69,-9.42 l -0.41,-0.19 -0.38,0.19 c -12.8,6.25 -26.17,9.42 -39.76,9.42 -13.65,0 -27.14,-3.17 -40.07,-9.42 l -1.28,-0.6 0.33,132.89 c 0,29.93 24.32,44.55 47.9,58.72 M 341.8,108.47 c 12.73,5.96 26.05,8.97 39.56,8.97 13.76,0 27.26,-3.16 40.14,-9.39 12.82,6.24 26.31,9.39 40.1,9.39 13.51,0 26.83,-3.02 39.63,-8.97 l -0.34,130.05 c 0,28.93 -23.88,43.28 -46.98,57.16 -11.53,6.92 -23.46,14.09 -32.41,23.02 -8.94,-8.89 -20.8,-16.01 -32.35,-22.95 -23.12,-13.9 -47.03,-28.26 -47.03,-57.23 z"
   id="path40" />
	<path
   class="st0"
   d="m 508.87,96.02 c -2.96,1.28 -5.93,2.68 -8.31,3.79 l -0.37,0.17 c -1.86,0.88 -3.79,1.79 -5.66,2.65 -2.73,0.91 -5.85,1.9 -9.29,2.92 l -2.18,0.68 -1.58,0.3 c -2.74,0.56 -5.32,1.08 -8.05,1.48 -3.04,0.31 -6.48,0.66 -9.64,0.66 -3.4,0 -6.5,-0.16 -9.5,-0.32 l -0.33,-0.01 c -3.7,-0.53 -6.8,-1 -9.93,-1.78 -3.25,-0.78 -6.51,-1.75 -10.02,-2.98 -1.76,-0.46 -3.55,-1.21 -5.29,-1.92 l -0.54,-0.23 c -0.51,-0.2 -1.02,-0.41 -1.5,-0.61 l -5.15,-2.48 -7.62,3.47 c -4.15,1.66 -8.45,3.03 -12.43,4.25 -0.93,0.18 -1.89,0.39 -2.83,0.59 -1.43,0.33 -2.99,0.67 -4.66,0.88 -3.75,0.6 -7.84,1.15 -12.27,1.15 -2.43,0 -4.93,0 -7.38,-0.17 -4,-0.32 -7.6,-0.92 -12.09,-1.79 -2.47,-0.58 -5.12,-1.3 -6.87,-1.8 -3.49,-1.17 -7.55,-2.56 -11.44,-4.25 l -11.01,-5.23 0.31,144.29 0.17,4.5 0.52,4.37 0.81,4.36 1.01,4.04 1.54,3.71 1.83,3.87 2.02,3.51 2.16,3.35 4.87,6.21 5.84,5.52 6.16,4.99 c 3.26,2.4 6.78,4.86 9.8,6.96 4.96,3.19 10.05,6.28 14.82,9.13 l 0.19,0.12 c 6.14,3.71 12.5,7.56 18.52,11.57 2.67,1.93 5.61,4.2 8.52,6.57 l 2.79,2.44 6.7,6.54 6.73,-6.55 c 2.66,-2.49 5.59,-4.74 8.18,-6.69 l 6.06,-4.29 c 4.91,-3.15 9.99,-6.23 14.89,-9.2 l 0.65,-0.39 c 6.05,-3.69 12.29,-7.5 18.34,-11.54 l 2.12,-1.55 c 2.34,-1.69 4.97,-3.62 7.37,-5.61 l 5.97,-5.31 2.84,-2.69 2.69,-3.18 2.36,-3.02 2.16,-3.37 2.05,-3.52 1.65,-3.86 1.53,-3.67 1.15,-4.06 0.86,-4.36 0.49,-4.37 0.17,-4.52 0.34,-143.72 v -0.54 z m -165.68,6.24 c 3.88,1.7 7.72,3.02 11.66,4.34 2.18,0.64 4.81,1.32 7.01,1.83 4.4,0.86 8.19,1.5 12.35,1.83 2.51,0.18 5.05,0.18 7.5,0.18 4.57,0 8.72,-0.57 12.52,-1.17 1.6,-0.21 3.05,-0.52 4.59,-0.85 l 0.2,-0.04 c 1,-0.23 1.89,-0.42 2.88,-0.6 3.86,-1.2 8.37,-2.62 12.7,-4.35 l 6.91,-3.14 4.45,2.14 c 0.37,0.16 0.73,0.3 1.08,0.45 0.28,0.12 0.54,0.23 0.83,0.34 l 0.22,0.1 c 1.78,0.73 3.61,1.5 5.42,1.97 3.62,1.27 6.93,2.25 10.12,2.98 3.42,0.86 6.76,1.36 10.19,1.84 l 0.39,0.03 c 2.86,0.14 6.12,0.31 9.61,0.31 3.06,0 6.26,-0.31 9.37,-0.62 l 0.48,-0.04 c 2.73,-0.42 5.21,-0.9 8.32,-1.54 l 1.55,-0.3 3.2,-0.97 c 2.78,-0.85 5.66,-1.73 8.44,-2.71 2.17,-0.96 4.23,-1.93 6.18,-2.84 2.21,-1.05 4.58,-2.16 6.98,-3.23 l -0.31,141.48 -0.16,4.41 -0.49,4.23 -0.82,4.23 -1.14,3.89 -1.47,3.56 -1.61,3.76 -1.94,3.4 -2.14,3.25 -2.25,2.92 -2.62,3.09 -2.73,2.59 -5.96,5.27 c -2.09,1.74 -4.42,3.45 -6.64,5.1 l -0.59,0.43 c -0.46,0.32 -0.91,0.65 -1.38,0.98 l -0.74,0.54 c -6.09,4.07 -12.34,7.89 -18.74,11.76 l -0.27,0.17 c -4.87,2.96 -9.91,6.02 -14.81,9.2 l -6.14,4.3 -0.24,0.19 c -2.71,2.08 -5.52,4.24 -8.11,6.67 l -5.51,5.36 -5.5,-5.37 -2.84,-2.47 c -3.1,-2.54 -6.11,-4.85 -8.66,-6.68 -6.22,-4.14 -12.91,-8.18 -18.8,-11.74 -4.33,-2.61 -9.72,-5.85 -14.75,-9.07 -2.87,-2.02 -6.47,-4.53 -9.68,-6.92 l -6.09,-4.9 -5.72,-5.39 -4.71,-6.03 -2.08,-3.25 -1.98,-3.41 -1.8,-3.75 -1.44,-3.56 -0.98,-3.88 -0.81,-4.25 -0.47,-4.23 -0.18,-4.39 -0.31,-141.44 z"
   id="path42" />
	<path
   class="st0"
   d="m 452.25,245.9 c -1.11,-1.05 -2.14,-2.02 -3.13,-3 l -0.7,-0.4 v -0.03 l 0.93,-4.22 0.48,-1.07 c 0.89,-2.51 0.37,-4.36 -0.22,-6.49 -0.11,-0.39 -0.19,-0.77 -0.29,-1.19 h -0.01 c 0.49,-0.04 0.97,-0.04 1.48,-0.04 1.68,-0.04 3.4,-0.06 5.23,-1.38 l 0.12,-0.12 c 4,-4.95 7.32,-9.55 10.81,-14.96 1.11,-2.65 0.61,-5.25 0.17,-7.55 -0.17,-0.81 -0.28,-1.44 -0.36,-2.07 12.26,-19.75 12.23,-29.2 -0.2,-50.35 0.19,-0.25 0.44,-0.51 0.7,-0.78 l 0.23,-0.25 c 0.91,-0.94 1.94,-2 2.05,-3.24 l 0.02,-0.21 -0.1,-0.22 c -2.03,-3.91 -13.67,-15.2 -18.1,-18.61 l -0.24,-0.12 -1.13,-0.2 -0.13,0.01 c -3.29,0.33 -7,0.93 -10.75,1.77 -5,-2.15 -10.57,-3.29 -16.09,-3.29 -14.26,0 -27.5,7.09 -37.29,20 -3.61,5.63 -14.46,25.48 -2.16,44.32 1.52,2.38 3.63,4.65 5.84,6.97 l 0.04,0.04 c 4.69,5.01 9.12,9.76 7.52,15.88 -1.59,0.53 -3.58,2.05 -4.34,4.28 l -12.51,8.16 c -0.88,0.2 -3.18,1.1 -4.09,2.96 l -2.54,1.21 c -4.69,2.16 -13.56,7.03 -20.43,15.41 -1.2,1.53 -2.43,3.11 -2.97,5.42 l -0.19,0.81 0.81,0.12 c 4.46,0.78 10.21,7.95 11.45,12.03 l 0.42,1.32 0.91,-1.04 c 5.99,-6.74 12,-10.15 19.49,-11.09 2.94,2.28 5.44,4.31 8.88,7.11 l 2.59,2.1 c 7.16,5.47 10.91,6.47 15.69,6.47 1.39,0 2.87,-0.08 4.56,-0.18 l 1.04,-0.07 c 0.49,-0.04 1.01,-0.07 1.55,-0.1 8.99,7.97 23.48,12.7 38.77,12.7 h 0.01 c 8.75,-0.33 13.02,-1.39 13.92,-3.49 1.13,-6.54 -0.53,-12.62 -5.36,-19.68 -3.18,-4.91 -7.65,-9.15 -12.38,-13.65 m 11.33,17.73 c -0.25,-0.12 -0.53,-0.21 -0.81,-0.26 -7.4,-0.81 -12.4,-6.71 -14.9,-17.57 7.19,6.44 12.39,12.33 15.71,17.83 m -65,-38.53 c 0.21,0.17 0.46,0.41 0.7,0.72 0.09,0.09 0.18,0.17 0.27,0.24 l -10.3,8.49 c -0.52,-0.37 -1.03,-0.73 -1.53,-1.08 z m -12.23,7.45 c -0.56,-0.37 -1.11,-0.73 -1.64,-1.06 l 11.24,-7.86 c 0.21,0.1 0.41,0.21 0.61,0.3 0.22,0.1 0.42,0.2 0.61,0.3 z m 14.51,-5.54 c 0.56,0.33 1.12,0.56 1.64,0.77 l -10.2,9 c -0.59,-0.44 -1.16,-0.86 -1.74,-1.28 z m 3.15,1.5 c 0.24,0.15 0.42,0.3 0.57,0.47 0.13,0.14 0.26,0.25 0.38,0.36 l -9.78,9.66 c -0.54,-0.42 -1.09,-0.84 -1.63,-1.26 z m 2.25,1.76 c 0.71,0.4 1.43,0.68 2.1,0.92 0.98,0.33 1.78,0.64 2.36,1.26 1.41,1.34 2.83,1.77 3.98,2.12 0.86,0.27 1.59,0.5 2.14,1.05 1.3,1.2 2.72,1.58 3.97,1.93 l 0.07,0.02 c 0.98,0.26 1.82,0.49 2.43,1.04 1.37,1.06 2.77,1.41 3.89,1.68 0.89,0.23 1.66,0.42 2.29,0.86 1.13,0.77 2.26,1.02 3.25,1.24 l 0.15,0.04 c 0.86,0.18 1.52,0.33 2.07,0.71 1.48,0.86 2.97,1.06 4.29,1.24 l 0.35,0.06 c 0.33,0.05 0.63,0.1 0.94,0.15 -0.1,7.21 0.67,12.18 4.75,17.15 -10.86,-2.86 -18.29,-6.45 -28.05,-11.98 l -3.08,-2.09 c -0.59,-0.31 -1.32,-0.69 -2.12,-0.69 -0.47,0 -0.9,0.13 -1.26,0.4 -0.37,0.25 -0.73,0.6 -1.13,1.06 l -0.11,0.11 c -0.52,0.51 -1.04,1.03 -1.53,1.11 -0.05,0.02 -0.13,0.03 -0.21,0.03 -0.58,0 -1.25,-0.45 -1.99,-1.33 -1.48,-1.73 -5.08,-4.93 -9.41,-8.39 z m 17.19,1.06 c -0.78,-0.11 -1.27,-0.5 -1.92,-1.05 l -0.08,-0.06 c -0.95,-0.76 -2.12,-1.74 -4.44,-2.03 -0.66,-0.11 -1.12,-0.5 -1.66,-0.98 -0.72,-0.64 -1.62,-1.45 -3.33,-1.66 -0.68,-0.11 -1.23,-0.64 -1.94,-1.32 -0.01,-0.01 -0.03,-0.02 -0.04,-0.03 0.45,-1.64 1.7,-6.74 1.57,-12.27 -0.18,-7.74 -2.97,-12.43 -4.14,-14.1 -1.64,-2.34 -5.08,-6.88 -7.79,-10.43 2,0.13 2.73,-0.74 3.22,-1.32 0.03,-0.05 0.06,-0.08 0.1,-0.12 0.83,0.37 1.62,0.43 2.03,0.43 h 0.22 c 10.94,20.41 24.69,34.58 40.89,42.15 -1.09,2.92 -2.42,5.63 -4.16,9 -0.04,-0.01 -0.06,-0.02 -0.08,-0.03 -0.06,-0.04 -0.12,-0.05 -0.17,-0.08 -0.73,-0.34 -1.04,-0.46 -3.28,-0.82 -0.65,-0.07 -0.85,-0.18 -1.16,-0.41 -0.64,-0.41 -1.41,-0.94 -4.11,-1.24 -0.84,-0.07 -1.37,-0.37 -2.01,-0.7 -0.64,-0.36 -1.51,-0.86 -2.83,-0.95 -0.69,-0.06 -1.24,-0.39 -1.88,-0.77 -0.8,-0.49 -1.67,-1.03 -3.01,-1.21 m 3.73,5.83 c 0.04,0.11 0.13,0.23 0.18,0.35 -0.59,-0.18 -1.06,-0.41 -1.67,-1.02 -0.48,-0.55 -0.75,-1.15 -1.01,-1.77 -0.08,-0.15 -0.18,-0.33 -0.22,-0.48 0.3,0.15 0.65,0.36 1.04,0.62 0.76,0.5 1.27,1.45 1.68,2.3 M 408.63,209 c -1.16,-5.99 -3.35,-9.97 -5,-12.26 -1.71,-2.39 -3.48,-4.48 -4.77,-5.99 l -0.59,-0.68 c -0.56,-0.65 -0.97,-1.12 -1.2,-1.45 -1.03,-1.37 -1.91,-2.66 -2.69,-3.92 0.42,0.12 0.88,0.16 1.35,0.12 1.13,1.46 7.9,10.23 10.47,13.9 0.86,1.21 3.68,5.75 3.87,13.26 0.1,4.63 -0.84,9.08 -1.33,11.08 -0.32,-0.22 -0.64,-0.4 -0.99,-0.53 0.54,-2.06 1.91,-8.14 0.88,-13.53 m -10.88,-34.42 c -0.24,-1.18 -0.15,-1.5 0.42,-1.72 0.25,-0.09 0.47,-0.12 0.64,-0.12 0.53,0 0.94,0.4 1.69,1.38 l 0.57,0.8 0.63,-0.76 c 0.8,-0.97 1.65,-1.84 2.65,-1.31 0.25,0.11 0.41,0.27 0.48,0.5 0.1,0.36 -0.07,0.96 -0.52,1.69 l -0.92,1.56 1.75,-0.39 c 0.25,-0.06 0.49,-0.09 0.77,-0.09 0.61,0 1.65,0.16 1.75,1.23 0.01,0.12 0.04,0.53 -0.27,0.9 -0.31,0.37 -1,0.61 -1.91,0.65 l -1.28,0.08 0.65,1.13 c 0.25,0.38 0.9,1.67 0.67,2.55 -0.07,0.28 -0.24,0.5 -0.52,0.66 -0.11,0.06 -0.25,0.1 -0.42,0.1 -0.73,0 -1.55,-0.63 -1.63,-0.86 l -0.08,-0.22 -1.46,0.5 0.08,0.22 c 0.1,0.29 0.04,0.6 -0.17,0.87 -0.1,0.14 -0.57,0.64 -1.71,0.5 -0.88,-0.11 -0.93,-0.35 -0.84,-1.65 0,-0.12 0.01,-0.24 0.02,-0.36 0.01,-0.14 0.02,-0.27 0.02,-0.41 v -0.82 c 0.54,0.27 1.16,0.36 1.74,0.36 1.08,0 1.97,-0.33 2.56,-1 0.63,-0.68 0.9,-1.57 0.81,-2.65 0,-1.38 -1.76,-2.69 -3.59,-2.47 -1.23,0 -3,1.1 -3,2.89 0,1.39 0.48,2.2 1.13,2.67 l -0.74,0.29 c -0.11,0.05 -0.23,0.11 -0.36,0.18 l -0.2,0.1 c -0.47,0.23 -1.15,0.58 -1.66,0.58 -0.25,0 -0.42,-0.08 -0.52,-0.26 -0.42,-0.68 -0.42,-0.99 -0.38,-1.12 0.1,-0.33 1.07,-0.71 1.55,-0.89 l 0.15,-0.06 -0.06,-1.38 -0.43,-0.11 c -1.34,-0.37 -1.76,-0.61 -1.72,-1.35 0.05,-0.86 0.27,-0.9 0.97,-0.9 0.09,0 0.18,0 0.29,0.01 0.12,0.01 0.25,0.01 0.36,0.01 0.45,0.03 0.95,0.06 1.45,0 l 0.7,-0.06 v -0.7 c 0.01,-0.23 -0.04,-0.46 -0.11,-0.75 m 31.74,-2.97 -7.56,-10.31 c 1.05,-0.8 2.07,-1.62 3.06,-2.42 l 8.74,11.26 c -1.4,0.51 -2.83,1.01 -4.24,1.47 m 4.62,1.51 0.89,2.24 c 0,0.01 0.01,0.01 0.01,0.02 -0.15,0.09 -0.38,0.2 -0.7,0.31 -0.56,0.14 -1.13,0.28 -1.72,0.43 l -0.52,0.14 c -1.3,0.35 -2.55,0.68 -3.89,0.9 -0.44,0.07 -0.75,0.12 -0.96,0.12 -0.08,-0.24 -0.18,-0.5 -0.26,-0.76 -0.11,-0.29 -0.2,-0.59 -0.3,-0.89 1.79,-0.57 3.3,-1.07 4.83,-1.62 l 1.02,-0.34 c 0.51,-0.17 1.04,-0.36 1.6,-0.55 m -6.17,-1 c -1.42,0.42 -2.85,0.82 -4.25,1.18 l -6.11,-8.75 c 1.05,-0.76 2.07,-1.53 3.11,-2.31 z m -5.88,1.56 c -1.34,0.3 -2.54,0.56 -3.68,0.77 l -4.6,-7.18 c 0.86,-0.6 1.7,-1.2 2.53,-1.81 z m -5.36,1.04 c -1.17,0.18 -2.23,0.34 -3.19,0.45 l -3.22,-5.43 c 0.75,-0.52 1.5,-1.05 2.22,-1.56 z m 10.05,23.54 -6.46,5.98 c -1.04,-1.27 -1.98,-2.49 -2.88,-3.7 l 6.03,-5.49 c 1.23,1.24 2.28,2.26 3.31,3.21 m -2.11,-5.81 0.1,-0.13 c 0.75,-1 1.4,-1.87 1.85,-2.95 0.06,0.03 0.14,0.05 0.22,0.07 0.11,0.03 0.21,0.05 0.32,0.08 l 0.11,0.02 c 1.16,0.57 2.32,1.03 3.46,1.47 l 0.18,0.07 c 1.08,0.42 2.05,0.79 3,1.24 0.12,0.07 0.26,0.16 0.26,0.16 0,0.04 -0.06,0.17 -0.1,0.28 l -0.49,0.89 c -0.99,1.78 -1.47,2.6 -2.92,4.23 -2.17,-1.4 -4.18,-3.23 -5.99,-5.43 m -8.15,6.84 c -0.58,-0.8 -1.14,-1.62 -1.72,-2.46 l 5.32,-5.3 c 0.72,0.78 1.47,1.59 2.27,2.4 z m -2.61,-3.78 c -0.56,-0.85 -1.13,-1.72 -1.68,-2.58 l 4.72,-4.86 0.17,0.2 c 0.64,0.7 1.27,1.41 1.92,2.11 z m -2.52,-3.92 c -0.48,-0.78 -0.96,-1.57 -1.44,-2.38 l 4.39,-4.02 0.59,0.66 c 0.33,0.35 0.67,0.72 1,1.09 z m -3.5,-10.64 c 1.23,-0.07 2.27,-0.09 3.44,-0.09 -1.06,1.68 -2.83,3.33 -3.76,4.14 l -0.14,-0.25 c 0.67,-1.03 0.82,-2.27 0.46,-3.8 m 4.89,2.54 c 0.11,0.11 0.22,0.24 0.32,0.35 l 0.17,0.2 -4.13,3.81 -0.1,-0.16 c -0.07,-0.13 -0.15,-0.25 -0.23,-0.38 z m -0.95,-8.17 c -0.13,0.01 -0.25,0.03 -0.38,0.04 -0.42,0.04 -0.83,0.08 -1.24,0.1 -0.43,-1.11 -1.23,-1.79 -2.37,-2.02 0.06,-0.61 -0.08,-1.18 -0.44,-1.68 l 1.64,-1.15 z m 35.63,55.15 c -0.15,0 -0.29,0.05 -0.41,0.13 0.16,-0.42 0.34,-0.84 0.5,-1.29 l 0.15,0.09 v 0.07 c 0.12,0.48 0.24,0.93 0.36,1.38 -0.11,-0.2 -0.3,-0.38 -0.6,-0.38 m 0.34,4.26 c -0.57,-0.64 -0.75,-0.88 -0.75,-1.73 0.13,-0.41 0.23,-0.71 0.32,-0.93 0.3,1.07 0.45,1.94 0.43,2.66 m -0.67,0.88 c 0.18,0.19 0.38,0.41 0.57,0.64 l 0.58,0.65 -0.37,0.88 -0.04,0.16 v -0.01 l -0.1,-0.17 c -0.12,-0.22 -0.23,-0.4 -0.35,-0.61 -0.35,-0.65 -0.72,-1.31 -1.39,-1.98 l -0.72,-0.72 c 0.23,-0.45 0.43,-0.9 0.65,-1.35 0.03,1.24 0.46,1.75 1.17,2.51 m -8.24,4.86 c -0.43,-0.87 -0.93,-1.83 -1.83,-2.54 -1.2,-0.69 -2,-1.1 -2.95,-1.1 h -1.2 l 0.77,0.91 c 0.48,0.55 0.77,1.14 1.05,1.7 0.3,0.56 0.56,1.13 1,1.66 0.6,0.67 1.7,1.06 2.87,1.47 0.25,0.08 0.45,0.17 0.68,0.27 -1.17,-0.18 -2.36,-0.36 -3.45,-1 -0.54,-0.36 -1.11,-0.55 -1.71,-0.72 l 0.61,-1.27 -0.15,-0.12 c -0.2,-0.14 -0.47,-0.65 -0.7,-1.12 l -0.12,-0.25 c -0.33,-0.61 -0.71,-1.33 -1.24,-1.92 0.17,0.04 0.35,0.06 0.53,0.07 2.32,0.25 2.93,0.66 3.44,1.01 0.39,0.26 0.85,0.56 1.82,0.63 2.09,0.35 2.25,0.43 2.81,0.69 0.23,0.11 0.5,0.23 0.95,0.42 l 0.67,0.25 0.65,-1.27 c 0.72,-1.39 1.34,-2.59 1.9,-3.74 l -0.16,0.97 c -0.04,0.24 -0.09,0.51 -0.15,0.75 -0.19,0.86 -0.32,1.67 -0.19,2.3 0.14,0.78 0.63,1.46 1.07,2.07 0.18,0.24 0.34,0.47 0.47,0.7 l 0.58,0.94 -0.07,0.3 0.23,0.71 -0.98,0.59 -2.06,0.36 -1.64,0.16 -0.29,-0.98 -0.52,-0.13 c -0.66,-0.19 -1.36,-0.28 -2.09,-0.38 -0.04,-0.01 -0.09,-0.01 -0.11,-0.02 l 0.49,-0.96 c -0.35,-0.21 -0.65,-0.8 -0.98,-1.41 m -0.82,0.75 c -0.65,-0.25 -1.23,-0.52 -1.49,-0.84 -0.37,-0.42 -0.63,-0.9 -0.89,-1.43 -0.09,-0.22 -0.21,-0.46 -0.36,-0.7 0.33,0.14 0.67,0.34 1.14,0.6 0.64,0.49 1.06,1.34 1.46,2.12 0.03,0.08 0.09,0.17 0.14,0.25 m 7.91,-4.4 c 0.18,0.29 0.32,0.57 0.51,0.85 0.08,0.17 0.16,0.31 0.26,0.49 -0.05,0.27 -0.06,0.55 -0.11,0.82 -0.03,0.25 -0.04,0.49 -0.08,0.7 -0.3,-0.45 -0.61,-0.91 -0.7,-1.41 -0.07,-0.33 0,-0.88 0.12,-1.45 m -15.11,0.22 c 0.65,0.44 1.11,1.28 1.5,2.05 -0.31,-0.15 -0.63,-0.38 -1.04,-0.75 -0.35,-0.45 -0.59,-0.93 -0.86,-1.43 l -0.07,-0.15 c 0.16,0.07 0.31,0.18 0.47,0.28 m 12.46,9.39 c 0.69,5.39 1.47,11.47 9.5,17.32 l -0.5,-0.07 -2.16,-0.49 c -0.7,-0.33 -1.38,-1.37 -2.11,-2.47 l -0.05,-0.08 c -0.43,-0.66 -0.85,-1.26 -1.25,-1.77 -2.66,-3.74 -3.82,-7.92 -3.43,-12.44 m 20,-33.24 c -0.75,1.01 -1.51,2.1 -2.4,3.42 l -0.11,0.14 c -1.8,2.61 -3.65,5.31 -6.41,8.3 -1.2,0.75 -2.4,1.12 -3.66,1.12 -2.07,0 -4.14,-1.01 -5.89,-2.01 -8.62,-3.95 -16.32,-10.06 -23.56,-18.7 l 6.65,-6.15 c 4.12,3.63 8.28,6.54 12.73,8.88 4.78,2.31 10.45,4.9 16.35,6.52 0.72,0.07 1.29,0.1 1.82,0.1 1.82,0 3.1,-0.45 4.04,-1.43 1.04,-1.08 1.59,-2.76 1.71,-5.22 0.23,1.69 -0.19,3.19 -1.27,5.03 m -27.82,-11.75 c 1.85,-2.32 3.39,-4.68 4.98,-7.63 l 6.17,1.05 c -0.54,0.87 -1.02,1.61 -1.43,2.27 -1.64,2.59 -2.48,3.92 -5.19,6.79 l -0.08,-0.04 c -1.73,-0.73 -3.09,-1.32 -4.45,-2.44 m 10.37,5.83 c 2.69,-3.19 5.32,-7.02 7.26,-9.84 l 0.25,-0.37 c 0.31,-0.45 0.61,-0.88 0.89,-1.29 l 7.99,1.01 c -0.03,0.06 -0.07,0.11 -0.1,0.15 l -0.15,0.22 c -2.94,5.16 -5.69,9.15 -8.87,12.92 -2.79,-0.84 -4.91,-1.58 -7.27,-2.8 m 19.76,-7.79 c -2,3.61 -4.89,7.6 -8.57,11.86 -0.01,0.01 -0.03,0.01 -0.04,0.01 -0.2,0.01 -0.63,-0.06 -1.2,-0.27 3.32,-4.42 6.24,-8.74 9.17,-13.61 1.03,-2.1 -0.1,-3.04 -0.66,-3.37 l -0.28,-0.1 -9.07,-0.99 c -0.21,-0.03 -0.44,-0.05 -0.64,-0.05 -1.06,0 -1.81,0.42 -2.17,0.81 l -0.7,1.09 c -3.03,4.67 -4.73,7.27 -8.14,10.99 l -0.74,-0.39 c 3.32,-3.73 5,-6.42 6.89,-10.02 0.48,-0.94 0.78,-1.61 0.49,-2.3 -0.25,-0.58 -0.83,-0.81 -1.34,-0.94 l -7.39,-1.03 c -0.4,-0.06 -0.71,-0.08 -1,-0.08 -0.9,0 -1.44,0.33 -1.73,1.03 -0.25,0.42 -0.49,0.85 -0.72,1.25 -0.16,0.29 -0.31,0.56 -0.48,0.86 -1.18,2.11 -1.98,3.53 -4.09,5.62 l -0.49,-0.39 c 2.1,-2.49 3.05,-4.35 3.95,-6.15 l 0.1,-0.18 c 0.28,-0.6 0.5,-1.25 0.22,-1.9 -0.28,-0.61 -0.93,-1.03 -2.01,-1.33 -1.61,-0.75 -3.21,-1.37 -4.63,-1.9 -1.17,-0.45 -2.27,-0.89 -3.42,-1.39 -0.35,-0.11 -0.57,-0.15 -0.82,-0.15 -0.89,0 -1.26,0.61 -1.59,1.15 l -1.82,2.95 -1.31,-1.31 c 0.29,-0.4 -6.56,-7.74 -6.64,-9.04 -0.11,-1.61 8.54,-3.79 8.54,-3.79 l 0.53,-0.1 0.19,0.43 c 0.19,0.43 0.35,0.81 0.53,1.22 l 0.4,0.94 c 0.25,0.5 0.7,1.17 1.63,1.17 0.17,0 0.38,-0.03 0.57,-0.08 l 8.92,-1.8 c 1.93,-0.59 2.12,-1.21 2.09,-2.48 l -0.03,-0.47 -0.04,-0.12 c -0.38,-1.01 -0.77,-2.05 -1.34,-3.05 0.53,-0.17 1.05,-0.36 1.63,-0.59 l 2.15,3.71 c 0.29,0.58 0.6,1.19 1.56,1.19 0.42,0 1.01,-0.12 1.94,-0.35 3.35,-1 5.58,-1.71 8.36,-3.03 0.84,-0.3 1.34,-0.68 1.56,-1.21 0.17,-0.45 0.12,-0.93 -0.17,-1.46 -0.67,-1.75 -1.63,-3.43 -3.07,-5.41 l 0.68,-0.44 c 1.05,1.59 1.98,3.01 2.84,4.42 l 0.49,0.75 c 0.44,0.68 0.87,1.38 1.31,2.05 l 0.04,0.09 c 0.26,0.55 0.56,1.16 1.41,1.16 0.39,0 0.89,-0.13 1.53,-0.43 l 6.96,-3.47 c 1.24,-0.71 2.07,-1.34 1.54,-2.94 -0.73,-1.96 -2.49,-4.55 -4.19,-7.07 l -0.42,-0.62 c -0.41,-0.61 -0.82,-1.21 -1.19,-1.77 l 2.55,-2 c 10.76,18.2 12.43,27.28 1.37,44.82 m -24.62,-29.3 c 1.44,-0.65 3.05,-1.41 4.98,-2.41 0.34,-0.17 0.65,-0.33 0.96,-0.47 0.47,-0.23 0.91,-0.45 1.31,-0.63 1.59,1.89 2.48,3.64 2.48,4.06 -2.55,1.4 -4.84,2.03 -7.57,2.78 l -0.45,0.13 c -0.09,-0.16 -0.22,-0.42 -0.31,-0.65 l -0.15,-0.31 c -0.28,-0.65 -0.65,-1.51 -1.25,-2.5 m 12.51,-7.47 c 1,-0.74 2.05,-1.43 3.07,-2.11 l 0.6,-0.4 c 0.67,-0.42 1.32,-0.87 1.96,-1.29 l 0.49,-0.33 c 0.02,-0.02 0.04,-0.03 0.05,-0.03 1.98,2.43 3.79,5.25 5.25,8.15 l 0.02,0.05 -6.28,3.23 c -0.14,0.05 -0.24,0.1 -0.33,0.14 -1.41,-2.44 -2.78,-4.64 -4.83,-7.41 m -4.42,-30.55 c 0.13,0 0.24,0.03 0.36,0.07 5.76,3.31 11.79,10.42 15.79,15.14 l 1.26,1.48 v 0.01 c -0.04,0.05 -0.14,0.16 -0.26,0.27 l -0.17,0.17 c -5.04,5.01 -14.81,11.71 -20.18,15.24 -3.13,1.77 -6.71,3.45 -10.66,5.01 l -9.02,-11.67 c 8.99,-7.47 15.64,-15.09 22.21,-25.45 0.1,-0.12 0.34,-0.27 0.67,-0.27 m -30.75,-1.23 c 1.63,-0.22 3.26,-0.33 4.88,-0.33 6.92,0 13.48,1.89 19.51,5.63 -8.99,13.13 -19.37,21.54 -35.37,32.45 -0.21,0.15 -0.52,0.39 -0.83,0.68 l -0.15,0.12 c -0.44,0.37 -0.93,0.79 -1.23,0.63 -0.54,-0.31 -1.06,-0.48 -1.58,-0.48 -0.94,0 -1.69,0.48 -2.19,0.95 -0.62,-0.73 -1.63,-1.14 -2.83,-1.14 -0.36,0 -0.72,0.03 -1.07,0.12 -1.48,0.33 -2.75,1.95 -3,3.25 -0.01,0.05 -0.02,0.1 -0.03,0.16 -0.57,0.04 -1.18,0.27 -1.73,0.66 -0.63,-2.76 -0.95,-9.58 6.66,-19.68 l 0.13,-0.19 -1.27,-0.96 -0.13,0.19 c -9.32,12.43 -7.27,20.23 -6.64,21.94 -0.32,0.51 -0.49,1.01 -0.51,1.5 -0.01,0.37 0,0.72 0.04,1.04 -1.05,-3.38 -1.26,-6.64 -0.64,-9.74 2.38,-11.93 8.33,-17.08 10.56,-19.01 l 0.33,-0.28 -0.98,-1.18 -0.41,0.3 c -2.34,2.05 -8.54,7.49 -11.03,19.85 -1.8,9.03 3.14,16.94 7,22.12 0.2,0.28 0.52,0.66 0.95,1.15 l 0.43,0.5 c 1.2,1.39 3.2,3.7 5.14,6.47 1.55,2.15 3.63,5.91 4.74,11.63 0.96,4.93 -0.3,10.71 -0.81,12.73 -0.3,-0.14 -0.59,-0.36 -0.91,-0.69 0.44,-1.6 1.32,-5.57 1.07,-10.4 -0.39,-7.53 -3.68,-11.6 -8.66,-17.79 -0.8,-0.98 -1.71,-2.1 -2.63,-3.29 -4.97,-6.33 -7.25,-12.36 -7.35,-19.53 -0.08,-4.79 2.59,-11.45 7.54,-18.76 1.24,-1.84 7.29,-8.12 9.02,-9.21 l 0.2,-0.13 -0.85,-1.3 -0.18,0.13 c -1.91,1.18 -8.08,7.59 -9.48,9.65 -3.64,5.4 -7.93,13.2 -7.8,19.67 0.14,7.56 2.51,13.87 7.69,20.44 0.93,1.21 1.82,2.32 2.65,3.32 l 0.05,0.05 c 4.76,5.91 7.9,9.81 8.26,16.83 0.19,3.86 -0.37,7.13 -0.78,8.95 -0.35,-0.34 -0.68,-0.61 -1.04,-0.84 0.75,-2.07 2.62,-8.41 -0.28,-14.08 -2.35,-4.6 -3.02,-5.47 -6.25,-9.65 l -1.71,-2.27 c -0.81,-1.04 -1.55,-1.97 -2.31,-2.87 -4.1,-4.99 -8.35,-10.16 -7.21,-20.67 1.27,-11.84 14.04,-28.69 24.81,-32.78 l 0.22,-0.08 -0.57,-1.45 -0.21,0.08 c -11.42,4.33 -24.42,21.53 -25.77,34.07 -1.24,11.12 3.22,16.54 7.52,21.78 l 0.05,0.07 c 0.76,0.91 1.5,1.84 2.25,2.79 l 1.73,2.29 c 3.12,4.05 3.76,4.9 6.09,9.41 2.54,4.98 0.91,10.73 0.23,12.69 -0.17,-0.05 -0.33,-0.13 -0.52,-0.25 1.25,-2.92 1.82,-9.02 -0.75,-13.88 -1.56,-3.05 -4.9,-6.86 -8.13,-10.56 l -0.11,-0.12 c -2.8,-3.14 -5.21,-5.9 -6.12,-7.65 -1.39,-2.65 -5.6,-10.65 -1.01,-24.62 4.31,-13.11 17.41,-27.74 33.21,-29.02 l 0.23,-0.02 z m -27.34,66.26 c -4.82,-5.47 -7.72,-8.78 -9.83,-17.94 -1.73,-11.74 1.96,-23.91 10.13,-33.36 2.76,-3.17 5.9,-5.92 9.3,-8.17 -8.14,5.96 -14.31,14.87 -17.06,23.18 -4.76,14.47 -0.35,22.98 1.11,25.81 1.02,1.95 3.56,4.83 6.26,7.89 l 0.41,0.48 c 2.94,3.36 6.27,7.17 7.7,9.94 2.19,4.22 1.76,9.32 0.88,12 -0.07,-0.09 -0.14,-0.18 -0.21,-0.26 -0.11,-0.15 -0.23,-0.29 -0.34,-0.43 l -0.08,-0.09 c 1.9,-5.96 -0.52,-11.47 -8.27,-19.05 m 3.02,22.9 c 0.56,-1.92 2.33,-3.18 3.52,-3.54 l -0.01,0.07 0.33,0.32 c 0.19,0.22 0.41,0.48 0.65,0.8 0.69,0.86 1.53,1.94 2.87,2.23 1.06,0.33 1.68,1.04 2.35,1.83 0.73,0.83 1.54,1.79 2.99,1.99 0.93,0.19 1.62,0.85 2.33,1.54 0.85,0.85 1.64,1.56 2.8,1.75 1.25,0.16 1.89,0.73 2.5,1.3 0.62,0.54 1.32,1.15 2.47,1.36 1.92,0.24 2.82,0.99 3.7,1.71 l 0.03,0.04 c 0.74,0.59 1.5,1.2 2.67,1.37 h -0.91 l 0.62,0.88 c 0.32,0.48 0.54,0.94 0.77,1.45 0.32,0.65 0.61,1.34 1.25,2.06 1.09,1.1 1.95,1.28 2.95,1.52 0.18,0.03 0.41,0.09 0.63,0.13 l 0.48,-0.95 c -0.26,-0.18 -0.52,-0.73 -0.82,-1.27 -0.39,-0.75 -0.86,-1.62 -1.54,-2.3 0.21,0.11 0.43,0.22 0.68,0.3 l 0.86,1.19 c 0.26,0.36 0.45,0.75 0.65,1.14 l 0.12,0.26 c 0.31,0.66 0.64,1.38 1.27,2.12 0.68,0.71 1.31,1.06 1.92,1.27 -0.58,-0.15 -1.18,-0.39 -1.75,-0.79 -0.87,-0.59 -1.86,-0.84 -2.8,-1.08 -1.09,-0.26 -2.18,-0.53 -3.25,-1.36 -0.87,-0.76 -1.91,-1.05 -3.02,-1.35 l -0.06,-0.01 c -1.07,-0.29 -2.28,-0.61 -3.31,-1.56 -0.81,-0.81 -1.82,-1.11 -2.82,-1.41 -1.11,-0.37 -2.17,-0.7 -3.28,-1.73 -0.83,-0.9 -1.97,-1.3 -2.96,-1.64 l -0.15,-0.05 c -1.03,-0.39 -2.1,-0.79 -2.99,-1.74 -0.75,-0.83 -1.71,-1.23 -2.66,-1.61 -0.97,-0.39 -1.84,-0.76 -2.62,-1.53 -0.9,-1.15 -2.01,-1.69 -3.2,-2.28 -1.06,-0.51 -2.17,-1.04 -3.24,-2.17 l -0.04,-0.05 z m -10.44,8.29 c 3.89,-2.7 7.25,-5.06 9.75,-6.54 0.35,0.32 0.72,0.62 1.16,0.91 l -11.19,7.84 c -0.61,-0.37 -1.12,-0.67 -1.57,-0.91 z m -2.79,25.33 c -8.13,1.43 -11.99,4.6 -16.92,9.24 l -0.55,0.52 -0.29,-0.69 c -1.27,-3.07 -3.96,-7.37 -9.46,-10.37 l -0.42,-0.23 0.19,-0.43 c 0.7,-1.58 2.35,-3.52 3.91,-4.04 8.83,-2.6 16.42,-0.99 23.73,5.11 l 0.86,0.71 z m 77.47,26.35 -0.13,0.01 c -0.18,0.03 -0.35,0.04 -0.51,0.05 -0.33,0.03 -0.6,0.06 -0.77,0.09 -10.63,-0.17 -25.62,-2.36 -36.64,-11.88 -1.42,-1 -1.9,-1.32 -2.48,-1.32 h -0.01 -0.01 c -2.74,0.4 -5.02,0.61 -6.95,0.61 -5.7,0 -8.99,-1.73 -14.2,-5.58 -2.73,-2 -5.25,-4.14 -7.7,-6.21 l -0.07,-0.06 c -6.94,-5.95 -13.51,-11.58 -23.13,-11.58 -2,0 -4.07,0.25 -6.18,0.71 0.4,-0.37 0.89,-0.72 1.46,-1.03 1.36,-0.5 2.98,-0.77 4.69,-0.77 6.54,0 13.46,3.58 16.28,5.81 0.96,0.79 1.89,1.58 2.78,2.35 l 0.76,0.66 c 7.62,6.5 13.65,11.63 19.41,14.44 1.73,0.5 3.47,0.74 5.46,0.74 2.6,0 5,-0.43 6.93,-0.78 l 0.38,-0.07 c 0.28,-0.05 0.53,-0.1 0.79,-0.14 1.47,0.8 2.88,1.82 4.39,2.89 1.21,0.87 2.46,1.76 3.79,2.58 9.78,6.5 22.71,7.48 29.54,7.48 4.9,0 8.44,-0.45 10.44,-0.8 -1.7,1.08 -6.08,1.56 -8.32,1.8 m 8.45,-9.9 c 0.52,1.73 0.78,3.41 0.79,5.12 -0.43,0.42 -4.15,1.34 -11.76,1.34 -3.36,0 -6.6,-0.19 -9.35,-0.53 -11.51,-1.7 -16.72,-5.31 -23.94,-10.3 l -0.67,-0.47 c -0.85,-0.58 -1.71,-1.19 -2.62,-1.8 l -0.28,-0.22 -0.34,0.09 c -2.7,0.62 -5.13,1.13 -7.57,1.13 -1.72,0 -3.37,-0.27 -4.87,-0.78 -5.38,-2.37 -11.46,-7.68 -16.84,-12.35 l -0.17,-0.14 c -1.96,-1.69 -3.8,-3.29 -5.6,-4.73 -6.45,-4.32 -12.11,-6.25 -18.32,-6.25 -0.24,0 -0.49,0 -0.75,0.01 3.44,-2.82 7.92,-5.32 12.12,-6.75 5.37,0.17 17.59,10.2 26.4,19.6 1.61,1.41 2.96,2.04 4.36,2.04 0.94,0 1.93,-0.3 3.03,-0.92 0.94,-0.53 1.49,-1.19 1.89,-1.68 l 0.06,-0.08 c 0.13,-0.19 0.3,-0.37 0.37,-0.44 0.05,0.01 0.11,0.04 0.19,0.1 5.12,3.54 9.98,6.45 14.84,8.87 -0.37,-0.15 -0.78,-0.25 -1.2,-0.25 -1.78,0 -3.34,1.57 -3.34,3.37 0,1.77 1.56,3.36 3.34,3.36 1.8,0 3.38,-1.59 3.38,-3.36 0,-1.27 -0.78,-2.39 -1.86,-2.98 4.87,2.4 9.77,4.32 14.94,5.86 3.18,0.79 9.64,1.65 14.54,1.65 2.68,0 4.54,-0.23 5.67,-0.7 0.9,-0.37 1.55,-1.24 1.66,-2.17 0.78,1.48 1.4,2.93 1.9,4.36 m -37.95,-6.02 c 0,1.18 -1.09,2.24 -2.27,2.24 -1.18,0 -2.25,-1.06 -2.25,-2.24 0,-1.19 1.06,-2.26 2.25,-2.26 1.19,0 2.27,1.08 2.27,2.26"
   id="path44" />
	<path
   class="st1"
   d="m 205.23,364.32 0.67,26.69 c 0.05,2.09 0.25,3.65 0.59,4.63 0.35,0.98 0.93,1.8 1.74,2.45 0.68,0.53 1.46,0.86 2.35,1.03 0.87,0.17 1.33,0.54 1.33,1.15 0,0.58 -0.13,1 -0.39,1.24 -0.25,0.23 -0.66,0.36 -1.26,0.36 -0.17,0 -1.04,-0.09 -2.69,-0.24 -1.63,-0.2 -3.16,-0.27 -4.61,-0.27 -1.52,0 -3.08,0.08 -4.68,0.27 -1.64,0.16 -2.47,0.24 -2.64,0.24 -0.49,0 -0.88,-0.12 -1.13,-0.32 -0.24,-0.22 -0.35,-0.57 -0.35,-1.08 0,-0.56 0.43,-1.09 1.34,-1.59 0.52,-0.3 0.91,-0.56 1.16,-0.78 0.78,-0.52 1.29,-1.09 1.57,-1.72 0.28,-0.61 0.41,-1.55 0.41,-2.83 v -1.47 l -0.82,-20.71 c -0.02,-0.45 -0.1,-0.82 -0.19,-1.12 -0.11,-0.31 -0.22,-0.47 -0.31,-0.47 -0.15,0 -0.33,0.16 -0.55,0.47 -0.2,0.3 -0.46,0.72 -0.73,1.27 l -13.27,28.45 c -0.26,0.58 -0.49,0.95 -0.68,1.12 -0.21,0.16 -0.47,0.26 -0.79,0.26 -0.53,0 -0.95,-0.4 -1.24,-1.21 -0.05,-0.1 -0.09,-0.2 -0.13,-0.29 l -12.26,-28.6 c -0.22,-0.53 -0.41,-0.85 -0.53,-1 -0.12,-0.17 -0.26,-0.25 -0.4,-0.27 -0.18,0 -0.27,0.12 -0.34,0.39 -0.07,0.26 -0.12,0.72 -0.17,1.36 l -0.56,16.51 v 1.25 1.61 c 0,2.24 0.25,3.88 0.68,4.93 0.46,1.03 1.21,1.72 2.29,2.07 0.43,0.35 1.11,0.68 2.03,0.95 0.93,0.28 1.41,0.79 1.41,1.56 0,0.48 -0.11,0.8 -0.32,1 -0.23,0.17 -0.61,0.26 -1.19,0.26 -0.31,0 -1.16,-0.09 -2.54,-0.24 -1.38,-0.2 -2.61,-0.27 -3.68,-0.27 -1.39,0 -2.8,0.08 -4.24,0.27 -1.44,0.16 -2.14,0.24 -2.18,0.24 -0.36,0 -0.66,-0.12 -0.86,-0.4 -0.17,-0.25 -0.28,-0.62 -0.28,-1.07 0,-0.33 0.47,-0.79 1.41,-1.42 0.95,-0.63 1.66,-1.33 2.2,-2.08 0.59,-0.92 1.09,-2.21 1.45,-3.93 0.36,-1.69 0.61,-3.84 0.72,-6.43 l 0.7,-15.11 c 0.01,-0.35 0.04,-0.76 0.05,-1.19 0.01,-0.45 0.01,-1.08 0.01,-1.92 0,-2.84 -0.21,-5.02 -0.61,-6.5 -0.41,-1.49 -1.08,-2.67 -2.02,-3.57 -0.6,-0.48 -1.37,-0.83 -2.29,-1.05 -0.91,-0.22 -1.37,-0.67 -1.37,-1.34 0,-0.44 0.08,-0.76 0.26,-0.97 0.16,-0.21 0.46,-0.29 0.87,-0.29 0.08,0 0.3,0.03 0.63,0.08 1.6,0.21 3.16,0.33 4.65,0.33 1,0 2.12,-0.12 3.32,-0.33 0.34,-0.05 0.56,-0.08 0.63,-0.08 0.41,0.03 0.76,0.15 0.99,0.38 0.26,0.24 0.55,0.81 0.97,1.7 l 13.9,31.63 c 0.13,0.33 0.27,0.55 0.4,0.7 0.12,0.15 0.26,0.24 0.42,0.24 0.18,0 0.34,-0.08 0.52,-0.24 0.15,-0.15 0.32,-0.31 0.4,-0.56 l 15.18,-32.46 c 0.2,-0.52 0.43,-0.88 0.68,-1.09 0.24,-0.21 0.55,-0.29 0.88,-0.29 0.18,0 0.61,0.05 1.28,0.2 0.65,0.14 1.24,0.22 1.74,0.22 0.84,0 1.79,-0.07 2.82,-0.22 1.04,-0.15 1.66,-0.2 1.84,-0.2 0.56,0 0.94,0.1 1.14,0.32 0.2,0.2 0.28,0.58 0.28,1.12 0,0.57 -0.4,0.95 -1.23,1.16 -0.85,0.2 -1.65,0.56 -2.4,1.05 -0.7,0.38 -1.2,0.99 -1.52,1.84 -0.32,0.86 -0.48,2.06 -0.48,3.63 v 0.59 z m -41.67,27.05 h -0.38 c -0.1,1.99 -0.42,3.64 -0.95,4.93 -0.52,1.32 -1.24,2.22 -2.14,2.78 v 0.38 c 1.3,-0.18 2.27,-0.65 2.87,-1.36 0.61,-0.72 0.93,-1.72 0.93,-3.01 0,-0.38 -0.04,-0.84 -0.08,-1.41 -0.03,-0.58 -0.12,-1.33 -0.25,-2.31 m -2.32,-34.57 v 0.39 c 1.8,1.2 3.48,3.67 5.08,7.42 0.19,0.45 0.35,0.8 0.46,1.07 l 13.23,30.75 c 0.18,0.38 0.31,0.65 0.43,0.75 0.1,0.11 0.2,0.18 0.36,0.18 0.15,0 0.31,-0.08 0.44,-0.21 0.14,-0.13 0.22,-0.29 0.22,-0.46 0,-0.2 -0.08,-0.46 -0.19,-0.8 -0.1,-0.33 -0.34,-0.91 -0.72,-1.72 l -11.46,-27.01 -0.12,-0.28 c -2.52,-5.97 -5.07,-9.34 -7.73,-10.08 m 39.54,2.32 -0.24,-0.2 c -0.58,1.03 -1,2.24 -1.27,3.63 -0.27,1.42 -0.4,3.13 -0.4,5.13 v 1.19 l 0.89,21.6 c 0.01,0.34 0.05,0.72 0.05,1.13 0.01,0.4 0.02,1 0.02,1.75 0,1.55 -0.12,2.74 -0.35,3.56 -0.25,0.84 -0.65,1.54 -1.19,2.1 v 0.29 c 1.03,-0.61 1.79,-1.38 2.25,-2.33 0.43,-0.94 0.67,-2.23 0.67,-3.8 0,-0.44 -0.03,-1.04 -0.06,-1.86 l -0.73,-19.27 c -0.01,-0.47 -0.03,-1.04 -0.03,-1.74 -0.01,-0.7 -0.01,-1.97 -0.01,-3.76 0,-1.5 0.01,-2.83 0.1,-3.99 0.07,-1.19 0.17,-2.33 0.3,-3.43"
   id="path46" />
	<path
   class="st1"
   d="m 238.57,355.75 16.08,38.89 c 0.54,1.35 1.08,2.27 1.65,2.81 0.53,0.53 1.23,0.89 2.1,1.11 0.26,0.12 0.61,0.29 1.05,0.49 0.86,0.38 1.28,0.9 1.28,1.59 0,0.5 -0.08,0.83 -0.21,0.99 -0.14,0.16 -0.47,0.24 -0.93,0.24 -0.46,0 -1.6,-0.08 -3.48,-0.21 -1.86,-0.17 -3.49,-0.23 -4.88,-0.23 -2.69,0 -5.28,0.12 -7.85,0.38 -0.41,0.04 -0.65,0.06 -0.74,0.06 -0.27,0 -0.48,-0.12 -0.64,-0.35 -0.19,-0.22 -0.28,-0.54 -0.28,-0.96 0,-0.41 0.75,-1 2.25,-1.74 1.52,-0.75 2.27,-1.84 2.27,-3.31 0,-0.47 -0.04,-0.94 -0.15,-1.42 -0.11,-0.48 -0.26,-0.96 -0.46,-1.44 l -1.76,-4.39 c -0.45,-1.15 -0.92,-1.91 -1.39,-2.29 -0.51,-0.35 -1.59,-0.52 -3.27,-0.52 h -0.38 -8.19 c -1.82,0 -3.03,0.19 -3.55,0.58 -0.54,0.39 -0.97,1.13 -1.32,2.23 l -1.71,4.97 c -0.17,0.46 -0.28,0.86 -0.38,1.22 -0.08,0.35 -0.1,0.69 -0.1,0.98 0,0.96 0.35,1.74 1.04,2.35 0.71,0.62 1.81,1.06 3.27,1.35 0.05,0.03 0.16,0.05 0.28,0.07 1.45,0.32 2.19,0.8 2.19,1.45 0,0.44 -0.11,0.75 -0.33,0.94 -0.2,0.21 -0.55,0.29 -1.06,0.29 -0.21,0 -1.19,-0.08 -3.01,-0.21 -1.81,-0.17 -3.49,-0.23 -5.1,-0.23 -1.19,0 -2.39,0.06 -3.59,0.23 -1.21,0.13 -1.83,0.21 -1.88,0.21 -0.46,0 -0.82,-0.11 -1.05,-0.3 -0.22,-0.21 -0.34,-0.52 -0.34,-0.94 0,-0.61 0.46,-1.09 1.39,-1.48 0.55,-0.21 0.99,-0.4 1.27,-0.6 0.65,-0.41 1.25,-1.04 1.78,-1.84 0.51,-0.8 1.23,-2.23 2.13,-4.24 l 15.81,-36.98 v -0.03 c 0.26,-0.57 0.59,-0.85 0.99,-0.85 0.24,0 0.45,0.11 0.66,0.31 0.24,0.2 0.4,0.47 0.54,0.82 m -17.16,37.27 c -0.91,2.2 -1.66,3.75 -2.28,4.62 -0.63,0.86 -1.38,1.59 -2.22,2.15 l 0.17,0.21 c 1.6,-0.15 2.74,-0.71 3.49,-1.72 0.72,-1.03 1.1,-2.56 1.1,-4.62 v -0.51 z m 14.52,-24.69 c -0.15,-0.38 -0.31,-0.67 -0.45,-0.88 -0.18,-0.22 -0.32,-0.31 -0.47,-0.31 -0.18,0 -0.35,0.08 -0.52,0.24 -0.18,0.17 -0.31,0.4 -0.43,0.71 l -4.71,11.49 c -0.14,0.31 -0.22,0.63 -0.32,0.91 -0.08,0.28 -0.1,0.52 -0.1,0.71 0,0.37 0.17,0.65 0.55,0.78 0.35,0.12 1.12,0.19 2.26,0.19 h 7.24 c 0.65,0 1.14,-0.07 1.49,-0.22 0.35,-0.15 0.5,-0.34 0.5,-0.62 0,-0.14 -0.07,-0.39 -0.14,-0.76 -0.12,-0.37 -0.25,-0.77 -0.41,-1.19 z m 10.19,30.43 0.13,0.12 c 0.83,-0.48 1.43,-1.07 1.81,-1.75 0.39,-0.68 0.58,-1.49 0.58,-2.42 0,-0.58 -0.07,-1.25 -0.2,-1.98 -0.14,-0.74 -0.32,-1.41 -0.53,-1.97 l -10.46,-25.8 c -0.14,-0.37 -0.25,-0.61 -0.38,-0.73 -0.12,-0.14 -0.26,-0.2 -0.43,-0.2 -0.2,0 -0.41,0.1 -0.54,0.29 -0.15,0.17 -0.22,0.39 -0.22,0.64 0,0.26 0.13,0.68 0.46,1.3 0.1,0.23 0.17,0.42 0.24,0.56 l 9.98,24.83 c 0.32,0.68 0.54,1.34 0.68,2.01 0.15,0.66 0.22,1.28 0.22,1.85 0,0.69 -0.11,1.31 -0.31,1.84 -0.24,0.52 -0.57,0.98 -1.03,1.41"
   id="path48" />
	<path
   class="st1"
   d="m 279.5,362.44 5.93,9.16 c 0.17,0.29 0.35,0.49 0.51,0.64 0.16,0.13 0.32,0.2 0.47,0.2 0.12,0 0.29,-0.07 0.46,-0.18 0.16,-0.12 0.32,-0.29 0.49,-0.54 l 6.09,-8.12 c 0.7,-0.93 1.18,-1.69 1.39,-2.21 0.21,-0.55 0.3,-1.1 0.3,-1.66 0,-0.72 -0.14,-1.23 -0.42,-1.59 -0.33,-0.33 -0.91,-0.61 -1.79,-0.82 -0.19,-0.04 -0.41,-0.1 -0.72,-0.16 -1.13,-0.25 -1.71,-0.7 -1.71,-1.38 0,-0.37 0.09,-0.65 0.33,-0.86 0.22,-0.23 0.53,-0.32 0.92,-0.32 0.31,0 1.24,0.08 2.75,0.27 1.5,0.18 2.85,0.28 4.07,0.28 1.09,0 2.31,-0.1 3.68,-0.28 1.39,-0.19 2.18,-0.27 2.42,-0.27 0.54,0 0.93,0.08 1.13,0.27 0.2,0.18 0.29,0.49 0.29,0.92 0,0.78 -0.56,1.3 -1.67,1.58 -0.63,0.13 -1.12,0.26 -1.49,0.45 -0.82,0.4 -1.84,1.23 -3.11,2.5 -1.24,1.29 -2.62,2.92 -4.17,4.94 l -6.85,9.08 c -0.15,0.2 -0.29,0.41 -0.36,0.61 -0.11,0.2 -0.12,0.43 -0.12,0.63 0,0.21 0.02,0.4 0.09,0.57 0.06,0.19 0.15,0.36 0.26,0.57 l 9.83,15.05 c 0.96,1.45 1.89,2.76 2.83,3.94 0.92,1.17 1.76,2.1 2.52,2.78 0.34,0.21 0.81,0.4 1.42,0.61 0.86,0.3 1.28,0.71 1.28,1.23 0,0.51 -0.13,0.87 -0.4,1.12 -0.26,0.23 -0.65,0.36 -1.19,0.36 -0.63,0 -1.8,-0.1 -3.49,-0.3 -1.68,-0.18 -3.06,-0.29 -4.1,-0.29 -1.5,0 -3.04,0.11 -4.63,0.29 -1.61,0.2 -2.48,0.3 -2.62,0.3 -0.54,0 -0.98,-0.13 -1.28,-0.36 -0.31,-0.26 -0.49,-0.56 -0.49,-0.98 0,-0.56 0.6,-1.05 1.75,-1.51 1.14,-0.43 1.71,-1.16 1.71,-2.14 0,-0.48 -0.1,-1.05 -0.35,-1.66 -0.25,-0.62 -0.59,-1.26 -1.04,-1.93 l -6.55,-10 c -0.11,-0.22 -0.24,-0.42 -0.39,-0.57 -0.14,-0.17 -0.24,-0.22 -0.34,-0.22 -0.11,0.01 -0.24,0.08 -0.37,0.16 -0.12,0.1 -0.28,0.28 -0.48,0.55 l -6.33,8.55 c -0.81,1.12 -1.38,1.98 -1.68,2.64 -0.3,0.68 -0.45,1.27 -0.45,1.83 0,0.98 0.72,1.71 2.12,2.14 0.25,0.1 0.43,0.16 0.59,0.19 0.22,0.1 0.53,0.21 0.93,0.33 1.16,0.35 1.76,0.86 1.76,1.52 0,0.51 -0.15,0.87 -0.45,1.12 -0.29,0.23 -0.73,0.36 -1.31,0.36 -0.26,0 -1.14,-0.1 -2.57,-0.26 -1.42,-0.16 -2.7,-0.26 -3.84,-0.26 -1.13,0 -2.39,0.1 -3.86,0.26 -1.45,0.16 -2.34,0.26 -2.67,0.26 -0.5,0 -0.89,-0.13 -1.2,-0.34 -0.32,-0.23 -0.47,-0.54 -0.47,-0.93 0,-0.56 0.55,-1.07 1.64,-1.49 0.52,-0.23 0.94,-0.42 1.24,-0.57 0.96,-0.52 1.94,-1.25 2.88,-2.16 0.95,-0.94 2.22,-2.47 3.82,-4.63 l 8.35,-11.17 c 0.12,-0.16 0.23,-0.34 0.3,-0.56 0.04,-0.23 0.09,-0.43 0.09,-0.65 0,-0.15 -0.05,-0.31 -0.09,-0.51 -0.07,-0.18 -0.19,-0.44 -0.35,-0.76 l -8.16,-12.72 c -0.96,-1.46 -1.95,-2.81 -2.97,-4.07 -1,-1.25 -1.85,-2.18 -2.51,-2.75 -0.5,-0.4 -1.28,-0.76 -2.3,-1.08 -1.03,-0.34 -1.54,-0.83 -1.54,-1.51 0,-0.46 0.12,-0.78 0.38,-1 0.25,-0.23 0.65,-0.32 1.18,-0.32 0.88,0 2.23,0.08 4.08,0.27 1.87,0.18 3.29,0.28 4.29,0.28 1.39,0 2.91,-0.1 4.54,-0.28 1.64,-0.19 2.63,-0.27 2.9,-0.27 0.54,0 0.9,0.08 1.15,0.27 0.24,0.18 0.35,0.49 0.35,0.92 0,0.6 -0.37,1.08 -1.11,1.4 -0.17,0.06 -0.28,0.12 -0.33,0.14 -0.74,0.1 -1.27,0.37 -1.62,0.79 -0.38,0.45 -0.56,1.05 -0.56,1.8 0,0.35 0.09,0.73 0.26,1.16 0.19,0.41 0.42,0.88 0.73,1.35 m -6.13,30.53 -0.18,-0.2 c -1.66,2.06 -3.02,3.59 -4.09,4.6 -1.07,1.03 -2.08,1.79 -3.08,2.3 l 0.25,0.16 c 1.62,0 2.97,-0.54 4.07,-1.58 1.11,-1.05 2.11,-2.82 3.03,-5.28 m -6.39,-36.23 -0.08,0.13 c 0.68,0.26 1.48,0.86 2.4,1.79 0.94,0.94 1.8,2.08 2.64,3.42 l 20.22,31.35 c 0.38,0.57 0.65,1.15 0.85,1.75 0.19,0.59 0.29,1.14 0.29,1.65 0,0.38 -0.08,0.74 -0.22,1.07 -0.13,0.34 -0.33,0.64 -0.61,0.92 l 0.29,0.14 c 0.53,-0.26 0.9,-0.65 1.18,-1.2 0.27,-0.52 0.4,-1.14 0.4,-1.86 0,-0.6 -0.14,-1.31 -0.44,-2.09 -0.3,-0.76 -0.71,-1.58 -1.31,-2.43 l -19.98,-30.89 c -0.67,-1.03 -1.5,-1.9 -2.53,-2.58 -1.04,-0.7 -2.07,-1.07 -3.1,-1.17 m 28,-0.06 -0.12,0.25 c 0.56,0.18 1.01,0.48 1.31,0.9 0.3,0.42 0.45,0.95 0.45,1.57 0,0.7 -0.47,1.86 -1.36,3.48 v 0.06 l 0.28,0.24 c 0.12,-0.15 0.29,-0.38 0.51,-0.65 1.27,-1.66 1.89,-2.91 1.89,-3.73 0,-0.62 -0.25,-1.1 -0.78,-1.46 -0.5,-0.38 -1.23,-0.6 -2.18,-0.66"
   id="path50" />
	<path
   class="st1"
   d="m 321.7,365.07 v 26.57 c 0,1.9 0.27,3.37 0.81,4.45 0.54,1.06 1.36,1.75 2.44,2 0.47,0.24 1.16,0.46 2.07,0.65 1.47,0.34 2.19,0.91 2.19,1.64 0,0.5 -0.13,0.89 -0.4,1.12 -0.31,0.24 -0.77,0.36 -1.34,0.36 -0.29,0 -1.46,-0.09 -3.5,-0.24 -2.06,-0.2 -3.96,-0.27 -5.68,-0.27 -1.34,0 -2.91,0.08 -4.68,0.27 -1.8,0.16 -2.91,0.24 -3.32,0.24 -0.49,0 -0.88,-0.12 -1.15,-0.34 -0.26,-0.23 -0.4,-0.56 -0.4,-0.99 0,-0.67 0.65,-1.3 1.95,-1.85 0.56,-0.24 0.97,-0.44 1.25,-0.59 0.75,-0.45 1.3,-1.22 1.68,-2.29 0.38,-1.07 0.54,-2.4 0.54,-3.98 v -26.1 c 0,-2.57 -0.1,-4.24 -0.35,-5.04 -0.24,-0.81 -0.69,-1.48 -1.35,-2.03 -0.68,-0.56 -1.74,-0.95 -3.25,-1.15 -1.47,-0.19 -2.21,-0.71 -2.21,-1.52 0,-0.42 0.13,-0.77 0.4,-1.02 0.29,-0.24 0.67,-0.36 1.16,-0.36 0.12,0 0.44,0.03 0.93,0.08 1.84,0.26 3.59,0.4 5.18,0.4 3.8,0 7.23,-0.14 10.34,-0.42 0.35,-0.04 0.56,-0.05 0.61,-0.05 0.46,0 0.78,0.08 0.99,0.29 0.24,0.21 0.33,0.5 0.33,0.9 0,0.64 -0.52,1.13 -1.58,1.52 -1.05,0.38 -1.76,0.81 -2.21,1.34 -0.48,0.43 -0.86,1.14 -1.07,2.1 -0.25,0.96 -0.38,2.39 -0.38,4.31 m -9.11,-8.07 -0.12,0.25 c 1.03,0.54 1.79,1.33 2.24,2.32 0.44,1.02 0.67,2.44 0.67,4.29 v 25.97 c 0,2.69 -0.17,4.62 -0.55,5.8 -0.36,1.2 -0.97,2.25 -1.83,3.17 l 0.1,0.26 c 1.32,-0.61 2.28,-1.53 2.82,-2.75 0.52,-1.21 0.79,-3.43 0.79,-6.67 v -25.33 c 0,-2.18 -0.31,-3.83 -0.95,-4.95 -0.64,-1.11 -1.69,-1.91 -3.17,-2.36"
   id="path52" />
	<path
   class="st1"
   d="m 379.7,364.32 0.66,26.69 c 0.05,2.09 0.24,3.65 0.59,4.63 0.34,0.98 0.94,1.82 1.75,2.45 0.69,0.53 1.46,0.86 2.34,1.03 0.88,0.17 1.32,0.54 1.32,1.15 0,0.58 -0.13,1 -0.39,1.24 -0.22,0.23 -0.65,0.36 -1.22,0.36 -0.19,0 -1.07,-0.09 -2.71,-0.24 -1.64,-0.2 -3.19,-0.27 -4.62,-0.27 -1.54,0 -3.09,0.08 -4.69,0.27 -1.6,0.16 -2.47,0.24 -2.64,0.24 -0.52,0 -0.88,-0.12 -1.14,-0.32 -0.25,-0.22 -0.35,-0.57 -0.35,-1.08 0,-0.56 0.45,-1.09 1.35,-1.59 0.52,-0.3 0.89,-0.56 1.19,-0.78 0.75,-0.52 1.26,-1.09 1.54,-1.72 0.26,-0.61 0.41,-1.55 0.41,-2.83 v -1.47 l -0.81,-20.71 c -0.03,-0.45 -0.11,-0.82 -0.2,-1.12 -0.11,-0.31 -0.21,-0.47 -0.32,-0.47 -0.14,0 -0.33,0.16 -0.52,0.47 -0.22,0.3 -0.46,0.72 -0.74,1.27 l -13.25,28.45 c -0.29,0.58 -0.51,0.95 -0.71,1.12 -0.21,0.16 -0.47,0.26 -0.79,0.26 -0.54,0 -0.95,-0.4 -1.24,-1.21 -0.05,-0.1 -0.1,-0.2 -0.12,-0.29 l -12.27,-28.6 c -0.21,-0.53 -0.4,-0.85 -0.51,-1 -0.14,-0.17 -0.28,-0.25 -0.44,-0.27 -0.14,0 -0.25,0.12 -0.33,0.39 -0.05,0.26 -0.13,0.72 -0.17,1.36 l -0.56,16.51 v 1.25 1.61 c 0,2.24 0.25,3.88 0.68,4.93 0.45,1.03 1.21,1.72 2.28,2.07 0.44,0.35 1.11,0.68 2.04,0.95 0.94,0.28 1.41,0.79 1.41,1.56 0,0.48 -0.11,0.8 -0.34,1 -0.21,0.17 -0.59,0.26 -1.17,0.26 -0.31,0 -1.15,-0.09 -2.54,-0.24 -1.36,-0.2 -2.6,-0.27 -3.67,-0.27 -1.37,0 -2.79,0.08 -4.23,0.27 -1.43,0.16 -2.17,0.24 -2.17,0.24 -0.37,0 -0.67,-0.12 -0.87,-0.4 -0.2,-0.25 -0.27,-0.62 -0.27,-1.07 0,-0.33 0.47,-0.79 1.4,-1.42 0.94,-0.63 1.67,-1.33 2.19,-2.08 0.61,-0.92 1.08,-2.21 1.46,-3.93 0.36,-1.69 0.61,-3.84 0.73,-6.43 l 0.7,-15.11 c 0.01,-0.35 0.04,-0.76 0.04,-1.19 0.02,-0.45 0.02,-1.08 0.02,-1.92 0,-2.84 -0.21,-5.02 -0.61,-6.5 -0.42,-1.49 -1.09,-2.67 -2.03,-3.57 -0.6,-0.48 -1.37,-0.83 -2.29,-1.05 -0.9,-0.22 -1.37,-0.67 -1.37,-1.34 0,-0.44 0.08,-0.76 0.26,-0.97 0.16,-0.21 0.46,-0.29 0.87,-0.29 0.08,0 0.3,0.03 0.66,0.08 1.57,0.21 3.14,0.33 4.62,0.33 1.02,0 2.12,-0.12 3.33,-0.33 0.34,-0.05 0.56,-0.08 0.65,-0.08 0.39,0.03 0.71,0.15 0.97,0.38 0.26,0.24 0.57,0.81 0.95,1.7 l 13.92,31.63 c 0.15,0.33 0.28,0.55 0.39,0.7 0.15,0.15 0.28,0.24 0.44,0.24 0.17,0 0.34,-0.08 0.51,-0.24 0.19,-0.15 0.33,-0.31 0.41,-0.56 l 15.18,-32.46 c 0.2,-0.52 0.44,-0.88 0.68,-1.09 0.25,-0.21 0.54,-0.29 0.89,-0.29 0.19,0 0.61,0.05 1.28,0.2 0.66,0.14 1.25,0.22 1.74,0.22 0.85,0 1.79,-0.07 2.83,-0.22 1.03,-0.15 1.65,-0.2 1.83,-0.2 0.57,0 0.94,0.1 1.14,0.32 0.19,0.2 0.31,0.58 0.31,1.12 0,0.57 -0.44,0.95 -1.27,1.16 -0.83,0.2 -1.63,0.56 -2.39,1.05 -0.69,0.38 -1.21,0.99 -1.51,1.84 -0.33,0.86 -0.47,2.06 -0.47,3.63 v 0.59 z m -41.67,27.05 h -0.37 c -0.14,1.99 -0.44,3.64 -0.98,4.94 -0.51,1.31 -1.24,2.21 -2.13,2.76 v 0.38 c 1.3,-0.18 2.27,-0.65 2.86,-1.36 0.63,-0.72 0.91,-1.72 0.91,-3.01 0,-0.38 -0.01,-0.84 -0.07,-1.41 0,-0.57 -0.13,-1.32 -0.22,-2.3 M 335.7,356.8 v 0.39 c 1.8,1.2 3.49,3.67 5.08,7.42 0.19,0.45 0.35,0.8 0.47,1.07 l 13.2,30.75 c 0.19,0.38 0.33,0.65 0.45,0.75 0.08,0.11 0.22,0.18 0.36,0.18 0.18,0 0.31,-0.08 0.44,-0.21 0.15,-0.13 0.21,-0.29 0.21,-0.45 0,-0.22 -0.06,-0.47 -0.18,-0.82 -0.12,-0.33 -0.35,-0.91 -0.74,-1.72 l -11.44,-27.01 -0.15,-0.28 c -2.49,-5.96 -5.07,-9.33 -7.7,-10.07 m 39.57,2.32 -0.25,-0.2 c -0.58,1.03 -1,2.24 -1.29,3.63 -0.27,1.42 -0.4,3.13 -0.4,5.13 v 1.19 l 0.88,21.6 c 0.02,0.34 0.02,0.72 0.07,1.13 v 1.75 c 0,1.55 -0.11,2.74 -0.36,3.56 -0.23,0.84 -0.63,1.54 -1.17,2.1 v 0.29 c 1.03,-0.61 1.78,-1.38 2.26,-2.33 0.42,-0.94 0.66,-2.23 0.66,-3.8 0,-0.44 -0.02,-1.04 -0.06,-1.86 l -0.7,-19.27 c -0.02,-0.47 -0.05,-1.04 -0.05,-1.74 -0.02,-0.7 -0.03,-1.97 -0.03,-3.76 0,-1.5 0.05,-2.83 0.12,-3.99 0.07,-1.19 0.16,-2.33 0.32,-3.43"
   id="path54" />
	<path
   class="st1"
   d="m 410.55,354.6 c 6.59,0 12.05,2.19 16.35,6.57 4.32,4.39 6.48,9.89 6.48,16.48 0,6.96 -2.3,12.73 -6.86,17.34 -4.57,4.58 -10.4,6.88 -17.48,6.88 -6.59,0 -12,-2.18 -16.28,-6.57 -4.27,-4.38 -6.41,-9.92 -6.41,-16.59 0,-6.88 2.3,-12.62 6.87,-17.2 4.6,-4.61 10.36,-6.91 17.33,-6.91 m -7.44,45.8 0.18,-0.25 c -4.78,-2.62 -8.3,-5.7 -10.6,-9.32 -2.31,-3.62 -3.47,-7.89 -3.47,-12.79 0,-3.49 0.6,-6.76 1.77,-9.79 1.19,-3.03 2.86,-5.57 5.04,-7.6 l -0.2,-0.31 c -2.57,2.18 -4.61,4.92 -6.09,8.24 -1.5,3.28 -2.23,6.7 -2.23,10.26 0,5.01 1.38,9.45 4.18,13.35 2.8,3.84 6.61,6.61 11.42,8.21 m 22.29,-19.12 c 0,-6.96 -1.56,-12.64 -4.6,-17.06 -3.08,-4.41 -7.02,-6.61 -11.82,-6.61 -4.48,0 -8.05,1.6 -10.67,4.77 -2.59,3.19 -3.89,7.55 -3.89,13.15 0,6.99 1.48,12.62 4.44,16.89 2.99,4.29 6.92,6.41 11.82,6.41 4.52,0 8.11,-1.57 10.76,-4.69 2.63,-3.12 3.96,-7.42 3.96,-12.86 m -11.89,-24.04 c 3.9,1.38 7.03,4.2 9.39,8.49 2.37,4.27 3.57,9.32 3.57,15.14 0,3.81 -0.59,7.09 -1.77,9.81 -1.17,2.72 -2.99,5 -5.44,6.82 l 0.22,0.24 c 2.74,-1.47 4.89,-3.83 6.43,-7.04 1.53,-3.22 2.32,-7 2.32,-11.31 0,-5.62 -1.31,-10.41 -3.89,-14.42 -2.6,-4 -6.14,-6.65 -10.65,-7.97 z"
   id="path56" />
	<path
   class="st1"
   d="m 479.81,375.57 c 3.03,0.18 5.49,1.38 7.4,3.58 1.89,2.21 2.85,4.98 2.85,8.3 0,2.04 -0.39,4.02 -1.19,5.89 -0.76,1.87 -1.82,3.47 -3.21,4.76 -1.47,1.35 -3.12,2.31 -5.01,2.9 -1.88,0.59 -4.48,0.88 -7.71,0.88 -2.17,0 -4.46,-0.09 -6.93,-0.26 -2.47,-0.18 -3.86,-0.26 -4.18,-0.26 -1.42,0 -3.04,0.08 -4.82,0.26 -1.82,0.17 -2.87,0.26 -3.15,0.26 -0.5,0 -0.87,-0.12 -1.12,-0.32 -0.26,-0.22 -0.4,-0.56 -0.4,-1.01 0,-0.65 0.55,-1.23 1.6,-1.73 0.56,-0.28 1.01,-0.52 1.29,-0.71 0.9,-0.57 1.53,-1.37 1.92,-2.38 0.4,-1 0.61,-2.27 0.61,-3.89 v -26.1 c 0,-2.23 -0.14,-3.75 -0.36,-4.63 -0.27,-0.87 -0.71,-1.62 -1.34,-2.24 -0.72,-0.68 -1.8,-1.12 -3.27,-1.35 -1.46,-0.23 -2.21,-0.72 -2.21,-1.52 0,-0.42 0.14,-0.76 0.43,-1.01 0.3,-0.24 0.7,-0.36 1.2,-0.36 0.11,0 0.46,0.03 1.02,0.08 2.31,0.26 4.55,0.4 6.72,0.4 1.3,0 3.38,-0.08 6.18,-0.24 2.8,-0.16 4.94,-0.23 6.42,-0.23 4.41,0 7.89,1.03 10.48,3.1 2.57,2.09 3.87,4.88 3.87,8.38 0,2.34 -0.59,4.29 -1.74,5.83 -1.14,1.51 -2.93,2.72 -5.35,3.62 M 456.2,357 c 0.96,0.65 1.66,1.51 2.11,2.64 0.43,1.09 0.66,2.51 0.66,4.23 v 25.97 c 0,2.69 -0.21,4.64 -0.56,5.82 -0.38,1.18 -0.98,2.23 -1.83,3.15 1.37,-0.33 2.33,-1.13 2.88,-2.43 0.57,-1.3 0.84,-3.54 0.84,-6.73 v -25.33 c 0,-2.18 -0.31,-3.84 -0.95,-4.96 -0.63,-1.11 -1.67,-1.91 -3.15,-2.36 m 9.07,14.73 c 0,1.47 0.38,2.43 1.18,2.86 0.8,0.43 2.76,0.65 5.96,0.65 2.59,0 4.45,-0.55 5.54,-1.66 1.12,-1.12 1.66,-3.02 1.66,-5.65 0,-3.17 -0.92,-5.71 -2.8,-7.64 -1.87,-1.94 -4.28,-2.9 -7.29,-2.9 -1.59,0 -2.67,0.39 -3.3,1.2 -0.63,0.81 -0.95,2.44 -0.95,4.87 z m 0,20.02 c 0,2.89 0.5,4.79 1.45,5.73 0.97,0.93 2.78,1.4 5.41,1.4 3.09,0 5.52,-0.92 7.33,-2.73 1.79,-1.83 2.69,-4.27 2.69,-7.32 0,-3.4 -1.07,-6.05 -3.21,-7.96 -2.14,-1.87 -5.12,-2.83 -8.94,-2.83 -2.01,0 -3.28,0.24 -3.86,0.75 -0.58,0.49 -0.87,1.85 -0.87,4.06 z m 9.66,-34.95 -0.17,0.39 c 2.03,0.98 3.56,2.45 4.63,4.36 1.08,1.91 1.62,4.13 1.62,6.7 0,1 -0.12,1.87 -0.34,2.61 -0.22,0.74 -0.62,1.48 -1.18,2.21 l 0.33,0.2 c 0.86,-0.85 1.51,-1.84 1.91,-2.96 0.44,-1.12 0.66,-2.35 0.66,-3.73 0,-2.36 -0.67,-4.48 -2.01,-6.27 -1.4,-1.81 -3.17,-2.97 -5.45,-3.51 m 2.6,21.5 v 0.36 c 1.85,0.79 3.29,2.06 4.37,3.85 1.09,1.79 1.64,3.82 1.64,6.05 0,2.18 -0.44,4.1 -1.28,5.77 -0.86,1.7 -2.12,3.08 -3.77,4.15 l 0.19,0.33 c 2.05,-0.96 3.67,-2.4 4.86,-4.31 1.16,-1.91 1.73,-4.05 1.73,-6.41 0,-2.43 -0.66,-4.5 -2.02,-6.22 -1.36,-1.72 -3.26,-2.89 -5.72,-3.57"
   id="path58" />
	<path
   class="st1"
   d="m 516.35,354.6 c 6.6,0 12.04,2.19 16.37,6.57 4.31,4.39 6.46,9.89 6.46,16.48 0,6.96 -2.3,12.73 -6.85,17.34 -4.57,4.58 -10.39,6.88 -17.47,6.88 -6.56,0 -11.99,-2.18 -16.28,-6.57 -4.26,-4.38 -6.4,-9.92 -6.4,-16.59 0,-6.88 2.3,-12.62 6.87,-17.2 4.59,-4.61 10.34,-6.91 17.3,-6.91 m -7.44,45.8 0.2,-0.25 c -4.79,-2.62 -8.32,-5.7 -10.62,-9.32 -2.32,-3.62 -3.45,-7.89 -3.45,-12.79 0,-3.49 0.59,-6.76 1.75,-9.79 1.18,-3.03 2.85,-5.57 5.04,-7.6 l -0.17,-0.31 c -2.61,2.18 -4.63,4.92 -6.11,8.24 -1.48,3.28 -2.24,6.7 -2.24,10.26 0,5.01 1.4,9.45 4.21,13.35 2.78,3.84 6.6,6.61 11.39,8.21 m 22.28,-19.12 c 0,-6.96 -1.53,-12.64 -4.6,-17.06 -3.09,-4.41 -7,-6.61 -11.79,-6.61 -4.51,0 -8.08,1.6 -10.68,4.77 -2.59,3.19 -3.89,7.55 -3.89,13.15 0,6.99 1.48,12.62 4.45,16.89 2.97,4.29 6.91,6.41 11.78,6.41 4.54,0 8.12,-1.57 10.77,-4.69 2.64,-3.12 3.96,-7.42 3.96,-12.86 m -11.87,-24.04 c 3.89,1.38 7.04,4.2 9.41,8.49 2.35,4.27 3.53,9.32 3.53,15.14 0,3.81 -0.56,7.09 -1.77,9.81 -1.16,2.72 -2.96,5 -5.42,6.82 l 0.22,0.24 c 2.75,-1.47 4.88,-3.83 6.43,-7.04 1.53,-3.22 2.3,-7 2.3,-11.31 0,-5.62 -1.3,-10.41 -3.89,-14.42 -2.59,-4 -6.15,-6.65 -10.64,-7.97 z"
   id="path60" />
	<path
   class="st1"
   d="m 543.56,397.27 -2.03,-9.36 c -0.06,-0.25 -0.11,-0.5 -0.16,-0.72 -0.05,-0.24 -0.08,-0.38 -0.08,-0.41 0,-0.57 0.1,-0.97 0.31,-1.2 0.2,-0.21 0.56,-0.32 1.03,-0.32 0.42,0 0.88,0.71 1.37,2.12 0.46,1.44 1.04,2.73 1.68,3.91 1.37,2.4 2.99,4.29 4.86,5.63 1.86,1.35 3.79,2.02 5.79,2.02 2.5,0 4.57,-0.79 6.19,-2.38 1.61,-1.58 2.43,-3.64 2.43,-6.19 0,-3.26 -3.34,-6.35 -10.04,-9.27 l -0.3,-0.12 c -5.46,-2.37 -8.9,-4.47 -10.3,-6.36 -1.41,-1.87 -2.14,-4.37 -2.14,-7.48 0,-3.52 1.19,-6.5 3.52,-8.93 2.37,-2.43 5.29,-3.63 8.9,-3.63 1.8,0 3.69,0.39 5.63,1.2 1.97,0.79 3.21,1.2 3.79,1.2 0.55,0 1.12,-0.14 1.62,-0.44 0.54,-0.29 0.9,-0.42 1.06,-0.42 0.4,0 0.68,0.11 0.84,0.3 0.17,0.23 0.28,0.59 0.28,1.13 0,0.15 -0.04,0.5 -0.09,0.98 -0.04,0.5 -0.07,0.93 -0.07,1.28 0,1 0.16,2.47 0.43,4.38 0.31,1.92 0.46,3.31 0.46,4.18 0,0.37 -0.07,0.65 -0.24,0.85 -0.16,0.21 -0.4,0.3 -0.7,0.3 -0.61,0 -1.14,-0.69 -1.52,-2.07 -0.38,-1.4 -0.95,-2.76 -1.66,-4.03 -1.09,-1.81 -2.54,-3.24 -4.38,-4.34 -1.84,-1.06 -3.77,-1.61 -5.77,-1.61 -2.01,0 -3.69,0.61 -5,1.82 -1.32,1.21 -1.96,2.73 -1.96,4.54 0,1.76 0.61,3.26 1.9,4.53 1.25,1.23 3.55,2.51 6.91,3.82 0.35,0.15 0.94,0.36 1.71,0.66 4.13,1.63 6.84,3.09 8.15,4.41 1.23,1.21 2.17,2.67 2.82,4.38 0.63,1.7 0.94,3.58 0.94,5.62 0,4.44 -1.27,7.98 -3.84,10.61 -2.55,2.64 -5.97,3.97 -10.29,3.97 -1.4,0 -3.15,-0.38 -5.35,-1.08 -2.18,-0.7 -3.68,-1.09 -4.57,-1.21 -1.1,-0.13 -1.77,-0.71 -1.98,-1.73 -0.08,-0.24 -0.13,-0.44 -0.15,-0.54 m -1.32,-10.12 2.01,9.17 c 0.11,0.55 0.27,0.92 0.5,1.14 0.21,0.22 0.56,0.32 0.97,0.32 0.12,0 0.2,-0.05 0.29,-0.13 0.08,-0.08 0.12,-0.17 0.12,-0.28 0,-0.14 0,-0.23 -0.03,-0.26 0,-0.07 -0.01,-0.11 -0.05,-0.15 l -3.21,-10.03 c -0.04,-0.08 -0.08,-0.23 -0.13,-0.36 -0.03,-0.26 -0.16,-0.38 -0.3,-0.38 -0.11,0 -0.17,0.03 -0.24,0.05 -0.03,0.07 -0.08,0.12 -0.08,0.19 0,0.1 0.04,0.25 0.05,0.49 0.07,0.11 0.08,0.18 0.1,0.23 m 3.32,-27.05 -0.25,-0.12 c -0.73,1.25 -1.22,2.46 -1.55,3.55 -0.28,1.09 -0.45,2.2 -0.45,3.33 0,2.75 0.77,5.05 2.3,6.86 1.53,1.84 4.35,3.63 8.39,5.43 l 0.58,0.25 c 7.92,3.48 11.86,7.16 11.86,11.06 0,0.2 0,0.5 -0.04,0.86 -0.03,0.36 -0.08,0.76 -0.14,1.2 l 0.4,0.17 c 0.15,-0.68 0.31,-1.26 0.37,-1.77 0.08,-0.53 0.14,-1.02 0.14,-1.46 0,-2.15 -0.67,-4 -1.98,-5.55 -1.32,-1.56 -3.52,-3.03 -6.53,-4.38 -0.53,-0.26 -1.32,-0.6 -2.33,-1.05 -8.07,-3.62 -12.06,-7.91 -12.06,-12.85 0,-0.95 0.1,-1.89 0.31,-2.78 0.17,-0.91 0.53,-1.82 0.98,-2.75 m 13.72,-2.91 v 0.2 c 1.43,0.69 2.66,1.56 3.69,2.6 1.02,1.08 2.03,2.45 2.99,4.19 h 0.3 c -0.22,-2.25 -0.86,-3.86 -1.87,-4.89 -1.04,-1.02 -2.75,-1.71 -5.11,-2.1"
   id="path62" />
	<path
   class="st1"
   d="m 593.86,354.61 c 3.92,0 7.99,1.1 12.22,3.29 0.97,0.49 1.55,0.73 1.77,0.73 0.47,0 0.84,-0.35 1.15,-1.01 0.29,-0.68 0.64,-1 0.99,-1 0.73,0.01 1.12,0.79 1.18,2.33 v 0.58 c 0.08,2.07 0.26,4.29 0.54,6.65 0.26,2.37 0.41,3.7 0.41,3.99 0,0.38 -0.06,0.66 -0.21,0.86 -0.15,0.2 -0.38,0.3 -0.68,0.3 -0.52,0 -1.08,-0.6 -1.66,-1.79 -0.73,-1.5 -1.47,-2.83 -2.22,-3.95 -1.79,-2.6 -3.94,-4.64 -6.48,-6.1 -2.57,-1.48 -5.24,-2.22 -8.01,-2.22 -3.81,0 -7.01,1.7 -9.55,5.11 -2.52,3.4 -3.79,7.71 -3.79,12.98 0,6.25 1.56,11.49 4.74,15.71 3.14,4.22 7.03,6.32 11.68,6.32 2.11,0 4.21,-0.45 6.33,-1.35 2.12,-0.89 4.03,-2.15 5.76,-3.73 0.49,-0.51 1.15,-1.23 1.92,-2.17 0.8,-0.95 1.42,-1.43 1.85,-1.43 0.29,0 0.48,0.09 0.63,0.26 0.15,0.16 0.22,0.42 0.22,0.73 0,0.54 -0.39,1.37 -1.15,2.48 -0.74,1.1 -1.77,2.28 -3.04,3.54 -2.14,2.06 -4.5,3.6 -7.14,4.63 -2.61,1.02 -5.55,1.53 -8.77,1.53 -6.2,0 -11.19,-2.04 -15.01,-6.11 -3.79,-4.08 -5.7,-9.42 -5.7,-16.03 0,-7.07 2.1,-13.05 6.31,-17.88 4.24,-4.84 9.46,-7.25 15.71,-7.25 m -4.52,46.41 0.08,-0.33 c -4.86,-1.64 -8.6,-4.35 -11.15,-8.13 -2.56,-3.79 -3.83,-8.43 -3.83,-13.88 0,-3.66 0.74,-7.19 2.24,-10.62 1.52,-3.42 3.64,-6.37 6.38,-8.87 l -0.14,-0.25 c -3.19,2.41 -5.66,5.39 -7.39,8.96 -1.74,3.58 -2.62,7.44 -2.62,11.58 0,5.76 1.46,10.53 4.37,14.32 2.91,3.82 6.92,6.23 12.06,7.22 m 13.52,-41.95 -0.19,0.31 c 1.49,0.99 2.81,2.12 3.93,3.37 1.14,1.25 2.1,2.69 2.92,4.3 l 0.3,-0.19 c -0.21,-2.25 -0.82,-3.9 -1.79,-4.98 -0.94,-1.08 -2.69,-2.02 -5.17,-2.81"
   id="path64" />
	<path
   class="st1"
   d="m 627.97,365.07 v 7.51 c 0,0.62 0.15,1.11 0.48,1.49 0.33,0.34 0.81,0.52 1.42,0.52 h 17.6 c 0.6,0 1.06,-0.18 1.39,-0.52 0.35,-0.37 0.52,-0.86 0.52,-1.49 v -6.86 c 0,-2.12 -0.13,-3.65 -0.4,-4.6 -0.27,-0.97 -0.74,-1.84 -1.4,-2.61 -0.67,-0.55 -1.77,-0.92 -3.22,-1.08 -1.46,-0.16 -2.18,-0.64 -2.18,-1.45 0,-0.42 0.14,-0.76 0.43,-1.01 0.3,-0.24 0.68,-0.36 1.2,-0.36 0.08,0 1.05,0.08 2.84,0.27 1.82,0.18 3.56,0.29 5.27,0.29 2.48,0 5.1,-0.16 7.87,-0.47 0.63,-0.05 1.01,-0.08 1.15,-0.08 0.38,0 0.66,0.1 0.85,0.29 0.18,0.21 0.28,0.5 0.28,0.9 0,0.64 -0.47,1.13 -1.39,1.5 -0.94,0.37 -1.62,0.78 -2.05,1.23 -0.65,0.57 -1.1,1.24 -1.35,2.04 -0.26,0.8 -0.41,2.29 -0.41,4.52 v 26.57 c 0,1.75 0.27,3.17 0.79,4.26 0.46,1.11 1.27,1.87 2.28,2.33 0.34,0.2 0.91,0.38 1.68,0.56 1.33,0.3 1.99,0.87 1.99,1.61 0,0.53 -0.11,0.9 -0.35,1.13 -0.23,0.22 -0.6,0.34 -1.14,0.34 -0.31,0 -1.34,-0.09 -3.15,-0.24 -1.79,-0.2 -3.42,-0.27 -4.9,-0.27 -1.62,0 -3.43,0.08 -5.35,0.27 -1.91,0.16 -3,0.24 -3.26,0.24 -0.49,0 -0.88,-0.12 -1.12,-0.32 -0.28,-0.22 -0.42,-0.53 -0.42,-0.94 0,-0.67 0.6,-1.28 1.79,-1.82 0.45,-0.22 0.84,-0.41 1.1,-0.56 0.88,-0.66 1.53,-1.48 1.95,-2.48 0.42,-1.01 0.6,-2.3 0.6,-3.92 v -11.51 c 0,-0.62 -0.17,-1.12 -0.52,-1.46 -0.33,-0.37 -0.79,-0.54 -1.39,-0.54 h -17.6 c -0.61,0 -1.09,0.18 -1.42,0.54 -0.33,0.35 -0.48,0.85 -0.48,1.46 v 11.33 c 0,1.79 0.29,3.19 0.82,4.29 0.56,1.08 1.39,1.84 2.51,2.3 0.41,0.2 1.07,0.38 1.91,0.56 1.44,0.29 2.18,0.84 2.18,1.61 0,0.49 -0.12,0.87 -0.38,1.11 -0.26,0.24 -0.66,0.36 -1.19,0.36 -0.35,0 -1.5,-0.09 -3.46,-0.24 -1.94,-0.2 -3.73,-0.27 -5.29,-0.27 -1.65,0 -3.43,0.08 -5.34,0.27 -1.93,0.16 -3.03,0.24 -3.32,0.24 -0.48,0 -0.85,-0.12 -1.09,-0.32 -0.28,-0.22 -0.41,-0.53 -0.41,-0.94 0,-0.7 0.57,-1.3 1.72,-1.8 0.52,-0.23 0.91,-0.43 1.18,-0.58 0.87,-0.66 1.5,-1.48 1.92,-2.48 0.38,-1.01 0.59,-2.3 0.59,-3.92 v -26.1 c 0,-2.23 -0.11,-3.78 -0.35,-4.72 -0.24,-0.92 -0.69,-1.74 -1.34,-2.49 -0.68,-0.54 -1.75,-0.88 -3.21,-1.06 -1.5,-0.16 -2.25,-0.66 -2.25,-1.47 0,-0.42 0.16,-0.76 0.43,-1.01 0.29,-0.24 0.68,-0.36 1.2,-0.36 0.1,0 1.05,0.08 2.87,0.27 1.81,0.18 3.59,0.29 5.3,0.29 2.48,0 5.1,-0.16 7.79,-0.47 0.65,-0.05 1.02,-0.08 1.15,-0.08 0.38,0 0.7,0.1 0.9,0.29 0.2,0.21 0.29,0.5 0.29,0.9 0,0.64 -0.47,1.13 -1.41,1.5 -0.95,0.37 -1.66,0.78 -2.13,1.23 -0.6,0.56 -1.02,1.2 -1.25,1.96 -0.25,0.77 -0.37,2.07 -0.37,3.98 v 0.54 z m -9.18,-8.08 -0.15,0.26 c 1.06,0.54 1.79,1.33 2.24,2.32 0.44,1.02 0.66,2.44 0.66,4.29 v 25.97 c 0,2.69 -0.18,4.61 -0.54,5.8 -0.4,1.19 -0.99,2.25 -1.85,3.17 l 0.14,0.26 c 1.32,-0.61 2.27,-1.53 2.78,-2.75 0.54,-1.2 0.8,-3.43 0.8,-6.67 v -25.33 c 0,-2.18 -0.33,-3.84 -0.97,-4.96 -0.6,-1.1 -1.63,-1.9 -3.11,-2.36 m 28.99,0 -0.19,0.26 c 1.04,0.54 1.8,1.33 2.22,2.32 0.44,1.02 0.67,2.44 0.67,4.29 v 25.97 c 0,2.69 -0.18,4.61 -0.52,5.8 -0.37,1.19 -0.97,2.25 -1.84,3.17 l 0.12,0.26 c 1.34,-0.61 2.24,-1.53 2.78,-2.75 0.51,-1.2 0.76,-3.43 0.76,-6.67 v -25.33 c 0,-2.21 -0.29,-3.86 -0.92,-4.98 -0.58,-1.1 -1.61,-1.88 -3.08,-2.34"
   id="path66" />
	<path
   class="st1"
   d="m 678.76,365.07 v 26.57 c 0,1.91 0.29,3.38 0.79,4.45 0.54,1.06 1.35,1.75 2.46,2 0.44,0.24 1.15,0.46 2.07,0.65 1.46,0.34 2.18,0.91 2.18,1.65 0,0.49 -0.12,0.87 -0.42,1.11 -0.29,0.24 -0.75,0.36 -1.34,0.36 -0.29,0 -1.44,-0.09 -3.49,-0.24 -2.06,-0.2 -3.96,-0.27 -5.68,-0.27 -1.33,0 -2.9,0.08 -4.69,0.27 -1.8,0.16 -2.89,0.24 -3.3,0.24 -0.5,0 -0.88,-0.12 -1.13,-0.34 -0.26,-0.23 -0.39,-0.56 -0.39,-0.99 0,-0.67 0.63,-1.3 1.92,-1.85 0.53,-0.24 0.98,-0.44 1.25,-0.59 0.75,-0.45 1.32,-1.22 1.68,-2.29 0.38,-1.07 0.57,-2.38 0.57,-3.98 v -26.1 c 0,-2.56 -0.11,-4.24 -0.38,-5.04 -0.24,-0.8 -0.67,-1.48 -1.34,-2.03 -0.68,-0.56 -1.75,-0.95 -3.25,-1.15 -1.48,-0.19 -2.21,-0.71 -2.21,-1.52 0,-0.42 0.13,-0.76 0.43,-1.01 0.25,-0.24 0.63,-0.36 1.15,-0.36 0.1,0 0.41,0.03 0.9,0.08 1.88,0.26 3.62,0.4 5.19,0.4 3.81,0 7.23,-0.14 10.34,-0.42 0.35,-0.04 0.56,-0.05 0.61,-0.05 0.47,0 0.79,0.1 1,0.29 0.21,0.21 0.33,0.5 0.33,0.9 0,0.64 -0.53,1.13 -1.58,1.52 -1.04,0.38 -1.79,0.83 -2.2,1.34 -0.5,0.43 -0.86,1.14 -1.09,2.1 -0.26,0.95 -0.38,2.39 -0.38,4.3 m -9.12,-8.08 -0.13,0.26 c 1.04,0.54 1.8,1.33 2.26,2.32 0.44,1.02 0.67,2.44 0.67,4.29 v 25.97 c 0,2.69 -0.19,4.61 -0.56,5.8 -0.35,1.19 -0.98,2.25 -1.84,3.17 l 0.12,0.26 c 1.32,-0.61 2.26,-1.53 2.78,-2.75 0.53,-1.2 0.8,-3.43 0.8,-6.67 v -25.33 c 0,-2.18 -0.3,-3.84 -0.94,-4.96 -0.63,-1.1 -1.68,-1.9 -3.16,-2.36"
   id="path68" />
	<g
   id="g96">
		<path
   class="st1"
   d="m 340.02,417.25 0.39,0.46 c -1.78,0.15 -6.87,5.87 -7.72,5.95 0.23,0.77 -2.08,2.78 -3.01,3.55 -1.31,1.31 -2.01,2.55 -3.17,3.55 -0.54,0.7 -2.32,2.78 -2.86,3.55 -0.39,0.69 -2.01,2.93 -2.39,3.47 -2.32,2.55 -3.94,5.1 -6.25,7.72 -0.93,1 -5.64,6.95 -5.64,7.64 h -0.77 l 0.23,0.31 -1.54,1.31 -0.23,-0.08 0.31,0.46 -0.31,-0.23 -2.7,3.17 c -1.16,0.08 -0.93,0.54 -1.7,1.16 -0.7,0.62 -1.39,0.62 -1.78,0.85 -1.08,1.93 -3.47,3.32 -6.02,4.48 -4.48,2.08 -2.7,1.39 -7.26,1.54 l -1.85,-2.08 v -2.47 c -0.15,-1 0.08,0 -0.23,-0.77 0.08,0 2.86,-6.49 2.93,-6.72 0.39,-0.69 3.01,-5.48 4.09,-5.56 l -0.23,-0.15 4.86,-7.18 h 0.85 l -0.31,-0.23 9.88,-11.81 0.15,0.23 c -0.15,-0.85 3.55,-4.32 4.17,-5.17 0.85,-1.08 4.48,-4.48 4.48,-5.25 0,-0.62 -0.08,-0.62 -0.23,-1.08 l -0.93,-0.23 -7.49,5.02 h -1.16 l 0.23,0.46 c -0.69,0.08 -1.54,0.54 -1.85,0.77 -1.31,1.16 -0.23,0.31 -1.62,0.93 -0.69,0.23 -3.01,1.62 -3.24,1.7 -2.47,0.77 -5.25,2.32 -7.34,3.09 -3.47,1.31 -10.42,3.63 -13.74,3.94 l -3.71,0.23 c -2.47,0.23 -4.02,0.15 -6.49,-0.08 -1.62,-0.23 -2.86,-0.77 -4.32,-1.39 -2.01,-1.16 -2.08,-1.62 -3.63,-2.7 -2.55,3.63 -0.31,3.17 2.24,5.25 0.69,0.69 2.32,0.93 3.47,1.39 2.01,0.62 2.47,0.31 3.32,0.39 l 1.62,0.39 h 0.69 c 2.78,0 9.27,-2.47 11.2,-1.47 0.85,-1.16 1.85,-1.54 3.01,-1.85 0.23,0 1.08,-0.7 1.54,-0.77 0.46,-0.15 0.46,0.23 1.54,-0.39 1.08,-0.39 2.01,-0.7 3.24,-1.31 0.85,-0.31 1.31,-0.23 1.7,-0.54 0.62,-0.23 1.16,-0.62 1.78,-0.85 2.55,-0.77 12.59,-6.87 13.51,-6.87 l -4.94,5.87 -0.23,-0.23 c 0.39,0.77 -1.24,2.08 -2.16,2.78 -1.08,1.16 -1.54,1.62 -2.32,2.86 -0.85,1.54 -4.94,5.17 -4.56,6.1 h -0.69 l 0.23,0.23 -3.32,4.09 0.39,0.15 -0.62,0.08 -1,2.32 h -0.62 c -0.15,1.16 -0.23,0.93 -0.93,1.62 -1,0.93 -0.15,0.23 -0.7,1.24 -0.31,0.93 -1,2.16 -1.39,2.78 -1.08,2.08 -2.01,3.63 -2.32,5.48 -0.31,2.01 -0.93,3.24 -0.15,5.79 0.15,0.85 0.62,2.32 1.54,2.93 0.46,0.23 2.47,1.16 2.86,1.16 h 0.85 c 0.85,0 3.94,-0.93 5.25,-1.54 1.31,-0.85 4.32,-2.39 5.17,-3.24 0.77,-0.85 1.47,-0.93 2.32,-1.85 0.93,-0.69 1.39,-1.39 2.08,-2.08 1.31,-1.08 3.09,-3.01 4.4,-4.25 2.01,-2.09 14.82,-17.45 14.36,-18.45 h 0.69 c -0.54,-1.31 3.17,-3.55 2.86,-4.4 l 1.31,-1.24 3.78,-4.09 -0.23,-0.23 c 1,0 6.87,-6.56 9.11,-6.79 l -0.15,-0.46 c 0.46,-0.08 5.25,-2.78 5.33,-2.93 1,-0.77 3.24,-1.7 5.17,-2.47 1,-0.23 1.16,-0.69 2.24,-0.93 0.93,-0.31 2.39,-0.77 2.93,-1 1.31,-0.31 1.47,-0.46 2.7,-0.77 1.93,-0.39 1.47,-0.77 2.16,-1.85 -1.24,-1.78 -3.09,-1 -5.17,-0.15 -1.47,0.69 -3.71,1.24 -5.1,2.01 -1.08,0.54 -4.17,1.62 -5.48,2.55 -0.65,0.4 -4.9,3.18 -5.36,3.18"
   id="path70" />
		<path
   class="st1"
   d="m 308.06,464.73 c 2.24,-1.39 4.17,-2.7 5.25,-2.86 l -1.16,2.55 c 0.31,0.93 1,3.4 2.47,3.4 h 1.39 c 1.93,0 5.56,-1.78 8.96,-3.63 l -0.62,-1.39 c -0.15,0.08 -0.39,0.15 -0.54,0.23 -3.47,1.24 -4.71,3.24 -9.19,2.93 0.46,-1.16 -0.08,-2.08 1.62,-4.86 0.39,-0.62 1.16,-1.62 1.47,-2.08 0.62,-1 0.69,-1.16 1.24,-1.93 l -0.31,-0.85 -1.31,-0.46 c -0.46,1.24 -6.25,5.71 -7.72,6.41 -0.77,0.39 -1.39,0.54 -1.93,0.77 z m 15.82,-18.07 -0.08,1 c 0.15,0.23 0.39,0.77 0.77,0.77 1.16,0 2.24,-1.85 2.39,-2.93 l -1.47,-0.46 z"
   id="path72" />
		<path
   class="st1"
   d="m 326.9,460.95 3.78,-2.01 c -0.23,2.47 -5.17,6.49 -4.17,8.18 1,1.47 3.94,-0.31 5.4,-1 1.08,-0.54 2.08,-0.93 2.78,-1.16 0.46,-0.23 1.16,-1.08 2.47,-1.7 v 1.54 c -0.31,5.33 7.18,3.71 10.11,2.16 1.24,-0.7 2.32,-1.24 3.4,-1.93 l -0.39,-1.31 c -0.46,0.15 -1,0.46 -1.47,0.62 -0.93,0.46 -3.47,1.16 -3.94,1.78 l -1.08,-0.23 c -1,1.39 -2.93,0.62 -4.09,0.54 v -1.08 c -0.23,-2.32 2.08,-3.94 2.08,-5.17 0,-0.15 -0.62,-0.7 -0.77,-1 -1.54,1 -10.5,6.56 -11.43,6.18 -0.15,-0.31 0.39,-1.7 1.54,-1.78 -0.46,-1.08 3.55,-6.25 0.23,-6.25 -1.08,0 -3.71,1.78 -4.56,2.32 -0.15,0.15 -0.23,0.23 -0.31,0.23 z"
   id="path74" />
		<path
   class="st1"
   d="m 349.83,464.73 c 2.24,-1.39 4.17,-2.7 5.25,-2.86 l -1.16,2.55 c 0.31,0.93 1,3.4 2.47,3.4 h 1.39 c 1.93,0 5.56,-1.78 8.96,-3.63 l -0.62,-1.39 c -0.15,0.08 -0.39,0.15 -0.54,0.23 -3.47,1.24 -4.71,3.24 -9.19,2.93 0.46,-1.16 -0.08,-2.08 1.62,-4.86 0.39,-0.62 1.16,-1.62 1.47,-2.08 0.62,-1 0.69,-1.16 1.24,-1.93 l -0.31,-0.85 -1.31,-0.46 c -0.46,1.24 -6.25,5.71 -7.72,6.41 -0.77,0.39 -1.39,0.54 -1.93,0.77 z m 15.83,-18.07 -0.08,1 c 0.15,0.23 0.39,0.77 0.77,0.77 1.16,0 2.24,-1.85 2.39,-2.93 l -1.47,-0.46 z"
   id="path76" />
		<path
   class="st1"
   d="m 433.33,419.1 0.31,0.54 c -1.7,0.23 -4.79,3.94 -5.79,5.1 -2.39,2.78 -2.86,3.24 -4.02,6.41 -0.85,2.24 -1,3.55 -1.78,6.79 -0.54,2.16 -3.63,3.17 -5.87,4.56 -2.32,1.47 -4.63,2.63 -7.03,4.09 -1.85,1.08 -4.48,2.7 -6.41,3.78 -2.16,1 -11.89,7.57 -13.44,7.72 v 0.54 c -3.55,0.85 -7.8,-2.24 -12.2,-3.24 -1.24,0.77 -1.54,1.47 -1.54,2.7 v 0.77 c 0,2.55 4.25,4.32 4.32,5.64 l -10.35,6.33 0.08,0.15 -1.47,1.47 0.15,0.77 2.01,-0.77 -0.15,-0.23 9.19,-5.95 0.08,0.15 -0.31,-0.46 c 1.7,-0.15 0.93,-1 2.01,-1 h 0.31 c 0.15,0 3.55,0.93 4.79,1.08 1.85,0.31 3.71,0.39 6.1,0.39 l 0.85,0.23 4.71,-0.46 2.63,-0.23 c 0.54,-0.31 4.79,-1.62 6.49,-2.24 1.93,-0.93 2.01,-0.93 3.71,-1.93 0.85,-0.46 2.78,-1.85 3.71,-2.01 1.7,-0.31 5.33,-1 6.79,-1.31 2.32,-0.39 6.64,-1.93 7.26,-2.86 -0.7,-0.46 -10.58,3.4 -12.82,2.47 0.77,-1.16 2.78,-3.09 3.17,-4.09 0.15,-0.39 1.16,-1.62 1.47,-2.32 0.15,-0.23 0.69,-1.78 1,-2.47 0.7,-2.08 2.93,-9.03 2.47,-10.04 1.16,-0.39 14.05,-8.42 14.75,-9.11 1.08,-1 2.08,-1.78 3.47,-2.63 1.08,-0.7 2.08,-1.93 3.09,-2.93 1.62,-1.62 4.63,-4.63 4.63,-6.87 l 0.15,-1.54 c -2.93,-2.01 -2.63,-1.31 -5.1,-1.31 -1.7,0 -3.47,0.85 -5.79,1.62 -1.85,0.61 -3.7,2.62 -5.63,2.7 m 0,1.85 c 0.31,0 6.02,-3.55 7.8,-4.09 3.47,-1.39 4.48,-1.31 7.72,-0.46 -0.46,1.08 0.15,1.08 -1,3.47 -0.62,1 -1.93,2.24 -2.86,3.01 -2.24,1.85 -3.78,4.09 -6.33,5.64 -0.77,0.46 -3.24,1.93 -3.4,2.16 -1.08,0.85 -2.01,1.78 -3.32,2.55 -1.16,0.69 -6.72,4.09 -7.18,3.94 -0.39,-0.77 1,-5.33 1.54,-6.64 0.23,-0.62 0.93,-2.01 1.31,-2.55 0.39,-0.77 2.01,-2.39 1.7,-3.01 1.54,-0.15 2.08,-3.4 4.32,-3.55 z M 413.1,445.2 c 2.01,-0.15 7.03,-4.56 8.34,-4.02 l -0.54,0.69 c 0.54,2.63 -3.24,10.81 -3.94,11.97 -1.62,2.08 -2.16,3.78 -4.79,5.17 -1.16,0.77 -5.1,0.62 -6.95,0.62 h -0.15 l -3.55,0.23 c -0.77,0.08 -0.69,0.08 -1.62,0 l -2.47,-0.08 -6.87,-0.31 v -0.62 c 0.31,-0.08 10.19,-6.02 11.12,-6.64 1.93,-1.16 3.86,-2.01 5.79,-3.32 0.93,-0.7 4.94,-3.17 5.95,-3.17 z m -35.44,12.43 v -0.77 h 0.77 c 0.08,0 4.01,1.54 4.17,1.62 1.39,0.46 3.32,0.85 4.17,1.16 -0.54,0.77 -4.4,3.78 -5.48,3.71 -0.31,0 -2.32,-1.54 -2.7,-2.08 -1.09,-1.71 -0.93,-1.94 -0.93,-3.64 z m 15.98,7.8 c -1.7,0 -3.47,0.39 -4.79,0.23 -1.08,-0.31 -2.16,-0.23 -3.55,-0.46 -2.01,-0.46 -2.16,-0.62 -2.55,-1.78 1.85,-0.15 4.94,-3.78 6.72,-3.4 2.24,0.39 6.1,0.85 7.72,0.85 h 1.24 6.79 l 4.86,-0.15 c -1.16,1.62 -6.56,3.32 -8.03,3.63 -3.01,0.54 -5.63,1.08 -8.41,1.08 z"
   id="path78" />
		<path
   class="st1"
   d="m 425.68,464.73 c 2.24,-1.39 4.17,-2.7 5.25,-2.86 l -1.16,2.55 c 0.31,0.93 1,3.4 2.47,3.4 h 1.39 c 1.93,0 5.56,-1.78 8.96,-3.63 l -0.62,-1.39 c -0.15,0.08 -0.39,0.15 -0.54,0.23 -3.47,1.24 -4.71,3.24 -9.19,2.93 0.46,-1.16 -0.08,-2.08 1.62,-4.86 0.39,-0.62 1.16,-1.62 1.47,-2.08 0.62,-1 0.69,-1.16 1.24,-1.93 l -0.31,-0.85 -1.31,-0.46 c -0.46,1.24 -6.25,5.71 -7.72,6.41 -0.77,0.39 -1.39,0.54 -1.93,0.77 z m 15.83,-18.07 -0.08,1 c 0.15,0.23 0.39,0.77 0.77,0.77 1.16,0 2.24,-1.85 2.39,-2.93 l -1.47,-0.46 z"
   id="path80" />
		<path
   class="st1"
   d="m 444.52,460.95 3.78,-2.01 c -0.23,2.47 -5.17,6.49 -4.17,8.18 1,1.47 3.94,-0.31 5.4,-1 1.08,-0.54 2.08,-0.93 2.78,-1.16 0.46,-0.23 1.16,-1.08 2.47,-1.7 v 1.54 c -0.31,5.33 7.18,3.71 10.11,2.16 1.24,-0.7 2.32,-1.24 3.4,-1.93 l -0.39,-1.31 c -0.46,0.15 -1,0.46 -1.47,0.62 -0.93,0.46 -3.47,1.16 -3.94,1.78 l -1.08,-0.23 c -1,1.39 -2.93,0.62 -4.09,0.54 v -1.08 c -0.23,-2.32 2.08,-3.94 2.08,-5.17 0,-0.15 -0.62,-0.7 -0.77,-1 -1.54,1 -10.5,6.56 -11.43,6.18 -0.15,-0.31 0.39,-1.7 1.54,-1.78 -0.46,-1.08 3.55,-6.25 0.23,-6.25 -1.08,0 -3.71,1.78 -4.56,2.32 -0.15,0.15 -0.23,0.23 -0.31,0.23 z"
   id="path82" />
		<path
   class="st1"
   d="m 464.83,467.05 c 1.93,-0.93 3.4,-2.08 3.71,-2.08 0.77,0 0.23,1.16 0,1.54 l 0.62,1 1.16,0.54 6.72,-2.63 -1.78,2.24 -10.81,6.87 0.31,0.46 -0.23,-0.23 -3.09,2.47 0.23,0.31 -0.23,-0.23 -3.55,3.01 -0.15,-0.15 c -0.15,1.93 -8.72,8.49 -8.72,16.37 1.93,3.01 2.32,4.17 6.56,1.78 2.24,-1.39 4.25,-3.86 5.87,-6.02 1.62,-2.24 2.78,-3.86 4.48,-6.02 1.78,-2.39 2.7,-4.25 4.32,-6.49 1.7,-2.24 3.24,-4.86 4.79,-7.34 2.24,-3.55 1.85,-3.78 5.41,-5.87 2.08,-1.24 4.25,-2.55 6.56,-4.01 l -0.08,-1.54 c -3.4,2.01 -6.49,3.63 -6.79,3.71 0.69,-1.39 1.7,-2.55 2.39,-3.94 1.31,-2.78 0.31,-1.62 -1.16,-2.24 -0.31,0.7 -2.7,4.02 -4.09,4.09 l 0.23,0.54 c -1.31,0.15 -4.01,3.47 -6.41,2.55 1.31,-2.7 3.01,-4.25 5.71,-5.33 0.69,-0.23 2.47,-1.39 3.47,-1.85 1.54,-0.77 2.78,-2.55 0.85,-2.55 h -0.77 c -0.77,0 -3.86,1.54 -4.4,2.01 -1.39,1.16 -2.08,1.54 -3.55,2.93 -0.93,0.93 -5.56,3.32 -7.64,4.32 z m 8.26,3.7 c -0.08,1.31 -6.79,10.81 -7.49,12.82 -1.08,2.47 -8.42,10.96 -8.65,11.97 -1.16,0.15 -2.24,1.31 -2.93,1.7 -1.08,0.46 -1.39,0 -2.93,-0.15 -0.62,-2.55 -0.23,-4.02 0.93,-6.41 0.85,-1.7 1.16,-1.62 2.16,-3.01 0.77,-1.08 1.16,-2.47 2.32,-2.63 -0.46,-0.93 5.25,-6.56 6.1,-6.18 0.31,-1.16 4.32,-4.56 5.71,-4.63 l -0.23,-0.46 z"
   id="path84" />
		<path
   class="st1"
   d="m 477.8,466.97 v 0 l 0.15,-0.62 0.23,0.23 6.56,-3.17 -0.23,-0.39 3.32,-1.85 -2.08,4.56 1.7,2.24 2.39,0.08 c 1.16,0 4.48,-2.7 5.33,-3.4 1.54,-1.16 1.7,-2.86 2.55,-3.55 l 1.16,-1.85 c -1,-1.62 -1.16,-5.33 -3.4,-3.01 0.23,0.54 0.85,2.08 0.85,2.78 0,1.78 -1.93,4.17 -3.17,5.33 -0.69,0.62 -2.16,1.54 -2.7,1.62 -1.85,0.39 -1.31,0.7 -2.24,-0.69 0.93,-1.47 1,-2.39 2.7,-4.56 1.24,-1.54 3.78,-2.39 4.25,-4.17 h -0.54 v -0.54 h -1.7 c -0.54,1.62 -9.5,6.41 -10.58,6.72 -0.85,0.31 -3.17,1.54 -4.71,2.24 z"
   id="path86" />
		<path
   class="st1"
   d="m 522.97,436.39 c -0.54,-1.16 6.72,-7.41 8.03,-8.8 1.54,-1.47 3.24,-2.63 5.02,-3.86 0.77,-0.46 5.4,-3.09 5.4,-1 0,4.63 -8.88,13.51 -11.43,17.53 -0.93,1.31 -3.17,2.7 -3.71,3.24 -0.54,0.54 -2.01,2.39 -3.17,3.55 -1,1.08 -6.87,6.64 -7.95,6.72 l 0.31,0.54 -3.78,2.47 c 0,-2.7 3.47,-9.96 3.94,-10.58 1,-1.39 2.16,-3.55 3.17,-4.79 0.77,-1 3.17,-3.47 2.78,-4.48 z m -24.94,29.73 c 0.93,-0.31 1.85,-0.54 2.7,-0.54 l 7.8,-4.71 c 0.39,0.23 0.77,3.47 2.24,5.33 1.93,2.16 4.71,1.62 6.25,1.62 0.46,0 4.79,-1.7 6.1,-2.32 1.16,-0.46 4.25,-2.63 5.71,-3.32 l -0.54,-1.31 c -1.16,0.69 -1.85,1 -3.32,1.85 -3.24,1.93 -6.33,3.32 -10.66,3.32 -1.47,-1 -2.39,-0.77 -3.17,-3.47 -0.54,-1.85 -0.23,-2.24 0.31,-4.25 1.62,-0.15 8.88,-6.72 10.5,-8.11 4.02,-3.32 5.95,-6.1 9.34,-9.42 0.7,-0.7 3.24,-3.71 4.09,-4.79 1.24,-1.78 2.63,-3.86 3.86,-5.48 1.24,-1.39 2.24,-3.24 2.78,-5.17 1.08,-3.24 2.47,-2.78 -1.16,-5.33 -1,0.77 -2.93,1.16 -4.32,1.85 -0.77,0.39 -3.63,1.93 -3.71,2.01 -2.24,2.24 -4.86,3.86 -7.18,6.18 -2.39,2.47 -4.17,4.32 -6.49,6.95 -0.77,0.93 -2.08,2.93 -2.47,3.63 -0.54,0.93 -1.85,2.47 -2.39,3.55 -1.16,2.63 -2.93,5.25 -3.86,7.8 -0.54,1.47 -0.85,2.39 -1.31,4.09 -0.54,2.32 0.39,2.55 -1.7,3.94 -2.78,1.85 -5.48,2.86 -8.18,4.09 -0.46,0.15 -0.93,0.39 -1.39,0.62 z"
   id="path88" />
		<path
   class="st1"
   d="m 527.06,464.35 c -0.77,-1.78 6.95,-6.02 9.73,-6.02 -1.62,1.07 -7.64,7.02 -9.73,6.02 m 15.75,-1.01 c -0.7,0.31 -1.93,0.46 -2.78,0.93 -1.39,0.69 -2.78,0.54 -3.55,1.08 -1.54,-2.78 1.78,-3.71 2.01,-6.33 l -1.31,-0.85 c 1.08,0 1.54,0.31 2.01,-0.08 0.15,-0.15 0.69,-1 0.69,-1.47 0,-0.15 -0.54,-0.69 -0.69,-0.93 l -2.24,-0.39 c -0.77,0.39 -3.78,0.62 -4.32,0.77 -1.54,0.54 -3.01,2.55 -4.56,1.78 l -0.31,0.69 c -1.62,-0.31 -0.62,0.7 -1.7,1.85 -0.69,0.77 -1.78,1.85 -1.85,3.01 -0.23,2.24 0.77,3.94 1.16,4.09 0.23,0 1.7,-0.54 1.93,-0.62 0.7,-0.15 1.39,-0.15 2.01,-0.46 1.62,-0.93 2.78,-1.93 4.09,-2.78 0.15,2.47 1.7,3.86 3.63,3.86 h 0.69 c 0.15,0 4.4,-1.39 5.56,-1.78 z"
   id="path90" />
		<path
   class="st1"
   d="m 544.9,466.97 c 0.15,-0.15 0.23,-0.23 0.39,-0.31 2.47,-1.24 8.34,-5.56 9.73,-8.11 l 2.62,1.54 c -0.77,1.31 -5.25,5.25 -1.7,7.26 2.55,1.47 3.94,0.77 6.02,0 l 0.15,-2.01 c -2.55,1.08 -4.94,1.62 -4.94,0 v -0.31 c 0,-2.08 4.56,-4.25 4.32,-7.57 -0.93,0.39 -3.4,1.62 -3.94,-0.31 -0.62,-2.47 2.32,-2.08 0.69,-3.94 l -1.24,0.62 c 0.08,0.46 -2.86,3.71 -3.71,4.71 -0.62,0.7 -1.85,1.31 -2.78,2.32 -1.24,1.16 -1.54,1.08 -2.7,2.08 -0.54,0.46 -2.01,1.31 -3.55,2.01 z"
   id="path92" />
		<path
   class="st1"
   d="m 564.36,464.73 c 2.24,-1.39 4.17,-2.7 5.25,-2.86 l -1.16,2.55 c 0.31,0.93 1,3.4 2.47,3.4 h 1.39 c 1.93,0 5.56,-1.78 8.96,-3.63 l -0.62,-1.39 c -0.15,0.08 -0.39,0.15 -0.54,0.23 -3.47,1.24 -4.71,3.24 -9.19,2.93 0.46,-1.16 -0.08,-2.08 1.62,-4.86 0.39,-0.62 1.16,-1.62 1.47,-2.08 0.62,-1 0.7,-1.16 1.24,-1.93 l -0.31,-0.85 -1.31,-0.46 c -0.46,1.24 -6.25,5.71 -7.72,6.41 -0.77,0.39 -1.39,0.54 -1.93,0.77 z m 15.82,-18.07 -0.08,1 c 0.15,0.23 0.39,0.77 0.77,0.77 1.16,0 2.24,-1.85 2.39,-2.93 l -1.47,-0.46 z"
   id="path94" />
	</g>
</g>
</svg>
