<?xml version="1.0" encoding="UTF-8" standalone="no"?>
<svg
   xmlns:dc="http://purl.org/dc/elements/1.1/"
   xmlns:cc="http://creativecommons.org/ns#"
   xmlns:rdf="http://www.w3.org/1999/02/22-rdf-syntax-ns#"
   xmlns:svg="http://www.w3.org/2000/svg"
   xmlns="http://www.w3.org/2000/svg"
   xmlns:sodipodi="http://sodipodi.sourceforge.net/DTD/sodipodi-0.dtd"
   xmlns:inkscape="http://www.inkscape.org/namespaces/inkscape"
   version="1.1"
   id="Camada_1"
   x="0px"
   y="0px"
   viewBox="0 0 529.46996 404.16102"
   xml:space="preserve"
   sodipodi:docname="boschi-logo.svg"
   width="529.46997"
   height="404.16104"
   inkscape:version="1.0.1 (3bc2e813f5, 2020-09-07)"><metadata
   id="metadata105"><rdf:RDF><cc:Work
       rdf:about=""><dc:format>image/svg+xml</dc:format><dc:type
         rdf:resource="http://purl.org/dc/dcmitype/StillImage" /></cc:Work></rdf:RDF></metadata><defs
   id="defs103" /><sodipodi:namedview
   pagecolor="#ffffff"
   bordercolor="#666666"
   borderopacity="1"
   objecttolerance="10"
   gridtolerance="10"
   guidetolerance="10"
   inkscape:pageopacity="0"
   inkscape:pageshadow="2"
   inkscape:window-width="1366"
   inkscape:window-height="705"
   id="namedview101"
   showgrid="false"
   inkscape:zoom="0.90377633"
   inkscape:cx="274.25889"
   inkscape:cy="200.66612"
   inkscape:window-x="-8"
   inkscape:window-y="-8"
   inkscape:window-maximized="1"
   inkscape:current-layer="Camada_1"
   inkscape:document-rotation="0" />
<style
   type="text/css"
   id="style2">
	.st0{fill:#B77333;}
	.st1{fill:#282929;}
</style>
<g
   id="g98"
   transform="translate(-156.79,-95.44)">
	<path
   class="st0"
   d="m 404.24298,141.37447 c -0.14219,0 -0.30469,0.0406 -0.52305,0.10664 l -0.066,0.0203 -5.03757,1.34572 c -0.44688,0.0863 -0.55352,0.20821 -0.6754,0.54845 l -0.0254,0.13711 c 0,1.83831 -0.10665,2.94535 -0.7465,4.68717 -0.0965,0.30977 -0.12696,0.52813 -0.0711,0.69064 0.0457,0.20821 0.18281,0.33516 0.41641,0.42149 0.88868,0.10664 1.73166,0.23868 2.53402,0.35547 0.56876,0.0863 1.11212,0.16251 1.62502,0.2336 0.14219,0.0203 0.25391,0.0355 0.37579,0.0355 0.46211,0 0.70078,-0.22852 0.99532,-0.65509 1.00549,-2.32073 1.6301,-3.81372 1.72151,-7.10948 -0.005,-0.2539 -0.005,-0.81758 -0.52306,-0.81758 m -0.60938,1.25431 c -0.0102,0.0914 -0.0203,0.19805 -0.0203,0.31485 l -0.0152,0.0965 c -0.48243,2.46801 -0.66016,3.39224 -1.63517,5.67235 -0.0407,0.13203 -0.0711,0.1625 -0.0914,0.16758 0,0 -0.0254,0 -0.12695,0 h -0.45704 l -2.62035,-0.5129 c -0.28438,-0.0355 -0.35547,-0.0508 -0.37071,-0.066 0.0355,-0.005 0.0355,-0.11171 0.0609,-0.2082 l 0.0254,-0.16758 c 0.3961,-1.43205 0.57892,-2.15316 0.67541,-3.79341 0,-0.21329 0,-0.28438 0.39102,-0.42149 l 4.18443,-1.12229 z"
   id="path4"
   style="stroke-width:0.50782" />
	<path
   class="st0"
   d="m 395.88427,143.17215 -5.11374,0.84298 c -0.45704,0.0711 -0.82267,0.17774 -0.82267,0.69063 -0.0407,0.25392 -0.066,0.51798 -0.0762,0.77189 -0.0355,0.25899 -0.0406,0.49766 -0.0762,0.74142 -0.0609,0.13711 -0.0813,0.2793 -0.0406,0.41133 0.066,0.16758 0.20313,0.30469 0.41641,0.42149 1.60471,0.70079 3.54458,1.45236 4.82936,1.85862 0.1168,0.0406 0.22852,0.0609 0.34024,0.0609 0.38087,0 0.64493,-0.25391 0.78712,-0.76681 0.45196,-1.3508 0.66525,-2.6559 0.66525,-3.91529 l -0.0203,-0.17773 c -0.066,-0.49767 -0.11173,-1.06643 -0.88869,-0.93947 m -0.80743,4.2149 c -0.0914,0.31485 -0.11172,0.35039 -0.16759,0.35039 -0.0305,0 -0.0762,0 -0.15742,-0.0203 -1.14259,-0.29961 -2.44769,-0.78204 -3.99146,-1.49806 -0.0305,-0.0152 -0.0457,-0.0254 -0.066,-0.0355 0.0203,-0.0406 0.0355,-0.0965 0.0559,-0.14727 l 0.0863,-0.87853 c 0.0152,-0.0305 0.0406,-0.0914 0.59414,-0.16758 l 3.77818,-0.59414 c 0.0863,-0.005 0.15743,-0.0203 0.22344,-0.0203 0.21836,0 0.21836,0.0406 0.21836,0.16758 -0.0914,0.94454 -0.26914,1.85354 -0.57383,2.84379"
   id="path6"
   style="stroke-width:0.50782" />
	<path
   class="st0"
   d="m 397.52961,174.02727 c -0.14727,0.0203 -0.43165,0.0812 -0.52814,0.30977 -0.0914,0.23359 0.0711,0.43672 0.19805,0.59414 0.0305,0.0305 0.0609,0.0812 0.0813,0.12696 0.78204,1.01564 1.08673,1.10705 2.08206,1.26955 l 0.12188,0.0203 c 0.0965,0.0152 0.15234,0.0152 0.22343,0.0152 0.5129,0 0.81759,-0.15743 0.88869,-0.46212 0.13711,-0.57384 -0.82267,-1.234 -1.35588,-1.49807 -0.69571,-0.26406 -1.08165,-0.37578 -1.71135,-0.37578 m 2.5137,1.74689 c -0.0406,0 -0.19296,0.0355 -0.49258,0.0254 l -0.10664,-0.0254 c -0.8633,-0.13203 -1.04103,-0.16758 -1.70628,-1.03594 -0.0203,-0.0559 -0.066,-0.10157 -0.0965,-0.14727 0.46719,0.0102 0.76173,0.0914 1.39142,0.30977 0.60431,0.31992 0.98517,0.73633 1.01056,0.87344"
   id="path8"
   style="stroke-width:0.50782" />
	<path
   class="st0"
   d="m 411.16964,149.97185 c 1.67073,-2.9809 2.50863,-5.91102 1.21369,-10.62358 l -0.0407,-0.0863 c -0.0305,-0.0508 -0.0559,-0.10157 -0.0863,-0.14219 -0.0965,-0.17266 -0.22852,-0.40626 -0.65509,-0.40626 l -0.10156,0.0254 -4.94616,1.92971 c -0.49767,0.20312 -0.59415,0.37579 -0.59415,0.76173 -0.24376,3.10785 -0.4672,4.70749 -1.72659,7.82042 -0.0965,0.13203 -0.1168,0.29961 -0.0407,0.46719 0.11172,0.27423 0.43672,0.53829 0.78204,0.53829 l 4.97156,0.34532 0.0406,-0.005 c 0.066,-0.0203 0.14218,-0.0305 0.19296,-0.0355 0.3047,-0.0406 0.65001,-0.0914 0.99025,-0.58906 m -1.01056,-0.63478 -0.3504,0.1168 -4.12349,-0.24375 c 0.94454,-2.94028 1.42189,-4.87 1.42189,-7.27706 0,-0.0508 0,-0.0762 0.27931,-0.15235 l 3.82896,-1.51838 c -0.0152,0.0102 0.0355,0 0.0559,0 0,0 0.0305,0.15235 0.0508,0.28438 l 0.0203,0.0914 c 0.65509,3.64107 0.37578,5.69774 -1.18322,8.69895"
   id="path10"
   style="stroke-width:0.50782" />
	<path
   class="st0"
   d="m 366.6491,172.60537 c -0.92423,0 -1.70627,0.81759 -1.70627,1.7926 0,0.90392 0.79727,1.69612 1.70627,1.69612 0.91408,0 1.70627,-0.7922 1.70627,-1.69612 0,-0.97501 -0.77696,-1.7926 -1.70627,-1.7926 m 0,2.94028 c -0.60431,0 -1.14767,-0.54337 -1.14767,-1.1426 0,-0.67539 0.52305,-1.234 1.14767,-1.234 0.62461,0 1.14767,0.55861 1.14767,1.234 0.005,0.59923 -0.54844,1.1426 -1.14767,1.1426"
   id="path12"
   style="stroke-width:0.50782" />
	<path
   class="st0"
   d="m 390.30842,187.50988 c 0.46211,0 0.78711,-0.34532 0.78711,-0.86838 0,-0.33008 -0.29961,-0.78711 -0.78711,-0.78711 -0.41134,0 -0.77697,0.4875 -0.77697,0.78711 0,0.4672 0.36563,0.86838 0.77697,0.86838"
   id="path14"
   style="stroke-width:0.50782" />
	<path
   class="st0"
   d="m 399.02767,191.15094 c 0.5129,0 0.86838,-0.4875 0.86838,-0.93947 0,-0.42656 -0.40118,-0.78711 -0.86838,-0.78711 -0.33516,0 -0.70079,0.40117 -0.70079,0.78711 0,0.41642 0.32501,0.93947 0.70079,0.93947"
   id="path16"
   style="stroke-width:0.50782" />
	<path
   class="st0"
   d="m 381.33016,185.99657 c 0.89885,0 1.63518,-0.7668 1.63518,-1.70627 0,-0.94454 -0.73126,-1.70119 -1.63518,-1.70119 -0.96486,0 -1.77737,0.79219 -1.77737,1.70119 0,0.92423 0.81251,1.70627 1.77737,1.70627 m 0,-2.85902 c 0.57384,0 1.0715,0.53829 1.0715,1.15275 0,0.62462 -0.49766,1.14767 -1.0715,1.14767 -0.66524,0 -1.22384,-0.52305 -1.22384,-1.14767 0,-0.61446 0.5586,-1.15275 1.22384,-1.15275"
   id="path18"
   style="stroke-width:0.50782" />
	<path
   class="st0"
   d="m 381.24383,185.15359 c 0.49259,0 0.87853,-0.38086 0.87853,-0.86329 0,-0.45704 -0.36563,-0.78204 -0.87853,-0.78204 -0.51797,0 -0.86329,0.31993 -0.86329,0.78204 0,0.48751 0.39102,0.86329 0.86329,0.86329"
   id="path20"
   style="stroke-width:0.50782" />
	<path
   class="st0"
   d="m 373.90076,177.69373 c -0.96485,0 -1.78752,0.78711 -1.78752,1.70627 0,0.96993 0.78204,1.70627 1.78752,1.70627 0.86837,0 1.53362,-0.75157 1.53362,-1.70627 0,-0.91408 -0.71095,-1.70627 -1.53362,-1.70627 m 0,2.84378 c -0.71094,0 -1.22892,-0.47735 -1.22892,-1.14259 0,-0.62462 0.56368,-1.15275 1.22892,-1.15275 0.51798,0 0.99533,0.55352 0.99533,1.15275 0,0.63985 -0.43673,1.14259 -0.99533,1.14259"
   id="path22"
   style="stroke-width:0.50782" />
	<path
   class="st0"
   d="m 366.6491,173.61593 c -0.40118,0 -0.77696,0.38087 -0.77696,0.78204 0,0.39103 0.35547,0.85822 0.77696,0.85822 0.43165,0 0.69063,-0.33516 0.69063,-0.85822 0.005,-0.57891 -0.34531,-0.78204 -0.69063,-0.78204"
   id="path24"
   style="stroke-width:0.50782" />
	<path
   class="st0"
   d="m 373.81443,178.61796 c -0.51289,0 -0.86329,0.30976 -0.86329,0.78204 0,0.49766 0.37578,0.86329 0.86329,0.86329 0.49259,0 0.86838,-0.38086 0.86838,-0.86329 0.005,-0.47228 -0.34532,-0.78204 -0.86838,-0.78204"
   id="path26"
   style="stroke-width:0.50782" />
	<path
   class="st0"
   d="m 407.91959,192.87753 c 0.98518,0 1.77737,-0.80235 1.77737,-1.7926 0,-0.96486 -0.76172,-1.70628 -1.77737,-1.70628 -0.95469,0 -1.71135,0.75157 -1.71135,1.70628 0,0.96485 0.78204,1.7926 1.71135,1.7926 m 0,-2.94027 c 0.71603,0 1.22893,0.49258 1.22893,1.14767 0,0.6754 -0.54845,1.22892 -1.22893,1.22892 -0.61953,0 -1.14259,-0.56368 -1.14259,-1.22892 0,-0.72111 0.57891,-1.14767 1.14259,-1.14767"
   id="path28"
   style="stroke-width:0.50782" />
	<path
   class="st0"
   d="m 374.26639,164.20096 -0.0305,0.1625 0.51289,0.42149 c 0.61955,0.52813 0.90393,0.76681 1.818,0.99025 l 0.28438,-0.44688 c -0.0711,-0.0762 -0.13204,-0.26407 -0.21329,-0.48243 0.17774,0.2793 0.31993,0.54844 0.44688,0.81251 0.13204,0.26406 0.24884,0.51798 0.41134,0.75665 0.47735,0.49259 0.93947,0.60431 1.56408,0.76173 l 0.11172,0.0254 0.2336,-0.4875 c -0.0711,-0.0559 -0.12187,-0.15743 -0.17774,-0.26915 l 0.14727,0.20313 c 0.17266,0.24375 0.28438,0.4875 0.40626,0.74142 0.15742,0.33008 0.30977,0.69063 0.61954,1.04611 0.56368,0.55352 1.0004,0.65508 1.50315,0.76172 0.11171,0.0254 0.20312,0.0508 0.31484,0.0812 l 0.24375,-0.4875 c -0.13203,-0.0965 -0.26406,-0.37071 -0.41133,-0.64494 -0.24375,-0.46719 -0.53321,-1.05118 -1.04103,-1.37111 -0.55352,-0.37578 -1.01056,-0.55352 -1.40158,-0.55352 h -0.47735 c -0.0203,-0.0406 -0.0254,-0.066 -0.0355,-0.0914 -0.14727,-0.40627 -0.3504,-0.909 -0.80743,-1.19338 -0.48751,-0.32501 -0.94962,-0.52306 -1.42697,-0.62462 l -0.26407,0.39102 c -0.0254,-0.0762 -0.0407,-0.1625 -0.066,-0.23868 -0.17774,-0.63477 -0.38087,-1.2797 -0.75158,-1.53361 l -0.066,-0.0508 h -0.0914 c -0.72111,-0.005 -1.24416,0.50782 -1.35588,1.32034 m 6.43407,3.02152 c 0.38087,0.25391 0.63986,0.74142 0.85822,1.16798 0.0203,0.0609 0.0508,0.1168 0.0914,0.17774 -0.28945,-0.0812 -0.54336,-0.21328 -0.84806,-0.5129 -0.23867,-0.28945 -0.38086,-0.58399 -0.51797,-0.89884 -0.0508,-0.0762 -0.0813,-0.15742 -0.11172,-0.23359 0.15743,0.0711 0.33008,0.16758 0.52813,0.29961 m -2.72191,-1.82307 c 0.31992,0.19297 0.45196,0.56876 0.59415,0.92423 0.0254,0.0508 0.0407,0.10664 0.0609,0.16758 -0.28438,-0.0914 -0.50275,-0.20313 -0.71603,-0.42657 -0.11172,-0.17265 -0.22344,-0.40118 -0.34532,-0.65001 -0.0508,-0.11172 -0.0965,-0.22344 -0.1625,-0.33008 0.18789,0.0762 0.38594,0.18281 0.56876,0.31485 m -1.98558,-0.7922 c 0.0407,0.15743 0.0863,0.30977 0.13712,0.44688 -0.37579,-0.15235 -0.61447,-0.34532 -1.03088,-0.70079 l -0.26406,-0.21836 c 0.0711,-0.28946 0.24883,-0.65001 0.69063,-0.69572 0.18281,0.20313 0.35039,0.75666 0.46719,1.16799"
   id="path30"
   style="stroke-width:0.50782" />
	<path
   class="st0"
   d="m 382.82315,169.13696 c 0.1625,0.34024 0.31485,0.68048 0.61954,1.04104 0.56368,0.5586 1.00549,0.66016 1.51838,0.77696 0.0914,0.0102 0.20313,0.0355 0.30977,0.0609 l 0.23868,-0.4875 c -0.12695,-0.10156 -0.26407,-0.36055 -0.41133,-0.65001 -0.23868,-0.46211 -0.53322,-1.03595 -1.03088,-1.37619 -0.55352,-0.36563 -1.01564,-0.54337 -1.41174,-0.54337 h -0.55352 l 0.32501,0.43673 c 0.17265,0.23867 0.28945,0.48243 0.39609,0.74141 m 0.93947,-0.16758 c 0.38594,0.25391 0.61954,0.74142 0.84298,1.17307 0.0305,0.0559 0.0609,0.12187 0.10156,0.16758 -0.29961,-0.0813 -0.55352,-0.20313 -0.85313,-0.5129 -0.23868,-0.2793 -0.38087,-0.57384 -0.52306,-0.88869 -0.0406,-0.0914 -0.0762,-0.1625 -0.11172,-0.2539 0.15743,0.0863 0.34024,0.18281 0.54337,0.31484"
   id="path32"
   style="stroke-width:0.50782" />
	<path
   class="st0"
   d="m 399.12416,191.98884 c 0.96994,0 1.77229,-0.80235 1.77229,-1.77737 0,-0.93946 -0.81759,-1.71642 -1.77229,-1.71642 -0.91407,0 -1.72151,0.80235 -1.72151,1.71642 0,0.95978 0.77697,1.77737 1.72151,1.77737 m 0,-2.93519 c 0.65001,0 1.22385,0.52305 1.22385,1.15782 0,0.67033 -0.56368,1.23401 -1.22385,1.23401 -0.62462,0 -1.15783,-0.57384 -1.15783,-1.23401 -0.005,-0.6043 0.54337,-1.15782 1.15783,-1.15782"
   id="path34"
   style="stroke-width:0.50782" />
	<path
   class="st0"
   d="m 407.91959,191.94822 c 0.4672,0 0.77697,-0.35039 0.77697,-0.86837 0,-0.50782 -0.30469,-0.86838 -0.77697,-0.86838 -0.46719,0 -0.77696,0.36056 -0.77696,0.86838 0,0.52305 0.31485,0.86837 0.77696,0.86837"
   id="path36"
   style="stroke-width:0.50782" />
	<path
   class="st0"
   d="m 385.82437,170.6198 c 0.15742,0.33516 0.30977,0.69063 0.61446,1.03595 0.56368,0.56875 1.01056,0.66017 1.51838,0.77696 0.0914,0.0203 0.19297,0.0457 0.30977,0.066 l 0.24375,-0.48751 c -0.13203,-0.0965 -0.26406,-0.36563 -0.41133,-0.64493 -0.23868,-0.47227 -0.52813,-1.04611 -1.03596,-1.37111 -0.5586,-0.37071 -1.01563,-0.5586 -1.41173,-0.5586 h -0.53829 l 0.30469,0.43672 c 0.18282,0.24883 0.29454,0.48751 0.40626,0.7465 m 0.93439,-0.17266 c 0.38086,0.25899 0.63477,0.74142 0.84805,1.16798 0.0355,0.0609 0.0559,0.13204 0.0965,0.17774 -0.29961,-0.0813 -0.54337,-0.20313 -0.85314,-0.50274 -0.23867,-0.29961 -0.38086,-0.59415 -0.51797,-0.89884 -0.0457,-0.0812 -0.0914,-0.16758 -0.1168,-0.24883 0.1625,0.0813 0.34024,0.17773 0.54337,0.30469"
   id="path38"
   style="stroke-width:0.50782" />
	<path
   class="st0"
   d="m 370.9808,203.46557 0.0711,0.0406 c 5.90087,3.55473 12.00486,7.22119 16.49906,11.80681 l 0.33008,0.31992 0.30977,-0.34532 c 4.47897,-4.57545 10.60836,-8.26222 16.53969,-11.82712 l 0.0762,-0.0406 c 11.93884,-7.18056 24.27886,-14.59473 24.27886,-29.79377 l 0.16758,-67.18961 v -0.27423 l -0.64494,0.3047 c -6.55594,3.17387 -13.41151,4.78366 -20.37372,4.78366 -6.94189,0 -13.7162,-1.60979 -20.15536,-4.78366 l -0.2082,-0.0965 -0.19297,0.0965 c -6.50009,3.17387 -13.28964,4.78366 -20.19091,4.78366 -6.93174,0 -13.78222,-1.60979 -20.34833,-4.78366 l -0.65001,-0.3047 0.16758,67.48415 c 0,15.19904 12.35017,22.62336 24.32456,29.81917 m -23.58822,-95.87634 c 6.46454,3.02661 13.2287,4.55514 20.08934,4.55514 6.9876,0 13.84316,-1.60471 20.38388,-4.76843 6.51025,3.1688 13.36074,4.76843 20.36357,4.76843 6.86064,0 13.6248,-1.53361 20.12489,-4.55514 l -0.17266,66.04194 c 0,14.69122 -12.12673,21.97843 -23.85737,29.02697 -5.85515,3.5141 -11.91344,7.15518 -16.45843,11.69 -4.5399,-4.51451 -10.56264,-8.13019 -16.42796,-11.65446 -11.74079,-7.05869 -23.88276,-14.35098 -23.88276,-29.06251 z"
   id="path40"
   style="stroke-width:0.50782" />
	<path
   class="st0"
   d="m 432.234,101.26688 c -1.50315,0.65001 -3.01137,1.36095 -4.21998,1.92463 l -0.1879,0.0863 c -0.94454,0.44689 -1.92463,0.909 -2.87425,1.34572 -1.38635,0.46212 -2.97075,0.96486 -4.71765,1.48284 l -1.10704,0.34532 -0.80236,0.15234 c -1.39143,0.28438 -2.7016,0.54844 -4.08795,0.75157 -1.54377,0.15743 -3.29067,0.33516 -4.89538,0.33516 -1.72658,0 -3.30083,-0.0812 -4.82429,-0.1625 l -0.16758,-0.005 c -1.87893,-0.26914 -3.45317,-0.50781 -5.04264,-0.90392 -1.65042,-0.3961 -3.30591,-0.88868 -5.08836,-1.5133 -0.89376,-0.23359 -1.80275,-0.61446 -2.68636,-0.97501 l -0.27422,-0.1168 c -0.25899,-0.10156 -0.51798,-0.2082 -0.76173,-0.30977 l -2.61528,-1.25939 -3.86958,1.76213 c -2.10745,0.84298 -4.29107,1.53869 -6.3122,2.15823 -0.47227,0.0914 -0.95977,0.19805 -1.43713,0.29962 -0.72618,0.16758 -1.51838,0.34023 -2.36644,0.44688 -1.90432,0.30469 -3.9813,0.58399 -6.23094,0.58399 -1.234,0 -2.50355,0 -3.74771,-0.0863 -2.03128,-0.1625 -3.85943,-0.46719 -6.13954,-0.90899 -1.25432,-0.29454 -2.60004,-0.66017 -3.48872,-0.91408 -1.77229,-0.59415 -3.83404,-1.30002 -5.80946,-2.15823 l -5.59109,-2.65601 0.15742,73.27329 0.0863,2.28519 0.26407,2.21917 0.41133,2.21409 0.5129,2.05159 0.78204,1.88401 0.92931,1.96527 1.0258,1.78244 1.09689,1.7012 2.47308,3.15356 2.96567,2.80316 3.12816,2.53402 c 1.6555,1.21877 3.44302,2.468 4.97663,3.53442 2.51879,1.61995 5.1036,3.18911 7.5259,4.6364 l 0.0965,0.0609 c 3.11801,1.88401 6.34774,3.83911 9.40482,5.87547 1.35587,0.98009 2.84886,2.13284 4.32662,3.33638 l 1.41682,1.23907 3.40239,3.32115 3.41763,-3.32623 c 1.35079,-1.26446 2.83871,-2.40706 4.15396,-3.39731 l 3.07739,-2.17854 c 2.49339,-1.59963 5.07311,-3.16372 7.56143,-4.67194 l 0.33008,-0.19805 c 3.07231,-1.87386 6.24111,-3.80865 9.31342,-5.86024 l 1.07657,-0.78712 c 1.1883,-0.85822 2.52387,-1.83831 3.74263,-2.84887 l 3.03169,-2.69652 1.4422,-1.36604 1.36604,-1.61486 1.19845,-1.53362 1.09689,-1.71135 1.04103,-1.78752 0.83791,-1.96019 0.77696,-1.8637 0.58399,-2.06174 0.43672,-2.2141 0.24884,-2.21917 0.0863,-2.29535 0.17267,-72.98382 v -0.27422 z m -84.13555,3.16879 c 1.97034,0.8633 3.92037,1.53362 5.92117,2.20394 1.10705,0.325 2.44262,0.67032 3.55982,0.92931 2.23441,0.43672 4.15905,0.76173 6.27157,0.9293 1.27463,0.0914 2.56449,0.0914 3.80865,0.0914 2.32073,0 4.42819,-0.28947 6.3579,-0.59415 0.81251,-0.10665 1.54885,-0.26407 2.33089,-0.43165 l 0.10157,-0.0203 c 0.50782,-0.1168 0.95977,-0.21329 1.46252,-0.3047 1.96018,-0.60938 4.25045,-1.33048 6.4493,-2.20901 l 3.50904,-1.59455 2.2598,1.08673 c 0.18789,0.0812 0.3707,0.15235 0.54844,0.22852 0.14219,0.0609 0.27423,0.1168 0.42149,0.17266 l 0.11172,0.0508 c 0.90392,0.37071 1.83323,0.76172 2.75238,1.0004 1.83831,0.64493 3.51919,1.14259 5.13914,1.5133 1.73674,0.43673 3.43286,0.69063 5.17468,0.93439 l 0.19805,0.0152 c 1.45236,0.0711 3.10786,0.15743 4.88015,0.15743 1.55392,0 3.17895,-0.15743 4.75827,-0.31485 l 0.24375,-0.0203 c 1.38635,-0.21328 2.64574,-0.45704 4.22506,-0.78204 l 0.78712,-0.15235 1.62502,-0.49258 c 1.41174,-0.43165 2.87426,-0.87853 4.286,-1.37619 1.10197,-0.4875 2.14807,-0.98009 3.13833,-1.4422 1.12228,-0.53321 2.32581,-1.09689 3.54457,-1.64026 l -0.15742,71.84631 -0.0813,2.23948 -0.24883,2.14808 -0.41641,2.14807 -0.57892,1.97542 -0.7465,1.80784 -0.81758,1.9094 -0.98517,1.72659 -1.08674,1.65042 -1.14259,1.48283 -1.33049,1.56916 -1.38635,1.31525 -3.0266,2.67621 c -1.06134,0.88361 -2.24456,1.75198 -3.37192,2.58988 l -0.29962,0.21837 c -0.23359,0.1625 -0.46211,0.33008 -0.70079,0.49766 l -0.37578,0.27422 c -3.09263,2.06683 -6.2665,4.0067 -9.51654,5.97196 l -0.13711,0.0863 c -2.47308,1.50314 -5.0325,3.05707 -7.52081,4.67194 l -3.11801,2.18362 -0.12188,0.0965 c -1.37619,1.05626 -2.80317,2.15315 -4.11842,3.38716 l -2.79809,2.72191 -2.793,-2.72699 -1.44221,-1.25432 c -1.57424,-1.28986 -3.10278,-2.46292 -4.39772,-3.39223 -3.15863,-2.10238 -6.55595,-4.15396 -9.547,-5.9618 -2.19887,-1.32541 -4.93601,-2.97075 -7.49035,-4.60593 -1.45744,-1.02579 -3.28559,-2.30042 -4.91569,-3.51411 l -3.09262,-2.48832 -2.90473,-2.73714 -2.39183,-3.06215 -1.05626,-1.65042 -1.00548,-1.73166 -0.91408,-1.90433 -0.73126,-1.80784 -0.49766,-1.97033 -0.41134,-2.15824 -0.23867,-2.14807 -0.0914,-2.22933 -0.15742,-71.826 z"
   id="path42"
   style="stroke-width:0.50782" />
	<path
   class="st0"
   d="m 403.48126,177.37888 c -0.56368,-0.53321 -1.08674,-1.0258 -1.58948,-1.52346 l -0.35548,-0.20313 v -0.0152 l 0.47228,-2.143 0.24375,-0.54337 c 0.45196,-1.27462 0.18789,-2.21409 -0.11172,-3.29574 -0.0559,-0.19805 -0.0965,-0.39103 -0.14727,-0.60431 h -0.005 c 0.24883,-0.0203 0.49258,-0.0203 0.75157,-0.0203 0.85313,-0.0203 1.72658,-0.0305 2.65589,-0.70079 l 0.0609,-0.0609 c 2.03128,-2.51371 3.71724,-4.84968 5.48953,-7.59698 0.56368,-1.34572 0.30977,-2.66605 0.0863,-3.83403 -0.0863,-0.41134 -0.14219,-0.73127 -0.18281,-1.05119 6.22586,-10.02944 6.21063,-14.82833 -0.10157,-25.56872 0.0965,-0.12695 0.22344,-0.25899 0.35547,-0.3961 l 0.1168,-0.12695 c 0.46212,-0.47735 0.98517,-1.01564 1.04103,-1.64534 l 0.0102,-0.10664 -0.0508,-0.11172 c -1.03088,-1.98557 -6.9419,-7.71886 -9.19154,-9.45052 l -0.12188,-0.0609 -0.57383,-0.10156 -0.066,0.005 c -1.67073,0.16758 -3.55473,0.47228 -5.45906,0.89884 -2.5391,-1.09181 -5.36765,-1.67072 -8.17082,-1.67072 -7.2415,0 -13.96503,3.60044 -18.93659,10.15639 -1.83323,2.85902 -7.34307,12.93924 -1.09689,22.50656 0.77189,1.20861 1.84339,2.36137 2.96567,3.53951 l 0.0203,0.0203 c 2.38167,2.54417 4.63131,4.95632 3.8188,8.06417 -0.80743,0.26914 -1.81799,1.04103 -2.20394,2.17347 l -6.35282,4.14381 c -0.44688,0.10156 -1.61486,0.5586 -2.07698,1.50314 l -1.28986,0.61447 c -2.38167,1.09689 -6.88604,3.56997 -10.37476,7.82549 -0.60938,0.77697 -1.234,1.57932 -1.50822,2.75239 l -0.0965,0.41133 0.41134,0.0609 c 2.26487,0.3961 5.18484,4.03717 5.81453,6.10907 l 0.21329,0.67032 0.46211,-0.52813 c 3.04184,-3.4227 6.09384,-5.15437 9.89741,-5.63172 1.49299,1.15783 2.76253,2.18871 4.50944,3.6106 l 1.31525,1.06642 c 3.63598,2.77777 5.54031,3.28559 7.96768,3.28559 0.70588,0 1.45745,-0.0406 2.31567,-0.0914 l 0.52813,-0.0355 c 0.24883,-0.0203 0.51289,-0.0355 0.78712,-0.0508 4.56529,4.04732 11.9236,6.44931 19.68816,6.44931 h 0.005 c 4.44342,-0.16758 6.61181,-0.70587 7.06884,-1.77229 0.57384,-3.32114 -0.26914,-6.40869 -2.72191,-9.99389 -1.61487,-2.49339 -3.88482,-4.64655 -6.2868,-6.93174 m 5.75359,9.00364 c -0.12695,-0.0609 -0.26915,-0.10664 -0.41133,-0.13203 -3.75787,-0.41134 -6.29697,-3.40747 -7.56651,-8.92239 3.65122,3.27036 6.29188,6.26142 7.97784,9.05442 M 376.2265,166.81601 c 0.10664,0.0863 0.23359,0.20821 0.35547,0.36563 0.0457,0.0457 0.0914,0.0863 0.13711,0.12188 l -5.23054,4.31138 c -0.26407,-0.18789 -0.52305,-0.37071 -0.77696,-0.54844 z m -6.21064,3.78325 c -0.28438,-0.18789 -0.56368,-0.3707 -0.83282,-0.53828 l 5.70789,-3.99147 c 0.10664,0.0508 0.20821,0.10665 0.30977,0.15235 0.11172,0.0508 0.21329,0.10156 0.30977,0.15235 z m 7.36847,-2.81332 c 0.28438,0.16759 0.56875,0.28438 0.83282,0.39102 l -5.17976,4.57038 c -0.29961,-0.22344 -0.58907,-0.43673 -0.88361,-0.65001 z m 1.59962,0.76173 c 0.12188,0.0762 0.21329,0.15235 0.28946,0.23868 0.066,0.0711 0.13204,0.12695 0.19297,0.18281 l -4.96647,4.90554 c -0.27422,-0.21328 -0.55352,-0.42657 -0.82775,-0.63985 z m 1.1426,0.89376 c 0.36055,0.20313 0.72619,0.34532 1.06642,0.4672 0.49766,0.16758 0.90392,0.325 1.19846,0.63985 0.71602,0.68048 1.43712,0.89884 2.02112,1.07658 0.43672,0.13711 0.80743,0.25391 1.08673,0.53321 0.66017,0.60938 1.38127,0.80236 2.01604,0.98009 l 0.0355,0.0102 c 0.49767,0.13203 0.92423,0.24883 1.234,0.52813 0.69572,0.53829 1.40667,0.71603 1.97542,0.85314 0.45196,0.1168 0.84298,0.21328 1.16291,0.43672 0.57384,0.39103 1.14767,0.51798 1.65041,0.6297 l 0.0762,0.0203 c 0.43673,0.0914 0.77189,0.16758 1.05119,0.36055 0.75158,0.43673 1.50823,0.5383 2.17855,0.6297 l 0.17774,0.0305 c 0.16758,0.0254 0.31992,0.0508 0.47734,0.0762 -0.0508,3.66138 0.34025,6.18524 2.41215,8.7091 -5.51492,-1.45236 -9.28802,-3.27543 -14.24434,-6.08368 l -1.56408,-1.06134 c -0.29962,-0.15742 -0.67033,-0.3504 -1.07658,-0.3504 -0.23868,0 -0.45704,0.066 -0.63986,0.20313 -0.18789,0.12696 -0.3707,0.3047 -0.57383,0.53829 l -0.0559,0.0559 c -0.26407,0.25899 -0.52813,0.52306 -0.77696,0.56368 -0.0254,0.0102 -0.066,0.0152 -0.10665,0.0152 -0.29453,0 -0.63477,-0.22852 -1.01056,-0.6754 -0.75157,-0.87853 -2.57972,-2.50355 -4.77858,-4.26061 z m 8.72942,0.5383 c -0.3961,-0.0559 -0.64493,-0.25391 -0.97502,-0.53321 l -0.0407,-0.0305 c -0.48242,-0.38595 -1.07657,-0.88361 -2.25471,-1.03088 -0.33517,-0.0558 -0.56876,-0.2539 -0.84298,-0.49766 -0.36563,-0.325 -0.82268,-0.73634 -1.69105,-0.84298 -0.34531,-0.0559 -0.62461,-0.325 -0.98516,-0.67032 -0.005,-0.005 -0.0152,-0.0102 -0.0203,-0.0152 0.22852,-0.83282 0.86329,-3.4227 0.79728,-6.23094 -0.0914,-3.93052 -1.50823,-6.3122 -2.10238,-7.16026 -0.83282,-1.1883 -2.57972,-3.4938 -3.95591,-5.29655 1.01564,0.066 1.38634,-0.37579 1.63517,-0.67033 0.0152,-0.0254 0.0305,-0.0406 0.0508,-0.0609 0.42149,0.18789 0.82267,0.21836 1.03087,0.21836 h 0.11172 c 5.55555,10.3646 12.53807,17.5604 20.76475,21.40459 -0.55353,1.48283 -1.22893,2.85902 -2.11254,4.57038 -0.0203,-0.005 -0.0305,-0.0102 -0.0407,-0.0152 -0.0305,-0.0203 -0.0609,-0.0254 -0.0863,-0.0406 -0.37071,-0.17265 -0.52813,-0.23359 -1.66565,-0.41641 -0.33008,-0.0355 -0.43164,-0.0914 -0.58906,-0.2082 -0.32501,-0.20821 -0.71603,-0.47735 -2.08714,-0.6297 -0.42657,-0.0355 -0.69572,-0.18789 -1.02072,-0.35547 -0.325,-0.18282 -0.76681,-0.43673 -1.43713,-0.48243 -0.3504,-0.0305 -0.6297,-0.19805 -0.9547,-0.39102 -0.40626,-0.24883 -0.84806,-0.52306 -1.52854,-0.61446 m 1.89417,2.96058 c 0.0203,0.0559 0.066,0.1168 0.0914,0.17774 -0.29962,-0.0914 -0.5383,-0.20821 -0.84806,-0.51797 -0.24375,-0.2793 -0.38087,-0.584 -0.5129,-0.89885 -0.0407,-0.0762 -0.0914,-0.16758 -0.11172,-0.24375 0.15234,0.0762 0.33008,0.18282 0.52813,0.31485 0.38594,0.25391 0.64493,0.73634 0.85314,1.16798 m -9.42006,-14.3002 c -0.58906,-3.04183 -1.70119,-5.06296 -2.53909,-6.22586 -0.86837,-1.21369 -1.76721,-2.27503 -2.4223,-3.04184 l -0.29962,-0.34532 c -0.28438,-0.33008 -0.49258,-0.56876 -0.60938,-0.73634 -0.52305,-0.69571 -0.96994,-1.3508 -1.36604,-1.99065 0.21329,0.0609 0.44689,0.0813 0.68556,0.0609 0.57384,0.74142 4.01178,5.195 5.31687,7.0587 0.43673,0.61446 1.86878,2.91996 1.96526,6.73369 0.0508,2.3512 -0.42656,4.611 -0.67539,5.62664 -0.16251,-0.11172 -0.32501,-0.20313 -0.50275,-0.26915 0.27423,-1.04611 0.96994,-4.13365 0.44688,-6.8708 m -5.52507,-17.47914 c -0.12188,-0.59923 -0.0762,-0.76173 0.21328,-0.87346 0.12696,-0.0457 0.23868,-0.0609 0.32501,-0.0609 0.26914,0 0.47735,0.20313 0.85821,0.7008 l 0.28946,0.40625 0.31992,-0.38594 c 0.40626,-0.49259 0.83791,-0.93439 1.34573,-0.66524 0.12695,0.0558 0.2082,0.13711 0.24375,0.2539 0.0508,0.18282 -0.0355,0.48751 -0.26407,0.85822 l -0.46719,0.7922 0.88868,-0.19805 c 0.12696,-0.0305 0.24884,-0.0457 0.39102,-0.0457 0.30978,0 0.83791,0.0813 0.88869,0.62461 0.005,0.0609 0.0203,0.26915 -0.13711,0.45704 -0.15742,0.18789 -0.50782,0.30977 -0.96994,0.33008 l -0.65,0.0407 0.33008,0.57383 c 0.12695,0.19297 0.45703,0.84806 0.34023,1.29494 -0.0355,0.14219 -0.12187,0.25391 -0.26406,0.33516 -0.0559,0.0305 -0.12695,0.0508 -0.21329,0.0508 -0.3707,0 -0.78711,-0.31993 -0.82774,-0.43673 l -0.0407,-0.11172 -0.74142,0.25391 0.0407,0.11172 c 0.0508,0.14727 0.0203,0.30469 -0.0863,0.4418 -0.0508,0.0711 -0.28946,0.32501 -0.86837,0.25391 -0.44688,-0.0559 -0.47227,-0.17773 -0.42657,-0.8379 0,-0.0609 0.005,-0.12188 0.0102,-0.18282 0.005,-0.0711 0.0102,-0.13711 0.0102,-0.2082 v -0.41641 c 0.27423,0.13711 0.58908,0.18281 0.88361,0.18281 0.54844,0 1.00041,-0.16758 1.30002,-0.50782 0.31993,-0.34532 0.45703,-0.79727 0.41133,-1.34572 0,-0.70079 -0.89376,-1.36603 -1.82307,-1.25432 -0.62462,0 -1.52346,0.55861 -1.52346,1.46761 0,0.70586 0.24375,1.1172 0.57384,1.35587 l -0.37579,0.14727 c -0.0559,0.0254 -0.1168,0.0559 -0.18281,0.0914 l -0.10157,0.0508 c -0.23868,0.1168 -0.58399,0.29454 -0.84298,0.29454 -0.12695,0 -0.21328,-0.0406 -0.26406,-0.13204 -0.21329,-0.34531 -0.21329,-0.50273 -0.19298,-0.56875 0.0508,-0.16758 0.54337,-0.36055 0.78713,-0.45196 l 0.0762,-0.0305 -0.0305,-0.70079 -0.21837,-0.0558 c -0.68048,-0.1879 -0.89376,-0.30978 -0.87344,-0.68556 0.0254,-0.43673 0.13711,-0.45704 0.49258,-0.45704 0.0457,0 0.0914,0 0.14727,0.005 0.0609,0.005 0.12695,0.005 0.18281,0.005 0.22852,0.0152 0.48243,0.0305 0.73634,0 l 0.35547,-0.0305 v -0.35548 c 0.005,-0.1168 -0.0203,-0.2336 -0.0558,-0.38086 m 16.11819,-1.50823 -3.83912,-5.23561 c 0.53321,-0.40626 1.05119,-0.82268 1.55393,-1.22893 l 4.43834,5.71805 c -0.71095,0.25899 -1.43713,0.51289 -2.15315,0.74649 m 2.34613,0.76681 0.45196,1.13752 c 0,0.005 0.005,0.005 0.005,0.0102 -0.0762,0.0457 -0.19297,0.10156 -0.35547,0.15743 -0.28438,0.0711 -0.57384,0.14218 -0.87345,0.21836 l -0.26407,0.0711 c -0.66016,0.17774 -1.29494,0.34532 -1.97542,0.45704 -0.22343,0.0355 -0.38086,0.0609 -0.4875,0.0609 -0.0407,-0.12188 -0.0914,-0.25391 -0.13203,-0.38595 -0.0559,-0.14726 -0.10157,-0.29961 -0.15235,-0.45195 0.90899,-0.28946 1.6758,-0.54337 2.45277,-0.82267 l 0.51797,-0.17266 c 0.25899,-0.0863 0.52814,-0.18281 0.81252,-0.2793 m -3.13325,-0.50782 c -0.72111,0.21328 -1.44729,0.41641 -2.15823,0.59923 l -3.10278,-4.44342 c 0.53321,-0.38595 1.05118,-0.77697 1.57932,-1.17307 z m -2.98598,0.7922 c -0.68048,0.15234 -1.28986,0.28437 -1.86878,0.39102 l -2.33597,-3.64615 c 0.43673,-0.30469 0.86329,-0.60938 1.28479,-0.91915 z m -2.72191,0.52813 c -0.59415,0.0914 -1.13244,0.17266 -1.61995,0.22852 l -1.63518,-2.75746 c 0.38087,-0.26407 0.76173,-0.53321 1.12736,-0.7922 z m 5.10358,11.95407 -3.28051,3.03676 c -0.52813,-0.64493 -1.00548,-1.26447 -1.46252,-1.87893 l 3.06215,-2.78793 c 0.62462,0.6297 1.15783,1.14767 1.68088,1.6301 m -1.07149,-2.95043 0.0508,-0.066 c 0.38086,-0.50783 0.71095,-0.94963 0.93947,-1.49808 0.0305,0.0152 0.0711,0.0254 0.11172,0.0355 0.0559,0.0152 0.10664,0.0254 0.1625,0.0406 l 0.0559,0.0102 c 0.58907,0.28946 1.17814,0.52305 1.75706,0.74649 l 0.0914,0.0355 c 0.54845,0.21328 1.04103,0.40118 1.52346,0.6297 0.0609,0.0355 0.13203,0.0812 0.13203,0.0812 0,0.0203 -0.0305,0.0863 -0.0508,0.14219 l -0.24883,0.45195 c -0.50275,0.90393 -0.7465,1.32034 -1.48284,2.14808 -1.10196,-0.71094 -2.12268,-1.64025 -3.04183,-2.75746 m -4.13874,3.47349 c -0.29453,-0.40626 -0.57891,-0.82267 -0.87344,-1.24924 l 2.70159,-2.69144 c 0.36563,0.39609 0.7465,0.80743 1.15276,1.21877 z m -1.32541,-1.91956 c -0.28438,-0.43165 -0.57383,-0.87345 -0.85313,-1.31018 l 2.39691,-2.468 0.0863,0.10157 c 0.325,0.35547 0.64493,0.71602 0.97501,1.07149 z m -1.2797,-1.99065 c -0.24375,-0.3961 -0.48751,-0.79728 -0.73126,-1.20862 l 2.22933,-2.04143 0.29961,0.33516 c 0.16758,0.17774 0.34024,0.36563 0.50782,0.55353 z m -1.77737,-5.4032 c 0.62462,-0.0355 1.15275,-0.0457 1.7469,-0.0457 -0.53829,0.85314 -1.43713,1.69104 -1.9094,2.10238 l -0.0711,-0.12696 c 0.34024,-0.52306 0.41641,-1.15275 0.2336,-1.92971 m 2.48324,1.28986 c 0.0559,0.0559 0.11172,0.12188 0.1625,0.17773 l 0.0863,0.10157 -2.0973,1.93479 -0.0508,-0.0813 c -0.0355,-0.066 -0.0762,-0.12696 -0.1168,-0.19297 z m -0.48243,-4.14889 c -0.066,0.005 -0.12695,0.0152 -0.19297,0.0203 -0.21329,0.0203 -0.42149,0.0406 -0.6297,0.0508 -0.21836,-0.56368 -0.62462,-0.909 -1.20353,-1.0258 0.0305,-0.30977 -0.0406,-0.59923 -0.22344,-0.85314 l 0.83282,-0.58399 z m 18.09361,28.00625 c -0.0762,0 -0.14727,0.0254 -0.2082,0.066 0.0813,-0.21329 0.17265,-0.42657 0.25391,-0.65509 l 0.0762,0.0457 v 0.0355 c 0.0609,0.24375 0.12188,0.47227 0.18282,0.70079 -0.0559,-0.10156 -0.15235,-0.19297 -0.3047,-0.19297 m 0.17266,2.16332 c -0.28946,-0.32501 -0.38086,-0.44689 -0.38086,-0.87853 0.066,-0.20821 0.1168,-0.36056 0.1625,-0.47228 0.15235,0.54337 0.22851,0.98517 0.21836,1.35081 m -0.34024,0.44688 c 0.0914,0.0965 0.19298,0.2082 0.28946,0.325 l 0.29453,0.33008 -0.18789,0.44688 -0.0203,0.0813 v -0.005 l -0.0508,-0.0863 c -0.0609,-0.11172 -0.1168,-0.20313 -0.17774,-0.30977 -0.17774,-0.33008 -0.36563,-0.66525 -0.70587,-1.00549 l -0.36563,-0.36563 c 0.1168,-0.22852 0.21836,-0.45703 0.33008,-0.68555 0.0152,0.6297 0.2336,0.88868 0.59415,1.27463 m -4.18443,2.468 c -0.21836,-0.4418 -0.47227,-0.92931 -0.92931,-1.28986 -0.60938,-0.3504 -1.01564,-0.55861 -1.49807,-0.55861 h -0.60938 l 0.39102,0.46212 c 0.24375,0.2793 0.39102,0.57892 0.53321,0.86329 0.15235,0.28438 0.28438,0.57384 0.50782,0.84299 0.30469,0.34023 0.86329,0.53828 1.45744,0.74649 0.12696,0.0406 0.22852,0.0863 0.34532,0.13711 -0.59415,-0.0914 -1.19845,-0.18281 -1.75198,-0.50782 -0.27422,-0.18282 -0.56368,-0.2793 -0.86837,-0.36563 l 0.30977,-0.64493 -0.0762,-0.0609 c -0.10156,-0.0711 -0.23868,-0.33008 -0.35548,-0.56876 l -0.0609,-0.12695 c -0.16758,-0.30977 -0.36056,-0.6754 -0.6297,-0.97502 0.0863,0.0203 0.17774,0.0305 0.26914,0.0355 1.17814,0.12696 1.48792,0.33516 1.7469,0.5129 0.19805,0.13203 0.43165,0.28438 0.92423,0.31992 1.06135,0.17774 1.1426,0.21837 1.42698,0.3504 0.11679,0.0559 0.25391,0.1168 0.48242,0.21328 l 0.34025,0.12696 0.33008,-0.64493 c 0.36563,-0.70587 0.68048,-1.31525 0.96486,-1.89924 l -0.0813,0.49258 c -0.0203,0.12188 -0.0457,0.25899 -0.0762,0.38086 -0.0965,0.43673 -0.1625,0.84806 -0.0965,1.16799 0.0711,0.3961 0.31993,0.74141 0.54337,1.05118 0.0914,0.12188 0.17266,0.23868 0.23868,0.35548 l 0.29453,0.47735 -0.0355,0.15235 0.11679,0.36054 -0.49766,0.29962 -1.04611,0.18281 -0.83282,0.0812 -0.14727,-0.49766 -0.26407,-0.066 c -0.33515,-0.0965 -0.69063,-0.14218 -1.06134,-0.19296 -0.0203,-0.005 -0.0457,-0.005 -0.0559,-0.0102 l 0.24884,-0.48751 c -0.17774,-0.10663 -0.33009,-0.40625 -0.49767,-0.71602 m -0.41641,0.38087 c -0.33008,-0.12696 -0.62462,-0.26407 -0.75665,-0.42657 -0.18789,-0.21329 -0.31993,-0.45704 -0.45196,-0.72618 -0.0457,-0.11172 -0.10665,-0.2336 -0.18281,-0.35548 0.16757,0.0711 0.34023,0.17266 0.57891,0.30469 0.325,0.24883 0.53828,0.68048 0.74141,1.07658 0.0152,0.0406 0.0457,0.0863 0.0711,0.12696 m 4.01685,-2.23441 c 0.0914,0.14726 0.1625,0.28946 0.25899,0.43164 0.0407,0.0863 0.0813,0.15743 0.13203,0.24884 -0.0254,0.13711 -0.0305,0.2793 -0.0559,0.41641 -0.0152,0.12695 -0.0203,0.24883 -0.0407,0.35547 -0.15235,-0.22852 -0.30977,-0.46211 -0.35547,-0.71602 -0.0355,-0.16758 0,-0.44688 0.0609,-0.73634 m -7.67315,0.11172 c 0.33009,0.22344 0.56368,0.65001 0.76173,1.04103 -0.15743,-0.0762 -0.31993,-0.19297 -0.52813,-0.38086 -0.17774,-0.22852 -0.29962,-0.47228 -0.43673,-0.72619 l -0.0355,-0.0762 c 0.0813,0.0355 0.15742,0.0914 0.23867,0.14219 m 6.32744,4.76843 c 0.35039,2.73714 0.7465,5.82469 4.82428,8.79543 l -0.25391,-0.0355 -1.09689,-0.24883 c -0.35547,-0.16758 -0.70079,-0.69571 -1.07149,-1.25431 l -0.0254,-0.0406 c -0.21836,-0.33516 -0.43165,-0.63986 -0.63477,-0.89884 -1.3508,-1.89925 -1.93987,-4.02194 -1.74182,-6.31728 m 10.15682,-16.87945 c -0.38087,0.5129 -0.76681,1.06642 -1.21877,1.73674 l -0.0559,0.0711 c -0.91408,1.3254 -1.85354,2.69651 -3.25512,4.2149 -0.60939,0.38086 -1.21877,0.56876 -1.85862,0.56876 -1.05119,0 -2.10238,-0.5129 -2.99106,-1.02072 -4.3774,-2.00589 -8.28762,-5.10867 -11.96423,-9.49623 l 3.377,-3.12309 c 2.09222,1.84339 4.20475,3.32114 6.46455,4.50944 2.42737,1.17306 5.30671,2.48832 8.30284,3.31098 0.36563,0.0355 0.65509,0.0508 0.92424,0.0508 0.92423,0 1.57424,-0.22852 2.05159,-0.72618 0.52813,-0.54845 0.80743,-1.40158 0.86837,-2.65082 0.1168,0.85821 -0.0965,1.61994 -0.64493,2.55433 m -14.12754,-5.96688 c 0.93946,-1.17814 1.7215,-2.3766 2.52894,-3.87466 l 3.13325,0.53321 c -0.27423,0.4418 -0.51798,0.81759 -0.72619,1.15275 -0.83282,1.31525 -1.25939,1.99065 -2.63558,3.44809 l -0.0407,-0.0203 c -0.87853,-0.3707 -1.56916,-0.67032 -2.2598,-1.23908 m 5.26609,2.96059 c 1.36604,-1.61995 2.7016,-3.56489 3.68677,-4.99694 l 0.12695,-0.1879 c 0.15743,-0.22852 0.30977,-0.44688 0.45197,-0.65508 l 4.05747,0.51289 c -0.0152,0.0305 -0.0355,0.0559 -0.0508,0.0762 l -0.0762,0.11172 c -1.49299,2.62035 -2.88949,4.64655 -4.50436,6.56104 -1.41682,-0.42657 -2.49339,-0.80236 -3.69185,-1.4219 m 10.03452,-3.95591 c -1.01564,1.83322 -2.48324,3.85942 -4.35201,6.02274 -0.005,0.005 -0.0152,0.005 -0.0203,0.005 -0.10156,0.005 -0.31993,-0.0305 -0.60938,-0.13712 1.68596,-2.24456 3.16879,-4.43834 4.6567,-6.91142 0.52305,-1.06642 -0.0508,-1.54377 -0.33516,-1.71135 l -0.14219,-0.0508 -4.60592,-0.50274 c -0.10664,-0.0152 -0.22344,-0.0254 -0.325,-0.0254 -0.5383,0 -0.91916,0.21329 -1.10198,0.41134 l -0.35547,0.55352 c -1.53869,2.37151 -2.40199,3.69185 -4.13365,5.58094 l -0.37579,-0.19805 c 1.68597,-1.89417 2.5391,-3.26021 3.49888,-5.08836 0.24376,-0.47735 0.3961,-0.81758 0.24883,-1.16798 -0.12695,-0.29453 -0.42149,-0.41133 -0.68048,-0.47735 l -3.75278,-0.52306 c -0.20313,-0.0305 -0.36056,-0.0406 -0.50782,-0.0406 -0.45704,0 -0.73126,0.16758 -0.87853,0.52306 -0.12696,0.21328 -0.24883,0.43165 -0.36563,0.63477 -0.0813,0.14727 -0.15742,0.28438 -0.24375,0.43673 -0.59923,1.0715 -1.00549,1.7926 -2.07699,2.85394 l -0.24883,-0.19805 c 1.06642,-1.26447 1.54885,-2.20901 2.00589,-3.12309 l 0.0508,-0.0914 c 0.14218,-0.3047 0.2539,-0.63478 0.11172,-0.96486 -0.14219,-0.30977 -0.47228,-0.52305 -1.02072,-0.6754 -0.81759,-0.38086 -1.6301,-0.69571 -2.35121,-0.96486 -0.59415,-0.22851 -1.15274,-0.45196 -1.73674,-0.70587 -0.17773,-0.0559 -0.28946,-0.0762 -0.41641,-0.0762 -0.45196,0 -0.63985,0.30977 -0.80743,0.58399 l -0.92424,1.49807 -0.66524,-0.66524 c 0.14727,-0.20313 -3.3313,-3.93053 -3.37192,-4.59069 -0.0559,-0.81759 4.33678,-1.92464 4.33678,-1.92464 l 0.26914,-0.0508 0.0965,0.21836 c 0.0965,0.21836 0.17774,0.41134 0.26914,0.61954 l 0.20313,0.47735 c 0.12695,0.25391 0.35547,0.59415 0.82775,0.59415 0.0863,0 0.19296,-0.0152 0.28945,-0.0406 l 4.52975,-0.91408 c 0.98009,-0.29961 1.07658,-0.61446 1.06135,-1.25939 l -0.0152,-0.23867 -0.0203,-0.0609 c -0.19297,-0.5129 -0.39102,-1.04103 -0.68048,-1.54885 0.26915,-0.0863 0.53321,-0.18281 0.82775,-0.29961 l 1.09181,1.884 c 0.14727,0.29454 0.30469,0.60431 0.7922,0.60431 0.21328,0 0.51289,-0.0609 0.98517,-0.17774 1.70119,-0.50782 2.83363,-0.86837 4.24537,-1.53869 0.42657,-0.15235 0.68048,-0.34532 0.7922,-0.61446 0.0863,-0.22852 0.0609,-0.47227 -0.0863,-0.74142 -0.34024,-0.88868 -0.82775,-1.74182 -1.55901,-2.7473 l 0.34532,-0.22344 c 0.53321,0.80743 1.00548,1.52854 1.44221,2.24456 l 0.24883,0.38087 c 0.22344,0.34531 0.4418,0.70079 0.66524,1.04103 l 0.0203,0.0457 c 0.13204,0.2793 0.28438,0.58907 0.71603,0.58907 0.19805,0 0.45196,-0.066 0.77696,-0.21836 l 3.53443,-1.76214 c 0.62969,-0.36055 1.05119,-0.68048 0.78204,-1.49299 -0.37071,-0.99532 -1.26447,-2.31058 -2.12776,-3.59028 l -0.21329,-0.31485 c -0.2082,-0.30977 -0.41641,-0.61446 -0.6043,-0.89884 l 1.29494,-1.01564 c 5.46413,9.24232 6.31219,13.85332 0.69571,22.76048 m -12.50252,-14.87912 c 0.73126,-0.33008 1.54885,-0.71602 2.52895,-1.22384 0.17265,-0.0863 0.33008,-0.16758 0.4875,-0.23868 0.23868,-0.1168 0.46212,-0.22852 0.66524,-0.31993 0.80744,0.95978 1.2594,1.84847 1.2594,2.06175 -1.29494,0.71095 -2.45785,1.03088 -3.8442,1.41174 l -0.22851,0.066 c -0.0457,-0.0813 -0.11172,-0.21329 -0.15743,-0.33008 l -0.0762,-0.15743 c -0.14219,-0.33008 -0.33008,-0.76681 -0.63478,-1.26955 m 6.35282,-3.79341 c 0.50783,-0.37579 1.04104,-0.72619 1.55901,-1.0715 l 0.30469,-0.20313 c 0.34024,-0.21328 0.67033,-0.4418 0.99533,-0.65508 l 0.24883,-0.16758 c 0.0102,-0.0102 0.0203,-0.0152 0.0254,-0.0152 1.00548,1.234 1.92463,2.66605 2.66605,4.13873 l 0.0102,0.0254 -3.1891,1.64026 c -0.0711,0.0254 -0.12188,0.0508 -0.16758,0.0711 -0.71603,-1.23908 -1.41174,-2.35628 -2.45277,-3.76295 m -2.24456,-15.51389 c 0.066,0 0.12187,0.0152 0.18281,0.0355 2.92504,1.68089 5.98719,5.29148 8.01847,7.68839 l 0.63986,0.75157 v 0.005 c -0.0203,0.0254 -0.0711,0.0813 -0.13204,0.13712 l -0.0863,0.0863 c -2.55941,2.54417 -7.52081,5.94656 -10.2478,7.73916 -1.58947,0.89885 -3.40747,1.75198 -5.41335,2.54418 l -4.58054,-5.92625 c 4.5653,-3.79341 7.9423,-7.663 11.27868,-12.92401 0.0508,-0.0609 0.17266,-0.13712 0.34024,-0.13712 m -15.61546,-0.62461 c 0.82775,-0.11172 1.65549,-0.16758 2.47817,-0.16758 3.51411,0 6.8454,0.95978 9.90755,2.85902 -4.56529,6.66768 -9.83646,10.93844 -17.96158,16.47875 -0.10664,0.0762 -0.26406,0.19805 -0.42149,0.34532 l -0.0762,0.0609 c -0.22344,0.1879 -0.47227,0.40118 -0.62462,0.31993 -0.27422,-0.15742 -0.53829,-0.24375 -0.80235,-0.24375 -0.47735,0 -0.85822,0.24375 -1.11213,0.48242 -0.31485,-0.3707 -0.82774,-0.57891 -1.43712,-0.57891 -0.18282,0 -0.36563,0.0152 -0.54337,0.0609 -0.75157,0.16758 -1.3965,0.99025 -1.52346,1.65041 -0.005,0.0254 -0.0102,0.0508 -0.0152,0.0812 -0.28946,0.0203 -0.59923,0.13712 -0.87853,0.33517 -0.31993,-1.40159 -0.48243,-4.86492 3.38208,-9.9939 l 0.066,-0.0965 -0.64493,-0.48751 -0.066,0.0965 c -4.73288,6.31219 -3.69185,10.27319 -3.37192,11.14156 -0.1625,0.25899 -0.24884,0.5129 -0.25899,0.76173 -0.005,0.18789 0,0.36563 0.0203,0.52813 -0.53322,-1.71643 -0.63986,-3.37192 -0.32501,-4.94616 1.20861,-6.05829 4.23014,-8.67356 5.36257,-9.65365 l 0.16758,-0.14219 -0.49766,-0.59923 -0.2082,0.15235 c -1.1883,1.04103 -4.33678,3.80357 -5.60126,10.08022 -0.91407,4.58561 1.59456,8.60246 3.55474,11.23296 0.10157,0.1422 0.26407,0.33517 0.48243,0.584 l 0.21837,0.25391 c 0.60938,0.70587 1.62502,1.87893 2.61019,3.28559 0.78712,1.09182 1.84338,3.00122 2.40706,5.90595 0.48751,2.50355 -0.15234,5.43874 -0.41133,6.46454 -0.15235,-0.0711 -0.29962,-0.18282 -0.46212,-0.3504 0.22344,-0.81251 0.67032,-2.82855 0.54337,-5.28132 -0.19805,-3.82388 -1.86878,-5.89071 -4.39772,-9.03411 -0.40625,-0.49767 -0.86837,-1.06643 -1.33556,-1.67073 -2.52387,-3.2145 -3.68169,-6.27665 -3.73248,-9.91771 -0.0407,-2.43246 1.31525,-5.81454 3.82896,-9.5267 0.6297,-0.93439 3.70201,-4.1235 4.58054,-4.67702 l 0.10156,-0.066 -0.43165,-0.66017 -0.0914,0.066 c -0.96993,0.59923 -4.10318,3.85435 -4.81413,4.90046 -1.84846,2.74223 -4.02701,6.70322 -3.96099,9.98882 0.0711,3.83911 1.27463,7.04345 3.90514,10.37983 0.47226,0.61446 0.92422,1.17814 1.34572,1.68596 l 0.0254,0.0254 c 2.41722,3.00121 4.01177,4.98171 4.19459,8.5466 0.0965,1.96019 -0.18789,3.62076 -0.3961,4.54499 -0.17774,-0.17266 -0.34532,-0.30977 -0.52814,-0.42657 0.38087,-1.05119 1.33049,-4.27076 -0.14218,-7.1501 -1.19338,-2.33597 -1.53362,-2.77777 -3.17388,-4.90046 l -0.86837,-1.15275 c -0.41133,-0.52813 -0.78712,-1.0004 -1.17306,-1.45744 -2.08206,-2.53402 -4.24029,-5.15945 -3.66138,-10.49663 0.64493,-6.01258 7.12979,-14.56934 12.599,-16.64632 l 0.11173,-0.0407 -0.28946,-0.73634 -0.10664,0.0406 c -5.7993,2.19886 -12.40096,10.93336 -13.08652,17.30142 -0.62969,5.64695 1.63519,8.39933 3.81881,11.0603 l 0.0254,0.0355 c 0.38595,0.46212 0.76173,0.93439 1.1426,1.41682 l 0.87852,1.16291 c 1.5844,2.05667 1.90941,2.48831 3.09263,4.77858 1.28986,2.52894 0.46211,5.4489 0.1168,6.44423 -0.0863,-0.0254 -0.16758,-0.066 -0.26407,-0.12695 0.63477,-1.48284 0.92423,-4.58054 -0.38087,-7.04854 -0.7922,-1.54885 -2.48831,-3.48364 -4.12857,-5.36257 l -0.0559,-0.061 c -1.4219,-1.59455 -2.64574,-2.99613 -3.10786,-3.88481 -0.70586,-1.34572 -2.84379,-5.40828 -0.51289,-12.50253 2.1887,-6.65751 8.84113,-14.08691 16.86468,-14.73692 l 0.1168,-0.0102 z m -13.88378,33.64813 c -2.4477,-2.77778 -3.92037,-4.45866 -4.99187,-9.11029 -0.87853,-5.9618 0.99533,-12.14196 5.14421,-16.94086 1.40158,-1.60979 2.99614,-3.00629 4.72272,-4.14889 -4.13365,3.02661 -7.2669,7.55128 -8.6634,11.77126 -2.41722,7.34815 -0.17773,11.66969 0.56368,13.10683 0.51798,0.99025 1.80784,2.45277 3.17895,4.00669 l 0.20821,0.24375 c 1.49299,1.70628 3.18402,3.64107 3.91021,5.04773 1.11212,2.143 0.89376,4.73288 0.44688,6.09384 -0.0355,-0.0457 -0.0711,-0.0914 -0.10664,-0.13203 -0.0559,-0.0762 -0.1168,-0.14727 -0.17266,-0.21837 l -0.0406,-0.0457 c 0.96485,-3.02661 -0.26407,-5.82469 -4.19967,-9.67396 m 1.53362,11.62907 c 0.28438,-0.97502 1.18321,-1.61487 1.78752,-1.79769 l -0.005,0.0355 0.16758,0.1625 c 0.0965,0.11172 0.20821,0.24375 0.33008,0.40626 0.3504,0.43672 0.77697,0.98516 1.45745,1.13243 0.53828,0.16758 0.85313,0.52814 1.19337,0.92931 0.37071,0.42149 0.78204,0.909 1.51838,1.01056 0.47228,0.0965 0.82267,0.43165 1.18323,0.78205 0.43164,0.43164 0.83282,0.7922 1.42189,0.88868 0.63477,0.0813 0.95977,0.37071 1.26955,0.66017 0.31484,0.27422 0.67032,0.58399 1.25431,0.69063 0.97501,0.12188 1.43205,0.50274 1.87893,0.86837 l 0.0152,0.0203 c 0.37579,0.29961 0.76173,0.60938 1.35588,0.69571 h -0.46212 l 0.31485,0.44688 c 0.16251,0.24376 0.27423,0.47735 0.39103,0.73634 0.1625,0.33008 0.30976,0.68048 0.63477,1.04611 0.55352,0.5586 0.99025,0.65001 1.49806,0.77188 0.0914,0.0152 0.20822,0.0457 0.31993,0.066 l 0.24375,-0.48243 c -0.13203,-0.0914 -0.26406,-0.3707 -0.41641,-0.64493 -0.19805,-0.38086 -0.43672,-0.82266 -0.78204,-1.16798 0.10664,0.0559 0.21836,0.11172 0.34532,0.15234 l 0.43672,0.60431 c 0.13204,0.18281 0.22853,0.38086 0.33009,0.57891 l 0.0609,0.13203 c 0.15742,0.33517 0.325,0.7008 0.64493,1.07658 0.34531,0.36056 0.66524,0.53829 0.97501,0.64494 -0.29453,-0.0762 -0.59923,-0.19805 -0.88868,-0.40118 -0.44181,-0.29961 -0.94455,-0.42657 -1.4219,-0.54844 -0.55352,-0.13204 -1.10705,-0.26915 -1.65041,-0.69064 -0.4418,-0.38594 -0.96994,-0.53321 -1.53362,-0.68556 l -0.0305,-0.005 c -0.54337,-0.14726 -1.15783,-0.30977 -1.68089,-0.79219 -0.41133,-0.41134 -0.92422,-0.56368 -1.43205,-0.71603 -0.56368,-0.1879 -1.10196,-0.35548 -1.66564,-0.87853 -0.4215,-0.45704 -1.00041,-0.66016 -1.50315,-0.83282 l -0.0762,-0.0254 c -0.52306,-0.19805 -1.06643,-0.40117 -1.51838,-0.8836 -0.38087,-0.42149 -0.86837,-0.62462 -1.3508,-0.81759 -0.49259,-0.19805 -0.93439,-0.38595 -1.33049,-0.77696 -0.45704,-0.584 -1.02072,-0.85822 -1.62502,-1.15783 -0.53829,-0.25899 -1.10197,-0.52814 -1.64534,-1.10197 l -0.0203,-0.0254 z m -5.30164,4.20982 c 1.97541,-1.37111 3.68169,-2.56957 4.95124,-3.32114 0.17773,0.1625 0.36563,0.31484 0.58907,0.46211 l -5.6825,3.98131 c -0.30977,-0.18789 -0.56876,-0.34024 -0.79728,-0.46212 z m -1.41682,12.86307 c -4.12857,0.72618 -6.08875,2.33597 -8.5923,4.69225 l -0.27931,0.26407 -0.14727,-0.3504 c -0.64493,-1.55901 -2.01096,-3.74263 -4.80397,-5.26609 l -0.21328,-0.1168 0.0965,-0.21836 c 0.35548,-0.80235 1.19338,-1.78752 1.98558,-2.05159 4.48404,-1.32033 8.3384,-0.50274 12.05056,2.59496 l 0.43672,0.36055 z m 39.34079,13.38104 -0.066,0.005 c -0.0914,0.0152 -0.17774,0.0203 -0.25899,0.0254 -0.16758,0.0152 -0.30469,0.0305 -0.39102,0.0457 -5.39812,-0.0863 -13.01034,-1.19846 -18.60651,-6.0329 -0.7211,-0.50782 -0.96486,-0.67032 -1.25939,-0.67032 h -0.005 -0.005 c -1.39142,0.20313 -2.54925,0.30977 -3.52934,0.30977 -2.89457,0 -4.5653,-0.87853 -7.21104,-2.83363 -1.38635,-1.01564 -2.66605,-2.10237 -3.91021,-3.15356 l -0.0355,-0.0305 c -3.52426,-3.02152 -6.86064,-5.88055 -11.74587,-5.88055 -1.01563,0 -2.06682,0.12696 -3.13832,0.36055 0.20313,-0.18789 0.45196,-0.36563 0.74142,-0.52305 0.69063,-0.25391 1.5133,-0.39102 2.38167,-0.39102 3.32114,0 6.83525,1.81799 8.2673,2.95043 0.48751,0.40118 0.95978,0.80236 1.41174,1.19338 l 0.38595,0.33516 c 3.86958,3.30082 6.93173,5.90594 9.85677,7.33291 0.87853,0.25391 1.76214,0.37579 2.7727,0.37579 1.32033,0 2.5391,-0.21836 3.51919,-0.3961 l 0.19297,-0.0355 c 0.14219,-0.0254 0.26914,-0.0508 0.40118,-0.0711 0.74649,0.40625 1.46252,0.92423 2.22932,1.4676 0.61447,0.4418 1.24924,0.89376 1.92464,1.31017 4.96648,3.30083 11.53258,3.79849 15.00099,3.79849 2.48832,0 4.286,-0.22852 5.30164,-0.40625 -0.8633,0.54844 -3.08754,0.79219 -4.22506,0.91407 m 4.29107,-5.02741 c 0.26407,0.87853 0.39611,1.73166 0.40118,2.60003 -0.21836,0.21329 -2.10745,0.68048 -5.97196,0.68048 -1.70627,0 -3.35161,-0.0965 -4.74811,-0.26914 -5.845,-0.8633 -8.49074,-2.69652 -12.1572,-5.23054 l -0.34024,-0.23868 c -0.43164,-0.29453 -0.86837,-0.6043 -1.33048,-0.91408 l -0.1422,-0.11171 -0.17265,0.0457 c -1.37112,0.31485 -2.60512,0.57384 -3.8442,0.57384 -0.87345,0 -1.71135,-0.13711 -2.47308,-0.3961 -2.73207,-1.20354 -5.81961,-3.90006 -8.55168,-6.27157 l -0.0863,-0.0711 c -0.99533,-0.85821 -1.92972,-1.67073 -2.84379,-2.40199 -3.27544,-2.19378 -6.1497,-3.17387 -9.30326,-3.17387 -0.12187,0 -0.24883,0 -0.38086,0.005 1.7469,-1.43205 4.02193,-2.7016 6.15477,-3.42779 2.72699,0.0863 8.93255,5.17977 13.40644,9.95327 0.81759,0.71602 1.50315,1.03595 2.2141,1.03595 0.47734,0 0.98009,-0.15234 1.53869,-0.46719 0.47735,-0.26915 0.75665,-0.60431 0.95977,-0.85314 l 0.0305,-0.0406 c 0.066,-0.0965 0.15235,-0.18789 0.1879,-0.22344 0.0254,0.005 0.0559,0.0203 0.0965,0.0508 2.60003,1.79769 5.06804,3.27545 7.53604,4.50437 -0.18789,-0.0762 -0.3961,-0.12696 -0.60938,-0.12696 -0.90392,0 -1.69612,0.79728 -1.69612,1.71135 0,0.89884 0.7922,1.70627 1.69612,1.70627 0.91407,0 1.71643,-0.80743 1.71643,-1.70627 0,-0.64493 -0.3961,-1.21369 -0.94454,-1.5133 2.47308,1.21877 4.96139,2.19378 7.58682,2.97582 1.61486,0.40118 4.89538,0.83791 7.3837,0.83791 1.36095,0 2.3055,-0.1168 2.87933,-0.35548 0.45704,-0.18789 0.78712,-0.62969 0.84298,-1.10197 0.3961,0.75158 0.71095,1.48792 0.96486,2.2141 m -19.2715,-3.05835 c 0,0.59923 -0.55352,1.13752 -1.15275,1.13752 -0.59922,0 -1.14259,-0.53829 -1.14259,-1.13752 0,-0.6043 0.53829,-1.14767 1.14259,-1.14767 0.60431,0 1.15275,0.54845 1.15275,1.14767"
   id="path44"
   style="stroke-width:0.50782" />
	<path
   class="st1"
   d="m 205.23,364.32 0.67,26.69 c 0.05,2.09 0.25,3.65 0.59,4.63 0.35,0.98 0.93,1.8 1.74,2.45 0.68,0.53 1.46,0.86 2.35,1.03 0.87,0.17 1.33,0.54 1.33,1.15 0,0.58 -0.13,1 -0.39,1.24 -0.25,0.23 -0.66,0.36 -1.26,0.36 -0.17,0 -1.04,-0.09 -2.69,-0.24 -1.63,-0.2 -3.16,-0.27 -4.61,-0.27 -1.52,0 -3.08,0.08 -4.68,0.27 -1.64,0.16 -2.47,0.24 -2.64,0.24 -0.49,0 -0.88,-0.12 -1.13,-0.32 -0.24,-0.22 -0.35,-0.57 -0.35,-1.08 0,-0.56 0.43,-1.09 1.34,-1.59 0.52,-0.3 0.91,-0.56 1.16,-0.78 0.78,-0.52 1.29,-1.09 1.57,-1.72 0.28,-0.61 0.41,-1.55 0.41,-2.83 v -1.47 l -0.82,-20.71 c -0.02,-0.45 -0.1,-0.82 -0.19,-1.12 -0.11,-0.31 -0.22,-0.47 -0.31,-0.47 -0.15,0 -0.33,0.16 -0.55,0.47 -0.2,0.3 -0.46,0.72 -0.73,1.27 l -13.27,28.45 c -0.26,0.58 -0.49,0.95 -0.68,1.12 -0.21,0.16 -0.47,0.26 -0.79,0.26 -0.53,0 -0.95,-0.4 -1.24,-1.21 -0.05,-0.1 -0.09,-0.2 -0.13,-0.29 l -12.26,-28.6 c -0.22,-0.53 -0.41,-0.85 -0.53,-1 -0.12,-0.17 -0.26,-0.25 -0.4,-0.27 -0.18,0 -0.27,0.12 -0.34,0.39 -0.07,0.26 -0.12,0.72 -0.17,1.36 l -0.56,16.51 v 1.25 1.61 c 0,2.24 0.25,3.88 0.68,4.93 0.46,1.03 1.21,1.72 2.29,2.07 0.43,0.35 1.11,0.68 2.03,0.95 0.93,0.28 1.41,0.79 1.41,1.56 0,0.48 -0.11,0.8 -0.32,1 -0.23,0.17 -0.61,0.26 -1.19,0.26 -0.31,0 -1.16,-0.09 -2.54,-0.24 -1.38,-0.2 -2.61,-0.27 -3.68,-0.27 -1.39,0 -2.8,0.08 -4.24,0.27 -1.44,0.16 -2.14,0.24 -2.18,0.24 -0.36,0 -0.66,-0.12 -0.86,-0.4 -0.17,-0.25 -0.28,-0.62 -0.28,-1.07 0,-0.33 0.47,-0.79 1.41,-1.42 0.95,-0.63 1.66,-1.33 2.2,-2.08 0.59,-0.92 1.09,-2.21 1.45,-3.93 0.36,-1.69 0.61,-3.84 0.72,-6.43 l 0.7,-15.11 c 0.01,-0.35 0.04,-0.76 0.05,-1.19 0.01,-0.45 0.01,-1.08 0.01,-1.92 0,-2.84 -0.21,-5.02 -0.61,-6.5 -0.41,-1.49 -1.08,-2.67 -2.02,-3.57 -0.6,-0.48 -1.37,-0.83 -2.29,-1.05 -0.91,-0.22 -1.37,-0.67 -1.37,-1.34 0,-0.44 0.08,-0.76 0.26,-0.97 0.16,-0.21 0.46,-0.29 0.87,-0.29 0.08,0 0.3,0.03 0.63,0.08 1.6,0.21 3.16,0.33 4.65,0.33 1,0 2.12,-0.12 3.32,-0.33 0.34,-0.05 0.56,-0.08 0.63,-0.08 0.41,0.03 0.76,0.15 0.99,0.38 0.26,0.24 0.55,0.81 0.97,1.7 l 13.9,31.63 c 0.13,0.33 0.27,0.55 0.4,0.7 0.12,0.15 0.26,0.24 0.42,0.24 0.18,0 0.34,-0.08 0.52,-0.24 0.15,-0.15 0.32,-0.31 0.4,-0.56 l 15.18,-32.46 c 0.2,-0.52 0.43,-0.88 0.68,-1.09 0.24,-0.21 0.55,-0.29 0.88,-0.29 0.18,0 0.61,0.05 1.28,0.2 0.65,0.14 1.24,0.22 1.74,0.22 0.84,0 1.79,-0.07 2.82,-0.22 1.04,-0.15 1.66,-0.2 1.84,-0.2 0.56,0 0.94,0.1 1.14,0.32 0.2,0.2 0.28,0.58 0.28,1.12 0,0.57 -0.4,0.95 -1.23,1.16 -0.85,0.2 -1.65,0.56 -2.4,1.05 -0.7,0.38 -1.2,0.99 -1.52,1.84 -0.32,0.86 -0.48,2.06 -0.48,3.63 v 0.59 z m -41.67,27.05 h -0.38 c -0.1,1.99 -0.42,3.64 -0.95,4.93 -0.52,1.32 -1.24,2.22 -2.14,2.78 v 0.38 c 1.3,-0.18 2.27,-0.65 2.87,-1.36 0.61,-0.72 0.93,-1.72 0.93,-3.01 0,-0.38 -0.04,-0.84 -0.08,-1.41 -0.03,-0.58 -0.12,-1.33 -0.25,-2.31 m -2.32,-34.57 v 0.39 c 1.8,1.2 3.48,3.67 5.08,7.42 0.19,0.45 0.35,0.8 0.46,1.07 l 13.23,30.75 c 0.18,0.38 0.31,0.65 0.43,0.75 0.1,0.11 0.2,0.18 0.36,0.18 0.15,0 0.31,-0.08 0.44,-0.21 0.14,-0.13 0.22,-0.29 0.22,-0.46 0,-0.2 -0.08,-0.46 -0.19,-0.8 -0.1,-0.33 -0.34,-0.91 -0.72,-1.72 l -11.46,-27.01 -0.12,-0.28 c -2.52,-5.97 -5.07,-9.34 -7.73,-10.08 m 39.54,2.32 -0.24,-0.2 c -0.58,1.03 -1,2.24 -1.27,3.63 -0.27,1.42 -0.4,3.13 -0.4,5.13 v 1.19 l 0.89,21.6 c 0.01,0.34 0.05,0.72 0.05,1.13 0.01,0.4 0.02,1 0.02,1.75 0,1.55 -0.12,2.74 -0.35,3.56 -0.25,0.84 -0.65,1.54 -1.19,2.1 v 0.29 c 1.03,-0.61 1.79,-1.38 2.25,-2.33 0.43,-0.94 0.67,-2.23 0.67,-3.8 0,-0.44 -0.03,-1.04 -0.06,-1.86 l -0.73,-19.27 c -0.01,-0.47 -0.03,-1.04 -0.03,-1.74 -0.01,-0.7 -0.01,-1.97 -0.01,-3.76 0,-1.5 0.01,-2.83 0.1,-3.99 0.07,-1.19 0.17,-2.33 0.3,-3.43"
   id="path46" />
	<path
   class="st1"
   d="m 238.57,355.75 16.08,38.89 c 0.54,1.35 1.08,2.27 1.65,2.81 0.53,0.53 1.23,0.89 2.1,1.11 0.26,0.12 0.61,0.29 1.05,0.49 0.86,0.38 1.28,0.9 1.28,1.59 0,0.5 -0.08,0.83 -0.21,0.99 -0.14,0.16 -0.47,0.24 -0.93,0.24 -0.46,0 -1.6,-0.08 -3.48,-0.21 -1.86,-0.17 -3.49,-0.23 -4.88,-0.23 -2.69,0 -5.28,0.12 -7.85,0.38 -0.41,0.04 -0.65,0.06 -0.74,0.06 -0.27,0 -0.48,-0.12 -0.64,-0.35 -0.19,-0.22 -0.28,-0.54 -0.28,-0.96 0,-0.41 0.75,-1 2.25,-1.74 1.52,-0.75 2.27,-1.84 2.27,-3.31 0,-0.47 -0.04,-0.94 -0.15,-1.42 -0.11,-0.48 -0.26,-0.96 -0.46,-1.44 l -1.76,-4.39 c -0.45,-1.15 -0.92,-1.91 -1.39,-2.29 -0.51,-0.35 -1.59,-0.52 -3.27,-0.52 h -0.38 -8.19 c -1.82,0 -3.03,0.19 -3.55,0.58 -0.54,0.39 -0.97,1.13 -1.32,2.23 l -1.71,4.97 c -0.17,0.46 -0.28,0.86 -0.38,1.22 -0.08,0.35 -0.1,0.69 -0.1,0.98 0,0.96 0.35,1.74 1.04,2.35 0.71,0.62 1.81,1.06 3.27,1.35 0.05,0.03 0.16,0.05 0.28,0.07 1.45,0.32 2.19,0.8 2.19,1.45 0,0.44 -0.11,0.75 -0.33,0.94 -0.2,0.21 -0.55,0.29 -1.06,0.29 -0.21,0 -1.19,-0.08 -3.01,-0.21 -1.81,-0.17 -3.49,-0.23 -5.1,-0.23 -1.19,0 -2.39,0.06 -3.59,0.23 -1.21,0.13 -1.83,0.21 -1.88,0.21 -0.46,0 -0.82,-0.11 -1.05,-0.3 -0.22,-0.21 -0.34,-0.52 -0.34,-0.94 0,-0.61 0.46,-1.09 1.39,-1.48 0.55,-0.21 0.99,-0.4 1.27,-0.6 0.65,-0.41 1.25,-1.04 1.78,-1.84 0.51,-0.8 1.23,-2.23 2.13,-4.24 l 15.81,-36.98 v -0.03 c 0.26,-0.57 0.59,-0.85 0.99,-0.85 0.24,0 0.45,0.11 0.66,0.31 0.24,0.2 0.4,0.47 0.54,0.82 m -17.16,37.27 c -0.91,2.2 -1.66,3.75 -2.28,4.62 -0.63,0.86 -1.38,1.59 -2.22,2.15 l 0.17,0.21 c 1.6,-0.15 2.74,-0.71 3.49,-1.72 0.72,-1.03 1.1,-2.56 1.1,-4.62 v -0.51 z m 14.52,-24.69 c -0.15,-0.38 -0.31,-0.67 -0.45,-0.88 -0.18,-0.22 -0.32,-0.31 -0.47,-0.31 -0.18,0 -0.35,0.08 -0.52,0.24 -0.18,0.17 -0.31,0.4 -0.43,0.71 l -4.71,11.49 c -0.14,0.31 -0.22,0.63 -0.32,0.91 -0.08,0.28 -0.1,0.52 -0.1,0.71 0,0.37 0.17,0.65 0.55,0.78 0.35,0.12 1.12,0.19 2.26,0.19 h 7.24 c 0.65,0 1.14,-0.07 1.49,-0.22 0.35,-0.15 0.5,-0.34 0.5,-0.62 0,-0.14 -0.07,-0.39 -0.14,-0.76 -0.12,-0.37 -0.25,-0.77 -0.41,-1.19 z m 10.19,30.43 0.13,0.12 c 0.83,-0.48 1.43,-1.07 1.81,-1.75 0.39,-0.68 0.58,-1.49 0.58,-2.42 0,-0.58 -0.07,-1.25 -0.2,-1.98 -0.14,-0.74 -0.32,-1.41 -0.53,-1.97 l -10.46,-25.8 c -0.14,-0.37 -0.25,-0.61 -0.38,-0.73 -0.12,-0.14 -0.26,-0.2 -0.43,-0.2 -0.2,0 -0.41,0.1 -0.54,0.29 -0.15,0.17 -0.22,0.39 -0.22,0.64 0,0.26 0.13,0.68 0.46,1.3 0.1,0.23 0.17,0.42 0.24,0.56 l 9.98,24.83 c 0.32,0.68 0.54,1.34 0.68,2.01 0.15,0.66 0.22,1.28 0.22,1.85 0,0.69 -0.11,1.31 -0.31,1.84 -0.24,0.52 -0.57,0.98 -1.03,1.41"
   id="path48" />
	<path
   class="st1"
   d="m 279.5,362.44 5.93,9.16 c 0.17,0.29 0.35,0.49 0.51,0.64 0.16,0.13 0.32,0.2 0.47,0.2 0.12,0 0.29,-0.07 0.46,-0.18 0.16,-0.12 0.32,-0.29 0.49,-0.54 l 6.09,-8.12 c 0.7,-0.93 1.18,-1.69 1.39,-2.21 0.21,-0.55 0.3,-1.1 0.3,-1.66 0,-0.72 -0.14,-1.23 -0.42,-1.59 -0.33,-0.33 -0.91,-0.61 -1.79,-0.82 -0.19,-0.04 -0.41,-0.1 -0.72,-0.16 -1.13,-0.25 -1.71,-0.7 -1.71,-1.38 0,-0.37 0.09,-0.65 0.33,-0.86 0.22,-0.23 0.53,-0.32 0.92,-0.32 0.31,0 1.24,0.08 2.75,0.27 1.5,0.18 2.85,0.28 4.07,0.28 1.09,0 2.31,-0.1 3.68,-0.28 1.39,-0.19 2.18,-0.27 2.42,-0.27 0.54,0 0.93,0.08 1.13,0.27 0.2,0.18 0.29,0.49 0.29,0.92 0,0.78 -0.56,1.3 -1.67,1.58 -0.63,0.13 -1.12,0.26 -1.49,0.45 -0.82,0.4 -1.84,1.23 -3.11,2.5 -1.24,1.29 -2.62,2.92 -4.17,4.94 l -6.85,9.08 c -0.15,0.2 -0.29,0.41 -0.36,0.61 -0.11,0.2 -0.12,0.43 -0.12,0.63 0,0.21 0.02,0.4 0.09,0.57 0.06,0.19 0.15,0.36 0.26,0.57 l 9.83,15.05 c 0.96,1.45 1.89,2.76 2.83,3.94 0.92,1.17 1.76,2.1 2.52,2.78 0.34,0.21 0.81,0.4 1.42,0.61 0.86,0.3 1.28,0.71 1.28,1.23 0,0.51 -0.13,0.87 -0.4,1.12 -0.26,0.23 -0.65,0.36 -1.19,0.36 -0.63,0 -1.8,-0.1 -3.49,-0.3 -1.68,-0.18 -3.06,-0.29 -4.1,-0.29 -1.5,0 -3.04,0.11 -4.63,0.29 -1.61,0.2 -2.48,0.3 -2.62,0.3 -0.54,0 -0.98,-0.13 -1.28,-0.36 -0.31,-0.26 -0.49,-0.56 -0.49,-0.98 0,-0.56 0.6,-1.05 1.75,-1.51 1.14,-0.43 1.71,-1.16 1.71,-2.14 0,-0.48 -0.1,-1.05 -0.35,-1.66 -0.25,-0.62 -0.59,-1.26 -1.04,-1.93 l -6.55,-10 c -0.11,-0.22 -0.24,-0.42 -0.39,-0.57 -0.14,-0.17 -0.24,-0.22 -0.34,-0.22 -0.11,0.01 -0.24,0.08 -0.37,0.16 -0.12,0.1 -0.28,0.28 -0.48,0.55 l -6.33,8.55 c -0.81,1.12 -1.38,1.98 -1.68,2.64 -0.3,0.68 -0.45,1.27 -0.45,1.83 0,0.98 0.72,1.71 2.12,2.14 0.25,0.1 0.43,0.16 0.59,0.19 0.22,0.1 0.53,0.21 0.93,0.33 1.16,0.35 1.76,0.86 1.76,1.52 0,0.51 -0.15,0.87 -0.45,1.12 -0.29,0.23 -0.73,0.36 -1.31,0.36 -0.26,0 -1.14,-0.1 -2.57,-0.26 -1.42,-0.16 -2.7,-0.26 -3.84,-0.26 -1.13,0 -2.39,0.1 -3.86,0.26 -1.45,0.16 -2.34,0.26 -2.67,0.26 -0.5,0 -0.89,-0.13 -1.2,-0.34 -0.32,-0.23 -0.47,-0.54 -0.47,-0.93 0,-0.56 0.55,-1.07 1.64,-1.49 0.52,-0.23 0.94,-0.42 1.24,-0.57 0.96,-0.52 1.94,-1.25 2.88,-2.16 0.95,-0.94 2.22,-2.47 3.82,-4.63 l 8.35,-11.17 c 0.12,-0.16 0.23,-0.34 0.3,-0.56 0.04,-0.23 0.09,-0.43 0.09,-0.65 0,-0.15 -0.05,-0.31 -0.09,-0.51 -0.07,-0.18 -0.19,-0.44 -0.35,-0.76 l -8.16,-12.72 c -0.96,-1.46 -1.95,-2.81 -2.97,-4.07 -1,-1.25 -1.85,-2.18 -2.51,-2.75 -0.5,-0.4 -1.28,-0.76 -2.3,-1.08 -1.03,-0.34 -1.54,-0.83 -1.54,-1.51 0,-0.46 0.12,-0.78 0.38,-1 0.25,-0.23 0.65,-0.32 1.18,-0.32 0.88,0 2.23,0.08 4.08,0.27 1.87,0.18 3.29,0.28 4.29,0.28 1.39,0 2.91,-0.1 4.54,-0.28 1.64,-0.19 2.63,-0.27 2.9,-0.27 0.54,0 0.9,0.08 1.15,0.27 0.24,0.18 0.35,0.49 0.35,0.92 0,0.6 -0.37,1.08 -1.11,1.4 -0.17,0.06 -0.28,0.12 -0.33,0.14 -0.74,0.1 -1.27,0.37 -1.62,0.79 -0.38,0.45 -0.56,1.05 -0.56,1.8 0,0.35 0.09,0.73 0.26,1.16 0.19,0.41 0.42,0.88 0.73,1.35 m -6.13,30.53 -0.18,-0.2 c -1.66,2.06 -3.02,3.59 -4.09,4.6 -1.07,1.03 -2.08,1.79 -3.08,2.3 l 0.25,0.16 c 1.62,0 2.97,-0.54 4.07,-1.58 1.11,-1.05 2.11,-2.82 3.03,-5.28 m -6.39,-36.23 -0.08,0.13 c 0.68,0.26 1.48,0.86 2.4,1.79 0.94,0.94 1.8,2.08 2.64,3.42 l 20.22,31.35 c 0.38,0.57 0.65,1.15 0.85,1.75 0.19,0.59 0.29,1.14 0.29,1.65 0,0.38 -0.08,0.74 -0.22,1.07 -0.13,0.34 -0.33,0.64 -0.61,0.92 l 0.29,0.14 c 0.53,-0.26 0.9,-0.65 1.18,-1.2 0.27,-0.52 0.4,-1.14 0.4,-1.86 0,-0.6 -0.14,-1.31 -0.44,-2.09 -0.3,-0.76 -0.71,-1.58 -1.31,-2.43 l -19.98,-30.89 c -0.67,-1.03 -1.5,-1.9 -2.53,-2.58 -1.04,-0.7 -2.07,-1.07 -3.1,-1.17 m 28,-0.06 -0.12,0.25 c 0.56,0.18 1.01,0.48 1.31,0.9 0.3,0.42 0.45,0.95 0.45,1.57 0,0.7 -0.47,1.86 -1.36,3.48 v 0.06 l 0.28,0.24 c 0.12,-0.15 0.29,-0.38 0.51,-0.65 1.27,-1.66 1.89,-2.91 1.89,-3.73 0,-0.62 -0.25,-1.1 -0.78,-1.46 -0.5,-0.38 -1.23,-0.6 -2.18,-0.66"
   id="path50" />
	<path
   class="st1"
   d="m 321.7,365.07 v 26.57 c 0,1.9 0.27,3.37 0.81,4.45 0.54,1.06 1.36,1.75 2.44,2 0.47,0.24 1.16,0.46 2.07,0.65 1.47,0.34 2.19,0.91 2.19,1.64 0,0.5 -0.13,0.89 -0.4,1.12 -0.31,0.24 -0.77,0.36 -1.34,0.36 -0.29,0 -1.46,-0.09 -3.5,-0.24 -2.06,-0.2 -3.96,-0.27 -5.68,-0.27 -1.34,0 -2.91,0.08 -4.68,0.27 -1.8,0.16 -2.91,0.24 -3.32,0.24 -0.49,0 -0.88,-0.12 -1.15,-0.34 -0.26,-0.23 -0.4,-0.56 -0.4,-0.99 0,-0.67 0.65,-1.3 1.95,-1.85 0.56,-0.24 0.97,-0.44 1.25,-0.59 0.75,-0.45 1.3,-1.22 1.68,-2.29 0.38,-1.07 0.54,-2.4 0.54,-3.98 v -26.1 c 0,-2.57 -0.1,-4.24 -0.35,-5.04 -0.24,-0.81 -0.69,-1.48 -1.35,-2.03 -0.68,-0.56 -1.74,-0.95 -3.25,-1.15 -1.47,-0.19 -2.21,-0.71 -2.21,-1.52 0,-0.42 0.13,-0.77 0.4,-1.02 0.29,-0.24 0.67,-0.36 1.16,-0.36 0.12,0 0.44,0.03 0.93,0.08 1.84,0.26 3.59,0.4 5.18,0.4 3.8,0 7.23,-0.14 10.34,-0.42 0.35,-0.04 0.56,-0.05 0.61,-0.05 0.46,0 0.78,0.08 0.99,0.29 0.24,0.21 0.33,0.5 0.33,0.9 0,0.64 -0.52,1.13 -1.58,1.52 -1.05,0.38 -1.76,0.81 -2.21,1.34 -0.48,0.43 -0.86,1.14 -1.07,2.1 -0.25,0.96 -0.38,2.39 -0.38,4.31 m -9.11,-8.07 -0.12,0.25 c 1.03,0.54 1.79,1.33 2.24,2.32 0.44,1.02 0.67,2.44 0.67,4.29 v 25.97 c 0,2.69 -0.17,4.62 -0.55,5.8 -0.36,1.2 -0.97,2.25 -1.83,3.17 l 0.1,0.26 c 1.32,-0.61 2.28,-1.53 2.82,-2.75 0.52,-1.21 0.79,-3.43 0.79,-6.67 v -25.33 c 0,-2.18 -0.31,-3.83 -0.95,-4.95 -0.64,-1.11 -1.69,-1.91 -3.17,-2.36"
   id="path52" />
	<path
   class="st1"
   d="m 379.7,364.32 0.66,26.69 c 0.05,2.09 0.24,3.65 0.59,4.63 0.34,0.98 0.94,1.82 1.75,2.45 0.69,0.53 1.46,0.86 2.34,1.03 0.88,0.17 1.32,0.54 1.32,1.15 0,0.58 -0.13,1 -0.39,1.24 -0.22,0.23 -0.65,0.36 -1.22,0.36 -0.19,0 -1.07,-0.09 -2.71,-0.24 -1.64,-0.2 -3.19,-0.27 -4.62,-0.27 -1.54,0 -3.09,0.08 -4.69,0.27 -1.6,0.16 -2.47,0.24 -2.64,0.24 -0.52,0 -0.88,-0.12 -1.14,-0.32 -0.25,-0.22 -0.35,-0.57 -0.35,-1.08 0,-0.56 0.45,-1.09 1.35,-1.59 0.52,-0.3 0.89,-0.56 1.19,-0.78 0.75,-0.52 1.26,-1.09 1.54,-1.72 0.26,-0.61 0.41,-1.55 0.41,-2.83 v -1.47 l -0.81,-20.71 c -0.03,-0.45 -0.11,-0.82 -0.2,-1.12 -0.11,-0.31 -0.21,-0.47 -0.32,-0.47 -0.14,0 -0.33,0.16 -0.52,0.47 -0.22,0.3 -0.46,0.72 -0.74,1.27 l -13.25,28.45 c -0.29,0.58 -0.51,0.95 -0.71,1.12 -0.21,0.16 -0.47,0.26 -0.79,0.26 -0.54,0 -0.95,-0.4 -1.24,-1.21 -0.05,-0.1 -0.1,-0.2 -0.12,-0.29 l -12.27,-28.6 c -0.21,-0.53 -0.4,-0.85 -0.51,-1 -0.14,-0.17 -0.28,-0.25 -0.44,-0.27 -0.14,0 -0.25,0.12 -0.33,0.39 -0.05,0.26 -0.13,0.72 -0.17,1.36 l -0.56,16.51 v 1.25 1.61 c 0,2.24 0.25,3.88 0.68,4.93 0.45,1.03 1.21,1.72 2.28,2.07 0.44,0.35 1.11,0.68 2.04,0.95 0.94,0.28 1.41,0.79 1.41,1.56 0,0.48 -0.11,0.8 -0.34,1 -0.21,0.17 -0.59,0.26 -1.17,0.26 -0.31,0 -1.15,-0.09 -2.54,-0.24 -1.36,-0.2 -2.6,-0.27 -3.67,-0.27 -1.37,0 -2.79,0.08 -4.23,0.27 -1.43,0.16 -2.17,0.24 -2.17,0.24 -0.37,0 -0.67,-0.12 -0.87,-0.4 -0.2,-0.25 -0.27,-0.62 -0.27,-1.07 0,-0.33 0.47,-0.79 1.4,-1.42 0.94,-0.63 1.67,-1.33 2.19,-2.08 0.61,-0.92 1.08,-2.21 1.46,-3.93 0.36,-1.69 0.61,-3.84 0.73,-6.43 l 0.7,-15.11 c 0.01,-0.35 0.04,-0.76 0.04,-1.19 0.02,-0.45 0.02,-1.08 0.02,-1.92 0,-2.84 -0.21,-5.02 -0.61,-6.5 -0.42,-1.49 -1.09,-2.67 -2.03,-3.57 -0.6,-0.48 -1.37,-0.83 -2.29,-1.05 -0.9,-0.22 -1.37,-0.67 -1.37,-1.34 0,-0.44 0.08,-0.76 0.26,-0.97 0.16,-0.21 0.46,-0.29 0.87,-0.29 0.08,0 0.3,0.03 0.66,0.08 1.57,0.21 3.14,0.33 4.62,0.33 1.02,0 2.12,-0.12 3.33,-0.33 0.34,-0.05 0.56,-0.08 0.65,-0.08 0.39,0.03 0.71,0.15 0.97,0.38 0.26,0.24 0.57,0.81 0.95,1.7 l 13.92,31.63 c 0.15,0.33 0.28,0.55 0.39,0.7 0.15,0.15 0.28,0.24 0.44,0.24 0.17,0 0.34,-0.08 0.51,-0.24 0.19,-0.15 0.33,-0.31 0.41,-0.56 l 15.18,-32.46 c 0.2,-0.52 0.44,-0.88 0.68,-1.09 0.25,-0.21 0.54,-0.29 0.89,-0.29 0.19,0 0.61,0.05 1.28,0.2 0.66,0.14 1.25,0.22 1.74,0.22 0.85,0 1.79,-0.07 2.83,-0.22 1.03,-0.15 1.65,-0.2 1.83,-0.2 0.57,0 0.94,0.1 1.14,0.32 0.19,0.2 0.31,0.58 0.31,1.12 0,0.57 -0.44,0.95 -1.27,1.16 -0.83,0.2 -1.63,0.56 -2.39,1.05 -0.69,0.38 -1.21,0.99 -1.51,1.84 -0.33,0.86 -0.47,2.06 -0.47,3.63 v 0.59 z m -41.67,27.05 h -0.37 c -0.14,1.99 -0.44,3.64 -0.98,4.94 -0.51,1.31 -1.24,2.21 -2.13,2.76 v 0.38 c 1.3,-0.18 2.27,-0.65 2.86,-1.36 0.63,-0.72 0.91,-1.72 0.91,-3.01 0,-0.38 -0.01,-0.84 -0.07,-1.41 0,-0.57 -0.13,-1.32 -0.22,-2.3 M 335.7,356.8 v 0.39 c 1.8,1.2 3.49,3.67 5.08,7.42 0.19,0.45 0.35,0.8 0.47,1.07 l 13.2,30.75 c 0.19,0.38 0.33,0.65 0.45,0.75 0.08,0.11 0.22,0.18 0.36,0.18 0.18,0 0.31,-0.08 0.44,-0.21 0.15,-0.13 0.21,-0.29 0.21,-0.45 0,-0.22 -0.06,-0.47 -0.18,-0.82 -0.12,-0.33 -0.35,-0.91 -0.74,-1.72 l -11.44,-27.01 -0.15,-0.28 c -2.49,-5.96 -5.07,-9.33 -7.7,-10.07 m 39.57,2.32 -0.25,-0.2 c -0.58,1.03 -1,2.24 -1.29,3.63 -0.27,1.42 -0.4,3.13 -0.4,5.13 v 1.19 l 0.88,21.6 c 0.02,0.34 0.02,0.72 0.07,1.13 v 1.75 c 0,1.55 -0.11,2.74 -0.36,3.56 -0.23,0.84 -0.63,1.54 -1.17,2.1 v 0.29 c 1.03,-0.61 1.78,-1.38 2.26,-2.33 0.42,-0.94 0.66,-2.23 0.66,-3.8 0,-0.44 -0.02,-1.04 -0.06,-1.86 l -0.7,-19.27 c -0.02,-0.47 -0.05,-1.04 -0.05,-1.74 -0.02,-0.7 -0.03,-1.97 -0.03,-3.76 0,-1.5 0.05,-2.83 0.12,-3.99 0.07,-1.19 0.16,-2.33 0.32,-3.43"
   id="path54" />
	<path
   class="st1"
   d="m 410.55,354.6 c 6.59,0 12.05,2.19 16.35,6.57 4.32,4.39 6.48,9.89 6.48,16.48 0,6.96 -2.3,12.73 -6.86,17.34 -4.57,4.58 -10.4,6.88 -17.48,6.88 -6.59,0 -12,-2.18 -16.28,-6.57 -4.27,-4.38 -6.41,-9.92 -6.41,-16.59 0,-6.88 2.3,-12.62 6.87,-17.2 4.6,-4.61 10.36,-6.91 17.33,-6.91 m -7.44,45.8 0.18,-0.25 c -4.78,-2.62 -8.3,-5.7 -10.6,-9.32 -2.31,-3.62 -3.47,-7.89 -3.47,-12.79 0,-3.49 0.6,-6.76 1.77,-9.79 1.19,-3.03 2.86,-5.57 5.04,-7.6 l -0.2,-0.31 c -2.57,2.18 -4.61,4.92 -6.09,8.24 -1.5,3.28 -2.23,6.7 -2.23,10.26 0,5.01 1.38,9.45 4.18,13.35 2.8,3.84 6.61,6.61 11.42,8.21 m 22.29,-19.12 c 0,-6.96 -1.56,-12.64 -4.6,-17.06 -3.08,-4.41 -7.02,-6.61 -11.82,-6.61 -4.48,0 -8.05,1.6 -10.67,4.77 -2.59,3.19 -3.89,7.55 -3.89,13.15 0,6.99 1.48,12.62 4.44,16.89 2.99,4.29 6.92,6.41 11.82,6.41 4.52,0 8.11,-1.57 10.76,-4.69 2.63,-3.12 3.96,-7.42 3.96,-12.86 m -11.89,-24.04 c 3.9,1.38 7.03,4.2 9.39,8.49 2.37,4.27 3.57,9.32 3.57,15.14 0,3.81 -0.59,7.09 -1.77,9.81 -1.17,2.72 -2.99,5 -5.44,6.82 l 0.22,0.24 c 2.74,-1.47 4.89,-3.83 6.43,-7.04 1.53,-3.22 2.32,-7 2.32,-11.31 0,-5.62 -1.31,-10.41 -3.89,-14.42 -2.6,-4 -6.14,-6.65 -10.65,-7.97 z"
   id="path56" />
	<path
   class="st1"
   d="m 479.81,375.57 c 3.03,0.18 5.49,1.38 7.4,3.58 1.89,2.21 2.85,4.98 2.85,8.3 0,2.04 -0.39,4.02 -1.19,5.89 -0.76,1.87 -1.82,3.47 -3.21,4.76 -1.47,1.35 -3.12,2.31 -5.01,2.9 -1.88,0.59 -4.48,0.88 -7.71,0.88 -2.17,0 -4.46,-0.09 -6.93,-0.26 -2.47,-0.18 -3.86,-0.26 -4.18,-0.26 -1.42,0 -3.04,0.08 -4.82,0.26 -1.82,0.17 -2.87,0.26 -3.15,0.26 -0.5,0 -0.87,-0.12 -1.12,-0.32 -0.26,-0.22 -0.4,-0.56 -0.4,-1.01 0,-0.65 0.55,-1.23 1.6,-1.73 0.56,-0.28 1.01,-0.52 1.29,-0.71 0.9,-0.57 1.53,-1.37 1.92,-2.38 0.4,-1 0.61,-2.27 0.61,-3.89 v -26.1 c 0,-2.23 -0.14,-3.75 -0.36,-4.63 -0.27,-0.87 -0.71,-1.62 -1.34,-2.24 -0.72,-0.68 -1.8,-1.12 -3.27,-1.35 -1.46,-0.23 -2.21,-0.72 -2.21,-1.52 0,-0.42 0.14,-0.76 0.43,-1.01 0.3,-0.24 0.7,-0.36 1.2,-0.36 0.11,0 0.46,0.03 1.02,0.08 2.31,0.26 4.55,0.4 6.72,0.4 1.3,0 3.38,-0.08 6.18,-0.24 2.8,-0.16 4.94,-0.23 6.42,-0.23 4.41,0 7.89,1.03 10.48,3.1 2.57,2.09 3.87,4.88 3.87,8.38 0,2.34 -0.59,4.29 -1.74,5.83 -1.14,1.51 -2.93,2.72 -5.35,3.62 M 456.2,357 c 0.96,0.65 1.66,1.51 2.11,2.64 0.43,1.09 0.66,2.51 0.66,4.23 v 25.97 c 0,2.69 -0.21,4.64 -0.56,5.82 -0.38,1.18 -0.98,2.23 -1.83,3.15 1.37,-0.33 2.33,-1.13 2.88,-2.43 0.57,-1.3 0.84,-3.54 0.84,-6.73 v -25.33 c 0,-2.18 -0.31,-3.84 -0.95,-4.96 -0.63,-1.11 -1.67,-1.91 -3.15,-2.36 m 9.07,14.73 c 0,1.47 0.38,2.43 1.18,2.86 0.8,0.43 2.76,0.65 5.96,0.65 2.59,0 4.45,-0.55 5.54,-1.66 1.12,-1.12 1.66,-3.02 1.66,-5.65 0,-3.17 -0.92,-5.71 -2.8,-7.64 -1.87,-1.94 -4.28,-2.9 -7.29,-2.9 -1.59,0 -2.67,0.39 -3.3,1.2 -0.63,0.81 -0.95,2.44 -0.95,4.87 z m 0,20.02 c 0,2.89 0.5,4.79 1.45,5.73 0.97,0.93 2.78,1.4 5.41,1.4 3.09,0 5.52,-0.92 7.33,-2.73 1.79,-1.83 2.69,-4.27 2.69,-7.32 0,-3.4 -1.07,-6.05 -3.21,-7.96 -2.14,-1.87 -5.12,-2.83 -8.94,-2.83 -2.01,0 -3.28,0.24 -3.86,0.75 -0.58,0.49 -0.87,1.85 -0.87,4.06 z m 9.66,-34.95 -0.17,0.39 c 2.03,0.98 3.56,2.45 4.63,4.36 1.08,1.91 1.62,4.13 1.62,6.7 0,1 -0.12,1.87 -0.34,2.61 -0.22,0.74 -0.62,1.48 -1.18,2.21 l 0.33,0.2 c 0.86,-0.85 1.51,-1.84 1.91,-2.96 0.44,-1.12 0.66,-2.35 0.66,-3.73 0,-2.36 -0.67,-4.48 -2.01,-6.27 -1.4,-1.81 -3.17,-2.97 -5.45,-3.51 m 2.6,21.5 v 0.36 c 1.85,0.79 3.29,2.06 4.37,3.85 1.09,1.79 1.64,3.82 1.64,6.05 0,2.18 -0.44,4.1 -1.28,5.77 -0.86,1.7 -2.12,3.08 -3.77,4.15 l 0.19,0.33 c 2.05,-0.96 3.67,-2.4 4.86,-4.31 1.16,-1.91 1.73,-4.05 1.73,-6.41 0,-2.43 -0.66,-4.5 -2.02,-6.22 -1.36,-1.72 -3.26,-2.89 -5.72,-3.57"
   id="path58" />
	<path
   class="st1"
   d="m 516.35,354.6 c 6.6,0 12.04,2.19 16.37,6.57 4.31,4.39 6.46,9.89 6.46,16.48 0,6.96 -2.3,12.73 -6.85,17.34 -4.57,4.58 -10.39,6.88 -17.47,6.88 -6.56,0 -11.99,-2.18 -16.28,-6.57 -4.26,-4.38 -6.4,-9.92 -6.4,-16.59 0,-6.88 2.3,-12.62 6.87,-17.2 4.59,-4.61 10.34,-6.91 17.3,-6.91 m -7.44,45.8 0.2,-0.25 c -4.79,-2.62 -8.32,-5.7 -10.62,-9.32 -2.32,-3.62 -3.45,-7.89 -3.45,-12.79 0,-3.49 0.59,-6.76 1.75,-9.79 1.18,-3.03 2.85,-5.57 5.04,-7.6 l -0.17,-0.31 c -2.61,2.18 -4.63,4.92 -6.11,8.24 -1.48,3.28 -2.24,6.7 -2.24,10.26 0,5.01 1.4,9.45 4.21,13.35 2.78,3.84 6.6,6.61 11.39,8.21 m 22.28,-19.12 c 0,-6.96 -1.53,-12.64 -4.6,-17.06 -3.09,-4.41 -7,-6.61 -11.79,-6.61 -4.51,0 -8.08,1.6 -10.68,4.77 -2.59,3.19 -3.89,7.55 -3.89,13.15 0,6.99 1.48,12.62 4.45,16.89 2.97,4.29 6.91,6.41 11.78,6.41 4.54,0 8.12,-1.57 10.77,-4.69 2.64,-3.12 3.96,-7.42 3.96,-12.86 m -11.87,-24.04 c 3.89,1.38 7.04,4.2 9.41,8.49 2.35,4.27 3.53,9.32 3.53,15.14 0,3.81 -0.56,7.09 -1.77,9.81 -1.16,2.72 -2.96,5 -5.42,6.82 l 0.22,0.24 c 2.75,-1.47 4.88,-3.83 6.43,-7.04 1.53,-3.22 2.3,-7 2.3,-11.31 0,-5.62 -1.3,-10.41 -3.89,-14.42 -2.59,-4 -6.15,-6.65 -10.64,-7.97 z"
   id="path60" />
	<path
   class="st1"
   d="m 543.56,397.27 -2.03,-9.36 c -0.06,-0.25 -0.11,-0.5 -0.16,-0.72 -0.05,-0.24 -0.08,-0.38 -0.08,-0.41 0,-0.57 0.1,-0.97 0.31,-1.2 0.2,-0.21 0.56,-0.32 1.03,-0.32 0.42,0 0.88,0.71 1.37,2.12 0.46,1.44 1.04,2.73 1.68,3.91 1.37,2.4 2.99,4.29 4.86,5.63 1.86,1.35 3.79,2.02 5.79,2.02 2.5,0 4.57,-0.79 6.19,-2.38 1.61,-1.58 2.43,-3.64 2.43,-6.19 0,-3.26 -3.34,-6.35 -10.04,-9.27 l -0.3,-0.12 c -5.46,-2.37 -8.9,-4.47 -10.3,-6.36 -1.41,-1.87 -2.14,-4.37 -2.14,-7.48 0,-3.52 1.19,-6.5 3.52,-8.93 2.37,-2.43 5.29,-3.63 8.9,-3.63 1.8,0 3.69,0.39 5.63,1.2 1.97,0.79 3.21,1.2 3.79,1.2 0.55,0 1.12,-0.14 1.62,-0.44 0.54,-0.29 0.9,-0.42 1.06,-0.42 0.4,0 0.68,0.11 0.84,0.3 0.17,0.23 0.28,0.59 0.28,1.13 0,0.15 -0.04,0.5 -0.09,0.98 -0.04,0.5 -0.07,0.93 -0.07,1.28 0,1 0.16,2.47 0.43,4.38 0.31,1.92 0.46,3.31 0.46,4.18 0,0.37 -0.07,0.65 -0.24,0.85 -0.16,0.21 -0.4,0.3 -0.7,0.3 -0.61,0 -1.14,-0.69 -1.52,-2.07 -0.38,-1.4 -0.95,-2.76 -1.66,-4.03 -1.09,-1.81 -2.54,-3.24 -4.38,-4.34 -1.84,-1.06 -3.77,-1.61 -5.77,-1.61 -2.01,0 -3.69,0.61 -5,1.82 -1.32,1.21 -1.96,2.73 -1.96,4.54 0,1.76 0.61,3.26 1.9,4.53 1.25,1.23 3.55,2.51 6.91,3.82 0.35,0.15 0.94,0.36 1.71,0.66 4.13,1.63 6.84,3.09 8.15,4.41 1.23,1.21 2.17,2.67 2.82,4.38 0.63,1.7 0.94,3.58 0.94,5.62 0,4.44 -1.27,7.98 -3.84,10.61 -2.55,2.64 -5.97,3.97 -10.29,3.97 -1.4,0 -3.15,-0.38 -5.35,-1.08 -2.18,-0.7 -3.68,-1.09 -4.57,-1.21 -1.1,-0.13 -1.77,-0.71 -1.98,-1.73 -0.08,-0.24 -0.13,-0.44 -0.15,-0.54 m -1.32,-10.12 2.01,9.17 c 0.11,0.55 0.27,0.92 0.5,1.14 0.21,0.22 0.56,0.32 0.97,0.32 0.12,0 0.2,-0.05 0.29,-0.13 0.08,-0.08 0.12,-0.17 0.12,-0.28 0,-0.14 0,-0.23 -0.03,-0.26 0,-0.07 -0.01,-0.11 -0.05,-0.15 l -3.21,-10.03 c -0.04,-0.08 -0.08,-0.23 -0.13,-0.36 -0.03,-0.26 -0.16,-0.38 -0.3,-0.38 -0.11,0 -0.17,0.03 -0.24,0.05 -0.03,0.07 -0.08,0.12 -0.08,0.19 0,0.1 0.04,0.25 0.05,0.49 0.07,0.11 0.08,0.18 0.1,0.23 m 3.32,-27.05 -0.25,-0.12 c -0.73,1.25 -1.22,2.46 -1.55,3.55 -0.28,1.09 -0.45,2.2 -0.45,3.33 0,2.75 0.77,5.05 2.3,6.86 1.53,1.84 4.35,3.63 8.39,5.43 l 0.58,0.25 c 7.92,3.48 11.86,7.16 11.86,11.06 0,0.2 0,0.5 -0.04,0.86 -0.03,0.36 -0.08,0.76 -0.14,1.2 l 0.4,0.17 c 0.15,-0.68 0.31,-1.26 0.37,-1.77 0.08,-0.53 0.14,-1.02 0.14,-1.46 0,-2.15 -0.67,-4 -1.98,-5.55 -1.32,-1.56 -3.52,-3.03 -6.53,-4.38 -0.53,-0.26 -1.32,-0.6 -2.33,-1.05 -8.07,-3.62 -12.06,-7.91 -12.06,-12.85 0,-0.95 0.1,-1.89 0.31,-2.78 0.17,-0.91 0.53,-1.82 0.98,-2.75 m 13.72,-2.91 v 0.2 c 1.43,0.69 2.66,1.56 3.69,2.6 1.02,1.08 2.03,2.45 2.99,4.19 h 0.3 c -0.22,-2.25 -0.86,-3.86 -1.87,-4.89 -1.04,-1.02 -2.75,-1.71 -5.11,-2.1"
   id="path62" />
	<path
   class="st1"
   d="m 593.86,354.61 c 3.92,0 7.99,1.1 12.22,3.29 0.97,0.49 1.55,0.73 1.77,0.73 0.47,0 0.84,-0.35 1.15,-1.01 0.29,-0.68 0.64,-1 0.99,-1 0.73,0.01 1.12,0.79 1.18,2.33 v 0.58 c 0.08,2.07 0.26,4.29 0.54,6.65 0.26,2.37 0.41,3.7 0.41,3.99 0,0.38 -0.06,0.66 -0.21,0.86 -0.15,0.2 -0.38,0.3 -0.68,0.3 -0.52,0 -1.08,-0.6 -1.66,-1.79 -0.73,-1.5 -1.47,-2.83 -2.22,-3.95 -1.79,-2.6 -3.94,-4.64 -6.48,-6.1 -2.57,-1.48 -5.24,-2.22 -8.01,-2.22 -3.81,0 -7.01,1.7 -9.55,5.11 -2.52,3.4 -3.79,7.71 -3.79,12.98 0,6.25 1.56,11.49 4.74,15.71 3.14,4.22 7.03,6.32 11.68,6.32 2.11,0 4.21,-0.45 6.33,-1.35 2.12,-0.89 4.03,-2.15 5.76,-3.73 0.49,-0.51 1.15,-1.23 1.92,-2.17 0.8,-0.95 1.42,-1.43 1.85,-1.43 0.29,0 0.48,0.09 0.63,0.26 0.15,0.16 0.22,0.42 0.22,0.73 0,0.54 -0.39,1.37 -1.15,2.48 -0.74,1.1 -1.77,2.28 -3.04,3.54 -2.14,2.06 -4.5,3.6 -7.14,4.63 -2.61,1.02 -5.55,1.53 -8.77,1.53 -6.2,0 -11.19,-2.04 -15.01,-6.11 -3.79,-4.08 -5.7,-9.42 -5.7,-16.03 0,-7.07 2.1,-13.05 6.31,-17.88 4.24,-4.84 9.46,-7.25 15.71,-7.25 m -4.52,46.41 0.08,-0.33 c -4.86,-1.64 -8.6,-4.35 -11.15,-8.13 -2.56,-3.79 -3.83,-8.43 -3.83,-13.88 0,-3.66 0.74,-7.19 2.24,-10.62 1.52,-3.42 3.64,-6.37 6.38,-8.87 l -0.14,-0.25 c -3.19,2.41 -5.66,5.39 -7.39,8.96 -1.74,3.58 -2.62,7.44 -2.62,11.58 0,5.76 1.46,10.53 4.37,14.32 2.91,3.82 6.92,6.23 12.06,7.22 m 13.52,-41.95 -0.19,0.31 c 1.49,0.99 2.81,2.12 3.93,3.37 1.14,1.25 2.1,2.69 2.92,4.3 l 0.3,-0.19 c -0.21,-2.25 -0.82,-3.9 -1.79,-4.98 -0.94,-1.08 -2.69,-2.02 -5.17,-2.81"
   id="path64" />
	<path
   class="st1"
   d="m 627.97,365.07 v 7.51 c 0,0.62 0.15,1.11 0.48,1.49 0.33,0.34 0.81,0.52 1.42,0.52 h 17.6 c 0.6,0 1.06,-0.18 1.39,-0.52 0.35,-0.37 0.52,-0.86 0.52,-1.49 v -6.86 c 0,-2.12 -0.13,-3.65 -0.4,-4.6 -0.27,-0.97 -0.74,-1.84 -1.4,-2.61 -0.67,-0.55 -1.77,-0.92 -3.22,-1.08 -1.46,-0.16 -2.18,-0.64 -2.18,-1.45 0,-0.42 0.14,-0.76 0.43,-1.01 0.3,-0.24 0.68,-0.36 1.2,-0.36 0.08,0 1.05,0.08 2.84,0.27 1.82,0.18 3.56,0.29 5.27,0.29 2.48,0 5.1,-0.16 7.87,-0.47 0.63,-0.05 1.01,-0.08 1.15,-0.08 0.38,0 0.66,0.1 0.85,0.29 0.18,0.21 0.28,0.5 0.28,0.9 0,0.64 -0.47,1.13 -1.39,1.5 -0.94,0.37 -1.62,0.78 -2.05,1.23 -0.65,0.57 -1.1,1.24 -1.35,2.04 -0.26,0.8 -0.41,2.29 -0.41,4.52 v 26.57 c 0,1.75 0.27,3.17 0.79,4.26 0.46,1.11 1.27,1.87 2.28,2.33 0.34,0.2 0.91,0.38 1.68,0.56 1.33,0.3 1.99,0.87 1.99,1.61 0,0.53 -0.11,0.9 -0.35,1.13 -0.23,0.22 -0.6,0.34 -1.14,0.34 -0.31,0 -1.34,-0.09 -3.15,-0.24 -1.79,-0.2 -3.42,-0.27 -4.9,-0.27 -1.62,0 -3.43,0.08 -5.35,0.27 -1.91,0.16 -3,0.24 -3.26,0.24 -0.49,0 -0.88,-0.12 -1.12,-0.32 -0.28,-0.22 -0.42,-0.53 -0.42,-0.94 0,-0.67 0.6,-1.28 1.79,-1.82 0.45,-0.22 0.84,-0.41 1.1,-0.56 0.88,-0.66 1.53,-1.48 1.95,-2.48 0.42,-1.01 0.6,-2.3 0.6,-3.92 v -11.51 c 0,-0.62 -0.17,-1.12 -0.52,-1.46 -0.33,-0.37 -0.79,-0.54 -1.39,-0.54 h -17.6 c -0.61,0 -1.09,0.18 -1.42,0.54 -0.33,0.35 -0.48,0.85 -0.48,1.46 v 11.33 c 0,1.79 0.29,3.19 0.82,4.29 0.56,1.08 1.39,1.84 2.51,2.3 0.41,0.2 1.07,0.38 1.91,0.56 1.44,0.29 2.18,0.84 2.18,1.61 0,0.49 -0.12,0.87 -0.38,1.11 -0.26,0.24 -0.66,0.36 -1.19,0.36 -0.35,0 -1.5,-0.09 -3.46,-0.24 -1.94,-0.2 -3.73,-0.27 -5.29,-0.27 -1.65,0 -3.43,0.08 -5.34,0.27 -1.93,0.16 -3.03,0.24 -3.32,0.24 -0.48,0 -0.85,-0.12 -1.09,-0.32 -0.28,-0.22 -0.41,-0.53 -0.41,-0.94 0,-0.7 0.57,-1.3 1.72,-1.8 0.52,-0.23 0.91,-0.43 1.18,-0.58 0.87,-0.66 1.5,-1.48 1.92,-2.48 0.38,-1.01 0.59,-2.3 0.59,-3.92 v -26.1 c 0,-2.23 -0.11,-3.78 -0.35,-4.72 -0.24,-0.92 -0.69,-1.74 -1.34,-2.49 -0.68,-0.54 -1.75,-0.88 -3.21,-1.06 -1.5,-0.16 -2.25,-0.66 -2.25,-1.47 0,-0.42 0.16,-0.76 0.43,-1.01 0.29,-0.24 0.68,-0.36 1.2,-0.36 0.1,0 1.05,0.08 2.87,0.27 1.81,0.18 3.59,0.29 5.3,0.29 2.48,0 5.1,-0.16 7.79,-0.47 0.65,-0.05 1.02,-0.08 1.15,-0.08 0.38,0 0.7,0.1 0.9,0.29 0.2,0.21 0.29,0.5 0.29,0.9 0,0.64 -0.47,1.13 -1.41,1.5 -0.95,0.37 -1.66,0.78 -2.13,1.23 -0.6,0.56 -1.02,1.2 -1.25,1.96 -0.25,0.77 -0.37,2.07 -0.37,3.98 v 0.54 z m -9.18,-8.08 -0.15,0.26 c 1.06,0.54 1.79,1.33 2.24,2.32 0.44,1.02 0.66,2.44 0.66,4.29 v 25.97 c 0,2.69 -0.18,4.61 -0.54,5.8 -0.4,1.19 -0.99,2.25 -1.85,3.17 l 0.14,0.26 c 1.32,-0.61 2.27,-1.53 2.78,-2.75 0.54,-1.2 0.8,-3.43 0.8,-6.67 v -25.33 c 0,-2.18 -0.33,-3.84 -0.97,-4.96 -0.6,-1.1 -1.63,-1.9 -3.11,-2.36 m 28.99,0 -0.19,0.26 c 1.04,0.54 1.8,1.33 2.22,2.32 0.44,1.02 0.67,2.44 0.67,4.29 v 25.97 c 0,2.69 -0.18,4.61 -0.52,5.8 -0.37,1.19 -0.97,2.25 -1.84,3.17 l 0.12,0.26 c 1.34,-0.61 2.24,-1.53 2.78,-2.75 0.51,-1.2 0.76,-3.43 0.76,-6.67 v -25.33 c 0,-2.21 -0.29,-3.86 -0.92,-4.98 -0.58,-1.1 -1.61,-1.88 -3.08,-2.34"
   id="path66" />
	<path
   class="st1"
   d="m 678.76,365.07 v 26.57 c 0,1.91 0.29,3.38 0.79,4.45 0.54,1.06 1.35,1.75 2.46,2 0.44,0.24 1.15,0.46 2.07,0.65 1.46,0.34 2.18,0.91 2.18,1.65 0,0.49 -0.12,0.87 -0.42,1.11 -0.29,0.24 -0.75,0.36 -1.34,0.36 -0.29,0 -1.44,-0.09 -3.49,-0.24 -2.06,-0.2 -3.96,-0.27 -5.68,-0.27 -1.33,0 -2.9,0.08 -4.69,0.27 -1.8,0.16 -2.89,0.24 -3.3,0.24 -0.5,0 -0.88,-0.12 -1.13,-0.34 -0.26,-0.23 -0.39,-0.56 -0.39,-0.99 0,-0.67 0.63,-1.3 1.92,-1.85 0.53,-0.24 0.98,-0.44 1.25,-0.59 0.75,-0.45 1.32,-1.22 1.68,-2.29 0.38,-1.07 0.57,-2.38 0.57,-3.98 v -26.1 c 0,-2.56 -0.11,-4.24 -0.38,-5.04 -0.24,-0.8 -0.67,-1.48 -1.34,-2.03 -0.68,-0.56 -1.75,-0.95 -3.25,-1.15 -1.48,-0.19 -2.21,-0.71 -2.21,-1.52 0,-0.42 0.13,-0.76 0.43,-1.01 0.25,-0.24 0.63,-0.36 1.15,-0.36 0.1,0 0.41,0.03 0.9,0.08 1.88,0.26 3.62,0.4 5.19,0.4 3.81,0 7.23,-0.14 10.34,-0.42 0.35,-0.04 0.56,-0.05 0.61,-0.05 0.47,0 0.79,0.1 1,0.29 0.21,0.21 0.33,0.5 0.33,0.9 0,0.64 -0.53,1.13 -1.58,1.52 -1.04,0.38 -1.79,0.83 -2.2,1.34 -0.5,0.43 -0.86,1.14 -1.09,2.1 -0.26,0.95 -0.38,2.39 -0.38,4.3 m -9.12,-8.08 -0.13,0.26 c 1.04,0.54 1.8,1.33 2.26,2.32 0.44,1.02 0.67,2.44 0.67,4.29 v 25.97 c 0,2.69 -0.19,4.61 -0.56,5.8 -0.35,1.19 -0.98,2.25 -1.84,3.17 l 0.12,0.26 c 1.32,-0.61 2.26,-1.53 2.78,-2.75 0.53,-1.2 0.8,-3.43 0.8,-6.67 v -25.33 c 0,-2.18 -0.3,-3.84 -0.94,-4.96 -0.63,-1.1 -1.68,-1.9 -3.16,-2.36"
   id="path68" />
	<g
   id="g96">
		<path
   class="st1"
   d="m 340.02,417.25 0.39,0.46 c -1.78,0.15 -6.87,5.87 -7.72,5.95 0.23,0.77 -2.08,2.78 -3.01,3.55 -1.31,1.31 -2.01,2.55 -3.17,3.55 -0.54,0.7 -2.32,2.78 -2.86,3.55 -0.39,0.69 -2.01,2.93 -2.39,3.47 -2.32,2.55 -3.94,5.1 -6.25,7.72 -0.93,1 -5.64,6.95 -5.64,7.64 h -0.77 l 0.23,0.31 -1.54,1.31 -0.23,-0.08 0.31,0.46 -0.31,-0.23 -2.7,3.17 c -1.16,0.08 -0.93,0.54 -1.7,1.16 -0.7,0.62 -1.39,0.62 -1.78,0.85 -1.08,1.93 -3.47,3.32 -6.02,4.48 -4.48,2.08 -2.7,1.39 -7.26,1.54 l -1.85,-2.08 v -2.47 c -0.15,-1 0.08,0 -0.23,-0.77 0.08,0 2.86,-6.49 2.93,-6.72 0.39,-0.69 3.01,-5.48 4.09,-5.56 l -0.23,-0.15 4.86,-7.18 h 0.85 l -0.31,-0.23 9.88,-11.81 0.15,0.23 c -0.15,-0.85 3.55,-4.32 4.17,-5.17 0.85,-1.08 4.48,-4.48 4.48,-5.25 0,-0.62 -0.08,-0.62 -0.23,-1.08 l -0.93,-0.23 -7.49,5.02 h -1.16 l 0.23,0.46 c -0.69,0.08 -1.54,0.54 -1.85,0.77 -1.31,1.16 -0.23,0.31 -1.62,0.93 -0.69,0.23 -3.01,1.62 -3.24,1.7 -2.47,0.77 -5.25,2.32 -7.34,3.09 -3.47,1.31 -10.42,3.63 -13.74,3.94 l -3.71,0.23 c -2.47,0.23 -4.02,0.15 -6.49,-0.08 -1.62,-0.23 -2.86,-0.77 -4.32,-1.39 -2.01,-1.16 -2.08,-1.62 -3.63,-2.7 -2.55,3.63 -0.31,3.17 2.24,5.25 0.69,0.69 2.32,0.93 3.47,1.39 2.01,0.62 2.47,0.31 3.32,0.39 l 1.62,0.39 h 0.69 c 2.78,0 9.27,-2.47 11.2,-1.47 0.85,-1.16 1.85,-1.54 3.01,-1.85 0.23,0 1.08,-0.7 1.54,-0.77 0.46,-0.15 0.46,0.23 1.54,-0.39 1.08,-0.39 2.01,-0.7 3.24,-1.31 0.85,-0.31 1.31,-0.23 1.7,-0.54 0.62,-0.23 1.16,-0.62 1.78,-0.85 2.55,-0.77 12.59,-6.87 13.51,-6.87 l -4.94,5.87 -0.23,-0.23 c 0.39,0.77 -1.24,2.08 -2.16,2.78 -1.08,1.16 -1.54,1.62 -2.32,2.86 -0.85,1.54 -4.94,5.17 -4.56,6.1 h -0.69 l 0.23,0.23 -3.32,4.09 0.39,0.15 -0.62,0.08 -1,2.32 h -0.62 c -0.15,1.16 -0.23,0.93 -0.93,1.62 -1,0.93 -0.15,0.23 -0.7,1.24 -0.31,0.93 -1,2.16 -1.39,2.78 -1.08,2.08 -2.01,3.63 -2.32,5.48 -0.31,2.01 -0.93,3.24 -0.15,5.79 0.15,0.85 0.62,2.32 1.54,2.93 0.46,0.23 2.47,1.16 2.86,1.16 h 0.85 c 0.85,0 3.94,-0.93 5.25,-1.54 1.31,-0.85 4.32,-2.39 5.17,-3.24 0.77,-0.85 1.47,-0.93 2.32,-1.85 0.93,-0.69 1.39,-1.39 2.08,-2.08 1.31,-1.08 3.09,-3.01 4.4,-4.25 2.01,-2.09 14.82,-17.45 14.36,-18.45 h 0.69 c -0.54,-1.31 3.17,-3.55 2.86,-4.4 l 1.31,-1.24 3.78,-4.09 -0.23,-0.23 c 1,0 6.87,-6.56 9.11,-6.79 l -0.15,-0.46 c 0.46,-0.08 5.25,-2.78 5.33,-2.93 1,-0.77 3.24,-1.7 5.17,-2.47 1,-0.23 1.16,-0.69 2.24,-0.93 0.93,-0.31 2.39,-0.77 2.93,-1 1.31,-0.31 1.47,-0.46 2.7,-0.77 1.93,-0.39 1.47,-0.77 2.16,-1.85 -1.24,-1.78 -3.09,-1 -5.17,-0.15 -1.47,0.69 -3.71,1.24 -5.1,2.01 -1.08,0.54 -4.17,1.62 -5.48,2.55 -0.65,0.4 -4.9,3.18 -5.36,3.18"
   id="path70" />
		<path
   class="st1"
   d="m 308.06,464.73 c 2.24,-1.39 4.17,-2.7 5.25,-2.86 l -1.16,2.55 c 0.31,0.93 1,3.4 2.47,3.4 h 1.39 c 1.93,0 5.56,-1.78 8.96,-3.63 l -0.62,-1.39 c -0.15,0.08 -0.39,0.15 -0.54,0.23 -3.47,1.24 -4.71,3.24 -9.19,2.93 0.46,-1.16 -0.08,-2.08 1.62,-4.86 0.39,-0.62 1.16,-1.62 1.47,-2.08 0.62,-1 0.69,-1.16 1.24,-1.93 l -0.31,-0.85 -1.31,-0.46 c -0.46,1.24 -6.25,5.71 -7.72,6.41 -0.77,0.39 -1.39,0.54 -1.93,0.77 z m 15.82,-18.07 -0.08,1 c 0.15,0.23 0.39,0.77 0.77,0.77 1.16,0 2.24,-1.85 2.39,-2.93 l -1.47,-0.46 z"
   id="path72" />
		<path
   class="st1"
   d="m 326.9,460.95 3.78,-2.01 c -0.23,2.47 -5.17,6.49 -4.17,8.18 1,1.47 3.94,-0.31 5.4,-1 1.08,-0.54 2.08,-0.93 2.78,-1.16 0.46,-0.23 1.16,-1.08 2.47,-1.7 v 1.54 c -0.31,5.33 7.18,3.71 10.11,2.16 1.24,-0.7 2.32,-1.24 3.4,-1.93 l -0.39,-1.31 c -0.46,0.15 -1,0.46 -1.47,0.62 -0.93,0.46 -3.47,1.16 -3.94,1.78 l -1.08,-0.23 c -1,1.39 -2.93,0.62 -4.09,0.54 v -1.08 c -0.23,-2.32 2.08,-3.94 2.08,-5.17 0,-0.15 -0.62,-0.7 -0.77,-1 -1.54,1 -10.5,6.56 -11.43,6.18 -0.15,-0.31 0.39,-1.7 1.54,-1.78 -0.46,-1.08 3.55,-6.25 0.23,-6.25 -1.08,0 -3.71,1.78 -4.56,2.32 -0.15,0.15 -0.23,0.23 -0.31,0.23 z"
   id="path74" />
		<path
   class="st1"
   d="m 349.83,464.73 c 2.24,-1.39 4.17,-2.7 5.25,-2.86 l -1.16,2.55 c 0.31,0.93 1,3.4 2.47,3.4 h 1.39 c 1.93,0 5.56,-1.78 8.96,-3.63 l -0.62,-1.39 c -0.15,0.08 -0.39,0.15 -0.54,0.23 -3.47,1.24 -4.71,3.24 -9.19,2.93 0.46,-1.16 -0.08,-2.08 1.62,-4.86 0.39,-0.62 1.16,-1.62 1.47,-2.08 0.62,-1 0.69,-1.16 1.24,-1.93 l -0.31,-0.85 -1.31,-0.46 c -0.46,1.24 -6.25,5.71 -7.72,6.41 -0.77,0.39 -1.39,0.54 -1.93,0.77 z m 15.83,-18.07 -0.08,1 c 0.15,0.23 0.39,0.77 0.77,0.77 1.16,0 2.24,-1.85 2.39,-2.93 l -1.47,-0.46 z"
   id="path76" />
		<path
   class="st1"
   d="m 433.33,419.1 0.31,0.54 c -1.7,0.23 -4.79,3.94 -5.79,5.1 -2.39,2.78 -2.86,3.24 -4.02,6.41 -0.85,2.24 -1,3.55 -1.78,6.79 -0.54,2.16 -3.63,3.17 -5.87,4.56 -2.32,1.47 -4.63,2.63 -7.03,4.09 -1.85,1.08 -4.48,2.7 -6.41,3.78 -2.16,1 -11.89,7.57 -13.44,7.72 v 0.54 c -3.55,0.85 -7.8,-2.24 -12.2,-3.24 -1.24,0.77 -1.54,1.47 -1.54,2.7 v 0.77 c 0,2.55 4.25,4.32 4.32,5.64 l -10.35,6.33 0.08,0.15 -1.47,1.47 0.15,0.77 2.01,-0.77 -0.15,-0.23 9.19,-5.95 0.08,0.15 -0.31,-0.46 c 1.7,-0.15 0.93,-1 2.01,-1 h 0.31 c 0.15,0 3.55,0.93 4.79,1.08 1.85,0.31 3.71,0.39 6.1,0.39 l 0.85,0.23 4.71,-0.46 2.63,-0.23 c 0.54,-0.31 4.79,-1.62 6.49,-2.24 1.93,-0.93 2.01,-0.93 3.71,-1.93 0.85,-0.46 2.78,-1.85 3.71,-2.01 1.7,-0.31 5.33,-1 6.79,-1.31 2.32,-0.39 6.64,-1.93 7.26,-2.86 -0.7,-0.46 -10.58,3.4 -12.82,2.47 0.77,-1.16 2.78,-3.09 3.17,-4.09 0.15,-0.39 1.16,-1.62 1.47,-2.32 0.15,-0.23 0.69,-1.78 1,-2.47 0.7,-2.08 2.93,-9.03 2.47,-10.04 1.16,-0.39 14.05,-8.42 14.75,-9.11 1.08,-1 2.08,-1.78 3.47,-2.63 1.08,-0.7 2.08,-1.93 3.09,-2.93 1.62,-1.62 4.63,-4.63 4.63,-6.87 l 0.15,-1.54 c -2.93,-2.01 -2.63,-1.31 -5.1,-1.31 -1.7,0 -3.47,0.85 -5.79,1.62 -1.85,0.61 -3.7,2.62 -5.63,2.7 m 0,1.85 c 0.31,0 6.02,-3.55 7.8,-4.09 3.47,-1.39 4.48,-1.31 7.72,-0.46 -0.46,1.08 0.15,1.08 -1,3.47 -0.62,1 -1.93,2.24 -2.86,3.01 -2.24,1.85 -3.78,4.09 -6.33,5.64 -0.77,0.46 -3.24,1.93 -3.4,2.16 -1.08,0.85 -2.01,1.78 -3.32,2.55 -1.16,0.69 -6.72,4.09 -7.18,3.94 -0.39,-0.77 1,-5.33 1.54,-6.64 0.23,-0.62 0.93,-2.01 1.31,-2.55 0.39,-0.77 2.01,-2.39 1.7,-3.01 1.54,-0.15 2.08,-3.4 4.32,-3.55 z M 413.1,445.2 c 2.01,-0.15 7.03,-4.56 8.34,-4.02 l -0.54,0.69 c 0.54,2.63 -3.24,10.81 -3.94,11.97 -1.62,2.08 -2.16,3.78 -4.79,5.17 -1.16,0.77 -5.1,0.62 -6.95,0.62 h -0.15 l -3.55,0.23 c -0.77,0.08 -0.69,0.08 -1.62,0 l -2.47,-0.08 -6.87,-0.31 v -0.62 c 0.31,-0.08 10.19,-6.02 11.12,-6.64 1.93,-1.16 3.86,-2.01 5.79,-3.32 0.93,-0.7 4.94,-3.17 5.95,-3.17 z m -35.44,12.43 v -0.77 h 0.77 c 0.08,0 4.01,1.54 4.17,1.62 1.39,0.46 3.32,0.85 4.17,1.16 -0.54,0.77 -4.4,3.78 -5.48,3.71 -0.31,0 -2.32,-1.54 -2.7,-2.08 -1.09,-1.71 -0.93,-1.94 -0.93,-3.64 z m 15.98,7.8 c -1.7,0 -3.47,0.39 -4.79,0.23 -1.08,-0.31 -2.16,-0.23 -3.55,-0.46 -2.01,-0.46 -2.16,-0.62 -2.55,-1.78 1.85,-0.15 4.94,-3.78 6.72,-3.4 2.24,0.39 6.1,0.85 7.72,0.85 h 1.24 6.79 l 4.86,-0.15 c -1.16,1.62 -6.56,3.32 -8.03,3.63 -3.01,0.54 -5.63,1.08 -8.41,1.08 z"
   id="path78" />
		<path
   class="st1"
   d="m 425.68,464.73 c 2.24,-1.39 4.17,-2.7 5.25,-2.86 l -1.16,2.55 c 0.31,0.93 1,3.4 2.47,3.4 h 1.39 c 1.93,0 5.56,-1.78 8.96,-3.63 l -0.62,-1.39 c -0.15,0.08 -0.39,0.15 -0.54,0.23 -3.47,1.24 -4.71,3.24 -9.19,2.93 0.46,-1.16 -0.08,-2.08 1.62,-4.86 0.39,-0.62 1.16,-1.62 1.47,-2.08 0.62,-1 0.69,-1.16 1.24,-1.93 l -0.31,-0.85 -1.31,-0.46 c -0.46,1.24 -6.25,5.71 -7.72,6.41 -0.77,0.39 -1.39,0.54 -1.93,0.77 z m 15.83,-18.07 -0.08,1 c 0.15,0.23 0.39,0.77 0.77,0.77 1.16,0 2.24,-1.85 2.39,-2.93 l -1.47,-0.46 z"
   id="path80" />
		<path
   class="st1"
   d="m 444.52,460.95 3.78,-2.01 c -0.23,2.47 -5.17,6.49 -4.17,8.18 1,1.47 3.94,-0.31 5.4,-1 1.08,-0.54 2.08,-0.93 2.78,-1.16 0.46,-0.23 1.16,-1.08 2.47,-1.7 v 1.54 c -0.31,5.33 7.18,3.71 10.11,2.16 1.24,-0.7 2.32,-1.24 3.4,-1.93 l -0.39,-1.31 c -0.46,0.15 -1,0.46 -1.47,0.62 -0.93,0.46 -3.47,1.16 -3.94,1.78 l -1.08,-0.23 c -1,1.39 -2.93,0.62 -4.09,0.54 v -1.08 c -0.23,-2.32 2.08,-3.94 2.08,-5.17 0,-0.15 -0.62,-0.7 -0.77,-1 -1.54,1 -10.5,6.56 -11.43,6.18 -0.15,-0.31 0.39,-1.7 1.54,-1.78 -0.46,-1.08 3.55,-6.25 0.23,-6.25 -1.08,0 -3.71,1.78 -4.56,2.32 -0.15,0.15 -0.23,0.23 -0.31,0.23 z"
   id="path82" />
		<path
   class="st1"
   d="m 464.83,467.05 c 1.93,-0.93 3.4,-2.08 3.71,-2.08 0.77,0 0.23,1.16 0,1.54 l 0.62,1 1.16,0.54 6.72,-2.63 -1.78,2.24 -10.81,6.87 0.31,0.46 -0.23,-0.23 -3.09,2.47 0.23,0.31 -0.23,-0.23 -3.55,3.01 -0.15,-0.15 c -0.15,1.93 -8.72,8.49 -8.72,16.37 1.93,3.01 2.32,4.17 6.56,1.78 2.24,-1.39 4.25,-3.86 5.87,-6.02 1.62,-2.24 2.78,-3.86 4.48,-6.02 1.78,-2.39 2.7,-4.25 4.32,-6.49 1.7,-2.24 3.24,-4.86 4.79,-7.34 2.24,-3.55 1.85,-3.78 5.41,-5.87 2.08,-1.24 4.25,-2.55 6.56,-4.01 l -0.08,-1.54 c -3.4,2.01 -6.49,3.63 -6.79,3.71 0.69,-1.39 1.7,-2.55 2.39,-3.94 1.31,-2.78 0.31,-1.62 -1.16,-2.24 -0.31,0.7 -2.7,4.02 -4.09,4.09 l 0.23,0.54 c -1.31,0.15 -4.01,3.47 -6.41,2.55 1.31,-2.7 3.01,-4.25 5.71,-5.33 0.69,-0.23 2.47,-1.39 3.47,-1.85 1.54,-0.77 2.78,-2.55 0.85,-2.55 h -0.77 c -0.77,0 -3.86,1.54 -4.4,2.01 -1.39,1.16 -2.08,1.54 -3.55,2.93 -0.93,0.93 -5.56,3.32 -7.64,4.32 z m 8.26,3.7 c -0.08,1.31 -6.79,10.81 -7.49,12.82 -1.08,2.47 -8.42,10.96 -8.65,11.97 -1.16,0.15 -2.24,1.31 -2.93,1.7 -1.08,0.46 -1.39,0 -2.93,-0.15 -0.62,-2.55 -0.23,-4.02 0.93,-6.41 0.85,-1.7 1.16,-1.62 2.16,-3.01 0.77,-1.08 1.16,-2.47 2.32,-2.63 -0.46,-0.93 5.25,-6.56 6.1,-6.18 0.31,-1.16 4.32,-4.56 5.71,-4.63 l -0.23,-0.46 z"
   id="path84" />
		<path
   class="st1"
   d="m 477.8,466.97 v 0 l 0.15,-0.62 0.23,0.23 6.56,-3.17 -0.23,-0.39 3.32,-1.85 -2.08,4.56 1.7,2.24 2.39,0.08 c 1.16,0 4.48,-2.7 5.33,-3.4 1.54,-1.16 1.7,-2.86 2.55,-3.55 l 1.16,-1.85 c -1,-1.62 -1.16,-5.33 -3.4,-3.01 0.23,0.54 0.85,2.08 0.85,2.78 0,1.78 -1.93,4.17 -3.17,5.33 -0.69,0.62 -2.16,1.54 -2.7,1.62 -1.85,0.39 -1.31,0.7 -2.24,-0.69 0.93,-1.47 1,-2.39 2.7,-4.56 1.24,-1.54 3.78,-2.39 4.25,-4.17 h -0.54 v -0.54 h -1.7 c -0.54,1.62 -9.5,6.41 -10.58,6.72 -0.85,0.31 -3.17,1.54 -4.71,2.24 z"
   id="path86" />
		<path
   class="st1"
   d="m 522.97,436.39 c -0.54,-1.16 6.72,-7.41 8.03,-8.8 1.54,-1.47 3.24,-2.63 5.02,-3.86 0.77,-0.46 5.4,-3.09 5.4,-1 0,4.63 -8.88,13.51 -11.43,17.53 -0.93,1.31 -3.17,2.7 -3.71,3.24 -0.54,0.54 -2.01,2.39 -3.17,3.55 -1,1.08 -6.87,6.64 -7.95,6.72 l 0.31,0.54 -3.78,2.47 c 0,-2.7 3.47,-9.96 3.94,-10.58 1,-1.39 2.16,-3.55 3.17,-4.79 0.77,-1 3.17,-3.47 2.78,-4.48 z m -24.94,29.73 c 0.93,-0.31 1.85,-0.54 2.7,-0.54 l 7.8,-4.71 c 0.39,0.23 0.77,3.47 2.24,5.33 1.93,2.16 4.71,1.62 6.25,1.62 0.46,0 4.79,-1.7 6.1,-2.32 1.16,-0.46 4.25,-2.63 5.71,-3.32 l -0.54,-1.31 c -1.16,0.69 -1.85,1 -3.32,1.85 -3.24,1.93 -6.33,3.32 -10.66,3.32 -1.47,-1 -2.39,-0.77 -3.17,-3.47 -0.54,-1.85 -0.23,-2.24 0.31,-4.25 1.62,-0.15 8.88,-6.72 10.5,-8.11 4.02,-3.32 5.95,-6.1 9.34,-9.42 0.7,-0.7 3.24,-3.71 4.09,-4.79 1.24,-1.78 2.63,-3.86 3.86,-5.48 1.24,-1.39 2.24,-3.24 2.78,-5.17 1.08,-3.24 2.47,-2.78 -1.16,-5.33 -1,0.77 -2.93,1.16 -4.32,1.85 -0.77,0.39 -3.63,1.93 -3.71,2.01 -2.24,2.24 -4.86,3.86 -7.18,6.18 -2.39,2.47 -4.17,4.32 -6.49,6.95 -0.77,0.93 -2.08,2.93 -2.47,3.63 -0.54,0.93 -1.85,2.47 -2.39,3.55 -1.16,2.63 -2.93,5.25 -3.86,7.8 -0.54,1.47 -0.85,2.39 -1.31,4.09 -0.54,2.32 0.39,2.55 -1.7,3.94 -2.78,1.85 -5.48,2.86 -8.18,4.09 -0.46,0.15 -0.93,0.39 -1.39,0.62 z"
   id="path88" />
		<path
   class="st1"
   d="m 527.06,464.35 c -0.77,-1.78 6.95,-6.02 9.73,-6.02 -1.62,1.07 -7.64,7.02 -9.73,6.02 m 15.75,-1.01 c -0.7,0.31 -1.93,0.46 -2.78,0.93 -1.39,0.69 -2.78,0.54 -3.55,1.08 -1.54,-2.78 1.78,-3.71 2.01,-6.33 l -1.31,-0.85 c 1.08,0 1.54,0.31 2.01,-0.08 0.15,-0.15 0.69,-1 0.69,-1.47 0,-0.15 -0.54,-0.69 -0.69,-0.93 l -2.24,-0.39 c -0.77,0.39 -3.78,0.62 -4.32,0.77 -1.54,0.54 -3.01,2.55 -4.56,1.78 l -0.31,0.69 c -1.62,-0.31 -0.62,0.7 -1.7,1.85 -0.69,0.77 -1.78,1.85 -1.85,3.01 -0.23,2.24 0.77,3.94 1.16,4.09 0.23,0 1.7,-0.54 1.93,-0.62 0.7,-0.15 1.39,-0.15 2.01,-0.46 1.62,-0.93 2.78,-1.93 4.09,-2.78 0.15,2.47 1.7,3.86 3.63,3.86 h 0.69 c 0.15,0 4.4,-1.39 5.56,-1.78 z"
   id="path90" />
		<path
   class="st1"
   d="m 544.9,466.97 c 0.15,-0.15 0.23,-0.23 0.39,-0.31 2.47,-1.24 8.34,-5.56 9.73,-8.11 l 2.62,1.54 c -0.77,1.31 -5.25,5.25 -1.7,7.26 2.55,1.47 3.94,0.77 6.02,0 l 0.15,-2.01 c -2.55,1.08 -4.94,1.62 -4.94,0 v -0.31 c 0,-2.08 4.56,-4.25 4.32,-7.57 -0.93,0.39 -3.4,1.62 -3.94,-0.31 -0.62,-2.47 2.32,-2.08 0.69,-3.94 l -1.24,0.62 c 0.08,0.46 -2.86,3.71 -3.71,4.71 -0.62,0.7 -1.85,1.31 -2.78,2.32 -1.24,1.16 -1.54,1.08 -2.7,2.08 -0.54,0.46 -2.01,1.31 -3.55,2.01 z"
   id="path92" />
		<path
   class="st1"
   d="m 564.36,464.73 c 2.24,-1.39 4.17,-2.7 5.25,-2.86 l -1.16,2.55 c 0.31,0.93 1,3.4 2.47,3.4 h 1.39 c 1.93,0 5.56,-1.78 8.96,-3.63 l -0.62,-1.39 c -0.15,0.08 -0.39,0.15 -0.54,0.23 -3.47,1.24 -4.71,3.24 -9.19,2.93 0.46,-1.16 -0.08,-2.08 1.62,-4.86 0.39,-0.62 1.16,-1.62 1.47,-2.08 0.62,-1 0.7,-1.16 1.24,-1.93 l -0.31,-0.85 -1.31,-0.46 c -0.46,1.24 -6.25,5.71 -7.72,6.41 -0.77,0.39 -1.39,0.54 -1.93,0.77 z m 15.82,-18.07 -0.08,1 c 0.15,0.23 0.39,0.77 0.77,0.77 1.16,0 2.24,-1.85 2.39,-2.93 l -1.47,-0.46 z"
   id="path94" />
	</g>
</g>
</svg>
