<?xml version="1.0" encoding="UTF-8"?>
<svg width="202.23" height="25.18" version="1.1" viewBox="0 0 202.23 25.18" xmlns="http://www.w3.org/2000/svg">
    <g transform="translate(-.3 .01)">
        <path class="st0" d="m99.66 12.64c0 1.46-0.24 2.92-0.72 4.4-0.48 1.47-1.18 2.82-2.1 4.02-0.92 1.21-2.03 2.19-3.33 2.96s-2.78 1.15-4.42 1.15h-26.2c-1.57-0.08-2.97-0.51-4.2-1.29-1.23-0.79-2.27-1.77-3.13-2.96s-1.52-2.51-1.98-3.97-0.69-2.89-0.69-4.31c0-1.46 0.24-2.92 0.72-4.4 0.48-1.47 1.18-2.82 2.1-4.02 0.92-1.21 2.03-2.19 3.33-2.96s2.78-1.15 4.42-1.15h26.2c1.57 0.08 2.97 0.51 4.19 1.29 1.23 0.79 2.27 1.77 3.13 2.96s1.52 2.51 1.98 3.97c0.47 1.46 0.7 2.89 0.7 4.31m-11.78 7.01c1.3 0 2.38-0.24 3.22-0.72s1.5-1.06 1.98-1.75 0.8-1.45 0.98-2.27c0.17-0.82 0.26-1.58 0.26-2.27s-0.09-1.45-0.26-2.27-0.5-1.58-0.98-2.27-1.14-1.27-1.98-1.75-1.92-0.72-3.22-0.72h-23.22c-1.34 0-2.42 0.24-3.25 0.72-0.82 0.48-1.47 1.06-1.95 1.75s-0.8 1.45-0.98 2.27c-0.17 0.82-0.26 1.58-0.26 2.27s0.09 1.45 0.26 2.27 0.5 1.58 0.98 2.27 1.13 1.27 1.95 1.75 1.91 0.72 3.25 0.72zm-72.41-7.01c0-0.77 0.27-1.42 0.8-1.95 0.54-0.54 1.19-0.8 1.95-0.8h22.01c0.96 0 1.86 0.18 2.7 0.55 0.84 0.36 1.58 0.86 2.21 1.49s1.12 1.38 1.47 2.24c0.34 0.86 0.52 1.77 0.52 2.73v1.26c0 0.96-0.17 1.87-0.52 2.73-0.34 0.86-0.83 1.61-1.47 2.24-0.63 0.63-1.37 1.13-2.21 1.49s-1.74 0.55-2.7 0.55h-29.93c-1.57 0-2.97-0.38-4.2-1.15s-2.27-1.75-3.13-2.96-1.52-2.56-1.98-4.05-0.69-2.95-0.69-4.37c0-1.46 0.24-2.92 0.72-4.4 0.48-1.47 1.18-2.82 2.1-4.02 0.92-1.21 2.03-2.19 3.33-2.96s2.78-1.15 4.42-1.15h33.5c0.77 0 1.42 0.27 1.95 0.8 0.54 0.54 0.8 1.19 0.8 1.95 0 0.77-0.27 1.42-0.8 1.95-0.54 0.54-1.19 0.8-1.95 0.8h-32.23c-1.34 0-2.42 0.24-3.25 0.72-0.82 0.5-1.48 1.08-1.95 1.77-0.48 0.69-0.8 1.45-0.98 2.27-0.17 0.83-0.26 1.58-0.26 2.27s0.09 1.45 0.26 2.27 0.5 1.58 0.98 2.27 1.13 1.27 1.95 1.75 1.91 0.72 3.25 0.72h27.87c0.46 0 0.87-0.21 1.24-0.63 0.36-0.42 0.55-0.92 0.55-1.49s-0.16-1.07-0.49-1.49-0.76-0.63-1.29-0.63h-21.79c-0.77 0-1.42-0.27-1.95-0.8-0.54-0.55-0.81-1.2-0.81-1.97z"/>
        <path class="st1" d="m197.03 2.76c0-0.77 0.27-1.42 0.8-1.95 0.54-0.54 1.19-0.8 1.95-0.8 0.77 0 1.42 0.27 1.95 0.8 0.54 0.54 0.8 1.19 0.8 1.95v16.72c0 1.57-0.53 2.89-1.58 3.97-1.05 1.07-2.37 1.61-3.94 1.61-0.54 0-1.06-0.08-1.58-0.23s-0.99-0.36-1.41-0.63l-26.3-16.1c-0.73-0.42-1.33-0.76-1.81-1.01s-0.87-0.37-1.18-0.37c-0.57 0-0.94 0.36-1.09 1.09s-0.23 1.78-0.23 3.16v11.33c0 0.77-0.27 1.42-0.8 1.95-0.54 0.54-1.19 0.8-1.95 0.8-0.77 0-1.42-0.27-1.95-0.8-0.54-0.54-0.8-1.19-0.8-1.95v-16.73c0-1.57 0.53-2.89 1.58-3.97 1.05-1.07 2.37-1.61 3.94-1.61 0.54 0 1.06 0.08 1.58 0.23s0.99 0.36 1.41 0.63l26.32 16.09c0.73 0.42 1.33 0.76 1.81 1.01s0.87 0.37 1.18 0.37c0.57 0 0.94-0.36 1.09-1.09s0.23-1.78 0.23-3.16v-11.31zm-44.88 9.77c0 1.46-0.24 2.92-0.72 4.4s-1.18 2.82-2.1 4.02c-0.92 1.21-2.03 2.19-3.33 2.96s-2.78 1.15-4.42 1.15h-26.2c-1.57-0.08-2.97-0.51-4.2-1.29-1.23-0.79-2.27-1.77-3.13-2.96s-1.52-2.51-1.98-3.97-0.69-2.89-0.69-4.31c0-1.46 0.24-2.92 0.72-4.4 0.48-1.47 1.18-2.82 2.1-4.02 0.92-1.21 2.03-2.19 3.33-2.96s2.78-1.15 4.42-1.15h26.2c1.57 0.08 2.97 0.51 4.19 1.29 1.23 0.79 2.27 1.77 3.13 2.96s1.52 2.51 1.98 3.97c0.47 1.45 0.7 2.89 0.7 4.31zm-11.79 7.01c1.3 0 2.38-0.24 3.22-0.72s1.5-1.06 1.98-1.75 0.8-1.45 0.98-2.27c0.17-0.82 0.26-1.58 0.26-2.27s-0.09-1.45-0.26-2.27-0.5-1.58-0.98-2.27-1.14-1.27-1.98-1.75-1.92-0.72-3.22-0.72h-23.22c-1.34 0-2.42 0.24-3.25 0.72-0.82 0.48-1.47 1.06-1.95 1.75s-0.8 1.45-0.98 2.27c-0.17 0.82-0.26 1.58-0.26 2.27s0.09 1.45 0.26 2.27 0.5 1.58 0.98 2.27 1.13 1.27 1.95 1.75 1.91 0.72 3.25 0.72z"/>
    </g>
</svg>
