<?xml version="1.0" encoding="UTF-8"?>
<svg width="727.95" height="608.85" data-name="Camada 1" version="1.1" viewBox="0 0 727.95 608.85" xmlns="http://www.w3.org/2000/svg">
    <defs>
        <style>.cls-1,.cls-8,.cls-9{fill:none;}.cls-1,.cls-10,.cls-12,.cls-13,.cls-2,.cls-3,.cls-8{stroke:#1a2e35;}.cls-1,.cls-10,.cls-9{stroke-miterlimit:10;}.cls-16,.cls-2{fill:#2f302d;}.cls-12,.cls-13,.cls-19,.cls-2,.cls-3,.cls-8{stroke-linecap:round;stroke-linejoin:round;}.cls-10,.cls-11,.cls-3,.cls-4{fill:#fff;}.cls-5{fill:#d1d1d1;}.cls-6{fill:#b0b0b0;}.cls-7{fill:#ababab;}.cls-9{stroke:#ccc;}.cls-11{opacity:0.5;}.cls-12{fill:#fc4d00;}.cls-13,.cls-14,.cls-19{fill:#1a2e35;}.cls-15{clip-path:url(#b);}.cls-17{clip-path:url(#a);}.cls-18{opacity:0.3;}.cls-19{stroke:#fc4d00;}</style>
        <clipPath id="b">
            <circle class="cls-1" cx="134.1" cy="486.89" r="42.6"/>
        </clipPath>
        <clipPath id="a">
            <path class="cls-2" d="m289.84 308.25s-54.73 63.36-62.18 71.8-12.9 14.89-12.9 14.89 5 30.77 46.66 36.23l37.85-45.49-15.52 46s-2.48 5.46 22.34 13.4 33.25 4.47 33.25 4.47 21.48-53.43 30.41-64.35 24.33-21.84 24.82-34.75-5-26.31-5-26.31-6-12.9-41.7-19.85-58.03 3.96-58.03 3.96z"/>
        </clipPath>
    </defs>
    <path class="cls-3" d="m653.47 268.59a9.19 9.19 0 0 1-5.12-1.23 6.66 6.66 0 0 1-2.65-3.43 15 15 0 0 1-0.79-5.09v-1.11h6.41v1.11a13 13 0 0 0 0.19 2.5 2.5 2.5 0 0 0 0.69 1.4 2 2 0 0 0 1.38 0.44 1.76 1.76 0 0 0 1.33-0.46 2.6 2.6 0 0 0 0.59-1.38 14.58 14.58 0 0 0 0.16-2.3 7.73 7.73 0 0 0-0.64-3.51 2.75 2.75 0 0 0-2.63-1.25h-1.19v-4.41h1a3 3 0 0 0 2.72-1.11 6.76 6.76 0 0 0 0.7-3.46 6.33 6.33 0 0 0-0.48-2.76 1.82 1.82 0 0 0-1.79-1 1.61 1.61 0 0 0-1.67 1.08 7.9 7.9 0 0 0-0.4 2.76v1.62h-6.41v-1.88a10.07 10.07 0 0 1 1-4.74 6.77 6.77 0 0 1 2.92-2.93 9.57 9.57 0 0 1 4.54-1 10.15 10.15 0 0 1 4.6 1 6.78 6.78 0 0 1 3 2.82 9.4 9.4 0 0 1 1 4.62 8.72 8.72 0 0 1-1.12 4.57 4.61 4.61 0 0 1-2.68 2.26 5.25 5.25 0 0 1 1.93 1.23 5.78 5.78 0 0 1 1.37 2.28 11.42 11.42 0 0 1 0.5 3.66 14.18 14.18 0 0 1-0.83 5 6.9 6.9 0 0 1-2.71 3.43 8.87 8.87 0 0 1-4.92 1.27z"/>
    <path d="m582.9 46.731s-74.51-65.55-175.51-41.38c-101 24.17-145.88 108.74-205.36 165.83-31.14 29.89-75.89 39.7-112.41 62.25-116.79 72.12-106.17 244.21-20.61 312.12 74.06 58.79 169 68.11 294.21 31.32s214.72-58.38 295.79-173.87 15.43-267.66-76.11-356.27z"/>
    <path class="cls-4" d="m582.9 46.731s-74.51-65.55-175.51-41.38c-101 24.17-145.88 108.74-205.36 165.83-31.14 29.89-75.89 39.7-112.41 62.25-116.79 72.12-106.17 244.21-20.61 312.12 74.06 58.79 169 68.11 294.21 31.32s214.72-58.38 295.79-173.87 15.43-267.66-76.11-356.27z"/>
    <path class="cls-5" d="m644.02 384.55a6.12 6.12 0 1 1-6.12-6.12 6.12 6.12 0 0 1 6.12 6.12z"/>
    <path class="cls-5" d="m652.49 368.08a6.12 6.12 0 1 1-6.1-6.08 6.12 6.12 0 0 1 6.1 6.08z"/>
    <path class="cls-6" d="m665.19 384.55a6.12 6.12 0 1 1-6.11-6.12 6.12 6.12 0 0 1 6.11 6.12z"/>
    <path class="cls-6" d="m635.08 371.85a6.12 6.12 0 1 1-6.12-6.12 6.12 6.12 0 0 1 6.12 6.12z"/>
    <path class="cls-5" d="m680.25 378a6.12 6.12 0 1 1-6.12-6.11 6.12 6.12 0 0 1 6.12 6.11z"/>
    <path class="cls-6" d="m671.31 365.26a6.12 6.12 0 1 1-6.12-6.12 6.12 6.12 0 0 1 6.12 6.12z"/>
    <path class="cls-5" d="m288.29 356.79a6.12 6.12 0 1 1-6.11-6.12 6.11 6.11 0 0 1 6.11 6.12z"/>
    <path class="cls-5" d="m296.76 340.32a6.12 6.12 0 1 1-6.11-6.12 6.11 6.11 0 0 1 6.11 6.12z"/>
    <path class="cls-6" d="m309.47 356.79a6.12 6.12 0 1 1-6.12-6.12 6.12 6.12 0 0 1 6.12 6.12z"/>
    <path class="cls-6" d="m279.39 344.08a6.12 6.12 0 1 1-6.11-6.11 6.11 6.11 0 0 1 6.11 6.11z"/>
    <path class="cls-5" d="m557.91 361a6.12 6.12 0 1 1-6.12-6.11 6.12 6.12 0 0 1 6.12 6.11z"/>
    <path class="cls-5" d="m566.39 344.56a6.12 6.12 0 1 1-6.12-6.12 6.12 6.12 0 0 1 6.12 6.12z"/>
    <path class="cls-6" d="m579.09 361a6.12 6.12 0 1 1-6.12-6.11 6.12 6.12 0 0 1 6.12 6.11z"/>
    <path class="cls-6" d="m548.97 348.32a6.12 6.12 0 1 1-6.12-6.12 6.12 6.12 0 0 1 6.12 6.12z"/>
    <path class="cls-5" d="m616.26 402a6.12 6.12 0 1 1-6.12-6.12 6.12 6.12 0 0 1 6.12 6.12z"/>
    <path class="cls-5" d="m624.73 385.49a6.12 6.12 0 1 1-6.12-6.12 6.12 6.12 0 0 1 6.12 6.12z"/>
    <path class="cls-6" d="m637.39 402a6.12 6.12 0 1 1-6.12-6.12 6.12 6.12 0 0 1 6.12 6.12z"/>
    <path class="cls-6" d="m607.32 389.26a6.12 6.12 0 1 1-6.12-6.12 6.12 6.12 0 0 1 6.12 6.12z"/>
    <circle class="cls-5" cx="652.49" cy="417.49" r="6.12"/>
    <path class="cls-5" d="m667.08 401a6.12 6.12 0 1 1-6.12-6.12 6.12 6.12 0 0 1 6.12 6.12z"/>
    <path class="cls-6" d="m679.78 417.49a6.12 6.12 0 1 1-6.12-6.12 6.12 6.12 0 0 1 6.12 6.12z"/>
    <path class="cls-6" d="m649.67 404.78a6.12 6.12 0 1 1-6.12-6.11 6.12 6.12 0 0 1 6.12 6.11z"/>
    <path class="cls-5" d="m607.79 378.9a6.12 6.12 0 1 1-6.12-6.11 6.12 6.12 0 0 1 6.12 6.11z"/>
    <path class="cls-5" d="m616.26 362.44a6.12 6.12 0 1 1-6.12-6.12 6.12 6.12 0 0 1 6.12 6.12z"/>
    <path class="cls-6" d="m628.96 378.9a6.12 6.12 0 1 1-6.11-6.11 6.12 6.12 0 0 1 6.11 6.11z"/>
    <path class="cls-6" d="m598.85 366.2a6.12 6.12 0 1 1-6.12-6.12 6.12 6.12 0 0 1 6.12 6.12z"/>
    <path class="cls-5" d="m558.85 393a6.12 6.12 0 1 1-6.11-6.12 6.12 6.12 0 0 1 6.11 6.12z"/>
    <path class="cls-5" d="m567.32 376.55a6.12 6.12 0 1 1-6.11-6.12 6.12 6.12 0 0 1 6.11 6.12z"/>
    <path class="cls-6" d="m580.03 393a6.12 6.12 0 1 1-6.12-6.12 6.12 6.12 0 0 1 6.12 6.12z"/>
    <path class="cls-6" d="m549.91 380.32a6.12 6.12 0 1 1-6.11-6.12 6.12 6.12 0 0 1 6.11 6.12z"/>
    <path class="cls-5" d="m593.67 415.61a6.12 6.12 0 1 1-6.11-6.12 6.12 6.12 0 0 1 6.11 6.12z"/>
    <path class="cls-5" d="m602.14 399.14a6.12 6.12 0 1 1-6.12-6.12 6.11 6.11 0 0 1 6.12 6.12z"/>
    <path class="cls-6" d="m614.85 415.61a6.12 6.12 0 1 1-6.12-6.12 6.12 6.12 0 0 1 6.12 6.12z"/>
    <path class="cls-6" d="m584.73 402.9a6.12 6.12 0 1 1-6.12-6.12 6.12 6.12 0 0 1 6.12 6.12z"/>
    <path class="cls-5" d="m586.14 378.9a6.12 6.12 0 1 1-6.11-6.11 6.12 6.12 0 0 1 6.11 6.11z"/>
    <path class="cls-5" d="m594.61 362.44a6.12 6.12 0 1 1-6.11-6.12 6.12 6.12 0 0 1 6.11 6.12z"/>
    <path class="cls-6" d="m607.32 378.9a6.12 6.12 0 1 1-6.12-6.11 6.12 6.12 0 0 1 6.12 6.11z"/>
    <path class="cls-6" d="m577.2 366.2a6.12 6.12 0 1 1-6.11-6.12 6.12 6.12 0 0 1 6.11 6.12z"/>
    <path class="cls-5" d="m636.96 372.32a6.12 6.12 0 1 1-6.12-6.12 6.12 6.12 0 0 1 6.12 6.12z"/>
    <path class="cls-5" d="m645.39 355.85a6.12 6.12 0 1 1-6.12-6.12 6.11 6.11 0 0 1 6.12 6.12z"/>
    <path class="cls-6" d="m658.14 372.32a6.12 6.12 0 1 1-6.12-6.12 6.12 6.12 0 0 1 6.12 6.12z"/>
    <path class="cls-6" d="m628.02 359.61a6.12 6.12 0 1 1-6.12-6.11 6.12 6.12 0 0 1 6.12 6.11z"/>
    <path class="cls-5" d="m538.15 368.55a6.12 6.12 0 1 1-6.12-6.11 6.12 6.12 0 0 1 6.12 6.11z"/>
    <path class="cls-5" d="m546.62 352.08a6.12 6.12 0 1 1-6.12-6.11 6.12 6.12 0 0 1 6.12 6.11z"/>
    <path class="cls-6" d="m559.32 368.55a6.12 6.12 0 1 1-6.11-6.11 6.12 6.12 0 0 1 6.11 6.11z"/>
    <path class="cls-6" d="m529.21 355.85a6.12 6.12 0 1 1-6.12-6.12 6.11 6.11 0 0 1 6.12 6.12z"/>
    <path class="cls-5" d="m512.74 394a6.12 6.12 0 1 1-6.12-6.12 6.12 6.12 0 0 1 6.12 6.12z"/>
    <path class="cls-5" d="m521.21 377.49a6.12 6.12 0 1 1-6.12-6.11 6.12 6.12 0 0 1 6.12 6.11z"/>
    <path class="cls-6" d="m533.91 394a6.12 6.12 0 1 1-6.11-6.12 6.11 6.11 0 0 1 6.11 6.12z"/>
    <path class="cls-6" d="m503.8 381.26a6.12 6.12 0 1 1-6.12-6.12 6.11 6.11 0 0 1 6.12 6.12z"/>
    <path class="cls-5" d="m548.5 410.9a6.12 6.12 0 1 1-6.12-6.12 6.12 6.12 0 0 1 6.12 6.12z"/>
    <circle class="cls-5" cx="550.85" cy="394.43" r="6.12"/>
    <path class="cls-6" d="m569.67 410.9a6.12 6.12 0 1 1-6.11-6.12 6.11 6.11 0 0 1 6.11 6.12z"/>
    <path class="cls-6" d="m539.56 398.2a6.12 6.12 0 1 1-6.12-6.12 6.12 6.12 0 0 1 6.12 6.12z"/>
    <path class="cls-5" d="m476.04 410.43a6.12 6.12 0 1 1-6.12-6.12 6.12 6.12 0 0 1 6.12 6.12z"/>
    <path class="cls-5" d="m484.51 394a6.12 6.12 0 1 1-6.12-6.12 6.12 6.12 0 0 1 6.12 6.12z"/>
    <path class="cls-6" d="m497.21 410.43a6.12 6.12 0 1 1-6.11-6.12 6.12 6.12 0 0 1 6.11 6.12z"/>
    <path class="cls-6" d="m467.1 397.73a6.12 6.12 0 1 1-6.12-6.12 6.12 6.12 0 0 1 6.12 6.12z"/>
    <path class="cls-5" d="m489.21 376.55a6.12 6.12 0 1 1-6.11-6.12 6.12 6.12 0 0 1 6.11 6.12z"/>
    <path class="cls-5" d="m497.68 360.08a6.12 6.12 0 1 1-6.11-6.11 6.12 6.12 0 0 1 6.11 6.11z"/>
    <path class="cls-6" d="m510.39 376.55a6.12 6.12 0 1 1-6.12-6.12 6.12 6.12 0 0 1 6.12 6.12z"/>
    <path class="cls-6" d="m480.27 363.85a6.12 6.12 0 1 1-6.11-6.12 6.11 6.11 0 0 1 6.11 6.12z"/>
    <path class="cls-5" d="m513.68 359.61a6.12 6.12 0 1 1-6.12-6.11 6.12 6.12 0 0 1 6.12 6.11z"/>
    <path class="cls-5" d="m522.15 343.14a6.12 6.12 0 1 1-6.12-6.11 6.12 6.12 0 0 1 6.12 6.11z"/>
    <path class="cls-6" d="m534.86 359.61a6.12 6.12 0 1 1-6.12-6.11 6.12 6.12 0 0 1 6.12 6.11z"/>
    <path class="cls-6" d="m504.74 346.91a6.12 6.12 0 1 1-6.12-6.12 6.11 6.11 0 0 1 6.12 6.12z"/>
    <path class="cls-5" d="m448.75 361.49a6.12 6.12 0 1 1-6.12-6.11 6.12 6.12 0 0 1 6.12 6.11z"/>
    <path class="cls-5" d="m457.22 345a6.12 6.12 0 1 1-6.12-6.12 6.12 6.12 0 0 1 6.12 6.12z"/>
    <path class="cls-6" d="m469.92 361.49a6.12 6.12 0 1 1-6.12-6.11 6.12 6.12 0 0 1 6.12 6.11z"/>
    <path class="cls-6" d="m439.81 348.79a6.12 6.12 0 1 1-6.12-6.12 6.12 6.12 0 0 1 6.12 6.12z"/>
    <path class="cls-5" d="m433.69 390.67a6.12 6.12 0 1 1-6.12-6.12 6.11 6.11 0 0 1 6.12 6.12z"/>
    <path class="cls-5" d="m442.16 374.2a6.12 6.12 0 1 1-6.12-6.12 6.12 6.12 0 0 1 6.12 6.12z"/>
    <path class="cls-6" d="m454.86 390.67a6.12 6.12 0 1 1-6.11-6.12 6.1 6.1 0 0 1 6.11 6.12z"/>
    <path class="cls-6" d="m424.75 378a6.12 6.12 0 1 1-6.12-6.11 6.12 6.12 0 0 1 6.12 6.11z"/>
    <path class="cls-5" d="m462.86 391.61a6.12 6.12 0 1 1-6.11-6.12 6.12 6.12 0 0 1 6.11 6.12z"/>
    <path class="cls-5" d="m471.33 375.14a6.12 6.12 0 1 1-6.11-6.12 6.12 6.12 0 0 1 6.11 6.12z"/>
    <path class="cls-6" d="m484.04 391.61a6.12 6.12 0 1 1-6.12-6.12 6.12 6.12 0 0 1 6.12 6.12z"/>
    <path class="cls-6" d="m453.92 378.9a6.12 6.12 0 1 1-6.11-6.11 6.12 6.12 0 0 1 6.11 6.11z"/>
    <path class="cls-5" d="m415.81 406.67a6.12 6.12 0 1 1-6.12-6.12 6.12 6.12 0 0 1 6.12 6.12z"/>
    <path class="cls-5" d="m424.28 390.2a6.12 6.12 0 1 1-6.12-6.12 6.11 6.11 0 0 1 6.12 6.12z"/>
    <path class="cls-6" d="m436.98 406.67a6.12 6.12 0 1 1-6.11-6.12 6.11 6.11 0 0 1 6.11 6.12z"/>
    <path class="cls-6" d="m406.87 394a6.12 6.12 0 1 1-6.12-6.12 6.12 6.12 0 0 1 6.12 6.12z"/>
    <path class="cls-5" d="m424.28 370a6.12 6.12 0 1 1-6.12-6.11 6.12 6.12 0 0 1 6.12 6.11z"/>
    <path class="cls-5" d="m432.75 353.5a6.12 6.12 0 1 1-6.12-6.12 6.12 6.12 0 0 1 6.12 6.12z"/>
    <path class="cls-6" d="m445.45 370a6.12 6.12 0 1 1-6.11-6.11 6.12 6.12 0 0 1 6.11 6.11z"/>
    <path class="cls-6" d="m415.39 357.26a6.12 6.12 0 1 1-6.12-6.12 6.12 6.12 0 0 1 6.12 6.12z"/>
    <path class="cls-5" d="m380.99 371.85a6.12 6.12 0 1 1-6.12-6.12 6.12 6.12 0 0 1 6.12 6.12z"/>
    <path class="cls-5" d="m389.46 355.38a6.12 6.12 0 1 1-6.12-6.12 6.11 6.11 0 0 1 6.12 6.12z"/>
    <path class="cls-6" d="m402.16 371.85a6.12 6.12 0 1 1-6.11-6.12 6.11 6.11 0 0 1 6.11 6.12z"/>
    <path class="cls-6" d="m372.05 359.14a6.12 6.12 0 1 1-6.12-6.12 6.12 6.12 0 0 1 6.12 6.12z"/>
    <path class="cls-5" d="m374.39 410.43a6.12 6.12 0 1 1-6.11-6.12 6.12 6.12 0 0 1 6.11 6.12z"/>
    <path class="cls-5" d="m382.87 394a6.12 6.12 0 1 1-6.11-6.12 6.12 6.12 0 0 1 6.11 6.12z"/>
    <path class="cls-6" d="m395.58 410.43a6.12 6.12 0 1 1-6.12-6.12 6.12 6.12 0 0 1 6.12 6.12z"/>
    <path class="cls-6" d="m365.46 397.73a6.12 6.12 0 1 1-6.11-6.12 6.12 6.12 0 0 1 6.11 6.12z"/>
    <path class="cls-5" d="m324.53 388.31a6.12 6.12 0 1 1-6.14-6.11 6.12 6.12 0 0 1 6.14 6.11z"/>
    <path class="cls-5" d="m333 371.85a6.12 6.12 0 1 1-6.12-6.12 6.12 6.12 0 0 1 6.12 6.12z"/>
    <path class="cls-6" d="m345.7 388.31a6.12 6.12 0 1 1-6.12-6.11 6.12 6.12 0 0 1 6.12 6.11z"/>
    <path class="cls-6" d="m315.59 375.61a6.12 6.12 0 1 1-6.12-6.12 6.12 6.12 0 0 1 6.12 6.12z"/>
    <path class="cls-5" d="m324.53 369.49a6.12 6.12 0 1 1-6.12-6.11 6.12 6.12 0 0 1 6.12 6.11z"/>
    <path class="cls-5" d="m333 353a6.12 6.12 0 1 1-6.12-6.11 6.12 6.12 0 0 1 6.12 6.11z"/>
    <path class="cls-6" d="m345.7 369.49a6.12 6.12 0 1 1-6.12-6.11 6.12 6.12 0 0 1 6.12 6.11z"/>
    <path class="cls-6" d="m315.59 356.79a6.12 6.12 0 1 1-6.12-6.12 6.12 6.12 0 0 1 6.12 6.12z"/>
    <path class="cls-5" d="m283.12 389.73a6.12 6.12 0 1 1-6.12-6.12 6.12 6.12 0 0 1 6.12 6.12z"/>
    <path class="cls-5" d="m291.59 373.26a6.12 6.12 0 1 1-6.12-6.12 6.11 6.11 0 0 1 6.12 6.12z"/>
    <path class="cls-6" d="m304.29 389.73a6.12 6.12 0 1 1-6.11-6.12 6.12 6.12 0 0 1 6.11 6.12z"/>
    <path class="cls-6" d="m274.18 377a6.12 6.12 0 1 1-6.12-6.11 6.12 6.12 0 0 1 6.12 6.11z"/>
    <path class="cls-5" d="m604.96 356.79a6.12 6.12 0 1 1-6.11-6.12 6.11 6.11 0 0 1 6.11 6.12z"/>
    <path class="cls-5" d="m613.39 340.32a6.12 6.12 0 1 1-6.11-6.12 6.11 6.11 0 0 1 6.11 6.12z"/>
    <path class="cls-6" d="m626.14 356.79a6.12 6.12 0 1 1-6.12-6.12 6.12 6.12 0 0 1 6.12 6.12z"/>
    <path class="cls-6" d="m596.02 344.08a6.12 6.12 0 1 1-6.11-6.11 6.11 6.11 0 0 1 6.11 6.11z"/>
    <path class="cls-5" d="m250.18 396.78a6.12 6.12 0 1 1-6.12-6.11 6.12 6.12 0 0 1 6.12 6.11z"/>
    <path class="cls-5" d="m258.65 380.32a6.12 6.12 0 1 1-6.12-6.12 6.12 6.12 0 0 1 6.12 6.12z"/>
    <path class="cls-6" d="m271.39 396.78a6.12 6.12 0 1 1-6.12-6.11 6.12 6.12 0 0 1 6.12 6.11z"/>
    <path class="cls-6" d="m241.24 384.08a6.12 6.12 0 1 1-6.12-6.12 6.12 6.12 0 0 1 6.12 6.12z"/>
    <path class="cls-5" d="m264.3 370.43a6.12 6.12 0 1 1-6.12-6.11 6.12 6.12 0 0 1 6.12 6.11z"/>
    <path class="cls-5" d="m272.77 354a6.12 6.12 0 1 1-6.12-6.12 6.12 6.12 0 0 1 6.12 6.12z"/>
    <path class="cls-6" d="m285.47 370.43a6.12 6.12 0 1 1-6.12-6.11 6.12 6.12 0 0 1 6.12 6.11z"/>
    <path class="cls-6" d="m255.39 357.73a6.12 6.12 0 1 1-6.12-6.12 6.12 6.12 0 0 1 6.12 6.12z"/>
    <circle class="cls-5" cx="216.3" cy="359.14" r="6.12"/>
    <path class="cls-5" d="m230.89 342.67a6.12 6.12 0 1 1-6.12-6.11 6.12 6.12 0 0 1 6.12 6.11z"/>
    <path class="cls-6" d="m243.59 359.14a6.12 6.12 0 1 1-6.11-6.12 6.12 6.12 0 0 1 6.11 6.12z"/>
    <path class="cls-6" d="m213.48 346.44a6.12 6.12 0 1 1-6.12-6.12 6.11 6.11 0 0 1 6.12 6.12z"/>
    <path class="cls-5" d="m303.39 368.55a6.12 6.12 0 1 1-6.12-6.11 6.12 6.12 0 0 1 6.12 6.11z"/>
    <path class="cls-5" d="m311.82 352.08a6.12 6.12 0 1 1-6.12-6.11 6.12 6.12 0 0 1 6.12 6.11z"/>
    <path class="cls-6" d="m324.53 368.55a6.12 6.12 0 1 1-6.12-6.11 6.12 6.12 0 0 1 6.12 6.11z"/>
    <path class="cls-6" d="m294.39 355.85a6.12 6.12 0 1 1-6.12-6.12 6.11 6.11 0 0 1 6.12 6.12z"/>
    <path class="cls-5" d="m216.3 402.43a6.12 6.12 0 1 1-6.11-6.12 6.12 6.12 0 0 1 6.11 6.12z"/>
    <path class="cls-5" d="m224.77 386a6.12 6.12 0 1 1-6.11-6.11 6.12 6.12 0 0 1 6.11 6.11z"/>
    <path class="cls-6" d="m237.48 402.43a6.12 6.12 0 1 1-6.12-6.12 6.12 6.12 0 0 1 6.12 6.12z"/>
    <path class="cls-6" d="m207.39 389.73a6.12 6.12 0 1 1-6.11-6.12 6.12 6.12 0 0 1 6.11 6.12z"/>
    <path class="cls-5" d="m183.39 404.31a6.12 6.12 0 1 1-6.11-6.11 6.11 6.11 0 0 1 6.11 6.11z"/>
    <path class="cls-5" d="m191.83 387.84a6.12 6.12 0 1 1-6.11-6.11 6.11 6.11 0 0 1 6.11 6.11z"/>
    <path class="cls-6" d="m204.54 404.31a6.12 6.12 0 1 1-6.15-6.11 6.12 6.12 0 0 1 6.15 6.11z"/>
    <path class="cls-6" d="m174.39 391.61a6.12 6.12 0 1 1-6.11-6.12 6.11 6.11 0 0 1 6.11 6.12z"/>
    <path class="cls-5" d="m194.66 373.39c0 3-2.74 5.51-6.12 5.51s-6.12-2.47-6.12-5.51 2.74-5.52 6.12-5.52 6.12 2.47 6.12 5.52z"/>
    <path class="cls-5" d="m203.13 358.54c0 3-2.74 5.52-6.12 5.52s-6.12-2.47-6.12-5.52 2.74-5.52 6.12-5.52 6.12 2.47 6.12 5.52z"/>
    <path class="cls-6" d="m215.83 373.39c0 3-2.74 5.51-6.12 5.51s-6.11-2.47-6.11-5.51 2.74-5.52 6.11-5.52 6.12 2.47 6.12 5.52z"/>
    <path class="cls-6" d="m185.72 361.93c0 3.05-2.74 5.52-6.12 5.52s-6.12-2.47-6.12-5.52 2.74-5.51 6.12-5.51 6.12 2.47 6.12 5.51z"/>
    <path class="cls-5" d="m659.55 356.79a6.12 6.12 0 1 1-6.12-6.12 6.12 6.12 0 0 1 6.12 6.12z"/>
    <path class="cls-5" d="m668.02 340.32a6.12 6.12 0 1 1-6.12-6.12 6.12 6.12 0 0 1 6.12 6.12z"/>
    <path class="cls-6" d="m680.72 356.79a6.12 6.12 0 1 1-6.12-6.12 6.12 6.12 0 0 1 6.12 6.12z"/>
    <path class="cls-6" d="m650.61 344.08a6.12 6.12 0 1 1-6.12-6.08 6.12 6.12 0 0 1 6.12 6.08z"/>
    <path class="cls-5" d="m341.46 405.25a6.12 6.12 0 1 1-6.11-6.11 6.11 6.11 0 0 1 6.11 6.11z"/>
    <path class="cls-5" d="m349.93 388.79a6.12 6.12 0 1 1-6.11-6.12 6.11 6.11 0 0 1 6.11 6.12z"/>
    <path class="cls-6" d="m362.64 405.25a6.12 6.12 0 1 1-6.12-6.11 6.12 6.12 0 0 1 6.12 6.11z"/>
    <path class="cls-6" d="m332.52 392.55a6.12 6.12 0 1 1-6.11-6.12 6.11 6.11 0 0 1 6.11 6.12z"/>
    <path class="cls-5" d="m346.64 378a6.12 6.12 0 1 1-6.12-6.11 6.12 6.12 0 0 1 6.12 6.11z"/>
    <path class="cls-5" d="m355.11 361.49a6.12 6.12 0 1 1-6.12-6.11 6.12 6.12 0 0 1 6.12 6.11z"/>
    <path class="cls-6" d="m367.81 378a6.12 6.12 0 1 1-6.11-6.11 6.11 6.11 0 0 1 6.11 6.11z"/>
    <path class="cls-6" d="m337.7 365.26a6.12 6.12 0 1 1-6.12-6.12 6.12 6.12 0 0 1 6.12 6.12z"/>
    <path class="cls-5" d="m644.02 320.06a6.12 6.12 0 1 1-6.12-6.12 6.12 6.12 0 0 1 6.12 6.12z"/>
    <path class="cls-5" d="m652.49 303.59a6.12 6.12 0 1 1-6.12-6.11 6.12 6.12 0 0 1 6.12 6.11z"/>
    <path class="cls-6" d="m665.19 320.06a6.12 6.12 0 1 1-6.11-6.12 6.12 6.12 0 0 1 6.11 6.12z"/>
    <path class="cls-6" d="m635.08 307.36a6.12 6.12 0 1 1-6.12-6.12 6.11 6.11 0 0 1 6.12 6.12z"/>
    <path class="cls-5" d="m680.25 313.47a6.12 6.12 0 1 1-6.12-6.11 6.12 6.12 0 0 1 6.12 6.11z"/>
    <path class="cls-5" d="m688.72 297a6.12 6.12 0 1 1-6.12-6.11 6.12 6.12 0 0 1 6.12 6.11z"/>
    <path class="cls-6" d="m671.31 300.77a6.12 6.12 0 1 1-6.12-6.12 6.12 6.12 0 0 1 6.12 6.12z"/>
    <path class="cls-5" d="m288.29 292.3a6.12 6.12 0 1 1-6.11-6.12 6.11 6.11 0 0 1 6.11 6.12z"/>
    <path class="cls-5" d="m296.76 275.83a6.12 6.12 0 1 1-6.11-6.12 6.11 6.11 0 0 1 6.11 6.12z"/>
    <path class="cls-6" d="m309.47 292.3a6.12 6.12 0 1 1-6.12-6.12 6.12 6.12 0 0 1 6.12 6.12z"/>
    <path class="cls-6" d="m279.39 279.6a6.12 6.12 0 1 1-6.11-6.12 6.11 6.11 0 0 1 6.11 6.12z"/>
    <path class="cls-5" d="m557.91 296.53a6.12 6.12 0 1 1-6.12-6.11 6.12 6.12 0 0 1 6.12 6.11z"/>
    <path class="cls-5" d="m566.39 280.07a6.12 6.12 0 1 1-6.12-6.12 6.12 6.12 0 0 1 6.12 6.12z"/>
    <path class="cls-6" d="m579.09 296.53a6.12 6.12 0 1 1-6.12-6.11 6.12 6.12 0 0 1 6.12 6.11z"/>
    <path class="cls-6" d="m548.97 283.83a6.12 6.12 0 1 1-6.12-6.12 6.12 6.12 0 0 1 6.12 6.12z"/>
    <path class="cls-5" d="m616.26 337.47a6.12 6.12 0 1 1-6.12-6.12 6.12 6.12 0 0 1 6.12 6.12z"/>
    <path class="cls-5" d="m624.73 321a6.12 6.12 0 1 1-6.12-6.11 6.12 6.12 0 0 1 6.12 6.11z"/>
    <path class="cls-6" d="m637.39 337.47a6.12 6.12 0 1 1-6.12-6.12 6.12 6.12 0 0 1 6.12 6.12z"/>
    <path class="cls-6" d="m607.32 324.77a6.12 6.12 0 1 1-6.12-6.12 6.11 6.11 0 0 1 6.12 6.12z"/>
    <path class="cls-5" d="m658.61 353a6.12 6.12 0 1 1-6.12-6.12 6.12 6.12 0 0 1 6.12 6.12z"/>
    <path class="cls-5" d="m667.08 336.53a6.12 6.12 0 1 1-6.12-6.12 6.12 6.12 0 0 1 6.12 6.12z"/>
    <path class="cls-6" d="m679.78 353a6.12 6.12 0 1 1-6.12-6.12 6.12 6.12 0 0 1 6.12 6.12z"/>
    <path class="cls-6" d="m649.67 340.29a6.12 6.12 0 1 1-6.12-6.11 6.12 6.12 0 0 1 6.12 6.11z"/>
    <path class="cls-5" d="m607.79 314.41a6.12 6.12 0 1 1-6.12-6.11 6.12 6.12 0 0 1 6.12 6.11z"/>
    <path class="cls-5" d="m616.26 298a6.12 6.12 0 1 1-6.12-6.12 6.12 6.12 0 0 1 6.12 6.12z"/>
    <path class="cls-6" d="m628.96 314.41a6.12 6.12 0 1 1-6.11-6.11 6.12 6.12 0 0 1 6.11 6.11z"/>
    <path class="cls-6" d="m598.85 301.71a6.12 6.12 0 1 1-6.12-6.12 6.12 6.12 0 0 1 6.12 6.12z"/>
    <path class="cls-5" d="m558.85 328.53a6.12 6.12 0 1 1-6.11-6.12 6.12 6.12 0 0 1 6.11 6.12z"/>
    <path class="cls-5" d="m567.32 312.06a6.12 6.12 0 1 1-6.11-6.11 6.12 6.12 0 0 1 6.11 6.11z"/>
    <path class="cls-6" d="m580.03 328.53a6.12 6.12 0 1 1-6.12-6.12 6.12 6.12 0 0 1 6.12 6.12z"/>
    <path class="cls-6" d="m549.91 315.83a6.12 6.12 0 1 1-6.11-6.12 6.12 6.12 0 0 1 6.11 6.12z"/>
    <path class="cls-5" d="m593.67 351.12a6.12 6.12 0 1 1-6.11-6.12 6.12 6.12 0 0 1 6.11 6.12z"/>
    <path class="cls-5" d="m602.14 334.65a6.12 6.12 0 1 1-6.12-6.12 6.11 6.11 0 0 1 6.12 6.12z"/>
    <path class="cls-6" d="m614.85 351.12a6.12 6.12 0 1 1-6.12-6.12 6.12 6.12 0 0 1 6.12 6.12z"/>
    <path class="cls-6" d="m584.73 338.41a6.12 6.12 0 1 1-6.12-6.11 6.12 6.12 0 0 1 6.12 6.11z"/>
    <path class="cls-5" d="m586.14 314.41a6.12 6.12 0 1 1-6.11-6.11 6.12 6.12 0 0 1 6.11 6.11z"/>
    <path class="cls-5" d="m594.61 298a6.12 6.12 0 1 1-6.11-6.12 6.12 6.12 0 0 1 6.11 6.12z"/>
    <path class="cls-6" d="m607.32 314.41a6.12 6.12 0 1 1-6.12-6.11 6.12 6.12 0 0 1 6.12 6.11z"/>
    <path class="cls-6" d="m577.2 301.71a6.12 6.12 0 1 1-6.11-6.12 6.12 6.12 0 0 1 6.11 6.12z"/>
    <path class="cls-5" d="m636.96 307.83a6.12 6.12 0 1 1-6.12-6.12 6.11 6.11 0 0 1 6.12 6.12z"/>
    <path class="cls-5" d="m645.39 291.36a6.12 6.12 0 1 1-6.12-6.12 6.12 6.12 0 0 1 6.12 6.12z"/>
    <path class="cls-6" d="m658.14 307.83a6.12 6.12 0 1 1-6.12-6.12 6.11 6.11 0 0 1 6.12 6.12z"/>
    <path class="cls-6" d="m628.02 295.12a6.12 6.12 0 1 1-6.12-6.11 6.12 6.12 0 0 1 6.12 6.11z"/>
    <path class="cls-5" d="m538.15 304.06a6.12 6.12 0 1 1-6.12-6.11 6.12 6.12 0 0 1 6.12 6.11z"/>
    <path class="cls-5" d="m546.62 287.59a6.12 6.12 0 1 1-6.12-6.11 6.12 6.12 0 0 1 6.12 6.11z"/>
    <path class="cls-6" d="m559.32 304.06a6.12 6.12 0 1 1-6.11-6.11 6.12 6.12 0 0 1 6.11 6.11z"/>
    <path class="cls-6" d="m529.21 291.36a6.12 6.12 0 1 1-6.12-6.12 6.12 6.12 0 0 1 6.12 6.12z"/>
    <path class="cls-5" d="m512.74 329.47a6.12 6.12 0 1 1-6.12-6.11 6.12 6.12 0 0 1 6.12 6.11z"/>
    <path class="cls-5" d="m521.21 313a6.12 6.12 0 1 1-6.12-6.11 6.12 6.12 0 0 1 6.12 6.11z"/>
    <path class="cls-6" d="m533.91 329.47a6.12 6.12 0 1 1-6.11-6.11 6.11 6.11 0 0 1 6.11 6.11z"/>
    <path class="cls-6" d="m503.8 316.77a6.12 6.12 0 1 1-6.12-6.12 6.11 6.11 0 0 1 6.12 6.12z"/>
    <path class="cls-5" d="m548.5 346.41a6.12 6.12 0 1 1-6.12-6.12 6.12 6.12 0 0 1 6.12 6.12z"/>
    <path class="cls-5" d="m556.97 329.94a6.12 6.12 0 1 1-6.12-6.11 6.12 6.12 0 0 1 6.12 6.11z"/>
    <path class="cls-6" d="m569.67 346.41a6.12 6.12 0 1 1-6.11-6.12 6.11 6.11 0 0 1 6.11 6.12z"/>
    <path class="cls-6" d="m539.56 333.71a6.12 6.12 0 1 1-6.12-6.12 6.11 6.11 0 0 1 6.12 6.12z"/>
    <path class="cls-5" d="m476.04 345.94a6.12 6.12 0 1 1-6.12-6.12 6.12 6.12 0 0 1 6.12 6.12z"/>
    <path class="cls-5" d="m484.51 329.47a6.12 6.12 0 1 1-6.12-6.11 6.12 6.12 0 0 1 6.12 6.11z"/>
    <path class="cls-6" d="m497.21 345.94a6.12 6.12 0 1 1-6.11-6.12 6.12 6.12 0 0 1 6.11 6.12z"/>
    <path class="cls-6" d="m467.1 333.24a6.12 6.12 0 1 1-6.12-6.12 6.12 6.12 0 0 1 6.12 6.12z"/>
    <path class="cls-5" d="m489.21 312.06a6.12 6.12 0 1 1-6.11-6.11 6.12 6.12 0 0 1 6.11 6.11z"/>
    <path class="cls-5" d="m497.68 295.59a6.12 6.12 0 1 1-6.11-6.11 6.12 6.12 0 0 1 6.11 6.11z"/>
    <path class="cls-6" d="m510.39 312.06a6.12 6.12 0 1 1-6.12-6.11 6.12 6.12 0 0 1 6.12 6.11z"/>
    <path class="cls-6" d="m480.27 299.36a6.12 6.12 0 1 1-6.11-6.12 6.11 6.11 0 0 1 6.11 6.12z"/>
    <path class="cls-5" d="m513.68 295.12a6.12 6.12 0 1 1-6.12-6.11 6.12 6.12 0 0 1 6.12 6.11z"/>
    <path class="cls-5" d="m522.15 278.65a6.12 6.12 0 1 1-6.12-6.11 6.12 6.12 0 0 1 6.12 6.11z"/>
    <path class="cls-6" d="m534.86 295.12a6.12 6.12 0 1 1-6.12-6.11 6.12 6.12 0 0 1 6.12 6.11z"/>
    <path class="cls-6" d="m504.74 282.42a6.12 6.12 0 1 1-6.12-6.12 6.12 6.12 0 0 1 6.12 6.12z"/>
    <path class="cls-5" d="m448.75 297a6.12 6.12 0 1 1-6.12-6.11 6.12 6.12 0 0 1 6.12 6.11z"/>
    <path class="cls-5" d="m457.22 280.54a6.12 6.12 0 1 1-6.12-6.12 6.12 6.12 0 0 1 6.12 6.12z"/>
    <path class="cls-6" d="m469.92 297a6.12 6.12 0 1 1-6.12-6.11 6.12 6.12 0 0 1 6.12 6.11z"/>
    <path class="cls-6" d="m439.81 284.3a6.12 6.12 0 1 1-6.12-6.12 6.12 6.12 0 0 1 6.12 6.12z"/>
    <path class="cls-5" d="m433.69 326.18a6.12 6.12 0 1 1-6.12-6.12 6.12 6.12 0 0 1 6.12 6.12z"/>
    <path class="cls-5" d="m442.16 309.71a6.12 6.12 0 1 1-6.12-6.12 6.12 6.12 0 0 1 6.12 6.12z"/>
    <path class="cls-6" d="m454.86 326.18a6.12 6.12 0 1 1-6.11-6.12 6.11 6.11 0 0 1 6.11 6.12z"/>
    <path class="cls-6" d="m424.75 313.47a6.12 6.12 0 1 1-6.12-6.11 6.12 6.12 0 0 1 6.12 6.11z"/>
    <path class="cls-5" d="m462.86 327.12a6.12 6.12 0 1 1-6.11-6.12 6.12 6.12 0 0 1 6.11 6.12z"/>
    <path class="cls-5" d="m471.33 310.65a6.12 6.12 0 1 1-6.11-6.12 6.12 6.12 0 0 1 6.11 6.12z"/>
    <path class="cls-6" d="m484.04 327.12a6.12 6.12 0 1 1-6.12-6.12 6.12 6.12 0 0 1 6.12 6.12z"/>
    <path class="cls-6" d="m453.92 314.41a6.12 6.12 0 1 1-6.11-6.11 6.12 6.12 0 0 1 6.11 6.11z"/>
    <path class="cls-5" d="m415.81 342.18a6.12 6.12 0 1 1-6.12-6.12 6.12 6.12 0 0 1 6.12 6.12z"/>
    <path class="cls-5" d="m424.28 325.71a6.12 6.12 0 1 1-6.12-6.12 6.11 6.11 0 0 1 6.12 6.12z"/>
    <path class="cls-6" d="m436.98 342.18a6.12 6.12 0 1 1-6.11-6.12 6.11 6.11 0 0 1 6.11 6.12z"/>
    <path class="cls-6" d="m406.87 329.47a6.12 6.12 0 1 1-6.12-6.11 6.12 6.12 0 0 1 6.12 6.11z"/>
    <path class="cls-5" d="m424.28 305.47a6.12 6.12 0 1 1-6.12-6.11 6.12 6.12 0 0 1 6.12 6.11z"/>
    <path class="cls-5" d="m432.75 289a6.12 6.12 0 1 1-6.12-6.12 6.12 6.12 0 0 1 6.12 6.12z"/>
    <path class="cls-6" d="m445.45 305.47a6.12 6.12 0 1 1-6.11-6.11 6.12 6.12 0 0 1 6.11 6.11z"/>
    <path class="cls-6" d="m415.39 292.77a6.12 6.12 0 1 1-6.12-6.12 6.12 6.12 0 0 1 6.12 6.12z"/>
    <path class="cls-5" d="m380.99 307.36a6.12 6.12 0 1 1-6.12-6.12 6.11 6.11 0 0 1 6.12 6.12z"/>
    <path class="cls-5" d="m389.46 290.89a6.12 6.12 0 1 1-6.12-6.12 6.11 6.11 0 0 1 6.12 6.12z"/>
    <path class="cls-6" d="m402.16 307.36a6.12 6.12 0 1 1-6.11-6.12 6.1 6.1 0 0 1 6.11 6.12z"/>
    <path class="cls-6" d="m372.05 294.65a6.12 6.12 0 1 1-6.12-6.11 6.12 6.12 0 0 1 6.12 6.11z"/>
    <path class="cls-5" d="m374.39 345.94a6.12 6.12 0 1 1-6.11-6.12 6.12 6.12 0 0 1 6.11 6.12z"/>
    <path class="cls-5" d="m382.87 329.47a6.12 6.12 0 1 1-6.11-6.11 6.12 6.12 0 0 1 6.11 6.11z"/>
    <path class="cls-6" d="m395.58 345.94a6.12 6.12 0 1 1-6.12-6.12 6.12 6.12 0 0 1 6.12 6.12z"/>
    <path class="cls-6" d="m365.46 333.24a6.12 6.12 0 1 1-6.11-6.12 6.12 6.12 0 0 1 6.11 6.12z"/>
    <path class="cls-5" d="m324.53 323.83a6.12 6.12 0 1 1-6.12-6.12 6.12 6.12 0 0 1 6.12 6.12z"/>
    <path class="cls-5" d="m333 307.36a6.12 6.12 0 1 1-6.12-6.12 6.11 6.11 0 0 1 6.12 6.12z"/>
    <path class="cls-6" d="m345.7 323.83a6.12 6.12 0 1 1-6.12-6.12 6.12 6.12 0 0 1 6.12 6.12z"/>
    <path class="cls-6" d="m315.59 311.12a6.12 6.12 0 1 1-6.12-6.12 6.12 6.12 0 0 1 6.12 6.12z"/>
    <path class="cls-5" d="m324.53 305a6.12 6.12 0 1 1-6.12-6.11 6.12 6.12 0 0 1 6.12 6.11z"/>
    <path class="cls-5" d="m333 288.54a6.12 6.12 0 1 1-6.12-6.12 6.12 6.12 0 0 1 6.12 6.12z"/>
    <path class="cls-6" d="m345.7 305a6.12 6.12 0 1 1-6.12-6.11 6.12 6.12 0 0 1 6.12 6.11z"/>
    <path class="cls-6" d="m315.59 292.3a6.12 6.12 0 1 1-6.12-6.12 6.12 6.12 0 0 1 6.12 6.12z"/>
    <path class="cls-5" d="m283.12 325.24a6.12 6.12 0 1 1-6.12-6.12 6.11 6.11 0 0 1 6.12 6.12z"/>
    <path class="cls-5" d="m291.59 308.77a6.12 6.12 0 1 1-6.12-6.12 6.12 6.12 0 0 1 6.12 6.12z"/>
    <path class="cls-6" d="m304.29 325.24a6.12 6.12 0 1 1-6.11-6.12 6.11 6.11 0 0 1 6.11 6.12z"/>
    <path class="cls-6" d="m274.18 312.53a6.12 6.12 0 1 1-6.12-6.11 6.12 6.12 0 0 1 6.12 6.11z"/>
    <path class="cls-5" d="m604.96 292.3a6.12 6.12 0 1 1-6.11-6.12 6.11 6.11 0 0 1 6.11 6.12z"/>
    <path class="cls-5" d="m613.39 275.83a6.12 6.12 0 1 1-6.11-6.12 6.11 6.11 0 0 1 6.11 6.12z"/>
    <path class="cls-6" d="m626.14 292.3a6.12 6.12 0 1 1-6.12-6.12 6.12 6.12 0 0 1 6.12 6.12z"/>
    <path class="cls-6" d="m596.02 279.6a6.12 6.12 0 1 1-6.11-6.12 6.11 6.11 0 0 1 6.11 6.12z"/>
    <path class="cls-5" d="m250.18 332.3a6.12 6.12 0 1 1-6.12-6.12 6.12 6.12 0 0 1 6.12 6.12z"/>
    <path class="cls-5" d="m258.65 315.83a6.12 6.12 0 1 1-6.12-6.12 6.12 6.12 0 0 1 6.12 6.12z"/>
    <path class="cls-6" d="m271.39 332.3a6.12 6.12 0 1 1-6.12-6.12 6.12 6.12 0 0 1 6.12 6.12z"/>
    <path class="cls-6" d="m241.24 319.59a6.12 6.12 0 1 1-6.12-6.12 6.12 6.12 0 0 1 6.12 6.12z"/>
    <path class="cls-5" d="m264.3 306a6.12 6.12 0 1 1-6.12-6.12 6.12 6.12 0 0 1 6.12 6.12z"/>
    <path class="cls-5" d="m272.77 289.48a6.12 6.12 0 1 1-6.12-6.12 6.12 6.12 0 0 1 6.12 6.12z"/>
    <path class="cls-6" d="m285.47 306a6.12 6.12 0 1 1-6.12-6.12 6.12 6.12 0 0 1 6.12 6.12z"/>
    <path class="cls-6" d="m255.39 293.24a6.12 6.12 0 1 1-6.12-6.12 6.12 6.12 0 0 1 6.12 6.12z"/>
    <path class="cls-5" d="m222.39 294.65a6.12 6.12 0 1 1-6.12-6.11 6.12 6.12 0 0 1 6.12 6.11z"/>
    <path class="cls-5" d="m230.89 278.18a6.12 6.12 0 1 1-6.12-6.11 6.12 6.12 0 0 1 6.12 6.11z"/>
    <path class="cls-6" d="m243.59 294.65a6.12 6.12 0 1 1-6.11-6.11 6.12 6.12 0 0 1 6.11 6.11z"/>
    <path class="cls-6" d="m213.48 282a6.12 6.12 0 1 1-6.12-6.12 6.11 6.11 0 0 1 6.12 6.12z"/>
    <path class="cls-5" d="m303.39 304.06a6.12 6.12 0 1 1-6.12-6.11 6.12 6.12 0 0 1 6.12 6.11z"/>
    <path class="cls-5" d="m311.82 287.59a6.12 6.12 0 1 1-6.12-6.11 6.12 6.12 0 0 1 6.12 6.11z"/>
    <path class="cls-6" d="m324.53 304.06a6.12 6.12 0 1 1-6.14-6.06 6.12 6.12 0 0 1 6.14 6.06z"/>
    <path class="cls-6" d="m294.39 291.36a6.12 6.12 0 1 1-6.12-6.12 6.12 6.12 0 0 1 6.12 6.12z"/>
    <path class="cls-5" d="m216.3 337.94a6.12 6.12 0 1 1-6.11-6.12 6.12 6.12 0 0 1 6.11 6.12z"/>
    <path class="cls-5" d="m224.77 321.47a6.12 6.12 0 1 1-6.11-6.11 6.12 6.12 0 0 1 6.11 6.11z"/>
    <path class="cls-6" d="m237.48 337.94a6.12 6.12 0 1 1-6.12-6.12 6.12 6.12 0 0 1 6.12 6.12z"/>
    <path class="cls-6" d="m207.39 325.24a6.12 6.12 0 1 1-6.11-6.12 6.11 6.11 0 0 1 6.11 6.12z"/>
    <path class="cls-5" d="m183.39 339.82a6.12 6.12 0 1 1-6.11-6.11 6.11 6.11 0 0 1 6.11 6.11z"/>
    <path class="cls-5" d="m191.83 323.36a6.12 6.12 0 1 1-6.11-6.12 6.11 6.11 0 0 1 6.11 6.12z"/>
    <path class="cls-6" d="m204.54 339.82a6.12 6.12 0 1 1-6.12-6.11 6.12 6.12 0 0 1 6.12 6.11z"/>
    <path class="cls-6" d="m174.39 327.12a6.12 6.12 0 1 1-6.11-6.12 6.11 6.11 0 0 1 6.11 6.12z"/>
    <path class="cls-5" d="m194.66 308.9c0 3.05-2.74 5.51-6.12 5.51s-6.15-2.41-6.15-5.51 2.74-5.52 6.12-5.52 6.15 2.47 6.15 5.52z"/>
    <path class="cls-5" d="m203.13 294.05c0 3.05-2.74 5.52-6.12 5.52s-6.12-2.47-6.12-5.52 2.74-5.51 6.12-5.51 6.12 2.46 6.12 5.51z"/>
    <path class="cls-6" d="m215.83 308.9c0 3.05-2.74 5.51-6.12 5.51s-6.11-2.46-6.11-5.51 2.74-5.52 6.11-5.52 6.12 2.47 6.12 5.52z"/>
    <path class="cls-6" d="m185.72 297.44c0 3.05-2.74 5.52-6.12 5.52s-6.12-2.47-6.12-5.52 2.74-5.51 6.12-5.51 6.12 2.47 6.12 5.51z"/>
    <path class="cls-5" d="m659.55 292.3a6.12 6.12 0 1 1-6.12-6.12 6.12 6.12 0 0 1 6.12 6.12z"/>
    <path class="cls-5" d="m668.02 275.83a6.12 6.12 0 1 1-6.12-6.12 6.12 6.12 0 0 1 6.12 6.12z"/>
    <path class="cls-6" d="m680.72 292.3a6.12 6.12 0 1 1-6.12-6.12 6.12 6.12 0 0 1 6.12 6.12z"/>
    <path class="cls-6" d="m650.61 279.6a6.12 6.12 0 1 1-6.12-6.12 6.12 6.12 0 0 1 6.12 6.12z"/>
    <path class="cls-5" d="m341.46 340.76a6.12 6.12 0 1 1-6.11-6.11 6.11 6.11 0 0 1 6.11 6.11z"/>
    <path class="cls-5" d="m349.93 324.3a6.12 6.12 0 1 1-6.11-6.12 6.11 6.11 0 0 1 6.11 6.12z"/>
    <path class="cls-6" d="m362.64 340.76a6.12 6.12 0 1 1-6.12-6.11 6.12 6.12 0 0 1 6.12 6.11z"/>
    <path class="cls-6" d="m332.52 328.06a6.12 6.12 0 1 1-6.11-6.12 6.11 6.11 0 0 1 6.11 6.12z"/>
    <path class="cls-5" d="m346.64 313.47a6.12 6.12 0 1 1-6.12-6.11 6.12 6.12 0 0 1 6.12 6.11z"/>
    <path class="cls-5" d="m355.11 297a6.12 6.12 0 1 1-6.12-6.11 6.12 6.12 0 0 1 6.12 6.11z"/>
    <path class="cls-6" d="m367.81 313.47a6.12 6.12 0 1 1-6.11-6.11 6.11 6.11 0 0 1 6.11 6.11z"/>
    <path class="cls-6" d="m337.7 300.77a6.12 6.12 0 1 1-6.12-6.12 6.12 6.12 0 0 1 6.12 6.12z"/>
    <path class="cls-5" d="m62.78 384.55a6.12 6.12 0 1 0 6.12-6.12 6.12 6.12 0 0 0-6.12 6.12z"/>
    <path class="cls-5" d="m54.31 368.08a6.12 6.12 0 1 0 6.08-6.08 6.12 6.12 0 0 0-6.08 6.08z"/>
    <path class="cls-6" d="m41.6 384.55a6.12 6.12 0 1 0 6.12-6.12 6.12 6.12 0 0 0-6.12 6.12z"/>
    <path class="cls-6" d="m71.72 371.85a6.12 6.12 0 1 0 6.12-6.12 6.12 6.12 0 0 0-6.12 6.12z"/>
    <path class="cls-5" d="m26.55 378a6.12 6.12 0 1 0 6.11-6.11 6.12 6.12 0 0 0-6.11 6.11z"/>
    <path class="cls-5" d="m18.08 361.49a6.12 6.12 0 1 0 6.11-6.11 6.12 6.12 0 0 0-6.11 6.11z"/>
    <path class="cls-6" d="m5.39 378a6.12 6.12 0 1 0 6.12-6.11 6.12 6.12 0 0 0-6.12 6.11z"/>
    <path class="cls-6" d="m35.49 365.26a6.12 6.12 0 1 0 6.11-6.12 6.12 6.12 0 0 0-6.11 6.12z"/>
    <path class="cls-5" d="m418.5 356.79a6.12 6.12 0 1 0 6.12-6.12 6.12 6.12 0 0 0-6.12 6.12z"/>
    <path class="cls-5" d="m410.03 340.32a6.12 6.12 0 1 0 6.12-6.12 6.12 6.12 0 0 0-6.12 6.12z"/>
    <path class="cls-6" d="m397.33 356.79a6.12 6.12 0 1 0 6.12-6.12 6.12 6.12 0 0 0-6.12 6.12z"/>
    <path class="cls-6" d="m427.44 344.08a6.12 6.12 0 1 0 6.12-6.11 6.12 6.12 0 0 0-6.12 6.11z"/>
    <path class="cls-5" d="m148.89 361a6.12 6.12 0 1 0 6.11-6.11 6.12 6.12 0 0 0-6.11 6.11z"/>
    <path class="cls-5" d="m140.39 344.56a6.12 6.12 0 1 0 6.11-6.12 6.12 6.12 0 0 0-6.11 6.12z"/>
    <path class="cls-6" d="m127.71 361a6.12 6.12 0 1 0 6.12-6.11 6.12 6.12 0 0 0-6.12 6.11z"/>
    <path class="cls-6" d="m157.83 348.32a6.12 6.12 0 1 0 6.11-6.12 6.12 6.12 0 0 0-6.11 6.12z"/>
    <path class="cls-5" d="m90.54 402a6.12 6.12 0 1 0 6.12-6.12 6.12 6.12 0 0 0-6.12 6.12z"/>
    <path class="cls-5" d="m82.07 385.49a6.12 6.12 0 1 0 6.12-6.12 6.12 6.12 0 0 0-6.12 6.12z"/>
    <path class="cls-6" d="m69.39 402a6.12 6.12 0 1 0 6.11-6.12 6.11 6.11 0 0 0-6.11 6.12z"/>
    <path class="cls-6" d="m99.48 389.26a6.12 6.12 0 1 0 6.12-6.12 6.12 6.12 0 0 0-6.12 6.12z"/>
    <circle class="cls-5" cx="54.31" cy="417.49" r="6.12"/>
    <path class="cls-5" d="m39.72 401a6.12 6.12 0 1 0 6.12-6.12 6.12 6.12 0 0 0-6.12 6.12z"/>
    <path class="cls-6" d="m27.02 417.49a6.12 6.12 0 1 0 6.11-6.12 6.12 6.12 0 0 0-6.11 6.12z"/>
    <path class="cls-6" d="m57.13 404.78a6.12 6.12 0 1 0 6.12-6.11 6.12 6.12 0 0 0-6.12 6.11z"/>
    <path class="cls-5" d="m99.01 378.9a6.12 6.12 0 1 0 6.12-6.11 6.12 6.12 0 0 0-6.12 6.11z"/>
    <path class="cls-5" d="m90.54 362.44a6.12 6.12 0 1 0 6.12-6.12 6.12 6.12 0 0 0-6.12 6.12z"/>
    <path class="cls-6" d="m77.84 378.9a6.12 6.12 0 1 0 6.11-6.11 6.11 6.11 0 0 0-6.11 6.11z"/>
    <path class="cls-6" d="m107.95 366.2a6.12 6.12 0 1 0 6.12-6.12 6.12 6.12 0 0 0-6.12 6.12z"/>
    <path class="cls-5" d="m147.95 393a6.12 6.12 0 1 0 6.11-6.12 6.11 6.11 0 0 0-6.11 6.12z"/>
    <path class="cls-5" d="m139.48 376.55a6.12 6.12 0 1 0 6.11-6.12 6.11 6.11 0 0 0-6.11 6.12z"/>
    <path class="cls-6" d="m126.77 393a6.12 6.12 0 1 0 6.12-6.12 6.12 6.12 0 0 0-6.12 6.12z"/>
    <path class="cls-6" d="m156.89 380.32a6.12 6.12 0 1 0 6.11-6.12 6.11 6.11 0 0 0-6.11 6.12z"/>
    <path class="cls-5" d="m113.13 415.61a6.12 6.12 0 1 0 6.11-6.12 6.11 6.11 0 0 0-6.11 6.12z"/>
    <path class="cls-5" d="m104.66 399.14a6.12 6.12 0 1 0 6.11-6.12 6.11 6.11 0 0 0-6.11 6.12z"/>
    <path class="cls-6" d="m91.95 415.61a6.12 6.12 0 1 0 6.12-6.12 6.12 6.12 0 0 0-6.12 6.12z"/>
    <path class="cls-6" d="m122.07 402.9a6.12 6.12 0 1 0 6.11-6.12 6.11 6.11 0 0 0-6.11 6.12z"/>
    <path class="cls-5" d="m120.65 378.9a6.12 6.12 0 1 0 6.12-6.11 6.12 6.12 0 0 0-6.12 6.11z"/>
    <path class="cls-5" d="m112.18 362.44a6.12 6.12 0 1 0 6.12-6.12 6.12 6.12 0 0 0-6.12 6.12z"/>
    <path class="cls-6" d="m99.48 378.9a6.12 6.12 0 1 0 6.12-6.11 6.12 6.12 0 0 0-6.12 6.11z"/>
    <path class="cls-6" d="m129.59 366.2a6.12 6.12 0 1 0 6.12-6.12 6.12 6.12 0 0 0-6.12 6.12z"/>
    <path class="cls-5" d="m69.84 372.32a6.12 6.12 0 1 0 6.11-6.12 6.12 6.12 0 0 0-6.11 6.12z"/>
    <path class="cls-5" d="m61.39 355.85a6.12 6.12 0 1 0 6.11-6.12 6.11 6.11 0 0 0-6.11 6.12z"/>
    <path class="cls-6" d="m48.66 372.32a6.12 6.12 0 1 0 6.12-6.12 6.12 6.12 0 0 0-6.12 6.12z"/>
    <path class="cls-6" d="m78.78 359.61a6.12 6.12 0 1 0 6.11-6.11 6.12 6.12 0 0 0-6.11 6.11z"/>
    <path class="cls-5" d="m168.65 368.55a6.12 6.12 0 1 0 6.12-6.11 6.12 6.12 0 0 0-6.12 6.11z"/>
    <path class="cls-5" d="m160.18 352.08a6.12 6.12 0 1 0 6.12-6.11 6.12 6.12 0 0 0-6.12 6.11z"/>
    <path class="cls-6" d="m147.48 368.55a6.12 6.12 0 1 0 6.11-6.11 6.11 6.11 0 0 0-6.11 6.11z"/>
    <path class="cls-6" d="m177.59 355.85a6.12 6.12 0 1 0 6.12-6.12 6.11 6.11 0 0 0-6.12 6.12z"/>
    <path class="cls-5" d="m194.06 394a6.12 6.12 0 1 0 6.12-6.12 6.12 6.12 0 0 0-6.12 6.12z"/>
    <path class="cls-5" d="m185.59 377.49a6.12 6.12 0 1 0 6.12-6.11 6.12 6.12 0 0 0-6.12 6.11z"/>
    <path class="cls-6" d="m172.88 394a6.12 6.12 0 1 0 6.12-6.12 6.12 6.12 0 0 0-6.12 6.12z"/>
    <path class="cls-6" d="m203 381.26a6.12 6.12 0 1 0 6.12-6.12 6.11 6.11 0 0 0-6.12 6.12z"/>
    <path class="cls-5" d="m158.3 410.9a6.12 6.12 0 1 0 6.11-6.12 6.12 6.12 0 0 0-6.11 6.12z"/>
    <path class="cls-5" d="m149.83 394.43a6.12 6.12 0 1 0 6.11-6.12 6.12 6.12 0 0 0-6.11 6.12z"/>
    <path class="cls-6" d="m137.12 410.9a6.12 6.12 0 1 0 6.12-6.12 6.12 6.12 0 0 0-6.12 6.12z"/>
    <path class="cls-6" d="m167.24 398.2a6.12 6.12 0 1 0 6.11-6.12 6.12 6.12 0 0 0-6.11 6.12z"/>
    <path class="cls-5" d="m230.76 410.43a6.12 6.12 0 1 0 6.12-6.12 6.12 6.12 0 0 0-6.12 6.12z"/>
    <path class="cls-5" d="m222.29 394a6.12 6.12 0 1 0 6.12-6.12 6.12 6.12 0 0 0-6.12 6.12z"/>
    <path class="cls-6" d="m209.59 410.43a6.12 6.12 0 1 0 6.11-6.12 6.11 6.11 0 0 0-6.11 6.12z"/>
    <path class="cls-6" d="m239.7 397.73a6.12 6.12 0 1 0 6.12-6.12 6.12 6.12 0 0 0-6.12 6.12z"/>
    <path class="cls-5" d="m217.58 376.55a6.12 6.12 0 1 0 6.12-6.12 6.12 6.12 0 0 0-6.12 6.12z"/>
    <path class="cls-5" d="m209.12 360.08a6.12 6.12 0 1 0 6.11-6.11 6.11 6.11 0 0 0-6.11 6.11z"/>
    <path class="cls-6" d="m196.39 376.55a6.12 6.12 0 1 0 6.12-6.12 6.12 6.12 0 0 0-6.12 6.12z"/>
    <path class="cls-6" d="m226.53 363.85a6.12 6.12 0 1 0 6.11-6.12 6.1 6.1 0 0 0-6.11 6.12z"/>
    <path class="cls-5" d="m193.12 359.61a6.12 6.12 0 1 0 6.11-6.11 6.12 6.12 0 0 0-6.11 6.11z"/>
    <path class="cls-5" d="m184.65 343.14a6.12 6.12 0 1 0 6.11-6.11 6.12 6.12 0 0 0-6.11 6.11z"/>
    <path class="cls-6" d="m171.94 359.61a6.12 6.12 0 1 0 6.12-6.11 6.12 6.12 0 0 0-6.12 6.11z"/>
    <path class="cls-6" d="m202.06 346.91a6.12 6.12 0 1 0 6.11-6.12 6.11 6.11 0 0 0-6.11 6.12z"/>
    <path class="cls-5" d="m258.05 361.49a6.12 6.12 0 1 0 6.12-6.11 6.12 6.12 0 0 0-6.12 6.11z"/>
    <path class="cls-5" d="m249.58 345a6.12 6.12 0 1 0 6.12-6.12 6.12 6.12 0 0 0-6.12 6.12z"/>
    <path class="cls-6" d="m236.88 361.49a6.12 6.12 0 1 0 6.11-6.11 6.12 6.12 0 0 0-6.11 6.11z"/>
    <path class="cls-6" d="m266.99 348.79a6.12 6.12 0 1 0 6.12-6.12 6.12 6.12 0 0 0-6.12 6.12z"/>
    <path class="cls-5" d="m273.11 390.67a6.12 6.12 0 1 0 6.11-6.12 6.11 6.11 0 0 0-6.11 6.12z"/>
    <path class="cls-5" d="m264.64 374.2a6.12 6.12 0 1 0 6.12-6.12 6.12 6.12 0 0 0-6.12 6.12z"/>
    <path class="cls-6" d="m251.93 390.67a6.12 6.12 0 1 0 6.12-6.12 6.11 6.11 0 0 0-6.12 6.12z"/>
    <path class="cls-6" d="m282.05 378a6.12 6.12 0 1 0 6.12-6.11 6.12 6.12 0 0 0-6.12 6.11z"/>
    <path class="cls-5" d="m243.93 391.61a6.12 6.12 0 1 0 6.12-6.12 6.12 6.12 0 0 0-6.12 6.12z"/>
    <path class="cls-5" d="m235.47 375.14a6.12 6.12 0 1 0 6.11-6.12 6.11 6.11 0 0 0-6.11 6.12z"/>
    <path class="cls-6" d="m222.76 391.61a6.12 6.12 0 1 0 6.12-6.12 6.12 6.12 0 0 0-6.12 6.12z"/>
    <path class="cls-6" d="m252.88 378.9a6.12 6.12 0 1 0 6.11-6.11 6.11 6.11 0 0 0-6.11 6.11z"/>
    <path class="cls-5" d="m290.99 406.67a6.12 6.12 0 1 0 6.12-6.12 6.12 6.12 0 0 0-6.12 6.12z"/>
    <path class="cls-5" d="m282.52 390.2a6.12 6.12 0 1 0 6.12-6.12 6.11 6.11 0 0 0-6.12 6.12z"/>
    <path class="cls-6" d="m269.81 406.67a6.12 6.12 0 1 0 6.12-6.12 6.12 6.12 0 0 0-6.12 6.12z"/>
    <path class="cls-6" d="m299.93 394a6.12 6.12 0 1 0 6.12-6.12 6.12 6.12 0 0 0-6.12 6.12z"/>
    <path class="cls-5" d="m282.52 370a6.12 6.12 0 1 0 6.12-6.11 6.12 6.12 0 0 0-6.12 6.11z"/>
    <path class="cls-5" d="m274.05 353.5a6.12 6.12 0 1 0 6.12-6.12 6.12 6.12 0 0 0-6.12 6.12z"/>
    <path class="cls-6" d="m261.39 370a6.12 6.12 0 1 0 6.12-6.11 6.12 6.12 0 0 0-6.12 6.11z"/>
    <path class="cls-6" d="m291.46 357.26a6.12 6.12 0 1 0 6.12-6.12 6.12 6.12 0 0 0-6.12 6.12z"/>
    <path class="cls-5" d="m325.81 371.85a6.12 6.12 0 1 0 6.12-6.12 6.12 6.12 0 0 0-6.12 6.12z"/>
    <path class="cls-5" d="m317.39 355.38a6.12 6.12 0 1 0 6.12-6.12 6.11 6.11 0 0 0-6.12 6.12z"/>
    <path class="cls-6" d="m304.63 371.85a6.12 6.12 0 1 0 6.12-6.12 6.12 6.12 0 0 0-6.12 6.12z"/>
    <circle class="cls-6" cx="340.87" cy="359.14" r="6.12"/>
    <path class="cls-5" d="m332.39 410.43a6.12 6.12 0 1 0 6.11-6.12 6.11 6.11 0 0 0-6.11 6.12z"/>
    <path class="cls-5" d="m323.93 394a6.12 6.12 0 1 0 6.11-6.12 6.11 6.11 0 0 0-6.11 6.12z"/>
    <path class="cls-6" d="m311.22 410.43a6.12 6.12 0 1 0 6.12-6.12 6.12 6.12 0 0 0-6.12 6.12z"/>
    <path class="cls-6" d="m341.39 397.73a6.12 6.12 0 1 0 6.11-6.12 6.11 6.11 0 0 0-6.11 6.12z"/>
    <path class="cls-5" d="m382.27 388.31a6.12 6.12 0 1 0 6.12-6.11 6.12 6.12 0 0 0-6.12 6.11z"/>
    <path class="cls-5" d="m373.8 371.85a6.12 6.12 0 1 0 6.12-6.12 6.12 6.12 0 0 0-6.12 6.12z"/>
    <path class="cls-6" d="m361.1 388.31a6.12 6.12 0 1 0 6.12-6.11 6.12 6.12 0 0 0-6.12 6.11z"/>
    <path class="cls-6" d="m391.21 375.61a6.12 6.12 0 1 0 6.12-6.12 6.12 6.12 0 0 0-6.12 6.12z"/>
    <path class="cls-5" d="m382.27 369.49a6.12 6.12 0 1 0 6.12-6.11 6.12 6.12 0 0 0-6.12 6.11z"/>
    <path class="cls-5" d="m373.8 353a6.12 6.12 0 1 0 6.12-6.11 6.12 6.12 0 0 0-6.12 6.11z"/>
    <path class="cls-6" d="m361.1 369.49a6.12 6.12 0 1 0 6.12-6.11 6.12 6.12 0 0 0-6.12 6.11z"/>
    <path class="cls-6" d="m391.21 356.79a6.12 6.12 0 1 0 6.12-6.12 6.12 6.12 0 0 0-6.12 6.12z"/>
    <path class="cls-5" d="m423.68 389.73a6.12 6.12 0 1 0 6.12-6.12 6.12 6.12 0 0 0-6.12 6.12z"/>
    <path class="cls-5" d="m415.21 373.26a6.12 6.12 0 1 0 6.12-6.12 6.11 6.11 0 0 0-6.12 6.12z"/>
    <path class="cls-6" d="m402.51 389.73a6.12 6.12 0 1 0 6.11-6.12 6.11 6.11 0 0 0-6.11 6.12z"/>
    <path class="cls-6" d="m432.62 377a6.12 6.12 0 1 0 6.12-6.11 6.12 6.12 0 0 0-6.12 6.11z"/>
    <path class="cls-5" d="m101.83 356.79a6.12 6.12 0 1 0 6.12-6.12 6.12 6.12 0 0 0-6.12 6.12z"/>
    <path class="cls-5" d="m93.39 340.32a6.12 6.12 0 1 0 6.12-6.12 6.12 6.12 0 0 0-6.12 6.12z"/>
    <path class="cls-6" d="m80.66 356.79a6.12 6.12 0 1 0 6.12-6.12 6.12 6.12 0 0 0-6.12 6.12z"/>
    <path class="cls-6" d="m110.77 344.08a6.12 6.12 0 1 0 6.12-6.08 6.12 6.12 0 0 0-6.12 6.08z"/>
    <path class="cls-5" d="m456.62 396.78a6.12 6.12 0 1 0 6.11-6.11 6.12 6.12 0 0 0-6.11 6.11z"/>
    <path class="cls-5" d="m448.15 380.32a6.12 6.12 0 1 0 6.11-6.12 6.12 6.12 0 0 0-6.11 6.12z"/>
    <path class="cls-6" d="m435.44 396.78a6.12 6.12 0 1 0 6.12-6.11 6.12 6.12 0 0 0-6.12 6.11z"/>
    <path class="cls-6" d="m465.56 384.08a6.12 6.12 0 1 0 6.11-6.12 6.12 6.12 0 0 0-6.11 6.12z"/>
    <path class="cls-5" d="m442.5 370.43a6.12 6.12 0 1 0 6.12-6.11 6.12 6.12 0 0 0-6.12 6.11z"/>
    <path class="cls-5" d="m434.03 354a6.12 6.12 0 1 0 6.12-6.12 6.12 6.12 0 0 0-6.12 6.12z"/>
    <path class="cls-6" d="m421.33 370.43a6.12 6.12 0 1 0 6.11-6.11 6.12 6.12 0 0 0-6.11 6.11z"/>
    <path class="cls-6" d="m451.44 357.73a6.12 6.12 0 1 0 6.12-6.12 6.12 6.12 0 0 0-6.12 6.12z"/>
    <circle class="cls-5" cx="490.5" cy="359.14" r="6.12"/>
    <path class="cls-5" d="m475.91 342.67a6.12 6.12 0 1 0 6.12-6.11 6.12 6.12 0 0 0-6.12 6.11z"/>
    <path class="cls-6" d="m463.2 359.14a6.12 6.12 0 1 0 6.12-6.12 6.12 6.12 0 0 0-6.12 6.12z"/>
    <path class="cls-6" d="m493.32 346.44a6.12 6.12 0 1 0 6.12-6.12 6.11 6.11 0 0 0-6.12 6.12z"/>
    <path class="cls-5" d="m403.45 368.55a6.12 6.12 0 1 0 6.11-6.11 6.12 6.12 0 0 0-6.11 6.11z"/>
    <path class="cls-5" d="m394.98 352.08a6.12 6.12 0 1 0 6.11-6.08 6.12 6.12 0 0 0-6.11 6.08z"/>
    <path class="cls-6" d="m382.27 368.55a6.12 6.12 0 1 0 6.12-6.11 6.12 6.12 0 0 0-6.12 6.11z"/>
    <path class="cls-6" d="m412.39 355.85a6.12 6.12 0 1 0 6.11-6.12 6.11 6.11 0 0 0-6.11 6.12z"/>
    <path class="cls-5" d="m490.5 402.43a6.12 6.12 0 1 0 6.11-6.12 6.11 6.11 0 0 0-6.11 6.12z"/>
    <path class="cls-5" d="m482.03 386a6.12 6.12 0 1 0 6.11-6.11 6.11 6.11 0 0 0-6.11 6.11z"/>
    <path class="cls-6" d="m469.32 402.43a6.12 6.12 0 1 0 6.12-6.12 6.12 6.12 0 0 0-6.12 6.12z"/>
    <path class="cls-6" d="m499.44 389.73a6.12 6.12 0 1 0 6.11-6.12 6.11 6.11 0 0 0-6.11 6.12z"/>
    <path class="cls-5" d="m523.39 404.31a6.12 6.12 0 1 0 6.12-6.11 6.12 6.12 0 0 0-6.12 6.11z"/>
    <path class="cls-5" d="m514.96 387.84a6.12 6.12 0 1 0 6.12-6.11 6.12 6.12 0 0 0-6.12 6.11z"/>
    <path class="cls-6" d="m502.26 404.31a6.12 6.12 0 1 0 6.13-6.11 6.12 6.12 0 0 0-6.13 6.11z"/>
    <path class="cls-6" d="m532.39 391.61a6.12 6.12 0 1 0 6.12-6.12 6.12 6.12 0 0 0-6.12 6.12z"/>
    <path class="cls-5" d="m512.14 373.39c0 3 2.74 5.51 6.12 5.51s6.11-2.47 6.11-5.51-2.73-5.52-6.11-5.52-6.12 2.47-6.12 5.52z"/>
    <path class="cls-5" d="m503.67 358.54c0 3 2.74 5.52 6.12 5.52s6.11-2.47 6.11-5.52-2.73-5.54-6.11-5.54-6.12 2.49-6.12 5.54z"/>
    <path class="cls-6" d="m490.97 373.39c0 3 2.73 5.51 6.11 5.51s6.12-2.47 6.12-5.51-2.74-5.52-6.12-5.52-6.11 2.47-6.11 5.52z"/>
    <path class="cls-6" d="m521.08 361.93c0 3.05 2.74 5.52 6.12 5.52s6.11-2.47 6.11-5.52-2.73-5.51-6.11-5.51-6.12 2.47-6.12 5.51z"/>
    <path class="cls-5" d="m47.25 356.79a6.12 6.12 0 1 0 6.14-6.12 6.12 6.12 0 0 0-6.14 6.12z"/>
    <path class="cls-5" d="m38.78 340.32a6.12 6.12 0 1 0 6.12-6.12 6.12 6.12 0 0 0-6.12 6.12z"/>
    <path class="cls-6" d="m26.08 356.79a6.12 6.12 0 1 0 6.11-6.12 6.12 6.12 0 0 0-6.11 6.12z"/>
    <path class="cls-6" d="m56.19 344.08a6.12 6.12 0 1 0 6.12-6.08 6.12 6.12 0 0 0-6.12 6.08z"/>
    <path class="cls-5" d="m365.33 405.25a6.12 6.12 0 1 0 6.12-6.11 6.12 6.12 0 0 0-6.12 6.11z"/>
    <path class="cls-5" d="m356.86 388.79a6.12 6.12 0 1 0 6.12-6.12 6.12 6.12 0 0 0-6.12 6.12z"/>
    <path class="cls-6" d="m344.16 405.25a6.12 6.12 0 1 0 6.12-6.11 6.12 6.12 0 0 0-6.12 6.11z"/>
    <path class="cls-6" d="m374.27 392.55a6.12 6.12 0 1 0 6.12-6.12 6.12 6.12 0 0 0-6.12 6.12z"/>
    <path class="cls-5" d="m360.16 378a6.12 6.12 0 1 0 6.11-6.11 6.12 6.12 0 0 0-6.11 6.11z"/>
    <path class="cls-5" d="m351.69 361.49a6.12 6.12 0 1 0 6.11-6.11 6.12 6.12 0 0 0-6.11 6.11z"/>
    <path class="cls-6" d="m338.98 378a6.12 6.12 0 1 0 6.12-6.11 6.12 6.12 0 0 0-6.12 6.11z"/>
    <path class="cls-6" d="m369.1 365.26a6.12 6.12 0 1 0 6.11-6.12 6.12 6.12 0 0 0-6.11 6.12z"/>
    <path class="cls-5" d="m62.78 320.06a6.12 6.12 0 1 0 6.12-6.12 6.12 6.12 0 0 0-6.12 6.12z"/>
    <path class="cls-5" d="m54.31 303.59a6.12 6.12 0 1 0 6.08-6.11 6.12 6.12 0 0 0-6.08 6.11z"/>
    <path class="cls-6" d="m41.6 320.06a6.12 6.12 0 1 0 6.12-6.12 6.12 6.12 0 0 0-6.12 6.12z"/>
    <path class="cls-6" d="m71.72 307.36a6.12 6.12 0 1 0 6.12-6.12 6.11 6.11 0 0 0-6.12 6.12z"/>
    <path class="cls-5" d="m26.55 313.47a6.12 6.12 0 1 0 6.11-6.11 6.12 6.12 0 0 0-6.11 6.11z"/>
    <path class="cls-6" d="m35.49 300.77a6.12 6.12 0 1 0 6.11-6.12 6.12 6.12 0 0 0-6.11 6.12z"/>
    <path class="cls-5" d="m418.5 292.3a6.12 6.12 0 1 0 6.12-6.12 6.12 6.12 0 0 0-6.12 6.12z"/>
    <path class="cls-5" d="m410.03 275.83a6.12 6.12 0 1 0 6.12-6.12 6.12 6.12 0 0 0-6.12 6.12z"/>
    <path class="cls-6" d="m397.33 292.3a6.12 6.12 0 1 0 6.12-6.12 6.12 6.12 0 0 0-6.12 6.12z"/>
    <path class="cls-6" d="m427.44 279.6a6.12 6.12 0 1 0 6.12-6.12 6.12 6.12 0 0 0-6.12 6.12z"/>
    <path class="cls-5" d="m148.89 296.53a6.12 6.12 0 1 0 6.11-6.11 6.12 6.12 0 0 0-6.11 6.11z"/>
    <path class="cls-5" d="m140.39 280.07a6.12 6.12 0 1 0 6.11-6.12 6.12 6.12 0 0 0-6.11 6.12z"/>
    <path class="cls-6" d="m127.71 296.53a6.12 6.12 0 1 0 6.12-6.11 6.12 6.12 0 0 0-6.12 6.11z"/>
    <path class="cls-6" d="m157.83 283.83a6.12 6.12 0 1 0 6.11-6.12 6.12 6.12 0 0 0-6.11 6.12z"/>
    <path class="cls-5" d="m90.54 337.47a6.12 6.12 0 1 0 6.12-6.12 6.12 6.12 0 0 0-6.12 6.12z"/>
    <path class="cls-5" d="m82.07 321a6.12 6.12 0 1 0 6.12-6.11 6.12 6.12 0 0 0-6.12 6.11z"/>
    <path class="cls-6" d="m69.39 337.47a6.12 6.12 0 1 0 6.11-6.12 6.11 6.11 0 0 0-6.11 6.12z"/>
    <path class="cls-6" d="m99.48 324.77a6.12 6.12 0 1 0 6.12-6.12 6.11 6.11 0 0 0-6.12 6.12z"/>
    <path class="cls-5" d="m48.19 353a6.12 6.12 0 1 0 6.12-6.12 6.12 6.12 0 0 0-6.12 6.12z"/>
    <path class="cls-5" d="m39.72 336.53a6.12 6.12 0 1 0 6.12-6.12 6.12 6.12 0 0 0-6.12 6.12z"/>
    <path class="cls-6" d="m27.02 353a6.12 6.12 0 1 0 6.11-6.12 6.12 6.12 0 0 0-6.11 6.12z"/>
    <path class="cls-6" d="m57.13 340.29a6.12 6.12 0 1 0 6.12-6.11 6.12 6.12 0 0 0-6.12 6.11z"/>
    <path class="cls-5" d="m99.01 314.41a6.12 6.12 0 1 0 6.12-6.11 6.12 6.12 0 0 0-6.12 6.11z"/>
    <path class="cls-5" d="m90.54 298a6.12 6.12 0 1 0 6.12-6.12 6.12 6.12 0 0 0-6.12 6.12z"/>
    <path class="cls-6" d="m77.84 314.41a6.12 6.12 0 1 0 6.11-6.11 6.11 6.11 0 0 0-6.11 6.11z"/>
    <path class="cls-6" d="m107.95 301.71a6.12 6.12 0 1 0 6.12-6.12 6.12 6.12 0 0 0-6.12 6.12z"/>
    <path class="cls-5" d="m147.95 328.53a6.12 6.12 0 1 0 6.11-6.12 6.11 6.11 0 0 0-6.11 6.12z"/>
    <path class="cls-5" d="m139.48 312.06a6.12 6.12 0 1 0 6.11-6.06 6.11 6.11 0 0 0-6.11 6.06z"/>
    <path class="cls-6" d="m126.77 328.53a6.12 6.12 0 1 0 6.12-6.12 6.12 6.12 0 0 0-6.12 6.12z"/>
    <path class="cls-6" d="m156.89 315.83a6.12 6.12 0 1 0 6.11-6.12 6.11 6.11 0 0 0-6.11 6.12z"/>
    <path class="cls-5" d="m113.13 351.12a6.12 6.12 0 1 0 6.11-6.12 6.11 6.11 0 0 0-6.11 6.12z"/>
    <path class="cls-5" d="m104.66 334.65a6.12 6.12 0 1 0 6.11-6.12 6.11 6.11 0 0 0-6.11 6.12z"/>
    <path class="cls-6" d="m91.95 351.12a6.12 6.12 0 1 0 6.12-6.12 6.12 6.12 0 0 0-6.12 6.12z"/>
    <path class="cls-6" d="m122.07 338.41a6.12 6.12 0 1 0 6.11-6.11 6.11 6.11 0 0 0-6.11 6.11z"/>
    <path class="cls-5" d="m120.65 314.41a6.12 6.12 0 1 0 6.12-6.11 6.12 6.12 0 0 0-6.12 6.11z"/>
    <path class="cls-5" d="m112.18 298a6.12 6.12 0 1 0 6.12-6.12 6.12 6.12 0 0 0-6.12 6.12z"/>
    <path class="cls-6" d="m99.48 314.41a6.12 6.12 0 1 0 6.12-6.11 6.12 6.12 0 0 0-6.12 6.11z"/>
    <path class="cls-6" d="m129.59 301.71a6.12 6.12 0 1 0 6.12-6.12 6.12 6.12 0 0 0-6.12 6.12z"/>
    <path class="cls-5" d="m69.84 307.83a6.12 6.12 0 1 0 6.11-6.12 6.11 6.11 0 0 0-6.11 6.12z"/>
    <path class="cls-5" d="m61.39 291.36a6.12 6.12 0 1 0 6.11-6.12 6.12 6.12 0 0 0-6.11 6.12z"/>
    <path class="cls-6" d="m48.66 307.83a6.12 6.12 0 1 0 6.12-6.12 6.11 6.11 0 0 0-6.12 6.12z"/>
    <path class="cls-6" d="m78.78 295.12a6.12 6.12 0 1 0 6.11-6.12 6.12 6.12 0 0 0-6.11 6.12z"/>
    <path class="cls-5" d="m168.65 304.06a6.12 6.12 0 1 0 6.12-6.11 6.12 6.12 0 0 0-6.12 6.11z"/>
    <path class="cls-5" d="m160.18 287.59a6.12 6.12 0 1 0 6.12-6.11 6.12 6.12 0 0 0-6.12 6.11z"/>
    <path class="cls-6" d="m147.48 304.06a6.12 6.12 0 1 0 6.11-6.06 6.11 6.11 0 0 0-6.11 6.06z"/>
    <path class="cls-6" d="m177.59 291.36a6.12 6.12 0 1 0 6.12-6.12 6.12 6.12 0 0 0-6.12 6.12z"/>
    <path class="cls-5" d="m194.06 329.47a6.12 6.12 0 1 0 6.12-6.11 6.12 6.12 0 0 0-6.12 6.11z"/>
    <path class="cls-5" d="m185.59 313a6.12 6.12 0 1 0 6.12-6.11 6.12 6.12 0 0 0-6.12 6.11z"/>
    <path class="cls-6" d="m172.88 329.47a6.12 6.12 0 1 0 6.12-6.11 6.12 6.12 0 0 0-6.12 6.11z"/>
    <path class="cls-6" d="m203 316.77a6.12 6.12 0 1 0 6.12-6.12 6.11 6.11 0 0 0-6.12 6.12z"/>
    <path class="cls-5" d="m158.3 346.41a6.12 6.12 0 1 0 6.11-6.12 6.12 6.12 0 0 0-6.11 6.12z"/>
    <path class="cls-5" d="m149.83 329.94a6.12 6.12 0 1 0 6.11-6.11 6.12 6.12 0 0 0-6.11 6.11z"/>
    <path class="cls-6" d="m137.12 346.41a6.12 6.12 0 1 0 6.12-6.12 6.12 6.12 0 0 0-6.12 6.12z"/>
    <path class="cls-6" d="m167.24 333.71a6.12 6.12 0 1 0 6.11-6.12 6.11 6.11 0 0 0-6.11 6.12z"/>
    <path class="cls-5" d="m230.76 345.94a6.12 6.12 0 1 0 6.12-6.12 6.12 6.12 0 0 0-6.12 6.12z"/>
    <path class="cls-5" d="m222.29 329.47a6.12 6.12 0 1 0 6.12-6.11 6.12 6.12 0 0 0-6.12 6.11z"/>
    <path class="cls-6" d="m209.59 345.94a6.12 6.12 0 1 0 6.11-6.12 6.11 6.11 0 0 0-6.11 6.12z"/>
    <path class="cls-6" d="m239.7 333.24a6.12 6.12 0 1 0 6.12-6.12 6.12 6.12 0 0 0-6.12 6.12z"/>
    <path class="cls-5" d="m217.58 312.06a6.12 6.12 0 1 0 6.12-6.11 6.12 6.12 0 0 0-6.12 6.11z"/>
    <path class="cls-5" d="m209.12 295.59a6.12 6.12 0 1 0 6.11-6.11 6.11 6.11 0 0 0-6.11 6.11z"/>
    <path class="cls-6" d="m196.39 312.06a6.12 6.12 0 1 0 6.12-6.11 6.12 6.12 0 0 0-6.12 6.11z"/>
    <path class="cls-6" d="m226.53 299.36a6.12 6.12 0 1 0 6.11-6.12 6.1 6.1 0 0 0-6.11 6.12z"/>
    <path class="cls-5" d="m193.12 295.12a6.12 6.12 0 1 0 6.11-6.11 6.12 6.12 0 0 0-6.11 6.11z"/>
    <path class="cls-5" d="m184.65 278.65a6.12 6.12 0 1 0 6.11-6.11 6.12 6.12 0 0 0-6.11 6.11z"/>
    <path class="cls-6" d="m171.94 295.12a6.12 6.12 0 1 0 6.12-6.11 6.12 6.12 0 0 0-6.12 6.11z"/>
    <path class="cls-6" d="m202.06 282.42a6.12 6.12 0 1 0 6.11-6.12 6.12 6.12 0 0 0-6.11 6.12z"/>
    <path class="cls-5" d="m258.05 297a6.12 6.12 0 1 0 6.12-6.11 6.12 6.12 0 0 0-6.12 6.11z"/>
    <path class="cls-5" d="m249.58 280.54a6.12 6.12 0 1 0 6.12-6.12 6.12 6.12 0 0 0-6.12 6.12z"/>
    <path class="cls-6" d="m236.88 297a6.12 6.12 0 1 0 6.11-6.11 6.12 6.12 0 0 0-6.11 6.11z"/>
    <path class="cls-6" d="m266.99 284.3a6.12 6.12 0 1 0 6.12-6.12 6.12 6.12 0 0 0-6.12 6.12z"/>
    <path class="cls-5" d="m273.11 326.18a6.12 6.12 0 1 0 6.11-6.12 6.12 6.12 0 0 0-6.11 6.12z"/>
    <path class="cls-5" d="m264.64 309.71a6.12 6.12 0 1 0 6.12-6.12 6.12 6.12 0 0 0-6.12 6.12z"/>
    <path class="cls-6" d="m251.93 326.18a6.12 6.12 0 1 0 6.12-6.12 6.12 6.12 0 0 0-6.12 6.12z"/>
    <path class="cls-6" d="m282.05 313.47a6.12 6.12 0 1 0 6.12-6.11 6.12 6.12 0 0 0-6.12 6.11z"/>
    <path class="cls-5" d="m243.93 327.12a6.12 6.12 0 1 0 6.12-6.12 6.12 6.12 0 0 0-6.12 6.12z"/>
    <path class="cls-5" d="m235.47 310.65a6.12 6.12 0 1 0 6.11-6.12 6.11 6.11 0 0 0-6.11 6.12z"/>
    <path class="cls-6" d="m222.76 327.12a6.12 6.12 0 1 0 6.12-6.12 6.12 6.12 0 0 0-6.12 6.12z"/>
    <path class="cls-6" d="m252.88 314.41a6.12 6.12 0 1 0 6.11-6.11 6.11 6.11 0 0 0-6.11 6.11z"/>
    <path class="cls-5" d="m290.99 342.18a6.12 6.12 0 1 0 6.12-6.12 6.12 6.12 0 0 0-6.12 6.12z"/>
    <path class="cls-5" d="m282.52 325.71a6.12 6.12 0 1 0 6.12-6.12 6.11 6.11 0 0 0-6.12 6.12z"/>
    <path class="cls-6" d="m269.81 342.18a6.12 6.12 0 1 0 6.12-6.12 6.12 6.12 0 0 0-6.12 6.12z"/>
    <path class="cls-6" d="m299.93 329.47a6.12 6.12 0 1 0 6.12-6.11 6.12 6.12 0 0 0-6.12 6.11z"/>
    <path class="cls-5" d="m282.52 305.47a6.12 6.12 0 1 0 6.12-6.11 6.12 6.12 0 0 0-6.12 6.11z"/>
    <path class="cls-5" d="m274.05 289a6.12 6.12 0 1 0 6.12-6.12 6.12 6.12 0 0 0-6.12 6.12z"/>
    <path class="cls-6" d="m261.39 305.47a6.12 6.12 0 1 0 6.12-6.11 6.12 6.12 0 0 0-6.12 6.11z"/>
    <path class="cls-6" d="m291.46 292.77a6.12 6.12 0 1 0 6.12-6.12 6.12 6.12 0 0 0-6.12 6.12z"/>
    <path class="cls-5" d="m325.81 307.36a6.12 6.12 0 1 0 6.12-6.12 6.11 6.11 0 0 0-6.12 6.12z"/>
    <path class="cls-5" d="m317.39 290.89a6.12 6.12 0 1 0 6.12-6.12 6.11 6.11 0 0 0-6.12 6.12z"/>
    <path class="cls-6" d="m304.63 307.36a6.12 6.12 0 1 0 6.12-6.12 6.11 6.11 0 0 0-6.12 6.12z"/>
    <path class="cls-6" d="m334.75 294.65a6.12 6.12 0 1 0 6.12-6.11 6.12 6.12 0 0 0-6.12 6.11z"/>
    <path class="cls-5" d="m332.39 345.94a6.12 6.12 0 1 0 6.11-6.12 6.11 6.11 0 0 0-6.11 6.12z"/>
    <path class="cls-5" d="m323.93 329.47a6.12 6.12 0 1 0 6.11-6.11 6.11 6.11 0 0 0-6.11 6.11z"/>
    <path class="cls-6" d="m311.22 345.94a6.12 6.12 0 1 0 6.12-6.12 6.12 6.12 0 0 0-6.12 6.12z"/>
    <path class="cls-6" d="m341.39 333.24a6.12 6.12 0 1 0 6.11-6.12 6.11 6.11 0 0 0-6.11 6.12z"/>
    <path class="cls-5" d="m382.27 323.83a6.12 6.12 0 1 0 6.12-6.12 6.12 6.12 0 0 0-6.12 6.12z"/>
    <path class="cls-5" d="m373.8 307.36a6.12 6.12 0 1 0 6.12-6.12 6.11 6.11 0 0 0-6.12 6.12z"/>
    <path class="cls-6" d="m361.1 323.83a6.12 6.12 0 1 0 6.12-6.12 6.12 6.12 0 0 0-6.12 6.12z"/>
    <path class="cls-6" d="m391.21 311.12a6.12 6.12 0 1 0 6.12-6.12 6.12 6.12 0 0 0-6.12 6.12z"/>
    <path class="cls-5" d="m382.27 305a6.12 6.12 0 1 0 6.12-6.11 6.12 6.12 0 0 0-6.12 6.11z"/>
    <path class="cls-5" d="m373.8 288.54a6.12 6.12 0 1 0 6.12-6.12 6.12 6.12 0 0 0-6.12 6.12z"/>
    <path class="cls-6" d="m361.1 305a6.12 6.12 0 1 0 6.12-6.11 6.12 6.12 0 0 0-6.12 6.11z"/>
    <path class="cls-6" d="m391.21 292.3a6.12 6.12 0 1 0 6.12-6.12 6.12 6.12 0 0 0-6.12 6.12z"/>
    <path class="cls-5" d="m423.68 325.24a6.12 6.12 0 1 0 6.12-6.12 6.11 6.11 0 0 0-6.12 6.12z"/>
    <path class="cls-5" d="m415.21 308.77a6.12 6.12 0 1 0 6.12-6.12 6.12 6.12 0 0 0-6.12 6.12z"/>
    <path class="cls-6" d="m402.51 325.24a6.12 6.12 0 1 0 6.11-6.12 6.1 6.1 0 0 0-6.11 6.12z"/>
    <path class="cls-6" d="m432.62 312.53a6.12 6.12 0 1 0 6.12-6.11 6.12 6.12 0 0 0-6.12 6.11z"/>
    <path class="cls-5" d="m101.83 292.3a6.12 6.12 0 1 0 6.12-6.12 6.12 6.12 0 0 0-6.12 6.12z"/>
    <path class="cls-5" d="m93.39 275.83a6.12 6.12 0 1 0 6.12-6.12 6.12 6.12 0 0 0-6.12 6.12z"/>
    <path class="cls-6" d="m80.66 292.3a6.12 6.12 0 1 0 6.12-6.12 6.12 6.12 0 0 0-6.12 6.12z"/>
    <path class="cls-6" d="m110.77 279.6a6.12 6.12 0 1 0 6.12-6.12 6.12 6.12 0 0 0-6.12 6.12z"/>
    <path class="cls-5" d="m456.62 332.3a6.12 6.12 0 1 0 6.11-6.12 6.12 6.12 0 0 0-6.11 6.12z"/>
    <path class="cls-5" d="m448.15 315.83a6.12 6.12 0 1 0 6.11-6.12 6.12 6.12 0 0 0-6.11 6.12z"/>
    <path class="cls-6" d="m435.44 332.3a6.12 6.12 0 1 0 6.12-6.12 6.12 6.12 0 0 0-6.12 6.12z"/>
    <path class="cls-6" d="m465.56 319.59a6.12 6.12 0 1 0 6.11-6.12 6.12 6.12 0 0 0-6.11 6.12z"/>
    <path class="cls-5" d="m442.5 306a6.12 6.12 0 1 0 6.12-6.12 6.12 6.12 0 0 0-6.12 6.12z"/>
    <path class="cls-5" d="m434.03 289.48a6.12 6.12 0 1 0 6.12-6.12 6.12 6.12 0 0 0-6.12 6.12z"/>
    <path class="cls-6" d="m421.33 306a6.12 6.12 0 1 0 6.11-6.12 6.12 6.12 0 0 0-6.11 6.12z"/>
    <path class="cls-6" d="m451.44 293.24a6.12 6.12 0 1 0 6.12-6.12 6.12 6.12 0 0 0-6.12 6.12z"/>
    <path class="cls-5" d="m484.39 294.65a6.12 6.12 0 1 0 6.12-6.11 6.12 6.12 0 0 0-6.12 6.11z"/>
    <path class="cls-5" d="m475.91 278.18a6.12 6.12 0 1 0 6.12-6.11 6.12 6.12 0 0 0-6.12 6.11z"/>
    <path class="cls-6" d="m463.2 294.65a6.12 6.12 0 1 0 6.12-6.11 6.12 6.12 0 0 0-6.12 6.11z"/>
    <path class="cls-6" d="m493.32 282a6.12 6.12 0 1 0 6.12-6.12 6.11 6.11 0 0 0-6.12 6.12z"/>
    <path class="cls-5" d="m403.45 304.06a6.12 6.12 0 1 0 6.11-6.11 6.12 6.12 0 0 0-6.11 6.11z"/>
    <path class="cls-5" d="m394.98 287.59a6.12 6.12 0 1 0 6.11-6.11 6.12 6.12 0 0 0-6.11 6.11z"/>
    <path class="cls-6" d="m382.27 304.06a6.12 6.12 0 1 0 6.12-6.06 6.12 6.12 0 0 0-6.12 6.06z"/>
    <path class="cls-6" d="m412.39 291.36a6.12 6.12 0 1 0 6.11-6.12 6.12 6.12 0 0 0-6.11 6.12z"/>
    <path class="cls-5" d="m490.5 337.94a6.12 6.12 0 1 0 6.11-6.12 6.11 6.11 0 0 0-6.11 6.12z"/>
    <path class="cls-5" d="m482.03 321.47a6.12 6.12 0 1 0 6.11-6.11 6.11 6.11 0 0 0-6.11 6.11z"/>
    <path class="cls-6" d="m469.32 337.94a6.12 6.12 0 1 0 6.12-6.12 6.12 6.12 0 0 0-6.12 6.12z"/>
    <path class="cls-6" d="m499.44 325.24a6.12 6.12 0 1 0 6.11-6.12 6.1 6.1 0 0 0-6.11 6.12z"/>
    <path class="cls-5" d="m523.39 339.82a6.12 6.12 0 1 0 6.12-6.11 6.12 6.12 0 0 0-6.12 6.11z"/>
    <path class="cls-5" d="m514.96 323.36a6.12 6.12 0 1 0 6.12-6.12 6.12 6.12 0 0 0-6.12 6.12z"/>
    <path class="cls-6" d="m502.26 339.82a6.12 6.12 0 1 0 6.12-6.11 6.12 6.12 0 0 0-6.12 6.11z"/>
    <path class="cls-6" d="m532.39 327.12a6.12 6.12 0 1 0 6.1-6.12 6.12 6.12 0 0 0-6.1 6.12z"/>
    <path class="cls-5" d="m512.14 308.9c0 3.05 2.74 5.51 6.12 5.51s6.13-2.41 6.13-5.51-2.73-5.52-6.11-5.52-6.14 2.47-6.14 5.52z"/>
    <path class="cls-5" d="m503.67 294.05c0 3.05 2.74 5.52 6.12 5.52s6.11-2.47 6.11-5.52-2.73-5.51-6.11-5.51-6.12 2.46-6.12 5.51z"/>
    <path class="cls-6" d="m490.97 308.9c0 3.05 2.73 5.51 6.11 5.51s6.12-2.46 6.12-5.51-2.74-5.52-6.12-5.52-6.11 2.47-6.11 5.52z"/>
    <path class="cls-6" d="m521.08 297.44c0 3.05 2.74 5.52 6.12 5.52s6.11-2.47 6.11-5.52-2.73-5.51-6.11-5.51-6.12 2.47-6.12 5.51z"/>
    <path class="cls-5" d="m47.25 292.3a6.12 6.12 0 1 0 6.14-6.12 6.12 6.12 0 0 0-6.14 6.12z"/>
    <path class="cls-6" d="m56.19 279.6a6.12 6.12 0 1 0 6.12-6.12 6.12 6.12 0 0 0-6.12 6.12z"/>
    <path class="cls-5" d="m365.33 340.76a6.12 6.12 0 1 0 6.12-6.11 6.12 6.12 0 0 0-6.12 6.11z"/>
    <path class="cls-5" d="m356.86 324.3a6.12 6.12 0 1 0 6.12-6.12 6.12 6.12 0 0 0-6.12 6.12z"/>
    <path class="cls-6" d="m344.16 340.76a6.12 6.12 0 1 0 6.12-6.11 6.12 6.12 0 0 0-6.12 6.11z"/>
    <path class="cls-6" d="m374.27 328.06a6.12 6.12 0 1 0 6.12-6.12 6.12 6.12 0 0 0-6.12 6.12z"/>
    <path class="cls-5" d="m360.16 313.47a6.12 6.12 0 1 0 6.11-6.11 6.12 6.12 0 0 0-6.11 6.11z"/>
    <path class="cls-5" d="m351.69 297a6.12 6.12 0 1 0 6.11-6.11 6.12 6.12 0 0 0-6.11 6.11z"/>
    <path class="cls-6" d="m338.98 313.47a6.12 6.12 0 1 0 6.12-6.11 6.12 6.12 0 0 0-6.12 6.11z"/>
    <path class="cls-6" d="m369.1 300.77a6.12 6.12 0 1 0 6.11-6.12 6.12 6.12 0 0 0-6.11 6.12z"/>
    <rect class="cls-7" x="9.6" y="404.91" width="708.74" height="89.74"/>
    <line class="cls-8" x1=".5" x2="727.45" y1="494.3" y2="494.3"/>
    <path class="cls-9" d="m113.51 478.34c-1.49-78-1.49-156.69 0-234.91"/>
    <path class="cls-9" d="m134.28 478.34c-0.79-78-0.79-156.69 0-234.91"/>
    <path class="cls-9" d="m155.05 478.34c-0.09-78-0.09-156.69 0-234.91"/>
    <path class="cls-9" d="m175.81 478.34c0.62-78 0.62-156.69 0-234.91"/>
    <path class="cls-9" d="m196.58 478.34c1.32-78 1.32-156.69 0-234.91"/>
    <path class="cls-9" d="m217.39 478.34c-1.55-78-1.55-156.69 0-234.91"/>
    <path class="cls-9" d="m238.12 478.34c-0.85-78-0.85-156.69 0-234.91"/>
    <path class="cls-9" d="m258.89 478.34c-0.15-78-0.15-156.69 0-234.91"/>
    <path class="cls-9" d="m279.65 478.34c0.56-78 0.56-156.69 0-234.91"/>
    <path class="cls-9" d="m300.39 478.34c1.26-78 1.26-156.69 0-234.91"/>
    <path class="cls-9" d="m321.19 478.34c-1.61-78-1.61-156.69 0-234.91"/>
    <path class="cls-9" d="m341.96 478.34c-0.91-78-0.91-156.69 0-234.91"/>
    <path class="cls-9" d="m362.73 478.34c-0.21-78-0.21-156.69 0-234.91"/>
    <path class="cls-9" d="m383.49 478.34c0.5-78 0.5-156.69 0-234.91"/>
    <path class="cls-9" d="m404.26 478.34c1.21-78 1.21-156.69 0-234.91"/>
    <path class="cls-9" d="m425.03 478.34c-1.67-78-1.67-156.69 0-234.91"/>
    <path class="cls-9" d="m445.8 478.34c-1-78-1-156.69 0-234.91"/>
    <path class="cls-9" d="m466.57 478.34c-0.27-78-0.27-156.69 0-234.91"/>
    <path class="cls-9" d="m487.33 478.34c0.44-78 0.44-156.69 0-234.91"/>
    <path class="cls-9" d="m508.1 478.34c1.15-78 1.15-156.69 0-234.91"/>
    <path class="cls-9" d="m528.87 478.34c-1.73-78-1.73-156.69 0-234.91"/>
    <path class="cls-9" d="m549.64 478.34c-1-78-1-156.69 0-234.91"/>
    <path class="cls-9" d="m570.39 478.34c-0.32-78-0.32-156.69 0-234.91"/>
    <path class="cls-9" d="m591.17 478.34c0.39-78 0.39-156.69 0-234.91"/>
    <path class="cls-9" d="m611.94 478.34c1.09-78 1.09-156.69 0-234.91"/>
    <path class="cls-9" d="m632.71 478.34c-1.79-78-1.79-156.69 0-234.91"/>
    <path class="cls-9" d="m653.48 478.34c-1.09-78-1.09-156.69 0-234.91"/>
    <path class="cls-9" d="m113.51 493c-1.49-78-1.49-176.09 0-254.31"/>
    <path class="cls-9" d="m134.28 493c-0.79-78-0.79-176.09 0-254.31"/>
    <path class="cls-9" d="m155.05 493c-0.09-78-0.09-176.09 0-254.31"/>
    <path class="cls-9" d="m175.81 493c0.62-78 0.62-176.09 0-254.31"/>
    <path class="cls-9" d="m196.58 493c1.32-78 1.32-176.09 0-254.31"/>
    <path class="cls-9" d="m217.39 493c-1.55-78-1.55-176.09 0-254.31"/>
    <path class="cls-9" d="m238.12 493c-0.85-78-0.85-176.09 0-254.31"/>
    <path class="cls-9" d="m258.89 493c-0.15-78-0.15-176.09 0-254.31"/>
    <path class="cls-9" d="m279.65 493c0.56-78 0.56-176.09 0-254.31"/>
    <path class="cls-9" d="m300.39 493c1.26-78 1.26-176.09 0-254.31"/>
    <path class="cls-9" d="m321.19 493c-1.61-78-1.61-176.09 0-254.31"/>
    <path class="cls-9" d="m341.96 493c-0.91-78-0.91-176.09 0-254.31"/>
    <path class="cls-9" d="m362.73 493c-0.21-78-0.21-176.09 0-254.31"/>
    <path class="cls-9" d="m383.49 493c0.5-78 0.5-176.09 0-254.31"/>
    <path class="cls-9" d="m404.26 493c1.21-78 1.21-176.09 0-254.31"/>
    <path class="cls-9" d="m425.03 493c-1.67-78-1.67-176.09 0-254.31"/>
    <path class="cls-9" d="m445.8 493c-1-78-1-176.09 0-254.31"/>
    <path class="cls-9" d="m466.57 493c-0.27-78-0.27-176.09 0-254.31"/>
    <path class="cls-9" d="m487.33 493c0.44-78 0.44-176.09 0-254.31"/>
    <path class="cls-9" d="m508.1 493c1.15-78 1.15-176.09 0-254.31"/>
    <path class="cls-9" d="m528.87 493c-1.73-78-1.73-176.09 0-254.31"/>
    <path class="cls-9" d="m549.64 493c-1-78-1-176.09 0-254.31"/>
    <path class="cls-9" d="m570.39 493c-0.32-78-0.32-176.09 0-254.31"/>
    <path class="cls-9" d="m591.17 493c0.39-78 0.39-176.09 0-254.31"/>
    <path class="cls-9" d="m611.94 493c1.09-78 1.09-176.09 0-254.31"/>
    <path class="cls-9" d="m632.71 493c-1.79-78-1.79-176.09 0-254.31"/>
    <path class="cls-9" d="m653.48 493c-1.09-78-1.09-176.09 0-254.31"/>
    <line class="cls-9" x1="96.39" x2="676.31" y1="260.76" y2="260.76"/>
    <line class="cls-9" x1="96.39" x2="676.31" y1="279.25" y2="279.25"/>
    <line class="cls-9" x1="96.39" x2="676.31" y1="297.73" y2="297.73"/>
    <line class="cls-9" x1="96.39" x2="676.31" y1="316.21" y2="316.21"/>
    <line class="cls-9" x1="96.39" x2="676.31" y1="334.7" y2="334.7"/>
    <line class="cls-9" x1="96.39" x2="676.31" y1="353.18" y2="353.18"/>
    <line class="cls-9" x1="96.39" x2="676.31" y1="371.66" y2="371.66"/>
    <line class="cls-9" x1="96.39" x2="676.31" y1="390.15" y2="390.15"/>
    <line class="cls-9" x1="96.39" x2="676.31" y1="408.63" y2="408.63"/>
    <line class="cls-9" x1="96.39" x2="676.31" y1="427.11" y2="427.11"/>
    <line class="cls-9" x1="96.39" x2="676.31" y1="445.6" y2="445.6"/>
    <line class="cls-9" x1="96.39" x2="676.31" y1="464.08" y2="464.08"/>
    <line class="cls-9" x1="96.39" x2="676.31" y1="483.49" y2="483.49"/>
    <path class="cls-10" d="m672.84 239.38h-570.68a12.15 12.15 0 0 0-12.14 12.14v242.6h5.8v-236.52l25.57 16.95a15.47 15.47 0 0 1 7 12.92v206.6h5.81v-206.6a21.27 21.27 0 0 0-9.54-17.76l-28.7-19a6.32 6.32 0 0 1 6.25-5.51h570.63a6.34 6.34 0 0 1 6.16 4.9l-29.61 19.62a21.24 21.24 0 0 0-9.54 17.75v206.6h5.81v-206.6a15.44 15.44 0 0 1 6.94-12.91l26.59-17.63v237.19h5.81v-242.6a12.15 12.15 0 0 0-12.16-12.14z"/>
    <path class="cls-4" d="m651.88 517.38c0 4.27-36 7.74-80.51 7.74s-80.52-3.47-80.52-7.74 36.05-7.73 80.52-7.73 80.51 3.46 80.51 7.73z"/>
    <path class="cls-11" d="m651.88 517.38c0 4.27-36 7.74-80.51 7.74s-80.52-3.47-80.52-7.74 36.05-7.73 80.52-7.73 80.51 3.46 80.51 7.73z"/>
    <path class="cls-3" d="m537.16 452.09s-5.78 10.18-6.12 13.58-3 45.5-3 45.5-10.53 7.81-10.53 9.51 3.4 1.69 5.1 1 12.56-5.44 12.9-7.14a39.28 39.28 0 0 0 0-6.45s10.52-38 10.86-40.74 7.47-12.57 7.47-12.57z"/>
    <path class="cls-12" d="m522.56 521.7c1.69-0.68 12.56-5.44 12.9-7.14a31.43 31.43 0 0 0 0-5.59 39.59 39.59 0 0 1-7.37-0.11c-0.1 1.45-0.15 2.31-0.15 2.31s-10.53 7.81-10.53 9.51 3.45 1.69 5.15 1.02z"/>
    <path class="cls-3" d="m535.46 508.11s9.84-35.55 10.8-40.36a18.09 18.09 0 0 1-15.41 0.36c-0.69 9.41-2.72 40.86-2.85 42.94 5.2 3.54 6.44-0.9 6.44-0.9l1.1-0.51c-0.04-0.89-0.08-1.53-0.08-1.53z"/>
    <path class="cls-3" d="m609.48 452.09s5.77 10.18 6.11 13.58 3.06 45.5 3.06 45.5 10.52 7.81 10.52 9.51-3.39 1.69-5.09 1-12.56-5.44-12.9-7.14a39.28 39.28 0 0 1 0-6.45s-10.53-38-10.87-40.74-7.47-12.57-7.47-12.57z"/>
    <path class="cls-12" d="m624.08 521.7c-1.7-0.68-12.56-5.44-12.9-7.14a31.43 31.43 0 0 1 0-5.59 39.61 39.61 0 0 0 7.37-0.11c0.09 1.45 0.15 2.31 0.15 2.31s10.52 7.81 10.52 9.51-3.44 1.69-5.14 1.02z"/>
    <path class="cls-3" d="m611.18 508.11s-9.79-35.55-10.79-40.36a18.09 18.09 0 0 0 15.41 0.36c0.68 9.41 2.72 40.86 2.85 42.94-5.21 3.54-6.44-0.9-6.44-0.9l-1.11-0.51c0.03-0.89 0.08-1.53 0.08-1.53z"/>
    <path class="cls-3" d="m629.39 433.64s-2.26-27.39-2.49-30.33-19.69-27.62-19.69-27.62-5.89-5.66-12.45-11.09a28.31 28.31 0 0 0-14-6.11l-3.39-0.21v-0.28l-2 0.13-2-0.13v0.25l-3.39 0.21a28.31 28.31 0 0 0-14 6.11c-6.71 5.43-12.59 11.12-12.59 11.12s-19.47 24.67-19.69 27.62-2.49 30.33-2.49 30.33-0.91 5-0.91 6.11 3.4 3.4 3.4 3.4 6.34-0.91 7-2.49a9 9 0 0 0 0.68-3.17s0.91-0.23 0.68-2-3.85-6.57-3.85-6.57 2.95-13.8 4.31-18.78 2.26-7.93 2.26-7.93l15.17-12 6.11 22.79s-11.32 16.52-14 23.77-6.79 16.52-6.79 16.52l18.34 10 14.26-19c0.68-0.91 6.11-6.57 6.11-6.57l1.36-0.54 1.36 0.54s5.43 5.66 6.11 6.57l14.26 19 18.34-10s-4.08-9.28-6.8-16.52-14-23.77-14-23.77l6.11-22.86 15.17 12s0.9 2.95 2.26 7.93 4.3 18.78 4.3 18.78-3.62 4.76-3.85 6.57 0.68 2 0.68 2a9 9 0 0 0 0.68 3.17c0.68 1.58 7 2.49 7 2.49s3.4-2.27 3.4-3.4-0.97-6.04-0.97-6.04z"/>
    <path class="cls-12" d="m626.91 403.31c-0.23-2.95-19.69-27.62-19.69-27.62s-5.89-5.66-12.45-11.09a28.31 28.31 0 0 0-14-6.11l-3.39-0.21v-0.28l-2 0.13-2-0.13v0.25l-3.39 0.21a28.31 28.31 0 0 0-14 6.11c-6.72 5.43-12.6 11.12-12.6 11.12s-19.47 24.67-19.69 27.62c-0.18 2.27-1.56 19.09-2.19 26.66l6.71-1.09s2.95-13.8 4.31-18.78 2.26-7.93 2.26-7.93l15.17-12 6.1 22.83s-11.32 16.52-14 23.77-6.79 16.52-6.79 16.52l18.34 10 14.26-19c0.68-0.91 6.11-6.57 6.11-6.57l1.36-0.54 1.36 0.54s5.43 5.66 6.11 6.57l14.26 19 18.34-10s-4.08-9.28-6.8-16.52-14-23.77-14-23.77l6.11-22.86 15.17 12s0.9 2.95 2.26 7.93c1.25 4.56 3.82 16.52 4.24 18.5l6.85 2.21c-0.66-7.03-2.15-25.11-2.33-27.47z"/>
    <path class="cls-13" d="m564.3 359.68s0.64 13.16 4.16 18.69 6.83 6.33 11.38 0 2.21-18.69 2.21-18.69z"/>
    <path class="cls-8" d="m562.73 416.31s11.24 6.42 23.27 0"/>
    <path class="cls-13" d="m607.22 375.69s-5.89-5.66-12.45-11.09a26.49 26.49 0 0 0-3.55-2.47l9.43 28.05 15.17 12s0.9 2.95 2.26 7.93c1.25 4.56 3.82 16.52 4.24 18.5l6.85 2.21c-0.59-7.06-2.08-25.14-2.26-27.5-0.23-2.96-19.69-27.63-19.69-27.63z"/>
    <path class="cls-13" d="m555.83 364.6c-6.56 5.4-12.44 11.09-12.44 11.09s-19.47 24.67-19.69 27.62c-0.18 2.27-1.56 19.09-2.19 26.66l6.71-1.09s2.95-13.8 4.31-18.78 2.26-7.93 2.26-7.93l15.17-12 6.19-25.82c-0.11 0.09-0.22 0.16-0.32 0.25z"/>
    <path class="cls-3" d="m565.99 363.34s1.68 8.56 4.07 12.49 4.63 4.5 7.72 0 3.09-12.07 3.09-12.07z"/>
    <path class="cls-3" d="m561.89 349.47s-2.68-1.07-2.94 2.67 2.13 6.15 3.74 5.08-0.8-7.75-0.8-7.75z"/>
    <path class="cls-3" d="m584.88 349.47s2.67-1.07 2.94 2.67-2.14 6.15-3.74 5.08 0.8-7.75 0.8-7.75z"/>
    <path class="cls-3" d="m572.05 328.08s-9.63 1.33-11 6.41-0.53 17.92 1.61 22.73 4 11.76 9.89 12.3 9.36-1.61 10.16-7.49 2.41-9.09 2.68-12.83-0.54-14.71-1.88-17.65-11.46-3.47-11.46-3.47z"/>
    <path class="cls-13" d="m583.54 331.55c-1.33-2.94-11.49-3.47-11.49-3.47s-9.63 1.33-11 6.41c-0.77 3-0.82 8.52-0.31 13.62a2.66 2.66 0 0 0 2.45-2.92c0-2.94-0.26-5.88 0-7.22s19.52-0.27 19.52-0.27a22.38 22.38 0 0 0-0.27 5.62c0.27 2.94 2.95 5.88 2.95 5.88 0.29-3.75-0.51-14.71-1.85-17.65z"/>
    <path class="cls-14" d="m570.06 351.19c0 1-0.28 1.76-0.63 1.76s-0.63-0.79-0.63-1.76 0.28-1.75 0.63-1.75 0.63 0.78 0.63 1.75z"/>
    <path class="cls-14" d="m577.64 351.19c0 1-0.28 1.76-0.63 1.76s-0.63-0.79-0.63-1.76 0.28-1.75 0.63-1.75 0.63 0.78 0.63 1.75z"/>
    <polyline class="cls-8" transform="translate(-14.61 -10.999)" points="586.35 369.28 589.3 369.14 588.88 360.58 591.83 357.21 595.76 357.07"/>
    <line class="cls-8" x1="572.45" x2="575.11" y1="361.79" y2="361.79"/>
    <line class="cls-8" x1="571.88" x2="565.43" y1="347.75" y2="346.21"/>
    <path class="cls-3" d="m567.75 210.89s-6 14.89-6 20.35-32.76-6-32.76-6 10.92-3.47 12.91-11.42 1-7 8.44-10.42 17.41 7.49 17.41 7.49z"/>
    <path class="cls-3" d="m521.59 173.16s-6.45 10.92-6 15.89 2.48 0.49 0.5 5-7.94 10.92-6.45 12.41a28.8 28.8 0 0 0 5.46 3.47s-0.5 13.9 1.49 15.89 16.38 0.49 23.32-3 8-12.41 8-12.41 4-0.5 8.93-5.46 8.93-22.83 3-29.78-17.87-9.93-24.82-9.43-13.43 7.42-13.43 7.42z"/>
    <path class="cls-14" d="m522.78 195.25c0 1.82-0.62 3.3-1.38 3.3s-1.37-1.48-1.37-3.3 0.61-3.31 1.37-3.31 1.38 1.48 1.38 3.31z"/>
    <path class="cls-8" d="m518.93 190.84a10.8 10.8 0 0 1 7.16-2.75"/>
    <path class="cls-13" d="m529.03 157.77s-2-10.42-7.44-6.94-12.91 11.91-8.44 20.35 20.35 4 20.35 4-4 7.44-0.49 8.93 6.45 2.48 6.45 2.48-4.47 6.41 2.48 6.41 4-5 8.44-6.46 9.92 7.45 7.44 13.41-5.46 7.44-5.46 7.44a23.16 23.16 0 0 0 9.93 6c6.45 2 8.44-2 13.9-11.92s8.93-27.79 6-37.22-18.86-7.94-22.83-7.94a45.85 45.85 0 0 0-8.44 1s1.49-7.45-5-7.45-16.89 7.91-16.89 7.91z"/>
    <path class="cls-3" d="m441.68 261s-5-8.94-8.44-10.43-8.44 4-8.44 4-6.45-1.48-7.45 0.5l-2.48 5s-1-1-1.49 3.48c-0.22 2-1.69 5.33-1 7.28 0.82 2.19 3.39 2.51 5.4 3.54 5.71 2.93 10.46 9.78 16.39 11.51s11.43-2.11 15.42-5.95c13.43-12.93-2.95-19.41-7.91-18.93z"/>
    <path class="cls-8" d="m439.19 261a54.27 54.27 0 0 0-15.8 10.08"/>
    <path class="cls-3" d="m612.39 268.46s23.33-24.82 30.78-36.73 14.89-29.28 14.89-35.24 2-11.91 5.46-14.89 11.41-12.33 11.41-7.45c0 3-0.49 3-2 5s-6 9.43-6 9.43 16.38-13.4 17.87-14.4 5.46-4 6.45-2.48-2 6-2 6l-6.46 7s10.92-4.47 12.91-4.47 2 2.48 0.5 4-11.81 8.29-11.81 8.29l8.44-2.48s0 0.49 1 2-4 8.44-5.95 9.93-19.36 13.4-19.36 13.4-15.39 28.29-18.36 40.21-10.92 26.3-13.41 31.27-7.44 7.94-11.41 9.43-12.95-19.88-12.95-27.82z"/>
    <path class="cls-8" d="m693.82 192a33.1 33.1 0 0 1-8.43 6"/>
    <line class="cls-8" x1="682.9" x2="679.93" y1="184.58" y2="186.07"/>
    <path class="cls-3" d="m461.53 335-14.39 12.41s-42.2-5.95-67-1.49-36.75 9.9-38.75 15.36-19.85 33.26-38.22 54.1-34.74 32.76-39.21 33.76-12.41-5.46-21.84-12.91-15.88-6-14.39 2 6.94 13.4 11.41 19.85 8.44 20.85 12.41 22.83 10.92 3 13.9-2.48 17.37-18.36 36.23-31.27 35.74-18.86 50.13-28.79 19.86-34.25 19.86-34.25 44.17 11.42 58.07 13.9 23.33 4 23.33 4h4.47s5 28.3 10.92 52.12 13.4 45.17 18.36 47.65 97.81 33.21 105.75 36.21 30.82 11.9 30.82 11.9 14.89 10.92 18.86 17.87 6.46 15.88 9.93 16.87 4-13.9 0.5-30.77-1-25.32-5-31.27-19.35 0-24.81 0.49-23.33-3-38.72-12.41-20.87-19.85-37.76-28.78a77.46 77.46 0 0 0-32.74-8.9s3-27.79 3-36.23v-35.28s3-15.39 3.47-25.32-2.48-24.82-2.48-24.82z"/>
    <path class="cls-3" d="m652.63 553.87c-3.48-16.88-1-25.32-5-31.27s-19.35 0-24.81 0.49-23.33-3-38.72-12.41-20.82-19.85-37.71-28.78a79.53 79.53 0 0 0-21.73-7.63c-5.29 4.41-17.5 16.74-15.35 35.48 29.4 10.07 77.61 26.13 83.24 28.23 7.96 3.02 30.84 11.92 30.84 11.92s14.89 10.92 18.86 17.87 6.46 15.88 9.93 16.87 3.92-13.9 0.45-30.77z"/>
    <path class="cls-12" d="m621.39 547.91a7.63 7.63 0 0 0-0.08 1.18l2.06 0.81s14.89 10.92 18.86 17.87 6.46 15.88 9.93 16.87 4-13.9 0.5-30.77-1-25.32-5-31.27c-3.31-5-14.55-1.66-21.36-0.13l6.47 18.53s-10.38 0-11.38 6.91z"/>
    <path class="cls-3" d="m351.83 418.36c8.42-5.8 13.77-16.51 16.78-24.42-18.28-1.39-27.77-16.45-31.59-24.57a362.91 362.91 0 0 1-33.83 46c-18.36 20.85-34.74 32.76-39.21 33.76s-12.41-5.46-21.84-12.91-15.88-6-14.39 2 6.94 13.4 11.41 19.85 8.44 20.85 12.41 22.83 10.92 3 13.9-2.48 17.37-18.36 36.23-31.27 35.74-18.86 50.13-28.79z"/>
    <path class="cls-12" d="m242.14 436.23c-9.43-7.44-15.88-6-14.39 2s6.94 13.4 11.41 19.85 8.44 20.85 12.41 22.83 10.92 3 13.9-2.48a36.18 36.18 0 0 1 5.81-7l-1.34-0.48c-7.95-3-12.41-13.9-12.41-13.9l6.45-7.94c-4.47 1.02-12.41-5.43-21.84-12.88z"/>
    <path class="cls-12" d="m515.26 456.68c0.7-7.66 1.37-16 1.37-19.95v-35.24s3-15.39 3.47-25.32-2.48-24.82-2.48-24.82l-56.09-16.35-14.39 12.41s-42.2-5.95-67-1.49l-3.46 0.66c3.46 8.14 8.15 23.45 3.9 39.83 13.64 3.47 39.22 9.85 49.19 11.63 13.9 2.48 23.33 4 23.33 4h4.47s5 28.3 10.92 52.12c1.15 4.6 2.36 9.11 3.59 13.41 10-4.82 27.24-11.57 43.18-10.89z"/>
    <path class="cls-4" d="m471.96 440.83-0.41-1.65a13.55 13.55 0 0 1-0.37-4.5 29.39 29.39 0 0 1 1-5.39c0-0.07 0.24-0.83 0.65-2.28s0.73-2.44 0.95-3a11.24 11.24 0 0 0-0.18-5.94q-0.92-3.6-2.44-3.21c-0.84 0.21-1.2 1-1.06 2.4a15 15 0 0 0 0.41 2.17l0.9 3.54-4.02 1.03-0.43-1.72c-0.88-3.46-1.14-5.88-0.8-7.26a4.64 4.64 0 0 1 2.1-3 8.5 8.5 0 0 1 2.23-0.87 5.16 5.16 0 0 1 2.59 0 4.72 4.72 0 0 1 2.11 1.25 11.23 11.23 0 0 1 2.63 5.19 13.23 13.23 0 0 1 0.18 6.29c-0.45 1.92-0.94 3.66-1.46 5.2a22.37 22.37 0 0 0-1.37 7.42l6.45-1.63 0.84 3.34z"/>
    <path class="cls-4" d="m496.88 432.76q-1 2.39-4.31 3.22t-5.33-0.78a10 10 0 0 1-3-5.5l-3.38-13.36a8.86 8.86 0 0 1 0.12-5.92q1-2.24 4.34-3.06t5.27 0.64c1.33 1 2.3 2.69 2.92 5.15l3.37 13.36c0.67 2.58 0.67 4.67 0 6.25zm-5.28-0.44a1.82 1.82 0 0 0 1.36-1.18 6.9 6.9 0 0 0-0.3-3.48l-3.43-13.61c-0.53-2.06-1.31-3.1-2.33-3.11a4.51 4.51 0 0 0-0.92 0.16 1.78 1.78 0 0 0-1.06 0.93c-0.28 0.51-0.23 1.52 0.16 3.05l3.44 13.63a7.17 7.17 0 0 0 1.37 3.29 1.76 1.76 0 0 0 1.71 0.32z"/>
    <path d="m622.39 270s-4-1-25.81-18.86-30.82-23.88-47.19-28.84-38.21 0.5-49.63 5.46-60.57 33.24-60.57 33.24-4.46 7.44-0.49 13.9a40.15 40.15 0 0 0 8.44 9.92l33.75-5-24.82 58.57 61.05 18.86s28.79-34.74 38.22-42.69 28.79-27.3 28.79-27.3l38.72 16.88s17.86-13.84-0.46-34.14z"/>
    <path class="cls-3" d="m507.44 304.24 2.45-3.33a48.28 48.28 0 0 1 7.37-8 91.62 91.62 0 0 1 10.21-7.48c0.15-0.09 1.66-1 4.51-2.86s4.87-3 6-3.67q4.68-2.88 10-10.14t3.26-8.78c-1.15-0.84-2.84 0-5.09 2.48q-1.44 1.6-3.35 4.2l-5.25 7.16-5.51-4 2.54-3.47q7.69-10.49 11.73-13.21t7.11-2a9.57 9.57 0 0 1 3.54 1.71 6.24 6.24 0 0 1 2.4 3.64 10.55 10.55 0 0 1-0.22 5.07q-1.45 5.5-6.47 12.35a45.65 45.65 0 0 1-10.61 10.7q-5.57 3.86-10.25 6.59a69.39 69.39 0 0 0-14 10.41l8.74 6.41-4.94 6.74z"/>
    <path class="cls-3" d="m544.24 326.06a9.05 9.05 0 0 1-13.06-9.58q0.93-5.53 6.68-13.36l19.79-27q5.46-7.44 10.26-9.67a9.34 9.34 0 0 1 13 9.55q-0.67 5.25-6.14 12.69l-19.8 27q-5.72 7.82-10.73 10.37zm-4.11-8.2a2.87 2.87 0 0 0 3.27 0c1.28-0.7 3.17-2.77 5.7-6.21l20.17-27.5q4.56-6.27 3.2-8.46a5.42 5.42 0 0 0-1.15-1 2.62 2.62 0 0 0-2.55 0.05q-1.7 0.68-5.09 5.29l-20.2 27.53c-2.57 3.51-4 5.94-4.28 7.31a2.76 2.76 0 0 0 0.93 2.99z"/>
    <line class="cls-12" x1="480.89" x2="510.67" y1="279.88" y2="274.92"/>
    <line class="cls-12" x1="584.13" x2="598.52" y1="287.32" y2="273.92"/>
    <path class="cls-3" d="m239.03 103.57s4.08 14 5.44 16.76 5.92 4.07 5.92 4.07v10.87c0 2.72 6.34 2.27 6.34 2.27s10.41 9.51 11.77 11.77 1.36 4.53 4.08 5 7.25-0.45 9.51-1.35 39.86-21.74 39.86-21.74l-17.21-19.48a143.88 143.88 0 0 0-13.14-19c-7.28-8.65-17.21-22.23-32.21-19.52s-20.36 30.35-20.36 30.35z"/>
    <path class="cls-13" d="m306.97 112.63s0.42-22.63-6.79-38.95-29.44-24-42.12-17.67-24.46 19.93-25.37 33.52c-0.91 13.59 2.72 19 6.8 17.66s11.32-21.74 11.32-17.66-2.72 11.77 0.91 14.94 8.15-0.45 9.05 0.91 1.81 7.25 4.53 5.89 0-8.61 2.72-9.51 10.42 4.07 11.78 10.41 0 5.44 0 5.44 7.69 5.89 12.68 5.43 14.49-10.41 14.49-10.41z"/>
    <path class="cls-8" d="m279.8 117.61-3.17 5a34.69 34.69 0 0 1 3.62 12.23"/>
    <path class="cls-3" d="m271.13 420.17a65.09 65.09 0 0 0-8.94 23.83c-2 13.4 13.42 55.6 13.42 71.49s1 28.77 0 38.7-6.95 15.39-9.92 20.35-10.92 8.94-10.92 13.9 12.9 8.44 15.88 12.41 9.93 11.41 19.85 5 7.45-22.33 8.44-30.77 4-40.7 6.46-48.15 8.93-34.25 5.95-51.12-11.41-34.25-11.41-34.25l8.43-8.44s-31.78-6-37.24-12.95z"/>
    <path class="cls-13" d="m298.92 575c0.18-1.49 0.42-3.74 0.7-6.45-14.77 3.16-22.61-0.81-26.7-5.15-2.26 4.58-5.36 7.94-7.25 11.1-3 5-10.92 8.94-10.92 13.9s12.9 8.44 15.88 12.41 9.93 11.41 19.85 5 7.45-22.33 8.44-30.81z"/>
    <path class="cls-3" d="m311.33 475.77c-0.17-1-0.37-2-0.58-3-0.07-0.34-0.15-0.67-0.22-1-0.15-0.65-0.29-1.3-0.45-1.95l-0.3-1.19-0.45-1.72c-0.12-0.43-0.23-0.85-0.35-1.26s-0.3-1.06-0.46-1.59-0.25-0.87-0.39-1.3-0.29-0.94-0.44-1.41-0.29-0.92-0.44-1.37l-0.34-1c-0.44-1.3-0.88-2.58-1.33-3.79a45.2 45.2 0 0 0-11.11-2.73c-14-1.83-24.06 5.85-29.77 12.07 4 17.72 10.92 40.3 10.92 51 0 14.24 0.77 26 0.22 35.5-0.06 1.1-0.13 2.17-0.24 3.2-0.08 0.86-0.22 1.68-0.37 2.48 0 0.17-0.07 0.35-0.11 0.52-0.17 0.78-0.36 1.54-0.59 2.26v0.1c-0.23 0.72-0.49 1.41-0.76 2.08 0 0.09-0.08 0.18-0.11 0.27-0.3 0.7-0.61 1.38-1 2-1.15 6.2 0.67 14.17 5.9 17.07 13.4 7.45 18.86-1.48 18.86-1.48l1.26-1.17c0-0.58 0.05-1.15 0.09-1.7s0.08-1.09 0.14-1.6c1-8.44 4-40.7 6.46-48.15s8.94-34.27 5.96-51.14z"/>
    <g class="cls-15" transform="translate(-14.61 -10.999)" clip-path="url(#b)">
        <path class="cls-4" d="m91.19 486.9a42.6 42.6 0 1 0 42.81-42.59 42.63 42.63 0 0 0-42.81 42.59z"/>
        <path class="cls-14" d="m91.19 486.9a42.6 42.6 0 1 1 42.34 42.61 42.55 42.55 0 0 1-42.34-42.61zm68.93-13.3a73.79 73.79 0 0 0-3-15.49 1 1 0 0 0-0.43-0.47 73.19 73.19 0 0 0-12.88-6.31 1.1 1.1 0 0 0-0.67 0c-1.71 0.54-3.39 1.11-5.09 1.66a39.52 39.52 0 0 0-9.71 4.45 0.52 0.52 0 0 0-0.3 0.6c0.75 4.92 1.47 9.83 2.22 14.75a0.77 0.77 0 0 0 0.35 0.49q7.91 3.84 15.83 7.66a0.78 0.78 0 0 0 0.6 0l12.71-6.94c0.16 0 0.25-0.25 0.37-0.4zm-48.91 12.4 5.35 0.26a0.75 0.75 0 0 0 0.55-0.18q6-6.23 12-12.47a0.68 0.68 0 0 0 0.16-0.51q-1.06-7.29-2.17-14.57c-0.1-0.69-0.1-0.7-0.85-0.8a60.55 60.55 0 0 0-12-0.57 1.29 1.29 0 0 0-0.74 0.3 112.79 112.79 0 0 0-10.82 11.54 0.81 0.81 0 0 0-0.15 0.55q0.36 2.64 0.74 5.26a96.82 96.82 0 0 0 2.06 10.55c0.06 0.23 0.11 0.39 0.42 0.4 1.82 0.07 3.63 0.17 5.45 0.24zm49.26-11.14-0.42 0.22q-6.23 3.36-12.45 6.72a0.92 0.92 0 0 0-0.52 0.78c-0.42 3.16-0.86 6.32-1.3 9.47-0.34 2.46-0.68 4.92-1 7.39a0.77 0.77 0 0 0 0.19 0.61q4.18 3.78 8.39 7.51a0.6 0.6 0 0 0 0.5 0.1 47.13 47.13 0 0 0 13-6.7 1.38 1.38 0 0 0 0.57-0.9 87.8 87.8 0 0 0 1.66-10.94 2 2 0 0 0-0.16-1c-1.06-2.14-2.08-4.31-3.24-6.4a40.34 40.34 0 0 0-5.22-6.84zm-49.63 12.19c-1.79-0.08-3.57-0.17-5.36-0.24a0.71 0.71 0 0 0-0.49 0.25c-0.53 0.81-1 1.64-1.52 2.48a37.41 37.41 0 0 0-3.27 9.13 0.76 0.76 0 0 0 0.08 0.46 115.46 115.46 0 0 0 5.94 10.94 1 1 0 0 0 0.5 0.4c2 0.57 4 1.19 6 1.65a39.94 39.94 0 0 0 8.94 0.64c0.3 0 0.33-0.19 0.39-0.38 1-2.89 2-5.78 3.09-8.66a0.88 0.88 0 0 0-0.06-0.76q-4.11-7.62-8.18-15.27a0.61 0.61 0 0 0-0.58-0.37zm23.54 35.48h0.23a81.42 81.42 0 0 0 12.2-2.18 0.8 0.8 0 0 0 0.45-0.32 33.07 33.07 0 0 0 5.44-11.13 0.61 0.61 0 0 0-0.23-0.71q-4-3.58-8-7.19a1.06 1.06 0 0 0-1-0.27q-8.35 1.51-16.74 3a0.67 0.67 0 0 0-0.59 0.5c-1 2.79-2 5.58-3 8.36a1 1 0 0 0 0.16 1 27.65 27.65 0 0 0 10.83 8.81zm-39.14-50.7 0.55-0.23c1.75-0.79 3.5-1.57 5.24-2.38a2 2 0 0 0 0.7-0.53 123 123 0 0 1 11.47-12.25 1.44 1.44 0 0 0 0.35-0.55c0.48-1.17 0.93-2.35 1.4-3.53 0.36-0.92 0.72-1.84 1.13-2.87a41.57 41.57 0 0 0-20.84 22.34zm78.51 4.58-0.15 0.42-3.09 9.73a6 6 0 0 0-0.34 1.29 92.52 92.52 0 0 1-1.87 12.71 3.93 3.93 0 0 0-0.17 1.27c0.2 1.68 0.46 3.36 0.69 5 0.08 0.51 0.16 1 0.25 1.67a41.05 41.05 0 0 0 5.86-17.17 39.77 39.77 0 0 0-1.18-14.92zm-45.55 51.5a41.42 41.42 0 0 0 15.11-0.73 39.83 39.83 0 0 0 13.69-6.07c-2.84-0.11-5.67-0.16-8.49-0.21a1.94 1.94 0 0 0-0.48 0.09 84 84 0 0 1-12.49 2.34 3.31 3.31 0 0 0-1.79 0.56c-1.68 1.27-3.42 2.47-5.14 3.71zm-21.33-9.58v-0.33c-0.28-1.9-0.55-3.8-0.85-5.7a3.65 3.65 0 0 0-0.36-1.36 130.59 130.59 0 0 1-6.39-11.81 1.53 1.53 0 0 0-0.36-0.5l-5.67-4.92a2.61 2.61 0 0 0-0.29-0.18 41.39 41.39 0 0 0 13.94 24.8zm31.59-72.57c0.14 0.15 0.18 0.21 0.23 0.25l4.42 4a1.62 1.62 0 0 0 0.5 0.27 77.54 77.54 0 0 1 13.86 6.72 2.72 2.72 0 0 0 1 0.34c0.72 0.11 1.44 0.16 2.17 0.23l2.42 0.23a40.89 40.89 0 0 0-24.6-12.04z"/>
        <path class="cls-4" d="m160.12 473.6c-0.12 0.15-0.21 0.35-0.37 0.44l-12.68 6.86a0.78 0.78 0 0 1-0.6 0q-7.93-3.81-15.83-7.66a0.77 0.77 0 0 1-0.35-0.49c-0.75-4.92-1.47-9.83-2.22-14.75a0.52 0.52 0 0 1 0.3-0.6 39.52 39.52 0 0 1 9.71-4.45c1.7-0.55 3.38-1.12 5.09-1.66a1.1 1.1 0 0 1 0.67 0 73.19 73.19 0 0 1 12.88 6.31 1 1 0 0 1 0.43 0.47 73.79 73.79 0 0 1 2.97 15.53z"/>
        <path class="cls-4" d="m111.21 486c-1.82-0.09-3.63-0.19-5.45-0.26-0.31 0-0.36-0.17-0.42-0.4a96.82 96.82 0 0 1-2.06-10.55q-0.37-2.62-0.74-5.26a0.81 0.81 0 0 1 0.15-0.55 112.79 112.79 0 0 1 10.77-11.52 1.29 1.29 0 0 1 0.74-0.3 60.55 60.55 0 0 1 12 0.57c0.75 0.1 0.75 0.11 0.85 0.8q1.1 7.29 2.17 14.57a0.68 0.68 0 0 1-0.16 0.51q-6 6.24-12 12.47a0.75 0.75 0 0 1-0.55 0.18l-5.35-0.26z"/>
        <path class="cls-4" d="m160.47 474.88a40.34 40.34 0 0 1 5.26 6.83c1.16 2.09 2.18 4.26 3.24 6.4a2 2 0 0 1 0.16 1 87.8 87.8 0 0 1-1.66 10.94 1.38 1.38 0 0 1-0.57 0.9 47.13 47.13 0 0 1-13 6.7 0.6 0.6 0 0 1-0.5-0.1q-4.22-3.74-8.39-7.51a0.77 0.77 0 0 1-0.19-0.61c0.32-2.47 0.66-4.93 1-7.39 0.44-3.15 0.88-6.31 1.3-9.47a0.92 0.92 0 0 1 0.52-0.78q6.24-3.35 12.45-6.72z"/>
        <path class="cls-4" d="m110.84 487.07 5.45 0.26a0.61 0.61 0 0 1 0.58 0.37q4.08 7.65 8.18 15.27a0.88 0.88 0 0 1 0.06 0.76c-1 2.88-2.06 5.77-3.09 8.66-0.06 0.19-0.09 0.38-0.39 0.38a39.94 39.94 0 0 1-8.94-0.64c-2-0.46-4-1.08-6-1.65a1 1 0 0 1-0.5-0.4 115.46 115.46 0 0 1-5.94-10.94 0.76 0.76 0 0 1-0.08-0.46 37.41 37.41 0 0 1 3.27-9.13c0.48-0.84 1-1.67 1.52-2.48a0.71 0.71 0 0 1 0.49-0.25c1.79 0.07 3.57 0.16 5.36 0.24z"/>
        <path class="cls-4" d="m134.38 522.55-0.29-0.11a27.65 27.65 0 0 1-10.83-8.81 1 1 0 0 1-0.16-1c1-2.78 2-5.57 3-8.36a0.67 0.67 0 0 1 0.59-0.5q8.37-1.49 16.74-3a1.06 1.06 0 0 1 1 0.27q4 3.61 8 7.19a0.61 0.61 0 0 1 0.23 0.71 33.07 33.07 0 0 1-5.4 11.06 0.8 0.8 0 0 1-0.45 0.32 81.42 81.42 0 0 1-12.2 2.18z"/>
        <path class="cls-4" d="m95.24 471.83a41.57 41.57 0 0 1 20.84-22.34c-0.41 1-0.77 1.95-1.13 2.87-0.47 1.18-0.92 2.36-1.4 3.53a1.44 1.44 0 0 1-0.35 0.55 123 123 0 0 0-11.47 12.25 2 2 0 0 1-0.7 0.53c-1.74 0.81-3.49 1.59-5.24 2.38z"/>
        <path class="cls-4" d="m173.75 476.41a39.77 39.77 0 0 1 1.18 15 41.05 41.05 0 0 1-5.86 17.17c-0.09-0.64-0.17-1.16-0.25-1.67-0.23-1.68-0.49-3.36-0.69-5a3.93 3.93 0 0 1 0.17-1.27 92.52 92.52 0 0 0 1.87-12.71 6 6 0 0 1 0.34-1.29l3.09-9.73z"/>
        <path class="cls-4" d="m128.2 527.91 0.41-0.31c1.72-1.24 3.46-2.44 5.14-3.71a3.31 3.31 0 0 1 1.79-0.56 84 84 0 0 0 12.46-2.33 1.94 1.94 0 0 1 0.48-0.09c2.82 0.05 5.65 0.1 8.49 0.21a39.83 39.83 0 0 1-13.69 6.07 41.42 41.42 0 0 1-15.08 0.72z"/>
        <path class="cls-4" d="m106.87 518.33a41.39 41.39 0 0 1-13.94-24.8 2.61 2.61 0 0 1 0.29 0.18l5.67 4.92a1.53 1.53 0 0 1 0.36 0.5 130.59 130.59 0 0 0 6.39 11.81 3.65 3.65 0 0 1 0.36 1.36c0.3 1.9 0.57 3.8 0.85 5.7 0.01 0.07 0.01 0.14 0.02 0.33z"/>
        <path class="cls-4" d="m138.46 445.76a40.89 40.89 0 0 1 24.63 12l-2.42-0.23c-0.73-0.07-1.45-0.12-2.17-0.23a2.72 2.72 0 0 1-1-0.34 77.54 77.54 0 0 0-13.86-6.75 1.62 1.62 0 0 1-0.5-0.27l-4.42-4c-0.08 0.06-0.12-0.03-0.26-0.18z"/>
    </g>
    <circle class="cls-1" cx="119.49" cy="475.89" r="42.6"/>
    <path class="cls-3" d="m208.47 378.33s-10.72 11.91-21.44 23.23-14.56 28.84-14.07 40.25-2 27.05-3.8 32.41-7.15 17.87-7.15 17.87l36.38-13.09s3-21.44 6.55-27.4 11.31-9.53 13.1-16.68a82.12 82.12 0 0 1 3.58-11.32l23.22-11.31s-31.01-19.07-36.37-33.96z"/>
    <path class="cls-3" d="m218 434.91c1-4.1 2-7.17 2.73-9.09-0.94-4.31-5.09-17.71-20.6-17.71-10.44 0-19.35 7.42-25.13 13.88a54.22 54.22 0 0 0-2.27 18.28c0.6 13.7-1.78 28.59-3.57 34s-7.15 17.87-7.15 17.87l36.38-13.14s3-21.44 6.55-27.4 11.27-9.54 13.06-16.69z"/>
    <path class="cls-13" d="m192.39 469.46s-31.57 15.48-51.82 28-23.83 39.31-14.89 40.5 29.18 0 35.74-7.14 6.55-17.87 18.46-25 26.8-13.1 28.59-22.63-3.57-19.09-16.08-13.73z"/>
    <path class="cls-16" d="m275.23 297.25s-54.73 63.36-62.18 71.8-12.9 14.89-12.9 14.89 5 30.77 46.66 36.23l37.85-45.49-15.52 46s-2.48 5.46 22.34 13.4 33.25 4.47 33.25 4.47 21.48-53.43 30.41-64.35 24.33-21.84 24.82-34.75-5-26.31-5-26.31-6-12.9-41.7-19.85-58.03 3.96-58.03 3.96z"/>
    <g class="cls-17" transform="translate(-14.61 -10.999)" clip-path="url(#a)">
        <path class="cls-18" d="m359.83 371.79c-17.87 1-36.73-3-36.73-3l-23.33 14.91-2.21 3.45 1.71-1.47-15.52 46s-2.48 5.46 22.34 13.4 33.25 4.47 33.25 4.47 21.48-53.43 30.41-64.35c5.34-6.53 13-13.05 18.35-20-7.01 2.64-17.71 6-28.27 6.59z"/>
        <path class="cls-19" d="m218.82 406.13s63.52-75.56 70.68-78.61 19.81-17.83 19.81-17.83"/>
        <path class="cls-19" d="m222.78 412.07s63.52-75.55 70.68-78.6 19.82-17.84 19.82-17.84"/>
    </g>
    <path class="cls-8" d="m275.23 297.25s-54.73 63.36-62.18 71.8-12.9 14.89-12.9 14.89 5 30.77 46.66 36.23l37.85-45.49-15.52 46s-2.48 5.46 22.34 13.4 33.25 4.47 33.25 4.47 21.48-53.43 30.41-64.35 24.33-21.84 24.82-34.75-5-26.31-5-26.31-6-12.9-41.7-19.85-58.03 3.96-58.03 3.96z"/>
    <path class="cls-3" d="m339.64 131.47a31.16 31.16 0 0 1-1.15-6.32c0-2.3 1.72-3.45 2.29-6.32s-2.29-5.17 0.58-9.77 9.19-3.45 13.22 0.58c0 0 3.44-0.58 8 3.44a27.83 27.83 0 0 1 6.32 7.47s0.58 4.6 1.15 7.47-1.85 3.34 0.58 5.75 1.72 6.9 1.72 6.9z"/>
    <path class="cls-3" d="m382.73 151.58s20.12 14.94 25.86 20.69 9.8 16.67 9.8 24.73-5.17 9.19-11.49 10.92-10.35-2.88-16.67-11.49-27-44.25-27-44.25 1.72-5.17 5.74-5.17 13.76 4.57 13.76 4.57z"/>
    <path class="cls-12" d="m330.52 128.93a34.64 34.64 0 0 0-28.08-2.26c-15.85 5.43-19.93 20.38-24.91 24s-18.57 17.21-17.21 34 19.93 50.73 19.48 60.69-0.46 32.61-1.82 40.31-7.7 19-7.7 19a111 111 0 0 1 41.22-8.15c23.1 0 42.57 5.43 48.46 9.06s16.76 7.7 16.76 7.7-9.06-39.41-9.06-43.94-0.91-10 1.81-15.4 7.7-46.19 7.7-46.19l8.44 13.95s29.61-5.35 29.15-25.27c0 0-14-21.29-19.92-29.9s-12.69-22.19-21.74-30.34-20.84-8.19-25.82-8.19-16.76 0.93-16.76 0.93z"/>
    <path class="cls-13" d="m272.55 236.27s21.69-12.28 26.29-17.45-0.58-18.39-11.5-14.37-15.22 29.16-14.79 31.82z"/>
    <path class="cls-3" d="m304.71 198.68s7.24 10.42 10.41 17.66-13.58 82.43-13.58 82.43a92.13 92.13 0 0 1 6.79 11.78c2.72 5.89 3.62 14 3.62 17.66s-5.43 7.7-5.43 7.7 7.7 3.63 4.53 4.53-4.53 1.36-4.53 1.36 2.71 4.08 0.45 4.08a43.92 43.92 0 0 1-11.78-1.82c-4.07-1.35-9.51-9.05-13.58-14.94s3.62-26.27 4.53-31.71 0.9-44.83-0.46-52.08 0-23.1 0-23.1l-8.6-6.34a31.07 31.07 0 0 1 27.63-17.21z"/>
    <path class="cls-8" d="m306.52 341.8s-6.77 0.71-8.91-0.24-8.8-9.27-8.8-9.27"/>
    <polyline class="cls-8" transform="translate(-14.61 -10.999)" points="321.97 346.85 315.78 346.14 308.89 339.95"/>
    <path class="cls-8" d="m309.5 332.76s-4.52-1.43-4.76-2.14-5.23-6.42-5.23-6.42"/>
    <path class="cls-12" d="m277.08 154.29s-14.95 3.63-23.55 17.67 3.62 33.06 7.7 42.12 11.32 22.19 11.32 22.19 8.6-20.38 17.66-27.63a29 29 0 0 1 19-6.34s-11.75-17.66-15.82-23.55-13.58-9.51-13.58-9.51"/>
    <polyline class="cls-8" transform="translate(-14.61 -10.999)" points="391.78 218.74 391.6 191.89 393.32 170.63"/>
    <path class="cls-14" d="m322.39 241.19c-0.31-28.14 2.49-37.92-6.19-66.38a7.79 7.79 0 0 1-2.91 3.71 13.89 13.89 0 0 1-4.56 2c-0.68-3.09-1.56-6.15-2.26-9.21a12.42 12.42 0 0 0 5.3-4.64 24 24 0 0 0 2.81-7.93q3.93-0.91 7.86-1.78c7 33.1 9.67 50 10.53 83.85-3.5 0.19-7.02 0.25-10.58 0.38z"/>
    <path class="cls-14" d="m368.66 230.55c-3 5.5-6.66 6.59-11.61 7s-8.29 0.37-11.2-4.59-3.06-9.48-2.76-17.31c0.38-10.12-2.44-28.48-5.25-38.33-2.06-7.24-2.5-11.43-0.54-16.71s5.56-6.48 10.32-7.34 8.63-0.9 12.68 3.17 5.47 7.74 7.23 15.21c2.38 10.14 5.21 28.79 5.19 39.41-0.02 8.26-1.07 14-4.06 19.49zm-11.83-3.75c1.85-0.18 2.65-0.19 3.9-3.05s1.6-5.55 1.61-11c0-10.79-2.55-29.32-5.09-39.59-1.55-6.23-1.67-7.31-5.89-9.6-0.84-0.46-1.28-0.12-2.26 0.3s-1.89 0-2.41 2.43-0.44 4.06 0.79 8.68c2.75 10.34 5.36 28.68 5.14 39.28-0.11 5.41-0.27 7.65 0.76 10.44s1.6 2.31 3.45 2.11z"/>
    <line class="cls-8" x1="311.53" x2="308.54" y1="325.36" y2="324.7"/>
</svg>
