<?xml version="1.0" encoding="utf-8"?>
<!-- Generator: Adobe Illustrator 24.2.0, SVG Export Plug-In . SVG Version: 6.00 Build 0)  -->
<svg version="1.1" xmlns="http://www.w3.org/2000/svg" xmlns:xlink="http://www.w3.org/1999/xlink" x="0px" y="0px"
	 viewBox="0 0 1248.25 177.28" style="enable-background:new 0 0 1248.25 177.28;" xml:space="preserve">
<style type="text/css">
	.st0{fill:#FFFFFF;}
	.st1{fill:#424242;}
	.st2{fill:#B0B0B0;}
	.st3{display:none;}
	.st4{display:inline;}
	.st5{clip-path:url(#SVGID_2_);}
	.st6{clip-path:url(#SVGID_4_);}
	.st7{clip-path:url(#SVGID_6_);}
	.st8{display:none;opacity:0.51;fill:#565251;}
	.st9{opacity:0.47;}
	.st10{fill:none;stroke:#424242;stroke-miterlimit:10;}
	.st11{fill:none;stroke:#424242;stroke-width:2;stroke-linecap:round;stroke-linejoin:round;stroke-miterlimit:10;}
	.st12{fill:none;stroke:#424242;stroke-width:2;stroke-miterlimit:10;}
	.st13{display:inline;clip-path:url(#SVGID_10_);fill:#DEDEDE;}
	.st14{display:inline;clip-path:url(#SVGID_10_);}
	.st15{fill:#FBFBFB;}
	.st16{fill:#F1F1F1;}
	.st17{display:inline;clip-path:url(#SVGID_10_);fill:none;stroke:#C2C2C2;stroke-miterlimit:10;}
	.st18{display:inline;clip-path:url(#SVGID_10_);fill:#DDDDDD;}
	.st19{display:none;fill:#6D6A69;}
	.st20{fill:#D1D1D1;}
	.st21{display:none;clip-path:url(#SVGID_12_);fill:#6D6A69;}
	.st22{clip-path:url(#SVGID_12_);fill:#636060;}
	.st23{fill:none;stroke:#FFFFFF;stroke-width:2;stroke-miterlimit:10;}
	.st24{fill:#565251;}
	.st25{fill:none;stroke:#FFFFFF;stroke-miterlimit:10;}
	.st26{opacity:0.19;clip-path:url(#SVGID_14_);}
	.st27{fill:#FBFCF9;}
	.st28{fill:#ACACAC;}
	.st29{fill:#696969;}
	.st30{fill:#8EC225;}
	.st31{opacity:0.19;}
	.st32{fill:none;}
	.st33{opacity:0.32;fill:#565251;}
	.st34{display:inline;opacity:0.26;}
	.st35{opacity:0.26;}
	.st36{clip-path:url(#SVGID_18_);}
	.st37{clip-path:url(#SVGID_20_);}
	.st38{clip-path:url(#SVGID_22_);}
	.st39{clip-path:url(#SVGID_26_);fill:#E2DFDC;}
	.st40{fill:#01000B;}
	.st41{display:none;fill:#303030;}
	.st42{display:inline;fill:#FFFFFF;}
	.st43{display:inline;fill:#01000B;}
	.st44{fill:none;stroke:#424242;stroke-width:5;stroke-linecap:round;stroke-linejoin:round;stroke-miterlimit:10;}
	.st45{fill:none;stroke:#FFFFFF;stroke-width:2;stroke-linecap:round;stroke-linejoin:round;stroke-miterlimit:10;}
	.st46{fill:none;stroke:#01000B;stroke-miterlimit:10;}
	.st47{fill:#8A7F6F;}
	.st48{clip-path:url(#SVGID_30_);}
	.st49{fill:#878787;}
	.st50{fill:#BABABA;}
	.st51{fill:none;stroke:#01000B;stroke-width:2;stroke-miterlimit:10;}
	.st52{clip-path:url(#SVGID_30_);fill:none;}
</style>
<g id="Camada_9">
</g>
<g id="Rodapé">
</g>
<g id="newsletter">
	<g id="background" class="st3">
	</g>
</g>
<g id="nossos_representantes">
	<g id="efeito_nossos_representantes">
	</g>
</g>
<g id="A_treviso">
	<g id="efeito_rolagem">
	</g>
</g>
<g id="coleções">
</g>
<g id="Banners">
	<g id="banner_1">
	</g>
</g>
<g id="barra_menu_1_">
</g>
<g id="stuffs">
	<g id="logo_1_">
		<g>
			<path class="st40" d="M519.53,93.12c-53.55,0-107.17,0-160.79,0c0.22,35.63,32.21,68.57,67.81,70.19
				c32.81,1.5,57.34-12.13,73-41.04c3.95-7.3,9.71-2.45,14.86-4.26c-9.95,33.87-50.62,67.08-100.26,56.13
				c-48.51-10.7-76.96-56.39-66.56-105.66c7.62-36.07,46.06-77.17,104.2-65.47C492.95,11.31,524.17,52.1,519.53,93.12z
				 M506.73,80.18c-0.49-29.33-30.63-67.99-76.49-66.58c-42.19,1.3-71.33,38.75-70.97,66.58C408.28,80.18,457.3,80.18,506.73,80.18z
				"/>
			<path class="st40" d="M1158.39,1.25c47.31-0.32,85.93,38.22,87.24,85.21c1.36,48.87-39.7,89.68-86.14,89.71
				c-48.49,0.03-87.65-38-89.12-84.84C1068.78,40.48,1112.36-0.83,1158.39,1.25z M1158.29,13.74c-41.34-0.18-75.33,33.34-75.44,74.4
				c-0.1,41.37,33.34,75.16,74.54,75.29c42.25,0.13,75.8-33.24,75.73-75.33C1233.07,47.3,1199.47,13.92,1158.29,13.74z"/>
			<path class="st40" d="M897.1,157.94c2.43-3.68,4.48-6.79,6.37-9.66c9.48,4.13,18.54,8.81,28.08,12.06
				c12.71,4.34,25.86,4.72,38.72,0.13c13.09-4.67,21.48-13.74,22.99-27.79c1.48-13.72-4.24-24.97-15.83-31.84
				c-10.88-6.45-22.85-11.05-34.35-16.45c-10.17-4.78-20.98-8.55-30.38-14.53c-23.16-14.71-22.08-46.27,1.43-60.64
				c14.6-8.92,30.62-8.89,46.75-7.19c11.4,1.2,22.6,3.73,33.27,10c-2.36,3.5-4.5,6.68-6.83,10.12c-15.49-6.91-31.44-9.62-47.84-7.81
				c-6.26,0.69-12.75,2.7-18.33,5.63c-15.8,8.31-17.03,29.18-2.15,39.06c7.38,4.91,15.97,8.02,24.06,11.83
				c13.92,6.56,28.5,12,41.67,19.81c15.07,8.94,22.45,23.48,21.09,41.26c-1.72,22.5-17.26,38.7-39.77,42.82
				C940.87,179.38,918.78,171.56,897.1,157.94z"/>
			<path class="st40" d="M658.96,148.16c12.55-23.78,24.42-46.3,36.3-68.81c11.01-20.87,22.52-41.49,32.81-62.71
				c4.11-8.48,9.05-11.7,18.99-8.75c-29.16,55.53-58.3,111.05-88.18,167.97c-29.69-56.5-58.9-112.08-88.18-167.8
				c11.77-2.65,12.99-2.17,18.07,7.46c22.12,41.9,44.21,83.82,66.32,125.73C656.12,143.23,657.26,145.14,658.96,148.16z"/>
			<path class="st40" d="M74.48,169.51c-4.52,0-8.03,0-12.3,0c0-49.82,0-99.44,0-149.76c-20.07,0-39.39,0-59.18,0
				c0-4.34,0-7.98,0-12.2c43.49,0,87.01,0,130.95,0c0,3.67,0,7.32,0,11.99c-3,0-6.03,0-9.06,0c-14.63,0-29.26,0.22-43.88-0.12
				c-5.26-0.12-6.65,1.52-6.63,6.7c0.19,45.35,0.11,90.7,0.11,136.04C74.48,164.42,74.48,166.67,74.48,169.51z"/>
			<path class="st40" d="M288.68,3.38c0,4.21,0,8.09,0,10.62c-9.21,0-18.13-0.79-26.87,0.14c-30.32,3.23-54.17,30.08-54.29,60.65
				c-0.12,28.64-0.02,57.28-0.02,85.93c0,2.69,0,5.38,0,8.52c-4.12,0-7.77,0-12.51,0c0-2.33,0-4.73,0-7.14
				c0-28.02,0.01-56.03,0-84.05C194.97,26.67,237.93-7.89,288.68,3.38z"/>
			<path class="st40" d="M825.47,169.46c-4.13,0-7.63,0-11.62,0c0-53.99,0-107.74,0-162c3.9,0,7.53,0,11.62,0
				C825.47,61.37,825.47,115.12,825.47,169.46z"/>
		</g>
	</g>
</g>
</svg>
