<?xml version="1.0" encoding="utf-8"?>
<!-- Generator: Adobe Illustrator 24.2.0, SVG Export Plug-In . SVG Version: 6.00 Build 0)  -->
<svg version="1.1" xmlns="http://www.w3.org/2000/svg" xmlns:xlink="http://www.w3.org/1999/xlink" x="0px" y="0px"
	 viewBox="0 0 1246.13 854.25" style="enable-background:new 0 0 1246.13 854.25;" xml:space="preserve">
<style type="text/css">
	.st0{fill:#FFFFFF;}
	.st1{fill:#424242;}
	.st2{fill:#B0B0B0;}
	.st3{display:none;}
	.st4{display:inline;}
	.st5{clip-path:url(#SVGID_2_);}
	.st6{clip-path:url(#SVGID_4_);}
	.st7{clip-path:url(#SVGID_6_);}
	.st8{display:none;opacity:0.51;fill:#565251;}
	.st9{opacity:0.47;}
	.st10{fill:none;stroke:#424242;stroke-miterlimit:10;}
	.st11{fill:none;stroke:#424242;stroke-width:2;stroke-linecap:round;stroke-linejoin:round;stroke-miterlimit:10;}
	.st12{fill:none;stroke:#424242;stroke-width:2;stroke-miterlimit:10;}
	.st13{display:inline;clip-path:url(#SVGID_10_);fill:#DEDEDE;}
	.st14{display:inline;clip-path:url(#SVGID_10_);}
	.st15{fill:#FBFBFB;}
	.st16{fill:#F1F1F1;}
	.st17{display:inline;clip-path:url(#SVGID_10_);fill:none;stroke:#C2C2C2;stroke-miterlimit:10;}
	.st18{display:inline;clip-path:url(#SVGID_10_);fill:#DDDDDD;}
	.st19{display:none;fill:#6D6A69;}
	.st20{fill:#D1D1D1;}
	.st21{display:none;clip-path:url(#SVGID_12_);fill:#6D6A69;}
	.st22{clip-path:url(#SVGID_12_);fill:#636060;}
	.st23{fill:none;stroke:#FFFFFF;stroke-width:2;stroke-miterlimit:10;}
	.st24{fill:#565251;}
	.st25{fill:none;stroke:#FFFFFF;stroke-miterlimit:10;}
	.st26{opacity:0.19;clip-path:url(#SVGID_14_);}
	.st27{fill:#FBFCF9;}
	.st28{fill:#ACACAC;}
	.st29{fill:#696969;}
	.st30{fill:#8EC225;}
	.st31{opacity:0.19;}
	.st32{fill:none;}
	.st33{opacity:0.32;fill:#565251;}
	.st34{display:inline;opacity:0.26;}
	.st35{opacity:0.26;}
	.st36{clip-path:url(#SVGID_18_);}
	.st37{clip-path:url(#SVGID_20_);}
	.st38{clip-path:url(#SVGID_22_);}
	.st39{clip-path:url(#SVGID_26_);fill:#E2DFDC;}
	.st40{fill:#01000B;}
	.st41{display:none;fill:#303030;}
	.st42{display:inline;fill:#FFFFFF;}
	.st43{display:inline;fill:#01000B;}
	.st44{fill:none;stroke:#424242;stroke-width:5;stroke-linecap:round;stroke-linejoin:round;stroke-miterlimit:10;}
	.st45{fill:none;stroke:#FFFFFF;stroke-width:2;stroke-linecap:round;stroke-linejoin:round;stroke-miterlimit:10;}
	.st46{fill:none;stroke:#01000B;stroke-miterlimit:10;}
	.st47{fill:#8A7F6F;}
	.st48{clip-path:url(#SVGID_30_);}
	.st49{fill:#878787;}
	.st50{fill:#BABABA;}
	.st51{fill:none;stroke:#01000B;stroke-width:2;stroke-miterlimit:10;}
	.st52{clip-path:url(#SVGID_30_);fill:none;}
</style>
<g id="Camada_9">
</g>
<g id="Rodapé">
</g>
<g id="newsletter">
	<g id="background" class="st3">
	</g>
</g>
<g id="nossos_representantes">
	<g id="efeito_nossos_representantes">
	</g>
	<g id="mapa_1_" class="st31">
		<path class="st27" d="M344.75,0c10.28,0,20.56,0,30.84,0c-0.25,3.53-0.7,7.07-0.71,10.6c-0.04,16.77-1.5,33.41-5.05,49.8
			c-0.87,4.01,0.42,5.62,3.72,7.11c17.11,7.78,34.15,15.7,51.22,23.55c39.4,18.12,78.8,36.22,118.2,54.33
			c23.04,10.59,46.08,21.16,69.12,31.75c13.96,6.41,27.93,12.78,41.85,19.28c2.88,1.34,3.94,1.47,3.93-2.42
			c-0.14-41.5-0.14-83,0.02-124.49c0.01-3.86-1.2-5.47-4.77-6.7c-20.73-7.12-41.38-14.48-62.05-21.78
			c-28.99-10.24-57.99-20.44-86.94-30.78C494.74,6.9,485.16,4.04,476.01,0c6.33,0,12.65,0,18.98,0c0.5,1.16,1.69,1.16,2.63,1.49
			c30.44,10.82,60.89,21.61,91.34,32.4c5.24,1.86,5.3,1.85,5.2-3.91c-0.17-9.99,0.45-19.99-0.34-29.97c2.11,0,4.22,0,6.33,0
			c-0.04,11.72,0.01,23.43-0.21,35.15c-0.05,2.55,1.34,3.01,3.13,3.64c18.97,6.65,37.92,13.39,56.93,19.95
			c2.73,0.94,3.48,2.34,3.46,5.14c-0.13,17.64,0,35.29-0.13,52.93c-0.02,3.06,0.77,4.16,3.97,4.12c7.36-0.08,14.74,0.19,22.1,0.41
			c34.98,1.07,69.96,2.14,104.93,3.3c3.08,0.1,5.11-0.78,6.9-3.4c12.08-17.63,24.3-35.17,36.47-52.74c3.68-5.32,3.66-5.33-0.95-9.99
			c-0.74-0.74-1.39-1.58-2.16-2.28c-17.71-15.83-35.49-31.59-53.11-47.52c-3.08-2.78-6.74-5.05-8.95-8.74c3.43,0,6.85,0,10.28,0
			c-1.23,1.85,0.78,2.27,1.52,2.95c12.91,11.76,25.87,23.46,38.87,35.13c22.96,20.62,45.96,41.2,68.92,61.83
			c24.61,22.12,49.2,44.26,73.78,66.42c1.55,1.4,2.7,2.3,4.88,0.54c16.48-13.24,33.09-26.29,49.62-39.46
			c9.86-7.85,19.64-15.81,29.47-23.7c1.38-1.11,2.77-2.83,4.43-0.2c4.57,7.22,9.13,14.44,13.84,21.57c1.17,1.77,0.82,2.74-0.69,3.89
			c-3.13,2.4-6.17,4.92-9.28,7.34c-1.29,1-1.97,1.76-0.68,3.47c2.28,3.04,4.21,6.35,6.29,9.55c20.19,31.05,40.4,62.09,60.58,93.15
			c14.09,21.69,28.14,43.41,42.15,65.16c1.56,2.42,2.59,2.49,4.67,0.35c6.13-6.31,12.6-12.28,18.79-18.52
			c2.08-2.1,3.19-1.93,4.66,0.59c3.45,5.91,6.81,11.9,10.82,17.43c2.66,3.67,1.93,5.77-1.17,8.47c-9.65,8.41-17.85,17.9-23.87,29.45
			c-11.52,22.12-22.6,44.46-33.75,66.76c-1.34,2.69-1.08,4.06,1.75,5.49c16.06,8.12,32.02,16.47,48.06,24.63
			c2.11,1.07,3.59,1.66,2.26,4.59c-1.43,3.13-2.96,1.97-4.92,0.95c-15.98-8.29-32.01-16.49-47.95-24.85
			c-2.59-1.36-4.02-1.13-5.16,1.6c-1.67,3.98-3.51,7.89-5.27,11.83c-2.43,3.29-3.68,7.18-5.36,10.84
			c-3.61,7.83-7.73,15.44-10.66,23.58c-2.97,6.28-5.92,12.56-8.9,18.82c-0.85,1.78-0.25,2.92,1.31,3.96
			c15.82,10.54,31.61,21.13,47.44,31.66c3.46,2.3,6.59,5.19,10.8,6.74c2.31-8.1,4.56-16.02,6.82-23.95
			c1.36-3.96,2.75-7.92,4.09-11.89c2.84-8.44,5.66-16.88,8.48-25.32c1.05-2.53,2.2-5.03,3.14-7.6c2.27-6.18,2.23-6.2,8.08-3.8
			c0.61,0.25,1.22,0.74,1.81,0.71c3.96-0.24,2.82,2,2.14,4.14c-1.47,4.57-4.22,8.72-4.56,13.67c-2.53,2.25-2.58,5.6-3.62,8.47
			c-3.41,9.42-6.89,18.83-9.2,28.61c-2.22,7.28-4.45,14.55-6.66,21.83c-0.64,2.11,0.4,3.58,2.05,4.62
			c11.78,7.41,22.94,15.72,34.34,23.67c31.24,21.77,62.04,44.14,91.91,67.77c17.51,13.85,35.11,27.69,49.94,44.49
			c16.89,19.13,30.9,40.45,45.15,61.54c16.76,24.8,33.08,49.88,49.03,75.21c8.32,13.22,16.57,26.48,24.86,39.72
			c-2.64,0-5.27,0-7.91,0c0.74-1.57-0.62-2.42-1.26-3.45c-7.18-11.46-14.34-22.93-21.64-34.31c-10.83-16.9-21.73-33.76-32.68-50.58
			c-2.64-4.05-2.84-4-6.25-0.6c-28.57,28.5-57.12,57.01-85.62,85.59c-0.85,0.85-2.69,1.45-2,3.36c-3.16,0-6.33,0-9.49,0
			c0.33-1.55,1.65-2.33,2.65-3.34c4.99-5.03,10-10.05,15.02-15.04c25.68-25.55,51.36-51.1,77.09-76.6c1.78-1.76,2.24-3.09,0.65-5.37
			c-6.76-9.7-13.23-19.6-19.97-29.3c-15.07-21.68-30.07-43.43-50.45-60.72c-3.86-3.27-3.74-3.38-6.22,0.96
			c-12.56,22-25.12,44-37.72,65.98c-15.03,26.21-30.09,52.41-45.22,78.56c-0.99,1.7-1.03,2.74,0.46,4.03
			c8.53,7.38,17.07,14.75,25.5,22.25c6.95,6.19,14.39,11.83,20.81,18.61c-3.16,0-6.33,0-9.49,0c-0.13-0.35-0.15-0.82-0.4-1.04
			c-13.16-11.46-26.36-22.86-39.49-34.36c-2.12-1.86-2.61-0.25-3.42,1.14c-4.14,7.16-8.39,14.25-12.38,21.49
			c-2.32,4.22-5.29,8.1-6.79,12.76c-2.37,0-4.74,0-7.12,0c0.34-0.84,0.58-1.74,1.03-2.52c6.51-11.41,13.05-22.81,19.58-34.21
			c15.47-27,30.92-54.02,46.41-81.01c14.71-25.64,29.4-51.28,44.21-76.86c1.43-2.47,1.18-3.74-1.07-5.5
			c-9.2-7.21-18.11-14.8-27.34-21.98c-37.65-29.28-76.65-56.69-115.81-83.89c-2.16-1.5-3.49-1.63-3.99,1.38
			c-0.17,1.01-0.76,1.95-0.99,2.97c-5.01,22.45-9.94,44.91-16.64,66.95c-9.8,32.23-21.78,63.61-35.87,94.17
			c-9.61,20.85-19.98,41.35-31.54,61.21c-1.67,2.88-1.34,4.27,1.4,6.28c28.63,21.08,57.18,42.27,85.63,63.58
			c3.9,2.92,8.35,5.29,11.27,9.43c-18.98,0-37.95,0-56.93,0c0.19-2.51,1.33-4.78-1.75-7c-18.39-13.3-36.57-26.89-54.81-40.41
			c-1.78-1.32-3.06-1.04-4.16,0.82c-0.53,0.9-1.17,1.74-1.73,2.63c-4.65,7.29-4.58,7.2-11.51,1.73c-1.7-1.34-1.64-2.3-0.67-3.81
			c1.48-2.3,2.8-4.71,4.38-6.94c1.49-2.1,1.02-3.47-0.96-4.89c-11.07-7.97-22.04-16.09-33.15-23.99c-5.82-4.14-5.9-3.95-10.74,1.31
			c-21.06,22.87-42.21,45.65-63.14,68.64c-3.47,3.81-7.7,7.07-9.96,11.93c-2.64,0-5.27,0-7.91,0c-0.74-1.14,0.3-1.66,0.86-2.28
			c3.28-3.56,6.54-7.14,9.9-10.63c1.79-1.85,2.03-2.96-0.76-4.13c-13.42-5.63-26.8-11.36-40.13-17.19
			c-2.36-1.03-3.89-0.99-5.82,0.99c-9.36,9.57-18.95,18.92-28.33,28.46c-1.38,1.41-3.53,2.38-3.73,4.77c-13.71,0-27.41,0-41.12,0
			c0.24-0.45,0.38-1,0.72-1.34c19.34-19.38,38.64-38.8,58.11-58.05c2.58-2.55,1.3-3.04-1.02-3.66c-8.13-2.18-16.26-4.32-24.4-6.47
			c-29.08-7.69-58.18-15.34-87.23-23.16c-2.98-0.8-4.43-0.35-5.91,2.41c-15.71,29.27-31.56,58.48-47.36,87.7
			c-0.43,0.79-0.99,1.59-0.46,2.56c-2.64,0-5.27,0-7.91,0c0.86-1.48,1.75-2.94,2.56-4.44c15.56-28.9,31.07-57.83,46.75-86.67
			c1.71-3.15,1.7-4.38-2.04-5.35c-27.97-7.32-55.92-14.73-83.81-22.32c-3.6-0.98-4.93-0.18-6.2,3.25
			c-11.57,31.41-23.38,62.72-35.01,94.11c-2.63,7.11-5.84,14.02-7.65,21.42c-10.81,0-21.61,0-32.42,0c-0.43-2.94,1.36-5.25,2.3-7.78
			c9.78-26.35,19.62-52.68,29.45-79.02c5.19-13.92,10.4-27.83,15.58-41.75c0.65-1.75,1.27-3.15-1.22-4.49
			c-16.33-8.71-32.53-17.65-48.8-26.47c-5.31-2.88-5.28-2.81-7.48,3.05c-9.78,26.06-19.62,52.11-29.4,78.17
			c-8.3,22.13-16.5,44.3-24.92,66.38c-1.09,2.86-0.25,3.6,2.23,4.43c7.09,2.37,14.1,4.97,21.14,7.47c-6.59,0-13.18,0-19.77,0
			c-0.75-1.56-2.43-1.39-3.7-1.86c-5.43-1.99-10.92-3.83-16.39-5.72c-20.36-7.03-40.72-14.02-61.06-21.11
			c-2.39-0.83-3.63-0.56-4.34,2.05c-0.85,3.15-1.63,6.43-3.16,9.26c-3.7,6.83-2.28,12.41,3.25,17.37c-2.9,0-5.8,0-8.7,0
			c0.61-1.33-0.53-1.97-1.2-2.63c-2.79-2.77-2.98-5.64-1.5-9.28c2.22-5.46,3.71-11.21,5.78-16.73c0.92-2.46,0.21-3.46-1.99-4.49
			c-17.74-8.26-35.42-16.62-53.13-24.94c-34.6-16.27-69.21-32.52-103.78-48.85c-1.83-0.86-2.84-0.67-3.9,0.97
			c-1.71,2.65-3.59,5.18-5.34,7.8c-17.87,26.63-35.81,53.21-53.53,79.94c-3.96,5.97-8.56,11.57-11.5,18.2c-2.64,0-5.27,0-7.91,0
			c0.69-1.12,1.36-2.26,2.09-3.35c24.08-35.91,48.15-71.82,72.26-107.71c0.91-1.35,1.46-2.57,1.2-4.33
			c-2.09-14.06-3.99-28.14-6.06-42.2c-3.33-22.63-6.79-45.25-10.11-67.88c-0.83-5.64-0.67-5.68-6.31-4.45
			c-39.19,8.56-78.38,17.12-117.57,25.69c-5.38,1.18-5.32,1.21-4.97,6.84c1.29,21.13,2.56,42.27,3.78,63.41
			c0.92,16.03,1.67,32.06,2.63,48.09c1.72,28.63,3.55,57.25,5.34,85.88c-10.28,0-20.56,0-30.84,0c0-2.41,0-4.82,0-8
			c-3.07,2.76-5.83,4.69-7.12,8c-2.9,0-5.8,0-8.7,0c3.31-4.77,7.6-8.65,11.68-12.71c2.17-2.16,3.42-4.3,3.2-7.58
			c-1.44-22.19-2.7-44.39-4.01-66.58c-1.99-33.61-3.99-67.21-5.94-100.82c-0.39-6.74-0.26-6.69-7.2-5.65
			c-20.54,3.08-41.07,6.2-61.64,9.09c-3.4,0.48-4.14,1.75-4.13,5c0.12,36.49,0.51,73-0.14,109.48c-0.25,14.28,3.11,27.59,6.55,41.08
			c2.43,9.55,4.71,19.13,7.06,28.7c-2.11,0-4.22,0-6.33,0c-1.96-10.83-5.11-21.37-7.84-32.01c-2.89-11.3-5.56-22.5-5.43-34.44
			c0.41-37.48,0.03-74.97,0.13-112.45c0.01-3.33-0.94-3.55-3.78-3.18c-6.75,0.89-13.39,2.63-20.25,2.61c0-0.53,0-1.05,0-1.58
			c1.25-0.79,1.23-1.58,0-2.37c0-0.53,0-1.05,0-1.58c14.27-2.13,28.53-4.31,42.82-6.36c2.71-0.39,2.96-1.96,2.96-4.16
			c-0.03-79.3-0.05-158.59,0-237.89c0-2.74-0.86-4.26-3.42-5.43c-11.46-5.28-22.78-10.83-34.23-16.13
			c-3.86-1.78-7.94-3.09-8.12-8.34c0-0.53,0-1.05,0-1.58c1.44,0.52,2.94,0.73,4.38,1.43c13.02,6.26,26.19,12.22,39.14,18.63
			c3.42,1.69,5.04,0.83,7.02-1.86c8.78-11.98,17.65-23.89,26.56-35.77c28.96-38.58,57.94-77.13,86.95-115.67
			c1.48-1.96,1.4-3.16-0.88-4.19c-0.95-0.43-1.76-1.15-2.65-1.71c-33.4-21.09-66.81-42.17-100.21-63.27
			c-19.09-12.06-38.14-24.19-57.26-36.22c-1.83-1.15-2.33-2.52-2.31-4.53c0.07-9.22,0.01-18.44,0.05-27.66
			c0.01-1.62-0.38-3.31,0.3-4.93c1.46,0.26,2.44,0.83,3.44,1.47c14.49,9.26,28.99,18.5,43.52,27.72
			c26.82,17.01,53.64,34.02,80.47,51c17.75,11.23,35.53,22.42,53.3,33.63c1.62,1.02,2.99,1.89,4.56-0.4
			c8.38-12.25,16.86-24.43,25.42-36.56c1.34-1.9,1.12-2.68-0.79-3.95c-8.62-5.75-17.12-11.69-25.64-17.58
			c-32.42-22.39-64.81-44.84-97.27-67.18C61.82,83.3,35.44,65.32,9.12,47.27C5.08,44.5,0.04,42.51,0,36.37c0-0.53,0-1.05,0-1.58
			c2.44,0.41,4.28,1.78,6.3,3.19c21.79,15.14,43.72,30.07,65.58,45.1c46.68,32.08,93.35,64.17,140.01,96.27
			c22.28,15.33,44.54,30.7,66.78,46.1c2.38,1.65,3.48,1.97,4.9-1.36c4.47-10.52,8.78-21.09,12.97-31.72
			c7.86-19.89,15.42-39.9,21.91-60.29c4.3-12.22,8.34-24.52,11.35-37.13c3.92-12.12,6.63-24.54,9.37-36.96
			c0.55-2.52-0.91-3.57-2.59-4.72c-23.67-16.05-47.35-32.09-70.97-48.22c-2.2-1.5-4.92-2.45-6.26-5.06c3.69,0,7.38,0,11.07,0
			c-0.3,1.85,1.46,1.99,2.38,2.62c21.35,14.62,42.75,29.16,64.15,43.72c1.28,0.87,2.45,1.99,4.06,1.99
			C344.34,32.32,343.99,16.12,344.75,0z M847.76,324.64c-8.03,10.27-15.47,20.96-22.67,31.82c-0.89,1.12-1.86,2.19-2.67,3.37
			c-5.33,7.78-7.51,16.97-11.43,25.38c-1.29,2.77-0.68,3.71,2.05,4.77c13.12,5.04,26.15,10.31,39.21,15.51
			c25.77,10.27,51.52,20.58,77.29,30.84c31.52,12.54,63.07,25.03,94.59,37.56c16.49,6.55,32.96,13.13,49.42,19.74
			c1.86,0.75,3.41,1.41,4.5-1.09c5.34-12.29,10.74-24.55,16.12-36.82c5.53-11.24,10.92-22.56,15.73-34.13
			c1.5-2.92,2.82-5.95,4.54-8.74c1.97-3.2,1.03-4.58-2.28-6c-35.63-15.27-71.18-30.72-106.79-46.04
			c-33.65-14.48-67.33-28.88-101-43.32c-11.94-5.12-23.88-10.26-35.84-15.33c-1.7-0.72-3.57-2.12-5.22,0.31
			C858.25,309.94,852.43,316.89,847.76,324.64z M817.87,312.91c5.78-7.95,11.54-15.92,17.34-23.86c1.34-1.83,0.29-2.42-1.27-3.12
			c-5.5-2.49-10.95-5.11-16.44-7.63c-35.34-16.22-70.68-32.41-106.01-48.64c-29.46-13.54-58.9-27.11-88.35-40.67
			c-39.48-18.18-78.96-36.36-118.45-54.54c-33.17-15.27-66.34-30.54-99.51-45.8c-11.33-5.21-22.68-10.4-34.04-15.56
			c-1.59-0.72-3.55-2.27-4.19,0.97c-2.39,12.12-6.17,23.89-9.07,35.88c-3.89,12.38-7.78,24.76-11.66,37.14
			c-5.97,16.25-11.92,32.52-17.96,48.74c-0.71,1.9,0.07,2.65,1.56,3.34c3.33,1.53,6.66,3.08,9.97,4.65
			c39.87,18.89,79.74,37.8,119.61,56.69c40.45,19.16,80.92,38.29,121.36,57.46c39.62,18.77,79.22,37.58,118.83,56.36
			c21.96,10.41,43.95,20.78,65.88,31.25c2.39,1.14,3.67,1.1,4.74-1.68c3.46-8.92,6.97-17.83,10.81-26.59
			c4.75-10.81,8.38-22.1,14.06-32.49C803.09,334.45,810.68,323.82,817.87,312.91z M766.13,413.82c-0.15-1.63-1.65-2.07-2.89-2.66
			c-35.36-16.79-70.82-33.37-106.05-50.42c-26.01-12.59-52.31-24.58-78.45-36.92c-28.62-13.51-57.23-27.05-85.77-40.74
			c-3.15-1.51-4.46-0.8-6.04,2.04c-9.71,17.44-19.59,34.78-29.41,52.16c-7.1,12.55-14.15,25.13-21.34,37.63
			c-1.38,2.4-1.14,3.66,1.43,4.89c3.78,1.81,7.38,4,11.07,6.01c32.99,17.94,65.99,35.87,98.98,53.83
			c33.31,18.13,66.62,36.25,99.89,54.45c22.24,12.17,44.45,24.4,66.57,36.77c2.81,1.57,3.61,1.08,4.7-1.72
			c3.3-8.56,6.93-17,10.4-25.49c11.54-28.19,23.07-56.38,34.61-84.56C764.53,417.38,765.3,415.71,766.13,413.82z M733.05,128.75
			c0,0.02,0,0.04,0,0.06c-22.11-0.74-44.23-1.46-66.34-2.28c-2.45-0.09-3.4,0.38-3.38,3.13c0.12,22.66,0.1,45.32,0.02,67.99
			c-0.01,2.33,0.72,3.52,2.84,4.48c12.58,5.67,25.1,11.47,37.64,17.24c35.45,16.3,70.9,32.62,106.36,48.92
			c9.08,4.17,18.2,8.25,27.25,12.48c2.18,1.02,3.34,0.8,4.72-1.42c2.7-4.34,5.76-8.48,8.91-12.52c5.05-6.47,8.65-14.11,15.68-19.01
			c4.3-3,8.33-6.38,12.46-9.6c27.09-21.15,54.15-42.34,81.32-63.39c2.55-1.98,2.53-3.09,0.25-5.02c-4.8-4.08-9.52-8.27-14.2-12.48
			c-32.21-28.99-64.4-58-96.6-87c-3.77-3.39-3.74-3.39-6.56,0.69c-13.28,19.23-26.6,38.43-39.79,57.71
			c-1.18,1.72-2.38,2.12-4.22,2.07C777.29,130.07,755.17,129.42,733.05,128.75z M1030.58,158.52c-0.76,0.63-1.25,1.06-1.76,1.47
			c-20.3,16.01-40.57,32.08-60.93,48.02c-22.83,17.87-45.84,35.52-68.59,53.5c-6.43,5.08-13.85,9.1-18.51,16.29
			c-3.07,4.73-6.44,9.27-9.78,13.82c-2.82,3.85-2.89,3.8,1.69,5.78c5.54,2.4,11.07,4.8,16.62,7.19
			c27.27,11.76,54.53,23.54,81.81,35.27c37.03,15.92,74.08,31.8,111.12,47.7c10.99,4.72,22.02,9.36,32.94,14.24
			c2.8,1.25,4.03,1.17,5.54-1.93c9.02-18.55,18.3-36.97,27.63-55.37c1.16-2.28,1.25-3.83-0.21-6.03
			c-9.87-14.88-19.59-29.86-29.33-44.82c-20.34-31.27-40.66-62.55-60.99-93.83c-8.3-12.77-16.62-25.53-24.95-38.28
			C1032.2,160.49,1031.37,159.55,1030.58,158.52z M1167.87,540.62c0.14-2.03-0.81-2.61-1.85-3.31
			c-18.77-12.58-37.54-25.17-56.23-37.89c-2.15-1.46-3.15-1.13-4.06,1.04c-5.93,14.04-11.81,28.09-17.82,42.09
			c-4.67,10.89-7.78,22.32-11.81,33.43c-5.26,14.49-13.22,27.69-21.02,40.9c-17.98,30.43-37.85,59.62-58.08,88.57
			c-1.94,2.78-1.97,4.17,0.95,6.2c11.18,7.8,22.17,15.88,33.24,23.85c15.54,11.21,31.11,22.38,46.61,33.65
			c2.48,1.8,3.82,1.62,5.39-1.23c7.9-14.39,15.51-28.92,22.77-43.65c12.67-25.69,23.8-52.03,33.32-79.04
			c6.07-17.21,11.76-34.57,16.19-52.29c3.09-12.36,5.71-24.84,8.61-37.25C1165.3,550.45,1166.7,545.25,1167.87,540.62z
			 M797.7,761.04c2.35,0.46,2.9-1.49,3.75-2.87c8.17-13.17,16.3-26.35,24.44-39.53c12.36-19.99,24.71-39.98,37.07-59.97
			c1.2-1.95,2.4-3.53-0.42-5.54c-13.4-9.53-27.33-18.23-41.49-26.56c-28.07-16.53-56.43-32.56-84.89-48.41
			c-2.79-1.55-3.84-1.44-5.12,1.66c-10.37,25.01-20.15,50.25-29.45,75.68c-8.44,23.08-17.12,46.08-25.8,69.08
			c-1.02,2.69-0.85,4.01,2.25,4.73c5.37,1.24,10.65,2.91,15.99,4.32c27.18,7.2,54.37,14.38,81.55,21.57
			C782.96,757.14,790.33,759.09,797.7,761.04z M986.03,466.41c0.01-1.54-1.4-1.66-2.42-2.06c-4.03-1.62-8.1-3.13-12.13-4.74
			c-30.39-12.13-60.77-24.29-91.16-36.4c-22.79-9.08-45.63-18.03-68.37-27.23c-3.45-1.4-4.99-1.03-6.44,2.56
			c-9.58,23.73-19.37,47.37-29.08,71.05c-2.94,7.16-2.87,5.27,3.07,8.87c52.48,31.74,105.06,63.33,157.6,94.98
			c7.48,4.5,7.47,4.52,10.69-3.41c0.24-0.6,0.64-1.15,0.86-1.76c12.05-32.66,24.09-65.33,36.12-98
			C985.23,469.02,985.59,467.75,986.03,466.41z M1013.79,628.32c0.45-2.14-1.1-2.41-1.98-2.95c-7.4-4.5-14.88-8.85-22.29-13.32
			c-26.97-16.24-53.91-32.54-80.89-48.77c-44.36-26.69-88.74-53.32-133.07-80.05c-2.71-1.64-4.07-1.89-5.46,1.58
			c-7.97,19.86-16.1,39.66-24.37,59.39c-1.12,2.68-0.79,3.86,1.71,5.24c17.09,9.48,34.19,18.94,51.12,28.71
			c29.79,17.19,59.78,34.01,87.7,54.28c26.87,19.51,54.37,38.16,81.38,57.48c3.31,2.37,4.31,1.32,5.96-1.14
			c12.68-18.8,25.4-37.58,38.07-56.39C1012.61,631.02,1013.23,629.42,1013.79,628.32z M483.19,279.39c0.07-1.34-1.09-1.43-1.82-1.78
			c-21.54-10.31-43.08-20.62-64.66-30.85c-22.07-10.47-44.18-20.86-66.27-31.27c-7.24-3.41-14.51-6.77-21.75-10.19
			c-2.36-1.12-4.27-1.53-4.85,1.9c-0.12,0.72-0.83,1.32-1.1,2.03c-10.39,27.11-22.26,53.57-34.74,79.76
			c-1.21,2.54-0.85,3.82,1.63,5.32c26.89,16.3,53.46,33.15,80.85,48.6c18.42,10.39,37.11,20.28,55.62,30.51
			c2.45,1.36,3.42,0.98,4.81-1.48c16.52-29.28,33.19-58.48,49.8-87.7C481.61,282.65,482.38,280.98,483.19,279.39z M259.66,613.29
			c-0.88-5.59-1.81-11.17-2.63-16.76c-4.36-29.8-8.69-59.6-13.02-89.41c-0.31-2.1-0.62-3.96-2.88-5.18
			c-18.82-10.18-37.59-20.46-56.33-30.78c-2.18-1.2-3.24-0.66-4.32,1.38c-3.58,6.72-7.27,13.4-10.97,20.06
			c-11.81,21.24-22.79,42.89-31.49,65.61c-4.03,10.53-8.2,21.16-7.77,32.76c0.61,16.44,1.46,32.87,2,49.31
			c0.11,3.44,1.07,4.15,4.43,3.4c19.76-4.43,39.58-8.63,59.37-12.94c20.18-4.39,40.34-8.85,60.53-13.16
			C259.2,617.02,260.34,615.99,259.66,613.29z M388.03,575.51c1.56-0.3,1.96-1.55,2.58-2.47c4.54-6.76,9-13.58,13.54-20.34
			c11.04-16.47,22.09-32.93,33.19-49.35c1.2-1.78,1.39-2.81-0.79-4c-15.46-8.39-30.85-16.88-46.27-25.34
			c-15.66-8.58-31.32-17.15-46.99-25.73c-15.54-8.5-31.09-16.99-46.6-25.53c-2.14-1.18-3.26-0.62-4.3,1.47
			c-1.7,3.4-3.65,6.67-5.5,10c-11.53,20.78-23,41.59-34.64,62.3c-1.7,3.02-0.88,4.24,1.86,5.73
			c44.17,24.05,88.29,48.18,132.42,72.29C387.08,574.85,387.6,575.23,388.03,575.51z M52.01,420.11c-0.77,0.57-0.61,1.26-0.61,1.88
			c0,78.51,0.03,157.02-0.03,235.53c0,2.78,0.56,3.57,3.47,3.11c14.81-2.32,29.65-4.48,44.49-6.59c2.14-0.3,2.93-1.06,2.82-3.27
			c-0.74-14.59-1.35-29.19-2.05-43.78c-0.59-12.49-1.2-24.94,2.08-37.25c5.32-19.9,13.49-38.67,22.37-57.16
			c7.05-14.68,14.52-29.15,22.47-43.37c1.17-2.1,2.24-3.72-1.22-5.08c-5-1.95-9.7-4.64-14.58-6.91
			C104.79,444.89,78.63,431.91,52.01,420.11z M180.54,410.06c1.63-0.59,2.36-1.96,3.19-3.27c8.31-13.22,16.41-26.58,25.03-39.58
			c12.93-19.5,25.41-39.24,36.08-60.09c1.37-2.68,1.18-3.9-1.38-5.49c-22.87-14.16-45.75-28.34-68.42-42.82
			c-3.57-2.28-4.93-1.35-7.04,1.48c-22.98,30.81-46.03,61.58-69.17,92.27c-1.9,2.52-1.98,3.68,0.84,5.37
			c6.41,3.86,12.63,8.07,18.92,12.12c19.96,12.87,39.92,25.73,59.88,38.6C179.13,409.07,179.76,409.53,180.54,410.06z
			 M460.38,614.74c1.65-0.21,1.8-1.59,2.37-2.54c14.6-24.65,29.16-49.31,43.75-73.96c12.28-20.77,24.58-41.53,36.87-62.29
			c0.91-1.53,1.77-2.85-0.62-4.13c-17.92-9.64-35.8-19.35-53.66-29.12c-2.21-1.21-3.39-0.79-4.74,1.28
			c-4,6.17-8.24,12.18-12.33,18.29c-24.99,37.32-49.96,74.65-74.93,111.98c-3,4.49-3,4.88,2.04,7.49
			c19.36,10.03,38.33,20.79,57.46,31.24C457.86,613.66,459.2,614.19,460.38,614.74z M331.76,355.76c-1.67,0.24-2.2,1.54-2.81,2.65
			c-10.18,18.38-20.28,36.8-30.55,55.13c-1.15,2.05-0.92,2.9,1.04,3.92c3.83,2,7.54,4.23,11.34,6.3
			c24.08,13.13,48.18,26.24,72.26,39.38c18.91,10.32,37.82,20.63,56.68,31.05c2.06,1.14,3.16,0.96,4.46-1.01
			c11.52-17.35,23.07-34.68,34.77-51.9c1.72-2.53,1.29-3.5-1.2-4.85c-21.35-11.52-42.67-23.11-63.96-34.75
			c-26.95-14.73-54.14-29.04-80.46-44.89C332.77,356.45,332.24,356.07,331.76,355.76z M1017.31,621.5c1.47,0.1,1.76-1.2,2.27-1.95
			c2.27-3.38,4.47-6.82,6.52-10.34c10.16-17.47,20.97-34.49,26.78-54.28c5.18-17.63,12.86-34.44,20.27-51.28
			c1.04-2.37,1.02-3.4-1.86-4.53c-25.23-9.85-50.38-19.89-75.5-30.01c-2.82-1.14-3.96-0.86-5.06,2.17
			c-6.41,17.78-13.06,35.48-19.6,53.22c-6.65,18.01-13.28,36.03-19.89,54.06c-0.5,1.37-1.42,2.51,0.79,3.82
			c21.15,12.57,42.19,25.32,63.26,38.02C1015.97,620.8,1016.68,621.15,1017.31,621.5z M324.97,352.91
			c-0.04-1.28-0.92-1.66-1.71-2.13c-2.93-1.75-5.87-3.49-8.78-5.28c-12.96-7.95-25.95-15.86-38.85-23.92
			c-2.43-1.52-3.49-0.87-4.7,1.42c-4.04,7.66-8.17,15.28-12.41,22.83c-9.64,17.18-21.14,33.18-31.66,49.8
			c-13.33,21.04-26.43,42.22-38.95,63.75c-2.95,5.07-2.94,5.05,2.09,7.79c16.72,9.11,33.43,18.24,50.14,27.38
			c4.88,2.67,4.83,2.67,7.54-2.23c11.01-19.88,22.02-39.75,33.07-59.61c14.23-25.59,28.49-51.17,42.73-76.76
			C324.04,354.92,324.51,353.84,324.97,352.91z M642.36,527.79c-0.21-1.62-1.23-2.22-2.47-2.89c-12.01-6.5-23.97-13.08-35.95-19.63
			c-16.82-9.21-33.67-18.36-50.44-27.66c-2.43-1.35-3.7-0.98-4.89,1.39c-1.13,2.22-2.52,4.31-3.79,6.46
			c-13.11,22.17-26.17,44.37-39.4,66.48c-1.87,3.12-1.09,4.42,1.82,6c7.27,3.95,14.37,8.19,21.53,12.34
			c25.57,14.84,51.16,29.65,76.66,44.59c2.92,1.71,3.97,1.08,5.07-1.85c9.87-26.48,19.85-52.92,29.79-79.37
			C641.01,531.66,641.69,529.67,642.36,527.79z M705.2,562.2c0.17-1.3-0.67-1.78-1.67-2.33c-6.46-3.49-12.89-7.05-19.33-10.58
			c-11.05-6.06-22.11-12.1-33.14-18.21c-2.04-1.13-3.17-1.14-4,1.46c-1.43,4.5-3.25,8.88-4.92,13.31
			c-10.13,26.94-20.27,53.88-30.41,80.83c-6.75,17.96-13.4,35.96-20.32,53.85c-1.53,3.96-0.81,5.91,3.02,7.93
			c16.14,8.53,32.11,17.38,48.09,26.21c2.48,1.37,3.66,1.46,4.79-1.68c4.97-13.71,10.31-27.28,15.38-40.94
			c12.7-34.23,25.14-68.56,39.37-102.19C703.15,567.32,704.17,564.76,705.2,562.2z M250.35,509.39c0.07,0.57,0.09,0.83,0.13,1.09
			c2.3,15.47,4.63,30.94,6.9,46.42c2.78,19,5.56,38,8.2,57.01c0.3,2.2,0.96,3.48,3.02,4.49c8.84,4.33,17.59,8.84,26.36,13.31
			c12.75,6.5,25.51,13,38.22,19.58c2.82,1.46,4.5,1.21,6.24-1.84c2.79-4.89,6.23-9.4,9.37-14.08c11.48-17.13,22.9-34.29,34.48-51.35
			c1.75-2.58,1.38-3.74-1.28-5.06c-4.46-2.22-8.79-4.72-13.17-7.12c-29.25-16-58.49-32-87.74-47.99
			c-9.21-5.04-18.42-10.09-27.67-15.08C252.28,508.16,250.5,506.45,250.35,509.39z M501.15,561.46c-1.7-0.41-1.9,1.05-2.35,1.79
			c-10.26,17.22-20.42,34.52-30.71,51.72c-1.54,2.57-1.06,3.78,1.51,5.12c7.34,3.82,14.57,7.85,21.83,11.82
			c29.71,16.27,59.42,32.54,89.1,48.87c2.62,1.44,3.97,1.42,5.15-1.83c6.26-17.16,12.6-34.29,19.3-51.27
			c1.59-4.03,0.94-5.72-2.75-7.84c-32.31-18.56-64.49-37.35-96.71-56.05C504.04,562.93,502.51,562.18,501.15,561.46z M339.83,661.53
			c-1.55,0.08-1.92,1.12-2.51,1.99c-5.33,7.97-10.66,15.93-16.01,23.88c-11.21,16.68-22.36,33.4-33.71,49.98
			c-1.93,2.81-1.4,3.96,1.46,5.15c3.63,1.52,7.14,3.31,10.7,4.98c20.56,9.65,41.14,19.26,61.66,28.99c2.32,1.1,3.71,1,5.08-1.32
			c13.74-23.33,27.56-46.61,41.3-69.93c4.25-7.21,4.17-7.26-3.44-11.11c-0.7-0.36-1.39-0.76-2.09-1.11
			c-19.81-10.05-39.63-20.1-59.45-30.14C341.78,662.36,340.69,661.92,339.83,661.53z M418.15,701.15c-1.38,0.17-1.81,1.48-2.46,2.58
			c-7.79,13.21-15.58,26.42-23.39,39.62c-6.69,11.3-13.42,22.57-20.07,33.88c-0.91,1.55-2.66,3.18,0.52,4.66
			c23.79,11.1,47.53,22.3,71.26,33.51c1.86,0.88,2.72,0.62,3.51-1.4c10.26-26.01,20.59-52,30.97-77.96c1.08-2.7,0.7-4.09-2.1-5.49
			c-17.4-8.67-34.7-17.56-52.04-26.37C422.38,703.18,420.37,702.23,418.15,701.15z M457.35,621.01c-0.38-1.37-1.64-1.67-2.6-2.19
			c-20.14-11.04-40.33-22-60.42-33.14c-2.77-1.54-4.1-1.32-5.9,1.4c-14.58,22-29.25,43.94-44.11,65.75
			c-2.29,3.37-0.17,3.99,1.95,5.06c20.04,10.11,40.1,20.16,60.11,30.32c8.7,4.42,8.72,4.57,13.67-3.78
			c12.03-20.29,23.98-40.63,35.95-60.96C456.46,622.69,456.87,621.88,457.35,621.01z M551.39,770.15c0.05-1.42-0.88-2.01-2.01-2.58
			c-20.28-10.22-40.57-20.43-60.79-30.78c-2.62-1.34-3.68-0.75-4.67,1.78c-3.95,10.16-8.05,20.27-12.06,30.41
			c-6.09,15.39-12.12,30.8-18.29,46.15c-1,2.49-0.9,3.77,2,4.53c3.41,0.89,6.69,2.27,10.03,3.42c18.26,6.3,36.53,12.58,54.79,18.89
			c2.09,0.72,3.66,1.46,4.82-1.68c8.12-22.06,16.46-44.04,24.73-66.05C550.44,772.89,550.9,771.53,551.39,770.15z M93.5,361.24
			c-1.37,0.07-1.96,1.13-2.66,2.07c-11.7,15.66-23.34,31.35-35.16,46.91c-1.91,2.51-2.1,3.57,1.07,5.06
			c30.55,14.33,61.05,28.77,91.5,43.32c2.98,1.42,4.33,0.8,5.88-1.89c7.19-12.52,14.49-24.98,21.91-37.36
			c1.48-2.48,1.75-3.86-1.05-5.65c-26.4-16.94-52.71-34.03-79.04-51.07C95.18,362.13,94.35,361.72,93.5,361.24z M581.89,688.88
			c0.08-1.13-1.44-1.28-2.34-1.77c-19.56-10.74-39.16-21.39-58.71-32.14c-2.29-1.26-3.33-1-4.32,1.58c-3.86,10.05-7.96,20-11.95,30
			c-5.21,13.05-10.45,26.08-15.56,39.17c-0.65,1.65-2.34,3.47,0.94,5.1c20.34,10.12,40.57,20.48,60.8,30.82
			c2.45,1.25,3.5,0.94,4.53-1.83c7.72-20.81,15.64-41.54,23.48-62.31C579.78,694.81,580.73,692.08,581.89,688.88z M870.96,659.3
			c-1.19-0.04-1.62,0.65-2.03,1.32c-1.46,2.34-2.89,4.69-4.34,7.03c-8.42,13.61-16.85,27.2-25.23,40.83
			c-0.84,1.36-2.74,2.79,0.41,4.23c28.18,12.86,56.32,25.82,84.43,38.85c2.09,0.97,3.09,0.71,4.44-1.15
			c7.58-10.37,15.27-20.66,23.05-30.87c1.51-1.98,0.83-2.87-0.84-4.04c-7.61-5.34-15.16-10.77-22.74-16.16
			c-16.46-11.71-32.9-23.43-49.38-35.1C876.16,662.44,873.43,660.87,870.96,659.3z M464.24,624.06c-1.85,0.04-2.26,1.42-2.91,2.52
			c-4.87,8.26-9.71,16.53-14.6,24.78c-8.17,13.78-16.38,27.54-24.55,41.32c-0.81,1.37-2.17,2.65,0.46,3.96
			c18.92,9.45,37.78,18.99,56.62,28.59c2.42,1.23,3.28,0.62,4.24-1.81c9.26-23.58,18.6-47.12,28.08-70.61
			c0.91-2.25,0.14-2.96-1.48-3.85c-14.65-7.95-29.28-15.91-43.92-23.87C465.48,624.71,464.78,624.34,464.24,624.06z M1018.44,764.8
			c-0.51-1.64-1.85-2.13-2.87-2.87c-11.91-8.61-23.9-17.09-35.73-25.8c-2.59-1.91-3.81-1.48-5.56,0.97
			c-10.62,14.8-21.52,29.41-33.11,43.47c-8.89,10.78-19.45,19.95-29.13,29.97c-3.25,3.37-3.29,3.28,0.78,5.02
			c12.31,5.26,24.69,10.35,36.85,15.93c4.17,1.92,6.97,1.91,9.5-2.14c1.02-1.64,2.62-2.91,3.94-4.36
			c17.79-19.33,35.58-38.65,53.37-57.98C1017.18,766.27,1017.84,765.49,1018.44,764.8z M922.07,758.6c0.02-1.79-1.39-1.94-2.4-2.41
			c-8.23-3.82-16.47-7.6-24.72-11.39c-19.1-8.79-38.22-17.54-57.3-26.39c-2.4-1.11-3.88-1.1-5.43,1.45
			c-8.24,13.61-16.63,27.13-25.06,40.64c-1.55,2.49-0.52,2.96,1.79,3.57c27.47,7.21,54.92,14.48,82.34,21.89
			c2.64,0.71,4.47,0.4,6.33-1.48c6.44-6.54,12.99-12.96,19.39-19.54C918.93,762.98,920.46,760.65,922.07,758.6z M259.26,275.33
			c1.57,0.11,1.9-0.99,2.32-1.92c5.58-12.3,11.15-24.61,16.74-36.9c1.01-2.22,0.92-3.8-1.54-5.15c-2.74-1.51-5.2-3.54-7.79-5.32
			c-15.8-10.86-31.63-21.68-47.39-32.61c-2.29-1.59-3.46-1.67-5.22,0.93c-7.96,11.72-16.15,23.3-24.43,34.79
			c-1.73,2.4-1.21,3.44,1.04,4.84c21.25,13.25,42.46,26.57,63.68,39.86C257.54,274.42,258.48,274.9,259.26,275.33z M283.14,732.77
			c1.3-1.61,1.92-2.26,2.41-3c15.38-22.86,30.71-45.76,46.16-68.57c1.8-2.66,1.06-3.56-1.48-4.83c-13.99-6.97-27.9-14.14-41.84-21.2
			c-6.73-3.41-13.5-6.75-21.1-10.55C272.62,660.93,277.8,696.33,283.14,732.77z M1170.94,570.4c0.48-1.93-0.46-2.9-2.23-2.75
			c-1.96,0.17-4.73-3.03-5.82,0.91c-1.68,6.05-3.07,12.19-4.45,18.32c-0.86,3.83,2.64,2.74,4.35,3.47c1.57,0.67,3.22,1.08,3.79-1.62
			C1167.89,582.6,1169.47,576.51,1170.94,570.4z M1087.25,780.83c-0.77-2.68-3.57-2.76-5.35-4.07c-1.41-1.04-2.08,0.16-2.71,1.23
			c-3.06,5.21-5.97,10.52-9.25,15.58c-2,3.08,0.52,3.6,2.14,4.59c1.66,1.02,3.4,2.89,5.14-0.23c2.88-5.16,6.01-10.18,9.03-15.26
			C1086.59,782.12,1086.88,781.53,1087.25,780.83z M1159.68,614.67c0.17-3.88-3.27-2.65-5.01-3.67c-1.59-0.93-2.55-0.36-3.1,1.48
			c-1.79,6.03-3.67,12.04-5.63,18.02c-0.8,2.45,0.97,2.76,2.44,2.99c1.76,0.27,4.1,3.05,5.3-0.16
			C1155.96,627.2,1157.72,620.86,1159.68,614.67z M1187.48,502.97c1.77,0.4,1.9-1,2.27-2.07c1.95-5.69,3.73-11.45,5.89-17.07
			c1.21-3.15-1.03-3.23-2.77-3.79c-1.9-0.6-4.15-2.55-5.31,1.09c-1.87,5.86-3.8,11.7-5.83,17.5c-0.54,1.55-0.43,2.48,1.25,2.96
			C1184.49,502.02,1185.98,502.51,1187.48,502.97z M1145.74,656.82c-0.97-2.12-3.54-1.93-5.36-2.86c-1.46-0.74-2.43-0.11-3.01,1.42
			c-2.21,5.86-4.49,11.7-6.73,17.55c-0.32,0.83-0.79,1.56,0.17,2.44c3.2,2.92,6.82,2.26,8.45-1.68c0.95-2.29,1.84-4.61,2.73-6.93
			C1143.2,663.59,1144.38,660.41,1145.74,656.82z M1182.15,525.3c-0.8-2.35-3.51-1.72-5.33-2.58c-1.37-0.64-2.42-0.29-2.9,1.48
			c-1.65,6.17-3.44,12.31-5.18,18.45c-0.27,0.95-0.23,1.84,0.53,2.54c2.65,2.45,7.26,1.07,8.21-2.44c0.2-0.76,0.42-1.51,0.62-2.27
			C1179.41,535.55,1180.73,530.62,1182.15,525.3z M1128.61,699.17c-1.17-2.05-3.63-2.12-5.45-3.15c-1.37-0.77-2.13-0.17-2.72,1.15
			c-2.56,5.75-5.18,11.48-7.78,17.22c-1.55,3.42,1.75,3.22,3.27,4.04c1.3,0.7,3.03,2.46,4.31-0.62c2.3-5.57,4.99-10.99,7.51-16.48
			C1128.01,700.75,1128.23,700.13,1128.61,699.17z M1108.78,740.21c-1.24-1.58-3.3-2.36-5.18-3.36c-1.26-0.67-1.99,0.04-2.52,1.05
			c-2.98,5.68-5.94,11.38-8.9,17.07c-1.11,2.14,0.41,2.93,1.98,3.37c1.71,0.48,3.49,3.66,5.26,0.54c3.16-5.58,5.98-11.36,8.93-17.06
			C1108.52,741.47,1108.55,741.06,1108.78,740.21z"/>
		<path class="st28" d="M1200.04,477.96c0.34-4.95,3.09-9.09,4.56-13.67c0.69-2.14,1.82-4.38-2.14-4.14
			c-0.59,0.04-1.21-0.46-1.81-0.71c-5.85-2.4-5.82-2.38-8.08,3.8c-0.94,2.57-2.09,5.07-3.14,7.6c-9.22-6.02-18.38-12.11-27.66-18.02
			c-8.72-5.56-17.56-10.95-26.35-16.41c1.76-3.94,3.6-7.85,5.27-11.83c1.14-2.72,2.57-2.95,5.16-1.6
			c15.94,8.37,31.97,16.57,47.95,24.85c1.96,1.02,3.49,2.18,4.92-0.95c1.33-2.93-0.15-3.52-2.26-4.59
			c-16.04-8.16-32-16.51-48.06-24.63c-2.83-1.43-3.09-2.8-1.75-5.49c11.15-22.3,22.23-44.64,33.75-66.76
			c6.02-11.56,14.22-21.04,23.87-29.45c3.09-2.7,3.83-4.8,1.17-8.47c-4-5.53-7.37-11.52-10.82-17.43c-1.47-2.52-2.58-2.69-4.66-0.59
			c-6.19,6.25-12.66,12.22-18.79,18.52c-2.08,2.14-3.11,2.07-4.67-0.35c-14.01-21.74-28.06-43.46-42.15-65.16
			c-20.17-31.06-40.38-62.1-60.58-93.15c-2.08-3.2-4.01-6.51-6.29-9.55c-1.29-1.72-0.6-2.47,0.68-3.47
			c3.11-2.42,6.15-4.95,9.28-7.34c1.51-1.15,1.86-2.12,0.69-3.89c-4.71-7.13-9.27-14.35-13.84-21.57c-1.66-2.63-3.05-0.91-4.43,0.2
			c-9.83,7.89-19.61,15.84-29.47,23.7c-16.53,13.17-33.15,26.23-49.62,39.46c-2.18,1.75-3.33,0.85-4.88-0.54
			c-24.58-22.15-49.17-44.3-73.78-66.42c-22.96-20.63-45.96-41.21-68.92-61.83c-12.99-11.67-25.96-23.37-38.87-35.13
			c-0.74-0.68-2.75-1.1-1.52-2.95c117.03,0,234.05,0,351.08,0c0.02,1.21,0.98,1.82,1.7,2.55c4.89,4.94,9.68,10,14.77,14.73
			c2.5,2.33,2.77,3.52-0.17,5.85c-21.38,16.97-42.59,34.16-63.91,51.2c-2.01,1.61-2.37,2.84-0.87,5.03
			c4.61,6.73,9.08,13.55,13.49,20.41c1.24,1.93,2.21,2.08,3.99,0.62c5.49-4.49,11.25-8.66,16.6-13.31c2.35-2.04,3.26-1.39,4.77,0.71
			c11.1,15.45,22.31,30.82,33.46,46.24c18.08,24.99,36.16,50,54.22,75.01c8,11.08,15.91,22.21,23.96,33.25
			c1.78,2.44,2.25,3.87-0.61,6.24c-8.38,6.95-16.29,14.45-24.49,21.62c-1.95,1.71-2.18,3.04-0.8,5.28
			c4.09,6.6,7.99,13.31,11.86,20.04c1.07,1.85,1.7,2.13,3.43,0.49c5.53-5.23,11.41-10.11,16.9-15.38c2.36-2.27,3.2-1.49,4.56,0.85
			c6.2,10.69,12.49,21.34,18.84,31.94c16.14,26.94,32.26,53.89,48.53,80.75c25.38,41.92,50.13,84.23,77.4,124.97
			c0.53,0.79,1.86,1.69,0.78,3.24c-17.72-4.28-35.07-9.84-52.13-16.33c-2.71-1.03-5.76-1.29-7.55-4.43
			c-7.66-13.47-15.29-26.95-23.08-40.35c-14.9-25.65-29.31-51.58-43.97-77.37c-4.49-7.9-4.56-7.86-11.35-2
			c-0.1,0.09-0.19,0.18-0.3,0.26c-1.36,1.05-1.54,2.02-0.54,3.66c3.14,5.15,6.02,10.47,9,15.72c17.27,30.45,34.55,60.9,51.79,91.37
			c0.53,0.94,2.31,1.74,1.27,2.92c-1.06,1.2-2.42-0.14-3.56-0.6c-31.57-12.81-62.45-27.15-93.16-41.88c-2.64-1.27-3.5-0.8-4.75,1.59
			c-1.41,2.69,0.34,3.2,2.01,4c33.97,16.43,68.3,32.05,103.36,46.01c1.18,0.47,2.43,0.65,3.2,2.04
			c5.82,10.44,12.05,20.66,17.38,31.36c-14.19-2.73-28.18-6.14-41.87-10.83c-23.42-8.02-45.57-18.72-66.98-31.03
			C1220.63,490.43,1210.38,484.13,1200.04,477.96z"/>
		<path class="st28" d="M-0.07,34.99c0.04,6.14,5.08,8.13,9.12,10.9c26.32,18.05,52.7,36.03,78.99,54.12
			c32.46,22.34,64.85,44.79,97.27,67.18c8.53,5.89,17.02,11.82,25.64,17.58c1.91,1.27,2.13,2.05,0.79,3.95
			c-8.56,12.13-17.03,24.31-25.42,36.56c-1.57,2.3-2.93,1.43-4.56,0.4c-17.77-11.21-35.55-22.4-53.3-33.63
			c-26.84-16.98-53.66-33.99-80.47-51c-14.52-9.21-29.03-18.45-43.52-27.72c-1-0.64-1.98-1.21-3.44-1.47
			c-0.69,1.61-0.3,3.31-0.3,4.93c-0.03,9.22,0.02,18.44-0.05,27.66c-0.01,2,0.48,3.38,2.31,4.53C22.12,161,41.17,173.13,60.26,185.2
			c33.39,21.1,66.8,42.18,100.21,63.27c0.89,0.56,1.7,1.28,2.65,1.71c2.28,1.04,2.35,2.23,0.88,4.19
			c-29.02,38.53-58,77.09-86.95,115.67c-8.92,11.88-17.79,23.79-26.56,35.77c-1.98,2.7-3.6,3.56-7.02,1.86
			c-12.95-6.41-26.12-12.36-39.14-18.63c-1.45-0.7-2.94-0.91-4.38-1.43C-0.07,270.07-0.07,152.53-0.07,34.99z"/>
		<path class="st28" d="M1190.81,853.89c-2.92-4.14-7.37-6.5-11.27-9.43c-28.45-21.32-57-42.51-85.63-63.58
			c-2.74-2.01-3.07-3.4-1.4-6.28c11.55-19.86,21.92-40.35,31.54-61.21c14.09-30.57,26.07-61.95,35.87-94.17
			c6.7-22.04,11.63-44.5,16.64-66.95c0.23-1.01,0.81-1.95,0.99-2.97c0.51-3.01,1.84-2.88,3.99-1.38
			c39.16,27.19,78.16,54.6,115.81,83.89c9.23,7.18,18.14,14.77,27.34,21.98c2.26,1.77,2.5,3.03,1.07,5.5
			c-14.81,25.58-29.51,51.22-44.21,76.86c-15.48,27-30.94,54.01-46.41,81.01c-6.53,11.4-13.07,22.79-19.58,34.21
			c-0.44,0.78-0.69,1.67-1.03,2.52C1206.63,853.89,1198.72,853.89,1190.81,853.89z"/>
		<path class="st27" d="M1339.92,538.29c-5.35-10.7-11.58-20.92-17.4-31.36c-0.77-1.38-2.02-1.57-3.2-2.04
			c-35.07-13.96-69.4-29.57-103.36-46.01c-1.67-0.81-3.42-1.31-2.01-4c1.25-2.39,2.11-2.86,4.75-1.59
			c30.7,14.74,61.59,29.07,93.16,41.88c1.14,0.46,2.5,1.8,3.56,0.6c1.05-1.18-0.74-1.98-1.27-2.92
			c-17.24-30.47-34.52-60.92-51.79-91.37c-2.98-5.25-5.86-10.56-9-15.72c-1-1.64-0.82-2.61,0.54-3.66c0.1-0.08,0.2-0.17,0.3-0.26
			c6.79-5.86,6.86-5.89,11.35,2c14.66,25.79,29.07,51.72,43.97,77.37c7.79,13.4,15.41,26.88,23.08,40.35
			c1.79,3.15,4.84,3.4,7.55,4.43c17.05,6.49,34.4,12.05,52.13,16.33c1.09-1.55-0.25-2.45-0.78-3.24
			c-27.27-40.75-52.02-83.06-77.4-124.97c-16.27-26.86-32.39-53.81-48.53-80.75c-6.35-10.6-12.64-21.24-18.84-31.94
			c-1.36-2.34-2.2-3.13-4.56-0.85c-5.49,5.28-11.36,10.15-16.9,15.38c-1.73,1.64-2.36,1.36-3.43-0.49
			c-3.87-6.73-7.77-13.45-11.86-20.04c-1.39-2.23-1.15-3.57,0.8-5.28c8.2-7.16,16.11-14.67,24.49-21.62
			c2.86-2.37,2.39-3.8,0.61-6.24c-8.05-11.04-15.96-22.18-23.96-33.25c-18.06-25.01-36.14-50.01-54.22-75.01
			c-11.15-15.41-22.36-30.79-33.46-46.24c-1.51-2.11-2.42-2.75-4.77-0.71c-5.35,4.65-11.11,8.81-16.6,13.31
			c-1.79,1.46-2.75,1.31-3.99-0.62c-4.41-6.86-8.88-13.68-13.49-20.41c-1.5-2.19-1.15-3.42,0.87-5.03
			c21.33-17.04,42.53-34.23,63.91-51.2c2.94-2.33,2.67-3.53,0.17-5.85c-5.08-4.74-9.87-9.79-14.77-14.73
			c-0.72-0.73-1.68-1.34-1.7-2.55c2.9,0,5.8,0,8.7,0c3.83,6.2,9.82,10.37,14.61,15.68c0.66,0.73,1.33,0.71,2.05,0.09
			c6.24-5.35,13.17-9.86,18.93-15.77c16.34,0,32.68,0,49.02,0c-0.59,1.6-2.14,2.25-3.33,3.21c-8.17,6.59-16.35,13.17-24.6,19.67
			c-1.81,1.43-2.31,2.62-0.68,4.51c8.82,10.24,17.61,20.51,26.37,30.81c1.33,1.57,2.46,1.53,3.98,0.29
			c22.72-18.64,45.47-37.25,68.18-55.91c0.72-0.59,2.43-0.96,1.25-2.58c3.69,0,7.38,0,11.07,0c-0.4,1.39-1.7,1.97-2.69,2.77
			c-24.39,19.96-48.8,39.9-73.24,59.8c-1.97,1.61-2.57,2.56-0.52,4.89c11.35,12.94,22.44,26.09,33.65,39.15
			c9.15,10.67,18.88,20.89,27.29,32.12c4.59,6.13,10.29,8.66,17,10.06c9.81,2.06,19.79,2.8,29.81,3.03
			c18.33,0.42,36.57-1.36,54.86-2.11c26.19-1.07,52.41-1.22,78.62-1.11c1.48,0.01,3.12,0.59,4.6-0.7c-0.48-0.69-0.86-1.38-1.35-1.96
			c-14.67-17.17-29.37-34.31-44.01-51.51c-20.84-24.49-41.68-48.98-62.43-73.54c-5.83-6.91-12.03-13.52-17.29-20.9
			c2.9,0,5.8,0,8.7,0c-0.67,1.16,0.4,1.65,0.93,2.29c11.1,13.11,22.25,26.17,33.28,39.34c1.49,1.78,2.54,1.94,4.55,0.83
			c21-11.58,42.09-22.99,63.08-34.59c4.38-2.42,9.23-4.13,12.82-7.87c4.74,0,9.49,0,14.23,0c-28.31,15.52-56.59,31.09-84.96,46.51
			c-2.96,1.61-3.45,2.49-1.08,5.26c26.78,31.27,53.46,62.63,80.01,94.09c1.87,2.21,3.67,2.89,6.3,2.93
			c8.87,0.13,17.74,0.42,26.62,0.64c0,0.53,0,1.05,0,1.58c-1.25,1.84-0.87,4.66-4.91,4.35c-9.04-0.69-18.15-0.47-27.24-0.58
			c-36.88-0.46-73.74-0.21-110.58,2.05c-18.68,1.15-37.39,1.8-56.03-0.52c-12.36-1.54-23.35-4.56-32.13-15.54
			c-20.5-25.64-42.47-50.1-63.85-75.04c-9.66-11.26-19.35-22.5-28.99-33.78c-1.77-2.07-2.93-2.84-5.64-0.57
			c-11.47,9.57-23.26,18.76-34.96,28.06c-6.39,5.09-6.36,5.02-1.42,11.83c21.79,30.08,43.54,60.18,65.29,90.28
			c14.53,20.11,29.08,40.2,43.49,60.39c1.88,2.63,3.24,2.97,5.83,0.95c7.47-5.82,15.45-10.87,24.01-14.94
			c8.71-4.14,17.86-3.42,27.11-2.49c21.19,2.14,42.42,3.97,63.62,6.05c18.84,1.85,37.66,3.88,56.49,5.81
			c15.18,1.55,30.35,3.09,45.53,4.61c11.45,1.15,22.91,2.26,34.36,3.39c0,0.53,0,1.05,0,1.58c-1.44,8.7-1.42,17.39,0,26.09
			c0,0.26,0,0.53,0,0.79c-7.12,0.19-14.12-1.01-21.16-1.71c-18.97-1.91-37.93-3.94-56.91-5.84c-18.19-1.82-36.39-3.53-54.58-5.29
			c-0.25-0.09-0.5-0.18-0.76-0.27c0.05,0.28,0.11,0.56,0.16,0.84c0.34,1.26,0.56,2.57,1.05,3.77c5.58,13.88,11.22,27.74,16.79,41.62
			c13.54,33.74,27.1,67.47,40.47,101.28c1.08,2.74,2.16,3.27,4.83,2.73c17.13-3.46,34.26-6.93,51.44-10.08
			c6.19-1.14,12.23-3.39,18.67-2.91c0,0.53,0,1.05,0,1.58c-0.81,4.89-4.78,4.85-8.39,5.38c-0.91,0.13-1.81,0.34-2.71,0.52
			c-35.34,7-70.69,13.99-106.03,21c-20.51,4.07-41,8.18-61.52,12.18c-2.35,0.46-3.04,1.09-1.55,3.27c1.56,2.27,2.9,4.68,4.32,7.05
			c17.33,28.76,34.84,57.4,53.19,85.52c4.34,6.65,10.02,10.22,17.67,11.71c16.88,3.28,33.96,3.77,51.04,4.08
			c17.99,0.32,35.98,0.22,53.98,0.3c0,0.26,0,0.53,0,0.79c-0.28,6.28-4.91,4.89-8.69,4.89c-16.97-0.03-33.94,0.05-50.91-0.16
			c-32.94-0.4-65.13-5.48-96.42-15.94c-7.49-2.51-15-4.99-23.52-7.83c6.07,10.33,11.64,19.8,17.21,29.27
			c0.09,0.38,0.09,0.81,0.27,1.14c7.12,12.98,15.34,25.34,21.6,38.8c0.32,0.69,1.43,1.02,2.17,1.52c0.47,1.22,0.78,2.53,1.42,3.65
			c10.26,18,20.61,35.94,30.84,53.95c12.75,22.44,25.55,44.85,39.22,66.76c20.77,33.29,41.19,66.81,61.64,100.3
			c1.7,2.78,3.96,5.48,4.22,9.32c-3.29-2.81-4.9,0.46-7.02,1.41c-1.09,0.49-1.49,1.43-0.75,2.6c2.91,4.63,5.8,9.27,8.7,13.91
			c0,0.26,0,0.53,0,0.79c-2.83-0.25-3.38-2.81-4.5-4.63c-9.96-16.18-19.83-32.42-29.76-48.63c-16.65-27.18-33.33-54.34-49.98-81.52
			c-21.46-35.02-41.16-71.06-61.62-106.66c-2.65-4.62-4.5-9.79-8.48-13.6c-0.33-0.99-0.52-2.05-1.02-2.95
			c-3.38-6.08-6.72-12.19-10.27-18.17C1348.34,552.45,1344.77,544.99,1339.92,538.29z M1307.66,233.16
			c-3.42-0.29-6.11,1.54-8.82,3.11c-17.34,10.1-32.33,23.29-47.52,36.22c-1.67,1.42-1.4,2.55-0.32,4.34
			c12.83,21.38,25.53,42.84,38.28,64.27c2.79,4.7,2.83,4.73,7.58,2.2c32.59-17.32,65.16-34.7,97.8-51.93
			c2.88-1.52,2.01-3.21,1.23-5.17c-4.76-11.96-10.13-23.72-14.13-35.93c-2.68-8.18-6.93-11.2-15.56-11.69
			C1346.65,237.47,1327.17,235.05,1307.66,233.16z M1334.59,413.25c0.78-0.13,1.56-0.24,2.34-0.39
			c32.79-6.42,65.57-12.86,98.37-19.24c2.48-0.48,2.99-1.52,2.06-3.79c-2.73-6.69-5.33-13.43-8.02-20.14
			c-9.39-23.41-18.89-46.78-28.11-70.26c-1.32-3.35-2.57-3.53-5.39-2.02c-32.5,17.42-65.02,34.82-97.62,52.07
			c-2.82,1.49-2.37,2.77-1.11,4.84c6.15,10.1,12.26,20.24,18.36,30.37c5.15,8.55,10.22,17.14,15.45,25.64
			C1331.72,411.65,1332.28,413.69,1334.59,413.25z M1364.61,560.77c-0.53-1-0.94-1.82-1.39-2.61c-2.33-4.1-4.68-8.18-7-12.28
			c-2.92-5.16-3.19-5.2-8.09-1.78c-1.28,0.9-1.73,1.6-0.82,3.14c3.2,5.4,6.26,10.88,9.34,16.35c0.62,1.09,1.3,2.29,2.66,1.31
			C1361.12,563.6,1363.77,563.26,1364.61,560.77z M1432.27,679.46c-0.34-0.69-0.59-1.29-0.91-1.86c-2.91-5.14-5.95-10.22-8.71-15.44
			c-1.61-3.04-3.29-1.65-5.09-0.51c-1.76,1.12-4.33,1.61-2.23,4.87c3.12,4.85,5.74,10.03,8.64,15.02c0.57,0.98,0.78,2.97,2.69,1.92
			C1428.65,682.37,1431.13,681.85,1432.27,679.46z M1466.78,738.17c-1.49,0.96-3.73,1.85-5.11,3.46c-1.18,1.38,0.77,2.81,1.53,4.08
			c2.77,4.61,5.87,9.04,8.44,13.75c1.14,2.09,2.18,2.62,3.76,1.05c1.47-1.45,5.75-1.29,3.49-5.11c-3.13-5.3-6.47-10.48-9.72-15.71
			C1468.72,738.95,1468.51,737.89,1466.78,738.17z M1274.42,402.63c-0.45-0.78-0.85-1.46-1.24-2.14c-2.37-4.2-4.73-8.42-7.11-12.61
			c-2.96-5.22-2.93-5.15-8.02-1.89c-1.61,1.03-1.72,1.86-0.78,3.44c3.15,5.29,6.16,10.65,9.19,16.01c0.62,1.1,1.34,2.31,2.67,1.35
			C1270.91,405.49,1273.65,405.28,1274.42,402.63z M1397.82,620.69c-1.89,0.91-4.18,1.59-5.57,3.34c-1.07,1.34,0.47,2.68,1.11,3.86
			c2.54,4.6,5.38,9.05,7.78,13.72c1.6,3.12,3.24,2.38,5.65,1.09c2.69-1.44,3.29-2.87,1.63-5.55c-2.98-4.81-5.72-9.76-8.55-14.66
			C1399.41,621.7,1399.09,620.8,1397.82,620.69z M1342.1,521.43c-0.21-0.47-0.3-0.72-0.43-0.95c-3.24-5.7-6.3-11.52-9.78-17.07
			c-2.18-3.47-3.93,0.61-5.91,0.96c-1.65,0.29-2.06,1.68-1.08,3.36c3.17,5.44,6.29,10.91,9.34,16.42c0.74,1.33,1.62,1.72,2.82,0.94
			C1338.81,523.95,1341.28,523.66,1342.1,521.43z M1296.99,442.43c-0.26-0.58-0.43-1.08-0.68-1.52c-3.07-5.35-6.21-10.66-9.23-16.03
			c-1.96-3.48-3.71-0.59-5.46,0.12c-1.84,0.74-3.19,1.68-1.71,4.11c3.14,5.15,6.06,10.43,9.06,15.66c0.59,1.03,1.3,2.56,2.55,1.71
			C1293.37,445.23,1295.99,444.88,1296.99,442.43z M1387.13,600.56c-0.17-0.47-0.23-0.73-0.36-0.96
			c-3.31-5.82-6.35-11.82-10.08-17.36c-1.72-2.55-3.78,0.64-5.65,1.24c-1.6,0.52-2.12,1.7-1.11,3.42c3.12,5.31,6.13,10.69,9.2,16.04
			c0.65,1.14,1.23,2.53,2.95,1.34C1383.8,603.06,1386.37,602.89,1387.13,600.56z M1490.89,776.94c-1.46,0.9-3.29,1.89-4.97,3.1
			c-1.12,0.81-0.48,1.82,0.1,2.76c3.29,5.34,6.51,10.72,9.85,16.02c2.01,3.19,3.55-0.06,5.14-0.64c1.5-0.55,3.27-1.44,1.83-3.75
			c-3.24-5.2-6.42-10.45-9.6-15.69C1492.76,777.96,1492.41,777.08,1490.89,776.94z M1319.64,482.3c-0.24-0.57-0.35-0.94-0.54-1.28
			c-3.22-5.71-6.24-11.55-9.76-17.06c-2.05-3.2-4.03,0.49-6.04,0.89c-2,0.4-1.74,1.87-0.9,3.35c3.04,5.36,6.04,10.74,9.09,16.09
			c0.57,0.99,1.22,2.36,2.69,1.5C1316.03,484.7,1318.28,484.11,1319.64,482.3z M1456.04,718.5c-0.28-0.55-0.48-1.02-0.75-1.46
			c-3.32-5.47-6.62-10.96-10-16.39c-1.8-2.89-3.37-0.32-4.87,0.44c-1.73,0.88-3.64,1.74-1.9,4.43c3.2,4.95,6.11,10.08,9.25,15.07
			c0.6,0.95,1.11,2.79,2.89,1.71C1452.5,721.17,1454.74,720.54,1456.04,718.5z"/>
		<path class="st28" d="M476.01,0c9.15,4.04,18.73,6.9,28.12,10.26c28.95,10.34,57.95,20.54,86.94,30.78
			c20.67,7.3,41.32,14.66,62.05,21.78c3.57,1.23,4.79,2.84,4.77,6.7c-0.16,41.5-0.15,83-0.02,124.49c0.01,3.89-1.05,3.77-3.93,2.42
			c-13.92-6.49-27.9-12.87-41.85-19.28c-23.04-10.58-46.08-21.16-69.12-31.75c-39.4-18.11-78.81-36.21-118.2-54.33
			c-17.07-7.85-34.12-15.78-51.22-23.55c-3.29-1.5-4.58-3.11-3.72-7.11c3.54-16.39,5.01-33.03,5.05-49.8
			c0.01-3.54,0.46-7.07,0.71-10.6C409.06,0,442.54,0,476.01,0z"/>
		<path class="st28" d="M318.46,131.13c-6.49,20.39-14.05,40.39-21.91,60.29c-4.2,10.62-8.51,21.2-12.97,31.72
			c-1.42,3.34-2.51,3.01-4.9,1.36c-22.24-15.4-44.5-30.77-66.78-46.1c-46.66-32.11-93.33-64.19-140.01-96.27
			C50.02,67.1,28.09,52.17,6.3,37.03c-2.02-1.41-3.87-2.78-6.3-3.19C0,23.16,0.09,12.49-0.07,1.82c-0.04-2.36,0.48-2.84,2.84-2.83
			c27.81,0.1,55.61,0.07,83.42,0.07c0.44,0.88,1.27,1.24,2.08,1.72c6.44,3.79,12.88,7.57,19.25,11.47
			c26.05,15.91,52.5,31.13,78.93,46.38c25.65,14.8,51.5,29.25,77.51,43.43C282.03,111.9,299.96,122.05,318.46,131.13z"/>
		<path class="st28" d="M1518.17,225.33c-11.45-1.13-22.91-2.25-34.36-3.39c-15.18-1.52-30.36-3.05-45.53-4.61
			c-18.83-1.93-37.65-3.96-56.49-5.81c-21.2-2.08-42.43-3.91-63.62-6.05c-9.25-0.94-18.4-1.65-27.11,2.49
			c-8.56,4.07-16.55,9.12-24.01,14.94c-2.59,2.02-3.95,1.68-5.83-0.95c-14.42-20.19-28.96-40.28-43.49-60.39
			c-21.75-30.1-43.51-60.2-65.29-90.28c-4.93-6.81-4.97-6.74,1.42-11.83c11.7-9.3,23.49-18.49,34.96-28.06
			c2.71-2.26,3.88-1.5,5.64,0.57c9.64,11.28,19.33,22.51,28.99,33.78c21.38,24.94,43.34,49.4,63.85,75.04
			c8.78,10.98,19.77,14,32.13,15.54c18.64,2.32,37.35,1.66,56.03,0.52c36.83-2.26,73.7-2.51,110.58-2.05
			c9.08,0.11,18.2-0.11,27.24,0.58c4.04,0.31,3.66-2.51,4.91-4.35C1518.17,175.79,1518.17,200.56,1518.17,225.33z"/>
		<path class="st28" d="M144.7,853.89c-1.79-28.63-3.62-57.25-5.34-85.88c-0.97-16.02-1.71-32.06-2.63-48.09
			c-1.22-21.14-2.49-42.27-3.78-63.41c-0.34-5.64-0.41-5.66,4.97-6.84c39.19-8.57,78.38-17.14,117.57-25.69
			c5.64-1.23,5.49-1.19,6.31,4.45c3.32,22.63,6.77,45.25,10.11,67.88c2.07,14.06,3.98,28.14,6.06,42.2c0.26,1.76-0.29,2.97-1.2,4.33
			c-24.11,35.89-48.18,71.8-72.26,107.71c-0.73,1.09-1.39,2.23-2.09,3.35C183.18,853.89,163.94,853.89,144.7,853.89z"/>
		<path class="st28" d="M1353.7,0c5.26,7.38,11.46,13.99,17.29,20.9c20.75,24.57,41.59,49.06,62.43,73.54
			c14.64,17.2,29.34,34.33,44.01,51.51c0.5,0.58,0.88,1.26,1.35,1.96c-1.49,1.29-3.12,0.71-4.6,0.7
			c-26.21-0.12-52.42,0.04-78.62,1.11c-18.28,0.75-36.52,2.54-54.86,2.11c-10.02-0.23-20-0.97-29.81-3.03
			c-6.7-1.41-12.41-3.93-17-10.06c-8.4-11.22-18.14-21.45-27.29-32.12c-11.21-13.06-22.3-26.22-33.65-39.15
			c-2.04-2.33-1.45-3.28,0.52-4.89c24.45-19.89,48.85-39.84,73.24-59.8c0.98-0.81,2.28-1.38,2.69-2.77C1324.18,0,1338.94,0,1353.7,0
			z"/>
		<path class="st28" d="M772.53,0c2.22,3.69,5.87,5.95,8.95,8.74c17.63,15.92,35.4,31.69,53.11,47.52c0.78,0.7,1.43,1.53,2.16,2.28
			c4.61,4.65,4.63,4.66,0.95,9.99c-12.16,17.57-24.39,35.11-36.47,52.74c-1.79,2.61-3.82,3.5-6.9,3.4
			c-34.97-1.16-69.95-2.24-104.93-3.3c-7.37-0.22-14.74-0.49-22.1-0.41c-3.21,0.03-4-1.06-3.97-4.12c0.13-17.64,0-35.29,0.13-52.93
			c0.02-2.8-0.73-4.2-3.46-5.14c-19-6.57-37.95-13.3-56.93-19.95c-1.8-0.63-3.18-1.09-3.13-3.64c0.21-11.71,0.16-23.43,0.21-35.15
			C657.61,0,715.07,0,772.53,0z"/>
		<path class="st28" d="M1363.83,580.67c3.98,3.81,5.83,8.98,8.48,13.6c20.46,35.6,40.16,71.64,61.62,106.66
			c16.65,27.18,33.33,54.34,49.98,81.52c9.93,16.2,19.79,32.45,29.76,48.63c1.13,1.83,1.68,4.39,4.5,4.63
			c0,5.27-0.11,10.55,0.05,15.81c0.06,1.99-0.45,2.44-2.43,2.43c-12.65-0.1-25.3-0.05-37.95-0.05
			c-8.28-13.24-16.53-26.5-24.86-39.72c-15.95-25.33-32.28-50.41-49.03-75.21c-14.25-21.09-28.27-42.4-45.15-61.54
			c-14.83-16.81-32.43-30.64-49.94-44.49c-29.86-23.63-60.66-46-91.91-67.77c-11.41-7.95-22.57-16.25-34.34-23.67
			c-1.65-1.04-2.69-2.52-2.05-4.62c2.21-7.28,4.44-14.55,6.66-21.83c0.82,0.42,1.66,0.79,2.44,1.27
			c14.35,8.94,28.96,17.44,44.07,25.05c16.25,8.19,32.75,15.82,50.03,21.68c18.05,6.12,36.47,10.7,55.18,14.1
			C1347.18,578.65,1355.4,580.41,1363.83,580.67z"/>
		<path class="st28" d="M210.33,853.89c2.93-6.63,7.54-12.23,11.5-18.2c17.72-26.73,35.66-53.31,53.53-79.94
			c1.76-2.62,3.64-5.15,5.34-7.8c1.06-1.65,2.07-1.84,3.9-0.97c34.57,16.33,69.18,32.58,103.78,48.85
			c17.7,8.32,35.39,16.69,53.13,24.94c2.2,1.03,2.92,2.02,1.99,4.49c-2.07,5.52-3.56,11.27-5.78,16.73
			c-1.48,3.64-1.29,6.51,1.5,9.28c0.66,0.66,1.81,1.31,1.2,2.63C363.73,853.89,287.03,853.89,210.33,853.89z"/>
		<path class="st28" d="M43.61,853.89c-2.35-9.57-4.63-19.15-7.06-28.7c-3.44-13.49-6.8-26.79-6.55-41.08
			c0.65-36.48,0.26-72.98,0.14-109.48c-0.01-3.25,0.73-4.52,4.13-5c20.57-2.89,41.1-6,61.64-9.09c6.94-1.04,6.81-1.09,7.2,5.65
			c1.94,33.61,3.95,67.21,5.94,100.82c1.31,22.2,2.56,44.4,4.01,66.58c0.21,3.29-1.04,5.43-3.2,7.58
			c-4.08,4.06-8.37,7.94-11.68,12.71C79.98,853.89,61.79,853.89,43.61,853.89z"/>
		<path class="st28" d="M0,392.59c0.18,5.25,4.27,6.55,8.12,8.34c11.45,5.3,22.77,10.86,34.23,16.13c2.55,1.18,3.42,2.69,3.42,5.43
			c-0.05,79.3-0.03,158.59,0,237.89c0,2.2-0.25,3.77-2.96,4.16c-14.28,2.05-28.55,4.23-42.82,6.36C0,578.13,0,485.36,0,392.59z"/>
		<path class="st28" d="M627.83,853.89c1.81-7.4,5.01-14.31,7.65-21.42c11.63-31.38,23.44-62.7,35.01-94.11
			c1.27-3.44,2.59-4.23,6.2-3.25c27.9,7.59,55.84,15,83.81,22.32c3.74,0.98,3.76,2.2,2.04,5.35
			c-15.68,28.84-31.18,57.77-46.75,86.67c-0.81,1.5-1.71,2.96-2.56,4.44C684.76,853.89,656.29,853.89,627.83,853.89z"/>
		<path class="st28" d="M554.29,853.89c-7.04-2.51-14.05-5.11-21.14-7.47c-2.48-0.83-3.32-1.57-2.23-4.43
			c8.42-22.08,16.61-44.26,24.92-66.38c9.78-26.07,19.62-52.11,29.4-78.17c2.2-5.86,2.17-5.93,7.48-3.05
			c16.27,8.83,32.47,17.77,48.8,26.47c2.5,1.33,1.88,2.74,1.22,4.49c-5.19,13.92-10.39,27.83-15.58,41.75
			c-9.83,26.34-19.67,52.67-29.45,79.02c-0.94,2.53-2.73,4.84-2.3,7.78C581.7,853.89,568,853.89,554.29,853.89z"/>
		<path class="st28" d="M721.13,853.89c-0.53-0.98,0.03-1.77,0.46-2.56c15.8-29.23,31.65-58.43,47.36-87.7
			c1.48-2.76,2.93-3.22,5.91-2.41c29.05,7.82,58.14,15.46,87.23,23.16c8.13,2.15,16.27,4.3,24.4,6.47c2.32,0.62,3.6,1.11,1.02,3.66
			c-19.47,19.25-38.77,38.67-58.11,58.05c-0.34,0.35-0.49,0.89-0.72,1.34C792.82,853.89,756.98,853.89,721.13,853.89z"/>
		<path class="st29" d="M318.87,131.63c-18.5-9.08-36.42-19.23-54.5-29.09c-26-14.18-51.85-28.62-77.51-43.43
			c-26.43-15.25-52.89-30.47-78.93-46.38c-6.37-3.89-12.81-7.68-19.25-11.47c-0.8-0.47-1.64-0.83-2.08-1.72c25.04,0,50.08,0,75.12,0
			c0.55,0.54,1.02,1.22,1.66,1.6c13.33,7.85,26.61,15.8,40.06,23.47c17.67,10.07,35.47,19.91,53.21,29.86
			c24.35,13.66,48.82,27.09,73.56,40.03C327.2,107.12,323.17,119.42,318.87,131.63z"/>
		<path class="st28" d="M945.69,853.89c2.26-4.85,6.49-8.12,9.96-11.93c20.92-22.99,42.08-45.77,63.14-68.64
			c4.84-5.26,4.91-5.44,10.74-1.31c11.12,7.9,22.08,16.02,33.15,23.99c1.98,1.42,2.45,2.8,0.96,4.89c-1.58,2.22-2.91,4.63-4.38,6.94
			c-0.97,1.51-1.03,2.47,0.67,3.81c6.94,5.47,6.86,5.56,11.51-1.73c0.56-0.88,1.2-1.72,1.73-2.63c1.1-1.86,2.38-2.14,4.16-0.82
			c18.23,13.52,36.41,27.12,54.81,40.41c3.07,2.22,1.93,4.49,1.75,7C1071.15,853.89,1008.42,853.89,945.69,853.89z"/>
		<path class="st28" d="M329.8,94.95c-24.74-12.94-49.21-26.37-73.56-40.03c-17.74-9.95-35.54-19.79-53.21-29.86
			C189.58,17.4,176.3,9.45,162.97,1.6c-0.64-0.38-1.11-1.06-1.66-1.6c32.68,0,65.37,0,98.05,0c1.33,2.61,4.06,3.56,6.26,5.06
			c23.62,16.12,47.3,32.16,70.97,48.22c1.68,1.14,3.15,2.2,2.59,4.72C336.43,70.41,333.72,82.83,329.8,94.95z"/>
		<path class="st28" d="M0.08,674.33c6.86,0.02,13.51-1.72,20.25-2.61c2.84-0.37,3.78-0.15,3.78,3.18
			c-0.11,37.49,0.27,74.97-0.13,112.45c-0.13,11.94,2.54,23.14,5.43,34.44c2.73,10.64,5.88,21.18,7.84,32.01
			c-11.33,0-22.67-0.11-34,0.08C0.52,853.94,0,853.35,0,850.64C0.1,791.87,0.08,733.1,0.08,674.33z"/>
		<path class="st28" d="M1298.35,0c1.19,1.62-0.52,1.99-1.25,2.58c-22.71,18.65-45.46,37.26-68.18,55.91
			c-1.52,1.24-2.64,1.28-3.98-0.29c-8.75-10.3-17.54-20.57-26.37-30.81c-1.63-1.89-1.13-3.08,0.68-4.51
			c8.25-6.49,16.42-13.08,24.6-19.67c1.2-0.97,2.74-1.61,3.33-3.21C1250.91,0,1274.63,0,1298.35,0z"/>
		<path class="st28" d="M344.75,0c-0.76,16.12-0.41,32.32-3.74,48.32c-1.61,0-2.78-1.12-4.06-1.99
			c-21.39-14.55-42.79-29.1-64.15-43.72c-0.92-0.63-2.69-0.77-2.38-2.62C295.2,0,319.98,0,344.75,0z"/>
		<path class="st28" d="M593.83,0c0.79,9.98,0.16,19.98,0.34,29.97c0.1,5.76,0.04,5.77-5.2,3.91c-30.45-10.79-60.9-21.58-91.34-32.4
			c-0.94-0.33-2.14-0.33-2.63-1.49C527.93,0,560.88,0,593.83,0z"/>
		<path class="st28" d="M869.78,853.89c0.2-2.39,2.34-3.36,3.73-4.77c9.38-9.55,18.97-18.89,28.33-28.46
			c1.93-1.98,3.46-2.02,5.82-0.99c13.33,5.83,26.71,11.56,40.13,17.19c2.79,1.17,2.54,2.28,0.76,4.13
			c-3.36,3.48-6.63,7.06-9.9,10.63c-0.57,0.62-1.6,1.13-0.86,2.28C915.12,853.89,892.45,853.89,869.78,853.89z"/>
		<path class="st28" d="M449.13,853.89c-5.53-4.96-6.94-10.55-3.25-17.37c1.53-2.83,2.31-6.11,3.16-9.26
			c0.7-2.61,1.95-2.89,4.34-2.05c20.33,7.09,40.7,14.09,61.06,21.11c5.47,1.89,10.96,3.72,16.39,5.72c1.27,0.47,2.95,0.3,3.7,1.86
			C506.06,853.89,477.59,853.89,449.13,853.89z"/>
		<path class="st28" d="M1221.65,853.89c1.5-4.66,4.47-8.54,6.79-12.76c3.98-7.24,8.24-14.33,12.38-21.49c0.8-1.39,1.3-3,3.42-1.14
			c13.12,11.5,26.33,22.9,39.49,34.36c0.25,0.21,0.27,0.69,0.4,1.04C1263.3,853.89,1242.47,853.89,1221.65,853.89z"/>
		<path class="st28" d="M1178.16,0c-5.76,5.92-12.69,10.43-18.93,15.77c-0.72,0.61-1.39,0.64-2.05-0.09
			c-4.78-5.31-10.78-9.49-14.61-15.68C1154.44,0,1166.3,0,1178.16,0z"/>
		<path class="st28" d="M766.13,413.82c-0.83,1.89-1.6,3.56-2.3,5.27c-11.54,28.19-23.07,56.38-34.61,84.56
			c-3.48,8.49-7.1,16.93-10.4,25.49c-1.08,2.81-1.89,3.29-4.7,1.72c-22.13-12.37-44.33-24.61-66.57-36.77
			c-33.27-18.2-66.58-36.32-99.89-54.45c-32.98-17.96-65.99-35.88-98.98-53.83c-3.69-2.01-7.29-4.19-11.07-6.01
			c-2.57-1.23-2.81-2.49-1.43-4.89c7.19-12.5,14.24-25.08,21.34-37.63c9.82-17.37,19.7-34.72,29.41-52.16
			c1.58-2.84,2.89-3.55,6.04-2.04c28.54,13.68,57.15,27.23,85.77,40.74c26.14,12.33,52.43,24.33,78.45,36.92
			c35.24,17.05,70.69,33.63,106.05,50.42C764.48,411.74,765.98,412.18,766.13,413.82z"/>
		<path class="st28" d="M733.05,128.75c22.12,0.67,44.24,1.32,66.35,2.02c1.84,0.06,3.05-0.35,4.22-2.07
			c13.19-19.29,26.51-38.49,39.79-57.71c2.82-4.08,2.79-4.09,6.56-0.69c32.19,29.01,64.39,58.01,96.6,87
			c4.68,4.22,9.4,8.4,14.2,12.48c2.28,1.94,2.3,3.05-0.25,5.02c-27.17,21.05-54.23,42.24-81.32,63.39
			c-4.14,3.23-8.17,6.61-12.46,9.6c-7.03,4.9-10.63,12.54-15.68,19.01c-3.15,4.04-6.21,8.18-8.91,12.52
			c-1.38,2.22-2.54,2.44-4.72,1.42c-9.05-4.23-18.17-8.31-27.25-12.48c-35.46-16.3-70.9-32.61-106.36-48.92
			c-12.54-5.77-25.06-11.57-37.64-17.24c-2.12-0.96-2.85-2.15-2.84-4.48c0.09-22.66,0.1-45.32-0.02-67.99
			c-0.01-2.75,0.94-3.22,3.38-3.13c22.11,0.82,44.23,1.53,66.34,2.28C733.05,128.79,733.05,128.77,733.05,128.75z"/>
		<path class="st28" d="M1030.58,158.52c0.79,1.03,1.61,1.98,2.29,3.01c8.33,12.75,16.65,25.51,24.95,38.28
			c20.33,31.27,40.65,62.56,60.99,93.83c9.74,14.97,19.46,29.94,29.33,44.82c1.46,2.2,1.36,3.75,0.21,6.03
			c-9.34,18.39-18.61,36.82-27.63,55.37c-1.51,3.1-2.74,3.18-5.54,1.93c-10.92-4.87-21.95-9.52-32.94-14.24
			c-37.04-15.9-74.09-31.78-111.12-47.7c-27.28-11.73-54.54-23.51-81.81-35.27c-5.54-2.39-11.08-4.79-16.62-7.19
			c-4.58-1.98-4.51-1.94-1.69-5.78c3.34-4.55,6.71-9.09,9.78-13.82c4.66-7.19,12.08-11.21,18.51-16.29
			c22.75-17.98,45.76-35.63,68.59-53.5c20.36-15.94,40.62-32.01,60.93-48.02C1029.34,159.58,1029.83,159.15,1030.58,158.52z"/>
		<path class="st28" d="M795.1,344.79c-5.69,10.4-9.32,21.69-14.06,32.49c-3.85,8.76-7.36,17.67-10.81,26.59
			c-1.08,2.78-2.36,2.81-4.74,1.68c-21.94-10.47-43.92-20.83-65.88-31.25c-39.61-18.78-79.21-37.59-118.83-56.36
			c-40.45-19.17-80.91-38.3-121.36-57.46c-39.87-18.89-79.74-37.79-119.61-56.69c-3.31-1.57-6.64-3.12-9.97-4.65
			c-1.49-0.68-2.27-1.44-1.56-3.34c6.04-16.23,11.98-32.49,17.96-48.74c1.3,0.61,2.63,1.17,3.91,1.82
			c24.49,12.33,48.85,24.92,73.5,36.92c20.95,10.2,42.02,20.18,63.23,29.85c17.19,7.84,34.32,15.81,51.63,23.36
			c22.02,9.6,44.17,18.89,66.31,28.21c21.5,9.04,43.03,18,64.6,26.88c18.34,7.55,36.74,14.96,55.14,22.37
			C748.05,325.94,771.58,335.35,795.1,344.79z"/>
		<path class="st28" d="M1167.87,540.62c-1.17,4.63-2.57,9.84-3.8,15.09c-2.9,12.41-5.52,24.89-8.61,37.25
			c-4.43,17.72-10.12,35.07-16.19,52.29c-9.53,27.01-20.66,53.34-33.32,79.04c-7.26,14.73-14.88,29.26-22.77,43.65
			c-1.57,2.86-2.9,3.04-5.39,1.23c-15.5-11.26-31.07-22.44-46.61-33.65c-11.06-7.97-22.05-16.05-33.24-23.85
			c-2.92-2.04-2.89-3.42-0.95-6.2c20.23-28.95,40.1-58.15,58.08-88.57c7.81-13.21,15.77-26.42,21.02-40.9
			c4.03-11.1,7.14-22.54,11.81-33.43c6.01-14,11.9-28.06,17.82-42.09c0.92-2.17,1.91-2.5,4.06-1.04
			c18.68,12.71,37.45,25.3,56.23,37.89C1167.06,538,1168.01,538.59,1167.87,540.62z"/>
		<path class="st28" d="M797.7,761.04c-7.37-1.95-14.74-3.9-22.11-5.85c-27.18-7.19-54.37-14.37-81.55-21.57
			c-5.34-1.41-10.61-3.08-15.99-4.32c-3.11-0.72-3.27-2.04-2.25-4.73c8.68-23,17.36-46,25.8-69.08
			c9.3-25.43,19.08-50.67,29.45-75.68c1.28-3.09,2.34-3.21,5.12-1.66c28.46,15.85,56.82,31.87,84.89,48.41
			c14.15,8.33,28.09,17.03,41.49,26.56c2.82,2.01,1.62,3.59,0.42,5.54c-12.36,19.99-24.72,39.98-37.07,59.97
			c-8.14,13.18-16.28,26.37-24.44,39.53C800.6,759.55,800.05,761.5,797.7,761.04z"/>
		<path class="st28" d="M986.03,466.41c-0.43,1.34-0.8,2.61-1.25,3.84c-12.03,32.67-24.07,65.34-36.12,98
			c-0.22,0.61-0.62,1.15-0.86,1.76c-3.22,7.93-3.21,7.92-10.69,3.41c-52.54-31.64-105.12-63.23-157.6-94.98
			c-5.94-3.59-6.01-1.7-3.07-8.87c9.72-23.67,19.5-47.32,29.08-71.05c1.45-3.58,2.99-3.95,6.44-2.56
			c22.74,9.2,45.58,18.15,68.37,27.23c30.4,12.11,60.77,24.27,91.16,36.4c4.03,1.61,8.1,3.12,12.13,4.74
			C984.63,464.75,986.04,464.86,986.03,466.41z"/>
		<path class="st28" d="M357.89,109.92c2.91-11.99,6.68-23.76,9.07-35.88c0.64-3.24,2.6-1.69,4.19-0.97
			c11.35,5.17,22.7,10.35,34.04,15.56c33.17,15.26,66.34,30.53,99.51,45.8c39.48,18.18,78.97,36.36,118.45,54.54
			c29.45,13.56,58.89,27.14,88.35,40.67c35.33,16.23,70.68,32.42,106.01,48.64c5.49,2.52,10.93,5.14,16.44,7.63
			c1.55,0.7,2.61,1.29,1.27,3.12c-5.8,7.94-11.57,15.9-17.34,23.86c-6.16-2.55-12.3-5.14-18.48-7.63
			c-28.36-11.41-56.77-22.69-85.08-34.2c-22.48-9.14-44.85-18.55-67.28-27.82c-13.32-5.5-26.71-10.82-39.97-16.46
			c-20.78-8.84-41.5-17.84-62.2-26.87c-12.96-5.65-25.92-11.31-38.72-17.31c-21.63-10.14-43.14-20.54-64.7-30.85
			c-17.93-8.57-35.73-17.4-53.38-26.53C378.04,120.07,367.95,115.03,357.89,109.92z"/>
		<path class="st28" d="M1013.79,628.32c-0.56,1.09-1.18,2.69-2.12,4.08C999,651.22,986.28,670,973.6,688.8
			c-1.65,2.45-2.66,3.5-5.96,1.14c-27.01-19.33-54.51-37.97-81.38-57.48c-27.92-20.27-57.91-37.09-87.7-54.28
			c-16.93-9.77-34.03-19.23-51.12-28.71c-2.49-1.38-2.83-2.57-1.71-5.24c8.27-19.74,16.4-39.53,24.37-59.39
			c1.39-3.47,2.74-3.21,5.46-1.58c44.33,26.73,88.72,53.36,133.07,80.05c26.98,16.23,53.92,32.52,80.89,48.77
			c7.41,4.47,14.9,8.82,22.29,13.32C1012.69,625.91,1014.24,626.18,1013.79,628.32z"/>
		<path class="st29" d="M357.89,109.92c10.06,5.11,20.16,10.15,30.18,15.33c17.65,9.13,35.45,17.96,53.38,26.53
			c21.56,10.31,43.07,20.71,64.7,30.85c12.8,6,25.76,11.65,38.72,17.31c20.7,9.03,41.42,18.03,62.2,26.87
			c13.26,5.64,26.65,10.96,39.97,16.46c22.43,9.27,44.8,18.68,67.28,27.82c28.32,11.51,56.73,22.79,85.08,34.2
			c6.18,2.49,12.32,5.08,18.48,7.63c-7.18,10.91-14.77,21.54-22.77,31.88c-23.52-9.44-47.05-18.85-70.56-28.32
			c-18.4-7.41-36.8-14.82-55.14-22.37c-21.57-8.88-43.1-17.84-64.6-26.88c-22.14-9.31-44.3-18.6-66.31-28.21
			c-17.31-7.55-34.45-15.52-51.63-23.36c-21.21-9.68-42.28-19.65-63.23-29.85c-24.65-12-49.01-24.59-73.5-36.92
			c-1.28-0.65-2.61-1.21-3.91-1.82C350.11,134.68,354,122.3,357.89,109.92z"/>
		<path class="st28" d="M483.19,279.39c-0.81,1.59-1.59,3.26-2.49,4.85c-16.61,29.23-33.28,58.42-49.8,87.7
			c-1.39,2.46-2.35,2.83-4.81,1.48c-18.51-10.23-37.21-20.12-55.62-30.51c-27.4-15.45-53.96-32.3-80.85-48.6
			c-2.48-1.5-2.84-2.78-1.63-5.32c12.48-26.19,24.35-52.66,34.74-79.76c0.27-0.72,0.98-1.31,1.1-2.03c0.58-3.43,2.49-3.02,4.85-1.9
			c7.24,3.43,14.51,6.78,21.75,10.19c22.1,10.41,44.2,20.8,66.27,31.27c21.58,10.23,43.12,20.55,64.66,30.85
			C482.1,277.97,483.26,278.06,483.19,279.39z"/>
		<path class="st28" d="M259.66,613.29c0.67,2.7-0.46,3.72-3.09,4.29c-20.19,4.31-40.35,8.77-60.53,13.16
			c-19.79,4.31-39.6,8.51-59.37,12.94c-3.35,0.75-4.31,0.03-4.43-3.4c-0.55-16.44-1.39-32.87-2-49.31
			c-0.43-11.61,3.74-22.23,7.77-32.76c8.7-22.72,19.68-44.37,31.49-65.61c3.7-6.66,7.38-13.33,10.97-20.06
			c1.08-2.03,2.14-2.58,4.32-1.38c18.74,10.33,37.51,20.6,56.33,30.78c2.27,1.23,2.58,3.09,2.88,5.18
			c4.34,29.8,8.67,59.61,13.02,89.41C257.85,602.13,258.78,607.71,259.66,613.29z"/>
		<path class="st28" d="M388.03,575.51c-0.44-0.28-0.95-0.67-1.51-0.97c-44.13-24.12-88.25-48.25-132.42-72.29
			c-2.74-1.49-3.56-2.71-1.86-5.73c11.64-20.71,23.12-41.52,34.64-62.3c1.85-3.33,3.8-6.6,5.5-10c1.04-2.08,2.16-2.65,4.3-1.47
			c15.52,8.55,31.07,17.03,46.6,25.53c15.66,8.57,31.33,17.14,46.99,25.73c15.42,8.45,30.81,16.95,46.27,25.34
			c2.18,1.18,1.99,2.22,0.79,4c-11.1,16.43-22.15,32.89-33.19,49.35c-4.54,6.77-8.99,13.58-13.54,20.34
			C389.99,573.97,389.59,575.22,388.03,575.51z"/>
		<path class="st28" d="M52.01,420.11c26.62,11.8,52.77,24.78,79.22,37.12c4.88,2.28,9.58,4.96,14.58,6.91
			c3.46,1.35,2.39,2.98,1.22,5.08c-7.95,14.22-15.42,28.69-22.47,43.37c-8.88,18.49-17.05,37.26-22.37,57.16
			c-3.29,12.31-2.68,24.76-2.08,37.25c0.69,14.59,1.31,29.19,2.05,43.78c0.11,2.21-0.68,2.96-2.82,3.27
			c-14.84,2.11-29.68,4.26-44.49,6.59c-2.91,0.46-3.48-0.33-3.47-3.11c0.06-78.51,0.03-157.02,0.03-235.53
			C51.4,421.37,51.24,420.68,52.01,420.11z"/>
		<path class="st28" d="M180.54,410.06c-0.78-0.53-1.41-0.99-2.06-1.42c-19.96-12.87-39.92-25.73-59.88-38.6
			c-6.3-4.06-12.51-8.26-18.92-12.12c-2.82-1.7-2.73-2.86-0.84-5.37c23.15-30.69,46.19-61.45,69.17-92.27
			c2.11-2.83,3.47-3.76,7.04-1.48c22.67,14.48,45.54,28.66,68.42,42.82c2.57,1.59,2.75,2.82,1.38,5.49
			c-10.68,20.85-23.15,40.59-36.08,60.09c-8.63,13.01-16.72,26.37-25.03,39.58C182.9,408.11,182.17,409.47,180.54,410.06z"/>
		<path class="st28" d="M460.38,614.74c-1.18-0.55-2.53-1.08-3.78-1.76c-19.13-10.45-38.1-21.21-57.46-31.24
			c-5.04-2.61-5.04-3-2.04-7.49c24.97-37.33,49.94-74.66,74.93-111.98c4.09-6.11,8.33-12.12,12.33-18.29
			c1.34-2.07,2.53-2.49,4.74-1.28c17.85,9.77,35.73,19.48,53.66,29.12c2.39,1.28,1.53,2.6,0.62,4.13
			c-12.29,20.76-24.58,41.52-36.87,62.29c-14.58,24.65-29.15,49.32-43.75,73.96C462.19,613.14,462.04,614.52,460.38,614.74z"/>
		<path class="st28" d="M1094.17,455.71c-5.38,12.27-10.78,24.53-16.12,36.82c-1.09,2.5-2.64,1.84-4.5,1.09
			c-16.46-6.61-32.94-13.19-49.42-19.74c-31.53-12.53-63.07-25.02-94.59-37.56c-25.77-10.25-51.53-20.56-77.29-30.84
			c-13.06-5.21-26.09-10.47-39.21-15.51c-2.73-1.05-3.34-2-2.05-4.77c3.92-8.41,6.1-17.6,11.43-25.38c0.81-1.18,1.78-2.25,2.67-3.37
			c2.68,1.09,5.34,2.23,8.05,3.25c23.8,8.98,47.57,18.05,71.52,26.63c20.38,7.31,40.89,14.2,61.52,20.75
			c19.61,6.22,39.58,11.25,59.01,18.1c15.98,5.63,31.56,12.17,46.86,19.43C1079.5,448.17,1086.43,452.76,1094.17,455.71z"/>
		<path class="st28" d="M331.76,355.76c0.48,0.32,1.01,0.69,1.57,1.03c26.32,15.85,53.51,30.15,80.46,44.89
			c21.29,11.64,42.6,23.23,63.96,34.75c2.5,1.35,2.92,2.32,1.2,4.85c-11.7,17.23-23.24,34.56-34.77,51.9
			c-1.31,1.97-2.4,2.14-4.46,1.01c-18.86-10.41-37.77-20.73-56.68-31.05c-24.08-13.14-48.18-26.24-72.26-39.38
			c-3.8-2.07-7.51-4.29-11.34-6.3c-1.95-1.02-2.18-1.88-1.04-3.92c10.26-18.33,20.37-36.75,30.55-55.13
			C329.56,357.29,330.09,356,331.76,355.76z"/>
		<path class="st28" d="M1017.31,621.5c-0.63-0.35-1.34-0.7-2.02-1.1c-21.07-12.7-42.11-25.45-63.26-38.02
			c-2.21-1.32-1.3-2.45-0.79-3.82c6.62-18.02,13.24-36.04,19.89-54.06c6.55-17.73,13.19-35.43,19.6-53.22
			c1.09-3.03,2.23-3.31,5.06-2.17c25.12,10.12,50.27,20.17,75.5,30.01c2.88,1.13,2.91,2.15,1.86,4.53
			c-7.41,16.84-15.1,33.66-20.27,51.28c-5.81,19.78-16.62,36.8-26.78,54.28c-2.05,3.52-4.24,6.96-6.52,10.34
			C1019.08,620.29,1018.78,621.59,1017.31,621.5z"/>
		<path class="st29" d="M1094.17,455.71c-7.75-2.95-14.67-7.54-22.13-11.08c-15.3-7.27-30.88-13.8-46.86-19.43
			c-19.43-6.85-39.4-11.88-59.01-18.1c-20.63-6.55-41.14-13.44-61.52-20.75c-23.95-8.59-47.72-17.65-71.52-26.63
			c-2.71-1.02-5.36-2.17-8.05-3.25c7.2-10.86,14.64-21.55,22.67-31.81c4.92,1.02,9.38,3.36,14.05,5.07
			c17.1,6.27,34.17,12.63,51.26,18.94c22.63,8.36,45.49,16.08,68.55,23.13c27.21,8.31,54.78,15.51,81.03,26.75
			c16.13,6.91,32.12,14.11,47.26,23.05C1105.09,433.15,1099.71,444.47,1094.17,455.71z"/>
		<path class="st28" d="M324.97,352.91c-0.46,0.93-0.93,2.01-1.51,3.04c-14.24,25.59-28.5,51.17-42.73,76.76
			c-11.04,19.86-22.06,39.73-33.07,59.61c-2.71,4.9-2.66,4.9-7.54,2.23c-16.71-9.14-33.42-18.26-50.14-27.38
			c-5.02-2.74-5.04-2.71-2.09-7.79c12.52-21.53,25.62-42.71,38.95-63.75c10.53-16.62,22.02-32.63,31.66-49.8
			c4.24-7.55,8.37-15.17,12.41-22.83c1.21-2.29,2.26-2.94,4.7-1.42c12.9,8.06,25.89,15.97,38.85,23.92
			c2.91,1.79,5.85,3.53,8.78,5.28C324.05,351.25,324.93,351.62,324.97,352.91z"/>
		<path class="st28" d="M642.36,527.79c-0.67,1.88-1.35,3.87-2.09,5.84c-9.94,26.45-19.91,52.89-29.79,79.37
			c-1.09,2.93-2.15,3.57-5.07,1.85c-25.5-14.95-51.09-29.76-76.66-44.59c-7.15-4.15-14.26-8.39-21.53-12.34
			c-2.91-1.58-3.68-2.88-1.82-6c13.23-22.1,26.29-44.3,39.4-66.48c1.27-2.15,2.66-4.24,3.79-6.46c1.2-2.36,2.46-2.73,4.89-1.39
			c16.77,9.3,33.62,18.46,50.44,27.66c11.98,6.55,23.94,13.14,35.95,19.63C641.13,525.57,642.15,526.17,642.36,527.79z"/>
		<path class="st28" d="M705.21,562.2c-1.04,2.56-2.06,5.12-3.14,7.66c-14.23,33.64-26.67,67.97-39.37,102.19
			c-5.07,13.67-10.42,27.24-15.38,40.94c-1.14,3.14-2.31,3.05-4.79,1.68c-15.98-8.83-31.95-17.68-48.09-26.21
			c-3.83-2.03-4.56-3.97-3.02-7.93c6.92-17.9,13.57-35.89,20.32-53.85c10.13-26.94,20.27-53.88,30.41-80.83
			c1.67-4.43,3.49-8.81,4.92-13.31c0.83-2.6,1.96-2.58,4-1.46c11.03,6.1,22.09,12.14,33.14,18.21c6.44,3.53,12.87,7.09,19.33,10.58
			C704.54,560.41,705.37,560.9,705.21,562.2z"/>
		<path class="st28" d="M250.35,509.39c0.15-2.94,1.94-1.24,3.09-0.62c9.24,4.99,18.45,10.04,27.67,15.08
			c29.25,16,58.49,32,87.74,47.99c4.38,2.39,8.7,4.9,13.17,7.12c2.66,1.32,3.03,2.48,1.28,5.06c-11.59,17.05-23,34.22-34.48,51.35
			c-3.14,4.69-6.59,9.2-9.37,14.08c-1.74,3.05-3.42,3.3-6.24,1.84c-12.71-6.58-25.47-13.07-38.22-19.58
			c-8.77-4.47-17.52-8.98-26.36-13.31c-2.06-1.01-2.71-2.3-3.02-4.49c-2.64-19.02-5.42-38.02-8.2-57.01
			c-2.27-15.48-4.6-30.95-6.9-46.42C250.44,510.23,250.41,509.96,250.35,509.39z"/>
		<path class="st28" d="M501.15,561.46c1.36,0.72,2.9,1.48,4.37,2.34c32.22,18.71,64.41,37.49,96.71,56.05
			c3.69,2.12,4.34,3.81,2.75,7.84c-6.7,16.99-13.04,34.12-19.3,51.27c-1.19,3.25-2.54,3.26-5.15,1.83
			c-29.68-16.32-59.39-32.59-89.1-48.87c-7.26-3.98-14.48-8.01-21.83-11.82c-2.56-1.33-3.04-2.55-1.51-5.12
			c10.29-17.21,20.44-34.5,30.71-51.72C499.24,562.51,499.44,561.05,501.15,561.46z"/>
		<path class="st28" d="M339.83,661.53c0.85,0.38,1.95,0.83,3,1.36c19.82,10.04,39.63,20.09,59.45,30.14
			c0.7,0.36,1.39,0.76,2.09,1.11c7.61,3.86,7.69,3.9,3.44,11.11c-13.74,23.33-27.57,46.6-41.3,69.93c-1.37,2.33-2.76,2.42-5.08,1.32
			c-20.52-9.73-41.1-19.34-61.66-28.99c-3.56-1.67-7.07-3.47-10.7-4.98c-2.86-1.19-3.38-2.34-1.46-5.15
			c11.35-16.58,22.5-33.3,33.71-49.98c5.35-7.95,10.69-15.91,16.01-23.88C337.91,662.66,338.28,661.61,339.83,661.53z"/>
		<path class="st28" d="M418.15,701.15c2.21,1.08,4.23,2.03,6.21,3.04c17.34,8.81,34.63,17.7,52.04,26.37
			c2.8,1.39,3.18,2.78,2.1,5.49C468.11,762,457.79,787.99,447.53,814c-0.8,2.02-1.66,2.27-3.51,1.4
			c-23.73-11.21-47.47-22.41-71.26-33.51c-3.17-1.48-1.43-3.11-0.52-4.66c6.65-11.32,13.39-22.59,20.07-33.88
			c7.81-13.2,15.6-26.41,23.39-39.62C416.34,702.63,416.78,701.32,418.15,701.15z"/>
		<path class="st28" d="M457.35,621.01c-0.48,0.87-0.89,1.68-1.36,2.47c-11.98,20.32-23.93,40.66-35.95,60.96
			c-4.95,8.35-4.97,8.2-13.67,3.78c-20.01-10.16-40.08-20.21-60.11-30.32c-2.12-1.07-4.24-1.69-1.95-5.06
			c14.86-21.81,29.53-43.75,44.11-65.75c1.8-2.72,3.13-2.94,5.9-1.4c20.09,11.14,40.28,22.1,60.42,33.14
			C455.71,619.34,456.97,619.64,457.35,621.01z"/>
		<path class="st29" d="M1363.83,580.67c-8.42-0.26-16.65-2.02-24.88-3.51c-18.72-3.4-37.14-7.99-55.18-14.1
			c-17.28-5.86-33.78-13.49-50.03-21.68c-15.1-7.61-29.71-16.11-44.07-25.05c-0.77-0.48-1.62-0.85-2.44-1.27
			c2.31-9.78,5.79-19.19,9.2-28.61c1.04-2.87,1.09-6.22,3.62-8.47c10.33,6.16,20.59,12.47,31.02,18.47
			c21.41,12.31,43.57,23.01,66.98,31.03c13.69,4.69,27.68,8.1,41.87,10.83c4.86,6.71,8.43,14.17,12.63,21.26
			c3.55,5.98,6.89,12.09,10.27,18.17C1363.31,578.61,1363.5,579.68,1363.83,580.67z"/>
		<path class="st28" d="M551.39,770.15c-0.49,1.37-0.95,2.74-1.46,4.09c-8.27,22.01-16.61,43.99-24.73,66.05
			c-1.16,3.14-2.73,2.41-4.82,1.68c-18.26-6.31-36.52-12.6-54.79-18.89c-3.34-1.15-6.62-2.53-10.03-3.42c-2.9-0.76-3-2.04-2-4.53
			c6.17-15.35,12.2-30.77,18.29-46.15c4.01-10.14,8.11-20.25,12.06-30.41c0.98-2.53,2.05-3.12,4.67-1.78
			c20.22,10.34,40.51,20.55,60.79,30.78C550.51,768.15,551.44,768.73,551.39,770.15z"/>
		<path class="st28" d="M93.63,361.24c0.85,0.48,1.68,0.88,2.45,1.38c26.34,17.04,52.65,34.12,79.04,51.07
			c2.79,1.79,2.53,3.17,1.05,5.65c-7.42,12.39-14.72,24.84-21.91,37.36c-1.55,2.69-2.9,3.31-5.88,1.89
			c-30.45-14.55-60.95-28.99-91.5-43.32c-3.17-1.49-2.98-2.54-1.07-5.06c11.81-15.57,23.46-31.26,35.16-46.91
			C91.67,362.37,92.25,361.31,93.63,361.24z"/>
		<path class="st28" d="M581.89,688.88c-1.16,3.2-2.11,5.93-3.13,8.63c-7.84,20.76-15.76,41.5-23.48,62.31
			c-1.03,2.77-2.08,3.08-4.53,1.83c-20.23-10.35-40.46-20.7-60.8-30.82c-3.28-1.63-1.58-3.45-0.94-5.1
			c5.11-13.09,10.35-26.12,15.56-39.17c3.99-10,8.09-19.95,11.95-30c0.99-2.58,2.03-2.84,4.32-1.58
			c19.55,10.74,39.16,21.4,58.71,32.14C580.45,687.6,581.97,687.75,581.89,688.88z"/>
		<path class="st28" d="M1109.9,421.58c-15.14-8.94-31.12-16.14-47.26-23.05c-26.25-11.24-53.82-18.43-81.03-26.75
			c-23.07-7.05-45.92-14.77-68.55-23.13c-17.09-6.31-34.15-12.67-51.26-18.94c-4.67-1.71-9.13-4.04-14.05-5.07
			c4.68-7.75,10.49-14.71,15.56-22.18c1.65-2.43,3.53-1.03,5.22-0.31c11.97,5.07,23.9,10.21,35.84,15.33
			c33.67,14.43,67.35,28.83,101,43.32c35.6,15.33,71.15,30.78,106.79,46.04c3.3,1.42,4.25,2.79,2.28,6
			C1112.73,415.63,1111.4,418.65,1109.9,421.58z"/>
		<path class="st28" d="M870.96,659.3c2.48,1.57,5.2,3.14,7.76,4.95c16.48,11.67,32.93,23.39,49.38,35.1
			c7.58,5.39,15.13,10.82,22.74,16.16c1.67,1.17,2.35,2.06,0.84,4.04c-7.78,10.22-15.47,20.51-23.05,30.87
			c-1.36,1.86-2.35,2.12-4.44,1.15c-28.11-13.03-56.25-25.99-84.43-38.85c-3.15-1.44-1.24-2.87-0.41-4.23
			c8.37-13.63,16.81-27.23,25.23-40.83c1.45-2.34,2.89-4.69,4.34-7.03C869.34,659.95,869.77,659.25,870.96,659.3z"/>
		<path class="st28" d="M464.24,624.06c0.54,0.29,1.24,0.65,1.93,1.03c14.64,7.96,29.28,15.92,43.92,23.87
			c1.63,0.88,2.39,1.6,1.48,3.85c-9.49,23.49-18.83,47.03-28.08,70.61c-0.95,2.43-1.82,3.04-4.24,1.81
			c-18.84-9.6-37.71-19.14-56.62-28.59c-2.62-1.31-1.27-2.59-0.46-3.96c8.17-13.78,16.38-27.54,24.55-41.32
			c4.89-8.24,9.73-16.52,14.6-24.78C461.98,625.47,462.39,624.09,464.24,624.06z"/>
		<path class="st28" d="M1018.44,764.8c-0.61,0.69-1.26,1.47-1.95,2.22c-17.79,19.33-35.58,38.66-53.37,57.98
			c-1.33,1.44-2.92,2.72-3.94,4.36c-2.53,4.05-5.33,4.06-9.5,2.14c-12.16-5.58-24.54-10.68-36.85-15.93
			c-4.07-1.74-4.03-1.65-0.78-5.02c9.68-10.02,20.24-19.2,29.13-29.97c11.6-14.06,22.49-28.67,33.11-43.47
			c1.76-2.45,2.97-2.87,5.56-0.97c11.83,8.71,23.82,17.19,35.73,25.8C1016.6,762.67,1017.94,763.16,1018.44,764.8z"/>
		<path class="st28" d="M922.07,758.6c-1.62,2.05-3.14,4.38-5.05,6.34c-6.4,6.58-12.95,13-19.39,19.54
			c-1.86,1.89-3.68,2.2-6.33,1.48c-27.42-7.41-54.87-14.68-82.34-21.89c-2.32-0.61-3.35-1.08-1.79-3.57
			c8.42-13.5,16.81-27.02,25.06-40.64c1.55-2.55,3.02-2.57,5.43-1.45c19.08,8.85,38.19,17.6,57.3,26.39
			c8.24,3.79,16.49,7.57,24.72,11.39C920.68,756.66,922.09,756.81,922.07,758.6z"/>
		<path class="st28" d="M259.26,276.74c-0.78-0.44-1.72-0.92-2.6-1.47c-21.22-13.29-42.43-26.61-63.68-39.86
			c-2.24-1.4-2.76-2.44-1.04-4.84c8.28-11.5,16.47-23.07,24.43-34.79c1.77-2.6,2.93-2.52,5.22-0.93
			c15.76,10.93,31.58,21.75,47.39,32.61c2.59,1.78,5.05,3.81,7.79,5.32c2.46,1.35,2.55,2.94,1.54,5.15
			c-5.59,12.29-11.15,24.6-16.74,36.9C261.15,275.75,260.83,276.85,259.26,276.74z"/>
		<path class="st28" d="M283.14,732.77c-5.34-36.44-10.53-71.84-15.85-108.15c7.59,3.79,14.36,7.13,21.1,10.55
			c13.95,7.07,27.85,14.23,41.84,21.2c2.55,1.27,3.28,2.18,1.48,4.83c-15.46,22.81-30.78,45.71-46.16,68.57
			C285.06,730.51,284.44,731.16,283.14,732.77z"/>
		<path class="st29" d="M1135.42,436.42c8.79,5.46,17.62,10.84,26.35,16.41c9.28,5.92,18.45,12.01,27.66,18.02
			c-2.83,8.44-5.64,16.89-8.48,25.33c-1.34,3.97-2.72,7.93-4.09,11.88c-11.3-7.28-22.6-14.53-33.88-21.83
			c-7.88-5.1-15.72-10.26-23.58-15.4c2.93-8.14,7.05-15.75,10.66-23.58C1131.75,443.6,1133,439.71,1135.42,436.42z"/>
		<path class="st28" d="M1119.4,470.83c7.86,5.14,15.7,10.3,23.58,15.4c11.28,7.3,22.59,14.55,33.88,21.83
			c-2.26,7.93-4.51,15.86-6.82,23.95c-4.21-1.55-7.34-4.43-10.8-6.74c-15.83-10.53-31.62-21.12-47.44-31.66
			c-1.55-1.04-2.15-2.18-1.31-3.96C1113.48,483.39,1116.43,477.1,1119.4,470.83z"/>
		<path d="M1170.94,570.4c-1.47,6.11-3.05,12.19-4.36,18.33c-0.57,2.69-2.22,2.29-3.79,1.62c-1.71-0.73-5.21,0.36-4.35-3.47
			c1.38-6.13,2.77-12.27,4.45-18.32c1.09-3.94,3.86-0.74,5.82-0.91C1170.48,567.5,1171.42,568.47,1170.94,570.4z"/>
		<path d="M1087.25,780.83c-0.37,0.69-0.66,1.28-0.99,1.85c-3.02,5.08-6.15,10.11-9.03,15.26c-1.74,3.12-3.48,1.24-5.14,0.23
			c-1.62-0.99-4.14-1.51-2.14-4.59c3.28-5.07,6.19-10.37,9.25-15.58c0.63-1.07,1.3-2.27,2.71-1.23
			C1083.68,778.08,1086.48,778.15,1087.25,780.83z"/>
		<path d="M1159.68,614.67c-1.96,6.2-3.72,12.53-6,18.67c-1.19,3.21-3.53,0.43-5.3,0.16c-1.48-0.22-3.25-0.53-2.44-2.99
			c1.95-5.98,3.84-11.99,5.63-18.02c0.55-1.85,1.5-2.42,3.1-1.48C1156.41,612.02,1159.85,610.79,1159.68,614.67z"/>
		<path d="M1187.48,502.97c-1.5-0.46-2.99-0.95-4.5-1.38c-1.68-0.48-1.79-1.4-1.25-2.96c2.03-5.8,3.96-11.64,5.83-17.5
			c1.16-3.64,3.41-1.69,5.31-1.09c1.74,0.55,3.98,0.64,2.77,3.79c-2.16,5.61-3.94,11.37-5.89,17.07
			C1189.39,501.97,1189.25,503.37,1187.48,502.97z"/>
		<path d="M1145.74,656.82c-1.35,3.59-2.53,6.77-3.75,9.94c-0.89,2.32-1.78,4.64-2.73,6.93c-1.63,3.94-5.25,4.6-8.45,1.68
			c-0.96-0.88-0.49-1.61-0.17-2.44c2.25-5.85,4.52-11.69,6.73-17.55c0.58-1.53,1.55-2.17,3.01-1.42
			C1142.2,654.89,1144.76,654.7,1145.74,656.82z"/>
		<path d="M1182.15,525.3c-1.42,5.32-2.74,10.25-4.06,15.18c-0.2,0.76-0.42,1.51-0.62,2.27c-0.95,3.51-5.56,4.89-8.21,2.44
			c-0.76-0.7-0.8-1.59-0.53-2.54c1.74-6.15,3.53-12.28,5.18-18.45c0.47-1.77,1.53-2.12,2.9-1.48
			C1178.65,523.58,1181.36,522.95,1182.15,525.3z"/>
		<path d="M1128.61,699.17c-0.38,0.96-0.6,1.57-0.87,2.17c-2.52,5.49-5.2,10.9-7.51,16.48c-1.27,3.08-3,1.32-4.31,0.62
			c-1.52-0.82-4.82-0.62-3.27-4.04c2.59-5.74,5.22-11.46,7.78-17.22c0.59-1.33,1.35-1.93,2.72-1.15
			C1124.98,697.05,1127.45,697.12,1128.61,699.17z"/>
		<path d="M1108.78,740.21c-0.23,0.85-0.27,1.26-0.44,1.6c-2.95,5.7-5.77,11.48-8.93,17.06c-1.77,3.12-3.55-0.06-5.26-0.54
			c-1.56-0.44-3.09-1.22-1.98-3.37c2.96-5.69,5.92-11.39,8.9-17.07c0.53-1.01,1.26-1.72,2.52-1.05
			C1105.48,737.85,1107.54,738.63,1108.78,740.21z"/>
	</g>
	<rect x="137.72" class="st32" width="902.25" height="854.25"/>
</g>
<g id="A_treviso">
	<g id="efeito_rolagem">
	</g>
</g>
<g id="coleções">
</g>
<g id="Banners">
	<g id="banner_1">
	</g>
</g>
<g id="barra_menu_1_">
</g>
<g id="stuffs">
</g>
</svg>
