<?xml version="1.0" standalone="no"?>
<svg viewBox="0 0 96.82 113.24" width="21" height="24" xmlns="http://www.w3.org/2000/svg">
	<path fill="currentColor" d="M43.38,110.11c-3.29-0.75-6.65-1.28-9.86-2.29c-19.81-6.24-32.3-24.96-31.06-46.36
			c1.13-19.53,16.41-36.8,36-40.64c2.29-0.45,4.61-0.68,7.3-1.07c-0.66-0.35-0.99-0.53-1.32-0.69c-3.52-1.69-5.54-4.65-5.21-8
			c0.36-3.72,2.26-6.32,5.96-7.44c0.21-0.06,0.38-0.25,0.57-0.38c1.11,0,2.22,0,3.32,0c2.36,0.97,4.52,2.17,5.69,4.63
			c1.86,3.9,0.44,8.53-3.33,10.67c-0.66,0.38-1.36,0.69-1.99,1c3.94,0.85,7.93,1.38,11.7,2.59c20.38,6.56,33.06,25.62,31.07,47.41
			c-1.84,20.15-17.13,36.55-37.8,40.01c-0.99,0.17-1.98,0.37-2.97,0.56C48.77,110.11,46.07,110.11,43.38,110.11z M89.2,65.34
			c-0.32-24.1-19.04-42.6-42.91-42.09C24.12,23.72,5.77,41.68,5.64,64.17c-0.15,24.61,18.73,42.92,43.07,42.6
			C70.54,106.48,89.49,87.1,89.2,65.34z M45.07,15.61c0.87-0.92,1.58-1.68,2.29-2.44c0.77,0.76,1.55,1.52,2.42,2.38
			c2.01-1.11,2.97-2.98,2.4-5.16c-0.57-2.19-2.43-3.73-4.59-3.8c-2.24-0.08-4.3,1.47-4.92,3.7C42.08,12.38,43.03,14.35,45.07,15.61z
			" />
	<path fill="currentColor" d="M49.09,32.59c0,1.62,0.2,3.14-0.08,4.57c-0.15,0.78-1.1,1.41-1.69,2.11c-0.52-0.69-1.37-1.32-1.5-2.08
			c-0.24-1.45-0.07-2.96-0.07-4.44c-13.59-0.33-30.15,11.9-30.7,30.61c1.55,0,3.13-0.17,4.65,0.07c0.7,0.11,1.27,1.02,1.9,1.57
			c-0.65,0.52-1.24,1.37-1.95,1.49c-1.45,0.23-2.97,0.07-4.46,0.07C14.95,82.5,29.47,97.04,45.75,97.35c0-1.45-0.18-2.94,0.07-4.35
			c0.15-0.83,0.98-1.53,1.51-2.29c0.59,0.78,1.51,1.49,1.69,2.35c0.29,1.34,0.08,2.79,0.08,4.19c14.44,0.13,30.24-12.78,30.67-30.68
			c-1.09,0-2.17,0.07-3.25-0.02c-1.28-0.11-3.28,0.63-3.21-1.64c0.07-2.19,2.05-1.43,3.34-1.56c1.01-0.1,2.03-0.02,3.25-0.02
			c-0.19-4.53-1.31-8.58-3.13-12.47c-0.23-0.5-0.68-0.99-0.69-1.49c-0.02-0.82,0.24-1.65,0.39-2.47c0.83,0.32,2.18,0.44,2.41,1
			c1.44,3.57,3.15,7.14,3.81,10.89c3.36,19-8.45,36.59-27.29,41.1c-20.35,4.87-40.83-9.29-43.44-30.03
			c-2.52-20.02,10.67-37.55,30.6-40.4c7.62-1.09,14.96,0.2,21.79,3.88c1.12,0.6,2.54,1.24,1.77,2.82c-0.81,1.66-2.16,0.75-3.25,0.17
			C58.63,34.09,54.19,32.67,49.09,32.59z" />
	<path fill="currentColor" d="M69.44,44.83c-0.17,0.41-0.38,0.92-0.61,1.42c-4.17,8.85-8.31,17.7-12.57,26.51
			c-0.46,0.96-1.44,1.9-2.41,2.34c-8.31,3.82-16.66,7.56-25.04,11.23c-0.82,0.36-1.9,0.14-2.86,0.19c0.04-1.01-0.21-2.14,0.17-3
			c3.6-8.23,7.26-16.45,11.04-24.6c0.54-1.17,1.63-2.37,2.77-2.93c8.65-4.22,17.37-8.28,26.07-12.37
			C68.02,42.67,69.47,43.16,69.44,44.83z M30.33,82.09c7.97-3.57,15.26-6.84,22.24-9.97c-4.13-4.14-8.16-8.18-12.27-12.3
			C37.13,66.91,33.86,74.2,30.33,82.09z" />
</svg>