<?xml version="1.0" standalone="no"?>
<svg width="24" height="24" viewBox="0 0 29.76 29.98" xmlns="http://www.w3.org/2000/svg">
	<path fill="currentColor"
		d="M28.21,0.17c-8.89,0-17.77,0-26.66,0C0.5,0.34,0.26,1.19,0,2.03c0,8.69,0,17.37,0,26.06
		c0.23,1.01,0.85,1.63,1.86,1.86c8.68,0,17.36,0,26.04,0c0.83-0.26,1.69-0.5,1.86-1.55c0-8.89,0-17.78,0-26.68
		C29.56,0.88,29.05,0.36,28.21,0.17z M24.23,5.3c0.01,2.26,0.01,2.26-2.19,2.31c-1.92,0.04-2.85,1.45-2.19,3.27
		c0.11,0.3,0.27,0.4,0.55,0.39c0.31,0,0.62,0,0.93,0c2.81,0.01,2.73,0,2.31,2.74c-0.17,1.1-0.77,0.98-1.49,0.99
		c-2.31,0.01-2.31,0.02-2.31,2.34c0,2.48-0.05,4.96,0.02,7.44c0.03,0.98-0.2,1.33-1.25,1.31c-2.49-0.05-2.49,0.01-2.49-2.53
		c0-0.98,0-1.96,0-2.94c0-1.5-0.05-3,0.02-4.49c0.05-0.9-0.26-1.23-1.12-1.07c-1.03,0.19-1.24-0.33-1.14-1.21
		c0.05-0.46,0.06-0.94,0-1.39c-0.13-0.95,0.2-1.35,1.17-1.18c0.94,0.17,1.11-0.31,1.08-1.14c-0.05-1.18-0.02-2.37,0.27-3.54
		c0.36-1.46,1.27-2.42,2.73-2.59c1.48-0.18,2.99-0.08,4.48-0.13c0.47-0.01,0.65,0.19,0.61,0.64C24.21,4.78,24.23,5.04,24.23,5.3z" />
</svg>