<?xml version="1.0" standalone="no"?>
<svg viewBox="0 0 144 117.9" width="29" height="24" xmlns="http://www.w3.org/2000/svg">
	<path fill="currentColor" d="M21.11,53.09c5.85-2.05,11.62-4.07,17.44-6.11c-0.17-0.51-0.3-0.91-0.44-1.32c-0.79-2.3-0.2-3.54,2.08-4.35
			c4.42-1.56,8.85-3.1,13.27-4.65c2.04-0.72,4.09-1.43,6.24-2.19c-0.2-0.63-0.38-1.19-0.55-1.75c-0.56-1.88,0.1-3.18,2.03-3.85
			c5.28-1.86,10.57-3.69,15.86-5.54c5.77-2.02,11.55-4.04,17.47-6.11c-0.2-0.62-0.39-1.18-0.55-1.74c-0.53-1.77,0.07-3.17,1.78-3.78
			c5.97-2.13,11.95-4.23,17.94-6.29c1.72-0.59,3.05,0.13,3.73,1.86c0.24,0.6,0.45,1.22,0.71,1.92c5.26-0.79,10.14,0.08,14.4,3.4
			c2.98,2.32,4.91,5.38,5.89,9c1.94,7.16-0.71,15.26-9.01,19.83c0.2,0.62,0.42,1.26,0.62,1.91c0.51,1.71-0.07,3.11-1.71,3.7
			c-6.05,2.15-12.12,4.26-18.2,6.34c-1.45,0.5-2.79-0.17-3.42-1.58c-0.26-0.59-0.46-1.21-0.74-1.95c-0.73,0.23-1.43,0.43-2.11,0.67
			c-10.25,3.58-20.49,7.16-30.73,10.74c-2.73,0.95-3.82,0.44-4.8-2.24c-0.12-0.32-0.26-0.63-0.42-1.04
			c-3.78,1.32-7.49,2.62-11.22,3.92c-2.66,0.93-5.33,1.85-7.99,2.78c-2.62,0.92-3.74,0.39-4.68-2.23c-0.12-0.32-0.26-0.63-0.44-1.07
			c-5.8,2.03-11.56,4.04-17.4,6.08c0.24,0.77,0.47,1.42,0.64,2.08c0.37,1.51-0.25,2.84-1.71,3.37c-3.06,1.12-6.13,2.19-9.23,3.21
			c-1.63,0.54-2.93-0.25-3.59-2.11c-1.87-5.28-3.71-10.57-5.55-15.86c-1.44-4.15-1.15-4.72,2.98-6.16c2.13-0.74,4.25-1.52,6.39-2.25
			c2.51-0.86,3.68-0.29,4.6,2.22C20.81,52.28,20.93,52.6,21.11,53.09z M104.07,44.52c-2.59-7.4-5.14-14.69-7.72-22.06
			c-10.42,3.64-20.71,7.25-31.06,10.86c2.6,7.44,5.14,14.69,7.71,22.04C83.35,51.76,93.63,48.17,104.07,44.52z M123.89,42.7
			c-3.64-10.42-7.25-20.74-10.88-31.15c-4.36,1.53-8.6,3.01-12.91,4.52c3.64,10.4,7.24,20.71,10.9,31.15
			C115.29,45.7,119.53,44.22,123.89,42.7z M61.45,39.77c-5.78,2.02-11.53,4.04-17.34,6.07c1.53,4.39,3.01,8.62,4.52,12.95
			c5.84-2.04,11.59-4.05,17.41-6.09c-1.48-4.25-2.89-8.33-4.32-12.4C61.68,40.13,61.58,39.99,61.45,39.77z M127.43,35.92
			c5.28-2.57,7.43-9.38,4.84-14.92c-2.14-4.58-8.58-7.85-12.21-6.17C122.5,21.82,124.95,28.82,127.43,35.92z M41.73,56.1
			c-0.48-1.35-0.92-2.56-1.37-3.84c-5.83,2.04-11.55,4.04-17.38,6.08c0.46,1.33,0.88,2.54,1.33,3.83
			C30.13,60.15,35.85,58.15,41.73,56.1z M16.03,55.66c-1.32,0.47-2.53,0.9-3.81,1.36c1.53,4.37,3.02,8.6,4.53,12.92
			c1.37-0.49,2.57-0.92,3.79-1.35C19.02,64.21,17.55,60.01,16.03,55.66z" />
	<path fill="currentColor" d="M73.65,69.34c-1.29,0.44-2.3,0.79-3.32,1.12c-1.77,0.56-3.32-0.13-3.81-1.7c-0.48-1.5,0.3-2.97,2-3.57
			c7.41-2.61,14.82-5.2,22.24-7.77c1.7-0.59,3.2,0.08,3.76,1.59c0.57,1.52-0.22,3.06-1.96,3.69c-2.53,0.91-5.07,1.77-7.75,2.71
			c1.54,2.4,3.02,4.68,4.49,6.97c7.31,11.31,14.62,22.63,21.93,33.94c0.19,0.29,0.39,0.58,0.55,0.89c0.74,1.41,0.34,2.99-0.94,3.77
			c-1.22,0.75-2.83,0.47-3.69-0.8c-1.52-2.22-2.95-4.51-4.42-6.77C95.59,92.34,88.45,81.28,81.3,70.23
			c-0.21-0.32-0.44-0.62-0.78-1.09c-1.43,2.21-2.79,4.3-4.15,6.4c-7.31,11.31-14.61,22.63-21.96,33.92
			c-0.45,0.69-1.12,1.39-1.86,1.71c-1.11,0.49-2.25,0.16-3.03-0.84c-0.81-1.04-0.83-2.18-0.13-3.28c1.89-2.97,3.81-5.92,5.72-8.87
			c5.94-9.2,11.89-18.39,17.83-27.59C73.14,70.28,73.31,69.95,73.65,69.34z" />
</svg>