<svg viewBox="0 0 77.1 57" xmlns="http://www.w3.org/2000/svg">
	<path
		d="M38.7,57c-10.9,0-21.9,0-32.8,0c-3.4,0-5.6-2.2-5.6-5.6c0-15.3,0-30.6,0-45.9c0-3.4,2.2-5.6,5.6-5.6 c21.9,0,43.8,0,65.7,0c3.4,0,5.6,2.2,5.6,5.6c0,15.3,0,30.7,0,46c0,3.4-2.3,5.6-5.6,5.6C60.6,57,49.6,57,38.7,57z M4.2,4.3 C4.6,4.6,4.7,4.8,4.9,5c9.8,8.1,19.7,16.3,29.5,24.4c2.6,2.1,6,2.1,8.6,0c9.2-7.6,18.4-15.2,27.5-22.8c0.8-0.7,1.7-1.4,2.5-2.1 c-0.4-0.7-1-0.6-1.6-0.6c-21.8,0-43.6,0-65.4,0c-0.2,0-0.4,0-0.6,0C5,4,4.7,4.1,4.2,4.3z M7.8,53.1c20.7,0,41.1,0,61.6,0 c-0.1-0.1-0.1-0.2-0.2-0.2C60.8,46.6,52.4,40.3,44,34c-0.4-0.3-0.6-0.2-1,0c-2.9,1.3-5.7,1.3-8.6,0c-0.5-0.2-0.8-0.1-1.1,0.2 c-6.8,5.1-13.6,10.1-20.4,15.2C11.3,50.5,9.6,51.8,7.8,53.1z M73.2,50.9c0-13.9,0-27.7,0-41.5C64.4,16.7,55.6,24,46.8,31.2 C55.7,37.8,64.4,44.3,73.2,50.9z M30.6,31.2C21.7,23.9,13,16.7,4.2,9.4c0,13.9,0,27.7,0,41.5C13,44.3,21.7,37.8,30.6,31.2z" />
</svg>