<svg viewBox="0 0 84.6 84.7" xmlns="http://www.w3.org/2000/svg" >
	<path id="face_1_" d="M80.2,0C54.9,0,29.7,0,4.4,0C1.4,0.5,0.7,2.9,0,5.3C0,30,0,54.7,0,79.4c0.7,2.9,2.4,4.6,5.3,5.3
	 c24.7,0,49.4,0,74,0c2.4-0.7,4.8-1.4,5.3-4.4c0-25.3,0-50.6,0-75.9C84.1,2,82.6,0.6,80.2,0z M68.9,14.6c0,6.4,0,6.4-6.2,6.6
	 c-5.5,0.1-8.1,4.1-6.2,9.3c0.3,0.9,0.8,1.1,1.6,1.1c0.9,0,1.8,0,2.6,0c8,0,7.8,0,6.6,7.8c-0.5,3.1-2.2,2.8-4.2,2.8
	 c-6.6,0-6.6,0.1-6.6,6.7c0,7.1-0.1,14.1,0.1,21.1c0.1,2.8-0.6,3.8-3.6,3.7c-7.1-0.1-7.1,0-7.1-7.2c0-2.8,0-5.6,0-8.4
	 c0-4.3-0.2-8.5,0.1-12.8c0.1-2.6-0.7-3.5-3.2-3c-2.9,0.6-3.5-0.9-3.2-3.4c0.2-1.3,0.2-2.7,0-4c-0.4-2.7,0.6-3.9,3.3-3.3
	 c2.7,0.5,3.2-0.9,3.1-3.2c-0.2-3.4,0-6.7,0.8-10.1c1-4.2,3.6-6.9,7.8-7.4c4.2-0.5,8.5-0.2,12.7-0.4c1.3,0,1.8,0.5,1.7,1.8
	 C68.9,13.1,68.9,13.9,68.9,14.6z" />
</svg>