<?xml version="1.0" encoding="utf-8"?>
<!-- Generator: Adobe Illustrator 24.2.0, SVG Export Plug-In . SVG Version: 6.00 Build 0)  -->
<svg version="1.1" xmlns="http://www.w3.org/2000/svg" xmlns:xlink="http://www.w3.org/1999/xlink" x="0px" y="0px"
	 viewBox="0 0 84.9 85.2" style="enable-background:new 0 0 84.9 85.2;" xml:space="preserve">
<style type="text/css">
	.st0{fill:#FFFFFF;}
	.st1{opacity:0.1;}
	.st2{clip-path:url(#SVGID_2_);}
	.st3{clip-path:url(#SVGID_4_);}
	.st4{filter:url(#Adobe_OpacityMaskFilter);}
	.st5{clip-path:url(#SVGID_6_);}
	.st6{opacity:5.000000e-02;}
	.st7{clip-path:url(#SVGID_11_);}
	.st8{clip-path:url(#SVGID_13_);}
	.st9{opacity:0.66;fill:url(#SVGID_16_);}
	.st10{display:none;}
	.st11{display:inline;}
	.st12{display:inline;clip-path:url(#SVGID_18_);}
	.st13{fill:#EBF9FB;}
	.st14{fill:#3B3D40;}
	.st15{fill:#8D9298;}
	.st16{display:inline;fill:#FFFFFF;}
	.st17{display:inline;fill:#FBB032;}
	.st18{fill:none;stroke:#000000;stroke-miterlimit:10;}
	.st19{clip-path:url(#SVGID_20_);}
	.st20{fill:url(#SVGID_21_);}
	.st21{opacity:0.19;fill:#FFFFFF;stroke:#FFFFFF;stroke-width:2;stroke-miterlimit:10;}
	.st22{fill:none;stroke:#FFFFFF;stroke-width:2;stroke-miterlimit:10;}
	.st23{display:inline;fill:url(#SVGID_22_);}
	.st24{fill:#005CAB;}
	.st25{clip-path:url(#SVGID_24_);}
	.st26{clip-path:url(#SVGID_32_);}
	.st27{opacity:0.82;fill:#2A224C;}
	.st28{clip-path:url(#SVGID_34_);}
	.st29{clip-path:url(#SVGID_36_);}
	.st30{fill:#757575;}
	.st31{display:inline;opacity:0.3;}
	.st32{clip-path:url(#SVGID_38_);}
	.st33{fill:none;stroke:#FFFFFF;stroke-width:3;stroke-miterlimit:10;}
	.st34{fill:#009BD5;}
	.st35{fill:url(#SVGID_39_);}
	.st36{clip-path:url(#SVGID_41_);}
	.st37{opacity:0.47;}
	.st38{fill:url(#SVGID_42_);}
	.st39{fill:url(#SVGID_43_);}
	.st40{fill:none;stroke:url(#SVGID_44_);stroke-width:7;stroke-miterlimit:10;stroke-dasharray:12.0209,12.0209;}
	.st41{fill:#392862;}
	.st42{display:none;fill:#44FAB5;}
	.st43{display:inline;fill:none;stroke:#FFFFFF;stroke-miterlimit:10;}
	.st44{fill:none;stroke:#FFFFFF;stroke-miterlimit:10;}
	.st45{display:none;opacity:0.5;}
	.st46{opacity:0.56;}
	.st47{fill:none;stroke:#FFFFFF;stroke-width:4;stroke-linecap:round;stroke-linejoin:round;stroke-miterlimit:10;}
	.st48{display:none;fill:none;stroke:#00AEEE;stroke-miterlimit:10;}
	.st49{fill:none;stroke:#FFFFFF;stroke-width:4;stroke-miterlimit:10;}
	.st50{display:none;fill:none;stroke:#3B3D40;stroke-width:4;stroke-miterlimit:10;}
	.st51{fill:none;stroke:#3B3D40;stroke-width:4;stroke-miterlimit:10;}
	.st52{fill:#2A224C;}
	.st53{fill:#028FBA;}
	.st54{fill:#493782;}
	.st55{fill:#03B2E8;}
	.st56{fill:#51459B;}
	.st57{fill:#00CFFF;}
</style>
<g id="Camada_9">
</g>
<g id="Camada_14">
</g>
<g id="Rodapé">
</g>
<g id="newsletter_1_">
</g>
<g id="faça_sua_cotaçao" class="st10">
</g>
<g id="Somos_representantes">
</g>
<g id="Consumiveis_hosp">
</g>
<g id="BW_hospitalar">
</g>
<g id="qualidade_dos_equi">
</g>
<g id="Banners">
</g>
<g id="menu">
	<g id="Background">
	</g>
	<g id="barra_menu_1_">
		<path d="M84.9,6.4c0,24.2,0,48.5,0,72.7c-0.8,3.9-5.3,6.2-9.1,6.2c-22.3-0.1-44.5-0.1-66.8,0c-1.9,0-3.5-0.5-5-1.5
			C1.5,82.1,0,79.9,0,76.9C0,54.1,0,31.3,0,8.6C0,6,1,3.7,2.9,2c1-0.9,2.3-1.3,3.4-2c24.1,0,48.3,0,72.4,0C81.7,1.3,84.2,3,84.9,6.4
			z M79.8,42.7c0-11.4,0-22.8,0-34.3c0-2.4-0.9-3.3-3.3-3.3c-22.7,0-45.4,0-68.2,0C6.8,5.1,6.1,5.6,5.6,7C5.3,7.8,5.1,8.7,5.1,9.5
			c0,22.1,0,44.1,0,66.2c0,3.1,1.4,4.5,4.4,4.5c21.9,0,43.9,0,65.8,0c0.4,0,0.7,0,1.1,0c2.4-0.2,3.3-1.2,3.3-3.5
			C79.8,65.3,79.8,54,79.8,42.7z"/>
		<path d="M48.5,56.5c0-3.8,0-7.5,0-11.3c0-2.1-0.7-2.6-2.8-2.4c-0.4,0-0.9,0.1-1.3,0.1c-1.1,0-1.7-0.6-1.8-1.6
			c-0.1-2.2-0.2-4.5-0.1-6.7c0-1.4,0.9-2,2.4-1.9c3.4,0.2,3.4,0.2,3.7-3.2c0.2-2.8,0.2-5.6,0.6-8.4c0.8-5.1,3.6-7.5,8.7-7.8
			c3.5-0.2,7-0.2,10.5-0.3c1.4,0,1.8,0.4,1.8,1.7c0,1.9-0.1,3.8-0.2,5.7c-0.1,1.6-0.6,2.2-2.3,2.3c-1.4,0.1-2.8,0.2-4.1,0.3
			c-4.4,0.4-6.7,3.7-5.4,7.9c0.4,1.3,1.2,1.8,2.4,1.8c1.5,0,3.1,0,4.6,0.1c0.6,0,1.3,0.1,1.9,0.2c1.4,0.2,2,0.7,1.9,2.2
			c-0.1,1.9-0.3,3.8-0.7,5.7c-0.2,1.3-1.1,1.8-2.7,1.9c-1.3,0.1-2.7,0-4,0.1c-2.5,0.1-3.1,0.7-3.1,3.2c-0.1,7.4,0,14.8,0,22.1
			c0,3.9-0.2,4.2-4.1,4.1c-1.1,0-2.3-0.1-3.4-0.2c-1.5-0.1-2.2-0.7-2.2-2.2c-0.1-4.5,0-9,0-13.4C48.6,56.5,48.6,56.5,48.5,56.5z"/>
	</g>
	<g id="cabeçario">
	</g>
</g>
<g id="stuffs">
</g>
</svg>
