<svg viewBox="0 0 84.6 84.8" xmlns="http://www.w3.org/2000/svg">
	<path d="M0,60.3c0-11.9,0-23.8,0-35.8c0.1-0.3,0.1-0.5,0.2-0.8C1.1,13.4,8.8,4,18.7,1.2c1.9-0.5,3.8-0.8,5.7-1.2
	 c11.9,0,23.8,0,35.7,0c1.6,0.3,3.3,0.5,4.9,0.9c11.7,3.2,19.5,13.5,19.5,25.7c0,10.5,0,21,0,31.5c0,0.9-0.1,1.7-0.1,2.6
	 c-0.9,10.9-8.7,20.2-19.2,23c-1.7,0.5-3.4,0.7-5.2,1c-11.9,0-23.8,0-35.7,0c-0.2,0-0.4-0.1-0.6-0.1C12.9,83.5,3.9,76,1,65.4
	 C0.5,63.7,0.3,62,0,60.3z M7.9,42.3c0,5.2,0,10.5,0,15.7c0,1,0,2.1,0.2,3.1c1.6,9.2,9.2,15.6,18.5,15.7c10.4,0,20.9,0,31.3,0
	 c1,0,2-0.1,3-0.2c9.2-1.6,15.6-9.2,15.7-18.5c0-10.5,0-20.9,0-31.4c0-1,0-2-0.2-3C74.9,14.4,67.3,8,58,8c-10.5,0-20.9,0-31.4,0
	 c-1,0-2,0.1-3,0.2C14.3,9.8,7.9,17.4,7.9,26.8C7.9,32,7.9,37.1,7.9,42.3z" />
	<path
		d="M21.2,42.3c0-11.7,9.5-21.2,21.2-21.1c11.7,0,21.1,9.6,21.1,21.2c0,11.7-9.6,21.2-21.2,21.1C30.6,63.5,21.1,54,21.2,42.3
	 z M42.3,29.1c-7.3,0-13.2,5.9-13.3,13.2c0,7.3,5.9,13.3,13.2,13.3c7.3,0,13.2-5.9,13.3-13.2C55.5,35.1,49.6,29.2,42.3,29.1z" />
	<path
		d="M65,22.4c-1.6,0-2.8-1.3-2.8-2.8c0-1.5,1.2-2.8,2.8-2.8c1.5,0,2.8,1.3,2.9,2.8C67.9,21.1,66.6,22.4,65,22.4z" />
</svg>