<svg viewBox="0 0 53.1 85" xmlns="http://www.w3.org/2000/svg">
	<path
		d="M-0.5,27.8c0-1.1,0-2.2,0-3.3c0.1-0.4,0.3-0.7,0.3-1.1C1.8,5.6,20.2-4.9,36.7,2.3c12.4,5.4,20.2,20.4,13,34.8 c-2.7,5.3-6,10.4-9.4,15.3c-6.3,9.2-11.4,19-13.5,30.1c-0.1,0.3-0.3,0.7-0.7,1.4c-0.4-0.9-0.6-1.3-0.7-1.8c-1.6-7.1-4.1-13.8-7.8-20 C14.1,56.1,10,50.2,6,44.3C3.2,40.1,0.7,35.8,0,30.6C-0.2,29.7-0.3,28.8-0.5,27.8z M26.2,37.2c5.7,0,10.3-4.6,10.4-10.4 c0.1-5.7-4.5-10.2-10.3-10.3c-5.5,0-10.1,4.5-10.2,10.1C16,32.2,20.7,37.2,26.2,37.2z" />
</svg>