<svg viewBox="0 0 83.6 83.5" xmlns="http://www.w3.org/2000/svg">
	<path d="M82.2,30.4C76.7,9.7,56.2-3.2,35,0.7C15.5,4.3,1.3,21.3,1.5,41.1c0.1,7,1.8,13.6,5.3,19.7c0.4,0.7,0.5,1.3,0.2,2.1
	 c-0.6,1.7-1.2,3.4-1.8,5.2C3.5,73.1,1.8,78.2,0,83.5c0.6-0.2,0.9-0.3,1.2-0.4c6.8-2.2,13.7-4.4,20.5-6.5c0.5-0.2,1.2-0.1,1.7,0.1
	 c8.4,4.3,17.3,5.6,26.6,3.9C73.2,76.7,88.3,53.1,82.2,30.4z M49.7,74.2c-9,1.8-17.5,0.3-25.5-4.4c-0.4-0.3-1.1-0.3-1.6-0.2
	 c-3.8,1.1-7.5,2.3-11.2,3.5c-0.3,0.1-0.6,0.2-1.2,0.3c0.9-2.5,1.6-4.8,2.4-7.1c0.5-1.5,1-3,1.5-4.4c0.3-0.8,0.2-1.4-0.3-2.1
	 c-4.7-7-6.8-14.7-5.6-23C10.2,22.9,17.9,13.2,31,8.5C51.5,1,73.4,14.3,76.7,35.8C79.5,53.4,67.3,70.7,49.7,74.2z" />
	<path d="M62.7,49.7c-2.8-1.4-5.6-2.7-8.4-4c-0.9-0.4-1.6-0.1-2.2,0.7c-0.9,1.2-2,2.4-2.9,3.6c-0.6,0.7-1.2,0.8-2.1,0.5
	 c-5.9-2.3-10.4-6.2-13.7-11.6c-0.6-1-0.5-1.7,0.3-2.6c0.9-0.9,1.6-2,2.3-3.1c0.3-0.4,0.4-1.2,0.2-1.7c-1.1-2.8-2.3-5.5-3.5-8.3
	 c-0.3-0.6-1-1.2-1.5-1.3C29,21.9,27,22.2,25.5,24c-1.8,2.1-2.9,4.5-3,7.3c0.1,0.9,0.2,1.9,0.3,2.8c0.6,3.3,2.4,6,4.3,8.7
	 c5.6,8.1,12.8,13.9,22.5,16.4c2.2,0.6,4.3,0.9,6.6,0.4c4.1-0.9,7-4,7.1-8.2C63.4,50.8,63.1,49.9,62.7,49.7z" />
</svg>