<?xml version="1.0" encoding="utf-8"?>
<!-- Generator: Adobe Illustrator 24.2.0, SVG Export Plug-In . SVG Version: 6.00 Build 0)  -->
<svg version="1.1" id="Camada_1" xmlns="http://www.w3.org/2000/svg" xmlns:xlink="http://www.w3.org/1999/xlink" x="0px" y="0px"
	 viewBox="0 0 80.6 72.9" style="enable-background:new 0 0 80.6 72.9;" xml:space="preserve">
<style type="text/css">
	.st0{fill:#FFFFFF;}
</style>
<g>
	<path class="st0" d="M40.2,72.9c-8.3,0-16.5,0-24.8,0C6.8,72.9,0,66.1,0,57.5c0-5.9,0-11.8,0-17.8c0-0.3,0-0.7,0.1-1
		c0.2-0.8,0.9-1.3,1.7-1.3c0.8,0,1.5,0.4,1.7,1.3c0.1,0.3,0.1,0.7,0.1,1.1c0,5.8,0,11.5,0,17.3c0,7,5,12.2,12.1,12.2
		c10.3,0,20.7,0,31,0c6,0,12,0,18,0c5.9,0,10.6-3.6,11.9-9c0.2-0.9,0.3-1.9,0.3-2.9c0-5.9,0-11.8,0-17.8c0-0.3,0-0.6,0-0.8
		c0.1-1,0.8-1.7,1.8-1.7c0.9,0,1.7,0.7,1.8,1.6c0,0.3,0,0.6,0,0.8c0,5.9,0,11.8,0,17.7c0,8.9-6.7,15.6-15.7,15.6
		C56.7,72.9,48.4,72.9,40.2,72.9z"/>
	<path class="st0" d="M38.6,50.7c0-0.4,0-0.8,0-1.2c0-15.7,0-31.5,0-47.2c0-0.3,0-0.7,0.1-1C39,0.5,39.5,0,40.4,0
		c0.9,0,1.5,0.4,1.7,1.2c0.1,0.3,0.1,0.7,0.1,1.1c0,15.7,0,31.5,0,47.2c0,0.3,0,0.7,0,1.3c0.4-0.4,0.6-0.6,0.8-0.8
		c4.3-4.2,8.5-8.5,12.8-12.7c0.9-0.9,2-1,2.8-0.3c0.8,0.7,0.7,1.9-0.2,2.8C52.9,45.3,47.5,50.7,42,56.1c-1.1,1.1-2.2,1.1-3.3,0
		c-5.5-5.5-10.9-10.9-16.4-16.4c-0.6-0.6-1-1.3-0.6-2c0.3-0.5,0.9-1.1,1.4-1.1c0.6,0,1.4,0.3,1.8,0.7c4.2,4.1,8.3,8.2,12.4,12.3
		c0.4,0.4,0.7,0.8,1,1.2C38.4,50.8,38.5,50.7,38.6,50.7z"/>
</g>
</svg>
