<svg id="Camada_1" data-name="Camada 1"
    xmlns="http://www.w3.org/2000/svg" viewBox="0 0 706 255">
    <path class="cls-1" d="M421.33,122.38h0c-3.1,20.83-9.6,36.64-19.35,47.72-9.6,10.92-22.16,16.39-37.52,16.39a55.68,55.68,0,0,1-21.57-4.13,57.91,57.91,0,0,1-18.16-12.71A84.85,84.85,0,0,1,305.38,137c-4.44-12.71-6.65-27-6.65-42.69A135.1,135.1,0,0,1,303,59.9a103.87,103.87,0,0,1,12.85-29.1c6.2-9.45,13.45-16.54,21.57-21.12S355,2.74,365.64,2.74a48.13,48.13,0,0,1,18,3.25,47.37,47.37,0,0,1,15.22,10.19l10-12.56h7.53L419,74.38l-9.15.88C406,55.47,400.5,40.4,393.56,30.21S378.05,15,368.15,15c-11.81,0-20.23,6.2-25.7,18.46-5.32,12.26-8,32.05-8,59.23q0,41.88,8.42,59.83c5.62,11.81,14.78,17.72,27.77,17.72,10,0,18.47-4.43,25.41-13.29q10.64-13.51,15.51-39Zm-261,59.53h0V169.06h9c3.55,0,5.91-.89,7.24-2.36,1.18-1.63,1.92-5,1.92-10.34V32c0-5.31-.74-8.71-1.92-10.34s-3.69-2.51-7.24-2.51h-9V6.58H276.87l1.47,63.22h-8.86c-3.1-18.76-8.12-31.91-14.92-39.44C247.47,22.68,237.13,19,223.25,19c-5.91,0-9.6.74-11.08,2.52-1.33,1.62-2.07,5.17-2.07,10.48V84.87h2.51q11.74,0,17.29-7.54c3.84-5,6.49-13.88,8.12-26.29h8.86v80.35H238c-1.63-12.4-4.28-21-8.12-26s-9.46-7.54-17.29-7.54H210.1v58.5c0,5.46.74,9,2.36,10.78s5.32,2.51,11.23,2.51c15.22,0,26.59-4.13,34-12.41,7.53-8.12,13.14-22.15,16.54-42.09l9,.88-2.37,65.88ZM505.23,2.15h0V15.74q-16.17,0-23.93,19.49c-5.32,12.85-7.83,32.5-7.83,59.09S476,140.7,481.3,153.4c5.17,12.86,13.15,19.35,23.93,19.35v13.3a54.74,54.74,0,0,1-27.33-6.8c-8-4.58-15.36-11.52-22.16-21.12A93.36,93.36,0,0,1,442,129.77c-2.81-10.19-4.29-22-4.29-35.45A141.66,141.66,0,0,1,442.3,58,92.45,92.45,0,0,1,456,28.73c6.2-9,13.44-15.65,21.56-19.94A56.66,56.66,0,0,1,505.23,2.15ZM84.4,169.06h9c3.55,0,5.91-.89,7.09-2.36s1.77-5,1.77-10.34v-57H54.86v57c0,5.32.59,8.71,1.92,10.34,1.18,1.47,3.69,2.36,7.24,2.36h9v12.85H4.78V169.06h9.16c3.55,0,6.06-.89,7.24-2.36s1.77-5,1.77-10.34V32c0-5.31-.59-8.71-1.92-10.34s-3.54-2.51-7.09-2.51H4.78V6.58H73V19.13H64c-3.55,0-5.91.89-7.24,2.51-1.33,1.78-1.92,5.17-1.92,10.34V83.54h47.41V32c0-5.31-.59-8.71-1.77-10.34S97,19.13,93.41,19.13h-9V6.58h68.24V19.13h-9.16c-3.54,0-5.9.89-7.09,2.51s-1.77,5-1.77,10.34V156.36c0,5.32.59,8.86,1.77,10.34s3.55,2.36,7.09,2.36h9.16v12.85H84.4Zm618,12.85H582.92V169.06h9c3.7,0,6.06-.89,7.39-2.36,1.18-1.63,1.77-5,1.77-10.34V32c0-5.31-.59-8.86-1.77-10.48s-3.69-2.37-7.24-2.37h-9.16V6.58h70.76V19.13H642.45c-3.54,0-5.91.89-7.24,2.51-1.33,1.78-1.92,5.17-1.92,10.34V155.77c0,5.17.74,8.56,2.22,10.34,1.47,1.62,5.17,2.36,11.37,2.36,14.48,0,25.41-4,32.64-12.11,7.39-8.13,12.71-22,16.25-42l9,1.18Zm-197.19,4.14v-13.3c10.63,0,18.61-6.49,23.78-19.49q8-19.5,8-58.94c0-26.74-2.66-46.38-7.83-59.23S516,15.74,505.23,15.74V2.15c10.63,0,19.79,2.21,27.91,6.64s15.37,11.08,21.72,20.39a89,89,0,0,1,13.29,29.1,133.12,133.12,0,0,1,4.58,36c0,13.44-1.33,25.11-4.14,35.3a92.11,92.11,0,0,1-13.29,28.07q-10,14-22.6,21.27A55.23,55.23,0,0,1,505.23,186.05Z"/>
    <path class="cls-1" d="M696.66,232a33.45,33.45,0,0,1-6.2-4.72,3.07,3.07,0,0,1-.74-1.78,3.56,3.56,0,0,1,3.4-3.25,7.41,7.41,0,0,1,4.57,1.78c1.48,1.18,3,3.54,4.28,6.64h1.19l-.44-10.93h-1.19a4.42,4.42,0,0,1-1.33,1.48,1.21,1.21,0,0,1-.88.29,3.22,3.22,0,0,1-1.48-.44,10.73,10.73,0,0,0-5.17-1.33,9.66,9.66,0,0,0-7.38,3,10.69,10.69,0,0,0-2.52,6.79,10,10,0,0,0,2.22,6.2,42.18,42.18,0,0,0,6.8,5.47c2.36,1.62,4,2.81,4.57,3.69a3.9,3.9,0,0,1,1,2.81,3.25,3.25,0,0,1-1,2.51,3.65,3.65,0,0,1-2.66,1,7.47,7.47,0,0,1-5-2.36,14.58,14.58,0,0,1-4.28-6.79h-1.18l.59,11.52h1c.59-1,1.18-1.63,1.92-1.63a12.1,12.1,0,0,1,1.48.3,16.92,16.92,0,0,0,6.06,1.48,11,11,0,0,0,5.46-1.34,8.71,8.71,0,0,0,3.69-4,11.2,11.2,0,0,0,1.33-5.17,9.77,9.77,0,0,0-1.48-5.47,36.52,36.52,0,0,0-6.64-5.76"/>
    <path class="cls-1" d="M646,222a2.47,2.47,0,0,1,1.92.59,6.6,6.6,0,0,1,1.93,3.1,31.2,31.2,0,0,1,.59,7.68H645.7v2.22h13.14c-.14-5.17-1.47-9.16-3.83-11.82a10.93,10.93,0,0,0-8.43-4h-.88V222H646"/>
    <path class="cls-1" d="M645.7,233.36h-4.58v-1.18c0-3.54.59-6.35,2.07-8.42A3.37,3.37,0,0,1,645.7,222v-2.22a13.63,13.63,0,0,0-9.31,4.73c-2.95,3.25-4.43,7.38-4.43,12.85a19.78,19.78,0,0,0,3,10.93c2.51,3.69,6.05,5.47,10.78,5.47V246.8l-1-1a16.51,16.51,0,0,1-3.39-10.19h4.43Z"/>
    <path class="cls-1" d="M670.51,215.78a5,5,0,0,0,5.32-5.31,4.93,4.93,0,0,0-1.47-3.7,5.4,5.4,0,0,0-3.85-1.62,5.32,5.32,0,0,0-3.69,1.62,4.94,4.94,0,0,0-1.48,3.7,5.27,5.27,0,0,0,1.48,3.84,5.16,5.16,0,0,0,3.69,1.47"/>
    <path class="cls-1" d="M675.39,246.21V220.66H662V222a5.06,5.06,0,0,1,3.1,1c.44.74.74,2.07.74,4.43v18.76c0,2.22-.3,3.55-.74,4.14a3.79,3.79,0,0,1-3.1,1.18v1.33h17.28v-1.33a4.3,4.3,0,0,1-3.1-1c-.44-.6-.74-2.07-.74-4.29"/>
    <path class="cls-1" d="M576.72,251.38a3.88,3.88,0,0,1-2.81-1.33,7.12,7.12,0,0,1-1.62-3.69,48.52,48.52,0,0,1-.45-6.8,98.66,98.66,0,0,1,.45-10.78c.15-2.66.73-4.43,1.62-5.32a5.07,5.07,0,0,1,3-1.33v-2.36h-.15a13.23,13.23,0,0,0-10.93,5.17,18.86,18.86,0,0,0-4,12,19.48,19.48,0,0,0,3.84,11.81,13.73,13.73,0,0,0,11.23,5v-2.37h-.15"/>
    <path class="cls-1" d="M584.4,222a14,14,0,0,0-7.53-2.22v2.36a3.77,3.77,0,0,1,2.36.74,7.49,7.49,0,0,1,1.77,3.25c.45,1.48.59,4.14.59,8,0,6.65-.14,10.93-.59,13.15a6.06,6.06,0,0,1-1.63,3.25,4,4,0,0,1-2.5.88v2.37a13.31,13.31,0,0,0,11.37-5.62c2.36-2.95,3.4-6.79,3.4-11.37a21.44,21.44,0,0,0-1.77-8.72,13.69,13.69,0,0,0-5.47-6"/>
    <path class="cls-1" d="M526.5,236.91l-13.15-30.58H494.3v1.18h1.47a7.06,7.06,0,0,1,3.25.74,3.56,3.56,0,0,1,1.48,1.48,12.87,12.87,0,0,1,.44,4.43v29.39c0,2.07-.14,3.25-.14,3.55a8.24,8.24,0,0,1-1,2.51,5.78,5.78,0,0,1-2.07,1.48,8.74,8.74,0,0,1-2.8.44h-.59v1.33h15.95v-1.33c-2.07,0-3.69-.3-4.58-1a5.42,5.42,0,0,1-2.07-2.81c0-.59-.15-1.92-.15-4.28v-32.8l18.17,42.25h.74l17.87-42.54v34.56a21.91,21.91,0,0,1-.29,4.29,4.06,4.06,0,0,1-1.48,1.62,6.64,6.64,0,0,1-3.25.74h-1.48v1.33H558v-1.33h-1.48a6,6,0,0,1-3.1-.74,3.93,3.93,0,0,1-1.62-1.48,22.24,22.24,0,0,1-.3-4.43V214.16a21.69,21.69,0,0,1,.3-4.29,4,4,0,0,1,1.47-1.62,6.64,6.64,0,0,1,3.25-.74H558v-1.18H539.05Z"/>
    <polygon class="cls-1" points="587.06 204.7 576.87 204.7 576.87 205 576.87 215.63 587.06 204.7"/>
    <path class="cls-1" d="M618.22,222a3.77,3.77,0,0,1,2.66.74,2.08,2.08,0,0,1,.89,1.77c0,1.18-.59,3.25-1.92,6.2l-4.14,10.49-5.31-12.11a13.09,13.09,0,0,1-1.48-4.73,2.45,2.45,0,0,1,.74-1.77,3,3,0,0,1,2.21-.59v-1.33h-17V222a4,4,0,0,1,2.36,1.18,27.11,27.11,0,0,1,3,5.76L611,253.75h1.62l10.78-25.11c1.19-3.11,2.22-4.88,2.81-5.47a4.93,4.93,0,0,1,2.51-1.18v-1.33H618.22Z"/>
    <polygon class="cls-1" points="576.87 215.63 576.87 205 572.88 216.67 575.83 216.67 576.87 215.63"/>
    <path class="cls-1" d="M645.85,253.75a12.3,12.3,0,0,0,7.23-2.22q3.1-2.22,5.76-7.53l-1.18-.74a18,18,0,0,1-3.54,4.13,6.79,6.79,0,0,1-8.42-.59v6.95Z"/>
</svg>