<?xml version="1.0" encoding="UTF-8" standalone="no"?>
<svg xmlns="http://www.w3.org/2000/svg" viewBox="0 0 303.89096 776.03638" width="303.89096" height="776.03638">

   <rect class="cls-1" x="-776.03638" y="0" width="774.37469" height="8.75" id="rect6" transform="rotate(-90)" style="stroke-width:0.677721" />
   <g class="cls-2" id="g34" transform="translate(-12.59998,-704.51)">
      <path class="cls-3" d="m 171.23,1018 v 0 c 23,3.43 40.5,10.61 52.75,21.39 12.08,10.61 18.12,24.5 18.12,41.48 a 61.42,61.42 0 0 1 -4.57,23.84 63.92,63.92 0 0 1 -14.05,20.09 94,94 0 0 1 -36.08,21.39 c -14.05,4.9 -29.89,7.35 -47.2,7.35 a 149.13,149.13 0 0 1 -38,-4.74 114.8,114.8 0 0 1 -32.2,-14.24 c -10.45,-6.86 -18.29,-14.87 -23.35,-23.85 -5.23,-9.14 -7.67,-19.43 -7.67,-31.19 a 53.29,53.29 0 0 1 3.59,-19.92 52.45,52.45 0 0 1 11.27,-16.82 l -13.89,-11.1 v -8.33 l 78.23,-2.78 1,10.12 c -21.89,4.25 -38.54,10.29 -49.81,18 -11.11,7.67 -16.82,17.14 -16.82,28.09 0,13.06 6.86,22.37 20.41,28.41 13.56,5.88 35.44,8.82 65.49,8.82 q 46.29,0 66.13,-9.31 c 13.07,-6.2 19.6,-16.33 19.6,-30.7 0,-11.1 -4.9,-20.41 -14.7,-28.09 q -14.94,-11.76 -43.11,-17.14 z M 237,1306.51 h -14.17 v -10 c 0,-3.92 -1,-6.53 -2.61,-8 -1.8,-1.31 -5.55,-2.13 -11.43,-2.13 H 71.29 c -5.88,0 -9.64,0.82 -11.43,2.13 -1.8,1.47 -2.78,4.08 -2.78,8 v 10 H 43.2 v -128.84 l 69.9,-1.64 v 9.8 c -20.74,3.43 -35.28,9 -43.61,16.49 -8.49,7.84 -12.57,19.27 -12.57,34.62 0,6.54 0.82,10.62 2.77,12.25 1.8,1.47 5.72,2.29 11.6,2.29 h 58.46 v -2.78 q 0,-13 -8.33,-19.11 c -5.55,-4.24 -15.35,-7.18 -29.06,-9 v -9.8 h 88.83 v 9.8 c -13.72,1.8 -23.19,4.74 -28.74,9 -5.55,4.26 -8.33,10.46 -8.33,19.11 v 2.78 h 64.67 c 6,0 10,-0.82 11.92,-2.62 1.8,-1.63 2.77,-5.87 2.77,-12.41 0,-16.82 -4.57,-29.39 -13.71,-37.56 -9,-8.32 -24.5,-14.53 -46.54,-18.28 l 1,-10 72.83,2.61 z M 38.3,925.2 h 15 q 0,17.88 21.55,26.46 c 14.21,5.88 35.93,8.65 65.32,8.65 29.39,0 51.28,-2.77 65.32,-8.65 14.21,-5.72 21.4,-14.54 21.4,-26.46 h 14.69 a 60.54,60.54 0 0 1 -7.51,30.21 c -5.06,8.82 -12.74,17 -23.35,24.5 a 103.42,103.42 0 0 1 -31.36,15.19 c -11.26,3.1 -24.33,4.73 -39.19,4.73 A 156.21,156.21 0 0 1 100,994.77 101.65,101.65 0 0 1 67.7,979.58 c -10,-6.85 -17.31,-14.86 -22.05,-23.84 -4.9,-8.98 -7.35,-19.1 -7.35,-30.54 z m 184.53,465.24 v 0 -10 c 0,-3.92 -1,-6.53 -2.61,-7.83 -1.61,-1.3 -5.55,-2 -11.43,-2 h -63 v 52.41 h 63 c 5.88,0 9.63,-0.65 11.43,-2.12 1.63,-1.3 2.61,-4.08 2.61,-8 v -10 H 237 v 75.44 h -14.17 v -10.12 c 0,-3.92 -1,-6.7 -2.61,-8 -1.61,-1.3 -5.55,-2 -11.43,-2 H 71.29 c -5.88,0 -9.64,0.65 -11.43,2.12 -1.8,1.31 -2.78,3.92 -2.78,7.84 v 10.12 H 43.2 V 1403 h 13.88 v 10 c 0,3.92 1,6.53 2.78,8 2,1.47 5.71,2.12 11.43,2.12 h 57 v -52.41 h -57 c -5.88,0 -9.64,0.65 -11.43,2 -1.79,1.35 -2.78,3.91 -2.78,7.83 v 10 H 43.2 V 1315 h 13.88 v 10.12 c 0,3.92 1,6.54 2.78,7.84 1.78,1.3 5.55,2 11.43,2 h 137.5 c 5.88,0 9.8,-0.65 11.43,-2 1.63,-1.35 2.61,-3.92 2.61,-7.84 V 1315 H 237 v 75.44 z M 237,707.2 v 0 132.11 h -14.17 v -10 c 0,-4.09 -1,-6.7 -2.61,-8.17 -1.8,-1.3 -5.55,-2 -11.43,-2 H 71.29 c -5.88,0 -9.8,0.66 -11.6,2 -1.63,1.31 -2.61,4.08 -2.61,8 v 10.13 H 43.2 v -78.18 h 13.88 v 12.41 c 0,3.92 1,6.53 2.78,8 2,1.47 5.71,2.12 11.43,2.12 h 136.85 c 5.71,0 9.47,-0.81 11.43,-2.45 1.79,-1.63 2.61,-5.71 2.61,-12.57 0,-16 -4.41,-28.09 -13.39,-36.09 -9,-8.16 -24.33,-14 -46.38,-18 l 1.31,-10 z m 4.57,218 h -14.65 c 0,-11.75 -7.19,-20.57 -21.56,-26.29 q -21.56,-8.82 -65.16,-8.82 c -29.56,0 -51.27,2.94 -65.48,8.66 -14.21,5.72 -21.39,14.53 -21.39,26.45 h -15 c 0,-11.75 2.45,-21.88 7.35,-30.86 4.74,-8.82 12.25,-17 22.54,-24 a 98.23,98.23 0 0 1 32.17,-14.7 147,147 0 0 1 39.84,-5.06 c 14.86,0 27.76,1.47 39,4.57 a 102,102 0 0 1 31,14.69 q 15.44,11 23.51,25 a 61,61 0 0 1 7.87,30.36 z" id="path8" />
      <path class="cls-3" d="m 292.45,713.57 c -2.45,3.75 -4.25,6 -5.23,6.86 a 3.36,3.36 0 0 1 -2,0.81 3.92,3.92 0 0 1 -3.59,-3.75 8.29,8.29 0 0 1 2,-5.06 c 1.31,-1.64 3.92,-3.27 7.35,-4.74 v -1.3 l -12.08,0.48 v 1.31 a 4.82,4.82 0 0 1 1.63,1.47 1.39,1.39 0 0 1 0.33,1 3.72,3.72 0 0 1 -0.49,1.63 11.94,11.94 0 0 0 -1.47,5.72 10.69,10.69 0 0 0 3.26,8.16 11.87,11.87 0 0 0 7.51,2.78 11,11 0 0 0 6.86,-2.45 47.4,47.4 0 0 0 6,-7.51 c 1.8,-2.62 3.11,-4.41 4.09,-5.07 a 4.32,4.32 0 0 1 3.1,-1.14 3.62,3.62 0 0 1 2.78,1.14 4.09,4.09 0 0 1 1.14,2.94 c 0,1.8 -0.82,3.6 -2.61,5.56 a 16.17,16.17 0 0 1 -7.51,4.73 v 1.31 l 12.73,-0.65 v -1.15 c -1.14,-0.65 -1.79,-1.3 -1.79,-2.12 a 13.53,13.53 0 0 1 0.32,-1.63 18.54,18.54 0 0 0 1.64,-6.7 12.15,12.15 0 0 0 -1.48,-6 9.65,9.65 0 0 0 -4.4,-4.08 12.42,12.42 0 0 0 -5.72,-1.47 10.85,10.85 0 0 0 -6,1.63 40.65,40.65 0 0 0 -6.37,7.35" id="path10" />
      <path class="cls-3" d="m 281.35,769.58 a 2.76,2.76 0 0 1 0.65,-2.12 7.23,7.23 0 0 1 3.43,-2.13 c 1.63,-0.49 4.41,-0.65 8.49,-0.65 v 5.23 h 2.45 v -14.54 c -5.72,0.17 -10.12,1.63 -13.07,4.25 a 12.07,12.07 0 0 0 -4.4,9.31 v 1 h 2.45 v -0.33" id="path12" />
      <path class="cls-3" d="M 293.92,769.91 V 775 h -1.31 c -3.91,0 -7,-0.65 -9.31,-2.29 a 3.73,3.73 0 0 1 -1.95,-2.77 h -2.45 a 15,15 0 0 0 5.22,10.28 c 3.59,3.27 8.17,4.9 14.21,4.9 a 21.88,21.88 0 0 0 12.08,-3.26 c 4.09,-2.78 6,-6.7 6,-11.92 h -7.68 l -1.14,1.14 c -2.78,2.29 -6.53,3.59 -11.27,3.76 v -4.9 z" id="path14" />
      <path class="cls-3" d="m 274.49,742.47 a 5.62,5.62 0 0 0 -5.88,-5.88 5.39,5.39 0 0 0 -4.08,1.64 5.89,5.89 0 0 0 -1.8,4.24 5.81,5.81 0 0 0 1.8,4.08 5.39,5.39 0 0 0 4.08,1.64 5.75,5.75 0 0 0 4.24,-1.64 5.64,5.64 0 0 0 1.64,-4.08" id="path16" />
      <path class="cls-3" d="M 308.13,737.08 H 279.88 V 752 h 1.47 a 5.61,5.61 0 0 1 1.14,-3.43 c 0.81,-0.49 2.29,-0.82 4.9,-0.82 h 20.74 c 2.45,0 3.92,0.33 4.57,0.82 A 4.16,4.16 0 0 1 314,752 h 1.47 V 732.84 H 314 a 4.75,4.75 0 0 1 -1.15,3.43 c -0.65,0.49 -2.28,0.81 -4.73,0.81" id="path18" />
      <path class="cls-3" d="m 313.84,846.17 a 4.28,4.28 0 0 1 -1.47,3.1 7.87,7.87 0 0 1 -4.08,1.8 55.52,55.52 0 0 1 -7.51,0.49 112.39,112.39 0 0 1 -11.92,-0.49 c -2.94,-0.17 -4.9,-0.82 -5.88,-1.8 A 5.45,5.45 0 0 1 281.51,846 h -2.61 v 0.17 a 14.65,14.65 0 0 0 5.71,12.08 20.85,20.85 0 0 0 13.23,4.41 21.58,21.58 0 0 0 13.06,-4.24 c 3.6,-2.94 5.56,-7 5.56,-12.42 h -2.62 v 0.17" id="path20" />
      <path class="cls-3" d="M 281.35,837.68 A 15.38,15.38 0 0 0 278.9,846 h 2.61 a 4.17,4.17 0 0 1 0.82,-2.61 8.21,8.21 0 0 1 3.59,-2 c 1.63,-0.49 4.57,-0.65 8.82,-0.65 7.34,0 12.08,0.16 14.53,0.65 a 6.77,6.77 0 0 1 3.59,1.8 4.39,4.39 0 0 1 1,2.77 h 2.62 a 14.69,14.69 0 0 0 -6.21,-12.57 c -3.27,-2.61 -7.51,-3.75 -12.57,-3.75 a 23.76,23.76 0 0 0 -9.64,2 15,15 0 0 0 -6.69,6" id="path22" />
      <path class="cls-3" d="M 297.84,901.69 264,916.22 v 21.07 h 1.3 v -1.63 a 7.74,7.74 0 0 1 0.82,-3.59 4,4 0 0 1 1.63,-1.64 c 0.65,-0.33 2.29,-0.49 4.9,-0.49 h 32.5 c 2.28,0 3.59,0.16 3.92,0.16 a 8.91,8.91 0 0 1 2.77,1.15 6.24,6.24 0 0 1 1.64,2.28 9.75,9.75 0 0 1 0.49,3.11 v 0.65 h 1.47 V 919.65 H 314 c 0,2.29 -0.33,4.09 -1.15,5.07 a 6,6 0 0 1 -3.1,2.28 c -0.65,0 -2.12,0.17 -4.74,0.17 h -36.24 l 46.71,-20.09 v -0.82 l -47,-19.75 h 38.22 a 24.59,24.59 0 0 1 4.73,0.32 4.45,4.45 0 0 1 1.8,1.63 7.34,7.34 0 0 1 0.82,3.6 v 1.63 h 1.47 V 866.91 H 314 v 1.63 a 6.64,6.64 0 0 1 -0.82,3.43 4.35,4.35 0 0 1 -1.63,1.79 24.48,24.48 0 0 1 -4.9,0.33 h -34 a 23.66,23.66 0 0 1 -4.74,-0.33 4.35,4.35 0 0 1 -1.79,-1.63 7.27,7.27 0 0 1 -0.82,-3.59 v -1.63 H 264 v 20.9 z" id="path24" />
      <polygon class="cls-3" points="262.57,846 274.32,846 262.24,834.74 262.24,846 " id="polygon26" />
      <path class="cls-3" d="m 281.35,800.28 a 4.21,4.21 0 0 1 0.81,-2.94 2.33,2.33 0 0 1 2,-1 c 1.31,0 3.59,0.65 6.86,2.12 l 11.59,4.58 -13.39,5.88 a 14.54,14.54 0 0 1 -5.22,1.63 2.7,2.7 0 0 1 -2,-0.82 3.38,3.38 0 0 1 -0.65,-2.45 h -1.47 v 18.78 h 1.47 a 4.45,4.45 0 0 1 1.3,-2.61 c 1,-0.82 2.94,-1.8 6.37,-3.27 l 27.44,-11.92 v -1.79 l -27.76,-11.9 c -3.44,-1.31 -5.4,-2.46 -6.05,-3.11 a 5.45,5.45 0 0 1 -1.3,-2.77 h -1.47 v 11.59 z" id="path28" />
      <polygon class="cls-3" points="275.47,850.41 275.47,847.15 274.32,846 262.57,846 " id="polygon30" />
      <path class="cls-3" d="m 316.46,769.74 a 13.67,13.67 0 0 0 -2.45,-8 q -2.46,-3.42 -8.33,-6.37 l -0.82,1.31 a 19.72,19.72 0 0 1 4.57,3.92 7.53,7.53 0 0 1 -0.65,9.31 h 7.68 z" id="path32" />
   </g>
</svg>
