<?xml version="1.0" standalone="no"?>
<svg viewBox="0 0 19.13 14.17" width="32" height="24" xmlns="http://www.w3.org/2000/svg">
	<path fill="currentColor" d="M9.55,14.17c-2.72,0-5.44,0-8.15,0c-0.85,0-1.4-0.55-1.4-1.4C0,8.98,0,5.19,0,1.4C0,0.55,0.55,0,1.4,0
		c5.44,0,10.88,0,16.33,0c0.84,0,1.4,0.54,1.4,1.38c0,3.81,0,7.61,0,11.42c0,0.84-0.56,1.38-1.4,1.38
		C15,14.17,12.28,14.17,9.55,14.17z M1,1.1c0.08,0.07,0.13,0.11,0.18,0.15C3.62,3.27,6.06,5.29,8.5,7.31c0.64,0.53,1.48,0.53,2.13,0
		c2.28-1.89,4.56-3.77,6.84-5.65c0.21-0.17,0.41-0.35,0.62-0.52c-0.11-0.16-0.26-0.16-0.41-0.16c-5.42,0-10.84,0-16.26,0
		c-0.05,0-0.11-0.01-0.16,0.01C1.19,1.01,1.11,1.05,1,1.1z M1.89,13.19c5.13,0,10.21,0,15.31,0c-0.03-0.03-0.04-0.04-0.05-0.05
		c-2.1-1.56-4.2-3.13-6.29-4.69c-0.09-0.07-0.16-0.04-0.24,0c-0.71,0.31-1.42,0.31-2.13,0C8.38,8.39,8.31,8.41,8.21,8.48
		c-1.68,1.26-3.37,2.51-5.06,3.77C2.75,12.56,2.34,12.86,1.89,13.19z M18.14,12.66c0-3.45,0-6.86,0-10.3
		c-2.2,1.82-4.37,3.61-6.56,5.42C13.78,9.41,15.95,11.02,18.14,12.66z M7.54,7.77c-2.2-1.81-4.37-3.61-6.56-5.42
		c0,3.45,0,6.86,0,10.31C3.18,11.02,5.35,9.4,7.54,7.77z"/>
</svg>
