<?xml version="1.0" standalone="no"?>
<svg viewBox="0 0 29.78 29.82" width="24" height="24" xmlns="http://www.w3.org/2000/svg">
		<path fill="currentColor" class="st4" d="M0.12,29.78c-0.04,0-0.08,0-0.12,0c0.83-2.45,1.65-4.9,2.5-7.34c0.11-0.32,0.08-0.57-0.08-0.86
			c-1.75-3.13-2.27-6.46-1.57-9.97c0.61-3.07,2.1-5.68,4.42-7.77c3.24-2.93,7.07-4.16,11.4-3.77c2.62,0.24,5.01,1.16,7.13,2.73
			c3.11,2.3,5.05,5.36,5.75,9.17c0.1,0.54,0.16,1.09,0.23,1.63c0,0.6,0,1.2,0,1.8c-0.02,0.08-0.04,0.17-0.05,0.25
			c-0.16,0.9-0.24,1.83-0.49,2.71c-1.64,5.84-6.71,10.05-12.72,10.58c-2.86,0.25-5.57-0.27-8.12-1.59c-0.18-0.1-0.35-0.15-0.57-0.08
			c-2.1,0.68-4.2,1.34-6.3,2.01C1.06,29.45,0.59,29.62,0.12,29.78z M3.69,26.17c0.12-0.03,0.2-0.05,0.28-0.08
			c1.34-0.42,2.68-0.84,4.01-1.28c0.3-0.1,0.51-0.07,0.78,0.09c2.28,1.39,4.76,1.98,7.42,1.75c3.43-0.29,6.26-1.77,8.45-4.4
			c2.37-2.84,3.25-6.15,2.64-9.81c-0.5-2.99-1.99-5.44-4.32-7.35c-1.96-1.61-4.22-2.53-6.76-2.73c-2.47-0.2-4.8,0.29-6.97,1.49
			c-1.98,1.1-3.56,2.63-4.7,4.59c-1.3,2.22-1.82,4.62-1.59,7.17c0.19,2.12,0.9,4.05,2.12,5.8c0.13,0.19,0.14,0.35,0.07,0.56
			c-0.44,1.28-0.88,2.56-1.31,3.85C3.77,25.91,3.74,26.02,3.69,26.17z"/>
		<path fill="currentColor" class="st4" d="M22.58,18.23c-0.03,1.64-0.93,2.51-2.6,2.99c-0.72,0.2-1.42,0.12-2.11-0.1c-1.63-0.5-3.24-1.07-4.62-2.11
			c-1.3-0.99-2.4-2.16-3.36-3.48c-0.63-0.87-1.26-1.74-1.59-2.79C7.77,11.1,8.03,9.63,9.25,8.37c0.32-0.33,0.7-0.51,1.17-0.47
			c0.16,0.01,0.33,0.03,0.49,0.01c0.37-0.03,0.61,0.13,0.75,0.46c0.41,0.96,0.82,1.92,1.21,2.89c0.06,0.16,0.04,0.43-0.05,0.58
			c-0.26,0.41-0.57,0.8-0.88,1.18c-0.23,0.29-0.27,0.44-0.07,0.76c1.17,1.95,2.8,3.37,4.93,4.2c0.29,0.11,0.53,0.06,0.72-0.18
			c0.35-0.44,0.71-0.87,1.06-1.31c0.26-0.32,0.42-0.39,0.81-0.21c0.99,0.45,1.96,0.93,2.94,1.39C22.59,17.79,22.6,18.03,22.58,18.23
			z"/>
</svg>
