<?xml version="1.0" standalone="no"?>
<!DOCTYPE svg PUBLIC "-//W3C//DTD SVG 20010904//EN"
 "http://www.w3.org/TR/2001/REC-SVG-20010904/DTD/svg10.dtd">
<svg version="1.0" xmlns="http://www.w3.org/2000/svg"
 width="293.000000pt" height="293.000000pt" viewBox="0 0 293.000000 293.000000"
 preserveAspectRatio="xMidYMid meet">
<metadata>
Created by potrace 1.11, written by Peter Selinger 2001-2013
</metadata>
<g transform="translate(0.000000,293.000000) scale(0.100000,-0.100000)"
fill="#000000" stroke="none">
<path d="M1538 2920 c-277 -48 -525 -233 -643 -481 -86 -183 -109 -374 -65
-536 32 -119 83 -201 208 -334 95 -102 131 -168 132 -239 0 -40 -4 -47 -30
-62 -17 -9 -35 -28 -41 -40 -9 -21 -189 -145 -269 -186 -14 -7 -34 -22 -45
-32 -12 -11 -50 -34 -85 -51 -164 -82 -359 -248 -401 -344 -11 -25 -19 -47
-17 -48 81 -41 107 -59 143 -99 24 -27 56 -74 70 -103 l25 -55 37 41 c76 84
195 154 303 178 l41 9 128 -102 c218 -174 277 -201 429 -193 l87 4 60 -43
c127 -89 302 -157 462 -179 23 -3 57 -8 75 -10 115 -16 311 0 369 30 33 18 39
33 39 104 0 157 -97 321 -315 530 l-97 93 17 65 c12 44 16 81 11 117 l-6 53
51 7 c61 8 74 21 194 189 93 130 103 160 88 246 -10 52 -9 58 18 101 51 83
109 214 127 290 37 153 10 296 -97 503 -52 101 -58 117 -45 128 9 7 22 25 30
40 14 27 12 30 -33 86 -53 67 -138 153 -238 243 l-69 62 -51 -6 c-27 -3 -57
-8 -65 -10 -84 -17 -112 -17 -172 2 -35 11 -76 23 -93 27 -47 11 -215 14 -267
5z m290 -64 c69 -18 125 -40 169 -68 l33 -19 -59 -77 c-117 -154 -303 -320
-539 -484 l-107 -74 -60 3 c-33 2 -69 4 -80 4 -11 0 -34 -16 -52 -36 -42 -49
-56 -39 -49 36 8 75 38 157 89 237 27 43 36 67 29 74 -18 18 -105 -128 -135
-230 -10 -33 -15 -79 -13 -128 3 -49 0 -72 -6 -66 -5 5 -9 41 -9 79 0 127 70
294 162 388 37 38 49 65 31 65 -9 0 -64 -54 -102 -100 l-21 -25 17 30 c10 17
55 68 100 115 80 81 97 112 51 89 -39 -19 22 27 84 63 31 18 54 38 52 45 -11
29 -141 -55 -232 -149 -243 -252 -327 -540 -220 -751 19 -36 92 -143 108 -157
3 -3 22 -25 41 -50 47 -59 120 -165 83 -120 -15 19 -63 75 -106 125 -106 121
-132 160 -157 236 -51 149 -21 352 75 525 86 153 230 292 365 352 84 36 99 41
150 48 31 4 50 12 50 20 0 7 8 14 18 16 36 9 183 -2 240 -16z m459 -115 c100
-98 186 -199 180 -214 -7 -18 -120 -110 -257 -207 -107 -76 -280 -170 -313
-170 -8 0 -33 24 -55 53 -22 28 -58 75 -81 104 l-42 52 62 58 c130 120 233
239 317 365 l45 68 38 -22 c21 -12 69 -51 106 -87z m-1193 -128 c-80 -87 -159
-230 -194 -353 -54 -190 -18 -398 88 -517 193 -216 238 -285 243 -373 3 -68 0
-110 -9 -110 -5 0 -6 27 -4 60 4 53 0 69 -26 123 -18 36 -69 103 -121 161
-149 165 -200 275 -207 441 -5 152 34 297 118 433 43 70 126 172 140 172 4 0
-9 -17 -28 -37z m156 34 c0 -2 -12 -14 -27 -28 l-28 -24 24 28 c23 25 31 32
31 24z m-60 -61 c0 -2 -8 -10 -17 -17 -16 -13 -17 -12 -4 4 13 16 21 21 21 13z
m-134 -178 c-9 -12 -16 -19 -16 -15 0 11 24 47 28 42 2 -2 -3 -14 -12 -27z
m1446 -110 c73 -143 93 -211 97 -318 3 -125 -29 -220 -136 -400 -68 -113 -164
-236 -175 -224 -3 3 32 61 78 129 45 69 86 134 89 146 14 43 -38 61 -180 63
l-60 1 -55 -81 c-60 -87 -98 -135 -118 -148 -20 -12 -14 1 16 36 36 41 112
167 112 185 0 8 -10 17 -22 22 -20 7 -20 8 9 14 26 5 34 15 57 71 27 69 32 91
40 171 9 80 4 82 -116 51 -56 -15 -110 -31 -118 -35 -10 -5 -16 -26 -18 -57
-1 -26 -9 -72 -17 -103 -10 -37 -11 -60 -4 -73 7 -13 7 -18 -3 -16 -7 2 -32
-26 -55 -62 -24 -35 -53 -74 -64 -85 -22 -20 -17 -3 7 25 7 8 24 37 38 64 25
46 25 50 10 68 -16 16 -16 18 -1 18 21 0 40 67 41 145 l1 60 -35 6 c-19 4 -27
7 -18 8 9 0 23 8 32 16 14 15 12 35 -9 88 -14 34 23 18 46 -20 12 -21 24 -39
25 -41 12 -17 177 28 230 63 22 14 23 16 7 52 -8 21 -24 50 -35 66 -11 15 -15
27 -9 27 5 0 31 -34 57 -75 26 -42 54 -75 63 -75 9 0 54 19 101 43 79 40 85
45 84 72 -1 17 -23 64 -53 110 l-51 80 21 17 c12 10 24 16 28 14 3 -2 32 -55
63 -118z m-1488 26 c-57 -129 -62 -235 -19 -373 27 -86 67 -150 184 -298 113
-143 136 -203 135 -345 -1 -82 -8 -113 -24 -103 -6 4 -6 15 1 32 15 40 18 128
6 175 -17 69 -62 143 -176 291 -58 76 -115 154 -127 175 -69 124 -62 306 18
465 28 57 30 44 2 -19z m57 33 c-10 -9 -11 -8 -5 6 3 10 9 15 12 12 3 -3 0
-11 -7 -18z m1339 -96 l40 -66 -63 -31 -62 -32 -42 67 c-23 36 -41 69 -40 73
1 4 25 23 52 42 59 40 60 39 115 -53z m-1376 -1 c-27 -82 -33 -189 -15 -256
25 -91 79 -183 194 -323 78 -96 109 -152 131 -238 24 -92 20 -283 -6 -283 -6
0 -7 20 -3 53 19 135 9 232 -35 317 -12 25 -61 94 -107 153 -107 137 -149 205
-174 288 -35 117 -28 235 21 342 22 46 19 26 -6 -53z m745 -25 l79 -100 -30
-13 c-17 -7 -36 -12 -43 -10 -7 2 -43 43 -79 92 l-66 90 22 23 c12 13 26 22
30 21 5 -2 44 -48 87 -103z m-117 -20 c24 -33 54 -74 66 -91 l22 -32 -39 -10
-40 -10 -56 81 -57 81 28 23 c15 12 29 21 30 20 1 -1 22 -29 46 -62z m-72 -81
c43 -63 48 -74 31 -74 -11 0 -26 -2 -34 -5 -9 -4 -28 16 -57 60 -41 63 -42 66
-25 85 10 11 22 17 26 14 5 -3 32 -39 59 -80z m573 18 l19 -32 -44 -19 c-23
-10 -57 -22 -75 -26 -28 -6 -34 -3 -48 24 l-15 31 57 29 c32 17 65 29 72 28 8
-1 23 -17 34 -35z m-669 -37 c20 -30 36 -59 36 -65 0 -5 -12 -10 -27 -10 -23
0 -33 9 -55 48 -25 45 -26 50 -10 65 9 9 17 17 18 17 1 0 18 -25 38 -55z m-76
-34 c25 -44 27 -52 11 -48 -36 7 -71 62 -52 80 12 13 19 7 41 -32z m-188 -21
c14 -19 14 -19 32 0 36 38 65 22 42 -22 l-16 -30 30 6 c20 5 33 2 41 -8 17
-20 6 -36 -26 -36 -22 0 -24 -3 -18 -22 18 -60 11 -69 -41 -53 -16 5 -23 2
-27 -15 -8 -31 -41 -22 -45 12 -3 24 0 27 29 26 34 -1 69 29 69 60 0 43 -81
72 -109 39 -16 -20 -20 -60 -8 -75 12 -15 -6 -32 -35 -32 -23 0 -33 19 -14 26
26 10 27 34 1 44 -35 13 -22 40 19 40 30 0 32 2 28 30 -3 24 -1 30 15 30 10 0
25 -9 33 -20z m644 -6 c8 -22 7 -23 -55 -40 -68 -18 -89 -18 -89 0 0 8 24 23
58 34 71 25 78 26 86 6z m-185 -74 c5 -16 15 -30 22 -30 7 0 8 -7 4 -17 -4
-10 -9 -39 -9 -64 -1 -30 -9 -55 -24 -74 -12 -15 -22 -32 -22 -37 0 -19 -19
-2 -77 73 -88 110 -90 115 -53 134 43 22 101 42 127 44 15 1 24 -7 32 -29z
m516 -45 c-20 -84 -47 -165 -57 -171 -17 -10 -128 18 -128 32 0 7 5 25 10 39
6 15 11 45 12 66 2 46 0 45 81 69 98 29 97 29 82 -35z m-348 29 c-3 -3 -12 -4
-19 -1 -8 3 -5 6 6 6 11 1 17 -2 13 -5z m-50 -10 c-3 -3 -12 -4 -19 -1 -8 3
-5 6 6 6 11 1 17 -2 13 -5z m-377 -32 c0 -4 -16 -24 -36 -43 -29 -27 -34 -29
-24 -11 6 13 9 30 6 37 -2 7 -2 16 1 19 9 9 53 7 53 -2z m485 -4 c6 -6 -14
-99 -24 -110 -3 -4 -37 6 -76 20 -55 21 -71 32 -73 50 -2 12 1 22 7 22 6 0 13
1 16 2 2 1 30 7 62 13 60 12 78 13 88 3z m-476 -83 c-19 -19 -38 -35 -44 -35
-5 0 8 18 30 40 21 22 41 37 44 35 2 -3 -11 -21 -30 -40z m-237 -58 c29 -40
55 -74 58 -77 17 -15 102 -142 115 -173 34 -82 45 -191 30 -311 -7 -52 -19
-85 -29 -76 -2 3 0 28 5 55 17 86 13 194 -11 270 -28 91 -57 140 -145 250 -92
115 -114 148 -91 139 8 -3 39 -38 68 -77z m312 48 c8 -22 -73 -102 -85 -84
-14 22 -11 31 23 66 35 36 53 41 62 18z m-162 -55 c176 -311 396 -545 656
-695 71 -41 82 -51 76 -69 -6 -18 -62 -136 -69 -144 -1 -1 -28 6 -61 17 -32
10 -95 30 -139 44 -96 31 -171 63 -204 88 -13 11 -31 19 -41 19 -9 0 -34 12
-55 26 -21 14 -47 27 -57 29 -41 8 -45 30 -23 135 9 42 7 172 -4 225 -16 81
-44 135 -128 247 l-79 105 25 15 c46 28 69 19 103 -42z m213 0 c19 -21 18 -22
-27 -67 -41 -40 -49 -45 -63 -33 -9 7 -15 19 -13 25 3 14 70 94 79 95 3 0 14
-9 24 -20z m289 -57 c13 -7 10 -16 -16 -56 -17 -26 -33 -47 -37 -47 -4 0 -31
22 -61 48 l-54 48 23 32 22 31 54 -24 c30 -13 61 -27 69 -32z m243 11 c-3 -3
-12 -4 -19 -1 -8 3 -5 6 6 6 11 1 17 -2 13 -5z m-469 -25 c12 -19 11 -24 -10
-42 -13 -11 -37 -33 -54 -49 l-30 -28 -14 25 c-13 24 -11 28 30 70 50 51 60
54 78 24z m463 -35 c14 -8 -94 -164 -113 -164 -21 0 -79 33 -76 44 2 6 21 39
43 74 l40 63 49 -6 c28 -3 53 -8 57 -11z m-372 -60 c1 -6 -24 -35 -55 -64
l-57 -52 -23 29 c-13 15 -24 33 -24 38 0 6 23 31 52 56 l52 47 28 -22 c15 -11
27 -26 27 -32z m620 31 c24 -2 46 -7 49 -10 6 -6 -93 -163 -133 -209 l-32 -37
-59 20 c-32 12 -60 21 -61 21 -13 0 8 37 73 126 63 86 79 103 97 99 12 -2 42
-7 66 -10z m-564 -75 c57 -63 250 -171 417 -234 107 -40 170 -46 207 -19 18
12 12 0 -19 -43 -102 -138 -124 -166 -143 -176 -83 -44 -306 74 -504 266
l-108 105 60 60 c33 34 62 61 66 61 3 0 14 -9 24 -20z m-514 -127 c13 -34 19
-133 8 -133 -5 0 -7 17 -5 38 2 20 -3 56 -9 80 -15 47 -10 57 6 15z m3 -182
c-4 -17 -9 -30 -11 -27 -3 2 -2 19 2 36 9 41 17 33 9 -9z m-77 -7 c-3 -3 -12
-4 -19 -1 -8 3 -5 6 6 6 11 1 17 -2 13 -5z m-51 -25 c-8 -12 -12 -29 -9 -38 5
-13 3 -14 -7 -4 -11 10 -10 17 4 37 9 15 19 26 22 26 3 0 -2 -10 -10 -21z
m161 -66 c20 -18 42 -33 49 -33 7 0 29 -13 47 -30 19 -16 41 -30 49 -30 8 0
23 -7 34 -16 18 -15 18 -15 -3 -5 -27 14 -56 14 -48 1 3 -5 4 -10 2 -10 -3 0
-14 15 -25 34 -13 23 -33 38 -59 46 -21 7 -44 21 -51 32 -13 18 -65 49 -79 47
-4 0 -10 8 -14 19 -7 20 -7 20 27 -1 19 -12 51 -37 71 -54z m-107 18 c0 -12
-5 -11 -21 6 -13 13 -18 26 -14 34 6 9 11 7 22 -6 7 -11 13 -26 13 -34z m-76
-30 c3 -5 0 -11 -7 -14 -7 -3 -55 -34 -106 -71 -82 -58 -119 -73 -109 -45 4
13 190 139 204 139 7 0 15 -4 18 -9z m160 -7 c9 -24 7 -28 -9 -14 -17 14 -20
30 -6 30 5 0 12 -7 15 -16z m-29 -19 c11 -14 33 -27 48 -29 20 -2 34 -13 49
-37 l20 -34 -23 20 c-13 12 -37 27 -54 35 -46 22 -100 70 -78 70 9 0 26 -11
38 -25z m-87 -4 c-5 -14 -182 -151 -195 -151 -35 0 -12 24 79 89 98 68 124 82
116 62z m52 -30 c0 -5 -43 -44 -95 -87 -72 -58 -99 -74 -107 -66 -7 7 -10 13
-7 15 2 1 24 19 49 38 134 106 160 122 160 100z m180 -45 c-1 -6 -10 0 -20 13
-11 13 -20 28 -20 35 1 6 10 0 20 -13 11 -13 20 -28 20 -35z m-161 -28 c-122
-109 -150 -130 -164 -124 -8 3 -15 9 -14 13 0 4 43 43 95 85 63 51 101 75 111
71 13 -5 7 -15 -28 -45z m-7 -88 c-76 -77 -91 -88 -102 -75 -14 17 -21 9 99
114 48 42 87 69 89 62 2 -6 -36 -52 -86 -101z m324 56 c6 -17 15 -40 19 -51 8
-20 8 -20 -13 -1 -12 10 -19 23 -16 28 3 4 -5 24 -17 44 -20 33 -20 35 -3 24
11 -7 25 -26 30 -44z m-92 12 l19 -31 -26 19 c-15 10 -27 25 -27 32 0 22 15
13 34 -20z m44 1 c19 -30 -6 -21 -26 9 -12 19 -12 22 -1 17 8 -3 20 -15 27
-26z m77 3 c-3 -3 -11 0 -18 7 -9 10 -8 11 6 5 10 -3 15 -9 12 -12z m-131 -51
c4 -5 23 -15 44 -22 20 -6 48 -20 62 -29 14 -10 36 -21 50 -25 14 -4 48 -18
75 -30 28 -13 77 -34 110 -46 33 -11 75 -27 93 -35 18 -8 50 -17 71 -20 l38
-6 6 -91 c5 -76 11 -102 40 -159 18 -37 30 -68 26 -68 -4 0 -50 14 -101 31
-110 36 -313 132 -414 195 -40 24 -81 44 -91 44 -11 0 -32 -11 -47 -25 -15
-14 -31 -25 -36 -25 -4 0 -27 18 -50 40 -23 22 -69 64 -102 92 l-59 52 92 92
92 93 48 -24 c26 -14 50 -29 53 -34z m230 -40 l34 -51 -28 15 c-15 8 -30 25
-34 39 -3 13 -18 39 -33 58 l-28 33 27 -21 c16 -12 43 -45 62 -73z m-62 25
c10 -19 8 -18 -16 3 -14 14 -26 29 -26 34 0 13 29 -12 42 -37z m512 8 c3 -8 2
-12 -4 -9 -6 3 -10 10 -10 16 0 14 7 11 14 -7z m-1236 -40 c82 -48 191 -134
299 -238 117 -112 135 -125 176 -126 29 0 87 28 87 42 0 16 24 7 78 -28 30
-20 87 -56 128 -78 l73 -42 -29 -11 c-37 -14 -49 -53 -26 -89 16 -23 12 -22
-38 12 -49 32 -60 36 -93 29 -21 -4 -72 -8 -113 -8 -68 -1 -82 3 -133 32 -49
28 -192 132 -207 150 -3 4 -45 41 -95 83 -138 116 -243 168 -374 183 l-62 7
33 25 c18 13 68 42 110 63 87 44 102 43 186 -6z m1242 -29 c0 -5 -11 4 -25 20
-13 17 -24 35 -25 40 0 6 11 -3 25 -20 13 -16 24 -34 25 -40z m-412 33 c7 -7
12 -16 12 -20 0 -15 -15 -8 -28 12 -13 22 -3 27 16 8z m40 -13 c-3 -3 -9 2
-12 12 -6 14 -5 15 5 6 7 -7 10 -15 7 -18z m314 -20 c-3 -23 2 -43 17 -64 12
-16 21 -35 20 -43 0 -7 -4 -3 -9 10 -5 12 -23 30 -39 40 l-29 16 19 38 c11 21
21 38 22 38 2 0 1 -16 -1 -35z m-289 -19 c15 -22 15 -24 -1 -19 -10 2 -18 13
-18 24 0 24 0 24 19 -5z m38 7 c13 -16 12 -17 -3 -4 -17 13 -22 21 -14 21 2 0
10 -8 17 -17z m282 2 c4 -8 2 -17 -3 -20 -6 -4 -10 3 -10 14 0 25 6 27 13 6z
m-115 -15 c6 0 12 -5 12 -11 0 -5 -4 -8 -9 -4 -21 13 -22 -19 -1 -48 19 -25
20 -29 6 -24 -10 4 -20 7 -22 7 -2 0 -4 7 -4 16 0 9 -10 30 -22 47 l-22 30 25
-6 c13 -4 30 -7 37 -7z m-60 -28 c20 -30 11 -28 -19 4 -13 15 -18 25 -10 22 8
-2 21 -14 29 -26z m-38 -11 c0 -5 9 -13 21 -16 11 -4 18 -9 16 -11 -7 -7 -57
18 -57 28 0 4 5 8 10 8 6 0 10 -4 10 -9z m171 -22 l24 -20 -30 6 c-16 3 -37
13 -45 21 -24 24 23 18 51 -7z m-1351 -49 c86 -25 155 -68 270 -167 123 -106
232 -188 298 -225 61 -35 68 -45 15 -21 -72 33 -141 83 -308 223 -142 119
-217 162 -319 184 -60 12 -152 13 -186 0 -8 -3 -11 -1 -6 3 32 33 130 35 236
3z m1340 10 c12 -7 10 -9 -8 -7 -12 0 -22 5 -22 9 0 11 12 10 30 -2z m279
-245 c32 -38 66 -82 75 -97 l18 -28 -33 6 c-109 21 -196 114 -239 253 -11 35
-20 66 -20 69 0 12 141 -132 199 -203z m-1609 165 c60 -25 150 -86 150 -101 0
-5 -11 -9 -25 -9 -62 0 -221 -85 -279 -149 -11 -11 -22 -21 -27 -21 -4 0 -19
21 -34 46 -33 57 -74 100 -125 134 l-39 26 24 37 c19 27 36 39 68 47 23 6 47
13 52 15 6 2 48 2 95 1 63 -2 100 -9 140 -26z m1377 -163 c15 -27 47 -67 72
-88 41 -37 42 -51 1 -29 -45 24 -131 192 -129 252 0 13 7 -1 15 -31 8 -30 26
-76 41 -104z m-186 -151 c139 -51 199 -63 359 -71 91 -5 158 7 167 30 8 23 20
9 37 -43 18 -58 26 -111 18 -116 -4 -2 -24 -7 -46 -11 l-38 -8 17 26 c35 54
-11 119 -69 97 -46 -17 -59 -67 -26 -100 11 -11 20 -22 20 -24 0 -6 -216 2
-264 9 -87 14 -193 48 -265 86 -82 42 -136 81 -111 78 56 -6 85 27 71 79 -9
31 -9 31 12 18 12 -8 65 -30 118 -50z m-165 46 c32 -21 18 -72 -20 -72 -35 0
-52 25 -38 55 11 25 36 32 58 17z m-98 -122 c113 -79 232 -138 314 -154 13 -2
54 -11 92 -19 49 -11 121 -15 238 -14 92 1 168 1 168 0 0 -1 -24 -6 -52 -13
-136 -29 -367 -3 -539 60 -103 39 -140 58 -224 119 -78 57 -77 57 -159 47 -27
-3 -46 -2 -42 1 6 6 68 18 117 22 9 0 48 -21 87 -49z m-275 33 c-7 -2 -19 -2
-25 0 -7 3 -2 5 12 5 14 0 19 -2 13 -5z m50 -10 c-7 -2 -19 -2 -25 0 -7 3 -2
5 12 5 14 0 19 -2 13 -5z m993 -88 c9 -23 -15 -55 -42 -55 -17 0 -28 8 -36 26
-11 23 -10 29 11 45 18 15 27 16 42 8 11 -6 22 -16 25 -24z"/>
<path d="M2415 2104 c-49 -20 -95 -41 -101 -47 -7 -7 -15 -41 -18 -77 -8 -74
-19 -122 -46 -197 -24 -64 -19 -69 80 -78 107 -10 139 -9 154 5 36 29 85 186
80 255 -9 109 -28 176 -52 174 -4 0 -47 -16 -97 -35z m90 -60 c16 -88 7 -176
-28 -257 l-20 -48 -76 5 c-42 2 -79 5 -83 5 -4 1 -3 12 2 26 17 45 40 154 42
200 l1 44 71 30 c39 16 74 30 77 30 4 1 10 -15 14 -35z"/>
<path d="M799 859 c-29 -29 -23 -79 14 -99 24 -13 30 -13 54 0 15 8 30 28 34
44 6 22 3 33 -16 52 -30 29 -58 31 -86 3z m78 -29 c11 -22 10 -28 -7 -44 -16
-17 -23 -18 -45 -8 -29 13 -33 43 -9 67 22 21 46 15 61 -15z"/>
<path d="M816 823 c-4 -9 0 -23 9 -32 13 -14 17 -14 30 0 19 19 10 49 -15 49
-10 0 -21 -8 -24 -17z"/>
<path d="M1068 673 c-26 -31 -28 -41 -18 -67 20 -53 101 -53 114 0 16 63 -56
113 -96 67z m72 -22 c15 -29 12 -38 -5 -14 -19 28 -55 20 -55 -12 0 -13 5 -26
10 -28 6 -3 5 -4 -2 -3 -18 3 -22 44 -8 62 17 20 47 17 60 -5z m-10 -61 c-8
-5 -17 -7 -19 -4 -3 3 1 9 9 14 8 5 17 7 19 4 3 -3 -1 -9 -9 -14z"/>
<path d="M2001 263 c-23 -28 -21 -54 7 -85 34 -40 102 -9 102 47 0 62 -71 87
-109 38z m63 -3 c18 -6 26 -17 26 -34 0 -47 -50 -61 -76 -21 -12 18 -11 24 2
43 18 25 15 25 48 12z"/>
<path d="M2025 240 c-10 -15 5 -50 20 -50 17 0 34 30 28 48 -6 14 -39 16 -48
2z"/>
<path d="M1700 375 c-18 -21 -5 -47 22 -43 26 3 37 36 16 49 -18 12 -24 11
-38 -6z"/>
<path d="M2355 214 c-11 -12 -12 -20 -4 -35 14 -28 43 -20 47 12 4 32 -21 45
-43 23z"/>
</g>
</svg>
