<?xml version="1.0" standalone="no"?>
<!DOCTYPE svg PUBLIC "-//W3C//DTD SVG 20010904//EN"
 "http://www.w3.org/TR/2001/REC-SVG-20010904/DTD/svg10.dtd">
<svg version="1.0" xmlns="http://www.w3.org/2000/svg"
 width="792.000000pt" height="792.000000pt" viewBox="0 0 792.000000 792.000000"
 preserveAspectRatio="xMidYMid meet">
<metadata>
Created by potrace 1.11, written by Peter Selinger 2001-2013
</metadata>
<g transform="translate(0.000000,792.000000) scale(0.100000,-0.100000)"
fill="#000000" stroke="none">
<path d="M2743 7903 c-12 -10 -36 -30 -54 -45 -19 -14 -44 -35 -56 -45 -11
-10 -39 -32 -60 -50 -73 -59 -157 -138 -283 -263 -174 -174 -230 -237 -383
-430 -115 -145 -297 -439 -379 -610 -91 -191 -189 -434 -202 -504 -2 -6 -13
-44 -25 -85 -22 -73 -26 -87 -37 -145 -2 -16 -7 -33 -9 -36 -3 -4 -7 -25 -10
-46 -4 -22 -8 -46 -10 -54 -3 -8 -7 -33 -10 -55 -4 -22 -8 -47 -11 -56 -3 -9
-7 -39 -9 -65 -3 -27 -8 -65 -11 -84 -14 -89 -17 -162 -18 -395 -1 -227 7
-427 20 -487 2 -13 7 -43 9 -68 6 -61 33 -223 60 -360 3 -14 7 -36 10 -50 3
-14 19 -77 35 -140 17 -63 33 -126 36 -140 3 -14 14 -52 25 -84 10 -33 19 -65
19 -73 0 -7 4 -21 9 -31 5 -9 30 -80 56 -157 26 -77 52 -153 59 -170 7 -16 19
-46 26 -65 6 -19 16 -44 21 -55 4 -11 29 -72 55 -135 25 -63 53 -131 62 -150
9 -19 17 -37 18 -40 0 -3 8 -22 18 -43 32 -72 39 -32 21 118 -4 33 -8 69 -9
80 -2 11 -5 34 -9 50 -4 17 -9 52 -12 79 -3 27 -7 51 -9 55 -2 3 -7 29 -10 56
-3 28 -8 64 -11 80 -11 65 -15 92 -20 140 -3 28 -8 61 -10 75 -2 14 -7 52 -10
85 -4 33 -9 78 -12 100 -6 56 -15 159 -28 335 -19 272 -25 760 -11 995 9 158
13 220 16 220 0 0 3 20 5 45 5 59 13 129 19 160 3 14 7 43 10 65 4 22 13 74
21 115 8 41 17 87 20 103 9 48 15 77 31 146 21 88 23 98 28 119 2 9 10 37 17
62 7 25 14 52 15 61 6 32 86 275 126 384 39 108 52 140 78 200 8 17 14 32 15
35 12 40 143 305 202 409 29 51 53 97 53 101 0 5 4 10 8 12 4 2 30 39 56 83
27 44 52 82 57 83 5 2 9 8 9 13 0 8 72 114 100 146 5 7 10 16 10 22 0 5 4 11
8 13 5 2 42 50 83 108 42 58 100 139 130 180 78 105 85 120 42 83z"/>
<path d="M3596 7559 c-62 -15 -128 -58 -173 -114 -24 -29 -43 -55 -43 -59 0
-3 -11 -23 -24 -44 -68 -103 -219 -403 -265 -523 -31 -82 -78 -233 -87 -279
-2 -14 -7 -36 -9 -50 -21 -102 -25 -139 -25 -240 -1 -269 158 -409 363 -321
44 19 199 120 205 133 2 5 9 8 15 8 6 0 19 7 29 17 10 9 27 21 37 27 34 19
165 110 179 123 7 7 17 13 22 13 5 0 15 6 22 13 7 6 40 30 73 52 33 22 62 42
65 45 5 5 102 69 230 153 111 72 274 143 368 162 12 2 27 7 33 11 8 5 9 2 3
-8 -5 -9 -40 -40 -79 -69 -38 -29 -86 -67 -105 -84 -186 -163 -329 -312 -432
-450 -4 -5 -18 -23 -32 -40 -45 -58 -143 -211 -204 -320 -160 -287 -281 -651
-317 -954 -4 -30 -9 -63 -11 -75 -21 -106 -21 -511 1 -681 2 -16 6 -50 9 -75
8 -66 16 -121 23 -155 4 -16 6 -33 5 -37 -1 -3 6 -39 15 -80 8 -40 16 -80 17
-88 2 -8 6 -25 10 -37 4 -12 9 -32 11 -45 12 -61 28 -125 36 -140 5 -10 9 -24
9 -32 0 -27 108 -342 164 -479 98 -239 178 -403 301 -619 27 -48 140 -225 152
-240 57 -66 125 -231 137 -330 5 -40 0 -45 -25 -25 -203 157 -381 324 -544
511 -90 103 -93 108 -168 201 -27 33 -55 69 -64 79 -111 136 -362 503 -502
736 -91 151 -113 179 -139 180 -13 0 -34 -44 -33 -70 6 -204 -3 -798 -14 -910
-25 -267 -124 -667 -220 -895 -27 -64 -47 -139 -48 -177 -1 -32 5 -45 26 -63
25 -23 96 -48 167 -60 19 -3 54 -10 78 -16 23 -5 57 -11 75 -14 17 -2 48 -6
67 -9 137 -22 261 -30 470 -30 208 0 350 6 350 14 0 3 23 6 51 7 28 2 63 5 77
8 15 3 43 8 62 10 88 10 295 56 420 92 47 14 90 26 95 27 6 2 17 5 25 8 8 3
58 20 110 38 52 18 100 36 105 40 6 3 33 15 60 25 105 39 220 97 247 125 28
29 28 31 13 61 -9 17 -60 74 -113 128 -53 54 -131 135 -172 181 -41 45 -80 88
-85 94 -83 88 -332 419 -390 518 -5 10 -37 61 -70 115 -70 115 -67 110 -154
278 -97 186 -239 524 -256 608 -2 9 -7 22 -11 28 -5 8 -52 162 -69 229 -32
120 -71 283 -80 335 -42 242 -49 319 -49 525 0 140 9 314 18 329 2 3 7 27 10
53 4 26 9 53 11 60 2 7 6 24 9 38 5 26 23 95 51 190 9 30 20 69 25 85 14 53
18 -3 24 -390 3 -170 7 -332 11 -360 3 -27 7 -68 9 -90 3 -22 5 -40 6 -40 1 0
3 -16 5 -35 5 -40 23 -150 40 -235 4 -22 35 -164 39 -180 2 -5 6 -23 10 -40
98 -395 432 -1019 795 -1488 52 -67 98 -123 103 -125 4 -2 8 -8 8 -13 0 -5 11
-22 24 -37 13 -15 58 -67 100 -117 168 -196 361 -403 409 -437 16 -11 47 -22
70 -23 67 -4 99 17 260 171 84 81 92 95 72 133 -8 17 -19 31 -24 31 -9 0 -231
147 -241 159 -3 3 -27 24 -55 46 -128 102 -332 306 -460 460 -28 33 -58 69
-69 80 -10 11 -30 36 -44 55 -15 19 -29 37 -32 40 -20 19 -150 198 -150 207 0
6 -4 13 -9 15 -9 3 -94 132 -163 248 -58 97 -184 351 -225 455 -39 97 -93 244
-98 265 -2 8 -4 16 -5 18 -2 1 -3 5 -4 10 -1 4 -8 24 -15 45 -7 21 -11 40 -8
43 5 6 87 -111 87 -125 0 -5 4 -11 8 -13 10 -4 112 -157 112 -168 0 -5 3 -10
8 -12 6 -3 100 -138 112 -163 6 -12 61 -95 73 -110 4 -5 40 -55 79 -110 202
-283 445 -543 729 -780 13 -10 76 -59 139 -108 63 -48 122 -94 130 -100 29
-23 182 -132 201 -143 10 -6 27 -18 37 -27 10 -10 24 -17 30 -17 7 0 12 -3 12
-8 0 -11 77 -42 107 -42 84 0 345 420 517 834 32 76 59 144 61 150 1 6 5 18 8
26 25 65 92 287 102 339 2 10 13 63 25 116 11 54 23 119 26 144 3 25 7 57 10
71 26 147 25 630 -1 761 -3 13 -7 40 -9 59 -7 56 -17 114 -22 130 -3 8 -8 33
-11 55 -3 22 -9 48 -14 57 -5 9 -9 25 -9 35 0 30 -78 278 -126 402 -56 141
-153 344 -224 466 -29 50 -58 99 -64 110 -12 22 -126 194 -139 210 -4 6 -28
37 -53 70 -108 142 -159 200 -284 325 -110 109 -138 135 -230 210 -30 25 -57
47 -60 50 -3 4 -34 26 -70 51 -36 24 -67 46 -70 50 -3 3 -23 16 -45 29 -22 13
-42 26 -45 29 -7 8 -41 30 -60 38 -8 4 -33 18 -54 31 -134 84 -487 238 -631
276 -5 2 -17 6 -25 9 -94 36 -445 114 -605 133 -22 3 -51 7 -65 10 -47 10
-185 11 -224 3z m54 -611 c123 -53 195 -213 160 -357 -26 -110 -181 -300 -279
-344 -83 -36 -200 -19 -266 40 -103 92 -138 242 -87 373 5 14 9 27 9 30 -3 12
71 107 125 162 107 108 229 142 338 96z"/>
<path d="M2737 7195 c-72 -81 -217 -274 -217 -290 0 -3 -5 -11 -11 -18 -22
-26 -97 -147 -91 -147 4 0 2 -4 -4 -8 -23 -16 -255 -472 -264 -520 -1 -4 -8
-23 -16 -42 -22 -51 -95 -260 -99 -281 -2 -11 -7 -24 -10 -29 -3 -5 -8 -18
-10 -27 -2 -10 -13 -54 -25 -98 -11 -44 -23 -95 -26 -113 -2 -18 -8 -41 -13
-50 -5 -9 -9 -20 -9 -25 0 -9 -12 -90 -18 -120 -2 -12 -6 -42 -10 -67 -3 -25
-7 -61 -9 -80 -23 -180 -29 -351 -28 -825 0 -396 4 -597 18 -915 30 -676 24
-1130 -20 -1500 -3 -25 -7 -65 -10 -90 -3 -25 -8 -61 -10 -80 -3 -19 -7 -53
-10 -75 -6 -43 -10 -67 -25 -155 -16 -96 -20 -114 -25 -140 -3 -14 -14 -72
-26 -130 -11 -58 -38 -175 -60 -260 -22 -85 -42 -162 -44 -170 -32 -139 -195
-604 -272 -780 -41 -93 -46 -105 -49 -120 -2 -8 -1 -21 1 -29 6 -15 33 17 145
169 38 52 78 106 87 119 58 78 100 138 162 236 39 61 75 116 81 122 6 7 15 23
21 35 5 13 18 37 27 53 35 62 92 175 91 181 0 4 3 10 8 13 11 7 113 235 113
251 0 6 4 18 10 28 8 14 27 57 35 82 1 3 4 12 8 20 30 75 123 395 141 490 3
14 7 36 10 50 12 52 26 126 31 160 3 19 10 60 15 90 5 30 12 78 15 105 3 28 8
75 11 105 10 99 12 123 20 265 12 231 8 526 -11 795 -3 36 -7 101 -10 145 -6
84 -11 148 -20 255 -3 35 -8 96 -10 135 -3 38 -8 97 -10 130 -6 75 -13 167
-20 270 -3 44 -8 118 -11 165 -26 383 -33 666 -21 921 4 80 9 154 11 165 2 10
7 48 11 84 3 36 9 79 12 95 3 17 7 41 8 55 6 43 14 94 21 130 3 19 8 44 9 55
40 235 163 618 290 900 33 75 155 316 166 330 4 6 5 16 1 22 -5 7 -25 -8 -55
-42z"/>
</g>
</svg>
