<?xml version="1.0" encoding="UTF-8" standalone="no"?>
<svg
   xmlns:dc="http://purl.org/dc/elements/1.1/"
   xmlns:cc="http://creativecommons.org/ns#"
   xmlns:rdf="http://www.w3.org/1999/02/22-rdf-syntax-ns#"
   xmlns:svg="http://www.w3.org/2000/svg"
   xmlns="http://www.w3.org/2000/svg"
   xmlns:sodipodi="http://sodipodi.sourceforge.net/DTD/sodipodi-0.dtd"
   xmlns:inkscape="http://www.inkscape.org/namespaces/inkscape"
   version="1.1"
   id="Camada_1"
   x="0px"
   y="0px"
   viewBox="0 0 69.535982 98.549997"
   xml:space="preserve"
   sodipodi:docname="gsp-hospitalar-icon.svg"
   width="69.53598"
   height="98.550003"
   inkscape:version="1.0.1 (3bc2e813f5, 2020-09-07)"><metadata
   id="metadata47"><rdf:RDF><cc:Work
       rdf:about=""><dc:format>image/svg+xml</dc:format><dc:type
         rdf:resource="http://purl.org/dc/dcmitype/StillImage" /><dc:title></dc:title></cc:Work></rdf:RDF></metadata><defs
   id="defs45" /><sodipodi:namedview
   pagecolor="#ffffff"
   bordercolor="#666666"
   borderopacity="1"
   objecttolerance="10"
   gridtolerance="10"
   guidetolerance="10"
   inkscape:pageopacity="0"
   inkscape:pageshadow="2"
   inkscape:window-width="1366"
   inkscape:window-height="705"
   id="namedview43"
   showgrid="false"
   inkscape:zoom="2.132213"
   inkscape:cx="34.768457"
   inkscape:cy="53.700076"
   inkscape:window-x="-8"
   inkscape:window-y="-8"
   inkscape:window-maximized="1"
   inkscape:current-layer="g40"
   inkscape:document-rotation="0" />
<style
   type="text/css"
   id="style2">
	.st0{fill:#FFFFFF;}
	.st1{opacity:0.1;}
	.st2{clip-path:url(#SVGID_2_);}
	.st3{opacity:0.05;}
	.st4{clip-path:url(#SVGID_6_);}
	.st5{opacity:0.66;fill:url(#SVGID_9_);}
	.st6{clip-path:url(#SVGID_11_);}
	.st7{fill:url(#SVGID_12_);}
	.st8{clip-path:url(#SVGID_14_);}
	.st9{opacity:0.82;fill:#2A224C;}
	.st10{clip-path:url(#SVGID_16_);}
	.st11{fill:url(#SVGID_17_);}
	.st12{fill:#009BD5;}
	.st13{fill:#392862;}
	.st14{fill:#757575;}
	.st15{clip-path:url(#SVGID_19_);}
</style>
<g
   id="g40"
   transform="translate(-99.636539)">
	<g
   id="g10">
		<path
   class="st12"
   d="m 138.92,78.46 c -0.13,-1.43 -0.58,-2.78 -1.38,-3.97 -1.53,-2.26 -2.95,-4.58 -4.14,-7.04 -2.5,-5.13 -4.34,-10.47 -5.25,-16.12 -1.35,-8.41 -0.41,-16.46 3.77,-24 2.54,-4.59 6.02,-8.36 10.2,-11.51 0.13,-0.1 0.26,-0.21 0.39,-0.32 0.02,-0.02 0.02,-0.07 0.04,-0.16 -1.65,0.43 -3.24,0.98 -4.65,1.88 -2.37,1.51 -4.66,3.13 -6.99,4.71 -1.23,0.84 -2.45,1.7 -3.7,2.5 -0.45,0.29 -0.98,0.51 -1.5,0.61 -1.49,0.28 -2.69,-0.41 -3.27,-1.82 -0.55,-1.35 -0.5,-2.77 -0.32,-4.16 0.55,-4.24 2.43,-7.99 4.55,-11.62 0.13,-0.22 0.26,-0.43 0.38,-0.65 0.99,-1.89 2.56,-2.61 4.65,-2.37 5.35,0.62 10.5,1.92 15.34,4.33 7.69,3.83 13.32,9.73 17.32,17.26 2.23,4.2 3.77,8.63 4.44,13.34 1.01,7.09 -0.07,13.9 -2.8,20.48 -1.33,3.21 -2.95,6.26 -4.98,9.08 -1.14,1.59 -1.55,1.65 -3.16,0.54 -3.56,-2.46 -7.02,-5.05 -10.11,-8.11 -2.42,-2.4 -4.56,-5.04 -6.46,-7.87 -1.58,-2.35 -3.13,-4.72 -4.69,-7.08 -0.08,-0.12 -0.16,-0.23 -0.35,-0.29 0.25,0.75 0.51,1.49 0.76,2.24 2.32,6.96 6.32,12.88 11.27,18.21 2.24,2.41 4.66,4.6 7.52,6.27 0.78,0.46 0.86,0.86 0.26,1.49 -0.74,0.77 -1.51,1.52 -2.34,2.19 -1.06,0.86 -1.95,0.87 -2.92,-0.1 -1.45,-1.45 -2.84,-2.98 -4.17,-4.54 -3.27,-3.81 -6.28,-7.82 -8.72,-12.23 -2.03,-3.67 -3.87,-7.43 -4.79,-11.57 -0.76,-3.4 -1.28,-6.84 -1.23,-10.34 0.03,-2.02 0.01,-4.03 -0.14,-6.08 -0.33,1.16 -0.71,2.32 -0.99,3.49 -1.35,5.49 -0.73,10.9 0.67,16.28 2.68,10.29 7.87,19.13 15.46,26.58 0.36,0.35 0.72,0.71 1.03,1.1 0.42,0.55 0.36,0.95 -0.24,1.3 -0.69,0.4 -1.42,0.72 -2.15,1.04 -4.3,1.85 -8.79,3.02 -13.45,3.47 -4.48,0.43 -8.93,0.15 -13.32,-0.86 -1.84,-0.42 -2.13,-0.96 -1.47,-2.7 1.35,-3.53 2.44,-7.14 2.94,-10.89 0.3,-2.21 0.25,-4.48 0.32,-6.72 0.04,-1.57 0.02,-3.15 0.01,-4.72 0,-0.4 -0.1,-0.8 -0.05,-1.19 0.03,-0.26 0.23,-0.51 0.35,-0.76 0.24,0.15 0.58,0.23 0.7,0.45 3.62,6.25 7.76,12.12 12.83,17.29 1.35,1.38 2.95,2.53 4.43,3.78 0.01,-0.03 0.06,-0.08 0.1,-0.12 z M 124.24,17.55 c 0.12,0.36 0.25,1.08 0.58,1.68 1.14,2.06 3.52,2.49 5.23,0.91 0.77,-0.72 1.41,-1.6 1.98,-2.49 0.57,-0.89 0.69,-1.9 0.47,-2.97 -0.37,-1.85 -1.91,-3.07 -3.7,-2.83 -1,0.13 -1.79,0.71 -2.49,1.38 -1.11,1.09 -1.99,2.32 -2.07,4.32 z"
   id="path4" />
		<path
   class="st13"
   d="m 119.91,8.51 c -0.29,0.55 -0.58,1.1 -0.86,1.65 -3.67,7.06 -5.63,14.55 -5.87,22.51 -0.14,4.63 0.27,9.23 0.57,13.83 0.34,5.17 0.92,10.34 0.98,15.51 0.13,10.65 -2.06,20.76 -7.94,29.84 -1.26,1.95 -2.71,3.79 -4.08,5.67 -0.25,0.35 -0.53,0.69 -0.79,1.03 -0.08,-0.07 -0.17,-0.14 -0.25,-0.21 0.22,-0.56 0.44,-1.12 0.68,-1.67 2.91,-6.79 4.78,-13.87 5.78,-21.18 0.77,-5.63 0.92,-11.29 0.69,-16.96 -0.16,-4.05 -0.36,-8.09 -0.41,-12.14 -0.05,-3.73 -0.07,-7.47 0.15,-11.2 0.34,-5.8 1.93,-11.31 4.44,-16.55 1.43,-2.98 3.13,-5.79 5.12,-8.44 0.49,-0.65 1.07,-1.22 1.61,-1.83 0.06,0.06 0.12,0.1 0.18,0.14 z"
   id="path6" />
		<path
   class="st13"
   d="m 119.59,0 c -1.41,1.95 -2.81,3.86 -4.18,5.78 -5.15,7.22 -8.19,15.3 -9.78,23.97 -0.71,3.87 -0.98,7.78 -0.97,11.71 0.01,6.41 0.47,12.78 1.56,19.11 0.25,1.45 0.42,2.91 0.6,4.36 0.03,0.24 -0.03,0.49 -0.14,0.76 -0.12,-0.25 -0.25,-0.51 -0.36,-0.76 -2.52,-5.76 -4.65,-11.64 -5.78,-17.85 -2.2,-12.05 -0.49,-23.38 6.32,-33.75 3.39,-5.16 7.7,-9.46 12.53,-13.26 0.05,-0.03 0.11,-0.04 0.2,-0.07 z"
   id="path8" />
	</g>
	
</g>
</svg>
