<?xml version="1.0" standalone="no"?>
<svg viewBox="0 0 25.44 20.67" width="30" height="24" xmlns="http://www.w3.org/2000/svg">
	<path fill="currentColor" d="M17.93,17c-1.87,0-3.73,0-5.6,0c0.02,0.11,0.05,0.22,0.07,0.33c0.34,1.56-0.77,3.13-2.34,3.32
		c-1.16,0.14-2.25-0.42-2.8-1.45c-0.54-1.01-0.4-2.3,0.36-3.15c0.2-0.22,0.44-0.4,0.68-0.57c0.11-0.08,0.13-0.13,0.08-0.24
		c-0.5-1.32-1-2.63-1.5-3.95C5.93,8.74,4.97,6.21,4.02,3.67C3.81,3.13,3.6,2.59,3.41,2.05c-0.04-0.11-0.1-0.13-0.2-0.13
		c-0.75,0-1.49,0-2.24,0c-0.43,0-0.8-0.27-0.92-0.65c-0.13-0.43,0.01-0.88,0.38-1.1c0.15-0.09,0.34-0.15,0.52-0.15
		C1.94-0.01,2.93,0,3.92,0c0.49,0,0.8,0.2,0.98,0.66c0.33,0.87,0.66,1.73,0.98,2.6c0.04,0.1,0.08,0.14,0.19,0.14
		c3.05,0,6.1,0,9.14,0c3.07,0,6.14,0,9.21,0c0.72,0,1.16,0.59,0.95,1.29c-0.27,0.89-0.54,1.77-0.82,2.66
		c-0.47,1.53-0.94,3.07-1.41,4.6c-0.11,0.36-0.22,0.72-0.34,1.08c-0.15,0.46-0.48,0.7-0.95,0.7c-1.5,0-3,0-4.5,0
		c-1.55,0-3.1,0-4.65,0c-0.91,0-1.83,0-2.74,0c-0.04,0-0.08,0-0.14,0.01c0.04,0.11,0.07,0.21,0.11,0.31
		c0.11,0.3,0.23,0.59,0.33,0.89c0.04,0.11,0.1,0.15,0.22,0.15c1.74-0.01,3.48,0,5.22,0c1.62,0,3.24,0,4.85,0
		c1.69,0,2.97,1.54,2.71,3.24c-0.18,1.17-1.15,2.16-2.28,2.32c-1.29,0.18-2.45-0.46-2.96-1.62c-0.28-0.62-0.31-1.26-0.14-1.92
		C17.91,17.08,17.92,17.04,17.93,17z M6.68,5.33C6.68,5.36,6.68,5.38,6.69,5.4c0.34,0.91,0.69,1.82,1.03,2.73
		c0.04,0.12,0.12,0.12,0.21,0.12c1.34,0,2.69,0,4.03,0c0.06,0,0.11-0.01,0.18-0.01c-0.07-0.98-0.15-1.94-0.22-2.9
		C10.16,5.33,8.42,5.33,6.68,5.33z M18.32,5.33c-0.08,0.97-0.15,1.93-0.23,2.9c0.06,0,0.1,0.01,0.13,0.01c1.31,0,2.63,0,3.94,0
		c0.12,0,0.15-0.05,0.18-0.15c0.18-0.61,0.37-1.21,0.56-1.82c0.1-0.31,0.19-0.62,0.29-0.95C21.57,5.33,19.96,5.33,18.32,5.33z
		 M17.37,5.33c-1.51,0-3,0-4.5,0c0.07,0.98,0.15,1.94,0.22,2.9c0.04,0.01,0.06,0.01,0.07,0.01c1.29,0,2.57,0,3.86,0
		c0.11,0,0.13-0.04,0.14-0.14c0.04-0.58,0.09-1.15,0.13-1.73C17.32,6.03,17.35,5.69,17.37,5.33z M13.37,11.81c1.18,0,2.34,0,3.5,0
		c0.07-0.87,0.13-1.72,0.2-2.59c-1.31,0-2.6,0-3.9,0C13.24,10.09,13.3,10.94,13.37,11.81z M12.22,9.22c-1.37,0-2.72,0-4.07,0
		c0,0.03-0.01,0.04,0,0.05c0.31,0.82,0.61,1.64,0.93,2.46c0.02,0.04,0.1,0.09,0.15,0.09c1,0.01,2,0.01,3,0.01c0.06,0,0.12,0,0.19,0
		C12.35,10.94,12.28,10.09,12.22,9.22z M18.03,9.22c-0.07,0.87-0.14,1.73-0.2,2.59c0.05,0,0.08,0.01,0.1,0.01c1.06,0,2.12,0,3.19,0
		c0.1,0,0.13-0.05,0.15-0.13c0.16-0.54,0.33-1.07,0.49-1.61c0.09-0.29,0.18-0.57,0.26-0.87C20.67,9.22,19.36,9.22,18.03,9.22z
		 M20.57,18.76c0.48,0,0.87-0.4,0.86-0.89c0-0.47-0.41-0.88-0.88-0.88c-0.46,0-0.87,0.43-0.86,0.9
		C19.69,18.37,20.09,18.76,20.57,18.76z M8.82,17.87c0,0.49,0.38,0.89,0.86,0.89c0.5,0,0.88-0.38,0.88-0.89
		c0-0.47-0.39-0.87-0.86-0.88C9.23,16.99,8.83,17.39,8.82,17.87z" />
</svg>