<?xml version="1.0" standalone="no"?>
<svg viewBox="0 0 46.61 29.98" width="37" height="24" xmlns="http://www.w3.org/2000/svg">
	<path fill="currentColor" class="st4" d="M27.02,25.98c-1.2,1.3-2.41,2.61-3.69,4c-1.25-1.36-2.46-2.67-3.71-4.03c-2.61,2.26-5.59,3.32-9.01,3
			c-2.94-0.28-5.42-1.55-7.46-3.68C-0.45,21.5-1.72,14.12,3.76,8.7C2.55,7.38,1.34,6.06,0,4.59c0.46-0.02,0.72-0.05,0.98-0.05
			c2.24,0,4.49,0.02,6.73-0.02C8.2,4.52,8.75,4.37,9.17,4.11C13.61,1.32,18.46-0.07,23.69,0c5.03,0.07,9.69,1.48,13.94,4.19
			c0.32,0.21,0.76,0.33,1.14,0.34c2.29,0.03,4.58,0.02,6.87,0.02c0.27,0,0.53,0,0.8,0c0.03,0.06,0.06,0.12,0.09,0.18
			c-1.21,1.32-2.41,2.64-3.66,4c2.64,2.6,3.95,5.72,3.72,9.4c-0.19,2.94-1.39,5.47-3.49,7.55C39.26,29.47,32.42,30.6,27.02,25.98z
				M11.69,25.13c4.31,0.01,7.82-3.45,7.83-7.71c0.01-4.36-3.48-7.89-7.82-7.89c-4.28,0-7.78,3.5-7.79,7.77
			C3.9,21.64,7.36,25.12,11.69,25.13z M34.93,25.13c4.31,0,7.8-3.45,7.8-7.73c0.01-4.34-3.45-7.86-7.76-7.87
			c-4.31-0.02-7.84,3.5-7.85,7.79C27.12,21.64,30.6,25.13,34.93,25.13z M31.78,5.62c-5.04-2.33-12.32-2.19-16.84-0.01
			c0.79,0.43,1.62,0.82,2.38,1.32c0.76,0.5,1.5,1.05,2.16,1.68c0.67,0.64,1.3,1.36,1.83,2.13c0.51,0.75,0.94,1.57,1.29,2.41
			c0.34,0.81,0.52,1.69,0.76,2.48C24.24,10.74,27.33,7.62,31.78,5.62z" />
	<path fill="currentColor" class="st4" d="M11.7,21.49c-2.34-0.01-4.16-1.84-4.15-4.19c0.01-2.31,1.89-4.16,4.21-4.14c2.28,0.02,4.11,1.88,4.11,4.17
			C15.87,19.67,14.03,21.5,11.7,21.49z" />
	<path fill="currentColor" class="st4" d="M39.09,17.36c-0.01,2.33-1.85,4.15-4.2,4.13c-2.33-0.02-4.14-1.87-4.12-4.21c0.02-2.27,1.89-4.12,4.17-4.11
			C37.26,13.17,39.1,15.03,39.09,17.36z" />
</svg>