<?xml version="1.0" standalone="no"?>
<!DOCTYPE svg PUBLIC "-//W3C//DTD SVG 20010904//EN"
 "http://www.w3.org/TR/2001/REC-SVG-20010904/DTD/svg10.dtd">
<svg version="1.0" xmlns="http://www.w3.org/2000/svg"
 width="764.000000pt" height="764.000000pt" viewBox="0 0 764.000000 764.000000"
 preserveAspectRatio="xMidYMid meet">
<metadata>
Created by potrace 1.14, written by Peter Selinger 2001-2017
</metadata>
<g transform="translate(0.000000,764.000000) scale(0.100000,-0.100000)"
fill="#000000" stroke="none">
<path d="M3765 7032 c-40 -4 -184 -31 -260 -49 -16 -4 -32 -7 -35 -8 -32 -7
-258 -59 -300 -70 -30 -7 -68 -16 -85 -18 -16 -3 -52 -10 -80 -17 -60 -14 -81
-19 -117 -25 -37 -7 -64 -18 -208 -82 -69 -31 -132 -63 -141 -70 -8 -7 -18
-13 -22 -13 -7 0 -439 -213 -472 -233 -11 -7 -48 -31 -83 -54 -35 -24 -65 -43
-67 -43 -3 0 -13 -8 -23 -17 -80 -78 -192 -173 -202 -173 -5 0 -10 -4 -12 -9
-1 -5 -43 -41 -93 -82 -49 -40 -95 -78 -101 -83 -6 -6 -40 -36 -74 -66 -35
-30 -82 -75 -104 -99 -23 -24 -48 -52 -56 -60 -18 -20 -175 -214 -210 -261
-14 -18 -71 -91 -128 -163 -153 -194 -173 -226 -301 -484 -33 -67 -75 -148
-92 -180 -17 -32 -56 -107 -86 -168 -30 -60 -59 -119 -65 -129 -11 -21 -76
-216 -82 -250 -7 -37 -18 -79 -48 -186 -16 -58 -39 -139 -50 -180 -11 -41 -22
-82 -25 -90 -4 -8 -6 -18 -5 -22 1 -4 -3 -20 -9 -35 -6 -15 -13 -37 -15 -48
-2 -11 -8 -42 -14 -70 -16 -80 -18 -87 -24 -150 -4 -33 -9 -80 -11 -105 -3
-25 -7 -65 -10 -90 -6 -60 -15 -151 -20 -199 -2 -22 -8 -75 -12 -118 -9 -84
-9 -546 0 -603 3 -19 8 -62 12 -95 3 -33 8 -71 10 -85 2 -14 6 -59 10 -100 3
-41 13 -102 21 -135 14 -59 161 -364 191 -397 12 -14 75 -38 138 -53 6 -1 17
-5 25 -8 56 -22 170 -42 170 -30 0 7 -29 54 -115 188 -53 81 -88 168 -99 240
-8 57 -16 95 -26 135 -4 19 -12 60 -15 90 -4 30 -9 64 -12 75 -5 22 -8 42 -17
100 -4 22 -9 45 -11 52 -2 7 -7 45 -11 85 -13 126 -7 852 7 933 4 22 10 60 13
85 3 25 11 72 17 105 6 33 13 71 14 85 2 14 11 66 21 115 9 50 18 99 19 110 2
11 6 34 9 50 4 17 9 46 12 65 13 79 47 227 59 258 8 17 12 32 10 32 -3 0 2 17
10 38 8 20 36 98 64 172 104 284 221 555 262 603 21 27 129 198 129 206 0 5 3
11 8 13 4 2 23 28 42 58 37 59 148 229 177 270 34 48 79 95 328 343 226 224
263 257 382 335 117 77 352 227 452 289 41 25 239 123 249 123 4 0 70 21 147
46 77 25 147 47 155 50 8 2 75 24 149 49 73 25 143 47 155 50 11 2 48 11 81
20 33 8 76 17 95 20 84 14 174 25 232 30 62 5 124 12 183 19 17 2 57 7 90 11
33 3 69 8 80 9 11 2 49 7 85 11 36 4 76 9 90 11 35 5 327 4 370 -1 19 -2 69
-6 110 -10 121 -11 133 -12 175 -18 84 -13 165 -19 305 -23 80 -2 154 -6 165
-8 11 -2 29 -5 39 -5 35 -2 8 -13 -41 -18 -45 -4 -87 -23 -51 -23 9 0 20 -4
23 -10 5 -9 -75 -13 -194 -11 -24 1 -213 -44 -261 -61 -8 -3 -51 -18 -95 -33
-78 -27 -323 -121 -397 -153 -45 -20 -49 -32 -10 -27 41 6 173 16 374 29 54 4
132 16 175 27 147 39 228 59 258 64 17 3 37 8 45 10 8 2 35 7 60 10 24 4 47 8
50 10 3 2 30 6 60 10 30 4 57 8 60 10 3 2 37 7 75 11 126 14 216 10 315 -14
52 -12 133 -32 180 -43 47 -11 94 -22 105 -24 11 -3 56 -13 100 -24 44 -10 97
-23 118 -29 52 -15 46 -7 -15 21 -29 14 -82 38 -118 55 -127 60 -500 199 -580
217 -8 2 -28 9 -45 15 -16 6 -37 14 -45 16 -8 2 -98 28 -200 58 -102 30 -207
57 -235 61 -27 4 -61 9 -75 11 -65 10 -194 14 -545 20 -209 3 -425 6 -480 7
-55 1 -113 1 -130 -1z m1485 -246 c0 -3 -4 -8 -10 -11 -5 -3 -10 -1 -10 4 0 6
5 11 10 11 6 0 10 -2 10 -4z"/>
<path d="M4017 6774 c-1 -1 -41 -5 -88 -8 -106 -7 -133 -11 -289 -42 -69 -13
-134 -26 -146 -28 -23 -5 -96 -22 -259 -62 -60 -14 -119 -28 -130 -29 -11 -2
-47 -10 -80 -18 -33 -9 -71 -18 -85 -21 -51 -10 -139 -46 -265 -109 -71 -36
-204 -101 -295 -146 -189 -93 -222 -111 -305 -167 -109 -75 -377 -282 -383
-296 -2 -5 -7 -8 -12 -8 -23 0 -199 -177 -264 -265 -11 -14 -28 -36 -39 -48
-11 -12 -31 -38 -46 -57 -14 -19 -28 -37 -31 -40 -3 -3 -27 -32 -55 -65 -130
-156 -151 -189 -224 -350 -18 -38 -36 -77 -41 -85 -6 -8 -16 -28 -24 -45 -7
-16 -38 -82 -68 -145 -81 -168 -84 -177 -123 -293 -28 -85 -67 -233 -90 -350
-2 -9 -6 -21 -9 -26 -3 -5 -8 -26 -12 -47 -3 -20 -10 -48 -15 -61 -31 -82 -51
-211 -65 -408 -3 -49 -8 -103 -10 -120 -2 -16 -6 -64 -9 -105 -3 -41 -8 -91
-12 -110 -3 -19 -7 -100 -7 -180 0 -126 3 -188 19 -325 1 -16 6 -59 9 -95 4
-36 9 -83 12 -105 3 -22 7 -60 9 -85 21 -216 49 -375 112 -625 30 -121 64
-236 75 -255 11 -19 51 -76 90 -127 72 -97 86 -105 140 -84 13 5 31 12 41 15
17 5 17 7 1 38 -9 18 -20 35 -23 38 -16 13 -82 113 -99 152 -11 23 -29 77 -42
118 -43 145 -91 305 -97 320 -4 8 -5 19 -4 23 1 5 -14 7 -34 4 -35 -5 -36 -4
-69 62 -56 112 -58 121 -71 328 -4 54 -8 118 -11 143 -4 58 -5 471 0 530 2 25
7 74 10 110 4 36 9 103 11 150 7 171 28 322 61 455 3 11 7 31 10 45 3 14 12
52 21 85 8 33 17 69 18 80 1 11 3 20 4 20 2 0 4 9 6 20 9 47 50 208 76 302 28
98 61 182 130 328 18 39 33 72 34 75 11 38 147 311 165 332 6 7 83 110 171
228 155 209 243 310 327 378 22 18 53 45 69 60 150 139 280 248 353 297 64 43
381 205 400 205 6 0 10 5 10 10 0 6 4 10 9 10 6 0 58 23 118 51 189 90 291
125 608 210 17 4 55 15 85 24 50 15 216 59 265 70 54 13 81 18 95 20 8 1 24 4
35 8 11 4 36 9 55 12 19 3 58 9 85 14 28 5 77 12 110 15 33 4 78 12 100 18 38
10 86 19 113 20 6 1 12 5 12 10 0 7 -136 9 -143 2z"/>
<path d="M6205 6526 c11 -8 24 -16 30 -16 5 0 57 -18 115 -39 58 -22 158 -59
223 -83 64 -23 117 -47 117 -52 0 -4 -7 -5 -16 -2 -9 3 -39 9 -67 12 -29 4
-59 10 -68 15 -9 4 -18 6 -21 4 -2 -3 -31 0 -63 5 -191 31 -742 34 -990 6 -16
-2 -61 -7 -100 -10 -38 -4 -83 -9 -100 -12 -16 -3 -48 -7 -69 -9 -60 -7 -142
-20 -156 -25 -3 -1 -8 -2 -13 -1 -4 1 -26 -3 -50 -8 -23 -6 -55 -12 -72 -15
-16 -3 -42 -8 -57 -11 -55 -11 -354 -87 -398 -102 -25 -8 -52 -16 -60 -18 -68
-14 -446 -154 -568 -211 -41 -19 -76 -34 -78 -34 -11 0 -425 -210 -434 -221
-3 -3 -32 -21 -65 -39 -33 -19 -64 -38 -70 -42 -5 -4 -47 -34 -92 -66 -45 -31
-94 -68 -110 -82 -23 -21 -117 -96 -181 -145 -104 -79 -398 -426 -539 -635
-82 -123 -257 -446 -300 -555 -6 -17 -23 -57 -36 -90 -21 -53 -58 -156 -63
-177 -1 -5 -3 -10 -4 -13 -1 -3 -4 -9 -5 -15 -1 -5 -4 -12 -5 -15 -3 -6 -3 -6
-14 -55 -5 -19 -11 -39 -14 -45 -4 -5 -8 -21 -10 -35 -2 -14 -10 -48 -18 -76
-8 -28 -16 -60 -18 -70 -3 -11 -9 -39 -14 -64 -6 -25 -13 -63 -17 -85 -7 -44
-13 -70 -15 -70 -1 0 -3 -18 -5 -40 -1 -22 -6 -60 -10 -85 -4 -25 -9 -135 -11
-245 -2 -110 -5 -211 -7 -225 -13 -75 -21 -106 -30 -117 -5 -7 -7 -13 -3 -13
3 0 1 -12 -5 -27 -6 -16 -12 -37 -15 -47 -5 -26 -24 -87 -34 -111 -5 -11 -11
-32 -14 -47 -3 -14 -15 -47 -26 -72 -11 -26 -19 -47 -19 -49 0 -1 -18 -37 -41
-80 -23 -44 -39 -81 -37 -84 7 -7 47 53 47 71 0 9 3 16 8 16 4 0 13 15 21 33
7 17 43 90 78 160 35 71 66 137 69 148 2 10 6 29 9 41 3 13 8 37 10 53 3 17 7
41 10 55 3 14 7 41 10 60 3 19 7 46 10 60 10 45 28 206 40 345 5 58 12 111 20
165 2 14 7 45 10 70 20 148 130 530 179 625 9 17 16 37 16 46 0 9 7 22 15 29
8 7 15 18 15 25 0 16 98 215 115 235 8 8 14 20 14 25 0 11 186 293 221 335 11
14 56 73 100 131 73 97 241 267 385 389 28 23 61 52 75 64 14 11 43 34 65 50
22 17 42 33 45 36 3 3 28 22 55 41 28 18 52 36 55 39 14 14 102 70 110 70 6 0
10 5 10 10 0 6 5 10 12 10 6 0 55 29 107 65 81 54 137 80 356 166 385 150 605
219 890 280 33 7 62 13 65 14 15 4 97 18 110 20 8 1 24 4 35 8 11 3 43 8 70
12 28 3 57 8 65 10 8 2 38 7 65 11 28 3 61 7 75 9 390 53 923 53 1240 1 14 -3
48 -7 75 -10 58 -7 131 -16 160 -21 11 -2 36 -6 55 -9 19 -3 51 -8 70 -11 19
-2 46 -7 60 -10 14 -3 41 -8 60 -11 19 -3 44 -7 55 -9 11 -3 36 -7 55 -10 92
-16 414 -100 536 -141 75 -25 138 -44 139 -42 2 2 -17 15 -43 28 -26 13 -67
36 -92 50 -25 15 -74 42 -110 62 -36 20 -121 67 -190 105 -69 39 -150 84 -180
100 -30 17 -80 45 -110 62 -30 18 -75 41 -100 52 -25 11 -61 28 -80 39 -19 11
-117 61 -217 111 -140 70 -185 89 -200 81 -20 -10 -52 -9 -98 2 -29 7 -29 7
-10 -8z"/>
<path d="M2448 5208 c-91 -90 -178 -181 -194 -202 -16 -21 -34 -44 -40 -50 -6
-6 -23 -32 -39 -56 -15 -25 -31 -47 -34 -50 -25 -19 -195 -362 -185 -373 3 -2
-2 -10 -11 -17 -8 -7 -15 -19 -15 -27 0 -8 -7 -27 -14 -41 -15 -28 -57 -119
-62 -137 -2 -5 -31 -94 -66 -197 -35 -102 -65 -192 -67 -200 -20 -71 -63 -227
-66 -243 -3 -11 -11 -47 -19 -80 -16 -64 -18 -72 -40 -205 -21 -121 -27 -167
-31 -230 -2 -30 -4 -55 -5 -55 0 0 -3 -72 -5 -160 -4 -156 -9 -223 -21 -315
-4 -25 -8 -56 -9 -70 -7 -71 -21 -162 -30 -191 -4 -10 -4 -19 0 -19 8 0 24 46
31 89 8 45 12 66 14 66 2 0 5 16 14 60 3 17 8 41 11 55 25 121 42 279 50 475
7 154 14 235 30 340 7 44 44 205 55 241 6 17 13 42 16 55 3 13 6 29 7 34 2 6
6 15 9 21 4 6 9 21 12 35 18 87 146 481 176 539 10 19 52 105 95 190 42 85 81
160 87 167 5 7 17 27 27 45 32 63 185 299 228 353 28 36 28 36 77 100 20 28
57 70 80 95 63 67 109 120 103 120 -2 0 -79 -73 -169 -162z"/>
<path d="M3467 5084 c-3 -3 -44 -6 -91 -8 -120 -2 -119 -2 -121 -171 -1 -74 1
-135 4 -136 3 0 80 -1 171 -2 176 -2 210 -11 251 -61 44 -54 43 -11 46 -1851
2 -1609 0 -1754 -15 -1800 -20 -62 -36 -81 -86 -107 -35 -18 -58 -20 -198 -20
l-158 1 0 -160 0 -159 38 -1 c181 -3 1622 -4 1640 -1 42 8 54 43 55 155 0 95
-12 156 -30 158 -5 0 -17 2 -28 5 -11 2 -69 5 -130 7 -162 6 -213 25 -249 95
-24 46 -26 121 -28 905 -3 703 -2 760 14 771 13 10 152 12 602 12 321 -1 588
-5 593 -9 13 -14 9 -1584 -5 -1633 -21 -74 -72 -129 -132 -142 -23 -6 -272 -2
-281 4 -4 2 -15 -6 -23 -18 -22 -35 -20 -261 3 -289 17 -21 20 -21 853 -22
647 -1 839 2 851 11 20 17 24 284 4 300 -7 6 -73 12 -152 13 -236 4 -271 29
-291 214 -8 79 -8 3367 1 3425 11 76 27 118 55 145 48 46 109 55 278 43 23 -2
42 -1 42 2 0 4 13 5 30 2 42 -6 50 22 50 173 0 118 -1 125 -22 136 -25 13
-171 19 -204 7 -12 -4 -25 -4 -28 0 -4 3 -331 6 -728 6 -633 1 -724 -1 -741
-14 -17 -14 -19 -30 -18 -145 1 -96 5 -133 15 -143 10 -11 46 -14 136 -14 67
-1 141 -5 163 -10 74 -16 114 -61 133 -148 4 -19 8 -362 10 -762 2 -547 -1
-728 -9 -729 -69 -4 -1187 0 -1195 4 -14 9 -9 1492 5 1528 19 45 62 87 107
104 35 13 69 16 179 12 113 -4 139 -2 149 10 16 20 17 266 0 286 -10 12 -137
19 -309 18 -7 0 -60 0 -118 0 -58 0 -112 0 -120 0 -8 0 -62 0 -120 0 -58 0
-112 0 -120 0 -8 0 -62 0 -120 0 -58 0 -112 0 -120 0 -8 0 -62 0 -120 0 -58 0
-112 0 -120 0 -8 0 -62 -1 -119 -2 -58 -1 -109 1 -114 5 -5 3 -12 3 -15 0z"/>
</g>
</svg>
