<?xml version="1.0" encoding="UTF-8" standalone="no"?>
<svg xmlns="http://www.w3.org/2000/svg" viewBox="0 0 202.23 25.18" width="202.23" height="25.18">
   <g id="g10" transform="translate(-0.3,0.01)">
      <path class="st0" d="m 99.66,12.64 c 0,1.46 -0.24,2.92 -0.72,4.4 -0.48,1.47 -1.18,2.82 -2.1,4.02 -0.92,1.21 -2.03,2.19 -3.33,2.96 -1.3,0.77 -2.78,1.15 -4.42,1.15 h -26.2 c -1.57,-0.08 -2.97,-0.51 -4.2,-1.29 -1.23,-0.79 -2.27,-1.77 -3.13,-2.96 -0.86,-1.19 -1.52,-2.51 -1.98,-3.97 -0.46,-1.46 -0.69,-2.89 -0.69,-4.31 0,-1.46 0.24,-2.92 0.72,-4.4 0.48,-1.47 1.18,-2.82 2.1,-4.02 0.92,-1.21 2.03,-2.19 3.33,-2.96 1.3,-0.77 2.78,-1.15 4.42,-1.15 h 26.2 c 1.57,0.08 2.97,0.51 4.19,1.29 1.23,0.79 2.27,1.77 3.13,2.96 0.86,1.19 1.52,2.51 1.98,3.97 0.47,1.46 0.7,2.89 0.7,4.31 m -11.78,7.01 c 1.3,0 2.38,-0.24 3.22,-0.72 0.84,-0.48 1.5,-1.06 1.98,-1.75 0.48,-0.69 0.8,-1.45 0.98,-2.27 0.17,-0.82 0.26,-1.58 0.26,-2.27 0,-0.69 -0.09,-1.45 -0.26,-2.27 C 93.89,9.55 93.56,8.79 93.08,8.1 92.6,7.41 91.94,6.83 91.1,6.35 90.26,5.87 89.18,5.63 87.88,5.63 H 64.66 c -1.34,0 -2.42,0.24 -3.25,0.72 -0.82,0.48 -1.47,1.06 -1.95,1.75 -0.48,0.69 -0.8,1.45 -0.98,2.27 -0.17,0.82 -0.26,1.58 -0.26,2.27 0,0.69 0.09,1.45 0.26,2.27 0.17,0.82 0.5,1.58 0.98,2.27 0.48,0.69 1.13,1.27 1.95,1.75 0.82,0.48 1.91,0.72 3.25,0.72 z M 15.47,12.64 c 0,-0.77 0.27,-1.42 0.8,-1.95 0.54,-0.54 1.19,-0.8 1.95,-0.8 h 22.01 c 0.96,0 1.86,0.18 2.7,0.55 0.84,0.36 1.58,0.86 2.21,1.49 0.63,0.63 1.12,1.38 1.47,2.24 0.34,0.86 0.52,1.77 0.52,2.73 v 1.26 c 0,0.96 -0.17,1.87 -0.52,2.73 -0.34,0.86 -0.83,1.61 -1.47,2.24 -0.63,0.63 -1.37,1.13 -2.21,1.49 -0.84,0.36 -1.74,0.55 -2.7,0.55 H 10.3 C 8.73,25.17 7.33,24.79 6.1,24.02 4.87,23.25 3.83,22.27 2.97,21.06 2.11,19.85 1.45,18.5 0.99,17.01 0.53,15.52 0.3,14.06 0.3,12.64 0.3,11.18 0.54,9.72 1.02,8.24 1.5,6.77 2.2,5.42 3.12,4.22 4.04,3.01 5.15,2.03 6.45,1.26 7.75,0.49 9.23,0.11 10.87,0.11 h 33.5 c 0.77,0 1.42,0.27 1.95,0.8 0.54,0.54 0.8,1.19 0.8,1.95 0,0.77 -0.27,1.42 -0.8,1.95 -0.54,0.54 -1.19,0.8 -1.95,0.8 H 12.14 C 10.8,5.61 9.72,5.85 8.89,6.33 8.07,6.83 7.41,7.41 6.94,8.1 6.46,8.79 6.14,9.55 5.96,10.37 5.79,11.2 5.7,11.95 5.7,12.64 c 0,0.69 0.09,1.45 0.26,2.27 0.17,0.82 0.5,1.58 0.98,2.27 0.48,0.69 1.13,1.27 1.95,1.75 0.82,0.48 1.91,0.72 3.25,0.72 h 27.87 c 0.46,0 0.87,-0.21 1.24,-0.63 0.36,-0.42 0.55,-0.92 0.55,-1.49 0,-0.57 -0.16,-1.07 -0.49,-1.49 -0.33,-0.42 -0.76,-0.63 -1.29,-0.63 H 18.23 c -0.77,0 -1.42,-0.27 -1.95,-0.8 -0.54,-0.55 -0.81,-1.2 -0.81,-1.97 z" id="path4" />
      <path class="st1" d="m 197.03,2.76 c 0,-0.77 0.27,-1.42 0.8,-1.95 0.54,-0.54 1.19,-0.8 1.95,-0.8 0.77,0 1.42,0.27 1.95,0.8 0.54,0.54 0.8,1.19 0.8,1.95 v 16.72 c 0,1.57 -0.53,2.89 -1.58,3.97 -1.05,1.07 -2.37,1.61 -3.94,1.61 -0.54,0 -1.06,-0.08 -1.58,-0.23 -0.52,-0.15 -0.99,-0.36 -1.41,-0.63 L 167.72,8.1 c -0.73,-0.42 -1.33,-0.76 -1.81,-1.01 -0.48,-0.25 -0.87,-0.37 -1.18,-0.37 -0.57,0 -0.94,0.36 -1.09,1.09 -0.15,0.73 -0.23,1.78 -0.23,3.16 V 22.3 c 0,0.77 -0.27,1.42 -0.8,1.95 -0.54,0.54 -1.19,0.8 -1.95,0.8 -0.77,0 -1.42,-0.27 -1.95,-0.8 -0.54,-0.54 -0.8,-1.19 -0.8,-1.95 V 5.57 c 0,-1.57 0.53,-2.89 1.58,-3.97 1.05,-1.07 2.37,-1.61 3.94,-1.61 0.54,0 1.06,0.08 1.58,0.23 0.52,0.15 0.99,0.36 1.41,0.63 l 26.32,16.09 c 0.73,0.42 1.33,0.76 1.81,1.01 0.48,0.25 0.87,0.37 1.18,0.37 0.57,0 0.94,-0.36 1.09,-1.09 0.15,-0.73 0.23,-1.78 0.23,-3.16 V 2.76 Z m -44.88,9.77 c 0,1.46 -0.24,2.92 -0.72,4.4 -0.48,1.48 -1.18,2.82 -2.1,4.02 -0.92,1.21 -2.03,2.19 -3.33,2.96 -1.3,0.77 -2.78,1.15 -4.42,1.15 h -26.2 c -1.57,-0.08 -2.97,-0.51 -4.2,-1.29 -1.23,-0.79 -2.27,-1.77 -3.13,-2.96 -0.86,-1.19 -1.52,-2.51 -1.98,-3.97 -0.46,-1.46 -0.69,-2.89 -0.69,-4.31 0,-1.46 0.24,-2.92 0.72,-4.4 0.48,-1.47 1.18,-2.82 2.1,-4.02 0.92,-1.21 2.03,-2.19 3.33,-2.96 1.3,-0.77 2.78,-1.15 4.42,-1.15 h 26.2 c 1.57,0.08 2.97,0.51 4.19,1.29 1.23,0.79 2.27,1.77 3.13,2.96 0.86,1.19 1.52,2.51 1.98,3.97 0.47,1.45 0.7,2.89 0.7,4.31 z m -11.79,7.01 c 1.3,0 2.38,-0.24 3.22,-0.72 0.84,-0.48 1.5,-1.06 1.98,-1.75 0.48,-0.69 0.8,-1.45 0.98,-2.27 0.17,-0.82 0.26,-1.58 0.26,-2.27 0,-0.69 -0.09,-1.45 -0.26,-2.27 -0.17,-0.82 -0.5,-1.58 -0.98,-2.27 -0.48,-0.69 -1.14,-1.27 -1.98,-1.75 -0.84,-0.48 -1.92,-0.72 -3.22,-0.72 h -23.22 c -1.34,0 -2.42,0.24 -3.25,0.72 -0.82,0.48 -1.47,1.06 -1.95,1.75 -0.48,0.69 -0.8,1.45 -0.98,2.27 -0.17,0.82 -0.26,1.58 -0.26,2.27 0,0.69 0.09,1.45 0.26,2.27 0.17,0.82 0.5,1.58 0.98,2.27 0.48,0.69 1.13,1.27 1.95,1.75 0.82,0.48 1.91,0.72 3.25,0.72 z" id="path6" />
   </g>
</svg>
