<!-- Generated by IcoMoon.io -->
<svg version="1.1" xmlns="http://www.w3.org/2000/svg" width="32" height="32" viewBox="0 0 32 32">
<title>h-left</title>
<path d="M22.56 27.456h-12.832l-6.432-11.136 6.432-11.104h12.832l6.432 11.104-6.432 11.136zM10.656 25.856h10.976l5.504-9.536-5.472-9.504h-11.008l-5.504 9.504 5.504 9.536zM19.36 19.84c0.192-0.384 0.032-0.864-0.384-1.056l-4.64-2.336 4.64-2.336c0.416-0.192 0.576-0.672 0.384-1.056-0.224-0.384-0.704-0.544-1.088-0.352l-7.52 3.744 7.52 3.744c0.128 0.064 0.224 0.096 0.352 0.096 0.288 0 0.576-0.16 0.736-0.448z"></path>
</svg>
