<!-- Generated by IcoMoon.io -->
<svg version="1.1" xmlns="http://www.w3.org/2000/svg" width="32" height="32" viewBox="0 0 32 32">
<title>h-right</title>
<path d="M9.664 27.456l-6.432-11.136 6.432-11.104h12.832l6.432 11.104-6.432 11.136h-12.832zM5.088 16.32l5.504 9.536h11.008l5.472-9.536-5.472-9.504h-11.008l-5.504 9.504zM13.952 20.192l7.52-3.744-7.52-3.744c-0.384-0.192-0.864-0.032-1.056 0.352s-0.032 0.864 0.352 1.056l4.64 2.336-4.64 2.336c-0.384 0.192-0.544 0.672-0.352 1.056 0.128 0.288 0.416 0.448 0.704 0.448 0.128 0 0.256-0.032 0.352-0.096z"></path>
</svg>
