<?xml version="1.0" encoding="UTF-8"?>
<svg width="20" height="20" version="1.1" viewBox="0 0 20 20" xmlns="http://www.w3.org/2000/svg">
    <title>menu</title>
    <path d="m3.6 7h12.8c0.552 0 0.6-0.447 0.6-1s-0.048-1-0.6-1h-12.8c-0.552 0-0.6 0.447-0.6 1s0.048 1 0.6 1z"/>
    <path d="m16.4 13h-12.8c-0.552 0-0.6 0.447-0.6 1s0.048 1 0.6 1h12.8c0.552 0 0.6-0.447 0.6-1s-0.048-1-0.6-1z"/>
    <path d="m16.4 9h-12.8c-0.552 0-0.6 0.447-0.6 1s0.048 1 0.6 1h12.8c0.552 0 0.6-0.447 0.6-1s-0.048-1-0.6-1z"/>
</svg>
