<?xml version="1.0" standalone="no"?>
<!DOCTYPE svg PUBLIC "-//W3C//DTD SVG 1.1//EN" "http://www.w3.org/Graphics/SVG/1.1/DTD/svg11.dtd" >
<svg xmlns="http://www.w3.org/2000/svg" xmlns:xlink="http://www.w3.org/1999/xlink" version="1.1">
<metadata></metadata>
<defs>
<font id="aguafina_scriptregular" horiz-adv-x="741" >
<font-face units-per-em="2048" ascent="1638" descent="-410" />
<missing-glyph horiz-adv-x="360" />
<glyph horiz-adv-x="0" />
<glyph unicode="&#xd;" horiz-adv-x="667" />
<glyph unicode=" "  horiz-adv-x="360" />
<glyph unicode="&#x09;" horiz-adv-x="360" />
<glyph unicode="&#xa0;" horiz-adv-x="360" />
<glyph unicode="!" horiz-adv-x="477" d="M0 65q0 59 45 114.5t101.5 55.5t56.5 -68q0 -60 -44 -115.5t-99 -55.5q-60 0 -60 69zM213 398q0 8 6 19q175 307 267 510q40 90 102.5 213.5t106.5 202.5l42 78q44 82 156 82q54 0 55 -30q0 -6 -4 -18q-16 -42 -67.5 -127t-139.5 -222t-137 -217l-299 -487 q-20 -23 -64 -23q-24 0 -24 19z" />
<glyph unicode="&#x22;" horiz-adv-x="492" d="M488 1222q0 25 23 87t47 112l22 48q23 48 117 48q56 0 56 -25q0 -23 -106.5 -150.5t-150.5 -135.5q-8 0 -8 16zM703 1222q0 25 23 87t44 112l25 48q19 48 116 48q56 0 56 -25q0 -23 -106 -150.5t-151 -135.5q-7 0 -7 16z" />
<glyph unicode="#" horiz-adv-x="1003" d="M186 626q0 16 25.5 43.5t47.5 27.5h210l85 150h-205q-34 0 -33 20q0 16 25 43t46 27h219l101 179q9 18 20.5 27t21.5 11t28 2q44 0 44 -22q0 -6 -7 -16l-102 -181h190l100 179q9 18 20.5 27t21.5 11t28 2q44 0 44 -22q0 -6 -6 -16l-103 -181h197q35 0 35 -18 q0 -19 -23 -43.5t-48 -28.5h-211l-84 -150h203q34 0 34 -19t-23.5 -43t-46.5 -29h-217l-107 -189q-24 -38 -92 -38q-22 0 -22 19q0 6 7 18l105 190h-186l-107 -189q-24 -38 -92 -38q-22 0 -22 19q0 6 6 18l106 190h-199q-34 0 -34 20zM578 697h186l85 150h-187z" />
<glyph unicode="$" horiz-adv-x="896" d="M-153 -12l4 12q50 111 121.5 244t117.5 212l46 78q48 80 77 80q22 0 22 -24l-4 -18q-96 -186 -97 -333q0 -157 86 -215l412 738q-4 10 -20 63.5t-21 71.5t-15 57.5t-13 68.5t-3 59q0 184 151.5 303.5t342.5 131.5l42 73q2 7 17 22.5t29 15.5q30 0 30 -23q0 -6 -2 -10 l-42 -78q20 0 43.5 -4t38.5 -4q27 0 62 12q52 16 73 17q24 0 24 -20.5t-63 -133t-152 -240.5q-13 -10 -24 -10q-14 0 -14 24q0 27 13 95t13 95q0 71 -52 99q-20 -38 -73.5 -131.5t-106.5 -188.5t-102 -183q10 -31 32.5 -97t33.5 -105t22 -97.5t11 -108.5 q0 -249 -196.5 -421.5t-435.5 -172.5h-26l-40 -70q-16 -29 -56 -29q-23 0 -23 13l6 14q16 30 44 80q-38 8 -72 19t-48 19l-16 6q-14 8 -28 8q-10 0 -57 -16t-81 -16q-31 0 -31 18zM281 0q20 -6 50 -6q109 0 195 76.5t127.5 178.5t41.5 199q0 98 -36 228zM766 1176 q1 -68 17 -142l238 427q-118 -2 -186.5 -88t-68.5 -197z" />
<glyph unicode="%" horiz-adv-x="1209" d="M-69 -42l15 18q1461 1436 1565 1535q40 38 75 38q26 0 26 -11q-1 -7 -9 -15l-1569 -1541q-36 -32 -84 -32q-18 0 -19 8zM358 950q0 116 73 252.5t192 233t234 96.5q64 0 98.5 -37.5t34.5 -101.5q0 -109 -74.5 -247.5t-195 -240.5t-232.5 -102q-130 0 -130 147zM486 946 q0 -79 58 -79q50 0 130.5 99t140.5 231t60 216q0 68 -50 68q-54 0 -135 -95t-142.5 -223.5t-61.5 -216.5zM590 121q0 116 73.5 252.5t192.5 233t234 96.5q64 0 98 -37.5t34 -101.5q0 -109 -74 -247.5t-194.5 -240.5t-233.5 -102q-130 0 -130 147zM718 117q0 -79 59 -79 q50 0 130.5 99.5t140 231t59.5 215.5q0 69 -50 69q-53 0 -134.5 -95.5t-143 -224t-61.5 -216.5z" />
<glyph unicode="&#x26;" horiz-adv-x="1105" d="M56 245q0 117 58 231t153 204t201 158.5t216 117.5q6 1 10.5 6t4.5 9l2 2q42 147 106 260.5t133 174.5t130.5 91.5t111.5 30.5q48 0 48 -69q0 -107 -109.5 -212t-237.5 -167l-14 -14q-104 -343 -112 -840q0 -11 7 -11l8 3q98 67 174.5 186.5t76.5 215.5q0 102 -98 131 q-10 7 -10 17q0 12 20 17q76 8 175 8q76 0 116 -4q20 -4 21 -21q-37 -112 -100 -217t-126.5 -174.5t-120.5 -122.5t-93 -78l-37 -23q-6 -4 -9.5 -10.5t-3.5 -8.5v-4q5 -178 55 -272l5 -15q0 -16 -16 -16q-46 0 -104.5 69.5t-72.5 155.5q-2 10 -10 11l-8 -3 q-151 -73 -277 -72q-114 0 -193.5 68t-79.5 187zM253 311q4 -221 203 -221q32 0 67 6t53 13l18 6q16 6 17 29q-10 71 -11 172q0 238 70 555q0 10 -11 10q-115 -60 -198.5 -140t-121.5 -153t-60 -137t-24 -102zM895 1156q0 -9 7 -10q4 0 5 2q8 4 20 13t45 37t58 57.5 t45.5 70.5t20.5 81q1 28 -24 28q-50 0 -113.5 -116.5t-63.5 -162.5z" />
<glyph unicode="'" horiz-adv-x="278" d="M488 1222q0 25 23 87t47 112l22 48q23 48 117 48q56 0 56 -25q0 -23 -106.5 -150.5t-150.5 -135.5q-8 0 -8 16z" />
<glyph unicode="(" horiz-adv-x="431" d="M94 193q0 144 52.5 314.5t104.5 269.5l52 98q14 27 38.5 70t104.5 155t162.5 201.5t203.5 170.5t238 98h11q31 0 31 -11q0 -8 -22 -23q-12 -4 -34.5 -15.5t-89.5 -58.5t-132 -108t-153.5 -176t-164.5 -253q-12 -19 -33 -54.5t-74.5 -140t-93.5 -206t-73 -233.5t-33 -243 l8 -98q0 -26 -17 -26q-42 0 -64 99t-22 170z" />
<glyph unicode=")" horiz-adv-x="543" d="M-191 -65q0 8 22 25q12 4 34 15t90 58t133 108.5t153 175.5t165 253q11 20 32.5 55.5t74.5 140.5t93 206.5t73 234t33 242.5q0 56 -3 83q0 4 -1 8.5t-1 6.5q0 25 13 25q44 0 66 -98.5t22 -171.5q0 -136 -50.5 -304.5t-89 -246t-66.5 -127.5q-23 -36 -35.5 -60 t-66.5 -104.5t-99.5 -139.5t-118.5 -138.5t-140.5 -131.5t-148.5 -89t-158 -37q-26 0 -26 11z" />
<glyph unicode="*" horiz-adv-x="490" d="M517 1369q0 32 195 40q-3 60 -3 81q0 86 24 86q30 0 62 -129q149 115 193 114q4 0 6 -2q0 -30 -131 -150q147 -10 146 -32q0 -34 -195 -42q4 -52 5 -85q0 -82 -22 -82q-35 0 -64 132q-155 -116 -189 -116q-4 0 -6 2q0 34 126 151q-147 6 -147 32z" />
<glyph unicode="+" horiz-adv-x="884" d="M253 747q0 15 25 42.5t47 27.5h291l169 299q24 40 90 40q44 0 44 -22q0 -6 -6 -16l-168 -301h276q34 0 34 -18q0 -20 -23 -44.5t-46 -28.5h-293l-174 -309q-11 -38 -92 -38q-42 0 -42 19q0 6 6 18l175 310h-279q-34 0 -34 21z" />
<glyph unicode="," horiz-adv-x="368" d="M-78 -176q0 11 9 27q2 2 22.5 36.5t28.5 50.5t19 46t15 54q0 69 42 124t97 55q65 0 64 -58q0 -67 -94.5 -179t-168.5 -158q-12 -8 -23 -8t-11 10z" />
<glyph unicode="-" horiz-adv-x="862" d="M263 427q0 16 25 43.5t47 27.5h536q35 0 35 -19t-23.5 -43t-47.5 -28h-538q-34 0 -34 19z" />
<glyph unicode="." horiz-adv-x="346" d="M0 50q0 56 45 111.5t99 55.5q60 0 61 -68q0 -58 -45.5 -110.5t-99.5 -54.5q-29 0 -44.5 18t-15.5 48z" />
<glyph unicode="/" horiz-adv-x="414" d="M-255 -52l10 18q1451 1485 1551 1585q39 39 73 39q46 0 46 -20q0 -7 -6 -13l-1553 -1589q-29 -29 -99 -28q-23 0 -22 8z" />
<glyph unicode="0" horiz-adv-x="1069" d="M115 269q0 147 73 357.5t213.5 425t301.5 333.5q206 153 417 153q119 0 182 -82.5t63 -225.5q0 -184 -101.5 -410t-251 -413.5t-335 -315t-342.5 -127.5q-109 0 -164.5 81t-55.5 224zM319 247q0 -191 121 -191q124 0 262.5 149.5t241 353t170.5 408.5t68 320 q0 180 -127 180q-138 0 -315.5 -218.5t-299 -508.5t-121.5 -493z" />
<glyph unicode="1" horiz-adv-x="489" d="M-48 -10q0 29 36 112.5t88 185t103.5 198t89.5 165.5l36 65q327 544 327 645q0 44 -72 44l-74 -10q-32 0 -32 16q0 6 4 13t8 11l3 4q16 9 50.5 24.5t154 42t257.5 26.5q23 -6 23 -25q0 -15 -23 -38q-65 -69 -172 -255q-195 -337 -303 -553q-16 -33 -73.5 -150.5 t-82.5 -167.5t-73.5 -134.5t-92.5 -148.5q-70 -96 -152 -96q-30 0 -30 26z" />
<glyph unicode="2" horiz-adv-x="824" d="M-167 10l10 34q56 82 215 233.5t289 260.5l130 111q81 68 132.5 113.5t145.5 140.5t144.5 182t50.5 158q0 61 -44.5 98.5t-108.5 37.5q-71 0 -138 -43t-99 -86l-32 -42q-17 -26 -32 -26q-18 0 -19 26q0 8 7.5 37t33.5 81.5t65 98.5t113 80.5t169 34.5q117 0 209 -56.5 t92 -173.5q0 -245 -354 -485q-118 -76 -384.5 -308t-266.5 -310q0 -25 25 -27q71 -11 161 -11q245 0 327 112q14 20 31 20t17 -18q0 -7 -4 -14q-36 -97 -71.5 -161t-54.5 -80l-18 -16q-26 -25 -181 -24q-32 0 -108 2t-128 2q-71 0 -178 -2t-117 -2q-29 0 -29 22z" />
<glyph unicode="3" horiz-adv-x="864" d="M-102 -74.5q0 7.5 9 12t17 6.5h9q54 -10 93 -11q145 0 287.5 84.5t233.5 227t91 295.5q0 71 -29 126.5t-70 85t-82 49.5t-72 26l-27 4q-16 2 -17 16q0 10 10 24q10 12 26 12q117 0 238.5 40t213.5 128.5t92 200.5q0 73 -42 117t-115 44q-48 0 -103 -21t-87 -44l-30 -19 q-10 -8 -20 -8q-17 0 -18 29q0 2 10 19.5t37 46t65.5 53.5t103.5 44t141 19q115 0 189 -55.5t74 -155.5q0 -86 -42 -161.5t-113 -128t-145.5 -88.5t-153.5 -58q-17 -10 -17 -20q0 -6 9 -12q6 -4 18.5 -12t42.5 -38.5t52 -64t41 -90t19 -118.5q0 -116 -56.5 -236t-152.5 -216 t-236.5 -157t-297.5 -61q-124 0 -182 46q-14 12 -14 19.5z" />
<glyph unicode="4" horiz-adv-x="832" d="M26 500l8 30q33 36 89.5 97t218.5 222.5t306.5 292t317 255t286.5 160.5q12 2 25 2q40 0 39 -25q0 -10 -4 -19q-12 -26 -91 -162.5t-207.5 -357t-216.5 -375.5q44 2 86 5t67 6t34 3q20 0 20 -14q0 -8 -8 -22q-65 -119 -197 -132q-33 -4 -92 -8l-199 -376 q-37 -56 -104 -96t-125 -40q-24 0 -24 26l2 16q30 67 257 466h-54l-393 12q-41 1 -41 34zM281 662q0 -19 30 -26q126 -16 298 -18l404 692q8 16 8 24.5t-8 8.5l-21 -8q-173 -119 -347 -278.5t-262 -261.5l-88 -100q-14 -16 -14 -33z" />
<glyph unicode="5" horiz-adv-x="816" d="M-86 -69q0 8 8.5 13.5t17.5 7.5l8 2q184 0 359 119.5t277 288t102 320.5q0 67 -28 113t-73 65t-80.5 26t-71.5 7q-10 0 -28 -3t-26 -3q-28 0 -28 22l4 18q15 38 97 177t154 259l72 120q12 17 44 18l48 -2q46 -2 117.5 -3.5t133.5 -1.5q151 0 199 11q8 2 15 2q19 0 19 -17 q0 -39 -53 -106.5t-140 -67.5q-32 0 -84 1.5t-73 1.5q-169 0 -224 -11q-36 -2 -56 -38q-98 -157 -110 -196q-2 -8 -2 -15q1 -15 18 -15q157 0 255 -88.5t98 -243.5q0 -193 -120.5 -383.5t-315 -311.5t-395.5 -121q-34 0 -66 4t-46 8l-14 2q-12 10 -12 21z" />
<glyph unicode="6" horiz-adv-x="874" d="M73 222q0 113 60 285.5t167.5 358.5t239.5 348.5t295 268t313 105.5q38 0 68 -8q16 -10 16 -23t-22 -13q-13 0 -40.5 -5t-112 -45.5t-168.5 -112t-202.5 -225.5t-226.5 -363q-2 -6 -2 -12q0 -8 4 -9q7 0 17 13q18 18 50.5 46t118 74.5t153.5 46.5q80 0 129 -56.5 t49 -148.5q0 -161 -84.5 -337.5t-240.5 -304.5t-335 -128q-246 0 -246 245zM241 180q0 -58 27 -101t83 -43q80 0 187.5 118.5t184 281t76.5 280.5q0 135 -90 135q-89 0 -204.5 -113.5t-195.5 -295.5q-69 -157 -68 -262z" />
<glyph unicode="7" horiz-adv-x="734" d="M16 88q0 69 28.5 148.5t83 160t109 151t134 151t126.5 126.5t118 111.5t82 72.5q68 65 155 166.5t87 138.5q0 8 -6 14.5t-14 8.5h-6q-82 8 -164 8q-79 0 -139 -8t-82 -16l-22 -11q-14 -8 -24 -8l-20 23q2 8 6.5 19.5t22 44t37.5 57.5t53 45t72 20q277 0 389 -16 q13 0 23 10q98 90 147 90q25 0 25 -23q0 -16 -9.5 -39.5t-21 -42.5t-32 -46t-33.5 -43t-33 -40t-24 -28q-50 -60 -197 -209q-38 -38 -99.5 -104t-197.5 -237t-209 -306q-76 -134 -118 -218q-147 -293 -201 -293q-23 0 -34.5 47t-11.5 75z" />
<glyph unicode="8" horiz-adv-x="979" d="M38 273q0 117 66.5 226.5t176.5 191t212.5 139t213.5 101.5q9 4 9 21q-28 102 -28 250q0 137 124.5 234.5t299.5 97.5q123 0 201 -45t78 -141q0 -235 -456 -459q-8 -2 -8 -14l6 -22q6 -23 14.5 -58t15 -79t12.5 -98t6 -104q0 -244 -173 -395t-410 -151 q-163 0 -261.5 76.5t-98.5 228.5zM228 215q0 -91 50.5 -141.5t137.5 -50.5q116 0 203.5 77.5t127.5 185t40 218.5q0 160 -52 365q0 12 -11 12q-6 0 -10 -2q-44 -16 -116 -66.5t-159.5 -131.5t-149 -206.5t-61.5 -259.5zM869 1262q0 -98 6 -144t32 -168q4 -6 12 -6q6 0 10 2 q125 66 205 174t80 230q0 60 -37 95.5t-93 35.5q-82 0 -148.5 -64.5t-66.5 -154.5z" />
<glyph unicode="9" horiz-adv-x="934" d="M-86 -78q0 9 13 15.5t21 6.5q104 0 211.5 46t194 120t166.5 164t140 179t104 163.5t67 120.5l24 46q5 12 5.5 16t-3.5 4l-20 -10q-169 -169 -323 -169q-165 0 -165 209q0 155 77.5 320.5t221 282.5t308.5 117q118 0 186 -66t68 -190q0 -111 -42 -241.5t-87 -222 t-127 -233.5q-79 -131 -164 -243t-201 -226.5t-254 -181t-281 -66.5q-140 0 -140 39zM524 851q0 -125 90 -125q96 0 203.5 118.5t174.5 271t67 261.5q0 122 -96 122q-94 0 -199 -116.5t-172.5 -269t-67.5 -262.5z" />
<glyph unicode=":" horiz-adv-x="402" d="M0 50q0 56 45 111.5t99 55.5q60 0 61 -68q0 -58 -45.5 -110.5t-99.5 -54.5q-29 0 -44.5 18t-15.5 48zM360 697q0 56 45 111t99 55q60 0 60 -68q0 -58 -45.5 -110.5t-99.5 -54.5q-28 0 -43.5 18t-15.5 49z" />
<glyph unicode=";" horiz-adv-x="433" d="M-78 -176q0 11 9 27q2 2 22.5 36.5t28.5 50.5t19 46t15 54q0 69 42 124t97 55q65 0 64 -58q0 -67 -94.5 -179t-168.5 -158q-12 -8 -23 -8t-11 10zM375 697q0 56 45.5 111t98.5 55q60 0 61 -68q0 -58 -45.5 -110.5t-99.5 -54.5q-28 0 -44 18t-16 49z" />
<glyph unicode="&#x3c;" horiz-adv-x="747" d="M299 747q0 15 7 29.5t15 20.5l6 6q102 74 275 178q195 117 287 163q54 24 115 24q53 0 53 -16q0 -13 -27 -32q-500 -275 -561 -343q-11 -12 -11 -28q4 -58 170 -347q10 -12 10 -27q0 -26 -46 -26q-70 0 -106 38q-46 50 -116.5 178t-70.5 182z" />
<glyph unicode="=" horiz-adv-x="1003" d="M257 642q0 16 25 43t47 27h697q34 0 33 -17q0 -20 -22.5 -44.5t-46.5 -28.5h-699q-34 0 -34 20zM385 851q0 15 25 42.5t48 27.5h696q35 0 34 -17q0 -20 -22.5 -44.5t-47.5 -28.5h-699q-34 0 -34 20z" />
<glyph unicode="&#x3e;" horiz-adv-x="762" d="M109 351q0 12 27 30q498 278 561 343q10 12 10 33q0 48 -171 343q-10 11 -10 26q0 26 48 26q70 0 106 -38q42 -48 114.5 -184.5t72.5 -176.5q0 -14 -7 -27.5t-13 -18.5l-8 -6q-104 -77 -277 -182q-143 -86 -285 -161q-40 -25 -120 -25q-48 0 -48 18z" />
<glyph unicode="?" horiz-adv-x="787" d="M69 62q0 60 44 115.5t98 55.5q59 0 59 -68q0 -60 -45 -115.5t-100.5 -55.5t-55.5 68zM269 383q0 96 52 177q37 55 100 101t128 77.5t164 99.5t191 154q7 6 19 18.5t44.5 51t57.5 78.5t45 96.5t20 108.5q0 11 -3 28.5t-31 46.5t-77 29q-132 0 -228 -122.5t-105 -271.5 q-2 -19 -20 -19q-10 0 -15 4q-58 50 -59 138q0 136 131 230.5t282 94.5q291 0 291 -235q0 -60 -26 -116t-61 -95.5t-96.5 -81.5t-104.5 -64t-111 -56q-83 -41 -153 -88t-113 -86t-74 -73t-44 -54l-11 -18q-31 -52 -66.5 -100.5t-58.5 -69.5l-19 -21q-14 -14 -29 -14 q-19 0 -20 52z" />
<glyph unicode="@" horiz-adv-x="1480" d="M10 18q0 220 121.5 448.5t303 395t399.5 273t407 106.5q178 0 286.5 -88t108.5 -256q0 -191 -90.5 -382.5t-216 -323t-253.5 -215t-211 -83.5q-90 0 -90 109q0 60 24 143t48 136l26 54q8 16 8 22.5t-2 6.5t-24 -23q-338 -365 -441 -365q-41 0 -41 60q0 109 66.5 254 t166 274t230.5 219t250 90q26 0 45.5 -7t28.5 -13l8 -6q4 0 10 6q88 112 143 112q23 0 22 -17q0 -27 -31 -87q-212 -393 -260 -476q-121 -216 -121 -318q0 -54 46 -55q52 0 139.5 63t175 163.5t151.5 248t64 294.5q0 171 -94 266t-265 95q-193 0 -374.5 -106.5t-308 -269 t-204 -358t-77.5 -372.5q0 -118 55.5 -189t168.5 -71q120 0 234 96q10 4 20 4q14 0 14 -10q0 -6 -6 -19q-30 -54 -79 -96t-93 -61t-94.5 -31t-72.5 -14.5t-34 -2.5q-155 0 -221 109t-66 267zM590 209q0 -27 21 -27q28 0 61 31q12 9 32 27.5t79.5 79.5t114 126.5t123.5 163 t119 193.5q2 4 2 7q0 14 -35 15q-90 0 -217.5 -131.5t-213.5 -279t-86 -205.5z" />
<glyph unicode="A" horiz-adv-x="906" d="M2 -30q6 283 513 877q-99 118 -202 118q-142 0 -142 -264v-15q0 -26 -12 -25q-31 0 -46 72t-15 122q0 82 37 146t116 64q155 0 297 -180q120 140 258 283.5t213 216.5l77 74q124 186 204 186q20 0 21 -17q0 -12 -9 -29q-176 -347 -322 -782q-184 -553 -185 -849 q0 -92 22 -135q8 -9 8 -19q0 -14 -25 -15q-53 0 -89.5 27t-51 71.5t-21 79.5t-6.5 71q0 60 22 178.5t22 173.5q0 80 -35 189.5t-93 199.5q-65 -88 -118 -176.5t-74 -130.5l-21 -45q-73 -149 -143 -271t-104 -170l-33 -46q-23 -26 -41 -26q-22 0 -22 46zM588 829 q84 -128 130 -293q6 -18 10 -19l11 19q50 171 121 354.5t117 281.5l46 96q6 12 6.5 16.5t-6.5 4.5l-21 -8q-221 -193 -414 -452z" />
<glyph unicode="B" horiz-adv-x="900" d="M-132 -69q0 33 19 79q31 66 84 177.5t212.5 395.5t310.5 501q153 220 236 301q30 30 47 30q10 0 10 -17q0 -3 -4 -27q-18 -80 -143 -295q-249 -406 -361 -659q-74 -142 -74 -262q0 -69 36 -112t100 -43q92 0 180 74.5t145.5 179t94 212.5t36.5 183q0 178 -165 216 q-2 8 -2 16q0 25 29 28q154 0 274.5 115.5t120.5 266.5q0 84 -62.5 149t-231.5 65q-182 0 -294.5 -100.5t-112.5 -228.5q0 -36 15 -66q7 -15 7 -26q0 -12 -11 -12q-10 0 -19 4q-14 6 -34 16t-53.5 50t-33.5 88q0 132 163 227.5t394 95.5q25 0 55.5 -2t100.5 -18t123.5 -43 t96 -85t42.5 -137q0 -82 -39.5 -151t-104.5 -116t-136.5 -77.5t-148.5 -46.5q-13 -6 -13 -12q0 -4 11 -10q6 -4 18.5 -10t41.5 -32t52.5 -57.5t41 -85.5t17.5 -114q0 -232 -171.5 -421t-396.5 -189q-110 0 -166 54t-56 151l4 44q0 16 -9 16l-12 -8q-48 -81 -100 -148 t-80 -95l-28 -27q-29 -26 -42.5 -25.5t-13.5 23.5z" />
<glyph unicode="C" horiz-adv-x="879" d="M56 193q0 316 183.5 661t469.5 563q17 14 48.5 33t116.5 52.5t156 33.5q54 0 94 -17q4 -2 10 -2q14 0 22 15q42 33 130 33h5h15q29 0 29 -27q0 -44 -65.5 -141t-121.5 -163t-100 -114q-75 -78 -104 -78q-14 0 -15 19q0 71 115 276q2 4 20 31.5t26 47t8 35.5q0 35 -54 35 q-44 0 -97.5 -28.5t-83.5 -56.5l-32 -28q-213 -197 -384.5 -519t-171.5 -585q0 -191 119 -191h1q16 0 37.5 4t72.5 27t100.5 64.5t114.5 126.5t123 200q15 32 41.5 91.5t42 87.5t25.5 28q13 0 21 -25t8 -44q0 -74 -50 -156q-52 -88 -125 -177.5t-165.5 -173t-203 -135.5 t-215.5 -52q-166 0 -166 249z" />
<glyph unicode="D" horiz-adv-x="944" d="M-98 -4l6 20q19 48 56.5 132.5t173 331t289.5 477.5q144 217 230 301q28 31 46 31q13 0 13 -25q0 -15 -2 -19q-17 -79 -128 -295q-366 -646 -458 -900q-2 -6 -2 -14q0 -19 16 -22q12 -2 36 -2q177 0 364.5 170.5t310 426.5t122.5 487q0 168 -96 282t-261 114 q-84 0 -139.5 -47t-55.5 -135q0 -70 43 -144q3 -12 3 -24q0 -16 -11 -16q-6 0 -18 6q-46 24 -102.5 100t-56.5 159q0 64 48 102.5t104 49t125 10.5q260 0 414 -162.5t154 -440.5q0 -169 -82.5 -347t-219 -322.5t-333 -236.5t-407.5 -92q-40 0 -78 3t-54 5l-19 4 q-32 8 -31 32z" />
<glyph unicode="E" horiz-adv-x="892" d="M-90 14q0 15 8 32q114 257 431 781l-90 2q-27 0 -26.5 16t17.5 29t35 13h102l243 390q31 54 31 98q0 30 -13.5 52t-27.5 30l-14 8q-18 10 -18 23q0 7 7 13t16 8l7 2q207 12 430 12q184 0 297 -10q30 0 30 -25q0 -6 -6 -23q-67 -167 -134 -261q-10 -9 -23 -9q-17 0 -17 25 q9 38 9 82q0 165 -164 165h-8q-102 0 -147 -56q-102 -126 -273 -436q-19 -34 -50 -86h301q20 0 20 -12t-17 -28t-37 -18q-124 -6 -277 -6h-24q-283 -513 -337 -697q-8 -24 -9 -44q0 -60 107 -60q44 0 96 17t127.5 60t170 137.5t192.5 228.5q12 23 36 23q16 0 16 -17 q0 -4 -4 -15q-96 -247 -245 -442q-12 -29 -60 -36q-164 -7 -348 -8q-208 0 -337 14q-24 2 -23 28z" />
<glyph unicode="F" horiz-adv-x="496" d="M-226 -297q0 16 5.5 40t11.5 40l6 14q96 237 550 1032h-84q-31 0 -30 18q0 13 15 26.5t31 13.5h102l199 339q48 88 48 153q0 32 -12 53t-22 27l-12 6q-18 10 -18 23q0 9 11 16t19 7q203 12 421 12q183 0 295 -10q33 0 33 -25q0 -10 -6 -23q-71 -165 -135 -261 q-5 -9 -24 -9q-16 0 -16 23q14 42 14 92q0 157 -161 157q-112 0 -154 -56q-106 -134 -315 -524q54 0 159 1t156 1q16 0 20 -4q2 -2 2 -6q0 -14 -16.5 -30t-39.5 -18h-312q-114 -217 -264 -536q-6 -18 -19 -49t-56.5 -116.5t-90.5 -159.5t-117 -155.5t-142 -125.5 q-18 -11 -33 -12q-19 0 -19 26z" />
<glyph unicode="G" horiz-adv-x="879" d="M2 115q0 147 56.5 336t158.5 377.5t228.5 348.5t283 259.5t307.5 99.5q32 0 57 -5.5t39 -9.5t16 -4q13 0 24 15q42 23 108 23h5q60 0 60 -30q0 -52 -115.5 -232.5t-153.5 -180.5q-17 0 -17 34q0 32 15 92q14 62 29 109.5t15 45.5q4 15 4 24q0 32 -27 48t-59 16 q-149 0 -342.5 -234t-327 -537.5t-133.5 -500.5q0 -87 42 -87q48 0 171 123q222 222 339 416q50 74 50 142q0 36 -14 55t-14 27q0 20 28 22q60 6 134 6q85 0 143 -9q16 -2 16 -17q0 -12 -14 -28q-45 -58 -101 -154q-349 -604 -358 -772q0 -28 -19 -27q-30 0 -54 53t-24 106 q0 70 30 156t63 137l29 50q6 8 6 13q0 4 -4 4l-12 -6q-153 -186 -280 -301.5t-190.5 -147.5t-103.5 -32q-94 0 -94 177z" />
<glyph unicode="H" horiz-adv-x="1040" d="M2 -52l2 18q8 76 253 505l381 675q-76 48 -171 49q-92 0 -145 -56.5t-53 -150.5q0 -40 10 -77q6 -17 6 -28q0 -18 -15 -18q-34 0 -77.5 86.5t-43.5 146.5q0 84 59 131.5t158 47.5q168 0 298 -87l199 352q20 19 32 19q19 0 20 -36q0 -107 -147 -427q151 -179 151 -472 q4 -19 10 -19.5t13 15.5q120 219 206 393q116 235 256 382.5t282 147.5q30 0 30 -11q0 -6 -20 -33q-144 -130 -344 -449t-315.5 -546t-183.5 -376q-94 -210 -143 -210q-32 0 -32 88q0 65 26 155t55 148l26 58q68 141 68 298q0 224 -108 377q-195 -410 -426 -783 q-22 -37 -50 -79t-76.5 -107t-94.5 -107t-78 -42q-18 0 -18 22z" />
<glyph unicode="I" horiz-adv-x="454" d="M-159 -71q0 6 6 12.5t13 10.5l6 2q86 54 212.5 233t210.5 330l82 151q93 177 182 324.5t150 229.5t108.5 139.5t71.5 77.5l23 20q5 6 5 12q0 18 -60 19q-65 0 -125 -32.5t-101 -78.5t-73.5 -93t-45.5 -80l-16 -32q-8 -32 -23 -32q-34 0 -34 88q0 109 71.5 183.5t171 103 t215.5 28.5q70 0 155 -11q24 -4 24 -18.5t-22 -29.5q-75 -58 -180.5 -232t-232.5 -425t-131 -259q-14 -24 -50.5 -92t-57.5 -107.5t-62 -106.5t-73.5 -109t-78.5 -93.5t-89 -80.5t-97 -49t-109 -20q-46 0 -46 17z" />
<glyph unicode="J" horiz-adv-x="599" d="M-220 -371q0 5 7.5 14.5t15.5 15.5l6 4q88 67 234 292t246 418l100 191q119 218 228 391t179.5 263t123.5 149.5t78 76.5l23 15q6 6 7 12q0 20 -65 21q-59 0 -118.5 -33.5t-100.5 -79.5t-73.5 -92t-48.5 -79l-16 -34q-10 -32 -24 -32q-34 0 -34 88q0 153 132 234t327 81 q190 0 190 -34q0 -12 -33 -25q-76 -39 -229.5 -282t-268.5 -465l-116 -225q-281 -554 -399 -694q-178 -207 -325 -207q-46 0 -46 16z" />
<glyph unicode="K" horiz-adv-x="927" d="M-115 -69l6 27q23 62 187.5 384t262.5 493q94 163 184.5 307.5t135.5 205.5l44 65q9 14 25.5 35t66.5 57.5t98 38.5q22 0 22 -23q0 -14 -10 -31q-256 -412 -367 -641q-2 -12 -2 -20q0 -12 6 -12q8 0 24 16l204 207q525 511 677 513q56 0 56 -65q0 -52 -30.5 -107.5 t-59.5 -55.5q-12 0 -14 16l-5 15t-21 24.5t-44 15.5q-90 0 -247 -140q-54 -44 -65 -72q-64 -169 -126 -533t-62 -538q0 -56 4 -99.5t8 -57.5l4 -16q4 -19 4 -22q0 -23 -20 -22q-23 0 -54.5 25t-58.5 69q-50 88 -50 267q0 275 131 672q6 25 6 32q0 14 -8 14l-27 -16 q-147 -118 -320 -347q-62 -80 -121 -172.5t-84 -144.5l-26 -52q-48 -104 -146.5 -218.5t-164.5 -114.5q-23 0 -23 21z" />
<glyph unicode="L" horiz-adv-x="832" d="M-65 -12l5 20q29 68 81.5 186.5t223.5 437t349 580.5q182 265 239 309q26 23 48 23q16 0 16 -19q0 -32 -54 -142.5t-94 -178.5q-468 -842 -582 -1144q-2 -6 -2 -12q0 -34 70 -34q136 0 253 88q173 138 309 315q15 16 31.5 16t16.5 -20t-22 -70q-130 -282 -199 -347 q-19 -20 -50 -24q-122 -16 -373 -16l-235 4q-31 2 -31 28z" />
<glyph unicode="M" horiz-adv-x="1201" d="M-140 -71l2 19q19 107 175 406t302 546l147 244l110 191q82 235 126 235q31 0 31 -103q-62 -747 -62 -853q0 -30 11.5 -30t27.5 22q27 34 73 92.5t176.5 208.5t246 270.5t252 231t224.5 135.5q20 3 26 3q24 0 24 -17q-1 -16 -18 -40q-104 -151 -232.5 -382t-204.5 -388 l-77 -156q-207 -430 -207 -616q0 -4 1 -16t1 -20q0 -33 -17 -33q-35 0 -75 59.5t-40 157.5q0 90 43 221t127.5 298.5t141.5 270t152 266.5q5 12 5 18q-4 10 -9 10q-12 0 -24 -10q-119 -96 -312 -327t-325 -414l-134 -182q-33 -48 -52 -48q-6 0 -10 4t-6.5 10.5t-3.5 13 t-1 10.5v4q14 125 41.5 347t45.5 375t18 157q0 20 -8 20q-4 0 -11 -6t-11 -12l-4 -6q-86 -128 -184.5 -332t-158.5 -361q-44 -112 -90 -205.5t-81.5 -144t-64.5 -86t-45 -47.5l-16 -13q-23 -17 -34.5 -17t-11.5 19z" />
<glyph unicode="N" horiz-adv-x="892" d="M-157 -73q0 190 580 1141q48 79 87.5 145t53.5 91l14 29q84 234 129 234q30 0 30 -100q14 -484 14 -812q0 -142 -2 -195q4 -33 17 -33q16 0 41 46q214 410 271 531q270 576 502 576q28 0 27 -17q0 -12 -19 -31q-52 -61 -243 -314q-201 -264 -375.5 -577.5t-249.5 -493.5 l-74 -181q-33 -68 -55 -68h-1q-12 0 -21 14t-13 28l-4 14q-26 157 -26 328v13q0 142 20 414t20 396q0 20 -8 21q-4 0 -11 -6t-11 -13l-4 -5q-78 -113 -179.5 -320.5t-159.5 -358.5q-44 -114 -91.5 -206.5t-83.5 -144.5t-66 -87t-46 -47l-17 -12q-24 -18 -33 -18 q-12 0 -13 19z" />
<glyph unicode="O" horiz-adv-x="954" d="M0 182q0 199 78.5 407t190.5 361t231.5 262t209.5 136q10 4 26.5 4t16.5 -9q0 -12 -16 -31q-58 -56 -138 -161t-173 -255.5t-157 -337.5t-64 -351q0 -173 114 -173q244 0 532 502q237 408 237 738q0 63 -46 63q-42 0 -116.5 -60.5t-120.5 -111.5t-54 -63q-23 -31 -39 -30 q-13 0 -13 22q0 6 4 22q46 138 193.5 278t277.5 140q117 0 117 -180q0 -102 -44.5 -249.5t-74.5 -216.5t-50 -109q-54 -107 -120.5 -212t-161.5 -222t-196.5 -204t-226 -144t-245.5 -57q-172 0 -172 242z" />
<glyph unicode="P" horiz-adv-x="707" d="M-67 -92l7 23q23 60 138 283t215 397q94 164 184.5 317.5t134.5 225.5l45 72q4 6 9.5 16t26.5 36t43.5 45.5t52.5 35.5t58 16q26 0 26 -14q0 -17 -24 -53q-151 -256 -321 -584q-2 -4 -2 -8q0 -6 8 -6q127 0 234 48.5t174 125.5t104.5 165.5t37.5 174.5q0 123 -92 185 t-217 62q-94 0 -183.5 -28t-156.5 -96t-67 -163q0 -56 30 -108q10 -20 10 -28q0 -12 -17 -12q-4 0 -16 4q-6 2 -16 8t-36 24t-46 38t-36.5 53.5t-16.5 66.5q0 124 154 208.5t348 84.5q94 0 180 -15.5t167 -51t129 -101.5t48 -156q0 -135 -69 -242.5t-180.5 -171t-238 -96 t-254.5 -32.5q-2 2 -6 2q-8 0 -12 -10q-14 -27 -169 -340q-101 -209 -205 -316.5t-158 -107.5q-25 0 -25 23z" />
<glyph unicode="Q" horiz-adv-x="954" d="M0 182q0 199 78.5 407t190.5 361t231.5 262t209.5 136q10 4 26.5 4t16.5 -9q0 -12 -16 -31q-58 -56 -138 -161t-173 -255.5t-157 -337.5t-64 -351q0 -173 114 -173q29 0 43 4q0 115 27 263q12 68 30 132.5t31 92.5l10 30q9 24 26 24q6 0 6 -10q0 -13 -2 -28 q-32 -174 -32 -343q0 -67 6 -123q182 107 387 460q237 408 237 738q0 63 -46 63q-42 0 -116.5 -60.5t-120.5 -111.5t-54 -63q-23 -31 -39 -30q-13 0 -13 22q0 6 4 22q46 138 193.5 278t277.5 140q117 0 117 -180q0 -102 -44.5 -249.5t-74.5 -216.5t-50 -109 q-111 -220 -281.5 -433.5t-367.5 -321.5q33 -128 115 -128q36 0 88 28q8 5 17 5q12 0 12 -11q0 -4 -4 -12q-10 -16 -29 -40.5t-73.5 -64.5t-102.5 -40q-121 0 -134 213q-89 -34 -185 -34h-5q-172 0 -172 242z" />
<glyph unicode="R" horiz-adv-x="921" d="M-130 -82l6 24q19 56 136.5 284t222.5 412q96 172 185.5 322t129.5 212l42 65q50 68 102.5 104t84.5 36q23 0 22 -16q0 -12 -16 -42q-14 -24 -111.5 -199.5t-231 -427.5t-185.5 -373q-42 -96 -92 -174t-92.5 -123t-78.5 -74.5t-59 -39.5l-19 -10q-12 -6 -25 -7 q-22 0 -21 27zM217 1243q0 136 167.5 214.5t394.5 78.5q77 0 150 -10.5t157 -34.5t135 -77t51 -129q0 -102 -89 -200.5t-197.5 -159t-204.5 -84.5q-14 -10 -15 -22q0 -72 4 -163.5t17.5 -255t50.5 -295t93 -183.5q10 -10 11 -18q0 -16 -51 -17q-58 0 -102 22t-59.5 40.5 t-17.5 26.5q-100 162 -100 736l2 123q0 12 6 18t12 6l6 2q167 18 310.5 135.5t143.5 269.5q0 60 -31 105.5t-82.5 68.5t-104.5 34.5t-106 11.5q-92 0 -182 -30.5t-158 -98.5t-68 -160q0 -56 31 -113q8 -20 9 -27q0 -11 -13 -11q-18 0 -46 17q-124 75 -124 180z" />
<glyph unicode="S" horiz-adv-x="896" d="M-74 109q0 15 5 29q33 81 92 187t103 173l45 64q28 40 55 40q23 0 23 -22l-6 -20q-72 -183 -72 -315q0 -107 47 -174t148 -67q150 0 242.5 131.5t92.5 283.5q0 131 -90 373t-90 328q0 186 160 300t351 114q34 0 67 -4.5t73 -13.5t64 -29t24 -50q0 -41 -56 -137t-94 -146 q-13 -9 -24 -10q-14 0 -14 24q0 56 12 153q0 156 -119 156h-2q-102 0 -173.5 -70t-71.5 -170q0 -133 94 -370t94 -365q0 -241 -190 -396.5t-427 -155.5q-40 0 -96.5 8t-118.5 25t-105 50.5t-43 75.5z" />
<glyph unicode="T" horiz-adv-x="804" d="M0 217q0 200 115.5 410t292.5 382q-77 8 -143 58.5t-66 122.5q0 110 180.5 218.5t447.5 108.5q84 0 213.5 -21t200.5 -21q112 0 160 36q8 2 14 2q10 0 10 -8t-8 -22q-40 -65 -108 -104.5t-151 -39.5q-88 0 -260 46t-266 46q-107 0 -203 -60.5t-96 -164.5q0 -44 24 -86 t49 -63l23 -19l4 -4q235 222 422 264q9 2 24 2q20 0 21 -11q0 -16 -31 -29q-56 -22 -160.5 -114t-221 -227.5t-201.5 -323t-85 -362.5q0 -178 122 -179q89 0 174 57.5t150 149.5t113 186.5t81 190.5q7 19 20 19q16 0 31 -31.5t15 -59.5q0 -24 -7 -48t-13 -36l-8 -15 q-98 -191 -292 -351t-388 -160q-102 0 -150.5 73t-48.5 188z" />
<glyph unicode="U" horiz-adv-x="948" d="M0 67q0 138 88 355.5t220 435.5t208 334t124 185q46 62 102.5 95t96.5 33q30 0 30 -17q0 -10 -12 -31q-23 -48 -116 -193q-42 -68 -105.5 -177.5t-190.5 -368t-172 -419.5q-3 -18 -4 -36q0 -44 28 -44q22 0 71 36q7 6 22.5 19t72 71.5t123.5 134.5t177 218.5t231 312.5 q216 358 310 444q54 50 142 50q34 0 33 -17q0 -16 -12 -37q-54 -96 -106 -168q-42 -65 -108.5 -172t-214 -376t-228.5 -466q-111 -253 -111 -398q0 -17 3 -38.5t3 -25.5q0 -23 -19 -22q-8 0 -24 8q-78 85 -78 231q0 117 49 261t97 230l49 87q4 6 4 14q0 4 -4 4l-20 -8 q-177 -228 -331.5 -384.5t-237.5 -212t-123 -55.5q-67 0 -67 107z" />
<glyph unicode="V" horiz-adv-x="619" d="M2 -38q0 149 96 524q60 235 144.5 466.5t138.5 344.5l54 114q31 60 82 96.5t87 36.5q28 0 28 -21q0 -4 -4 -16q-32 -80 -83 -214.5t-153.5 -464.5t-138.5 -559q2 -33 20 -32q10 0 28 18q166 159 387 446q377 494 417 734q0 56 68 84t127 28q58 0 58 -44q0 -46 -50 -132 t-152 -214.5t-190.5 -234t-230 -270t-207.5 -242.5q-130 -155 -246.5 -272.5t-168.5 -157.5l-51 -40q-18 -15 -36 -16q-24 0 -24 38z" />
<glyph unicode="W" horiz-adv-x="1187" d="M2 -34q14 170 102 509q65 239 151 473t143 349l54 116q30 58 73 91.5t69 37.5l28 3q23 0 22 -17q0 -10 -8 -31q-90 -197 -238.5 -655.5t-148.5 -572.5q0 -29 14 -28q9 0 28 18q237 262 466 570q30 40 60 94t46 88l16 35q38 100 78.5 192.5t59.5 134.5l21 40 q30 58 72 91.5t70 37.5l28 3q20 0 20 -17l-4 -19q-34 -80 -86 -214.5t-157.5 -463.5t-145.5 -558q2 -30 18 -30q11 0 28 18q130 130 375 444q155 201 287.5 427t132.5 307q0 46 63 76q59 30 132 30q50 0 50 -36q0 -46 -49 -131t-151.5 -215.5t-188 -233t-230 -272 t-204.5 -241.5q-129 -155 -242 -272.5t-161 -159.5l-51 -40q-23 -16 -35 -17q-23 0 -23 39q22 253 174 735q2 4 2 11q0 6 -5 6l-18 -8q-189 -235 -205 -254q-128 -155 -246.5 -282.5t-172.5 -177.5l-55 -52q-25 -16 -37 -17q-20 0 -21 39z" />
<glyph unicode="X" horiz-adv-x="929" d="M-138 -69q0 77 44 168.5t103.5 163.5t103.5 118t58 56q160 134 427 388q32 433 70 588q18 60 59 105t70 45q22 0 22 -31q0 -12 -2 -31q-26 -239 -42 -507q209 203 358.5 333t195.5 159l44 29q98 48 182 48q60 0 61 -19q0 -14 -31.5 -38.5t-66.5 -44.5t-76 -42.5 t-46 -23.5q-315 -187 -626 -484q-8 -216 -8 -325q0 -471 95 -513q15 -6 16 -25q0 -38 -74.5 -74t-112.5 -36q-46 0 -54 34q-46 178 -46 492q0 134 6 266q-100 -107 -189.5 -214.5t-129.5 -162.5l-38 -56q-297 -393 -357 -393q-16 0 -16 27z" />
<glyph unicode="Y" horiz-adv-x="439" d="M-90 -44l8 21q72 111 151.5 250t123.5 223l42 84q65 125 108.5 410.5t43.5 466.5l-6 66q-4 8 -4 18q0 23 21 37q53 35 133 35h5q32 0 32 -54q-13 -331 -101 -778q2 -16 12 -17q6 0 15 8q367 506 567 703q167 161 335 161q27 -2 27 -16q0 -6 -16 -23t-49 -44.5 t-63.5 -51.5t-77.5 -61.5t-73 -56.5q-18 -14 -47 -38.5t-117.5 -108t-172 -171.5t-189.5 -223t-189 -270q-182 -321 -252 -456t-233 -135q-34 0 -34 21z" />
<glyph unicode="Z" horiz-adv-x="931" d="M-128 12l4 16q150 229 346.5 455.5t351 374t327.5 313.5t255 258q10 10 10 20q0 18 -86 18q-80 0 -159.5 -24t-135 -59.5t-99.5 -70t-64 -59.5l-22 -24q-23 -14 -34 -14q-15 0 -16 19q0 36 84 158t126 128q71 10 312 11q32 0 99.5 -2t82.5 -2q25 0 43 10l7 4q73 46 97 48 q12 0 12 -12q-1 -42 -57 -111q-120 -151 -292.5 -332t-308 -315t-296 -325.5t-281.5 -385.5q-13 -23 -13 -36q0 -37 112 -37q69 0 135.5 19t113 46t82.5 54t54 46l16 19q36 41 88.5 90.5t84.5 76.5l34 29q30 17 40 17q16 0 17 -19q0 -25 -32.5 -88t-68.5 -120t-75.5 -117.5 t-41.5 -62.5q-24 -38 -71 -38q-125 -12 -358 -12l-385 6q-38 4 -38 30z" />
<glyph unicode="[" horiz-adv-x="469" d="M-58 48q0 18 4 37t8 30l4 9q498 935 766 1373q8 10 24 27.5t87 51t163 46.5q15 0 15 -13q0 -6 -5.5 -11t-11.5 -8l-6 -2q-48 -25 -88.5 -61.5t-56.5 -63.5l-16 -26q-120 -195 -304 -529t-308 -571l-125 -239q-30 -48 -30 -116q0 -59 30 -114q8 -13 8 -23q0 -16 -16 -16 q-10 0 -19 8q-92 79 -119 177q-4 24 -4 34z" />
<glyph unicode="\" horiz-adv-x="712" d="M88 1557q0 29 40 29q31 0 41 -39q17 -64 172 -753.5t185 -835.5q0 -25 -28 -25q-50 0 -56 31q-327 1455 -354 1593z" />
<glyph unicode="]" horiz-adv-x="374" d="M-265 -159q0 6 6 12.5t12 10.5l6 2q48 22 87 59t56 63l16 26q120 195 305 529t309 573l125 236q28 46 27 115q0 65 -29 117q-9 12 -9 28q0 12 16 12q8 0 22 -10q88 -76 117 -177q4 -25 4 -34q0 -17 -4 -36.5t-8 -29.5l-4 -10q-496 -935 -766 -1373q-8 -10 -24.5 -27 t-85 -51.5t-156.5 -46.5q-23 0 -22 12z" />
<glyph unicode="^" d="M220 339l8 19q20 15 60.5 58.5t71.5 79.5l29 36q12 18 38 18h219q16 0 16 -14q0 -2 -3.5 -32.5t-8 -77.5t-4.5 -87q0 -20 -12 -20q-30 0 -64 59.5t-44 105.5q-2 8 -7 8l-11 -8q-67 -67 -153 -110t-120 -43q-14 0 -15 8z" />
<glyph unicode="_" horiz-adv-x="1247" d="M-117 -136q0 15 45.5 42t85.5 27h963q62 0 63 -17q0 -20 -42 -44.5t-87 -28.5h-967q-60 0 -61 21z" />
<glyph unicode="`" d="M697 1202q0 20 15 20h109q23 0 22 -22v-44q0 -84 10 -152q0 -12 -10 -12q-8 0 -26 12q-36 24 -66.5 74t-41.5 86z" />
<glyph unicode="a" d="M-30 44q0 34 19 104.5t29 94.5q46 113 115.5 219t163.5 203t219.5 157.5t260.5 60.5q112 0 112 -33q0 -21 -50 -21q-184 0 -346 -157.5t-262 -362.5q-28 -56 -28 -94q0 -23 14 -22q24 0 62 33q25 23 65.5 59t133 138.5t146.5 190.5q8 16 25 38t65 59.5t96 37.5 q27 0 27 -14q0 -4 -6 -15q-8 -15 -45 -79.5t-69.5 -121.5t-68.5 -124.5t-57 -115.5t-21 -64q0 -12 10 -12q31 0 146 116q88 93 207 227q6 6 10.5 6t4.5 -8q0 -38 -31 -75q-197 -218 -333 -343q-167 -152 -229 -152q-29 0 -28 32q0 40 35.5 122.5t70.5 144.5l36 62 q8 14 8 18.5t-4 4.5q-7 0 -29 -23q-60 -66 -138 -141t-126 -118l-46 -40q-78 -60 -120 -60q-44 0 -44 68z" />
<glyph unicode="b" horiz-adv-x="661" d="M-71 2l4 12q165 393 450 886q4 7 70 121.5t84.5 146t78.5 130t94.5 152t86.5 132t100 140.5q61 78 87 78q10 0 10 -15q0 -37 -69 -171q-100 -213 -232 -442q-263 -458 -329 -578v-8q0 -10 4 -10q1 0 11 10q27 34 70 84t143.5 134.5t162.5 84.5q50 0 50 -79 q0 -122 -83 -286q-48 -96 -114 -189.5t-150.5 -178.5t-186.5 -138.5t-204 -53.5q-35 0 -65 6t-44 10l-14 6q-14 4 -15 16zM96 24q0 -9 30 -10q89 0 221 165.5t251 446.5q24 58 24 86q0 27 -20 27q-16 0 -47 -24t-53 -49l-25 -24q-118 -138 -212 -289.5t-129 -233.5l-36 -83 q-4 -6 -4 -12z" />
<glyph unicode="c" horiz-adv-x="577" d="M2 100q0 151 106.5 334.5t270 314t309.5 130.5q78 0 78 -58q0 -100 -130 -227q-12 -12 -52 -42.5t-56 -30.5q-10 0 -11 11l7 18q80 140 80 214q0 43 -26 43q-62 0 -157.5 -121.5t-166 -277t-70.5 -245.5q0 -73 53 -73q90 0 227 130q106 98 304 326q6 6 10.5 6t4.5 -8 q0 -38 -30 -75q-148 -163 -263 -274q-90 -86 -204 -161.5t-192 -75.5q-92 0 -92 142z" />
<glyph unicode="d" horiz-adv-x="743" d="M-30 36q0 153 107 348.5t278 340t329 144.5q16 0 30 -3t21.5 -5t13.5 -6l6 -2q4 0 9 6q372 671 571 926q60 80 86 80q10 0 10 -17q0 -42 -64 -172q-309 -567 -434 -785q-223 -398 -271 -477q-98 -169 -98 -205q0 -14 12 -14q10 0 23 7t29 21t29 26t31.5 30t23.5 24 q85 84 223 243q6 6 10.5 6t4.5 -8q0 -38 -31 -75q-149 -164 -262 -274q-238 -220 -312 -221q-28 0 -27 30q0 38 37.5 120.5t77.5 145.5l38 65q8 10 8 18q0 4 -4 5q-8 0 -21 -15q-62 -73 -142.5 -148.5t-131.5 -118.5l-48 -40q-80 -61 -120 -62l-8 2q-34 1 -34 60zM184 209 q0 -29 23 -29t62 35q11 9 32.5 28.5t82 80.5t115.5 126t122 162t116 191q2 4 2 7l-2 7q-14 8 -32 8q-87 0 -214 -128.5t-217 -276t-90 -211.5z" />
<glyph unicode="e" horiz-adv-x="575" d="M2 84q0 213 158 445.5t364 315.5q87 36 156 36q79 0 79 -62q0 -116 -165 -266.5t-370 -229.5q-7 -2 -13 -14q-31 -83 -31 -146q0 -73 55 -73q86 0 227 130q106 98 304 326q6 6 10.5 6t4.5 -8q0 -38 -30 -75q-149 -164 -263 -274q-84 -84 -200.5 -161.5t-193.5 -77.5 q-92 0 -92 128zM247 389q0 -8 4 -8q12 0 53 20t118.5 94t129.5 185q24 50 24 88q0 33 -20 33q-12 0 -27 -7t-23 -15l-10 -9q-62 -54 -155.5 -197.5t-93.5 -183.5z" />
<glyph unicode="f" horiz-adv-x="471" d="M-343 -576q0 184 383 861q0 2 38.5 72t111.5 202t147 251l-48 13q-12 6 -12 14q0 12 22 12h61q208 337 341 494q138 160 274.5 239.5t210.5 79.5q48 0 49 -42q0 -92 -95.5 -187.5t-162.5 -124.5q-12 -4 -16 -4q-7 0 -7 10q0 6 5 17q117 170 117 226q0 14 -13 15 q-24 0 -79 -44q-136 -102 -478 -679h155q28 0 27 -8q0 -10 -14.5 -22t-22.5 -12h-143q-29 0 -29 -14q0 -6 3.5 -34.5t3.5 -44.5q0 -186 -113.5 -448t-294.5 -503q-103 -138 -192 -228.5t-134 -119.5t-68 -29q-28 0 -27 38zM-130 -375q0 -8 6 -8q28 0 138 130 q116 136 266.5 431.5t150.5 480.5q0 28 -6 51q-317 -545 -441 -808q-114 -237 -114 -277z" />
<glyph unicode="g" d="M-360 -1028q0 205 147 446q155 255 482 524l202 393q8 16 8 23l-19 -15q-62 -73 -143.5 -148.5t-132.5 -118.5l-50 -40q-82 -60 -124 -60q-40 0 -40 58q0 144 106 341t275.5 345.5t322.5 148.5q31 0 52 -7t29.5 -13t10.5 -6q4 0 11 6q12 15 31 39.5t65 66t75 41.5 q13 0 13 -21q0 -28 -28 -84q-215 -395 -261 -477q-15 -31 -72.5 -130.5t-82.5 -141.5q127 102 209 177q88 93 207 227q6 6 10.5 6t4.5 -8q0 -38 -31 -75q-88 -96 -153 -164q-84 -88 -300 -257l-52 -96q-388 -712 -534 -927q-14 -23 -36 -53.5t-72.5 -84t-80.5 -53.5 q-48 0 -49 138zM-299 -935q0 -34 12 -34q10 0 30 19t35 39l13 20q169 261 426 736q-253 -218 -380 -423q-15 -25 -37 -63.5t-60.5 -134t-38.5 -159.5zM191 209q0 -29 24 -29q22 0 55 29q31 26 82.5 73t176 201.5t210.5 319.5q2 2 2 7q0 14 -32 15q-81 0 -207.5 -124.5 t-218.5 -273t-92 -218.5z" />
<glyph unicode="h" horiz-adv-x="754" d="M-96 -32q0 32 36 114.5t72 148.5l36 66l314 562q369 653 582 928q60 80 84 80q12 0 12 -17q0 -42 -65 -172q-315 -569 -437 -787q-74 -132 -134.5 -235.5t-85.5 -146t-43 -73t-28 -53.5q-2 -6 -2 -12q0 -9 4 -9t16 11q449 500 590 500q28 0 28 -28q0 -8 -8 -35 t-46 -109.5t-101 -183.5q-38 -55 -96 -159.5t-58 -137.5q0 -17 18 -17q6 0 17 5t25.5 17t25 22t31.5 29t31 27q85 84 224 243q6 6 9.5 6t3.5 -8q0 -38 -30 -75q-149 -164 -263 -274q-241 -222 -317 -223q-31 0 -30 38q0 72 82.5 219.5t163.5 275t81 150.5q0 11 -12 11 q-48 0 -182 -148.5t-228 -266.5q-102 -129 -177 -205t-99 -86l-26 -12q-18 0 -18 20z" />
<glyph unicode="i" horiz-adv-x="364" d="M-22 155q36 88 72 154l36 64q153 267 232 384q34 50 87 85t99 35q15 0 15 -14q0 -9 -13 -38q-25 -44 -119 -210.5t-112 -200.5q-82 -144 -82 -194q0 -17 12 -17q19 0 128 100q84 84 223 243q6 6 10 6t4 -8q0 -38 -30 -75q-148 -163 -263 -274q-235 -220 -301 -221 q-35 0 -35 45q0 47 37 136zM494 1052q0 55 42 112.5t92 57.5q60 0 60 -68q0 -55 -46 -108.5t-98 -53.5q-50 0 -50 60z" />
<glyph unicode="j" horiz-adv-x="337" d="M-762 -1028q0 205 146 446q150 249 488 528l201 389q178 331 245 422q42 53 97.5 86.5t88.5 33.5q17 0 17 -10q0 -4 -4 -12q-224 -395 -248 -441q-37 -69 -152 -270q122 98 206 175q89 93 207 227q6 6 10 6t4 -8q0 -38 -30 -75q-89 -96 -152 -164q-81 -85 -300 -257 q-44 -76 -54 -96q-387 -712 -534 -927q-14 -23 -36 -53.5t-72 -84t-80 -53.5q-48 0 -48 138zM-703 -935q0 -34 12 -34q10 0 30.5 19t34.5 39l14 20q180 281 430 740q-258 -224 -384 -427q-16 -25 -38 -63.5t-60.5 -134t-38.5 -159.5zM484 1052q0 55 42 112.5t92 57.5 q60 0 60 -68q0 -55 -46 -108.5t-98 -53.5q-50 0 -50 60z" />
<glyph unicode="k" horiz-adv-x="724" d="M-80 -6q0 38 36 120.5t72 146.5l37 64l293 524q395 702 575 932q59 77 83 77h1q10 0 11 -16q0 -44 -65 -172q-315 -570 -437 -789q-239 -427 -287 -508v-7q0 -6 4 -6t12 8l94 101q96 102 174.5 180.5t175 154t142.5 75.5q32 0 32 -48q0 -28 -20 -86.5t-41 -58.5 q-7 0 -13 21q-10 50 -58 50q-69 0 -127 -129.5t-82 -251t-24 -163.5q0 -44 22 -44q18 0 47 23t68.5 63t47.5 48q84 84 222 243q6 6 10 6t4 -8q0 -38 -29 -75q-149 -164 -264 -274q-10 -10 -37 -37.5t-43 -42.5t-42 -40t-44 -38.5t-39 -29t-38.5 -23t-28.5 -7.5q-37 0 -37 67 q0 73 31 185t63 188l31 77q2 4 2 8t-4 4l-13 -4q-76 -77 -157 -172t-123 -152l-42 -56q-41 -61 -94 -107.5t-81 -46.5q-19 0 -20 26z" />
<glyph unicode="l" horiz-adv-x="400" d="M-36 0q0 23 5 48.5t17 56.5t21 52t26 60.5t23 52.5q56 127 346 667q395 720 726 886q46 23 92 23h4q56 0 57 -52q0 -120 -82.5 -263.5t-201 -264t-231.5 -211t-196 -136.5q-11 -4 -22 -17q-88 -142 -172.5 -306.5t-126.5 -258.5l-40 -92q-10 -30 -10 -40q0 -18 14 -19 q40 0 156 117q85 84 223 243q6 6 10 6t4 -8q0 -38 -30 -75q-149 -164 -263 -274q-251 -237 -319 -237q-30 0 -30 42zM568 973q8 0 16 4q142 100 256 228t173 235t89 185.5t30 113.5q0 19 -14 19q-28 0 -68 -40q-77 -76 -173 -221t-155.5 -248t-153.5 -276z" />
<glyph unicode="m" horiz-adv-x="1163" d="M-100 -10q0 18 38 95.5t76 145.5l38 68l195 345q48 90 116 161.5t143 71.5q15 0 15 -14q0 -11 -23 -51t-66 -109t-72 -127q-18 -34 -43.5 -77t-41.5 -72t-22 -41.5t-6 -17.5q0 -4 4 -4q6 0 19 13q39 44 100 110.5t207.5 200t241.5 179.5q20 10 40 10q29 0 28 -28 q0 -52 -119 -271q-9 -17 -40 -69.5t-52 -91t-21 -48.5q0 -5 4 -5q5 0 19 13q38 44 99.5 110.5t207 200t239.5 179.5q25 10 42 10q31 0 31 -28q0 -8 -8 -35t-46.5 -110.5t-100.5 -184.5q-152 -233 -153 -294q0 -18 13 -18q34 0 130 96q84 84 222 243q6 6 10.5 6t4.5 -8 q0 -38 -30 -75q-149 -164 -263 -274q-237 -220 -312 -221q-32 0 -31.5 38t41 126t82 160.5t104.5 177t68 112.5q35 56 35 73q0 11 -9 11l-28 -10q-92 -66 -221 -205t-211 -244l-82 -106q-93 -132 -181 -133q-26 0 -26 16q0 18 38 95.5t76 145.5l39 68q13 28 68.5 121.5 t93 161t37.5 82.5q0 10 -8 10l-29 -12q-94 -66 -222.5 -205t-208.5 -244l-82 -106q-94 -131 -181 -131q-27 0 -26 14z" />
<glyph unicode="n" horiz-adv-x="760" d="M-100.5 -12q0.5 16 38.5 93.5t76 146.5l38 69l197 345q30 50 49.5 77.5t53 68.5t73 61t83.5 24q15 0 16 -14q0 -11 -7 -20q-46 -73 -141 -239.5t-121 -216.5q-6 -12 -6 -17q0 -4 4 -4t20 11q39 44 99.5 110.5t207 200t241.5 179.5q23 10 42 10q29 0 28 -32 q-16 -94 -154 -324q-153 -250 -153 -297q0 -15 14 -15q10 0 23 7t29 20t27 23t29 27t22 21q84 84 224 243q5 6 9 6t4 -8q0 -38 -30 -75q-148 -163 -263 -274q-235 -220 -308 -221q-35 0 -35 36q0 22 10 55t25 66.5t29.5 61t28 52t13.5 25.5q31 54 91 151.5t96.5 161 t36.5 78.5q0 9 -10 9l-29 -9q-92 -67 -221 -206t-210 -246l-82 -105q-27 -38 -47 -62t-57 -47t-76 -23q-28 0 -27.5 16z" />
<glyph unicode="o" horiz-adv-x="697" d="M10 134q0 155 100.5 335t260 307.5t313.5 127.5q113 0 113 -90q0 -48 -48 -130q-2 -2 -2 -6t4 -4q74 31 126 33q18 -4 18 -12q0 -12 -16 -29q-22 -22 -65.5 -58t-51.5 -44l-27 -38q-42 -118 -130 -245.5t-213 -224t-239 -96.5q-142 0 -143 174zM169 96q0 -76 53 -76 q85 0 202.5 169t141.5 339q-2 4 -2 12q0 58 104 104q16 7 18 15q16 70 17 107q0 85 -57 85q-79 0 -195 -144.5t-199 -325t-83 -285.5z" />
<glyph unicode="p" horiz-adv-x="691" d="M-712 -1118q0 54 117.5 278t234.5 423l119 197q291 507 454 806q4 8 12 23t32 58t46 82.5t52 86.5t56 82.5t50.5 58.5t40.5 23q13 0 13 -16q0 -28 -32.5 -108.5t-65.5 -145.5l-34 -66q-2 -3 -2 -7q0 -6 4 -6t13 8q6 9 17.5 23.5t48 53.5t69.5 68t76.5 53t76.5 24 q78 0 78 -128q0 -104 -61 -257q0 -4 -23 -56.5t-73.5 -135t-115 -159t-159.5 -133t-196 -56.5q-28 0 -52 7t-36 14t-16 7l-14 -8q-54 -81 -172.5 -297.5t-188.5 -362.5q-10 -18 -26 -48t-62 -108.5t-87.5 -138t-91 -108.5t-83.5 -49q-19 0 -19 18zM65 36q0 -36 56 -36 q57 0 121.5 53.5t116 128.5t94.5 150.5t64 129.5l25 52q52 130 52 191q0 42 -30 42q-18 0 -36 -12q-64 -40 -177.5 -205.5t-193.5 -312.5l-83 -144q-9 -18 -9 -37z" />
<glyph unicode="q" horiz-adv-x="756" d="M-301 -1130q0 52 76 206t152 282l77 127l209 360q-18 -12 -153 -98q-4 -2 -10 -2q-12 0 -12 10q0 23 46 54q92 62 177 124l216 402l5 16q0 6 -5 7l-21 -17q-62 -69 -142.5 -144.5t-131.5 -118.5l-50 -42q-66 -52 -106 -52q-50 0 -50 81q0 126 100 313.5t269.5 340 t332.5 152.5q31 0 50 -6t26.5 -13t9.5 -7q4 0 11 6q109 147 167 147q17 0 17 -23q0 -28 -28 -84q-222 -398 -270 -477q-39 -62 -179 -312q279 226 466 444q6 6 9.5 6t3.5 -8q0 -38 -30 -75q-205 -226 -504 -465q-143 -255 -325 -620q-102 -203 -185.5 -330.5t-126.5 -167.5 t-69 -40q-23 0 -22 24zM186 205q0 -25 19 -25q26 0 65 33q33 26 85.5 76t178 203.5t205.5 308.5q2 4 2 7q0 14 -34 15q-95 0 -222 -134.5t-213 -282t-86 -201.5z" />
<glyph unicode="r" horiz-adv-x="586" d="M-119 -34q0 11 17.5 49.5t41.5 85t48 90.5t40 74l18 30l211 367q121 231 256 231h1q17 0 18 -14q0 -18 -87 -149.5t-102 -167.5q-4 -12 -4 -14q0 -4 4 -4t15 10q151 170 318 303q10 9 44.5 29t60.5 20q38 0 38 -67q0 -73 -48.5 -173t-130.5 -176l-8 -8q-8 -6 -17 -13 t-23 -17t-28 -17.5t-30.5 -13t-29.5 -5.5q-16 0 -16 11q0 6 6 17q118 184 118 253q0 17 -14 17q-60 0 -282 -272q-67 -84 -124.5 -175t-78.5 -139l-25 -46q-24 -48 -74 -89t-104 -41q-29 0 -29 14z" />
<glyph unicode="s" horiz-adv-x="547" d="M74 273q60 45 131 58q10 0 10 -8q0 -4 -4 -7q-50 -39 -95 -119t-45 -140.5t50 -60.5q40 0 79 33t59 67l20 32q40 65 67 205t35 249l6 109q0 16 -6 16l-8 -4l-199 -234q-22 -26 -30 -25q-10 0 -10 14q0 26 15 40l18 21q228 257 260 312q31 46 88 80q56 33 134 33 q19 0 19 -17q0 -10 -15 -18q-6 -2 -15.5 -9t-32.5 -33t-41 -60.5t-32.5 -95t-14.5 -135.5q0 -231 -44 -348q-36 -98 -114 -165t-145 -91t-122 -24q-146 0 -146 112q0 118 128 213z" />
<glyph unicode="t" horiz-adv-x="381" d="M-54 -2q0 42 32 126.5t64 148.5l32 62q47 82 153 280.5t205.5 375.5t187.5 319h-158q-20 0 -20 10.5t15.5 20t34.5 9.5q44 0 154 2q98 155 168 245q62 79 88 79q13 0 13 -18q0 -42 -76 -181l-69 -125h207q18 0 19 -9q0 -33 -59 -33h-188q-464 -879 -488 -921 q-85 -155 -85 -200q0 -14 10 -15q29 0 163 129q84 84 223 243q6 6 10 6t4 -8q0 -38 -30 -75q-149 -164 -263 -274q-241 -233 -319 -233q-29 0 -28 36z" />
<glyph unicode="u" horiz-adv-x="743" d="M-65 4q0 40 33.5 122.5t67.5 146.5l33 62q168 316 249 422q40 51 97.5 86.5t90.5 35.5q19 0 20 -14q0 -7 -9 -22q-3 -8 -81 -133.5t-127 -215.5q-133 -243 -133 -279q0 -14 13 -14q18 0 62 36q130 113 287 303q86 92 180 241q65 98 171 98q17 0 18 -16l-16 -38 q-29 -50 -126 -220t-110 -193q-83 -144 -83 -192q0 -17 12 -17q20 0 128 100q85 84 223 243q6 6 10.5 6t4.5 -8q0 -38 -31 -75q-149 -164 -262 -274q-79 -74 -176.5 -148.5t-141.5 -74.5q-30 0 -30 42q0 24 36 104.5t72 148.5l37 68l61 107q0 6 -3.5 6t-9.5 -6 q-75 -86 -155 -167.5t-123 -119.5l-44 -38q-156 -149 -216 -149q-29 0 -29 36z" />
<glyph unicode="v" horiz-adv-x="593" d="M24 -14q0 133 105.5 425t151.5 366q65 102 159 102q14 0 14 -14q0 -9 -17 -42q-174 -363 -217 -620q0 -23 8.5 -23t24.5 15q86 62 195 217q4 5 4 13q-8 18 -8 48q0 121 121 268.5t245 193.5q12 4 17 4q12 0 12 -10q-2 -56 -303 -483q-6 -8 -6 -13q0 -14 52 -14 q98 0 219 143q2 2 6 2q9 0 10 -20q0 -23 -49 -77q-86 -96 -210 -96q-20 0 -36 3t-24 6t-10 3l-11 -6q-112 -136 -206.5 -237.5t-134.5 -135.5l-38 -32q-32 -25 -50 -24q-24 0 -24 38z" />
<glyph unicode="w" horiz-adv-x="929" d="M18 -18q0 100 88.5 368t172.5 427q23 42 64.5 72t89.5 30q14 0 14.5 -12t-16.5 -44q-56 -116 -138 -336t-82 -305q0 -10 4 -10q7 0 28 23q25 23 62.5 60.5t116 135t110.5 171.5l96 215q33 52 74 77t73 25q25 0 24 -12q0 -8 -18 -44q-174 -363 -219 -620q-2 -8 -2 -17 q0 -12 6 -12q14 0 100.5 94t116.5 142q4 7 4 15q-8 18 -8 48q0 121 121 268.5t246 193.5q11 4 16 4q12 0 12 -10q-2 -56 -303 -483q-6 -8 -6 -13q0 -8 6 -10q25 -11 48 -11q90 0 217 150q4 3 6 4q10 0 10 -22.5t-49 -76.5q-88 -99 -201 -99q-41 0 -79 15l-11 -6 q-110 -136 -203.5 -237.5t-131.5 -135.5l-37 -32q-32 -27 -51 -26q-22 0 -21 36q0 87 92 384l-12 -6q-102 -127 -191.5 -224.5t-128.5 -131.5l-38 -32q-32 -27 -50 -26q-22 0 -22 36z" />
<glyph unicode="x" horiz-adv-x="665" d="M-157 12q0 24 6.5 43t12.5 25l6 8q191 203 397 404q15 184 16 205q0 15 -1 30.5t-2 26l-2 21t-3.5 16.5t-4 11t-2.5 7.5l-2 5t-3 4.5q-4 4 -4 8q0 25 46 55.5t78.5 30.5t32.5 -80q0 -69 -8 -209q210 197 310 253q48 25 65 25q25 0 38.5 -47t13.5 -78q0 -14 -10 -17 q-8 0 -27 20.5t-43 20.5q-41 0 -98 -32t-95 -64l-39 -33q-74 -60 -119 -104q-6 -90 -7 -179q0 -245 59 -245q30 0 197 175q88 93 206 227q5 6 9.5 6t4.5 -8q0 -38 -30 -75q-175 -194 -333 -343q-142 -136 -190 -136q-37 0 -51 56t-14 182q0 67 8 203q-125 -128 -212 -250.5 t-114 -180.5l-23 -56q-12 -38 -31 -38q-15 0 -26.5 40t-11.5 66z" />
<glyph unicode="y" horiz-adv-x="720" d="M-381 -1028q0 205 146 446q159 259 490 532q65 121 176 335l84 165q0 6 -3.5 6t-9.5 -6q-75 -86 -157 -169.5t-126 -123.5l-45 -40q-150 -142 -212 -143q-29 0 -29 36q0 40 32.5 121.5t64.5 141.5l32 62q168 316 249 422q40 51 98 86.5t91 35.5q19 0 19 -14q0 -7 -7 -22 q-4 -8 -82.5 -133.5t-126.5 -215.5q-132 -243 -132 -279q0 -14 11 -14q18 0 63 36q130 113 287 303q86 92 180 241q27 40 78 69t93 29q18 0 19 -16l-17 -38q-28 -50 -125.5 -220t-108.5 -191q-16 -31 -74 -130.5t-81 -141.5q126 102 209 177q88 93 206 227q6 6 10 6t4 -8 q0 -38 -30 -75q-88 -96 -152 -164q-84 -88 -301 -257l-53 -96q-387 -712 -533 -927q-14 -23 -36.5 -53.5t-72.5 -84t-80 -53.5q-48 0 -48 138zM-321 -935q0 -34 12 -34q10 0 30 19t34 39l14 20q199 311 432 742q-261 -228 -385 -429q-16 -25 -38.5 -63.5t-60.5 -134 t-38 -159.5z" />
<glyph unicode="z" horiz-adv-x="655" d="M-130 -54q0 50 69 143t165.5 187.5t159.5 154t87 77.5q109 90 230.5 197t121.5 116q0 12 -35 12q-199 -2 -375 -193q-2 -2 -12 -2q-26 0 -26 11q0 4 27 41.5t59 85t40 65.5q16 22 42 24q169 10 320 10q102 0 142 -4q22 -2 22 -14q-1 -4 -10 -18q-33 -36 -127 -124.5 t-172 -158.5l-79 -70q-114 -100 -210 -203t-137 -155l-38 -52q-8 -13 -8 -24q0 -18 65 -18q115 0 238 121q150 150 185 150q10 0 10 -18q-86 -189 -132 -245q-34 -44 -84 -50q-39 -6 -141 -6q-41 0 -85 1t-75 2t-36 1q-27 0 -48 -4t-29 -9l-8 -3q-72 -45 -101 -45 q-15 0 -15 17z" />
<glyph unicode="{" horiz-adv-x="372" d="M0 54q0 88 68 208.5t136.5 236t68.5 192.5q0 19 -4 35.5t-8 22.5l-4 6q-6 11 -6 17q0 8 7 13.5t15 7.5l6 2q58 8 97.5 46t100.5 140q37 58 92 160t89.5 157.5t85.5 121.5t113 99.5t141 43.5q30 -4 30 -16q0 -7 -21 -19q-3 0 -10 -2.5t-36.5 -28.5t-64.5 -70t-95 -141.5 t-129 -231.5q-4 -10 -12.5 -27.5t-40 -62.5t-67 -81t-91 -71t-116.5 -48q-23 0 -22 -13q0 -8 10 -18q44 -44 44 -121q0 -70 -72 -189.5t-143.5 -247t-71.5 -219.5q0 -12 2 -24t2 -16q0 -23 -16 -23q-34 0 -56 60.5t-22 100.5z" />
<glyph unicode="|" horiz-adv-x="487" d="M-44 -54l4 14q831 1487 891 1587q22 39 56 39q41 -1 41 -21l-2 -8l-890 -1589q-20 -35 -80 -35q-20 0 -20 13z" />
<glyph unicode="}" horiz-adv-x="475" d="M-132 -90q0 8 19 19q4 0 11.5 2t36.5 28.5t64 70.5t95.5 141.5t127.5 232.5q4 10 13.5 27t40.5 62t66 81.5t91.5 71t116.5 47.5q22 0 22 14q0 7 -10 17q-45 44 -45 121q0 70 72.5 189.5t144 247t71.5 219.5q0 12 -2 24.5t-2 16.5q0 22 16 21q35 0 56.5 -59.5t21.5 -100.5 q0 -88 -68 -208.5t-136.5 -236t-68.5 -192.5q0 -19 4 -35.5t8 -21.5l4 -6q6 -12 6 -19q0 -8 -7 -13t-15 -7l-6 -2q-57 -7 -97 -45.5t-102 -141.5q-36 -58 -91.5 -159t-89 -157.5t-85 -121.5t-113.5 -99t-140 -45q-30 4 -30 17z" />
<glyph unicode="~" horiz-adv-x="796" d="M289 462q0 24 42 44t86 20q29 0 130.5 -13t126.5 -13q48 0 88 28q2 2 8 2q14 0 15 -13q0 -3 -2 -5q-67 -119 -153 -119q-38 0 -141.5 34.5t-137.5 34.5q-14 0 -35 -6q-6 -2 -15 -2q-12 0 -12 8z" />
<glyph unicode="&#xa1;" horiz-adv-x="444" d="M-305 -515q0 5 4 17q16 42 67.5 127.5t139.5 222t136 217.5l299 487q20 22 65 22q24 0 23 -18q0 -8 -6 -20q-174 -307 -266 -510q-40 -90 -102.5 -213.5t-106.5 -201.5l-42 -79q-44 -82 -157 -82q-54 0 -54 31zM440 791q0 60 44 115t98 55q60 0 60 -68q0 -60 -45 -115.5 t-101 -55.5t-56 69z" />
<glyph unicode="&#xa2;" horiz-adv-x="603" d="M2 100q0 218 208.5 478.5t425.5 296.5l36 60q16 26 42 26q16 0 16 -15q0 -2 -4 -15q-4 -8 -27 -52q68 -4 67 -58q0 -100 -130 -227q-12 -12 -52 -42.5t-56 -30.5q-10 0 -11 11l7 18q81 142 80 216q0 41 -26 41q-62 0 -157.5 -121.5t-166 -277t-70.5 -245.5q0 -46 23 -65 q111 205 146 262q24 36 47 35q14 0 14 -10q0 -4 -4 -12l-153 -281q86 14 207 128q106 98 304 326q6 6 10.5 6t4.5 -8q0 -38 -30 -75q-148 -163 -263 -274q-159 -149 -293 -209l-50 -90q-8 -16 -17 -24t-13 -8h-6q-23 0 -23 14q0 3 4 11q14 31 38 73q-24 -4 -36 -4 q-92 0 -92 142z" />
<glyph unicode="&#xa3;" horiz-adv-x="840" d="M-8 -12l4 20q123 299 333 680h-112q-33 0 -33 14t21 29.5t38 15.5q48 0 121 2l46 80h-115q-32 0 -32 14t21 29t37 15q48 0 123 2q109 180 207 323q182 265 238 309q26 23 48 23q16 0 17 -19q0 -32 -54.5 -142.5t-94.5 -178.5q-75 -134 -171 -313h203h76t40 -2t16 -4t2 -8 q0 -12 -16 -27t-36 -19q-12 -2 -319 -2l-42 -78h201h75.5t40.5 -2t16 -4t2 -8q0 -12 -16.5 -27t-35.5 -19q-12 -2 -315 -3q-239 -460 -304 -628q-2 -6 -2 -12q0 -34 71 -34q136 0 253 88q172 138 309 315q15 16 32 16t17 -20t-23 -70q-130 -283 -199 -347q-19 -20 -50 -24 q-122 -16 -373 -16l-234 4q-31 2 -31 28z" />
<glyph unicode="&#xa4;" horiz-adv-x="822" d="M283 448l10 18q40 42 109 112q-36 44 -36 117q0 128 111 230l-29 145q0 29 40 28q30 0 40 -39q2 -4 20 -82q78 42 153 42q59 0 102 -23l52 52q38 38 72 38q46 0 46 -21q0 -6 -6 -11l-106 -110q35 -46 34 -115q0 -142 -127 -245l29 -124q0 -25 -29 -25q-50 0 -56 31 q-7 24 -17 72q-63 -32 -133 -32q-56 0 -100 22l-58 -61q-29 -28 -99 -27q-23 0 -22 8zM446 714q0 -59 37.5 -99.5t96.5 -40.5q92 0 163 73t71 161q0 60 -36.5 101t-97.5 41q-88 0 -161 -72.5t-73 -163.5z" />
<glyph unicode="&#xa5;" horiz-adv-x="904" d="M56 -44l9 21q172 259 379 667h-207q-30 0 -30 13q0 15 19 30.5t37 15.5h206q18 42 29 84h-177q-30 0 -30 12q0 15 19 30.5t37 15.5h163q30 178 30 392q0 48 -12 240q0 6 -1 14t-1 10q0 35 57 50.5t99 15.5q32 0 32 -54q4 -58 4 -155q0 -268 -38 -501q0 -12 13 -12 q8 0 14 4q300 383 501 580q167 161 336 161q24 0 23.5 -16.5t-22.5 -38.5t-65 -54t-100 -75t-89 -69q-31 -23 -81 -62.5t-183.5 -167.5t-239.5 -260h188q23 0 23 -12t-16.5 -27t-35.5 -19q-6 -2 -207 -2l-61 -82h207q28 0 28 -14q0 -12 -16 -27.5t-36 -17.5q-5 -2 -223 -2 l-4 -8q-241 -431 -311 -566t-233 -135q-34 0 -34 21z" />
<glyph unicode="&#xa6;" horiz-adv-x="487" d="M-44 -54l4 14q309 546 369 646q23 38 56 38q40 0 40 -20l-2 -8l-367 -648q-20 -35 -80 -35q-20 0 -20 13zM475 885l4 15q309 546 370 645q22 39 57 39q40 -1 40 -21l-2 -8l-368 -648q-19 -34 -80 -34q-20 0 -21 12z" />
<glyph unicode="&#xa7;" horiz-adv-x="890" d="M10 -2q0 6 5 10t11 6l6 2q62 8 136.5 30.5t149.5 56t124.5 87t49.5 113.5q0 50 -39 109t-85.5 104.5t-85.5 102.5t-39 107q0 44 34 86.5t83.5 71.5t111.5 56t111 42.5t91 24.5l40 12q16 6 16 11l-8 8q-10 10 -41.5 39.5t-48 47t-31.5 47.5t-15 58q0 86 98.5 153.5 t209.5 94.5t198 27q32 0 62 -3t45 -5l13 -3q18 -10 18 -23q0 -6 -5 -11t-11 -7l-6 -2q-50 0 -117.5 -11t-141.5 -32t-124 -62.5t-50 -93.5q0 -36 44 -82t98 -86t98 -100.5t44 -118.5q0 -52 -51.5 -107t-136 -102t-144 -74.5t-118.5 -51.5q-12 -4 -13 -13q0 -3 6 -9 q96 -98 97 -185q0 -98 -110 -182.5t-248 -125.5t-251 -41q-37 1 -67 6q-12 2 -13 18zM412 759q0 -47 58.5 -118t85.5 -71q315 107 315 253q0 54 -76 134q-12 16 -40 16q-71 -6 -190 -58t-151 -143q-2 -6 -2 -13z" />
<glyph unicode="&#xa8;" d="M515 1070q0 50 40.5 95t82.5 45q50 0 50 -54q0 -50 -38 -96.5t-84 -46.5q-50 0 -51 57zM839 1070q0 52 40 96t84 44q48 0 48 -56q0 -50 -38 -95.5t-84 -45.5q-50 0 -50 57z" />
<glyph unicode="&#xa9;" horiz-adv-x="816" d="M169 466q0 154 130 277.5t283 123.5q109 0 175 -66t66 -169q0 -157 -129.5 -278t-281.5 -121q-109 0 -176 65.5t-67 167.5zM217 475q0 -90 56 -150t146 -60q141 0 249.5 110.5t108.5 246.5q0 92 -56.5 152.5t-146.5 60.5q-136 0 -246.5 -110.5t-110.5 -249.5zM331 393 q0 86 50 180.5t129 154.5q44 32 88 32q10 0 26 -3l2 -2q6 0 6 4q12 9 38 9h4q8 0 8 -8q0 -17 -45 -75.5t-63 -58.5q-4 0 -4 4q0 18 32 77q13 28 14 30q0 10 -14 10q-12 0 -27 -8.5t-23 -16.5l-8 -6q-58 -54 -105.5 -141t-47.5 -159q0 -52 32 -52q65 0 125 113q26 56 28 57 q8 0 8 -19q0 -24 -12 -42q-32 -54 -87.5 -101t-107.5 -47q-46 0 -46 68z" />
<glyph unicode="&#xaa;" horiz-adv-x="689" d="M201 781q0 27 12.5 76t21.5 64q71 173 211 310.5t318 137.5q81 0 81 -24q0 -14 -37 -14q-128 0 -240 -109.5t-185 -254.5q-19 -60 -19 -65q0 -16 9 -17q18 0 44 24q157 133 242 271q5 10 16 26t46.5 42t67.5 26q18 0 18 -10q0 -6 -4 -10q-6 -11 -31 -54.5t-48 -85.5 t-48 -87.5t-40.5 -79.5t-15.5 -45q0 -8 8 -8.5t24 10.5t30.5 23t30 28t17.5 18q10 12 60.5 65.5t84.5 93.5q4 6 8 6q2 -2 2 -6q0 -27 -22 -52q-131 -147 -233 -241q-116 -107 -161 -106q-17 0 -17 22q0 28 25 85t49 102l24 44l4 16q-6 0 -22 -16q-42 -48 -96.5 -100.5 t-86.5 -80.5l-33 -28q-52 -42 -85 -42q-30 0 -30 46z" />
<glyph unicode="&#xab;" horiz-adv-x="1051" d="M56 389q0 16 7.5 30t12.5 21l8 6q102 74 276 178q195 117 286 163q54 24 114 23q54 0 54 -15q0 -14 -27 -33q-500 -275 -561 -343q-11 -11 -11 -28q4 -58 170 -347q10 -12 10 -26q0 -27 -46 -26q-70 0 -106 38q-46 50 -116.5 177.5t-70.5 181.5zM429 368q0 15 8.5 29.5 t16.5 19.5l10 8q126 94 298 197q157 94 288 163q48 24 118 23q50 0 50 -15q0 -14 -28 -33q-525 -293 -584 -360q-12 -12 -12 -32q6 -45 166 -320q10 -14 10 -28q0 -27 -48 -26q-69 0 -106 40q-42 46 -114.5 170.5t-72.5 163.5z" />
<glyph unicode="&#xac;" horiz-adv-x="1003" d="M321 747q0 15 25 42.5t47 27.5h697q34 -1 34 -18q0 -10 -6 -22l-172 -310q-12 -38 -93 -38q-43 0 -43 19q0 6 7 18l146 260h-608q-35 0 -34 21z" />
<glyph unicode="&#xad;" horiz-adv-x="862" d="M263 427q0 16 25 43.5t47 27.5h536q35 0 35 -19t-23.5 -43t-47.5 -28h-538q-34 0 -34 19z" />
<glyph unicode="&#xae;" horiz-adv-x="816" d="M169 466q0 154 130 277.5t283 123.5q109 0 175 -66t66 -169q0 -157 -129.5 -278t-281.5 -121q-109 0 -176 65.5t-67 167.5zM217 475q0 -90 56 -150t146 -60q141 0 249.5 110.5t108.5 246.5q0 92 -56.5 152.5t-146.5 60.5q-136 0 -246.5 -110.5t-110.5 -249.5zM301 347 l2 6q15 44 99 191l98 163q28 38 52 38q6 0 6 -4q0 -2 -6 -13l-31 -52q-28 -52 -64 -120t-49 -100q-18 -40 -41.5 -69t-37.5 -38l-16 -8h-2q-2 -2 -4 -2q-6 0 -6 8zM398 709q0 38 46 59t108 21q134 0 134 -69q0 -40 -45 -74.5t-89 -47.5q-4 -2 -4 -6q0 -203 44 -245l4 -4 q0 -4 -14 -4q-16 0 -28 6t-16 11.5t-4 7.5q-28 40 -28 200v34l6 6q46 4 85 36t39 74q0 33 -27 47t-61 14q-40 0 -76.5 -21t-36.5 -57q0 -12 11 -33v-2l2 -3q0 -4 -4 -4q-6 0 -13 6q-34 17 -33 48z" />
<glyph unicode="&#xaf;" d="M412 1019q0 16 25 43.5t47 27.5h575q35 0 35 -18q0 -19 -23 -43.5t-48 -28.5h-577q-34 0 -34 19z" />
<glyph unicode="&#xb0;" horiz-adv-x="597" d="M431 1040q0 92 81.5 175t157.5 83q46 0 75.5 -31.5t29.5 -82.5q0 -90 -77.5 -174.5t-163.5 -84.5q-46 0 -74.5 31.5t-28.5 83.5zM490 1057q0 -34 17 -56t47 -22q54 4 108 63.5t54 123.5q1 77 -65 77q-54 0 -107.5 -58.5t-53.5 -127.5z" />
<glyph unicode="&#xb1;" horiz-adv-x="982" d="M163 400q0 16 25 42.5t47 26.5h696q34 0 34 -17q0 -20 -23 -44.5t-47 -28.5h-698q-34 0 -34 21zM351 823q0 16 25.5 43t46.5 27h291l127 223q24 40 90 40q44 0 44 -22q0 -6 -6 -16l-126 -225h277q34 0 34 -18q0 -19 -23.5 -43.5t-46.5 -28.5h-293l-121 -221 q-11 -38 -92 -38q-42 0 -42 18q0 5 6 18l122 223h-279q-34 0 -34 20z" />
<glyph unicode="&#xb2;" horiz-adv-x="732" d="M163 494l6 23q40 58 150 164t202 182l91 76q332 279 332 415q0 44 -31.5 70.5t-75.5 26.5q-48 0 -95 -29t-72 -59l-21 -30q-12 -20 -23 -21q-14 0 -14 21q0 6 5 26t23.5 56t45 68t79 56t118.5 24q82 0 146.5 -38.5t64.5 -121.5q0 -68 -43.5 -138t-87.5 -109.5 t-124 -103.5q-100 -81 -149.5 -121t-130 -110t-117 -116t-36.5 -75q0 -16 17 -18q35 -7 98 -8q173 0 230 78q9 14 19 15q14 0 15 -13q0 -6 -4 -10q-24 -68 -49 -113.5t-37 -54.5l-15 -12q-18 -16 -126 -17q-23 0 -77 1t-90 1q-48 0 -123 -1t-84 -1q-17 0 -17 17z" />
<glyph unicode="&#xb3;" horiz-adv-x="703" d="M126 439.5q0 6.5 6 9.5t12 3h7q36 -6 66 -6q156 0 291.5 130.5t135.5 292.5q0 79 -49 130t-97 62l-50 13q-12 0 -13 10q0 6 9 18q8 7 18 8q132 0 256.5 71t124.5 188q0 50 -30 81t-80 31q-34 0 -72.5 -15t-60.5 -29l-22 -16q-6 -4 -14 -4q-12 0 -12 20q0 2 7 14t26 31 t45.5 37.5t71.5 31t99 12.5q82 0 133.5 -37.5t51.5 -108.5q0 -115 -96.5 -192t-221.5 -113q-11 -8 -11 -14t5 -10q14 -8 34 -24t53.5 -74.5t33.5 -126.5q0 -172 -152 -321t-368 -149q-87 0 -127 32q-10 8 -10 14.5z" />
<glyph unicode="&#xb4;" d="M805 1011q0 6 7 19q20 16 60.5 60t71.5 78l29 36q12 18 38 18h99q25 0 24 -14q0 -8 -8 -15q-54 -62 -129.5 -109.5t-121.5 -64.5l-48 -15q-22 0 -22 7z" />
<glyph unicode="&#xb5;" horiz-adv-x="743" d="M-471 -672q0 54 117 277.5t235 422.5l119 196q38 58 145.5 252t172.5 281q40 51 97.5 86.5t90.5 35.5q19 0 20 -14q0 -7 -9 -22q-3 -8 -81 -133.5t-127 -215.5q-133 -243 -133 -279q0 -14 13 -14q18 0 62 36q130 113 287 303q86 92 180 241q65 98 171 98q17 0 18 -16 l-16 -38q-29 -50 -126 -220t-110 -193q-83 -144 -83 -192q0 -17 12 -17q20 0 128 100q85 84 223 243q6 6 10.5 6t4.5 -8q0 -38 -31 -75q-149 -164 -262 -274q-79 -74 -176.5 -148.5t-141.5 -74.5q-30 0 -30 42q0 24 36 104.5t72 148.5l37 68l61 107q0 6 -3.5 6t-9.5 -6 q-349 -402 -516 -470q-64 -119 -108 -211q-10 -18 -26.5 -48.5t-61.5 -108t-84 -137t-84 -109t-74 -49.5q-19 0 -19 19z" />
<glyph unicode="&#xb6;" horiz-adv-x="774" d="M102 -92q0 60 91.5 248.5t183.5 347.5l92 158q4 6 4 14t-5.5 12.5t-9.5 6.5h-6q-203 46 -203 240q0 120 63 219.5t164.5 162t223 96.5t244.5 34q54 0 102 -6q151 0 151 -46q0 -10 -8.5 -20t-16.5 -14l-8 -7q-62 -44 -249 -361t-365 -654q-69 -128 -118 -240.5t-63 -163.5 l-14 -48q-10 -28 -26 -27q-13 0 -27.5 16.5t-14.5 27.5q0 94 189.5 454t378.5 674l191 311q6 11 6 20q0 12 -18 12l-36 -8q-46 -26 -222 -311.5t-349 -605.5q-72 -134 -140 -274t-101 -212l-31 -73q-8 -24 -21 -23q-10 0 -21 12.5t-11 27.5z" />
<glyph unicode="&#xb7;" horiz-adv-x="308" d="M80 421q0 56 45.5 111.5t98.5 55.5q60 0 61 -69q0 -57 -45.5 -109.5t-99.5 -54.5q-28 0 -44 18t-16 48z" />
<glyph unicode="&#xb8;" horiz-adv-x="879" d="M113 -220q0 13 13 13q6 0 20.5 -4t22.5 -4q19 0 37 13t18 35q0 12 -10.5 27.5t-10.5 24.5q0 25 27 47t57 22q12 0 18 -2q-35 -18 -35 -46q0 -10 10.5 -31.5t10.5 -37.5q0 -40 -32.5 -67t-76.5 -27q-61 0 -69 37z" />
<glyph unicode="&#xb9;" horiz-adv-x="619" d="M273 451q0 18 21.5 69.5t56 120t66 128.5t63.5 119.5t35 67.5q10 22 76 127t112 195.5t46 132.5q0 33 -50 33l-53 -9q-23 0 -22 12l10 20q104 65 323 65q16 -4 16 -19q0 -10 -16 -25q-44 -48 -120 -180q-151 -262 -211 -387q-17 -36 -52.5 -106t-55.5 -112t-53 -99.5 t-63 -101.5q-52 -69 -109 -69q-20 0 -20 18z" />
<glyph unicode="&#xba;" horiz-adv-x="601" d="M213 819q0 104 74 233q79 136 177 212.5t185 76.5q110 0 110 -129q0 -98 -75 -231q-80 -136 -175 -211t-184 -75q-54 0 -83 34.5t-29 89.5zM319 787q0 -52 39 -52q98 4 224 284q77 163 77 241q0 44 -31 44q-44 0 -113.5 -83t-123.5 -202q-73 -155 -72 -232z" />
<glyph unicode="&#xbb;" horiz-adv-x="1133" d="M-76 23q0 11 28 29q521 293 584 362q10 9 10 32q0 38 -165 320q-10 12 -10 27q0 26 48 26q69 0 105 -40q39 -42 112.5 -171t73.5 -162q0 -16 -7.5 -30t-16.5 -23l-10 -6q-126 -94 -299 -196q-162 -98 -285 -163q-50 -26 -120 -26q-48 0 -48 21zM327 20q0 11 28 30 q498 277 560 343q10 12 10 32q0 48 -170 343q-10 12 -10 27q0 26 48 26q70 0 107 -38q42 -48 114 -184.5t72 -177.5q0 -13 -7 -26.5t-16 -19.5l-6 -6q-103 -76 -276 -180q-142 -86 -285 -163q-40 -24 -121 -24q-48 0 -48 18z" />
<glyph unicode="&#xbc;" horiz-adv-x="1536" d="M30 -52l10 18q1452 1485 1552 1585q38 39 72 39q46 0 46 -20q0 -7 -6 -13l-1553 -1589q-29 -29 -99 -28q-23 0 -22 8zM273 451q0 18 21.5 69.5t56 120t66 128.5t63.5 119.5t35 67.5q10 22 76 127t112 195.5t46 132.5q0 33 -50 33l-53 -9q-23 0 -22 12l10 20 q104 65 323 65q16 -4 16 -19q0 -10 -16 -25q-44 -48 -120 -180q-151 -262 -211 -387q-17 -36 -52.5 -106t-55.5 -112t-53 -99.5t-63 -101.5q-52 -69 -109 -69q-20 0 -20 18zM779 362l6 19q23 27 62.5 69t153 155t214.5 206t221.5 179t201.5 112h18q36 0 35 -18q0 -6 -3 -12 q-8 -18 -63 -113.5t-145.5 -251t-152.5 -261.5q32 0 59 3t43.5 5t19.5 2q14 0 14 -10q0 -9 -4 -17q-48 -86 -138 -92q-4 0 -57 -6l-140 -262q-24 -39 -74 -67t-93 -28q-17 0 -18 18l3 10q17 44 180 327h-38l-277 8q-29 2 -28 25zM981 473q0 -13 23 -17q64 -10 182 -12 l285 485q6 12 6 17q0 6 -6 6l-16 -6q-114 -81 -229.5 -193.5t-173.5 -182.5l-60 -72q-10 -12 -11 -25z" />
<glyph unicode="&#xbd;" horiz-adv-x="1572" d="M30 -52l10 18q1452 1485 1552 1585q38 39 72 39q46 0 46 -20q0 -7 -6 -13l-1553 -1589q-29 -29 -99 -28q-23 0 -22 8zM273 451q0 18 21.5 69.5t56 120t66 128.5t63.5 119.5t35 67.5q10 22 76 127t112 195.5t46 132.5q0 33 -50 33l-53 -9q-23 0 -22 12l10 20 q104 65 323 65q16 -4 16 -19q0 -10 -16 -25q-44 -48 -120 -180q-151 -262 -211 -387q-17 -36 -52.5 -106t-55.5 -112t-53 -99.5t-63 -101.5q-52 -69 -109 -69q-20 0 -20 18zM781 18l6 24q40 58 150.5 163.5t202.5 181.5l90 77q331 279 331 415q0 44 -30 70t-76 26 q-48 0 -95.5 -30t-70.5 -58l-23 -30q-12 -20 -21 -20q-14 0 -15 20q0 5 5.5 26t23.5 56.5t45 68t79 56.5t118 24q81 0 146 -39.5t65 -121.5q0 -69 -43 -139t-87 -109t-125 -103q-100 -80 -149.5 -120t-129.5 -110.5t-117.5 -117t-37.5 -73.5q0 -16 19 -19q34 -8 98 -8 q172 0 229 79q10 13 20 13q13 0 14 -11q-1 -6 -5 -10q-24 -69 -48.5 -114t-37.5 -57l-14 -10q-17 -16 -126 -16q-22 0 -76 1t-91 1q-48 0 -123 -1t-83 -1q-18 0 -18 16z" />
<glyph unicode="&#xbe;" horiz-adv-x="1675" d="M126 439.5q0 6.5 6 9.5t12 3h7q36 -6 66 -6q156 0 291.5 130.5t135.5 292.5q0 79 -49 130t-97 62l-50 13q-12 0 -13 10q0 6 9 18q8 7 18 8q132 0 256.5 71t124.5 188q0 50 -30 81t-80 31q-34 0 -72.5 -15t-60.5 -29l-22 -16q-6 -4 -14 -4q-12 0 -12 20q0 2 7 14t26 31 t45.5 37.5t71.5 31t99 12.5q82 0 133.5 -37.5t51.5 -108.5q0 -115 -96.5 -192t-221.5 -113q-11 -8 -11 -14t5 -10q14 -8 34 -24t53.5 -74.5t33.5 -126.5q0 -172 -152 -321t-368 -149q-87 0 -127 32q-10 8 -10 14.5zM169 -52l9 18q1452 1485 1552 1585q38 39 72 39 q46 0 46 -20q0 -7 -6 -13l-1553 -1589q-28 -29 -98 -28q-22 0 -22 8zM917 362l6 19q23 27 63 69t153 155t214.5 206t222 179t200.5 112h18q37 0 37 -18q0 -6 -4 -12q-8 -18 -63.5 -113.5t-145.5 -251t-153 -261.5q32 0 59 3t43.5 5t20.5 2q13 0 13 -10q0 -9 -4 -17 q-48 -86 -138 -92q-4 0 -56 -6l-141 -262q-24 -39 -74 -67t-92 -28q-18 0 -18 18l2 10q18 44 180 327h-38l-276 8q-29 2 -29 25zM1120 473q0 -13 22 -17q64 -10 183 -12l284 485q6 12 7 17q0 6 -7 6l-16 -6q-114 -81 -229 -193.5t-176 -182.5l-58 -72q-10 -12 -10 -25z" />
<glyph unicode="&#xbf;" horiz-adv-x="682" d="M-368 -313q0 60 26 116.5t62.5 95.5t96 80t104.5 65.5t109 55.5q83 40 154 87.5t113 86.5t74.5 73t44.5 55l11 17q31 54 66 101.5t57 69.5l20 21q14 13 28 13q15 0 18 -22q2 -14 2 -34q0 -195 -260 -344q-217 -112 -374 -260q-19 -18 -50.5 -51.5t-83 -123.5t-51.5 -168 q0 -14 4 -35t32.5 -50.5t76.5 -29.5q136 0 229.5 120.5t99.5 273.5q2 20 20 20q9 0 16 -4q60 -52 60 -140q0 -137 -132 -230.5t-281 -93.5q-123 0 -207.5 56.5t-84.5 178.5zM616 791q0 30 14 60q18 48 57 79t75 31h6q52 -5 53 -70q-1 -24 -13 -58q-19 -46 -57.5 -78.5 t-74.5 -32.5h-8q-52 4 -52 69z" />
<glyph unicode="&#xc0;" horiz-adv-x="906" d="M2 -30q6 283 513 877q-99 118 -202 118q-142 0 -142 -264v-15q0 -26 -12 -25q-31 0 -46 72t-15 122q0 82 37 146t116 64q155 0 297 -180q120 140 258 283.5t213 216.5l77 74q124 186 204 186q20 0 21 -17q0 -12 -9 -29q-176 -347 -322 -782q-184 -553 -185 -849 q0 -92 22 -135q8 -9 8 -19q0 -14 -25 -15q-53 0 -89.5 27t-51 71.5t-21 79.5t-6.5 71q0 60 22 178.5t22 173.5q0 80 -35 189.5t-93 199.5q-65 -88 -118 -176.5t-74 -130.5l-21 -45q-73 -149 -143 -271t-104 -170l-33 -46q-23 -26 -41 -26q-22 0 -22 46zM588 829 q84 -128 130 -293q6 -18 10 -19l11 19q50 171 121 354.5t117 281.5l46 96q6 12 6.5 16.5t-6.5 4.5l-21 -8q-221 -193 -414 -452zM1200 1919q0 19 16 19h109q23 0 22 -21v-44q0 -85 9 -153q0 -12 -9 -12q-8 0 -26 12q-36 24 -66.5 74t-42.5 89z" />
<glyph unicode="&#xc1;" horiz-adv-x="906" d="M2 -30q6 283 513 877q-99 118 -202 118q-142 0 -142 -264v-15q0 -26 -12 -25q-31 0 -46 72t-15 122q0 82 37 146t116 64q155 0 297 -180q120 140 258 283.5t213 216.5l77 74q124 186 204 186q20 0 21 -17q0 -12 -9 -29q-176 -347 -322 -782q-184 -553 -185 -849 q0 -92 22 -135q8 -9 8 -19q0 -14 -25 -15q-53 0 -89.5 27t-51 71.5t-21 79.5t-6.5 71q0 60 22 178.5t22 173.5q0 80 -35 189.5t-93 199.5q-65 -88 -118 -176.5t-74 -130.5l-21 -45q-73 -149 -143 -271t-104 -170l-33 -46q-23 -26 -41 -26q-22 0 -22 46zM588 829 q84 -128 130 -293q6 -18 10 -19l11 19q50 171 121 354.5t117 281.5l46 96q6 12 6.5 16.5t-6.5 4.5l-21 -8q-221 -193 -414 -452zM1226 1698q0 6 9 18q19 16 59.5 60.5t70.5 77.5l30 36q11 18 38 19h99q24 0 23 -15q0 -8 -8 -15q-53 -62 -128.5 -109.5t-121.5 -63.5l-48 -16 q-23 0 -23 8z" />
<glyph unicode="&#xc2;" horiz-adv-x="906" d="M2 -30q6 283 513 877q-99 118 -202 118q-142 0 -142 -264v-15q0 -26 -12 -25q-31 0 -46 72t-15 122q0 82 37 146t116 64q155 0 297 -180q120 140 258 283.5t213 216.5l77 74q124 186 204 186q20 0 21 -17q0 -12 -9 -29q-176 -347 -322 -782q-184 -553 -185 -849 q0 -92 22 -135q8 -9 8 -19q0 -14 -25 -15q-53 0 -89.5 27t-51 71.5t-21 79.5t-6.5 71q0 60 22 178.5t22 173.5q0 80 -35 189.5t-93 199.5q-65 -88 -118 -176.5t-74 -130.5l-21 -45q-73 -149 -143 -271t-104 -170l-33 -46q-23 -26 -41 -26q-22 0 -22 46zM588 829 q84 -128 130 -293q6 -18 10 -19l11 19q50 171 121 354.5t117 281.5l46 96q6 12 6.5 16.5t-6.5 4.5l-21 -8q-221 -193 -414 -452zM1052 1678l7 18q20 16 60.5 59t70.5 80l30 36q12 17 38 17h219q16 0 17 -13q0 -2 -4 -32.5t-8.5 -77.5t-4.5 -87q0 -20 -12 -20 q-30 0 -64.5 59.5t-44.5 105.5q-2 8 -6 8l-11 -8q-67 -67 -153 -110t-121 -43q-13 0 -13 8z" />
<glyph unicode="&#xc3;" horiz-adv-x="906" d="M2 -30q6 283 513 877q-99 118 -202 118q-142 0 -142 -264v-15q0 -26 -12 -25q-31 0 -46 72t-15 122q0 82 37 146t116 64q155 0 297 -180q120 140 258 283.5t213 216.5l77 74q124 186 204 186q20 0 21 -17q0 -12 -9 -29q-176 -347 -322 -782q-184 -553 -185 -849 q0 -92 22 -135q8 -9 8 -19q0 -14 -25 -15q-53 0 -89.5 27t-51 71.5t-21 79.5t-6.5 71q0 60 22 178.5t22 173.5q0 80 -35 189.5t-93 199.5q-65 -88 -118 -176.5t-74 -130.5l-21 -45q-73 -149 -143 -271t-104 -170l-33 -46q-23 -26 -41 -26q-22 0 -22 46zM588 829 q84 -128 130 -293q6 -18 10 -19l11 19q50 171 121 354.5t117 281.5l46 96q6 12 6.5 16.5t-6.5 4.5l-21 -8q-221 -193 -414 -452zM1080 1792l4 18q50 67 163 67q42 0 108 -18.5t100 -18.5q71 0 121 41h12q19 0 19 -10q0 -5 -4 -13q-90 -159 -205 -158q-50 0 -118 45t-120 45 l-46 -7q-15 -4 -20 -4q-14 0 -14 13z" />
<glyph unicode="&#xc4;" horiz-adv-x="906" d="M2 -30q6 283 513 877q-99 118 -202 118q-142 0 -142 -264v-15q0 -26 -12 -25q-31 0 -46 72t-15 122q0 82 37 146t116 64q155 0 297 -180q120 140 258 283.5t213 216.5l77 74q124 186 204 186q20 0 21 -17q0 -12 -9 -29q-176 -347 -322 -782q-184 -553 -185 -849 q0 -92 22 -135q8 -9 8 -19q0 -14 -25 -15q-53 0 -89.5 27t-51 71.5t-21 79.5t-6.5 71q0 60 22 178.5t22 173.5q0 80 -35 189.5t-93 199.5q-65 -88 -118 -176.5t-74 -130.5l-21 -45q-73 -149 -143 -271t-104 -170l-33 -46q-23 -26 -41 -26q-22 0 -22 46zM588 829 q84 -128 130 -293q6 -18 10 -19l11 19q50 171 121 354.5t117 281.5l46 96q6 12 6.5 16.5t-6.5 4.5l-21 -8q-221 -193 -414 -452zM1050 1754q0 50 40 95t82 45q50 0 50 -54q0 -50 -38 -96t-84 -46q-50 0 -50 56zM1373 1754q0 52 40 96t84 44q48 0 48 -56q0 -50 -38 -95 t-84 -45q-50 0 -50 56z" />
<glyph unicode="&#xc5;" horiz-adv-x="906" d="M2 -30q6 283 513 877q-99 118 -202 118q-142 0 -142 -264v-15q0 -26 -12 -25q-31 0 -46 72t-15 122q0 82 37 146t116 64q155 0 297 -180q120 140 258 283.5t213 216.5l77 74q124 186 204 186q20 0 21 -17q0 -12 -9 -29q-176 -347 -322 -782q-184 -553 -185 -849 q0 -92 22 -135q8 -9 8 -19q0 -14 -25 -15q-53 0 -89.5 27t-51 71.5t-21 79.5t-6.5 71q0 60 22 178.5t22 173.5q0 80 -35 189.5t-93 199.5q-65 -88 -118 -176.5t-74 -130.5l-21 -45q-73 -149 -143 -271t-104 -170l-33 -46q-23 -26 -41 -26q-22 0 -22 46zM588 829 q84 -128 130 -293q6 -18 10 -19l11 19q50 171 121 354.5t117 281.5l46 96q6 12 6.5 16.5t-6.5 4.5l-21 -8q-221 -193 -414 -452zM1241 1766q0 62 53.5 117t103.5 55q33 0 52 -21t19 -54q0 -60 -52.5 -116.5t-108.5 -56.5q-32 0 -49.5 21t-17.5 55zM1304 1790q0 -34 29 -34 q24 2 48 28t24 54q0 35 -30 35q-25 0 -48 -26t-23 -57z" />
<glyph unicode="&#xc6;" horiz-adv-x="1589" d="M2 -30q6 283 513 877q-98 118 -202 118q-142 0 -142 -264v-15q0 -26 -12 -25q-31 0 -46 72t-15 122q0 82 37 146t116 64q155 0 297 -180q120 140 258 283.5t213 216.5l77 74q124 186 204 186q20 0 21 -17q0 -12 -9 -29q-176 -347 -322 -782q-40 -120 -59 -183 q86 147 185.5 307.5t155.5 246.5l55 89q70 113 69 169q0 11 -4.5 25.5t-4.5 18.5q0 22 28 21q169 12 361 12q164 0 265 -10q31 0 31 -25q0 -6 -7 -23q-67 -167 -134 -261q-10 -9 -22 -9q-18 0 -19 25q10 38 10 82q0 165 -163 165h-9q-102 0 -146 -56q-102 -126 -274 -436 q-19 -34 -50 -88q94 2 301 2q20 0 20.5 -12t-17.5 -28t-37 -18q-125 -6 -276 -6h-25q-283 -513 -337 -697q-8 -24 -8 -44q0 -60 107 -60q44 0 96 17t127.5 60t169.5 137.5t193 228.5q12 23 35 23q16 0 17 -17q0 -4 -4 -15q-96 -247 -245 -442q-12 -29 -61 -36 q-164 -7 -347 -8q-110 0 -162 2q0 -98 22 -141q8 -9 8 -19q0 -14 -25 -15q-53 0 -89.5 27t-51 71.5t-21 79.5t-6.5 71q0 60 22 178.5t22 173.5q0 80 -35 189.5t-93 199.5q-65 -88 -118 -176.5t-74 -130.5l-21 -45q-73 -149 -143 -271t-104 -170l-33 -46q-23 -26 -41 -26 q-22 0 -22 46zM588 829q84 -128 130 -293q6 -18 10 -19l11 19q50 171 121 354.5t117 281.5l46 96q6 12 6.5 16.5t-6.5 4.5l-21 -8q-221 -193 -414 -452z" />
<glyph unicode="&#xc7;" horiz-adv-x="879" d="M56 193q0 316 183.5 661t469.5 563q17 14 48.5 33t116.5 52.5t156 33.5q54 0 94 -17q4 -2 10 -2q14 0 22 15q43 34 135 33h15q29 0 29 -27q0 -44 -65.5 -141t-121.5 -163t-100 -114q-75 -78 -104 -78q-14 0 -15 19q0 71 115 276q2 4 20 31.5t26 47t8 35.5q0 35 -54 35 q-44 0 -97.5 -28.5t-83.5 -56.5l-32 -28q-213 -197 -384.5 -519t-171.5 -585q0 -192 120 -191q16 0 37.5 4t72.5 27t100.5 64.5t114.5 126.5t123 200q15 32 41.5 91.5t42 87.5t25.5 28q13 0 21 -25t8 -44q0 -74 -50 -156q-104 -176 -275.5 -336t-350.5 -194q-35 -18 -35 -46 q0 -10 10.5 -31.5t10.5 -37.5q0 -40 -32.5 -67t-76.5 -27q-61 0 -69 37q0 13 13 13q6 0 20.5 -4t22.5 -4q19 0 37 13t18 35q0 12 -10.5 27.5t-10.5 24.5q0 12 8.5 25.5t19.5 20.5l10 7q4 4 4 8q-4 0 -11.5 -1t-11.5 -1q-166 0 -166 249z" />
<glyph unicode="&#xc8;" horiz-adv-x="892" d="M-90 14q0 15 8 32q114 257 431 781l-90 2q-27 0 -26.5 16t17.5 29t35 13h102l243 390q31 54 31 98q0 30 -13.5 52t-27.5 30l-14 8q-18 10 -18 23q0 7 7 13t16 8l7 2q207 12 430 12q184 0 297 -10q30 0 30 -25q0 -6 -6 -23q-67 -167 -134 -261q-10 -9 -23 -9q-17 0 -17 25 q9 38 9 82q0 165 -164 165h-8q-102 0 -147 -56q-102 -126 -273 -436q-19 -34 -50 -86h301q20 0 20 -12t-17 -28t-37 -18q-124 -6 -277 -6h-24q-283 -513 -337 -697q-8 -24 -9 -44q0 -60 107 -60q44 0 96 17t127.5 60t170 137.5t192.5 228.5q12 23 36 23q16 0 16 -17 q0 -4 -4 -15q-96 -247 -245 -442q-12 -29 -60 -36q-164 -7 -348 -8q-208 0 -337 14q-24 2 -23 28zM1015 1808q0 20 17 21h108q22 0 22 -23v-44q0 -84 10 -153q0 -12 -10 -12q-8 0 -26 12q-36 25 -66 75t-42 86z" />
<glyph unicode="&#xc9;" horiz-adv-x="892" d="M-90 14q0 15 8 32q114 257 431 781l-90 2q-27 0 -26.5 16t17.5 29t35 13h102l243 390q31 54 31 98q0 30 -13.5 52t-27.5 30l-14 8q-18 10 -18 23q0 7 7 13t16 8l7 2q207 12 430 12q184 0 297 -10q30 0 30 -25q0 -6 -6 -23q-67 -167 -134 -261q-10 -9 -23 -9q-17 0 -17 25 q9 38 9 82q0 165 -164 165h-8q-102 0 -147 -56q-102 -126 -273 -436q-19 -34 -50 -86h301q20 0 20 -12t-17 -28t-37 -18q-124 -6 -277 -6h-24q-283 -513 -337 -697q-8 -24 -9 -44q0 -60 107 -60q44 0 96 17t127.5 60t170 137.5t192.5 228.5q12 23 36 23q16 0 16 -17 q0 -4 -4 -15q-96 -247 -245 -442q-12 -29 -60 -36q-164 -7 -348 -8q-208 0 -337 14q-24 2 -23 28zM988 1628q0 6 8 17q19 16 59.5 59.5t70.5 80.5l30 36q12 17 39 17h98q24 0 23 -13q0 -9 -8 -17q-54 -62 -129.5 -109t-123.5 -63l-46 -16q-22 0 -21 8z" />
<glyph unicode="&#xca;" horiz-adv-x="892" d="M-90 14q0 15 8 32q114 257 431 781l-90 2q-27 0 -26.5 16t17.5 29t35 13h102l243 390q31 54 31 98q0 30 -13.5 52t-27.5 30l-14 8q-18 10 -18 23q0 7 7 13t16 8l7 2q207 12 430 12q184 0 297 -10q30 0 30 -25q0 -6 -6 -23q-67 -167 -134 -261q-10 -9 -23 -9q-17 0 -17 25 q9 38 9 82q0 165 -164 165h-8q-102 0 -147 -56q-102 -126 -273 -436q-19 -34 -50 -86h301q20 0 20 -12t-17 -28t-37 -18q-124 -6 -277 -6h-24q-283 -513 -337 -697q-8 -24 -9 -44q0 -60 107 -60q44 0 96 17t127.5 60t170 137.5t192.5 228.5q12 23 36 23q16 0 16 -17 q0 -4 -4 -15q-96 -247 -245 -442q-12 -29 -60 -36q-164 -7 -348 -8q-208 0 -337 14q-24 2 -23 28zM821 1601l8 19q20 16 60 59t70 79l31 36q12 18 38 18h219q15 0 15 -14q0 -2 -4 -31.5t-7.5 -77t-3.5 -88.5q0 -19 -12 -19q-31 0 -65 59t-44 105q-2 8 -6 8l-13 -8 q-66 -66 -152 -109.5t-120 -43.5q-14 0 -14 8z" />
<glyph unicode="&#xcb;" horiz-adv-x="892" d="M-90 14q0 15 8 32q114 257 431 781l-90 2q-27 0 -26.5 16t17.5 29t35 13h102l243 390q31 54 31 98q0 30 -13.5 52t-27.5 30l-14 8q-18 10 -18 23q0 7 7 13t16 8l7 2q207 12 430 12q184 0 297 -10q30 0 30 -25q0 -6 -6 -23q-67 -167 -134 -261q-10 -9 -23 -9q-17 0 -17 25 q9 38 9 82q0 165 -164 165h-8q-102 0 -147 -56q-102 -126 -273 -436q-19 -34 -50 -86h301q20 0 20 -12t-17 -28t-37 -18q-124 -6 -277 -6h-24q-283 -513 -337 -697q-8 -24 -9 -44q0 -60 107 -60q44 0 96 17t127.5 60t170 137.5t192.5 228.5q12 23 36 23q16 0 16 -17 q0 -4 -4 -15q-96 -247 -245 -442q-12 -29 -60 -36q-164 -7 -348 -8q-208 0 -337 14q-24 2 -23 28zM812 1660q0 50 40.5 95t82.5 45q50 0 51 -54q0 -50 -38.5 -96.5t-84.5 -46.5q-50 0 -51 57zM1136 1660q0 52 40 96t84 44q48 0 48 -56q0 -50 -38 -95.5t-84 -45.5 q-50 0 -50 57z" />
<glyph unicode="&#xcc;" horiz-adv-x="454" d="M-159 -71q0 6 6 12.5t13 10.5l6 2q86 54 212.5 233t210.5 330l82 151q93 177 182 324.5t150 229.5t108.5 139.5t71.5 77.5l23 20q5 6 5 12q0 18 -60 19q-65 0 -125 -32.5t-101 -78.5t-73.5 -93t-45.5 -80l-16 -32q-8 -32 -23 -32q-34 0 -34 88q0 109 71.5 183.5t171 103 t215.5 28.5q70 0 155 -11q24 -4 24 -18.5t-22 -29.5q-75 -58 -180.5 -232t-232.5 -425t-131 -259q-14 -24 -50.5 -92t-57.5 -107.5t-62 -106.5t-73.5 -109t-78.5 -93.5t-89 -80.5t-97 -49t-109 -20q-46 0 -46 17zM873 1812q0 20 16 21h109q22 0 21 -23v-44q1 -83 11 -152 q0 -12 -11 -13q-8 0 -25 13q-37 25 -67 75t-42 85z" />
<glyph unicode="&#xcd;" horiz-adv-x="454" d="M-159 -71q0 6 6 12.5t13 10.5l6 2q86 54 212.5 233t210.5 330l82 151q93 177 182 324.5t150 229.5t108.5 139.5t71.5 77.5l23 20q5 6 5 12q0 18 -60 19q-65 0 -125 -32.5t-101 -78.5t-73.5 -93t-45.5 -80l-16 -32q-8 -32 -23 -32q-34 0 -34 88q0 109 71.5 183.5t171 103 t215.5 28.5q70 0 155 -11q24 -4 24 -18.5t-22 -29.5q-75 -58 -180.5 -232t-232.5 -425t-131 -259q-14 -24 -50.5 -92t-57.5 -107.5t-62 -106.5t-73.5 -109t-78.5 -93.5t-89 -80.5t-97 -49t-109 -20q-46 0 -46 17zM812 1601q0 6 9 19q20 16 60 59t71 79l29 36q12 18 38 18h99 q25 0 24 -14q0 -8 -8 -15q-54 -62 -129.5 -109.5t-121.5 -64.5l-48 -16q-23 0 -23 8z" />
<glyph unicode="&#xce;" horiz-adv-x="454" d="M-159 -71q0 6 6 12.5t13 10.5l6 2q86 54 212.5 233t210.5 330l82 151q93 177 182 324.5t150 229.5t108.5 139.5t71.5 77.5l23 20q5 6 5 12q0 18 -60 19q-65 0 -125 -32.5t-101 -78.5t-73.5 -93t-45.5 -80l-16 -32q-8 -32 -23 -32q-34 0 -34 88q0 109 71.5 183.5t171 103 t215.5 28.5q70 0 155 -11q24 -4 24 -18.5t-22 -29.5q-75 -58 -180.5 -232t-232.5 -425t-131 -259q-14 -24 -50.5 -92t-57.5 -107.5t-62 -106.5t-73.5 -109t-78.5 -93.5t-89 -80.5t-97 -49t-109 -20q-46 0 -46 17zM670 1614l8 18q20 15 60.5 60t69.5 78l31 36q12 18 38 19 h219q15 0 16 -15q0 -2 -4.5 -32t-8 -77t-3.5 -87q0 -20 -12 -21q-30 0 -64.5 59.5t-44.5 105.5q-2 8 -6 8l-12 -8q-66 -67 -152.5 -110t-120.5 -43q-14 0 -14 9z" />
<glyph unicode="&#xcf;" horiz-adv-x="454" d="M-159 -71q0 6 6 12.5t13 10.5l6 2q86 54 212.5 233t210.5 330l82 151q93 177 182 324.5t150 229.5t108.5 139.5t71.5 77.5l23 20q5 6 5 12q0 18 -60 19q-65 0 -125 -32.5t-101 -78.5t-73.5 -93t-45.5 -80l-16 -32q-8 -32 -23 -32q-34 0 -34 88q0 109 71.5 183.5t171 103 t215.5 28.5q70 0 155 -11q24 -4 24 -18.5t-22 -29.5q-75 -58 -180.5 -232t-232.5 -425t-131 -259q-14 -24 -50.5 -92t-57.5 -107.5t-62 -106.5t-73.5 -109t-78.5 -93.5t-89 -80.5t-97 -49t-109 -20q-46 0 -46 17zM697 1666q0 50 40 95t82 45q50 0 50 -54q0 -50 -38 -96.5 t-84 -46.5q-50 0 -50 57zM1019 1666q0 52 40.5 96t84.5 44q48 0 49 -56q0 -50 -38.5 -95.5t-84.5 -45.5q-50 0 -51 57z" />
<glyph unicode="&#xd0;" horiz-adv-x="944" d="M-98 -4l6 20q100 249 303 598h-138q-35 0 -35 20q0 16 25 43.5t48 27.5h154q235 381 392 553q28 31 46 31q13 0 13 -25q0 -15 -2 -19q-17 -79 -128 -295q-60 -107 -136 -245h196q34 0 34 -19q0 -20 -22.5 -44t-46.5 -28h-209q-209 -389 -274 -564q-2 -6 -2 -14 q0 -19 16 -22q12 -2 36 -2q177 0 364.5 170.5t310 426.5t122.5 487q0 168 -96 282t-261 114q-84 0 -139.5 -47t-55.5 -135q0 -70 43 -144q3 -12 3 -24q0 -16 -11 -16q-6 0 -18 6q-46 24 -102.5 100t-56.5 159q0 64 48 102.5t104.5 49t124.5 10.5q260 0 414 -162.5 t154 -440.5q0 -169 -82.5 -347t-219 -322.5t-333 -236.5t-407.5 -92q-40 0 -78 3t-54 5l-19 4q-32 8 -31 32z" />
<glyph unicode="&#xd1;" horiz-adv-x="892" d="M-157 -73q0 190 580 1141q48 79 87.5 145t53.5 91l14 29q84 235 129 234q30 0 30 -100q14 -484 14 -812q0 -142 -2 -195q4 -33 17 -33q16 0 41 46q214 410 271 531q270 576 502 576q28 0 27 -17q0 -12 -19 -31q-52 -61 -243 -314q-201 -264 -375.5 -577.5t-249.5 -493.5 l-74 -181q-33 -69 -56 -68q-12 0 -21 14t-13 28l-4 14q-27 163 -26 341q0 142 20 414t20 396q0 20 -8 21q-4 0 -11 -6t-11 -13l-4 -5q-78 -113 -179.5 -320.5t-159.5 -358.5q-44 -114 -91.5 -206.5t-83.5 -144.5t-66 -87t-46 -47l-17 -12q-24 -18 -33 -18q-12 0 -13 19z M871 1672l4 18q50 66 163 66q42 0 108 -18t101 -18q70 0 120 40h12q19 0 19 -10q0 -4 -3 -11q-91 -159 -205 -159q-50 0 -118 45t-120 45l-46 -8q-16 -4 -21 -4q-14 0 -14 14z" />
<glyph unicode="&#xd2;" horiz-adv-x="954" d="M0 182q0 199 78.5 407t190.5 361t231.5 262t209.5 136q10 4 26.5 4t16.5 -9q0 -12 -16 -31q-58 -56 -138 -161t-173 -255.5t-157 -337.5t-64 -351q0 -173 114 -173q244 0 532 502q237 408 237 738q0 63 -46 63q-42 0 -116.5 -60.5t-120.5 -111.5t-54 -63q-23 -31 -39 -30 q-13 0 -13 22q0 6 4 22q46 138 193.5 278t277.5 140q117 0 117 -180q0 -102 -44.5 -249.5t-74.5 -216.5t-50 -109q-54 -107 -120.5 -212t-161.5 -222t-196.5 -204t-226 -144t-245.5 -57q-172 0 -172 242zM1030 1808q0 20 16 21h108q23 0 22 -23v-44q0 -84 10 -153 q0 -12 -10 -12q-8 0 -25 12q-37 25 -67 75t-42 86z" />
<glyph unicode="&#xd3;" horiz-adv-x="954" d="M0 182q0 199 78.5 407t190.5 361t231.5 262t209.5 136q10 4 26.5 4t16.5 -9q0 -12 -16 -31q-58 -56 -138 -161t-173 -255.5t-157 -337.5t-64 -351q0 -173 114 -173q244 0 532 502q237 408 237 738q0 63 -46 63q-42 0 -116.5 -60.5t-120.5 -111.5t-54 -63q-23 -31 -39 -30 q-13 0 -13 22q0 6 4 22q46 138 193.5 278t277.5 140q117 0 117 -180q0 -102 -44.5 -249.5t-74.5 -216.5t-50 -109q-54 -107 -120.5 -212t-161.5 -222t-196.5 -204t-226 -144t-245.5 -57q-172 0 -172 242zM889 1565q0 6 8 19q19 15 60 58.5t71 79.5l29 36q12 18 39 18h99 q24 0 23 -14q0 -8 -8 -16q-54 -61 -129.5 -108.5t-121.5 -63.5l-48 -17q-22 0 -22 8z" />
<glyph unicode="&#xd4;" horiz-adv-x="954" d="M0 182q0 199 78.5 407t190.5 361t231.5 262t209.5 136q10 4 26.5 4t16.5 -9q0 -12 -16 -31q-58 -56 -138 -161t-173 -255.5t-157 -337.5t-64 -351q0 -173 114 -173q244 0 532 502q237 408 237 738q0 63 -46 63q-42 0 -116.5 -60.5t-120.5 -111.5t-54 -63q-23 -31 -39 -30 q-13 0 -13 22q0 6 4 22q46 138 193.5 278t277.5 140q117 0 117 -180q0 -102 -44.5 -249.5t-74.5 -216.5t-50 -109q-54 -107 -120.5 -212t-161.5 -222t-196.5 -204t-226 -144t-245.5 -57q-172 0 -172 242zM823 1597l8 19q20 16 60 60t70 78l31 36q12 18 38 18h219 q15 0 15 -14q0 -2 -4 -32t-7.5 -77t-3.5 -88q0 -19 -12 -19q-31 0 -65 59t-44 105q-2 8 -6 8l-12 -8q-66 -66 -152.5 -109t-120.5 -43q-14 0 -14 7z" />
<glyph unicode="&#xd5;" horiz-adv-x="954" d="M0 182q0 199 78.5 407t190.5 361t231.5 262t209.5 136q10 4 26.5 4t16.5 -9q0 -12 -16 -31q-58 -56 -138 -161t-173 -255.5t-157 -337.5t-64 -351q0 -173 114 -173q244 0 532 502q237 408 237 738q0 63 -46 63q-42 0 -116.5 -60.5t-120.5 -111.5t-54 -63q-23 -31 -39 -30 q-13 0 -13 22q0 6 4 22q46 138 193.5 278t277.5 140q117 0 117 -180q0 -102 -44.5 -249.5t-74.5 -216.5t-50 -109q-54 -107 -120.5 -212t-161.5 -222t-196.5 -204t-226 -144t-245.5 -57q-172 0 -172 242zM871 1672l4 18q50 66 163 66q42 0 108 -18t101 -18q70 0 120 40h12 q19 0 19 -10q0 -4 -3 -11q-91 -159 -205 -159q-50 0 -118 45t-120 45l-46 -8q-16 -4 -21 -4q-14 0 -14 14z" />
<glyph unicode="&#xd6;" horiz-adv-x="954" d="M0 182q0 199 78.5 407t190.5 361t231.5 262t209.5 136q10 4 26.5 4t16.5 -9q0 -12 -16 -31q-58 -56 -138 -161t-173 -255.5t-157 -337.5t-64 -351q0 -173 114 -173q244 0 532 502q237 408 237 738q0 63 -46 63q-42 0 -116.5 -60.5t-120.5 -111.5t-54 -63q-23 -31 -39 -30 q-13 0 -13 22q0 6 4 22q46 138 193.5 278t277.5 140q117 0 117 -180q0 -102 -44.5 -249.5t-74.5 -216.5t-50 -109q-54 -107 -120.5 -212t-161.5 -222t-196.5 -204t-226 -144t-245.5 -57q-172 0 -172 242zM853 1630q0 50 40 95t82 45q50 0 51 -54q0 -50 -38 -96t-84 -46 q-50 0 -51 56zM1176 1630q0 52 40 96t84 44q48 0 48 -56q0 -50 -38 -95t-84 -45q-50 0 -50 56z" />
<glyph unicode="&#xd7;" horiz-adv-x="754" d="M46 341q0 2 8 14l458 394l-54 303v7q4 43 78 43q23 0 34.5 -7t13.5 -15l2 -6l40 -229l259 223q32 27 78 26q71 0 71 -16q0 -4 -6 -10l-384 -329l66 -364v-7q-3 -41 -78 -41q-22 0 -34 7t-12 15l-2 6l-52 285l-333 -287q-32 -29 -101 -28q-52 0 -52 16z" />
<glyph unicode="&#xd8;" horiz-adv-x="954" d="M-165 -52l10 18q62 61 157 160q-2 18 -2 56q0 199 78.5 407t190.5 361t231.5 262t209.5 136q10 4 26.5 4t16.5 -9q0 -12 -16 -31q-132 -128 -305 -407t-217 -560q459 467 871 892q2 12 2 37q0 62 -46 63q-42 0 -116.5 -60.5t-120.5 -111.5t-54 -63q-23 -31 -39 -30 q-13 0 -13 22q0 6 4 22q46 138 193.5 278t277.5 140q84 0 109 -99l113 116q39 39 73 39q46 0 46 -20q0 -7 -6 -13l-218 -226q-4 -100 -46.5 -238.5t-75.5 -213t-47 -100.5q-54 -107 -120.5 -212t-161.5 -222t-196.5 -204t-226 -144t-245.5 -57q-106 0 -148 96l-68 -68 q-29 -29 -98 -28q-23 0 -23 8zM205 207q0 -173 114 -173q243 0 532 502q180 316 223 574l-869 -890v-13z" />
<glyph unicode="&#xd9;" horiz-adv-x="948" d="M0 67q0 138 88 355.5t220 435.5t208 334t124 185q46 62 102.5 95t96.5 33q30 0 30 -17q0 -10 -12 -31q-23 -48 -116 -193q-42 -68 -105.5 -177.5t-190.5 -368t-172 -419.5q-3 -18 -4 -36q0 -44 28 -44q22 0 71 36q7 6 22.5 19t72 71.5t123.5 134.5t177 218.5t231 312.5 q216 358 310 444q54 50 142 50q34 0 33 -17q0 -16 -12 -37q-54 -96 -106 -168q-42 -65 -108.5 -172t-214 -376t-228.5 -466q-112 -255 -111 -401q0 -14 3 -35.5t3 -25.5q0 -23 -19 -22q-8 0 -24 8q-78 85 -78 231q0 117 49 261t97 230l49 87q4 6 4 14q0 4 -4 4l-20 -8 q-177 -228 -331.5 -384.5t-237.5 -212t-123 -55.5q-67 0 -67 107zM1030 1766q0 20 16 21h108q23 0 22 -23v-44q0 -84 10 -153q0 -12 -10 -12q-8 0 -25 12q-37 25 -67 74.5t-42 88.5z" />
<glyph unicode="&#xda;" horiz-adv-x="948" d="M0 67q0 138 88 355.5t220 435.5t208 334t124 185q46 62 102.5 95t96.5 33q30 0 30 -17q0 -10 -12 -31q-23 -48 -116 -193q-42 -68 -105.5 -177.5t-190.5 -368t-172 -419.5q-3 -18 -4 -36q0 -44 28 -44q22 0 71 36q7 6 22.5 19t72 71.5t123.5 134.5t177 218.5t231 312.5 q216 358 310 444q54 50 142 50q34 0 33 -17q0 -16 -12 -37q-54 -96 -106 -168q-42 -65 -108.5 -172t-214 -376t-228.5 -466q-112 -255 -111 -401q0 -14 3 -35.5t3 -25.5q0 -23 -19 -22q-8 0 -24 8q-78 85 -78 231q0 117 49 261t97 230l49 87q4 6 4 14q0 4 -4 4l-20 -8 q-177 -228 -331.5 -384.5t-237.5 -212t-123 -55.5q-67 0 -67 107zM1065 1565q0 6 9 19q20 15 60 59.5t70 78.5l31 36q12 18 37 18h99q25 0 24 -14q0 -8 -8 -16q-54 -61 -129.5 -108.5t-121.5 -63.5l-48 -17q-23 0 -23 8z" />
<glyph unicode="&#xdb;" horiz-adv-x="948" d="M0 67q0 138 88 355.5t220 435.5t208 334t124 185q46 62 102.5 95t96.5 33q30 0 30 -17q0 -10 -12 -31q-23 -48 -116 -193q-42 -68 -105.5 -177.5t-190.5 -368t-172 -419.5q-3 -18 -4 -36q0 -44 28 -44q22 0 71 36q7 6 22.5 19t72 71.5t123.5 134.5t177 218.5t231 312.5 q216 358 310 444q54 50 142 50q34 0 33 -17q0 -16 -12 -37q-54 -96 -106 -168q-42 -65 -108.5 -172t-214 -376t-228.5 -466q-112 -255 -111 -401q0 -14 3 -35.5t3 -25.5q0 -23 -19 -22q-8 0 -24 8q-78 85 -78 231q0 117 49 261t97 230l49 87q4 6 4 14q0 4 -4 4l-20 -8 q-177 -228 -331.5 -384.5t-237.5 -212t-123 -55.5q-67 0 -67 107zM929 1605l8 19q19 16 60 60t71 78l30 36q11 18 38 18h218q16 0 17 -14q0 -2 -4 -32t-8.5 -77.5t-4.5 -87.5q0 -19 -11 -19q-31 0 -64.5 59t-43.5 105q-2 8 -7 8l-12 -8q-66 -66 -152.5 -109.5t-119.5 -43.5 q-14 0 -15 8z" />
<glyph unicode="&#xdc;" horiz-adv-x="948" d="M0 67q0 138 88 355.5t220 435.5t208 334t124 185q46 62 102.5 95t96.5 33q30 0 30 -17q0 -10 -12 -31q-23 -48 -116 -193q-42 -68 -105.5 -177.5t-190.5 -368t-172 -419.5q-3 -18 -4 -36q0 -44 28 -44q22 0 71 36q7 6 22.5 19t72 71.5t123.5 134.5t177 218.5t231 312.5 q216 358 310 444q54 50 142 50q34 0 33 -17q0 -16 -12 -37q-54 -96 -106 -168q-42 -65 -108.5 -172t-214 -376t-228.5 -466q-112 -255 -111 -401q0 -14 3 -35.5t3 -25.5q0 -23 -19 -22q-8 0 -24 8q-78 85 -78 231q0 117 49 261t97 230l49 87q4 6 4 14q0 4 -4 4l-20 -8 q-177 -228 -331.5 -384.5t-237.5 -212t-123 -55.5q-67 0 -67 107zM954 1620q0 50 40 95t82 45q50 0 50 -54q0 -50 -38 -96.5t-84 -46.5q-50 0 -50 57zM1277 1620q0 52 39.5 96t84.5 44q48 0 48 -56q0 -50 -38 -95.5t-84 -45.5q-50 0 -50 57z" />
<glyph unicode="&#xdd;" horiz-adv-x="439" d="M-90 -44l8 21q72 111 151.5 250t123.5 223l42 84q65 125 108.5 410.5t43.5 466.5l-6 66q-4 8 -4 18q0 23 21 37q54 36 138 35q32 0 32 -54q-13 -331 -101 -778q2 -16 12 -17q6 0 15 8q367 506 567 703q167 161 335 161q27 -2 27 -16q0 -6 -16 -23t-49 -44.5t-63.5 -51.5 t-77.5 -61.5t-73 -56.5q-18 -14 -47 -38.5t-117.5 -108t-172 -171.5t-189.5 -223t-189 -270q-182 -321 -252 -456t-233 -135q-34 0 -34 21zM885 1668q0 6 8 18q19 15 60 59.5t70 81.5l31 33q11 18 38 19h98q24 0 24 -14q0 -9 -8 -17q-54 -61 -129 -109t-121 -63l-49 -16 q-22 0 -22 8z" />
<glyph unicode="&#xde;" horiz-adv-x="844" d="M-65 -92q0 12 5 23q50 131 267.5 525.5t344.5 597.5q-159 0 -288.5 -74t-129.5 -214q0 -56 31 -107q9 -20 9 -29q0 -12 -15 -12q-4 0 -17 4q-6 2 -15.5 8t-35.5 24t-46.5 38t-36.5 53.5t-16 66.5q0 125 153.5 209t348.5 84q56 0 86 -3l77 124q4 6 9.5 16t26.5 36 t43.5 45.5t52.5 35.5t58 16q26 0 26 -14q0 -17 -24 -53l-123 -230q291 -74 291 -297q0 -132 -68 -239t-177.5 -171t-234.5 -98t-252 -34q-94 -172 -186.5 -263t-140.5 -91q-23 0 -23 23zM313 293q241 4 389.5 166.5t148.5 347.5q1 156 -152 216l-378 -714q-2 -2 -3.5 -8 t-4.5 -8z" />
<glyph unicode="&#xdf;" horiz-adv-x="908" d="M-220 -26l5 18q6 2 17.5 9t51 48t86 103.5t121.5 189.5t158 292q46 90 201.5 358t219.5 337q6 8 18 20t52.5 44t83.5 57t111 45t139 20q22 0 51 -4t75 -18t76.5 -49t30.5 -88q0 -96 -82.5 -172.5t-189.5 -126.5q-164 -82 -197 -113q-40 -33 -40 -95q0 -41 64.5 -179 t64.5 -249q0 -189 -120 -316.5t-315 -127.5q-65 0 -113 20.5t-70 48.5t-35 56t-16 49l-2 20q4 22 19 22l16 -9q64 -102 179 -102q119 0 200.5 100.5t81.5 234.5q0 107 -55 237.5t-55 168.5q0 48 35 87.5t69 52.5l35 16q68 32 128 67.5t88 55.5l27 20q132 98 132 223 q0 53 -29 86.5t-82 33.5q-28 0 -61 -9.5t-50 -20.5l-19 -10q-73 -42 -179 -210.5t-176 -314.5l-70 -149q-81 -177 -149 -306t-96 -172l-29 -42q-70 -120 -187.5 -195.5t-201.5 -75.5q-17 0 -17 14z" />
<glyph unicode="&#xe0;" d="M-30 44q0 34 19 104.5t29 94.5q46 113 115.5 219t163.5 203t219.5 157.5t260.5 60.5q113 0 112 -34q0 -20 -50 -20q-184 0 -346 -157.5t-262 -362.5q-28 -56 -28 -94q0 -23 14 -22q24 0 62 33q25 23 65.5 59t133 138.5t146.5 190.5q8 16 25 38t65 59.5t96 37.5 q27 0 27 -14q0 -4 -6 -15q-8 -15 -45 -79.5t-69.5 -121.5t-68.5 -124.5t-57 -115.5t-21 -64q0 -12 10 -12q31 0 146 116q88 93 207 227q6 6 10.5 6t4.5 -8q0 -38 -31 -75q-197 -218 -333 -343q-167 -152 -229 -152q-29 0 -28 32q0 40 35.5 122.5t70.5 144.5l36 62 q8 14 8 18.5t-4 4.5q-7 0 -29 -23q-60 -66 -138 -141t-126 -118l-46 -40q-78 -60 -120 -60q-44 0 -44 68zM703 1202q0 20 15 20h109q23 0 22 -22v-44q1 -84 10 -152q0 -12 -10 -12q-8 0 -26 12q-36 24 -66.5 74t-42.5 86z" />
<glyph unicode="&#xe1;" d="M-30 44q0 34 19 104.5t29 94.5q46 113 115.5 219t163.5 203t219.5 157.5t260.5 60.5q113 0 112 -34q0 -20 -50 -20q-184 0 -346 -157.5t-262 -362.5q-28 -56 -28 -94q0 -23 14 -22q24 0 62 33q25 23 65.5 59t133 138.5t146.5 190.5q8 16 25 38t65 59.5t96 37.5 q27 0 27 -14q0 -4 -6 -15q-8 -15 -45 -79.5t-69.5 -121.5t-68.5 -124.5t-57 -115.5t-21 -64q0 -12 10 -12q31 0 146 116q88 93 207 227q6 6 10.5 6t4.5 -8q0 -38 -31 -75q-197 -218 -333 -343q-167 -152 -229 -152q-29 0 -28 32q0 40 35.5 122.5t70.5 144.5l36 62 q8 14 8 18.5t-4 4.5q-7 0 -29 -23q-60 -66 -138 -141t-126 -118l-46 -40q-78 -60 -120 -60q-44 0 -44 68zM759 1011q0 6 7 19q20 16 60.5 60t70.5 78l30 36q12 18 38 18h98q25 0 25 -14q0 -8 -8 -15q-54 -62 -129.5 -109.5t-123.5 -64.5l-46 -15q-22 0 -22 7z" />
<glyph unicode="&#xe2;" d="M-30 44q0 34 19 104.5t29 94.5q46 113 115.5 219t163.5 203t219.5 157.5t260.5 60.5q113 0 112 -34q0 -20 -50 -20q-184 0 -346 -157.5t-262 -362.5q-28 -56 -28 -94q0 -23 14 -22q24 0 62 33q25 23 65.5 59t133 138.5t146.5 190.5q8 16 25 38t65 59.5t96 37.5 q27 0 27 -14q0 -4 -6 -15q-8 -15 -45 -79.5t-69.5 -121.5t-68.5 -124.5t-57 -115.5t-21 -64q0 -12 10 -12q31 0 146 116q88 93 207 227q6 6 10.5 6t4.5 -8q0 -38 -31 -75q-197 -218 -333 -343q-167 -152 -229 -152q-29 0 -28 32q0 40 35.5 122.5t70.5 144.5l36 62 q8 14 8 18.5t-4 4.5q-7 0 -29 -23q-60 -66 -138 -141t-126 -118l-46 -40q-78 -60 -120 -60q-44 0 -44 68zM592 1011l8 19q19 16 60 60t70 78l30 36q12 18 39 18h218q16 0 17 -14q0 -2 -4 -32t-8.5 -77t-4.5 -88q0 -19 -12 -19q-30 0 -64.5 59t-43.5 105q-2 8 -6 8l-12 -8 q-67 -66 -153 -109t-120 -43q-14 0 -14 7z" />
<glyph unicode="&#xe3;" d="M-30 44q0 34 19 104.5t29 94.5q46 113 115.5 219t163.5 203t219.5 157.5t260.5 60.5q113 0 112 -34q0 -20 -50 -20q-184 0 -346 -157.5t-262 -362.5q-28 -56 -28 -94q0 -23 14 -22q24 0 62 33q25 23 65.5 59t133 138.5t146.5 190.5q8 16 25 38t65 59.5t96 37.5 q27 0 27 -14q0 -4 -6 -15q-8 -15 -45 -79.5t-69.5 -121.5t-68.5 -124.5t-57 -115.5t-21 -64q0 -12 10 -12q31 0 146 116q88 93 207 227q6 6 10.5 6t4.5 -8q0 -38 -31 -75q-197 -218 -333 -343q-167 -152 -229 -152q-29 0 -28 32q0 40 35.5 122.5t70.5 144.5l36 62 q8 14 8 18.5t-4 4.5q-7 0 -29 -23q-60 -66 -138 -141t-126 -118l-46 -40q-78 -60 -120 -60q-44 0 -44 68zM598 1009q0 25 42 45t86 20q29 0 80 -13t77 -13q48 0 88 28q2 2 8 2q14 0 15 -13q0 -4 -2 -6q-67 -118 -153 -117q-38 0 -91 33.5t-87 33.5q-14 0 -37 -5 q-6 -2 -13 -2q-12 0 -13 7z" />
<glyph unicode="&#xe4;" d="M-30 44q0 34 19 104.5t29 94.5q46 113 115.5 219t163.5 203t219.5 157.5t260.5 60.5q113 0 112 -34q0 -20 -50 -20q-184 0 -346 -157.5t-262 -362.5q-28 -56 -28 -94q0 -23 14 -22q24 0 62 33q25 23 65.5 59t133 138.5t146.5 190.5q8 16 25 38t65 59.5t96 37.5 q27 0 27 -14q0 -4 -6 -15q-8 -15 -45 -79.5t-69.5 -121.5t-68.5 -124.5t-57 -115.5t-21 -64q0 -12 10 -12q31 0 146 116q88 93 207 227q6 6 10.5 6t4.5 -8q0 -38 -31 -75q-197 -218 -333 -343q-167 -152 -229 -152q-29 0 -28 32q0 40 35.5 122.5t70.5 144.5l36 62 q8 14 8 18.5t-4 4.5q-7 0 -29 -23q-60 -66 -138 -141t-126 -118l-46 -40q-78 -60 -120 -60q-44 0 -44 68zM578 1070q0 50 40.5 95t82.5 45q50 0 50 -54q0 -50 -38.5 -96.5t-84.5 -46.5q-50 0 -50 57zM902 1070q0 52 39.5 96t84.5 44q48 0 48 -56q0 -50 -38 -95.5t-84 -45.5 q-50 0 -50 57z" />
<glyph unicode="&#xe5;" d="M-30 44q0 34 19 104.5t29 94.5q46 113 115.5 219t163.5 203t219.5 157.5t260.5 60.5q113 0 112 -34q0 -20 -50 -20q-184 0 -346 -157.5t-262 -362.5q-28 -56 -28 -94q0 -23 14 -22q24 0 62 33q25 23 65.5 59t133 138.5t146.5 190.5q8 16 25 38t65 59.5t96 37.5 q27 0 27 -14q0 -4 -6 -15q-8 -15 -45 -79.5t-69.5 -121.5t-68.5 -124.5t-57 -115.5t-21 -64q0 -12 10 -12q31 0 146 116q88 93 207 227q6 6 10.5 6t4.5 -8q0 -38 -31 -75q-197 -218 -333 -343q-167 -152 -229 -152q-29 0 -28 32q0 40 35.5 122.5t70.5 144.5l36 62 q8 14 8 18.5t-4 4.5q-7 0 -29 -23q-60 -66 -138 -141t-126 -118l-46 -40q-78 -60 -120 -60q-44 0 -44 68zM747 1063q0 62 54 118t105 56q32 0 50.5 -21t18.5 -56q0 -59 -52.5 -115.5t-108.5 -56.5q-32 0 -49.5 21t-17.5 54zM810 1088q0 -34 29 -34q24 1 48 27t24 55 q0 34 -30 34q-24 0 -47.5 -26t-23.5 -56z" />
<glyph unicode="&#xe6;" horiz-adv-x="969" d="M-30 40q0 134 99.5 327t268 347.5t332.5 154.5q23 0 39.5 -4t24 -9t12.5 -9t7 -4q4 0 9 6q12 15 31 39.5t66 66t74 41.5q14 0 15 -21q0 -28 -29 -84q-12 -25 -32 -60q10 6 30 14q87 36 157 36q78 0 78 -62q0 -116 -164.5 -266.5t-369.5 -229.5q-7 -2 -14 -14 q-31 -83 -30 -146q0 -73 54 -73q86 0 227 130q106 98 305 326q6 6 10 6t4 -8q0 -38 -30 -75q-149 -164 -263 -274q-84 -84 -200.5 -161.5t-192.5 -77.5q-92 0 -93 128q0 121 57 257q-333 -365 -440 -365q-42 0 -42 64zM186 207q0 -29 21 -29q22 0 62 33q126 110 263 287 q42 68 80 111q60 90 114 192q2 2 2 7q0 14 -33 15q-86 0 -210.5 -128.5t-211.5 -276.5t-87 -211zM640 389q0 -8 4 -8q12 0 53.5 20t119 94t129.5 185q24 50 23 88q0 33 -19 33q-12 0 -27.5 -7t-22.5 -15l-11 -9q-62 -54 -155.5 -197.5t-93.5 -183.5z" />
<glyph unicode="&#xe7;" horiz-adv-x="577" d="M2 100q0 151 106.5 334.5t270 314t309.5 130.5q78 0 78 -58q0 -100 -130 -227q-12 -12 -52 -42.5t-56 -30.5q-10 0 -11 11l7 18q81 142 80 216q0 41 -26 41q-62 0 -157.5 -121.5t-166 -277t-70.5 -245.5q0 -73 53 -73q90 0 227 130q106 98 304 326q6 6 10.5 6t4.5 -8 q0 -38 -30 -75q-148 -163 -263 -274q-189 -178 -331 -225q-25 -14 -25 -39q0 -7 7.5 -23.5t7.5 -28.5q0 -30 -24.5 -50t-55.5 -20q-48 0 -55 28q0 10 10 10q4 0 14 -3t18 -3q14 0 28 9.5t14 23.5q0 7 -8 22.5t-8 19.5q0 8 7 19t15 17l9 6q-111 2 -111 142z" />
<glyph unicode="&#xe8;" horiz-adv-x="575" d="M2 84q0 213 158 445.5t364 315.5q87 36 156 36q79 0 79 -62q0 -116 -165 -266.5t-370 -229.5q-7 -2 -13 -14q-31 -83 -31 -146q0 -73 55 -73q86 0 227 130q106 98 304 326q6 6 10.5 6t4.5 -8q0 -38 -30 -75q-149 -164 -263 -274q-84 -84 -200.5 -161.5t-193.5 -77.5 q-92 0 -92 128zM247 389q0 -8 4 -8q12 0 53 20t118.5 94t129.5 185q24 50 24 88q0 33 -20 33q-12 0 -27 -7t-23 -15l-10 -9q-62 -54 -155.5 -197.5t-93.5 -183.5zM584 1202q0 20 16 20h109q22 0 21 -22v-44q1 -84 11 -152q0 -12 -11 -12q-8 0 -25 12q-37 24 -66.5 74 t-42.5 86z" />
<glyph unicode="&#xe9;" horiz-adv-x="575" d="M2 84q0 213 158 445.5t364 315.5q87 36 156 36q79 0 79 -62q0 -116 -165 -266.5t-370 -229.5q-7 -2 -13 -14q-31 -83 -31 -146q0 -73 55 -73q86 0 227 130q106 98 304 326q6 6 10.5 6t4.5 -8q0 -38 -30 -75q-149 -164 -263 -274q-84 -84 -200.5 -161.5t-193.5 -77.5 q-92 0 -92 128zM247 389q0 -8 4 -8q12 0 53 20t118.5 94t129.5 185q24 50 24 88q0 33 -20 33q-12 0 -27 -7t-23 -15l-10 -9q-62 -54 -155.5 -197.5t-93.5 -183.5zM611 1011q0 6 7 19q20 16 60 60t71 78l30 36q12 18 38 18h98q25 0 24 -14q0 -8 -8 -15q-54 -62 -129.5 -109.5 t-123.5 -64.5l-46 -15q-22 0 -21 7z" />
<glyph unicode="&#xea;" horiz-adv-x="575" d="M2 84q0 213 158 445.5t364 315.5q87 36 156 36q79 0 79 -62q0 -116 -165 -266.5t-370 -229.5q-7 -2 -13 -14q-31 -83 -31 -146q0 -73 55 -73q86 0 227 130q106 98 304 326q6 6 10.5 6t4.5 -8q0 -38 -30 -75q-149 -164 -263 -274q-84 -84 -200.5 -161.5t-193.5 -77.5 q-92 0 -92 128zM247 389q0 -8 4 -8q12 0 53 20t118.5 94t129.5 185q24 50 24 88q0 33 -20 33q-12 0 -27 -7t-23 -15l-10 -9q-62 -54 -155.5 -197.5t-93.5 -183.5zM479 1011l9 19q20 16 60 60t70 78l31 36q12 18 37 18h220q15 0 15 -14q0 -2 -4 -32t-7.5 -77t-3.5 -88 q0 -19 -13 -19q-31 0 -64.5 59t-43.5 105q-2 8 -6 8l-13 -8q-66 -66 -152 -109t-120 -43q-14 0 -15 7z" />
<glyph unicode="&#xeb;" horiz-adv-x="575" d="M2 84q0 213 158 445.5t364 315.5q87 36 156 36q79 0 79 -62q0 -116 -165 -266.5t-370 -229.5q-7 -2 -13 -14q-31 -83 -31 -146q0 -73 55 -73q86 0 227 130q106 98 304 326q6 6 10.5 6t4.5 -8q0 -38 -30 -75q-149 -164 -263 -274q-84 -84 -200.5 -161.5t-193.5 -77.5 q-92 0 -92 128zM247 389q0 -8 4 -8q12 0 53 20t118.5 94t129.5 185q24 50 24 88q0 33 -20 33q-12 0 -27 -7t-23 -15l-10 -9q-62 -54 -155.5 -197.5t-93.5 -183.5zM462 1070q0 50 40 95t82 45q50 0 50 -54q0 -50 -38 -96.5t-84 -46.5q-50 0 -50 57zM785 1070q0 52 40 96 t84 44q48 0 48 -56q0 -50 -38 -95.5t-84 -45.5q-50 0 -50 57z" />
<glyph unicode="&#xec;" horiz-adv-x="364" d="M-58.5 20.5q0.5 46.5 36.5 134.5t72 154l36 64q153 267 232 384q34 50 87 85t99 35q15 0 15 -14q0 -9 -13 -38q-25 -44 -119 -210.5t-112 -200.5q-82 -144 -82 -194q0 -17 12 -17q19 0 128 100q84 84 223 243q6 6 10 6t4 -8q0 -38 -30 -75q-148 -163 -263 -274 q-235 -220 -301 -221q-35 0 -34.5 46.5zM427 1202q0 20 17 20h108q22 0 22 -22v-44q0 -84 10 -152q0 -12 -10 -12q-8 0 -26 12q-36 24 -66 74t-42 86z" />
<glyph unicode="&#xed;" horiz-adv-x="364" d="M-58.5 20.5q0.5 46.5 36.5 134.5t72 154l36 64q153 267 232 384q34 50 87 85t99 35q15 0 15 -14q0 -9 -13 -38q-25 -44 -119 -210.5t-112 -200.5q-82 -144 -82 -194q0 -17 12 -17q19 0 128 100q84 84 223 243q6 6 10 6t4 -8q0 -38 -30 -75q-148 -163 -263 -274 q-235 -220 -301 -221q-35 0 -34.5 46.5zM446 1011q0 6 8 19q19 16 59.5 60t70.5 78l30 36q12 18 39 18h98q24 0 24 -14q-1 -8 -9 -15q-54 -62 -129 -109.5t-123 -64.5l-47 -15q-22 0 -21 7z" />
<glyph unicode="&#xee;" horiz-adv-x="364" d="M-58.5 20.5q0.5 46.5 36.5 134.5t72 154l36 64q153 267 232 384q34 50 87 85t99 35q15 0 15 -14q0 -9 -13 -38q-25 -44 -119 -210.5t-112 -200.5q-82 -144 -82 -194q0 -17 12 -17q19 0 128 100q84 84 223 243q6 6 10 6t4 -8q0 -38 -30 -75q-148 -163 -263 -274 q-235 -220 -301 -221q-35 0 -34.5 46.5zM303 1011l8 19q19 16 60 60t71 78l29 36q12 18 39 18h218q16 0 17 -14q0 -2 -4 -32t-8.5 -77t-4.5 -88q0 -19 -12 -19q-30 0 -64 59t-43 105q-2 8 -7 8l-12 -8q-67 -66 -153 -109t-119 -43q-14 0 -15 7z" />
<glyph unicode="&#xef;" horiz-adv-x="364" d="M-58.5 20.5q0.5 46.5 36.5 134.5t72 154l36 64q153 267 232 384q34 50 87 85t99 35q15 0 15 -14q0 -9 -13 -38q-25 -44 -119 -210.5t-112 -200.5q-82 -144 -82 -194q0 -17 12 -17q19 0 128 100q84 84 223 243q6 6 10 6t4 -8q0 -38 -30 -75q-148 -163 -263 -274 q-235 -220 -301 -221q-35 0 -34.5 46.5zM311 1070q0 50 40 95t82 45q50 0 51 -54q0 -50 -38 -96.5t-84 -46.5q-50 0 -51 57zM634 1070q0 52 40 96t85 44q48 0 48 -56q0 -50 -38.5 -95.5t-84.5 -45.5q-50 0 -50 57z" />
<glyph unicode="&#xf0;" horiz-adv-x="674" d="M0 111q0 250 220 531q67 86 175.5 173t216.5 87q54 0 106 -31l15 6q98 251 118 454l-257 -183q-18 -12 -26 -12q-11 0 -12 20q0 12 5 24.5t9 16.5l6 5q133 95 281 201v34q0 84 -15 153.5t-30 95.5l-13 26q-4 12 -4 22q0 15 13 16q10 0 33 -11q12 -8 29 -24.5t54 -82 t53 -144.5q257 184 293 203q6 4 17 5q13 0 13 -24q0 -10 -5.5 -20t-11.5 -14l-6 -6l-291 -205q4 -44 4 -69q0 -297 -196 -688t-441 -563q-175 -117 -267 -117q-86 0 -86 121zM171 155q0 -58 44 -59q11 0 24.5 4t21.5 9l6 6q98 59 198.5 211.5t150.5 275.5l50 120 q18 38 18 73q0 56 -60 56q-86 0 -195.5 -128.5t-183.5 -295t-74 -272.5z" />
<glyph unicode="&#xf1;" horiz-adv-x="760" d="M-100.5 -12q0.5 16 38.5 93.5t76 146.5l38 69l197 345q30 50 49.5 77.5t53 68.5t73 61t83.5 24q15 0 16 -14q0 -11 -7 -20q-46 -73 -141 -239.5t-121 -216.5q-6 -12 -6 -17q0 -4 4 -4t20 11q39 44 99.5 110.5t207 200t241.5 179.5q23 10 42 10q29 0 28 -32 q-16 -94 -154 -324q-153 -250 -153 -297q0 -15 14 -15q10 0 23 7t29 20t27 23t29 27t22 21q84 84 224 243q5 6 9 6t4 -8q0 -38 -30 -75q-148 -163 -263 -274q-235 -220 -308 -221q-35 0 -35 36q0 22 10 55t25 66.5t29.5 61t28 52t13.5 25.5q31 54 91 151.5t96.5 161 t36.5 78.5q0 9 -10 9l-29 -9q-92 -67 -221 -206t-210 -246l-82 -105q-27 -38 -47 -62t-57 -47t-76 -23q-28 0 -27.5 16zM528 1009q0 25 42 45t87 20q28 0 79 -13t76 -13q48 0 90 28q2 2 7 2q14 0 14 -13q0 -4 -2 -6q-66 -118 -153 -117q-38 0 -91 33.5t-87 33.5 q-16 0 -36 -5q-6 -2 -14 -2q-12 0 -12 7z" />
<glyph unicode="&#xf2;" horiz-adv-x="697" d="M10 134q0 155 100.5 335t260 307.5t313.5 127.5q113 0 113 -90q0 -48 -48 -130q-2 -2 -2 -6t4 -4q74 31 126 33q18 -4 18 -12q0 -12 -16 -29q-22 -22 -65.5 -58t-51.5 -44l-27 -38q-42 -118 -130 -245.5t-213 -224t-239 -96.5q-142 0 -143 174zM169 96q0 -76 53 -76 q85 0 202.5 169t141.5 339q-2 4 -2 12q0 58 104 104q16 7 18 15q16 70 17 107q0 85 -57 85q-79 0 -195 -144.5t-199 -325t-83 -285.5zM664 1202q0 20 16 20h109q22 0 21 -22v-44q1 -84 11 -152q0 -12 -11 -12q-7 0 -25 12q-36 24 -66.5 74t-42.5 86z" />
<glyph unicode="&#xf3;" horiz-adv-x="697" d="M10 134q0 155 100.5 335t260 307.5t313.5 127.5q113 0 113 -90q0 -48 -48 -130q-2 -2 -2 -6t4 -4q74 31 126 33q18 -4 18 -12q0 -12 -16 -29q-22 -22 -65.5 -58t-51.5 -44l-27 -38q-42 -118 -130 -245.5t-213 -224t-239 -96.5q-142 0 -143 174zM169 96q0 -76 53 -76 q85 0 202.5 169t141.5 339q-2 4 -2 12q0 58 104 104q16 7 18 15q16 70 17 107q0 85 -57 85q-79 0 -195 -144.5t-199 -325t-83 -285.5zM691 1011q0 6 8 19q19 16 59.5 60t70.5 78l30 36q12 18 38 18h99q24 0 23 -14q0 -8 -8 -15q-54 -62 -129 -109.5t-123 -64.5l-47 -15 q-22 0 -21 7z" />
<glyph unicode="&#xf4;" horiz-adv-x="697" d="M10 134q0 155 100.5 335t260 307.5t313.5 127.5q113 0 113 -90q0 -48 -48 -130q-2 -2 -2 -6t4 -4q74 31 126 33q18 -4 18 -12q0 -12 -16 -29q-22 -22 -65.5 -58t-51.5 -44l-27 -38q-42 -118 -130 -245.5t-213 -224t-239 -96.5q-142 0 -143 174zM169 96q0 -76 53 -76 q85 0 202.5 169t141.5 339q-2 4 -2 12q0 58 104 104q16 7 18 15q16 70 17 107q0 85 -57 85q-79 0 -195 -144.5t-199 -325t-83 -285.5zM477 1011l9 19q20 16 60 60t70 78l30 36q12 18 38 18h220q15 0 15 -14q0 -2 -4 -32t-7.5 -77t-3.5 -88q0 -19 -13 -19q-31 0 -64.5 59 t-43.5 105q-2 8 -6 8l-13 -8q-66 -66 -152 -109t-120 -43q-14 0 -15 7z" />
<glyph unicode="&#xf5;" horiz-adv-x="697" d="M10 134q0 155 100.5 335t260 307.5t313.5 127.5q113 0 113 -90q0 -48 -48 -130q-2 -2 -2 -6t4 -4q74 31 126 33q18 -4 18 -12q0 -12 -16 -29q-22 -22 -65.5 -58t-51.5 -44l-27 -38q-42 -118 -130 -245.5t-213 -224t-239 -96.5q-142 0 -143 174zM169 96q0 -76 53 -76 q85 0 202.5 169t141.5 339q-2 4 -2 12q0 58 104 104q16 7 18 15q16 70 17 107q0 85 -57 85q-79 0 -195 -144.5t-199 -325t-83 -285.5zM570 1042q0 24 42.5 43.5t86.5 19.5q28 0 79 -12.5t77 -12.5q48 0 89 27q2 2 8 3q13 0 13 -12q0 -4 -2 -6q-66 -119 -153 -119 q-38 0 -91 34.5t-87 34.5q-14 0 -36 -6q-6 -2 -14 -2q-12 0 -12 8z" />
<glyph unicode="&#xf6;" horiz-adv-x="697" d="M10 134q0 155 100.5 335t260 307.5t313.5 127.5q113 0 113 -90q0 -48 -48 -130q-2 -2 -2 -6t4 -4q74 31 126 33q18 -4 18 -12q0 -12 -16 -29q-22 -22 -65.5 -58t-51.5 -44l-27 -38q-42 -118 -130 -245.5t-213 -224t-239 -96.5q-142 0 -143 174zM169 96q0 -76 53 -76 q85 0 202.5 169t141.5 339q-2 4 -2 12q0 58 104 104q16 7 18 15q16 70 17 107q0 85 -57 85q-79 0 -195 -144.5t-199 -325t-83 -285.5zM530 1070q0 50 40.5 95t82.5 45q50 0 50 -54q0 -50 -38.5 -96.5t-84.5 -46.5q-50 0 -50 57zM853 1070q0 52 40 96t84 44q48 0 49 -56 q0 -50 -38 -95.5t-84 -45.5q-50 0 -51 57z" />
<glyph unicode="&#xf7;" horiz-adv-x="1003" d="M321 747q0 15 25 42.5t47 27.5h697q34 0 34 -18q0 -20 -23 -44.5t-47 -28.5h-699q-35 0 -34 21zM494 488q0 50 40 95t82 45q50 0 50 -56q0 -50 -38 -95.5t-84 -45.5q-50 0 -50 57zM777 973q0 48 40 94.5t83 46.5q22 0 36 -16t14 -43q0 -48 -39.5 -93t-85.5 -45 q-48 0 -48 56z" />
<glyph unicode="&#xf8;" horiz-adv-x="697" d="M-100 -102l10 18q48 50 116 122q-15 38 -16 96q0 155 100.5 335t260 307.5t313.5 127.5q92 0 109 -65l155 159q38 38 71 38q46 0 46 -21q0 -6 -6 -11l-312 -328q94 29 130 31q18 -4 18 -12q0 -12 -16 -29q-22 -22 -65.5 -58t-51.5 -44l-27 -38q-42 -118 -130 -245.5 t-213 -224t-239 -96.5q-42 0 -75 17l-58 -59q-29 -29 -98 -29q-23 0 -22 9zM169 74q9 -53 53 -54q79 0 188 148t146 309q-48 -50 -387 -403zM186 205q90 96 275.5 289t239.5 249q2 8 2 23q0 85 -57 85q-69 0 -166 -110.5t-178.5 -261t-115.5 -274.5z" />
<glyph unicode="&#xf9;" horiz-adv-x="743" d="M-65 4q0 40 33.5 122.5t67.5 146.5l33 62q168 316 249 422q40 51 97.5 86.5t90.5 35.5q19 0 20 -14q0 -7 -9 -22q-3 -8 -81 -133.5t-127 -215.5q-133 -243 -133 -279q0 -14 13 -14q18 0 62 36q130 113 287 303q86 92 180 241q65 98 171 98q17 0 18 -16l-16 -38 q-29 -50 -126 -220t-110 -193q-83 -144 -83 -192q0 -17 12 -17q20 0 128 100q85 84 223 243q6 6 10.5 6t4.5 -8q0 -38 -31 -75q-149 -164 -262 -274q-79 -74 -176.5 -148.5t-141.5 -74.5q-30 0 -30 42q0 24 36 104.5t72 148.5l37 68l61 107q0 6 -3.5 6t-9.5 -6 q-75 -86 -155 -167.5t-123 -119.5l-44 -38q-156 -149 -216 -149q-29 0 -29 36zM622 1202q0 20 16 20h109q22 0 21 -22v-44q1 -84 11 -152q0 -12 -11 -12q-8 0 -25 12q-36 24 -66.5 74t-42.5 86z" />
<glyph unicode="&#xfa;" horiz-adv-x="743" d="M-65 4q0 40 33.5 122.5t67.5 146.5l33 62q168 316 249 422q40 51 97.5 86.5t90.5 35.5q19 0 20 -14q0 -7 -9 -22q-3 -8 -81 -133.5t-127 -215.5q-133 -243 -133 -279q0 -14 13 -14q18 0 62 36q130 113 287 303q86 92 180 241q65 98 171 98q17 0 18 -16l-16 -38 q-29 -50 -126 -220t-110 -193q-83 -144 -83 -192q0 -17 12 -17q20 0 128 100q85 84 223 243q6 6 10.5 6t4.5 -8q0 -38 -31 -75q-149 -164 -262 -274q-79 -74 -176.5 -148.5t-141.5 -74.5q-30 0 -30 42q0 24 36 104.5t72 148.5l37 68l61 107q0 6 -3.5 6t-9.5 -6 q-75 -86 -155 -167.5t-123 -119.5l-44 -38q-156 -149 -216 -149q-29 0 -29 36zM661 1011q0 6 7 19q20 16 60 60t71 78l30 36q12 18 38 18h98q25 0 25 -14q-1 -8 -9 -15q-54 -62 -129 -109.5t-122 -64.5l-48 -15q-22 0 -21 7z" />
<glyph unicode="&#xfb;" horiz-adv-x="743" d="M-65 4q0 40 33.5 122.5t67.5 146.5l33 62q168 316 249 422q40 51 97.5 86.5t90.5 35.5q19 0 20 -14q0 -7 -9 -22q-3 -8 -81 -133.5t-127 -215.5q-133 -243 -133 -279q0 -14 13 -14q18 0 62 36q130 113 287 303q86 92 180 241q65 98 171 98q17 0 18 -16l-16 -38 q-29 -50 -126 -220t-110 -193q-83 -144 -83 -192q0 -17 12 -17q20 0 128 100q85 84 223 243q6 6 10.5 6t4.5 -8q0 -38 -31 -75q-149 -164 -262 -274q-79 -74 -176.5 -148.5t-141.5 -74.5q-30 0 -30 42q0 24 36 104.5t72 148.5l37 68l61 107q0 6 -3.5 6t-9.5 -6 q-75 -86 -155 -167.5t-123 -119.5l-44 -38q-156 -149 -216 -149q-29 0 -29 36zM488 1011l8 19q19 16 59.5 60t70.5 78l31 36q11 18 38 18h218q16 0 16 -14q0 -2 -4 -32t-8 -77t-4 -88q0 -19 -11 -19q-31 0 -65 59t-44 105q-2 8 -6 8l-12 -8q-66 -66 -152.5 -109t-120.5 -43 q-14 0 -14 7z" />
<glyph unicode="&#xfc;" horiz-adv-x="743" d="M-65 4q0 40 33.5 122.5t67.5 146.5l33 62q168 316 249 422q40 51 97.5 86.5t90.5 35.5q19 0 20 -14q0 -7 -9 -22q-3 -8 -81 -133.5t-127 -215.5q-133 -243 -133 -279q0 -14 13 -14q18 0 62 36q130 113 287 303q86 92 180 241q65 98 171 98q17 0 18 -16l-16 -38 q-29 -50 -126 -220t-110 -193q-83 -144 -83 -192q0 -17 12 -17q20 0 128 100q85 84 223 243q6 6 10.5 6t4.5 -8q0 -38 -31 -75q-149 -164 -262 -274q-79 -74 -176.5 -148.5t-141.5 -74.5q-30 0 -30 42q0 24 36 104.5t72 148.5l37 68l61 107q0 6 -3.5 6t-9.5 -6 q-75 -86 -155 -167.5t-123 -119.5l-44 -38q-156 -149 -216 -149q-29 0 -29 36zM532 1070q0 50 40 95t83 45q50 0 50 -54q0 -50 -38.5 -96.5t-84.5 -46.5q-50 0 -50 57zM855 1070q0 52 40 96t84 44q48 0 49 -56q0 -50 -38 -95.5t-84 -45.5q-50 0 -51 57z" />
<glyph unicode="&#xfd;" horiz-adv-x="720" d="M-381 -1028q0 205 146 446q159 259 490 532q65 121 176 335l84 165q0 6 -3.5 6t-9.5 -6q-75 -86 -157 -169.5t-126 -123.5l-45 -40q-150 -142 -212 -143q-29 0 -29 36q0 40 32.5 121.5t64.5 141.5l32 62q168 316 249 422q40 51 98 86.5t91 35.5q19 0 19 -14q0 -7 -7 -22 q-4 -8 -82.5 -133.5t-126.5 -215.5q-132 -243 -132 -279q0 -14 11 -14q18 0 63 36q130 113 287 303q86 92 180 241q27 40 78 69t93 29q18 0 19 -16l-17 -38q-28 -50 -125.5 -220t-108.5 -191q-16 -31 -74 -130.5t-81 -141.5q126 102 209 177q88 93 206 227q6 6 10 6t4 -8 q0 -38 -30 -75q-88 -96 -152 -164q-84 -88 -301 -257l-53 -96q-387 -712 -533 -927q-14 -23 -36.5 -53.5t-72.5 -84t-80 -53.5q-48 0 -48 138zM-321 -935q0 -34 12 -34q10 0 30 19t34 39l14 20q199 311 432 742q-261 -228 -385 -429q-16 -25 -38.5 -63.5t-60.5 -134 t-38 -159.5zM618 1011q0 6 8 19q20 16 60 60t71 78l30 36q12 18 38 18h98q25 0 25 -14q-1 -8 -9 -15q-54 -62 -129 -109.5t-124 -64.5l-46 -15q-23 0 -22 7z" />
<glyph unicode="&#xfe;" horiz-adv-x="691" d="M-712 -1118q0 54 117.5 278t234.5 423l119 197q291 507 454 806q74 144 151 263q405 720 571 932q60 78 84 77q10 0 11 -16q0 -44 -65 -172q-413 -724 -582 -1019q6 0 15 8q6 9 17.5 23.5t48 53.5t69.5 68t76.5 53t76.5 24q78 0 78 -128q0 -104 -61 -257q0 -4 -23 -56.5 t-73.5 -135t-115 -159t-159.5 -133t-196 -56.5q-28 0 -52 7t-36 14t-16 7l-14 -8q-54 -81 -172.5 -297.5t-188.5 -362.5q-10 -18 -26 -48t-62 -108.5t-87.5 -138t-91 -108.5t-83.5 -49q-19 0 -19 18zM65 36q0 -36 56 -36q57 0 121.5 53.5t116 128.5t94.5 150.5t64 129.5 l25 52q52 130 52 191q0 42 -30 42q-18 0 -36 -12q-64 -40 -177.5 -205.5t-193.5 -312.5l-83 -144q-9 -18 -9 -37z" />
<glyph unicode="&#xff;" horiz-adv-x="720" d="M-381 -1028q0 205 146 446q159 259 490 532q65 121 176 335l84 165q0 6 -3.5 6t-9.5 -6q-75 -86 -157 -169.5t-126 -123.5l-45 -40q-150 -142 -212 -143q-29 0 -29 36q0 40 32.5 121.5t64.5 141.5l32 62q168 316 249 422q40 51 98 86.5t91 35.5q19 0 19 -14q0 -7 -7 -22 q-4 -8 -82.5 -133.5t-126.5 -215.5q-132 -243 -132 -279q0 -14 11 -14q18 0 63 36q130 113 287 303q86 92 180 241q27 40 78 69t93 29q18 0 19 -16l-17 -38q-28 -50 -125.5 -220t-108.5 -191q-16 -31 -74 -130.5t-81 -141.5q126 102 209 177q88 93 206 227q6 6 10 6t4 -8 q0 -38 -30 -75q-88 -96 -152 -164q-84 -88 -301 -257l-53 -96q-387 -712 -533 -927q-14 -23 -36.5 -53.5t-72.5 -84t-80 -53.5q-48 0 -48 138zM-321 -935q0 -34 12 -34q10 0 30 19t34 39l14 20q199 311 432 742q-261 -228 -385 -429q-16 -25 -38.5 -63.5t-60.5 -134 t-38 -159.5zM510 1070q0 50 40 95t82 45q50 0 50 -54q0 -50 -38 -96.5t-84 -46.5q-50 0 -50 57zM833 1070q0 52 40 96t84 44q48 0 48 -56q0 -50 -38 -95.5t-84 -45.5q-50 0 -50 57z" />
<glyph unicode="&#x152;" horiz-adv-x="1557" d="M0 182q0 199 78.5 407t190.5 361t231.5 262t209.5 136q10 4 26.5 4t16.5 -9q0 -12 -16 -31q-58 -56 -138 -161t-173 -255.5t-157 -337.5t-64 -351q0 -173 114 -173q197 0 432 341q102 183 186 324q151 315 151 575q0 63 -46 63q-42 0 -116.5 -60.5t-120.5 -111.5t-54 -63 q-23 -31 -39 -30q-13 0 -13 22q0 6 4 22q46 138 193.5 278t277.5 140q117 0 117 -180q0 -32 -8 -96l12 19q70 113 70 169q0 11 -5.5 25.5t-5.5 18.5q0 22 29 21q168 12 361 12q165 0 265 -10q30 0 30 -25q0 -6 -5 -23q-67 -167 -136 -261q-10 -9 -21 -9q-18 0 -19 25 q10 38 11 82q0 165 -165 165h-8q-102 0 -147 -56q-102 -126 -272 -436q-20 -34 -51 -88q94 2 302 2q19 0 19 -12t-17 -28t-36 -18q-123 -6 -278 -6h-23q-284 -513 -338 -697q-8 -24 -8 -44q0 -60 107 -60q44 0 96 17t127 60t169.5 137.5t193.5 228.5q11 23 36 23 q16 0 16 -17q0 -4 -4 -15q-96 -247 -245 -442q-12 -29 -60 -36q-165 -7 -348 -8q-223 0 -335 12q-20 2 -20 28q0 13 8 36l32 76q-224 -184 -448 -184q-172 0 -172 242z" />
<glyph unicode="&#x153;" horiz-adv-x="1021" d="M10 140q0 151 107 333q110 193 250.5 302.5t264.5 109.5q71 0 110 -41t45 -111q90 75 182 112q86 36 157 36q78 0 78 -62q0 -116 -164.5 -266.5t-369.5 -229.5q-8 -2 -13 -14q-31 -83 -31 -146q0 -73 54 -73q87 0 227 130q107 98 305 326q6 6 10 6t4 -8q0 -38 -29 -75 q-149 -164 -264 -274q-84 -84 -200.5 -161.5t-192.5 -77.5q-92 0 -92 124q-142 -118 -277 -118q-79 0 -120 50t-41 128zM161 94q0 -74 56 -74q136 4 321 407q109 235 108 343q0 65 -42 65q-67 0 -164 -119.5t-175 -288.5q-104 -228 -104 -333zM693 389q0 -8 4 -8q12 0 53 20 t118.5 94t129.5 185q24 50 23 88q0 33 -19 33q-12 0 -27.5 -7t-22.5 -15l-10 -9q-83 -72 -191 -255q-27 -64 -58 -126z" />
<glyph unicode="&#x178;" horiz-adv-x="439" d="M-90 -44l8 21q72 111 151.5 250t123.5 223l42 84q65 125 108.5 410.5t43.5 466.5l-6 66q-4 8 -4 18q0 23 21 37q54 36 138 35q32 0 32 -54q-13 -331 -101 -778q2 -16 12 -17q6 0 15 8q367 506 567 703q167 161 335 161q27 -2 27 -16q0 -6 -16 -23t-49 -44.5t-63.5 -51.5 t-77.5 -61.5t-73 -56.5q-18 -14 -47 -38.5t-117.5 -108t-172 -171.5t-189.5 -223t-189 -270q-182 -321 -252 -456t-233 -135q-34 0 -34 21zM695 1678q0 50 40 95t82 45q50 0 50 -54q0 -50 -38 -96t-84 -46q-50 0 -50 56zM1017 1678q0 52 40.5 96t84.5 44q48 0 48 -56 q0 -50 -38 -95t-84 -45q-50 0 -51 56z" />
<glyph unicode="&#x2c6;" d="M586 1011l8 19q19 16 60 60t70 78l31 36q11 18 38 18h218q16 0 17 -14q0 -2 -4.5 -32t-8.5 -77t-4 -88q0 -19 -11 -19q-31 0 -65 59t-44 105q-2 8 -6 8l-12 -8q-66 -66 -152.5 -109t-120.5 -43q-14 0 -14 7z" />
<glyph unicode="&#x2dc;" horiz-adv-x="760" d="M526 1009q0 25 42.5 45t86.5 20q28 0 79 -13t76 -13q48 0 90 28q2 2 7 2q14 0 14 -13q0 -4 -2 -6q-66 -118 -153 -117q-38 0 -91 33.5t-87 33.5q-14 0 -36 -5q-6 -2 -14 -2q-12 0 -12 7z" />
<glyph unicode="&#x2000;" horiz-adv-x="969" />
<glyph unicode="&#x2001;" horiz-adv-x="1938" />
<glyph unicode="&#x2002;" horiz-adv-x="969" />
<glyph unicode="&#x2003;" horiz-adv-x="1938" />
<glyph unicode="&#x2004;" horiz-adv-x="646" />
<glyph unicode="&#x2005;" horiz-adv-x="484" />
<glyph unicode="&#x2006;" horiz-adv-x="323" />
<glyph unicode="&#x2007;" horiz-adv-x="323" />
<glyph unicode="&#x2008;" horiz-adv-x="242" />
<glyph unicode="&#x2009;" horiz-adv-x="387" />
<glyph unicode="&#x200a;" horiz-adv-x="107" />
<glyph unicode="&#x2010;" horiz-adv-x="862" d="M263 427q0 16 25 43.5t47 27.5h536q35 0 35 -19t-23.5 -43t-47.5 -28h-538q-34 0 -34 19z" />
<glyph unicode="&#x2011;" horiz-adv-x="862" d="M263 427q0 16 25 43.5t47 27.5h536q35 0 35 -19t-23.5 -43t-47.5 -28h-538q-34 0 -34 19z" />
<glyph unicode="&#x2012;" horiz-adv-x="862" d="M263 427q0 16 25 43.5t47 27.5h536q35 0 35 -19t-23.5 -43t-47.5 -28h-538q-34 0 -34 19z" />
<glyph unicode="&#x2013;" horiz-adv-x="860" d="M263 427q0 16 12 43.5t24 27.5h548q17 0 18 -19q0 -19 -12 -43t-24 -28h-550q-15 0 -16 19z" />
<glyph unicode="&#x2014;" horiz-adv-x="1462" d="M263 427q0 16 25 43.5t47 27.5h1098q34 0 34 -19t-23 -43t-48 -28h-1099q-34 0 -34 19z" />
<glyph unicode="&#x2018;" horiz-adv-x="404" d="M612 1325q0 34 13 74t26 62l11 22q16 46 127 55q28 0 28 -17q0 -10 -9 -20q-99 -147 -130 -245q-8 -24 -19 -24q-25 0 -36 33t-11 60z" />
<glyph unicode="&#x2019;" horiz-adv-x="280" d="M524 1249l4 15q25 38 54 90.5t44 86.5l18 34l2 4q2 4 9 13t20 17t40.5 14.5t61.5 6.5q29 0 28 -19q0 -6 -6 -17q-46 -93 -107.5 -156.5t-97.5 -81.5l-38 -15q-16 -4 -20 -4q-12 0 -12 12z" />
<glyph unicode="&#x201a;" horiz-adv-x="368" d="M-78 -176q0 11 9 27q2 2 22.5 36.5t28.5 50.5t19 46t15 54q0 69 42 124t97 55q65 0 64 -58q0 -67 -94.5 -179t-168.5 -158q-12 -8 -23 -8t-11 10z" />
<glyph unicode="&#x201c;" horiz-adv-x="636" d="M612 1325q0 34 13 74t26 62l11 22q16 46 127 55q28 0 28 -17q0 -10 -9 -20q-99 -147 -130 -245q-8 -24 -19 -24q-25 0 -36 33t-11 60zM845 1327q0 34 12 73t24 61l12 22q15 46 128 55q27 0 27 -17q0 -8 -6 -20q-102 -147 -133 -245q-7 -24 -18 -24q-25 0 -35.5 33 t-10.5 62z" />
<glyph unicode="&#x201d;" horiz-adv-x="521" d="M524 1249l4 15l116 211l2 4q0 4 8 13t20 17t39.5 14.5t61.5 6.5q29 0 28 -19q0 -6 -6 -17q-46 -93 -107.5 -156.5t-99.5 -81.5l-36 -15l-16 -4q-14 0 -14 12zM764 1249l4 15q25 38 54 90.5t45 86.5l18 34l2 4q2 4 9.5 13t20 17t40 14.5t60.5 6.5q29 0 29 -19q0 -6 -6 -17 q-46 -93 -107.5 -156.5t-97.5 -81.5l-38 -15q-16 -4 -20 -4q-12 0 -13 12z" />
<glyph unicode="&#x201e;" horiz-adv-x="607" d="M-78 -176q0 11 9 27q2 2 22.5 36.5t28.5 50.5t19 46t15 54q0 69 42 124t97 55q65 0 64 -58q0 -67 -94.5 -179t-168.5 -158q-12 -8 -23 -8t-11 10zM161 -176q0 11 10 27q1 2 21.5 36.5t28 50.5t19 46t15.5 54q0 69 42 124t96 55q65 0 65 -58q0 -67 -94 -179t-169 -158 q-12 -8 -23 -8t-11 10z" />
<glyph unicode="&#x2022;" horiz-adv-x="308" d="M28 395q0 84 68.5 167.5t148.5 83.5q42 0 66 -28t24 -74q0 -86 -68 -165.5t-148 -81.5q-41 0 -66 27t-25 71z" />
<glyph unicode="&#x2026;" horiz-adv-x="1045" d="M0 50q0 56 45 111.5t99 55.5q60 0 61 -68q0 -58 -45.5 -110.5t-99.5 -54.5q-29 0 -44.5 18t-15.5 48zM351 50q0 56 45.5 111.5t99.5 55.5q60 0 60 -68q0 -58 -45 -110.5t-99 -54.5q-29 0 -45 18t-16 48zM699 50q0 56 45 111.5t99 55.5q60 0 61 -68q0 -58 -46 -110.5 t-99 -54.5q-29 0 -44.5 18t-15.5 48z" />
<glyph unicode="&#x202f;" horiz-adv-x="387" />
<glyph unicode="&#x2039;" horiz-adv-x="647" d="M56 389q0 16 7.5 30t12.5 21l8 6q102 74 276 178q195 117 286 163q54 24 114 23q54 0 54 -15q0 -14 -27 -33q-500 -275 -561 -343q-11 -11 -11 -28q4 -58 170 -347q10 -12 10 -26q0 -27 -46 -26q-70 0 -106 38q-46 50 -116.5 177.5t-70.5 181.5z" />
<glyph unicode="&#x203a;" horiz-adv-x="730" d="M-76 20q0 11 28 30q498 277 560 343q9 12 9 32q0 48 -170 343q-10 12 -10 27q0 26 48 26q71 0 107 -38q42 -48 114 -184.5t72 -177.5q0 -13 -7 -26.5t-13 -19.5l-7 -6q-104 -76 -278 -180q-142 -86 -285 -163q-40 -24 -120 -24q-48 0 -48 18z" />
<glyph unicode="&#x205f;" horiz-adv-x="484" />
<glyph unicode="&#x20ac;" horiz-adv-x="1042" d="M233 768q0 18 17 31t33 13h110l47 88h-97q-26 0 -25 13q0 18 16.5 31t33.5 13h105q155 253 366 418t425 165q173 0 217 -71q8 -12 9 -28q0 -35 -27 -72q-10 -16 -22 -17q-6 0 -11 5.5t-7 11.5l-2 4q-44 113 -149 113q-136 0 -289.5 -149t-283.5 -380q52 0 152.5 1 t150.5 1q15 0 19 -3q2 -2 2 -8q0 -12 -16 -27t-36 -19q-104 -2 -305 -2l-42 -88q50 0 147.5 1t145.5 1q16 0 20 -4q2 -2 2 -7q0 -12 -16 -27.5t-36 -18.5q-100 -2 -291 -2q-132 -293 -132 -492q0 -111 50 -180t148 -69q129 0 240 108q26 27 40 27q10 0 10 -17 q0 -80 -69 -114q-119 -60 -272 -60q-181 0 -266.5 103.5t-85.5 259.5q0 190 109 434h-109q-27 0 -26 13z" />
<glyph unicode="&#x2122;" horiz-adv-x="910" d="M257 536q0 113 112 217q-22 4 -40 17t-18 33q0 30 50.5 59t122.5 29q25 0 59.5 -5t54.5 -5q32 0 44 10h4q2 0 3 -2q0 -4 -3 -6q-27 -40 -70 -40q-26 0 -72 13t-73 13q-30 0 -56 -17t-26 -45q0 -12 6.5 -23.5t13.5 -17.5l6 -6q67 60 117 73h6q6 0 6 -4q0 -2 -8 -8 q-42 -15 -112.5 -103t-70.5 -176q0 -50 32 -50q46 0 85 51t58 110q2 4 6 4q12 0 12 -25l-8 -26q-27 -52 -79.5 -96t-107 -44t-54.5 70zM462 458v6q5 28 48.5 110.5t83.5 147.5l40 69l30 52q23 62 35 63q8 0 8 -27q-16 -205 -16 -233q0 -10 2 -10t8 6q19 26 51.5 65.5 t104.5 110.5t110 82h8q6 0 6 -5q0 -2 -4 -10q-30 -40 -65 -103.5t-57 -107.5l-20 -42q-56 -117 -56 -168v-10q0 -8 -4 -8q-10 0 -21 15.5t-11 42.5q0 72 128 289v4q0 4 -2 4t-6 -4q-32 -27 -85.5 -89t-91.5 -112l-35 -50q-8 -14 -15 -14l-6 12q29 224 29 239q0 6 -2 6l-6 -6 q-52 -74 -95 -189q-18 -48 -39 -82.5t-31 -44.5l-13 -9q-7 -4 -9 -4t-2 4z" />
<glyph unicode="&#x25fc;" horiz-adv-x="912" d="M0 0v913h913v-913h-913z" />
<glyph unicode="&#xfb01;" horiz-adv-x="836" d="M-343 -576q0 184 383 861q0 2 38.5 72t111.5 202t147 251l-48 13q-12 6 -12 14q0 12 22 12h61q208 337 341 494q138 160 274.5 239.5t210.5 79.5q48 0 49 -42q0 -92 -95.5 -187.5t-162.5 -124.5q-12 -4 -16 -4q-7 0 -7 10q0 6 5 17q117 170 117 226q0 14 -13 15 q-24 0 -79 -44q-136 -102 -478 -679h381q48 28 88 28q16 0 17 -14q0 -9 -15 -38q-24 -44 -118.5 -210.5t-111.5 -200.5q-83 -144 -83 -194q0 -17 12 -17q20 0 129 100q84 84 223 243q6 6 10 6t4 -8q0 -38 -31 -75q-148 -163 -262 -274q-235 -220 -301 -221q-34 0 -34 46.5 t36 134.5t71 154l37 64q152 267 231 384q16 24 42 50h-323q-29 0 -29 -14q0 -6 3.5 -34.5t3.5 -44.5q0 -186 -113.5 -448t-294.5 -503q-103 -138 -192 -228.5t-134 -119.5t-68 -29q-28 0 -27 38zM-130 -375q0 -8 6 -8q28 0 138 130q116 136 266.5 431.5t150.5 480.5 q0 28 -6 51q-317 -545 -441 -808q-114 -237 -114 -277zM965 1052q0 55 42.5 112.5t92.5 57.5q59 0 60 -68q0 -55 -46.5 -108.5t-98.5 -53.5q-50 0 -50 60z" />
<glyph unicode="&#xfb02;" horiz-adv-x="872" d="M-343 -576q0 184 383 861q0 2 38.5 72t111.5 202t147 251l-48 13q-12 6 -12 14q0 12 22 12h61q208 337 341 494q138 160 274.5 239.5t210.5 79.5q48 0 49 -42q0 -92 -95.5 -187.5t-162.5 -124.5q-12 -4 -16 -4q-7 0 -7 10q0 6 5 17q117 170 117 226q0 14 -13 15 q-24 0 -79 -44q-136 -102 -478 -679h155q28 0 27 -8q0 -10 -14.5 -22t-22.5 -12h-143q-29 0 -29 -14q0 -6 3.5 -34.5t3.5 -44.5q0 -186 -113.5 -448t-294.5 -503q-103 -138 -192 -228.5t-134 -119.5t-68 -29q-28 0 -27 38zM-130 -375q0 -8 6 -8q28 0 138 130 q116 136 266.5 431.5t150.5 480.5q0 28 -6 51q-317 -545 -441 -808q-114 -237 -114 -277zM435 0q0 23 5.5 48.5t17 56.5t21 52t26 60.5t23.5 52.5q56 127 345 667q395 720 726 886q48 24 97 23q56 0 56 -52q0 -120 -82 -263.5t-201 -264t-232 -211t-195 -136.5 q-12 -4 -23 -17q-88 -142 -172.5 -306.5t-124.5 -258.5l-42 -92q-10 -30 -10 -40q0 -18 14 -19q40 0 157 117q84 84 222 243q6 6 10.5 6t4.5 -8q0 -38 -30 -75q-149 -164 -263 -274q-251 -237 -319 -237q-31 0 -31 42zM1040 973q8 0 15 4q143 100 256.5 228t173 235 t89 185.5t29.5 113.5q0 19 -13 19q-29 0 -69 -40q-76 -76 -172.5 -221t-155.5 -248t-153 -276z" />
</font>
</defs>
</svg>
