<?xml version="1.0" standalone="no"?>
<!DOCTYPE svg PUBLIC "-//W3C//DTD SVG 1.1//EN" "http://www.w3.org/Graphics/SVG/1.1/DTD/svg11.dtd" >
<svg xmlns="http://www.w3.org/2000/svg" xmlns:xlink="http://www.w3.org/1999/xlink" version="1.1">
<metadata></metadata>
<defs>
<font id="arvin_lightitalic" horiz-adv-x="1279" >
<font-face units-per-em="2048" ascent="1638" descent="-410" />
<missing-glyph horiz-adv-x="599" />
<glyph horiz-adv-x="0" />
<glyph unicode="&#xd;" horiz-adv-x="599" />
<glyph unicode=" "  horiz-adv-x="599" />
<glyph unicode="&#x09;" horiz-adv-x="599" />
<glyph unicode="&#xa0;" horiz-adv-x="599" />
<glyph unicode="!" horiz-adv-x="567" d="M223 66l1 7q4 33 39 57q19 10 37 10h2q39 0 57 -37q7 -16 4 -33q-3 -35 -35 -57q-20 -13 -40 -13h-5q-29 0 -49 26q-13 20 -11 40zM270 274l144 1384l1 1h115l1 -1l-168 -1384l-1 -1h-91z" />
<glyph unicode="&#x22;" horiz-adv-x="755" d="M221 1298l53 472h93l-53 -472h-93zM468 1298l54 472h93l-53 -472h-94z" />
<glyph unicode="#" horiz-adv-x="1067" d="M131 569l11 92h216v1l97 353h-212l-1 1l9 91l2 1h227l130 465h1l89 -15l-124 -450h342q126 453 127 454q88 -15 89 -16l-122 -438h215l1 -1l-9 -91l-1 -1h-230l-98 -354h227l-10 -93h-243l-145 -521l-90 16l140 505h-343l-143 -510l-88 16l137 494h-200zM452 661h343 l98 354h-343z" />
<glyph unicode="$" horiz-adv-x="1136" d="M263 355l90 36q14 -45 39 -91q14 -26 45 -63q95 -99 231 -99h3q116 0 220 72q39 30 55 51q72 87 84 193q14 122 -60 203q-46 45 -102 62q-22 7 -110 29q-166 47 -240 95q-156 94 -134 273v9q12 116 93 220q19 23 50 53q39 33 70 51q39 22 80 38q26 9 68 17l24 4l13 113 h92l-13 -109q58 -5 94 -17q37 -13 69 -31q31 -17 64 -48q39 -38 53 -61q33 -51 43 -84l-88 -38q-10 32 -48 82q-87 105 -224 105q-117 0 -210 -65q-43 -33 -59 -55q-68 -80 -78 -180q-11 -97 42 -152q31 -31 53 -43q53 -35 174 -73q66 -19 146 -39q50 -17 83 -37 q26 -14 60 -44q28 -30 39 -49q64 -101 49 -224l-1 -9q-12 -104 -74 -202q-20 -31 -51 -64q-39 -35 -54 -46q-44 -31 -73 -44q-29 -15 -85 -33q-63 -15 -88 -15l-13 -110h-92l13 111q0 1 -8 1q-41 7 -72 17q-45 16 -79 38q-31 19 -65 50q-36 38 -47 56q-39 58 -53 97 q-10 23 -18 49z" />
<glyph unicode="%" horiz-adv-x="1544" d="M117 24v1l1221 1651h117l-1221 -1651l-3 -1h-114zM153 1370l2 12q9 93 81 177q35 36 55 49q87 58 180 58h2q116 0 197 -86q75 -88 64 -203q-13 -124 -117 -216q-60 -48 -120 -64q-44 -11 -83 -11q-115 0 -195 85q-33 37 -41 62q-32 67 -25 137zM257 1376q-8 -82 49 -141 q50 -47 119 -47q77 0 141 58q30 31 39 53q22 37 25 72l1 10q7 67 -40 127q-53 56 -128 56q-84 0 -153 -69q-47 -54 -53 -118v-1zM794 276l1 4q12 115 107 204q97 84 211 84q124 0 206 -95q67 -87 57 -195q-12 -116 -106 -205q-45 -39 -78 -53q-66 -32 -132 -32h-9 q-106 0 -186 78q-33 38 -43 61q-35 71 -28 149zM898 278q-9 -84 53 -145q50 -43 115 -43q89 0 158 75q42 52 49 113q8 82 -52 143q-53 44 -112 44h-12q-60 0 -120 -45q-71 -60 -79 -142z" />
<glyph unicode="&#x26;" horiz-adv-x="1449" d="M235 371l1 13q8 75 38 143q17 36 38 68q25 36 64 80q66 73 169 152q102 73 187 123q-77 145 -121 243q-29 70 -21 149l2 15q16 139 154 234q107 68 224 68q96 0 185 -51q26 -14 59 -48q77 -87 63 -221q-9 -74 -45 -127q-11 -19 -35 -49q-21 -22 -64 -63q-67 -56 -105 -79 q-44 -30 -124 -78l-46 -25q107 -203 248 -450l57 -102q98 87 159 145l14 13l60 -64q-67 -65 -171 -158l-17 -14l115 -198l-82 -53q-65 111 -109 187q-70 -54 -128 -89q-59 -36 -120 -65q-157 -70 -296 -70h-17q-125 0 -209 61q-21 12 -55 49q-32 39 -45 71q-39 87 -27 190z M328 376q-16 -149 84 -230q23 -19 53 -32q47 -21 123 -21h3q235 0 496 209q-193 335 -315 568q-66 -38 -152 -99q-44 -31 -108 -85q-70 -66 -94 -98q-27 -33 -45 -64q-36 -59 -45 -146v-2zM684 1348q-7 -65 16 -114q40 -89 117 -237q85 46 171 103q37 25 95 74q43 41 56 59 q19 24 28 45q12 25 17 61q17 163 -143 214q-43 13 -83 13q-92 0 -179 -60q-30 -23 -47 -43q-41 -46 -48 -108v-7z" />
<glyph unicode="'" horiz-adv-x="413" d="M173 1298l54 472h93l-53 -472h-94z" />
<glyph unicode="(" horiz-adv-x="833" d="M156 343l100 898q22 199 113 343q24 36 62 77q41 41 55 49q66 51 157 71q38 6 69 6h7l-10 -91l-2 -2q-126 0 -220 -102q-112 -128 -139 -359l-99 -881q-27 -242 65 -369q73 -90 191 -90l1 -2l-10 -90l-2 -2h-1q-152 0 -248 114q-36 47 -49 79q-15 33 -26 73 q-32 125 -14 278z" />
<glyph unicode=")" horiz-adv-x="903" d="M185 -201l10 91l2 1q126 0 220 103q112 128 139 359l99 881q27 242 -65 368q-73 91 -191 91l-1 1l10 91l1 2h2q152 0 247 -114q37 -47 50 -79q15 -33 26 -73q32 -125 14 -278l-100 -898q-23 -199 -113 -343q-24 -36 -62 -78q-41 -40 -55 -48q-66 -51 -157 -71 q-38 -6 -69 -6h-7z" />
<glyph unicode="*" horiz-adv-x="1043" d="M186 1460v1l41 87h1l307 -114l36 340l1 1h92l-36 -341h1l330 114l23 -87q0 -1 -51 -18l-282 -97l168 -269l-79 -55h-2l-170 272h-1q-3 -3 -231 -272l-68 55l226 269z" />
<glyph unicode="+" horiz-adv-x="1015" d="M105 531l21 93h373l83 371l2 2h91v-2l-83 -371h371l1 -1l-21 -91l-1 -1h-371l-84 -372h-93l84 372h-373z" />
<glyph unicode="," horiz-adv-x="379" d="M28 -118q78 66 84 118q-24 11 -33 34q-6 14 -5 32q5 34 39 58q19 12 40 12q35 0 55 -31q10 -20 7 -52q-10 -86 -123 -178q-31 -25 -40 -30z" />
<glyph unicode="-" horiz-adv-x="1103" d="M124 531l11 93h831l2 -1l-11 -91l-1 -1h-832z" />
<glyph unicode="." horiz-adv-x="490" d="M90 66l1 7q3 33 39 57q19 10 36 10h3q39 0 56 -37q7 -16 5 -33q-3 -35 -35 -57q-20 -13 -40 -13h-5q-30 0 -50 26q-13 20 -10 40z" />
<glyph unicode="/" horiz-adv-x="869" d="M120 -58l786 1672l1 1h91l1 -1l-785 -1672l-2 -1h-90z" />
<glyph unicode="0" horiz-adv-x="1256" d="M111 559l49 449q18 160 104 302q26 41 68 88q15 19 60 58q55 43 88 59q98 51 196 51h72q143 0 255 -103q37 -39 50 -59q115 -165 88 -409l-47 -425q-25 -231 -165 -395q-15 -17 -61 -59q-69 -58 -141 -86q-32 -12 -65 -21q-42 -9 -106 -9h-32q-85 0 -138 20 q-74 25 -138 86q-38 40 -49 57q-68 98 -87 235q-9 82 -1 161zM205 566q-20 -181 56 -316h1l311 517l314 519l57 96q-87 91 -211 91h-62q-138 0 -258 -117q-67 -70 -106 -155q-43 -95 -54 -202zM320 175q30 -29 53 -42q68 -40 140 -40h76q100 0 203 75q40 31 60 55 q41 46 68 92q19 32 38 77q32 80 44 190l45 402q15 143 -16 243q-13 41 -30 75l-269 -445l-312 -515z" />
<glyph unicode="1" horiz-adv-x="636" d="M202 1469l10 91l2 1h295l1 -1l-177 -1571l-1 -1h-92l-2 1l167 1479h-202z" />
<glyph unicode="2" horiz-adv-x="1146" d="M85 12l14 126q335 341 365 371l312 319q137 137 138 141q41 66 50 150q12 105 -31 204q-79 166 -262 166h-11q-155 0 -258 -105q-33 -36 -49 -64q-21 -34 -45 -93q-24 -68 -28 -112h-94v2q9 76 54 179q30 67 72 118q138 168 363 168q198 0 303 -144q47 -63 69 -146 q20 -87 10 -175q-12 -113 -72 -204l-425 -432l-370 -377h190h523l-11 -92l-1 -1h-805z" />
<glyph unicode="3" horiz-adv-x="1162" d="M93 307q-5 49 0 93l1 6l2 1h90l2 -1v-1q-12 -102 35 -194q12 -23 45 -62q20 -23 38 -37q94 -71 212 -71q110 0 212 63q23 13 64 49q46 44 66 76q56 84 65 171l1 14q11 96 -35 188q-13 26 -44 64q-28 29 -56 49q-89 57 -187 57h-123l-1 1l10 92h144q59 0 132 33 q33 15 68 42q31 25 45 42q82 91 93 202q12 110 -49 202q-26 34 -46 51q-81 64 -181 64h-6q-111 0 -211 -77q-121 -98 -138 -248v-3h-92l1 11q17 144 122 262q43 44 72 63q124 86 259 86q134 0 236 -82q16 -12 47 -47q54 -68 71 -142q17 -70 9 -137v-7q-16 -139 -120 -256 q-42 -45 -76 -68q-40 -28 -63 -37v-1q44 -20 97 -69q35 -37 45 -53q89 -130 72 -290q-18 -155 -132 -284q-43 -45 -78 -71q-143 -103 -305 -103q-167 0 -291 112q-34 36 -49 57q-60 86 -73 190z" />
<glyph unicode="4" horiz-adv-x="1175" d="M76 300l320 473l201 296l326 480l12 16h116v-1l-131 -1171h142l1 -1l-10 -92l-2 -1h-141l-34 -308l-3 -2h-91v2l35 308h-740zM245 392h582l116 1029l-217 -321l-363 -534q-34 -50 -118 -174z" />
<glyph unicode="5" horiz-adv-x="1233" d="M58 277l90 38q11 -38 35 -79q15 -26 49 -65q45 -47 82 -68q103 -61 217 -61h12q128 0 256 76q31 19 74 55q53 50 78 85q83 114 97 245q19 165 -77 298q-31 40 -49 55q-78 70 -177 94q-55 13 -105 13q-134 0 -261 -76l-75 -40h-1v1l176 476l90 241h585l1 -1l-10 -91l-2 -2 h-513l-165 -446h1q92 30 184 30q190 0 333 -120q55 -52 83 -96q27 -41 42 -81q48 -123 34 -249l-1 -13q-15 -136 -101 -266q-28 -41 -74 -90q-50 -49 -73 -64q-34 -25 -72 -48q-49 -28 -111 -49q-94 -30 -173 -30h-21q-108 0 -216 51q-40 19 -82 50q-28 21 -61 57 q-39 44 -51 66q-26 42 -42 85z" />
<glyph unicode="6" horiz-adv-x="1261" d="M124 481l1 16q17 150 120 291l303 437l252 367h1l75 -46v-1q0 -3 -55 -79l-327 -472l-9 -16q116 52 230 52h7q136 0 253 -71q35 -21 76 -57q41 -43 55 -63q36 -53 50 -89q52 -125 38 -252l-1 -17q-14 -125 -91 -247q-29 -46 -74 -95q-47 -47 -80 -71q-164 -119 -347 -119 h-3q-192 0 -332 130q-42 41 -55 63q-26 37 -39 64q-19 37 -33 84q-26 98 -15 191zM217 487q-16 -155 72 -284q34 -45 60 -66q112 -95 261 -95q162 0 303 111q48 41 58 56q38 42 56 72q61 99 73 206l1 4q16 159 -74 289q-36 42 -51 57q-115 100 -268 100q-155 0 -291 -103 q-49 -39 -70 -63q-112 -128 -129 -280z" />
<glyph unicode="7" horiz-adv-x="1099" d="M78 21v1l298 467l277 433l336 527l15 24h-815l-1 1l10 91h912l-11 -110q-2 -2 -183 -286l-286 -447l-341 -534l-133 -209h-1z" />
<glyph unicode="8" horiz-adv-x="1217" d="M116 415l1 13q12 107 78 213q23 36 60 76q46 48 78 70q51 35 80 50q18 9 39 16l-22 15q-24 16 -59 55q-25 29 -41 60q-53 100 -40 216q16 143 124 257q33 33 51 46q125 93 265 93q150 0 256 -103q37 -41 48 -59q65 -108 50 -235q-15 -137 -118 -250q-36 -38 -62 -57 q-31 -24 -57 -37v-1q30 -13 65 -36q28 -18 64 -54q38 -43 53 -69q74 -125 58 -272v-2q-17 -150 -124 -277q-19 -23 -56 -56q-43 -37 -79 -59q-134 -79 -279 -79q-173 0 -301 111q-44 44 -62 70q-30 46 -42 78q-40 102 -28 207zM209 420q-15 -138 72 -250q32 -38 46 -46 q100 -82 233 -82q143 0 270 95q37 31 57 54q94 105 107 230q15 134 -63 242q-31 39 -45 50q-104 88 -243 88q-123 0 -236 -71q-25 -15 -67 -53q-52 -49 -84 -106q-39 -73 -46 -147zM384 1198q-13 -121 66 -215q82 -89 204 -89q108 0 205 75q35 28 47 43q73 85 84 182l1 10 q10 87 -35 168q-10 17 -34 45q-36 37 -68 52q-63 33 -128 33h-11q-94 0 -188 -64q-38 -29 -63 -57q-70 -85 -80 -183z" />
<glyph unicode="9" horiz-adv-x="1242" d="M98 1049l1 15q17 147 116 285q117 155 302 219q90 29 167 29h16q122 0 236 -62q42 -23 88 -66q39 -40 52 -59q40 -55 60 -107q45 -119 32 -237l-1 -17q-14 -123 -88 -243q-18 -27 -319 -463l-269 -388q-2 1 -57 36q-17 9 -19 11l238 343l154 224q-114 -52 -234 -52 q-188 0 -328 125q-46 46 -63 72q-31 46 -47 87q-51 123 -37 248zM191 1056q-14 -137 51 -254q12 -24 48 -66q42 -43 71 -61q102 -65 223 -65q133 0 259 78q25 16 70 55q49 48 63 70q29 39 58 97q33 73 40 145l1 5q17 154 -72 284q-37 47 -55 63q-115 97 -264 97h-3 q-145 0 -277 -92q-19 -13 -65 -54q-26 -28 -48 -54q-85 -115 -99 -246z" />
<glyph unicode=":" horiz-adv-x="451" d="M131 66l1 7q4 33 39 57q19 10 37 10h2q39 0 57 -37q7 -16 4 -33q-3 -35 -35 -57q-20 -13 -40 -13h-5q-29 0 -49 26q-13 20 -11 40zM218 1047v7q4 33 40 56q19 11 37 11h2q39 0 57 -38q7 -15 5 -33q-4 -34 -36 -56q-21 -13 -41 -13h-5q-29 0 -48 26q-13 20 -11 40z" />
<glyph unicode=";" horiz-adv-x="415" d="M47 -114q78 66 84 118q-24 10 -33 34q-6 14 -5 32q5 34 39 57q19 12 40 12q34 0 55 -30q10 -21 7 -52q-10 -87 -123 -179q-31 -24 -40 -29zM182 1047v7q4 33 40 56q19 11 36 11h3q39 0 56 -38q7 -15 5 -33q-3 -34 -35 -56q-20 -13 -40 -13h-5q-30 0 -50 26q-13 20 -10 40 z" />
<glyph unicode="&#x3c;" horiz-adv-x="857" d="M103 682l11 109l423 316l235 177l50 -72q-3 -4 -370 -279l-249 -187l-2 -19q11 -12 260 -236l258 -230q-64 -70 -68 -72l-288 258z" />
<glyph unicode="=" horiz-adv-x="939" d="M136 354l10 93h766l1 -1l-10 -91l-1 -1h-766zM175 708l10 93h766l1 -1l-10 -91l-2 -1h-765z" />
<glyph unicode="&#x3e;" horiz-adv-x="856" d="M87 261l307 230q299 224 314 236l2 19l-207 187q-307 275 -311 279l66 72l199 -177l350 -316l-12 -109l-312 -235l-345 -258q-1 2 -51 72z" />
<glyph unicode="?" horiz-adv-x="1167" d="M295 1202l5 46q13 113 80 221q25 39 77 93q49 45 68 56q125 85 262 85q145 0 256 -96q43 -42 57 -66q23 -35 35 -64q50 -112 36 -234q-13 -113 -87 -228q-26 -40 -68 -86q-44 -44 -70 -63q-23 -16 -125 -86q-27 -19 -61 -50q-54 -50 -61 -112l-10 -96l-21 -194h-1l-14 -1 h-77l-1 1l32 288q14 126 141 219q40 30 124 88q25 15 63 48q43 44 66 78q65 98 74 190l1 6q14 126 -53 234q-11 16 -38 46q-56 53 -115 70q-46 15 -88 15h-13q-92 0 -187 -61q-23 -13 -59 -47q-55 -53 -89 -117q-33 -70 -41 -141l-5 -42l-1 -1h-91zM517 78q3 36 40 61 q21 14 45 14q36 0 58 -33q11 -20 9 -42q-5 -41 -46 -66q-19 -10 -34 -10h-8q-32 0 -55 31q-13 20 -9 45z" />
<glyph unicode="@" horiz-adv-x="2330" d="M209 722l1 20q18 178 109 360q139 270 397 443q60 37 117 67q65 33 156 64q164 52 316 52h19q185 0 363 -77q70 -30 142 -79q42 -30 97 -79q46 -46 78 -88q54 -75 76 -122q32 -63 57 -151q39 -151 22 -312q-16 -167 -96 -339q-30 -61 -74 -120q-61 -78 -142 -126 q-38 -23 -79 -37q-57 -15 -108 -15h-13q-109 0 -189 74q-29 33 -35 51q-35 63 -37 143h-1q-19 -23 -60 -60q-46 -38 -71 -51q-101 -60 -204 -60q-132 0 -228 94q-36 39 -46 57q-77 128 -61 294q14 140 96 267q17 29 47 64q16 19 55 54q50 42 88 62q95 50 183 50h14 q83 0 164 -47q26 -15 65 -54q39 -46 52 -74q22 -43 34 -88l1 -2q26 61 62 135v1l83 -33v-2q-49 -101 -104 -240q-61 -167 -73 -278l-1 -13q-14 -141 53 -205q51 -47 127 -47h3q85 0 150 44q19 11 49 36q30 26 44 45q31 39 46 67q25 40 55 115q46 120 57 231l1 13 q21 204 -61 388q-111 236 -361 351q-161 69 -339 69h-2q-255 0 -497 -139q-52 -31 -112 -75q-28 -22 -87 -76q-61 -59 -97 -107q-45 -59 -70 -102q-117 -192 -137 -401l-1 -4q-25 -256 97 -481q23 -45 65 -101q47 -58 86 -94q49 -45 87 -71q57 -38 113 -66q174 -80 363 -80 h7q219 0 433 108q34 -78 35 -82v-1q-73 -38 -170 -70q-155 -48 -301 -48h-21q-183 0 -362 74q-79 36 -142 78q-240 163 -337 437q-66 193 -46 389zM807 723q-14 -139 57 -246q8 -13 33 -38q48 -45 98 -57q30 -8 60 -8h8q89 0 184 67q46 38 64 61q32 37 48 64q63 103 74 208 l1 12q10 108 -36 206q-14 26 -39 57q-74 81 -177 81h-3q-108 0 -211 -89q-41 -38 -58 -62q-24 -31 -43 -66q-50 -93 -60 -190z" />
<glyph unicode="A" d="M1 1l248 598l218 526l221 533l29 70h117q3 0 7 -31l95 -490l109 -562l110 -564l16 -81h-98q-4 4 -9 42l-99 504h-641l-226 -545v-1h-96zM363 640h585l-70 356l-110 565l-7 37l-141 -346q-154 -365 -218 -518z" />
<glyph unicode="B" horiz-adv-x="1180" d="M105 1l194 1725l2 2h474q127 0 229 -71q24 -16 62 -55q77 -94 77 -222q0 -26 -3 -54l-4 -40q-19 -164 -141 -289q-42 -39 -59 -51q-26 -17 -51 -30v-2q15 -7 48 -24q31 -19 65 -52q39 -43 46 -62q17 -23 27 -54q25 -71 25 -140q0 -19 -2 -39l-12 -106q-11 -89 -64 -186 q-93 -158 -263 -221q-30 -11 -71 -21q-46 -9 -111 -9h-467zM209 93h399q70 0 151 36q128 60 192 186q31 66 38 127l10 95q2 20 2 40q0 80 -39 148q-9 16 -37 46q-53 53 -136 75q-51 12 -99 12h-395zM306 952h385q74 0 157 44q104 59 160 167q27 55 35 133l2 21q3 28 3 54 q0 55 -16 96q-37 97 -139 141q-62 26 -135 26h-376z" />
<glyph unicode="C" horiz-adv-x="1241" d="M164 536l72 656q24 212 126 363q20 30 55 66q42 40 55 49q40 28 68 41q90 42 180 42h161q120 0 216 -71q94 -76 129 -211q21 -81 21 -176q0 -52 -6 -108v-5l-1 -1h-91q-1 0 -1 3q6 53 6 101q0 161 -67 263q-78 112 -221 112h-150q-139 0 -240 -106q-122 -132 -148 -370 l-71 -640q-6 -53 -6 -100q0 -158 64 -258q79 -116 225 -116h149q136 0 235 99q127 130 155 377h92l1 -1l-1 -2q-30 -269 -173 -426q-34 -34 -60 -54q-44 -32 -74 -45q-88 -42 -177 -42h-162q-126 0 -224 78q-18 14 -48 51q-31 43 -50 83q-45 108 -45 245q0 50 6 103z" />
<glyph unicode="D" horiz-adv-x="1288" d="M110 1l193 1725l3 2h594q104 0 189 -64q93 -77 125 -215q18 -74 18 -159q0 -53 -7 -110l-71 -635q-26 -229 -137 -380q-82 -106 -200 -146q-59 -19 -115 -19h-591zM214 93h493q171 0 274 180q62 116 81 280l70 619q6 56 6 106q0 165 -68 263q-69 93 -187 93h-496z" />
<glyph unicode="E" horiz-adv-x="1049" d="M110 1l193 1725l3 2h806v-2l-10 -91l-1 -1h-714l-81 -724h579l-11 -92h-579l-81 -725h713l2 -1l-11 -91l-1 -1h-806z" />
<glyph unicode="F" horiz-adv-x="980" d="M103 1l193 1725l3 2h805v-2l-9 -91l-1 -1h-714l-81 -724h604l-11 -92h-604l-92 -817l-1 -1h-91z" />
<glyph unicode="G" horiz-adv-x="1310" d="M149 537l74 655q21 189 107 333q24 35 59 76q16 19 56 52q71 58 150 82q66 18 124 18h167q113 0 208 -62q111 -78 149 -231q19 -79 19 -172q0 -51 -6 -106v-1h-93l-1 1v7q6 51 6 98q0 121 -41 213q-13 28 -38 61q-81 99 -219 99h-155q-155 0 -263 -121 q-112 -131 -137 -355l-72 -641q-6 -52 -6 -99q0 -162 69 -263q83 -111 230 -111h154q149 0 255 112q66 73 104 177q30 86 40 180l15 136h-317l-1 1l10 91l2 1h409l1 -1l-21 -190q-15 -137 -40 -214q-20 -57 -40 -100q-32 -62 -72 -112q-19 -26 -60 -64q-50 -40 -73 -52 q-104 -59 -216 -59h-166q-127 0 -226 76q-110 85 -142 262q-9 58 -9 120q0 51 6 103z" />
<glyph unicode="H" horiz-adv-x="1353" d="M103 1l193 1725l3 2h90v-2l-90 -816h888l91 816l2 2h91v-2l-193 -1725l-2 -1h-90l-2 1l92 817h-888l-92 -817l-1 -1h-91z" />
<glyph unicode="I" horiz-adv-x="405" d="M103 1l194 1727h94l-195 -1727l-1 -1h-91z" />
<glyph unicode="J" horiz-adv-x="1024" d="M-34 484l12 98l1 1h91l1 -1l-11 -92q-3 -24 -3 -47q0 -105 52 -201q57 -100 154 -136q40 -13 77 -13h105q77 0 162 55q21 11 60 47l22 24q33 38 50 65q20 31 40 76q26 61 35 145l138 1221l1 2h91l1 -2l-138 -1229q-23 -202 -168 -355q-44 -42 -61 -52q-81 -62 -172 -82 q-40 -8 -67 -8h-115q-81 0 -164 48q-130 82 -180 252q-17 67 -17 131q0 27 3 53z" />
<glyph unicode="K" horiz-adv-x="1056" d="M103 1l193 1725l3 2h90v-2l-107 -955l294 359l287 353l200 245h113l-1 -2l-309 -380l-270 -332q-1 -3 70 -161l237 -534q115 -261 140 -319h-105q-2 2 -111 248l-254 572l-48 107l-261 -319l-68 -607l-1 -1h-91z" />
<glyph unicode="L" horiz-adv-x="1053" d="M110 1l193 1725l3 2h90v-2l-182 -1633h760l1 -1l-11 -91l-1 -1h-852z" />
<glyph unicode="M" horiz-adv-x="1672" d="M110 1l193 1725l3 2h148q1 0 20 -84l121 -548l130 -579l86 -384l206 462l254 567l231 520l21 46h150v-2l-193 -1725l-1 -1h-95l-1 1l179 1593l-239 -533l-249 -558l-211 -472q-13 -31 -15 -31h-106q-2 0 -13 59l-118 525l-131 592q-4 18 -93 418l-179 -1593l-2 -1h-95z " />
<glyph unicode="N" horiz-adv-x="1372" d="M110 1l193 1725l3 2h140q2 -4 21 -49l199 -484l194 -476l221 -540l23 -57l182 1606h97l-195 -1727l-1 -1h-137q-1 1 -21 51l-191 465l-178 435l-238 579l-33 83h-1l-182 -1612l-1 -1h-94z" />
<glyph unicode="O" horiz-adv-x="1273" d="M133 536l72 656q24 212 127 363q20 30 54 66q42 40 55 49q40 28 69 41q89 42 179 42h162q119 0 215 -71q48 -39 81 -93q70 -120 71 -294q0 -52 -7 -108l-71 -644q-27 -254 -157 -408q-19 -23 -54 -55q-61 -49 -120 -73q-76 -31 -153 -31h-162q-126 0 -224 78 q-17 14 -46 47q-32 43 -42 70q-19 34 -36 93q-19 81 -19 170q0 50 6 102zM227 544q-6 -53 -6 -101q0 -157 63 -257q79 -116 226 -116h150q155 0 265 133q99 127 123 348l68 625q7 58 7 110q0 199 -98 300q-76 74 -191 74h-150q-139 0 -239 -106q-122 -132 -148 -370z" />
<glyph unicode="P" horiz-adv-x="1139" d="M140 1l194 1725l2 2h442q125 0 233 -70q29 -20 57 -46q32 -34 42 -50q20 -29 35 -59q43 -93 43 -196q0 -28 -3 -57l-5 -44q-19 -168 -135 -313q-20 -26 -67 -69q-56 -48 -88 -64q-40 -24 -88 -40q-70 -26 -161 -26h-329l-78 -693l-2 -1h-90zM322 787h354q46 0 111 22 q144 56 231 199q57 94 69 204l3 31q3 28 3 55q0 131 -78 225q-32 35 -52 49q-89 62 -202 62h-343z" />
<glyph unicode="Q" d="M133 535l72 653q23 211 125 361q22 31 55 66q42 41 55 49q41 28 70 41q88 43 178 43h160q120 0 214 -72q48 -39 81 -91q70 -120 70 -295q0 -51 -6 -108l-71 -642q-29 -274 -179 -431q-38 -37 -58 -50q-36 -26 -55 -34q12 -33 45 -77q36 -42 50 -52q20 -18 52 -34 q26 -13 52 -22l-11 -96q0 -1 -1 -1q-41 12 -68 25q-159 75 -213 221q-50 -13 -96 -13h-161q-126 0 -224 78q-16 14 -46 47q-31 43 -42 70q-18 34 -35 92q-19 81 -19 170q0 50 6 102zM227 543q-6 -54 -6 -102q0 -156 62 -256q79 -115 224 -115h150q156 0 265 132 q99 127 122 348l69 622q6 56 6 106q0 201 -97 303q-76 73 -190 73h-150q-138 0 -240 -106q-119 -131 -145 -368z" />
<glyph unicode="R" horiz-adv-x="1121" d="M103 1l193 1725l3 2h440q126 0 236 -70q27 -19 59 -51q41 -45 48 -62q20 -31 31 -55q37 -87 37 -183q0 -28 -3 -57l-5 -44q-16 -144 -107 -276q-93 -131 -230 -194q10 -33 152 -512l67 -224h-107q-3 2 -20 65l-150 520l-35 121q-45 -12 -109 -12h-330l-78 -693l-1 -1h-90 zM283 787h354q47 0 112 22q144 57 232 199q55 95 67 204l3 29q3 29 3 56q0 132 -77 226q-33 35 -52 49q-88 63 -203 63h-343z" />
<glyph unicode="S" horiz-adv-x="1116" d="M11 350q86 36 89 36q17 -54 46 -108q17 -30 53 -74q37 -39 57 -52q110 -82 251 -82q140 0 266 79q25 14 65 50q64 65 95 140q28 63 35 128v3q2 22 2 43q0 107 -63 190q-34 38 -49 46q-25 20 -56 35q-26 12 -67 24q-255 60 -375 123q-45 22 -86 54q-120 95 -120 247 q0 23 3 48v9q15 139 113 264q19 22 47 51q46 41 65 52q30 20 64 37q50 25 100 39q81 20 151 20h15q147 0 266 -85q27 -19 65 -59q41 -48 51 -67q29 -46 40 -77l-90 -39q-14 41 -48 85q-26 37 -53 59q-103 91 -248 91h-2q-151 0 -272 -85q-43 -33 -72 -66q-86 -102 -99 -225 q-2 -20 -2 -39q0 -94 54 -151q35 -37 65 -54q64 -43 198 -87q84 -26 211 -56q55 -17 92 -38q42 -21 88 -64q38 -40 45 -54q22 -33 37 -71q27 -74 27 -148q0 -23 -3 -46l-2 -16q-13 -117 -86 -233q-93 -140 -255 -207q-110 -44 -222 -44q-185 0 -324 116q-20 18 -56 57 q-44 57 -63 95q-16 30 -35 77z" />
<glyph unicode="T" horiz-adv-x="1080" d="M198 1635l11 91l1 2h1069l1 -2l-10 -91h-490l-184 -1634l-1 -1h-91l184 1635h-490z" />
<glyph unicode="U" horiz-adv-x="1308" d="M191 559l132 1167l1 2h91l2 -2l-131 -1158q-6 -54 -6 -102q0 -162 67 -263q27 -37 45 -51q26 -19 46 -29q55 -30 139 -30h130q104 0 177 46q56 34 104 95q94 126 119 341l130 1151l1 2h91l-131 -1162q-29 -253 -158 -409q-140 -157 -337 -157h-144q-185 0 -289 140 q-61 88 -78 212q-7 52 -7 106q0 50 6 101z" />
<glyph unicode="V" horiz-adv-x="1174" d="M234 1728h99q2 0 6 -22l93 -531l97 -550l82 -474l3 -5q1 2 15 42l123 311q132 329 217 543q0 2 127 324q45 111 139 351l5 11h100l-226 -568l-230 -581l-217 -544q-13 -34 -14 -35h-111l-4 22l-97 536l-96 545l-100 550z" />
<glyph unicode="W" horiz-adv-x="1856" d="M264 1728h99q2 0 6 -62l56 -569l54 -557l34 -345h1l142 382l204 552l220 593q2 6 3 6h77q2 0 8 -54q6 -34 53 -351l78 -516l80 -534l13 -78l172 539l172 540l143 450l1 4h98l1 -2l-175 -545l-174 -546l-173 -539l-30 -96h-102q-1 0 -8 52l-79 533q-7 36 -72 475l-69 446 q-1 0 -9 -27l-186 -502l-187 -500l-172 -463q-4 -14 -5 -14h-100q-1 0 -6 54l-54 536l-55 556l-50 499z" />
<glyph unicode="X" horiz-adv-x="1010" d="M-52 0l314 504l206 331l34 54l-224 552l-115 287h108q12 -29 150 -375q17 -41 154 -385l265 428l204 332h109l-292 -469l-230 -370l225 -559l132 -330h-108q-1 0 -20 50l-151 377l-152 381h-1l-292 -471l-207 -337h-109z" />
<glyph unicode="Y" horiz-adv-x="1025" d="M231 1728h108q2 0 36 -93l134 -332l129 -325l5 -10l240 388l230 372h108l-327 -527q-218 -348 -218 -349l-93 -851l-1 -1h-91l-1 1l93 851q-7 20 -163 406z" />
<glyph unicode="Z" horiz-adv-x="956" d="M-22 0l295 504l279 475l288 490l98 165h-733l-1 1l11 91l1 2h880l-324 -550l-282 -482l-306 -520l-48 -83h730l-10 -93h-878z" />
<glyph unicode="[" horiz-adv-x="751" d="M74 -199l223 1984l2 2h343l-11 -94h-251l-202 -1800h252l-11 -94h-343z" />
<glyph unicode="\" horiz-adv-x="638" d="M-120 1614l1 1h91l1 -1l786 -1672l-1 -1h-91l-1 1z" />
<glyph unicode="]" horiz-adv-x="795" d="M164 -201h343l2 2l223 1984l-2 2h-343l-9 -94h251l-203 -1800h-251z" />
<glyph unicode="^" horiz-adv-x="1125" d="M152 1021l318 436q135 190 139 193h101q2 -3 173 -341q144 -286 145 -288q-79 -47 -85 -49l-224 444l-70 138l-310 -428l-114 -154q-69 45 -73 49z" />
<glyph unicode="_" horiz-adv-x="1296" d="M83 -189l10 93h1120l1 -1l-10 -91l-2 -1h-1119z" />
<glyph unicode="`" horiz-adv-x="710" d="M354 2086v1l39 78l374 -216v-1l-40 -78z" />
<glyph unicode="a" horiz-adv-x="1079" d="M140 299l2 11q23 213 304 291q144 37 336 37q40 0 95 -2l16 148q2 19 2 38q0 82 -44 139q-58 67 -181 67q-99 0 -238 -45q-57 -21 -158 -69l-18 -7l-31 84q124 57 179 78q41 17 126 35q84 17 152 17q197 0 273 -142q35 -71 35 -152q0 -19 -2 -38l-58 -525q-4 -38 -4 -79 q0 -60 9 -125q5 -32 14 -60h-99q-2 0 -9 37q-7 39 -9 105q0 6 -1 6q-66 -50 -112 -76q-51 -27 -101 -46q-102 -37 -181 -37h-18q-97 0 -176 51q-19 13 -46 41q0 2 -11 16q-48 70 -48 161q0 20 2 41zM234 302q-2 -17 -2 -33q0 -94 65 -145q57 -43 136 -43h8q98 0 217 61 q42 21 92 55q34 22 85 69l31 277q-54 3 -95 3q-262 0 -415 -76q-27 -13 -55 -36q-33 -30 -41 -48q-20 -30 -26 -82v-2z" />
<glyph unicode="b" horiz-adv-x="1157" d="M93 1l194 1725l2 2h91v-2l-92 -824q21 34 77 88q41 37 56 47q52 37 88 52q92 43 180 43h12q113 0 216 -71q25 -18 64 -59q46 -54 62 -90q31 -58 47 -125q18 -70 18 -147q0 -40 -5 -81q-20 -181 -128 -335q-29 -41 -82 -93q-53 -50 -80 -64q-120 -78 -244 -78h-6 q-143 0 -255 102q-41 39 -65 72q-21 34 -32 56l-25 -218l-1 -1h-91zM249 559q-4 -33 -4 -66q0 -145 74 -263q11 -20 41 -53q93 -94 216 -94q132 0 251 106q43 40 64 69q100 136 119 302q4 35 4 69q0 126 -56 234q-13 24 -38 57q-34 41 -54 55q-82 63 -180 63h-4 q-131 0 -252 -108q-46 -45 -69 -77q-93 -133 -111 -290z" />
<glyph unicode="c" horiz-adv-x="998" d="M113 555l1 14q17 145 98 284q25 40 62 86q21 27 66 69q51 42 84 59q111 65 221 65h12q106 0 204 -63q29 -19 70 -60q35 -39 47 -59q24 -37 37 -70l-86 -45q-16 38 -46 79q-32 38 -46 49q-88 75 -196 75h-3q-131 0 -252 -108q-45 -45 -67 -77q-95 -133 -111 -290v-4 q-4 -35 -4 -68q0 -126 56 -234q17 -32 52 -73q95 -101 224 -101q122 0 238 95q39 36 60 62q22 27 37 50q69 -40 77 -45q-21 -31 -51 -68q-20 -25 -69 -68l-30 -24q-132 -96 -271 -96h-5q-136 0 -246 94q-52 46 -79 89t-40 73q-48 116 -48 240q0 35 4 70z" />
<glyph unicode="d" horiz-adv-x="1196" d="M122 559q14 121 64 228q31 67 76 125q24 36 83 90q47 41 76 59q119 71 233 71h12q88 0 171 -43q30 -15 75 -52q13 -10 45 -47q44 -54 58 -88l93 824l1 2h91l1 -2l-194 -1725l-2 -1h-91l-1 1l25 218q-15 -22 -45 -56q-32 -33 -80 -72q-136 -102 -278 -102h-6 q-124 0 -228 78q-23 14 -66 64q-41 52 -60 93q-58 120 -58 256q0 39 5 79zM215 560q-4 -34 -4 -66q0 -128 57 -236q14 -29 47 -69q96 -106 228 -106q123 0 237 94q37 33 53 53q123 145 143 329l1 4q4 34 4 67q0 119 -51 223q-16 32 -50 77q-98 108 -229 108h-3 q-98 0 -195 -63q-23 -14 -66 -55q-33 -33 -52 -57q-101 -137 -120 -303z" />
<glyph unicode="e" horiz-adv-x="1078" d="M96 558l1 15q14 131 84 259q28 49 72 103q21 26 57 60q50 43 82 62q122 75 242 75h14q106 0 206 -63q29 -16 64 -51q35 -36 50 -57q40 -59 57 -104q18 -44 28 -99q9 -56 8 -64q-20 -7 -410 -123l-461 -138q6 -37 14 -67q14 -52 43 -103q13 -25 47 -66q98 -104 232 -104 q137 0 262 111q55 52 75 85l4 7h1q75 -46 75 -47q-23 -33 -57 -72q-19 -20 -49 -48q-59 -50 -102 -70q-106 -59 -215 -59h-9q-124 0 -233 79q-24 19 -60 56q-36 42 -54 75q-40 70 -59 157q-13 63 -13 124q0 34 4 67zM185 511l549 164l224 66q-1 13 -20 70q-13 34 -38 74 q-15 24 -43 55l-16 16q-92 82 -210 82h-2q-126 0 -245 -96q-45 -40 -63 -64q-34 -43 -53 -76q-65 -111 -78 -233l-1 -4q-3 -26 -4 -54z" />
<glyph unicode="f" horiz-adv-x="639" d="M18 1029l10 91l2 1h212l6 55q29 264 167 416q36 38 65 59q66 49 157 68q38 9 71 9h32v-2l-10 -91l-1 -1h-26q-134 0 -232 -113q-105 -124 -131 -353l-5 -47h336l2 -1l-11 -91l-1 -1h-337l-115 -1027l-1 -1h-91l-1 1l115 1027h-212z" />
<glyph unicode="g" horiz-adv-x="1117" d="M27 -164l1 11q12 100 105 198q44 41 55 47q15 11 42 26q-72 45 -72 133q0 11 1 24v1q11 92 90 164q-14 15 -27 31q-67 95 -67 209q0 22 3 46q15 139 122 252q30 32 59 52q33 24 60 39q101 52 200 52h12q115 0 213 -66q22 -18 41 -34h1q34 59 110 87q39 13 74 13h31l1 -1 l-9 -91l-2 -1h-27q-61 0 -98 -44q-15 -29 -17 -48q39 -79 39 -165q0 -21 -2 -43l-1 -6q-14 -133 -117 -245q-28 -30 -63 -58q-42 -30 -72 -43q-97 -47 -188 -47h-15q-99 0 -191 55q-59 -47 -66 -109q-1 -9 -1 -16q0 -34 21 -50q46 -45 237 -45l84 1q230 0 332 -115l14 -20 q41 -62 44 -124q1 -22 -1 -42l-2 -15q-7 -68 -59 -145q-84 -121 -247 -178q-100 -35 -203 -35h-15q-180 0 -306 85q-90 65 -118 170q-8 34 -8 64q0 13 2 26zM120 -159q-1 -10 -1 -19q0 -66 49 -126q30 -32 47 -42q98 -69 259 -69q166 0 289 83q17 12 46 38q41 40 63 89 q14 33 18 59v4q1 9 1 18q0 56 -37 105q-23 26 -36 34q-27 19 -64 32q-52 17 -65 17q-52 8 -92 8l-112 -1q-80 0 -149 10q-200 -109 -214 -239zM250 720q-1 -14 -1 -27q0 -66 32 -131q10 -22 41 -56q46 -45 100 -65q50 -19 103 -19h5q106 0 203 69q43 34 60 54q68 82 80 181 q2 17 2 34q0 74 -40 139q-27 45 -67 75q-75 54 -171 54h-2q-112 0 -214 -75q-40 -35 -49 -48q-25 -28 -39 -55q-35 -62 -42 -120z" />
<glyph unicode="h" horiz-adv-x="1049" d="M81 1l194 1725l2 2h91v-2l-80 -714q39 35 59 45q104 64 238 64h63q161 0 256 -90q31 -33 36 -45q16 -23 23 -43q25 -63 25 -133q0 -25 -3 -51l-85 -758l-1 -1h-91l-1 1l85 751q2 23 2 43q0 101 -56 163q-69 71 -207 71h-48q-199 -1 -283 -144q-32 -59 -42 -136l-83 -748 l-2 -1h-90z" />
<glyph unicode="i" horiz-adv-x="484" d="M129 1l126 1120h93l-126 -1120l-1 -1h-91zM286 1648l1 8q3 33 36 57q24 15 43 15h8q28 0 50 -25q15 -24 13 -45l-2 -12q-3 -27 -31 -52q-24 -18 -51 -18q-41 0 -62 38q-8 18 -5 34z" />
<glyph unicode="j" horiz-adv-x="416" d="M-227 -507l11 90q0 2 1 2q132 0 229 109q27 32 43 57q70 120 89 284l122 1085l1 1h91l1 -1l-118 -1055q-21 -179 -74 -292q-14 -34 -36 -66q-21 -36 -52 -70q-10 -13 -46 -46q-42 -36 -76 -54q-89 -46 -181 -46h-3zM300 1648v8q3 33 37 57q23 15 42 15h8q28 0 51 -25 q14 -24 12 -45l-2 -12q-2 -27 -31 -52q-23 -18 -50 -18q-41 0 -63 38q-7 18 -4 34z" />
<glyph unicode="k" horiz-adv-x="940" d="M92 1l194 1725l2 2h91v-2l-194 -1725l-1 -1h-91zM355 599v2l353 403q94 109 103 117h115l1 -1l-342 -391l-114 -131l261 -448l87 -150h-113l-230 395z" />
<glyph unicode="l" horiz-adv-x="437" d="M105 1l194 1725l2 2h91v-2l-194 -1725l-1 -1h-91z" />
<glyph unicode="m" horiz-adv-x="1797" d="M93 1l124 1103h93l-11 -103q46 50 69 62q28 17 71 32q78 26 150 26h79q120 0 211 -60q21 -14 47 -43q36 -41 45 -70h1q65 97 183 144q79 29 162 29h77q128 0 220 -67q111 -88 111 -246q0 -28 -3 -58l-84 -749l-1 -1h-91l-1 1l83 742q3 27 3 51q0 151 -117 207 q-60 27 -136 27h-67q-136 0 -224 -80q-36 -34 -56 -74q-9 -20 -21 -54q-9 -31 -16 -100l-82 -719l-1 -1h-91l-1 1l85 752q2 22 2 42q0 120 -81 183q-69 50 -174 50h-66q-124 0 -211 -67q-88 -75 -104 -211l-84 -749l-1 -1h-91z" />
<glyph unicode="n" horiz-adv-x="1060" d="M93 1l124 1103l1 2h91l1 -2l-11 -103q46 50 69 62q28 17 71 33q78 25 150 25h79q123 0 216 -63q19 -14 48 -44q32 -42 44 -74q24 -61 24 -130q0 -25 -3 -52l-85 -757l-1 -1h-91l-1 1l85 752q2 22 2 43q0 120 -80 182q-70 50 -175 50h-66q-124 0 -211 -67 q-88 -75 -104 -211l-84 -749l-1 -1h-91z" />
<glyph unicode="o" horiz-adv-x="1133" d="M116 553l1 16q16 145 98 284q25 40 62 87q24 28 70 70l19 17q88 67 172 89q58 16 110 16h12q111 0 211 -69q28 -19 64 -55q27 -29 41 -51q33 -52 48 -91q44 -108 45 -229q0 -38 -5 -77q-20 -182 -128 -336q-29 -41 -80 -93q-55 -50 -81 -64q-121 -78 -245 -78h-6 q-136 0 -246 92q-51 48 -79 92q-26 39 -40 71q-47 115 -47 237q0 36 4 72zM210 559q-4 -34 -4 -68q0 -139 68 -254q12 -19 46 -59l15 -15q89 -80 203 -80q130 0 249 105q43 40 66 73q99 135 118 299q4 34 4 66q0 128 -57 237q-13 24 -39 57q-33 41 -54 55q-83 63 -181 63h-3 q-131 0 -253 -108q-45 -45 -67 -77q-94 -133 -111 -290v-4z" />
<glyph unicode="p" horiz-adv-x="1165" d="M26 -507l182 1611l1 2h91l1 -2l-24 -201q23 32 60 71q45 43 67 57q134 102 279 102q154 0 272 -113q37 -41 47 -57q26 -37 45 -76q52 -116 52 -247q0 -40 -5 -80q-21 -189 -138 -349q-25 -32 -63 -72q-45 -41 -59 -49q-134 -101 -279 -101q-170 0 -292 136q-46 59 -62 94 l-82 -726l-1 -2h-91zM240 559q-4 -36 -4 -71q0 -141 71 -256q34 -51 78 -87q82 -62 180 -62q131 0 252 106q48 46 70 79q96 133 114 292q4 33 4 65q0 112 -44 212q-12 29 -36 65q-33 44 -59 66q-87 70 -190 70h-6q-119 0 -233 -93q-51 -46 -65 -67q-33 -39 -59 -86 q-60 -111 -73 -229v-4z" />
<glyph unicode="q" horiz-adv-x="1180" d="M119 553l1 16q19 160 115 310q27 41 71 90q49 47 75 66q133 98 276 98q152 0 268 -110q38 -40 51 -60q19 -28 36 -61l23 202l2 2h91v-2l-180 -1611l-2 -2h-90l-2 2l82 728h-1q-22 -32 -56 -69q-48 -47 -77 -67q-132 -94 -273 -94q-156 0 -272 113q-40 44 -47 58 q-29 41 -51 89q-44 112 -44 229q0 36 4 73zM212 559q-4 -34 -4 -66q0 -144 72 -261q34 -51 79 -87q82 -62 180 -62q131 0 252 106q47 46 70 79q95 133 114 294q4 33 4 64q0 112 -44 212q-13 28 -37 64q-33 44 -60 66q-85 72 -188 72h-6q-119 0 -233 -95q-51 -46 -65 -67 q-33 -39 -59 -86q-60 -111 -73 -229z" />
<glyph unicode="r" horiz-adv-x="822" d="M93 1l124 1103h93l-13 -121q11 26 49 59q46 37 73 47q65 32 127 32h66q100 0 179 -73q22 -21 39 -50q-15 -12 -83 -60q-5 13 -14 25q-20 25 -34 34q-46 31 -102 31h-55q-105 0 -188 -105q-76 -104 -93 -262l-75 -660l-1 -1h-91z" />
<glyph unicode="s" horiz-adv-x="967" d="M76 231q46 24 87 42q48 -120 164 -167q65 -25 133 -25q108 0 202 55q66 39 100 109q18 35 20 67l2 7q1 10 1 19q0 61 -45 110q-39 38 -95 57q-25 7 -114 25q-170 40 -237 80q-124 65 -124 190q0 14 2 30q12 107 99 194q36 33 55 44q113 74 259 74h3q166 0 275 -111 q33 -37 42 -57q9 -15 11 -22l-88 -43q-27 54 -86 95q-73 45 -166 45q-130 0 -221 -68q-36 -31 -43 -44q-41 -51 -46 -104l-2 -8q-1 -8 -1 -16q0 -65 60 -103q35 -24 102 -48q86 -28 226 -55q53 -15 88 -33q27 -14 56 -39q27 -25 43 -47q40 -65 40 -140q0 -14 -1 -29 q-12 -105 -93 -195q-34 -33 -50 -43q-44 -30 -73 -43q-103 -46 -211 -46q-148 0 -258 83q-20 15 -52 51l-14 16q-29 43 -41 71q-6 12 -9 22z" />
<glyph unicode="t" horiz-adv-x="846" d="M139 1029l11 91l1 1h218l69 607h91v-2l-68 -605h332l1 -1l-10 -91l-2 -1h-331l-83 -732q-2 -18 -2 -34q0 -64 28 -109q15 -23 30 -31q41 -30 81 -30h5q50 0 139 38q12 6 14 6l31 -84q-31 -15 -97 -35q-58 -17 -93 -17h-14q-59 0 -119 39q-16 9 -44 39q-32 40 -44 90 q-9 41 -9 82q0 20 2 40l83 738h-219z" />
<glyph unicode="u" horiz-adv-x="1072" d="M117 366l85 755h93l-84 -749q-3 -25 -3 -47q0 -150 122 -206q58 -26 138 -26h56q172 0 261 116q47 67 58 159l84 753h94l-124 -1104l-1 -2h-91l-1 2l11 103q-43 -48 -72 -63q-102 -57 -224 -57h-67q-161 0 -255 92q-32 33 -41 54q-42 74 -42 169q0 25 3 51z" />
<glyph unicode="v" horiz-adv-x="1056" d="M152 1121h103q1 0 7 -29l117 -476l117 -477q2 1 22 45l236 509l201 428h102l-262 -558l-244 -521q-19 -41 -20 -42h-98q-1 0 -9 34l-127 505l-140 563q-1 0 -5 19z" />
<glyph unicode="w" horiz-adv-x="1504" d="M175 1121h100q1 0 3 -28l82 -502l72 -464h1l174 457q73 189 147 386l28 71h99q2 0 9 -55l88 -546l50 -313h1l164 433q4 9 105 279q103 268 106 282h100l2 -1l-234 -610l-195 -510h-124q-1 0 -8 40l-100 622l-33 206h-1l-194 -513l-136 -355h-123q-2 0 -8 37l-82 512 l-86 526q0 1 -7 46z" />
<glyph unicode="x" horiz-adv-x="969" d="M-50 1l300 384l152 197l-204 364l-98 175h116l96 -171q152 -279 166 -301l270 350l95 122h114v-1l-401 -515l-19 -23l236 -423q88 -157 88 -159h-114l-159 288l-124 225q-11 -13 -237 -304l-160 -209h-115z" />
<glyph unicode="y" horiz-adv-x="1034" d="M91 1121h104l17 -80l135 -555l83 -347l243 516l216 466h97l2 -1l-287 -613l-249 -535l-224 -481h-99l237 510l-138 568q-6 21 -102 403z" />
<glyph unicode="z" horiz-adv-x="934" d="M12 0q0 1 39 55q232 321 262 363l286 397l154 213h-591l-2 1l11 91l1 1h757l-320 -444l-299 -415l-122 -169v-1h598l-11 -91l-1 -1h-762z" />
<glyph unicode="{" horiz-adv-x="679" d="M120 752l7 59q32 16 49 28q54 41 61 104l65 571q11 99 67 173q31 37 70 62q67 38 134 38h18l-10 -94h-12q-78 0 -129 -60q-36 -47 -46 -126l-64 -569q-9 -77 -69 -143l-16 -14q59 -68 50 -157l-64 -569q-15 -133 71 -173q27 -13 59 -13h14l-10 -93h-18q-77 0 -138 48 q-31 28 -39 45q-45 76 -33 181l65 571q7 70 -51 112z" />
<glyph unicode="|" horiz-adv-x="231" d="M-24 -1l186 1651l2 2h91v-2l-185 -1651h-94z" />
<glyph unicode="}" horiz-adv-x="735" d="M151 -224l11 93h14q32 0 61 13q96 40 111 173l64 569q9 89 85 157l-13 14q-45 66 -37 143l64 569q9 79 -18 126q-36 60 -114 60h-12l11 94h17q68 0 125 -38q35 -25 56 -62q40 -74 29 -173l-65 -571q-7 -63 38 -104q14 -12 44 -28l-7 -59l-36 -19q-67 -42 -74 -112 l-65 -571q-12 -105 -73 -181q-13 -17 -48 -45q-74 -48 -150 -48h-18z" />
<glyph unicode="~" horiz-adv-x="630" d="M126 516l12 104q25 27 48 38q37 20 69 20q38 0 102.5 -37t96.5 -37q31 0 66 21q24 15 56 46l-12 -103q-26 -26 -51 -39q-36 -19 -69 -19q-36 0 -100 36.5t-100 36.5q-29 0 -65 -21q-22 -14 -53 -46z" />
<glyph unicode="&#xa1;" horiz-adv-x="567" d="M37 1l167 1384l1 1h91l1 -1l-144 -1384l-1 -1h-114zM203 1589q5 35 37 57q18 13 40 13h4q29 0 50 -26q13 -20 11 -40l-2 -8q-3 -32 -39 -56q-20 -10 -37 -10h-1q-41 0 -58 37q-6 16 -5 33z" />
<glyph unicode="&#xa2;" horiz-adv-x="1148" d="M251 821l2 14q15 142 107 274q22 31 53 65q48 46 71 61q52 37 81 50q32 18 89 34q21 6 55 11l16 138h90l2 -1l-16 -134q57 -5 89 -17q79 -24 146 -86q33 -32 53 -59q25 -37 34 -59l-82 -49h-1q-11 25 -44 67q-33 37 -54 51q-37 26 -69 39q-46 15 -56 15q-4 3 -25 5 l-93 -823q15 0 64 13q69 20 136 72q38 31 49 44q26 29 38 46q2 0 37 -23l37 -25q-20 -31 -72 -83q-50 -44 -77 -60q-35 -22 -71 -39q-34 -15 -75 -26q-56 -13 -77 -13l-15 -134l-2 -1h-90l15 138h-1q-14 0 -70 16q-46 17 -73 34q-133 82 -183 246q-29 99 -18 199zM345 827 q-18 -157 67 -281q32 -41 51 -56q26 -22 50 -36q26 -14 52 -23q24 -7 42 -11l92 817q-71 -13 -139 -56q-18 -9 -63 -49q-45 -43 -67 -78q-71 -105 -85 -224v-3z" />
<glyph unicode="&#xa3;" horiz-adv-x="1155" d="M-11 107q78 59 186 153q103 93 132 125q174 181 189 316l1 7q2 24 0 55h-301l-1 2l10 91l1 1h268q-8 23 -40 111q-41 124 -30 226l2 16q11 97 71 182q15 20 41 48q39 34 70 53q128 83 264 83q133 0 244 -80q23 -15 47 -42l-74 -66q-37 37 -66 52q-77 43 -162 43 q-125 0 -244 -93q-86 -72 -99 -185v-7q-12 -103 41 -234q24 -64 37 -107h410l2 -1l-11 -91l-1 -2h-385q1 -33 -1 -59q-19 -166 -202 -361q-32 -36 -105 -103h1q56 11 110 11q142 0 233 -98q94 -89 197 -89q140 0 315 166l60 -65q-204 -195 -387 -195q-149 0 -275 134 q-61 55 -153 55q-134 0 -318 -107l-27 -18h-1z" />
<glyph unicode="&#xa4;" horiz-adv-x="1400" d="M-20 280l182 171q-31 42 -50 82q-75 160 -58 339l1 5q19 192 143 362q21 28 57 68l-155 180l75 65l152 -177q53 42 91 66q183 108 381 108q215 0 383 -127q26 -23 53 -47l189 177l59 -65l-190 -180v-1q32 -45 52 -84q80 -162 62 -348v-2q-21 -204 -156 -381l-34 -40 l146 -171q-63 -57 -72 -65h-1l-144 166q-53 -45 -95 -69q-59 -37 -108 -57q-139 -58 -273 -58h-15q-163 0 -312 85q-43 25 -93 68l-32 31l-177 -166q-2 0 -61 65zM148 873q-21 -200 93 -367q46 -60 83 -91q44 -35 75 -53q125 -72 271 -72h5q184 0 352 112q29 19 79 62 q52 52 75 82q115 151 132 328q19 186 -78 343q-14 24 -49 66q-43 47 -71 67q-144 106 -326 106q-178 0 -343 -104q-32 -19 -79 -60q-51 -47 -67 -68q-33 -40 -52 -69q-85 -132 -100 -282z" />
<glyph unicode="&#xa5;" horiz-adv-x="1122" d="M66 402l11 91l1 1h433l18 155h-433l-2 1l10 91l1 1h433l14 126l-283 388q-19 24 -177 239q-11 15 -11 17l77 60l295 -401q1 -2 157 -213l313 327l274 286l2 1q62 -59 64 -59q0 -3 -13 -16l-430 -448l-175 -181l-14 -126h435l1 -1l-10 -91l-1 -1h-434l-18 -155h434l2 -1 l-11 -91l-1 -1h-434l-45 -399h-94l45 399h-433z" />
<glyph unicode="&#xa6;" horiz-adv-x="311" d="M-24 -590l87 766l1 1h91l1 -1l-86 -766h-94zM156 1003l86 766l1 1h91l1 -1l-86 -766h-93z" />
<glyph unicode="&#xa7;" horiz-adv-x="968" d="M81 225q77 36 90 41q6 -23 37 -64q68 -77 172 -77h7q91 0 168 48q30 22 55 51q33 46 39 97v3q9 84 -65 134q-27 20 -75 40q-56 24 -169 50q-100 30 -161 108q-46 65 -53 137q-3 34 0 61l1 12q10 91 78 177q16 18 50 50l31 23q42 27 67 37q-26 13 -57 34q-110 81 -95 205 l1 12q9 92 84 171q28 27 40 36q36 26 62 37q88 41 183 41q139 0 230 -97q38 -43 51 -72q7 -17 9 -25l-87 -40q-7 22 -34 59q-69 81 -180 81q-77 0 -148 -35q-25 -11 -57 -40q-53 -53 -61 -122v-1q-10 -88 72 -139q34 -24 105 -48q60 -21 136 -38q40 -13 70 -30 q27 -15 57 -42q35 -39 38 -47q13 -16 26 -46q28 -71 20 -147q-14 -126 -119 -225q-45 -37 -81 -54q-24 -13 -27 -13l37 -20q25 -17 55 -44q71 -74 60 -176l-2 -13q-8 -77 -64 -149q-11 -15 -47 -47q-39 -31 -64 -41q-22 -13 -66 -27q-66 -19 -126 -19q-157 0 -251 118 q-36 52 -42 75zM219 859q-9 -83 44 -150q31 -33 47 -42q17 -12 42 -22q44 -17 92 -17h7q93 0 176 63q35 30 42 42q48 60 56 124v6q10 92 -57 164q-71 66 -170 66q-98 0 -182 -65q-86 -72 -97 -167v-2z" />
<glyph unicode="&#xa8;" horiz-adv-x="805" d="M356 1960l2 7q3 33 38 57q19 10 37 10h2q39 0 57 -37q7 -16 5 -33q-4 -35 -36 -57q-20 -13 -40 -13h-4q-30 0 -50 26q-13 20 -11 40zM710 1960l2 7q3 33 38 57q19 10 37 10h2q39 0 57 -37q7 -16 5 -33q-4 -35 -36 -57q-20 -13 -40 -13h-4q-30 0 -50 26q-13 20 -11 40z " />
<glyph unicode="&#xa9;" horiz-adv-x="2253" d="M251 794l2 21q21 209 143 413q41 65 104 141q31 35 75 78q68 60 101 83q64 46 133 83q223 116 459 116q292 0 521 -173q40 -31 97 -89q62 -71 82 -106q33 -50 59 -109q95 -211 72 -446q-27 -268 -196 -499q-37 -51 -96 -113q-64 -63 -104 -94q-62 -46 -104 -72 q-69 -41 -135 -68q-190 -78 -369 -78h-25q-186 0 -367 84q-66 33 -140 87q-36 26 -98 90q-63 72 -83 106q-40 61 -59 109q-33 70 -54 155q-32 145 -18 281zM346 802q-25 -250 96 -466q23 -37 61 -87q50 -57 68 -72q41 -40 71 -59q59 -44 121 -72q156 -70 324 -70h9 q229 0 449 124q253 154 381 418q65 142 80 288q24 244 -92 455q-24 45 -77 113q-55 60 -75 76q-46 40 -83 64q-191 121 -422 121q-260 0 -497 -156q-41 -25 -105 -80q-69 -62 -95 -97q-44 -52 -69 -92q-123 -192 -144 -403zM741 800l1 14q16 145 95 285q24 40 61 86 q21 27 65 68q51 43 82 59q111 65 222 65h12q106 0 205 -62q29 -19 71 -61q34 -39 47 -59q23 -36 38 -69l-86 -45q-16 38 -47 79q-32 38 -46 48q-89 76 -197 76h-3q-131 0 -251 -109q-45 -45 -67 -76q-92 -134 -108 -291l-1 -3q-16 -165 57 -302q18 -32 52 -73 q97 -102 225 -102q123 0 237 96q39 35 59 61q23 27 38 51q69 -40 77 -45q-20 -32 -51 -69q-20 -24 -67 -68l-31 -24q-131 -95 -269 -95h-6q-135 0 -246 93q-52 46 -79 90q-29 42 -42 73q-63 147 -47 309z" />
<glyph unicode="&#xaa;" horiz-adv-x="764" />
<glyph unicode="&#xab;" horiz-adv-x="1253" d="M150 486l9 87q45 29 368 226l105 66l44 -78q-12 -7 -390 -239l-29 -18l363 -256v-1q-58 -75 -61 -77zM622 486l9 87q45 29 368 226l105 66l44 -78q-12 -7 -390 -239l-29 -18l363 -256v-1q-58 -75 -61 -77z" />
<glyph unicode="&#xac;" horiz-adv-x="947" d="M92 827l11 93h765l2 -1l-51 -447h-93l40 355h-674z" />
<glyph unicode="&#xad;" horiz-adv-x="1103" d="M124 531l11 93h831l2 -1l-11 -91l-1 -1h-832z" />
<glyph unicode="&#xae;" horiz-adv-x="1333" d="M244 1250l1 10q11 108 74 211q21 33 53 72q15 18 37 41q36 30 52 42q33 24 69 43q113 59 233 59q150 0 267 -89q21 -15 50 -45q32 -36 42 -54q17 -26 31 -57q48 -107 35 -227q-13 -137 -99 -255q-19 -26 -49 -58q-33 -32 -54 -47q-31 -24 -53 -38q-35 -21 -68 -34 q-98 -40 -190 -40h-12q-95 0 -187 42q-34 18 -72 45q-18 13 -50 46q-32 36 -42 54q-22 32 -31 56q-17 36 -27 79q-17 74 -10 144zM280 1253q-13 -131 52 -244q11 -20 31 -46q26 -30 36 -38q22 -21 38 -32q30 -22 63 -37q82 -37 169 -37h6q120 0 236 66q133 80 201 219 q34 75 41 152q13 128 -47 239q-13 24 -42 59q-29 32 -40 40q-23 21 -43 34q-101 64 -222 64q-137 0 -262 -82q-20 -13 -55 -42q-36 -33 -49 -52q-24 -27 -37 -48q-65 -100 -75 -211zM540 906l67 666h169q49 0 91 -27q11 -7 24 -19q16 -18 20 -25q7 -12 11 -21q20 -43 15 -92 l-2 -17q-6 -61 -46 -115q-41 -52 -100 -72l81 -209l24 -69h-40q-1 0 -7 17l-43 121l-50 131q-9 -1 -24 -1h-127l-27 -268h-36zM610 1210h137q18 0 41 8q57 22 90 76q21 37 25 80l1 11q7 64 -30 108q-13 14 -21 19q-34 24 -78 24h-133z" />
<glyph unicode="&#xaf;" horiz-adv-x="790" />
<glyph unicode="&#xb0;" horiz-adv-x="855" d="M118 1423l1 11q8 86 76 160q30 32 49 44q78 49 154 49h10q83 0 152 -56q21 -19 34 -39q51 -72 42 -163q-11 -106 -98 -186q-86 -74 -186 -74q-105 0 -179 78q-35 45 -43 82q-17 47 -12 94zM221 1428q-7 -73 49 -124q43 -32 90 -32h5q69 0 127 61q37 46 41 92v6 q7 64 -40 114q-43 40 -99 40h-1q-78 0 -137 -69q-29 -41 -34 -87z" />
<glyph unicode="&#xb1;" horiz-adv-x="945" d="M4 -93l10 93h836l1 -1l-11 -91l-1 -1h-835zM70 531l10 93h373l41 371l3 2h91v-2l-42 -371h371l1 -1l-11 -91l-1 -1h-370l-42 -372h-93l41 372h-372z" />
<glyph unicode="&#xb2;" horiz-adv-x="1196" />
<glyph unicode="&#xb3;" horiz-adv-x="1196" />
<glyph unicode="&#xb4;" horiz-adv-x="719" d="M354 1948v1l374 216l39 -78v-1l-373 -216z" />
<glyph unicode="&#xb5;" horiz-adv-x="1129" d="M73 -471l180 1592h93l-85 -749q-21 -188 119 -253q59 -26 139 -26h56q172 0 260 116q48 67 58 159l85 753h93l-125 -1104l-1 -2h-91l-1 2l12 103q-43 -48 -72 -63q-102 -57 -223 -57h-67q-161 0 -255 92q-8 9 -17 18l-65 -581l-1 -1h-91z" />
<glyph unicode="&#xb6;" horiz-adv-x="1243" d="M244 1202q20 175 152.5 282.5t330.5 107.5h494l-10 -92l-1 -1h-137l-142 -1263h-94l141 1263h-186l-142 -1263h-93l65 577q-194 9 -295.5 115t-82.5 274z" />
<glyph unicode="&#xb7;" horiz-adv-x="451" d="M356 860l2 7q3 33 38 57q19 11 37 11h2q39 0 57 -38q7 -16 5 -33q-4 -34 -36 -57q-20 -13 -40 -13h-4q-30 0 -50 26q-13 20 -11 40z" />
<glyph unicode="&#xb8;" horiz-adv-x="618" d="M354 -268q2 1 37 25q35 22 36 22q27 -41 69 -41q36 0 67 32q14 19 16 39l2 5q2 23 -11 42q-13 12 -35 12h-8q-24 0 -69 -18l-40 -13v1l62 201v1h1q76 -15 78 -16l-23 -74q95 0 121 -79q9 -30 5 -61q-7 -71 -73 -120q-49 -35 -104 -35q-81 0 -131 76v1z" />
<glyph unicode="&#xb9;" horiz-adv-x="1196" />
<glyph unicode="&#xba;" horiz-adv-x="847" />
<glyph unicode="&#xbb;" horiz-adv-x="1254" d="M130 273v1l419 256l-24 18q-329 232 -339 239l61 78l90 -66q281 -197 319 -226l-9 -87l-474 -290q-2 2 -43 77zM602 273v1l419 256l-24 18q-329 232 -339 239l61 78l90 -66q281 -197 319 -226l-9 -87l-474 -290q-2 2 -43 77z" />
<glyph unicode="&#xbc;" horiz-adv-x="2015" />
<glyph unicode="&#xbd;" horiz-adv-x="2317" />
<glyph unicode="&#xbe;" horiz-adv-x="2015" />
<glyph unicode="&#xbf;" horiz-adv-x="1167" d="M-4 463q12 112 85 227q26 40 70 86q44 44 70 63q22 17 125 86q27 19 61 50q53 50 60 112l10 97l22 193h1l14 1h77l1 -1l-33 -288q-14 -126 -140 -219q-40 -30 -125 -88q-24 -15 -62 -48q-44 -44 -67 -78q-64 -98 -74 -190l-1 -6q-14 -126 53 -233q12 -17 39 -46 q56 -54 114 -71q47 -14 89 -14h13q92 0 186 60q24 13 60 47q55 53 88 117q34 71 42 141l5 42l1 1h91l1 -1l-6 -46q-13 -112 -80 -221q-25 -39 -77 -93q-48 -45 -67 -56q-125 -85 -262 -85q-145 0 -256 96q-43 42 -58 66q-22 35 -35 64q-49 112 -35 235zM498 1627q5 42 45 66 q20 10 35 10h8q32 0 55 -31q12 -21 9 -46q-5 -37 -40 -61q-21 -13 -45 -13q-36 0 -58 32q-11 21 -9 43z" />
<glyph unicode="&#xc0;" d="M1 1l248 598l218 526l221 533l29 70h117q3 0 7 -31l95 -490l109 -562l110 -564l16 -81h-98q-4 4 -9 42l-99 504h-641l-226 -545v-1h-96zM363 640h585l-70 356l-110 565l-7 37l-141 -346q-154 -365 -218 -518zM601 2086v1l39 78l374 -216v-1l-40 -78z" />
<glyph unicode="&#xc1;" d="M1 1l248 598l218 526l221 533l29 70h117q3 0 7 -31l95 -490l109 -562l110 -564l16 -81h-98q-4 4 -9 42l-99 504h-641l-226 -545v-1h-96zM363 640h585l-70 356l-110 565l-7 37l-141 -346q-154 -365 -218 -518zM601 1948v1l374 216l39 -78v-1l-373 -216z" />
<glyph unicode="&#xc2;" d="M1 1l248 598l218 526l221 533l29 70h117q3 0 7 -31l95 -490l109 -562l110 -564l16 -81h-98q-4 4 -9 42l-99 504h-641l-226 -545v-1h-96zM363 640h585l-70 356l-110 565l-7 37l-141 -346q-154 -365 -218 -518zM530 1930l262 275h72l203 -275l-78 -60h-1l-171 234 q-214 -224 -223 -234q-45 42 -64 60z" />
<glyph unicode="&#xc3;" d="M1 1l248 598l218 526l221 533l29 70h117q3 0 7 -31l95 -490l109 -562l110 -564l16 -81h-98q-4 4 -9 42l-99 504h-641l-226 -545v-1h-96zM363 640h585l-70 356l-110 565l-7 37l-141 -346q-154 -365 -218 -518zM579 1899l12 103q25 28 49 39q36 20 68 20q38 0 103 -37 t96 -37t67 21q22 15 54 46l-11 -103q-26 -26 -51 -39q-36 -19 -69 -19q-36 0 -100 36.5t-100 36.5q-29 0 -65 -21q-22 -15 -53 -46z" />
<glyph unicode="&#xc4;" d="M1 1l248 598l218 526l221 533l29 70h117q3 0 7 -31l95 -490l109 -562l110 -564l16 -81h-98q-4 4 -9 42l-99 504h-641l-226 -545v-1h-96zM363 640h585l-70 356l-110 565l-7 37l-141 -346q-154 -365 -218 -518zM558 1981v7q4 33 40 57q19 11 37 11h2q39 0 57 -38 q7 -16 5 -33q-4 -34 -36 -57q-21 -13 -41 -13h-5q-29 0 -48 26q-13 20 -11 40zM912 1981v7q4 33 40 57q19 11 37 11h2q39 0 57 -38q7 -16 5 -33q-4 -34 -36 -57q-21 -13 -41 -13h-5q-29 0 -48 26q-13 20 -11 40z" />
<glyph unicode="&#xc5;" d="M1 1l248 598l218 526l221 533l29 68q-29 12 -51 37q-18 21 -23 35q-18 38 -13 78v5q6 54 47 99q19 21 32 28q47 33 102 33q66 0 111 -48q40 -50 33 -113q-7 -69 -64 -122q-28 -21 -57 -30q4 -4 7 -31l95 -490l109 -562l110 -564l16 -81h-98q-4 4 -9 42l-99 504h-641 l-226 -545v-1h-96zM363 640h585l-70 356l-110 565l-7 37l-141 -346q-154 -365 -218 -518zM719 1879q-4 -32 19 -56q20 -18 47 -18q29 0 55 22q11 11 16 21q8 14 10 29v3q4 27 -14 50q-21 23 -51 23q-33 0 -61 -28q-19 -22 -21 -46z" />
<glyph unicode="&#xc6;" horiz-adv-x="2011" d="M1 5l1240 1720l5 3h825l3 -5l-9 -83l-5 -5h-705l-5 -4l-80 -721h576l4 -5l-9 -83l-5 -4h-576l-80 -724h710l5 -4l-9 -85l-5 -5h-805l-6 5l59 541h-640q-383 -539 -393 -546h-90zM557 637h581l105 951h-3z" />
<glyph unicode="&#xc7;" horiz-adv-x="1241" d="M164 536l72 656q24 212 126 363q20 30 55 66q42 40 55 49q40 28 68 41q90 42 180 42h161q120 0 216 -71q94 -76 129 -211q33 -125 15 -284v-5l-1 -1h-91q-1 0 -1 3q26 232 -61 364q-78 112 -221 112h-150q-139 0 -240 -106q-122 -132 -148 -370l-71 -640 q-25 -228 58 -358q79 -116 225 -116h149q136 0 235 99q127 130 155 377h92l1 -1l-1 -2q-30 -269 -173 -426q-34 -34 -60 -54q-44 -32 -74 -45q-88 -42 -177 -42h-66l-10 -26q96 0 122 -79q8 -30 5 -61q-9 -71 -74 -120q-48 -35 -104 -35q-81 0 -130 76v1q2 1 36 25 q34 22 36 22q27 -41 68 -41q37 0 67 32q16 19 18 39v5q3 23 -11 42q-13 12 -35 12h-7q-25 0 -69 -18l-40 -13v1l43 138h-11q-126 0 -224 78q-18 14 -48 51q-31 43 -50 83q-61 147 -39 348z" />
<glyph unicode="&#xc8;" horiz-adv-x="1049" d="M110 1l193 1725l3 2h806v-2l-10 -91l-1 -1h-714l-81 -724h579l-11 -92h-579l-81 -725h713l2 -1l-11 -91l-1 -1h-806zM535 2086v1l40 78l374 -216v-1l-40 -78z" />
<glyph unicode="&#xc9;" horiz-adv-x="1049" d="M110 1l193 1725l3 2h806v-2l-10 -91l-1 -1h-714l-81 -724h579l-11 -92h-579l-81 -725h713l2 -1l-11 -91l-1 -1h-806zM535 1948v1l374 216l40 -78v-1l-374 -216z" />
<glyph unicode="&#xca;" horiz-adv-x="1049" d="M110 1l193 1725l3 2h806v-2l-10 -91l-1 -1h-714l-81 -724h579l-11 -92h-579l-81 -725h713l2 -1l-11 -91l-1 -1h-806zM463 1930l263 275h72l201 -275l-77 -60h-2l-171 234q-213 -224 -223 -234q-45 42 -63 60z" />
<glyph unicode="&#xcb;" horiz-adv-x="1049" d="M110 1l193 1725l3 2h806v-2l-10 -91l-1 -1h-714l-81 -724h579l-11 -92h-579l-81 -725h713l2 -1l-11 -91l-1 -1h-806zM489 1972l1 7q3 33 39 57q19 10 36 10h3q39 0 56 -38q7 -15 5 -33q-4 -34 -35 -56q-21 -13 -41 -13h-4q-30 0 -50 26q-13 20 -10 40zM843 1972l1 7 q3 33 39 57q19 10 36 10h3q39 0 56 -38q7 -15 5 -33q-4 -34 -35 -56q-21 -13 -41 -13h-4q-30 0 -50 26q-13 20 -10 40z" />
<glyph unicode="&#xcc;" horiz-adv-x="405" d="M103 1l194 1727h94l-195 -1727l-1 -1h-91zM169 2086v1l40 78l374 -216v-1l-40 -78z" />
<glyph unicode="&#xcd;" horiz-adv-x="405" d="M103 1l194 1727h94l-195 -1727l-1 -1h-91zM169 1948v1l374 216l40 -78v-1l-374 -216z" />
<glyph unicode="&#xce;" horiz-adv-x="405" d="M98 1930l263 275h72l202 -275l-78 -60h-1l-170 234q-215 -224 -224 -234q-45 42 -64 60zM103 1l194 1727h94l-195 -1727l-1 -1h-91z" />
<glyph unicode="&#xcf;" horiz-adv-x="405" d="M103 1l194 1727h94l-195 -1727l-1 -1h-91zM159 1972l1 7q4 33 39 57q19 10 37 10h2q39 0 57 -38q7 -15 5 -33q-4 -34 -36 -56q-20 -13 -40 -13h-5q-29 0 -49 26q-13 20 -11 40zM442 1972l2 7q3 33 39 57q19 10 36 10h3q38 0 56 -38q7 -15 5 -33q-4 -34 -35 -56 q-21 -13 -41 -13h-4q-30 0 -50 26q-13 20 -11 40z" />
<glyph unicode="&#xd0;" horiz-adv-x="1294" d="M110 818l10 93h98l92 815l2 2h594q104 0 189 -64q93 -77 125 -215q28 -120 12 -269l-72 -635q-26 -229 -137 -380q-83 -106 -201 -146q-59 -19 -114 -19h-591l-1 1l92 817h-98zM219 93h494q171 0 273 180q63 116 82 280l70 619q27 242 -62 369q-69 93 -187 93h-496 l-81 -723h168l-10 -93h-169z" />
<glyph unicode="&#xd1;" horiz-adv-x="1372" d="M110 1l193 1725l3 2h140q2 -4 21 -49l199 -484l194 -476l221 -540l23 -57l182 1606h97l-195 -1727l-1 -1h-137q-1 1 -21 51l-191 465l-178 435l-238 579l-33 83h-1l-182 -1612l-1 -1h-94zM647 1900l11 104q26 27 50 39q37 20 68 20q38 0 102.5 -37.5t96.5 -37.5 q30 0 66 22q23 14 55 46l-12 -104q-26 -26 -50 -39q-37 -19 -70 -19q-35 0 -99.5 36.5t-99.5 36.5q-30 0 -65 -21q-23 -14 -53 -46z" />
<glyph unicode="&#xd2;" horiz-adv-x="1273" d="M133 536l72 656q24 212 127 363q20 30 54 66q42 40 55 49q40 28 69 41q89 42 179 42h162q119 0 215 -71q48 -39 81 -93q91 -155 64 -402l-71 -644q-27 -254 -157 -408q-19 -23 -54 -55q-61 -49 -120 -73q-76 -31 -153 -31h-162q-126 0 -224 78q-17 14 -46 47 q-32 43 -42 70q-19 34 -36 93q-29 125 -13 272zM227 544q-25 -228 57 -358q79 -116 226 -116h150q155 0 265 133q99 127 123 348l68 625q32 282 -91 410q-76 74 -191 74h-150q-139 0 -239 -106q-122 -132 -148 -370zM592 2086v1l39 78l376 -216v-1l-42 -78z" />
<glyph unicode="&#xd3;" horiz-adv-x="1273" d="M133 536l72 656q24 212 127 363q20 30 54 66q42 40 55 49q40 28 69 41q89 42 179 42h162q119 0 215 -71q48 -39 81 -93q91 -155 64 -402l-71 -644q-27 -254 -157 -408q-19 -23 -54 -55q-61 -49 -120 -73q-76 -31 -153 -31h-162q-126 0 -224 78q-17 14 -46 47 q-32 43 -42 70q-19 34 -36 93q-29 125 -13 272zM227 544q-25 -228 57 -358q79 -116 226 -116h150q155 0 265 133q99 127 123 348l68 625q32 282 -91 410q-76 74 -191 74h-150q-139 0 -239 -106q-122 -132 -148 -370zM592 1948v1l376 216l39 -78v-1l-373 -216z" />
<glyph unicode="&#xd4;" horiz-adv-x="1273" d="M133 536l72 656q24 212 127 363q20 30 54 66q42 40 55 49q40 28 69 41q89 42 179 42h162q119 0 215 -71q48 -39 81 -93q91 -155 64 -402l-71 -644q-27 -254 -157 -408q-19 -23 -54 -55q-61 -49 -120 -73q-76 -31 -153 -31h-162q-126 0 -224 78q-17 14 -46 47 q-32 43 -42 70q-19 34 -36 93q-29 125 -13 272zM227 544q-25 -228 57 -358q79 -116 226 -116h150q155 0 265 133q99 127 123 348l68 625q32 282 -91 410q-76 74 -191 74h-150q-139 0 -239 -106q-122 -132 -148 -370zM522 1930l262 275h72l202 -275l-77 -60h-2l-171 234 q-213 -224 -223 -234q-45 42 -63 60z" />
<glyph unicode="&#xd5;" horiz-adv-x="1273" d="M133 536l72 656q24 212 127 363q20 30 54 66q42 40 55 49q40 28 69 41q89 42 179 42h162q119 0 215 -71q48 -39 81 -93q91 -155 64 -402l-71 -644q-27 -254 -157 -408q-19 -23 -54 -55q-61 -49 -120 -73q-76 -31 -153 -31h-162q-126 0 -224 78q-17 14 -46 47 q-32 43 -42 70q-19 34 -36 93q-29 125 -13 272zM227 544q-25 -228 57 -358q79 -116 226 -116h150q155 0 265 133q99 127 123 348l68 625q32 282 -91 410q-76 74 -191 74h-150q-139 0 -239 -106q-122 -132 -148 -370zM571 1900l11 104q26 27 48 39q37 20 69 20 q39 0 103 -37.5t96 -37.5q31 0 66 22q24 14 56 46l-11 -104q-27 -26 -51 -39q-38 -19 -71 -19q-35 0 -98.5 36.5t-100.5 36.5q-28 0 -64 -21q-23 -14 -53 -46z" />
<glyph unicode="&#xd6;" horiz-adv-x="1273" d="M133 536l72 656q24 212 127 363q20 30 54 66q42 40 55 49q40 28 69 41q89 42 179 42h162q119 0 215 -71q48 -39 81 -93q91 -155 64 -402l-71 -644q-27 -254 -157 -408q-19 -23 -54 -55q-61 -49 -120 -73q-76 -31 -153 -31h-162q-126 0 -224 78q-17 14 -46 47 q-32 43 -42 70q-19 34 -36 93q-29 125 -13 272zM227 544q-25 -228 57 -358q79 -116 226 -116h150q155 0 265 133q99 127 123 348l68 625q32 282 -91 410q-76 74 -191 74h-150q-139 0 -239 -106q-122 -132 -148 -370zM548 1972v7q3 33 38 57q19 10 37 10h2q39 0 58 -38 q6 -15 5 -33q-4 -34 -35 -56q-22 -13 -42 -13h-4q-30 0 -49 26q-13 20 -10 40zM902 1972v7q3 33 38 57q19 10 37 10h2q39 0 58 -38q6 -15 5 -33q-4 -34 -35 -56q-22 -13 -42 -13h-4q-30 0 -49 26q-13 20 -10 40z" />
<glyph unicode="&#xd7;" horiz-adv-x="784" d="M60 293l293 263l-234 262v2l71 65l2 -1l234 -262l290 262h3l56 -65v-1l-290 -262l234 -263l-74 -66l-234 263l-292 -263z" />
<glyph unicode="&#xd8;" horiz-adv-x="1478" d="M117 0v2l157 228l-10 34q-30 125 -14 272l72 656q24 212 126 363q22 30 55 66q42 40 56 49q39 28 69 41q88 42 178 42h162q119 0 216 -71q28 -24 51 -52l131 191l3 1l74 -46l-1 -2l-156 -228q66 -145 43 -359l-71 -644q-28 -254 -157 -408q-20 -23 -56 -55 q-60 -49 -118 -73q-77 -31 -154 -31h-162q-126 0 -224 78q-18 14 -46 47q-14 19 -24 36l-125 -182h-1zM345 544q-13 -117 1 -208l830 1207q-15 24 -34 43q-75 74 -190 74h-150q-139 0 -240 -106q-121 -132 -148 -370zM379 228q10 -23 22 -42q79 -116 226 -116h149 q156 0 266 133q99 127 123 348l69 625q18 162 -15 272z" />
<glyph unicode="&#xd9;" horiz-adv-x="1308" d="M191 559l132 1167l1 2h91l2 -2l-131 -1158q-26 -234 61 -365q27 -37 45 -51q26 -19 46 -29q55 -30 139 -30h130q104 0 177 46q56 34 104 95q94 126 119 341l130 1151l1 2h91l-131 -1162q-29 -253 -158 -409q-140 -157 -337 -157h-144q-185 0 -289 140q-61 88 -78 212 q-13 100 -1 207zM651 2086l374 -216l41 78v1l-375 216l-40 -78v-1z" />
<glyph unicode="&#xda;" horiz-adv-x="1308" d="M191 559l132 1167l1 2h91l2 -2l-131 -1158q-26 -234 61 -365q27 -37 45 -51q26 -19 46 -29q55 -30 139 -30h130q104 0 177 46q56 34 104 95q94 126 119 341l130 1151l1 2h91l-131 -1162q-29 -253 -158 -409q-140 -157 -337 -157h-144q-185 0 -289 140q-61 88 -78 212 q-13 100 -1 207zM651 1948l40 -78l375 216v1l-41 78l-374 -216v-1z" />
<glyph unicode="&#xdb;" horiz-adv-x="1308" d="M191 559l132 1167l1 2h91l2 -2l-131 -1158q-26 -234 61 -365q27 -37 45 -51q26 -19 46 -29q55 -30 139 -30h130q104 0 177 46q56 34 104 95q94 126 119 341l130 1151l1 2h91l-131 -1162q-29 -253 -158 -409q-140 -157 -337 -157h-144q-185 0 -289 140q-61 88 -78 212 q-13 100 -1 207zM581 1930l263 275h72l201 -275l-77 -60h-2l-170 234q-214 -224 -224 -234q-45 42 -63 60z" />
<glyph unicode="&#xdc;" horiz-adv-x="1308" d="M191 559l132 1167l1 2h91l2 -2l-131 -1158q-26 -234 61 -365q27 -37 45 -51q26 -19 46 -29q55 -30 139 -30h130q104 0 177 46q56 34 104 95q94 126 119 341l130 1151l1 2h91l-131 -1162q-29 -253 -158 -409q-140 -157 -337 -157h-144q-185 0 -289 140q-61 88 -78 212 q-13 100 -1 207zM607 1972l1 7q3 33 39 57q19 10 36 10h3q39 0 56 -38q7 -15 5 -33q-4 -34 -35 -56q-21 -13 -41 -13h-4q-30 0 -50 26q-13 20 -10 40zM961 1972l1 7q3 33 39 57q19 10 36 10h3q39 0 56 -38q7 -15 5 -33q-4 -34 -35 -56q-21 -13 -41 -13h-4q-30 0 -50 26 q-13 20 -10 40z" />
<glyph unicode="&#xdd;" horiz-adv-x="1025" d="M231 1728h108q2 0 36 -93l134 -332l129 -325l5 -10l240 388l230 372h108l-327 -527q-218 -348 -218 -349l-93 -851l-1 -1h-91l-1 1l93 851q-7 20 -163 406zM552 1948v1l374 216l40 -78l-1 -1l-373 -216z" />
<glyph unicode="&#xde;" horiz-adv-x="1528" d="M105 1l194 1725l2 2h91v-2l-42 -368h535q249 0 391 -110q140 -120 119 -313l-17 -142q-20 -182 -171 -300q-94 -71 -219 -99q-102 -25 -207 -25h-541l-42 -368l-1 -1h-91zM250 461h534q230 0 369 101q39 30 55 50q23 26 36 48q34 57 43 140l15 127q11 103 -25 170 q-30 52 -84 91q-114 79 -326 79h-526z" />
<glyph unicode="&#xdf;" horiz-adv-x="1314" d="M111 -1l151 1369q12 87 90 200q127 160 329 160h6q205 0 309 -118q64 -85 52 -190l-1 -13q-15 -130 -134 -287q-86 -129 -94 -202q-12 -107 137 -199q230 -173 209 -370q-16 -133 -140 -251q-131 -110 -269 -110q-201 0 -312 233l-12 30l87 43q89 -211 242 -211h17 q88 0 187 80q97 92 108 185q17 170 -235 333q-128 105 -112 237q13 118 159 316q60 95 70 177q16 154 -150 207q-73 16 -134 16q-201 0 -293 -194q-22 -54 -24 -78l-150 -1363l-3 -3h-87z" />
<glyph unicode="&#xe0;" horiz-adv-x="1079" d="M140 299l2 11q23 213 304 291q144 37 336 37q40 0 95 -2l16 148q12 107 -42 177q-58 67 -181 67q-99 0 -238 -45q-57 -21 -158 -69l-18 -7l-31 84q124 57 179 78q41 17 126 35q84 17 152 17q197 0 273 -142q43 -87 33 -190l-58 -525q-11 -94 5 -204q5 -32 14 -60h-99 q-2 0 -9 37q-7 39 -9 105q0 6 -1 6q-66 -50 -112 -76q-51 -27 -101 -46q-102 -37 -181 -37h-18q-97 0 -176 51q-19 13 -46 41q0 2 -11 16q-59 86 -46 202zM234 302q-13 -118 63 -178q57 -43 136 -43h8q98 0 217 61q42 21 92 55q34 22 85 69l31 277q-54 3 -95 3 q-262 0 -415 -76q-27 -13 -55 -36q-33 -30 -41 -48q-20 -30 -26 -82v-2zM472 1480v1l40 78l374 -216v-1l-41 -78z" />
<glyph unicode="&#xe1;" horiz-adv-x="1079" d="M140 299l2 11q23 213 304 291q144 37 336 37q40 0 95 -2l16 148q12 107 -42 177q-58 67 -181 67q-99 0 -238 -45q-57 -21 -158 -69l-18 -7l-31 84q124 57 179 78q41 17 126 35q84 17 152 17q197 0 273 -142q43 -87 33 -190l-58 -525q-11 -94 5 -204q5 -32 14 -60h-99 q-2 0 -9 37q-7 39 -9 105q0 6 -1 6q-66 -50 -112 -76q-51 -27 -101 -46q-102 -37 -181 -37h-18q-97 0 -176 51q-19 13 -46 41q0 2 -11 16q-59 86 -46 202zM234 302q-13 -118 63 -178q57 -43 136 -43h8q98 0 217 61q42 21 92 55q34 22 85 69l31 277q-54 3 -95 3 q-262 0 -415 -76q-27 -13 -55 -36q-33 -30 -41 -48q-20 -30 -26 -82v-2zM472 1342v1l374 216l40 -78v-1l-373 -216z" />
<glyph unicode="&#xe2;" horiz-adv-x="1079" d="M140 299l2 11q23 213 304 291q144 37 336 37q40 0 95 -2l16 148q12 107 -42 177q-58 67 -181 67q-99 0 -238 -45q-57 -21 -158 -69l-18 -7l-31 84q124 57 179 78q41 17 126 35q84 17 152 17q197 0 273 -142q43 -87 33 -190l-58 -525q-11 -94 5 -204q5 -32 14 -60h-99 q-2 0 -9 37q-7 39 -9 105q0 6 -1 6q-66 -50 -112 -76q-51 -27 -101 -46q-102 -37 -181 -37h-18q-97 0 -176 51q-19 13 -46 41q0 2 -11 16q-59 86 -46 202zM234 302q-13 -118 63 -178q57 -43 136 -43h8q98 0 217 61q42 21 92 55q34 22 85 69l31 277q-54 3 -95 3 q-262 0 -415 -76q-27 -13 -55 -36q-33 -30 -41 -48q-20 -30 -26 -82v-2zM401 1324l263 275h72l202 -275l-77 -60h-1l-171 233q-213 -224 -223 -233q-45 41 -65 60z" />
<glyph unicode="&#xe3;" horiz-adv-x="1079" d="M140 299l2 11q23 213 304 291q144 37 336 37q40 0 95 -2l16 148q12 107 -42 177q-58 67 -181 67q-99 0 -238 -45q-57 -21 -158 -69l-18 -7l-31 84q124 57 179 78q41 17 126 35q84 17 152 17q197 0 273 -142q43 -87 33 -190l-58 -525q-11 -94 5 -204q5 -32 14 -60h-99 q-2 0 -9 37q-7 39 -9 105q0 6 -1 6q-66 -50 -112 -76q-51 -27 -101 -46q-102 -37 -181 -37h-18q-97 0 -176 51q-19 13 -46 41q0 2 -11 16q-59 86 -46 202zM234 302q-13 -118 63 -178q57 -43 136 -43h8q98 0 217 61q42 21 92 55q34 22 85 69l31 277q-54 3 -95 3 q-262 0 -415 -76q-27 -13 -55 -36q-33 -30 -41 -48q-20 -30 -26 -82v-2zM451 1293l10 104q26 27 50 39q37 20 68 20q38 0 103 -37t97 -37q30 0 66 21q22 14 54 46l-12 -104q-24 -26 -49 -39q-37 -19 -70 -19q-35 0 -99.5 37t-99.5 37q-30 0 -65 -22q-23 -14 -53 -46z" />
<glyph unicode="&#xe4;" horiz-adv-x="1079" d="M140 299l2 11q23 213 304 291q144 37 336 37q40 0 95 -2l16 148q12 107 -42 177q-58 67 -181 67q-99 0 -238 -45q-57 -21 -158 -69l-18 -7l-31 84q124 57 179 78q41 17 126 35q84 17 152 17q197 0 273 -142q43 -87 33 -190l-58 -525q-11 -94 5 -204q5 -32 14 -60h-99 q-2 0 -9 37q-7 39 -9 105q0 6 -1 6q-66 -50 -112 -76q-51 -27 -101 -46q-102 -37 -181 -37h-18q-97 0 -176 51q-19 13 -46 41q0 2 -11 16q-59 86 -46 202zM234 302q-13 -118 63 -178q57 -43 136 -43h8q98 0 217 61q42 21 92 55q34 22 85 69l31 277q-54 3 -95 3 q-262 0 -415 -76q-27 -13 -55 -36q-33 -30 -41 -48q-20 -30 -26 -82v-2zM426 1365l1 7q4 33 39 57q19 11 37 11h2q39 0 58 -38q6 -16 5 -33q-5 -34 -37 -57q-20 -13 -40 -13h-5q-29 0 -48 26q-14 20 -12 40zM780 1365l1 7q4 33 39 57q19 11 37 11h2q39 0 58 -38q6 -16 5 -33 q-5 -34 -37 -57q-20 -13 -40 -13h-5q-29 0 -48 26q-14 20 -12 40z" />
<glyph unicode="&#xe5;" horiz-adv-x="1079" d="M140 299l2 11q23 213 304 291q144 37 336 37q40 0 95 -2l16 148q12 107 -42 177q-58 67 -181 67q-99 0 -238 -45q-57 -21 -158 -69l-18 -7l-31 84q124 57 179 78q41 17 126 35q84 17 152 17q197 0 273 -142q43 -87 33 -190l-58 -525q-11 -94 5 -204q5 -32 14 -60h-99 q-2 0 -9 37q-7 39 -9 105q0 6 -1 6q-66 -50 -112 -76q-51 -27 -101 -46q-102 -37 -181 -37h-18q-97 0 -176 51q-19 13 -46 41q0 2 -11 16q-59 86 -46 202zM234 302q-13 -118 63 -178q57 -43 136 -43h8q98 0 217 61q42 21 92 55q34 22 85 69l31 277q-54 3 -95 3 q-262 0 -415 -76q-27 -13 -55 -36q-33 -30 -41 -48q-20 -30 -26 -82v-2zM544 1395v4q6 49 47 90q45 40 100 40q62 0 100 -49q23 -38 18 -84q-5 -60 -62 -104q-40 -28 -85 -28q-65 0 -102 55q-21 37 -16 76zM621 1396q-4 -33 27 -51q13 -5 22 -5q32 0 53 31q9 13 10 26 q3 31 -25 50q-13 6 -26 6q-33 0 -54 -33q-6 -11 -7 -24z" />
<glyph unicode="&#xe6;" horiz-adv-x="1912" d="M140 299l2 11q23 213 304 291q143 37 335 37q40 0 96 -2l16 148q12 107 -43 177q-57 67 -180 67q-99 0 -238 -45q-56 -21 -159 -69l-17 -7l-31 84q125 57 180 78q40 17 126 35q83 17 150 17q197 0 274 -142q43 -87 33 -190l-3 -18q13 30 31 61q27 49 71 103q21 26 58 60 q49 43 82 62q122 75 241 75h14q106 0 208 -63q27 -16 62 -51q36 -36 50 -57q40 -59 58 -104q17 -44 28 -99q8 -56 8 -64q-21 -7 -410 -123l-462 -138q6 -37 14 -67q15 -52 43 -103q13 -25 47 -66q99 -104 234 -104q137 0 260 111q55 52 75 85l6 7h1q73 -46 73 -47 q-22 -33 -57 -72q-17 -20 -49 -48q-59 -50 -102 -70q-106 -59 -214 -59h-10q-124 0 -232 79q-25 19 -60 56q-37 42 -54 75q-40 68 -59 153l-10 -99q-11 -94 5 -204q5 -32 14 -60h-99q-2 0 -9 37q-7 39 -9 105q1 6 0 6q-67 -50 -113 -76q-51 -27 -101 -46q-102 -37 -181 -37 h-18q-97 0 -175 51q-20 13 -47 41q0 2 -11 16q-59 86 -46 202zM234 302q-13 -118 63 -178q57 -43 136 -43h8q98 0 217 61q42 21 92 55q34 22 85 69l31 277q-54 3 -95 3q-262 0 -415 -76q-27 -13 -55 -36q-33 -30 -41 -48q-20 -30 -26 -82v-2zM1021 511l547 164l224 66 q-1 13 -18 70q-15 34 -39 74q-15 24 -43 55l-16 16q-92 82 -210 82h-3q-126 0 -245 -96q-45 -40 -63 -64q-34 -43 -53 -76q-65 -111 -78 -233v-4q-3 -26 -3 -54z" />
<glyph unicode="&#xe7;" horiz-adv-x="998" d="M113 555l1 14q17 145 98 284q25 40 62 86q21 27 66 69q51 42 84 59q111 65 221 65h12q106 0 204 -63q29 -19 70 -60q35 -39 47 -59q24 -37 37 -70l-86 -45q-16 38 -46 79q-32 38 -46 49q-88 75 -196 75h-3q-131 0 -252 -108q-45 -45 -67 -77q-95 -133 -111 -290v-4 q-19 -165 52 -302q17 -32 52 -73q95 -101 224 -101q122 0 238 95q39 36 60 62q22 27 37 50q69 -40 77 -45q-21 -31 -51 -68q-20 -25 -69 -68l-30 -24q-132 -96 -271 -96h-25l-11 -39q95 0 120 -79q9 -30 5 -61q-8 -71 -74 -120q-49 -35 -103 -35q-81 0 -131 76v1q2 1 37 25 q34 22 36 22q27 -41 67 -41q38 0 68 32q16 19 19 39v5q2 23 -12 42q-12 12 -34 12h-8q-26 0 -70 -18l-40 -13v1l51 166q-77 21 -146 79q-52 46 -79 89t-40 73q-61 148 -44 310z" />
<glyph unicode="&#xe8;" horiz-adv-x="1078" d="M96 558l1 15q14 131 84 259q28 49 72 103q21 26 57 60q50 43 82 62q122 75 242 75h14q106 0 206 -63q29 -16 64 -51q35 -36 50 -57q40 -59 57 -104q18 -44 28 -99q9 -56 8 -64q-20 -7 -410 -123l-461 -138q6 -37 14 -67q14 -52 43 -103q13 -25 47 -66q98 -104 232 -104 q137 0 262 111q55 52 75 85l4 7h1q75 -46 75 -47q-23 -33 -57 -72q-19 -20 -49 -48q-59 -50 -102 -70q-106 -59 -215 -59h-9q-124 0 -233 79q-24 19 -60 56q-36 42 -54 75q-40 70 -59 157q-20 97 -9 191zM185 511l549 164l224 66q-1 13 -20 70q-13 34 -38 74q-15 24 -43 55 l-16 16q-92 82 -210 82h-2q-126 0 -245 -96q-45 -40 -63 -64q-34 -43 -53 -76q-65 -111 -78 -233l-1 -4q-3 -26 -4 -54zM467 1480v1l40 78l374 -216v-1l-41 -78z" />
<glyph unicode="&#xe9;" horiz-adv-x="1078" d="M96 558l1 15q14 131 84 259q28 49 72 103q21 26 57 60q50 43 82 62q122 75 242 75h14q106 0 206 -63q29 -16 64 -51q35 -36 50 -57q40 -59 57 -104q18 -44 28 -99q9 -56 8 -64q-20 -7 -410 -123l-461 -138q6 -37 14 -67q14 -52 43 -103q13 -25 47 -66q98 -104 232 -104 q137 0 262 111q55 52 75 85l4 7h1q75 -46 75 -47q-23 -33 -57 -72q-19 -20 -49 -48q-59 -50 -102 -70q-106 -59 -215 -59h-9q-124 0 -233 79q-24 19 -60 56q-36 42 -54 75q-40 70 -59 157q-20 97 -9 191zM185 511l549 164l224 66q-1 13 -20 70q-13 34 -38 74q-15 24 -43 55 l-16 16q-92 82 -210 82h-2q-126 0 -245 -96q-45 -40 -63 -64q-34 -43 -53 -76q-65 -111 -78 -233l-1 -4q-3 -26 -4 -54zM467 1342v1l374 216l40 -78v-1l-372 -216z" />
<glyph unicode="&#xea;" horiz-adv-x="1078" d="M96 558l1 15q14 131 84 259q28 49 72 103q21 26 57 60q50 43 82 62q122 75 242 75h14q106 0 206 -63q29 -16 64 -51q35 -36 50 -57q40 -59 57 -104q18 -44 28 -99q9 -56 8 -64q-20 -7 -410 -123l-461 -138q6 -37 14 -67q14 -52 43 -103q13 -25 47 -66q98 -104 232 -104 q137 0 262 111q55 52 75 85l4 7h1q75 -46 75 -47q-23 -33 -57 -72q-19 -20 -49 -48q-59 -50 -102 -70q-106 -59 -215 -59h-9q-124 0 -233 79q-24 19 -60 56q-36 42 -54 75q-40 70 -59 157q-20 97 -9 191zM185 511l549 164l224 66q-1 13 -20 70q-13 34 -38 74q-15 24 -43 55 l-16 16q-92 82 -210 82h-2q-126 0 -245 -96q-45 -40 -63 -64q-34 -43 -53 -76q-65 -111 -78 -233l-1 -4q-3 -26 -4 -54zM396 1324l264 275h72l201 -275l-76 -60h-1l-173 233q-213 -224 -222 -233q-46 41 -65 60z" />
<glyph unicode="&#xeb;" horiz-adv-x="1078" d="M96 558l1 15q14 131 84 259q28 49 72 103q21 26 57 60q50 43 82 62q122 75 242 75h14q106 0 206 -63q29 -16 64 -51q35 -36 50 -57q40 -59 57 -104q18 -44 28 -99q9 -56 8 -64q-20 -7 -410 -123l-461 -138q6 -37 14 -67q14 -52 43 -103q13 -25 47 -66q98 -104 232 -104 q137 0 262 111q55 52 75 85l4 7h1q75 -46 75 -47q-23 -33 -57 -72q-19 -20 -49 -48q-59 -50 -102 -70q-106 -59 -215 -59h-9q-124 0 -233 79q-24 19 -60 56q-36 42 -54 75q-40 70 -59 157q-20 97 -9 191zM185 511l549 164l224 66q-1 13 -20 70q-13 34 -38 74q-15 24 -43 55 l-16 16q-92 82 -210 82h-2q-126 0 -245 -96q-45 -40 -63 -64q-34 -43 -53 -76q-65 -111 -78 -233l-1 -4q-3 -26 -4 -54zM424 1365l1 7q3 33 39 57q19 11 36 11h3q39 0 56 -38q7 -16 5 -33q-4 -34 -35 -57q-20 -13 -40 -13h-5q-30 0 -50 26q-13 20 -10 40zM778 1365l1 7 q3 33 39 57q19 11 36 11h3q39 0 56 -38q7 -16 5 -33q-4 -34 -35 -57q-20 -13 -40 -13h-5q-30 0 -50 26q-13 20 -10 40z" />
<glyph unicode="&#xec;" horiz-adv-x="484" d="M129 1l126 1120h93l-126 -1120l-1 -1h-91zM129 1480v1l39 78l375 -216v-1l-41 -78z" />
<glyph unicode="&#xed;" horiz-adv-x="484" d="M126 1342v1l376 216l38 -78v-1l-372 -216zM129 1l126 1120h93l-126 -1120l-1 -1h-91z" />
<glyph unicode="&#xee;" horiz-adv-x="484" d="M55 1324l264 275h72l201 -275l-78 -60h-1l-170 233q-214 -224 -224 -233q-45 41 -64 60zM129 1l126 1120h93l-126 -1120l-1 -1h-91z" />
<glyph unicode="&#xef;" horiz-adv-x="484" d="M129 1l126 1120h93l-126 -1120l-1 -1h-91zM140 1365l2 7q3 33 39 57q18 11 36 11h2q39 0 58 -38q6 -16 4 -33q-4 -34 -36 -57q-20 -13 -40 -13h-4q-30 0 -50 26q-13 20 -11 40zM376 1365l2 7q3 33 39 57q18 11 36 11h2q39 0 58 -38q6 -16 4 -33q-4 -34 -36 -57 q-20 -13 -40 -13h-4q-30 0 -50 26q-13 20 -11 40z" />
<glyph unicode="&#xf0;" horiz-adv-x="1344" />
<glyph unicode="&#xf1;" horiz-adv-x="1060" d="M93 1l124 1103l1 2h91l1 -2l-11 -103q46 50 69 62q28 17 71 33q78 25 150 25h79q123 0 216 -63q19 -14 48 -44q32 -42 44 -74q33 -83 21 -182l-85 -757l-1 -1h-91l-1 1l85 752q16 152 -78 225q-70 50 -175 50h-66q-124 0 -211 -67q-88 -75 -104 -211l-84 -749l-1 -1h-91z M448 1293l12 104q26 27 50 39q36 20 68 20q38 0 103 -37t97 -37q30 0 66 21q22 14 54 46l-12 -104q-25 -26 -51 -39q-35 -19 -68 -19q-35 0 -99.5 37t-99.5 37q-30 0 -65 -22q-24 -14 -55 -46z" />
<glyph unicode="&#xf2;" horiz-adv-x="1133" d="M116 553l1 16q16 145 98 284q25 40 62 87q24 28 70 70l19 17q88 67 172 89q58 16 110 16h12q111 0 211 -69q28 -19 64 -55q27 -29 41 -51q33 -52 48 -91q58 -141 40 -306q-20 -182 -128 -336q-29 -41 -80 -93q-55 -50 -81 -64q-121 -78 -245 -78h-6q-136 0 -246 92 q-51 48 -79 92q-26 39 -40 71q-61 149 -43 309zM210 559q-20 -179 64 -322q12 -19 46 -59l15 -15q89 -80 203 -80q130 0 249 105q43 40 66 73q99 135 118 299q18 166 -53 303q-13 24 -39 57q-33 41 -54 55q-83 63 -181 63h-3q-131 0 -253 -108q-45 -45 -67 -77 q-94 -133 -111 -290v-4zM477 1480v1l39 78l374 -216l1 -1l-41 -78z" />
<glyph unicode="&#xf3;" horiz-adv-x="1133" d="M116 553l1 16q16 145 98 284q25 40 62 87q24 28 70 70l19 17q88 67 172 89q58 16 110 16h12q111 0 211 -69q28 -19 64 -55q27 -29 41 -51q33 -52 48 -91q58 -141 40 -306q-20 -182 -128 -336q-29 -41 -80 -93q-55 -50 -81 -64q-121 -78 -245 -78h-6q-136 0 -246 92 q-51 48 -79 92q-26 39 -40 71q-61 149 -43 309zM210 559q-20 -179 64 -322q12 -19 46 -59l15 -15q89 -80 203 -80q130 0 249 105q43 40 66 73q99 135 118 299q18 166 -53 303q-13 24 -39 57q-33 41 -54 55q-83 63 -181 63h-3q-131 0 -253 -108q-45 -45 -67 -77 q-94 -133 -111 -290v-4zM477 1342l1 1l374 216l39 -78v-1l-373 -216z" />
<glyph unicode="&#xf4;" horiz-adv-x="1133" d="M116 553l1 16q16 145 98 284q25 40 62 87q24 28 70 70l19 17q88 67 172 89q58 16 110 16h12q111 0 211 -69q28 -19 64 -55q27 -29 41 -51q33 -52 48 -91q58 -141 40 -306q-20 -182 -128 -336q-29 -41 -80 -93q-55 -50 -81 -64q-121 -78 -245 -78h-6q-136 0 -246 92 q-51 48 -79 92q-26 39 -40 71q-61 149 -43 309zM210 559q-20 -179 64 -322q12 -19 46 -59l15 -15q89 -80 203 -80q130 0 249 105q43 40 66 73q99 135 118 299q18 166 -53 303q-13 24 -39 57q-33 41 -54 55q-83 63 -181 63h-3q-131 0 -253 -108q-45 -45 -67 -77 q-94 -133 -111 -290v-4zM406 1324l262 275h72l203 -275l-78 -60h-1l-171 233q-214 -224 -223 -233q-45 41 -64 60z" />
<glyph unicode="&#xf5;" horiz-adv-x="1133" d="M116 553l1 16q16 145 98 284q25 40 62 87q24 28 70 70l19 17q88 67 172 89q58 16 110 16h12q111 0 211 -69q28 -19 64 -55q27 -29 41 -51q33 -52 48 -91q58 -141 40 -306q-20 -182 -128 -336q-29 -41 -80 -93q-55 -50 -81 -64q-121 -78 -245 -78h-6q-136 0 -246 92 q-51 48 -79 92q-26 39 -40 71q-61 149 -43 309zM210 559q-20 -179 64 -322q12 -19 46 -59l15 -15q89 -80 203 -80q130 0 249 105q43 40 66 73q99 135 118 299q18 166 -53 303q-13 24 -39 57q-33 41 -54 55q-83 63 -181 63h-3q-131 0 -253 -108q-45 -45 -67 -77 q-94 -133 -111 -290v-4zM455 1293l12 104q25 27 47 39q37 20 69 20q39 0 103 -37t96 -37q31 0 66 21q24 14 56 46l-11 -104q-27 -26 -50 -39q-38 -19 -71 -19q-36 0 -99.5 37t-100.5 37q-28 0 -63 -22q-24 -14 -54 -46z" />
<glyph unicode="&#xf6;" horiz-adv-x="1133" d="M116 553l1 16q16 145 98 284q25 40 62 87q24 28 70 70l19 17q88 67 172 89q58 16 110 16h12q111 0 211 -69q28 -19 64 -55q27 -29 41 -51q33 -52 48 -91q58 -141 40 -306q-20 -182 -128 -336q-29 -41 -80 -93q-55 -50 -81 -64q-121 -78 -245 -78h-6q-136 0 -246 92 q-51 48 -79 92q-26 39 -40 71q-61 149 -43 309zM210 559q-20 -179 64 -322q12 -19 46 -59l15 -15q89 -80 203 -80q130 0 249 105q43 40 66 73q99 135 118 299q18 166 -53 303q-13 24 -39 57q-33 41 -54 55q-83 63 -181 63h-3q-131 0 -253 -108q-45 -45 -67 -77 q-94 -133 -111 -290v-4zM432 1365v7q3 33 40 57q19 11 37 11h2q39 0 57 -38q7 -16 4 -33q-3 -34 -35 -57q-21 -13 -41 -13h-5q-30 0 -49 26q-12 20 -10 40zM786 1365v7q3 33 40 57q19 11 37 11h2q39 0 57 -38q7 -16 4 -33q-3 -34 -35 -57q-21 -13 -41 -13h-5q-30 0 -49 26 q-12 20 -10 40z" />
<glyph unicode="&#xf7;" horiz-adv-x="916" d="M71 531l10 93h793l2 -1l-11 -91l-1 -1h-793zM354 242l1 8q4 39 46 67q23 12 43 12h3q46 0 67 -43q8 -19 5 -39q-3 -42 -41 -68q-24 -15 -47 -15h-6q-34 0 -58 31q-15 23 -13 47zM427 905l1 8q4 39 46 66q23 13 43 13h3q46 0 68 -44q7 -18 4 -39q-4 -41 -41 -66 q-24 -16 -47 -16h-6q-34 0 -59 31q-14 23 -12 47z" />
<glyph unicode="&#xf8;" horiz-adv-x="1133" d="M99 -66q0 2 66 97l67 96q-20 24 -33 46q-26 39 -40 71q-61 149 -43 309l1 16q16 145 98 284q25 40 62 87q24 28 70 70l19 17q88 67 172 89q58 16 110 16h12q111 0 211 -69q6 -3 10 -7l124 178l76 -46l-135 -193q18 -20 30 -38q33 -52 48 -91q58 -141 40 -306 q-20 -182 -128 -336q-29 -41 -80 -93q-55 -50 -81 -64q-121 -78 -245 -78h-6q-124 0 -225 77l-126 -179zM210 559q-20 -179 64 -322q7 -9 19 -26l230 329l288 415l14 20q-83 63 -181 63h-3q-131 0 -253 -108q-45 -45 -67 -77q-94 -133 -111 -290v-4zM355 146q82 -63 183 -63 q130 0 249 105q43 40 66 73q99 135 118 299q18 166 -53 303q-11 21 -31 47l-62 -91l-326 -466z" />
<glyph unicode="&#xf9;" horiz-adv-x="1072" d="M117 366l85 755h93l-84 -749q-21 -188 119 -253q58 -26 138 -26h56q172 0 261 116q47 67 58 159l84 753h94l-124 -1104l-1 -2h-91l-1 2l11 103q-43 -48 -72 -63q-102 -57 -224 -57h-67q-161 0 -255 92q-32 33 -41 54q-53 94 -39 220zM437 1480v1l39 78l375 -216v-1 l-42 -78z" />
<glyph unicode="&#xfa;" horiz-adv-x="1072" d="M117 366l85 755h93l-84 -749q-21 -188 119 -253q58 -26 138 -26h56q172 0 261 116q47 67 58 159l84 753h94l-124 -1104l-1 -2h-91l-1 2l11 103q-43 -48 -72 -63q-102 -57 -224 -57h-67q-161 0 -255 92q-32 33 -41 54q-53 94 -39 220zM437 1342v1l375 216l39 -78v-1 l-373 -216z" />
<glyph unicode="&#xfb;" horiz-adv-x="1072" d="M117 366l85 755h93l-84 -749q-21 -188 119 -253q58 -26 138 -26h56q172 0 261 116q47 67 58 159l84 753h94l-124 -1104l-1 -2h-91l-1 2l11 103q-43 -48 -72 -63q-102 -57 -224 -57h-67q-161 0 -255 92q-32 33 -41 54q-53 94 -39 220zM366 1324l264 275h72l201 -275 l-77 -60h-1l-171 233q-214 -224 -223 -233q-45 41 -65 60z" />
<glyph unicode="&#xfc;" horiz-adv-x="1070" d="M117 366l85 755h93l-84 -749q-21 -188 119 -253q58 -26 138 -26h56q172 0 261 116q47 67 58 159l84 753h94l-124 -1104l-1 -2h-91l-1 2l11 103q-43 -48 -72 -63q-102 -57 -224 -57h-67q-161 0 -255 92q-32 33 -41 54q-53 94 -39 220zM392 1365l1 7q3 33 39 57 q19 11 36 11h3q39 0 58 -38q6 -16 4 -33q-4 -34 -36 -57q-20 -13 -40 -13h-5q-30 0 -48 26q-15 20 -12 40zM746 1365l1 7q3 33 39 57q19 11 36 11h3q39 0 58 -38q6 -16 4 -33q-4 -34 -36 -57q-20 -13 -40 -13h-5q-30 0 -48 26q-15 20 -12 40z" />
<glyph unicode="&#xfd;" horiz-adv-x="1034" d="M91 1121h104l17 -80l135 -555l83 -347l243 516l216 466h97l2 -1l-287 -613l-249 -535l-224 -481h-99l237 510l-138 568q-6 21 -102 403zM365 1342v1l374 216l40 -78l-1 -1l-373 -216z" />
<glyph unicode="&#xfe;" horiz-adv-x="1229" d="M81 -471l247 2197l2 2h91v-2l-92 -823q23 32 60 71q45 43 65 57q136 102 281 102q154 0 270 -113q38 -41 49 -57q25 -37 43 -76q68 -151 48 -327q-22 -189 -138 -349q-24 -32 -63 -72q-45 -41 -59 -49q-133 -101 -278 -101q-170 0 -292 136q-47 59 -62 94l-78 -690l-2 -1 h-90zM290 559q-20 -183 68 -327q34 -51 79 -87q82 -62 180 -62q131 0 251 106q48 46 70 79q96 133 113 292q18 149 -39 277q-13 29 -35 65q-34 44 -60 66q-86 70 -189 70h-6q-119 0 -233 -93q-51 -46 -65 -67q-33 -39 -61 -86q-59 -111 -72 -229z" />
<glyph unicode="&#xff;" horiz-adv-x="1034" d="M91 1121h104l17 -80l135 -555l83 -347l243 516l216 466h97l2 -1l-287 -613l-249 -535l-224 -481h-99l237 510l-138 568q-6 21 -102 403zM320 1365v7q4 33 40 57q19 11 36 11h3q39 0 56 -38q8 -16 5 -33q-3 -34 -35 -57q-20 -13 -40 -13h-5q-30 0 -50 26q-13 20 -10 40z M674 1365v7q4 33 40 57q19 11 36 11h3q39 0 56 -38q8 -16 5 -33q-3 -34 -35 -57q-20 -13 -40 -13h-5q-30 0 -50 26q-13 20 -10 40z" />
<glyph unicode="&#x2c6;" horiz-adv-x="770" d="M354 1930l263 275h72l202 -275l-78 -60h-1l-171 234q-214 -224 -223 -234q-45 42 -64 60z" />
<glyph unicode="&#x2dc;" horiz-adv-x="683" d="M354 1899l12 103q25 28 48 39q37 20 69 20q37 0 102 -37t97 -37q31 0 66 21q24 15 56 46l-12 -103q-26 -26 -51 -39q-37 -19 -70 -19q-35 0 -99.5 36.5t-99.5 36.5q-30 0 -65 -21q-22 -15 -53 -46z" />
<glyph unicode="&#x2000;" horiz-adv-x="1102" />
<glyph unicode="&#x2001;" horiz-adv-x="2205" />
<glyph unicode="&#x2002;" horiz-adv-x="1102" />
<glyph unicode="&#x2003;" horiz-adv-x="2205" />
<glyph unicode="&#x2004;" horiz-adv-x="735" />
<glyph unicode="&#x2005;" horiz-adv-x="551" />
<glyph unicode="&#x2006;" horiz-adv-x="367" />
<glyph unicode="&#x2007;" horiz-adv-x="367" />
<glyph unicode="&#x2008;" horiz-adv-x="275" />
<glyph unicode="&#x2009;" horiz-adv-x="441" />
<glyph unicode="&#x200a;" horiz-adv-x="122" />
<glyph unicode="&#x2010;" horiz-adv-x="1103" d="M124 531l11 93h831l2 -1l-11 -91l-1 -1h-832z" />
<glyph unicode="&#x2011;" horiz-adv-x="1103" d="M124 531l11 93h831l2 -1l-11 -91l-1 -1h-832z" />
<glyph unicode="&#x2012;" horiz-adv-x="1103" d="M124 531l11 93h831l2 -1l-11 -91l-1 -1h-832z" />
<glyph unicode="&#x2013;" horiz-adv-x="1261" d="M112 532l11 93h1002l1 -1l-11 -91l-1 -1h-1002z" />
<glyph unicode="&#x2014;" horiz-adv-x="1615" d="M112 543l11 93h1356l1 -1l-11 -91l-1 -1h-1356z" />
<glyph unicode="&#x2018;" horiz-adv-x="456" d="M177 1657q9 86 123 178q32 25 40 29l23 -36q-77 -66 -82 -118q22 -11 32 -34q6 -15 4 -32q-4 -34 -37 -57q-20 -13 -42 -13q-34 0 -54 31q-11 20 -7 52z" />
<glyph unicode="&#x2019;" horiz-adv-x="456" d="M93 1611q78 66 84 118q-24 10 -33 34q-6 14 -5 32q5 34 39 58q19 11 40 11q35 0 55 -30q10 -20 7 -52q-10 -86 -123 -178q-31 -25 -40 -30z" />
<glyph unicode="&#x201a;" horiz-adv-x="379" d="M28 -118q78 66 84 118q-24 11 -33 34q-6 14 -5 32q5 34 39 58q19 12 40 12q35 0 55 -31q10 -20 7 -52q-10 -86 -123 -178q-31 -25 -40 -30z" />
<glyph unicode="&#x201c;" horiz-adv-x="787" d="M224 1657q10 86 123 178q32 25 40 29l24 -36q-78 -66 -83 -118q22 -11 32 -34q6 -15 5 -32q-5 -34 -38 -57q-20 -13 -41 -13q-35 0 -55 31q-10 20 -7 52zM460 1657q10 86 123 178q32 25 40 29l24 -36q-78 -66 -83 -118q22 -11 32 -34q6 -15 5 -32q-5 -34 -38 -57 q-20 -13 -41 -13q-35 0 -55 31q-10 20 -7 52z" />
<glyph unicode="&#x201d;" horiz-adv-x="787" d="M140 1611q78 66 84 118q-23 10 -33 34q-6 14 -5 32q5 34 39 58q19 11 41 11q34 0 54 -30q10 -20 7 -52q-10 -86 -123 -178q-31 -25 -40 -30zM376 1611q78 66 84 118q-23 10 -33 34q-6 14 -5 32q5 34 39 58q19 11 41 11q34 0 54 -30q10 -20 7 -52q-10 -86 -123 -178 q-31 -25 -40 -30z" />
<glyph unicode="&#x201e;" horiz-adv-x="615" d="M28 -118q78 66 84 118q-24 11 -33 34q-6 14 -5 32q5 34 39 58q19 12 40 12q35 0 55 -31q10 -20 7 -52q-10 -86 -123 -178q-31 -25 -40 -30zM264 -118q78 66 84 118q-24 11 -33 34q-6 14 -5 32q5 34 39 58q19 12 40 12q35 0 55 -31q10 -20 7 -52q-10 -86 -123 -178 q-31 -25 -40 -30z" />
<glyph unicode="&#x2022;" horiz-adv-x="1208" />
<glyph unicode="&#x2026;" horiz-adv-x="1124" d="M88 66l2 7q3 33 39 57q19 10 36 10h3q38 0 56 -37q7 -16 5 -33q-4 -35 -35 -57q-21 -13 -41 -13h-4q-30 0 -50 26q-13 20 -11 40zM442 66l2 7q3 33 39 57q19 10 36 10h3q38 0 56 -37q7 -16 5 -33q-4 -35 -35 -57q-21 -13 -41 -13h-4q-30 0 -50 26q-13 20 -11 40zM796 66 l2 7q3 33 39 57q19 10 36 10h3q38 0 56 -37q7 -16 5 -33q-4 -35 -35 -57q-21 -13 -41 -13h-4q-30 0 -50 26q-13 20 -11 40z" />
<glyph unicode="&#x202f;" horiz-adv-x="441" />
<glyph unicode="&#x2039;" horiz-adv-x="781" d="M150 463l9 87q45 28 368 225l105 66l44 -78q-12 -7 -390 -239l-29 -18l363 -256v-1q-58 -74 -61 -77z" />
<glyph unicode="&#x203a;" horiz-adv-x="781" d="M150 249v1l419 256l-24 18q-329 232 -339 239l61 78l91 -66q280 -197 318 -225l-9 -87l-473 -291q-3 3 -44 77z" />
<glyph unicode="&#x205f;" horiz-adv-x="551" />
<glyph unicode="&#x20ac;" horiz-adv-x="1433" d="M52 560l9 91l3 2h142q-2 57 3 106l3 22q3 27 9 58h-137l-1 1l10 92l1 1h151q2 0 9 23q24 65 53 117q36 66 94 137q27 33 77 82q62 56 86 70q65 47 129 78q174 82 347 82h9q172 0 325 -80q35 -19 80 -50q32 -23 74 -66l-70 -68q-44 42 -76 65q-156 106 -347 106 q-213 0 -406 -129q-33 -23 -77 -60q-59 -54 -75 -78q-40 -47 -68 -91q-27 -41 -59 -116l-8 -22h1068l-11 -94h-1084q-7 -34 -11 -65l-1 -8q-6 -56 -2 -113h1078l-10 -94h-1054q24 -99 72 -177q19 -30 57 -76q45 -48 73 -69q163 -126 374 -126q217 0 415 137q25 18 45 34 q56 -67 56 -68q-117 -95 -242 -142q-142 -54 -285 -54h-3q-224 0 -405 128q-37 26 -91 82q-52 60 -67 86q-33 52 -56 105q-23 57 -40 131q0 9 -1 9h-164z" />
<glyph unicode="&#x2122;" horiz-adv-x="2742" d="M198 1635l11 91l1 2h1069l1 -2l-10 -91h-490l-144 -1281h-92l144 1281h-490zM1244 354l154 1372l1 2h143l141 -340l227 -547l48 -114q3 3 103 159q11 19 254 399l283 440l2 3h142l2 -2l-155 -1372h-97l142 1263l-230 -359l-302 -471l-107 -169h-96q-2 0 -22 50l-199 481 l-175 417q-16 44 -21 51l-142 -1263h-96z" />
<glyph unicode="&#x25fc;" horiz-adv-x="1121" d="M0 0v1121h1121v-1121h-1121z" />
<glyph unicode="&#xfb01;" horiz-adv-x="1683" d="M18 1029l10 91l2 1h224l6 55q29 264 167 416q36 38 65 59q66 49 157 68q38 9 71 9h32v-2l-10 -91l-1 -1h-26q-134 0 -232 -113q-105 -124 -131 -353l-5 -47h544l6 55q29 264 167 416q36 38 65 59q66 49 157 68q38 9 71 9h32v-2l-10 -91l-1 -1h-26q-134 0 -232 -113 q-105 -124 -131 -353l-5 -47h336l2 -1l-11 -91l-1 -1h-336l-116 -1027l-1 -1h-91l-1 1l115 1027h-544l-115 -1027l-2 -1h-90l-2 1l116 1027h-224zM1328 1l126 1120h93l-126 -1120l-1 -1h-91zM1484 1648l2 8q3 33 36 57q24 15 43 15h8q28 0 49 -25q16 -24 13 -45l-1 -12 q-3 -27 -32 -52q-23 -18 -50 -18q-42 0 -62 38q-8 18 -6 34z" />
<glyph unicode="&#xfb02;" horiz-adv-x="1046" d="M18 1029l10 91l2 1h224l6 55q29 264 167 416q36 38 65 59q66 49 157 68q38 9 71 9h32v-2l-10 -91l-1 -1h-26q-134 0 -232 -113q-105 -124 -131 -353l-5 -47h336l1 -1l-10 -91l-1 -1h-337l-115 -1027l-2 -1h-90l-2 1l116 1027h-224zM714 1l193 1725l3 2h91v-2l-194 -1725 l-1 -1h-91z" />
</font>
</defs>
</svg>
