<?xml version="1.0" standalone="no"?>
<!DOCTYPE svg PUBLIC "-//W3C//DTD SVG 1.1//EN" "http://www.w3.org/Graphics/SVG/1.1/DTD/svg11.dtd" >
<svg xmlns="http://www.w3.org/2000/svg" xmlns:xlink="http://www.w3.org/1999/xlink" version="1.1">
<metadata></metadata>
<defs>
<font id="arvin_regularuo" horiz-adv-x="1319" >
<font-face units-per-em="2048" ascent="1638" descent="-410" />
<missing-glyph horiz-adv-x="599" />
<glyph horiz-adv-x="0" />
<glyph unicode="&#xd;" horiz-adv-x="599" />
<glyph unicode=" "  horiz-adv-x="599" />
<glyph unicode="&#x09;" horiz-adv-x="599" />
<glyph unicode="&#xa0;" horiz-adv-x="599" />
<glyph unicode="!" horiz-adv-x="775" d="M314 113v10q0 45 39 82q34 31 78 31h2q51 0 89 -41q28 -36 28 -72v-7q0 -51 -44 -89q-33 -27 -75 -27q-45 0 -82 33q-35 38 -35 80zM326 1726l1 2h210l1 -2l-24 -1342h-165z" />
<glyph unicode="&#x22;" horiz-adv-x="948" d="M188 1298v472h165v-472h-165zM506 1298v472h165v-472h-165z" />
<glyph unicode="#" horiz-adv-x="1124" d="M42 533v163l2 1h184l47 282h-170l-1 2v162l1 2h198l72 435h1l162 -27v-1l-67 -407h270l71 423q160 -27 163 -27l-66 -396h172v-166h-201l-47 -282h185l2 -1v-163l-2 -1h-212l-83 -491l-163 27l78 464h-270l-80 -480l-163 28l76 452h-157zM395 697h271l47 282h-271z" />
<glyph unicode="$" horiz-adv-x="1247" d="M114 375l150 71q20 -46 56 -92q40 -46 65 -64q47 -34 79 -46q76 -33 156 -33h9q114 0 215 64q20 13 46 39q34 41 43 67q25 56 25 111q0 111 -92 182q-26 17 -46 27q-26 12 -61 22l-152 36q-147 36 -238 80q-36 18 -81 47q-25 18 -52 46q-86 92 -86 218v16q0 101 58 202 q16 29 52 68q42 44 61 54q34 25 72 44q22 11 64 25q63 17 75 17v122l1 1h164l2 -1v-116q76 -9 135 -34q80 -31 156 -99q42 -42 54 -60q32 -41 42 -63q-109 -54 -148 -74l-16 26q-15 19 -37 42q-104 101 -245 101h-9q-115 0 -204 -58q-72 -48 -101 -133q-11 -36 -11 -71v-1 q0 -83 58 -128q38 -29 78 -46q99 -47 335 -97q62 -16 105 -36q39 -19 83 -50q17 -14 44 -41q38 -43 52 -69q53 -90 53 -199q0 -153 -101 -278q-33 -37 -54 -54q-44 -33 -75 -49q-32 -17 -81 -34q-33 -13 -92 -24l-21 -2v-117l-2 -1h-164l-1 1v119q-47 8 -81 19 q-57 19 -101 44q-40 22 -87 60q-44 40 -66 68q-51 64 -70 104q-13 25 -13 27z" />
<glyph unicode="%" horiz-adv-x="1700" d="M110 1348v15q0 98 63 189q12 16 45 50q99 83 217 83h7q116 0 213 -79q38 -37 48 -52q66 -91 66 -197q0 -135 -100 -236l-16 -18q-97 -76 -215 -76q-116 0 -210 76q-30 26 -44 45q-25 32 -38 57q-36 74 -36 143zM217 0l1081 1691h189l-1081 -1691h-189zM291 1355 q0 -69 59 -116q42 -31 88 -31q71 0 118 59q30 40 30 88v4q0 56 -43 102q-45 42 -104 42q-58 0 -104 -41q-44 -46 -44 -105v-2zM932 317v9q0 114 80 211q41 44 61 53q87 61 188 61q136 0 240 -101l12 -14q79 -96 79 -214q0 -137 -102 -238q-41 -39 -67 -51q-75 -41 -157 -41 h-9q-107 0 -201 73q-35 29 -55 54q-69 93 -69 198zM1114 322q0 -77 70 -126q36 -23 80 -23q69 0 119 62q27 41 27 80v11q0 61 -54 109q-44 33 -90 33h-8q-63 0 -110 -53q-34 -42 -34 -93z" />
<glyph unicode="&#x26;" horiz-adv-x="1410" d="M118 395v18q0 84 27 160q17 43 46 90q25 37 65 84q46 51 93 93q56 47 96 78q38 27 84 58q-58 93 -115 192q-23 40 -36 77q-17 55 -17 113q0 109 61 185q6 13 49 54q27 23 49 37q101 62 215 62q109 0 214 -61q96 -57 137 -164q20 -59 20 -123q0 -84 -37 -147 q-15 -28 -40 -60q-15 -20 -55 -60q-72 -64 -116 -91q-52 -38 -104 -67q140 -217 316 -475q43 43 119 125l118 -112l-35 -36q-40 -45 -109 -112l116 -169l-132 -93q-55 78 -105 152h-1q-78 -63 -143 -100q-184 -103 -358 -103h-17q-145 0 -250 79q-17 9 -57 51 q-66 72 -90 184q-8 44 -8 81zM280 404q0 -150 122 -216q43 -19 53 -19q26 -7 75 -7h2q206 0 417 175q-104 152 -230 343l-103 159h-1q-60 -39 -124 -92q-30 -24 -72 -64q-51 -51 -72 -80q-52 -73 -59 -119q-8 -42 -8 -78v-2zM524 1355q0 -53 24 -92q46 -83 116 -197l4 -6 q58 35 101 66q44 29 96 75q42 44 53 63q20 30 24 53q2 7 2 25v11q0 81 -58 129q-34 30 -100 45q-25 7 -51 7q-90 0 -163 -64q-27 -29 -32 -41q-16 -25 -16 -70v-4z" />
<glyph unicode="'" horiz-adv-x="509" d="M152 1298v472h165v-472h-165z" />
<glyph unicode="(" horiz-adv-x="779" d="M157 355v875q0 174 66 316q19 39 48 79q15 20 51 55q59 55 122 78q74 29 150 29h7v-165l-2 -1q-133 0 -210 -117q-67 -109 -67 -284v-855q0 -217 102 -327q72 -73 177 -73v-164l-2 -2h-3q-129 0 -237 76q-24 16 -57 49q-40 45 -59 78q-24 40 -39 81q-47 126 -47 272z" />
<glyph unicode=")" horiz-adv-x="779" d="M179 -35q105 0 177 73q102 110 102 327v855q0 175 -67 284q-77 117 -210 117l-2 1v165h7q76 0 150 -29q63 -23 122 -78q36 -35 51 -55q29 -40 48 -79q66 -142 66 -316v-875q0 -146 -47 -272q-16 -41 -39 -81q-19 -33 -59 -78q-33 -33 -57 -49q-108 -76 -237 -76h-3l-2 2 v164z" />
<glyph unicode="*" horiz-adv-x="1209" d="M186 1424l55 155h1l276 -98v294h164l1 -1v-293l276 99q55 -152 56 -156v-1l-277 -99l171 -234l-133 -98h-1l-174 238l-175 -238h-1l-132 98l171 234q-6 2 -278 100z" />
<glyph unicode="+" horiz-adv-x="979" d="M83 496v165h336v336h165v-336h336v-165h-336v-337h-165v337h-336z" />
<glyph unicode="," horiz-adv-x="582" d="M98 -197q119 111 119 197q-42 18 -61 58q-14 23 -14 53q0 58 53 97q29 20 67 20q58 0 96 -52q21 -33 21 -86q0 -145 -173 -299q-47 -42 -61 -49z" />
<glyph unicode="-" horiz-adv-x="1018" d="M90 496v165h833v-165h-833z" />
<glyph unicode="." horiz-adv-x="592" d="M178 113v10q0 45 39 82q34 31 78 31h2q51 0 89 -41q28 -36 28 -72v-7q0 -51 -43 -89q-34 -27 -76 -27q-45 0 -81 33q-36 38 -36 80z" />
<glyph unicode="/" horiz-adv-x="797" d="M1 -59l604 1679l3 1h163v-1l-605 -1679h-165z" />
<glyph unicode="0" d="M124 552v463q0 153 65 298q27 58 69 116q15 18 54 58q140 130 316 130h65q181 0 325 -141q49 -51 72 -90q105 -164 105 -391v-423q0 -266 -141 -443q-12 -17 -55 -57q-50 -45 -87 -65q-105 -58 -212 -58h-82q-104 0 -209 57q-158 91 -237 283q-48 129 -48 263zM289 560 q0 -134 53 -247h1l195 394l257 520l49 97q22 45 29 61q-58 46 -125 61q-26 5 -65 5h-47q-77 0 -133 -29q-114 -59 -173 -196q-41 -103 -41 -223v-443zM458 171h1q78 -57 168 -57h67q124 0 222 109q58 67 81 142q33 92 33 190v457q0 117 -46 222l-197 -397l-251 -509z" />
<glyph unicode="1" horiz-adv-x="774" d="M177 1429v162l1 1h339l1 -1v-1602l-1 -1h-162l-1 1v1439h-176z" />
<glyph unicode="2" horiz-adv-x="1176" d="M116 1127v5q0 76 33 184q23 65 54 114q19 30 51 65q128 136 336 136q238 0 375 -195q43 -60 67 -140q28 -81 28 -167q0 -125 -58 -225l-293 -338l-311 -358l-52 -62h665v-165h-875l-1 1v174q0 2 11 14l296 342l283 325l141 165q28 58 28 128q0 116 -69 218 q-85 116 -230 116h-10q-203 0 -276 -191q-12 -33 -22 -89q-6 -38 -6 -57h-165z" />
<glyph unicode="3" horiz-adv-x="1241" d="M107 399v7l2 1h162l2 -1v-1q0 -112 75 -207q31 -34 48 -47q95 -73 209 -73h2q118 0 213 77q38 33 51 51q69 93 69 201q0 113 -74 207q-31 35 -52 50q-30 23 -54 36q-74 36 -149 36h-120l-1 2v162l1 2h147q42 3 72 14q38 13 72 36q18 12 46 40q33 42 44 68q28 57 28 124 q0 105 -72 190q-34 34 -46 40q-73 52 -159 52h-3q-96 0 -175 -65q-102 -89 -102 -223v-4l-1 -1h-164v13q0 142 86 264q14 20 52 59q33 30 58 46q116 76 247 76q163 0 292 -110q40 -37 52 -54q37 -47 51 -78q50 -98 50 -203v-5q0 -158 -105 -288q-38 -42 -63 -61 q-14 -11 -17 -12q23 -14 67 -52q36 -36 55 -60q103 -137 103 -301q0 -172 -112 -314q-18 -20 -52 -52q-46 -40 -78 -58q-122 -70 -250 -70h-16q-115 0 -230 59q-40 22 -86 59q-46 42 -65 66q-27 35 -42 61q-18 30 -38 79q-30 85 -30 162z" />
<glyph unicode="4" horiz-adv-x="1192" d="M28 263l253 447l283 501l186 330l35 60h174l2 -1v-1172h131v-164l-2 -1h-129v-272l-2 -2h-163l-1 2v272h-767zM312 428h483v856l-236 -417z" />
<glyph unicode="5" horiz-adv-x="1352" d="M96 262l149 67q19 -40 48 -80q16 -21 48 -53q45 -41 81 -61q101 -57 208 -57h8q131 0 248 82q20 15 57 51l23 27q29 38 43 66q49 96 49 196q0 156 -103 279q-28 30 -48 47q-122 100 -273 100q-121 0 -230 -67l-149 -85l119 469l92 357v1h637l1 -1v-164h-509l-13 -51 l-79 -308h1q65 15 131 15q184 0 341 -110q28 -19 74 -63q46 -48 67 -80q107 -155 107 -337q0 -187 -111 -345q-21 -30 -63 -72q-49 -47 -81 -68q-57 -38 -101 -56q-114 -48 -224 -48h-22q-103 0 -215 45q-48 20 -98 51q-33 21 -85 68q-49 52 -64 74q-30 40 -47 74 q-15 28 -17 37z" />
<glyph unicode="6" horiz-adv-x="1362" d="M113 480v18q0 125 62 251q15 30 114 200l305 522l90 156l143 -82l-289 -498q72 19 142 19h8q166 0 315 -98q34 -23 77 -63q40 -40 61 -70q33 -47 50 -80q63 -128 63 -258v-16q0 -142 -74 -279q-21 -38 -58 -83q-15 -20 -55 -59q-81 -71 -173 -107q-101 -40 -211 -40 q-185 0 -342 114q-26 20 -67 60q-50 56 -72 92q-34 56 -54 112q-35 97 -35 189zM278 486q0 -132 83 -245q14 -20 50 -56q121 -107 272 -107q150 0 270 104q42 41 50 54q86 113 86 253q0 165 -118 290q-33 33 -54 47q-106 74 -233 74q-149 0 -269 -104q-36 -34 -47 -49 q-90 -116 -90 -256v-5z" />
<glyph unicode="7" horiz-adv-x="1108" d="M63 1437v163l1 1h981l2 -1v-154l-199 -373l-270 -511l-245 -465l-71 -135h-1q-5 1 -145 77l295 559l221 419q2 0 179 336q40 75 42 83h-789z" />
<glyph unicode="8" horiz-adv-x="1277" d="M117 415v18q0 119 65 237q69 122 189 190q-18 13 -56 52q-32 39 -49 69q-61 103 -61 220q0 155 102 280q45 48 61 59q28 22 51 34q103 60 217 60h6q130 0 244 -78q24 -15 63 -53q45 -48 60 -78q62 -105 62 -223q0 -153 -99 -278q-39 -43 -61 -59l-4 -5q28 -14 70 -48 q44 -38 68 -69q115 -142 115 -318q0 -184 -124 -332q-44 -46 -58 -55q-51 -40 -86 -59q-121 -64 -244 -64h-19q-113 0 -229 55q-41 22 -87 56q-24 19 -52 46q-55 60 -79 107q-17 27 -30 61q-35 90 -35 175zM282 424q0 -115 74 -209q31 -37 57 -57q101 -77 222 -77h6 q131 0 237 89q36 35 45 47q72 95 72 208q0 125 -90 226q-38 39 -58 51q-95 66 -207 66h-2q-133 0 -239 -90q-40 -38 -47 -51q-25 -30 -42 -68q-28 -65 -28 -134v-1zM371 1201q0 -107 79 -190q81 -78 188 -78q114 0 196 85q72 82 72 180v6q0 98 -72 179q-84 86 -196 86 q-106 0 -188 -78q-79 -82 -79 -190z" />
<glyph unicode="9" horiz-adv-x="1357" d="M109 1047v20q0 125 61 252q22 44 60 93q19 25 47 54q53 50 79 66q44 30 88 50q114 51 226 51h18q130 0 257 -66q43 -22 90 -59q54 -46 88 -88q43 -56 61 -92q22 -41 41 -102q25 -84 25 -160v-17q0 -149 -82 -290l-171 -294l-296 -510l-12 -19q-138 81 -141 84l260 448 l18 30v1h-1q-73 -19 -147 -19q-185 0 -342 116q-26 19 -60 52q-54 58 -75 94q-28 43 -44 83q-48 112 -48 222zM274 1054q0 -141 92 -259q32 -37 66 -65q113 -85 246 -85q146 0 264 98q33 30 46 46q96 120 96 267v1q0 149 -98 268q-31 37 -55 54q-113 89 -251 89h-3 q-142 0 -260 -98q-39 -37 -50 -51q-93 -118 -93 -261v-4z" />
<glyph unicode=":" horiz-adv-x="634" d="M221 113v10q0 45 39 82q34 31 77 31h3q51 0 88 -41q29 -36 29 -72v-7q0 -51 -44 -89q-33 -27 -76 -27q-44 0 -81 33q-35 38 -35 80zM221 998v10q0 46 39 84q35 29 79 29q50 0 88 -40q30 -36 30 -73v-9q0 -46 -39 -83q-36 -31 -79 -31h-2q-60 0 -99 54q-17 32 -17 59z" />
<glyph unicode=";" horiz-adv-x="599" d="M140 -197q120 111 120 197q-43 18 -62 58q-14 23 -14 53q0 58 53 97q30 20 67 20q58 0 96 -52q21 -33 21 -86q0 -145 -172 -299q-47 -42 -61 -49zM185 998v10q0 46 39 84q36 29 79 29q51 0 89 -40q29 -36 29 -73v-9q0 -46 -39 -83q-35 -31 -79 -31h-1q-60 0 -99 54 q-18 32 -18 59z" />
<glyph unicode="&#x3c;" horiz-adv-x="1085" d="M137 539v143q6 6 289 236l327 268l105 -129l-412 -335l-136 -112l136 -110l412 -337l-105 -128l-404 330z" />
<glyph unicode="=" horiz-adv-x="990" d="M111 317v166h767v-166h-767zM111 671v166h767v-166h-767z" />
<glyph unicode="&#x3e;" horiz-adv-x="1085" d="M228 163l412 337l135 110l-135 112l-412 335l105 129l327 -268q283 -230 289 -236v-143l-213 -174l-403 -330z" />
<glyph unicode="?" horiz-adv-x="1209" d="M157 1237v49q0 119 61 239q16 27 46 68q13 19 51 55q45 41 80 61q111 65 225 65h16q117 0 230 -68q31 -17 77 -59q51 -52 65 -76q29 -41 50 -91q41 -101 41 -194v-15q0 -103 -52 -217q-22 -44 -56 -90q-15 -22 -54 -61q-45 -43 -102 -82q-43 -32 -86 -69q-50 -46 -50 -99 l1 -149v-141l-1 -1h-164l-2 187v100q0 127 99 221q51 46 111 88q46 33 79 64q42 42 50 60q20 30 35 65q26 68 26 130v1q0 126 -83 226q-37 39 -50 47q-79 57 -171 57h-2q-108 0 -197 -79q-37 -36 -48 -55q-60 -90 -60 -195v-42l-1 -2h-163zM499 118q0 58 49 96q31 22 68 22 h1q61 0 100 -55q18 -31 18 -61v-4q0 -51 -44 -89q-33 -27 -75 -27q-50 0 -86 38q-31 35 -31 80z" />
<glyph unicode="@" horiz-adv-x="2385" d="M189 670v25q0 199 77 395q33 82 88 168q33 52 83 111q28 32 70 72q63 58 108 88q66 46 140 83q62 32 151 62q170 54 335 54h24q177 0 360 -71q62 -26 120 -58q59 -33 132 -90q35 -27 72 -63q59 -63 82 -93q48 -62 74 -107q129 -225 129 -480v-8q0 -188 -60 -332 q-23 -53 -62 -112q-62 -92 -156 -155q-113 -72 -225 -72h-7q-113 0 -210 73q-65 51 -93 142q-40 -39 -77 -59q-103 -59 -203 -59h-13q-104 0 -202 61q-24 15 -62 50q-42 44 -53 63q-94 135 -94 308q0 155 78 296q18 29 53 75q38 44 65 65q125 102 267 102q130 0 238 -84 q18 -13 46 -43q42 -43 57 -72l6 -10q16 43 33 85l155 -60q-55 -136 -97 -285q-27 -99 -27 -115q-11 -41 -17 -87q-6 -50 -6 -85v-11q0 -78 27 -123q10 -15 33 -32q48 -29 101 -29q92 0 189 86q36 36 47 53q60 82 85 183q20 86 20 186q0 242 -136 445q-22 35 -66 85 q-32 35 -71 70q-62 51 -105 76q-205 125 -435 125h-6q-224 0 -425 -99q-45 -22 -96 -56q-42 -26 -106 -83q-52 -51 -65 -67q-49 -60 -73 -99q-44 -70 -75 -153q-57 -153 -57 -318v-9q0 -285 152 -520q30 -41 73 -92q50 -53 70 -68q55 -49 93 -72q222 -142 495 -142 q234 0 420 98q75 -140 78 -145q-52 -28 -128 -57q-48 -17 -123 -35q-121 -26 -223 -26h-49q-120 0 -268 38q-111 31 -186 70q-71 35 -153 94q-37 26 -95 80q-64 62 -85 92q-60 74 -95 138q-34 58 -55 113q-24 51 -52 156q-34 139 -34 270zM881 666q0 -121 67 -216 q49 -68 125 -92q31 -10 62 -10q89 0 169 70q38 35 45 49q20 26 32 49q17 32 31 73q8 19 17 69q5 25 5 64q0 121 -66 215q-12 15 -39 44q-68 56 -144 56h-7q-84 0 -164 -68q-37 -34 -46 -50q-24 -29 -43 -67q-44 -92 -44 -186z" />
<glyph unicode="A" horiz-adv-x="1367" d="M41 1l190 585l171 523l187 574q9 30 14 45h170q1 0 25 -71l171 -527l172 -529l192 -592l3 -9h-177q-1 0 -19 55l-148 455h-611l-147 -455l-19 -55h-173zM434 675h504l-188 577l-63 197h-1l-121 -375z" />
<glyph unicode="B" horiz-adv-x="1305" d="M203 1v1725l1 2h502q120 0 236 -61q34 -19 74 -50q38 -33 53 -53q44 -57 58 -98q31 -69 31 -169v-20q0 -109 -39 -191q-13 -30 -37 -65q-18 -29 -59 -70q-18 -16 -39 -33v-1q31 -15 64 -43q40 -35 64 -63q88 -117 88 -263v-83q0 -161 -103 -289q-10 -16 -50 -53 q-37 -31 -63 -46q-125 -77 -272 -77h-508zM368 165h333q179 0 277 128q57 76 57 180v67q0 179 -168 252q-74 28 -148 28h-351v-655zM368 985h336q80 0 159 49q77 52 111 133q18 47 18 94v52q0 92 -67 162q-33 31 -54 41q-78 46 -171 46h-332v-577z" />
<glyph unicode="C" horiz-adv-x="1288" d="M114 546v633q0 172 65 314q22 42 56 89q15 22 53 58q68 59 149 86q72 24 140 24h170q104 0 203 -50q142 -75 210 -242q51 -127 51 -292h-164l-2 1q0 222 -106 336q-80 82 -200 82h-155q-130 0 -213 -97q-91 -116 -91 -319v-613q0 -181 73 -293q12 -19 35 -42 q38 -37 64 -48q57 -31 146 -31h128q81 0 134 24q96 43 147 162q38 99 38 230v1h165q1 0 1 -1q0 -252 -118 -409q-13 -20 -51 -58l-14 -12q-123 -103 -290 -103h-149q-205 0 -339 149q-36 45 -53 74q-20 36 -33 69q-50 128 -50 278z" />
<glyph unicode="D" horiz-adv-x="1362" d="M203 1v1725l1 2h621q102 0 198 -55q123 -73 183 -227q47 -128 47 -273v-620q0 -157 -53 -289q-16 -37 -44 -81q-17 -27 -50 -64q-44 -42 -76 -61q-36 -21 -75 -36q-68 -22 -127 -22h-624zM368 165h453q105 0 178 83q45 56 68 139q21 81 21 173v605q0 168 -64 278 q-75 119 -206 119h-450v-1397z" />
<glyph unicode="E" horiz-adv-x="1190" d="M203 1v1725l1 2h858l1 -2v-162l-1 -2h-694v-616h555l1 -1v-163l-1 -1h-555v-616h694l1 -1v-163l-1 -1h-858z" />
<glyph unicode="F" horiz-adv-x="1119" d="M203 1v1725l1 2h857l1 -2v-162l-1 -2h-693v-616h583l1 -1v-163l-1 -1h-583v-780l-1 -1h-163z" />
<glyph unicode="G" horiz-adv-x="1359" d="M107 546v632q0 179 71 322q20 40 54 85q45 52 75 72q35 27 73 46q100 47 202 47h174q121 0 232 -63q135 -80 200 -252q44 -122 44 -269h-165l-1 1v4q0 166 -65 276q-53 86 -147 120q-50 18 -105 18h-160q-134 0 -220 -95q-96 -114 -96 -322v-613q0 -199 90 -313 q88 -100 227 -100h158q118 0 201 73q30 30 42 49q75 111 75 291v89h-290v164h456v-213q0 -127 -13 -190q-13 -65 -27 -106q-54 -149 -161 -231q-43 -31 -75 -46q-98 -46 -200 -46h-173q-115 0 -221 56q-141 80 -206 244q-49 125 -49 270z" />
<glyph unicode="H" horiz-adv-x="1552" d="M203 1v1725l1 2h163l1 -2v-780h817v780l1 2h163l1 -2v-1725l-1 -1h-163l-1 1v780h-817v-780l-1 -1h-163z" />
<glyph unicode="I" horiz-adv-x="571" d="M203 1v1725l1 2h163l1 -2v-1725l-1 -1h-163z" />
<glyph unicode="J" horiz-adv-x="1205" d="M8 485v92l1 1h159l1 -1v-86q0 -115 75 -216q31 -38 60 -59q76 -56 151 -56h103q89 0 172 71q37 37 45 51q71 96 71 218v1226l1 2h158l2 -2v-1234q0 -142 -78 -271q-23 -38 -65 -83q-39 -40 -57 -51q-20 -16 -48 -33q-32 -16 -59 -27q-73 -27 -135 -27h-117q-73 0 -159 38 q-163 79 -239 253q-42 100 -42 194z" />
<glyph unicode="K" horiz-adv-x="1309" d="M203 1v1725l1 2h163l1 -2v-829l280 371l315 422l29 38h207v-2l-306 -406l-236 -316l269 -453l262 -440l65 -110l-1 -1h-190l-263 440l-250 421l-181 -241v-619l-1 -1h-163z" />
<glyph unicode="L" horiz-adv-x="1129" d="M203 1v1725l1 2h163l1 -2v-1561h740v-165h-904z" />
<glyph unicode="M" horiz-adv-x="1879" d="M203 1v1725l1 2h216l14 -41l189 -527l182 -512l134 -378l186 518l185 519l150 421h216l1 -2v-1725l-1 -1h-172l-1 1v1355l-159 -445l-186 -523l-138 -388h-159q-2 1 -15 41l-176 492l-204 570l-90 253v-1355l-1 -1h-171z" />
<glyph unicode="N" horiz-adv-x="1561" d="M203 1v1725l1 2h203q1 -2 52 -96l170 -312l269 -493q197 -359 199 -364q2 0 88 -160v1425h173v-1727l-1 -1h-194q-1 0 -30 53l-253 461l-251 462l-251 461h-2v-1436l-1 -1h-171z" />
<glyph unicode="O" d="M117 546v632q0 181 71 325q21 40 52 83q14 18 51 54q41 34 69 50q106 60 221 60h168q115 0 221 -60q134 -80 196 -242q47 -123 47 -283v-606q0 -308 -170 -468q-66 -60 -144 -89q-78 -26 -149 -26h-169q-107 0 -207 52q-142 76 -208 241q-49 129 -49 277zM282 555 q0 -170 66 -281q53 -85 143 -117q47 -15 97 -15h153q137 0 220 102q20 26 30 46q17 31 33 84q24 79 24 199v576q0 163 -44 258q-15 35 -41 72q-40 49 -83 72q-63 34 -138 34h-154q-144 0 -229 -117q-77 -113 -77 -300v-613z" />
<glyph unicode="P" horiz-adv-x="1266" d="M203 1v1725l1 2h486q125 0 248 -63q41 -22 86 -60q40 -36 59 -59q59 -75 86 -158q25 -79 25 -149v-55q0 -116 -59 -238q-20 -40 -54 -85q-15 -21 -52 -56q-151 -142 -352 -142h-309v-662l-1 -1h-163zM368 828h299q85 0 142 26q123 53 185 180q35 78 35 157v42 q0 113 -72 205q-34 39 -54 52q-97 72 -220 72h-315v-734z" />
<glyph unicode="Q" horiz-adv-x="1484" d="M282 546v632q0 180 71 325q21 40 52 82q14 19 50 54q54 46 102 68q92 43 189 43h168q115 0 221 -60q135 -80 196 -242q47 -123 47 -283v-606q0 -293 -154 -454q-48 -45 -79 -64l-2 -1q16 -22 44 -53q40 -37 67 -51q26 -15 55 -26q3 -1 3 -2v-169l-1 -1h-1q-16 0 -73 20 q-79 32 -154 99q-39 39 -47 50q-32 39 -48 69q0 2 -3 6q-35 -7 -108 -7h-93q-93 0 -136 12q-73 18 -128 51q-131 79 -193 242q-45 125 -45 266zM447 555q0 -170 66 -281q53 -85 143 -117q47 -15 97 -15h154q153 0 236 127q24 38 37 77q33 86 33 227v576q0 163 -44 258 q-15 35 -41 72q-40 49 -83 72q-63 34 -138 34h-154q-145 0 -230 -118q-76 -114 -76 -299v-613z" />
<glyph unicode="R" horiz-adv-x="1261" d="M203 2v1724l1 2h485q123 0 243 -59q45 -24 92 -65q47 -42 59 -59q39 -51 57 -87q21 -42 33 -84q21 -65 21 -160v-6q0 -125 -41 -219q-73 -177 -240 -267l212 -520l80 -201v-1h-189q-2 2 -51 127q-2 6 -157 405l-53 137q-38 -6 -78 -6h-309v-661l-1 -1h-163zM368 828h299 q86 0 142 28q123 51 183 178q36 78 36 157v42q0 113 -72 205q-34 41 -53 52q-97 72 -221 72h-314v-734z" />
<glyph unicode="S" horiz-adv-x="1227" d="M84 356q4 3 152 64q25 -58 59 -106q13 -20 52 -60q48 -46 83 -63q88 -49 186 -49h6q114 0 215 67q22 14 53 46q47 54 67 121q17 55 17 105v4q0 124 -84 210q-44 38 -70 48q-16 11 -49 22q-24 8 -122 31q-196 51 -299 107q-227 120 -227 355v9q0 149 88 279q14 21 52 61 q44 41 74 59q50 33 111 54q90 29 173 29h19q120 0 238 -63q36 -21 80 -55q20 -17 52 -49q45 -52 64 -83q16 -25 26 -48v-1l-150 -68q-15 35 -61 87q-109 115 -258 115h-2q-145 0 -242 -88q-35 -35 -48 -56q-51 -82 -51 -177q0 -102 60 -157q45 -43 106 -70q106 -51 338 -105 q60 -17 101 -39q51 -25 103 -71q41 -40 53 -58q21 -28 33 -51q57 -107 57 -220v-3l1 -5l-1 -5v-3q0 -124 -65 -246q-84 -150 -254 -217q-99 -37 -192 -37h-20q-117 0 -239 58q-39 20 -83 53q-67 51 -118 119q-38 54 -63 103q-21 45 -21 47z" />
<glyph unicode="T" horiz-adv-x="1126" d="M18 1564v162l1 2h1089l1 -2v-162l-1 -2h-461v-1561l-2 -1h-162l-2 1v1561h-462z" />
<glyph unicode="U" horiz-adv-x="1496" d="M201 570v1156l1 2h163l1 -2v-1148q0 -212 100 -327q82 -86 205 -86h154q137 0 219 103q20 26 31 46q18 31 33 84q24 79 24 199v1129l1 2h163l1 -2v-1143q0 -294 -156 -456q-45 -42 -67 -54q-40 -27 -77 -41q-83 -32 -165 -32h-168q-119 0 -229 64q-127 78 -190 240 q-44 124 -44 266z" />
<glyph unicode="V" horiz-adv-x="1314" d="M40 1728h179q3 0 11 -31q154 -499 164 -535l159 -526l104 -339h1l147 484l160 528l128 419h180l1 -2l-188 -610l-195 -627l-152 -489h-163q-3 1 -17 47q-100 325 -137 446l-162 527l-193 618z" />
<glyph unicode="W" horiz-adv-x="1991" d="M72 1728h177q1 0 11 -44l103 -471l123 -555l64 -290q1 0 9 26l148 532l153 548l71 254h126q3 0 12 -36l152 -544l148 -526l69 -254h2l153 694l131 588l18 78h176q1 0 1 -2l-118 -521l-129 -565l-123 -546l-22 -94h-156q-1 1 -10 37l-151 538l-149 529l-65 236l-188 -671 l-161 -575l-26 -94h-157q-1 0 -7 32q-18 74 -96 421l-113 497l-129 565z" />
<glyph unicode="X" horiz-adv-x="1325" d="M57 1726v2h196q1 0 16 -31q1 0 216 -398l177 -327l206 383l202 373h196l1 -2q-7 -9 -180 -325q-189 -343 -190 -347l-124 -223q16 -29 217 -393q208 -374 210 -380q30 -52 32 -58h-196q-2 2 -26 47l-250 463l-98 180q-6 -10 -175 -323l-199 -367h-196q0 2 143 260 l242 439l73 133l-248 449z" />
<glyph unicode="Y" horiz-adv-x="1276" d="M35 1728h196q1 0 17 -31q1 0 216 -398l177 -325l206 382l202 372h196l1 -2q-18 -29 -177 -321q-9 -16 -212 -385q-129 -233 -134 -244v-775l-1 -1h-163l-1 1v775q0 3 -100 183l-277 504z" />
<glyph unicode="Z" horiz-adv-x="1124" d="M70 1l271 570l241 508l231 483h-630l-1 2v162l1 2h890l1 -2l-302 -634l-266 -559l-174 -368h689l1 -1v-163l-1 -1h-950z" />
<glyph unicode="[" horiz-adv-x="872" d="M224 -199v1986l1 1h386l1 -1v-165l-1 -1h-220v-1655h220l1 -1v-164l-1 -2h-386z" />
<glyph unicode="\" horiz-adv-x="797" d="M1 1620l1 1h163l1 -1l605 -1679h-166z" />
<glyph unicode="]" horiz-adv-x="872" d="M260 -35l1 1h220v1655h-220l-1 1v165l1 1h386l1 -1v-1986l-1 -2h-386l-1 2v164z" />
<glyph unicode="^" horiz-adv-x="1097" d="M80 1007v1l293 475l105 169h142l49 -78l250 -407l98 -159v-3l-139 -85h-1q-160 258 -204 332q-3 2 -124 201l-259 -421l-69 -113z" />
<glyph unicode="_" horiz-adv-x="1286" d="M83 -24h1121v-165h-1121v165z" />
<glyph unicode="`" horiz-adv-x="1046" d="M286 2131l86 139l389 -239l-87 -141z" />
<glyph unicode="a" horiz-adv-x="1211" d="M109 313v16q0 165 165 256q160 83 452 83l80 -1v135q0 51 -34 97q-47 58 -158 58q-98 0 -240 -47q-45 -18 -131 -60l-35 -17q-62 128 -71 149q129 65 183 85q165 54 295 54q206 0 304 -144q21 -34 34 -72q10 -25 15 -59q1 -11 3 -41v-524q0 -62 19 -162q12 -48 25 -77 q0 -2 20 -42h-182q-1 0 -12 38q-9 30 -17 71q-55 -38 -117 -67q-125 -53 -236 -53h-12q-114 0 -210 58q-22 16 -53 45q-37 40 -56 81q-31 69 -31 140zM274 321q0 -115 106 -152q40 -14 86 -14q137 0 286 105q30 22 54 43v197l-81 3q-213 0 -344 -50q-45 -19 -77 -49 q-21 -23 -26 -43q-4 -16 -4 -38v-2z" />
<glyph unicode="b" horiz-adv-x="1328" d="M181 1v1725l1 2h163l1 -2v-778q12 18 54 63l21 19q36 28 63 44q102 56 217 56q159 0 298 -106q22 -16 44 -38q44 -44 59 -68q33 -46 56 -92q59 -129 59 -257v-18q0 -133 -63 -264q-21 -44 -57 -91q-15 -24 -62 -71q-71 -64 -144 -94q-92 -42 -190 -42h-1q-114 0 -214 55 q-32 17 -78 57q-45 43 -55 59l-7 12v-171l-1 -1h-163zM346 560q0 -182 126 -312q103 -93 227 -93q122 0 224 92q36 37 52 60q76 114 76 253q0 156 -98 280q-34 38 -55 53q-91 72 -199 72q-134 0 -240 -107q-38 -46 -55 -77q-23 -39 -37 -80q-21 -76 -21 -125v-16z" />
<glyph unicode="c" horiz-adv-x="1133" d="M106 550v18q0 138 66 271q20 41 52 83q13 21 57 66q54 49 85 66q120 76 258 76q180 0 327 -127q41 -40 58 -61q31 -38 45 -63l-141 -86l-11 16q-16 25 -48 57q-46 43 -69 53q-76 46 -161 46q-121 0 -223 -92q-43 -43 -54 -64q-24 -34 -39 -70q-37 -86 -37 -177v-5 q0 -133 76 -247q13 -21 41 -52q105 -103 236 -103q135 0 241 108q25 27 51 66q139 -84 140 -85q-20 -35 -55 -78q-48 -50 -63 -61q-34 -27 -61 -45q-121 -71 -250 -71h-5q-175 0 -321 124q-51 49 -59 62q-28 34 -51 70q-28 49 -45 95q-40 107 -40 210z" />
<glyph unicode="d" horiz-adv-x="1328" d="M113 551v18q0 128 59 257q23 46 56 92q15 24 59 68q22 22 43 38q140 106 299 106q114 0 217 -56q27 -16 63 -44l21 -19q42 -45 54 -63v778l1 2h163l1 -2v-1725l-1 -1h-163l-1 1v171l-7 -12q-11 -16 -55 -59q-46 -40 -78 -57q-101 -55 -214 -55h-1q-98 0 -190 42 q-73 30 -144 94q-47 47 -63 71q-35 47 -56 91q-63 131 -63 264zM278 560q0 -139 77 -253q16 -23 52 -60q102 -92 224 -92q124 0 227 93q126 130 126 312v16q0 49 -21 125q-14 41 -37 80q-17 31 -55 77q-106 107 -240 107q-108 0 -199 -72q-21 -15 -56 -53q-98 -124 -98 -280 z" />
<glyph unicode="e" horiz-adv-x="1167" d="M79 560v19q0 134 63 267q23 47 64 99q12 17 55 59q35 32 63 52q30 20 55 32q106 52 212 52h11q137 0 264 -82q30 -20 72 -59q48 -48 64 -73q27 -36 47 -75q31 -59 61 -171l11 -45q-51 -17 -548 -169l-285 -90v-1q14 -28 36 -61q15 -23 49 -56q101 -93 224 -93 q126 0 229 98q40 41 58 72l2 4l141 -86v-2q-19 -33 -49 -69q-48 -51 -74 -71q-59 -45 -97 -63q-100 -48 -206 -48h-5q-161 0 -300 105q-21 17 -60 55q-41 48 -66 85q-19 32 -35 67q-56 125 -56 248zM244 569q0 -23 3 -49l547 171l128 39q-15 33 -31 64q-17 28 -45 64 q-108 117 -249 117q-110 0 -203 -73q-16 -13 -46 -44q-27 -33 -40 -56q-64 -106 -64 -230v-3z" />
<glyph unicode="f" horiz-adv-x="665" d="M32 957v163l1 1h201v22q0 262 118 424q13 19 46 51q40 38 69 54q32 19 66 31q68 25 131 25h35l1 -2v-162l-1 -2h-26q-148 0 -223 -152q-51 -107 -51 -281v-8h300l1 -1v-163l-1 -1h-300v-955l-1 -1h-163l-1 1v955h-201z" />
<glyph unicode="g" horiz-adv-x="1275" d="M113 -127q0 95 77 199q29 35 58 55l7 6q-59 57 -59 147v3q0 82 52 151q2 3 2 5q-26 28 -46 60q-60 100 -60 213q0 153 109 274q40 42 53 50q36 27 76 47q98 46 201 46q143 0 263 -81q26 28 40 38q43 28 79 35q31 8 59 8h37l1 -1v-163l-1 -1h-30q-36 0 -56 -21 q-10 -12 -10 -21q20 -31 38 -81q21 -65 21 -129q0 -160 -115 -284q-49 -46 -72 -59q-35 -23 -79 -42q-84 -33 -170 -33h-7q-101 0 -197 45q-23 -27 -23 -58q0 -28 18 -36q47 -33 217 -33l82 2q231 0 357 -108q33 -32 46 -49q58 -84 58 -179q0 -94 -62 -185q-14 -22 -54 -61 q-42 -38 -68 -53q-33 -21 -72 -38q-50 -20 -95 -32q-81 -18 -143 -18h-40q-103 0 -216 37q-55 21 -99 47q-30 19 -66 50q-32 32 -46 51q-65 90 -65 184v13zM278 -133v-3q0 -75 83 -138q104 -69 264 -69q147 0 252 68q19 12 46 40q51 57 51 112v4q0 54 -47 99q-35 32 -93 50 q-73 18 -140 18h-112q-89 0 -157 11q-30 -18 -76 -59q-71 -73 -71 -133zM309 706q0 -75 54 -146q29 -31 44 -42q79 -59 178 -59q108 0 191 72q83 78 83 181q0 95 -74 172q-39 36 -83 55q-58 25 -116 25h-5q-78 0 -150 -42q-22 -12 -55 -45q-34 -38 -47 -71q-20 -46 -20 -90 v-10z" />
<glyph unicode="h" horiz-adv-x="1261" d="M181 4v1720l3 4h159l4 -4v-668h2q105 66 262 66h42q318 0 413 -254q21 -67 21 -133v-731l-5 -4h-158l-5 4v734q0 139 -121 193q-57 25 -131 25h-71q-188 0 -238 -149q-11 -35 -11 -74v-729l-4 -4h-159z" />
<glyph unicode="i" horiz-adv-x="549" d="M157 1605v9q0 45 38 83q36 31 75 31h10q43 0 82 -38q31 -37 31 -77v-6q0 -51 -43 -88q-34 -27 -72 -27h-7q-52 0 -89 46q-25 33 -25 67zM192 1v1119l2 1h162l2 -1v-1119l-2 -1h-162z" />
<glyph unicode="j" horiz-adv-x="581" d="M-51 -346l1 1q121 0 195 104q26 40 46 96q31 99 31 215v1050l1 1h164l1 -1v-1024q0 -179 -41 -294q-21 -62 -46 -102q-18 -35 -60 -82q-33 -36 -46 -43q-107 -84 -246 -84v163zM188 1605v9q0 45 37 83q37 31 76 31h9q44 0 83 -38q31 -37 31 -77v-6q0 -51 -43 -88 q-34 -27 -72 -27h-7q-52 0 -90 46q-24 33 -24 67z" />
<glyph unicode="k" horiz-adv-x="1079" d="M181 1v1725l1 2h163l1 -2v-1725l-1 -1h-163zM414 601v1l372 490q22 29 23 30h207l1 -1q-7 -8 -252 -332l-147 -192l314 -452l102 -145h-202q-4 5 -222 319z" />
<glyph unicode="l" horiz-adv-x="525" d="M181 1v1725l1 2h163l1 -2v-1725l-1 -1h-163z" />
<glyph unicode="m" horiz-adv-x="2000" d="M181 4v1097l3 3h159l4 -3v-84q103 104 274 104h30q233 0 354 -140q115 140 352 140h33q323 0 415 -255q20 -65 20 -132v-730l-3 -4h-158l-5 4v737q0 156 -162 203q-46 11 -93 11h-61q-188 0 -243 -138q-12 -48 -12 -84v-729l-5 -4h-158l-3 4v713q0 182 -157 225 q-48 13 -99 13h-64q-183 0 -239 -133q-16 -43 -16 -110v-708l-4 -4h-159z" />
<glyph unicode="n" horiz-adv-x="1260" d="M181 4v1097l3 3h157l4 -3v-81h2q107 101 254 101h65q283 0 391 -230q29 -79 29 -177v-710l-5 -4h-158l-4 4v722q0 178 -169 220q-42 9 -76 9h-84q-170 0 -229 -133q-16 -44 -16 -113v-705l-4 -4h-157z" />
<glyph unicode="o" horiz-adv-x="1248" d="M106 550v18q0 138 66 271q20 41 52 83q13 21 57 66q54 49 85 66q120 76 258 76q170 0 312 -114q47 -40 75 -77q26 -33 43 -59q17 -29 33 -62q55 -125 55 -249v-17q0 -146 -72 -285q-25 -44 -67 -97q-41 -46 -67 -66q-142 -115 -309 -115h-5q-172 0 -318 122 q-42 39 -60 61q-54 68 -76 117q-16 30 -35 87q-27 92 -27 174zM271 557q0 -144 87 -263q14 -19 47 -51q99 -88 219 -88q123 0 224 92q37 37 52 60q77 114 77 252v1q0 150 -90 270q-14 18 -47 49q-98 86 -216 86q-121 0 -223 -92q-43 -43 -54 -64q-24 -34 -39 -70 q-37 -86 -37 -177v-5z" />
<glyph unicode="p" horiz-adv-x="1328" d="M181 -507v1611l1 2h164v-158q15 22 41 49q38 39 61 54q112 79 253 79q149 0 280 -92q21 -15 60 -48q43 -46 58 -67q27 -36 47 -73q71 -138 71 -281v-16q0 -145 -71 -283q-25 -46 -64 -95q-41 -49 -73 -72q-142 -114 -309 -114q-125 0 -234 66q-26 17 -59 49 q-31 27 -45 46l-16 22v-681h-164zM346 560q0 -173 117 -302q39 -36 56 -46q83 -56 175 -56h10q82 0 162 47q26 15 69 57q40 42 55 73q61 104 61 226v1q0 150 -88 270q-14 17 -46 48q-99 86 -217 86h-1q-134 0 -238 -106q-57 -64 -87 -137q-28 -84 -28 -145v-16z" />
<glyph unicode="q" horiz-adv-x="1328" d="M113 553v16q0 143 71 281q20 37 47 73q14 21 58 67q39 33 60 48q131 92 280 92q140 0 252 -79q24 -15 62 -54q26 -27 41 -49v158h164l1 -2v-1611l-1 -2h-164v681l-16 -22q-15 -19 -45 -46q-33 -32 -59 -49q-109 -66 -234 -66q-167 0 -309 114q-32 23 -73 72 q-39 49 -64 95q-71 138 -71 283zM278 559q0 -122 62 -226q15 -31 55 -73q43 -42 69 -57q80 -47 161 -47h11q92 0 175 56q17 10 56 46q117 129 117 302v16q0 61 -28 145q-30 73 -88 137q-103 106 -237 106h-1q-118 0 -217 -86q-32 -31 -46 -48q-89 -120 -89 -270v-1z" />
<glyph unicode="r" horiz-adv-x="933" d="M181 1v1103l1 2h163l1 -2v-94q23 46 63 73q62 37 141 38h82q89 0 175 -54q28 -18 64 -53q21 -24 21 -25l-132 -106h-1q-25 43 -84 66q-26 7 -48 7h-71q-91 0 -154 -93q-56 -94 -56 -236v-626l-1 -1h-163z" />
<glyph unicode="s" horiz-adv-x="1065" d="M96 232q1 3 68 39l76 42q54 -95 158 -136q65 -24 137 -24q103 0 186 49q17 8 42 33q39 46 39 97q0 77 -98 123q-23 11 -68 22q-189 33 -296 72q-218 80 -218 258v4q0 107 81 198q39 39 54 47q52 38 123 59q78 24 155 24h16q120 0 229 -58q35 -18 76 -51q36 -32 57 -59 q18 -23 18 -27q-107 -61 -142 -84h-1q-21 32 -63 62q-77 52 -183 52q-124 0 -202 -62q-53 -47 -53 -104q0 -42 34 -65q13 -11 37 -22q51 -27 177 -57q59 -11 149 -29q58 -14 97 -33q36 -17 72 -44q11 -7 44 -41q71 -84 71 -182v-7q0 -105 -77 -198q-31 -33 -48 -46 q-38 -27 -69 -43q-113 -53 -232 -53h-16q-131 0 -251 64q-116 66 -179 180z" />
<glyph unicode="t" horiz-adv-x="803" d="M39 956v164l1 1h185v607h164l2 -2v-605h304l1 -1v-164l-1 -1h-304v-648q0 -49 24 -90q25 -33 68 -46q19 -6 33 -6h7q43 0 122 31l15 7q60 -132 67 -151q-17 -10 -67 -27q-83 -25 -130 -25h-20q-63 0 -132 37q-94 50 -130 147q-23 61 -23 133v638h-185z" />
<glyph unicode="u" horiz-adv-x="1260" d="M175 387v734h165v-727q0 -154 128 -208q58 -21 128 -21h65q127 0 199 70q56 59 56 154v732h165v-1104l-1 -2h-164v88q-27 -49 -83 -75q-77 -28 -165 -28h-80q-136 0 -245 66q-26 14 -63 50q-37 39 -52 67q-53 93 -53 204z" />
<glyph unicode="v" horiz-adv-x="1149" d="M40 1121h185q4 -6 22 -53l195 -504l131 -336q2 0 39 96l214 549l97 248h186l-226 -568l-188 -474l-32 -79h-177q-1 0 -22 55l-201 504l-211 530z" />
<glyph unicode="w" horiz-adv-x="1587" d="M63 1121h179q2 0 8 -25q4 -8 144 -487l95 -323h1l139 488l88 303h154q1 -2 9 -33l150 -522l67 -236h2l177 603l69 232h181l-162 -533l-173 -574q-4 -14 -5 -14h-177q-1 0 -13 44l-149 515l-53 187l-154 -537l-59 -209h-179q-2 0 -10 30l-162 536l-165 546z" />
<glyph unicode="x" horiz-adv-x="1175" d="M48 1l288 405l131 183v1l-345 485l-34 46h211q15 -21 212 -306l75 -106l267 383q19 27 21 29h209l-316 -444l-63 -88l288 -405l131 -183v-1h-209q-3 4 -82 117q-23 33 -246 353l-232 -333l-93 -133l-4 -4h-207z" />
<glyph unicode="y" horiz-adv-x="1132" d="M40 1121h185q2 0 22 -54l171 -451l147 -387h1l203 524q7 14 122 311l23 57h176l2 -1l-199 -506l-219 -564l-204 -524l-15 -35h-175l-2 2q196 500 199 508v1l-202 516l-187 479z" />
<glyph unicode="z" horiz-adv-x="1053" d="M105 1l268 453l241 410l54 92h-498v165h787l-255 -432l-269 -457l-39 -67h528l1 -1v-163l-1 -1h-816z" />
<glyph unicode="{" horiz-adv-x="795" d="M184 725v105q0 1 51 26q13 5 29 24q18 24 18 44v540q0 127 53 202q27 39 70 67q74 49 157 49h16v-165h-13q-52 0 -87 -37q-31 -38 -31 -100v-548q0 -87 -53 -156q53 -67 53 -154v-546q0 -97 64 -127q27 -12 54 -12h13v-165h-18q-77 0 -153 45q-18 12 -46 39 q-32 35 -47 68q-32 63 -32 167v539q0 24 -22 50q-12 13 -54 33q-22 10 -22 12z" />
<glyph unicode="|" horiz-adv-x="519" d="M177 1v1651h165v-1651h-165z" />
<glyph unicode="}" horiz-adv-x="795" d="M217 -63h13q27 0 54 12q64 30 64 127v546q0 87 53 154q-53 69 -53 156v548q0 62 -31 100q-35 37 -87 37h-13v165h17q82 0 157 -49q42 -28 69 -67q53 -75 53 -202v-540q0 -20 18 -44q17 -19 29 -24q51 -25 51 -26v-105q0 -2 -22 -12q-41 -20 -53 -33q-23 -26 -23 -50v-539 q0 -104 -32 -167q-15 -33 -47 -68q-28 -27 -46 -39q-75 -45 -153 -45h-18v165z" />
<glyph unicode="~" horiz-adv-x="831" d="M72 486v182q37 41 72 60q55 31 106 31q62 0 172 -58.5t162 -58.5q48 0 102 33q35 22 79 74v-181q-37 -41 -72 -61q-56 -29 -109 -29q-57 0 -167 57t-167 57q-47 0 -100 -33q-36 -22 -78 -73z" />
<glyph unicode="&#xa1;" horiz-adv-x="775" d="M225 1605v7q0 51 44 88q33 28 76 28q44 0 81 -34q35 -37 35 -80v-9q0 -45 -39 -83q-34 -30 -77 -30h-3q-51 0 -88 41q-29 35 -29 72zM237 1l24 1343h165l24 -1343l-2 -1h-210z" />
<glyph unicode="&#xa2;" horiz-adv-x="1091" d="M106 815v18q0 128 62 254q21 41 55 88q18 24 54 60q52 46 90 68q77 42 139 54v140l1 2h164l2 -2v-135q37 -7 65 -16q89 -27 172 -95q45 -43 59 -62q28 -34 45 -61v-1l-141 -86q-16 27 -53 66q-41 40 -67 53q-24 14 -57 26q-10 3 -23 7v-738q29 9 52 19q27 11 68 42 q40 35 55 56l25 36l141 -86v-2q-19 -31 -53 -72q-43 -46 -61 -57q-53 -43 -87 -58q-24 -13 -64 -27q-26 -10 -73 -18l-3 -1v-136l-2 -1h-164l-1 1v140q-9 0 -67 21q-159 62 -254 215q-25 46 -40 85q-39 103 -39 203zM271 822q0 -146 94 -260q27 -31 42 -43q50 -40 99 -56 v723q-36 -13 -75 -39q-18 -12 -49 -41q-39 -42 -55 -74q-56 -96 -56 -206v-4z" />
<glyph unicode="&#xa3;" horiz-adv-x="1433" d="M63 170q68 59 120 107q99 94 132 132q176 194 176 329v7l-1 17h-269l-2 1v163l2 1h211q-33 67 -51 114q-36 102 -36 189v15q0 113 61 209q13 21 51 60q151 133 329 133q141 0 269 -81q25 -17 58 -47l3 -4v-1l-117 -116q-46 43 -95 60q-60 24 -117 24q-114 0 -216 -88 q-61 -59 -61 -155v-2q0 -97 61 -216q27 -57 43 -94h387l1 -1v-163l-1 -1h-346l1 -1v-21q0 -192 -196 -417h12q160 0 271 -109q94 -78 182 -78q124 0 270 154h2l119 -114q-193 -206 -393 -206q-151 0 -294 124q-41 38 -66 46q-40 18 -90 18q-118 0 -276 -95l-32 -22z" />
<glyph unicode="&#xa4;" horiz-adv-x="1580" d="M74 304l143 149q-51 71 -69 117q-69 144 -69 304q0 210 119 393l26 38l-150 157q118 114 120 114l146 -152q45 37 78 56q174 106 374 106q230 0 423 -139l29 -23l146 151v1h1l118 -114l-151 -157q49 -65 76 -123q70 -148 70 -308q0 -214 -121 -398l-17 -23 q37 -38 143 -149l-118 -114l-138 142q-71 -59 -139 -95q-156 -75 -314 -75h-18q-160 0 -317 78q-41 22 -92 57l-44 35l-135 -142zM245 867q0 -155 92 -298q22 -31 54 -67q49 -50 69 -63q52 -40 106 -64q108 -48 226 -48q193 0 350 126q52 47 72 74q26 32 43 58 q81 136 81 282v12q0 155 -90 295q-21 33 -63 79q-49 47 -72 63q-43 32 -97 56q-110 49 -225 49q-177 0 -327 -110q-24 -17 -64 -57q-44 -46 -65 -80q-21 -33 -34 -59q-56 -117 -56 -235v-13z" />
<glyph unicode="&#xa5;" horiz-adv-x="1381" d="M74 1488l125 107q10 -9 273 -321l221 -260l238 282l254 299l126 -107l-337 -399l-199 -233v-78h399v-164l-1 -2h-398v-81h398l1 -1v-163l-1 -1h-398v-364h-165v364h-398l-1 1v163l1 1h398v81h-398l-1 2v164h399v76l-357 423z" />
<glyph unicode="&#xa6;" horiz-adv-x="637" d="M236 177h165v-767h-165v767zM236 1003v767h165v-767h-165z" />
<glyph unicode="&#xa7;" horiz-adv-x="1034" d="M139 853v15q0 87 52 175q15 26 45 59q35 34 60 51q-141 91 -141 245q0 123 88 217q48 46 86 63q91 47 201 47q167 0 284 -125q45 -52 60 -88q-147 -72 -149 -72q-10 22 -31 46q-66 74 -165 74q-75 0 -136 -35q-72 -49 -72 -126v-1q0 -61 52 -96q31 -25 105 -52 q65 -23 151 -42q116 -34 190 -119q32 -41 47 -69q38 -80 38 -152v-16q0 -91 -57 -183q-42 -62 -100 -101q27 -18 59 -48q81 -82 81 -192v-13q0 -87 -54 -169q-12 -19 -45 -52q-60 -53 -132 -76t-132 -23h-19q-103 0 -198 58q-95 64 -139 157l149 71q10 -21 30 -45 q66 -74 164 -74h6q73 0 133 35q72 47 72 124v1q0 59 -48 93q-18 15 -34 23q-48 27 -133 52q-37 10 -89 21q-49 14 -78 31q-34 15 -85 59q-36 34 -49 54q-67 95 -67 198zM304 859q0 -85 76 -149q65 -47 138 -47h6q87 0 156 63q59 59 59 133v2q0 78 -65 138q-66 58 -154 58 q-87 0 -154 -60q-62 -60 -62 -136v-2z" />
<glyph unicode="&#xa8;" horiz-adv-x="1208" d="M286 2031v9q0 46 38 84q36 30 80 30q50 0 88 -41q30 -35 30 -73v-8q0 -46 -39 -84q-36 -30 -79 -30h-2q-60 0 -99 54q-17 32 -17 59zM687 2031v9q0 46 39 84q35 30 79 30q51 0 88 -41q30 -35 30 -73v-8q0 -46 -39 -84q-36 -30 -79 -30h-1q-61 0 -100 54q-17 32 -17 59z " />
<glyph unicode="&#xa9;" horiz-adv-x="2257" d="M206 793v25q0 174 75 354q32 69 81 148q31 44 79 100q62 66 88 84q66 57 120 89q224 135 479 135q286 0 528 -166q44 -29 103 -85q62 -59 75 -76q45 -55 69 -94q148 -233 148 -502q0 -263 -142 -492q-30 -51 -86 -116q-58 -62 -95 -94q-59 -49 -101 -76 q-233 -145 -499 -145q-268 0 -503 149q-49 33 -112 87q-66 63 -80 80q-62 77 -91 124q-35 56 -62 120q-74 176 -74 351zM369 801q0 -231 136 -432q26 -36 68 -82q48 -49 68 -64q52 -42 101 -73q182 -104 384 -104h6q219 0 411 124q30 16 70 51q20 14 77 69l21 29 q46 54 73 102q104 181 104 383q0 239 -143 443q-26 37 -78 92q-63 62 -106 89q-199 136 -433 136q-236 0 -439 -140q-33 -22 -94 -81q-57 -57 -79 -91q-30 -42 -53 -85q-94 -171 -94 -361v-5zM654 794v18q0 138 66 271q20 42 52 83q13 21 56 66q55 49 85 66q121 77 259 77 q179 0 327 -128q41 -40 57 -61q31 -38 45 -63l-140 -86l-12 17q-15 25 -47 56q-46 43 -70 53q-75 47 -160 47q-122 0 -223 -93q-44 -43 -55 -63q-23 -34 -38 -71q-37 -86 -37 -177v-5q0 -133 75 -246q13 -22 42 -52q105 -104 236 -104q134 0 240 108q25 28 51 66 q139 -83 141 -84q-20 -36 -56 -78q-47 -51 -62 -62q-35 -27 -62 -45q-120 -70 -250 -70h-5q-174 0 -321 124q-50 48 -59 61q-28 34 -50 71q-29 48 -45 94q-40 107 -40 210z" />
<glyph unicode="&#xaa;" horiz-adv-x="764" />
<glyph unicode="&#xab;" horiz-adv-x="1466" d="M138 457v126l328 215l131 86q91 -136 91 -138l-345 -227q331 -216 345 -226l-90 -137q-2 0 -52 33l-263 172zM712 457v126l328 215l131 86q90 -136 90 -138l-344 -227q330 -216 344 -226l-89 -137q-3 0 -52 33l-263 172z" />
<glyph unicode="&#xac;" horiz-adv-x="1180" d="M177 791v165h826v-543h-165v378h-661z" />
<glyph unicode="&#xad;" horiz-adv-x="1018" d="M90 496v165h833v-165h-833z" />
<glyph unicode="&#xae;" horiz-adv-x="1432" d="M206 1211v14q0 95 42 196q18 37 45 81q16 25 43 56q35 36 49 46q36 31 66 49q124 75 265 75q158 0 292 -91q24 -17 58 -48q34 -33 41 -42q25 -31 38 -52q81 -129 81 -277q0 -147 -78 -273q-16 -28 -47 -64q-32 -35 -53 -53q-33 -26 -56 -41q-129 -80 -276 -80 q-148 0 -278 82q-27 18 -62 49q-36 34 -44 43q-35 43 -50 69q-20 31 -35 67q-41 97 -41 194zM269 1215q0 -136 80 -254q16 -22 40 -49q29 -28 41 -38q30 -24 59 -42q107 -61 226 -61h4q128 0 242 73q17 9 41 29q12 8 45 41l13 17q27 32 42 60q61 106 61 226q0 140 -83 260 q-16 23 -46 55q-38 36 -63 52q-117 80 -255 80q-139 0 -258 -82q-20 -14 -56 -48q-33 -33 -47 -53q-16 -26 -31 -51q-55 -100 -55 -212v-3zM546 885v663h187q47 0 93 -23q18 -9 35 -24q18 -17 23 -24q15 -19 22 -33q8 -15 12 -32q8 -24 8 -61v-2q0 -50 -16 -88 q-6 -15 -17 -31q-35 -52 -91 -76l104 -212l27 -58h-73q-1 1 -8 18q-5 10 -57 119l-55 119l-11 -1h-120v-254h-63zM614 1202h115q32 0 55 11q47 20 70 68q13 30 13 61v16q0 44 -27 79q-13 16 -21 20q-37 27 -84 27h-121v-282z" />
<glyph unicode="&#xaf;" horiz-adv-x="790" />
<glyph unicode="&#xb0;" horiz-adv-x="1033" d="M117 1339v14q0 96 60 187q38 53 92 91q89 55 181 55h14q92 0 179 -54q25 -17 61 -51q92 -101 92 -236q0 -141 -107 -249q-103 -89 -231 -89q-138 0 -242 100q-43 42 -54 68q-45 83 -45 164zM299 1345q0 -78 68 -128q42 -29 91 -29q74 0 126 62q31 46 31 95q0 78 -66 131 q-43 28 -91 28h-3q-70 0 -122 -61q-34 -45 -34 -95v-3z" />
<glyph unicode="&#xb1;" horiz-adv-x="1017" d="M90 0h837v-165h-837v165zM90 496v165h336v336h165v-336h336v-165h-336v-337h-165v337h-336z" />
<glyph unicode="&#xb2;" horiz-adv-x="1196" />
<glyph unicode="&#xb3;" horiz-adv-x="1196" />
<glyph unicode="&#xb4;" horiz-adv-x="1046" d="M286 2031l389 239l86 -139l-388 -241z" />
<glyph unicode="&#xb5;" horiz-adv-x="1286" d="M189 -471v1592h165v-727q0 -154 129 -208q57 -21 127 -21h65q127 0 199 70q56 59 56 154v732h165v-1104l-1 -2h-164v88q-27 -49 -83 -75q-76 -28 -165 -28h-80q-136 0 -244 66l-4 2v-539l-1 -1h-163z" />
<glyph unicode="&#xb6;" horiz-adv-x="1322" d="M126 1187q0 185 127 298.5t337 113.5h523v-165h-82v-1316h-165v1316h-196v-1316h-165v664q-159 23 -258 116q-121 111 -121 289z" />
<glyph unicode="&#xb7;" horiz-adv-x="807" d="M286 939v10q0 45 38 82q35 31 78 31h3q50 0 88 -41q29 -36 29 -72v-7q0 -51 -44 -89q-33 -27 -76 -27q-44 0 -81 33q-35 38 -35 80z" />
<glyph unicode="&#xb8;" horiz-adv-x="903" d="M289 -312l97 71h1q25 -32 53 -32q25 0 43 20q10 15 10 29q0 15 -8 25t-25 15q-20 3 -49 -8l-82 -29v2l44 219h125l-15 -70q19 -2 35 -8q50 -18 76 -64q21 -41 21 -82q0 -71 -57 -124q-53 -46 -118 -46q-82 0 -141 71q-10 9 -10 11z" />
<glyph unicode="&#xb9;" horiz-adv-x="1196" />
<glyph unicode="&#xba;" horiz-adv-x="847" />
<glyph unicode="&#xbb;" horiz-adv-x="1466" d="M205 293q14 10 345 226l-345 227q0 2 91 138l131 -86l328 -215v-126l-145 -96l-263 -172q-50 -33 -52 -33zM779 293q14 10 344 226l-344 227q0 2 91 138l131 -86l328 -215v-126l-145 -96l-264 -172q-49 -33 -52 -33z" />
<glyph unicode="&#xbc;" horiz-adv-x="2015" />
<glyph unicode="&#xbd;" horiz-adv-x="2317" />
<glyph unicode="&#xbe;" horiz-adv-x="2015" />
<glyph unicode="&#xbf;" horiz-adv-x="1209" d="M111 487v16q0 102 52 217q21 43 55 89q16 23 55 62q44 42 101 81q44 32 86 70q51 46 51 99l-1 149v140l1 1h164l1 -186v-100q0 -128 -99 -221q-51 -46 -111 -89q-46 -33 -79 -63q-41 -43 -50 -61q-20 -29 -35 -64q-26 -69 -26 -130v-1q0 -127 84 -227q36 -39 49 -46 q80 -58 172 -58h2q107 0 197 79q37 37 47 56q60 89 60 194v43l2 1h162l2 -1v-50q0 -119 -62 -238q-15 -27 -46 -68q-13 -19 -51 -56q-44 -40 -80 -60q-111 -65 -224 -65h-17q-116 0 -230 67q-30 18 -76 59q-51 52 -65 77q-30 40 -51 91q-40 100 -40 193zM474 1653v5 q0 51 44 88q33 28 76 28q49 0 86 -38q30 -36 30 -80q0 -58 -48 -96q-32 -22 -68 -22h-2q-61 0 -100 55q-18 31 -18 60z" />
<glyph unicode="&#xc0;" horiz-adv-x="1367" d="M41 1l190 585l171 523l187 574q9 30 14 45h170q1 0 25 -71l171 -527l172 -529l192 -592l3 -9h-177q-1 0 -19 55l-148 455h-611l-147 -455l-19 -55h-173zM434 675h504l-188 577l-63 197h-1l-121 -375zM450 2131l86 139l389 -239l-87 -141z" />
<glyph unicode="&#xc1;" horiz-adv-x="1367" d="M41 1l190 585l171 523l187 574q9 30 14 45h170q1 0 25 -71l171 -527l172 -529l192 -592l3 -9h-177q-1 0 -19 55l-148 455h-611l-147 -455l-19 -55h-173zM434 675h504l-188 577l-63 197h-1l-121 -375zM450 2031l389 239l86 -139l-388 -241z" />
<glyph unicode="&#xc2;" horiz-adv-x="1367" d="M41 1l190 585l171 523l187 574q9 30 14 45h170q1 0 25 -71l171 -527l172 -529l192 -592l3 -9h-177q-1 0 -19 55l-148 455h-611l-147 -455l-19 -55h-173zM392 1997v1l243 286h105q3 -2 121 -142l122 -145l-125 -107q-4 3 -58 69q-110 128 -112 132l-170 -201h-1zM434 675 h504l-188 577l-63 197h-1l-121 -375z" />
<glyph unicode="&#xc3;" horiz-adv-x="1362" d="M41 1l190 585l171 523l187 574q9 30 14 45h170q1 0 25 -71l171 -527l172 -529l192 -592l3 -9h-177q-1 0 -19 55l-148 455h-611l-147 -455l-19 -55h-173zM342 1922v182q37 41 72 60q56 31 106 31q62 0 171.5 -58.5t162.5 -58.5q49 0 102 33q35 22 79 74v-181 q-37 -40 -72 -61q-56 -29 -109 -29q-58 0 -167.5 57t-166.5 57q-47 0 -100 -33q-35 -22 -78 -73zM434 675h504l-188 577l-63 197h-1l-121 -375z" />
<glyph unicode="&#xc4;" horiz-adv-x="1362" d="M41 1l190 585l171 523l187 574q9 30 14 45h170q1 0 25 -71l171 -527l172 -529l192 -592l3 -9h-177q-1 0 -19 55l-148 455h-611l-147 -455l-19 -55h-173zM369 2043v9q0 46 39 84q36 29 79 29q51 0 89 -40q29 -35 29 -73v-8q0 -46 -39 -84q-35 -31 -79 -31h-1q-60 0 -99 55 q-18 31 -18 59zM434 675h504l-188 577l-63 197h-1l-121 -375zM771 2043v9q0 46 38 84q36 29 80 29q50 0 88 -40q30 -35 30 -73v-8q0 -46 -39 -84q-36 -31 -79 -31h-2q-60 0 -99 55q-17 31 -17 59z" />
<glyph unicode="&#xc5;" horiz-adv-x="1362" d="M41 1l190 585l171 523l187 574q9 29 14 43q-20 11 -39 25q-16 15 -24 26q-15 19 -23 33q-20 43 -20 82v10q0 56 36 108q7 10 26 29q58 48 127 48h2q67 0 124 -46q21 -21 27 -29q39 -53 39 -115q0 -76 -57 -135l-10 -11q-18 -14 -38 -23q2 -4 25 -71l171 -527l172 -529 l192 -592l3 -9h-177q-1 0 -19 55l-148 455h-611l-147 -455l-19 -55h-173zM434 675h504l-188 577l-63 197h-1l-121 -375zM616 1897q0 -33 28 -56q20 -16 43 -16q34 0 58 29q14 21 14 43v3q0 27 -20 48q-23 21 -52 21t-50 -20q-21 -22 -21 -50v-2z" />
<glyph unicode="&#xc6;" horiz-adv-x="2003" d="M41 0l273 471l254 435l298 515l174 298l4 9h832v-166h-664v-616h530l1 -1v-164h-531v-616h664v-165h-836v510h-530q-3 -4 -30 -51l-252 -433l-16 -26h-171zM605 675h435v747l-207 -355z" />
<glyph unicode="&#xc7;" horiz-adv-x="1288" d="M114 546v633q0 172 65 314q22 42 56 89q15 22 53 58q68 59 149 86q72 24 140 24h170q104 0 203 -50q142 -75 210 -242q51 -127 51 -292h-164l-2 1q0 222 -106 336q-80 82 -200 82h-155q-130 0 -213 -97q-91 -116 -91 -319v-613q0 -181 73 -293q12 -19 35 -42 q38 -37 64 -48q57 -31 146 -31h128q81 0 134 24q96 43 147 162q38 99 38 230v1h165q1 0 1 -1q0 -252 -118 -409q-13 -20 -51 -58l-14 -12q-123 -103 -290 -103h-34l-10 -46q19 -2 35 -8q50 -18 76 -64q21 -41 21 -82q0 -71 -57 -124q-53 -46 -118 -46q-82 0 -141 71 q-10 9 -10 11l97 71h1q25 -32 53 -32q25 0 43 20q10 15 10 29q0 15 -8 25t-25 15q-18 2 -49 -8l-82 -29v2l39 195q-199 4 -329 149q-36 45 -53 74q-20 36 -33 69q-50 128 -50 278z" />
<glyph unicode="&#xc8;" horiz-adv-x="1190" d="M203 1v1725l1 2h858l1 -2v-162l-1 -2h-694v-616h555l1 -1v-163l-1 -1h-555v-616h694l1 -1v-163l-1 -1h-858zM395 2131l86 139l390 -239l-87 -141z" />
<glyph unicode="&#xc9;" horiz-adv-x="1190" d="M203 1v1725l1 2h858l1 -2v-162l-1 -2h-694v-616h555l1 -1v-163l-1 -1h-555v-616h694l1 -1v-163l-1 -1h-858zM395 2031l390 239l86 -139l-388 -241z" />
<glyph unicode="&#xca;" horiz-adv-x="1190" d="M203 1v1725l1 2h858l1 -2v-162l-1 -2h-694v-616h555l1 -1v-163l-1 -1h-555v-616h694l1 -1v-163l-1 -1h-858zM337 1997v1l244 286h105q3 -2 121 -142l122 -145l-125 -107q-4 3 -58 69q-110 128 -112 132l-170 -201h-1z" />
<glyph unicode="&#xcb;" horiz-adv-x="1190" d="M203 1v1725l1 2h858l1 -2v-162l-1 -2h-694v-616h555l1 -1v-163l-1 -1h-555v-616h694l1 -1v-163l-1 -1h-858zM315 2043v9q0 46 39 84q35 29 79 29q51 0 89 -40q29 -35 29 -73v-8q0 -46 -39 -84q-35 -31 -79 -31h-1q-60 0 -99 55q-18 31 -18 59zM716 2043v9q0 46 39 84 q36 29 79 29q51 0 89 -40q29 -35 29 -73v-8q0 -46 -39 -84q-35 -31 -79 -31h-1q-60 0 -99 55q-18 31 -18 59z" />
<glyph unicode="&#xcc;" horiz-adv-x="571" d="M67 2107l86 140l351 -216l-87 -141zM203 1v1725l1 2h163l1 -2v-1725l-1 -1h-163z" />
<glyph unicode="&#xcd;" horiz-adv-x="571" d="M67 2031l351 216l86 -140l-349 -217zM203 1v1725l1 2h163l1 -2v-1725l-1 -1h-163z" />
<glyph unicode="&#xce;" horiz-adv-x="571" d="M-11 1997v1l243 286h105q4 -2 122 -142l122 -145l-126 -107q-3 3 -57 69q-110 128 -112 132l-170 -201h-2zM203 1v1725l1 2h163l1 -2v-1725l-1 -1h-163z" />
<glyph unicode="&#xcf;" horiz-adv-x="571" d="M-33 2043v9q0 46 39 84q35 29 79 29q51 0 88 -40q30 -35 30 -73v-8q0 -46 -39 -84q-35 -31 -79 -31h-1q-60 0 -99 55q-18 31 -18 59zM203 1v1725l1 2h163l1 -2v-1725l-1 -1h-163zM368 2043v9q0 46 39 84q35 29 79 29q51 0 89 -40q29 -35 29 -73v-8q0 -46 -39 -84 q-35 -31 -79 -31h-1q-60 0 -99 55q-18 31 -18 59z" />
<glyph unicode="&#xd0;" horiz-adv-x="1364" d="M70 781v165h133v780l1 2h621q102 0 198 -55q123 -73 183 -227q47 -128 47 -273v-620q0 -157 -53 -289q-16 -37 -44 -81q-17 -27 -50 -64q-44 -42 -76 -61q-36 -21 -75 -36q-68 -22 -127 -22h-624l-1 1v780h-133zM368 165h453q105 0 178 83q45 56 68 139q21 81 21 173v605 q0 168 -64 278q-75 119 -206 119h-450v-616h134v-165h-134v-616z" />
<glyph unicode="&#xd1;" horiz-adv-x="1561" d="M203 1v1725l1 2h203q1 -2 52 -96l170 -312l269 -493q197 -359 199 -364q2 0 88 -160v1425h173v-1727l-1 -1h-194q-1 0 -30 53l-253 461l-251 462l-251 461h-2v-1436l-1 -1h-171zM434 1922v182q37 41 72 60q56 31 106 31q62 0 171.5 -58.5t162.5 -58.5q49 0 102 33 q35 22 79 74v-181q-37 -40 -72 -61q-56 -29 -109 -29q-57 0 -167 57t-167 57q-47 0 -100 -33q-35 -22 -78 -73z" />
<glyph unicode="&#xd2;" d="M117 546v632q0 181 71 325q21 40 52 83q14 18 51 54q41 34 69 50q106 60 221 60h168q115 0 221 -60q134 -80 196 -242q47 -123 47 -283v-606q0 -308 -170 -468q-66 -60 -144 -89q-78 -26 -149 -26h-169q-107 0 -207 52q-142 76 -208 241q-49 129 -49 277zM282 555 q0 -170 66 -281q53 -85 143 -117q47 -15 97 -15h153q137 0 220 102q20 26 30 46q17 31 33 84q24 79 24 199v576q0 163 -44 258q-15 35 -41 72q-40 49 -83 72q-63 34 -138 34h-154q-144 0 -229 -117q-77 -113 -77 -300v-613zM427 2131l86 139l390 -239l-88 -141z" />
<glyph unicode="&#xd3;" d="M117 546v632q0 181 71 325q21 40 52 83q14 18 51 54q41 34 69 50q106 60 221 60h168q115 0 221 -60q134 -80 196 -242q47 -123 47 -283v-606q0 -308 -170 -468q-66 -60 -144 -89q-78 -26 -149 -26h-169q-107 0 -207 52q-142 76 -208 241q-49 129 -49 277zM282 555 q0 -170 66 -281q53 -85 143 -117q47 -15 97 -15h153q137 0 220 102q20 26 30 46q17 31 33 84q24 79 24 199v576q0 163 -44 258q-15 35 -41 72q-40 49 -83 72q-63 34 -138 34h-154q-144 0 -229 -117q-77 -113 -77 -300v-613zM427 2031l390 239l86 -139l-389 -241z" />
<glyph unicode="&#xd4;" d="M117 546v632q0 181 71 325q21 40 52 83q14 18 51 54q41 34 69 50q106 60 221 60h168q115 0 221 -60q134 -80 196 -242q47 -123 47 -283v-606q0 -308 -170 -468q-66 -60 -144 -89q-78 -26 -149 -26h-169q-107 0 -207 52q-142 76 -208 241q-49 129 -49 277zM282 555 q0 -170 66 -281q53 -85 143 -117q47 -15 97 -15h153q137 0 220 102q20 26 30 46q17 31 33 84q24 79 24 199v576q0 163 -44 258q-15 35 -41 72q-40 49 -83 72q-63 34 -138 34h-154q-144 0 -229 -117q-77 -113 -77 -300v-613zM369 1997v1l243 286h105q4 -2 122 -142l122 -145 l-126 -107q-3 3 -57 69q-110 128 -112 132l-170 -201h-2z" />
<glyph unicode="&#xd5;" d="M117 546v632q0 181 71 325q21 40 52 83q14 18 51 54q41 34 69 50q106 60 221 60h168q115 0 221 -60q134 -80 196 -242q47 -123 47 -283v-606q0 -308 -170 -468q-66 -60 -144 -89q-78 -26 -149 -26h-169q-107 0 -207 52q-142 76 -208 241q-49 129 -49 277zM282 555 q0 -170 66 -281q53 -85 143 -117q47 -15 97 -15h153q137 0 220 102q20 26 30 46q17 31 33 84q24 79 24 199v576q0 163 -44 258q-15 35 -41 72q-40 49 -83 72q-63 34 -138 34h-154q-144 0 -229 -117q-77 -113 -77 -300v-613zM319 1922v182q36 41 72 60q55 31 106 31 q61 0 171 -58.5t163 -58.5q48 0 101 33q36 22 79 74v-181q-36 -40 -72 -61q-55 -29 -108 -29q-58 0 -168 57t-166 57q-47 0 -101 -33q-35 -22 -77 -73z" />
<glyph unicode="&#xd6;" d="M117 546v632q0 181 71 325q21 40 52 83q14 18 51 54q41 34 69 50q106 60 221 60h168q115 0 221 -60q134 -80 196 -242q47 -123 47 -283v-606q0 -308 -170 -468q-66 -60 -144 -89q-78 -26 -149 -26h-169q-107 0 -207 52q-142 76 -208 241q-49 129 -49 277zM282 555 q0 -170 66 -281q53 -85 143 -117q47 -15 97 -15h153q137 0 220 102q20 26 30 46q17 31 33 84q24 79 24 199v576q0 163 -44 258q-15 35 -41 72q-40 49 -83 72q-63 34 -138 34h-154q-144 0 -229 -117q-77 -113 -77 -300v-613zM347 2043v9q0 46 39 84q35 29 79 29q51 0 88 -40 q30 -35 30 -73v-8q0 -46 -39 -84q-35 -31 -79 -31h-1q-60 0 -99 55q-18 31 -18 59zM748 2043v9q0 46 39 84q35 29 79 29q51 0 89 -40q29 -35 29 -73v-8q0 -46 -39 -84q-35 -31 -79 -31h-1q-60 0 -99 55q-18 31 -18 59z" />
<glyph unicode="&#xd7;" horiz-adv-x="935" d="M113 336l239 239l-239 238l117 117l238 -239l238 239l116 -117l-237 -238l237 -239l-116 -117l-238 239l-238 -239z" />
<glyph unicode="&#xd8;" d="M42 0l137 238q-7 16 -13 31q-49 129 -49 277v632q0 181 71 325q21 40 52 83q14 18 51 54q41 34 69 50q106 60 221 60h168q115 0 221 -60q18 -11 34 -23l112 194l3 1l140 -83v-1l-138 -238q26 -43 45 -92q47 -123 47 -283v-606q0 -308 -170 -468q-66 -60 -144 -89 q-78 -26 -149 -26h-169q-107 0 -207 52q-48 26 -88 63l-101 -174zM282 555q0 -66 9 -123l629 1090q-20 18 -40 29q-63 34 -138 34h-154q-144 0 -229 -117q-77 -113 -77 -300v-613zM372 241q48 -59 119 -84q47 -15 97 -15h153q137 0 220 102q20 26 30 46q17 31 33 84 q24 79 24 199v576q0 130 -27 216z" />
<glyph unicode="&#xd9;" horiz-adv-x="1496" d="M201 570v1156l1 2h163l1 -2v-1148q0 -212 100 -327q82 -86 205 -86h154q137 0 219 103q20 26 31 46q18 31 33 84q24 79 24 199v1129l1 2h163l1 -2v-1143q0 -294 -156 -456q-45 -42 -67 -54q-40 -27 -77 -41q-83 -32 -165 -32h-168q-119 0 -229 64q-127 78 -190 240 q-44 124 -44 266zM511 2131l86 139l389 -239l-87 -141z" />
<glyph unicode="&#xda;" horiz-adv-x="1496" d="M201 570v1156l1 2h163l1 -2v-1148q0 -212 100 -327q82 -86 205 -86h154q137 0 219 103q20 26 31 46q18 31 33 84q24 79 24 199v1129l1 2h163l1 -2v-1143q0 -294 -156 -456q-45 -42 -67 -54q-40 -27 -77 -41q-83 -32 -165 -32h-168q-119 0 -229 64q-127 78 -190 240 q-44 124 -44 266zM511 2031l389 239l86 -139l-388 -241z" />
<glyph unicode="&#xdb;" horiz-adv-x="1496" d="M201 570v1156l1 2h163l1 -2v-1148q0 -212 100 -327q82 -86 205 -86h154q137 0 219 103q20 26 31 46q18 31 33 84q24 79 24 199v1129l1 2h163l1 -2v-1143q0 -294 -156 -456q-45 -42 -67 -54q-40 -27 -77 -41q-83 -32 -165 -32h-168q-119 0 -229 64q-127 78 -190 240 q-44 124 -44 266zM453 1997v1l243 286h105q4 -2 122 -142l121 -145l-125 -107q-3 3 -58 69q-109 128 -112 132l-170 -201h-1z" />
<glyph unicode="&#xdc;" horiz-adv-x="1496" d="M201 570v1156l1 2h163l1 -2v-1148q0 -212 100 -327q82 -86 205 -86h154q137 0 219 103q20 26 31 46q18 31 33 84q24 79 24 199v1129l1 2h163l1 -2v-1143q0 -294 -156 -456q-45 -42 -67 -54q-40 -27 -77 -41q-83 -32 -165 -32h-168q-119 0 -229 64q-127 78 -190 240 q-44 124 -44 266zM431 2043v9q0 46 39 84q35 29 79 29q50 0 88 -40q30 -35 30 -73v-8q0 -46 -39 -84q-36 -31 -79 -31h-1q-61 0 -100 55q-17 31 -17 59zM832 2043v9q0 46 39 84q35 29 79 29q51 0 88 -40q30 -35 30 -73v-8q0 -46 -39 -84q-35 -31 -79 -31h-1q-60 0 -99 55 q-18 31 -18 59z" />
<glyph unicode="&#xdd;" horiz-adv-x="1276" d="M35 1728h196q1 0 17 -31q1 0 216 -398l177 -325l206 382l202 372h196l1 -2q-18 -29 -177 -321q-9 -16 -212 -385q-129 -233 -134 -244v-775l-1 -1h-163l-1 1v775q0 3 -100 183l-277 504zM404 2031l389 239l86 -139l-388 -241z" />
<glyph unicode="&#xde;" horiz-adv-x="1542" d="M181 1v1725l1 2h163l1 -2v-322h517q289 0 449 -153q41 -45 53 -66q27 -40 40 -76q32 -81 32 -163v-165q0 -118 -62 -226q-77 -125 -237 -188q-123 -44 -262 -44h-530v-322l-1 -1h-163zM346 486h521q209 0 322 99q85 81 85 202v152q0 135 -101 216q-26 20 -45 31 q-31 16 -83 32q-77 23 -197 23h-502v-755z" />
<glyph unicode="&#xdf;" horiz-adv-x="1373" d="M181 2v1341q0 68 54 180q121 205 356 205h10q225 0 350 -130q80 -90 80 -216q0 -144 -108 -305q-66 -116 -66 -175q0 -85 140 -164q59 -37 139 -113q127 -135 127 -269v-24q0 -133 -125 -262q-128 -114 -277 -114h-4q-207 0 -351 222q-27 44 -29 54v3l145 72 q101 -185 239 -185q104 0 186 93q50 66 50 122v16q0 119 -200 252q-206 122 -206 297q0 128 136 336q39 81 39 145q0 117 -131 159q-66 20 -136 20h-4q-181 0 -239 -174q-10 -35 -10 -56v-1330l-4 -2h-158z" />
<glyph unicode="&#xe0;" horiz-adv-x="1211" d="M109 313v16q0 165 165 256q160 83 452 83l80 -1v135q0 51 -34 97q-47 58 -158 58q-98 0 -240 -47q-45 -18 -131 -60l-35 -17q-62 128 -71 149q129 65 183 85q165 54 295 54q206 0 304 -144q21 -34 34 -72q10 -25 15 -59q1 -11 3 -41v-524q0 -62 19 -162q12 -48 25 -77 q0 -2 20 -42h-182q-1 0 -12 38q-9 30 -17 71q-55 -38 -117 -67q-125 -53 -236 -53h-12q-114 0 -210 58q-22 16 -53 45q-37 40 -56 81q-31 69 -31 140zM274 321q0 -115 106 -152q40 -14 86 -14q137 0 286 105q30 22 54 43v197l-81 3q-213 0 -344 -50q-45 -19 -77 -49 q-21 -23 -26 -43q-4 -16 -4 -38v-2zM353 1525l86 139l389 -240l-87 -140z" />
<glyph unicode="&#xe1;" horiz-adv-x="1211" d="M109 313v16q0 165 165 256q160 83 452 83l80 -1v135q0 51 -34 97q-47 58 -158 58q-98 0 -240 -47q-45 -18 -131 -60l-35 -17q-62 128 -71 149q129 65 183 85q165 54 295 54q206 0 304 -144q21 -34 34 -72q10 -25 15 -59q1 -11 3 -41v-524q0 -62 19 -162q12 -48 25 -77 q0 -2 20 -42h-182q-1 0 -12 38q-9 30 -17 71q-55 -38 -117 -67q-125 -53 -236 -53h-12q-114 0 -210 58q-22 16 -53 45q-37 40 -56 81q-31 69 -31 140zM274 321q0 -115 106 -152q40 -14 86 -14q137 0 286 105q30 22 54 43v197l-81 3q-213 0 -344 -50q-45 -19 -77 -49 q-21 -23 -26 -43q-4 -16 -4 -38v-2zM353 1424l389 240l86 -139l-388 -241z" />
<glyph unicode="&#xe2;" horiz-adv-x="1211" d="M109 313v16q0 165 165 256q160 83 452 83l80 -1v135q0 51 -34 97q-47 58 -158 58q-98 0 -240 -47q-45 -18 -131 -60l-35 -17q-62 128 -71 149q129 65 183 85q165 54 295 54q206 0 304 -144q21 -34 34 -72q10 -25 15 -59q1 -11 3 -41v-524q0 -62 19 -162q12 -48 25 -77 q0 -2 20 -42h-182q-1 0 -12 38q-9 30 -17 71q-55 -38 -117 -67q-125 -53 -236 -53h-12q-114 0 -210 58q-22 16 -53 45q-37 40 -56 81q-31 69 -31 140zM274 321q0 -115 106 -152q40 -14 86 -14q137 0 286 105q30 22 54 43v197l-81 3q-213 0 -344 -50q-45 -19 -77 -49 q-21 -23 -26 -43q-4 -16 -4 -38v-2zM294 1389v1l243 287h105q3 -3 121 -143l122 -145l-125 -106q-4 2 -58 68q-110 129 -112 132l-170 -200h-1z" />
<glyph unicode="&#xe3;" horiz-adv-x="1211" d="M109 313v16q0 165 165 256q160 83 452 83l80 -1v135q0 51 -34 97q-47 58 -158 58q-98 0 -240 -47q-45 -18 -131 -60l-35 -17q-62 128 -71 149q129 65 183 85q165 54 295 54q206 0 304 -144q21 -34 34 -72q10 -25 15 -59q1 -11 3 -41v-524q0 -62 19 -162q12 -48 25 -77 q0 -2 20 -42h-182q-1 0 -12 38q-9 30 -17 71q-55 -38 -117 -67q-125 -53 -236 -53h-12q-114 0 -210 58q-22 16 -53 45q-37 40 -56 81q-31 69 -31 140zM242 1316v181q36 42 72 61q55 30 106 30q61 0 171.5 -58.5t163.5 -58.5q49 0 102 33q35 23 79 75v-182q-37 -40 -72 -60 q-56 -30 -109 -30q-58 0 -168 57.5t-167 57.5q-47 0 -100 -33q-36 -23 -78 -73zM274 321q0 -115 106 -152q40 -14 86 -14q137 0 286 105q30 22 54 43v197l-81 3q-213 0 -344 -50q-45 -19 -77 -49q-21 -23 -26 -43q-4 -16 -4 -38v-2z" />
<glyph unicode="&#xe4;" horiz-adv-x="1211" d="M109 313v16q0 165 165 256q160 83 452 83l80 -1v135q0 51 -34 97q-47 58 -158 58q-98 0 -240 -47q-45 -18 -131 -60l-35 -17q-62 128 -71 149q129 65 183 85q165 54 295 54q206 0 304 -144q21 -34 34 -72q10 -25 15 -59q1 -11 3 -41v-524q0 -62 19 -162q12 -48 25 -77 q0 -2 20 -42h-182q-1 0 -12 38q-9 30 -17 71q-55 -38 -117 -67q-125 -53 -236 -53h-12q-114 0 -210 58q-22 16 -53 45q-37 40 -56 81q-31 69 -31 140zM270 1434v9q0 46 39 84q36 29 79 29q51 0 89 -40q29 -35 29 -73v-8q0 -46 -39 -84q-35 -31 -79 -31h-1q-60 0 -99 55 q-18 32 -18 59zM274 321q0 -115 106 -152q40 -14 86 -14q137 0 286 105q30 22 54 43v197l-81 3q-213 0 -344 -50q-45 -19 -77 -49q-21 -23 -26 -43q-4 -16 -4 -38v-2zM671 1434v9q0 46 39 84q36 29 79 29q51 0 89 -40q29 -35 29 -73v-8q0 -46 -39 -84q-35 -31 -79 -31h-1 q-60 0 -99 55q-18 32 -18 59z" />
<glyph unicode="&#xe5;" horiz-adv-x="1211" d="M109 313v16q0 165 165 256q160 83 452 83l80 -1v135q0 51 -34 97q-47 58 -158 58q-98 0 -240 -47q-45 -18 -131 -60l-35 -17q-62 128 -71 149q129 65 183 85q165 54 295 54q206 0 304 -144q21 -34 34 -72q10 -25 15 -59q1 -11 3 -41v-524q0 -62 19 -162q12 -48 25 -77 q0 -2 20 -42h-182q-1 0 -12 38q-9 30 -17 71q-55 -38 -117 -67q-125 -53 -236 -53h-12q-114 0 -210 58q-22 16 -53 45q-37 40 -56 81q-31 69 -31 140zM274 321q0 -115 106 -152q40 -14 86 -14q137 0 286 105q30 22 54 43v197l-81 3q-213 0 -344 -50q-45 -19 -77 -49 q-21 -23 -26 -43q-4 -16 -4 -38v-2zM399 1456v11q0 55 36 107q7 11 26 30q58 48 127 48h2q67 0 124 -46q22 -21 28 -30q38 -53 38 -114q0 -77 -58 -136l-9 -10q-56 -44 -124 -44q-67 0 -123 44q-16 15 -24 26q-15 19 -22 33q-21 42 -21 81zM526 1462q0 -29 25 -50 q18 -14 39 -14q31 0 50 25q13 19 13 39v2q0 24 -18 43q-20 19 -45 19q-26 0 -45 -18q-19 -20 -19 -45v-1z" />
<glyph unicode="&#xe6;" horiz-adv-x="2016" d="M109 313v16q0 165 165 256q160 83 452 83l80 -1v135q0 51 -34 97q-47 58 -158 58q-98 0 -240 -47q-45 -18 -131 -60l-35 -17q-62 128 -71 149q129 65 183 85q165 54 295 54q206 0 304 -144q21 -34 34 -72q10 -25 15 -59q1 -11 3 -41v-6q10 23 20 47q24 47 65 99 q12 17 54 59q36 32 64 52q30 20 54 32q107 52 213 52h10q137 0 265 -82q29 -20 72 -59q48 -48 63 -73q28 -36 48 -75q30 -59 61 -171l11 -45q-51 -17 -548 -169l-285 -90v-1q14 -28 36 -61q14 -23 48 -56q102 -93 225 -93q126 0 229 98q40 41 57 72q2 2 3 4l140 -86v-2 q-19 -33 -48 -69q-49 -51 -75 -71q-59 -45 -96 -63q-101 -48 -207 -48h-4q-161 0 -300 105q-21 17 -60 55q-42 48 -66 85q-19 32 -36 67q-7 15 -13 30v-61q0 -62 19 -162q12 -48 25 -77q0 -2 20 -42h-182q-1 0 -12 38q-9 30 -17 71q-55 -38 -117 -67q-125 -53 -236 -53h-12 q-114 0 -210 58q-22 16 -53 45q-37 40 -56 81q-31 69 -31 140zM274 321q0 -115 106 -152q40 -14 86 -14q137 0 286 105q30 22 54 43v197l-81 3q-213 0 -344 -50q-45 -19 -77 -49q-21 -23 -26 -43q-4 -16 -4 -38v-2zM1094 569q0 -23 2 -49l548 171l127 39q-14 33 -31 64 q-16 28 -44 64q-109 117 -249 117q-110 0 -203 -73q-17 -13 -46 -44q-27 -33 -40 -56q-64 -106 -64 -230v-3z" />
<glyph unicode="&#xe7;" horiz-adv-x="1133" d="M106 550v18q0 138 66 271q20 41 52 83q13 21 57 66q54 49 85 66q120 76 258 76q180 0 327 -127q41 -40 58 -61q31 -38 45 -63l-141 -86l-11 16q-16 25 -48 57q-46 43 -69 53q-76 46 -161 46q-121 0 -223 -92q-43 -43 -54 -64q-24 -34 -39 -70q-37 -86 -37 -177v-5 q0 -133 76 -247q13 -21 41 -52q105 -103 236 -103q135 0 241 108q25 27 51 66q139 -84 140 -85q-20 -35 -55 -78q-48 -50 -63 -61q-34 -27 -61 -45q-121 -71 -250 -71h-2l-13 -59q19 -2 36 -8q49 -18 75 -64q22 -41 22 -82q0 -71 -57 -124q-53 -46 -118 -46q-83 0 -142 71 q-9 9 -9 11l97 71h1q25 -32 53 -32q25 0 42 20q11 15 11 29q0 15 -8 25t-25 15q-20 1 -50 -8l-81 -29v2l45 224q-108 28 -203 108q-51 49 -59 62q-28 34 -51 70q-28 49 -45 95q-40 107 -40 210z" />
<glyph unicode="&#xe8;" horiz-adv-x="1167" d="M79 560v19q0 134 63 267q23 47 64 99q12 17 55 59q35 32 63 52q30 20 55 32q106 52 212 52h11q137 0 264 -82q30 -20 72 -59q48 -48 64 -73q27 -36 47 -75q31 -59 61 -171l11 -45q-51 -17 -548 -169l-285 -90v-1q14 -28 36 -61q15 -23 49 -56q101 -93 224 -93 q126 0 229 98q40 41 58 72l2 4l141 -86v-2q-19 -33 -49 -69q-48 -51 -74 -71q-59 -45 -97 -63q-100 -48 -206 -48h-5q-161 0 -300 105q-21 17 -60 55q-41 48 -66 85q-19 32 -35 67q-56 125 -56 248zM244 569q0 -23 3 -49l547 171l128 39q-15 33 -31 64q-17 28 -45 64 q-108 117 -249 117q-110 0 -203 -73q-16 -13 -46 -44q-27 -33 -40 -56q-64 -106 -64 -230v-3zM362 1525l86 139l390 -240l-88 -140z" />
<glyph unicode="&#xe9;" horiz-adv-x="1167" d="M79 560v19q0 134 63 267q23 47 64 99q12 17 55 59q35 32 63 52q30 20 55 32q106 52 212 52h11q137 0 264 -82q30 -20 72 -59q48 -48 64 -73q27 -36 47 -75q31 -59 61 -171l11 -45q-51 -17 -548 -169l-285 -90v-1q14 -28 36 -61q15 -23 49 -56q101 -93 224 -93 q126 0 229 98q40 41 58 72l2 4l141 -86v-2q-19 -33 -49 -69q-48 -51 -74 -71q-59 -45 -97 -63q-100 -48 -206 -48h-5q-161 0 -300 105q-21 17 -60 55q-41 48 -66 85q-19 32 -35 67q-56 125 -56 248zM244 569q0 -23 3 -49l547 171l128 39q-15 33 -31 64q-17 28 -45 64 q-108 117 -249 117q-110 0 -203 -73q-16 -13 -46 -44q-27 -33 -40 -56q-64 -106 -64 -230v-3zM362 1424l390 240l86 -139l-388 -241z" />
<glyph unicode="&#xea;" horiz-adv-x="1167" d="M79 560v19q0 134 63 267q23 47 64 99q12 17 55 59q35 32 63 52q30 20 55 32q106 52 212 52h11q137 0 264 -82q30 -20 72 -59q48 -48 64 -73q27 -36 47 -75q31 -59 61 -171l11 -45q-51 -17 -548 -169l-285 -90v-1q14 -28 36 -61q15 -23 49 -56q101 -93 224 -93 q126 0 229 98q40 41 58 72l2 4l141 -86v-2q-19 -33 -49 -69q-48 -51 -74 -71q-59 -45 -97 -63q-100 -48 -206 -48h-5q-161 0 -300 105q-21 17 -60 55q-41 48 -66 85q-19 32 -35 67q-56 125 -56 248zM244 569q0 -23 3 -49l547 171l128 39q-15 33 -31 64q-17 28 -45 64 q-108 117 -249 117q-110 0 -203 -73q-16 -13 -46 -44q-27 -33 -40 -56q-64 -106 -64 -230v-3zM304 1390v1l244 287h105q3 -2 121 -143l122 -145l-125 -106q-4 2 -58 68q-110 129 -112 132l-170 -200h-1z" />
<glyph unicode="&#xeb;" horiz-adv-x="1167" d="M79 560v19q0 134 63 267q23 47 64 99q12 17 55 59q35 32 63 52q30 20 55 32q106 52 212 52h11q137 0 264 -82q30 -20 72 -59q48 -48 64 -73q27 -36 47 -75q31 -59 61 -171l11 -45q-51 -17 -548 -169l-285 -90v-1q14 -28 36 -61q15 -23 49 -56q101 -93 224 -93 q126 0 229 98q40 41 58 72l2 4l141 -86v-2q-19 -33 -49 -69q-48 -51 -74 -71q-59 -45 -97 -63q-100 -48 -206 -48h-5q-161 0 -300 105q-21 17 -60 55q-41 48 -66 85q-19 32 -35 67q-56 125 -56 248zM244 569q0 -23 3 -49l547 171l128 39q-15 33 -31 64q-17 28 -45 64 q-108 117 -249 117q-110 0 -203 -73q-16 -13 -46 -44q-27 -33 -40 -56q-64 -106 -64 -230v-3zM283 1434v9q0 46 39 84q36 29 79 29q51 0 89 -40q29 -35 29 -73v-8q0 -46 -39 -84q-35 -31 -79 -31h-1q-60 0 -99 55q-18 32 -18 59zM684 1434v9q0 46 39 84q36 29 79 29 q51 0 89 -40q29 -35 29 -73v-8q0 -46 -39 -84q-35 -31 -79 -31h-1q-60 0 -99 55q-18 32 -18 59z" />
<glyph unicode="&#xec;" horiz-adv-x="549" d="M37 1525l86 139l389 -240l-87 -140zM192 1v1119l2 1h162l2 -1v-1119l-2 -1h-162z" />
<glyph unicode="&#xed;" horiz-adv-x="549" d="M37 1424l389 240l86 -139l-388 -241zM192 1v1119l2 1h162l2 -1v-1119l-2 -1h-162z" />
<glyph unicode="&#xee;" horiz-adv-x="549" d="M-21 1390v1l243 287h105q3 -2 121 -143l122 -145l-125 -106q-4 2 -58 68q-110 129 -112 132l-170 -200h-1zM192 1v1119l2 1h162l2 -1v-1119l-2 -1h-162z" />
<glyph unicode="&#xef;" horiz-adv-x="549" d="M-20 1434v9q0 46 39 84q35 29 79 29q51 0 88 -40q30 -35 30 -73v-8q0 -46 -39 -84q-35 -31 -79 -31h-1q-60 0 -99 55q-18 32 -18 59zM192 1v1119l2 1h162l2 -1v-1119l-2 -1h-162zM334 1434v9q0 46 39 84q35 29 79 29q51 0 88 -40q30 -35 30 -73v-8q0 -46 -39 -84 q-35 -31 -79 -31h-1q-60 0 -99 55q-18 32 -18 59z" />
<glyph unicode="&#xf0;" horiz-adv-x="1344" />
<glyph unicode="&#xf1;" horiz-adv-x="1260" d="M181 4v1097l3 3h157l4 -3v-81h2q107 101 254 101h65q283 0 391 -230q29 -79 29 -177v-710l-5 -4h-158l-4 4v722q0 178 -169 220q-42 9 -76 9h-84q-170 0 -229 -133q-16 -44 -16 -113v-705l-4 -4h-157zM287 1316v181q36 42 72 61q55 30 106 30q61 0 171.5 -58.5 t163.5 -58.5q48 0 102 33q35 23 79 75v-182q-37 -40 -72 -60q-56 -30 -109 -30q-58 0 -168 57.5t-167 57.5q-47 0 -100 -33q-36 -23 -78 -73z" />
<glyph unicode="&#xf2;" horiz-adv-x="1248" d="M106 550v18q0 138 66 271q20 41 52 83q13 21 57 66q54 49 85 66q120 76 258 76q170 0 312 -114q47 -40 75 -77q26 -33 43 -59q17 -29 33 -62q55 -125 55 -249v-17q0 -146 -72 -285q-25 -44 -67 -97q-41 -46 -67 -66q-142 -115 -309 -115h-5q-172 0 -318 122 q-42 39 -60 61q-54 68 -76 117q-16 30 -35 87q-27 92 -27 174zM271 557q0 -144 87 -263q14 -19 47 -51q99 -88 219 -88q123 0 224 92q37 37 52 60q77 114 77 252v1q0 150 -90 270q-14 18 -47 49q-98 86 -216 86q-121 0 -223 -92q-43 -43 -54 -64q-24 -34 -39 -70 q-37 -86 -37 -177v-5zM387 1525l86 139l390 -240l-88 -140z" />
<glyph unicode="&#xf3;" horiz-adv-x="1248" d="M106 550v18q0 138 66 271q20 41 52 83q13 21 57 66q54 49 85 66q120 76 258 76q170 0 312 -114q47 -40 75 -77q26 -33 43 -59q17 -29 33 -62q55 -125 55 -249v-17q0 -146 -72 -285q-25 -44 -67 -97q-41 -46 -67 -66q-142 -115 -309 -115h-5q-172 0 -318 122 q-42 39 -60 61q-54 68 -76 117q-16 30 -35 87q-27 92 -27 174zM271 557q0 -144 87 -263q14 -19 47 -51q99 -88 219 -88q123 0 224 92q37 37 52 60q77 114 77 252v1q0 150 -90 270q-14 18 -47 49q-98 86 -216 86q-121 0 -223 -92q-43 -43 -54 -64q-24 -34 -39 -70 q-37 -86 -37 -177v-5zM387 1424l389 240l87 -139l-389 -241z" />
<glyph unicode="&#xf4;" horiz-adv-x="1248" d="M106 550v18q0 138 66 271q20 41 52 83q13 21 57 66q54 49 85 66q120 76 258 76q170 0 312 -114q47 -40 75 -77q26 -33 43 -59q17 -29 33 -62q55 -125 55 -249v-17q0 -146 -72 -285q-25 -44 -67 -97q-41 -46 -67 -66q-142 -115 -309 -115h-5q-172 0 -318 122 q-42 39 -60 61q-54 68 -76 117q-16 30 -35 87q-27 92 -27 174zM271 557q0 -144 87 -263q14 -19 47 -51q99 -88 219 -88q123 0 224 92q37 37 52 60q77 114 77 252v1q0 150 -90 270q-14 18 -47 49q-98 86 -216 86q-121 0 -223 -92q-43 -43 -54 -64q-24 -34 -39 -70 q-37 -86 -37 -177v-5zM329 1390v1l243 287h105q4 -2 122 -143l121 -145l-125 -106q-3 2 -57 68q-110 129 -113 132l-170 -200h-1z" />
<glyph unicode="&#xf5;" horiz-adv-x="1248" d="M106 550v18q0 138 66 271q20 41 52 83q13 21 57 66q54 49 85 66q120 76 258 76q170 0 312 -114q47 -40 75 -77q26 -33 43 -59q17 -29 33 -62q55 -125 55 -249v-17q0 -146 -72 -285q-25 -44 -67 -97q-41 -46 -67 -66q-142 -115 -309 -115h-5q-172 0 -318 122 q-42 39 -60 61q-54 68 -76 117q-16 30 -35 87q-27 92 -27 174zM271 557q0 -144 87 -263q14 -19 47 -51q99 -88 219 -88q123 0 224 92q37 37 52 60q77 114 77 252v1q0 150 -90 270q-14 18 -47 49q-98 86 -216 86q-121 0 -223 -92q-43 -43 -54 -64q-24 -34 -39 -70 q-37 -86 -37 -177v-5zM277 1316v181q37 42 72 61q56 30 106 30q62 0 172.5 -58.5t163.5 -58.5q48 0 101 33q35 23 79 75v-182q-36 -40 -72 -60q-55 -30 -108 -30q-58 0 -168.5 57.5t-167.5 57.5q-47 0 -100 -33q-35 -23 -78 -73z" />
<glyph unicode="&#xf6;" horiz-adv-x="1248" d="M106 550v18q0 138 66 271q20 41 52 83q13 21 57 66q54 49 85 66q120 76 258 76q170 0 312 -114q47 -40 75 -77q26 -33 43 -59q17 -29 33 -62q55 -125 55 -249v-17q0 -146 -72 -285q-25 -44 -67 -97q-41 -46 -67 -66q-142 -115 -309 -115h-5q-172 0 -318 122 q-42 39 -60 61q-54 68 -76 117q-16 30 -35 87q-27 92 -27 174zM271 557q0 -144 87 -263q14 -19 47 -51q99 -88 219 -88q123 0 224 92q37 37 52 60q77 114 77 252v1q0 150 -90 270q-14 18 -47 49q-98 86 -216 86q-121 0 -223 -92q-43 -43 -54 -64q-24 -34 -39 -70 q-37 -86 -37 -177v-5zM306 1434v9q0 46 39 84q35 29 79 29q50 0 88 -40q30 -35 30 -73v-8q0 -46 -39 -84q-36 -31 -79 -31h-2q-60 0 -99 55q-17 32 -17 59zM707 1434v9q0 46 39 84q35 29 79 29q51 0 88 -40q30 -35 30 -73v-8q0 -46 -39 -84q-36 -31 -79 -31h-1q-61 0 -99 55 q-18 32 -18 59z" />
<glyph unicode="&#xf7;" horiz-adv-x="1020" d="M113 496v165h794v-165h-794zM393 225v10q0 45 39 82q34 31 78 31h2q51 0 89 -41q28 -36 28 -72v-7q0 -51 -44 -89q-33 -27 -75 -27q-45 0 -82 33q-35 38 -35 80zM393 922v9q0 45 39 83q34 30 78 30h2q51 0 89 -41q28 -35 28 -72v-7q0 -51 -44 -89q-33 -27 -75 -27 q-45 0 -82 33q-35 38 -35 81z" />
<glyph unicode="&#xf8;" horiz-adv-x="1248" d="M106 550v18q0 138 66 271q20 41 52 83q13 21 57 66q54 49 85 66q120 76 258 76q111 0 211 -49l89 152h1l142 -84v-1l-97 -163q25 -23 41 -46q26 -33 43 -59q17 -29 33 -62q55 -125 55 -249v-17q0 -146 -72 -285q-25 -44 -67 -97q-41 -46 -67 -66q-142 -115 -309 -115h-5 q-110 0 -208 50l-91 -153l-141 82v1l98 166q-24 22 -36 37q-54 68 -76 117q-16 30 -35 87q-27 92 -27 174zM271 557q0 -144 87 -263q3 -5 8 -11l111 188l223 380l50 87q-60 27 -126 27q-121 0 -223 -92q-43 -43 -54 -64q-24 -34 -39 -70q-37 -86 -37 -177v-5zM498 182 q60 -27 126 -27q123 0 224 92q37 37 52 60q77 114 77 252v1q0 150 -90 270q-2 2 -4 5l-201 -341z" />
<glyph unicode="&#xf9;" horiz-adv-x="1260" d="M175 387v734h165v-727q0 -154 128 -208q58 -21 128 -21h65q127 0 199 70q56 59 56 154v732h165v-1104l-1 -2h-164v88q-27 -49 -83 -75q-77 -28 -165 -28h-80q-136 0 -245 66q-26 14 -63 50q-37 39 -52 67q-53 93 -53 204zM391 1525l86 139l389 -240l-87 -140z" />
<glyph unicode="&#xfa;" horiz-adv-x="1260" d="M175 387v734h165v-727q0 -154 128 -208q58 -21 128 -21h65q127 0 199 70q56 59 56 154v732h165v-1104l-1 -2h-164v88q-27 -49 -83 -75q-77 -28 -165 -28h-80q-136 0 -245 66q-26 14 -63 50q-37 39 -52 67q-53 93 -53 204zM391 1424l389 240l86 -139l-388 -241z" />
<glyph unicode="&#xfb;" horiz-adv-x="1260" d="M175 387v734h165v-727q0 -154 128 -208q58 -21 128 -21h65q127 0 199 70q56 59 56 154v732h165v-1104l-1 -2h-164v88q-27 -49 -83 -75q-77 -28 -165 -28h-80q-136 0 -245 66q-26 14 -63 50q-37 39 -52 67q-53 93 -53 204zM333 1390v1l243 287h105q3 -2 121 -143l122 -145 l-125 -106q-4 2 -58 68q-110 129 -112 132l-170 -200h-1z" />
<glyph unicode="&#xfc;" horiz-adv-x="1260" d="M175 387v734h165v-727q0 -154 128 -208q58 -21 128 -21h65q127 0 199 70q56 59 56 154v732h165v-1104l-1 -2h-164v88q-27 -49 -83 -75q-77 -28 -165 -28h-80q-136 0 -245 66q-26 14 -63 50q-37 39 -52 67q-53 93 -53 204zM309 1434v9q0 46 39 84q36 29 79 29q51 0 89 -40 q29 -35 29 -73v-8q0 -46 -39 -84q-35 -31 -79 -31h-1q-60 0 -99 55q-18 32 -18 59zM710 1434v9q0 46 39 84q36 29 79 29q51 0 89 -40q29 -35 29 -73v-8q0 -46 -39 -84q-35 -31 -79 -31h-1q-60 0 -99 55q-18 32 -18 59z" />
<glyph unicode="&#xfd;" horiz-adv-x="1132" d="M40 1121h185q2 0 22 -54l171 -451l147 -387h1l203 524q7 14 122 311l23 57h176l2 -1l-199 -506l-219 -564l-204 -524l-15 -35h-175l-2 2q196 500 199 508v1l-202 516l-187 479zM328 1424l389 240l87 -139l-389 -241z" />
<glyph unicode="&#xfe;" horiz-adv-x="1292" d="M159 -471v2197l1 2h163l1 -2v-778q16 22 42 49q38 39 61 54q112 79 253 79q148 0 279 -92q22 -15 61 -48q43 -46 57 -67q27 -36 48 -73q70 -138 70 -281v-16q0 -145 -70 -283q-25 -46 -64 -95q-41 -49 -73 -72q-142 -114 -310 -114q-125 0 -233 66q-26 17 -59 49 q-31 27 -45 46l-17 22v-644h-164zM324 560q0 -173 117 -302q39 -36 57 -46q83 -56 175 -56h10q82 0 162 47q26 15 68 57q40 42 56 73q61 104 61 226v1q0 150 -88 270q-15 17 -46 48q-100 86 -218 86h-1q-133 0 -237 -106q-58 -64 -87 -137q-29 -84 -29 -145v-16z" />
<glyph unicode="&#xff;" horiz-adv-x="1132" d="M40 1121h185q2 0 22 -54l171 -451l147 -387h1l203 524q7 14 122 311l23 57h176l2 -1l-199 -506l-219 -564l-204 -524l-15 -35h-175l-2 2q196 500 199 508v1l-202 516l-187 479zM248 1434v9q0 46 39 84q35 29 79 29q51 0 88 -40q30 -35 30 -73v-8q0 -46 -39 -84 q-36 -31 -79 -31h-1q-61 0 -99 55q-18 32 -18 59zM649 1434v9q0 46 39 84q35 29 79 29q51 0 89 -40q29 -35 29 -73v-8q0 -46 -39 -84q-35 -31 -79 -31h-1q-60 0 -99 55q-18 32 -18 59z" />
<glyph unicode="&#x2c6;" horiz-adv-x="1162" d="M286 1997v1l243 286h105q3 -2 121 -142l122 -145l-125 -107q-4 3 -58 69q-110 128 -112 132l-170 -201h-1z" />
<glyph unicode="&#x2dc;" horiz-adv-x="1263" d="M286 1922v182q36 41 72 60q55 31 106 31q61 0 171 -58.5t163 -58.5q48 0 101 33q36 22 79 74v-181q-36 -40 -72 -61q-55 -29 -108 -29q-58 0 -168 57t-166 57q-47 0 -101 -33q-35 -22 -77 -73z" />
<glyph unicode="&#x2000;" horiz-adv-x="1142" />
<glyph unicode="&#x2001;" horiz-adv-x="2284" />
<glyph unicode="&#x2002;" horiz-adv-x="1142" />
<glyph unicode="&#x2003;" horiz-adv-x="2284" />
<glyph unicode="&#x2004;" horiz-adv-x="761" />
<glyph unicode="&#x2005;" horiz-adv-x="571" />
<glyph unicode="&#x2006;" horiz-adv-x="380" />
<glyph unicode="&#x2007;" horiz-adv-x="380" />
<glyph unicode="&#x2008;" horiz-adv-x="285" />
<glyph unicode="&#x2009;" horiz-adv-x="456" />
<glyph unicode="&#x200a;" horiz-adv-x="126" />
<glyph unicode="&#x2010;" horiz-adv-x="1018" d="M90 496v165h833v-165h-833z" />
<glyph unicode="&#x2011;" horiz-adv-x="1018" d="M90 496v165h833v-165h-833z" />
<glyph unicode="&#x2012;" horiz-adv-x="1018" d="M90 496v165h833v-165h-833z" />
<glyph unicode="&#x2013;" horiz-adv-x="1168" d="M83 530v141h1003v-141h-1003z" />
<glyph unicode="&#x2014;" horiz-adv-x="1593" d="M118 471v165h1357v-165h-1357z" />
<glyph unicode="&#x2018;" horiz-adv-x="625" d="M152 1606q0 144 172 299q48 41 62 49l47 -61q-119 -111 -119 -199q42 -17 61 -56q14 -24 14 -53q0 -58 -53 -98q-29 -19 -67 -19q-58 0 -96 51q-21 34 -21 87z" />
<glyph unicode="&#x2019;" horiz-adv-x="625" d="M192 1529q120 111 120 197q-43 18 -62 58q-14 24 -14 53q0 58 53 97q30 20 67 20q58 0 96 -52q21 -33 21 -86q0 -145 -172 -299q-47 -42 -61 -49z" />
<glyph unicode="&#x201a;" horiz-adv-x="582" d="M98 -197q119 111 119 197q-42 18 -61 58q-14 23 -14 53q0 58 53 97q29 20 67 20q58 0 96 -52q21 -33 21 -86q0 -145 -173 -299q-47 -42 -61 -49z" />
<glyph unicode="&#x201c;" horiz-adv-x="1087" d="M188 1606q0 144 172 299q47 41 61 49l47 -61q-119 -111 -119 -199q43 -17 62 -56q14 -24 14 -53q0 -58 -53 -98q-30 -19 -68 -19q-57 0 -95 51q-21 34 -21 87zM530 1606q0 144 172 299q47 41 61 49l48 -61q-120 -111 -120 -199q43 -17 62 -56q14 -24 14 -53 q0 -58 -53 -98q-30 -19 -67 -19q-58 0 -96 51q-21 34 -21 87z" />
<glyph unicode="&#x201d;" horiz-adv-x="1087" d="M277 1529q119 111 119 197q-42 18 -61 58q-14 24 -14 53q0 58 53 97q30 20 67 20q58 0 96 -52q21 -33 21 -86q0 -145 -172 -299q-47 -42 -62 -49zM620 1529q119 111 119 197q-43 18 -62 58q-14 24 -14 53q0 58 53 97q30 20 68 20q57 0 95 -52q21 -33 21 -86 q0 -145 -172 -299q-47 -42 -61 -49z" />
<glyph unicode="&#x201e;" horiz-adv-x="925" d="M98 -197q119 111 119 197q-42 18 -61 58q-14 23 -14 53q0 58 53 97q29 20 67 20q58 0 96 -52q21 -33 21 -86q0 -145 -173 -299q-47 -42 -61 -49zM440 -197q119 111 119 197q-42 18 -61 58q-14 23 -14 53q0 58 53 97q29 20 67 20q58 0 96 -52q21 -33 21 -86 q0 -145 -172 -299q-47 -42 -62 -49z" />
<glyph unicode="&#x2022;" horiz-adv-x="1181" />
<glyph unicode="&#x2026;" horiz-adv-x="1416" d="M118 113v10q0 45 39 82q34 31 78 31h2q51 0 89 -41q28 -36 28 -72v-7q0 -51 -44 -89q-33 -27 -75 -27q-45 0 -82 33q-35 38 -35 80zM590 113v10q0 45 39 82q34 31 78 31h2q51 0 89 -41q28 -36 28 -72v-7q0 -51 -44 -89q-33 -27 -75 -27q-45 0 -82 33q-35 38 -35 80z M1062 113v10q0 45 39 82q34 31 78 31h2q51 0 89 -41q28 -36 28 -72v-7q0 -51 -44 -89q-33 -27 -75 -27q-45 0 -82 33q-35 38 -35 80z" />
<glyph unicode="&#x202f;" horiz-adv-x="456" />
<glyph unicode="&#x2039;" horiz-adv-x="750" d="M81 492v126l328 215l131 86q91 -135 91 -138l-344 -226q330 -216 344 -227l-89 -137q-3 0 -52 33l-263 172z" />
<glyph unicode="&#x203a;" horiz-adv-x="750" d="M119 329l345 227q-331 216 -345 226l90 137q2 0 52 -33l263 -172l145 -96v-126l-328 -215l-131 -86q-91 136 -91 138z" />
<glyph unicode="&#x205f;" horiz-adv-x="571" />
<glyph unicode="&#x20ac;" horiz-adv-x="1596" d="M63 548v162l1 2h102q-4 37 -4 70v32l1 12h-99l-1 1v164l1 1h124q18 72 42 124q26 56 67 119q25 38 69 88q51 52 68 66q63 52 103 75q58 36 136 66q135 50 271 50h11q210 0 403 -113q45 -27 100 -73q17 -15 21 -18l-111 -123q-91 83 -206 124q-104 38 -213 38 q-211 0 -387 -135q-24 -19 -64 -59q-58 -63 -85 -112q-22 -38 -45 -92l-8 -25h1018l1 -1v-164l-1 -1h-1050v-1l-1 -31v-3q0 -42 6 -79h1045l1 -2v-162l-1 -2h-1000q95 -214 308 -317q127 -58 263 -58q186 0 347 105q30 21 70 56l2 1l111 -122v-1q-54 -47 -98 -77 q-201 -127 -430 -127h-5q-211 0 -401 111q-40 23 -85 59q-25 18 -78 71q-56 60 -79 95q-39 56 -69 122q-18 39 -32 82h-138z" />
<glyph unicode="&#x2122;" horiz-adv-x="2878" d="M18 1564v162l1 2h1089l1 -2v-162l-1 -2h-461v-1208h-166v1208h-462zM1227 354v1374h207q1 -3 135 -244l249 -447l133 -238q4 6 56 101l259 463q1 0 174 315l30 50h204l1 -2v-1372h-173v1092l-248 -447l-231 -411q-2 -6 -3 -6h-137q-3 3 -40 71l-263 472l-178 321h-1 v-1092h-174z" />
<glyph unicode="&#x25fc;" horiz-adv-x="1121" d="M0 0v1121h1121v-1121h-1121z" />
<glyph unicode="&#xfb01;" horiz-adv-x="1189" d="M32 957v163l1 1h201v22q0 262 118 424q13 19 46 51q40 38 69 54q32 19 66 31q68 25 131 25h35l1 -2v-162l-1 -2h-26q-148 0 -223 -152q-51 -107 -51 -281v-8h300l1 -1v-163l-1 -1h-300v-955l-1 -1h-163l-1 1v955h-201zM796 1605v9q0 45 38 83q37 31 76 31h9q44 0 83 -38 q30 -37 30 -77v-6q0 -51 -42 -88q-34 -27 -72 -27h-7q-52 0 -90 46q-25 33 -25 67zM832 1v1119l1 1h163l1 -1v-1119l-1 -1h-163z" />
<glyph unicode="&#xfb02;" horiz-adv-x="1200" d="M32 957v163l1 1h201v22q0 262 118 424q13 19 46 51q40 38 69 54q32 19 66 31q68 25 131 25h35l1 -2v-162l-1 -2h-26q-148 0 -223 -152q-51 -107 -51 -281v-8h300l1 -1v-163l-1 -1h-300v-955l-1 -1h-163l-1 1v955h-201zM856 1v1725l1 2h163l1 -2v-1725l-1 -1h-163z" />
<glyph unicode="&#xfb03;" horiz-adv-x="1826" d="M32 957v163l1 1h201v22q0 262 118 424q13 19 46 51q40 38 69 54q32 19 66 31q68 25 131 25h35l1 -2v-162l-1 -2h-26q-148 0 -223 -152q-51 -107 -51 -281v-8h472v22q0 262 118 424q13 19 46 51q40 38 69 54q32 19 67 31q67 25 131 25h34l1 -2v-162l-1 -2h-26 q-148 0 -223 -152q-51 -107 -51 -281v-8h300l1 -1v-163l-1 -1h-300v-955l-1 -1h-163l-1 1v955h-472v-955l-1 -1h-163l-1 1v955h-201zM1434 1605v9q0 45 37 83q37 31 76 31h9q44 0 83 -38q31 -37 31 -77v-6q0 -51 -43 -88q-34 -27 -72 -27h-7q-52 0 -90 46q-24 33 -24 67z M1469 1v1119l1 1h163l1 -1v-1119l-1 -1h-163z" />
</font>
</defs>
</svg>
