<?xml version="1.0" standalone="no"?>
<!DOCTYPE svg PUBLIC "-//W3C//DTD SVG 1.1//EN" "http://www.w3.org/Graphics/SVG/1.1/DTD/svg11.dtd" >
<svg xmlns="http://www.w3.org/2000/svg" xmlns:xlink="http://www.w3.org/1999/xlink" version="1.1">
<metadata></metadata>
<defs>
<font id="intro_regular_italicitalic" horiz-adv-x="1374" >
<font-face units-per-em="2048" ascent="1536" descent="-512" />
<missing-glyph horiz-adv-x="585" />
<glyph horiz-adv-x="0" />
<glyph horiz-adv-x="682" />
<glyph unicode=" "  horiz-adv-x="585" />
<glyph unicode="&#x09;" horiz-adv-x="585" />
<glyph unicode="&#xa0;" horiz-adv-x="585" />
<glyph unicode="!" horiz-adv-x="629" d="M37 84q0 72 54.5 119t131.5 47q56 0 91 -31.5t35 -84.5q0 -72 -56.5 -119.5t-130.5 -47.5q-57 0 -91 31.5t-34 85.5zM134 373l243 1250h276l-278 -1250h-241z" />
<glyph unicode="&#x22;" horiz-adv-x="855" d="M254 1118l106 502h205l-137 -502h-174zM601 1118l108 502h203l-137 -502h-174z" />
<glyph unicode="#" horiz-adv-x="1612" d="M51 437l39 181h274l120 331h-252l39 182h279l174 487h225l-172 -487h394l176 487h225l-172 -487h213l-39 -182h-241l-118 -331h216l-40 -181h-241l-154 -437h-234l157 437h-389l-155 -437h-236l157 437h-245zM583 614h405l125 342h-404z" />
<glyph unicode="$" horiz-adv-x="1489" d="M53.5 291.5q-18.5 75.5 1.5 169.5h260q-7 -46 4 -85t36 -67t61 -49t77.5 -32.5t87.5 -15.5l108 510q-469 50 -469 358q0 106 38.5 196t103 154t151 111t180.5 73t193 34l33 157h136l-32 -162q79 -8 148.5 -30.5t129.5 -61.5t98.5 -93.5t53.5 -126.5t-4 -160h-252 q9 58 -4.5 101.5t-47.5 69.5t-76 40.5t-97 22.5l-102 -477q63 -9 111 -18t102 -24.5t93 -34.5t76.5 -47t61 -63t37.5 -83t14 -105q0 -107 -41 -199.5t-110 -157.5t-160 -114t-188.5 -75.5t-198.5 -34.5l-33 -157h-137l33 154q-88 9 -165 31.5t-143 62.5t-108 96.5t-60.5 132 zM495 1129q0 -21 4.5 -39.5t11.5 -33t20.5 -27.5t25 -22t31 -17.5t33.5 -14t37.5 -12t37.5 -10t40 -8.5l99 460q-46 -4 -92 -16t-91.5 -35t-80 -54t-55.5 -75.5t-21 -95.5zM718 215q318 37 362 246q27 132 -67 187q-48 29 -182 56l-1 1h-1h-1h-1h-1l-2 1h-1h-1z" />
<glyph unicode="%" horiz-adv-x="2047" d="M203 1171q0 90 29.5 169t78.5 134.5t113 96t134 60t140 19.5q67 0 125 -20.5t103.5 -59t72 -100.5t26.5 -139q0 -76 -20.5 -144.5t-57 -120t-84.5 -93t-103.5 -67.5t-114.5 -40t-117 -14q-43 0 -83 9t-76.5 26.5t-66.5 45t-52 62t-34.5 79.5t-12.5 97zM358 0l1139 1618 h241l-1141 -1618h-239zM415 1201q0 -52 21 -91t55 -58t76 -20q44 0 87 17t80 48.5t60 84t23 116.5q0 85 -45.5 129t-113.5 42q-29 0 -57.5 -8t-56 -23t-51 -38.5t-41 -52.5t-27.5 -66.5t-10 -79.5zM1088 282q0 65 15 124t41.5 106t63 87t79.5 69t90.5 50t97.5 31.5t99 12.5 q67 2 127 -18t106 -59.5t73 -101.5t27 -139q0 -91 -28.5 -170.5t-77 -135.5t-112.5 -96t-134.5 -59.5t-143.5 -19.5q-66 0 -124 20.5t-102.5 60t-70.5 101t-26 137.5zM1294 315q0 -81 44.5 -126t110.5 -45q45 0 89 17.5t80 50t58 85t22 115.5q0 82 -45.5 126.5t-113.5 42.5 q-45 0 -88 -18t-78.5 -51t-57 -84.5t-21.5 -112.5z" />
<glyph unicode="&#x26;" horiz-adv-x="1487" d="M67 398q0 182 107.5 317t291.5 201q-84 47 -118 133.5t-8 191.5q18 88 69.5 165t127.5 135t180 92t220 34q236 0 332.5 -106.5t61.5 -322.5h-218q26 116 -32.5 174t-184.5 52q-151 -4 -235.5 -79.5t-84.5 -185.5q0 -95 72.5 -142.5t201.5 -47.5l-47 -218h-81 q-160 0 -266.5 -95.5t-122.5 -249.5q-8 -74 28 -130.5t102.5 -85.5t150.5 -29q151 0 249.5 85.5t132.5 234.5l103 486h389l-44 -208h-159l-61 -278q-57 -256 -230 -401.5t-429 -145.5q-97 0 -178.5 22t-140 60.5t-99.5 92t-60.5 116.5t-19.5 133z" />
<glyph unicode="'" horiz-adv-x="510" d="M254 1111l110 509h203l-141 -509h-172z" />
<glyph unicode="(" horiz-adv-x="765" d="M48.5 296.5q3.5 177.5 41 356t109 356t167 328.5t223.5 274.5t272 193.5l74 -155q-104 -61 -199.5 -167t-171 -236t-135 -282.5t-95 -306t-46.5 -306.5t5.5 -284.5t66.5 -240t130 -172.5l-117 -154q-113 69 -188.5 192.5t-107.5 274.5t-28.5 328.5z" />
<glyph unicode=")" horiz-adv-x="762" d="M-170 -329q103 64 198.5 173.5t171 242t134.5 286.5t94.5 307.5t46 305.5t-6 280t-67.5 230t-132 156l117 153q115 -68 191.5 -190t108 -273t27 -328.5t-43 -356.5t-110.5 -357.5t-168.5 -330t-223.5 -275.5t-269 -193z" />
<glyph unicode="*" horiz-adv-x="957" d="M247 1321l89 169l214 -88l40 241h187l-68 -241l249 93l18 -172l-247 -66l128 -202l-174 -108l-104 206l-190 -208l-122 113l210 194z" />
<glyph unicode="+" horiz-adv-x="1091" d="M139 745l44 204h319l68 317h210l-67 -317h316l-44 -204h-316l-68 -317h-210l68 317h-320z" />
<glyph unicode="," horiz-adv-x="587" d="M20 -220l88 192q-82 24 -82 112q0 73 54 119.5t130 46.5q44 0 74 -18t42 -48t7 -69t-28 -80l-141 -255h-144z" />
<glyph unicode="-" horiz-adv-x="1078" d="M146 662l46 217h780l-47 -217h-779z" />
<glyph unicode="." horiz-adv-x="589" d="M26 90q0 73 57 122t132 49q57 0 92 -32.5t35 -87.5q0 -72 -57 -120.5t-132 -48.5q-57 0 -92 32.5t-35 85.5z" />
<glyph unicode="/" horiz-adv-x="1205" d="M-55 2l1126 1618h260l-1130 -1618h-256z" />
<glyph unicode="0" horiz-adv-x="1519" d="M125 293.5q-25 103.5 3 234.5l119 560q22 102 72 191t119 155.5t154.5 114.5t181.5 72t196 24q124 0 225 -38t167.5 -110t91.5 -175.5t-3 -233.5l-120 -560q-27 -128 -96.5 -234t-166 -176.5t-213.5 -109.5t-241 -39q-126 0 -228.5 38.5t-169 110.5t-91.5 175.5zM371 444 q-2 -114 72.5 -175t202 -61t230.5 61t156 175q40 86 54 153l102 419q20 83 20 152q2 116 -72.5 178.5t-200.5 62.5q-128 0 -233.5 -62.5t-157.5 -178.5q-28 -62 -54 -152l-101 -419q-18 -64 -18 -153z" />
<glyph unicode="1" horiz-adv-x="1015" d="M-35 0l44 208h296l255 1199h-259l46 213h519l-301 -1412h301l-44 -208h-857z" />
<glyph unicode="2" horiz-adv-x="1276" d="M-37 0l11 58l815 830q46 45 84 97t63 104t37.5 102.5t7 94t-27 76.5t-66.5 52t-110 19q-77 0 -141.5 -32t-109.5 -92t-67 -143h-218q35 154 113 258.5t197 158.5t277 55q116 0 201.5 -36.5t131 -98.5t56.5 -147t-14 -179.5t-88.5 -198.5t-160.5 -201l-530 -554h669 l-47 -223h-1083z" />
<glyph unicode="3" horiz-adv-x="1327" d="M53 455h227q-13 -119 57.5 -184t199.5 -65q110 0 198 47.5t138 131.5t50 189q0 65 -25.5 114.5t-69 79t-100.5 44.5t-120.5 14t-128.5 -16l11 47l482 543h-652l46 218h1025l-9 -42l-534 -604q162 -8 248.5 -107.5t86.5 -255.5q0 -125 -51.5 -241t-141.5 -203.5 t-220.5 -140t-279.5 -52.5q-110 0 -199 33t-148 94t-83.5 152.5t-6.5 203.5z" />
<glyph unicode="4" horiz-adv-x="1371" d="M-7 340l25 121l1014 1159h275l-227 -1060h158l-46 -220h-158l-71 -340h-245l71 340h-796zM354 550h496l75 360l100 395h-5z" />
<glyph unicode="5" horiz-adv-x="1341" d="M75 446h240q-30 -249 248 -249q49 0 97.5 12t95.5 38t85.5 63.5t68 91.5t41.5 119q21 104 -3 176.5t-87 106t-136 49t-174 8t-176.5 -19t-166.5 -31.5l174 810h956l-49 -227h-736l-76 -359q107 24 221 24q91 0 168 -15t142 -47.5t110.5 -81t71 -119t25.5 -159.5 q0 -145 -52.5 -268.5t-145 -210.5t-224 -136t-286.5 -49q-109 0 -196.5 32t-145.5 92t-82.5 150t-7.5 200z" />
<glyph unicode="6" horiz-adv-x="1380" d="M51 407q0 226 190 445l657 777h299l-530 -629q74 40 152 40q212 0 338 -110t126 -307q0 -124 -39 -229t-107.5 -181t-161 -129.5t-200.5 -80t-225 -26.5q-109 0 -200 27.5t-158 80.5t-104 135t-37 187zM320 453q-5 -117 67 -182t201 -65q114 0 208 44t152 130t61 199 q5 118 -67.5 183.5t-201.5 65.5q-115 0 -209 -45t-151 -131.5t-60 -198.5z" />
<glyph unicode="7" horiz-adv-x="1219" d="M55 0l924 1391h-754l48 229h1120l-9 -39l-1055 -1581h-274z" />
<glyph unicode="8" horiz-adv-x="1433" d="M67 400q0 173 106 306t282 206q-58 40 -91 105t-33 142q0 97 45.5 186t123.5 155t189.5 105.5t235.5 39.5q98 0 178.5 -27t133.5 -74t81.5 -111t28.5 -139q0 -125 -72.5 -220.5t-194.5 -161.5q99 -51 154 -142t55 -207q0 -118 -55 -226t-149.5 -188t-228.5 -127.5 t-284 -47.5q-95 0 -176 21t-141 59.5t-103 91.5t-64 117.5t-21 136.5zM338 442q0 -110 78 -175.5t204 -65.5q78 0 151.5 25.5t130 70t91 110t34.5 139.5q0 114 -79 180.5t-206 66.5q-106 0 -198 -44t-149 -125.5t-57 -181.5zM567 1175q0 -82 61.5 -132t157.5 -50 q83 0 154 31.5t115 91t44 134.5q0 54 -27.5 96t-77 64.5t-113.5 22.5q-81 0 -153 -32.5t-116.5 -92.5t-44.5 -133z" />
<glyph unicode="9" horiz-adv-x="1380" d="M162 1011q0 123 38.5 228t106.5 181t160 130t200.5 80.5t226.5 26.5q109 0 200 -28t158 -80.5t104 -135t37 -187.5q0 -126 -45.5 -229t-150.5 -222l-653 -775h-294l541 636q-78 -42 -162 -42q-136 0 -242.5 52t-165.5 147t-59 218zM433 1055q-5 -118 67.5 -183.5 t201.5 -65.5q85 0 160 26.5t131 74.5t90.5 119.5t38.5 156.5q5 116 -68 180.5t-200 64.5q-115 0 -209 -44t-151.5 -130t-60.5 -199z" />
<glyph unicode=":" horiz-adv-x="607" d="M31 90q0 73 57 122t132 49q57 0 92 -32.5t35 -87.5q0 -72 -57.5 -120.5t-132.5 -48.5q-56 0 -91 32.5t-35 85.5zM188 835q0 73 57 122.5t132 49.5q58 0 92.5 -32.5t34.5 -88.5q0 -73 -55.5 -120.5t-130.5 -47.5q-58 0 -94 32t-36 85z" />
<glyph unicode=";" horiz-adv-x="610" d="M26 -208l92 180q-83 24 -83 112q0 72 54.5 119t130.5 47q51 0 84 -26t38 -71q3 -18 -4 -51q-3 -12 -7.5 -21.5t-10.5 -21.5t-10 -22q-17 -31 -61 -114.5t-70 -130.5h-153zM192 837q0 72 55.5 118.5t129.5 46.5q55 0 91 -32t36 -84q0 -72 -56 -119t-130 -47 q-55 0 -90.5 32.5t-35.5 84.5z" />
<glyph unicode="&#x3c;" horiz-adv-x="1241" d="M108 706l40 188l1044 411l-48 -225l-720 -281l599 -289l-47 -223z" />
<glyph unicode="=" horiz-adv-x="1248" d="M113 435l46 212h924l-46 -212h-924zM206 872l44 208h923l-44 -208h-923z" />
<glyph unicode="&#x3e;" horiz-adv-x="1244" d="M108 287l47 223l724 291l-601 279l49 225l867 -411l-41 -188z" />
<glyph unicode="?" horiz-adv-x="1172" d="M194 1173q28 113 83.5 200.5t131 143t166 84t191.5 28.5q125 4 223.5 -38.5t154 -123t55.5 -184.5q0 -73 -28 -163q-19 -55 -49.5 -105t-65.5 -87.5t-76 -77t-80.5 -73.5t-79.5 -77t-72 -88t-58.5 -106t-39.5 -131h-264q16 91 47 167t70.5 130t85 100.5t92.5 86t89 77.5 t80 85t60 99q23 72 19 123.5t-34 85t-74.5 49t-102.5 15.5q-91 0 -177.5 -60t-121.5 -160h-225zM303 88q0 73 55 118.5t132 45.5q38 0 66 -14t44 -40t16 -61q0 -71 -55 -119.5t-130 -48.5q-57 0 -92.5 33t-35.5 86z" />
<glyph unicode="@" horiz-adv-x="2091" d="M52.5 301q4.5 118 37.5 249q53 210 164 385t264.5 299t349.5 192.5t412 68.5q169 0 304.5 -42.5t228 -123t146 -195t58 -259t-35.5 -315.5q-44 -166 -133 -303t-208 -217t-242 -80q-100 0 -135.5 59t-8.5 160l9 33q-75 -109 -190 -172.5t-236 -65.5q-97 0 -173 30 t-123 83.5t-71 126t-23 158t25 178.5q25 94 67 176t97 146t122 114t142.5 82.5t157.5 48.5t168 14q111 0 235 -49t191 -122l-164 -664q-21 -71 -15.5 -112t45.5 -43q50 0 100.5 39.5t90 103t70 135t47.5 141.5q68 257 19 430t-202.5 261.5t-401.5 88.5q-175 0 -336.5 -58 t-290.5 -162t-224.5 -250t-144.5 -320q-31 -114 -36.5 -217t11.5 -187t56 -152.5t96.5 -116t134 -75.5t166.5 -33.5t196.5 14t220.5 62.5l-37 -148q-125 -42 -243 -57.5t-218.5 -5t-187.5 46t-153.5 92t-112.5 136.5t-68 177t-17.5 215zM700 375.5q2 -40.5 15.5 -72.5 t38 -56t64.5 -37t94 -13q72 0 138.5 29.5t116 79t86 111t54.5 129.5l75 296q-79 71 -236 74q-55 -2 -108.5 -17.5t-103 -46t-91 -73t-73.5 -101.5t-48 -128q-13 -48 -18.5 -91t-3.5 -83.5z" />
<glyph unicode="A" horiz-adv-x="1621" d="M-134 0l6 35l1091 1597h125l405 -1597l-7 -35h-269l-88 336h-745l-229 -336h-289zM521 563h569l-148 647z" />
<glyph unicode="B" horiz-adv-x="1548" d="M60 0l345 1620h657q95 0 173 -23.5t134.5 -68.5t87.5 -115t31 -159q0 -138 -72.5 -247t-200.5 -165q95 -34 144.5 -111t49.5 -183q0 -160 -79 -285t-221.5 -194t-324.5 -69h-724zM380 236h439q91 0 163 33t114.5 97t42.5 150q0 95 -49 144q-19 17 -42.5 27.5t-51.5 15.5 t-51.5 6.5t-56.5 1.5h-409zM528 930h370q94 0 164.5 28.5t112.5 91t42 153.5t-58.5 137.5t-162.5 46.5h-371z" />
<glyph unicode="C" horiz-adv-x="1760" d="M120 643q0 128 29.5 247.5t83.5 217.5t128 183t164 148.5t190.5 108.5t208.5 67.5t217 22.5q98 0 187 -20.5t166.5 -64.5t134.5 -107t91.5 -152.5t37.5 -196.5h-254q-7 77 -42.5 135.5t-93 93t-128 51t-152.5 16.5q-142 0 -268.5 -54.5t-217.5 -148.5t-146.5 -223 t-62.5 -273v-23q0 -121 47 -217q52 -106 156 -165.5t244 -59.5q171 0 318 83.5t233 240.5h263q-48 -121 -121.5 -217.5t-158.5 -161.5t-184.5 -108.5t-198.5 -62.5t-202 -19q-143 0 -265 45t-212 128.5t-141 208.5t-51 277z" />
<glyph unicode="D" horiz-adv-x="1691" d="M60 0l345 1618h580q90 0 170.5 -17.5t145 -50t118 -78t92.5 -101.5t65.5 -121t39.5 -136t13 -147q0 -121 -30 -240t-87 -226.5t-143.5 -199t-193 -158.5t-243 -105t-287.5 -38h-585zM382 245h312q82 0 159 19.5t142.5 54.5t122 83.5t100 108t75 126.5t47.5 140.5 t16 147.5q0 77 -13.5 142t-45 122.5t-79.5 98t-121.5 64t-166.5 23.5h-310z" />
<glyph unicode="E" horiz-adv-x="1330" d="M60 0q216 1031 345 1620h986l-51 -236h-715l-91 -428h676q-36 -162 -51 -238h-675l-100 -473h729l-53 -245h-1000z" />
<glyph unicode="F" horiz-adv-x="1272" d="M60 0l345 1620h977l-51 -236h-708l-109 -516h643l-51 -239h-643l-134 -629h-269z" />
<glyph unicode="G" horiz-adv-x="1778" d="M126 462q-15 69 -15 145q0 96 23 205q33 152 104.5 285t169 231.5t215 169.5t246.5 107t260 36q99 0 186.5 -18t163.5 -57.5t132.5 -98t92 -143t43.5 -189.5h-252q-15 62 -43 108.5t-64.5 75.5t-86.5 47t-104.5 25t-122.5 7q-126 0 -239 -45t-198 -122t-146 -180 t-89 -220q-13 -53 -18 -105q-5 -42 -5 -83q0 -12 1 -23q1 -53 13 -102t33 -94t55 -81.5t78 -63.5t105 -41.5t133 -14.5q107 0 203.5 26t181.5 79t152 139t108 200h-505l44 208h759q-15 -85 -32.5 -153t-47.5 -143.5t-70 -143.5q-90 -150 -223 -254t-282.5 -152.5 t-311.5 -48.5q-166 0 -302 56.5t-224.5 164t-120.5 261.5z" />
<glyph unicode="H" horiz-adv-x="1681" d="M60 0l345 1620h268l-139 -650h741l139 650h271l-345 -1620h-271l153 722h-741l-152 -722h-269z" />
<glyph unicode="I" horiz-adv-x="957" d="M-53 0l46 218h257l252 1187h-235l45 215h741l-46 -215h-236l-252 -1187h256l-46 -218h-782z" />
<glyph unicode="J" horiz-adv-x="1462" d="M32 302q-10 47 -10 101q0 64 15 136l40 183h250l-38 -178q-9 -46 -9 -85q0 -96 54 -156q77 -85 233 -85q103 0 188 37t144.5 111.5t81.5 177.5l178 843h-342l51 233h611l-229 -1081q-37 -174 -140.5 -301.5t-255.5 -194t-338 -66.5q-127 0 -228.5 38t-166.5 110.5 t-89 176.5z" />
<glyph unicode="K" horiz-adv-x="1575" d="M60 0l345 1620h271l-153 -717q118 0 196.5 7t130.5 32q24 12 47.5 31.5t47 50.5t41 57t41.5 71.5t38 72.5t40 80q7 14 10 22q22 46 47 84.5t56 74.5t66.5 62.5t79.5 46.5t94 29q45 8 97 8h12q60 -1 127 -14l-40 -185q-31 2 -58 2q-7 -1 -13 -1q-32 0 -60 -7.5t-51 -20 t-44 -34.5t-40.5 -52t-40.5 -72q-34 -67 -54.5 -105.5t-53 -93.5t-59.5 -91.5t-62.5 -75t-73.5 -67.5l367 -775l-9 -40h-278l-321 711q-83 -28 -326 -28l-146 -683h-271z" />
<glyph unicode="L" horiz-adv-x="1191" d="M60 0l345 1620h271l-294 -1377h696l-51 -243h-967z" />
<glyph unicode="M" horiz-adv-x="1917" d="M60 0l345 1625h92l475 -839l850 839h99l-345 -1625h-271l225 1014l-605 -599h-37l-342 599l-215 -1014h-271z" />
<glyph unicode="N" horiz-adv-x="1732" d="M60 0l345 1625h97l755 -1113l85 517l125 591h269l-345 -1622h-93l-761 1124l-86 -534l-124 -588h-267z" />
<glyph unicode="O" horiz-adv-x="1873" d="M120 638q0 153 41 292t113 248.5t170 198.5t212 148t239.5 91t252.5 32q143 0 265.5 -46t212 -130.5t140.5 -211.5t51 -281q0 -144 -37 -277.5t-104 -243.5t-162 -201t-208 -154t-246 -97t-274 -34q-142 0 -264 45.5t-211.5 129.5t-140 210.5t-50.5 280.5zM396 683v-22 q0 -202 106 -315q112 -119 308 -119q90 0 178.5 22t169 63t149.5 103.5t121 139t82.5 174.5t33.5 206v12q0 99 -30 181q-32 88 -91 146t-139 90t-173 32q-90 0 -177.5 -22t-166 -63t-145.5 -104t-116.5 -140t-78.5 -176t-31 -208z" />
<glyph unicode="P" horiz-adv-x="1517" d="M60 0l345 1620h671q76 0 141.5 -14.5t115 -42t89 -66.5t64 -87t40.5 -104q14 -57 16 -120q0 -11 1 -22q0 -53 -6 -109q-14 -115 -70 -218.5t-143 -181.5t-208.5 -123.5t-258.5 -45.5h-422l-104 -486h-271zM479 722h405q105 0 196 55.5t144 147.5t53 197q0 56 -13 100.5 t-41 81.5t-78 58.5t-120 24.5h-405z" />
<glyph unicode="Q" horiz-adv-x="1869" d="M120 647q0 141 37 272.5t103 241t161 201.5t207.5 155t245 98t272.5 35q142 0 264.5 -46t212.5 -130t141 -211t51 -282q0 -197 -79 -373.5t-223 -320.5l110 -261l-10 -42h-246l-62 146q-247 -150 -511 -150h-14q-142 0 -263.5 47.5t-209 133t-137.5 211.5t-50 275z M398 685q0 -218 112.5 -337t311.5 -119q109 0 212.5 29.5t195 89t160.5 143t109 200t40 251.5q0 217 -117.5 336.5t-315.5 119.5q-105 0 -208 -31.5t-193 -93.5t-159 -146.5t-108.5 -199t-39.5 -242.5z" />
<glyph unicode="R" horiz-adv-x="1586" d="M60 0q59 272 172.5 810.5t172.5 809.5h669q122 0 216 -40t148.5 -111t77.5 -164q16 -63 16 -133q0 -33 -4 -68q-7 -82 -43 -163t-93 -148.5t-138.5 -117.5t-173.5 -68l311 -567l-4 -40h-272l-300 565h-364l-120 -565h-271zM493 786h401q100 0 186 48t137 131t51 181 q0 107 -66 174t-182 67h-400q-23 -108 -65 -308t-62 -293z" />
<glyph unicode="S" horiz-adv-x="1489" d="M58 461h264q-2 -17 -3 -33q1 -26 7 -49q10 -38 32 -64.5t54 -47t72.5 -33t83.5 -18.5t90 -6q55 0 106.5 7t106 24.5t96.5 45.5t74.5 73t44.5 103q5 26 5 48q0 32 -10 58q-18 45 -46.5 69.5t-89.5 41.5t-100 22.5t-113 12.5h-1q-506 51 -506 378q0 110 41 203t110.5 157.5 t163 109.5t197 66t212.5 21q95 0 177.5 -17t152 -53t113.5 -92q46 -55 64 -132q9 -38 9 -81q0 -45 -10 -95h-254q3 18 3 34q0 30 -10 56q-14 40 -43.5 65.5t-72 42.5t-87.5 24t-95 7q-53 0 -106.5 -9t-107 -30t-94 -52.5t-66 -81t-25.5 -109.5q0 -31 10 -56.5t25.5 -43.5 t42 -32.5t51.5 -23.5t62 -16.5t65.5 -11.5t70.5 -8q58 -7 106 -15t100 -20.5t92.5 -27.5t80 -37t68 -48.5t50.5 -62.5q23 -34 33 -76q10 -40 9 -90q0 -56 -14 -118q-18 -86 -59 -157.5t-98.5 -122t-126 -88.5t-146.5 -59.5t-154.5 -32.5t-155.5 -11h-19q-84 -1 -164 15 q-88 18 -164.5 58t-128.5 97q-51 57 -73 140q-11 43 -12 90q0 44 10 92z" />
<glyph unicode="T" horiz-adv-x="1276" d="M188 1382l50 238h1204l-51 -238h-470l-294 -1382h-263l294 1382h-470z" />
<glyph unicode="U" horiz-adv-x="1630" d="M159 303q-14 52 -13.5 112.5t13.5 128.5l230 1076h269l-227 -1070q-11 -49 -10 -91q-1 -27 3 -51q12 -62 48.5 -103.5t95.5 -63t136 -21.5q78 0 151 22t134 63t105.5 104.5t62.5 140.5l227 1070h266l-230 -1076q-57 -271 -254 -417.5t-493 -146.5q-132 0 -238.5 37 t-177.5 109t-98 177z" />
<glyph unicode="V" horiz-adv-x="1543" d="M220 1581l9 39h287l111 -560l82 -599h6l347 588l356 571h289l-9 -39l-1018 -1595h-110z" />
<glyph unicode="W" horiz-adv-x="2253" d="M241 1581l9 39h280l58 -546l46 -584h4l623 1102h121l155 -1099h4l290 581q87 178 284 546h285q-1 -3 -4.5 -16.5t-4.5 -22.5l-878 -1592h-138l-172 1038h-4l-611 -1038h-148z" />
<glyph unicode="X" horiz-adv-x="1491" d="M-115 0l7 37l737 820l-351 724l9 39h280l127 -297l118 -303h7l252 311l250 289h297l-10 -39l-654 -724l384 -820l-7 -37h-273l-153 351l-132 332h-9l-269 -325l-310 -358h-300z" />
<glyph unicode="Y" horiz-adv-x="1453" d="M208 1581l10 39h277l139 -361l116 -373h9l285 384l285 350h298l-9 -39l-766 -923l-139 -658h-269l139 658z" />
<glyph unicode="Z" horiz-adv-x="1378" d="M-93 0l7 37l729 866l426 481h-798l51 236l1178 -2l-10 -39l-843 -1005l-309 -336h872l-51 -238h-1252z" />
<glyph unicode="[" horiz-adv-x="726" d="M-53 -424l465 2190h458l-44 -207h-221l-373 -1756h221l-48 -227h-458z" />
<glyph unicode="\" horiz-adv-x="1161" d="M261 1620h262l437 -1618h-258z" />
<glyph unicode="]" horiz-adv-x="726" d="M-141 -424l48 227h223l372 1756h-222l44 207h458l-464 -2190h-459z" />
<glyph unicode="^" horiz-adv-x="1232" d="M179 947l557 682h183l271 -682h-214l-185 462l-376 -462h-236z" />
<glyph unicode="_" horiz-adv-x="1422" d="M-46 -236l46 216h1129l-46 -216h-1129z" />
<glyph unicode="`" horiz-adv-x="777" d="M510 1559l4 24l250 88l111 -340l-5 -26h-210z" />
<glyph unicode="a" horiz-adv-x="1383" d="M52 418q2 74 19 154q42 182 149 312t259 194q145 61 320 61h16q234 0 446 -105l-148 -701q-1 -7 -4 -20q-7 -45 -9.5 -77.5t21.5 -47.5q17 -11 51 -11q13 0 29 2l-37 -172q-44 -9 -82 -11q-16 -1 -31 -1q-22 1 -44 3q-37 4 -63 15.5t-46 33t-24 55.5q-1 12 -1 26 q0 24 4 53l9 46q-70 -114 -189 -178.5t-246 -64.5q-84 0 -152 21.5t-114.5 60.5t-77.5 93q-31 53 -44 119q-11 57 -11 120v20zM308 430q2 -66 21 -116t67.5 -78t122.5 -28q139 0 250 98.5t150 253.5l69 328q-95 47 -224 47q-163 0 -280 -93.5t-160 -269.5q-17 -70 -17 -132 q1 -5 1 -10z" />
<glyph unicode="b" horiz-adv-x="1336" d="M31 75l340 1603h234l-154 -731q82 101 179 144.5t224 43.5q96 0 175 -35.5t135.5 -107.5t71.5 -182q5 -35 5 -75q0 -84 -22 -187q-27 -118 -81.5 -215.5t-126.5 -165t-161 -113.5q-90 -46 -186 -66q-88 -19 -180 -19h-18q-216 0 -435 106zM310 227q113 -48 224 -48 q107 0 192.5 39.5t148 123.5t90.5 206q16 69 16 126q0 86 -35 146q-59 102 -204 101q-49 0 -94.5 -15.5t-81.5 -43.5t-67 -64t-54 -78t-39.5 -85t-25.5 -87z" />
<glyph unicode="c" horiz-adv-x="1305" d="M58 446q0 112 30.5 211.5t83 175t123 136.5t152 99.5t167.5 59t170 20.5q60 0 116 -11.5t105.5 -33.5t90.5 -56.5t71 -78.5t47.5 -101t19.5 -122h-229q-3 27 -12.5 50.5t-24.5 41.5t-35 32.5t-43 24.5t-48 16.5t-50.5 9.5t-51.5 3q-51 0 -101 -12.5t-96 -36.5 t-86.5 -61.5t-71 -84.5t-50 -108.5t-23.5 -131.5q-1 -13 -1 -26q0 -120 69 -188q76 -75 203 -75q99 0 194.5 52t150.5 151h252q-33 -89 -85.5 -161t-116 -120t-138 -80.5t-148.5 -46.5t-151 -14t-148.5 18.5t-132.5 56.5t-106 93t-70.5 131.5t-25.5 166.5z" />
<glyph unicode="d" horiz-adv-x="1394" d="M52 418q2 74 19 154q16 77 45 149.5t69.5 137.5t94 119.5t116 94.5t137.5 62t156 22q124 0 208.5 -44t120.5 -128l153 718h236l-305 -1434q-3 -15 -3 -27q0 -30 17 -46q19 -18 61 -18q11 0 24 1l-37 -172q-44 -9 -82 -11q-16 -1 -31 -1q-22 1 -44 3q-37 4 -63 15.5 t-46 33t-24 55.5q-1 12 -1 26q0 24 4 53l9 46q-70 -114 -189 -178.5t-246 -64.5q-83 0 -150.5 21.5t-114 60.5t-78.5 93q-30 53 -44 119q-12 57 -12 121v19zM298 405q8 -60 36 -100t69 -61t92 -24h19q82 0 160 40q86 45 147 123.5t89 174.5q14 48 19 94q3 27 3 53 q0 19 -2 37q-4 44 -19.5 80.5t-41.5 64.5t-67.5 44t-95.5 16q-55 0 -105.5 -16t-91 -44.5t-75 -66.5t-59.5 -83t-42.5 -93t-27.5 -98q-10 -54 -10 -99q1 -22 3 -42z" />
<glyph unicode="e" horiz-adv-x="1244" d="M77 588q25 115 75.5 208.5t116.5 156t147.5 105.5t167 63t178.5 23h18q64 0 124 -12q69 -14 128 -45t99 -76.5t55 -106.5q7 -28 6 -58q0 -37 -9 -78q-16 -68 -52.5 -123.5t-84.5 -93.5t-109 -64.5t-124 -39t-130 -14.5q-17 -1 -33 -1q-90 0 -176 23q-102 27 -171 75 q-11 -49 -11 -92q0 -58 20 -104q36 -80 120 -118q77 -35 186 -35h23q93 0 195.5 23t190.5 59l-36 -199q-65 -29 -137.5 -47.5t-133.5 -26t-139 -10.5h-31q-274 0 -402 152q-91 109 -92 280q0 81 21 176zM358 698q46 -40 136 -64q86 -23 170 -23h7q31 0 63 5.5t65.5 18 t61 30.5t48.5 45t30 61q9 28 5.5 51t-13 41t-27.5 31.5t-38.5 23t-45.5 15.5t-49 9t-49 3q-120 -2 -216 -64t-148 -183z" />
<glyph unicode="f" horiz-adv-x="929" d="M-223 -581l29 190q35 -5 64.5 -5.5t54 3t44.5 12.5t36.5 20.5t30.5 29.5t24.5 38t20 46.5t17 54t15.5 62.5l225 1051h-234l40 190h238l33 150q22 107 64.5 190t99 134.5t124 82t144.5 36.5q28 3 56 3q50 0 101 -7q79 -12 162 -41l-64 -175q-55 25 -110 34q-27 5 -54 5 t-54 -5q-53 -9 -97.5 -37.5t-78.5 -86t-50 -137.5l-31 -146h375l-39 -190h-378l-225 -1053q-60 -284 -198 -390q-96 -73 -244 -73q-65 0 -141 14z" />
<glyph unicode="g" horiz-adv-x="1339" d="M-64 -484l71 211q56 -34 119.5 -59.5t133 -40t136.5 -15.5h4q66 0 129 20q65 20 118.5 59t95.5 108.5t63 163.5l46 218q-69 -102 -175.5 -153t-234.5 -51q-96 0 -175.5 35.5t-136 107.5t-72.5 182q-6 38 -6 82q0 80 19 176q27 120 81 216.5t125 163.5t160 112t186 66 t203 21q223 0 435 -105l-227 -1071q-27 -123 -81 -223t-125.5 -166.5t-157.5 -110.5t-180 -59q-65 -10 -131 -10q-29 0 -57 2q-96 6 -189.5 37t-176.5 83zM304 412q3 -67 24.5 -115.5t68.5 -75.5t117 -27q42 0 83 11.5t76.5 32t68.5 48.5t60 60.5t49 68.5t37.5 73t23.5 72 l73 319q-96 51 -219 51q-49 0 -96 -10.5t-91.5 -30.5t-84 -51t-72.5 -71.5t-59 -93t-41 -113.5q-18 -71 -18 -132v-16z" />
<glyph unicode="h" horiz-adv-x="1389" d="M20 0l360 1689h252l-153 -713q147 160 367 160q14 0 29 -1q123 0 210 -50.5t123 -138.5q24 -58 25 -125q0 -35 -7 -73l-82 -436q-5 -20 -8 -34t-4.5 -28t-0.5 -23.5t3.5 -18.5t8.5 -14.5t15 -9.5t22 -5.5t29.5 -1.5t38.5 2l-36 -174q-78 -11 -138 -11q-98 0 -148 30 q-62 36 -62 129q0 30 6 65l95 520q3 20 3 38q0 43 -16 74q-22 45 -70 66t-123 21q-122 0 -222.5 -81.5t-127.5 -212.5l-136 -643h-253z" />
<glyph unicode="i" horiz-adv-x="580" d="M23 0l234 1104h253l-234 -1104h-253zM303 1431q0 55 29.5 97t71 61t86.5 19q34 0 61.5 -12t46 -39.5t18.5 -66.5q0 -55 -29.5 -97.5t-71.5 -62.5t-87 -20q-52 0 -88.5 31.5t-36.5 89.5z" />
<glyph unicode="j" horiz-adv-x="578" d="M-360 -581l48 190q35 -5 64.5 -5.5t54 3t45 12.5t37 20.5t30 29.5t24.5 38t20.5 46.5t17 54t14.5 62.5l264 1241h251l-265 -1243q-60 -282 -209 -389q-103 -74 -254 -74q-66 0 -142 14zM303 1431q0 55 28.5 97t69.5 61t87 19q35 0 62.5 -12t45.5 -39t18 -67 q0 -42 -17.5 -77t-44.5 -57t-59.5 -34t-64.5 -12q-34 0 -62 12.5t-45.5 40.5t-17.5 68z" />
<glyph unicode="k" horiz-adv-x="1258" d="M20 0l360 1692h249l-214 -1012h115q384 0 475 438h238q-17 -94 -47.5 -173t-78 -150.5t-119 -128t-163.5 -94.5l229 -546l-4 -26h-243l-203 490q-47 -11 -130 -11h-111l-102 -479h-251z" />
<glyph unicode="l" horiz-adv-x="661" d="M73 234q2 70 22 164l276 1296h249l-275 -1294q-9 -47 -9 -82q0 -18 2 -34q8 -44 35.5 -63t71.5 -21h13q40 0 90 10l-38 -217q-91 -14 -159 -15h-9q-62 0 -114 12q-54 14 -88 45t-52 80q-16 44 -15 105v14z" />
<glyph unicode="m" horiz-adv-x="2109" d="M60 0l163 762q0 1 1 5q19 73 19 116q-1 22 -5 37q-12 37 -81 37q-13 0 -27 -1l34 164q58 15 110 19q16 1 30 1q36 0 68 -6q46 -10 77 -33t43 -65q6 -22 7 -48q0 -25 -6 -53q73 99 187.5 151.5t233.5 52.5q113 -2 184 -54.5t92 -156.5q58 72 136.5 122t158.5 72t163 22 q87 0 149 -27t95.5 -71t47.5 -108q10 -49 10 -102q0 -16 -1 -31q-4 -69 -21 -150l-77 -357q0 -1 -1 -3q-4 -20 -5.5 -30t-3.5 -26.5t-1 -24.5t3.5 -19.5t8.5 -16.5t15 -11.5t22.5 -8t31.5 -2t42 2.5l-35 -154q-74 -17 -134 -19h-14q-51 0 -93 13q-47 15 -73 49 q-26 32 -34 86q-2 16 -2 35q0 42 12 94l84 392q12 55 12 101q0 61 -22 105q-39 76 -146 76q-117 0 -204 -79t-115 -211l-139 -647h-248l139 647q12 56 12 101q-1 64 -25 110q-42 76 -156 77q-118 0 -210.5 -80.5t-120.5 -211.5l-136 -643h-255z" />
<glyph unicode="n" horiz-adv-x="1422" d="M58 0l165 775q1 9 5 25q16 62 16 98q0 22 -5 34q-12 28 -75 28q-15 0 -32 -2l32 162q58 13 110 16h19q41 0 77 -9q44 -11 72 -35q29 -24 41 -64q6 -21 6 -45q0 -22 -5 -48q71 101 186 153.5t240 52.5q90 0 158.5 -23t110.5 -64q41 -42 65 -102q23 -58 23 -128 q0 -73 -17 -160l-86 -397q-6 -26 -6 -45q0 -29 14 -43q16 -17 63 -17q17 0 37 2l-34 -159q-43 -9 -80 -13t-72.5 -4t-63 6.5t-51 19.5t-38.5 34t-23 50q-7 26 -7 60v9q1 40 11 90l84 398q8 39 8 74q0 42 -12 77q-22 65 -74.5 98t-128.5 33q-121 0 -217.5 -78t-124.5 -212 l-139 -647h-252z" />
<glyph unicode="o" d="M60 444q0 134 41 250t111.5 198t163.5 140q92 58 198 86q98 26 200 26h15q55 -2 107 -12t100 -29.5t89.5 -47.5t75.5 -66t58.5 -84t37.5 -104t13 -123q0 -133 -42 -248.5t-114 -198t-166 -140.5q-94 -57 -198 -85q-97 -26 -197 -26h-14q-77 2 -146.5 20.5t-130.5 56.5 t-106 91.5t-70.5 129.5t-25.5 166zM318 486q-2 -18 -2 -35q0 -51 16 -93q20 -56 59.5 -90.5t90.5 -52.5t108 -18q58 0 114.5 16t109 51t93.5 85t68 123.5t32 161.5q1 12 1 24q0 60 -18 108q-20 56 -59 90t-89.5 50.5t-110.5 16.5q-73 0 -142 -28.5t-126.5 -82t-96.5 -138 t-48 -188.5z" />
<glyph unicode="p" horiz-adv-x="1394" d="M-67 -570l279 1318q3 11 7 33q8 41 11 61t3.5 49.5t-9 41.5t-30.5 20t-55 3l37 171q43 8 81 11q16 1 32 1l44 -3q38 -3 65 -15t48 -33.5t25 -54.5q1 -10 1 -22q0 -25 -6 -57l-11 -42q70 113 188 175.5t245 62.5q101 0 179 -35.5t126.5 -98.5t73.5 -144t25 -176 q0 -113 -30 -222t-87.5 -201.5t-135 -161.5t-179.5 -105q-91 -33 -190 -33q-13 0 -27 1q-223 12 -323 183l-154 -727h-233zM407 470q0 -48 8 -89.5t26 -77.5t44 -61.5t64 -39.5t85 -14q75 0 139.5 26t111.5 70.5t80.5 103t50 125t16.5 134.5q0 61 -12.5 110t-39 87t-71 58.5 t-103.5 20.5q-87 0 -162 -37t-126.5 -99t-81 -144.5t-29.5 -172.5z" />
<glyph unicode="q" horiz-adv-x="1339" d="M58 302q-6 39 -6 84q0 79 19 174q25 119 79 216.5t126 164t162 112t186 66t200 20.5q224 0 439 -105l-340 -1604h-234l161 753q-120 -206 -406 -206q-96 0 -175.5 35.5t-136.5 107.5t-74 182zM320 560q-18 -79 -18 -143q0 -78 28 -131q50 -98 193 -98q72 0 140 34.5 t117.5 89.5t84.5 120t49 128l67 319q-104 51 -222 51q-163 0 -281 -94.5t-158 -275.5z" />
<glyph unicode="r" horiz-adv-x="1040" d="M55 0l172 810q1 6 3 17q8 44 9.5 73.5t-21.5 43.5q-19 11 -60 11q-9 0 -19 -1l33 170q54 12 102 14q11 1 20 1q38 0 72 -7q44 -9 73.5 -29.5t44.5 -58.5q11 -27 11 -61q0 -14 -2 -29q53 93 157 146t213 53h10q137 0 231 -79l-108 -217q-88 66 -210 66q-76 0 -146 -30 t-125 -94.5t-73 -153.5l-137 -645h-250z" />
<glyph unicode="s" horiz-adv-x="1175" d="M14 329h247q-2 -13 -2 -25q0 -27 11 -50q16 -33 48.5 -53.5t74 -31t88.5 -10.5q51 0 96 8t88 26.5t74.5 53.5t44.5 84q6 31 -2 54t-25 38.5t-48 27t-64 18t-80 12.5q-50 7 -87.5 13t-85.5 17.5t-82.5 24.5t-70 34t-57.5 46.5t-36 60.5t-14 78q0 78 32 143t86 109t126 74 t150 44t161 14q77 0 145 -13.5t123 -40.5t91 -67q35 -40 48 -94q6 -23 5 -49q0 -34 -9 -72h-222q3 14 3 27q0 22 -10 42q-16 30 -51 46t-76.5 23.5t-88.5 7.5q-65 0 -125 -19.5t-101.5 -60.5t-41.5 -94q0 -16 6 -29.5t15.5 -23.5t26.5 -18t35 -14t46 -11.5t53.5 -9.5 t63.5 -9q49 -6 86 -12.5t81 -17t75 -24t62.5 -34t50.5 -45.5t30.5 -60.5t11.5 -77.5q0 -85 -30.5 -154.5t-84 -117.5t-126.5 -81.5t-155.5 -48.5t-172.5 -15q-78 0 -144.5 10.5t-127.5 36t-101.5 65t-58.5 102.5q-10 37 -10 79q0 30 5 64z" />
<glyph unicode="t" horiz-adv-x="980" d="M97 949l35 164h226l101 345h221l-73 -345h386l-37 -181h-389l-106 -501q-13 -53 -13 -94v-13q2 -45 14.5 -76.5t38.5 -49.5t58 -26q24 -6 55 -6h20q43 2 88.5 13t99.5 29l-14 -190q-104 -30 -192 -41q-50 -6 -95 -6q-35 -1 -69 3q-76 8 -129.5 39.5t-87.5 86t-39 136.5 q-1 16 -1 32q0 70 17 158l110 506z" />
<glyph unicode="u" d="M106 470l137 645h256l-139 -645q-11 -49 -11 -91q-1 -71 31 -119q50 -77 161 -77q121 0 219.5 81.5t125.5 212.5l137 638h252l-171 -795q-15 -61 -15 -98q1 -2 1 -6q2 -38 23 -50q16 -9 51 -8q12 0 26 1l-33 -164h-2q-33 -5 -50.5 -7.5t-50.5 -5.5t-52 -2t-46.5 4.5 t-42.5 12.5t-31.5 24t-22.5 37q-7 24 -7 56q0 30 9 67q-78 -104 -195 -151.5t-247 -47.5q-332 0 -332 319q0 76 19 169z" />
<glyph unicode="v" horiz-adv-x="1330" d="M97 967l35 157q48 10 90 14q24 2 48 2q18 0 34 -2q40 -2 69 -12.5t53 -30t34.5 -49.5t13.5 -71q1 -7 1 -15q0 -36 -12 -81l-97 -407q-9 -43 -9 -81q1 -73 35 -125q52 -78 184 -78q67 0 123.5 23.5t97.5 64.5t73.5 97t52.5 120t33 134q13 71 18 139q4 57 4 112v22 q-1 66 -7 120.5t-15 97.5h250q11 -80 16 -160q3 -50 3 -104q0 -32 -1 -66q-3 -88 -14.5 -171t-36.5 -165t-60.5 -151.5t-89.5 -129t-122 -100.5t-159 -63q-80 -19 -173 -19h-25q-115 0 -204 32t-146 93q-56 62 -76 152q-9 39 -9 84q0 57 14 122q74 314 85 376q6 21 6 39 q0 14 -4 27q-7 30 -33 44q-19 10 -53 10q-12 0 -27 -1z" />
<glyph unicode="w" horiz-adv-x="1966" d="M106 970l33 154q43 8 81 12q33 4 66 4h8q36 0 64.5 -7.5t52.5 -20t39.5 -33t24.5 -48.5q9 -27 9 -62q0 -40 -12 -90l-88 -411q-9 -44 -9 -82q1 -70 31 -120q48 -78 152 -78q109 0 186 74.5t104 205.5l135 647h239l-139 -647q-11 -52 -11 -95q0 -30 6 -55q12 -62 57 -96 t117 -34q81 0 144 39t102 102.5t65.5 148.5t37 172.5t12.5 177.5q1 26 1 51q0 61 -4 111q-5 71 -13 128h243q12 -84 17 -174q2 -39 3 -82q0 -55 -4 -114q-6 -105 -25.5 -202t-59.5 -190.5t-96.5 -166t-143.5 -123.5t-195 -66q-50 -8 -96 -8q-48 0 -92 8q-87 16 -151.5 69.5 t-84.5 136.5q-71 -111 -182 -164t-237 -53q-211 1 -309 129q-68 88 -68 217q0 59 14 126l62 294l9 42q9 42 12 62t2.5 48t-11.5 39t-35 18.5t-63 5.5z" />
<glyph unicode="x" horiz-adv-x="1168" d="M-111 0l7 28l532 564l-245 496l5 27h243l90 -176l84 -189h6l160 185l168 180h253l-4 -27l-475 -512l285 -548l-7 -28h-229l-117 227l-85 208h-7l-182 -212l-214 -223h-268z" />
<glyph unicode="y" horiz-adv-x="1378" d="M-31 -486l57 197q54 -33 117 -56.5t133 -35.5q65 -11 128 -11h11q69 1 135.5 22.5t121.5 61t97.5 107.5t63.5 159l46 201q-57 -71 -115 -111t-118.5 -54t-146.5 -14q-376 0 -376 354q0 88 23 198l55 265q10 46 10 78v11q-2 34 -29 48q-19 10 -54 10q-15 0 -33 -2 q5 21 11 53.5t12.5 65t11.5 52.5q74 15 132 16h8q53 0 96 -13q46 -14 71.5 -46.5t34.5 -84.5q4 -19 4 -42q0 -38 -10 -84l-68 -325q-16 -74 -16 -133q0 -211 208 -211q69 0 127.5 30.5t97.5 76t71 109.5t49 120t30 117l99 472h250l-245 -1157q-25 -121 -78.5 -220 t-125 -164.5t-158.5 -109.5t-181 -59q-68 -11 -137 -11q-27 0 -55 2q-96 6 -189.5 36.5t-175.5 81.5z" />
<glyph unicode="z" horiz-adv-x="1078" d="M-75 0l13 51l430 507l319 352h-532l42 205h896l-7 -32l-459 -535l-296 -330h570l-47 -218h-929z" />
<glyph unicode="{" horiz-adv-x="716" d="M32.5 -176q2.5 43 13.5 95l100 470q41 212 -79 225l39 187q137 14 174 217l95 442q12 56 28.5 101t40 78t48.5 58t59 41t66 26.5t75 15.5t80.5 7t88.5 2l-39 -183q-31 0 -55 -3t-46.5 -9t-39.5 -17.5t-31 -28.5t-24 -41t-17 -56l-97 -455q-6 -27 -13.5 -51.5t-18 -50 t-23 -48.5t-29 -44.5t-35.5 -39t-42.5 -32.5t-49.5 -24q40 -18 64 -48.5t30.5 -71.5t4 -82t-13.5 -95l-101 -480q-20 -91 17.5 -121t132.5 -23l-44 -206q-48 0 -82 1t-72.5 5t-64 11.5t-52 20t-42.5 30.5t-28.5 43.5t-16 58t-1 75.5z" />
<glyph unicode="|" horiz-adv-x="596" d="M2 -192q42 206 193.5 911.5t193.5 912.5h229l-386 -1824h-230z" />
<glyph unicode="}" horiz-adv-x="718" d="M-134 -421l44 206q44 -3 76 1t59.5 19.5t45.5 46t29 77.5l103 480q47 234 221 297q-38 16 -63 47t-35 70.5t-9.5 83t10.5 89.5l97 455q6 27 6.5 48.5t-3.5 38t-13.5 28t-22 19.5t-30.5 12.5t-38.5 6.5t-46.5 2l40 183q45 0 78.5 -1.5t70.5 -5.5t63.5 -11t53 -19.5t43 -30 t30 -42t18 -56t2.5 -72.5t-12 -91l-95 -442q-4 -22 -6.5 -37.5t-4.5 -36.5t-1 -35.5t3.5 -31.5t9.5 -28.5t17 -22t26 -17t37 -8.5l-40 -187q-39 -4 -71 -26.5t-52 -56.5t-32.5 -68.5t-20.5 -73.5l-99 -470q-11 -52 -26 -95t-32.5 -75.5t-41 -58t-46.5 -43.5t-54.5 -30.5 t-60.5 -20t-69.5 -11.5t-75 -5t-82.5 -1z" />
<glyph unicode="~" horiz-adv-x="1424" d="M134 722q55 101 134.5 167t166 89.5t177 9.5t168.5 -67q32 -22 57.5 -37t59.5 -30.5t62.5 -21t62.5 -4t63.5 15.5t61 43t59.5 73l148 -81q-66 -114 -141 -180t-156.5 -82t-164.5 2.5t-174 72.5q-36 20 -63 33.5t-63 27t-64.5 17.5t-63.5 1.5t-65 -17t-63 -43t-63 -70.5z " />
<glyph unicode="&#xa1;" horiz-adv-x="598" d="M-95 -523l280 1250h257l-245 -1250h-292zM212 965q0 72 57 119t131 47q56 0 90.5 -31t34.5 -84q0 -48 -25.5 -86.5t-67.5 -59t-92 -20.5q-55 0 -91.5 31.5t-36.5 83.5z" />
<glyph unicode="&#xa2;" horiz-adv-x="1383" d="M99 444q0 85 18 163t50 142t76.5 121t97.5 100.5t113 77.5t124 56t128.5 33t128 10.5t121.5 -12.5l97 170h113l-111 -203q105 -49 164.5 -139.5t57.5 -222.5l-233 -7q-23 102 -114 148l-374 -675q54 -16 115.5 -8t118 32.5t108 72t85.5 109.5l239 -5q-30 -72 -73 -134 t-94.5 -109t-111.5 -83.5t-123 -59.5t-128 -34.5t-129 -9.5t-123 16l-98 -176h-117l113 209q-109 52 -174 160.5t-65 257.5zM356 490q0 -52 14 -99t38.5 -81t57.5 -58l371 664q-62 8 -128.5 -5t-129.5 -48t-113 -86t-80 -125.5t-30 -161.5z" />
<glyph unicode="&#xa3;" horiz-adv-x="1535" d="M-28 -2l5 25q131 98 201.5 201.5t103.5 241.5q30 121 40 261h-197l7 32h-2l29 142h195q0 120 26.5 224.5t75.5 184.5t116.5 143t150 103.5t175 61t192.5 20.5q251 4 451 -125l-127 -201q-45 35 -105 59.5t-128.5 35.5t-138.5 7q-101 -6 -177.5 -33t-126 -71t-80.5 -108.5 t-44 -137t-13 -163.5h523l-36 -174h-503q-4 -159 -46 -268q-54 -143 -127 -218q56 24 115.5 28.5t114 -6.5t105.5 -25t108.5 -26.5t102.5 -12.5q41 0 72.5 10.5t59 35.5t46.5 70.5t30 112.5h214q-22 -216 -125 -332t-292 -116q-52 0 -128.5 16t-145.5 32t-142.5 26.5 t-143 -2.5t-123.5 -54h-308z" />
<glyph unicode="&#xa4;" horiz-adv-x="1205" d="M97 463l132 109q-19 59 -19 130q0 161 112 300l-86 109l160 130l83 -104q105 60 236 60q119 0 213 -60l125 104l109 -130l-133 -109q20 -59 20 -134q0 -156 -112 -298l86 -107l-162 -130l-81 104q-105 -60 -239 -60q-123 0 -210 60l-128 -104zM417 742q0 -83 50 -127.5 t123 -42.5q45 0 89 17.5t80.5 50t59.5 83t23 110.5q0 80 -45.5 125t-116.5 47q-46 0 -91.5 -17t-84.5 -48.5t-63 -83t-24 -114.5z" />
<glyph unicode="&#xa5;" horiz-adv-x="1380" d="M164 292l37 171h313l25 122h-312l36 170h256l-243 828l6 37h290l86 -377l66 -371l234 378l245 370h290l-7 -37l-598 -828h256l-38 -170h-307l-26 -122h307l-36 -171h-308l-63 -292h-258l62 292h-313z" />
<glyph unicode="&#xa6;" horiz-adv-x="603" d="M37 -40q26 115 88.5 410t68.5 326h230l-157 -736h-230zM238 905q91 398 153 727h229l-152 -727h-230z" />
<glyph unicode="&#xa7;" horiz-adv-x="1484" d="M-7 67h248q-8 -46 9.5 -84t51.5 -62t80 -40.5t95.5 -22.5t98.5 -4q60 0 122.5 12.5t122 36.5t102 65.5t53.5 93.5q12 56 -9.5 97.5t-55 63t-98.5 36t-104 18.5t-108 8q-6 0 -10 0.5t-9.5 1t-9.5 0.5q-48 4 -91 10.5t-86 18t-78 27.5t-67 37.5t-53 49t-36 62t-16.5 75.5 t5.5 91q19 104 91.5 181t184.5 126q-157 75 -157 229q0 92 37 170t100.5 132.5t148.5 93t181 56.5t199 18q89 0 168.5 -14t148 -45.5t115 -78t65.5 -114.5t3 -151q-45 0 -122.5 -1t-122.5 -1q7 44 -7.5 79t-43.5 57t-70.5 36.5t-84 20.5t-88.5 6q-37 0 -76 -5.5t-81 -16 t-79 -29.5t-66.5 -44t-46.5 -61t-17 -78q0 -28 10 -50t32 -37.5t46.5 -26.5t63.5 -19t72 -12.5t83 -9.5q53 -5 92 -10t87.5 -12.5t83.5 -16.5t75 -22t67.5 -30t54.5 -38.5t42 -49t25 -60.5t9 -74t-12 -89q-22 -99 -89 -175t-163 -126q81 -45 115.5 -118t9.5 -186 q-23 -103 -89.5 -184.5t-162 -131.5t-209.5 -76t-239 -26q-94 0 -179.5 15t-159.5 48t-124 81.5t-72 120t-6 158.5zM400 655q0 -83 65.5 -124t192.5 -54q16 -2 59 -6.5t65 -7t55.5 -8t60.5 -11.5q52 19 95 49t76.5 73t45.5 92q11 44 -0.5 79t-40.5 58.5t-78.5 40.5t-107 26 t-133.5 15q-68 3 -123 17q-49 -18 -89 -40t-73 -51t-51.5 -66.5t-18.5 -81.5z" />
<glyph unicode="&#xa8;" horiz-adv-x="1177" d="M472 1484q0 34 15 64.5t40 51t58 32t68 11.5q54 0 88 -30.5t34 -80.5q0 -69 -54.5 -114.5t-126.5 -45.5q-26 0 -48.5 8t-38.5 22.5t-25.5 35.5t-9.5 46zM1037 1484q0 69 53.5 114t126.5 45q54 0 88.5 -30.5t34.5 -80.5q0 -69 -53.5 -114.5t-127.5 -45.5q-53 0 -87.5 31 t-34.5 81z" />
<glyph unicode="&#xa9;" horiz-adv-x="1839" d="M137 641q0 131 30.5 250t84.5 214t127.5 175t161 138t183.5 98.5t195.5 60.5t198.5 20q104 0 199 -25.5t176 -77.5t141 -126t94 -177.5t34 -225.5q0 -131 -31 -250t-85 -213.5t-128 -175.5t-162 -139t-184.5 -99t-196 -61t-198.5 -20q-86 0 -166 18t-151.5 53 t-130.5 89.5t-102 123.5t-66.5 158.5t-23.5 191.5zM329 671q0 -121 39 -218.5t107 -159t157 -93t190 -28.5q87 1 175 24t171.5 65.5t156 108.5t127.5 147.5t86.5 190t31.5 229.5q0 97 -26 179.5t-71.5 141t-107.5 99.5t-134 60.5t-151 19.5q-88 0 -177 -22.5t-173 -65 t-156.5 -109t-127 -149t-86 -191t-31.5 -229.5zM572 724q0 73 19.5 138t54 114.5t80.5 90t99 66t108.5 39t110.5 13.5q60 0 111.5 -16.5t92.5 -49t63.5 -85.5t19.5 -120l-148 -2q-8 62 -52 95t-108 33q-49 0 -98.5 -19.5t-91 -54t-67.5 -89.5t-26 -120q0 -54 21.5 -97 t60.5 -68t88 -25q70 0 130.5 33.5t98.5 103.5h153q-28 -67 -74 -122t-101 -89.5t-116 -53t-122 -18.5q-62 0 -117 19.5t-98 56t-67.5 95t-24.5 132.5z" />
<glyph unicode="&#xaa;" horiz-adv-x="1163" d="M174 470l34 164h757l-35 -164h-756zM238 1005q0 62 22.5 116t61 92.5t88.5 66t106 40.5t113 13q133 -4 223 -61q5 40 11 57q11 37 2.5 64t-25.5 45t-45.5 29.5t-57.5 16t-61 4.5q-143 0 -243 -53l-2 131q139 68 302 68q65 0 119 -10.5t99.5 -33t72 -59t37 -88 t-5.5 -120.5l-72 -338q-7 -44 4.5 -62t61.5 -13l-22 -109q-42 -7 -77.5 -9t-70.5 4t-55.5 27t-20.5 56q0 26 5 44l4 9q-52 -69 -142 -104t-182 -35q-112 0 -181 53t-69 159zM435 1037q0 -47 33 -72.5t88 -25.5q48 0 97 14.5t93 47t62 77.5l14 72q-81 53 -190 53 q-52 -3 -96 -23t-72.5 -57.5t-28.5 -85.5z" />
<glyph unicode="&#xab;" horiz-adv-x="1177" d="M144 801l446 541l137 -59l-336 -482l132 -477l-163 -61zM588 801l446 541l137 -59l-336 -482l132 -477l-161 -61z" />
<glyph unicode="&#xac;" horiz-adv-x="1302" d="M153 676l46 218h976l-124 -593h-203l77 375h-772z" />
<glyph unicode="&#xad;" horiz-adv-x="1078" d="M146 662l46 217h780l-47 -217h-779z" />
<glyph unicode="&#xae;" horiz-adv-x="1835" d="M139 647q0 132 30.5 252t84.5 214.5t128.5 175t161.5 138t184 97.5t196.5 59.5t197.5 19.5q86 0 165.5 -18t150.5 -53t129.5 -89t101 -123t66 -158t23.5 -190q0 -131 -30 -250t-84 -214t-127.5 -175.5t-160.5 -139t-183 -99t-195.5 -60.5t-197.5 -20q-104 0 -198.5 25 t-175.5 77t-140 126t-93 178t-34 227zM329 678q0 -121 39 -218t107 -157.5t155.5 -92t186.5 -31.5q87 0 176 22t173 64.5t157.5 109t128 149t86.5 191t32 230.5q0 80 -17.5 149.5t-49.5 123.5t-75.5 96.5t-97 70t-113.5 42.5t-124 17q-88 2 -178 -19.5t-175.5 -64t-160 -109 t-130.5 -150t-88 -192.5t-32 -231zM607 435l159 755h322q104 0 165 -54.5t61 -152.5t-57 -172t-158 -100l127 -250l-4 -26h-160l-115 254h-132l-56 -254h-152zM840 817h156q69 0 115 38.5t46 100.5q0 43 -29.5 70t-81.5 27h-156z" />
<glyph unicode="&#xaf;" horiz-adv-x="1153" d="M510 1411l43 205h715l-44 -205h-714z" />
<glyph unicode="&#xb0;" horiz-adv-x="1013" d="M227 1199q0 84 29 157t77 124.5t110.5 88.5t130.5 54.5t137 17.5q67 0 126 -19.5t104.5 -56t72 -94.5t26.5 -131q0 -84 -29 -157t-77.5 -124.5t-112 -88t-132.5 -54.5t-139 -18q-65 0 -123 19.5t-102.5 56t-71 95t-26.5 130.5zM415 1228q0 -77 49 -120.5t121 -43.5 q46 0 91 17t82.5 47t60.5 78.5t23 105.5q0 78 -47 120.5t-119 44.5q-46 0 -91 -16t-83.5 -45.5t-62.5 -78.5t-24 -109z" />
<glyph unicode="&#xb1;" horiz-adv-x="1197" d="M42 64l46 218h872l-46 -218h-872zM201 740l44 209h322l67 317h201l-67 -317h325l-44 -209h-325l-57 -274h-201l57 274h-322z" />
<glyph unicode="&#xb2;" horiz-adv-x="945" d="M162 786l10 42l490 488q50 47 76.5 97.5t26.5 90t-29.5 65t-85.5 25.5q-130 0 -169 -127h-163q29 139 131 218t253 79q74 0 129 -22.5t83.5 -60t36.5 -88t-5.5 -105t-47.5 -113t-86 -109.5l-308 -310h364l-37 -170h-669z" />
<glyph unicode="&#xb3;" horiz-adv-x="903" d="M185 1067h171q-7 -61 32 -95.5t109 -34.5q44 0 82 14.5t65.5 39.5t43.5 60.5t16 75.5q0 44 -23.5 74t-61.5 41.5t-85 15t-94 -5.5l6 28l274 310h-384l32 157h646l-5 -27l-305 -338q97 -13 144.5 -77.5t47.5 -154.5q0 -72 -31.5 -140t-86.5 -121.5t-136.5 -85.5 t-175.5 -32q-146 0 -224.5 79t-56.5 217z" />
<glyph unicode="&#xb4;" horiz-adv-x="700" d="M419 1292l5 24l256 341l214 -87l-8 -24l-257 -254h-210z" />
<glyph unicode="&#xb5;" horiz-adv-x="1334" d="M-90 -579q49 235 172 807.5t189 889.5h243l-141 -659q-19 -89 0 -152t71.5 -95.5t134.5 -32.5q121 0 217.5 80.5t124.5 210.5l139 648h243l-239 -1118h-242l39 188q-48 -92 -131.5 -147t-185.5 -55t-158.5 40t-78.5 120l-154 -725h-243z" />
<glyph unicode="&#xb6;" horiz-adv-x="1769" d="M146 944q20 213 149 389q149 202 382 263q88 22 182 22h899l-446 -2097h-252l398 1868h-424l-398 -1868h-250l190 891q-234 6 -349 175q-100 144 -81 357z" />
<glyph unicode="&#xb7;" horiz-adv-x="598" d="M172 803q0 75 55 123t131 48q38 0 68 -14.5t47 -41t17 -61.5q0 -73 -57.5 -122.5t-134.5 -49.5q-22 0 -42 5.5t-35.5 15.5t-26.5 24.5t-16.5 33t-5.5 39.5z" />
<glyph unicode="&#xb8;" horiz-adv-x="906" d="M104 -463l42 139q21 -24 63 -40.5t87.5 -21t87.5 10.5t60 51q19 36 10 64.5t-35.5 48t-59.5 28.5t-63 7l97 207h190l-64 -142q54 -4 90.5 -27.5t49.5 -60t7.5 -82t-30.5 -94.5q-38 -71 -109.5 -112t-148 -47t-151 12.5t-123.5 58.5z" />
<glyph unicode="&#xb9;" horiz-adv-x="784" d="M153 786l32 156h179l138 652h-155l33 155h347l-171 -807h180l-32 -156h-551z" />
<glyph unicode="&#xba;" horiz-adv-x="1232" d="M99 412l45 208h925l-44 -208h-926zM241 1148q0 102 35 190t93.5 149.5t135 106t159.5 65.5t167 21q78 0 147 -23.5t122.5 -67.5t85 -114t31.5 -156q0 -100 -34 -187.5t-91.5 -149.5t-132 -107t-156.5 -67t-165 -22q-63 0 -121.5 14.5t-109 43.5t-87.5 71.5t-58 102 t-21 130.5zM459 1177q0 -99 62 -154.5t155 -55.5q57 0 114 21.5t105 60.5t77.5 102t29.5 138q0 100 -62.5 155.5t-153.5 55.5q-46 0 -92 -13.5t-88.5 -40.5t-75 -64.5t-52 -90.5t-19.5 -114z" />
<glyph unicode="&#xbb;" horiz-adv-x="1175" d="M64 324l336 477l-131 482l164 59l214 -541l-446 -538zM510 324l335 477l-132 482l164 59l216 -541l-448 -538z" />
<glyph unicode="&#xbc;" horiz-adv-x="2133" d="M108 676l33 155h177l137 650h-154l32 155h347l-170 -805h179l-31 -155h-550zM431 2l1126 1618h227l-1129 -1618h-224zM1188 192l18 88l601 683h207l-130 -609h97l-33 -162h-97l-41 -192h-181l42 192h-483zM1444 347h269l43 187q5 18 10.5 46.5t10.5 54t10.5 49.5t11.5 38 t11 14h-3z" />
<glyph unicode="&#xbd;" horiz-adv-x="2165" d="M108 676l33 155h177l137 650h-154l32 155h347l-170 -805h179l-31 -155h-550zM396 0l1159 1620h227l-1159 -1620h-227zM1268 0l9 42l491 488q67 63 92 128t-2 107.5t-102 42.5q-130 0 -168 -128h-164q29 139 130.5 217.5t252.5 78.5q74 0 129 -22t83.5 -59.5t37 -88 t-5 -105t-47.5 -112.5t-85 -110l-311 -309h364l-35 -170h-669z" />
<glyph unicode="&#xbe;" horiz-adv-x="2186" d="M146 949h172q-7 -60 31.5 -95t109.5 -35q88 0 148 54.5t60 135.5q0 44 -24.5 74t-63 41.5t-86 15t-93.5 -4.5l7 27l273 310h-384l35 157h645l-6 -28l-306 -338q59 -6 101 -33t62 -65.5t28 -87t-3 -98.5q-14 -66 -50.5 -124.5t-90 -103.5t-127.5 -71.5t-158 -26.5 q-146 0 -224.5 79t-55.5 217zM481 2l1127 1618h227l-1129 -1618h-225zM1238 192l19 88l602 683h206l-128 -609h97l-35 -162h-97l-41 -192h-181l42 192h-484zM1495 347h269l43 187q6 23 16.5 78.5t19.5 89.5t18 34h-2z" />
<glyph unicode="&#xbf;" horiz-adv-x="1149" d="M-77 -130q0 73 28 163q21 62 57.5 117.5t78.5 97t89.5 82t93.5 83.5t86 91.5t71.5 115.5t47.5 146h263q-15 -90 -47 -165t-73 -127.5t-87.5 -97t-95 -83t-91.5 -74.5t-81 -82t-60 -97q-33 -97 -14 -161.5t72 -97.5t130 -33q59 0 121 25t115.5 76.5t76.5 117.5h224 q-28 -114 -83.5 -201.5t-130.5 -142.5t-165 -82.5t-193 -28.5q-124 -3 -223 42.5t-154.5 128.5t-55.5 187zM507 1005q0 70 54.5 118t130.5 48q56 0 91.5 -32.5t35.5 -85.5q0 -72 -55 -118.5t-132 -46.5q-57 0 -91 31.5t-34 85.5z" />
<glyph unicode="&#xc0;" horiz-adv-x="1621" d="M-134 0l6 35l1091 1597h125l405 -1597l-7 -35h-269l-88 336h-745l-229 -336h-289zM521 563h569l-148 647zM797 2020l4 23l250 88l111 -340l-5 -25h-210z" />
<glyph unicode="&#xc1;" horiz-adv-x="1621" d="M-134 0l6 35l1091 1597h125l405 -1597l-7 -35h-269l-88 336h-745l-229 -336h-289zM521 563h569l-148 647zM925 1780l5 25l258 340l212 -87l-7 -24l-256 -254h-212z" />
<glyph unicode="&#xc2;" horiz-adv-x="1621" d="M-134 0l6 35l1091 1597h125l405 -1597l-7 -35h-269l-88 336h-745l-229 -336h-289zM521 563h569l-148 647zM574 1727l5 25l395 324h254l256 -327l-5 -22h-251l-159 196l-243 -196h-252z" />
<glyph unicode="&#xc3;" horiz-adv-x="1621" d="M-134 0l6 35l1091 1597h125l405 -1597l-7 -35h-269l-88 336h-745l-229 -336h-289zM521 563h569l-148 647zM645 1822q67 99 139.5 153t154 61t165.5 -48q24 -16 41 -24.5t39.5 -17t41 -7.5t39.5 7.5t42 25t42 48.5q64 -29 123 -64q-57 -98 -127.5 -154t-149 -63.5 t-158.5 43.5q-28 18 -50.5 29t-52.5 18t-56 3t-55.5 -23.5t-56.5 -54.5z" />
<glyph unicode="&#xc4;" horiz-adv-x="1621" d="M-134 0l6 35l1091 1597h125l405 -1597l-7 -35h-269l-88 336h-745l-229 -336h-289zM521 563h569l-148 647zM634 1819q0 70 53.5 115t127.5 45q54 0 88 -30.5t34 -80.5q0 -69 -54 -115t-126 -46q-54 0 -88.5 31.5t-34.5 80.5zM1199 1819q0 70 53.5 115t127.5 45 q54 0 88 -30.5t34 -80.5q0 -69 -54 -115t-127 -46q-35 0 -63 14t-43.5 39.5t-15.5 58.5z" />
<glyph unicode="&#xc5;" horiz-adv-x="1626" d="M-132 0l7 35l1070 1564q-78 16 -126 71t-48 140q0 44 11 84t30.5 72t46.5 59t59 46.5t67 33t71.5 20t72.5 6.5q101 0 169.5 -57.5t68.5 -161.5q0 -51 -15 -96t-40.5 -78.5t-60.5 -61t-74 -45t-82 -28.5l400 -1568l-7 -35h-280l-88 336h-740l-230 -336h-282zM516 563h567 l-151 622zM923 1837q0 -50 33.5 -77t83.5 -27q67 0 119.5 41t52.5 112q0 32 -14.5 55.5t-39.5 35.5t-56 13q-43 0 -82.5 -16t-68 -51.5t-28.5 -85.5z" />
<glyph unicode="&#xc6;" horiz-adv-x="1908" d="M-130 0l10 40l1122 1576h961l-49 -232h-604l-93 -439h574l-46 -218h-574l-107 -502h630l-49 -225h-861l91 428h-447l-296 -428h-262zM563 647h360l170 753h-3z" />
<glyph unicode="&#xc7;" horiz-adv-x="1760" d="M120 643q0 128 29.5 247.5t83.5 217.5t128 183t164 148.5t190.5 108.5t208.5 67.5t217 22.5q98 0 187 -20.5t166.5 -64.5t134.5 -107t91.5 -152.5t37.5 -196.5h-254q-7 77 -42.5 135.5t-93 93t-128 51t-152.5 16.5q-142 0 -268.5 -54.5t-217.5 -148.5t-146.5 -223 t-62.5 -273q-5 -135 47 -240.5t156 -165t244 -59.5q171 0 318 83.5t233 240.5h263q-44 -110 -109.5 -200.5t-141 -153.5t-164 -108.5t-177.5 -69.5t-183 -32l-48 -107q44 -3 76 -19t49.5 -41t23 -57.5t-2.5 -70t-28 -76.5q-38 -71 -109.5 -112t-148 -47t-151 12.5 t-123.5 58.5l42 139q21 -23 63 -40t87.5 -21.5t87.5 11t60 50.5q25 49 2.5 83t-66 51.5t-84.5 13.5l80 174q-124 14 -228.5 65t-180 133t-118 198.5t-42.5 255.5z" />
<glyph unicode="&#xc8;" horiz-adv-x="1330" d="M60 0q216 1031 345 1620h986l-51 -236h-715l-91 -428h676q-36 -162 -51 -238h-675l-100 -473h729l-53 -245h-1000zM698 2011l6 23l250 88l110 -340l-4 -26h-210z" />
<glyph unicode="&#xc9;" horiz-adv-x="1330" d="M60 0q216 1031 345 1620h986l-51 -236h-715l-91 -428h676q-36 -162 -51 -238h-675l-100 -473h729l-53 -245h-1000zM815 1758l4 26l257 340l213 -88l-6 -22l-258 -256h-210z" />
<glyph unicode="&#xca;" horiz-adv-x="1330" d="M60 0q216 1031 345 1620h986l-51 -236h-715l-91 -428h676q-36 -162 -51 -238h-675l-100 -473h729l-53 -245h-1000zM504 1754l6 26l376 320h243l243 -323l-5 -23h-238l-153 194l-231 -194h-241z" />
<glyph unicode="&#xcb;" horiz-adv-x="1330" d="M60 0q216 1031 345 1620h986l-51 -236h-715l-91 -428h676q-36 -162 -51 -238h-675l-100 -473h729l-53 -245h-1000zM528 1881q0 70 53.5 115t127.5 45q53 0 87.5 -30.5t34.5 -80.5q0 -69 -54.5 -114t-126.5 -45q-36 0 -63.5 13.5t-43 39t-15.5 57.5zM1093 1881 q0 70 53 115t126 45q36 0 64 -14t44 -39t16 -58q0 -69 -54 -114t-127 -45q-36 0 -63.5 13.5t-43 39t-15.5 57.5z" />
<glyph unicode="&#xcc;" horiz-adv-x="957" d="M-53 0l46 218h257l252 1187h-235l45 215h741l-46 -215h-236l-252 -1187h256l-46 -218h-782zM449 2007l4 22l251 89l111 -341l-5 -25h-211z" />
<glyph unicode="&#xcd;" horiz-adv-x="957" d="M-53 0l46 218h257l252 1187h-235l45 215h741l-46 -215h-236l-252 -1187h256l-46 -218h-782zM590 1771l4 25l258 340l212 -88l-6 -23l-257 -254h-211z" />
<glyph unicode="&#xce;" horiz-adv-x="957" d="M-53 0l46 218h257l252 1187h-235l45 215h741l-46 -215h-236l-252 -1187h256l-46 -218h-782zM278 1762l4 25l380 315h243l243 -318l-4 -22h-239l-152 192l-232 -192h-243z" />
<glyph unicode="&#xcf;" horiz-adv-x="957" d="M-53 0l46 218h257l252 1187h-235l45 215h741l-46 -215h-236l-252 -1187h256l-46 -218h-782zM347 1872q0 70 52.5 115t128.5 45q54 0 88 -30.5t34 -80.5q0 -69 -54 -114t-126 -45q-54 0 -88.5 30.5t-34.5 79.5zM840 1872q0 47 24 83.5t65.5 56.5t90.5 20q36 0 64 -14 t44 -39t16 -58q0 -69 -54 -114t-127 -45q-37 0 -65 13.5t-43 38.5t-15 58z" />
<glyph unicode="&#xd0;" horiz-adv-x="1709" d="M44 689l46 214h183l151 715h585q127 0 232.5 -34t180.5 -94t126.5 -142t76.5 -178t25 -203q0 -121 -32.5 -240t-91.5 -226.5t-147.5 -199t-195.5 -158.5t-240 -105t-276 -38h-586l146 689h-183zM400 245h313q114 0 218 37t184 102t140 150t91 186t31 205q0 93 -27 174 t-78.5 143t-133 97.5t-182.5 35.5h-315l-100 -472h276l-46 -214h-276z" />
<glyph unicode="&#xd1;" horiz-adv-x="1732" d="M60 0l345 1625h97l755 -1113l85 517l125 591h269l-345 -1622h-93l-761 1124l-86 -534l-124 -588h-267zM667 1802q49 74 102.5 123.5t111 74t119.5 17.5t124 -47q25 -16 41.5 -24.5t39 -17t41 -8t40 7.5t42.5 25.5t42 48.5q55 -25 123 -65q-57 -98 -127.5 -154t-149 -63 t-158.5 44q-29 18 -51.5 29t-52.5 18t-56 3t-55.5 -23.5t-56.5 -54.5z" />
<glyph unicode="&#xd2;" horiz-adv-x="1873" d="M120 638q0 153 41 292t113 248.5t170 198.5t212 148t239.5 91t252.5 32q143 0 265.5 -46t212 -130.5t140.5 -211.5t51 -281q0 -144 -37 -277.5t-104 -243.5t-162 -201t-208 -154t-246 -97t-274 -34q-142 0 -264 45.5t-211.5 129.5t-140 210.5t-50.5 280.5zM396 683 q-6 -218 105.5 -337t308.5 -119q90 0 178.5 22t169 63t149.5 103.5t121 139t82.5 174.5t33.5 206q2 106 -30.5 193.5t-91 145.5t-138.5 90t-173 32q-90 0 -177.5 -22t-166 -63t-145.5 -104t-116.5 -140t-78.5 -176t-31 -208zM923 2039l5 23l249 88l112 -340l-4 -26h-211z " />
<glyph unicode="&#xd3;" horiz-adv-x="1873" d="M120 638q0 153 41 292t113 248.5t170 198.5t212 148t239.5 91t252.5 32q143 0 265.5 -46t212 -130.5t140.5 -211.5t51 -281q0 -144 -37 -277.5t-104 -243.5t-162 -201t-208 -154t-246 -97t-274 -34q-142 0 -264 45.5t-211.5 129.5t-140 210.5t-50.5 280.5zM396 683 q-6 -218 105.5 -337t308.5 -119q90 0 178.5 22t169 63t149.5 103.5t121 139t82.5 174.5t33.5 206q2 106 -30.5 193.5t-91 145.5t-138.5 90t-173 32q-90 0 -177.5 -22t-166 -63t-145.5 -104t-116.5 -140t-78.5 -176t-31 -208zM1078 1787l5 26l257 340l213 -88l-7 -24 l-257 -254h-211z" />
<glyph unicode="&#xd4;" horiz-adv-x="1873" d="M120 638q0 153 41 292t113 248.5t170 198.5t212 148t239.5 91t252.5 32q143 0 265.5 -46t212 -130.5t140.5 -211.5t51 -281q0 -144 -37 -277.5t-104 -243.5t-162 -201t-208 -154t-246 -97t-274 -34q-142 0 -264 45.5t-211.5 129.5t-140 210.5t-50.5 280.5zM396 683 q-6 -218 105.5 -337t308.5 -119q90 0 178.5 22t169 63t149.5 103.5t121 139t82.5 174.5t33.5 206q2 106 -30.5 193.5t-91 145.5t-138.5 90t-173 32q-90 0 -177.5 -22t-166 -63t-145.5 -104t-116.5 -140t-78.5 -176t-31 -208zM736 1773l4 25l397 324h254l254 -326l-4 -23 h-250l-159 197l-244 -197h-252z" />
<glyph unicode="&#xd5;" horiz-adv-x="1873" d="M120 638q0 153 41 292t113 248.5t170 198.5t212 148t239.5 91t252.5 32q143 0 265.5 -46t212 -130.5t140.5 -211.5t51 -281q0 -144 -37 -277.5t-104 -243.5t-162 -201t-208 -154t-246 -97t-274 -34q-142 0 -264 45.5t-211.5 129.5t-140 210.5t-50.5 280.5zM396 683 q-6 -218 105.5 -337t308.5 -119q90 0 178.5 22t169 63t149.5 103.5t121 139t82.5 174.5t33.5 206q2 106 -30.5 193.5t-91 145.5t-138.5 90t-173 32q-90 0 -177.5 -22t-166 -63t-145.5 -104t-116.5 -140t-78.5 -176t-31 -208zM810 1851q40 59 81.5 102.5t87 71.5t92.5 37.5 t97 -1.5t100 -43q24 -15 40.5 -24t39.5 -17.5t41.5 -7.5t39.5 7.5t42 25.5t42 49q55 -26 123 -66q-57 -98 -127.5 -153.5t-149 -62.5t-158.5 44q-28 17 -50.5 28t-53 18.5t-56 3t-55 -23.5t-56.5 -55z" />
<glyph unicode="&#xd6;" horiz-adv-x="1873" d="M120 638q0 153 41 292t113 248.5t170 198.5t212 148t239.5 91t252.5 32q143 0 265.5 -46t212 -130.5t140.5 -211.5t51 -281q0 -144 -37 -277.5t-104 -243.5t-162 -201t-208 -154t-246 -97t-274 -34q-142 0 -264 45.5t-211.5 129.5t-140 210.5t-50.5 280.5zM396 683 q-6 -218 105.5 -337t308.5 -119q90 0 178.5 22t169 63t149.5 103.5t121 139t82.5 174.5t33.5 206q2 106 -30.5 193.5t-91 145.5t-138.5 90t-173 32q-90 0 -177.5 -22t-166 -63t-145.5 -104t-116.5 -140t-78.5 -176t-31 -208zM750 1875q0 69 53.5 114t126.5 45 q54 0 88.5 -30.5t34.5 -80.5q0 -69 -54 -114t-127 -45q-35 0 -62.5 13.5t-43.5 39t-16 58.5zM1314 1875q0 69 54 114t127 45q54 0 88.5 -30.5t34.5 -80.5q0 -69 -53.5 -114t-127.5 -45q-35 0 -63 13.5t-44 39t-16 58.5z" />
<glyph unicode="&#xd7;" horiz-adv-x="1056" d="M113 567l289 236l-190 241l186 153l190 -241l289 238l121 -152l-289 -239l185 -238l-185 -153l-186 238l-287 -235z" />
<glyph unicode="&#xd8;" horiz-adv-x="1869" d="M99 -130l7 28l206 252q-89 77 -139 205t-50 286q0 150 41 288t112.5 246.5t169 197.5t211.5 148t239 90.5t252 31.5q176 0 319 -67l130 164h254l-5 -22l-208 -260q55 -51 94 -123t60 -163.5t21 -195.5q0 -150 -40.5 -288t-111.5 -246.5t-168.5 -197.5t-211 -148 t-239 -90.5t-253.5 -31.5q-171 0 -301 63l-134 -167q-28 0 -80 -0.5t-94.5 -0.5t-80.5 1zM400 696q0 -99 30 -180t82 -136l777 965q-85 42 -196 42q-105 0 -207 -32t-189 -93t-154 -143.5t-105 -192t-38 -230.5zM667 271q85 -42 181 -42q86 0 171.5 23t162 65t141.5 104.5 t112.5 137.5t74.5 167.5t27 192.5q0 95 -28 175t-76 130z" />
<glyph unicode="&#xd9;" horiz-adv-x="1630" d="M159 303q-27 105 0 241l230 1076h269l-227 -1070q-18 -80 -6.5 -141.5t48 -103.5t95.5 -63.5t136 -21.5q78 0 151 22t134 63t105.5 104.5t62.5 140.5l227 1070h266l-230 -1076q-57 -271 -254 -417.5t-493 -146.5q-132 0 -238.5 37t-177.5 109t-98 177zM828 2009l5 23 l250 88l111 -340l-4 -26h-211z" />
<glyph unicode="&#xda;" horiz-adv-x="1630" d="M159 303q-27 105 0 241l230 1076h269l-227 -1070q-18 -80 -6.5 -141.5t48 -103.5t95.5 -63.5t136 -21.5q78 0 151 22t134 63t105.5 104.5t62.5 140.5l227 1070h266l-230 -1076q-57 -271 -254 -417.5t-493 -146.5q-132 0 -238.5 37t-177.5 109t-98 177zM903 1768l4 25 l257 340l213 -88l-7 -22l-257 -255h-210z" />
<glyph unicode="&#xdb;" horiz-adv-x="1630" d="M159 303q-27 105 0 241l230 1076h269l-227 -1070q-18 -80 -6.5 -141.5t48 -103.5t95.5 -63.5t136 -21.5q78 0 151 22t134 63t105.5 104.5t62.5 140.5l227 1070h266l-230 -1076q-57 -271 -254 -417.5t-493 -146.5q-132 0 -238.5 37t-177.5 109t-98 177zM594 1762l5 25 l397 324h254l254 -327l-4 -22h-250l-160 196l-242 -196h-254z" />
<glyph unicode="&#xdc;" horiz-adv-x="1630" d="M159 303q-27 105 0 241l230 1076h269l-227 -1070q-18 -80 -6.5 -141.5t48 -103.5t95.5 -63.5t136 -21.5q78 0 151 22t134 63t105.5 104.5t62.5 140.5l227 1070h266l-230 -1076q-57 -271 -254 -417.5t-493 -146.5q-132 0 -238.5 37t-177.5 109t-98 177zM634 1868 q0 69 53.5 114t127.5 45q54 0 88 -30.5t34 -80.5q0 -69 -54 -114.5t-126 -45.5q-54 0 -88.5 31t-34.5 81zM1199 1868q0 69 53.5 114t127.5 45q54 0 88 -30.5t34 -80.5q0 -69 -54 -114.5t-127 -45.5q-54 0 -88 31t-34 81z" />
<glyph unicode="&#xdd;" horiz-adv-x="1453" d="M208 1581l10 39h277l139 -361l116 -373h9l285 384l285 350h298l-9 -39l-766 -923l-139 -658h-269l139 658zM815 1771l4 25l257 340l213 -88l-6 -23l-258 -254h-210z" />
<glyph unicode="&#xde;" horiz-adv-x="1508" d="M60 0l345 1620h268l-50 -233h402q88 0 162.5 -21t128.5 -59t94 -90t59 -115.5t22.5 -135.5t-14.5 -149q-25 -114 -87 -216t-150.5 -179t-207 -122.5t-248.5 -45.5h-402l-53 -254h-269zM431 490h404q77 0 149 33t125 87t85 128t32 152q0 117 -66.5 191t-183.5 74h-404z " />
<glyph unicode="&#xdf;" horiz-adv-x="1387" d="M18 0l245 1150q23 108 68 192t101.5 137t130 88t146 50t157 16.5t155.5 -6t148 -23.5t128 -30t103 -30l-11 -51l-413 -544q65 0 120 -28t92.5 -76t58.5 -113t21 -138q0 -109 -29 -206t-80.5 -172t-125.5 -129.5t-160.5 -82t-188.5 -26t-207 35.5l44 204q122 -32 218 -5.5 t160 101t89 185.5q10 49 8.5 90t-15.5 74t-36.5 58t-54.5 41.5t-70 25t-81.5 8t-91.5 -9.5l15 62l400 548q-56 18 -109 27t-103 7.5t-95 -13.5t-84.5 -37t-71 -61t-55.5 -87t-37 -114l-238 -1118h-251z" />
<glyph unicode="&#xe0;" horiz-adv-x="1383" d="M52 418q2 74 19 154q42 182 149 312t259 194t336 61q234 0 446 -105l-148 -701q-1 -7 -4 -20q-7 -45 -9.5 -77.5t21.5 -47.5t80 -9l-37 -172q-44 -8 -82 -10.5t-75 1t-63 15.5t-46 33.5t-24 55t3 79.5l9 46q-70 -114 -189 -178.5t-246 -64.5q-84 0 -152 21.5t-114.5 60.5 t-77.5 93t-44 119.5t-11 139.5zM307.5 429.5q1.5 -66.5 21 -116t68 -77.5t122.5 -28q139 0 250 98.5t150 253.5l69 328q-95 47 -224 47q-163 0 -280 -93.5t-160 -269.5q-18 -76 -16.5 -142.5zM643 1576l2 21l230 81l101 -313l-2 -23h-194z" />
<glyph unicode="&#xe1;" horiz-adv-x="1383" d="M52 418q2 74 19 154q42 182 149 312t259 194t336 61q234 0 446 -105l-148 -701q-1 -7 -4 -20q-7 -45 -9.5 -77.5t21.5 -47.5t80 -9l-37 -172q-44 -8 -82 -10.5t-75 1t-63 15.5t-46 33.5t-24 55t3 79.5l9 46q-70 -114 -189 -178.5t-246 -64.5q-84 0 -152 21.5t-114.5 60.5 t-77.5 93t-44 119.5t-11 139.5zM307.5 429.5q1.5 -66.5 21 -116t68 -77.5t122.5 -28q139 0 250 98.5t150 253.5l69 328q-95 47 -224 47q-163 0 -280 -93.5t-160 -269.5q-18 -76 -16.5 -142.5zM698 1354l6 21l228 308l192 -82l-6 -20l-230 -227h-190z" />
<glyph unicode="&#xe2;" horiz-adv-x="1383" d="M52 418q2 74 19 154q42 182 149 312t259 194t336 61q234 0 446 -105l-148 -701q-1 -7 -4 -20q-7 -45 -9.5 -77.5t21.5 -47.5t80 -9l-37 -172q-44 -8 -82 -10.5t-75 1t-63 15.5t-46 33.5t-24 55t3 79.5l9 46q-70 -114 -189 -178.5t-246 -64.5q-84 0 -152 21.5t-114.5 60.5 t-77.5 93t-44 119.5t-11 139.5zM307.5 429.5q1.5 -66.5 21 -116t68 -77.5t122.5 -28q139 0 250 98.5t150 253.5l69 328q-95 47 -224 47q-163 0 -280 -93.5t-160 -269.5q-18 -76 -16.5 -142.5zM417 1310l4 23l350 310h225l223 -312l-2 -21h-221l-142 187l-213 -187h-224z" />
<glyph unicode="&#xe3;" horiz-adv-x="1383" d="M52 418q2 74 19 154q42 182 149 312t259 194t336 61q234 0 446 -105l-148 -701q-1 -7 -4 -20q-7 -45 -9.5 -77.5t21.5 -47.5t80 -9l-37 -172q-44 -8 -82 -10.5t-75 1t-63 15.5t-46 33.5t-24 55t3 79.5l9 46q-70 -114 -189 -178.5t-246 -64.5q-84 0 -152 21.5t-114.5 60.5 t-77.5 93t-44 119.5t-11 139.5zM307.5 429.5q1.5 -66.5 21 -116t68 -77.5t122.5 -28q139 0 250 98.5t150 253.5l69 328q-95 47 -224 47q-163 0 -280 -93.5t-160 -269.5q-18 -76 -16.5 -142.5zM479 1453q63 94 131 144.5t144 57t153 -44.5q26 -17 45.5 -26.5t44.5 -15.5 t46.5 -1t46 23t47.5 51l113 -60q-80 -141 -186 -186t-219 23q-28 16 -48 25.5t-49 17t-52.5 3t-51 -22t-52.5 -50.5q-85 49 -113 62z" />
<glyph unicode="&#xe4;" horiz-adv-x="1383" d="M52 418q2 74 19 154q42 182 149 312t259 194t336 61q234 0 446 -105l-148 -701q-1 -7 -4 -20q-7 -45 -9.5 -77.5t21.5 -47.5t80 -9l-37 -172q-44 -8 -82 -10.5t-75 1t-63 15.5t-46 33.5t-24 55t3 79.5l9 46q-70 -114 -189 -178.5t-246 -64.5q-84 0 -152 21.5t-114.5 60.5 t-77.5 93t-44 119.5t-11 139.5zM307.5 429.5q1.5 -66.5 21 -116t68 -77.5t122.5 -28q139 0 250 98.5t150 253.5l69 328q-95 47 -224 47q-163 0 -280 -93.5t-160 -269.5q-18 -76 -16.5 -142.5zM488 1475q0 69 53.5 114t127.5 45q35 0 63 -13.5t43.5 -39t15.5 -58.5 q0 -69 -54 -114.5t-126 -45.5q-53 0 -88 31t-35 81zM988 1475q0 69 53.5 114t126.5 45q36 0 64 -13.5t44 -39t16 -58.5q0 -69 -54 -114.5t-127 -45.5q-36 0 -64 14t-43.5 39.5t-15.5 58.5z" />
<glyph unicode="&#xe5;" horiz-adv-x="1383" d="M52 418q2 74 19 154q42 182 149 312t259 194t336 61q234 0 446 -105l-148 -701q-1 -7 -4 -20q-7 -45 -9.5 -77.5t21.5 -47.5t80 -9l-37 -172q-44 -8 -82 -10.5t-75 1t-63 15.5t-46 33.5t-24 55t3 79.5l9 46q-70 -114 -189 -178.5t-246 -64.5q-84 0 -152 21.5t-114.5 60.5 t-77.5 93t-44 119.5t-11 139.5zM307.5 429.5q1.5 -66.5 21 -116t68 -77.5t122.5 -28q139 0 250 98.5t150 253.5l69 328q-95 47 -224 47q-163 0 -280 -93.5t-160 -269.5q-18 -76 -16.5 -142.5zM594 1481q0 65 30.5 117.5t79 85t106.5 50.5t118 18q93 0 156.5 -49t63.5 -137 q0 -63 -30.5 -116t-79 -85.5t-106 -50.5t-115.5 -18q-95 0 -159 48.5t-64 136.5zM736 1504q0 -44 31 -66t81 -22q28 0 56 8.5t51 24t37.5 40t14.5 55.5q0 41 -31.5 64.5t-77.5 23.5q-62 0 -112 -34.5t-50 -93.5z" />
<glyph unicode="&#xe6;" horiz-adv-x="1910" d="M53.5 300.5q-12.5 108.5 17.5 257.5q30 140 96.5 251.5t157.5 184.5t203 110.5t236 34.5q217 0 335 -154q38 39 83.5 68.5t93.5 49t98.5 30t100.5 11.5q56 1 108.5 -6.5t100.5 -26t84 -48.5t60.5 -72t29 -96.5t-11.5 -123.5q-22 -81 -69.5 -144.5t-110 -103t-132.5 -60.5 t-145 -23q-97 -5 -190 20t-155 72q-39 -171 45 -261.5t256 -85.5q84 0 178 23.5t173 60.5l-37 -200q-59 -30 -125 -48.5t-120.5 -25.5t-124.5 -11q-56 -1 -102.5 6t-91 25t-78.5 52.5t-54 85.5l-40 -153h-175l18 166q-30 -48 -65 -82t-69 -53.5t-76 -30.5t-78.5 -14.5 t-84.5 -3.5q-86 0 -156 34t-120.5 105t-63 179.5zM273.5 442q-1.5 -48 9 -93.5t33.5 -80t64 -55.5t97 -21q87 0 169 53t137.5 137t77.5 181l62 296q-36 42 -97 61t-120 19q-158 0 -267.5 -105t-151.5 -295q-12 -49 -13.5 -97zM1097 702q41 -41 123.5 -64.5t163.5 -23.5 q49 0 96.5 15t90 52.5t56.5 91.5q9 32 6 57t-17 44.5t-33.5 33.5t-45 22.5t-51 12.5t-51.5 4q-53 -1 -101.5 -16t-92.5 -45t-81 -76.5t-63 -107.5z" />
<glyph unicode="&#xe7;" horiz-adv-x="1309" d="M60 446q0 112 30.5 211.5t83.5 175t123.5 136.5t151.5 99.5t167 59t170 20.5q91 0 170.5 -26t141.5 -75t99 -127t39 -175h-229q-4 46 -29 82t-63.5 56t-82 30t-90.5 10q-77 0 -150 -28.5t-132.5 -81.5t-98.5 -137.5t-46 -187.5q-8 -139 68 -214t202 -75q99 0 194.5 52 t150.5 151h253q-34 -93 -89.5 -167.5t-124 -123.5t-143 -78.5t-155.5 -41.5l-53 -116q54 -5 89.5 -27.5t49 -57.5t8.5 -79.5t-29 -92.5q-38 -68 -108.5 -107.5t-146.5 -46t-150 11t-123 56.5l42 137q28 -32 89 -49.5t122.5 -6t84.5 55.5q26 47 3.5 80t-66 50t-83.5 13 l79 172q-87 7 -162.5 40.5t-133 90.5t-90.5 142t-33 189z" />
<glyph unicode="&#xe8;" horiz-adv-x="1244" d="M77 588q25 115 75.5 208.5t116.5 156t147.5 105.5t167 63t178.5 23q73 2 142 -12.5t128 -45t99 -76t55 -106.5t-3 -136q-16 -68 -52.5 -123.5t-84.5 -93.5t-109 -64.5t-124 -39t-130 -14.5q-107 -5 -208.5 22t-171.5 75q-26 -115 9 -195.5t119.5 -119t209.5 -34.5 q93 0 195.5 23t190.5 59l-36 -199q-65 -29 -137.5 -47.5t-133.5 -26t-139 -10.5q-299 -9 -433.5 152t-70.5 456zM358 698q47 -41 136.5 -64.5t176.5 -22.5q31 0 63 5.5t65.5 18t61 30.5t48.5 45t30 61q9 28 5.5 51t-13 41t-27.5 31.5t-38.5 23t-45.5 15.5t-49 9t-49 3 q-120 -2 -216 -64t-148 -183zM588 1588l4 20l234 84l104 -320l-5 -23h-196z" />
<glyph unicode="&#xe9;" horiz-adv-x="1244" d="M77 588q25 115 75.5 208.5t116.5 156t147.5 105.5t167 63t178.5 23q73 2 142 -12.5t128 -45t99 -76t55 -106.5t-3 -136q-16 -68 -52.5 -123.5t-84.5 -93.5t-109 -64.5t-124 -39t-130 -14.5q-107 -5 -208.5 22t-171.5 75q-26 -115 9 -195.5t119.5 -119t209.5 -34.5 q93 0 195.5 23t190.5 59l-36 -199q-65 -29 -137.5 -47.5t-133.5 -26t-139 -10.5q-299 -9 -433.5 152t-70.5 456zM358 698q47 -41 136.5 -64.5t176.5 -22.5q31 0 63 5.5t65.5 18t61 30.5t48.5 45t30 61q9 28 5.5 51t-13 41t-27.5 31.5t-38.5 23t-45.5 15.5t-49 9t-49 3 q-120 -2 -216 -64t-148 -183zM647 1356l6 26l237 314l200 -80l-7 -22l-238 -238h-198z" />
<glyph unicode="&#xea;" horiz-adv-x="1244" d="M77 588q25 115 75.5 208.5t116.5 156t147.5 105.5t167 63t178.5 23q73 2 142 -12.5t128 -45t99 -76t55 -106.5t-3 -136q-16 -68 -52.5 -123.5t-84.5 -93.5t-109 -64.5t-124 -39t-130 -14.5q-107 -5 -208.5 22t-171.5 75q-26 -115 9 -195.5t119.5 -119t209.5 -34.5 q93 0 195.5 23t190.5 59l-36 -199q-65 -29 -137.5 -47.5t-133.5 -26t-139 -10.5q-299 -9 -433.5 152t-70.5 456zM358 698q47 -41 136.5 -64.5t176.5 -22.5q31 0 63 5.5t65.5 18t61 30.5t48.5 45t30 61q9 28 5.5 51t-13 41t-27.5 31.5t-38.5 23t-45.5 15.5t-49 9t-49 3 q-120 -2 -216 -64t-148 -183zM380 1321l4 26l366 298h235l237 -300l-5 -24h-232l-148 183l-223 -183h-234z" />
<glyph unicode="&#xeb;" horiz-adv-x="1244" d="M77 588q25 115 75.5 208.5t116.5 156t147.5 105.5t167 63t178.5 23q73 2 142 -12.5t128 -45t99 -76t55 -106.5t-3 -136q-16 -68 -52.5 -123.5t-84.5 -93.5t-109 -64.5t-124 -39t-130 -14.5q-107 -5 -208.5 22t-171.5 75q-26 -115 9 -195.5t119.5 -119t209.5 -34.5 q93 0 195.5 23t190.5 59l-36 -199q-65 -29 -137.5 -47.5t-133.5 -26t-139 -10.5q-299 -9 -433.5 152t-70.5 456zM358 698q47 -41 136.5 -64.5t176.5 -22.5q31 0 63 5.5t65.5 18t61 30.5t48.5 45t30 61q9 28 5.5 51t-13 41t-27.5 31.5t-38.5 23t-45.5 15.5t-49 9t-49 3 q-120 -2 -216 -64t-148 -183zM444 1472q0 66 48.5 107t118.5 41q32 0 58 -12.5t40.5 -36t14.5 -53.5q0 -66 -49.5 -107t-116.5 -41q-49 0 -81.5 28t-32.5 74zM967 1472q0 44 23 78.5t61 52t84 17.5q49 0 81 -28t32 -74q0 -66 -49 -107t-119 -41q-49 0 -81 28t-32 74z" />
<glyph unicode="&#xec;" horiz-adv-x="578" d="M23 0l236 1113h251l-237 -1113h-250zM183 1564l5 24l240 83l106 -326l-4 -26h-203z" />
<glyph unicode="&#xed;" horiz-adv-x="578" d="M23 0l236 1113h251l-237 -1113h-250zM303 1327l4 24l249 327l203 -86l-6 -20l-246 -245h-204z" />
<glyph unicode="&#xee;" horiz-adv-x="578" d="M23 0l236 1113h251l-237 -1113h-250zM55 1303l5 28l320 333h205l208 -335l-4 -26h-204l-130 203l-196 -203h-204z" />
<glyph unicode="&#xef;" horiz-adv-x="578" d="M23 0l236 1113h251l-237 -1113h-250zM90 1472q0 70 54 115t127 45q54 0 88 -30.5t34 -80.5q0 -69 -54.5 -114.5t-126.5 -45.5q-53 0 -87.5 31t-34.5 80zM539 1472q0 70 53.5 115t127.5 45q54 0 88 -30.5t34 -80.5q0 -69 -53.5 -114.5t-126.5 -45.5q-54 0 -88.5 31 t-34.5 80z" />
<glyph unicode="&#xf0;" horiz-adv-x="1369" d="M55 431q0 82 20 159.5t55.5 143t83.5 122.5t107 100.5t124 75t135 47.5t140 16q162 0 271 -95q-10 48 -33 102t-45 93t-54 90l-155 -95l-49 97l153 93q-74 120 -183 221l2 12h210q66 -51 135 -134l159 95l46 -95l-137 -86q100 -143 163 -331t63 -364q0 -117 -31.5 -221 t-86 -182t-126.5 -140t-155.5 -101t-170.5 -59.5t-173 -20.5q-95 0 -178.5 29.5t-148.5 85.5t-103 144t-38 198zM315 475q0 -46 10 -85.5t27.5 -69.5t42 -53.5t54 -39t63 -23t69.5 -7.5q49 0 98.5 12t96.5 35t87.5 59.5t71 82t48 105.5t17.5 127q0 85 -38.5 147t-99.5 91.5 t-135 29.5q-42 0 -84 -8.5t-82.5 -26t-77 -42.5t-67.5 -59.5t-53.5 -75.5t-35 -92t-12.5 -107z" />
<glyph unicode="&#xf1;" horiz-adv-x="1422" d="M58 0l165 775q1 9 5 25q26 97 11 131.5t-107 26.5l32 162q58 13 110 15.5t95.5 -8.5t72.5 -34.5t41 -64t1 -93.5q71 101 186 153.5t240 52.5q90 0 158.5 -23t110.5 -64.5t65.5 -101t23 -132t-17.5 -156.5l-86 -397q-14 -65 7.5 -88t100.5 -15l-34 -159q-43 -9 -80 -13 t-72.5 -4t-63 6.5t-51 19.5t-38.5 34t-23 50t-7 69t11 90l84 398q18 86 -3.5 151t-74.5 98t-129 33q-121 0 -217.5 -78t-124.5 -212l-139 -647h-252zM479 1433q61 94 130 146t146.5 57.5t156.5 -46.5q20 -12 33 -18.5t32.5 -14t33.5 -9.5t32 -0.5t33.5 10t33 25t34.5 40.5 q87 -45 115 -64q-55 -92 -120.5 -144.5t-139.5 -59.5t-151 41q-33 21 -60.5 32.5t-62 15.5t-68.5 -14.5t-65 -59.5q-89 51 -113 63z" />
<glyph unicode="&#xf2;" d="M60 444q0 134 41 250t111.5 198t163.5 140.5t198.5 86t214.5 25.5q55 -2 107 -12t100 -29.5t89.5 -47.5t75.5 -66t58.5 -84t37.5 -104t13 -123q0 -133 -42 -248.5t-114 -198t-166 -140.5t-198.5 -85.5t-210.5 -25.5q-77 2 -146.5 20.5t-130.5 56.5t-106 91.5t-70.5 129.5 t-25.5 166zM318 486q-7 -71 13.5 -127.5t60 -91t90.5 -52.5t108 -18q58 0 114.5 16t109 51t93.5 85t68 123.5t32 161.5q4 75 -16.5 131.5t-59.5 90.5t-89.5 50.5t-110.5 16.5q-73 0 -142 -28.5t-126.5 -82t-96.5 -138t-48 -188.5zM599 1585l6 21l230 81l104 -315l-4 -23 h-195z" />
<glyph unicode="&#xf3;" d="M60 444q0 134 41 250t111.5 198t163.5 140.5t198.5 86t214.5 25.5q55 -2 107 -12t100 -29.5t89.5 -47.5t75.5 -66t58.5 -84t37.5 -104t13 -123q0 -133 -42 -248.5t-114 -198t-166 -140.5t-198.5 -85.5t-210.5 -25.5q-77 2 -146.5 20.5t-130.5 56.5t-106 91.5t-70.5 129.5 t-25.5 166zM318 486q-7 -71 13.5 -127.5t60 -91t90.5 -52.5t108 -18q58 0 114.5 16t109 51t93.5 85t68 123.5t32 161.5q4 75 -16.5 131.5t-59.5 90.5t-89.5 50.5t-110.5 16.5q-73 0 -142 -28.5t-126.5 -82t-96.5 -138t-48 -188.5zM702 1333l4 25l239 316l199 -82l-7 -20 l-239 -239h-196z" />
<glyph unicode="&#xf4;" d="M60 444q0 134 41 250t111.5 198t163.5 140.5t198.5 86t214.5 25.5q55 -2 107 -12t100 -29.5t89.5 -47.5t75.5 -66t58.5 -84t37.5 -104t13 -123q0 -133 -42 -248.5t-114 -198t-166 -140.5t-198.5 -85.5t-210.5 -25.5q-77 2 -146.5 20.5t-130.5 56.5t-106 91.5t-70.5 129.5 t-25.5 166zM318 486q-7 -71 13.5 -127.5t60 -91t90.5 -52.5t108 -18q58 0 114.5 16t109 51t93.5 85t68 123.5t32 161.5q4 75 -16.5 131.5t-59.5 90.5t-89.5 50.5t-110.5 16.5q-73 0 -142 -28.5t-126.5 -82t-96.5 -138t-48 -188.5zM391 1314l5 24l363 310h232l233 -312 l-5 -22h-228l-146 188l-222 -188h-232z" />
<glyph unicode="&#xf5;" d="M60 444q0 134 41 250t111.5 198t163.5 140.5t198.5 86t214.5 25.5q55 -2 107 -12t100 -29.5t89.5 -47.5t75.5 -66t58.5 -84t37.5 -104t13 -123q0 -133 -42 -248.5t-114 -198t-166 -140.5t-198.5 -85.5t-210.5 -25.5q-77 2 -146.5 20.5t-130.5 56.5t-106 91.5t-70.5 129.5 t-25.5 166zM318 486q-7 -71 13.5 -127.5t60 -91t90.5 -52.5t108 -18q58 0 114.5 16t109 51t93.5 85t68 123.5t32 161.5q4 75 -16.5 131.5t-59.5 90.5t-89.5 50.5t-110.5 16.5q-73 0 -142 -28.5t-126.5 -82t-96.5 -138t-48 -188.5zM453 1455q61 95 130 146.5t146.5 57.5 t156.5 -46q24 -14 39 -21.5t37 -15.5t39.5 -7t37.5 7t39.5 23.5t39.5 45.5q9 -5 35.5 -17.5t44.5 -22.5t36 -22q-55 -93 -121 -145t-140 -59.5t-151 39.5q-26 17 -47.5 27.5t-49.5 17.5t-52.5 3t-52.5 -21.5t-53 -51.5q-71 42 -114 62z" />
<glyph unicode="&#xf6;" d="M60 444q0 134 41 250t111.5 198t163.5 140.5t198.5 86t214.5 25.5q55 -2 107 -12t100 -29.5t89.5 -47.5t75.5 -66t58.5 -84t37.5 -104t13 -123q0 -133 -42 -248.5t-114 -198t-166 -140.5t-198.5 -85.5t-210.5 -25.5q-77 2 -146.5 20.5t-130.5 56.5t-106 91.5t-70.5 129.5 t-25.5 166zM318 486q-7 -71 13.5 -127.5t60 -91t90.5 -52.5t108 -18q58 0 114.5 16t109 51t93.5 85t68 123.5t32 161.5q4 75 -16.5 131.5t-59.5 90.5t-89.5 50.5t-110.5 16.5q-73 0 -142 -28.5t-126.5 -82t-96.5 -138t-48 -188.5zM444 1469q0 66 49 107.5t118 41.5 q32 0 58 -12.5t40.5 -36t14.5 -54.5q0 -65 -49.5 -106.5t-116.5 -41.5q-49 0 -81.5 28t-32.5 74zM967 1469q0 66 49 107.5t119 41.5q49 0 81 -28.5t32 -74.5q0 -44 -23.5 -78t-61 -52t-83.5 -18q-32 0 -57.5 12.5t-40.5 36t-15 53.5z" />
<glyph unicode="&#xf7;" horiz-adv-x="1232" d="M148 720l46 212h959l-47 -212h-958zM407 396q0 73 56.5 120t130.5 47q57 0 91.5 -32t34.5 -85q0 -72 -56 -120t-132 -48q-56 0 -90.5 32t-34.5 86zM581 1215q0 73 56.5 120t130.5 47q57 0 91.5 -31.5t34.5 -84.5q0 -73 -54.5 -121t-130.5 -48q-57 0 -92.5 32.5 t-35.5 85.5z" />
<glyph unicode="&#xf8;" horiz-adv-x="1371" d="M60 446q0 101 24.5 192t67.5 161.5t102 129.5t128 99.5t144.5 67.5t151.5 37.5t150.5 5.5t141.5 -26l106 146h201l-159 -222q71 -54 111.5 -148t40.5 -211q0 -98 -24 -188t-66 -160.5t-99.5 -130.5t-124.5 -101.5t-141.5 -70.5t-150 -40t-150 -7t-141.5 25l-97 -135h-199 l148 207q-76 55 -120.5 151t-44.5 218zM310 493q0 -44 10 -83t28 -67.5t43 -48.5l444 618q-44 13 -94 14t-100.5 -11.5t-98.5 -35.5t-90 -61t-74 -84.5t-50 -109t-18 -131.5zM504 208q46 -10 95.5 -11t100 14t97.5 38t88 61.5t71.5 84t48.5 106t18 126.5q0 123 -72 195z" />
<glyph unicode="&#xf9;" d="M106 470l137 645h256l-139 -645q-29 -133 20.5 -210t160.5 -77q121 0 219.5 81.5t125.5 212.5l137 638h252l-171 -795q-16 -67 -14.5 -104.5t23.5 -49t77 -7.5l-33 -164h-2q-33 -5 -50.5 -7.5t-50.5 -5.5t-52 -2t-46.5 4.5t-42.5 12.5t-31.5 24t-22.5 37t-6.5 53t8.5 70 q-78 -104 -195 -151.5t-247 -47.5q-410 0 -313 488zM594 1581l5 20l236 84l107 -322l-5 -25h-199z" />
<glyph unicode="&#xfa;" d="M106 470l137 645h256l-139 -645q-29 -133 20.5 -210t160.5 -77q121 0 219.5 81.5t125.5 212.5l137 638h252l-171 -795q-16 -67 -14.5 -104.5t23.5 -49t77 -7.5l-33 -164h-2q-33 -5 -50.5 -7.5t-50.5 -5.5t-52 -2t-46.5 4.5t-42.5 12.5t-31.5 24t-22.5 37t-6.5 53t8.5 70 q-78 -104 -195 -151.5t-247 -47.5q-410 0 -313 488zM685 1338l4 23l243 319l199 -81l-4 -23l-243 -238h-199z" />
<glyph unicode="&#xfb;" d="M106 470l137 645h256l-139 -645q-29 -133 20.5 -210t160.5 -77q121 0 219.5 81.5t125.5 212.5l137 638h252l-171 -795q-16 -67 -14.5 -104.5t23.5 -49t77 -7.5l-33 -164h-2q-33 -5 -50.5 -7.5t-50.5 -5.5t-52 -2t-46.5 4.5t-42.5 12.5t-31.5 24t-22.5 37t-6.5 53t8.5 70 q-78 -104 -195 -151.5t-247 -47.5q-410 0 -313 488zM364 1329l4 25l377 307h243l244 -310l-6 -22h-238l-153 186l-230 -186h-241z" />
<glyph unicode="&#xfc;" d="M106 470l137 645h256l-139 -645q-29 -133 20.5 -210t160.5 -77q121 0 219.5 81.5t125.5 212.5l137 638h252l-171 -795q-16 -67 -14.5 -104.5t23.5 -49t77 -7.5l-33 -164h-2q-33 -5 -50.5 -7.5t-50.5 -5.5t-52 -2t-46.5 4.5t-42.5 12.5t-31.5 24t-22.5 37t-6.5 53t8.5 70 q-78 -104 -195 -151.5t-247 -47.5q-410 0 -313 488zM407 1472q0 45 24.5 81t65 55t86.5 19q54 0 87.5 -29t33.5 -77q0 -46 -25.5 -82.5t-65.5 -56t-85 -19.5q-54 0 -87.5 30.5t-33.5 78.5zM958 1472q0 68 52.5 111.5t124.5 43.5q53 0 86 -29t33 -77q0 -69 -52 -113.5 t-124 -44.5q-25 0 -47 8t-38 22.5t-25.5 35t-9.5 43.5z" />
<glyph unicode="&#xfd;" horiz-adv-x="1378" d="M-31 -486l57 197q54 -33 117 -56.5t133 -35.5t139 -11t135.5 22.5t121.5 61t97.5 107.5t63.5 159l46 201q-57 -71 -115 -111t-118.5 -54t-146.5 -14q-470 0 -353 552l55 265q12 54 10 88.5t-29 48.5t-87 8q5 21 11 53.5t12.5 65t11.5 52.5q74 15 132 16t104 -13 t71.5 -46.5t35 -84.5t-6.5 -126l-68 -325q-73 -344 192 -344q69 0 127.5 30.5t97.5 76t71 109.5t49 120t30 117l99 472h250l-245 -1157q-25 -121 -78.5 -220t-125 -164.5t-158.5 -109.5t-181.5 -59t-191 -9t-190 36.5t-175.5 81.5zM660 1316l4 26l255 338l210 -86l-7 -22 l-254 -256h-208z" />
<glyph unicode="&#xfe;" horiz-adv-x="1351" d="M-102 -572l475 2236h252l-130 -609q103 50 201.5 70.5t181 11.5t152 -43.5t118 -91.5t75.5 -136.5t27 -173.5q0 -131 -42 -249.5t-112.5 -206t-167 -148.5t-201.5 -84t-219.5 -5t-218.5 80l-139 -651h-252zM329 298q63 -51 137.5 -74t146.5 -18t140 38t119 87.5t82 137 t31 181.5q0 101 -46 168.5t-121.5 90.5t-174.5 5t-201 -79z" />
<glyph unicode="&#xff;" horiz-adv-x="1378" d="M-31 -486l57 197q54 -33 117 -56.5t133 -35.5t139 -11t135.5 22.5t121.5 61t97.5 107.5t63.5 159l46 201q-57 -71 -115 -111t-118.5 -54t-146.5 -14q-470 0 -353 552l55 265q12 54 10 88.5t-29 48.5t-87 8q5 21 11 53.5t12.5 65t11.5 52.5q74 15 132 16t104 -13 t71.5 -46.5t35 -84.5t-6.5 -126l-68 -325q-73 -344 192 -344q69 0 127.5 30.5t97.5 76t71 109.5t49 120t30 117l99 472h250l-245 -1157q-25 -121 -78.5 -220t-125 -164.5t-158.5 -109.5t-181.5 -59t-191 -9t-190 36.5t-175.5 81.5zM407 1467q0 69 53.5 114.5t127.5 45.5 q53 0 88 -31t35 -81q0 -69 -54.5 -114t-126.5 -45q-54 0 -88.5 30.5t-34.5 80.5zM972 1467q0 69 53.5 114.5t127.5 45.5q53 0 87.5 -31t34.5 -81q0 -46 -25.5 -83t-66 -56.5t-88.5 -19.5q-54 0 -88.5 30.5t-34.5 80.5z" />
<glyph unicode="&#x152;" horiz-adv-x="2144" d="M120 625q0 156 38.5 296t107.5 251t164.5 200.5t210 148.5t244 90.5t265.5 31.5q117 0 232 -27h826q-10 -50 -49 -225h-648l-95 -446h607l-44 -214h-607q-19 -82 -56.5 -261t-52.5 -245h663l-47 -225h-850q-141 -28 -252 -28q-146 0 -267.5 44t-208 126.5t-134 206 t-47.5 276.5zM377 658q0 -226 124 -347t344 -121q106 0 195 25l252 1181q-98 24 -183 24q-156 0 -290.5 -54.5t-232 -152.5t-153.5 -241.5t-56 -313.5z" />
<glyph unicode="&#x153;" horiz-adv-x="2014" d="M60 440q0 132 39.5 247t106 196.5t152.5 140t180.5 87t188.5 28.5q63 0 119 -13t108.5 -41t92 -79t59.5 -120q82 122 207.5 187t265.5 71q69 2 131.5 -12t113.5 -44t85 -75.5t46.5 -107t-1.5 -139.5q-23 -81 -71 -144.5t-112.5 -102.5t-137 -60t-149.5 -24 q-101 -5 -193.5 20t-155.5 73q-36 -173 47 -267t258 -89q83 0 180.5 24.5t177.5 62.5l-34 -199q-90 -43 -180 -61.5t-200 -24.5q-349 -11 -426 255q-92 -118 -216 -179.5t-254 -63.5q-87 0 -163.5 29.5t-136 84.5t-94 142.5t-34.5 197.5zM298 477q0 -134 70 -207t178 -71 q61 0 121.5 24.5t115 70t97 118t62.5 162.5q15 90 2.5 156.5t-49.5 109.5t-87.5 64t-111.5 21q-55 0 -111.5 -18.5t-107.5 -56.5t-91 -90.5t-64 -126t-24 -156.5zM1183 696q42 -42 125 -63.5t171 -21.5q50 0 99.5 15t93 52t57.5 90q10 41 2 71.5t-26.5 51.5t-47.5 34.5 t-60 19.5t-65 6q-109 -1 -203 -67.5t-146 -187.5z" />
<glyph unicode="&#x178;" horiz-adv-x="1453" d="M208 1581l10 39h277l139 -361l116 -373h9l285 384l285 350h298l-9 -39l-766 -923l-139 -658h-269l139 658zM546 1870q0 69 53.5 114t127.5 45q35 0 63 -13.5t44 -38.5t16 -58q0 -69 -54.5 -115t-126.5 -46q-35 0 -63 14t-44 39.5t-16 58.5zM1111 1870q0 69 53.5 114 t127.5 45q53 0 87.5 -30.5t34.5 -79.5q0 -70 -53.5 -115.5t-126.5 -45.5q-54 0 -88.5 31.5t-34.5 80.5z" />
<glyph unicode="&#x2c6;" horiz-adv-x="1142" d="M405 1275l4 26l397 324h254l254 -327l-4 -23h-250l-159 197l-243 -197h-253z" />
<glyph unicode="&#x2dc;" horiz-adv-x="1022" d="M428 1440q40 59 81.5 102t87 71t92.5 37.5t97 -1.5t100 -43q21 -13 35 -21t34 -16.5t35 -10.5t34 0t35.5 11t35 26.5t36.5 42.5q64 -29 123 -64q-57 -98 -127.5 -154t-149 -63t-158.5 43q-28 18 -50.5 29t-53 18t-56 3t-55 -23.5t-56.5 -54.5z" />
<glyph unicode="&#x2000;" horiz-adv-x="1076" />
<glyph unicode="&#x2001;" horiz-adv-x="2153" />
<glyph unicode="&#x2002;" horiz-adv-x="1076" />
<glyph unicode="&#x2003;" horiz-adv-x="2153" />
<glyph unicode="&#x2004;" horiz-adv-x="717" />
<glyph unicode="&#x2005;" horiz-adv-x="538" />
<glyph unicode="&#x2006;" horiz-adv-x="358" />
<glyph unicode="&#x2007;" horiz-adv-x="358" />
<glyph unicode="&#x2008;" horiz-adv-x="269" />
<glyph unicode="&#x2009;" horiz-adv-x="430" />
<glyph unicode="&#x200a;" horiz-adv-x="119" />
<glyph unicode="&#x2010;" horiz-adv-x="1078" d="M146 662l46 217h780l-47 -217h-779z" />
<glyph unicode="&#x2011;" horiz-adv-x="1078" d="M146 662l46 217h780l-47 -217h-779z" />
<glyph unicode="&#x2012;" horiz-adv-x="1078" d="M146 662l46 217h780l-47 -217h-779z" />
<glyph unicode="&#x2013;" horiz-adv-x="1258" d="M146 662l46 217h961l-47 -217h-960z" />
<glyph unicode="&#x2014;" horiz-adv-x="1462" d="M146 662l46 217h1164l-46 -217h-1164z" />
<glyph unicode="&#x2018;" horiz-adv-x="548" d="M254 1266q-3 18 5 48q9 32 28 66l132 245h153l-88 -179q36 -12 58.5 -41.5t22.5 -71.5q0 -36 -15 -67.5t-40.5 -53t-59 -34t-70.5 -12.5q-54 0 -87.5 26.5t-38.5 73.5z" />
<glyph unicode="&#x2019;" horiz-adv-x="550" d="M289 1173l88 181q-24 8 -42.5 22.5t-29.5 37t-11 50.5q0 73 55.5 120.5t131.5 47.5q51 0 85 -27t39 -73q2 -15 -6 -48q-3 -8 -5.5 -17.5t-4.5 -15.5t-5.5 -15t-9.5 -18l-132 -245h-153z" />
<glyph unicode="&#x201a;" horiz-adv-x="587" d="M16 -212l92 184q-82 24 -82 112q0 72 55 119t131 47q51 0 85 -26t39 -71q3 -18 -5 -51q-2 -9 -5.5 -17.5t-6.5 -14.5t-8 -15.5t-8 -17.5q-36 -64 -133 -249h-154z" />
<glyph unicode="&#x201c;" horiz-adv-x="992" d="M257 1263v20q0 19 3.5 35.5t7.5 24t12 19.5t9 15l135 248h150l-88 -181q38 -12 61 -41t23 -70q0 -72 -56.5 -120.5t-131.5 -48.5q-54 0 -87 26.5t-38 72.5zM698 1263q0 36 6 49q12 44 25 65l134 248h153l-91 -181q38 -12 61 -41t23 -70q0 -72 -56 -120.5t-131 -48.5 q-36 0 -62.5 12t-42 34t-19.5 53z" />
<glyph unicode="&#x201d;" horiz-adv-x="996" d="M289 1173l88 181q-24 8 -42.5 22.5t-29.5 37t-11 50.5q0 73 55.5 120.5t131.5 47.5q51 0 85 -27t39 -73q2 -15 -6 -48q-3 -8 -5.5 -17.5t-4.5 -15.5t-5.5 -15t-9.5 -18l-132 -245h-153zM733 1173l91 181q-38 12 -61 40.5t-23 69.5q0 73 55.5 120.5t132.5 47.5 q50 0 84 -27t39 -73q3 -18 -5 -48q-10 -40 -26 -66l-132 -245h-155z" />
<glyph unicode="&#x201e;" horiz-adv-x="1022" d="M16 -210l92 182q-82 24 -82 112q0 73 54 119.5t130 46.5q54 0 87.5 -25.5t38.5 -71.5q0 -4 1 -9.5t1 -9.5q0 -17 -3.5 -31t-7 -21.5t-12 -22t-12.5 -22.5l-133 -247h-154zM451 -210l93 182q-38 12 -59.5 40.5t-21.5 71.5q0 73 53 119.5t129 46.5q22 0 40 -4.5t33 -12.5 t26 -19.5t18 -27t9 -33.5q4 -29 -3 -51q-6 -25 -30 -65q-20 -35 -43 -78t-47.5 -89.5t-42.5 -79.5h-154z" />
<glyph unicode="&#x2022;" horiz-adv-x="952" d="M206 782q0 93 52 168t134 114.5t175 39.5q108 0 175.5 -61t67.5 -164q0 -91 -51.5 -166t-134 -116t-173.5 -41q-110 0 -177.5 62t-67.5 164z" />
<glyph unicode="&#x2026;" horiz-adv-x="1681" d="M26 90q0 73 57 122t132 49q57 0 92 -32.5t35 -87.5q0 -72 -57 -120.5t-132 -48.5q-57 0 -92 32.5t-35 85.5zM567 90q0 73 57.5 122t132.5 49q57 0 92 -32.5t35 -87.5q0 -72 -57.5 -120.5t-132.5 -48.5q-56 0 -91.5 32.5t-35.5 85.5zM1115 90q0 74 58 122.5t132 48.5 q59 0 94.5 -32t35.5 -88q0 -72 -57.5 -120.5t-134.5 -48.5q-54 0 -91 33t-37 85z" />
<glyph unicode="&#x202f;" horiz-adv-x="430" />
<glyph unicode="&#x2039;" horiz-adv-x="742" d="M144 801l446 541l148 -59l-336 -482l132 -477l-174 -61z" />
<glyph unicode="&#x203a;" horiz-adv-x="742" d="M64 324l336 477l-131 482l175 59l216 -541l-448 -538z" />
<glyph unicode="&#x205f;" horiz-adv-x="538" />
<glyph unicode="&#x20ac;" horiz-adv-x="1508" d="M81 579l34 159h163q9 74 37 156h-167l35 159h190q85 182 229 315.5t317.5 200.5t357.5 67q160 0 289 -53l-124 -213q-91 39 -204 39q-182 0 -336.5 -96t-246.5 -260h546l-88 -159h-537q-32 -95 -35 -156h488l-87 -159h-401q16 -166 130.5 -265t309.5 -99q142 0 271 61 l42 -221q-166 -73 -371 -73q-305 0 -480.5 157.5t-175.5 439.5h-186z" />
<glyph unicode="&#x2122;" horiz-adv-x="1744" d="M318 1469l31 154h588l-32 -154h-207l-104 -493h-170l104 493h-210zM907 976l137 647h87l209 -304l336 304h88l-137 -647h-172l75 347l-229 -212h-12l-136 212l-75 -347h-171z" />
<glyph unicode="&#x25fc;" horiz-adv-x="1110" d="M0 0v1111h1111v-1111h-1111z" />
</font>
</defs>
</svg>
