<!-- Generated by IcoMoon.io -->
<svg version="1.1" xmlns="http://www.w3.org/2000/svg" width="768" height="768" viewBox="0 0 768 768">
<title></title>
<g id="icomoon-ignore">
</g>
<path d="M384 223.5q132 0 225.75 47.25t93.75 113.25q0 49.5-53.25 89.25t-138.75 57.75v-66q58.5-15 93.75-38.25t35.25-42.75q0-18-30-39.75t-91.5-39-135-17.25-135 17.25-91.5 39-30 39.75q0 22.5 45 48.75t115.5 38.25v-87l127.5 127.5-127.5 129v-103.5q-99-16.5-161.25-57.75t-62.25-95.25q0-66 93.75-113.25t225.75-47.25z"></path>
</svg>
