<?xml version="1.0" encoding="UTF-8"?>
<svg width="147.5" height="248.9" version="1.1" viewBox="0 0 147.5 248.9" xmlns="http://www.w3.org/2000/svg">
    <style type="text/css">.st0{fill:#FFFFFF;}
	.st1{fill:#71160C;}
	.st2{fill:#2E2E2E;}</style>
    <g transform="translate(-4.9,-4.8)">
        <path class="st0" d="m152.4 204.4v17.2h-147.5v-17.1h16.7v-199.7h114.2v3.7 190.4c0 0.9 0.1 1.9 0 2.8-0.3 2.2 0.8 2.8 2.7 2.8 4.6-0.2 9.2-0.1 13.9-0.1zm-18.9-1v-196.4h-109.4v196.4h109.4zm-126.4 16h143.1v-12.6h-143.1v12.6z" fill="#fff"/>
        <path class="st1" d="m133.5 203.4h-109.4v-196.4h109.4v196.4zm-103.4-6.7c0.8 0.1 1.3 0.2 1.8 0.2 14.4 0 28.7 0 43.1 0.1 2.3 0 2.4-1.3 2.4-3.1v-129.5c0-2.7-0.7-3.5-3.3-3.5-13.5 0.1-27 0-40.5 0.1-1.1 0-2.3 0.1-3.6 0.2 0.1 45.3 0.1 90.3 0.1 135.5zm98.2-135.3c-0.6-0.2-0.9-0.4-1.2-0.4-14.7 0-29.3 0-44-0.1-2.1 0-2 1.4-2 2.9 0 14.4-0.1 28.8-0.1 43.3 0 28.5 0.1 57.1 0.1 85.6v4h47.1c0.1-45.3 0.1-90.2 0.1-135.3zm-97.9-50.6v46.8h97.9v-46.8h-97.9z" fill="#71160c"/>
        <path class="st1" d="m7.1 219.4v-12.6h143.1v12.6h-143.1z" fill="#71160c"/>
        <g fill="#fff">
            <path class="st0" d="m30.1 196.7v-135.5c1.3-0.1 2.4-0.2 3.6-0.2 13.5 0 27 0.1 40.5-0.1 2.6 0 3.3 0.8 3.3 3.5-0.1 43.2-0.1 86.3 0 129.5 0 1.9-0.1 3.1-2.4 3.1-14.4-0.1-28.7 0-43.1-0.1-0.6 0.1-1.1-0.1-1.9-0.2zm43.9-132.1h-40.4v40.5h40.4v-40.5zm-0.1 128.9v-40.5h-40.3v40.5h40.3zm-21-84.8h-19.2v40.8h19.2v-40.8zm21.2 40.8c0-13.2 0-26.3-0.1-39.4 0-0.6-1-1.6-1.5-1.6-5.7-0.1-11.5-0.1-17.3-0.1v41.1h18.9z"/>
            <path class="st0" d="m128.3 61.4v135.2h-47.1v-4c0-28.5-0.1-57.1-0.1-85.6 0-14.4 0.1-28.8 0.1-43.3 0-1.5-0.1-2.9 2-2.9 14.7 0.1 29.3 0 44 0.1 0.2 0.1 0.5 0.3 1.1 0.5zm-43.6 3v40.6h40.2v-40.6h-40.2zm-0.2 128.9h40.5v-40.3h-40.5v40.3zm20.7-84.9v41.1h19.8v-41.1h-19.8zm-20.6 41h17.8v-41h-17.8v41z"/>
            <path class="st0" d="m30.4 10.8h97.9v46.8h-97.9v-46.8zm75.1 3.1h-52.6v19.2h52.6v-19.2zm0 21.7h-52.6v18.7h52.6v-18.7zm19.7 18.8v-40.4h-17v40.4h17zm-91.8 0h16.9v-40.4h-16.9v40.4z"/>
        </g>
        <g fill="#71160c">
            <path class="st1" d="m74 64.6v40.5h-40.4v-40.5h40.4z"/>
            <path class="st1" d="m73.9 193.5h-40.3v-40.5h40.3v40.5z"/>
            <path class="st1" d="m52.9 108.7v40.8h-19.2v-40.8h19.2z"/>
            <path class="st1" d="m74.1 149.5h-18.8v-41.1c5.8 0 11.5 0 17.3 0.1 0.5 0 1.5 1.1 1.5 1.6 0.1 13.1 0 26.2 0 39.4z"/>
            <path class="st1" d="m84.7 64.4h40.2v40.6h-40.2v-40.6z"/>
            <path class="st1" d="m84.5 193.3v-40.3h40.5v40.3h-40.5z"/>
            <path class="st1" d="m105.2 108.4h19.8v41.1h-19.8v-41.1z"/>
            <path class="st1" d="m84.6 149.4v-41h17.8v41h-17.8z"/>
            <path class="st1" d="m105.5 13.9v19.2h-52.6v-19.2h52.6z"/>
            <path class="st1" d="m105.5 35.6v18.7h-52.6v-18.7h52.6z"/>
            <path class="st1" d="m125.2 54.4h-17v-40.4h17v40.4z"/>
            <path class="st1" d="m33.4 54.4v-40.4h16.9v40.4h-16.9z"/>
        </g>
        <g fill="#2e2e2e">
            <path class="st2" d="m8 240-0.7 1.8h-0.9l2.9-6.9h0.8l2.9 6.9h-0.8l-0.7-1.8zm1.7-4.3-1.5 3.5h2.9z"/>
            <path class="st2" d="m19.1 235.4-0.3 0.7c-0.6-0.4-1.3-0.6-1.8-0.6-0.8 0-1.4 0.3-1.4 0.9 0 1.8 3.7 0.9 3.7 3.4 0 1.2-1 1.9-2.4 1.9-1 0-1.9-0.4-2.5-1.1l0.3-0.7c0.6 0.6 1.4 1 2.2 1 0.9 0 1.5-0.4 1.5-1.1 0-1.8-3.7-0.9-3.7-3.3 0-1.1 0.9-1.8 2.3-1.8 0.8 0.1 1.6 0.3 2.1 0.7z"/>
            <path class="st2" d="m25.9 235.4-0.3 0.7c-0.6-0.4-1.3-0.6-1.8-0.6-0.8 0-1.4 0.3-1.4 0.9 0 1.8 3.7 0.9 3.7 3.4 0 1.2-1 1.9-2.4 1.9-1 0-1.9-0.4-2.5-1.1l0.3-0.7c0.6 0.6 1.4 1 2.2 1 0.9 0 1.5-0.4 1.5-1.1 0-1.8-3.7-0.9-3.7-3.3 0-1.1 0.9-1.8 2.3-1.8 0.8 0.1 1.6 0.3 2.1 0.7z"/>
            <path class="st2" d="m35 238.2c0 1.9-1.5 3.5-3.4 3.5s-3.4-1.6-3.4-3.5c0-2 1.5-3.5 3.4-3.5 1.8 0.1 3.4 1.6 3.4 3.5zm-6.2 0c0 1.5 1.2 2.7 2.7 2.7s2.7-1.2 2.7-2.7-1.2-2.7-2.7-2.7-2.7 1.2-2.7 2.7z"/>
            <path class="st2" d="m42.4 235.8-0.5 0.6c-0.5-0.5-1.2-0.9-1.9-0.9-1.5 0-2.7 1.2-2.7 2.7s1.2 2.7 2.7 2.7c0.7 0 1.4-0.3 1.9-0.8l0.5 0.5c-0.6 0.6-1.5 1.1-2.4 1.1-1.9 0-3.4-1.6-3.4-3.5s1.5-3.5 3.4-3.5c0.9 0.1 1.8 0.5 2.4 1.1z"/>
            <path class="st2" d="m44.9 241.7v-6.9h0.7v6.9z"/>
            <path class="st2" d="m49.2 240-0.7 1.8h-0.8l2.9-6.9h0.8l2.9 6.9h-0.8l-0.7-1.8zm1.8-4.3-1.5 3.5h2.9z"/>
            <path class="st2" d="m59.1 242.2c0.4 0 0.7 0.3 0.7 0.8s-0.4 0.9-0.9 0.9c-0.3 0-0.6-0.1-0.8-0.2l0.2-0.4c0.2 0.1 0.4 0.2 0.6 0.2 0.3 0 0.5-0.2 0.5-0.5 0-0.2-0.2-0.4-0.5-0.4h-0.3l0.3-0.8c-1.8-0.1-3.2-1.6-3.2-3.5s1.5-3.5 3.4-3.5c0.9 0 1.8 0.4 2.4 1l-0.5 0.6c-0.5-0.5-1.2-0.9-1.9-0.9-1.5 0-2.7 1.2-2.7 2.7s1.2 2.7 2.7 2.7c0.7 0 1.4-0.3 1.9-0.8l0.5 0.5c-0.6 0.6-1.4 1-2.2 1.1z"/>
            <path class="st2" d="m64.5 240-0.7 1.8h-0.8l2.9-6.9h0.8l2.9 6.9h-0.8l-0.7-1.8zm1.8-4.3-1.5 3.5h2.9z"/>
            <path class="st2" d="m77.8 238.2c0 1.9-1.5 3.5-3.4 3.5s-3.4-1.6-3.4-3.5c0-2 1.5-3.5 3.4-3.5 1.9 0.1 3.4 1.6 3.4 3.5zm-6.1 0c0 1.5 1.2 2.7 2.7 2.7s2.7-1.2 2.7-2.7-1.2-2.7-2.7-2.7-2.7 1.2-2.7 2.7z"/>
            <path class="st2" d="m84.4 240-0.7 1.8h-0.8l2.9-6.9h0.8l2.9 6.9h-0.8l-0.7-1.8zm1.8-4.3-1.5 3.5h2.9z"/>
            <path class="st2" d="m97.6 241.7v-5.7l-2.4 5h-0.5l-2.4-5v5.7h-0.7v-6.9h0.9l2.4 5 2.4-5h0.9v6.9z"/>
            <path class="st2" d="m101.4 241.7v-6.9h0.7v6.9z"/>
            <path class="st2" d="m110.4 238.3v2.5c-0.6 0.5-1.6 0.9-2.4 0.9-1.9 0-3.4-1.6-3.4-3.5s1.5-3.5 3.5-3.5c0.9 0 1.8 0.4 2.4 0.9l-0.4 0.6c-0.5-0.5-1.3-0.8-2-0.8-1.5 0-2.7 1.2-2.7 2.7s1.2 2.7 2.7 2.7c0.6 0 1.2-0.2 1.7-0.6v-2.1h0.6z"/>
            <path class="st2" d="m119.6 238.2c0 1.9-1.5 3.5-3.4 3.5s-3.4-1.6-3.4-3.5c0-2 1.5-3.5 3.4-3.5 1.8 0.1 3.4 1.6 3.4 3.5zm-6.2 0c0 1.5 1.2 2.7 2.7 2.7s2.7-1.2 2.7-2.7-1.2-2.7-2.7-2.7-2.7 1.2-2.7 2.7z"/>
            <path class="st2" d="m126 235.4-0.3 0.7c-0.6-0.4-1.3-0.6-1.8-0.6-0.8 0-1.4 0.3-1.4 0.9 0 1.8 3.7 0.9 3.7 3.4 0 1.2-1 1.9-2.4 1.9-1 0-1.9-0.4-2.5-1.1l0.3-0.7c0.6 0.6 1.4 1 2.2 1 0.9 0 1.5-0.4 1.5-1.1 0-1.8-3.7-0.9-3.7-3.3 0-1.1 0.9-1.8 2.3-1.8 0.8 0.1 1.6 0.3 2.1 0.7z"/>
            <path class="st2" d="m135.1 234.8c1.9 0 3.4 1.5 3.4 3.5s-1.5 3.5-3.4 3.5h-2.6v-6.9h2.6zm-1.9 6.2h1.9c1.5 0 2.6-1.2 2.6-2.7 0-1.6-1.2-2.7-2.6-2.7h-1.9z"/>
            <path class="st2" d="m147 238.2c0 1.9-1.5 3.5-3.4 3.5s-3.4-1.6-3.4-3.5c0-2 1.5-3.5 3.4-3.5 1.9 0.1 3.4 1.6 3.4 3.5zm-6.1 0c0 1.5 1.2 2.7 2.7 2.7s2.7-1.2 2.7-2.7-1.2-2.7-2.7-2.7-2.7 1.2-2.7 2.7z"/>
            <path class="st2" d="m20.6 253.6v-5.7l-2.4 5h-0.5l-2.4-5v5.7h-0.7v-6.9h0.9l2.4 5 2.4-5h0.9v6.9z"/>
            <path class="st2" d="m29.7 250.7c0 1.8-1 2.9-2.7 2.9s-2.8-1.1-2.8-2.9v-4.1h0.8v4.1c0 1.3 0.8 2.1 2 2.1s2-0.8 2-2.1v-4.1h0.8v4.1z"/>
            <path class="st2" d="m36.6 247.3-0.3 0.7c-0.6-0.4-1.3-0.6-1.8-0.6-0.8 0-1.4 0.3-1.4 0.9 0 1.8 3.7 0.9 3.7 3.4 0 1.2-1 1.9-2.4 1.9-1 0-1.9-0.4-2.5-1.1l0.3-0.7c0.6 0.6 1.4 1 2.2 1 0.9 0 1.5-0.4 1.5-1.1 0-1.8-3.7-0.9-3.7-3.3 0-1.1 0.9-1.8 2.3-1.8 0.8 0 1.6 0.3 2.1 0.7z"/>
            <path class="st2" d="m40.2 247.4v2.3h3.3v0.8h-3.3v2.4h3.8v0.8h-4.6v-6.9h4.5v0.8h-3.7z"/>
            <path class="st2" d="m51.9 250.7c0 1.8-1 2.9-2.7 2.9s-2.8-1.1-2.8-2.9v-4.1h0.8v4.1c0 1.3 0.8 2.1 2 2.1s2-0.8 2-2.1v-4.1h0.8v4.1z"/>
            <path class="st2" d="m61.1 246.7c1.9 0 3.4 1.5 3.4 3.5s-1.5 3.5-3.4 3.5h-2.6v-6.9h2.6zm-1.9 6.1h1.9c1.5 0 2.6-1.2 2.6-2.7 0-1.6-1.2-2.7-2.6-2.7h-1.9z"/>
            <path class="st2" d="m73 250.1c0 1.9-1.5 3.5-3.4 3.5s-3.4-1.6-3.4-3.5c0-2 1.5-3.5 3.4-3.5s3.4 1.6 3.4 3.5zm-6.1 0c0 1.5 1.2 2.7 2.7 2.7s2.7-1.2 2.7-2.7-1.2-2.7-2.7-2.7-2.7 1.2-2.7 2.7z"/>
            <path class="st2" d="m79.1 253.6v-6.9h0.7v6.9z"/>
            <path class="st2" d="m88.8 253.6v-5.7l-2.4 5h-0.4l-2.4-5v5.7h-0.7v-6.9h0.9l2.4 5 2.4-5h0.9v6.9z"/>
            <path class="st2" d="m92.6 253.6v-6.9h0.7v6.9z"/>
            <path class="st2" d="m101.6 250.2v2.5c-0.6 0.5-1.6 0.9-2.4 0.9-1.9 0-3.4-1.6-3.4-3.5s1.5-3.5 3.5-3.5c0.9 0 1.8 0.4 2.4 0.9l-0.4 0.6c-0.5-0.5-1.3-0.8-2-0.8-1.5 0-2.7 1.2-2.7 2.7s1.2 2.7 2.7 2.7c0.6 0 1.2-0.2 1.7-0.6v-2.1h0.6z"/>
            <path class="st2" d="m107.5 251.4h-0.4-1.7v2.2h-0.7v-6.9h2.5c1.6 0 2.6 0.9 2.6 2.3 0 1.1-0.5 1.9-1.5 2.2l1.5 2.4h-0.9zm-0.5-0.8c1.2 0 1.9-0.6 1.9-1.6s-0.7-1.6-1.9-1.6h-1.7v3.2z"/>
            <path class="st2" d="m113 251.8-0.7 1.8h-0.8l2.9-6.9h0.8l2.9 6.9h-0.8l-0.7-1.8zm1.7-4.2-1.5 3.5h2.9z"/>
            <path class="st2" d="m124.9 253.6-3.9-5.6v5.6h-0.7v-6.9h0.8l3.9 5.6v-5.6h0.7v6.9z"/>
            <path class="st2" d="m130.7 247.4v6.2h-0.7v-6.2h-2.1v-0.8h5v0.8z"/>
            <path class="st2" d="m135.7 247.4v2.3h3.3v0.8h-3.3v2.4h3.8v0.8h-4.5v-6.9h4.5v0.8h-3.8z"/>
        </g>
    </g>
</svg>
