<?xml version="1.0" encoding="utf-8"?>
<svg version="1.1" id="Camada_1" xmlns="http://www.w3.org/2000/svg" xmlns:xlink="http://www.w3.org/1999/xlink" x="0px"
	y="0px" viewBox="0 0 87.4 87.1" style="enable-background:new 0 0 87.4 87.1;" xml:space="preserve">
	<g>
		<path class="st0" d="M0,61.9c0-12.3,0-24.5,0-36.8c0.1-0.3,0.1-0.5,0.2-0.8C1.1,13.8,9,4.1,19.4,1.2c1.9-0.5,3.9-0.8,5.9-1.2
		c12.3,0,24.6,0,36.9,0c1.7,0.3,3.4,0.5,5.1,1c12.1,3.3,20.1,13.9,20.2,26.4c0,10.8,0,21.6,0,32.4c0,0.9-0.1,1.8-0.1,2.6
		c-1,11.2-9,20.8-19.8,23.7c-1.7,0.5-3.6,0.7-5.3,1c-12.3,0-24.6,0-36.9,0c-0.2,0-0.4-0.1-0.6-0.1C13.4,85.9,4,78.1,1,67.2
		C0.5,65.5,0.3,63.7,0,61.9z M8.2,43.5c0,5.4,0,10.8,0,16.2c0,1.1,0,2.2,0.2,3.2C10,72.3,17.9,78.9,27.5,79c10.8,0,21.6,0,32.3,0
		c1,0,2.1-0.1,3.1-0.2c9.5-1.6,16.2-9.4,16.2-19c0-10.7,0-21.5,0-32.2c0-1-0.1-2.1-0.2-3.1c-1.6-9.5-9.4-16.1-19.1-16.1
		c-10.8,0-21.6,0-32.4,0c-1,0-2.1,0.1-3.1,0.2c-9.6,1.7-16.1,9.4-16.1,19.2C8.2,32.9,8.2,38.2,8.2,43.5z" />
		<path class="st0" d="M21.8,43.5c0-12,9.9-21.8,21.9-21.7c12,0,21.8,9.8,21.8,21.8c0,12-9.9,21.8-21.9,21.7
		C31.6,65.3,21.8,55.5,21.8,43.5z M43.7,30c-7.5,0-13.7,6.1-13.7,13.5c0,7.5,6.1,13.7,13.6,13.7c7.5,0,13.7-6.1,13.7-13.5
		C57.4,36.1,51.3,30,43.7,30z" />
		<path class="st0"
			d="M67.2,23c-1.6,0-2.9-1.3-2.9-2.9c0-1.6,1.3-2.9,2.9-2.9c1.6,0,2.9,1.3,3,2.9C70.1,21.7,68.8,23,67.2,23z" />
	</g>
</svg>