<!-- Generated by IcoMoon.io -->
<svg version="1.1" xmlns="http://www.w3.org/2000/svg" width="640" height="640" viewBox="0 0 640 640">
<title></title>
<g id="icomoon-ignore">
</g>
<path d="M505.6 256h-57.6v-76.8c0-92.704-42.72-147.2-128-147.2-85.312 0-128 54.496-128 147.2v76.8h-64c-17.696 0-32 20.672-32 38.368v249.632c0 17.568 13.696 36.448 30.432 41.824l38.304 12.384c16.768 5.344 44.864 9.792 62.464 9.792h185.6c17.568 0 45.696-4.448 62.432-9.824l38.272-12.384c16.768-5.344 30.496-24.224 30.496-41.792v-249.632c0-17.696-20.736-38.368-38.4-38.368zM384 256h-128v-89.632c0-46.24 25.504-70.368 64-70.368s64 24.128 64 70.368v89.632z"></path>
</svg>
