<?xml version="1.0" encoding="UTF-8"?>
<svg width="199.5" height="181.7" version="1.1" viewBox="0 0 199.5 181.7" xmlns="http://www.w3.org/2000/svg">
    <g fill="#fff">
        <path class="st0" d="m99.9 0.1h97.4c1.7 0.1 2.2 0.5 2.2 2.3v28.9c0 37.7-0.1 75.3-0.1 113v34.1c0 3.1-0.2 3.3-3.3 3.3-51.8-0.2-103.6-0.1-155.3-0.2h-28.9c-2.8 0-5.7 0-8.5 0.1h-1.2c-1.8-0.1-2.2-0.5-2.2-2.4v-23.1c0-43.6 0.1-87.2 0.1-130.8v-22.8c0-2 0.4-2.5 2.5-2.5h2.2c31.7 0 63.4 0.1 95.1 0.1zm-0.1 152.4c2.6 0 6.3-0.3 10-0.7 6.4-0.7 12.7-1.6 18.9-3.4 11-3.1 21.4-7.8 30.7-14.6 8.3-6 14.8-13.7 19.3-23.1 4.2-8.8 5.6-18 3.6-27.7-1.7-8.3-5.4-15.6-10.7-22-5.2-6.3-11.3-11.4-18.1-15.7-6.7-4.3-14-7.2-21.5-9.6-7.2-2.3-14.6-4-22.2-4.5-3.4-0.2-6.8-0.1-10.3-0.1-6.5 0-12.9 0.4-19.3 1.4-12.7 2-24.6 6.2-35.7 13-9.2 5.7-17 12.9-22.6 22.5-3.8 6.5-6.2 13.4-6.6 21-0.4 8.8 1.5 17.1 5.6 24.7 4.1 7.5 9.7 13.6 16.3 18.9 8.1 6.5 17.3 11 27 14.3 11.4 3.6 22.8 5.4 35.6 5.6zm38.9-117.3v-4.8c0.1-1.7 0.5-3.4 1.9-4.4 2.7-2 3.7-4.8 4-8.1 0.1-1.2 0.2-2.3 0.5-3.4 0.4-1.7 1.5-2.5 3.1-2.8 0.9-0.1 1.9-0.1 2.8 0 1.9 0.3 2.8 1.4 2.9 3.4 0.1 1 0 1.9 0 2.9 0.1 3.1 1 5.7 3.4 7.7 1.4 1.1 2 2.7 2.1 4.5s0.2 3.6 0.2 5.5c0.1 2 0.1 3.9-0.2 5.9l-0.3 2.1c-0.2 1.6 0.3 2.9 1.5 3.9 0.6 0.5 1.2 1 1.9 1.5 1.4 1 2.1 0.9 3-0.5 2.3-3.5 3.8-7.3 4.2-11.5 0.2-1.7 0.2-3.4 0-5.1-0.2-1.9 0.5-2.8 2.3-3.3 0.3-0.1 0.7-0.2 1-0.2 1.8-0.2 2.8 0.6 2.9 2.5 0 0.8 0.1 1.5 0.3 2.2 0.6 1.7 0.9 3.5 1.1 5.3 0.3 2.1 0.7 4.2 1.9 6 0.5 0.8 0.6 0.8 1.2 0.1 1.4-1.5 2.2-3.3 2.7-5.3 0.6-2.5 0.8-5.1 0.9-7.7 0.1-1.9 0.2-3.8 0.4-5.7 0.2-2.3 1.2-3.4 3.4-3.7 0.3 0 0.6-0.1 0.9-0.1 1.8-0.1 2.9 0.9 3.1 2.7 0.1 1.7 0.1 3.4-0.1 5.1-0.2 1.5-0.4 3.1-0.4 4.7-0.1 3 0.1 6 0.2 8.9 0 1.3 0.4 2.3 1.4 3 2.6 2 3.2 4.7 2.7 7.8-1.1 7.6-1.7 15.3-2.3 22.9-0.3 3.3-0.6 6.5-0.8 9.8-0.3 3.2-1.8 5.4-4.8 6.4-0.3 0.1-0.6 0.3-1 0.4-0.9 0.3-1.4 1-1.4 1.9 0 3.2-0.8 6.3-1.7 9.4-0.2 0.6-0.2 1.2-0.4 1.8-0.2 0.7 0.1 0.9 0.7 0.9h1c3 0 6 0 8.9 0.1 2.7 0 3-0.2 3-2.9v-40.3c0-19.6 0-39.1 0.1-58.7 0-2.9-0.2-3-2.9-3h-31.2c-10.3 0-20.6 0-30.9-0.1-2.7 0-2.8 0.1-2.8 3v24.7c0 1.9 0.3 2.2 2 2.6 1.4 0.3 2.7 0.8 4.1 1.3 0.9 0.1 2.1 0.6 3.5 0.7zm-117.3 15.6c-0.7-0.8-1.3-1.7-2-2.5-1.3-1.5-2.9-2.3-5-1.9-1.1 0.2-1.7-0.3-2-1.5-0.3-1.4-0.7-2.8-1.3-4.2-0.5-1.2-0.9-2.3-1.2-3.6-0.2-1-0.4-2 0.1-3 0.4-0.8 0.2-1-0.7-1.3-0.6-0.2-1.2-0.2-1.7-0.5-1-0.5-1.3-1.3-0.5-2.3 1.8-2.2 2.5-4.9 3.2-7.6 0.3-1.4 0.7-2.8 1.3-4.2 1-2.3 2.5-4 5-4.4 0.9-0.1 1.7-0.6 2.3-1.5 0.7-0.9 1.5-1.6 2.6-1.9 1.3-0.5 2.7-0.4 4 0 2.2 0.5 4.1 1.5 6.1 2.4 2.1 1 4.2 1.9 6.5 2.4 0.3 0.1 0.6 0.2 0.8 0.3 0.3 0.1 0.5 0.4 0.4 0.7-0.6 1.6 0.2 3 0.6 4.4 0.3 1 0.2 2-0.2 2.9-1 2-0.8 2.8 0.8 4.4 1.1 1.1 1.4 2.4 0.8 3.9-0.7 1.7-1 3.5-1.1 5.3-0.1 2.3-0.4 4.6-1.6 6.7 0 0.1 0.1 0.2 0.1 0.3 2.1 0.3 3.1 0.1 4.5-0.8 3.9-2.6 8.1-4.6 12.4-6.4 0.5-0.2 1.1-0.5 1.6-0.8 1-0.7 1.2-1.4 0.7-2.6-0.3-0.7-0.7-1.4-0.9-2-0.5-1.2-0.7-2.4-0.1-3.5 0.7-1.5 0.8-3 0.9-4.5 0.1-1 0.1-1.1-1-1.2-0.5 0-1.1 0-1.6-0.2-1.2-0.4-1.7-1.5-1.5-2.9 0.2-1 0.7-1.4 2.1-1.3 0.3 0 0.6 0 0.9 0.1 1.5 0.1 2.7-0.5 3.6-1.8 0.4-0.7 0.9-1.3 1.4-1.9 1.7-1.9 3.7-2.9 6.2-2.6 1.1 0.1 2.2 0 3.3-0.3 2.8-0.7 5.3 0.2 7.5 2 0.9 0.7 1.5 1.7 1.5 2.9 0 1.9 0.5 3.7 1.1 5.5 0.7 2.2 1.4 4.3 0.9 6.7v0.1c0 0.4 0 0.7 0.4 0.9 0.3 0.1 0.6-0.1 0.7-0.3 0.5-0.7 0.9-1.3 1.4-2 0.8-1.1 1.1-2.4 0.8-3.7-0.2-0.8-0.3-1.7-0.2-2.6 0.1-1.3 0.5-2.5 1.6-3.1 1.3-0.8 1.7-1.7 1.4-3.1-0.1-0.3 0-0.6 0-0.9 0.1-2.4 1-4.2 3.4-4.9 0.8-0.2 1-0.7 1-1.5-0.1-1.6 0.2-2 1.8-2.4 1.3-0.4 2.5-0.7 3.8-1.1 0.3-0.1 0.6-0.1 0.6-0.6-0.4-0.2-0.9-0.1-1.3-0.1-30.9-0.6-61.9-0.6-93-0.7-0.2 0-0.5 0-0.7 0.1-1.2 0.2-1.6 0.6-1.5 1.8 0.1 1 0.1 1.9 0.1 2.9 0 3.6-0.1 7.2-0.1 10.8v62.9c0 0.6-0.1 1.3 0.2 1.9 2-0.8 3.4-2.1 4.2-4 0.5-1.2 1.1-2.4 1.4-3.6 1-3.9 2.5-7.7 2.8-11.7 0-0.3 0.1-0.5 0.1-0.7 0.3-1.4 1.1-2.5 2.4-3 0.2-0.1 0.5-0.2 0.7-0.3 0.5-0.3 0.5-0.7 0.1-1.1-0.1-0.1-0.3-0.2-0.5-0.3-1-0.8-1.1-1.2-0.2-2.2 1.6-1.9 3.4-3.3 5.7-4.1 0.8-0.4 1.7-0.7 2.1-1.1zm78.7 112.3c0.3 0.1 0.3 0.1 0.4 0.1 2.2-0.1 4 0.6 4.6 3.1 0.2 0.6 0.6 0.7 1.1 0.7 2.1-0.2 4.2 0 6.3 0.2 1 0.1 2 0.1 2.9 0 2.9-0.1 5.2-1.4 6.7-3.9 0.4-0.6 0.8-1.1 1.4-1.6 4.5-4 9.5-7 15-9 2-0.8 4-1.7 6.2-1.5 0.3 0 0.7-0.1 1-0.2 5.5-1.3 11-1.3 16.5 0.2 6 1.6 11.4 4.3 15.4 9.3l0.3 0.3c0.7 0.6 1.1 0.6 1.7-0.1s0.9-1.5 1.2-2.4c0.3-1 0.8-1.9 1.7-2.6 2.3-2 4-4.5 5.6-7.2 1.3-2.3 2.4-4.6 3.5-7 1.3-2.6 2.5-5.3 4.1-7.7 0.7-1.1 1.1-2.3 1-3.7v-18.2c0-1.3-0.4-1.6-1.6-1.6h-1.5c-3.4 0-6.8 0-10.3-0.1-1.2 0-2 0.4-2.5 1.5-0.1 0.2-0.2 0.4-0.3 0.7-4.2 8.5-10 15.6-17.3 21.5-8.5 6.9-18 11.7-28.2 15.2-9.8 3.4-20 5.1-30.4 5.3-1.2 0-2.4 0-3.6 0.4-1.4 0.4-1.5 0.6-0.6 1.9 0.4 0.7 1 1.3 1.4 2 0.8 1.3 0.7 2.3-0.4 3.4-0.3 0.3-0.8 0.6-1.3 1zm-78.4-12.7c-0.5-0.8-0.6-1.6-0.7-2.5-0.2-2.5-0.5-4.9-0.7-7.4-0.4-6-0.4-12 0.3-18 0.3-2.7 0-5.1-1.3-7.5-1-1.8-2.2-3.6-2.9-5.6-0.1-0.4-0.3-0.6-0.7-0.6-1.5 0-3-0.3-4.5 0-1.6 0.3-1.9 0.8-1.4 2.4 0.4 1.3 0.6 2.5 0.6 3.9v35.8c0 1.3 0.4 1.6 1.6 1.4 0.2 0 0.4-0.1 0.6-0.2 1.8-0.7 3.6-0.6 5.4 0.2 1.6 0.8 3.3 1.1 5.1 1.3 3.4 0.3 6.7 0.1 10.1 0.5 3.6 0.5 7.3 1.1 10.8 2.1 1.9 0.6 3.2 1.7 3.3 3.9 0 0.5 0.2 1 0.7 1.3 0.6 0.4 0.9 0.2 1-0.5v-2.6c-0.1-2.6 0.6-3.8 2.9-4.8 2-0.9 4.1-1.3 6.3-1.5 2.6-0.1 5.2 0.1 7.8 0.4 1.6 0.2 3.3-0.1 4.9 0.5 0.4 0.1 0.6-0.1 0.7-0.5 0.2-0.7-0.2-1.1-0.8-1.2-1.2-0.2-2.3-0.7-3.4-1-11.7-3.5-22.5-9-32.2-16.6-0.3-0.2-0.6-0.6-1.1-0.6-0.4 2-0.6 4-0.6 6.1-0.1 2.1-0.1 4.1-0.2 6.2 0 2 0 4-0.2 6-0.4-2.8-0.5-5.6-0.5-8.5v-8.9c0-1.9-0.4-3.6-2.1-4.6-1.5-0.9-2.6-2.1-3.6-3.5-0.9-1.2-1.7-2.5-2.6-3.6-0.6-0.8-1.3-1.6-2.5-1.8-0.8 10-0.6 20-0.1 30zm45.8 18c-0.7 1-1.5 1.3-2.4 1.3h-12.3c-1.9 0-3.7-0.2-5.6-0.1h-0.2c-1.4 0.6-1.6 1.6-2 2.5-1.2 3.3-3.4 5.2-6.8 5.5-2.5 0.3-5.1 0.3-7.6 0.8-1.4 0.3-2.9 0.4-4.4 0.3-7.2-0.5-14.8 0.2-21.3-4.7-0.2-0.2-0.4-0.4-0.5-0.7-1.5-3.6-0.3-7.1-1-10.5-0.4-2.1 0.8-4 2-5.6 0-0.1 0.1-0.1 0.2-0.2 1-1.2 1.9-2.5 2.7-3.9 0.5-0.9 0.8-1.9 0.8-3 0-3.4 0.1-6.8 0.1-10.1 0-7.4 0-14.8-0.1-22.2 0-2.2-0.1-4.4-0.4-6.6-0.3-2.1-0.9-2.5-2.8-2.1-0.5 0.1-1 0.2-1.6 0.1-1.4-0.2-1.7 0-1.8 1.5v1.1c0 21.4-0.1 42.7-0.1 64.1 0 3.1 0.2 3.3 3.2 3.3h63.6c1.7-0.1 2.1-0.5 2.1-2.3v-1.8c0-4.7-0.1-9.5 0.1-14.2 0.2-3.2-0.9-3.8-4.4-2.9-0.2 0-0.4 0.1-0.6 0.1-4.2 0.6-8.2 0.2-12.3-0.5-1.3-0.2-2.6-0.6-4-0.7-0.3 0.6-0.1 1.3-0.2 1.8v6.7c0 0.6-0.1 1.1-0.9 1-1.5-0.1-2 0.3-2.4 2zm29.3-4.6c0.3-0.7 0.8-0.7 1.2-0.9 0.8-0.4 1.6-0.8 2.3-1.3 1.3-0.9 1.4-1.6 0.5-2.9-0.9-1.4-2.1-2.4-3.3-3.4-0.8-0.6-1.7-0.9-2.7-0.8-3 0.1-5.9-0.1-8.9-0.5-3.5-0.4-6.9-1.1-10.4-1.6-1.5-0.2-1.6-0.2-1.6 1.4v22.4c0 2.6 0.2 2.8 2.8 2.8h32.5c1.1 0 1.5-0.3 1.7-1.4 0.3-1.7-0.2-3.3-1-4.8-0.7-1.1-1.5-1.9-2.9-2-1.2-0.1-2-0.8-2.2-2-0.1-0.3-0.1-0.6-0.2-0.9-0.6-2.6-1.5-3.4-4-3.7-1.3-0.1-2.5-0.3-3.8-0.4zm31.1 15.9h1.5c21.6 0 43.2 0.1 64.8 0.1h1.3c0.9-0.1 1.2-0.5 1.2-1.4v-41.7c0-0.5 0.1-1.1-0.2-1.6-0.5 0.4-0.7 1-0.9 1.5-1.5 3.7-3.7 7.1-5.3 10.8-1 2.1-2.2 4-3.9 5.6-1.6 1.6-3.1 3.4-4 5.5-0.6 1.5-1.5 2.7-2.6 3.8-2.4 2.2-4.2 4.7-5.7 7.7-0.7 1.4-1.5 2.7-2.5 3.9-1.2 1.4-2.6 2.4-4.4 2.5-3.9 0.3-7.7 1.1-11.6 1.4-2.9 0.3-5.9 0.1-8.7-1-1.6-0.6-3.1-0.6-4.7 0.1-1.7 0.8-3.5 1.2-5.3 1.4-2.3 0.2-4.7 0.3-7 0.1-0.8 0-1.6 0.1-2 1.3zm-82.3-19.4c-0.6-0.2-1 0-1.3 0.1-3.3 0.8-6.6 1.5-10 1.5-5.1 0.1-10.2 0.6-15.3 1.2-4.3 0.5-8.5-0.1-12.3-2.3-0.1-0.1-0.3-0.2-0.4-0.2-0.9-0.3-1.2-0.2-1.3 0.7-0.2 1.1-0.3 2.2-0.4 3.3-0.3 1.8-0.1 3.6 0.5 5.4 0.7 2 1.8 3.7 3.7 4.7 2.2 1.1 4.6 2.1 7.1 2.2 6.2 0.4 12.4 0.4 18.6 0.1 1.8-0.1 3.6-0.4 5.3-1.1 3.2-1.3 4.8-3.8 5.3-7.2 0.1-0.6-0.1-0.8-0.7-0.7l-3.3 0.6c-2.9 0.5-4.9-0.8-6.5-3.1-0.3-0.5-0.4-0.9 0-1.4 0.5-0.5 1-0.5 1.4-0.1 0.3 0.2 0.6 0.5 0.9 0.8 1.1 1.2 2.4 1.6 4 1.5 1.1-0.1 2.1-0.4 3.1-0.7 1.2-0.4 1.5-0.7 1.3-2.1-0.4-1.1-0.4-2.1 0.3-3.2zm140.1-107.3c-0.6 1.5-0.6 2.9-0.6 4.3 0.1 3.5 0.2 7-0.4 10.6-0.8 5.3-0.7 10.6-0.2 15.9 0.3 2.5 1.1 4.9 0.8 7.5-0.1 0.6 0.4 1.1 1.1 1.2 1.2 0.1 2.1-0.3 2.9-1.2 1.1-1.4 1.9-2.9 1.9-4.8 0.1-3.3 0.3-6.6 0.7-9.8 0.3-3 0.8-5.9 1-8.9 0.4-4.7 0.6-9.5 1.4-14.2 0.4-2.2-0.1-4.4-1.8-6-1.9-1.7-2.5-3.9-2.6-6.3-0.1-3.2 0.2-6.4 0.5-9.5 0.2-2.2 0.4-4.4 0.2-6.7-0.1-1.3-0.7-1.9-1.8-2-1.5-0.1-2.8 0.5-2.9 1.7-0.3 2.9-1.3 5.8-0.7 8.9 0.1 0.6 0 1.3 0 2-0.2 1.9-0.7 3.7-1.2 5.4-0.8 2.8-2.3 5-4.9 6.3-0.7 0.3-1.2 0.8-1.6 1.5-0.6 1.1-0.3 2.4 0.8 2.8 1.5 0.5 2.9 1.1 4.6 1 0.9-0.1 1.8-0.1 2.8 0.3zm-149.4-7.4c0.1-0.7 0.5-1.1 0.8-1.6 1.5-2.4 2.4-5 2.1-7.9-0.1-0.9 0.2-1.6 0.6-2.4 0.3-0.6 0.5-1.3 0.6-2 0.4-2-0.2-2.9-2.2-4-0.4-0.2-0.8-0.4-1.2-0.5-0.8-0.2-1.2-0.7-1.6-1.5-0.7-1.8-1.8-2.3-3.5-1.7-2.1 0.8-4.2 1.3-6.4 1.7-1.5 0.3-2.9 1.3-3.6 2.7-0.6 1.2-0.8 2.4-1.2 3.7-0.3 1.3-0.7 2.3-1.7 2.9-1.4 0.8-2 2.1-1.9 3.8 0 1.4-0.1 1.5-1.4 1.2-1.8-0.4-2.8 0.4-2.8 2.4 0 2.7 1 3.6 3.5 3.1 1.3-0.2 2.3 0.2 3.1 1.2 0.2 0.3 0.4 0.7 0.7 1 0.7 1 1.5 1.7 2.8 1.7 0.9 0 1.4 0.5 1.7 1.4 0.5 1.6 0.9 3.3 3.3 3.7 1 0.1 1.9-0.2 2.6-0.9 1.7-1.7 3.4-3.2 5.3-4.6 1-0.7 2-1.4 2.8-2.3 0.2-0.2 0.7-0.3 0.6-1zm117-26.4v-2.1c-0.1-1.4-0.9-2-2.2-1.6s-2.4 0.6-3.7-0.1c-0.6-0.3-1 0-1.2 0.6-0.1 0.3-0.2 0.7-0.3 1-0.2 1.2-0.3 2.5-0.5 3.7-0.2 1.6-0.9 2.9-2.2 3.9-1.8 1.4-2.9 3.2-3.3 5.5-0.2 1.2-0.2 2.4-0.2 3.6 0 1.6 0.6 2.5 2.1 3.1 4.6 1.7 8.9 4 12.9 6.7 0.5 0.4 1.1 0.6 1.7 0.9s1.1 0 1.4-0.6c0.3-0.7 0.3-1.4 0.3-2.1v-11.1c0-1.8-0.5-3.3-1.9-4.4-2-1.7-3.1-4.2-2.9-7zm-115.7-2.4c-0.2-0.2-0.4-0.3-0.5-0.4-3.8-1.6-7.7-3.2-11.4-5.1-1.6-0.8-3-0.5-4.4 0.6-0.5 0.4-1 0.9-1.5 1.5-0.8 1.1-1.8 1.8-3.2 1.9-1.7 0.1-2.9 1.1-3.6 2.7-0.5 1-0.7 2-1 3-0.7 2.5-1.3 5-2.3 7.3-0.2 0.5-0.4 1-0.8 1.4-1 1-0.9 1.3 0.3 1.9 0.7 0.4 1.5 0.4 2.3 0.1 1-0.3 2-0.7 3-1.3 1.9-1 3.8-2.1 5.7-3.2 2.3-1.3 4.6-2.4 7.2-2.9 0.5-0.1 1-0.3 1.6-0.4 3.5-1.3 6.4-3.6 8.6-7.1zm74-13.8c2.4 1.2 4.4 2.6 6.2 4.3 1.2 1.2 1.1 2-0.3 2.9-1.5 1-1.5 1.1-0.9 2.8 0.1 0.3 0.2 0.6 0.3 0.8 1.3 2.5 1.6 5.3 1.9 8 0.1 1.4-0.3 2.6-1.3 3.5-0.4 0.4-0.9 0.8-1.3 1.2-0.3 0.3-0.6 0.6-0.8 1-0.7 1.3-0.3 2.1 1.2 2.3 1.2 0.2 2.4 0.3 3.6 0.4 1.8 0.3 3.5 0.8 5.3 1.3 1.3 0.4 1.7 0 1.8-1.4v-25.5c0-1.7-0.3-2.1-1.8-2.1-4.4 0-8.9 0-13.3 0.1-0.2 0.1-0.3 0.2-0.6 0.4zm-95.7 57.2c-0.9 0.4-1.5 0.7-2.1 1-1 0.5-1.5 1.2-1.6 2.3-0.1 1.2-0.3 2.4-0.5 3.6-0.7 4.6-2.3 9-4.2 13.2-0.9 1.8-2.1 3.3-4.1 3.8-0.7 0.2-0.9 0.7-0.9 1.4v11.4c0 1.1 0.1 1.2 1.2 1.2h5.1c0.9 0 1.9 0 2.8-0.2 1.7-0.4 2.1-0.9 1.8-2.8-0.1-0.8-0.2-1.5-0.3-2.2-0.3-2.6-0.2-5.2 0.4-7.7 0.7-3.3 1-6.7 2.7-9.7 0.5-0.9 0.3-1.4-0.6-2-1.1-0.7-1.3-1-0.8-2.2 1.4-3.6 1-7.2 1.1-11.1zm92.4-32.6h0.3l0.3-0.3c1.7-2.4 3.1-4.9 3.7-7.9 0.3-1.5 0.9-2 2.4-2.1 0.3 0 0.7 0 1-0.1 1-0.2 1.2-0.7 0.9-1.6s-0.8-1.6-1.3-2.3c-0.4-0.5-0.8-1.1-0.9-1.7-0.2-0.7 0-1.2 0.6-1.5 0.4-0.2 0.8-0.3 1.2-0.5 0.9-0.5 0.9-0.9 0.2-1.6-1.7-1.8-3.7-2.9-6-3.6-0.7-0.2-1.5-0.2-2.1-0.6-0.7-0.3-0.8 0-1 0.6-0.3 1.4-0.7 2.8-1 4.3-0.2 1-0.2 1 0.8 1.2 0.5 0.1 1 0.2 1.4 0.3s1 0.2 1 0.7c0 0.6-0.6 0.6-1 0.6h-0.3c-1 0.1-1 0.1-0.6 1.2 0.3 0.9 0.6 1.7 0.9 2.6 0.4 1.2 0.7 2.4 0.6 3.7-0.1 0.9-0.3 1.7-1 2.4-0.3-0.6-0.2-1-0.2-1.4 0.2-2.6-0.7-4.8-2.7-6.3-0.6-0.5-0.9-1-0.9-1.9 0.1-1-0.2-1.2-1.2-1.1-0.4 0-0.8 0.2-1.3 0-0.7-0.3-1.1 0.1-1 0.8 0 0.4 0.2 0.8 0.3 1.2 0.2 1.1 0.3 2.1-0.1 3.2-2-3-1.7-6.3 0.6-8.5 0.1 0.1 0.1 0.2 0.2 0.2 0.6 1.8 2 1.9 3.1 0.2 0.9-1.3 1-2.8 1.2-4.3 0.1-0.7-0.4-1-1-1.1-0.3 0-0.6 0-0.9 0.1-3 0.8-6 1.7-9 2.7-0.4 0.1-0.7 0.3-1 0.5-0.4 0.3-0.6 0.8-0.3 1.2 0.7 1.1 1.3 2.4 2.4 3.2 1.2 0.8 1.3 0.9 0.6 2.2-0.4 0.9-1 1.8-1.2 2.7s-0.1 1.4 0.6 1.6c1.6 0.4 3.3 0.6 4.9 0.1 1-0.3 1.3-0.4 1.9 0.5 1 1.3 1.9 2.7 2.5 4.3 0.4 1.1 0.8 2.3 1.2 3.4 0.3 1.1 0.7 2 1.2 2.7zm63.1 144.1c-0.6-0.3-1.1-0.2-1.5-0.2h-46.2c-2 0.1-2.9 0.8-3.5 2.8-0.3 1.1-0.5 2.3-0.8 3.4-0.2 1.1-0.2 1.2 0.9 1.3 1.4 0.2 2.8 0.1 4.1-0.4 3.3-1.2 6.6-1.5 10.1-1.3 2.3 0.1 4.7-0.1 6.8-1.4 1.9-1.2 3.9-1.3 5.9-0.5 3 1.1 6.1 1.2 9.2 1s6.2-0.9 9.3-1.1c1-0.1 2-0.3 3-0.8 1.2-0.6 2.1-1.5 2.7-2.8zm-126.2-13.2c-1.6-0.9-3.1-1.5-4.7-1.9-3.6-1-7.2-1.1-10.9-1.5-4.1-0.4-8.2 0.1-12.3 0.4-2.3 0.2-4.7 0.5-7 1.1-1.2 0.3-2.4 0.6-3.5 1.1-0.5 0.2-0.8 0.6-0.8 1.1s0.4 0.8 0.8 1c2.3 1 4.5 2 7 2.1 2.1 0.1 4.1 0 6.2-0.1 6.3-0.4 12.5-1.4 18.9-1.4 2.1 0 4.2-0.4 6.3-1.9zm130.2-96.8c0.2-0.1 0.2-0.3 0.2-0.5 0.4-2.2 0.5-4.5 0.4-6.8 0-1.4-0.1-2.7-0.1-4.1 0-1.5 0.5-2.7 1.8-3.6 1.1-0.7 1.2-1.1 0.5-2.2-1.4-2.3-2.1-4.8-2.4-7.4-0.2-1.4-0.3-2.8-0.5-4.2-0.1-0.8-0.5-1.3-1.3-1.2-1 0.1-2.1-0.6-2.8 0.6-0.2 0.3-0.2 0.7-0.2 1v1.4c-0.1 5.3-1.4 10.1-4.6 14.2-0.1 0.2-0.2 0.3-0.3 0.5-0.6 1-0.5 1.6 0.2 2.5 0.3 0.4 0.7 0.7 1.1 1.1 2.7 2.6 5.3 5.3 7.4 8.3 0.2 0.2 0.3 0.5 0.6 0.4zm-102.1-40.7h3.7c1.4 0 2.5-1.1 2.7-2.6 0.1-1.3-0.1-2.6-1-3.5-1.7-1.8-3.6-3.1-6.2-2.6-1.5 0.3-3 0.5-4.5 0.4-2.2-0.2-4.1 0.8-5.6 2.5-0.6 0.7-1.1 1.5-1.7 2.3-1 1.4-1.7 1.7-3.3 1.2-0.8-0.3-1.4 0-2 0.4-0.2 0.2-0.5 0.4-0.4 0.7 0 0.4 0.3 0.5 0.6 0.5 2.9 0.6 5.7 1.8 8.5 2.9 0.6 0.2 1.1 0.1 1.5-0.4 1.1-1.3 2.5-1.8 4.2-1.9 1.2 0 2.3 0.1 3.5 0.1zm103.9 31.8c-0.2 0.7-0.1 1.2-0.1 1.7 0 2.3 0.2 4.6-0.3 6.9-0.3 1.5 0.1 3 1 4.3 1.9 2.8 3.3 5.8 4.6 8.9 0.1 0.3 0.1 0.8 0.7 1-0.1-3.9 0.3-7.8 0.7-11.6 0.2-2.7 0.3-5.3 0.2-8-0.1-1.6-0.7-2.2-2.2-2.1-1.7-0.1-3.1-0.3-4.6-1.1zm-98.9-22.7c-0.2-0.7-0.4-1.1-1-1.3-2.1-0.6-3-2-2.8-4.2 0.1-1.1-0.5-1.8-1.4-2.2-2.1-0.9-4.1-0.8-5.9 0.7-0.5 0.4-1 0.9-1.5 1.2-1.3 0.9-2.4 0.8-3.6-0.3-0.4-0.3-0.7-0.7-1.1-1-0.5-0.4-1-0.4-1.5 0-1.2 0.9-1.2 2.9-0.1 3.8 0.5 0.4 0.9 0.8 1.4 1.1 1.3 1 1.6 1 3 0.1 1.4-1 2.8-1 4.2-0.1 1.3 0.8 1.5 1.4 0.8 2.9-0.2 0.5-0.6 0.9-0.5 1.6 3.3-0.7 6.6-1.5 10-2.3zm-63.2 76.2c-0.4-2.3-0.8-4.3-1.2-6.3-0.2-1.2-0.9-1.5-1.9-1.1-1.7 0.6-3.3 0.7-5.1 0.5-0.8-0.1-1.6-0.1-2.3-0.1-1.9 0-2.5 0.7-2.3 2.6 0.1 0.8 0.2 1.5 0.1 2.3-0.2 1.8 0.2 2.2 2 2.2h7.2c1.1-0.1 2.2-0.1 3.5-0.1zm146.7 54.6s0.1 0 0 0v-3.8c0-0.4 0-0.8-0.5-1-1.9-0.7-3.8-1.4-5.9-0.8-0.6 0.2-1.1 0.8-1.1 1.5 0 0.8 0.1 1.6 0.1 2.4 0 1.9-0.1 3.8 0.2 5.7 0.2 1.3 0.6 1.6 1.8 1.7h3.4c1.4-0.1 1.9-0.5 1.9-2 0.2-1.3 0.1-2.5 0.1-3.7zm-17.1 0.4v3.5c0 1.3 0.4 1.6 1.6 1.6 1.3 0 2.6 0 3.9-0.1 1 0 1.2-0.2 1.2-1.3 0.1-1.6 0.1-3.2 0.2-4.8 0.1-1.2 0-2.4-0.3-3.6-0.4-1.8-0.9-2.2-2.7-1.8-1.2 0.3-2.4 0.7-3.7 0.8-0.6 0-0.5 0.5-0.4 0.9 0.4 1.7 0.3 3.2 0.2 4.8zm24.9 5.1c1.3-0.1 2.6 0 4-0.1 0.7 0 1.3-0.3 1.6-0.9 0.3-0.7 0-1.3-0.5-1.8-2.4-2.8-5.2-4.9-8.6-6.1-1.1-0.4-1.2-0.4-1.2 0.8v6.8c0 1.1 0.2 1.3 1.2 1.3 1.1 0.1 2.3 0 3.5 0zm-151.5-112.8c-0.2 0.1-0.4 0.1-0.5 0.2-0.5 0.4-1.1 0.8-1.6 1.3-1 0.9-1.1 1.2-0.4 2.4 0.8 1.4 1.3 2.8 1.5 4.4 0.4 2.4 0 4.7-0.3 7.1-0.1 0.9-0.2 1.7-0.1 2.7 0.2-0.1 0.3-0.1 0.4-0.2 2-3 3.6-6.4 5.9-9.2 0.5-0.6 0.3-1.2-0.2-1.8-0.2-0.3-0.5-0.5-0.7-0.7-2-1.7-3.7-3.5-4-6.2zm33 101.6c0.2 0.3 0.4 0.4 0.7 0.4 2.7 0.6 5.3 1.1 8.1 1.3 3.6 0.2 7.1-0.1 10.6-0.6 0.5-0.1 0.9-0.2 1-0.7s-0.2-0.8-0.6-1.1c-1.2-0.7-2.5-1.1-3.9-1-1.4 0-2.8-0.1-4.2-0.3-2.3-0.4-4.6-0.3-6.8 0.2-1.9 0.3-3.5 0.8-4.9 1.8zm83.7 9.2c0 2.4 0.3 2.7 2.5 2.7 2.6 0 3.9-1.1 4.2-3.8 0.2-1.4 0.2-2.9 0.3-4.4 0.1-1.7-0.7-2.4-2.4-1.9-2.5 0.8-4.5 2.2-4.5 5.3 0.1 0.8 0 1.5-0.1 2.1zm-114.8-134.9c-0.5 0-0.9 0.2-1.3 0.4-1.4 0.6-2.9 1.2-4.4 1.7-2.8 0.9-3.8 2.5-3.2 5.5 0.3 1.9 0.9 2.3 2.7 2 0.2 0 0.4-0.1 0.6-0.1 2-0.3 2.4-0.7 2.2-2.9 0-0.8 0.1-1.2 0.8-1.5 0.8-0.3 1.4-0.9 1.7-1.8 0.6-1.1 0.8-2.1 0.9-3.3zm81.5-11.4v1.5c0.1 1.6 0 3-1.2 4.2-0.3 0.3-0.4 0.7-0.5 1.1-0.2 1.2 1.8 3.9 2.9 3.9 1 0 2-0.2 2.9-0.8 0.5-0.4 1-0.9 0.7-1.7-0.7-1.7-1.1-3.5-1.9-5.1-0.7-1.2-1.5-2.2-2.9-3.1zm-8.8-0.3c1.6 0 2.4-0.6 2.6-2.4 0.1-0.6 0-1.4 0.3-1.9 0.8-1.8 0.1-2.8-1.3-3.9-0.7-0.6-1-0.6-1.7-0.2-0.4 0.3-0.8 0.5-1.2 0.8-0.9 0.6-1.4 1.5-1.6 2.6-0.1 0.8-0.1 1.6 0 2.4 0.3 1.8 1.2 2.6 2.9 2.6zm-68.9 33.2c-0.6 0.3-1 0.5-1.3 0.6-0.4 0.2-0.9 0.4-1.3 0.6-1.3 0.6-1.7 1.5-1.3 2.9 0.5 2 1.9 3.1 3.6 3.9 1 0.5 1.9 0.3 2.6-0.5s1.4-1.7 2.2-2.7c-2.7-0.6-5-1.4-4.5-4.8zm73.5-32.6c-0.8 0.2-1.4 0.1-2.1 0.1-1.6 0-2.2 0.7-2.2 2.3 0 1.3 0.6 2.2 1.7 2.8 0.9 0.5 1.9 0.6 3 0.4 0.9-0.1 1.5-0.6 1.9-1.4 0.5-1 0.7-2 0.7-3.1 0-0.8-0.3-1.1-1-1.1-0.8 0.1-1.5 0.1-2 0zm-16 8.1c0-1 0-2-0.1-3s-0.5-1.5-1.3-1.6c-1.4-0.1-2.7 0.2-4 0.8-0.3 0.1-0.6 0.4-0.4 0.8 0.3 0.8 0.3 1.6 0.3 2.4 0 0.6 0.2 1 1 1 1.2-0.1 2 0.6 2.4 1.8 0.1 0.2 0.2 0.5 0.3 0.7 0.3 0.6 0.7 0.6 1.2 0.5s0.6-0.5 0.6-0.9v-2.5zm5.5-4.8c-0.1 2.1 0.1 2.4 2 2.6 0.5 0.1 1 0.2 1.6 0.3 1.1 0.1 2-0.7 1.8-1.8-0.2-1-0.3-2-0.5-3-0.2-1.4-0.9-1.9-2.2-2-1.4 0-2.1 0.5-2.5 1.8-0.2 0.8-0.2 1.5-0.2 2.1zm26.4 0.2c-0.1 1.4 0.8 3.2 1.7 3.8 0.2 0.1 0.4 0.1 0.7 0 2.7-0.8 3.7-4.2 1.8-6.4-0.8-0.8-1.7-0.9-2.7-0.7-0.9 0.2-1.2 0.9-1.3 1.8-0.1 0.6-0.2 1.2-0.2 1.5zm-13.6 6.7c-0.1-0.9-0.3-1.5-0.5-2.1-0.3-0.7-0.9-1.2-1.6-1.2-1.3 0.1-2.4-0.4-3.5-0.9-0.8-0.3-1.6 0.1-1.9 0.9-0.4 1.1 0.8 3.2 1.9 3.2 1.8 0.2 3.7 0.1 5.6 0.1zm25.8 138c0.9 0.3 4.9 0.5 5.7 0.4 0.5-0.1 0.8-0.4 0.8-0.9 0.1-1.4 0-2.9-0.3-4.5-2.6 1.2-4.5 2.9-6.2 5zm-86.4-144.4c-0.2-1.2-0.4-2.3-0.7-3.4-0.1-0.4-0.5-0.6-0.9-0.1-0.8 1-1.5 2-2.2 3-0.3 0.5-0.6 1-0.3 1.5 0.5 0.7 0.9 1.6 1.4 2.3s1.5 0.7 1.8 0c0.4-1.2 0.7-2.3 0.9-3.3zm52.3 6.2c-0.3-0.9-0.7-1.6-1.2-2.3-0.5-0.6-1.1-0.9-1.8-0.7-0.9 0.3-1.7 0.7-2.3 1.5-0.5 0.6-0.6 1.3-0.3 2 0.3 0.6 1 0.7 1.8 0.3 0.9-0.4 1.7-0.6 2.7-0.5 0.4-0.1 0.7-0.1 1.1-0.3zm20.9-3.9c-0.9 1-1.4 2.3-2.3 3.3-0.4 0.4-0.2 1 0.4 1.2 1 0.4 2.1 0.4 3.1-0.2 1.2-0.9 1.3-2.3 0.2-3.3-0.5-0.4-0.9-0.8-1.4-1zm-52.7 11.1c2.6-1.5 5.3-1.8 7.8-3-0.7-0.2-1.4-0.2-2.1-0.3s-1.4-0.3-2.1-0.5c-2-0.4-3.3 0.5-3.5 2.5-0.1 0.4-0.1 0.7-0.1 1.3zm-0.6-4.5c0.8 0.1 1.3 0.1 1.9-0.1 0.4-0.1 0.7-0.4 0.7-0.8 0.1-0.4 0-0.8-0.4-1.1-0.9-0.5-1.8-0.7-2.8-0.4-0.7 0.2-1 1-0.9 1.7 0.2 0.8 0.8 0.6 1.3 0.6 0.2 0.1 0.4 0.1 0.2 0.1zm6.7 0c0.7 0 1.2-0.1 1.6-0.1 0.3 0 0.5-0.2 0.6-0.6 0.2-0.8-0.3-1.7-1.1-1.8-0.8-0.2-1.6 0-2.4 0.4-0.4 0.2-0.6 0.5-0.6 1s0.3 0.9 0.8 1 0.9 0.1 1.1 0.1zm86.7-17.2c-2.2-1.5-4.7-1.4-5.7 0.1 1.9 0.5 3.7 0.7 5.7-0.1zm-38.1 163.8c0.7-1.4 0.8-2.8 1.7-4.1 0.3-0.4 0.4-0.9 0-1.3-0.3-0.3-0.7-0.4-1.1-0.3-0.5 0.1-0.6 0.6-0.6 1.1v4.6zm57.1-147.1h3.2c-0.9-1.4-1.3-1.4-3.2 0z"/>
        <path class="st0" d="m62 68.5c0.4-0.3 0.5-0.8 0.8-1.3l4.5-9c0.3-0.6 0.6-1.3 1.2-1.7 0.5-0.3 1-0.5 1.5-0.2 0.6 0.2 0.7 0.7 0.7 1.3v22.3c0 1.4-0.5 1.9-1.5 1.8-0.7-0.1-1.1-0.5-1.1-1.2v-17.5c-0.6 0.3-0.7 0.8-0.9 1.2-1.2 2.2-2.3 4.5-3.4 6.7-0.1 0.2-0.2 0.4-0.3 0.7-0.5 0.6-0.7 1.4-1.6 1.4-0.8 0-1.1-0.8-1.4-1.4-1-2.1-2.1-4.1-3.1-6.2-0.4-0.8-0.9-1.7-1.3-2.6-0.4 0.5-0.3 0.9-0.3 1.2v16.4c-0.1 0.9-0.5 1.3-1.3 1.3s-1.3-0.4-1.4-1.2v-22.9c0.2-1.3 1.3-1.8 2.3-1 0.6 0.4 0.9 1.1 1.2 1.7l4.5 9c0.3 0.4 0.4 0.9 0.9 1.2z"/>
        <path class="st0" d="m95.9 112.8c-0.3-0.5-0.8-0.8-0.9-1.4-0.2-1-0.1-2 0.7-2.8 0.4-0.3 0.4-0.6 0.1-1-1.4-1.9-1.3-4.1-0.9-6.2 0.4-2.2 1.9-3.5 4-3.9 1.5-0.3 2.9-0.2 4.3 0.6 0.5 0.3 0.9 0.3 1.2-0.2s0.8-0.9 1.4-1.1 1.3 0.1 1.5 0.6c0.2 0.6 0 1-0.7 1.4-0.3 0.2-0.6 0.3-0.9 0.5-0.3 0.3-0.5 0.6-0.2 1 0.7 1.3 0.6 2.7 0.5 4.2-0.2 3-2.3 5.2-5.2 5.2-0.8 0-1.6 0-2.3-0.3-0.6-0.2-1 0-1.1 0.6-0.2 0.5 0.2 0.9 0.6 1.1 1.1 0.5 2.3 0.5 3.4 0.7 0.9 0.1 1.8 0.3 2.7 0.5 1.5 0.4 2.5 1.3 2.8 3s-0.2 3.1-1.5 4.2c-0.9 0.8-2.1 1.1-3.2 1.3-2.2 0.3-4.4 0.1-6.3-1.2-2.2-1.5-2.4-4.4-0.4-6.2 0-0.3 0.2-0.5 0.4-0.6zm7.6-9.2c0-0.6 0-1.1-0.1-1.5-0.3-1.6-1.5-2.7-3-2.8-1.6 0-2.9 1-3.1 2.8-0.2 1-0.1 1.9 0 2.9 0.3 1.6 1.5 2.7 3.1 2.7 1.5 0 2.7-1 3-2.6 0.1-0.5 0.1-1.1 0.1-1.5zm-3 15.1c0.9 0 1.9-0.1 2.7-0.7 0.8-0.5 1.2-1.2 1.1-2.2-0.1-0.9-0.6-1.5-1.4-1.8-1.3-0.5-2.7-0.7-4-0.6s-2.5 1.2-2.5 2.3c-0.1 1.2 0.6 2.1 2 2.6 0.7 0.3 1.4 0.4 2.1 0.4z"/>
        <path class="st0" d="m76.5 100c0.4-0.1 0.5-0.5 0.8-0.7 1.6-1.8 3.5-2.4 5.7-1.6s3.6 2.5 3.7 5c0.2 3.1 0.1 6.3 0.1 9.4 0 0.9-0.5 1.3-1.3 1.3-0.7 0-1.1-0.4-1.1-1.3v-7.4c0-0.6 0-1.2-0.1-1.8-0.4-1.9-1.8-3-3.5-2.9s-3 1.6-3.1 3.5v8.7c-0.1 1-0.4 1.3-1.2 1.3-0.9 0-1.3-0.4-1.3-1.4v-8.7c-0.1-1.9-1.4-3.3-3.1-3.4-1.9-0.1-3.4 1.3-3.6 3.2-0.1 0.8 0 1.5 0 2.3v6.4c0 1-0.4 1.5-1.2 1.5s-1.3-0.4-1.3-1.5v-12.9c0-0.9 0.4-1.3 1-1.4 0.7-0.1 1.1 0.2 1.6 1.3 1.3-1.1 2.7-1.7 4.4-1.5 1.5 0.2 2.6 1.2 3.5 2.6z"/>
        <path class="st0" d="m108.2 74.3h-3.4c-0.6 0-0.8 0.3-0.8 0.9 0 1.8 0.9 3.2 2.5 3.9 1.6 0.6 3.3 0.6 4.8-0.3 0.3-0.1 0.5-0.3 0.8-0.5 0.6-0.4 1.2-0.2 1.5 0.3s0.2 1.2-0.2 1.7c-0.9 0.9-2.1 1.3-3.4 1.5-0.9 0.1-1.9 0.1-2.8 0-2.8-0.4-5.9-2.2-6-6.7 0-1.7-0.1-3.3 0.1-5 0.5-3.3 3.6-5.6 6.9-5.4 3.4 0.3 6 3 6 6.4 0 2.1-0.8 3-2.8 3-1 0.3-2.1 0.2-3.2 0.2zm-0.6-2.1h3.2c0.8 0 1-0.3 1-1.1 0-2-2-3.9-4-3.8-2.1 0.1-3.8 2-3.7 4.1 0 0.7 0.3 0.9 0.9 0.9 0.9-0.2 1.8-0.1 2.6-0.1z"/>
        <path class="st0" d="m161.3 106.3h-3.2c-0.9 0-1 0.1-0.9 1.1 0.1 1.4 0.7 2.5 1.9 3.2 1.5 0.8 3.1 0.8 4.7 0.2 0.3-0.1 0.6-0.3 0.9-0.5 0.8-0.4 1.3-0.3 1.6 0.3 0.5 0.7 0.1 1.5-1.1 2.2l-0.6 0.3c-2.3 0.9-4.6 0.8-6.8-0.3-2-1.1-3.1-2.8-3.1-5.2v-4.2c0.1-3.3 3-5.9 6.3-5.8 3.5 0.1 6.1 3 5.9 6.5-0.1 1.4-1.2 2.5-2.6 2.5-1-0.3-2-0.3-3-0.3zm-0.5-2.1h2.7c0.7 0 1.2-0.6 1.1-1.3-0.2-1.9-1.9-3.4-3.9-3.3-1.9 0.1-3.5 1.9-3.4 3.8 0 0.5 0.2 0.7 0.7 0.7 0.9 0.1 1.8 0.1 2.8 0.1z"/>
        <path class="st0" d="m116.6 71.1v-4.4c0-1.1 0.5-1.6 1.3-1.6s1.3 0.6 1.3 1.6v8.3c0 0.9 0.2 1.8 0.7 2.6 1 1.5 2.6 2.1 4.2 1.7 1.4-0.4 2.6-2 2.8-3.6v-9.6c0.1-0.7 0.7-1.1 1.4-1.1 0.6 0.1 1.1 0.4 1.2 1.1v0.5c0 3.1 0 6.2-0.1 9.2-0.1 2.8-2.1 5.1-4.7 5.9-4.1 1.2-8.2-1.9-8.3-6.3 0.2-1.4 0.2-2.9 0.2-4.3z"/>
        <path class="st0" d="m126.3 111.8c-0.4 0.1-0.7 0.5-1.1 0.7-1 0.6-2 1-3.2 1-3.4 0-5.4-3.1-4.1-6.4 0.4-1 1.2-1.7 2.2-2.1 1.3-0.6 2.8-0.7 4.2-0.8 0.5 0 1-0.1 1.5 0 0.6 0 0.7-0.3 0.7-0.8 0-2.5-1.8-4-4.2-3.7-0.7 0.1-1.3 0.3-1.9 0.6s-1.1 0.3-1.5-0.4c-0.3-0.6-0.2-1.3 0.5-1.7 2.1-1.1 4.2-1.3 6.4-0.5 1.9 0.7 2.8 2.4 3.1 4.4 0.1 0.7 0.2 1.3 0.2 2v7.7c0 0.7-0.3 1.2-1 1.3-0.7 0.2-1.1-0.1-1.4-0.9-0.2-0.1-0.2-0.3-0.4-0.4zm-1.8-5.5c-1 0-2.2 0.1-3.3 0.6-0.8 0.3-1.2 1-1.2 1.9s0.2 1.7 1.1 2.1c1.8 1 4.9-0.6 5.2-2.7 0.3-1.8 0.2-2-1.8-1.9z"/>
        <path class="st0" d="m73.8 71v-4.4c0-1.1 0.5-1.6 1.3-1.6s1.3 0.6 1.3 1.6v8.2c0 1 0.2 2 0.8 2.8 1 1.3 2.2 1.9 3.8 1.6 1.5-0.3 2.5-1.4 2.9-2.9 0.2-0.7 0.2-1.4 0.2-2.1v-7.6c0-0.5 0-1 0.4-1.4 0.9-0.7 2.1-0.2 2.2 0.9v0.5c0 2.8 0.1 5.7 0 8.5-0.1 4.7-4.4 7.9-8.5 6.5-2.6-0.9-4.5-3.4-4.6-6.2 0.2-1.4 0.2-2.9 0.2-4.4z"/>
        <path class="st0" d="m134.4 98.9c1.9-1.8 4-2.1 6.2-1 2.2 1.2 3.4 3.2 3.4 5.8v7.9c0 0.6 0 1.2-0.7 1.6-0.9 0.5-1.8-0.1-1.8-1.2-0.1-1.7 0-3.4 0-5.2 0-1.2 0-2.4-0.1-3.6-0.2-1.7-1.5-3.1-3.1-3.3-2.2-0.3-3.8 1.3-3.9 3.7-0.1 1.9 0 3.8 0 5.8v2.7c0 0.8-0.5 1.2-1.2 1.3-0.8 0-1.3-0.4-1.3-1.3-0.1-1 0-2 0-3v-10.2c0-0.6 0.2-1.1 0.9-1.2 0.6-0.1 1.1 0 1.4 0.5 0 0.1 0 0.3 0.2 0.7z"/>
        <path class="st0" d="m94.2 82c-1.3 0-2.6-0.3-3.8-1-0.4-0.2-0.8-0.5-1.1-0.9-0.4-0.6-0.4-1.3 0.1-1.8s1-0.3 1.4 0c1.4 1.1 3 1.4 4.7 1.1 1.6-0.3 2.4-1.7 1.8-3.1-0.3-0.6-0.8-1-1.4-1.3-0.6-0.4-1.4-0.6-2.1-0.8-0.5-0.1-0.9-0.3-1.4-0.5-2.1-0.7-3.1-2-3.1-4.1s1.1-3.9 3-4.5c2.1-0.7 4.1-0.5 6.1 0.4 0.4 0.2 0.9 0.5 0.9 1.1 0.1 1-0.7 1.6-1.6 1.3-0.8-0.3-1.5-0.6-2.4-0.7-0.8-0.1-1.5 0-2.2 0.2-0.8 0.3-1.4 1-1.5 1.9s0.5 1.5 1.2 1.9c1.2 0.6 2.5 0.9 3.7 1.3 2.5 0.8 3.8 3.3 3.1 6-0.5 1.9-1.9 2.8-3.7 3.2-0.5 0.3-1.1 0.3-1.7 0.3z"/>
        <path class="st0" d="m146.7 100v-8.5c0-1.2 1-1.8 2-1.2 0.5 0.3 0.5 0.8 0.5 1.3v4.4c0 1.3 0 1.3 1.2 1.3h2.3c0.7 0 1.1 0.3 1.2 1.1 0.1 0.7-0.3 1.2-1.2 1.2-0.9 0.1-1.8 0-2.6 0-0.6 0-0.9 0.2-0.9 0.8v8c0 1.4 0.7 2 2 2.1h1c1.1 0 1.6 0.5 1.6 1.3s-0.5 1.2-1.7 1.2h-0.4c-3.5 0-5-1.6-5-5.2v-7.8z"/>
        <path class="st0" d="m35.5 93.7c-0.7-1.9-1.4-3.5-2-5.2-0.1-0.4-0.3-0.7-0.4-1.1-0.1-0.5 0.2-0.9 0.6-1.1 0.5-0.2 0.9-0.1 1.1 0.4 0.1 0.3 0.2 0.5 0.4 0.8 1.8 4.6 3.6 9.2 5.4 13.7 0.1 0.1 0.1 0.3 0.2 0.4 0.4 1.1-0.1 1.8-1.2 1.4-0.6-0.2-0.8 0-1 0.4-2 2.7-5.8 1.7-7.1-0.9-0.4-0.8-0.7-1.7-1-2.5-1.5-3.1 0.6-7.2 5-6.3zm-0.9 1.6c-1.7 0-3 1.6-2.6 3.2 0.3 1.1 0.7 2.1 1.2 3.1 0.6 1.3 2.2 1.8 3.4 1.2s1.7-2.1 1.1-3.5c-0.3-0.8-0.6-1.7-1-2.5-0.4-0.9-1.2-1.4-2.1-1.5z"/>
        <path class="st0" d="m60 101.2v-10.6c0-1.2 0.5-1.7 1.6-1.5 0.5 0.1 0.8 0.4 0.9 0.9 0.1 0.4 0.1 0.9 0.1 1.4v20.4c-0.1 1-0.5 1.4-1.4 1.4-0.8 0-1.2-0.4-1.2-1.4v-10.6z"/>
        <path class="st0" d="m111.4 99c1.3-1.4 2.8-1.8 4.5-1.7 0.9 0.1 1.4 0.5 1.3 1.3 0 0.7-0.5 1.2-1.4 1.2h-0.7c-2.1 0.1-3.6 1.5-3.8 3.7-0.2 1.4-0.1 2.8-0.1 4.2v4.1c0 1-0.5 1.5-1.3 1.5s-1.2-0.5-1.2-1.5v-12.7c0-0.7 0.2-1.3 1-1.5 0.7-0.2 1.1 0.1 1.5 1 0 0 0.1 0.1 0.2 0.4z"/>
        <path class="st0" d="m39.8 93.9c0-2.2 1.4-4 3.6-4.5 2-0.5 4.1 0.6 5 2.5 0.4 0.9 0.8 1.8 1.1 2.8 0.8 2.4-0.4 5-2.6 5.9s-4.8-0.2-5.8-2.4c-0.9-1.8-1.3-3.3-1.3-4.3zm4.6-2.6c-1.8 0-3 1.6-2.5 3.4 0.3 1 0.6 1.9 1.1 2.8 0.6 1.3 2 1.8 3.2 1.4 1.2-0.5 1.9-2 1.5-3.4-0.3-0.9-0.6-1.8-1-2.7-0.6-1-1.5-1.5-2.3-1.5z"/>
        <path class="st0" d="m92.2 105.4v6.8c-0.1 0.7-0.6 1-1.2 1-0.7 0-1.1-0.3-1.2-1v-13.4c0.1-0.8 0.5-1.2 1.2-1.3 0.7 0 1.3 0.4 1.3 1.3 0.1 1.3 0 2.6 0 3.9-0.1 0.9-0.1 1.8-0.1 2.7z"/>
        <path class="st0" d="m92.4 91.9c0 0.9-0.8 1.6-1.6 1.6-0.9 0-1.6-0.8-1.5-1.7 0-0.8 0.7-1.5 1.6-1.5 0.8 0 1.6 0.7 1.5 1.6z"/>
        <path class="st0" d="m29.1 50.1c-0.8-0.1-1.6-0.2-2.5-0.3-0.5 0-0.7-0.3-0.9-0.8-0.4-1.3-0.4-1.3 0.9-2 0.8-0.5 1.7-0.8 2.6-0.8 0.6 0 1-0.3 1.5-0.5 1.2-0.5 2.3-0.3 3.4 0.4 0.5 0.3 0.8 0.9 0.7 1.5-0.1 0.7-0.5 1.6-1.2 1.6-1.2 0.1-2.3 0.8-3.6 0.8-0.2 0.1-0.5 0.1-0.9 0.1zm-2.8-1.2h5.2c0.7 0 1.2-0.6 1.8-0.9 0.5-0.2 0.4-1-0.2-1.1-0.9-0.2-1.9-0.4-2.7 0s-1.6 0.5-2.4 0.7c-0.6 0.1-1.2 0.3-1.7 1.3z"/>
        <path class="st0" d="m29.9 41c0 0.2 0 0.7-0.1 1.1s-0.4 0.7-0.8 0.8c-0.5 0.1-1-0.4-0.7-0.9 0.8-1.3 0.5-2.6-0.1-3.9-0.8-1.8-1.3-3.7-2.1-5.5-0.1-0.3-0.4-0.7 0.1-0.9 0.4-0.2 0.5 0.1 0.7 0.4 1.5 2.8 2.8 5.5 3 8.9z"/>
        <path class="st0" d="m21.5 37.4c0.1 0 0.4 0 0.6 0.1 0.3 0.1 0.4 0.3 0.4 0.6s-0.2 0.5-0.4 0.5c-0.3 0-0.7 0.1-1 0-0.3 0-0.7-0.1-0.7-0.5 0-0.5 0.4-0.7 0.8-0.7h0.3z"/>
        <path class="st0" d="m32.9 35.2h-0.3c-0.3 0-0.4-0.2-0.4-0.5s0.1-0.5 0.4-0.6c0.4-0.1 0.8-0.1 1.2-0.1s0.7 0.2 0.6 0.7c0 0.4-0.3 0.5-0.6 0.5h-0.9z"/>
    </g>
</svg>
