<?xml version="1.0" encoding="utf-8"?>
<!-- Generator: Adobe Illustrator 24.2.0, SVG Export Plug-In . SVG Version: 6.00 Build 0)  -->
<svg version="1.1" id="Camada_1" xmlns="http://www.w3.org/2000/svg" xmlns:xlink="http://www.w3.org/1999/xlink" x="0px" y="0px"
	 viewBox="0 0 189.2 93.4" style="enable-background:new 0 0 189.2 93.4;" xml:space="preserve">
<style type="text/css">
	.st0{opacity:0.1;}
	.st1{clip-path:url(#SVGID_2_);fill:#020203;}
	.st2{fill:#020203;}
</style>
<g class="st0">
	<g>
		<defs>
			<path id="SVGID_1_" d="M14.9,20.9h169V0C134,1.2,84.3,2.4,34.5,3.6C27.9,9.3,21.4,15.1,14.9,20.9z"/>
		</defs>
		<use xlink:href="#SVGID_1_"  style="overflow:visible;fill:#020203;"/>
		<clipPath id="SVGID_2_">
			<use xlink:href="#SVGID_1_"  style="overflow:visible;"/>
		</clipPath>
		<path class="st1" d="M0,2.9C0.4,2.8,0.7,3,0.8,3.2c0.5,0.6,0.9,0.8,1.3,0c0.1-0.1,0.3-0.3,0.4-0.3c2,0.7,2.3-0.8,2.7-2.1
			c0.5-1.2,1.4-0.7,2.1-0.6c0.5,0.1,0.3,0.6,0.1,1C7.3,1.7,7.1,2.1,6.3,2.5c0.8,0.2,1.6,0.1,1.7,0.9c0,0.1,0.2,0.2,0.3,0.2
			c1.3-0.3,2.9,0.4,4-0.9c0.4-0.4,0.8-0.7,1.3-0.4c0.4,0.3,1,0.6,0.9,1.3c0,0.3,0,0.5,0,0.8c0,0.4-0.7,0.9,0.1,1.1
			c0.6,0.1,1.2-0.4,1.2-0.8c0-1.8,1.4-0.9,2.2-1.2c0.3-0.1,0.5,0,0.6,1.2c0.1,0.7,0.5,0.6,0.9,0.7c1.2,0.4,1.5,1.3,0.9,2.5
			c-0.4,0.6-0.1,1.3,0.2,1.8c0.3,0.4,0.7,0.7,1.1,1.1c0.7,0.7,0.7,1.6,0,2.2c-0.2,0.2-0.7,0.2-0.6,0.6c0.1,0.4,0.5,0.6,1,0.5
			c0.7-0.1,1.5-0.1,2.2-0.3c3.6-0.9,7.3-1.4,11-2.3c3.8-0.9,7.7-1.4,11.5-2.1c3.6-0.7,7.3-1.4,10.9-2.2c5.5-1.1,11-2.3,16.6-2
			c3.2,0.1,6.4-0.2,9.6-0.3c3-0.1,6.1-0.1,9.1-0.1c3.3,0,6.6-0.1,9.9-0.2c3.2,0,6.3,0,9.5,0c3.3,0,6.6-0.2,9.9-0.2
			c4,0,8-0.1,11.9,0.9c1.7,0.5,3.6,0.5,5.4,0.9c2.8,0.6,5.7,0.7,8.5,1.4c2.1,0.5,4.3,0.7,6.4,1c2.3,0.4,4.6,0.8,6.9,1.2
			c1.1,0.2,2.2,0.3,3.3,0.5c3.2,0.6,6.4,1.2,9.6,1.6c2.8,0.4,5.6,0.9,8.5,0.6c0.7-0.1,1.5,0.3,2.3,0.5c0,0.1,0,0.2,0,0.4
			c-1.7,0-3.4,0-5,0c0,0.1,0,0.3,0,0.4c1.5,0,3.1,0,4.7,0c-0.4,0.7-0.9,0.8-1.5,0.8c-1.3-0.2-2.6,0.3-3.8-0.4
			c-0.2-0.1-0.5,0-0.6,0.2c-0.2,1.1-1,0.8-1.7,0.8c-17.4,0-34.9-0.1-52.3-0.1c-8.3,0-16.6-0.1-24.9,0c-14.7,0.2-29.3,0.5-44,0.9
			c-12,0.3-23.9,0.8-35.9,1.2c-0.7,0-1.3,0.1-2,0.5c0.6,0.6,1.3,0.4,1.9,0.4c16.6-0.5,33.2-1.1,49.9-1.4c29.7-0.7,59.4-0.5,89.2-0.6
			c6.1,0,12.3,0,18.4-0.1c0.8,0,1.3,0,1.4,1.1c0,1.1-0.5,1.1-1.3,1.1c-21.7,0-43.3,0-65,0c-7.5,0-15,0-22.5,0.1
			c-10.3,0.1-20.5,0.3-30.8,0.6c-13.5,0.4-27,0.9-40.4,1.3c-1.2,0-1.8-0.2-1.5-1.5c0.1-0.8,0.3-1.7-0.2-2.7
			c-0.5,1.5-1.6,1.3-2.6,1.3c-0.4,0-0.8,0-1.2,0.1c-0.2,0-0.4,0.1-0.4,0.4c0,0.4,0.2,0.4,0.5,0.4c0.7,0,1.3-0.1,2-0.1
			c0.4,0,0.9-0.3,1,0.4c0,0.5,0,1.1-0.3,1.4c-0.2,0.3-0.8,0.1-1.2-0.1c-1.2-0.6-1.3-0.5-1.7,0.7c-0.2,0.8,0,2-1.4,2.1
			c-0.4,0-0.4,0.5-0.2,0.9c0.3,0.4,0.3,1.2,1.1,1c0.8-0.2,0.9,0,0.9,0.8c-0.3,4.5-0.8,8.9-1.4,13.3c0,0.1,0,0.3-0.1,0.4
			c-0.7,0.8-1,1.7-0.2,2.8c-0.5-0.2-0.9-0.5-1.3-0.7c-1-0.5-1.1,0-1.2,0.7c-0.1,0.4-0.1,0.7-0.5,1c-3.5,2.5-4.7,4.2-6.6,7.8
			c1.1,0.2,2-0.2,3-0.3c1.6-0.2,3.2-0.5,4.8-0.8c0.9-0.2,1.1,0.2,1,1c-0.4,2.5-0.9,3.2-2.7,3.3c-0.2,0-1.2,0.4-0.6-0.6
			c0-0.1,0-0.3,0-0.3c-1.7-0.3-3.3-1.3-5.1-0.8c-0.5,0.1-0.9,0.4-0.7,1.1c0.3,1.1,2.7,2,3.7,1.6c0.8-0.3,1.5-0.6,2.4,0
			c0.3,0.2,0.8,0.3,1.2,0.3c1.3-0.1,1.5,0.6,1.3,1.7c-0.2,1.1-0.3,2.2-0.4,3.3c0,0.9-0.5,1.1-1.3,1.1c-1.6,0-3.2,0-4.8,0
			c-0.3,0-0.8-0.2-0.7,0.6c0.1,0.6-0.5,0.3-0.8,0.4c-0.9,0.3-1.7,0.7-2.6,0.2c0-0.8,0-1.6,0-2.4c0.3,0.2,0.7,0.4,1,0.6
			c0.5,0.3,1,0,1.5-0.2c0.3-0.1,0.4-2.5,0.1-2.7c-0.9-0.3-1.8-0.8-2.6,0.1c0-11.3,0-22.6,0-33.9c0.6-0.3,1.1-0.5,1.6,0.2
			c0.4,0.5,0.6,0.1,0.9-0.2c1.2-1.1,1.4-1.7,0.7-3.3c0-0.1-0.1-0.3,0-0.4c1.1-0.8,1-1.9,0.5-3c-0.4-1-0.2-2.4-1.9-2.5
			c-0.3,0-0.2-0.2-0.2-0.3c0.1-0.4-0.1-0.6-0.5-0.5c-0.4,0-0.6,0.3-0.5,0.6C0.9,15.4,0.4,16,0,16.6C0,12.1,0,7.5,0,2.9z M123.1,13.9
			c18.5,0,37.1,0,55.6-0.1C160.2,13.8,141.6,13.6,123.1,13.9z M92.1,17.9c0,0,0,0.1,0,0.1c21.8,0,43.6-0.1,65.4-0.1c0,0,0-0.1,0-0.1
			C135.7,17.9,113.9,17.9,92.1,17.9z M121,13.9c-15.9-0.1-31.9-0.3-47.8,0.5C89.1,14.3,105,13.9,121,13.9z M174.6,14.8
			c0-0.1,0-0.1,0-0.2c-17.4,0-34.8,0-52.2,0.1c0,0.1,0,0.1,0,0.2C139.8,14.9,157.2,14.8,174.6,14.8z M82,15.1
			c13,0.2,26.1-0.4,39.1-0.3C108.1,14.8,95.1,14.5,82,15.1z M51,16c-9.7-0.1-19.3,0.2-29,0.9C31.7,16.6,41.4,16.3,51,16z M4,23.5
			c0.1,0.8,1.2,0.3,1.6,0.8c0.5,0.5,0.8-0.1,0.7-0.4c-0.4-1.1,0.3-2.2-0.1-3.2c-0.2-0.5-0.3-1.3-0.8-1.4c-0.5-0.1-0.8,0.6-0.9,1.1
			C4.3,21.3,4.2,22.3,4,23.5z M85.5,18.3c0,0,0-0.1,0-0.1c-4.6,0-9.2,0-13.8,0c0,0,0,0.1,0,0.1C76.3,18.3,80.9,18.3,85.5,18.3z
			 M62.1,14.4C62.1,14.4,62,14.5,62.1,14.4c2.8,0.1,5.7,0.1,8.6,0.1c0,0,0-0.1,0-0.1C67.8,14.4,64.9,14.4,62.1,14.4z M9.4,29.2
			c0.6,0,1.1,0.1,1.5,0.1c0.7,0,0.8-0.7,1-1.2c0.1-0.2-0.4-0.4-0.5-0.3C10.9,28.4,10,28.3,9.4,29.2z M10.3,21
			c0.4-1.1-0.6-1.2-1.1-1.7c-0.1-0.1-0.4-0.2-0.6,0c-0.2,0.2-0.2,0.5,0,0.7C9.1,20.4,9.6,20.8,10.3,21z M9.6,21.8
			c-0.7-0.1-0.3-1.4-1.2-1c-0.9,0.3-0.7,1.2-0.6,2C7.9,21.9,8.8,22.2,9.6,21.8z M11.6,26c-0.3-0.4-0.6-0.4-1-0.4
			c-0.3,0-0.8,0-0.6,0.5c0.1,0.3,0.1,1,0.7,1C11.2,27,11.3,26.3,11.6,26z M66.1,18.6C66.1,18.6,66.1,18.6,66.1,18.6
			c-1.8-0.1-3.6-0.1-5.4-0.1c0,0,0,0,0,0.1C62.5,18.6,64.3,18.6,66.1,18.6z M1.9,9.3c-0.4-0.7,0-1.7-1.2-1.9
			C0.9,8.1,0.4,9.3,1.9,9.3z M43,15.1C43,15.1,42.9,15.1,43,15.1c1.6,0.1,3.4,0.1,5.1,0.1c0,0,0,0,0-0.1
			C46.4,15.1,44.7,15.1,43,15.1z M78.9,15.2c0-0.1,0-0.1,0-0.2c-1.5,0-2.9,0-4.4,0c0,0.1,0,0.1,0,0.2C76,15.2,77.4,15.2,78.9,15.2z
			 M66.8,15.3C66.8,15.3,66.8,15.3,66.8,15.3c1.4,0,2.9,0,4.3,0c0,0,0,0,0,0C69.7,15.3,68.3,15.3,66.8,15.3z"/>
	</g>
	<g>
		<path class="st2" d="M91,91.3c-0.3-0.9-0.1-1.9-0.1-2.8c0-7.5,0-15,0-22.4c0-1,0.2-1.3,1.3-1.3c3.2,0,6.4,0,9.5-0.1
			c1.3-0.1,1.4,0.4,1.4,1.5c0,8.1,0.1,16.3,0.1,24.4c0,0.2,0.1,0.4,0.1,0.7C99.2,91.3,95.1,91.3,91,91.3z"/>
		<path class="st2" d="M188.4,91.3c-0.8-6.5-1.4-13.1-2-19.6c-0.1-0.9-0.2-1.8-0.2-2.7c0-0.6-0.2-1.1,0.2-1.6c0.3-0.3,0.2-1-0.2-1.4
			c-0.3-0.4-0.8-0.7,0-1.1c0.3-0.1,0.2-0.4-0.1-0.5c-0.5-0.1-0.4-0.4-0.3-0.6c0.7-2.5-0.4-4.8-0.4-7.2c0-0.4-0.2-0.5-0.6-0.6
			c-0.5-0.1-0.9-0.4-0.7-1c0.1-0.5,0.7-0.3,1-0.4c0.7-0.1,0.7,0.4,0.7,0.9c0.1,1.1,0.2,2.1,0.3,3.2c0.7,7.4,1.4,14.7,2.1,22.1
			c0.3,3.5,0.9,7,0.9,10.5C188.9,91.3,188.6,91.3,188.4,91.3z"/>
		<path class="st2" d="M138.4,75.7c-0.1-3.4-0.2-6.7-0.4-10.1c-0.1-0.9,0.2-1.1,1-1.1c3.1,0,6.2-0.1,9.3-0.2c0.9,0,1.1,0.2,1.1,1.1
			c0.3,6.6,0.6,13.2,1,19.7c0.1,1.3-0.3,1.7-1.6,1.7c-2.9,0-5.8,0-8.7,0.2c-0.9,0-1.3-0.2-1.3-1.1C138.7,82.5,138.5,79.1,138.4,75.7
			z"/>
		<path class="st2" d="M45.7,75.7c0-3.3,0-6.5,0-9.8c0-0.9,0.3-1.2,1.2-1.2c3,0.1,5.9,0.1,8.9,0.1c0.8,0,1.1,0.2,1.1,1.1
			c-0.2,6.7-0.5,13.4-0.6,20.1c0,0.8-0.4,1-1.2,1c-3-0.1-6-0.2-9-0.2c-0.9,0-1.1-0.3-1.1-1.2c0-3.3,0-6.6,0-9.9
			C45.2,75.7,45.5,75.7,45.7,75.7z"/>
		<path class="st2" d="M169,86.6c-1.4,0-2.9-0.1-4.3,0c-1,0.1-1.3-0.3-1.4-1.3c-0.3-5.6-0.7-11.3-1.1-16.9c-0.1-1.1-0.1-2.2-0.2-3.2
			c-0.1-0.9,0.3-1.1,1.1-1.1c3,0,6,0,9-0.1c0.5,0,0.9-0.2,0.9,0.7c0.1,5.5,0.8,11,1.2,16.5c0.1,1.4,0.2,2.8,0.4,4.1
			c0.1,0.9-0.2,1.1-1,1.1c-1.5,0-3,0-4.6,0C169,86.5,169,86.5,169,86.6z"/>
		<path class="st2" d="M120.7,75.9c0,3.4,0,6.8,0,10.2c0,0.8-0.2,1.2-1.1,1.2c-2.9,0-5.8,0-8.7,0.1c-1,0-1.2-0.4-1.2-1.2
			c0-6-0.1-12-0.2-18c0-3.5,0-3.5,3.5-3.5c2.1,0,4.2,0,6.3,0c0.8,0,1.1,0.2,1.1,1.1c-0.1,3.4,0,6.8,0,10.2
			C120.4,75.9,120.6,75.9,120.7,75.9z"/>
		<path class="st2" d="M84.7,76c0,3.3,0,6.6,0,9.9c0,1.1-0.3,1.5-1.5,1.4c-2.8-0.1-5.6-0.1-8.3,0c-0.9,0-1.2-0.2-1.2-1.1
			c0.1-6.8,0.2-13.6,0.3-20.4c0-0.9,0.3-1.1,1.1-1c2.9,0,5.7,0,8.6,0c1,0,1.1,0.4,1.1,1.2c0,3.4,0,6.7,0,10.1
			C84.8,76,84.7,76,84.7,76z"/>
		<path class="st2" d="M27.3,86.4c-1.4,0-2.9,0-4.3,0c-0.8,0-1.1-0.1-1.1-1c0.5-6.6,0.9-13.2,1.4-19.8c0-0.7,0.3-0.9,1-0.9
			c2.9,0,5.8,0,8.7,0c0.8,0,1.1,0.2,1,1.1C33.7,72.2,33.3,78.6,33,85c-0.1,1.1-0.4,1.6-1.6,1.5c-1.3-0.1-2.7,0-4,0
			C27.3,86.5,27.3,86.4,27.3,86.4z"/>
		<path class="st2" d="M47.6,35.8c0.2-3,0.4-6.1,0.5-9.1c0-0.8,0.3-1,1-1c2.8,0,5.6-0.1,8.5-0.2c0.8,0,1.1,0.1,1,1
			c-0.4,6-0.7,12-0.9,18c0,1.1-0.4,1.4-1.4,1.3c-2.7,0-5.4,0-8.1,0.1c-0.9,0-1.2-0.2-1.1-1.1C47.3,41.8,47.4,38.8,47.6,35.8
			C47.6,35.8,47.6,35.8,47.6,35.8z M54.8,28.9c-0.6-0.1-0.8,0.3-0.9,0.8c0,0.7,0.4,0.7,0.9,0.7c0.6,0,0.9-0.2,0.9-0.9
			C55.6,29,55.3,28.9,54.8,28.9z M57.3,34.6c0-0.4-0.1-0.6-0.6-0.6c-0.7,0-0.7,0.5-0.7,0.9c0,0.3,0,0.7,0.4,0.7
			C57,35.6,57.3,35.2,57.3,34.6z M56.5,27.5c-0.5,1.1-0.3,1.9-0.1,2.7C56.6,29.4,57.1,28.6,56.5,27.5z M55.4,28.2c0-0.1,0-0.2,0-0.3
			c-1.1,0.1-2.2,0.1-3.4,0.2c0.9,0.2,1.8,0.2,2.8,0.2C55,28.3,55.2,28.3,55.4,28.2z"/>
		<path class="st2" d="M30.1,46c-1.3,0-2.7-0.1-4,0c-0.9,0.1-1.1-0.2-1-1.1c0.5-5.3,1-10.5,1.5-15.8c0-0.4,0.1-0.7,0.1-1.1
			C26.8,26,26.8,26,29,26c2.3,0,4.7,0,7-0.1c0.8,0,1.1,0.2,1,1.1c-0.5,5.9-1,11.8-1.5,17.7C35.4,45.7,35,46,34,46
			C32.7,45.9,31.4,45.9,30.1,46C30.1,46,30.1,46,30.1,46z M34.7,43.7c0.2-0.8-0.4-0.6-0.8-0.7c-1-0.2-0.7,0.7-0.8,1.2
			c-0.1,0.4,0.1,0.7,0.6,0.7C34.3,44.7,34.9,44.6,34.7,43.7z M35.5,35.1c0.1-0.8-0.9,0-1-0.7c-0.5,0.1-0.8,0.3-0.8,0.9
			c0,0.6,0.2,0.8,0.8,0.8C35.1,36,35.5,35.7,35.5,35.1z M29.4,35c-0.4,0.1-0.6,0.3-0.5,0.7c0,0.4,0.4,0.4,0.7,0.4
			c0.3,0,0.7,0,0.6-0.5C30.2,35.2,29.8,35.1,29.4,35z"/>
		<path class="st2" d="M13.6,57.2c0.1-1.1,0.2-2,0.3-2.9c0,1,0.4,1.3,1.4,1.3c17.5,0.1,35,0.1,52.6,0c12.9-0.1,25.8-0.1,38.7-0.2
			c19.7-0.1,39.4-0.3,59.2-0.5c5.2,0,10.5-0.1,15.7-0.2c0.2,0,0.4,0,0.7,0c0.3,0,0.8,0,0.7,0.5c0,0.5-0.4,0.6-0.8,0.6
			c-1.6,0.1-3.2,0.1-4.8,0.1c-6.7,0.1-13.4,0-20.2,0.2c-4.9,0.1-9.8,0.2-14.6,0.2c-3.3,0-6.5-0.3-9.8-0.1
			c-5.9,0.4-11.9,0.3-17.8,0.3c-7.7,0-15.4-0.1-23.1-0.1c-5.2,0-10.5-0.1-15.7,0.1c-17.7,0.5-35.3,0.3-53,0.4c-2.6,0-5.1,0-7.7,0
			C14.8,56.8,14.2,56.7,13.6,57.2z"/>
		<path class="st2" d="M166.1,45.1c-1.5,0-3,0-4.4,0c-0.7,0-1-0.2-1.1-1c-0.5-6.1-1.1-12.3-1.7-18.4c-0.1-0.9,0.2-1,0.9-1
			c2.9,0,5.8,0,8.7,0c0.5,0,0.9,0,1,0.7c0.2,4.9,1,9.7,1.5,14.5c0.1,1.4,0.2,2.8,0.4,4.1c0.1,0.8-0.2,1-0.9,1
			C169.1,45,167.6,45.1,166.1,45.1C166.1,45.1,166.1,45.1,166.1,45.1z M164.3,29.7C164.3,29.7,164.3,29.7,164.3,29.7
			c0.5,0,1,0,1.5,0c0.4,0,0.9,0,0.9-0.7c-0.1-0.5-0.2-0.9-0.8-0.8c-1,0-2,0-3.1,0c-0.5,0-0.8,0.2-0.7,0.7c0,0.4,0.1,0.8,0.7,0.8
			C163.3,29.7,163.8,29.7,164.3,29.7z M162.4,35c0.4-0.1,1.2,0.3,1.1-0.8c-0.1-1.1-0.5-1.6-1.7-1.6c-0.7,0.1-1.4,0-1.3,1
			C160.5,34.9,161.2,35.1,162.4,35z M161.5,28.5c-0.4-0.4,0.4-1.6-1-1.7c-0.8,0-0.7,0.6-0.6,1.1c0.1,0.7-0.2,1.6,1,1.7
			C161.7,29.7,161.6,29.2,161.5,28.5z M164.2,27.7C164.2,27.7,164.2,27.7,164.2,27.7c0.5,0,1.1,0,1.6,0c0.3,0,0.6,0,0.6-0.3
			c0.1-0.4-0.3-0.5-0.5-0.5c-1.1-0.1-2.2-0.1-3.3-0.1c-0.3,0-0.5,0.1-0.5,0.5c0,0.4,0.3,0.4,0.5,0.4
			C163.1,27.8,163.7,27.7,164.2,27.7z M167.4,35c0.6,0,1.1-0.1,1.1-0.8c0-0.5-0.2-1-0.8-0.9c-0.7,0-0.8,0.6-0.9,1.1
			C166.7,34.9,166.9,35.1,167.4,35z M167.1,28c0,0.3,0.1,0.7,0.1,1c0.1,0.6,0.5,0.7,1,0.5c0.6-0.2,0.4-0.6,0.2-1
			c-0.2-0.3-0.3-0.5-0.4-0.8c-0.1-0.3,0-0.9-0.5-0.7C166.9,27.2,167.2,27.7,167.1,28z"/>
		<path class="st2" d="M142.4,45.3c-1.5,0-3,0-4.4,0c-0.7,0-0.9-0.2-1-0.9c-0.4-6.3-0.8-12.5-1.2-18.8c0-0.7,0.2-0.9,0.8-0.9
			c3,0,6.1,0,9.1,0c0.5,0,0.7,0.2,0.8,0.8c0.4,6.2,0.9,12.3,1.4,18.5c0.1,1-0.1,1.4-1.2,1.3C145.3,45.2,143.9,45.3,142.4,45.3
			C142.4,45.3,142.4,45.3,142.4,45.3z M139,32.2c-1.7,0-1.8,0.1-2,0.8c-0.4,1.8,0.1,2.4,1.9,2.4c0.4,0,0.9,0,1.3,0
			c0.3,0,0.5-0.1,0.6-0.4C141.4,33.6,140.5,32.1,139,32.2z M144.2,35.3c0.7-0.1,2,0.5,1.9-1.3c-0.1-1.4-0.6-1.9-2.4-1.9
			c-1,0-1.5,0.3-1.4,1.4C142.4,35.3,142.4,35.3,144.2,35.3z M141.4,30C141.4,30,141.4,30,141.4,30c0.5,0,1,0,1.5,0
			c0.6,0,0.9-0.1,0.9-0.8c0-0.6-0.3-0.9-0.9-0.9c-1,0-2,0-3.1,0c-0.5,0-1,0-1,0.7c0,0.6,0.2,1,0.9,1C140.3,29.9,140.8,30,141.4,30z
			 M139.1,38.5c-0.1-0.8-0.2-1.5-0.3-2.3c-0.1-0.6-0.5-0.5-0.9-0.5c-0.2,0-0.3,0-0.4,0.3c-0.2,0.9-0.2,1.7,0,2.5
			c0.1,0.7-0.3,1.9,1,1.8C139.7,40.2,138.8,39.1,139.1,38.5z M144.3,38.3C144.3,38.3,144.3,38.3,144.3,38.3c0-0.6-0.1-1.3-0.1-1.9
			c0-0.5-0.3-0.7-0.8-0.7c-0.5,0-0.8,0.2-0.8,0.7c0.1,1.1,0.1,2.1,0.3,3.2c0.1,0.5,0.5,0.7,1,0.8c0.6,0,0.5-0.5,0.5-0.9
			C144.4,39.1,144.4,38.7,144.3,38.3z M141.2,27.9C141.2,27.9,141.2,27.9,141.2,27.9c0.6,0,1.2,0,1.7,0c0.3,0,0.7,0,0.7-0.4
			c0-0.3-0.1-0.6-0.4-0.8c-1.3-0.6-2.6-0.4-3.9-0.2c-0.5,0.1-0.5,0.6-0.5,1c0,0.5,0.4,0.4,0.7,0.4C140,27.9,140.6,27.9,141.2,27.9z
			 M139.4,37.4c0.1,0.8,0.2,1.6,0.2,2.5c0,0.5,0.4,0.6,0.7,0.6c0.3,0,0.7,0,0.6-0.3c-0.4-1.3,0.1-2.7-0.3-3.9
			c-0.1-0.4-0.5-0.5-0.9-0.4c-0.4,0-0.5,0.4-0.5,0.7C139.4,36.7,139.4,37,139.4,37.4z M143.9,27.8c0.1,0.5,0.1,1,0.2,1.4
			c0,0.7,0.4,0.8,1,0.7c0.6,0,0.8-0.4,0.7-0.9c0-0.5-0.1-1-0.2-1.5c-0.1-0.6-0.2-1.3-1-1.3C143.8,26.5,144.1,27.2,143.9,27.8z
			 M136.7,28.3c0.4,0.4-0.5,1.5,0.8,1.7c0.5,0.1,1.2,0.1,1-0.8c-0.2-0.9,0.4-2.2-0.9-2.7c-0.3-0.1-1,0.1-0.9,0.8
			C136.7,27.6,136.7,27.8,136.7,28.3z M145.8,38.7c0.1-0.9,0.1-1.5,0.2-2.2c0.1-0.6-0.1-0.8-0.7-0.9c-0.6,0-0.7,0.3-0.7,0.8
			c0.1,0.7,0.1,1.3,0.2,2c0.1,0.6-0.2,1.8,0.6,1.7C146.5,40.2,145.6,39.1,145.8,38.7z M146.1,43.2c0-0.5,0-1-0.8-0.9
			c-0.6,0.1-1.1,0.3-1.1,1c0,0.6,0.3,0.9,0.9,0.9C145.8,44.2,146.1,43.9,146.1,43.2z M140.7,43.1c-0.2-0.3,0.1-1-0.7-1.1
			c-0.6,0-0.7,0.4-0.7,0.9c0,0.5-0.1,1.2,0.7,1.2C140.7,44.2,140.7,43.7,140.7,43.1z"/>
		<path class="st2" d="M85,35.1c0,3.1,0,6.2,0,9.3c0,0.9-0.3,1.2-1.2,1.2c-2.7,0-5.5,0-8.2,0c-0.8,0-1.1-0.2-1.1-1.1
			c0.2-6.2,0.4-12.3,0.6-18.5c0-0.8,0.3-1,1-1c2.7,0,5.4,0,8.1-0.1c0.9,0,1,0.4,1,1.1c0,3,0,6,0,9C85.1,35.1,85,35.1,85,35.1z
			 M79.3,34.2c0-1.7-0.2-1.9-1.9-1.9c-1.5,0-1.3,1.1-1.4,2c-0.2,1.6,0.9,1.2,1.8,1.3C78.9,35.7,79.5,35.3,79.3,34.2z M82.4,35.6
			c1,0,1.9,0.2,1.8-1.4c0-1.4-0.7-1.5-1.8-1.6c-1.4-0.1-1.6,0.5-1.6,1.7C80.7,35.6,81.4,35.7,82.4,35.6z M84,42.7
			c-0.1-0.7,0.4-1.9-1.1-1.6c-0.6,0.1-1.9-0.7-1.9,0.7c0,2.4,0.3,2.8,1.5,2.9C84.1,44.8,84.1,43.8,84,42.7z M80.1,30.2
			c0.5,0,1,0,1.5,0c0.6,0,0.8-0.3,0.8-0.9c0-0.6-0.2-0.9-0.8-0.9c-1,0-2,0-2.9,0c-0.7,0-0.7,0.6-0.7,1c0,0.5,0.2,0.7,0.7,0.7
			C79.1,30.2,79.6,30.2,80.1,30.2z M82.6,38.2C82.6,38.2,82.6,38.2,82.6,38.2c0,0.5,0,1.1,0,1.6c0,0.5,0,0.9,0.7,0.9
			c0.6,0,0.8-0.3,0.8-0.8c0-1.1,0.1-2.2,0.1-3.3c0-0.5-0.3-0.7-0.7-0.7c-0.6,0-0.8,0.2-0.8,0.8C82.6,37.2,82.6,37.7,82.6,38.2z
			 M82.2,38.3c0-0.6,0-1.2,0-1.7c0-0.4-0.1-0.7-0.6-0.7c-0.4,0-0.8,0.1-0.8,0.6c0,1.2,0,2.4,0,3.6c0,0.5,0.3,0.6,0.7,0.6
			c0.5,0,0.6-0.2,0.7-0.6C82.2,39.4,82.2,38.8,82.2,38.3z M79.2,38.7c0-1,0-1.6,0-2.2c0-0.4-0.3-0.6-0.7-0.6c-0.4,0-0.7,0.2-0.7,0.6
			c-0.1,1.2-0.1,2.4,0.1,3.6c0.1,0.4,0.3,0.6,0.7,0.6c0.5,0,0.5-0.4,0.6-0.7C79.2,39.4,79.2,38.9,79.2,38.7z M80.2,28.1
			C80.2,28.1,80.2,28.1,80.2,28.1c0.4,0,0.8,0,1.2,0c0.4,0,0.9,0.1,0.9-0.5c0.1-0.6-0.4-0.7-0.8-0.8c-0.9-0.1-1.8-0.1-2.7,0.2
			c-0.3,0.1-0.8,0.1-0.7,0.6c0,0.6,0.5,0.5,0.9,0.5C79.4,28.1,79.8,28.1,80.2,28.1z M84.3,28.6C84.2,28,84.4,27.4,84,27
			c-0.3-0.3-0.7-0.2-1,0.1c-0.4,0.4-0.4,2.8-0.1,2.9c0.4,0.2,0.9,0.2,1.1-0.2C84.3,29.5,84.2,29,84.3,28.6z M77.5,28.5
			C77.5,28.5,77.5,28.5,77.5,28.5c0-0.4,0-0.7,0-1.1c0-0.4-0.2-0.6-0.6-0.6c-0.3,0-0.7,0.1-0.7,0.5c0,0.8-0.1,1.5,0,2.3
			c0,0.4,0.3,0.5,0.6,0.5c0.4,0,0.6-0.2,0.6-0.7C77.5,29.2,77.5,28.9,77.5,28.5z M76.2,36c0.3,0.9,0.5,1.9,0.8,3
			C77.7,36.1,77.7,35.9,76.2,36z"/>
		<path class="st2" d="M102.7,35.1c0,3,0,6.1,0,9.1c0,0.9-0.3,1.2-1.2,1.2c-3,0-6,0-9,0.1c-0.9,0-1.1-0.3-1.1-1.2
			c0-6.1,0.1-12.3,0-18.4c0-0.8,0.3-1.1,1.1-1.1c3,0,5.9,0,8.9-0.1c0.8,0,1.2,0.1,1.2,1.1c-0.1,3,0,6.1,0,9.1
			C102.6,35.1,102.7,35.1,102.7,35.1z M94.4,44.5c0.9-0.1,2.1,0.4,2-1.4c-0.1-2.1,0-2.1-1.6-2.1c-2.3,0-2.2,0-2.4,2
			C92.4,44.5,93.2,44.7,94.4,44.5z M99.7,44.5c2.1,0,2.1-0.1,2.1-1.6c0-1,0.1-2.1-1.5-2c-2.2,0.1-2.3,0.1-2.3,2.4
			C97.9,44.9,99,44.4,99.7,44.5z M94.4,35.4c1.9,0,2,0,1.9-1.4c0-1.7-0.1-1.7-2.4-1.8c-1.6-0.1-1.4,0.9-1.5,1.9
			C92.3,35.7,93.5,35.4,94.4,35.4z M99.6,35.3c1.5,0.2,2.5,0.1,2.1-1.5c-0.1-0.6,0.6-1.8-0.9-1.8c-2.5,0.1-2.9,0.4-2.9,2.2
			C97.9,36,99.2,35.2,99.6,35.3z M97,30C97,30,97,30,97,30c0.6,0,1.2,0,1.7,0c0.6,0,0.9-0.2,0.9-0.9c0-0.6-0.1-1-0.8-0.9
			c-1.1,0-2.2,0-3.4,0c-0.8,0-0.8,0.5-0.8,1.1c0,0.7,0.4,0.7,0.9,0.7C96,30,96.5,30,97,30z M96.3,38.2
			C96.3,38.2,96.4,38.2,96.3,38.2c0-0.5,0-1.1,0-1.6c0-0.8-0.6-0.8-1.1-0.9c-0.7-0.1-0.7,0.4-0.7,0.9c0,1.1,0,2.1,0,3.2
			c0,0.5,0.2,0.9,0.8,0.9c0.5,0,1.1-0.1,1-0.9C96.3,39.2,96.3,38.7,96.3,38.2z M101.8,38.1c0-0.6,0-1.2,0-1.7c0-0.6-0.3-0.8-0.8-0.7
			c-0.5,0-1,0-1,0.6c0,1.2,0,2.3,0,3.5c0,0.5,0.3,0.8,0.9,0.8c0.5,0,1-0.2,1-0.8C101.8,39.2,101.8,38.7,101.8,38.1z M98,38.1
			C97.9,38.1,97.9,38.1,98,38.1c0,0.6,0,1.2,0,1.7c0,0.6,0.3,0.8,0.9,0.8c0.5,0,0.9-0.2,0.9-0.8c0-1.2,0-2.3,0-3.5
			c0-0.5-0.3-0.7-0.8-0.7c-0.5,0-0.9,0.1-0.9,0.7C97.9,37,98,37.6,98,38.1z M94.2,38.4C94.2,38.4,94.2,38.4,94.2,38.4
			c0-0.5,0-1.1,0-1.6c0-0.5-0.1-0.9-0.8-0.9c-0.6,0-0.9,0.3-0.9,0.9c0,1.1,0,2.1,0,3.2c0,0.6,0.3,0.8,0.8,0.8c0.5,0,0.9,0,0.9-0.7
			C94.2,39.4,94.2,38.9,94.2,38.4z M101.7,28.4c-0.3-0.5,0.5-1.7-0.8-1.7c-1.3,0-1,1.1-1,1.9c0,0.6-0.2,1.4,0.9,1.4
			C102.1,29.9,101.6,29.1,101.7,28.4z M94.3,28.4c-0.4-0.4,0.4-1.5-0.8-1.4c-1.3,0.1-0.7,1.3-0.9,2c-0.1,0.6,0.1,0.9,0.8,0.9
			C94.6,30,94.1,29.1,94.3,28.4z M97.2,27.8C97.2,27.8,97.2,27.8,97.2,27.8c0.6,0,1.2,0,1.7,0c0.3,0,0.6-0.1,0.6-0.5
			c0-0.4-0.3-0.5-0.5-0.4c-1.2,0-2.5,0.1-3.7,0.2c-0.2,0-0.4,0.2-0.4,0.4c0,0.3,0.3,0.3,0.5,0.3C95.9,27.8,96.6,27.8,97.2,27.8z"/>
		<path class="st2" d="M119.8,37.6c0,2.2,0,4.5,0,6.7c0,0.7-0.2,1-1,1c-2.8,0-5.6,0-8.5,0c-0.7,0-0.9-0.3-1-0.9
			c-0.1-6.2-0.3-12.4-0.5-18.5c0-0.7,0.2-1,1-1c2.8,0,5.6,0,8.3-0.1c0.8,0,1,0.3,1,1c0,3.9,0,7.9,0,11.8
			C119.4,37.6,119.6,37.6,119.8,37.6z M113.8,43c0.1-1.1,0.2-2.2-1.5-2.1c-1.9,0.1-1.8,0-2,2.1c-0.1,1.7,0.9,1.4,2,1.5
			C113.5,44.6,114.1,44.3,113.8,43z M115.4,42.4c0.1,2.1,0.1,2.1,1.9,2.1c1,0,1.6-0.1,1.5-1.4c-0.2-2.2-0.1-2.1-1.9-2.2
			C115.7,40.9,115.1,41.3,115.4,42.4z M111.8,35.3c0.7-0.1,1.8,0.5,1.7-1.1c-0.1-1.5-0.6-2-2.1-2.1c-1.2-0.1-1.2,0.7-1.2,1.6
			C110.1,34.9,110.4,35.7,111.8,35.3z M116.5,35.4c1.8,0,1.9,0,1.9-1.2c0-1.9-0.1-2-1.6-2.1c-1.1,0-1.7,0.2-1.7,1.6
			C115.1,34.9,115.3,35.7,116.5,35.4z M114.1,30c0.4,0,0.9,0,1.3,0c0.6,0,1-0.2,1-0.9c0-0.7-0.4-0.9-1-0.9c-0.9,0-1.8,0-2.7,0
			c-0.6,0-0.9,0.3-0.9,0.9c0,0.6,0.2,0.9,0.9,0.9C113.3,29.9,113.7,30,114.1,30z M116.8,38.8c-0.1-1-0.1-1.7-0.1-2.4
			c0-0.5-0.2-0.8-0.7-0.7c-0.5,0-0.8,0.2-0.7,0.7c0,1.2,0.1,2.3,0.1,3.5c0,0.5,0.2,0.8,0.7,0.7c0.5,0,0.9-0.1,0.8-0.7
			C116.8,39.4,116.8,38.9,116.8,38.8z M117.1,37.9C117.1,37.9,117.1,37.9,117.1,37.9c0,0.6,0,1.2,0,1.9c0,0.5,0.2,0.7,0.7,0.7
			c0.5,0,0.9-0.2,0.8-0.8c-0.1-1.2-0.1-2.3-0.2-3.5c0-0.5-0.3-0.6-0.7-0.6c-0.4,0-0.7,0.2-0.7,0.6C117.1,36.8,117.1,37.4,117.1,37.9
			z M112.2,38C112.2,38,112.2,38,112.2,38c0.1,0.6,0.1,1.2,0.1,1.9c0,0.5,0.3,0.6,0.7,0.6c0.4,0,0.8,0,0.8-0.5
			c0-1.2-0.1-2.5-0.2-3.7c0-0.5-0.4-0.5-0.8-0.5c-0.4,0-0.6,0.2-0.6,0.6C112.2,36.8,112.2,37.4,112.2,38z M111.7,38.1
			C111.7,38.1,111.7,38.1,111.7,38.1c-0.1-0.5,0-1.1-0.1-1.6c0-0.4,0-0.8-0.6-0.8c-0.5,0-0.7,0.3-0.7,0.7c0,1.1,0,2.2,0,3.4
			c0,0.6,0.5,0.7,0.9,0.7c0.6,0,0.5-0.5,0.5-0.9C111.8,39.1,111.8,38.6,111.7,38.1z M116.7,28.1c0,0.3,0,0.5,0,0.7
			c0,0.6,0,1.2,0.9,1.1c0.9-0.1,0.7-0.7,0.7-1.2c0-0.5-0.1-1.1-0.1-1.6c0-0.3,0-0.8-0.5-0.8c-0.4,0-0.8,0.2-0.8,0.7
			C116.7,27.5,116.7,27.8,116.7,28.1z M114.2,27.8C114.2,27.8,114.2,27.8,114.2,27.8c0.5,0,1,0,1.5,0c0.3,0,0.7,0,0.7-0.4
			c0-0.3-0.2-0.6-0.5-0.6c-1.1,0-2.1,0-3.2,0c-0.3,0-0.6,0.2-0.6,0.6c0,0.5,0.4,0.4,0.7,0.4C113.2,27.8,113.7,27.8,114.2,27.8z
			 M111.5,28.6c0-0.4-0.1-0.8-0.1-1.2c0-0.5-0.3-0.7-0.8-0.7c-0.6,0-0.5,0.5-0.5,0.9c0,0.4,0,0.7,0,1.1c0.1,0.5-0.3,1.4,0.8,1.3
			C111.9,29.9,111.4,29.1,111.5,28.6z"/>
		<path class="st2" d="M132.1,77.7c0,0.2,0,0.3,0,0.3c-0.1,1.2,0.7,2.8-0.2,3.5c-1.1,0.8-2.8,0.2-4.2,0.3c-0.5,0-0.7-0.3-0.7-0.8
			c0-2.1-0.1-4.2-0.2-6.3c0-0.6,0.3-0.8,0.8-0.8c1.1,0,2.2,0,3.3-0.1c0.7,0,0.9,0.3,1,0.9C132,75.9,132.1,76.9,132.1,77.7z"/>
		<path class="st2" d="M72.5,46.4c16.6,0.1,33.3-0.4,49.9-0.2c0,0.2,0,0.4,0,0.5c-16.6,0-33.3,0-49.9,0
			C72.5,46.7,72.5,46.5,72.5,46.4z"/>
		<path class="st2" d="M65.1,78.4c-3.2-0.1-3.2-0.1-2.8-3.3c0.1-0.7,0.4-0.9,1-0.9c1.3,0.1,2.7,0.1,4,0.1c0.8,0,1,0.3,1,1.1
			C68.3,78.5,68.3,78.5,65.1,78.4z"/>
		<path class="st2" d="M135,46.2c5.3,0,10.5,0,15.8,0c0,0.2,0,0.3,0,0.5c-5.3,0.2-10.5,0.2-15.8,0.1C135,46.6,135,46.4,135,46.2z"/>
		<path class="st2" d="M35.6,87.6c-1.2,1.1-14.5,0.9-16.2,0C24.8,87.6,30,87.6,35.6,87.6z"/>
		<path class="st2" d="M42.4,88.2c5.5,0,10.9,0,16.5,0C57.7,89,44,88.9,42.4,88.2z"/>
		<path class="st2" d="M174.3,46.1c-1.1,0.7-12.3,0.8-15.4,0C164,46.1,169.1,46.1,174.3,46.1z"/>
		<path class="st2" d="M153.1,88.3c-5.5,0.7-10.9,0.6-16.4,0.6c0-0.2,0-0.4,0-0.6C142.1,88.3,147.6,88.3,153.1,88.3z"/>
		<path class="st2" d="M177.8,87.6c-1.4,0.9-15.1,1.1-16.6,0.3C166.9,87.7,172.2,87.4,177.8,87.6z"/>
		<path class="st2" d="M23,46.9c4.8,0,9.7,0,14.5,0c0,0.1,0,0.2,0,0.4c-4.8,0.3-9.6,0.3-14.5,0.2C23,47.3,23,47.1,23,46.9z"/>
		<path class="st2" d="M60,47.1c-5.1,0.1-10.1,0.5-15.2,0.1c0-0.2,0-0.3,0-0.5c5.1,0,10.1,0,15.2,0C60,46.9,60,47,60,47.1z"/>
		<path class="st2" d="M87.1,89.2c-5.1,0-10.3,0.1-15.4-0.1c0-0.2,0-0.3,0-0.5c5.1,0,10.3,0,15.4,0C87.1,88.8,87.1,89,87.1,89.2z"/>
		<path class="st2" d="M123.3,89.2c-5.3-0.1-10.5,0.3-15.8,0c0-0.1,0-0.3,0-0.4c5.3,0,10.5,0,15.8,0
			C123.3,88.9,123.3,89.1,123.3,89.2z"/>
		<path class="st2" d="M183.3,16.1c-2,1.7-0.5,3.7-1.2,5.5c-0.1-0.8-0.2-1.5-0.4-2.3c-0.1-0.6,0.3-1.7-1.2-1.1
			c-0.5,0.2-0.4-0.9-0.6-1.4c-0.2-0.5,0.1-0.7,0.6-0.7C181.3,16.1,182.1,16.1,183.3,16.1z"/>
		<path class="st2" d="M184.3,41.5c0.4,3.8,0.8,7.6,1.2,11.4c-0.1,0-0.3,0-0.4,0.1c-0.3-1.8,0.2-3.8-0.8-5.6
			C183.2,45.5,184.4,43.5,184.3,41.5z"/>
		<g>
			<path class="st2" d="M8.1,93.4c0.8-6.5,1.4-13.1,2-19.6c0.1-0.9,0.2-1.8,0.2-2.7c0-0.6,0.2-1.1-0.2-1.6c-0.3-0.3-0.2-1,0.2-1.4
				c0.3-0.4,0.8-0.7,0-1.1c-0.3-0.1-0.2-0.4,0.1-0.5c0.5-0.1,0.4-0.4,0.3-0.6c-0.7-2.5,0.4-4.8,0.4-7.2c0-0.4,0.2-0.5,0.6-0.6
				c0.5-0.1,0.9-0.4,0.7-1c-0.1-0.5-0.7-0.3-1-0.4c-0.7-0.1-0.7,0.4-0.7,0.9c-0.1,1.1-0.2,2.1-0.3,3.2c-0.7,7.4-1.4,14.7-2.1,22.1
				c-0.3,3.5-0.9,7-0.9,10.5C7.5,93.4,7.8,93.4,8.1,93.4z"/>
			<path class="st2" d="M13.2,18.2c2,1.7,0.5,3.7,1.2,5.5c0.1-0.8,0.2-1.5,0.4-2.3c0.1-0.6-0.3-1.7,1.2-1.1c0.5,0.2,0.4-0.9,0.6-1.4
				c0.2-0.5-0.1-0.7-0.6-0.7C15.1,18.3,14.3,18.2,13.2,18.2z"/>
			<path class="st2" d="M12.1,43.7c-0.4,3.8-0.8,7.6-1.2,11.4c0.1,0,0.3,0,0.4,0.1c0.3-1.8-0.2-3.8,0.8-5.6
				C13.2,47.6,12,45.6,12.1,43.7z"/>
		</g>
	</g>
</g>
</svg>
