<svg id="Camada_1" data-name="Camada 1" xmlns="http://www.w3.org/2000/svg" viewBox="0 0 34.4 35.63">
    <path class="cls-1"
        d="M675.47,405.63l-12.61,6.52a.8.8,0,0,1-1.17-.71v-13a.8.8,0,0,1,1.17-.71l12.61,6.52A.8.8,0,0,1,675.47,405.63Z"
        transform="translate(-650.02 -386.5)" />
    <path class="cls-1"
        d="M650,411.82v-15c0-.11.05-.22.06-.33a11,11,0,0,1,7.56-9.47c.76-.22,1.55-.33,2.32-.49h14.51c.67.13,1.35.2,2,.39a11,11,0,0,1,7.93,10.79q0,6.63,0,13.26c0,.35,0,.71,0,1.07a11,11,0,0,1-7.79,9.69c-.68.19-1.4.28-2.1.42H660a.87.87,0,0,0-.22-.05,10.81,10.81,0,0,1-9.32-8.11C650.24,413.27,650.15,412.54,650,411.82Zm3.22-7.55q0,3.32,0,6.61a8.29,8.29,0,0,0,.09,1.32,7.59,7.59,0,0,0,7.52,6.58q6.36,0,12.73,0a7.39,7.39,0,0,0,1.24-.09,7.72,7.72,0,0,0,6.36-7.79c0-4.39,0-8.79,0-13.18a7.79,7.79,0,0,0-.09-1.28,7.59,7.59,0,0,0-7.51-6.6H660.83a6.48,6.48,0,0,0-1.24.1,7.71,7.71,0,0,0-6.35,7.83Z"
        transform="translate(-650.02 -386.5)" />
</svg>