<?xml version="1.0" standalone="no"?>
<!DOCTYPE svg PUBLIC "-//W3C//DTD SVG 1.1//EN" "http://www.w3.org/Graphics/SVG/1.1/DTD/svg11.dtd" >
<svg xmlns="http://www.w3.org/2000/svg" xmlns:xlink="http://www.w3.org/1999/xlink" version="1.1">
<metadata></metadata>
<defs>
<font id="webfontregular" horiz-adv-x="1123" >
<font-face units-per-em="2048" ascent="1638" descent="-410" />
<missing-glyph horiz-adv-x="574" />
<glyph unicode="&#xfb01;" horiz-adv-x="1083" d="M67 -259l202 1171h-149l26 154h150l20 113q35 198 155 288t311 68l-24 -151q-120 21 -189.5 -30t-90.5 -183l-16 -105h556l-185 -1066h-164l158 912h-393l-203 -1171h-164zM881 1268l37 209h178l-34 -209h-181z" />
<glyph unicode="&#xfb02;" horiz-adv-x="1085" d="M67 -259l202 1171h-149l26 154h150l20 113q35 198 155 288t311 68l-24 -151q-120 21 -189.5 -30t-90.5 -183l-16 -105h231l-27 -154h-232l-203 -1171h-164zM669 0l266 1539h163l-265 -1539h-164z" />
<glyph unicode="&#xfb03;" horiz-adv-x="1644" d="M67 -259l202 1171h-149l26 154h150l22 113q34 199 156.5 288.5t326.5 67.5l-27 -151q-88 14 -146.5 -3t-95.5 -68.5t-52 -141.5l-20 -105h394l21 113q33 198 154 288t313 68l-26 -151q-57 10 -103.5 3t-81 -32t-58 -71t-35.5 -113l-18 -105h557l-185 -1066h-163l157 912 h-393l-192 -1109h-164l190 1109h-395l-201 -1171h-164zM1441 1268l36 209h179l-36 -209h-179z" />
<glyph unicode="&#xfb04;" horiz-adv-x="1646" d="M67 -259l202 1171h-149l26 154h150l22 113q34 199 156.5 288.5t326.5 67.5l-27 -151q-88 14 -146.5 -3t-95.5 -68.5t-52 -141.5l-20 -105h394l21 113q33 198 154 288t313 68l-26 -151q-57 10 -103.5 3t-81 -32t-58 -71t-35.5 -113l-18 -105h233l-27 -154h-233l-192 -1109 h-164l190 1109h-395l-201 -1171h-164zM1229 0l265 1539h164l-266 -1539h-163z" />
<glyph horiz-adv-x="0" />
<glyph horiz-adv-x="682" />
<glyph unicode=" "  horiz-adv-x="574" />
<glyph unicode="&#x09;" horiz-adv-x="574" />
<glyph unicode="&#xa0;" horiz-adv-x="574" />
<glyph unicode="!" horiz-adv-x="541" d="M89 0l39 221h180l-39 -221h-180zM180 420l149 987h188l-197 -987h-140z" />
<glyph unicode="&#x22;" horiz-adv-x="729" d="M199 912l60 495h187l-111 -495h-136zM529 912l59 495h188l-112 -495h-135z" />
<glyph unicode="#" horiz-adv-x="1143" d="M105 537l29 154h203l54 288h-203l31 152h201l54 276h146l-53 -276h221l54 276h145l-54 -276h208l-30 -152h-207l-56 -288h209l-29 -154h-209l-51 -268h-146l53 268h-222l-52 -268h-144l51 268h-203zM482 691h221l57 288h-223z" />
<glyph unicode="$" horiz-adv-x="1046" d="M49 470h164q0 -97 56.5 -167.5t156.5 -95.5l79 455q-63 27 -106.5 49.5t-87 54.5t-69.5 67.5t-42 84.5t-16 108q0 153 109.5 246.5t283.5 93.5q8 0 25 -1t25 -1l20 119h105l-24 -137q138 -34 212 -130.5t74 -226.5h-164q0 68 -37.5 123.5t-109.5 81.5l-70 -402 q38 -16 65.5 -29.5t60 -31t55.5 -34.5t47.5 -39t40.5 -46.5t29.5 -53.5t19.5 -63.5t6 -74.5q0 -119 -57.5 -203.5t-156 -124.5t-228.5 -40h-10l-37 -222h-106l39 232q-163 31 -261 142t-91 266zM358 1030q0 -37 12.5 -67t39 -53.5t55 -40.5t70.5 -36l65 379q-3 0 -10.5 1 t-10.5 1q-74 0 -123.5 -22t-73.5 -62.5t-24 -99.5zM529 197q123 1 191 59t68 160q0 37 -13.5 68t-40.5 55.5t-57 42.5t-73 38z" />
<glyph unicode="%" horiz-adv-x="1587" d="M162 1074q0 95 45 177t121.5 129t165.5 47q85 0 155.5 -45.5t110 -121t39.5 -162.5q0 -57 -17 -110.5t-48 -96.5t-72 -76t-92 -51t-104 -18q-88 0 -158.5 46t-108 120.5t-37.5 161.5zM263 0l972 1407h151l-970 -1407h-153zM308 1076q0 -79 45 -137t117 -58q83 0 133 62.5 t50 154.5q0 84 -44.5 138.5t-120.5 54.5q-75 0 -127.5 -60t-52.5 -155zM852 308q0 72 26.5 137.5t71 112.5t105.5 75.5t128 28.5q85 0 156 -45.5t110 -120.5t39 -163q0 -94 -45 -175t-121.5 -128.5t-165 -47.5t-159 45.5t-108 119.5t-37.5 161zM997 310q0 -79 46 -136.5 t117 -57.5q82 0 132 63t50 154q0 85 -44.5 138.5t-120.5 53.5q-75 0 -127.5 -60t-52.5 -155z" />
<glyph unicode="&#x26;" horiz-adv-x="1230" d="M60 377q0 87 26 157.5t77.5 124t115.5 93.5t151 77q-83 145 -83 272q0 75 27 138.5t72 105.5t103.5 65t121.5 23q89 0 155 -37.5t100 -102.5t34 -149q0 -110 -76.5 -198.5t-240.5 -165.5l251 -416q47 92 68 217l23 147h154l-28 -161q-38 -204 -134 -342l136 -225h-186 l-62 101q-151 -126 -356 -126q-94 0 -175.5 27t-142.5 77t-96 127t-35 171zM240 383q0 -70 30 -127.5t94 -94.5t151 -37q158 0 273 103l-291 489q-139 -69 -198 -146.5t-59 -186.5zM507 1109q0 -33 4.5 -61t19 -65.5t40.5 -80.5l6 -12q61 28 105 61t67 66.5t33 63.5t10 60 q0 68 -33 107t-88 39q-45 0 -81.5 -19t-59.5 -60t-23 -99z" />
<glyph unicode="'" horiz-adv-x="398" d="M199 912l60 495h187l-111 -495h-136z" />
<glyph unicode="(" horiz-adv-x="634" d="M140 542q0 317 137 605t374 475h156q-244 -227 -365.5 -506.5t-121.5 -600.5q0 -407 166 -767h-126q-220 348 -220 794z" />
<glyph unicode=")" horiz-adv-x="632" d="M-120 -252q244 226 365 506t121 600q0 410 -165 768h128q219 -349 219 -795q0 -316 -136.5 -604.5t-374.5 -474.5h-157z" />
<glyph unicode="*" horiz-adv-x="694" d="M164 1094l22 120l201 -8l-83 190l103 52l67 -195l116 195l99 -60l-147 -182l206 8l-22 -118l-197 7l83 -189l-109 -53l-61 193l-122 -193l-93 61l139 181z" />
<glyph unicode="+" horiz-adv-x="989" d="M101 550l25 145h324l61 349h149l-62 -349h324l-24 -145h-325l-60 -349h-149l62 349h-325z" />
<glyph unicode="," horiz-adv-x="442" d="M-33 -286l19 102q109 0 126 95l16 89h-99l38 225h202l-56 -326q-32 -185 -246 -185z" />
<glyph unicode="-" horiz-adv-x="719" d="M95 488l29 165h517l-29 -165h-517z" />
<glyph unicode="." horiz-adv-x="442" d="M29 0l38 225h202l-38 -225h-202z" />
<glyph unicode="/" horiz-adv-x="723" d="M-122 -252l846 1874h170l-845 -1874h-171z" />
<glyph unicode="0" horiz-adv-x="1224" d="M112 586q2 121 24 233t60 205t92.5 169.5t120.5 129.5t145 81.5t164 28.5q101 0 184.5 -37.5t145 -110.5t95 -187t32.5 -259q-3 -181 -47.5 -340t-121.5 -275t-188 -182.5t-241 -66.5q-104 0 -189 38.5t-148 113.5t-96.5 192t-31.5 267zM290 573q-3 -215 69.5 -329 t219.5 -114q69 0 129.5 29.5t105 81.5t80 121.5t57.5 151.5t34 168.5t14 175.5q3 198 -73.5 309.5t-218.5 111.5q-121 0 -215 -88.5t-146.5 -249t-55.5 -368.5z" />
<glyph unicode="1" horiz-adv-x="647" d="M164 1125l22 132q112 0 175 34.5t87 115.5h158l-244 -1407h-172l195 1125h-221z" />
<glyph unicode="2" horiz-adv-x="1079" d="M-10 0l14 83q16 91 51 169t77.5 134t103 107.5t114.5 85.5t126 72q75 40 124.5 68.5t98 61t76.5 60.5t50.5 62t32 70.5t9.5 80.5q0 29 -5 55.5t-15 52.5t-27.5 47t-41.5 37.5t-59 25.5t-78 9q-65 0 -118 -21t-91 -62t-62 -100.5t-33 -135.5h-171q26 220 155 345.5 t332 125.5q91 0 166 -29t123.5 -80t75 -119t26.5 -146q0 -52 -8.5 -98t-30.5 -86.5t-43.5 -73t-63 -66.5t-72.5 -58t-89 -57t-96 -53t-108 -56q-150 -77 -228 -157t-108 -194h705l-29 -160h-883z" />
<glyph unicode="3" horiz-adv-x="1085" d="M45 403h164q1 -46 8.5 -83.5t28 -74t52.5 -61.5t83.5 -40.5t119.5 -15.5q143 0 225.5 87.5t82.5 224.5q0 116 -65 175.5t-211 59.5h-57l29 154h24q334 0 334 251q0 44 -13 80t-38.5 62.5t-67.5 41.5t-99 15q-49 0 -93.5 -14.5t-78 -39t-59.5 -58.5t-42 -73.5t-23 -82.5 h-163q14 122 81.5 219t169 150t216.5 53q90 0 163.5 -27.5t121.5 -75t74 -110.5t26 -134q3 -240 -256 -336q97 -38 150 -122t53 -198q0 -131 -63 -234.5t-176 -162t-256 -58.5q-97 0 -175 25t-129 66.5t-84.5 97.5t-46.5 116t-10 123z" />
<glyph unicode="4" horiz-adv-x="1103" d="M25 331l24 139l809 937h180l-161 -923h145l-27 -153h-143l-58 -331h-170l57 331h-656zM235 484h472l118 676z" />
<glyph unicode="5" horiz-adv-x="1058" d="M64 364h163q12 -105 80 -169.5t192 -64.5q96 0 164 49t99.5 129t31.5 182q0 143 -62.5 218.5t-177.5 75.5q-52 0 -101.5 -21t-91 -57.5t-77.5 -87.5l-130 61l210 728h686l-28 -160h-548l-123 -420q40 47 106 76.5t147 29.5q108 0 192 -56t130.5 -156.5t46.5 -228.5 q0 -122 -38.5 -221t-104.5 -163t-153 -98.5t-185 -34.5q-96 0 -178 32.5t-136 86.5t-84 124t-30 146z" />
<glyph unicode="6" horiz-adv-x="1116" d="M97 523q0 142 29.5 277t86 249t132.5 200.5t175 135t208 48.5q101 0 179 -40t126 -120.5t53 -192.5h-164q-19 199 -206 199q-151 0 -262.5 -140.5t-167.5 -396.5q59 90 146 140.5t184 50.5q93 0 171 -35t130.5 -94.5t81.5 -139.5t29 -170q0 -84 -23.5 -162.5t-67 -142.5 t-101.5 -112.5t-132 -75t-154 -26.5q-97 0 -178 33t-143 99t-97 172.5t-35 243.5zM271 430q0 -135 72 -217.5t207 -82.5q95 0 166 49.5t106.5 129.5t35.5 177q0 62 -17 115.5t-49.5 94.5t-83.5 64.5t-114 23.5q-93 0 -168 -49t-115 -129.5t-40 -175.5z" />
<glyph unicode="7" horiz-adv-x="994" d="M172 1243l29 164h881l-25 -152q-176 -139 -316.5 -339.5t-231.5 -431t-136 -484.5h-176q42 233 128 457t220.5 430.5t300.5 355.5h-674z" />
<glyph unicode="8" d="M64 375q-1 99 37.5 179t109.5 136t172 90q-139 82 -139 258q0 81 32 153.5t87.5 126t137 84.5t176.5 31q68 0 128 -18t106 -50t79 -75t50 -95t17 -107q0 -235 -232 -333q96 -48 148.5 -131t52.5 -190q0 -93 -34.5 -176t-98.5 -146.5t-162 -100t-218 -36.5 q-85 0 -157.5 21t-125.5 58t-90.5 87t-56.5 109.5t-19 124.5zM246 383q0 -119 73.5 -187t203.5 -68q67 0 124.5 19t103 55t71.5 95t26 133q0 75 -32 132.5t-97 91t-154 33.5q-151 0 -235 -85.5t-84 -218.5zM416 1036q0 -91 58.5 -146t154.5 -55q113 0 182.5 66.5t69.5 180.5 q0 86 -59 142.5t-158 56.5q-51 0 -92.5 -14t-70 -37t-48 -54.5t-28.5 -66.5t-9 -73z" />
<glyph unicode="9" horiz-adv-x="1116" d="M75 306h165q15 -87 69.5 -131.5t168.5 -44.5q73 0 138 32t120 95.5t96 167.5t62 241q-39 -59 -91.5 -102t-114 -65.5t-125.5 -22.5q-75 0 -140 22.5t-114 62.5t-84 94.5t-53 120.5t-18 138q0 83 23 162t67 143t102 112.5t132 75t153 26.5q97 0 177.5 -33t142.5 -98.5 t96.5 -172t34.5 -243.5q0 -210 -46.5 -382.5t-129 -288t-195.5 -178t-245 -62.5q-105 0 -187.5 36t-136.5 111.5t-67 183.5zM322 922q0 -83 29 -149.5t90 -107.5t145 -41q93 0 167.5 49t114.5 130t40 176q0 88 -30.5 154.5t-93.5 106t-153 39.5q-94 0 -165.5 -49.5 t-107.5 -130t-36 -177.5z" />
<glyph unicode=":" horiz-adv-x="462" d="M39 0l38 225h202l-37 -225h-203zM152 645l36 226h203l-37 -226h-202z" />
<glyph unicode=";" horiz-adv-x="462" d="M-23 -286l19 102q109 0 126 95l16 89h-99l38 225h202l-56 -326q-32 -185 -246 -185zM152 645l36 226h203l-37 -226h-202z" />
<glyph unicode="&#x3c;" horiz-adv-x="882" d="M69 490l30 181l782 330l-31 -184l-619 -246v-2l527 -285l-30 -168z" />
<glyph unicode="=" horiz-adv-x="959" d="M64 337l25 145h765l-25 -145h-765zM130 718l28 145h762l-26 -145h-764z" />
<glyph unicode="&#x3e;" horiz-adv-x="882" d="M12 116l33 184l619 246v2l-526 285l28 168l659 -374l-31 -181z" />
<glyph unicode="?" horiz-adv-x="1011" d="M146 1026q11 86 47 160t93.5 129t139.5 86.5t178 31.5q110 0 199 -42t139.5 -118t50.5 -172q0 -52 -10.5 -98t-31.5 -83t-44 -66.5t-56.5 -56.5t-60 -45.5t-62.5 -39.5q-55 -33 -84.5 -54t-58 -50.5t-42 -63.5t-20.5 -82l-6 -42h-153l9 50q7 45 19 82.5t24 66t33.5 55 t39 44.5t49 41t54 37t63.5 39q85 53 126.5 113.5t41.5 145.5q0 89 -61 140t-168 51q-80 0 -141.5 -34t-97 -91.5t-47.5 -133.5h-162zM279 0l39 221h181l-37 -221h-183z" />
<glyph unicode="@" horiz-adv-x="1526" d="M112 714q0 107 26 207t72.5 182.5t111.5 151.5t141.5 116t165 73.5t180.5 26.5q140 0 259.5 -48t203.5 -132t131 -204.5t47 -261.5q0 -88 -23 -165t-61.5 -131.5t-87.5 -93.5t-101.5 -58t-102.5 -19q-72 0 -123.5 36t-69.5 92q-46 -59 -105 -92.5t-121 -33.5 q-77 0 -134 52t-75 141t12 207q40 149 145.5 246t217.5 97q56 0 95 -27.5t59 -76.5l22 77h142q-15 -44 -50 -161.5t-62 -213.5l-28 -95q-14 -53 8 -81t67 -28q44 0 84.5 22.5t73 64t52 106t19.5 141.5q0 100 -33 188.5t-94 156.5t-156 108t-211 40q-114 0 -216.5 -50 t-175.5 -133.5t-115.5 -195.5t-42.5 -231q0 -128 39.5 -237.5t110.5 -188t174 -123.5t224 -45q128 0 236 45t181 117h181q-94 -145 -247 -226t-351 -81q-150 0 -279 54.5t-220.5 151t-143.5 234.5t-52 299zM598 720q-23 -98 0.5 -157.5t84.5 -59.5q40 0 75 20t60 55 t42.5 76.5t29.5 89.5q10 40 12 77t-5 69.5t-28 52t-54 19.5q-70 0 -131.5 -71t-85.5 -171z" />
<glyph unicode="A" horiz-adv-x="1240" d="M-45 0l736 1407h180l240 -1407h-174l-62 377h-550l-193 -377h-177zM405 533h443l-82 511q-5 31 -9.5 71t-7.5 66.5t-3 30.5l-12 -28t-30.5 -68.5t-32.5 -71.5z" />
<glyph unicode="B" horiz-adv-x="1267" d="M83 0l244 1407h515q166 0 263 -95t97 -244q0 -52 -12.5 -99.5t-40 -91.5t-75 -79.5t-112.5 -57.5q69 -29 116 -80.5t68 -111.5t21 -130q0 -80 -25.5 -148.5t-71 -117.5t-107 -83.5t-134 -51.5t-152.5 -17h-594zM286 164h409q91 0 157 30t102.5 91.5t36.5 148.5 q0 69 -26 119.5t-79.5 79.5t-130.5 29h-384zM399 819h365q254 0 254 235q0 61 -23 104t-66.5 65t-105.5 22h-351z" />
<glyph unicode="C" horiz-adv-x="1433" d="M118 647q0 166 54.5 312t148 250t224.5 164t278 60q108 0 203.5 -32t168.5 -91t122.5 -145.5t66.5 -191.5h-178q-37 144 -135.5 225t-253.5 81q-117 0 -215.5 -49.5t-164.5 -134.5t-102.5 -199.5t-36.5 -244.5q0 -153 52 -270t153.5 -184t240.5 -67q77 0 145 22t122 61.5 t95 95.5t67 125h183q-70 -216 -236.5 -337.5t-385.5 -121.5q-138 0 -254 50.5t-195 140t-123 213.5t-44 268z" />
<glyph unicode="D" horiz-adv-x="1356" d="M83 0l244 1407h374q137 0 249.5 -43t190 -121.5t120 -191.5t42.5 -250q0 -154 -38.5 -284t-108 -224.5t-165.5 -161t-212 -99t-248 -32.5h-448zM286 158h260q94 0 177 21.5t157.5 71t128 123t85 184t31.5 247.5q0 113 -32 199t-91.5 139t-139 79.5t-177.5 26.5h-209z" />
<glyph unicode="E" horiz-adv-x="1174" d="M83 0l244 1407h889l-28 -160h-714l-73 -428h606l-28 -159h-606l-85 -500h723l-28 -160h-900z" />
<glyph unicode="F" horiz-adv-x="1129" d="M83 0l244 1407h875l-29 -160h-699l-73 -428h610l-28 -159h-610l-114 -660h-176z" />
<glyph unicode="G" horiz-adv-x="1466" d="M118 641q0 166 55 313t149 252t224.5 166t276.5 61q216 0 364 -121t189 -325h-178q-41 138 -135 215t-246 77q-116 0 -214.5 -50.5t-164.5 -137t-103 -201.5t-37 -245q0 -153 50.5 -269t148.5 -181t231 -65q123 0 220 53t158 148.5t86 227.5h-371l27 159h538l-125 -718 h-163l33 190q-71 -107 -170 -161t-243 -54q-130 0 -241.5 50t-190.5 137.5t-123.5 211.5t-44.5 267z" />
<glyph unicode="H" horiz-adv-x="1389" d="M83 0l244 1407h174l-102 -588h693l102 588h176l-245 -1407h-174l115 658h-695l-112 -658h-176z" />
<glyph unicode="I" horiz-adv-x="537" d="M89 0l244 1407h174l-244 -1407h-174z" />
<glyph unicode="J" horiz-adv-x="1062" d="M39 446h174q-3 -31 -3 -59q0 -257 234 -257q121 0 188 82t94 244l164 951h176l-170 -975q-19 -109 -53 -191t-88 -143t-131.5 -92t-179.5 -31q-108 0 -191.5 36t-133.5 99.5t-71 149.5q-13 56 -13 118q0 33 4 68z" />
<glyph unicode="K" horiz-adv-x="1267" d="M83 0l244 1407h174l-124 -710l764 710h220l-627 -574l399 -833h-186l-345 714l-263 -240l-80 -474h-176z" />
<glyph unicode="L" horiz-adv-x="1046" d="M83 0l244 1407h174l-215 -1247h653l-29 -160h-827z" />
<glyph unicode="M" horiz-adv-x="1629" d="M83 0l244 1407h252l165 -1036q5 -30 8.5 -72t5.5 -68t2 -30q35 106 67 168l521 1038h257l-241 -1407h-172l169 973q26 160 44 231q-28 -71 -87 -188l-509 -1016h-170l-161 1018q-8 45 -14 105.5t-6 78.5q-10 -82 -34 -227l-167 -975h-174z" />
<glyph unicode="N" horiz-adv-x="1370" d="M83 0l244 1407h192l472 -1144l199 1144h158l-243 -1407h-176l-483 1169l-202 -1169h-161z" />
<glyph unicode="O" horiz-adv-x="1490" d="M118 645q0 166 55.5 312.5t150.5 250.5t226.5 164.5t278.5 60.5q130 0 242.5 -49t193 -135t126.5 -209.5t46 -265.5q0 -169 -55 -317t-149.5 -254t-227.5 -167t-283 -61q-129 0 -241.5 50.5t-192 139t-125 213t-45.5 267.5zM298 649q0 -152 53.5 -269.5t152.5 -183.5 t228 -66q82 0 155 24t130 67t102.5 102.5t76 131t46 152t15.5 165.5q0 112 -30.5 206t-86 160.5t-137 103.5t-180.5 37q-117 0 -216.5 -50t-166.5 -135.5t-104.5 -200t-37.5 -244.5z" />
<glyph unicode="P" horiz-adv-x="1222" d="M83 0l244 1407h515q88 0 162.5 -29.5t125 -81t79 -122.5t28.5 -152q0 -99 -33 -183.5t-95 -147.5t-156.5 -98.5t-210.5 -35.5h-386l-97 -557h-176zM383 716h367q145 0 227 73t82 227q0 111 -64 171t-168 60h-353z" />
<glyph unicode="Q" horiz-adv-x="1490" d="M118 645q0 166 55.5 312.5t150.5 250.5t226.5 164.5t278.5 60.5q130 0 242.5 -49t193 -135t126.5 -209.5t46 -265.5q0 -175 -60.5 -328.5t-168.5 -263.5l158 -182h-212l-70 81q-162 -106 -362 -106q-129 0 -241.5 50.5t-192 139t-125 213t-45.5 267.5zM298 649 q0 -152 53.5 -269.5t152.5 -183.5t228 -66q136 0 251 69l-251 289h211l160 -186q75 89 114.5 211.5t39.5 258.5q0 112 -30.5 206t-86 160.5t-137 103.5t-180.5 37q-117 0 -216.5 -50t-166.5 -135.5t-104.5 -200t-37.5 -244.5z" />
<glyph unicode="R" horiz-adv-x="1289" d="M83 0l244 1407h508q179 0 288.5 -103.5t109.5 -267.5q0 -284 -269 -378q148 -57 148 -237q0 -15 -1 -30l-10 -172q-3 -14 -1 -39t1.5 -36t3 -32t4.5 -28.5t5.5 -25t6 -22t6 -19.5t4.5 -17h-163q-30 84 -30 171q0 15 1 30l10 168q1 14 1 27q0 90 -42 136q-48 52 -166 52 h-386l-101 -584h-172zM381 744h391q138 0 214 74t76 216q0 103 -64 158t-177 55h-353z" />
<glyph unicode="S" horiz-adv-x="1184" d="M56 432h171q3 -141 96.5 -222.5t249.5 -81.5q166 0 250.5 67.5t84.5 175.5q0 59 -26 104t-93.5 90t-186.5 90q-208 81 -295.5 171t-87.5 236q0 90 36 161.5t100 117t149 69t185 23.5q86 0 158 -20t124.5 -56t89.5 -86t55.5 -111t20.5 -130h-169q-3 74 -37.5 130.5 t-100 89.5t-153.5 33q-143 0 -214.5 -58t-71.5 -155q0 -56 20.5 -94t80.5 -78t174 -87q73 -30 124.5 -55t101 -55.5t81 -62.5t56.5 -71.5t36 -86.5t11 -105q0 -125 -67 -217t-180.5 -137.5t-259.5 -45.5q-122 0 -220 34.5t-161.5 95.5t-97.5 144.5t-34 182.5z" />
<glyph unicode="T" horiz-adv-x="1095" d="M176 1247l29 160h991l-27 -160h-403l-214 -1247h-177l215 1247h-414z" />
<glyph unicode="U" horiz-adv-x="1333" d="M156 550l146 857h174l-149 -867q-10 -60 -10 -111q0 -119 54 -193q78 -106 258 -106q160 0 251 86t121 260l162 931h173l-163 -939q-41 -240 -186.5 -366.5t-364.5 -126.5q-118 0 -214 40t-160 113t-90 182q-13 57 -13 121q0 57 11 119z" />
<glyph unicode="V" horiz-adv-x="1202" d="M186 1407h178l163 -1032q4 -25 8 -69.5t6.5 -77t2.5 -36.5q1 2 6.5 15.5t14 35.5t18 45t19.5 47t18 40l519 1032h183l-722 -1407h-178z" />
<glyph unicode="W" horiz-adv-x="1745" d="M186 1407h170l82 -979q2 -14 2.5 -33t1 -36t0 -34.5t-0.5 -29.5t-1 -21v-9q29 85 67 165l434 977h166l101 -977q8 -82 8 -163q2 6 10 31t22 65t27 67l417 977h173l-610 -1407h-167l-93 983q-6 74 -6 194q-37 -111 -73 -194l-440 -983h-170z" />
<glyph unicode="X" horiz-adv-x="1143" d="M-62 0l554 736l-289 671h182l237 -563l432 563h191l-529 -687l308 -720h-182l-256 612l-458 -612h-190z" />
<glyph unicode="Y" d="M178 1407h176l248 -663l462 663h185l-585 -832l-101 -575h-176l101 590z" />
<glyph unicode="Z" horiz-adv-x="1097" d="M-25 0l25 138l943 1109h-726l29 160h933l-25 -154l-931 -1093h745l-27 -160h-966z" />
<glyph unicode="[" horiz-adv-x="642" d="M31 -252l325 1874h410l-26 -147h-241l-274 -1580h241l-26 -147h-409z" />
<glyph unicode="\" horiz-adv-x="622" d="M144 1622h156l271 -1874h-155z" />
<glyph unicode="]" horiz-adv-x="642" d="M-69 -252l26 147h242l273 1580h-241l26 147h409l-323 -1874h-412z" />
<glyph unicode="^" horiz-adv-x="1015" d="M81 533l498 902h171l185 -902h-169l-129 706l-378 -706h-178z" />
<glyph unicode="_" horiz-adv-x="1036" d="M-138 -310l28 166h1032l-28 -166h-1032z" />
<glyph unicode="`" horiz-adv-x="1025" d="M385 1531h211l107 -305h-144z" />
<glyph unicode="a" horiz-adv-x="1180" d="M83 472q0 125 40 240t108 198t161.5 132.5t195.5 49.5q121 0 207.5 -69t126.5 -175l38 218h157l-142 -818q-8 -43 -9 -97v-26q0 -37 2 -63q3 -36 7 -62h-156q-14 52 -14 140v32q-51 -90 -140.5 -143.5t-184.5 -53.5q-112 0 -202.5 63t-142.5 177t-52 257zM252 470 q0 -117 33 -196t91 -115.5t139 -36.5q68 0 132 33.5t114 93.5t80 150.5t30 196.5q0 104 -35 184t-98 123.5t-144 43.5q-77 0 -141.5 -36.5t-108 -101t-68 -152t-24.5 -187.5z" />
<glyph unicode="b" horiz-adv-x="1216" d="M67 0l266 1539h164l-108 -627q35 52 87 92.5t116.5 64t129.5 23.5q121 0 216 -67q96 -67 146 -185q48 -111 47 -247v-16q-2 -124 -42.5 -235.5t-108 -192t-162.5 -127.5t-202 -47q-134 0 -222.5 65t-132.5 175l-36 -215h-158zM310 474v-6q0 -102 35 -179 q36 -80 102.5 -124.5t154.5 -44.5q108 0 190 60t126 163.5t46 235.5v14q0 168 -68 258q-72 94 -205 94q-77 0 -145.5 -33.5t-120.5 -93.5t-82.5 -149.5t-32.5 -194.5z" />
<glyph unicode="c" horiz-adv-x="1112" d="M81 484q0 98 26.5 190t76 167t116 131.5t151.5 88t178 31.5q160 0 273 -96.5t136 -255.5h-167q-22 99 -89 151t-164 52q-80 0 -149.5 -35.5t-117 -97.5t-74.5 -147t-27 -181q0 -170 80 -265t207 -95q104 0 180 55t112 150h174q-49 -158 -174.5 -255t-297.5 -97 q-94 0 -177 37.5t-143.5 104t-95 161.5t-34.5 206z" />
<glyph unicode="d" horiz-adv-x="1214" d="M85 484q2 123 42.5 234.5t108 193.5t163 131t201.5 49q55 0 104 -12.5t86 -33t68.5 -50t53.5 -61t39 -68.5l117 672h163l-265 -1539h-159l32 186q-55 -99 -151 -155t-200 -56q-121 0 -214 64q-92 64 -142 180q-47 109 -47 248v17zM255 482v-14q0 -167 67 -255 q70 -91 203 -91q77 0 145.5 33.5t120.5 93.5t82.5 150t32.5 197v5q0 101 -36 179q-37 80 -104 123.5t-152 43.5q-108 0 -190 -62.5t-124.5 -167.5t-44.5 -235z" />
<glyph unicode="e" d="M81 484q0 123 40.5 234.5t111 194t172 131t217.5 48.5q143 0 245 -78q101 -78 145 -218q27 -87 28 -188q0 -60 -10 -126h-780q0 -169 81 -264.5t206 -95.5q194 0 284 176h178q-54 -147 -177.5 -235t-290.5 -88q-128 0 -230.5 64t-161 180.5t-58.5 264.5zM265 624h604 q0 155 -69.5 237t-187.5 82q-129 0 -221.5 -88t-125.5 -231z" />
<glyph unicode="f" horiz-adv-x="661" d="M67 -259l202 1171h-149l26 154h150l20 113q34 199 156 289q99 71 250 71q37 0 77 -4l-27 -151q-38 6 -70 6q-81 0 -131 -36q-70 -49 -93 -183l-18 -105h256l-27 -154h-257l-201 -1171h-164z" />
<glyph unicode="g" horiz-adv-x="1218" d="M14 -114h172q18 -93 90.5 -141.5t181.5 -48.5q72 0 128.5 18t94.5 48.5t66.5 77.5t44.5 98t27 118l16 100q-55 -87 -145 -134t-193 -47q-121 0 -214 64t-143 181q-47 109 -47 247v17q2 123 42.5 234.5t108 193.5t163 131t201.5 49q134 0 223.5 -66.5t132.5 -173.5l35 214 h159l-177 -1023q-46 -262 -171.5 -380.5t-351.5 -118.5q-94 0 -174.5 27t-137.5 73.5t-91.5 109t-40.5 132.5zM261 482v-14q0 -110 29 -186q32 -81 93.5 -120.5t149.5 -39.5q77 0 145.5 33.5t120.5 93.5t83 150t32 197v7q0 152 -80 247q-82 97 -212 97q-81 0 -149 -36 t-113.5 -99.5t-71.5 -148t-27 -181.5z" />
<glyph unicode="h" horiz-adv-x="1143" d="M67 0l266 1539h164l-106 -612q54 77 133.5 121t170.5 44q112 0 191 -57q80 -57 112 -161q19 -61 19 -132q0 -50 -10 -105l-109 -637h-164l114 651q8 42 8 79q0 80 -36 132q-52 76 -175 75q-73 0 -135 -31t-104.5 -90t-56.5 -137l-118 -679h-164z" />
<glyph unicode="i" horiz-adv-x="483" d="M69 0l186 1066h163l-185 -1066h-164zM279 1268l37 209h181l-35 -209h-183z" />
<glyph unicode="j" horiz-adv-x="483" d="M-190 -432l26 148h32q153 0 179 158l208 1192h163l-211 -1218q-24 -136 -112 -208t-233 -72h-52zM279 1268l37 209h181l-35 -209h-183z" />
<glyph unicode="k" horiz-adv-x="1038" d="M67 0l266 1539h164l-168 -978l527 505h210l-454 -427l304 -639h-184l-246 519l-198 -186l-57 -333h-164z" />
<glyph unicode="l" horiz-adv-x="487" d="M71 0l266 1539h164l-266 -1539h-164z" />
<glyph unicode="m" horiz-adv-x="1718" d="M67 0l185 1066h158l-25 -144q44 72 125.5 121t164.5 49q99 0 169 -50.5t99 -143.5q46 63 93.5 104.5t109 65.5t133.5 24q161 0 241 -116q56 -82 55 -201q0 -50 -9 -106l-116 -669h-165l118 679q7 41 7 75q0 71 -30 116q-45 67 -147 67q-100 0 -176 -65t-95 -179 l-120 -693h-165l117 679q7 41 7 75q0 71 -30 116q-45 67 -144 67q-104 0 -179.5 -65t-96.5 -179l-120 -693h-164z" />
<glyph unicode="n" horiz-adv-x="1145" d="M67 0l185 1066h158l-27 -150q59 85 139.5 130.5t172.5 45.5q112 0 191 -57q80 -57 112 -161q19 -61 19 -132q0 -50 -10 -105l-109 -637h-164l114 651q8 42 8 79q0 80 -36 132q-52 76 -175 75q-73 0 -135 -31t-104.5 -90t-56.5 -137l-118 -679h-164z" />
<glyph unicode="o" horiz-adv-x="1151" d="M81 488q1 122 44 233t115.5 192.5t173.5 130t213 48.5q74 0 142.5 -24.5t123 -70.5t95.5 -108.5t62.5 -142t21.5 -167.5q-1 -94 -26.5 -184t-74 -165.5t-113.5 -133t-150 -89.5t-179 -32q-95 0 -178.5 38t-143.5 105t-94 163q-32 91 -32 195v12zM250 484v-7 q0 -81 22 -147q22 -70 61.5 -115t91 -69t110.5 -24q79 0 146.5 34t116 94t76.5 145.5t30 185.5v7q0 80 -22 146q-22 70 -61.5 115t-92 69.5t-112.5 24.5q-106 0 -189.5 -61.5t-128.5 -166t-48 -231.5z" />
<glyph unicode="p" horiz-adv-x="1218" d="M-8 -432l260 1498h158l-31 -170q58 92 150 144t193 52q121 0 216 -67t146 -185q47 -110 47 -247v-16q-2 -124 -42.5 -235.5t-108 -192t-162.5 -127.5t-202 -47q-133 0 -220.5 63.5t-130.5 170.5l-107 -641h-166zM310 474v-6q0 -101 35 -179q36 -80 102.5 -124.5 t154.5 -44.5q108 0 190 60t126 163.5t46 235.5v14q0 168 -68 258q-72 94 -205 94q-77 0 -145.5 -33.5t-120.5 -93.5t-82.5 -149.5t-32.5 -194.5z" />
<glyph unicode="q" horiz-adv-x="1216" d="M87 484q2 123 42.5 234.5t108 193.5t163 131t201.5 49q134 0 223.5 -66.5t131.5 -173.5l36 214h159l-260 -1498h-164l101 588q-55 -87 -145.5 -134t-193.5 -47q-121 0 -214 64t-142 180q-47 109 -47 248v17zM257 482v-10q0 -172 67 -260q70 -90 203 -90q77 0 145.5 33.5 t120.5 93.5t83 150q32 93 32 201q0 154 -80 250q-82 97 -212 97q-81 0 -149 -36t-113.5 -99t-71 -148t-25.5 -182z" />
<glyph unicode="r" horiz-adv-x="725" d="M67 0l185 1066h158l-33 -185q28 48 65.5 85.5t76 59t79.5 35.5q42 13 79 15q16 1 31 1q20 0 40 -1l-30 -172q-24 2 -47 2q-118 0 -203 -60q-101 -72 -129 -230l-108 -616h-164z" />
<glyph unicode="s" horiz-adv-x="1019" d="M29 316h166q6 -83 77.5 -138.5t193.5 -55.5q115 0 180.5 49t65.5 125q1 24 -3 41t-17 36t-38.5 34.5t-68.5 32.5t-105 34q-87 24 -145 50.5t-100 63.5q-43 37 -61 87q-17 45 -16 104v13q0 57 24 109t69 95.5t121 69.5t172 26q172 0 279.5 -86t117.5 -226h-167 q-17 74 -74.5 117.5t-162.5 43.5q-103 0 -160 -37t-57 -103v-5q0 -40 15 -64q16 -26 62.5 -51.5t139.5 -53.5q50 -14 85 -26.5t72.5 -29.5t63 -34.5t49.5 -41.5t37.5 -52.5t21 -65.5t7.5 -81q-1 -106 -55.5 -179.5t-146 -107.5t-213.5 -34q-190 0 -307 93.5t-122 247.5z" />
<glyph unicode="t" horiz-adv-x="677" d="M116 908l28 158h148l53 304h162l-54 -304h234l-27 -158h-234l-95 -557q-7 -49 -7 -86v-19q2 -42 25 -67t57 -35t88 -10q13 0 25.5 1t18.5 2l6 1l-27 -150q-28 -6 -64 -6q-75 0 -134 24t-99 72q-38 48 -52 118q-6 32 -7 69q0 44 9 95l95 548h-149z" />
<glyph unicode="u" horiz-adv-x="1145" d="M136 428l110 638h164l-114 -652q-9 -50 -9 -91q1 -78 33 -124q50 -71 166 -71q120 0 204 70t104 189l118 679h164l-184 -1066h-158l28 148q-58 -84 -138 -129.5t-162 -45.5q-181 0 -271 124q-65 89 -65 222q0 51 10 109z" />
<glyph unicode="v" horiz-adv-x="987" d="M128 1066h168l120 -725q14 -84 14 -169q31 91 71 169l370 725h177l-558 -1066h-174z" />
<glyph unicode="w" horiz-adv-x="1466" d="M132 1066h166l66 -691q9 -84 9 -144q1 4 5.5 19t12 35.5t17 45.5t18.5 44l312 691h170l73 -691q8 -74 8 -144q2 11 20.5 60t34.5 84l302 691h176l-486 -1066h-169l-73 669q-8 70 -8 175q-1 0 -11 -29t-26.5 -72t-30.5 -74l-300 -669h-170z" />
<glyph unicode="x" horiz-adv-x="959" d="M-62 0l447 550l-241 516h189l164 -389l310 389h194l-424 -516l265 -550h-182l-190 426l-338 -426h-194z" />
<glyph unicode="y" horiz-adv-x="987" d="M-47 -432l24 148h27q94 0 148 35t103 125l70 130l-197 1060h174l118 -725l14 -169l71 169l370 725h173l-645 -1236q-42 -80 -86.5 -132t-96 -80.5t-104 -39t-122.5 -10.5h-41z" />
<glyph unicode="z" horiz-adv-x="928" d="M-23 0l23 134l703 778h-539l26 154h745l-25 -146l-693 -766h575l-26 -154h-789z" />
<glyph unicode="{" horiz-adv-x="700" d="M93 677l25 144q48 0 82.5 7t64.5 24.5t49 50.5t27 82l62 359q54 313 420 290l-27 -146q-56 0 -96 -9.5t-68 -31.5t-44 -54.5t-23 -79.5l-58 -338q-19 -104 -65.5 -157.5t-135.5 -79.5q80 -31 107.5 -95t8.5 -171l-66 -369q-21 -109 18 -152.5t151 -39.5l-26 -146 q-58 -5 -109 5.5t-94 36.5t-70.5 69t-38 105t4.5 143l65 368q18 101 -24.5 143t-139.5 42z" />
<glyph unicode="|" horiz-adv-x="475" d="M170 -331v1870h161v-1870h-161z" />
<glyph unicode="}" horiz-adv-x="698" d="M-62 -233l25 146q111 -1 162.5 39.5t69.5 134.5l64 359q18 104 65 157.5t136 79.5q-80 31 -108 95t-9 171l62 348q20 109 -19.5 153t-150.5 40l26 146q58 5 108.5 -5.5t93.5 -36.5t70 -69t37.5 -105t-3.5 -143l-58 -348q-7 -52 -1.5 -87.5t28.5 -57t55.5 -31t79.5 -9.5 l-24 -144q-97 0 -151.5 -34.5t-71.5 -129.5l-66 -380q-55 -312 -420 -289z" />
<glyph unicode="~" horiz-adv-x="785" d="M64 456q5 58 27.5 106t67.5 79.5t106 31.5q38 0 80 -13t72 -28t65.5 -27.5t61.5 -12.5q34 0 57 26.5t26 64.5h93q-3 -44 -16.5 -82t-37.5 -69t-62 -48.5t-85 -17.5q-44 0 -96.5 19.5t-99.5 39t-79 19.5q-36 0 -58.5 -25t-25.5 -63h-96z" />
<glyph unicode="&#xa1;" horiz-adv-x="541" d="M47 -217l199 987h139l-150 -987h-188zM259 968l35 222h180l-36 -222h-179z" />
<glyph unicode="&#xa2;" horiz-adv-x="1072" d="M81 486q0 116 39.5 223t108 186t166 126t207.5 47q46 0 112 -16l113 241h120l-134 -282q74 -44 122 -115.5t62 -161.5h-164q-20 85 -85 137l-332 -703q50 -20 101 -20q100 0 171 51t104 142h174q-48 -152 -169 -246.5t-286 -94.5q-86 0 -160 31l-122 -258h-119l147 314 q-41 32 -73 74t-55 92t-35.5 109.5t-12.5 123.5zM250 484q0 -163 77 -253l320 683q-32 4 -53 4q-102 0 -181 -57t-121 -155.5t-42 -221.5z" />
<glyph unicode="&#xa3;" horiz-adv-x="1064" d="M23 112q269 179 269 419q0 31 -8 89h-193l25 138h130q-12 46 -18 72t-12.5 69.5t-6.5 83.5q0 67 15 128t42.5 110.5t67 89.5t87.5 66.5t105 41t119 14.5q123 0 214 -53t136.5 -142.5t44.5 -203.5h-165q-4 111 -62.5 177t-173.5 66q-79 0 -137 -36.5t-87.5 -100.5 t-29.5 -149q0 -18 2 -39t3.5 -34.5t7.5 -42t8 -35.5t10.5 -43t9.5 -39h324l-24 -138h-278q8 -51 8 -85q0 -209 -231 -389q84 46 172 46q55 0 106.5 -14.5t99.5 -29t94 -14.5q74 0 147 54l80 -128q-111 -85 -229 -85q-58 0 -110 13t-84 28.5t-75 28.5t-85 13q-136 0 -244 -74 z" />
<glyph unicode="&#xa5;" horiz-adv-x="1060" d="M39 282l19 115h360l30 182h-359l21 116h314l-246 712h173l216 -647l434 647h185l-489 -712h308l-20 -116h-363l-30 -182h363l-20 -115h-362l-48 -282h-174l48 282h-360z" />
<glyph unicode="&#xa6;" horiz-adv-x="458" d="M2 -331l152 871h156l-150 -871h-158zM180 705l145 834h157l-143 -834h-159z" />
<glyph unicode="&#xa7;" horiz-adv-x="1052" d="M114 144h163q4 -73 55.5 -118.5t139.5 -45.5q95 0 141.5 42.5t46.5 129.5q0 22 -6.5 42t-14.5 35.5t-25.5 31.5t-30.5 26t-38 24t-40 21t-46 22q-5 2 -8 3.5l-8 4l-9 4.5q-71 34 -105.5 52.5t-84 52t-72.5 64.5t-40.5 77.5t-17.5 103.5q0 88 53 153.5t133 92.5 q-33 65 -33 149q0 144 100.5 233t263.5 89q100 0 177.5 -41.5t120 -115.5t42.5 -169h-164q-2 33 -13 63t-32 55.5t-56.5 40.5t-81.5 15q-90 0 -142 -41.5t-52 -120.5q0 -23 6 -43.5t14 -35.5t24.5 -30.5t29 -25.5t38 -24t40.5 -21.5t46 -21.5q13 -6 19 -9q12 -5 35 -16 q31 -14 47 -21.5t45.5 -23t46 -26.5t41 -29t38.5 -34.5t30.5 -39t25.5 -46t15 -53.5t6 -62q0 -175 -191 -251q35 -63 35 -160q0 -144 -96 -231t-261 -87q-152 0 -251 90.5t-99 225.5zM271 726q0 -23 6.5 -43t15 -35.5t27 -31.5t32 -26t40 -24t42.5 -21.5t47 -21.5 q15 -7 22 -10q5 -2 28.5 -13t31 -14.5t27.5 -13t30.5 -15t26.5 -14.5t29 -18t25 -18q60 23 89 55t29 84q0 22 -6 41t-14.5 34t-26 30.5t-30.5 25t-38.5 23.5t-39.5 20.5t-44 20.5t-43 21q-17 8 -49.5 23.5t-52 25t-45.5 24.5t-45 30q-59 -24 -86.5 -57t-27.5 -82z" />
<glyph unicode="&#xa8;" horiz-adv-x="1025" d="M366 1226l33 197h180l-31 -197h-182zM732 1226l34 197h181l-33 -197h-182z" />
<glyph unicode="&#xa9;" horiz-adv-x="1581" d="M93 709q0 148 55 284t148.5 234t222.5 156t271 58t271 -58t222.5 -156t149 -234t55.5 -284q0 -149 -55.5 -285t-149 -234.5t-222.5 -156.5t-271 -58t-271 58t-222.5 156.5t-148.5 234.5t-55 285zM207 709q0 -104 29 -200.5t82.5 -174t124.5 -136t160.5 -90t186.5 -31.5 q120 0 228.5 49.5t186 134t123.5 201.5t46 247q0 129 -46 245.5t-123.5 201.5t-186 134.5t-229 49.5t-228.5 -49.5t-185.5 -134.5t-123 -201.5t-45.5 -245.5zM393 709q0 118 53 219t144.5 159.5t199.5 58.5q132 0 236.5 -83t142.5 -215h-155q-29 68 -89.5 107.5t-134.5 39.5 q-103 0 -171.5 -84t-68.5 -202q0 -120 68.5 -203.5t171.5 -83.5q36 0 70 10.5t63 29.5t52.5 47t38.5 62h153q-40 -132 -143.5 -216t-233.5 -84q-108 0 -199.5 58.5t-144.5 159.5t-53 220z" />
<glyph unicode="&#xaa;" horiz-adv-x="874" d="M103 778q0 63 24.5 110.5t71 78t104.5 48.5t133 27q54 7 87.5 12t70 13t57 18t38.5 24.5t25.5 33.5t7.5 45q0 113 -163 113q-84 0 -136 -34t-67 -100h-157q16 78 66 138.5t127.5 94t170.5 33.5q104 0 178 -37.5t106.5 -104.5t17.5 -152l-71 -399q-14 -83 15 -179h-145 q-19 75 -19 116q-44 -58 -114.5 -97.5t-161.5 -39.5q-76 0 -136 29t-95 83.5t-35 125.5zM252 784q0 -37 16.5 -62.5t46.5 -38t72 -12.5q116 0 191 52t93 148l22 128q-62 -49 -265 -81q-94 -14 -135 -44t-41 -90z" />
<glyph unicode="&#xab;" horiz-adv-x="938" d="M52 453l27 167l426 342l-41 -234l-272 -207l201 -207l-33 -202zM488 453l27 161l426 348l-41 -234l-276 -207l205 -207l-35 -202z" />
<glyph unicode="&#xac;" horiz-adv-x="462" d="M132 584l38 225h203l-38 -225h-203z" />
<glyph unicode="&#xad;" horiz-adv-x="719" d="M95 488l29 165h517l-29 -165h-517z" />
<glyph unicode="&#xae;" horiz-adv-x="1109" d="M136 927q0 108 39 203.5t104.5 163t155.5 106.5t189.5 39t189.5 -39t155.5 -106.5t104.5 -163t39 -203.5t-39 -203.5t-104.5 -163t-155.5 -107t-189.5 -39.5t-189.5 39.5t-155.5 107t-104.5 163t-39 203.5zM238 927q0 -116 48 -212t136.5 -153t201.5 -57q112 0 200.5 57 t136.5 153t48 212q0 86 -28 163.5t-78 134.5t-122.5 90t-156.5 33q-113 0 -202 -57t-136.5 -152.5t-47.5 -211.5zM424 666v536h238q80 0 134 -44.5t54 -119.5q0 -41 -21 -72t-61 -46q35 -10 57.5 -42t22.5 -88v-126h-112v126q0 40 -18.5 57.5t-53.5 17.5h-129v-199h-111z M535 964h120q35 0 56 19.5t21 53t-20.5 52t-56.5 18.5h-120v-143z" />
<glyph unicode="&#xaf;" horiz-adv-x="1025" d="M387 1289l25 140h515l-25 -140h-515z" />
<glyph unicode="&#xb0;" horiz-adv-x="742" d="M172 1084q0 91 45.5 166t118 116t154.5 41q118 0 199 -86t81 -214q0 -89 -45 -164t-118 -117t-157 -42q-117 0 -197.5 87t-80.5 213zM302 1084q0 -80 42.5 -130t113.5 -50q75 0 127 60t52 147q0 52 -18.5 92t-54 63t-82.5 23q-75 0 -127.5 -59.5t-52.5 -145.5z" />
<glyph unicode="&#xb1;" horiz-adv-x="462" d="M132 584l38 225h203l-38 -225h-203z" />
<glyph unicode="&#xb2;" horiz-adv-x="549" d="M91 742l12 73q8 47 31.5 87.5t59 73t69.5 55.5t78 47q93 50 124.5 84t31.5 79q0 34 -21.5 55.5t-65.5 21.5q-47 0 -76.5 -31t-37.5 -85h-118q11 98 74.5 159.5t163.5 61.5q96 0 147 -52.5t51 -129.5q0 -28 -6 -52t-14.5 -43t-26.5 -38t-32.5 -32t-43.5 -30.5t-48 -28 t-56 -30.5q-72 -38 -109.5 -70t-46.5 -69h313l-17 -106h-436z" />
<glyph unicode="&#xb3;" horiz-adv-x="533" d="M105 949h114q-1 -23 5 -42.5t20.5 -35.5t39 -25t57.5 -9q37 0 65 14t43 39.5t15 58.5q0 42 -25.5 68.5t-76.5 26.5h-40l19 97h17q63 0 94.5 27t31.5 73q0 34 -23.5 54.5t-65.5 20.5q-24 0 -45 -7.5t-35.5 -21t-23.5 -30.5t-12 -37h-111q9 90 73.5 146.5t161.5 56.5 q92 0 145.5 -50t53.5 -124q0 -53 -32 -93.5t-88 -61.5q45 -17 71 -59t26 -92q0 -84 -65.5 -148.5t-172.5 -64.5q-61 0 -109.5 20t-76.5 52t-41 70.5t-9 76.5z" />
<glyph unicode="&#xb4;" horiz-adv-x="1025" d="M552 1226l162 305h229l-238 -305h-153z" />
<glyph unicode="&#xb5;" horiz-adv-x="462" d="M132 584l38 225h203l-38 -225h-203z" />
<glyph unicode="&#xb6;" horiz-adv-x="1064" d="M138 937q0 213 138.5 341.5t370.5 128.5h433l-294 -1697h-155l267 1545h-168l-268 -1545h-156l147 847q-156 32 -235.5 130t-79.5 250z" />
<glyph unicode="&#xb7;" horiz-adv-x="442" d="M130 584l38 225h203l-38 -225h-203z" />
<glyph unicode="&#xb8;" horiz-adv-x="1025" d="M140 -325h127q8 -25 33.5 -42.5t61.5 -17.5q47 0 75.5 25.5t28.5 65.5q0 24 -10.5 43t-30 30.5t-44.5 11.5q-41 0 -79 -33l-62 64l135 178h126l-98 -118q8 2 33 2q67 0 113.5 -51t46.5 -125q0 -93 -62 -144.5t-163 -51.5q-94 0 -156 46t-75 117z" />
<glyph unicode="&#xb9;" horiz-adv-x="377" d="M164 1235l14 83q35 0 66 10.5t53.5 33.5t29.5 55h97l-120 -675h-116l87 493h-111z" />
<glyph unicode="&#xba;" horiz-adv-x="920" d="M144 949q0 101 34 191t91 154t134.5 101.5t161.5 37.5q104 0 189.5 -54.5t133 -149.5t47.5 -211q0 -80 -21.5 -154.5t-61 -133t-91.5 -102.5t-116 -67.5t-132 -23.5q-105 0 -189.5 54.5t-132 148.5t-47.5 209zM298 943q0 -125 61.5 -197.5t161.5 -72.5q73 0 131 43 t92 125t34 189q0 126 -60 198.5t-157 72.5q-112 0 -187.5 -98.5t-75.5 -259.5z" />
<glyph unicode="&#xbb;" horiz-adv-x="938" d="M2 112l41 233l275 207l-204 208l34 202l308 -342l-28 -160zM438 112l40 233l272 207l-200 208l34 202l308 -342l-27 -167z" />
<glyph unicode="&#xbc;" horiz-adv-x="1522" d="M168 1192l16 97q68 1 116.5 30.5t63.5 87.5h114l-147 -844h-139l110 629h-134zM182 0l972 1407h151l-970 -1407h-153zM803 184l20 118l476 542h147l-96 -540h94l-21 -120h-93l-31 -184h-130l31 184h-397zM960 304h262l65 369z" />
<glyph unicode="&#xbd;" horiz-adv-x="1596" d="M168 1192l16 97q68 1 116.5 30.5t63.5 87.5h114l-147 -844h-139l110 629h-134zM182 0l972 1407h151l-970 -1407h-153zM883 0l15 77q8 51 30 97t49.5 79.5t66.5 65t74 53t80 44.5q123 64 164 105t41 103q0 47 -28 76.5t-86 29.5q-67 0 -107.5 -46t-50.5 -123h-136 q14 128 94 209.5t206 81.5q117 0 182.5 -64.5t65.5 -160.5q0 -28 -4.5 -53t-11.5 -45.5t-21.5 -40.5t-27 -35t-35.5 -32.5t-39.5 -29t-47.5 -29t-50.5 -27.5t-56.5 -29q-63 -32 -99 -56t-60 -54t-33 -68h401l-25 -128h-550z" />
<glyph unicode="&#xbe;" horiz-adv-x="1713" d="M97 825h132q-1 -68 38.5 -110t125.5 -42q37 0 67.5 10.5t51.5 29t33 46t12 60.5q0 58 -35 91t-106 33h-47l20 119h23q169 0 169 124q0 30 -11.5 53.5t-37.5 37.5t-64 14q-66 0 -108 -39.5t-50 -101.5h-132q10 117 93.5 191t202.5 74q116 0 180 -63.5t64 -157.5 q0 -135 -151 -189q58 -22 93 -75t35 -117q0 -110 -84.5 -187.5t-217.5 -77.5q-78 0 -138 24.5t-95 65t-51 88.5t-12 99zM375 0l971 1407h152l-971 -1407h-152zM995 184l21 118l476 542h146l-95 -540h93l-21 -120h-93l-30 -184h-131l31 184h-397zM1152 304h263l64 369z" />
<glyph unicode="&#xbf;" horiz-adv-x="1013" d="M43 89q0 62 17 116.5t40.5 92t62 74t70 58.5t75.5 48q55 33 85 54t58 50t41.5 63.5t20.5 82.5l6 42h152l-7 -50q-5 -35 -12.5 -65.5t-16 -55t-23 -48t-25.5 -40t-33 -36.5t-35.5 -31.5t-42 -30.5t-45 -29t-50.5 -30q-56 -35 -91.5 -71t-56 -83t-20.5 -105 q0 -89 61.5 -139.5t167.5 -50.5q119 0 193.5 71.5t92.5 187.5h162q-10 -86 -46.5 -160t-94 -129.5t-139.5 -87t-178 -31.5q-110 0 -199 42t-139.5 118.5t-50.5 172.5zM537 968l38 222h183l-40 -222h-181z" />
<glyph unicode="&#xc0;" horiz-adv-x="1240" d="M-45 0l736 1407h180l240 -1407h-174l-62 377h-550l-193 -377h-177zM405 533h443l-82 511q-5 31 -9.5 71t-7.5 66.5t-3 30.5l-12 -28t-30.5 -68.5t-32.5 -71.5zM542 1814h210l109 -304h-145z" />
<glyph unicode="&#xc1;" horiz-adv-x="1240" d="M-45 0l736 1407h180l240 -1407h-174l-62 377h-550l-193 -377h-177zM405 533h443l-82 511q-5 31 -9.5 71t-7.5 66.5t-3 30.5l-12 -28t-30.5 -68.5t-32.5 -71.5zM705 1510l162 304h229l-238 -304h-153z" />
<glyph unicode="&#xc2;" horiz-adv-x="1240" d="M-45 0l736 1407h180l240 -1407h-174l-62 377h-550l-193 -377h-177zM405 533h443l-82 511q-5 31 -9.5 71t-7.5 66.5t-3 30.5l-12 -28t-30.5 -68.5t-32.5 -71.5zM505 1510l273 318h124l176 -318h-139l-118 166l-166 -166h-150z" />
<glyph unicode="&#xc3;" horiz-adv-x="1259" d="M-45 0l736 1407h180l240 -1407h-174l-62 377h-550l-193 -377h-177zM405 533h443l-82 511q-5 31 -9.5 71t-7.5 66.5t-3 30.5l-12 -28t-30.5 -68.5t-32.5 -71.5zM482 1504q14 108 70 178t139 70q38 0 76.5 -16t64 -35t54.5 -35t51 -16q23 0 41 14.5t28.5 37t13.5 50.5h109 q-12 -107 -69 -177.5t-140 -70.5q-38 0 -76 15.5t-63 34.5t-54.5 35t-51.5 16q-14 0 -25.5 -5t-21 -14.5t-17 -22t-12.5 -27.5t-7 -32h-110z" />
<glyph unicode="&#xc4;" horiz-adv-x="1240" d="M-45 0l736 1407h180l240 -1407h-174l-62 377h-550l-193 -377h-177zM405 533h443l-82 511q-5 31 -9.5 71t-7.5 66.5t-3 30.5l-12 -28t-30.5 -68.5t-32.5 -71.5zM519 1510l33 197h180l-31 -197h-182zM886 1510l32 197h183l-33 -197h-182z" />
<glyph unicode="&#xc5;" horiz-adv-x="1240" d="M-45 0l736 1407h180l240 -1407h-174l-62 377h-550l-193 -377h-177zM405 533h443l-82 511q-5 31 -9.5 71t-7.5 66.5t-3 30.5l-12 -28t-30.5 -68.5t-32.5 -71.5zM594 1692q2 65 33.5 118.5t84.5 83.5t115 30q96 0 161 -67t62 -165q-3 -96 -71 -163t-162 -67q-96 0 -161 67 t-62 163zM698.5 1692q-1.5 -58 32.5 -97.5t88 -39.5q35 0 63.5 18t45 49.5t17.5 69.5t-13.5 69.5t-42.5 50t-64 18.5q-52 0 -88.5 -40t-38 -98z" />
<glyph unicode="&#xc6;" horiz-adv-x="1836" d="M-64 0l885 1407h1060l-30 -160h-653l-73 -428h547l-30 -159h-546l-85 -500h665l-30 -160h-839l70 412h-506l-259 -412h-176zM470 569h434l118 674h-128z" />
<glyph unicode="&#xc7;" horiz-adv-x="1433" d="M118 647q0 166 54.5 312t148 250t224.5 164t278 60q108 0 203.5 -32t168.5 -91t122.5 -145.5t66.5 -191.5h-178q-37 144 -135.5 225t-253.5 81q-117 0 -215.5 -49.5t-164.5 -134.5t-102.5 -199.5t-36.5 -244.5q0 -153 52 -270t153.5 -184t240.5 -67q77 0 145 22t122 61.5 t95 95.5t67 125h183q-67 -206 -222.5 -326.5t-361.5 -130.5l-77 -95q8 2 33 2q67 0 113.5 -51t46.5 -125q0 -93 -62.5 -144.5t-163.5 -51.5q-94 0 -155.5 46t-74.5 117h127q8 -25 33.5 -42.5t60.5 -17.5q48 0 76.5 25.5t28.5 65.5q0 18 -6.5 33.5t-17 27t-26.5 18t-35 6.5 q-41 0 -79 -33l-63 64l120 160q-161 18 -282.5 108.5t-186 234.5t-64.5 322z" />
<glyph unicode="&#xc8;" horiz-adv-x="1174" d="M83 0l244 1407h889l-28 -160h-714l-73 -428h606l-28 -159h-606l-85 -500h723l-28 -160h-900zM523 1814h211l108 -304h-145z" />
<glyph unicode="&#xc9;" horiz-adv-x="1174" d="M83 0l244 1407h889l-28 -160h-714l-73 -428h606l-28 -159h-606l-85 -500h723l-28 -160h-900zM687 1510l161 304h230l-239 -304h-152z" />
<glyph unicode="&#xca;" horiz-adv-x="1174" d="M83 0l244 1407h889l-28 -160h-714l-73 -428h606l-28 -159h-606l-85 -500h723l-28 -160h-900zM486 1510l274 318h123l176 -318h-139l-117 166l-166 -166h-151z" />
<glyph unicode="&#xcb;" horiz-adv-x="1174" d="M83 0l244 1407h889l-28 -160h-714l-73 -428h606l-28 -159h-606l-85 -500h723l-28 -160h-900zM501 1510l32 197h181l-31 -197h-182zM867 1510l33 197h182l-34 -197h-181z" />
<glyph unicode="&#xcc;" horiz-adv-x="537" d="M93 0l244 1407h174l-244 -1407h-174zM186 1814h211l108 -304h-145z" />
<glyph unicode="&#xcd;" horiz-adv-x="537" d="M93 0l244 1407h174l-244 -1407h-174zM354 1510l161 304h229l-237 -304h-153z" />
<glyph unicode="&#xce;" horiz-adv-x="537" d="M89 0l244 1407h174l-244 -1407h-174zM144 1510l274 318h124l176 -318h-139l-117 166l-166 -166h-152z" />
<glyph unicode="&#xcf;" horiz-adv-x="537" d="M93 0l244 1407h174l-244 -1407h-174zM164 1510l33 197h180l-32 -197h-181zM529 1510l34 197h181l-32 -197h-183z" />
<glyph unicode="&#xd0;" horiz-adv-x="1356" d="M71 658l26 153h126l104 596h374q137 0 249.5 -43t190 -121.5t120 -191.5t42.5 -250q0 -154 -38.5 -284t-108 -224.5t-165.5 -161t-212 -99t-248 -32.5h-448l114 658h-126zM286 158h260q94 0 177 21.5t157.5 71t128 123t85 184t31.5 247.5q0 113 -32 199t-91.5 139 t-139 79.5t-177.5 26.5h-209l-77 -438h367l-28 -153h-365z" />
<glyph unicode="&#xd1;" horiz-adv-x="1370" d="M83 0l244 1407h192l472 -1144l199 1144h158l-243 -1407h-176l-483 1169l-202 -1169h-161zM554 1504q15 108 71 178t139 70q38 0 76 -16t63.5 -35t54.5 -35t51 -16q23 0 41 14.5t28.5 37t13.5 50.5h110q-13 -107 -69.5 -177.5t-139.5 -70.5q-38 0 -76 15.5t-63.5 34.5 t-55 35t-52.5 16q-22 0 -39.5 -14t-28 -36.5t-14.5 -50.5h-110z" />
<glyph unicode="&#xd2;" horiz-adv-x="1490" d="M122 645q0 166 55.5 312.5t150.5 250.5t226.5 164.5t278.5 60.5q130 0 242.5 -49t193 -135t126.5 -209.5t46 -265.5q0 -169 -54.5 -317t-149.5 -254t-227.5 -167t-283.5 -61q-129 0 -241.5 50.5t-192 139t-125 213t-45.5 267.5zM302 649q0 -152 53.5 -269.5t152.5 -183.5 t228 -66q82 0 155 24t130 67t103 102.5t76 131t45.5 152t15.5 165.5q0 112 -30.5 206t-86 160.5t-137 103.5t-180.5 37q-117 0 -216.5 -50t-166.5 -135.5t-104.5 -200t-37.5 -244.5zM620 1814h211l108 -304h-145z" />
<glyph unicode="&#xd3;" horiz-adv-x="1490" d="M118 645q0 166 55.5 312.5t150.5 250.5t226.5 164.5t278.5 60.5q130 0 242.5 -49t193 -135t126.5 -209.5t46 -265.5q0 -169 -55 -317t-149.5 -254t-227.5 -167t-283 -61q-129 0 -241.5 50.5t-192 139t-125 213t-45.5 267.5zM298 649q0 -152 53.5 -269.5t152.5 -183.5 t228 -66q82 0 155 24t130 67t102.5 102.5t76 131t46 152t15.5 165.5q0 112 -30.5 206t-86 160.5t-137 103.5t-180.5 37q-117 0 -216.5 -50t-166.5 -135.5t-104.5 -200t-37.5 -244.5zM784 1510l161 304h230l-238 -304h-153z" />
<glyph unicode="&#xd4;" horiz-adv-x="1490" d="M118 645q0 166 55.5 312.5t150.5 250.5t226.5 164.5t278.5 60.5q130 0 242.5 -49t193 -135t126.5 -209.5t46 -265.5q0 -169 -55 -317t-149.5 -254t-227.5 -167t-283 -61q-129 0 -241.5 50.5t-192 139t-125 213t-45.5 267.5zM298 649q0 -152 53.5 -269.5t152.5 -183.5 t228 -66q82 0 155 24t130 67t102.5 102.5t76 131t46 152t15.5 165.5q0 112 -30.5 206t-86 160.5t-137 103.5t-180.5 37q-117 0 -216.5 -50t-166.5 -135.5t-104.5 -200t-37.5 -244.5zM579 1510l273 318h125l175 -318h-138l-118 166l-166 -166h-151z" />
<glyph unicode="&#xd5;" horiz-adv-x="1490" d="M118 645q0 166 55.5 312.5t150.5 250.5t226.5 164.5t278.5 60.5q130 0 242.5 -49t193 -135t126.5 -209.5t46 -265.5q0 -169 -55 -317t-149.5 -254t-227.5 -167t-283 -61q-129 0 -241.5 50.5t-192 139t-125 213t-45.5 267.5zM298 649q0 -152 53.5 -269.5t152.5 -183.5 t228 -66q82 0 155 24t130 67t102.5 102.5t76 131t46 152t15.5 165.5q0 112 -30.5 206t-86 160.5t-137 103.5t-180.5 37q-117 0 -216.5 -50t-166.5 -135.5t-104.5 -200t-37.5 -244.5zM561 1504q14 108 70 178t139 70q38 0 76.5 -16t63.5 -35t54.5 -35t51.5 -16q34 0 55.5 29 t26.5 73h110q-13 -107 -69.5 -177.5t-139.5 -70.5q-31 0 -61.5 10.5t-54.5 25t-46 29.5t-44 25.5t-41 10.5q-32 0 -53.5 -28.5t-27.5 -72.5h-110z" />
<glyph unicode="&#xd6;" horiz-adv-x="1490" d="M118 645q0 166 55.5 312.5t150.5 250.5t226.5 164.5t278.5 60.5q130 0 242.5 -49t193 -135t126.5 -209.5t46 -265.5q0 -169 -55 -317t-149.5 -254t-227.5 -167t-283 -61q-129 0 -241.5 50.5t-192 139t-125 213t-45.5 267.5zM298 649q0 -152 53.5 -269.5t152.5 -183.5 t228 -66q82 0 155 24t130 67t102.5 102.5t76 131t46 152t15.5 165.5q0 112 -30.5 206t-86 160.5t-137 103.5t-180.5 37q-117 0 -216.5 -50t-166.5 -135.5t-104.5 -200t-37.5 -244.5zM598 1510l33 197h180l-31 -197h-182zM964 1510l33 197h182l-33 -197h-182z" />
<glyph unicode="&#xd7;" horiz-adv-x="985" d="M79 325l324 293l-231 292l116 104l231 -290l318 290l102 -110l-327 -296l234 -290l-118 -103l-231 288l-319 -288z" />
<glyph unicode="&#xd8;" horiz-adv-x="1490" d="M-10 49l227 214q-99 166 -99 382q0 166 55.5 312.5t150.5 250.5t226.5 164.5t278.5 60.5q129 0 240 -47.5t195 -136.5l217 205l82 -95l-225 -211q99 -165 99 -374q0 -169 -55 -317t-149.5 -254t-227.5 -167t-283 -61q-128 0 -238 49t-192 138l-221 -207zM298 649 q0 -150 49 -264l799 752q-119 142 -323 142q-117 0 -216.5 -50t-166.5 -135.5t-104.5 -200t-37.5 -244.5zM412 275q119 -145 320 -145q82 0 155 24t130 67t102.5 102.5t76 131t46 152t15.5 165.5q0 140 -45 256z" />
<glyph unicode="&#xd9;" horiz-adv-x="1333" d="M156 550l146 857h174l-149 -867q-34 -197 44 -303.5t258 -106.5q160 0 251 86t121 260l162 931h173l-163 -939q-41 -240 -186.5 -366.5t-364.5 -126.5q-118 0 -214 40t-160 113t-89.5 182t-2.5 240zM567 1814h211l108 -304h-146z" />
<glyph unicode="&#xda;" horiz-adv-x="1333" d="M156 550l146 857h174l-149 -867q-34 -197 44 -303.5t258 -106.5q160 0 251 86t121 260l162 931h173l-163 -939q-41 -240 -186.5 -366.5t-364.5 -126.5q-118 0 -214 40t-160 113t-89.5 182t-2.5 240zM730 1510l162 304h229l-238 -304h-153z" />
<glyph unicode="&#xdb;" horiz-adv-x="1333" d="M156 550l146 857h174l-149 -867q-34 -197 44 -303.5t258 -106.5q160 0 251 86t121 260l162 931h173l-163 -939q-41 -240 -186.5 -366.5t-364.5 -126.5q-118 0 -214 40t-160 113t-89.5 182t-2.5 240zM525 1510l274 318h123l176 -318h-138l-118 166l-165 -166h-152z" />
<glyph unicode="&#xdc;" horiz-adv-x="1333" d="M156 550l146 857h174l-149 -867q-34 -197 44 -303.5t258 -106.5q160 0 251 86t121 260l162 931h173l-163 -939q-41 -240 -186.5 -366.5t-364.5 -126.5q-118 0 -214 40t-160 113t-89.5 182t-2.5 240zM544 1510l33 197h181l-32 -197h-182zM910 1510l33 197h182l-33 -197 h-182z" />
<glyph unicode="&#xdd;" d="M178 1407h176l248 -663l462 663h185l-585 -832l-101 -575h-176l101 590zM627 1510l161 304h230l-238 -304h-153z" />
<glyph unicode="&#xde;" horiz-adv-x="1209" d="M83 0l244 1407h174l-39 -226h341q118 0 208.5 -51t138.5 -138.5t48 -195.5q0 -99 -33.5 -183.5t-95 -147t-156 -98.5t-210.5 -36h-387l-57 -331h-176zM345 490h367q144 0 226 72.5t82 227.5q0 111 -64.5 171.5t-167.5 60.5h-352z" />
<glyph unicode="&#xdf;" horiz-adv-x="1180" d="M14 -259l241 1382q18 105 57.5 184.5t97 130.5t130.5 76t161 25q108 0 192 -47t130.5 -130.5t46.5 -188.5q0 -119 -64 -209t-179 -135q130 -49 196.5 -146t66.5 -230q0 -89 -25.5 -165t-72.5 -133t-111.5 -97t-143.5 -60.5t-168 -20.5q-50 0 -110.5 11.5t-98.5 27.5 l25 148q37 -14 93.5 -26t100.5 -12q153 0 248 88t95 234q0 141 -81.5 218.5t-216.5 77.5h-91l30 154h51q71 0 126.5 20.5t91.5 57t55 86.5t19 111q0 101 -57 159t-154 58q-236 0 -288 -294l-233 -1355h-160z" />
<glyph unicode="&#xe0;" horiz-adv-x="1180" d="M87 472q0 125 40 240t108 198t161.5 132.5t195.5 49.5q62 0 117 -19.5t96.5 -53.5t72 -77t49.5 -94l37 218h157l-142 -818q-8 -43 -8.5 -97t2 -89.5t6.5 -61.5h-156q-17 61 -14 172q-51 -90 -140.5 -143.5t-184.5 -53.5q-112 0 -202.5 63t-142.5 177t-52 257zM257 470 q0 -117 32.5 -196t90.5 -115.5t139 -36.5q69 0 132.5 33.5t113.5 93.5t80 150.5t30 196.5q0 104 -35 184t-98 123.5t-144 43.5q-77 0 -141.5 -36.5t-108 -101t-67.5 -152t-24 -187.5zM393 1533h211l108 -304h-145z" />
<glyph unicode="&#xe1;" horiz-adv-x="1180" d="M87 472q0 125 40 240t108 198t161.5 132.5t195.5 49.5q62 0 117 -19.5t96.5 -53.5t72 -77t49.5 -94l37 218h157l-142 -818q-8 -43 -8.5 -97t2 -89.5t6.5 -61.5h-156q-17 61 -14 172q-51 -90 -140.5 -143.5t-184.5 -53.5q-112 0 -202.5 63t-142.5 177t-52 257zM257 470 q0 -117 32.5 -196t90.5 -115.5t139 -36.5q69 0 132.5 33.5t113.5 93.5t80 150.5t30 196.5q0 104 -35 184t-98 123.5t-144 43.5q-77 0 -141.5 -36.5t-108 -101t-67.5 -152t-24 -187.5zM565 1229l161 304h229l-237 -304h-153z" />
<glyph unicode="&#xe2;" horiz-adv-x="1180" d="M83 472q0 125 40 240t108 198t161.5 132.5t195.5 49.5q121 0 207.5 -69t126.5 -175l38 218h157l-142 -818q-8 -43 -9 -97t2 -89.5t7 -61.5h-156q-17 61 -14 172q-51 -90 -140.5 -143.5t-184.5 -53.5q-112 0 -202.5 63t-142.5 177t-52 257zM252 470q0 -117 33 -196 t91 -115.5t139 -36.5q68 0 132 33.5t114 93.5t80 150.5t30 196.5q0 104 -35 184t-98 123.5t-144 43.5q-77 0 -141.5 -36.5t-108 -101t-68 -152t-24.5 -187.5zM375 1229l272 318h125l175 -318h-138l-118 165l-166 -165h-150z" />
<glyph unicode="&#xe3;" horiz-adv-x="1180" d="M87 472q0 125 40 240t108 198t161.5 132.5t195.5 49.5q62 0 117 -19.5t96.5 -53.5t72 -77t49.5 -94l37 218h157l-142 -818q-8 -43 -8.5 -97t2 -89.5t6.5 -61.5h-156q-17 61 -14 172q-51 -90 -140.5 -143.5t-184.5 -53.5q-112 0 -202.5 63t-142.5 177t-52 257zM257 470 q0 -117 32.5 -196t90.5 -115.5t139 -36.5q69 0 132.5 33.5t113.5 93.5t80 150.5t30 196.5q0 104 -35 184t-98 123.5t-144 43.5q-77 0 -141.5 -36.5t-108 -101t-67.5 -152t-24 -187.5zM356 1222q14 108 70 178.5t139 70.5q38 0 76.5 -16t63.5 -35t54.5 -34.5t51.5 -15.5 q34 0 56 28.5t27 72.5h109q-13 -108 -69.5 -178.5t-139.5 -70.5q-38 0 -76 16t-63.5 35t-54.5 35t-52 16q-11 0 -21 -3.5t-18.5 -10.5t-15.5 -16t-12.5 -20.5t-9 -24.5t-5.5 -27h-110z" />
<glyph unicode="&#xe4;" horiz-adv-x="1180" d="M87 472q0 125 40 240t108 198t161.5 132.5t195.5 49.5q62 0 117 -19.5t96.5 -53.5t72 -77t49.5 -94l37 218h157l-142 -818q-8 -43 -8.5 -97t2 -89.5t6.5 -61.5h-156q-17 61 -14 172q-51 -90 -140.5 -143.5t-184.5 -53.5q-112 0 -202.5 63t-142.5 177t-52 257zM257 470 q0 -117 32.5 -196t90.5 -115.5t139 -36.5q69 0 132.5 33.5t113.5 93.5t80 150.5t30 196.5q0 104 -35 184t-98 123.5t-144 43.5q-77 0 -141.5 -36.5t-108 -101t-67.5 -152t-24 -187.5zM379 1229l33 196h180l-31 -196h-182zM744 1229l34 196h182l-33 -196h-183z" />
<glyph unicode="&#xe5;" horiz-adv-x="1180" d="M83 472q0 125 40 240t108 198t161.5 132.5t195.5 49.5q121 0 207.5 -69t126.5 -175l38 218h157l-142 -818q-8 -43 -9 -97t2 -89.5t7 -61.5h-156q-17 61 -14 172q-51 -90 -140.5 -143.5t-184.5 -53.5q-112 0 -202.5 63t-142.5 177t-52 257zM252 470q0 -117 33 -196 t91 -115.5t139 -36.5q68 0 132 33.5t114 93.5t80 150.5t30 196.5q0 104 -35 184t-98 123.5t-144 43.5q-77 0 -141.5 -36.5t-108 -101t-68 -152t-24.5 -187.5zM464 1411q2 65 33.5 118t84 83t115.5 30q96 0 161 -66.5t62 -164.5q-3 -96 -71.5 -163t-161.5 -67q-96 0 -161 67 t-62 163zM569 1411q-1 -29 7.5 -54t24 -43t38.5 -28.5t50 -10.5q53 0 89 39t37 97q2 58 -32 98t-88 40q-53 0 -89 -40t-37 -98z" />
<glyph unicode="&#xe6;" horiz-adv-x="1820" d="M47 273q0 65 20.5 116t56 85.5t89.5 59.5t114 39t137 23q64 7 107 13.5t87 16.5t71 23t49 32t31.5 44.5t9.5 58.5q0 51 -26.5 87t-75 54t-115.5 18q-70 0 -125 -21.5t-89.5 -61.5t-48.5 -96h-177q28 149 147.5 238.5t300.5 89.5q130 0 216 -46.5t121 -129.5 q69 83 163.5 129.5t209.5 46.5q143 0 245 -78t145 -217.5t17 -314.5h-780q0 -169 81.5 -264.5t206.5 -95.5q193 0 283 176h178q-27 -72 -71.5 -131.5t-103 -102t-133.5 -66t-159 -23.5q-90 0 -169 32.5t-139 93t-96 143.5q-38 -74 -93.5 -129t-117 -84.5t-120 -42.5 t-115.5 -13q-145 0 -238.5 79.5t-93.5 218.5zM213 279q0 -74 51.5 -115.5t136.5 -41.5q146 0 241 72t116 195l26 165q-86 -66 -328 -98q-134 -18 -188.5 -56.5t-54.5 -120.5zM962 624h606q0 104 -32.5 176.5t-90 107.5t-136.5 35q-129 0 -221.5 -88t-125.5 -231z" />
<glyph unicode="&#xe7;" horiz-adv-x="1112" d="M81 484q0 98 26.5 190t76 167t116 131.5t151.5 88t178 31.5q160 0 273 -96.5t136 -255.5h-167q-22 99 -89 151t-164 52q-80 0 -149.5 -35.5t-117 -97.5t-74.5 -147t-27 -181q0 -170 80 -265t207 -95q104 0 180 55t112 150h174q-47 -151 -163.5 -246t-276.5 -104l-77 -95 q8 2 33 2q67 0 113.5 -51t46.5 -125q0 -93 -62.5 -144.5t-163.5 -51.5q-93 0 -155 46t-75 117h126q8 -25 34 -42.5t61 -17.5q48 0 76 25.5t28 65.5q0 18 -6 33.5t-16.5 27t-26.5 18t-35 6.5q-41 0 -79 -33l-63 64l122 162q-160 31 -261.5 167.5t-101.5 332.5z" />
<glyph unicode="&#xe8;" d="M81 484q0 123 40.5 234.5t111 194t172 131t217.5 48.5q143 0 245 -78t145.5 -217.5t17.5 -314.5h-780q0 -169 81 -264.5t206 -95.5q194 0 284 176h178q-54 -147 -177.5 -235t-290.5 -88q-128 0 -230.5 64t-161 180.5t-58.5 264.5zM265 624h604q0 155 -69.5 237t-187.5 82 q-129 0 -221.5 -88t-125.5 -231zM389 1531h211l107 -305h-144z" />
<glyph unicode="&#xe9;" d="M85 484q0 70 13.5 137.5t39 127.5t61.5 113t82.5 95t100 72t116.5 46.5t129 16.5q143 0 245 -78t145 -217.5t17 -314.5h-779q0 -169 81 -264.5t206 -95.5q193 0 283 176h178q-54 -147 -177.5 -235t-290.5 -88q-128 0 -230.5 64t-161 180.5t-58.5 264.5zM269 624h604 q0 155 -69.5 237t-187.5 82q-129 0 -221.5 -88t-125.5 -231zM561 1226l161 305h229l-237 -305h-153z" />
<glyph unicode="&#xea;" d="M81 484q0 123 40.5 234.5t111 194t172 131t217.5 48.5q143 0 245 -78t145.5 -217.5t17.5 -314.5h-780q0 -169 81 -264.5t206 -95.5q194 0 284 176h178q-54 -147 -177.5 -235t-290.5 -88q-128 0 -230.5 64t-161 180.5t-58.5 264.5zM265 624h604q0 155 -69.5 237t-187.5 82 q-129 0 -221.5 -88t-125.5 -231zM351 1226l273 319h124l176 -319h-138l-117 166l-166 -166h-152z" />
<glyph unicode="&#xeb;" d="M81 484q0 123 40.5 234.5t111 194t172 131t217.5 48.5q143 0 245 -78t145.5 -217.5t17.5 -314.5h-780q0 -169 81 -264.5t206 -95.5q194 0 284 176h178q-54 -147 -177.5 -235t-290.5 -88q-128 0 -230.5 64t-161 180.5t-58.5 264.5zM265 624h604q0 155 -69.5 237t-187.5 82 q-129 0 -221.5 -88t-125.5 -231zM371 1226l32 197h181l-32 -197h-181zM736 1226l34 197h181l-33 -197h-182z" />
<glyph unicode="&#xec;" horiz-adv-x="483" d="M73 0l186 1066h163l-184 -1066h-165zM112 1533h210l108 -304h-144z" />
<glyph unicode="&#xed;" horiz-adv-x="483" d="M73 0l186 1066h163l-184 -1066h-165zM275 1229l161 304h230l-238 -304h-153z" />
<glyph unicode="&#xee;" horiz-adv-x="483" d="M71 1229l272 318h125l175 -318h-138l-118 165l-166 -165h-150zM73 0l186 1066h163l-184 -1066h-165z" />
<glyph unicode="&#xef;" horiz-adv-x="483" d="M73 0l186 1066h163l-184 -1066h-165zM89 1229l33 196h180l-31 -196h-182zM456 1229l32 196h183l-34 -196h-181z" />
<glyph unicode="&#xf0;" horiz-adv-x="1131" d="M77 474q0 122 41 230.5t109 183t157.5 117.5t184.5 43q177 0 275 -119q-55 175 -171 320l-156 -108l-55 81l144 102q-53 54 -122 103l93 120q92 -60 163 -128l148 103l57 -81l-134 -95q255 -288 255 -699q0 -193 -63 -345t-183 -239.5t-278 -87.5q-133 0 -239.5 65 t-166 179t-59.5 255zM246 470q0 -159 82.5 -252.5t211.5 -93.5q151 0 249.5 118.5t98.5 311.5q0 163 -84.5 255.5t-217.5 92.5q-69 0 -130 -29t-108 -82.5t-74.5 -136.5t-27.5 -184z" />
<glyph unicode="&#xf1;" horiz-adv-x="1145" d="M67 0l185 1066h158l-27 -150q59 85 139.5 130.5t172.5 45.5q112 0 191 -57t111.5 -161t9.5 -237l-109 -637h-164l114 651q24 135 -28.5 210.5t-174.5 75.5q-73 0 -135 -31t-104.5 -90t-56.5 -137l-118 -679h-164zM364 1220q14 108 70 178.5t139 70.5q38 0 76.5 -16 t63.5 -35t54.5 -34.5t51.5 -15.5q34 0 56 28.5t27 72.5h109q-13 -108 -69 -178.5t-139 -70.5q-38 0 -76 16t-63.5 35t-55 35t-51.5 16q-33 0 -55 -29t-28 -73h-110z" />
<glyph unicode="&#xf2;" horiz-adv-x="1151" d="M81 488q1 122 44 233t115.5 192.5t173.5 130t213 48.5q74 0 142.5 -24.5t123 -70.5t95.5 -108.5t62.5 -142t21.5 -167.5q-1 -94 -26.5 -184t-74 -165.5t-113.5 -133t-150 -89.5t-179 -32q-95 0 -178.5 38t-143.5 105t-94 163t-32 207zM250 484q-1 -85 21.5 -154.5 t62 -114.5t91 -69t110.5 -24q79 0 146.5 34t116 94t76.5 145.5t30 185.5q1 84 -21.5 153.5t-62 114.5t-92 69.5t-112.5 24.5q-106 0 -189.5 -61.5t-128.5 -166t-48 -231.5zM405 1531h211l108 -305h-145z" />
<glyph unicode="&#xf3;" horiz-adv-x="1151" d="M81 488q1 122 44 233t115.5 192.5t173.5 130t213 48.5q74 0 142.5 -24.5t123 -70.5t95.5 -108.5t62.5 -142t21.5 -167.5q-1 -94 -26.5 -184t-74 -165.5t-113.5 -133t-150 -89.5t-179 -32q-95 0 -178.5 38t-143.5 105t-94 163t-32 207zM250 484q-1 -85 21.5 -154.5 t62 -114.5t91 -69t110.5 -24q79 0 146.5 34t116 94t76.5 145.5t30 185.5q1 84 -21.5 153.5t-62 114.5t-92 69.5t-112.5 24.5q-106 0 -189.5 -61.5t-128.5 -166t-48 -231.5zM573 1226l161 305h230l-238 -305h-153z" />
<glyph unicode="&#xf4;" horiz-adv-x="1151" d="M81 488q1 122 44 233t115.5 192.5t173.5 130t213 48.5q74 0 142.5 -24.5t123 -70.5t95.5 -108.5t62.5 -142t21.5 -167.5q-1 -94 -26.5 -184t-74 -165.5t-113.5 -133t-150 -89.5t-179 -32q-95 0 -178.5 38t-143.5 105t-94 163t-32 207zM250 484q-1 -85 21.5 -154.5 t62 -114.5t91 -69t110.5 -24q79 0 146.5 34t116 94t76.5 145.5t30 185.5q1 84 -21.5 153.5t-62 114.5t-92 69.5t-112.5 24.5q-106 0 -189.5 -61.5t-128.5 -166t-48 -231.5zM369 1226l272 319h125l175 -319h-138l-118 166l-166 -166h-150z" />
<glyph unicode="&#xf5;" horiz-adv-x="1151" d="M81 488q1 122 44 233t115.5 192.5t173.5 130t213 48.5q74 0 142.5 -24.5t123 -70.5t95.5 -108.5t62.5 -142t21.5 -167.5q-1 -94 -26.5 -184t-74 -165.5t-113.5 -133t-150 -89.5t-179 -32q-95 0 -178.5 38t-143.5 105t-94 163t-32 207zM250 484q-1 -85 21.5 -154.5 t62 -114.5t91 -69t110.5 -24q79 0 146.5 34t116 94t76.5 145.5t30 185.5q1 84 -21.5 153.5t-62 114.5t-92 69.5t-112.5 24.5q-106 0 -189.5 -61.5t-128.5 -166t-48 -231.5zM349 1220q15 108 71 178.5t139 70.5q38 0 76.5 -16t63.5 -35t54.5 -34.5t51.5 -15.5q34 0 56 28.5 t27 72.5h109q-13 -108 -69.5 -178.5t-139.5 -70.5q-31 0 -61.5 10.5t-54.5 25.5t-45.5 30t-43.5 25.5t-41 10.5q-22 0 -39.5 -14t-28 -36.5t-14.5 -51.5h-111z" />
<glyph unicode="&#xf6;" horiz-adv-x="1151" d="M81 488q1 122 44 233t115.5 192.5t173.5 130t213 48.5q74 0 142.5 -24.5t123 -70.5t95.5 -108.5t62.5 -142t21.5 -167.5q-1 -94 -26.5 -184t-74 -165.5t-113.5 -133t-150 -89.5t-179 -32q-95 0 -178.5 38t-143.5 105t-94 163t-32 207zM250 484q-1 -85 21.5 -154.5 t62 -114.5t91 -69t110.5 -24q79 0 146.5 34t116 94t76.5 145.5t30 185.5q1 84 -21.5 153.5t-62 114.5t-92 69.5t-112.5 24.5q-106 0 -189.5 -61.5t-128.5 -166t-48 -231.5zM387 1226l33 197h180l-31 -197h-182zM752 1226l34 197h182l-33 -197h-183z" />
<glyph unicode="&#xf7;" horiz-adv-x="985" d="M97 540l29 165h796l-28 -165h-797zM333 176l36 215h200l-36 -215h-200zM450 854l36 216h201l-36 -216h-201z" />
<glyph unicode="&#xf8;" horiz-adv-x="1151" d="M-35 20l183 179q-70 126 -67 289q1 122 44 233t115.5 192.5t173.5 130t213 48.5q89 0 167.5 -35t138.5 -100l178 172l77 -81l-187 -181q71 -126 71 -288q-1 -94 -26.5 -184t-74 -165.5t-113.5 -133t-150 -89.5t-179 -32q-186 0 -312 132l-174 -169zM250 484 q-2 -90 21 -168l552 536q-78 91 -207 91q-106 0 -189.5 -61.5t-128.5 -166t-48 -231.5zM327 213q79 -91 208 -91q79 0 146.5 34t116 94t76.5 145.5t30 185.5q0 92 -25 169z" />
<glyph unicode="&#xf9;" horiz-adv-x="1145" d="M136 428l110 638h164l-114 -652q-26 -144 23.5 -215t166.5 -71q120 0 204 70t104 189l118 679h164l-184 -1066h-158l28 148q-58 -84 -138 -129.5t-162 -45.5q-181 0 -271 124t-55 331zM432 1531h211l107 -305h-144z" />
<glyph unicode="&#xfa;" horiz-adv-x="1145" d="M136 428l110 638h164l-114 -652q-26 -144 23.5 -215t166.5 -71q120 0 204 70t104 189l118 679h164l-184 -1066h-158l28 148q-58 -84 -138 -129.5t-162 -45.5q-181 0 -271 124t-55 331zM596 1226l162 305h229l-239 -305h-152z" />
<glyph unicode="&#xfb;" horiz-adv-x="1145" d="M136 428l110 638h164l-114 -652q-26 -144 23.5 -215t166.5 -71q120 0 204 70t104 189l118 679h164l-184 -1066h-158l28 148q-58 -84 -138 -129.5t-162 -45.5q-181 0 -271 124t-55 331zM391 1226l273 319h124l176 -319h-139l-118 166l-165 -166h-151z" />
<glyph unicode="&#xfc;" horiz-adv-x="1145" d="M136 428l110 638h164l-114 -652q-26 -144 23.5 -215t166.5 -71q120 0 204 70t104 189l118 679h164l-184 -1066h-158l28 148q-58 -84 -138 -129.5t-162 -45.5q-181 0 -271 124t-55 331zM410 1226l32 197h180l-30 -197h-182zM776 1226l33 197h182l-34 -197h-181z" />
<glyph unicode="&#xfd;" horiz-adv-x="987" d="M-47 -432l24 148h27q94 0 148 35t103 125l70 130l-197 1060h174l118 -725l14 -169l71 169l370 725h173l-645 -1236q-42 -80 -86.5 -132t-96 -80.5t-104 -39t-122.5 -10.5h-41zM517 1226l162 305h229l-237 -305h-154z" />
<glyph unicode="&#xfe;" horiz-adv-x="1218" d="M-8 -432l341 1971h164l-110 -633q21 33 49 62t61 51.5t69.5 39t76 25t79.5 8.5q121 0 216 -67t145.5 -184.5t47.5 -263.5q-2 -124 -42.5 -235.5t-108 -192t-162.5 -127.5t-202 -47q-133 0 -220.5 63.5t-130.5 170.5l-107 -641h-166zM310 474q-1 -105 35 -185 t102.5 -124.5t154.5 -44.5q108 0 190 60t126 163.5t46 235.5q3 178 -68.5 272t-204.5 94q-77 0 -145.5 -33.5t-120.5 -93.5t-82.5 -149.5t-32.5 -194.5z" />
<glyph unicode="&#xff;" horiz-adv-x="987" d="M-47 -432l24 148h27q94 0 148 35t103 125l70 130l-197 1060h174l118 -725l14 -169l71 169l370 725h173l-645 -1236q-42 -80 -86.5 -132t-96 -80.5t-104 -39t-122.5 -10.5h-41zM331 1226l33 197h180l-31 -197h-182zM697 1226l33 197h182l-33 -197h-182z" />
<glyph unicode="&#x152;" horiz-adv-x="2198" d="M118 645q0 166 56 312t153 250.5t232.5 165t288.5 60.5q167 0 292 -84t188 -232l50 290h864l-29 -160h-693l-72 -428h585l-28 -159h-586l-85 -500h703l-28 -160h-874l32 184q-186 -209 -455 -209q-125 0 -235.5 50.5t-189 139t-124 213.5t-45.5 267zM298 649 q0 -113 31 -209.5t86 -164.5t134.5 -106.5t172.5 -38.5q101 0 187.5 34t149.5 94t108.5 141t67.5 175.5t22 197.5q0 150 -49.5 264.5t-144 178.5t-221.5 64q-123 0 -226.5 -50t-172.5 -135.5t-107 -200t-38 -244.5z" />
<glyph unicode="&#x153;" horiz-adv-x="1942" d="M81 488q1 122 44 233t115.5 192.5t173.5 130t213 48.5q128 0 228 -70t152 -193q69 122 180.5 192.5t253.5 70.5q143 0 245.5 -78t145.5 -217.5t17 -314.5h-779q0 -85 22 -153.5t60.5 -113.5t91 -69t112.5 -24q191 0 284 176h178q-54 -147 -178 -235t-290 -88 q-134 0 -235 70.5t-151 194.5q-45 -80 -107.5 -138.5t-147 -92.5t-180.5 -34q-95 0 -178.5 38t-143.5 105t-94 163t-32 207zM250 484q-1 -85 21.5 -154.5t62 -114.5t91 -69t110.5 -24q79 0 146.5 34t116 94t76.5 145.5t30 185.5q1 84 -21.5 153.5t-62 114.5t-92 69.5 t-112.5 24.5q-106 0 -189.5 -61.5t-128.5 -166t-48 -231.5zM1084 624h604q0 155 -69.5 237t-187.5 82q-129 0 -221.5 -88t-125.5 -231z" />
<glyph unicode="&#x178;" d="M178 1407h176l248 -663l462 663h185l-585 -832l-101 -575h-176l101 590zM440 1510l34 197h179l-31 -197h-182zM807 1510l32 197h183l-33 -197h-182z" />
<glyph unicode="&#x2c6;" horiz-adv-x="1025" d="M347 1226l273 319h124l176 -319h-138l-118 166l-165 -166h-152z" />
<glyph unicode="&#x2dc;" horiz-adv-x="1025" d="M329 1220q14 108 70 178.5t138 70.5q39 0 77 -16t63.5 -35t54.5 -34.5t52 -15.5t41 13.5t28 36t14 51.5h110q-13 -108 -69.5 -178.5t-139.5 -70.5q-31 0 -61.5 10.5t-54.5 25.5t-46 30t-44 25.5t-41 10.5q-22 0 -39.5 -14t-28.5 -36.5t-15 -51.5h-109z" />
<glyph unicode="&#x2000;" horiz-adv-x="962" />
<glyph unicode="&#x2001;" horiz-adv-x="1924" />
<glyph unicode="&#x2002;" horiz-adv-x="962" />
<glyph unicode="&#x2003;" horiz-adv-x="1924" />
<glyph unicode="&#x2004;" horiz-adv-x="641" />
<glyph unicode="&#x2005;" horiz-adv-x="481" />
<glyph unicode="&#x2006;" horiz-adv-x="320" />
<glyph unicode="&#x2007;" horiz-adv-x="320" />
<glyph unicode="&#x2008;" horiz-adv-x="240" />
<glyph unicode="&#x2009;" horiz-adv-x="384" />
<glyph unicode="&#x200a;" horiz-adv-x="106" />
<glyph unicode="&#x2010;" horiz-adv-x="719" d="M95 488l29 165h517l-29 -165h-517z" />
<glyph unicode="&#x2011;" horiz-adv-x="719" d="M95 488l29 165h517l-29 -165h-517z" />
<glyph unicode="&#x2012;" horiz-adv-x="719" d="M95 488l29 165h517l-29 -165h-517z" />
<glyph unicode="&#x2013;" horiz-adv-x="1236" d="M95 488l29 165h1034l-29 -165h-1034z" />
<glyph unicode="&#x2014;" horiz-adv-x="1896" d="M95 488l29 165h1694l-28 -165h-1695z" />
<glyph unicode="&#x2018;" horiz-adv-x="442" d="M188 924l54 305q10 50 33.5 87t57 59t72 33t81.5 13l-18 -97q-32 -1 -58.5 -13.5t-45.5 -38t-25 -60.5l-12 -71h103l-39 -217h-203z" />
<glyph unicode="&#x2019;" horiz-adv-x="442" d="M176 910l19 97q50 2 85.5 30.5t44.5 81.5l12 71h-104l38 217h203l-52 -304q-8 -49 -32 -86.5t-58.5 -60t-73.5 -33.5t-82 -13z" />
<glyph unicode="&#x201a;" horiz-adv-x="440" d="M-31 -279l19 97q50 2 85.5 30.5t44.5 80.5l12 71h-103l37 217h203l-52 -304q-8 -49 -32 -86.5t-58.5 -59.5t-73.5 -33t-82 -13z" />
<glyph unicode="&#x201c;" horiz-adv-x="787" d="M188 924l54 305q10 50 33.5 87t57 59t72 33t81.5 13l-18 -97q-32 -1 -58.5 -13.5t-45.5 -38t-25 -60.5l-12 -71h103l-39 -217h-203zM535 924l53 305q8 49 32 86.5t58.5 59.5t73 33t81.5 13l-18 -97q-32 -1 -58.5 -13.5t-46 -38t-25.5 -60.5l-12 -71h103l-38 -217h-203z " />
<glyph unicode="&#x201d;" horiz-adv-x="787" d="M176 910l19 97q50 2 85.5 30.5t44.5 81.5l12 71h-104l38 217h203l-52 -304q-8 -49 -32 -86.5t-58.5 -60t-73.5 -33.5t-82 -13zM523 910l19 97q49 2 84.5 31t44.5 81l12 71h-104l39 217h203l-53 -304q-8 -40 -25 -72t-40.5 -54t-53 -36.5t-61 -22t-65.5 -8.5z" />
<glyph unicode="&#x201e;" horiz-adv-x="785" d="M-31 -279l19 97q50 2 85.5 30.5t44.5 80.5l12 71h-103l37 217h203l-52 -304q-8 -49 -32 -86.5t-58.5 -59.5t-73.5 -33t-82 -13zM316 -279l19 97q49 2 84.5 30.5t44.5 80.5l12 71h-103l39 217h202l-51 -304q-9 -49 -33 -86.5t-58.5 -59.5t-73.5 -33t-82 -13z" />
<glyph unicode="&#x2022;" horiz-adv-x="636" d="M152 738q0 96 65 166.5t154 70.5q82 0 137 -59.5t55 -145.5q0 -97 -64.5 -167t-153.5 -70q-82 0 -137.5 59.5t-55.5 145.5z" />
<glyph unicode="&#x2026;" horiz-adv-x="1385" d="M29 0l38 225h202l-38 -225h-202zM501 0l39 225h202l-39 -225h-202zM973 0l38 225h203l-39 -225h-202z" />
<glyph unicode="&#x202f;" horiz-adv-x="384" />
<glyph unicode="&#x2039;" horiz-adv-x="501" d="M52 453l27 167l426 342l-41 -234l-272 -207l201 -207l-33 -202z" />
<glyph unicode="&#x203a;" horiz-adv-x="501" d="M2 112l41 233l271 207l-200 208l34 202l310 -342l-30 -167z" />
<glyph unicode="&#x205f;" horiz-adv-x="481" />
<glyph unicode="&#x20ac;" horiz-adv-x="1234" d="M43 486l19 116h161q4 110 10 162h-142l21 115h145q21 91 56.5 170.5t80 139.5t97 107t109.5 77t115.5 45t117.5 15q77 0 145.5 -24t123 -69.5t91.5 -115t48 -154.5h-171q-18 101 -83.5 155t-165.5 54q-86 0 -161.5 -47t-134 -138t-91.5 -215h584l-54 -115h-552 q-13 -112 -13 -162h487l-55 -116h-430q15 -178 92.5 -267t207.5 -89q96 0 171.5 53t118.5 152h180q-43 -118 -118 -201t-165 -121t-191 -38q-94 0 -174.5 32t-142.5 94t-102 160.5t-51 224.5h-184z" />
<glyph unicode="&#x2122;" horiz-adv-x="1538" d="M213 1301l18 106h499l-18 -106h-189l-103 -602h-122l103 602h-188zM736 699l122 708h145l100 -538l285 538h155l-122 -708h-118l85 493l-259 -493h-105l-91 493l-85 -493h-112z" />
<glyph unicode="&#x25fc;" horiz-adv-x="1064" d="M0 0v1066h1066v-1066h-1066z" />
</font>
</defs>
</svg>
