<?xml version="1.0" standalone="no"?>
<!DOCTYPE svg PUBLIC "-//W3C//DTD SVG 1.1//EN" "http://www.w3.org/Graphics/SVG/1.1/DTD/svg11.dtd" >
<svg xmlns="http://www.w3.org/2000/svg" xmlns:xlink="http://www.w3.org/1999/xlink" version="1.1">
<metadata></metadata>
<defs>
<font id="webfontregular" horiz-adv-x="1155" >
<font-face units-per-em="2048" ascent="1638" descent="-410" />
<missing-glyph horiz-adv-x="560" />
<glyph unicode="&#xfb01;" horiz-adv-x="1129" d="M25 -259l194 1113h-122l35 212h125l14 88q16 105 57 179t98.5 119.5t127.5 66t147 20.5q60 0 104 -13l-37 -208q-15 4 -25.5 5t-26.5 1q-69 0 -124 -36.5t-73 -146.5l-12 -75h579l-186 -1066h-251l150 854h-329l-195 -1113h-250zM856 1218l46 259h261l-44 -259h-263z" />
<glyph unicode="&#xfb02;" horiz-adv-x="1129" d="M25 -259l194 1113h-122l35 212h125l14 88q16 105 57 179t98.5 119.5t127.5 66t147 20.5q60 0 104 -13l-37 -208q-15 4 -25.5 5t-26.5 1q-69 0 -124 -36.5t-73 -146.5l-12 -75h219l-37 -212h-219l-195 -1113h-250zM649 0l269 1539h249l-267 -1539h-251z" />
<glyph unicode="&#xfb03;" horiz-adv-x="1707" d="M25 -259l194 1113h-122l35 212h125l16 88q18 111 59 184t96.5 118.5t124.5 64t150 18.5q58 0 118 -17l-37 -209q-36 10 -66 11q-37 0 -69.5 -7.5t-57 -27t-43.5 -53.5t-27 -90l-14 -80h326l17 88q19 105 59 179t97.5 119.5t127.5 66t147 20.5q59 0 103 -13l-38 -208 q-12 4 -23.5 5t-27.5 1q-69 0 -123.5 -37.5t-73.5 -145.5l-14 -75h581l-186 -1066h-250l149 854h-332l-181 -1051h-251l182 1051h-326l-195 -1113h-250zM1435 1218l46 259h262l-45 -259h-263z" />
<glyph unicode="&#xfb04;" horiz-adv-x="1707" d="M25 -259l194 1113h-122l35 212h125l16 88q18 111 59 184t96.5 118.5t124.5 64t150 18.5q58 0 118 -17l-37 -209q-36 10 -66 11q-37 0 -69.5 -7.5t-57 -27t-43.5 -53.5t-27 -90l-14 -80h326l17 88q19 105 59 179t97.5 119.5t127.5 66t147 20.5q59 0 103 -13l-38 -208 q-12 4 -23.5 5t-27.5 1q-69 0 -123.5 -37.5t-73.5 -145.5l-14 -75h221l-37 -212h-222l-181 -1051h-251l182 1051h-326l-195 -1113h-250zM1229 0l269 1539h250l-269 -1539h-250z" />
<glyph horiz-adv-x="0" />
<glyph unicode="&#xd;" horiz-adv-x="560" />
<glyph unicode=" "  horiz-adv-x="560" />
<glyph unicode="&#x09;" horiz-adv-x="560" />
<glyph unicode="&#xa0;" horiz-adv-x="560" />
<glyph unicode="!" horiz-adv-x="596" d="M69 0l47 286h281l-50 -286h-278zM182 420l136 987h272l-213 -987h-195z" />
<glyph unicode="&#x22;" horiz-adv-x="781" d="M186 888l43 519h272l-139 -519h-176zM546 888l44 519h271l-139 -519h-176z" />
<glyph unicode="#" horiz-adv-x="1093" d="M81 511l43 207h168l47 229h-171l45 207h168l53 253h195l-54 -253h185l51 253h194l-52 -253h172l-45 -207h-170l-45 -229h171l-45 -207h-170l-51 -256h-195l52 256h-185l-51 -256h-194l51 256h-167zM486 718h185l45 229h-183z" />
<glyph unicode="$" horiz-adv-x="1147" d="M58 484h238q4 -73 44.5 -125.5t121.5 -76.5l57 334q-63 18 -124.5 48.5t-110.5 74t-77.5 104.5t-28.5 146t31 154t89 118.5t139.5 78t182.5 28.5h29l22 115h136l-23 -135q83 -20 143 -60.5t98.5 -91t58 -108.5t19.5 -115h-236q-4 51 -35 93.5t-86 64.5l-55 -314 q67 -20 132 -48.5t115.5 -69.5t81 -101.5t30.5 -141.5q0 -89 -26.5 -164t-82 -128.5t-139.5 -84t-198 -30.5h-45l-38 -219h-138l41 241q-159 39 -260.5 145t-105.5 268zM414 1003q0 -50 34 -83.5t113 -63.5l51 298q-93 -4 -145.5 -41t-52.5 -110zM596 263h4q209 0 209 171 q0 54 -40.5 84t-119.5 59z" />
<glyph unicode="%" horiz-adv-x="1666" d="M154 1048q0 79 30.5 148.5t81 120.5t117.5 80.5t140 29.5q75 0 135 -25.5t102.5 -70t66 -103.5t23.5 -125q0 -83 -31 -153.5t-82.5 -121t-119 -79.5t-137.5 -29q-75 0 -134.5 26t-103 71.5t-66 105.5t-22.5 125zM271 0l986 1407h201l-986 -1407h-201zM345 1054 q0 -72 39.5 -117t99.5 -45q33 0 64 14t56 41.5t39.5 64t14.5 84.5q0 71 -39.5 115t-101.5 44q-31 0 -62 -14.5t-55.5 -41t-39.5 -64t-15 -81.5zM879 308q0 79 31 148t81.5 120t118 81t139.5 30q73 0 132.5 -26t102 -70.5t67 -103.5t24.5 -125q0 -83 -31.5 -153.5t-83 -121 t-118.5 -79t-138 -28.5q-75 0 -135 25.5t-102.5 71t-65 105.5t-22.5 126zM1072 314q0 -73 39 -117.5t97 -44.5q69 0 121.5 55.5t52.5 148.5q0 70 -38.5 114.5t-102.5 44.5q-31 0 -62 -14.5t-54.5 -41.5t-38 -64t-14.5 -81z" />
<glyph unicode="&#x26;" horiz-adv-x="1354" d="M60 399q0 81 21.5 143t67.5 112.5t117 93t168 83.5l-2 4q-41 64 -56.5 128.5t-15.5 120.5q0 79 30 145t80.5 113.5t117.5 73t142 25.5q71 0 131.5 -23.5t104 -65t68.5 -101t25 -130.5q0 -97 -74.5 -187t-236.5 -162l203 -319q40 87 63 202l14 83h221l-18 -99 q-23 -114 -62.5 -210t-92.5 -174l163 -255h-277l-54 83q-158 -107 -362 -108q-103 0 -192 35t-154.5 93.5t-102.5 134.5t-37 161zM320 418q0 -43 17 -82.5t49 -71t78.5 -49.5t106.5 -18q126 0 223 64l-269 428q-120 -54 -162.5 -121t-42.5 -150zM592 1096q0 -33 9 -69 t32 -72l22 -37q101 48 139.5 97t38.5 102q0 54 -28.5 91t-80.5 37q-59 0 -95.5 -44t-36.5 -105z" />
<glyph unicode="'" horiz-adv-x="421" d="M186 888l43 519h272l-139 -519h-176z" />
<glyph unicode="(" horiz-adv-x="655" d="M105 515q0 188 39.5 353.5t108.5 305t161.5 251.5t197.5 197h230q-105 -101 -193 -224t-152.5 -266t-99.5 -303t-35 -339q-4 -401 159 -742h-199q-101 161 -159 356.5t-58 410.5z" />
<glyph unicode=")" horiz-adv-x="653" d="M-132 -252q105 100 192.5 223.5t151 266.5t98.5 303t35 338q4 405 -157 743h197q103 -162 161 -357t58 -411q0 -187 -40.5 -353t-108.5 -305.5t-160 -252.5t-198 -195h-229z" />
<glyph unicode="*" horiz-adv-x="799" d="M152 1018l30 176l230 -27l-106 207l158 78l55 -228l134 228l133 -86l-176 -203l242 31l-31 -176l-231 24l107 -203l-157 -79l-58 225l-133 -225l-132 88l174 198z" />
<glyph unicode="+" horiz-adv-x="1031" d="M81 507l39 231h310l60 336h244l-57 -336h308l-42 -231h-308l-60 -337h-246l60 337h-308z" />
<glyph unicode="," horiz-adv-x="489" d="M-45 -325l25 139q61 0 101.5 31t52.5 106l8 49h-130l52 292h279l-61 -363q-23 -128 -111 -191t-216 -63z" />
<glyph unicode="-" horiz-adv-x="690" d="M73 450l41 247h519l-43 -247h-517z" />
<glyph unicode="." horiz-adv-x="489" d="M12 0l52 292h279l-49 -292h-282z" />
<glyph unicode="/" horiz-adv-x="731" d="M-152 -252l837 1874h258l-833 -1874h-262z" />
<glyph unicode="0" horiz-adv-x="1236" d="M112 573q0 190 47.5 349.5t131.5 275t196.5 179.5t242.5 64q105 0 190 -41t145 -117.5t92.5 -186t32.5 -248.5q0 -195 -47 -356t-129.5 -276t-195.5 -178t-245 -63q-110 0 -195.5 41.5t-144.5 119t-90 188t-31 249.5zM371 557q0 -156 49 -254t161 -98q83 0 147 54.5 t109.5 146t69.5 207t24 237.5q0 166 -54 264t-163 98q-75 0 -138 -53.5t-108.5 -144t-71 -209t-25.5 -248.5z" />
<glyph unicode="1" horiz-adv-x="839" d="M207 995l33 184q52 0 103.5 15.5t97 44.5t77.5 70t43 98h211l-245 -1407h-262l173 995h-231z" />
<glyph unicode="2" horiz-adv-x="1107" d="M-10 0l28 160q18 105 69 188.5t120.5 150t152 119.5t167.5 96q99 52 162 95t97.5 82.5t47 78.5t12.5 82q0 64 -40 115t-127 51q-101 0 -161 -70t-76 -177h-262q10 99 49.5 184.5t105.5 150t156 100t200 35.5q107 0 184.5 -32.5t128 -87.5t76 -125.5t25.5 -145.5 q0 -105 -34.5 -180.5t-97.5 -134t-151 -109.5t-195 -107q-144 -77 -224.5 -144t-98.5 -146h653l-39 -229h-928z" />
<glyph unicode="3" horiz-adv-x="1153" d="M49 460h255q-6 -105 55 -179t193 -74q115 0 184 63t69 158q0 81 -49 140t-154 59h-91l37 219h48q124 0 185 54.5t61 143.5q0 67 -42 116.5t-131 49.5q-50 0 -92 -17.5t-71.5 -48.5t-48.5 -72.5t-25 -86.5h-254q8 101 49.5 184.5t106.5 145t154 94t195 32.5 q105 0 183.5 -30.5t131 -82t80 -120.5t27.5 -142q0 -111 -65 -196.5t-186 -131.5q48 -16 87.5 -49.5t67 -77.5t42.5 -94.5t15 -100.5q0 -81 -35.5 -160.5t-100.5 -141.5t-160 -100.5t-216 -38.5q-136 0 -234.5 42.5t-161.5 111t-90 155.5t-19 176z" />
<glyph unicode="4" horiz-adv-x="1218" d="M29 296l40 219l775 892h287l-156 -892h160l-39 -219h-159l-51 -296h-247l52 296h-662zM325 515h405l99 573z" />
<glyph unicode="5" horiz-adv-x="1139" d="M47 383h263q6 -77 63 -126.5t152 -49.5q58 0 105 21.5t80.5 60t52.5 90t19 111.5q0 110 -53.5 171t-144.5 61q-79 0 -136 -39.5t-97 -92.5l-199 93l212 724h751l-39 -228h-551l-107 -350q40 46 108 77t151 31q76 0 143.5 -30t117 -85.5t78 -136.5t28.5 -182 q0 -116 -36.5 -212t-105.5 -166.5t-164 -110t-213 -39.5q-112 0 -199.5 34t-149.5 90.5t-95.5 129.5t-33.5 154z" />
<glyph unicode="6" horiz-adv-x="1180" d="M112 540q0 186 42.5 350t121 287.5t191 193.5t255.5 70q180 0 289.5 -100t123.5 -275h-256q-10 59 -49.5 104.5t-124.5 45.5q-58 0 -107.5 -31t-88.5 -86t-68 -131t-44 -167q53 60 123 89.5t144 29.5q95 0 172.5 -32t133.5 -90t86 -137.5t30 -174.5q0 -112 -38.5 -206 t-105.5 -161t-158 -105.5t-198 -38.5q-89 0 -174 31t-152.5 98.5t-107.5 175t-40 260.5zM379 438q0 -101 55 -172t154 -71q53 0 97.5 22.5t75.5 61.5t48.5 90t17.5 107q0 97 -57.5 163t-153.5 66q-53 0 -96.5 -21.5t-74.5 -58.5t-48.5 -86t-17.5 -101z" />
<glyph unicode="7" horiz-adv-x="1091" d="M186 1163l43 244h938l-40 -230q-114 -97 -220 -222.5t-194.5 -273.5t-153.5 -319.5t-97 -361.5h-267q33 182 94.5 350.5t143.5 317.5t181.5 273.5t206.5 221.5h-635z" />
<glyph unicode="8" horiz-adv-x="1149" d="M75 393q0 134 72 234.5t211 154.5q-75 51 -105 120t-30 146q0 85 34.5 157t93.5 124.5t139.5 82t173.5 29.5q90 0 170 -26.5t139 -75t92 -116t33 -145.5q0 -112 -53.5 -194.5t-165.5 -135.5q93 -53 141 -139t48 -185q0 -95 -35.5 -176.5t-99.5 -143t-155 -95.5t-203 -34 q-114 0 -206 31t-157.5 86.5t-101 132.5t-35.5 168zM333 420q0 -103 67.5 -162t164.5 -59q103 0 174.5 60.5t71.5 170.5q0 50 -18.5 89.5t-51 67t-75 42t-89.5 14.5q-48 0 -91.5 -14.5t-77 -42t-54.5 -69t-21 -97.5zM472 1032q0 -81 54.5 -126t126.5 -45q79 0 136 50.5 t57 138.5q0 79 -54 124.5t-123 45.5q-79 0 -138 -48.5t-59 -139.5z" />
<glyph unicode="9" horiz-adv-x="1180" d="M83 337h254q14 -57 53.5 -96.5t126.5 -39.5q67 0 122.5 31t98 86t70 131t40.5 167q-53 -59 -123 -89t-144 -30q-95 0 -172.5 32t-133.5 90t-85.5 137t-29.5 175q0 112 37.5 206t105.5 161.5t158.5 105t198.5 37.5q88 0 173 -30.5t152 -98t108.5 -175t41.5 -260.5 q0 -186 -39 -350.5t-118.5 -287.5t-197.5 -193.5t-275 -70.5q-182 0 -295 97.5t-127 264.5zM418 941q0 -97 57.5 -163t153.5 -66q54 0 97.5 21.5t74 58.5t48.5 86t18 101q0 101 -55.5 172t-153.5 71q-54 0 -97.5 -22.5t-75.5 -62t-49.5 -90t-17.5 -106.5z" />
<glyph unicode=":" horiz-adv-x="506" d="M20 0l53 292h278l-49 -292h-282zM124 600l52 292h282l-53 -292h-281z" />
<glyph unicode=";" horiz-adv-x="506" d="M-37 -325l25 139q61 0 101.5 31t52.5 106l10 49h-132l53 292h278l-61 -363q-23 -128 -111 -191t-216 -63zM124 600l52 292h282l-53 -292h-281z" />
<glyph unicode="&#x3c;" horiz-adv-x="898" d="M67 432l45 255l798 363l-49 -278l-541 -220l464 -219l-48 -262z" />
<glyph unicode="=" horiz-adv-x="967" d="M35 244l40 228h800l-40 -228h-800zM114 687l38 227h799l-37 -227h-800z" />
<glyph unicode="&#x3e;" horiz-adv-x="898" d="M2 69l47 278l539 220l-464 219l48 262l674 -361l-45 -255z" />
<glyph unicode="?" horiz-adv-x="1050" d="M146 991q9 99 49 181.5t105.5 143t153.5 93t195 32.5q91 0 167 -26.5t130.5 -76t85 -118t30.5 -148.5q0 -137 -73 -228.5t-211 -166.5q-75 -42 -121.5 -85.5t-58.5 -119.5l-8 -52h-228l13 74q12 75 35.5 127t56 88.5t69.5 63t74 48.5q58 33 95 63t59 58.5t31.5 57 t9.5 59.5q0 67 -43.5 111t-126.5 44q-51 0 -92.5 -17.5t-73 -48.5t-51 -71.5t-25.5 -85.5h-247zM261 0l49 286h280l-50 -286h-279z" />
<glyph unicode="@" horiz-adv-x="1589" d="M126 720q0 162 57 299t156 237t232.5 156.5t284.5 56.5q125 0 245.5 -40.5t215 -118t152 -193.5t57.5 -267q0 -101 -31 -191t-83.5 -157.5t-123 -106.5t-149.5 -39q-81 0 -133.5 35t-74.5 95q-45 -67 -106 -101t-122 -34q-67 0 -117.5 30.5t-78 84t-30.5 128.5t22 164 q20 74 58.5 134.5t85 103t98 66.5t103.5 24q60 0 95.5 -28t55.5 -71l21 65h194l-122 -401q-16 -57 0.5 -87.5t50.5 -30.5q40 0 75 26.5t62 70t42.5 100t15.5 118.5q0 119 -42.5 203t-110.5 140t-154 83t-173 27q-112 0 -209 -42.5t-169.5 -117.5t-114 -182t-41.5 -237 q0 -140 41.5 -248t116 -181.5t177.5 -111t222 -37.5q138 0 237.5 41.5t155.5 87.5h234q-44 -62 -105 -117t-138.5 -95.5t-172.5 -64t-209 -23.5q-162 0 -299.5 52t-237.5 149t-158 235.5t-58 310.5zM687.5 587q13.5 -50 58.5 -50q48 0 92.5 49t71.5 136q56 188 -49 188 q-46 0 -88.5 -47.5t-71.5 -140.5q-27 -85 -13.5 -135z" />
<glyph unicode="A" horiz-adv-x="1308" d="M-69 0l742 1407h268l251 -1407h-265l-46 286h-536l-142 -286h-272zM456 507h388l-76 482q-4 16 -6 39.5t-3 45.5t-2.5 37.5t-1.5 17.5q0 -2 -6.5 -17.5t-14.5 -36.5t-17.5 -43.5t-17.5 -38.5z" />
<glyph unicode="B" horiz-adv-x="1289" d="M45 0l247 1407h547q188 0 287.5 -94.5t99.5 -244.5q0 -107 -48.5 -193.5t-180.5 -132.5q105 -47 154 -124.5t49 -193.5q0 -110 -40.5 -190t-109.5 -132.5t-162.5 -77t-198.5 -24.5h-644zM339 229h338q112 0 186 48t74 163q0 85 -50 131.5t-153 46.5h-327zM446 848h300 q117 0 169.5 45.5t52.5 134.5q0 58 -36 104.5t-121 46.5h-304z" />
<glyph unicode="C" horiz-adv-x="1482" d="M114 649q0 162 53.5 305.5t150 252.5t228 171.5t285.5 62.5q114 0 214.5 -33.5t179 -95t131.5 -147t73 -188.5h-273q-18 49 -44 91.5t-64.5 73.5t-91 48.5t-123.5 17.5q-103 0 -185.5 -42.5t-141 -116.5t-90 -175.5t-31.5 -220.5q0 -207 98 -325.5t279 -118.5 q76 0 134.5 21.5t102 56.5t73 76.5t45.5 82.5h281q-31 -112 -92 -199t-144.5 -148.5t-187.5 -92.5t-219 -31q-151 0 -270 54t-201.5 145t-126 214t-43.5 261z" />
<glyph unicode="D" horiz-adv-x="1360" d="M45 0l247 1407h403q140 0 254.5 -45.5t194.5 -127.5t124.5 -196t44.5 -250q0 -190 -59.5 -337t-165 -247.5t-247.5 -152t-304 -51.5h-492zM341 238h209q133 0 227 47.5t154 124t87.5 175t27.5 201.5q0 51 -14 119t-54.5 126.5t-112 99t-186.5 40.5h-172z" />
<glyph unicode="E" horiz-adv-x="1178" d="M45 0l247 1407h947l-41 -236h-691l-59 -323h584l-41 -234h-584l-66 -379h707l-41 -235h-962z" />
<glyph unicode="F" horiz-adv-x="1125" d="M45 0l247 1407h916l-41 -236h-660l-63 -352h563l-41 -235h-563l-101 -584h-257z" />
<glyph unicode="G" horiz-adv-x="1496" d="M114 645q0 162 53.5 306.5t151 253t232 172.5t295.5 64q125 0 224 -40t172.5 -104t119 -143.5t63.5 -158.5h-279q-12 33 -34 70.5t-58 69.5t-89 52.5t-123 20.5q-105 0 -189 -42.5t-144.5 -117.5t-92 -177.5t-31.5 -221.5q0 -205 97 -324.5t266 -119.5q85 0 155 25 t121.5 69t83 104.5t44.5 127.5h-358l41 233h600l-134 -764h-237l24 138q-58 -78 -153 -120.5t-211 -42.5q-136 0 -249 53t-193.5 144t-124 213t-43.5 260z" />
<glyph unicode="H" horiz-adv-x="1366" d="M45 0l247 1407h256l-100 -572h578l101 572h257l-247 -1407h-256l104 602h-578l-103 -602h-259z" />
<glyph unicode="I" horiz-adv-x="543" d="M52 0l246 1407h256l-244 -1407h-258z" />
<glyph unicode="J" horiz-adv-x="1050" d="M31 442l8 57h259l-10 -69q-5 -32 -5 -59q0 -158 163 -158q48 0 83.5 16.5t60 44.5t39 64.5t20.5 77.5l172 991h261l-178 -1022q-16 -93 -51.5 -168t-91.5 -127.5t-134 -81t-181 -28.5q-105 0 -190.5 27.5t-141.5 86t-79 144.5q-13 48 -13 104q0 47 9 100z" />
<glyph unicode="K" horiz-adv-x="1281" d="M45 0l247 1407h256l-104 -594l632 594h318l-632 -594l403 -813h-284l-316 631l-182 -171l-79 -460h-259z" />
<glyph unicode="L" horiz-adv-x="1087" d="M45 0l247 1407h256l-205 -1174h636l-42 -233h-892z" />
<glyph unicode="M" horiz-adv-x="1638" d="M45 0l247 1407h363l139 -1060l481 1060h381l-245 -1407h-253l186 1059l-479 -1059h-271l-116 1059l-184 -1059h-249z" />
<glyph unicode="N" horiz-adv-x="1370" d="M45 0l247 1407h292l382 -1043l182 1043h240l-247 -1407h-289l-384 1042l-182 -1042h-241z" />
<glyph unicode="O" horiz-adv-x="1511" d="M114 649q0 162 52.5 305.5t148 252.5t228 171.5t288.5 62.5q143 0 259 -53.5t198 -144.5t126 -214t44 -261q0 -162 -52 -306t-146.5 -252.5t-226 -171.5t-293.5 -63q-144 0 -260 54t-197.5 145t-125 214t-43.5 261zM385 653q0 -103 26.5 -185.5t74 -139.5t116 -88 t150.5 -31q101 0 183.5 45.5t139 122t87 177.5t30.5 214q0 101 -27.5 182.5t-75 139.5t-114.5 88t-148 30q-99 0 -179.5 -42.5t-140 -116.5t-91 -175.5t-31.5 -220.5z" />
<glyph unicode="P" horiz-adv-x="1224" d="M45 0l247 1407h484q105 0 188.5 -31.5t144 -86t92.5 -130t32 -166.5q0 -105 -37.5 -193t-107.5 -153.5t-171.5 -101.5t-229.5 -36h-296l-87 -509h-259zM432 740h255q136 0 211 57t75 188q0 83 -55 135.5t-154 52.5h-255z" />
<glyph unicode="Q" horiz-adv-x="1506" d="M114 649q0 162 52.5 305.5t148 252.5t228 171.5t288.5 62.5q143 0 259 -53.5t198 -144.5t126 -214t44 -261q0 -168 -56 -315t-157 -256l174 -197h-300l-51 58q-73 -40 -157 -61.5t-177 -21.5q-144 0 -259 54t-195.5 145t-123 214t-42.5 261zM385 653q0 -103 25.5 -185.5 t72 -141.5t114 -90t149.5 -31q91 0 166 28l-235 272h300l113 -130q51 76 76.5 176t25.5 217q0 101 -27.5 182.5t-75 139.5t-114.5 88t-148 30q-99 0 -179.5 -42.5t-140 -116.5t-91 -175.5t-31.5 -220.5z" />
<glyph unicode="R" horiz-adv-x="1306" d="M45 0l247 1407h558q93 0 172 -27.5t135.5 -77t89 -120.5t32.5 -160q0 -136 -73 -232.5t-207 -138.5q39 -18 68 -39.5t47 -53.5q18 -30 24 -76q4 -31 4 -74q0 -20 -1 -42l-8 -188q-1 -20 -1 -38q0 -38 6 -66q8 -40 25 -74h-253q-16 29 -26 68q-7 27 -6 64q0 15 1 32 l11 205v19q0 84 -32 122q-36 42 -132 42h-329l-95 -552h-257zM436 776h328q116 0 184 53.5t68 163.5q0 172 -195 172h-316z" />
<glyph unicode="S" horiz-adv-x="1275" d="M41 458h257q10 -121 90 -186t234 -67h10q127 1 202 49q78 50 78 137q0 39 -18.5 69t-59 56t-103 50t-152.5 54q-97 33 -167.5 71.5t-117 87t-69 110.5t-22.5 147q0 87 38 162t106.5 129.5t162.5 84t208 29.5q140 0 236 -41t156 -105q60 -65 86 -143q24 -73 24 -140v-11 h-263q-16 211 -256 211q-101 0 -170 -41.5t-69 -120.5q0 -35 12 -61.5t42 -50.5t80.5 -45.5t125.5 -46.5q99 -35 182 -72.5t143 -87t93 -116.5t33 -163q0 -97 -38.5 -175t-109 -136.5t-171.5 -89.5t-227 -31q-128 0 -232.5 31t-181.5 92.5t-121.5 151t-50.5 208.5z" />
<glyph unicode="T" horiz-adv-x="1116" d="M166 1171l41 236h1009l-41 -236h-376l-205 -1171h-257l205 1171h-376z" />
<glyph unicode="U" horiz-adv-x="1294" d="M132 579l147 828h256l-148 -853q-11 -63 -11 -115q0 -88 31 -144q49 -90 191 -90q254 0 310 316l156 886h260l-164 -923q-43 -249 -185 -379t-387 -130q-267 -1 -387 155q-84 109 -84 286q0 76 15 163z" />
<glyph unicode="V" horiz-adv-x="1196" d="M172 1407h266l104 -880q2 -27 5 -64t5 -72t3.5 -60t1.5 -27q0 2 10 28t23.5 61t29 72.5t27.5 61.5l412 880h275l-697 -1407h-260z" />
<glyph unicode="W" horiz-adv-x="1759" d="M172 1407h264l36 -738q2 -42 3 -87t1 -81.5v-61.5v-25q0 2 9 28t22.5 62t30 78t35.5 82l333 743h248l75 -736q4 -42 6 -86.5t4 -81.5t2 -62v-27q0 2 8 27t21 59.5t28 77t32 82.5l292 747h273l-588 -1407h-259l-69 815q-4 31 -5 70t-3.5 74.5t-2.5 59.5v23 q0 -2 -9.5 -24.5t-22 -55.5t-26.5 -71.5t-27 -69.5l-356 -821h-258z" />
<glyph unicode="X" horiz-adv-x="1207" d="M-73 0l561 720l-293 687h289l187 -483l355 483h300l-540 -687l310 -720h-289l-203 515l-377 -515h-300z" />
<glyph unicode="Y" horiz-adv-x="1192" d="M168 1407h280l193 -608l405 608h288l-606 -872l-93 -535h-260l95 540z" />
<glyph unicode="Z" horiz-adv-x="1153" d="M-33 0l39 225l855 946h-664l41 236h991l-39 -224l-855 -948h707l-41 -235h-1034z" />
<glyph unicode="[" horiz-adv-x="673" d="M4 -250l325 1872h478l-37 -209h-243l-252 -1454h242l-35 -209h-478z" />
<glyph unicode="\" horiz-adv-x="731" d="M170 1622h242l196 -1874h-242z" />
<glyph unicode="]" horiz-adv-x="673" d="M-81 -252l38 209h244l255 1454h-245l37 209h478l-329 -1872h-478z" />
<glyph unicode="^" horiz-adv-x="1125" d="M75 505l531 902h219l217 -902h-256l-131 575l-335 -575h-245z" />
<glyph unicode="_" horiz-adv-x="1089" d="M-146 -364l39 220h1071l-37 -220h-1073z" />
<glyph unicode="`" horiz-adv-x="1064" d="M424 1531h302l52 -305h-184z" />
<glyph unicode="a" horiz-adv-x="1232" d="M77 488q0 136 43.5 247t114.5 190.5t162 123t189 43.5q124 0 205.5 -60.5t122.5 -154.5l31 189h245l-142 -807q-10 -57 -9 -112v-27q3 -68 13 -120h-241q-7 24 -15 68q-6 35 -6 67v17q-44 -75 -122 -126t-186 -51q-83 0 -156.5 38.5t-129.5 106.5t-87.5 162.5 t-31.5 205.5zM337 501q0 -140 61.5 -220t166.5 -80q53 0 105 25.5t92.5 75t65 119t24.5 156.5q0 130 -62 212t-163 82q-55 0 -108 -27t-93.5 -74.5t-64.5 -116.5t-24 -152z" />
<glyph unicode="b" horiz-adv-x="1248" d="M39 0l269 1539h249l-107 -610q24 32 54.5 60.5t70 51.5t88.5 37t109 14q80 0 153.5 -38t129.5 -106.5t88 -162.5t32 -206q0 -137 -43.5 -247.5t-116 -190t-165 -123t-195.5 -43.5q-130 0 -213.5 64t-123.5 164l-34 -203h-245zM377 490q0 -130 66 -209.5t171 -79.5 q58 0 112 25.5t96.5 73t67 115t24.5 152.5q0 140 -67 222t-170 82q-56 0 -111 -27t-96.5 -76.5t-67 -120t-25.5 -157.5z" />
<glyph unicode="c" horiz-adv-x="1135" d="M75 492q0 138 46.5 249t126 188.5t181.5 120t214 42.5q91 0 168 -28t133.5 -79.5t92 -122t47.5 -155.5h-255q-18 77 -69 119.5t-133 42.5q-57 0 -110 -26t-93.5 -73.5t-64.5 -115.5t-24 -155q0 -132 60.5 -215t169.5 -83q86 0 145.5 45.5t83.5 113.5h263 q-49 -184 -184 -284.5t-316 -100.5q-101 0 -189.5 38.5t-154 106.5t-102 163.5t-36.5 208.5z" />
<glyph unicode="d" horiz-adv-x="1248" d="M77 488q0 136 43.5 247t115.5 190.5t165 123t195 43.5q64 0 117 -17.5t94 -48.5t72 -71.5t50 -85.5l115 670h251l-269 -1539h-244l25 138q-23 -31 -55 -60t-71.5 -51.5t-86 -37t-102.5 -14.5q-87 0 -162 38.5t-131.5 106.5t-89 162.5t-32.5 205.5zM337 501 q0 -140 64.5 -220t173.5 -80q55 0 110 25.5t96.5 75t67.5 119t26 156.5q0 63 -18 117t-48.5 93.5t-75 61.5t-96.5 22q-57 0 -111 -27t-96.5 -74.5t-67.5 -116.5t-25 -152z" />
<glyph unicode="e" horiz-adv-x="1176" d="M64 497q0 130 47 239.5t125 188t180.5 123t212.5 44.5q126 0 224 -49.5t161 -136.5q62 -88 84 -204q11 -58 12 -119q0 -64 -12 -133h-780q10 -122 74 -186.5t181 -64.5q68 0 130.5 25.5t92.5 77.5h272q-60 -156 -192 -241.5t-317 -85.5q-115 0 -205.5 40.5t-155 111 t-99.5 165.5t-35 205zM335 633h515q-10 116 -71.5 178t-166.5 62q-101 0 -174.5 -63.5t-102.5 -176.5z" />
<glyph unicode="f" horiz-adv-x="687" d="M25 -259l194 1113h-122l35 212h125l14 88q16 105 57 179t97.5 119.5t127.5 66t152 20.5q29 0 62.5 -4t61.5 -13l-37 -209q-16 4 -36 7.5t-36 3.5q-37 0 -69.5 -8.5t-58 -28t-45.5 -54.5t-28 -92l-12 -75h219l-37 -212h-219l-195 -1113h-250z" />
<glyph unicode="g" horiz-adv-x="1240" d="M2 -99h263q20 -71 72 -103.5t153 -32.5q120 0 195 72t99 210l15 83q-46 -55 -121.5 -105t-185.5 -50q-87 0 -162 38.5t-131.5 106.5t-89 162.5t-32.5 205.5q0 136 43.5 247t115.5 190.5t165 123t195 43.5q130 0 214 -67.5t123 -168.5l35 210h244l-182 -1041 q-43 -244 -179.5 -364.5t-349.5 -120.5q-118 0 -209 29.5t-154 79t-97.5 114.5t-38.5 138zM337 501q0 -140 64.5 -220t173.5 -80q55 0 110 25.5t96.5 75t67.5 119t26 156.5q0 63 -18 117t-48.5 93.5t-75 61.5t-96.5 22q-57 0 -111 -27t-96.5 -74.5t-67.5 -116.5t-25 -152z " />
<glyph unicode="h" d="M39 0l269 1539h249l-109 -623q48 71 122.5 123.5t184.5 52.5q79 0 142 -34t103 -97t54 -153q5 -35 6 -73q0 -60 -14 -129l-107 -606h-248l108 620q6 33 6 62q-1 63 -27 112q-38 71 -139 71t-161 -59.5t-79 -170.5l-109 -635h-251z" />
<glyph unicode="i" horiz-adv-x="523" d="M43 0l186 1066h251l-186 -1066h-251zM250 1218l46 259h261l-44 -259h-263z" />
<glyph unicode="j" horiz-adv-x="523" d="M-219 -432l37 215h44q68 0 110 28.5t55 99.5l202 1155h251l-207 -1182q-32 -176 -137 -246t-282 -70h-73zM250 1218l46 259h261l-44 -259h-263z" />
<glyph unicode="k" horiz-adv-x="1091" d="M39 0l269 1539h249l-158 -906l449 433h291l-466 -446l300 -620h-264l-219 448l-149 -142l-51 -306h-251z" />
<glyph unicode="l" horiz-adv-x="523" d="M43 0l269 1539h249l-267 -1539h-251z" />
<glyph unicode="m" horiz-adv-x="1778" d="M39 0l186 1066h245l-30 -162q48 77 123.5 132.5t180.5 55.5q95 0 163 -51.5t98 -144.5q85 112 179.5 154t191.5 42q76 0 138.5 -34t102 -97t54.5 -153q6 -38 6 -79q0 -58 -12 -123l-108 -606h-248l108 620q6 37 6 69q1 60 -21 106q-34 70 -134 70q-99 0 -157.5 -59.5 t-76.5 -170.5l-110 -635h-249l107 620q6 36 6 68q0 61 -22 107q-34 70 -133 70t-157 -59.5t-77 -170.5l-109 -635h-251z" />
<glyph unicode="n" d="M39 0l186 1066h245l-30 -162q48 77 126.5 132.5t188.5 55.5q79 0 142 -34t103 -97t54 -153q5 -35 6 -73q0 -60 -14 -129l-107 -606h-248l108 620q6 33 6 62q-1 63 -27 112q-38 71 -139 71t-161 -59.5t-79 -170.5l-109 -635h-251z" />
<glyph unicode="o" horiz-adv-x="1202" d="M77 499q0 130 45.5 239.5t122.5 188t179.5 122t218.5 43.5q101 0 190 -40.5t155 -110.5t103.5 -166t37.5 -208q0 -137 -45.5 -246.5t-123 -186t-180.5 -118t-217 -41.5q-101 0 -190 39.5t-154 110t-103.5 166.5t-38.5 208zM333 499q0 -142 68 -221t178 -79q59 0 112 26.5 t93.5 75t63.5 117t23 151.5q0 136 -69.5 218t-174.5 82q-59 0 -112 -27t-93.5 -75.5t-64.5 -117t-24 -150.5z" />
<glyph unicode="p" horiz-adv-x="1248" d="M-37 -432l262 1498h245l-28 -150q24 33 55.5 65.5t72 57.5t91.5 39t111 14q80 0 153.5 -38t129.5 -106.5t88 -162.5t32 -206q0 -137 -43.5 -247.5t-116 -190t-165 -123t-195.5 -43.5q-130 0 -212.5 62t-122.5 155l-107 -624h-250zM377 490q0 -130 66 -209.5t171 -79.5 q58 0 112 25.5t96.5 73t67 115t24.5 152.5q0 140 -67 222t-170 82q-56 0 -111 -27t-96.5 -76.5t-67 -120t-25.5 -157.5z" />
<glyph unicode="q" horiz-adv-x="1248" d="M77 488q0 136 43.5 247t115.5 190.5t165 123t195 43.5q130 0 214 -67.5t123 -168.5l35 210h244l-263 -1498h-248l98 562q-46 -55 -121.5 -105t-185.5 -50q-87 0 -162 38.5t-131.5 106.5t-89 162.5t-32.5 205.5zM337 501q0 -140 64.5 -220t173.5 -80q55 0 110 25.5 t96.5 75t67.5 119t26 156.5q0 63 -18 117t-48.5 93.5t-75 61.5t-96.5 22q-57 0 -111 -27t-96.5 -74.5t-67.5 -116.5t-25 -152z" />
<glyph unicode="r" horiz-adv-x="801" d="M39 0l186 1066h251l-36 -197q72 125 176 173q84 39 180 39q24 0 48 -3l-45 -253q-46 9 -88 9q-27 0 -53 -4q-66 -9 -119 -39.5t-88 -84t-48 -122.5l-101 -584h-263z" />
<glyph unicode="s" horiz-adv-x="1054" d="M10 329h255q10 -70 70 -106.5t164 -36.5q95 0 146.5 29t55.5 83q0 51 -56.5 78t-164.5 56q-67 16 -130.5 39t-114.5 60.5t-81 94.5q-26 50 -26 124v20q6 142 114.5 232t311.5 90q208 0 320.5 -88t124.5 -230h-251q-12 41 -60.5 74t-147.5 33q-78 0 -121.5 -26t-43.5 -69 v-7q1 -43 43 -67q46 -26 147 -54q63 -17 131 -37.5t124 -58.5q55 -36 89 -94q32 -54 32 -142v-10q-6 -168 -123 -254.5t-330 -86.5q-116 0 -206 29t-150 78q-60 48 -92 112q-30 61 -30 127v8z" />
<glyph unicode="t" horiz-adv-x="736" d="M97 854l35 212h135l51 300h249l-50 -300h219l-35 -212h-221l-85 -473q-5 -28 -5 -52q0 -124 135 -124q18 0 38.5 2t36.5 6l-37 -217q-24 -4 -50.5 -8t-50.5 -4q-182 0 -266 108q-60 77 -60 194q0 48 10 103l83 465h-132z" />
<glyph unicode="u" d="M108 254q-6 37 -6 77q0 60 12 129l105 606h251l-110 -622q-7 -41 -7 -75q1 -63 25 -105q38 -64 143 -63q97 0 158 62t81 167l111 636h250l-188 -1066h-242l29 162q-47 -77 -123 -132t-185 -55q-79 0 -143 32t-105.5 94.5t-55.5 152.5z" />
<glyph unicode="v" horiz-adv-x="1083" d="M120 1066h259l95 -604q6 -34 9 -69t4 -66t2 -50.5t1 -21.5q0 2 7.5 22.5t19.5 49.5t27 63t31 66l315 610h260l-581 -1066h-238z" />
<glyph unicode="w" horiz-adv-x="1579" d="M124 1066h261l41 -561q2 -31 2 -64.5v-62.5t-1 -47.5t-1 -20.5q0 2 7 20.5t17 46.5t23 59.5t26 57.5l269 572h225l79 -563q4 -29 5 -61t1 -61.5v-49v-21.5q0 2 6 21.5t14.5 47.5t19.5 59.5t21 55.5l239 572h268l-496 -1066h-242l-69 584q-4 27 -5 56t-3 54.5t-2 43v20.5 q-2 -5 -7 -22.5t-14 -42t-19.5 -52t-20.5 -51.5l-278 -590h-246z" />
<glyph unicode="x" horiz-adv-x="1044" d="M-69 0l454 550l-247 516h280l139 -326l242 326h293l-426 -516l263 -550h-280l-152 362l-272 -362h-294z" />
<glyph unicode="y" horiz-adv-x="1081" d="M-39 -432l39 217h58q88 0 144.5 31.5t87.5 92.5l37 73l-205 1084h259l99 -608q6 -32 9 -69.5t4 -68t2.5 -52.5t1.5 -24q0 2 7 24t19 52.5t27 66t31 66.5l307 613h260l-664 -1250q-73 -136 -180 -192t-255 -56h-88z" />
<glyph unicode="z" horiz-adv-x="973" d="M-39 0l37 207l643 641h-511l40 218h823l-40 -216l-635 -633h549l-44 -217h-862z" />
<glyph unicode="{" horiz-adv-x="700" d="M62 600l33 192q99 -2 158 46t82 171l48 266q18 107 57.5 178t97.5 110.5t131 51t162 3.5l-35 -201q-79 6 -121 -36.5t-59 -129.5l-51 -289q-24 -123 -77.5 -186.5t-160.5 -96.5q101 -42 129 -117.5t6 -201.5l-42 -232q-6 -41 -5 -75.5t13 -58t39 -37t73 -11.5l-35 -201 q-176 -10 -266.5 91.5t-54.5 301.5l39 222q23 124 -19 180t-142 60z" />
<glyph unicode="|" horiz-adv-x="555" d="M176 -331v1870h229v-1870h-229z" />
<glyph unicode="}" horiz-adv-x="698" d="M-79 -248l36 201q80 -7 121.5 35.5t57.5 129.5l52 289q20 122 76 186.5t162 97.5q-99 41 -127 116.5t-5 201.5l39 232q14 83 -8.5 133.5t-111.5 48.5l37 201q176 10 265 -91.5t54 -301.5l-40 -222q-23 -124 20 -179.5t144 -59.5l-33 -193q-101 2 -160.5 -45.5 t-81.5 -171.5l-47 -265q-19 -110 -58.5 -180.5t-97 -109t-131.5 -51.5t-163 -2z" />
<glyph unicode="~" horiz-adv-x="880" d="M89 436q18 131 80 208.5t162 77.5q44 0 79.5 -12.5t68 -25.5t61.5 -26t56 -13q35 0 57 20t38 67h120q-12 -124 -74 -206t-158 -82q-44 0 -80.5 13t-70 26.5t-63.5 25.5t-57 12q-71 0 -99 -85h-120z" />
<glyph unicode="&#xa1;" horiz-adv-x="596" d="M33 -217l213 987h194l-134 -987h-273zM225 904l50 286h279l-47 -286h-282z" />
<glyph unicode="&#xa2;" horiz-adv-x="1135" d="M75 492q0 138 46.5 249t126 188.5t181.5 120t214 42.5q56 0 109 -12l102 225h145l-124 -271q87 -49 142 -134t71 -193h-253q-14 60 -57 108l-275 -610q25 -8 62 -8q86 0 148.5 47.5t87.5 115.5h261q-50 -184 -187 -284.5t-318 -100.5q-75 0 -147 23l-102 -225h-146 l128 283q-99 66 -157 178.5t-58 257.5zM333 499q0 -132 60 -215l265 587q-9 0 -16 1t-15 1q-57 0 -110 -26t-93.5 -74.5t-65.5 -117.5t-25 -156z" />
<glyph unicode="&#xa3;" horiz-adv-x="1112" d="M20 168q130 78 207 176t77 229q0 4 -1 10.5t-1 10.5h-207l27 172h141q-17 49 -29.5 102.5t-12.5 120.5q0 103 35.5 186.5t97.5 143t148 91t189 31.5q101 0 182.5 -32.5t138 -92t85 -139t24.5 -174.5h-240q4 87 -44.5 148t-153.5 63t-160 -62t-55 -165q0 -54 11 -108 t24 -113h302l-29 -172h-253q0 -110 -49.5 -206t-140.5 -163q30 10 61.5 20t67.5 10q45 0 85.5 -8.5t76.5 -18t70 -16.5t68 -7q45 0 83 19.5t73 48.5l100 -194q-62 -54 -130.5 -76.5t-129.5 -22.5q-58 0 -108 13t-96.5 29.5t-94 30.5t-101.5 14q-60 0 -118 -23.5t-118 -63.5z " />
<glyph unicode="&#xa5;" horiz-adv-x="1192" d="M73 259l28 163h347l24 130h-350l30 164h266l-250 691h285l188 -596l397 596h296l-495 -691h270l-29 -164h-350l-23 -130h350l-29 -163h-349l-44 -259h-260l45 259h-347z" />
<glyph unicode="&#xa6;" horiz-adv-x="519" d="M-2 -331l144 834h224l-145 -834h-223zM184 742l138 797h224l-139 -797h-223z" />
<glyph unicode="&#xa7;" horiz-adv-x="1112" d="M91 643q0 112 58 176t157 99q-62 81 -62 185q0 71 25 132.5t73.5 107t120.5 72t168 26.5q83 0 158.5 -22.5t133.5 -64t93.5 -102t40.5 -135.5h-250q-6 41 -47.5 74t-118.5 33q-76 0 -110 -34t-34 -79q0 -20 6 -38.5t23.5 -33.5t48.5 -30.5t78 -29.5q73 -24 145.5 -53.5 t130.5 -71t94 -98.5t36 -136q0 -107 -57 -170t-154 -99q30 -35 45 -77.5t15 -95.5q0 -73 -26 -135.5t-75 -111.5t-124 -77t-170 -28q-89 0 -164.5 25t-129 69.5t-85 104.5t-31.5 129h244q7 -40 47 -75.5t119 -35.5q69 0 104.5 38.5t35.5 88.5q0 37 -31.5 64t-127.5 58 q-73 23 -145 52t-128.5 69t-93 96t-36.5 134zM345 687q0 -52 50.5 -92.5t183.5 -81.5q29 -10 55 -19.5t53 -21.5q114 27 114 112q0 51 -51 91.5t-181 82.5q-28 8 -53.5 17t-47.5 21q-123 -25 -123 -109z" />
<glyph unicode="&#xa8;" horiz-adv-x="1064" d="M345 1226l42 236h242l-41 -236h-243zM722 1226l40 236h241l-41 -236h-240z" />
<glyph unicode="&#xa9;" horiz-adv-x="1652" d="M152 709q0 152 55.5 285t150.5 232.5t223 157t275 57.5q145 0 273 -57.5t224.5 -157t151 -232.5t54.5 -285q0 -153 -54.5 -286t-151 -232.5t-224.5 -157.5t-273 -58q-146 0 -274.5 58t-223.5 157.5t-150.5 233t-55.5 285.5zM267 709q0 -132 45.5 -247t125 -200.5 t187 -135t231.5 -49.5q125 0 232.5 49.5t186.5 135t125 200.5t46 247q0 130 -46 246.5t-125 201t-186.5 134t-232.5 49.5q-124 0 -231.5 -49.5t-187 -134t-125 -201t-45.5 -246.5zM448 709q0 91 31.5 171t87 139t132.5 93t166 34q74 0 139.5 -24t116 -67.5t86.5 -103 t54 -134.5h-239q-45 107 -155 107q-79 0 -125.5 -61.5t-46.5 -153.5q0 -89 46.5 -152t125.5 -63q53 0 94.5 27t60.5 81h239q-14 -75 -50 -136t-88.5 -104.5t-118 -67t-139.5 -23.5q-89 0 -166 34t-132.5 93.5t-87 139.5t-31.5 171z" />
<glyph unicode="&#xaa;" horiz-adv-x="938" d="M112 792q0 66 26 113.5t72.5 80t109.5 48.5t138 20q142 11 206 41t64 84q0 87 -147 87q-54 0 -97.5 -28t-59.5 -75h-227q27 122 132 200t265 78q195 0 281.5 -94t61.5 -242l-60 -359q-10 -63 -7 -109.5t7 -69.5h-217q-5 16 -7 47t0 71q-33 -54 -100 -96.5t-166 -42.5 q-56 0 -107 17.5t-87.5 50.5t-58.5 77.5t-22 100.5zM335 803q0 -33 24.5 -59t90.5 -26q91 0 157 46.5t78 121.5l14 82q-46 -26 -104 -40t-123 -20q-69 -6 -103 -34t-34 -71z" />
<glyph unicode="&#xab;" horiz-adv-x="987" d="M58 444l33 185l440 350l-49 -300l-223 -160l165 -163l-45 -261zM505 444l30 185l446 350l-50 -300l-226 -160l168 -163l-46 -261z" />
<glyph unicode="&#xac;" horiz-adv-x="489" d="M110 552l50 292h280l-51 -292h-279z" />
<glyph unicode="&#xad;" horiz-adv-x="690" d="M73 450l41 247h519l-43 -247h-517z" />
<glyph unicode="&#xae;" horiz-adv-x="1157" d="M156 927q0 105 38.5 199t105 163.5t156.5 109.5t193 40q101 0 191.5 -40t158 -109.5t105 -163.5t37.5 -199t-37.5 -199.5t-105 -164t-158 -109.5t-191.5 -40q-103 0 -193 40t-156.5 109.5t-105 163.5t-38.5 200zM275 927q0 -85 27 -158.5t76.5 -128t118 -87t152.5 -32.5 q83 0 152.5 32.5t119.5 87t76.5 128t26.5 158.5q0 83 -26.5 156t-76.5 129t-119.5 88t-152.5 32q-84 0 -152.5 -32t-118 -88t-76.5 -129.5t-27 -155.5zM434 666v526h249q95 0 149 -44.5t54 -123.5q0 -53 -24.5 -81.5t-58.5 -40.5q31 -10 55.5 -35t24.5 -79v-122h-157v104 q0 59 -60 59h-76v-163h-156zM590 949h63q38 0 53.5 16t15.5 42q0 29 -15.5 44t-53.5 15h-63v-117z" />
<glyph unicode="&#xaf;" horiz-adv-x="1064" d="M397 1253l31 174h521l-29 -174h-523z" />
<glyph unicode="&#xb0;" horiz-adv-x="756" d="M172 1111q0 71 25.5 130.5t70 104t103.5 70t126 25.5q62 0 115.5 -23.5t91.5 -64t61 -96t23 -120.5q0 -70 -26 -130t-70.5 -104.5t-103.5 -70t-124 -25.5q-62 0 -116 23.5t-92.5 65t-61 96.5t-22.5 119zM333 1105q0 -69 37.5 -110.5t97.5 -41.5q70 0 114.5 57.5 t44.5 130.5q0 69 -36.5 111.5t-98.5 42.5q-73 0 -116 -57t-43 -133z" />
<glyph unicode="&#xb1;" horiz-adv-x="489" d="M110 552l50 292h280l-51 -292h-279z" />
<glyph unicode="&#xb2;" horiz-adv-x="661" d="M122 709l16 92q8 51 33.5 91.5t59.5 73.5t76 59.5t88 50.5q71 35 99.5 67t28.5 71q0 31 -14.5 50t-48.5 19q-40 0 -64.5 -26t-29.5 -63h-165q14 101 83.5 168t185.5 67q107 0 166 -60t59 -151q0 -51 -16.5 -89.5t-45.5 -68.5t-69.5 -53.5t-85.5 -46.5q-71 -36 -103 -59.5 t-42 -46.5h287l-24 -145h-474z" />
<glyph unicode="&#xb3;" horiz-adv-x="687" d="M158 964h158q-4 -54 22 -87t86 -33q54 0 78.5 25t24.5 62q0 30 -20.5 48t-48.5 18h-63l21 140h48q31 0 54.5 20t23.5 59q0 25 -17.5 48t-56.5 23q-48 0 -72.5 -33.5t-29.5 -59.5h-157q6 45 26 88.5t53.5 75.5t81.5 51.5t108 19.5q57 0 100.5 -17.5t72 -44.5t42.5 -62 t14 -68q0 -53 -24.5 -102t-94.5 -65q55 -17 80 -61.5t25 -86.5q0 -103 -75.5 -164t-191.5 -61q-138 0 -211 74.5t-57 192.5z" />
<glyph unicode="&#xb4;" horiz-adv-x="1064" d="M525 1226l141 305h315l-263 -305h-193z" />
<glyph unicode="&#xb5;" horiz-adv-x="489" d="M110 552l50 292h280l-51 -292h-279z" />
<glyph unicode="&#xb6;" horiz-adv-x="1214" d="M130 916q0 114 39.5 205t110.5 154t168.5 97.5t215.5 34.5h567l-298 -1697h-203l263 1500h-145l-262 -1500h-203l157 787h-3q-95 0 -170 33t-128 91t-81 133t-28 162z" />
<glyph unicode="&#xb7;" horiz-adv-x="489" d="M110 552l50 292h280l-51 -292h-279z" />
<glyph unicode="&#xb8;" horiz-adv-x="1064" d="M160 -325h152q16 -48 83 -48q31 0 59 20t28 55q0 37 -24 58t-59 21q-29 0 -48.5 -10.5t-32.5 -25.5l-78 71l155 184h138l-109 -116q10 2 34 2q70 0 124.5 -46.5t54.5 -133.5q0 -47 -19.5 -83.5t-53 -61.5t-76 -37t-87.5 -12q-89 0 -155 43.5t-86 119.5z" />
<glyph unicode="&#xb9;" horiz-adv-x="539" d="M190 1135l23 122q67 4 120.5 39.5t76.5 110.5h127l-119 -698h-172l72 426h-128z" />
<glyph unicode="&#xba;" horiz-adv-x="994" d="M152 964q0 105 36.5 192t99.5 150.5t147 98t175 34.5q81 0 153 -31.5t126 -87.5t85 -133.5t31 -166.5q0 -110 -37 -198t-100 -149t-147 -94t-175 -33q-82 0 -154 31t-125.5 87t-84 132.5t-30.5 167.5zM369 964q0 -111 52.5 -169.5t137.5 -58.5q45 0 87.5 21t73 58 t49.5 89.5t19 115.5q0 105 -53.5 166t-136.5 61q-46 0 -87 -19.5t-73.5 -57t-50.5 -90t-18 -116.5z" />
<glyph unicode="&#xbb;" horiz-adv-x="1008" d="M12 95l52 300l226 159l-170 164l46 261l324 -350l-32 -185zM462 95l51 300l221 159l-165 164l45 261l321 -350l-31 -185z" />
<glyph unicode="&#xbc;" horiz-adv-x="1770" d="M184 1101l25 138q97 2 160 44.5t84 123.5h151l-146 -844h-199l92 538h-167zM255 0l986 1407h200l-985 -1407h-201zM920 162l27 160l447 522h211l-91 -530h126l-27 -152h-125l-30 -162h-177l28 162h-389zM1127 314h209l54 323z" />
<glyph unicode="&#xbd;" horiz-adv-x="1768" d="M184 1101l25 138q97 2 160 44.5t84 123.5h151l-146 -844h-199l92 538h-167zM255 0l986 1407h200l-985 -1407h-201zM987 0l16 93q23 126 110 211t200 138q95 46 131.5 85.5t36.5 90.5q0 35 -25 62t-66 27q-46 0 -75.5 -35t-35.5 -80h-189q4 55 27.5 105.5t63 89t95.5 61.5 t127 23q61 0 109.5 -20t84 -53.5t54.5 -79t19 -98.5q0 -67 -23 -114.5t-61.5 -85t-89 -66.5t-108.5 -56q-83 -39 -116 -74.5t-39 -63.5h360l-30 -160h-576z" />
<glyph unicode="&#xbe;" horiz-adv-x="1950" d="M138 846h193q0 -63 34 -95.5t95 -32.5q59 0 92.5 37t33.5 74q0 44 -29.5 67.5t-53.5 23.5h-71l28 158h41q41 0 71 28.5t30 72.5q0 35 -21.5 63t-69.5 28q-47 0 -79.5 -33t-36.5 -74h-192q16 118 98 195t224 77q71 0 121.5 -20.5t85 -54.5t51 -75.5t16.5 -84.5 q0 -67 -36.5 -119.5t-102.5 -77.5q59 -20 90.5 -72t31.5 -118q0 -45 -21 -92.5t-61 -86t-100 -63.5t-140 -25q-87 0 -149.5 27t-101.5 69.5t-57 96t-14 107.5zM432 0l987 1407h201l-987 -1407h-201zM1098 162l29 160l445 522h211l-91 -530h126l-26 -152h-127l-29 -162h-178 l30 162h-390zM1305 314h209l54 323z" />
<glyph unicode="&#xbf;" horiz-adv-x="1050" d="M12 118q0 137 73 227.5t211 167.5q75 41 121.5 84.5t58.5 120.5l8 52h228l-13 -75q-12 -75 -36 -126.5t-56 -89t-69 -63t-74 -47.5q-58 -36 -95.5 -65t-59 -57t-31 -56.5t-9.5 -60.5q0 -66 42.5 -110.5t126.5 -44.5q52 0 93.5 17.5t72.5 49t51 72t26 85.5h246 q-10 -99 -50 -182.5t-105 -143t-153 -92.5t-195 -33q-91 0 -167.5 26.5t-130 76.5t-84 118t-30.5 149zM484 904l47 286h282l-49 -286h-280z" />
<glyph unicode="&#xc0;" horiz-adv-x="1308" d="M-69 0l742 1407h268l251 -1407h-265l-46 286h-536l-142 -286h-272zM456 507h388l-76 482q-4 16 -6 39.5t-3 45.5t-2.5 37.5t-1.5 17.5q0 -2 -6.5 -17.5t-14.5 -36.5t-17.5 -43.5t-17.5 -38.5zM544 1814h302l52 -304h-184z" />
<glyph unicode="&#xc1;" horiz-adv-x="1308" d="M-69 0l742 1407h268l251 -1407h-265l-46 286h-536l-142 -286h-272zM456 507h388l-76 482q-4 16 -6 39.5t-3 45.5t-2.5 37.5t-1.5 17.5q0 -2 -6.5 -17.5t-14.5 -36.5t-17.5 -43.5t-17.5 -38.5zM720 1510l141 304h314l-263 -304h-192z" />
<glyph unicode="&#xc2;" horiz-adv-x="1308" d="M-69 0l742 1407h268l251 -1407h-265l-46 286h-536l-142 -286h-272zM456 507h388l-76 482q-4 16 -6 39.5t-3 45.5t-2.5 37.5t-1.5 17.5q0 -2 -6.5 -17.5t-14.5 -36.5t-17.5 -43.5t-17.5 -38.5zM478 1510l308 318h159l207 -318h-209l-101 146l-143 -146h-221z" />
<glyph unicode="&#xc3;" horiz-adv-x="1308" d="M-69 0l742 1407h268l251 -1407h-265l-46 286h-536l-142 -286h-272zM456 507h388l-76 482q-4 16 -6 39.5t-3 45.5t-2.5 37.5t-1.5 17.5q0 -2 -6.5 -17.5t-14.5 -36.5t-17.5 -43.5t-17.5 -38.5zM494 1504q8 55 29 104.5t51 86t70.5 58.5t89.5 22q40 0 71.5 -14.5t60 -31 t53 -31t47.5 -14.5q63 0 86 91h125q-10 -56 -30 -105.5t-48.5 -86t-67 -58t-86.5 -21.5q-37 0 -70 13.5t-62 31t-55 31t-51 13.5q-64 0 -89 -89h-124z" />
<glyph unicode="&#xc4;" horiz-adv-x="1308" d="M-69 0l742 1407h268l251 -1407h-265l-46 286h-536l-142 -286h-272zM456 507h388l-76 482q-4 16 -6 39.5t-3 45.5t-2.5 37.5t-1.5 17.5q0 -2 -6.5 -17.5t-14.5 -36.5t-17.5 -43.5t-17.5 -38.5zM507 1510l41 236h242l-42 -236h-241zM883 1510l39 236h243l-42 -236h-240z " />
<glyph unicode="&#xc5;" horiz-adv-x="1308" d="M-69 0l742 1407h268l251 -1407h-265l-46 286h-536l-142 -286h-272zM456 507h388l-76 482q-4 16 -6 39.5t-3 45.5t-2.5 37.5t-1.5 17.5q0 -2 -6.5 -17.5t-14.5 -36.5t-17.5 -43.5t-17.5 -38.5zM604 1713q0 45 17.5 85.5t47.5 70.5t70.5 47.5t87.5 17.5q46 0 86 -17.5 t71.5 -47.5t48.5 -70.5t17 -85.5t-17 -84.5t-48.5 -70t-71.5 -47.5t-86 -17q-47 0 -87.5 17t-70.5 47.5t-47.5 70t-17.5 84.5zM728 1713q0 -43 29 -74.5t70 -31.5q42 0 69.5 31.5t27.5 74.5t-27.5 74t-69.5 31q-41 0 -70 -31t-29 -74z" />
<glyph unicode="&#xc6;" horiz-adv-x="1925" d="M-69 0l839 1407h1214l-40 -236h-693l-57 -323h583l-40 -234h-585l-64 -379h706l-42 -235h-962l49 282h-483l-166 -282h-259zM488 503h389l118 668h-109z" />
<glyph unicode="&#xc7;" horiz-adv-x="1502" d="M114 649q0 162 53.5 305.5t150 252.5t228 171.5t285.5 62.5q114 0 214.5 -33.5t179 -95t131.5 -147t73 -188.5h-273q-18 49 -44 91.5t-64.5 73.5t-91 48.5t-123.5 17.5q-103 0 -185.5 -42.5t-141 -116.5t-90 -175.5t-31.5 -220.5q0 -207 98 -325.5t279 -118.5 q76 0 134.5 21.5t102 56.5t73 76.5t45.5 82.5h281q-29 -105 -84 -187.5t-131 -142.5t-169.5 -95t-196.5 -44l-89 -93q10 2 34 2q70 0 124.5 -46.5t54.5 -133.5q0 -47 -19.5 -83.5t-53 -61.5t-76 -37t-87.5 -12q-89 0 -155 43.5t-86 119.5h152q16 -48 83 -48q31 0 59 20 t28 55q0 37 -24 58t-59 21q-29 0 -48.5 -10.5t-32.5 -25.5l-78 71l137 164q-135 12 -240.5 69.5t-178 148t-110.5 206t-38 245.5z" />
<glyph unicode="&#xc8;" horiz-adv-x="1178" d="M45 0l247 1407h947l-41 -236h-691l-59 -323h584l-41 -234h-584l-66 -379h707l-41 -235h-962zM511 1814h302l52 -304h-184z" />
<glyph unicode="&#xc9;" horiz-adv-x="1178" d="M45 0l247 1407h947l-41 -236h-691l-59 -323h584l-41 -234h-584l-66 -379h707l-41 -235h-962zM687 1510l140 304h314l-262 -304h-192z" />
<glyph unicode="&#xca;" horiz-adv-x="1178" d="M45 0l247 1407h947l-41 -236h-691l-59 -323h584l-41 -234h-584l-66 -379h707l-41 -235h-962zM444 1510l308 318h160l207 -318h-209l-101 146l-143 -146h-222z" />
<glyph unicode="&#xcb;" horiz-adv-x="1178" d="M45 0l247 1407h947l-41 -236h-691l-59 -323h584l-41 -234h-584l-66 -379h707l-41 -235h-962zM474 1510l41 236h243l-42 -236h-242zM850 1510l40 236h241l-41 -236h-240z" />
<glyph unicode="&#xcc;" horiz-adv-x="543" d="M52 0l246 1407h256l-244 -1407h-258zM170 1814h302l51 -304h-184z" />
<glyph unicode="&#xcd;" horiz-adv-x="543" d="M52 0l246 1407h256l-244 -1407h-258zM345 1510l141 304h315l-264 -304h-192z" />
<glyph unicode="&#xce;" horiz-adv-x="543" d="M52 0l246 1407h256l-244 -1407h-258zM103 1510l309 318h159l207 -318h-209l-101 146l-143 -146h-222z" />
<glyph unicode="&#xcf;" horiz-adv-x="543" d="M52 0l246 1407h256l-244 -1407h-258zM132 1510l42 236h242l-41 -236h-243zM509 1510l39 236h242l-42 -236h-239z" />
<glyph unicode="&#xd0;" horiz-adv-x="1381" d="M35 596l42 233h134l101 578h404q140 0 254 -45.5t194.5 -127.5t125 -196t44.5 -250q0 -190 -60 -337t-165.5 -247.5t-247 -152t-302.5 -51.5h-492l103 596h-135zM362 238h209q132 0 226.5 47.5t154 124t88 175t28.5 201.5q0 51 -15 119t-55.5 126.5t-111.5 99t-187 40.5 h-174l-59 -342h339l-41 -233h-340z" />
<glyph unicode="&#xd1;" horiz-adv-x="1370" d="M45 0l247 1407h292l382 -1043l182 1043h240l-247 -1407h-289l-384 1042l-182 -1042h-241zM542 1504q8 55 29 104.5t50.5 86t70 58.5t90.5 22q39 0 71.5 -14.5t60 -31t52.5 -31t48 -14.5q64 0 87 91h123q-10 -56 -29.5 -105.5t-48.5 -86t-67.5 -58t-85.5 -21.5 q-38 0 -70.5 13.5t-62 31t-55 31t-50.5 13.5q-63 0 -89 -89h-124z" />
<glyph unicode="&#xd2;" horiz-adv-x="1511" d="M114 649q0 162 52.5 305.5t148 252.5t228 171.5t288.5 62.5q143 0 259 -53.5t198 -144.5t126 -214t44 -261q0 -162 -52 -306t-146.5 -252.5t-226 -171.5t-293.5 -63q-144 0 -260 54t-197.5 145t-125 214t-43.5 261zM385 653q0 -103 26.5 -185.5t74 -139.5t116 -88 t150.5 -31q101 0 183.5 45.5t139 122t87 177.5t30.5 214q0 101 -27.5 182.5t-75 139.5t-114.5 88t-148 30q-99 0 -179.5 -42.5t-140 -116.5t-91 -175.5t-31.5 -220.5zM602 1814h302l51 -304h-183z" />
<glyph unicode="&#xd3;" horiz-adv-x="1511" d="M114 649q0 162 52.5 305.5t148 252.5t228 171.5t288.5 62.5q143 0 259 -53.5t198 -144.5t126 -214t44 -261q0 -162 -52 -306t-146.5 -252.5t-226 -171.5t-293.5 -63q-144 0 -260 54t-197.5 145t-125 214t-43.5 261zM385 653q0 -103 26.5 -185.5t74 -139.5t116 -88 t150.5 -31q101 0 183.5 45.5t139 122t87 177.5t30.5 214q0 101 -27.5 182.5t-75 139.5t-114.5 88t-148 30q-99 0 -179.5 -42.5t-140 -116.5t-91 -175.5t-31.5 -220.5zM778 1510l140 304h315l-262 -304h-193z" />
<glyph unicode="&#xd4;" horiz-adv-x="1511" d="M114 649q0 162 52.5 305.5t148 252.5t228 171.5t288.5 62.5q143 0 259 -53.5t198 -144.5t126 -214t44 -261q0 -162 -52 -306t-146.5 -252.5t-226 -171.5t-293.5 -63q-144 0 -260 54t-197.5 145t-125 214t-43.5 261zM385 653q0 -103 26.5 -185.5t74 -139.5t116 -88 t150.5 -31q101 0 183.5 45.5t139 122t87 177.5t30.5 214q0 101 -27.5 182.5t-75 139.5t-114.5 88t-148 30q-99 0 -179.5 -42.5t-140 -116.5t-91 -175.5t-31.5 -220.5zM535 1510l309 318h159l207 -318h-209l-101 146l-142 -146h-223z" />
<glyph unicode="&#xd5;" horiz-adv-x="1511" d="M114 649q0 162 52.5 305.5t148 252.5t228 171.5t288.5 62.5q143 0 259 -53.5t198 -144.5t126 -214t44 -261q0 -162 -52 -306t-146.5 -252.5t-226 -171.5t-293.5 -63q-144 0 -260 54t-197.5 145t-125 214t-43.5 261zM385 653q0 -103 26.5 -185.5t74 -139.5t116 -88 t150.5 -31q101 0 183.5 45.5t139 122t87 177.5t30.5 214q0 101 -27.5 182.5t-75 139.5t-114.5 88t-148 30q-99 0 -179.5 -42.5t-140 -116.5t-91 -175.5t-31.5 -220.5zM552 1504q9 55 29.5 104.5t50.5 86t70 58.5t90 22q39 0 71.5 -14.5t60 -31t52.5 -31t48 -14.5q64 0 87 91 h124q-10 -56 -29.5 -105.5t-49 -86t-68 -58t-85.5 -21.5q-37 0 -70 13.5t-62 31t-55 31t-50 13.5q-64 0 -89 -89h-125z" />
<glyph unicode="&#xd6;" horiz-adv-x="1511" d="M114 649q0 162 52.5 305.5t148 252.5t228 171.5t288.5 62.5q143 0 259 -53.5t198 -144.5t126 -214t44 -261q0 -162 -52 -306t-146.5 -252.5t-226 -171.5t-293.5 -63q-144 0 -260 54t-197.5 145t-125 214t-43.5 261zM385 653q0 -103 26.5 -185.5t74 -139.5t116 -88 t150.5 -31q101 0 183.5 45.5t139 122t87 177.5t30.5 214q0 101 -27.5 182.5t-75 139.5t-114.5 88t-148 30q-99 0 -179.5 -42.5t-140 -116.5t-91 -175.5t-31.5 -220.5zM565 1510l41 236h242l-41 -236h-242zM941 1510l40 236h241l-41 -236h-240z" />
<glyph unicode="&#xd7;" horiz-adv-x="1004" d="M64 341l305 275l-211 272l167 150l210 -270l300 270l136 -159l-307 -277l213 -269l-165 -151l-213 268l-298 -268z" />
<glyph unicode="&#xd8;" horiz-adv-x="1511" d="M-25 43l238 224q-47 80 -73 177.5t-26 204.5q0 162 52.5 305.5t148 252.5t228 171.5t288.5 62.5q137 0 249 -48.5t193 -135.5l223 210l99 -108l-234 -220q48 -81 72.5 -174.5t24.5 -196.5q0 -162 -52 -306t-146.5 -252.5t-226 -171.5t-293.5 -63q-136 0 -245.5 47 t-190.5 126l-231 -215zM385 653q0 -107 29 -197l678 632q-48 57 -115 88.5t-150 31.5q-99 0 -179.5 -42.5t-140 -116.5t-91 -175.5t-31.5 -220.5zM488 322q95 -113 264 -113q101 0 183.5 45.5t139 122t87 177.5t30.5 214q0 53 -7.5 99.5t-19.5 87.5z" />
<glyph unicode="&#xd9;" horiz-adv-x="1294" d="M132 579l147 828h256l-148 -853q-29 -169 20 -259t191 -90q254 0 310 316l156 886h260l-164 -923q-43 -249 -185 -379t-387 -130q-267 0 -387 155.5t-69 448.5zM529 1814h302l52 -304h-184z" />
<glyph unicode="&#xda;" horiz-adv-x="1294" d="M132 579l147 828h256l-148 -853q-29 -169 20 -259t191 -90q254 0 310 316l156 886h260l-164 -923q-43 -249 -185 -379t-387 -130q-267 0 -387 155.5t-69 448.5zM705 1510l141 304h314l-262 -304h-193z" />
<glyph unicode="&#xdb;" horiz-adv-x="1294" d="M132 579l147 828h256l-148 -853q-29 -169 20 -259t191 -90q254 0 310 316l156 886h260l-164 -923q-43 -249 -185 -379t-387 -130q-267 0 -387 155.5t-69 448.5zM464 1510l308 318h159l206 -318h-208l-102 146l-142 -146h-221z" />
<glyph unicode="&#xdc;" horiz-adv-x="1294" d="M132 579l147 828h256l-148 -853q-29 -169 20 -259t191 -90q254 0 310 316l156 886h260l-164 -923q-43 -249 -185 -379t-387 -130q-267 0 -387 155.5t-69 448.5zM492 1510l41 236h243l-42 -236h-242zM869 1510l39 236h242l-41 -236h-240z" />
<glyph unicode="&#xdd;" horiz-adv-x="1192" d="M168 1407h280l193 -608l405 608h288l-606 -872l-93 -535h-260l95 540zM655 1510l141 304h315l-263 -304h-193z" />
<glyph unicode="&#xde;" horiz-adv-x="1222" d="M45 0l247 1407h256l-35 -215h225q105 0 189 -31.5t144 -86t92.5 -130t32.5 -166.5q0 -105 -37.5 -193t-107.5 -153.5t-171.5 -101.5t-230.5 -36h-295l-50 -294h-259zM395 525h254q137 0 211.5 57t74.5 188q0 82 -54 134.5t-153 52.5h-256z" />
<glyph unicode="&#xdf;" horiz-adv-x="1204" d="M-6 -259l235 1353q38 213 165 329t328 116q91 0 166.5 -28t129.5 -78.5t83.5 -123t29.5 -159.5q0 -122 -58.5 -214t-172.5 -142q107 -54 157 -141.5t50 -196.5q0 -97 -30.5 -184.5t-91.5 -152.5t-150 -102t-206 -37q-66 0 -127.5 11t-102.5 29l37 218q42 -18 81.5 -25.5 t84.5 -7.5q114 0 182 68t68 189q0 92 -51 149.5t-162 57.5h-106l40 225h58q112 0 178 61t66 184q0 87 -43.5 130.5t-117.5 43.5q-87 0 -151 -57.5t-87 -191.5l-232 -1323h-250z" />
<glyph unicode="&#xe0;" horiz-adv-x="1232" d="M77 488q0 136 43.5 247t114.5 190.5t162 123t189 43.5q124 0 205.5 -60.5t122.5 -154.5l31 189h245l-142 -807q-12 -71 -9 -139t13 -120h-241q-8 23 -15.5 67.5t-5.5 84.5q-44 -75 -122 -126t-186 -51q-83 0 -156.5 38.5t-129.5 106.5t-87.5 162.5t-31.5 205.5zM337 501 q0 -140 61.5 -220t166.5 -80q53 0 105 25.5t92.5 75t65 119t24.5 156.5q0 130 -62 212t-163 82q-55 0 -108 -27t-93.5 -74.5t-64.5 -116.5t-24 -152zM416 1531h302l52 -305h-184z" />
<glyph unicode="&#xe1;" horiz-adv-x="1232" d="M77 488q0 136 43.5 247t114.5 190.5t162 123t189 43.5q124 0 205.5 -60.5t122.5 -154.5l31 189h245l-142 -807q-12 -71 -9 -139t13 -120h-241q-8 23 -15.5 67.5t-5.5 84.5q-44 -75 -122 -126t-186 -51q-83 0 -156.5 38.5t-129.5 106.5t-87.5 162.5t-31.5 205.5zM337 501 q0 -140 61.5 -220t166.5 -80q53 0 105 25.5t92.5 75t65 119t24.5 156.5q0 130 -62 212t-163 82q-55 0 -108 -27t-93.5 -74.5t-64.5 -116.5t-24 -152zM592 1226l140 305h314l-262 -305h-192z" />
<glyph unicode="&#xe2;" horiz-adv-x="1232" d="M77 488q0 136 43.5 247t114.5 190.5t162 123t189 43.5q124 0 205.5 -60.5t122.5 -154.5l31 189h245l-142 -807q-12 -71 -9 -139t13 -120h-241q-8 23 -15.5 67.5t-5.5 84.5q-44 -75 -122 -126t-186 -51q-83 0 -156.5 38.5t-129.5 106.5t-87.5 162.5t-31.5 205.5zM337 501 q0 -140 61.5 -220t166.5 -80q53 0 105 25.5t92.5 75t65 119t24.5 156.5q0 130 -62 212t-163 82q-55 0 -108 -27t-93.5 -74.5t-64.5 -116.5t-24 -152zM349 1226l309 319h159l207 -319h-209l-101 148l-143 -148h-222z" />
<glyph unicode="&#xe3;" horiz-adv-x="1232" d="M77 488q0 136 43.5 247t114.5 190.5t162 123t189 43.5q124 0 205.5 -60.5t122.5 -154.5l31 189h245l-142 -807q-12 -71 -9 -139t13 -120h-241q-8 23 -15.5 67.5t-5.5 84.5q-44 -75 -122 -126t-186 -51q-83 0 -156.5 38.5t-129.5 106.5t-87.5 162.5t-31.5 205.5zM337 501 q0 -140 61.5 -220t166.5 -80q53 0 105 25.5t92.5 75t65 119t24.5 156.5q0 130 -62 212t-163 82q-55 0 -108 -27t-93.5 -74.5t-64.5 -116.5t-24 -152zM366 1220q8 56 29 106t51 86t70.5 58t89.5 22q39 0 71 -15t60.5 -31.5t53 -31t46.5 -14.5q64 0 87 92h124 q-10 -56 -29.5 -106t-48.5 -86t-67 -58t-86 -22q-37 0 -70 13.5t-62.5 31.5t-55 31t-50.5 13q-64 0 -89 -89h-124z" />
<glyph unicode="&#xe4;" horiz-adv-x="1232" d="M77 488q0 136 43.5 247t114.5 190.5t162 123t189 43.5q124 0 205.5 -60.5t122.5 -154.5l31 189h245l-142 -807q-12 -71 -9 -139t13 -120h-241q-8 23 -15.5 67.5t-5.5 84.5q-44 -75 -122 -126t-186 -51q-83 0 -156.5 38.5t-129.5 106.5t-87.5 162.5t-31.5 205.5zM337 501 q0 -140 61.5 -220t166.5 -80q53 0 105 25.5t92.5 75t65 119t24.5 156.5q0 130 -62 212t-163 82q-55 0 -108 -27t-93.5 -74.5t-64.5 -116.5t-24 -152zM379 1226l41 236h242l-42 -236h-241zM755 1226l39 236h242l-41 -236h-240z" />
<glyph unicode="&#xe5;" horiz-adv-x="1232" d="M77 488q0 136 43.5 247t114.5 190.5t162 123t189 43.5q124 0 205.5 -60.5t122.5 -154.5l31 189h245l-142 -807q-12 -71 -9 -139t13 -120h-241q-8 23 -15.5 67.5t-5.5 84.5q-44 -75 -122 -126t-186 -51q-83 0 -156.5 38.5t-129.5 106.5t-87.5 162.5t-31.5 205.5zM337 501 q0 -140 61.5 -220t166.5 -80q53 0 105 25.5t92.5 75t65 119t24.5 156.5q0 130 -62 212t-163 82q-55 0 -108 -27t-93.5 -74.5t-64.5 -116.5t-24 -152zM499 1429q0 46 17 86t47.5 70t71 47.5t87.5 17.5q46 0 86 -17.5t71 -47.5t48.5 -70t17.5 -86q0 -45 -17.5 -84.5 t-48.5 -69.5t-71 -47.5t-86 -17.5q-47 0 -87.5 17.5t-71 47.5t-47.5 69.5t-17 84.5zM622 1429q0 -43 29.5 -74t70.5 -31q42 0 69.5 31t27.5 74q0 44 -27.5 75t-69.5 31q-41 0 -70.5 -31t-29.5 -75z" />
<glyph unicode="&#xe6;" horiz-adv-x="1871" d="M31 282q0 93 34 154t93 98t138 54.5t168 23.5q177 12 258 46.5t81 107.5q0 53 -44.5 86.5t-140.5 33.5q-77 0 -131.5 -33.5t-76.5 -106.5h-272q42 158 169 252t328 94q135 0 218.5 -37t125.5 -104q70 67 158.5 104t194.5 37q126 0 222 -49.5t157.5 -136.5t82 -203.5 t-1.5 -252.5h-778q10 -122 73 -186.5t181 -64.5q66 0 131 29t95 86h268q-53 -164 -188 -251.5t-321 -87.5q-142 0 -247.5 60t-168.5 164q-72 -116 -181.5 -170t-262.5 -54q-77 0 -143 18.5t-114.5 57t-76.5 96.5t-28 135zM290 296q0 -50 36.5 -85t129.5 -35q55 0 105.5 16.5 t89 46.5t63 71t30.5 89l16 114q-54 -31 -124.5 -49t-153.5 -26q-93 -10 -142.5 -42t-49.5 -100zM1030 633h513q-8 116 -65 178t-160 62q-105 0 -180.5 -63.5t-107.5 -176.5z" />
<glyph unicode="&#xe7;" horiz-adv-x="1135" d="M75 492q0 138 46.5 249t126 188.5t181.5 120t214 42.5q91 0 168 -28t133.5 -79.5t92 -122t47.5 -155.5h-255q-18 77 -69 119.5t-133 42.5q-57 0 -110 -26t-93.5 -73.5t-64.5 -115.5t-24 -155q0 -132 60.5 -215t169.5 -83q86 0 145.5 45.5t83.5 113.5h263 q-47 -176 -171 -274t-292 -109l-87 -93q10 2 33 2q71 0 125.5 -46.5t54.5 -133.5q0 -47 -19.5 -83.5t-53 -61.5t-76 -37t-87.5 -12q-89 0 -155 43.5t-87 119.5h153q16 -48 83 -48q31 0 59 20t28 55q0 37 -24 58t-59 21q-30 0 -49 -10.5t-32 -25.5l-79 71l142 168 q-85 14 -155.5 58.5t-123.5 110.5t-81.5 152t-28.5 187z" />
<glyph unicode="&#xe8;" horiz-adv-x="1176" d="M64 497q0 130 47 239.5t125 188t180.5 123t212.5 44.5q126 0 224 -49.5t160.5 -136.5t85 -203.5t-0.5 -252.5h-780q10 -122 74 -186.5t181 -64.5q68 0 130.5 25.5t92.5 77.5h272q-60 -156 -192 -241.5t-317 -85.5q-115 0 -205.5 40.5t-155 111t-99.5 165.5t-35 205z M335 633h515q-10 116 -71.5 178t-166.5 62q-101 0 -174.5 -63.5t-102.5 -176.5zM391 1531h302l52 -305h-184z" />
<glyph unicode="&#xe9;" horiz-adv-x="1176" d="M64 497q0 130 47 239.5t125 188t180.5 123t212.5 44.5q126 0 224 -49.5t160.5 -136.5t85 -203.5t-0.5 -252.5h-780q10 -122 74 -186.5t181 -64.5q68 0 130.5 25.5t92.5 77.5h272q-60 -156 -192 -241.5t-317 -85.5q-115 0 -205.5 40.5t-155 111t-99.5 165.5t-35 205z M335 633h515q-10 116 -71.5 178t-166.5 62q-101 0 -174.5 -63.5t-102.5 -176.5zM564 1226l141 305h315l-263 -305h-193z" />
<glyph unicode="&#xea;" horiz-adv-x="1176" d="M64 497q0 130 47 239.5t125 188t180.5 123t212.5 44.5q126 0 224 -49.5t160.5 -136.5t85 -203.5t-0.5 -252.5h-780q10 -122 74 -186.5t181 -64.5q68 0 130.5 25.5t92.5 77.5h272q-60 -156 -192 -241.5t-317 -85.5q-115 0 -205.5 40.5t-155 111t-99.5 165.5t-35 205z M322 1226l309 319h159l207 -319h-209l-101 148l-143 -148h-222zM335 633h515q-10 116 -71.5 178t-166.5 62q-101 0 -174.5 -63.5t-102.5 -176.5z" />
<glyph unicode="&#xeb;" horiz-adv-x="1176" d="M64 497q0 130 47 239.5t125 188t180.5 123t212.5 44.5q126 0 224 -49.5t160.5 -136.5t85 -203.5t-0.5 -252.5h-780q10 -122 74 -186.5t181 -64.5q68 0 130.5 25.5t92.5 77.5h272q-60 -156 -192 -241.5t-317 -85.5q-115 0 -205.5 40.5t-155 111t-99.5 165.5t-35 205z M335 633h515q-10 116 -71.5 178t-166.5 62q-101 0 -174.5 -63.5t-102.5 -176.5zM351 1226l42 236h242l-41 -236h-243zM728 1226l40 236h241l-41 -236h-240z" />
<glyph unicode="&#xec;" horiz-adv-x="523" d="M43 0l186 1066h251l-186 -1066h-251zM114 1531h302l52 -305h-184z" />
<glyph unicode="&#xed;" horiz-adv-x="523" d="M43 0l186 1066h251l-186 -1066h-251zM290 1226l140 305h314l-262 -305h-192z" />
<glyph unicode="&#xee;" horiz-adv-x="523" d="M43 0l186 1066h251l-186 -1066h-251zM47 1226l309 319h159l207 -319h-209l-101 148l-143 -148h-222z" />
<glyph unicode="&#xef;" horiz-adv-x="523" d="M43 0l186 1066h251l-186 -1066h-251zM77 1226l41 236h242l-42 -236h-241zM453 1226l39 236h242l-41 -236h-240z" />
<glyph unicode="&#xf0;" horiz-adv-x="1178" d="M73 497q0 124 43.5 224t113.5 171.5t158 109.5t175 38q99 0 163 -29.5t105 -79.5q-29 87 -68 153t-88 120l-150 -110l-77 112l123 89q-30 20 -59.5 39.5t-61.5 37.5l90 183q114 -47 218 -124l179 132l79 -107l-155 -114q116 -118 185 -283t69 -386q0 -164 -39.5 -293.5 t-110.5 -219t-173.5 -137.5t-226.5 -48q-103 0 -193 40.5t-157 111t-104.5 165.5t-37.5 205zM325 484q0 -62 18.5 -114t52.5 -90t79.5 -59.5t99.5 -21.5q57 0 107 25.5t87.5 72t58 111t20.5 140.5q0 127 -69.5 200t-176.5 73q-56 0 -107 -21.5t-87.5 -63t-59.5 -105.5 t-23 -147z" />
<glyph unicode="&#xf1;" d="M39 0l186 1066h245l-30 -162q48 77 126.5 132.5t188.5 55.5q79 0 142 -34t103 -97t54 -153t-8 -202l-107 -606h-248l108 620q18 103 -20.5 174t-139.5 71t-161 -59.5t-79 -170.5l-109 -635h-251zM331 1220q8 56 29 106t50.5 86t70 58t90.5 22q39 0 71.5 -15t60 -31.5 t52.5 -31t48 -14.5q64 0 87 92h124q-10 -56 -30 -106t-49 -86t-67.5 -58t-85.5 -22q-38 0 -70.5 13.5t-62 31.5t-55 31t-50.5 13q-63 0 -88 -89h-125z" />
<glyph unicode="&#xf2;" horiz-adv-x="1202" d="M77 499q0 130 45.5 239.5t122.5 188t179.5 122t218.5 43.5q101 0 190 -40.5t155 -110.5t103.5 -166t37.5 -208q0 -137 -45.5 -246.5t-123 -186t-180.5 -118t-217 -41.5q-101 0 -190 39.5t-154 110t-103.5 166.5t-38.5 208zM333 499q0 -142 68 -221t178 -79q59 0 112 26.5 t93.5 75t63.5 117t23 151.5q0 136 -69.5 218t-174.5 82q-59 0 -112 -27t-93.5 -75.5t-64.5 -117t-24 -150.5zM397 1531h302l51 -305h-183z" />
<glyph unicode="&#xf3;" horiz-adv-x="1202" d="M77 499q0 130 45.5 239.5t122.5 188t179.5 122t218.5 43.5q101 0 190 -40.5t155 -110.5t103.5 -166t37.5 -208q0 -137 -45.5 -246.5t-123 -186t-180.5 -118t-217 -41.5q-101 0 -190 39.5t-154 110t-103.5 166.5t-38.5 208zM333 499q0 -142 68 -221t178 -79q59 0 112 26.5 t93.5 75t63.5 117t23 151.5q0 136 -69.5 218t-174.5 82q-59 0 -112 -27t-93.5 -75.5t-64.5 -117t-24 -150.5zM573 1226l141 305h314l-262 -305h-193z" />
<glyph unicode="&#xf4;" horiz-adv-x="1202" d="M77 499q0 130 45.5 239.5t122.5 188t179.5 122t218.5 43.5q101 0 190 -40.5t155 -110.5t103.5 -166t37.5 -208q0 -137 -45.5 -246.5t-123 -186t-180.5 -118t-217 -41.5q-101 0 -190 39.5t-154 110t-103.5 166.5t-38.5 208zM331 1226l308 319h160l206 -319h-209l-101 148 l-143 -148h-221zM333 499q0 -142 68 -221t178 -79q59 0 112 26.5t93.5 75t63.5 117t23 151.5q0 136 -69.5 218t-174.5 82q-59 0 -112 -27t-93.5 -75.5t-64.5 -117t-24 -150.5z" />
<glyph unicode="&#xf5;" horiz-adv-x="1202" d="M77 499q0 130 45.5 239.5t122.5 188t179.5 122t218.5 43.5q101 0 190 -40.5t155 -110.5t103.5 -166t37.5 -208q0 -137 -45.5 -246.5t-123 -186t-180.5 -118t-217 -41.5q-101 0 -190 39.5t-154 110t-103.5 166.5t-38.5 208zM333 499q0 -142 68 -221t178 -79q59 0 112 26.5 t93.5 75t63.5 117t23 151.5q0 136 -69.5 218t-174.5 82q-59 0 -112 -27t-93.5 -75.5t-64.5 -117t-24 -150.5zM347 1220q9 56 29.5 106t51 86t70 58t90.5 22q39 0 71 -15t59.5 -31.5t52.5 -31t48 -14.5q64 0 87 92h124q-10 -56 -29.5 -106t-49 -86t-67.5 -58t-85 -22 q-37 0 -70.5 13.5t-62.5 31.5t-54.5 31t-50.5 13q-64 0 -89 -89h-125z" />
<glyph unicode="&#xf6;" horiz-adv-x="1202" d="M77 499q0 130 45.5 239.5t122.5 188t179.5 122t218.5 43.5q101 0 190 -40.5t155 -110.5t103.5 -166t37.5 -208q0 -137 -45.5 -246.5t-123 -186t-180.5 -118t-217 -41.5q-101 0 -190 39.5t-154 110t-103.5 166.5t-38.5 208zM333 499q0 -142 68 -221t178 -79q59 0 112 26.5 t93.5 75t63.5 117t23 151.5q0 136 -69.5 218t-174.5 82q-59 0 -112 -27t-93.5 -75.5t-64.5 -117t-24 -150.5zM360 1226l41 236h242l-41 -236h-242zM736 1226l40 236h242l-41 -236h-241z" />
<glyph unicode="&#xf7;" horiz-adv-x="1031" d="M81 507l39 231h865l-42 -231h-862zM306 112l48 281h277l-50 -281h-275zM434 852l50 281h276l-48 -281h-278z" />
<glyph unicode="&#xf8;" horiz-adv-x="1202" d="M-39 29l191 184q-36 60 -55.5 132.5t-19.5 153.5q0 130 45.5 239.5t122.5 188t179.5 122t218.5 43.5q87 0 162.5 -28t137.5 -79l196 190l94 -95l-199 -194q46 -67 70.5 -146.5t24.5 -172.5q0 -137 -45.5 -246.5t-123 -186t-180.5 -118t-217 -41.5q-97 0 -180 35t-150 97 l-179 -176zM333 499q0 -58 8 -100l433 420q-60 50 -147 50q-59 0 -112 -27t-93.5 -75.5t-64.5 -116.5t-24 -151zM401 271q66 -72 178 -72q59 0 112 26.5t93.5 75t63.5 117t23 151.5q0 39 -5 73.5t-16 64.5z" />
<glyph unicode="&#xf9;" d="M107.5 253.5q-14.5 89.5 6.5 206.5l105 606h251l-110 -622q-21 -116 17.5 -179.5t143.5 -63.5q97 0 158 62t81 167l111 636h250l-188 -1066h-242l29 162q-47 -77 -123 -132t-185 -55q-79 0 -143 32t-105.5 94.5t-56 152zM399 1531h302l51 -305h-183z" />
<glyph unicode="&#xfa;" d="M107.5 253.5q-14.5 89.5 6.5 206.5l105 606h251l-110 -622q-21 -116 17.5 -179.5t143.5 -63.5q97 0 158 62t81 167l111 636h250l-188 -1066h-242l29 162q-47 -77 -123 -132t-185 -55q-79 0 -143 32t-105.5 94.5t-56 152zM575 1226l141 305h314l-262 -305h-193z" />
<glyph unicode="&#xfb;" d="M107.5 253.5q-14.5 89.5 6.5 206.5l105 606h251l-110 -622q-21 -116 17.5 -179.5t143.5 -63.5q97 0 158 62t81 167l111 636h250l-188 -1066h-242l29 162q-47 -77 -123 -132t-185 -55q-79 0 -143 32t-105.5 94.5t-56 152zM333 1226l308 319h160l206 -319h-208l-102 148 l-143 -148h-221z" />
<glyph unicode="&#xfc;" d="M107.5 253.5q-14.5 89.5 6.5 206.5l105 606h251l-110 -622q-21 -116 17.5 -179.5t143.5 -63.5q97 0 158 62t81 167l111 636h250l-188 -1066h-242l29 162q-47 -77 -123 -132t-185 -55q-79 0 -143 32t-105.5 94.5t-56 152zM362 1226l41 236h242l-41 -236h-242zM738 1226 l40 236h242l-41 -236h-241z" />
<glyph unicode="&#xfd;" horiz-adv-x="1081" d="M-39 -432l39 217h58q88 0 144.5 31.5t87.5 92.5l37 73l-205 1084h259l99 -608q6 -32 9 -69.5t4 -68t2.5 -52.5t1.5 -24q0 2 7 24t19 52.5t27 66t31 66.5l307 613h260l-664 -1250q-73 -136 -180 -192t-255 -56h-88zM546 1226l141 305h314l-263 -305h-192z" />
<glyph unicode="&#xfe;" horiz-adv-x="1248" d="M-37 -432l345 1971h249l-107 -610q24 32 54.5 60.5t70 51.5t88.5 37t109 14q80 0 153.5 -38t129.5 -106.5t88 -162.5t32 -206q0 -137 -43.5 -247.5t-116 -190t-165 -123t-195.5 -43.5q-130 0 -212.5 62t-122.5 155l-107 -624h-250zM377 490q0 -130 66 -209.5t171 -79.5 q58 0 112 25.5t96.5 73t67 115t24.5 152.5q0 140 -67 222t-170 82q-56 0 -111 -27t-96.5 -76.5t-67 -120t-25.5 -157.5z" />
<glyph unicode="&#xff;" horiz-adv-x="1081" d="M-39 -432l39 217h58q88 0 144.5 31.5t87.5 92.5l37 73l-205 1084h259l99 -608q6 -32 9 -69.5t4 -68t2.5 -52.5t1.5 -24q0 2 7 24t19 52.5t27 66t31 66.5l307 613h260l-664 -1250q-73 -136 -180 -192t-255 -56h-88zM333 1226l42 236h241l-41 -236h-242zM709 1226l39 236 h243l-42 -236h-240z" />
<glyph unicode="&#x152;" horiz-adv-x="2208" d="M114 649q0 162 53.5 305.5t149 252.5t228 171.5t290.5 62.5q178 0 293 -75t177 -199l41 240h923l-41 -236h-691l-58 -323h583l-41 -234h-584l-65 -379h707l-42 -235h-934l24 142q-79 -78 -179 -122.5t-220 -44.5q-140 0 -254 54t-193.5 145t-123 214t-43.5 261zM385 653 q0 -103 26.5 -185.5t74 -139.5t116 -88t150.5 -31q101 0 183.5 45.5t139 122t87 177.5t30.5 214q0 101 -27.5 182.5t-75 139.5t-114.5 88t-148 30q-99 0 -179.5 -42.5t-140 -116.5t-91 -175.5t-31.5 -220.5z" />
<glyph unicode="&#x153;" horiz-adv-x="1976" d="M77 499q0 130 45.5 239.5t122.5 188t179.5 122t218.5 43.5q125 0 218.5 -57.5t154.5 -157.5q73 101 183 158t240 57q127 0 222 -49.5t156.5 -136.5t83 -203.5t-1.5 -252.5h-778q10 -122 72 -186.5t181 -64.5q68 0 132 29t93 86h271q-56 -164 -190.5 -251.5t-320.5 -87.5 q-132 0 -226.5 55t-149.5 148q-73 -99 -180.5 -151t-239.5 -52q-101 0 -190 39.5t-154 110t-103.5 166.5t-38.5 208zM333 499q0 -142 68 -221t178 -79q59 0 112 26.5t93.5 75t63.5 117t23 151.5q0 136 -69.5 218t-174.5 82q-59 0 -112 -27t-93.5 -75.5t-64.5 -117 t-24 -150.5zM1137 633h513q-8 116 -66 178t-161 62t-178.5 -63.5t-107.5 -176.5z" />
<glyph unicode="&#x178;" horiz-adv-x="1192" d="M168 1407h280l193 -608l405 608h288l-606 -872l-93 -535h-260l95 540zM442 1510l42 236h242l-41 -236h-243zM819 1510l39 236h243l-42 -236h-240z" />
<glyph unicode="&#x2c6;" horiz-adv-x="1064" d="M318 1226l309 319h159l207 -319h-209l-101 148l-143 -148h-222z" />
<glyph unicode="&#x2dc;" horiz-adv-x="1064" d="M335 1220q8 56 29 106t50.5 86t70 58t90.5 22q39 0 71.5 -15t60 -31.5t52.5 -31t48 -14.5q64 0 87 92h124q-10 -56 -30 -106t-49 -86t-67.5 -58t-85.5 -22q-38 0 -70.5 13.5t-62 31.5t-55 31t-50.5 13q-63 0 -88 -89h-125z" />
<glyph unicode="&#x2000;" horiz-adv-x="967" />
<glyph unicode="&#x2001;" horiz-adv-x="1934" />
<glyph unicode="&#x2002;" horiz-adv-x="967" />
<glyph unicode="&#x2003;" horiz-adv-x="1934" />
<glyph unicode="&#x2004;" horiz-adv-x="644" />
<glyph unicode="&#x2005;" horiz-adv-x="483" />
<glyph unicode="&#x2006;" horiz-adv-x="322" />
<glyph unicode="&#x2007;" horiz-adv-x="322" />
<glyph unicode="&#x2008;" horiz-adv-x="241" />
<glyph unicode="&#x2009;" horiz-adv-x="386" />
<glyph unicode="&#x200a;" horiz-adv-x="107" />
<glyph unicode="&#x2010;" horiz-adv-x="690" d="M73 450l41 247h519l-43 -247h-517z" />
<glyph unicode="&#x2011;" horiz-adv-x="690" d="M73 450l41 247h519l-43 -247h-517z" />
<glyph unicode="&#x2012;" horiz-adv-x="690" d="M73 450l41 247h519l-43 -247h-517z" />
<glyph unicode="&#x2013;" horiz-adv-x="1114" d="M73 450l41 247h943l-43 -247h-941z" />
<glyph unicode="&#x2014;" horiz-adv-x="1739" d="M73 450l41 247h1568l-44 -247h-1565z" />
<glyph unicode="&#x2018;" horiz-adv-x="466" d="M156 848l59 338q23 122 105.5 181.5t202.5 59.5l-22 -138q-56 0 -94 -28t-49 -94l-7 -42h121l-50 -277h-266z" />
<glyph unicode="&#x2019;" horiz-adv-x="466" d="M152 827l24 139q55 0 95.5 28t46.5 94l4 41h-117l50 278h266l-59 -337q-24 -123 -106.5 -183t-203.5 -60z" />
<glyph unicode="&#x201a;" horiz-adv-x="466" d="M-45 -302l25 138q55 0 92.5 28.5t47.5 94.5l6 41h-118l50 277h264l-57 -337q-21 -122 -105.5 -182t-204.5 -60z" />
<glyph unicode="&#x201c;" horiz-adv-x="870" d="M156 848l59 338q23 122 105.5 181.5t202.5 59.5l-22 -138q-56 0 -94 -28t-49 -94l-7 -42h121l-50 -277h-266zM559 848l59 338q23 122 106 181.5t205 59.5l-25 -138q-56 0 -94 -28t-48 -94l-7 -42h120l-50 -277h-266z" />
<glyph unicode="&#x201d;" horiz-adv-x="870" d="M152 827l24 139q55 0 95.5 28t46.5 94l4 41h-117l50 278h266l-59 -337q-24 -123 -106.5 -183t-203.5 -60zM554 827l25 139q55 0 94 28t49 94l6 41h-120l50 278h266l-59 -337q-24 -123 -106 -183t-205 -60z" />
<glyph unicode="&#x201e;" horiz-adv-x="870" d="M-45 -302l25 138q55 0 92.5 28.5t47.5 94.5l6 41h-118l50 277h264l-57 -337q-21 -122 -105.5 -182t-204.5 -60zM358 -302l25 138q55 0 92.5 28.5t47.5 94.5l6 41h-117l50 277h266l-59 -337q-24 -122 -106.5 -182t-204.5 -60z" />
<glyph unicode="&#x2022;" horiz-adv-x="614" d="M85 637q0 52 20.5 100.5t56 86t82 59t99.5 21.5q50 0 92.5 -17.5t73.5 -49.5t48.5 -75.5t17.5 -95.5q0 -56 -21 -104.5t-55.5 -86t-82.5 -58t-104 -20.5q-51 0 -93.5 19.5t-71.5 53t-45.5 77t-16.5 90.5z" />
<glyph unicode="&#x2026;" horiz-adv-x="1739" d="M12 0l52 292h279l-49 -292h-282zM637 0l52 292h279l-50 -292h-281zM1261 0l52 292h280l-50 -292h-282z" />
<glyph unicode="&#x202f;" horiz-adv-x="386" />
<glyph unicode="&#x2039;" horiz-adv-x="541" d="M58 444l33 185l442 350l-49 -300l-225 -160l167 -163l-45 -261z" />
<glyph unicode="&#x203a;" horiz-adv-x="541" d="M12 95l52 300l226 159l-170 164l46 261l324 -350l-32 -185z" />
<glyph unicode="&#x205f;" horiz-adv-x="483" />
<glyph unicode="&#x20ac;" horiz-adv-x="1265" d="M47 462l30 162h130q2 34 4 67t6 64h-118l27 163h124q34 120 89.5 216.5t131 165t166.5 105t196 36.5q186 0 299 -106t136 -301h-250q-10 87 -63 134.5t-136 47.5q-103 0 -178.5 -83t-117.5 -215h484l-74 -163h-449q-10 -66 -12 -131h399l-75 -162h-318q16 -121 74 -190 t160 -69q89 0 142.5 48.5t80.5 127.5h261q-52 -205 -183.5 -304.5t-305.5 -99.5q-207 0 -336 128t-158 359h-166z" />
<glyph unicode="&#x2122;" horiz-adv-x="1567" d="M201 1239l28 168h531l-30 -168h-178l-92 -540h-174l93 540h-178zM732 699l124 708h238l62 -456l222 456h242l-122 -708h-164l77 447l-217 -447h-160l-59 445l-77 -445h-166z" />
<glyph unicode="&#x25fc;" horiz-adv-x="1064" d="M0 0v1066h1066v-1066h-1066z" />
</font>
</defs>
</svg>
