<?xml version="1.0" standalone="no"?>
<!DOCTYPE svg PUBLIC "-//W3C//DTD SVG 1.1//EN" "http://www.w3.org/Graphics/SVG/1.1/DTD/svg11.dtd" >
<svg xmlns="http://www.w3.org/2000/svg" xmlns:xlink="http://www.w3.org/1999/xlink" version="1.1">
<metadata></metadata>
<defs>
<font id="webfontregular" horiz-adv-x="513" >
<font-face units-per-em="2048" ascent="1638" descent="-410" />
<missing-glyph horiz-adv-x="593" />
<glyph unicode="&#xfb01;" horiz-adv-x="1285" d="M-122 -542l24 140h78q95 0 128 102q10 31 17 68l200 1143h-166l25 149h170l86 499q59 320 320 322q166 -2 254 -125l-120 -102q-66 66 -129 71q-110 0 -145 -143q-5 -17 -9 -33l-83 -489h627l-149 -838q-10 -78 49 -81h105l-24 -141h-125q-181 0 -183 156q0 36 7 79 l120 676h-456l-201 -1162q-42 -225 -173 -271q-56 -20 -140 -20h-107zM1021 1492q0 83 78 113q22 7 45 7q76 0 111 -68q10 -25 10 -52q0 -78 -75 -110q-24 -10 -46 -10q-83 0 -113 72q-10 22 -10 48z" />
<glyph unicode="&#xfb02;" horiz-adv-x="1271" d="M-122 -542l24 140h78q95 0 128 102q10 31 17 68l203 1143h-169l25 149h170l74 428q61 353 371 391q33 2 66 2q235 0 323 -176q56 -115 28 -276l-212 -1207q-8 -78 51 -81h115l-22 -141h-139q-181 0 -181 156q0 36 7 79l210 1204q44 227 -107 279q-37 12 -80 12 q-193 0 -249 -212q-5 -26 -10 -54l-71 -404h261l-27 -149h-261l-203 -1162q-42 -225 -173 -271q-56 -20 -140 -20h-107z" />
<glyph horiz-adv-x="0" />
<glyph horiz-adv-x="682" />
<glyph unicode="&#xd;" horiz-adv-x="851" />
<glyph unicode=" "  horiz-adv-x="593" />
<glyph unicode="&#x09;" horiz-adv-x="593" />
<glyph unicode="&#xa0;" horiz-adv-x="593" />
<glyph unicode="!" horiz-adv-x="603" d="M98 118q0 84 76 123q28 13 56 13q82 0 121 -78q13 -28 13 -58q0 -86 -78 -123q-27 -13 -56 -13q-82 0 -120 77q-12 29 -12 59zM225 486l197 1255h198l-259 -1255h-136z" />
<glyph unicode="&#x22;" horiz-adv-x="718" d="M244 1204l74 537h186l-120 -537h-140zM571 1204l74 537h187l-118 -537h-143z" />
<glyph unicode="#" horiz-adv-x="1097" d="M118 728l26 140h181l71 282h-201l25 140h212l69 279h147l-69 -279h251l69 279h149l-70 -279h174l-26 -140h-184l-72 -282h208l-26 -140h-214l-70 -276h-148l69 276h-251l-69 -276h-147l69 276h-173zM471 868h251l72 282h-252z" />
<glyph unicode="$" horiz-adv-x="1092" d="M-8 271l147 71q85 -171 263 -214l84 487q-297 127 -305 357q0 213 205 300q98 39 215 39h8l46 258h129l-49 -274q193 -49 281 -217l-130 -82q-61 125 -175 162l-76 -430l15 -6q274 -104 320 -282q12 -46 12 -95q0 -241 -242 -327q-105 -37 -236 -38l-48 -278h-128l51 288 q-247 44 -364 235q-13 23 -23 46zM349 980q5 -136 166 -201l69 393q-233 -12 -235 -192zM528 118q248 10 278 180q5 22 5 44q0 126 -153 198l-52 24z" />
<glyph unicode="%" horiz-adv-x="1991" d="M132 916q0 203 163 318q107 76 233 77q194 0 300 -149q63 -90 63 -204q0 -213 -166 -328q-106 -72 -229 -72q-192 0 -296 146q-66 95 -68 212zM289 919q0 -159 126 -210q37 -15 81 -15q144 0 208 125q31 61 31 136q0 161 -131 205q-39 12 -76 12q-144 0 -208 -122 q-31 -59 -31 -131zM418 0l1026 1290h178l-1026 -1290h-178zM1144 338q0 202 167 320q105 71 228 72q195 0 299 -149q63 -90 64 -205q0 -212 -170 -327q-102 -69 -224 -69q-193 0 -297 145q-66 95 -67 213zM1300 338q0 -159 126 -210q38 -16 82 -16q141 0 204 123 q34 64 34 139q0 158 -126 205q-39 15 -81 15q-141 0 -208 -123q-31 -61 -31 -133z" />
<glyph unicode="&#x26;" horiz-adv-x="1668" d="M100 432q0 296 320 489q90 57 215 113l-7 14q-113 176 -113 344q0 200 161 306q100 63 228 63q207 0 300 -159q46 -78 45 -176q0 -235 -333 -410q-26 -12 -48 -22l310 -500q97 181 141 448h171q-59 -361 -215 -602l51 -81q56 -90 108 -100q20 -5 46 -5h76l-27 -154h-78 q-139 0 -210 82q-33 39 -79 110l-4 8q-218 -220 -523 -220q-313 0 -456 196q-79 110 -79 256zM291 440q0 -190 170 -266q77 -36 171 -35q267 1 438 199l-364 583q-312 -141 -386 -327q-29 -72 -29 -154zM689 1395q2 -117 73 -237l34 -52q242 115 279 245q10 37 10 70 q0 141 -113 181q-33 13 -71 13q-141 0 -192 -120q-20 -49 -20 -100z" />
<glyph unicode="'" horiz-adv-x="391" d="M244 1204l74 537h186l-120 -537h-140z" />
<glyph unicode="(" horiz-adv-x="708" d="M102 459v61q3 755 656 1318l92 -99q-561 -525 -564 -1214q0 -456 210 -789l-120 -81q-256 335 -274 804z" />
<glyph unicode=")" horiz-adv-x="703" d="M-64 -246q562 530 563 1221q0 445 -210 784l119 79q273 -354 273 -858q0 -750 -625 -1302q-15 -13 -27 -23z" />
<glyph unicode="*" horiz-adv-x="1018" d="M279 1262l307 94l-286 146l89 132l236 -208l-14 315h165l-70 -320l264 164l64 -144l-306 -92l286 -148l-90 -129l-233 206l10 -320h-163l71 324l-267 -163z" />
<glyph unicode="+" horiz-adv-x="948" d="M108 571l28 151h292l58 323h159l-59 -323h298l-29 -151h-294l-57 -320h-159l57 320h-294z" />
<glyph unicode="," horiz-adv-x="501" d="M-20 -286l140 286q-71 39 -74 122q0 86 76 124q32 13 59 13q95 0 127 -85q7 -25 7 -52q-3 -53 -46 -117l-193 -291h-96z" />
<glyph unicode="-" horiz-adv-x="708" d="M112 515l29 154h481l-26 -154h-484z" />
<glyph unicode="." horiz-adv-x="501" d="M46 118q0 87 79 126q29 12 56 12q85 0 121 -77q13 -31 13 -61q0 -90 -80 -123q-29 -13 -54 -13q-82 0 -120 77q-15 29 -15 59z" />
<glyph unicode="/" horiz-adv-x="1063" d="M-98 -328l1140 2177h184l-1138 -2177h-186z" />
<glyph unicode="0" horiz-adv-x="1556" d="M128 620q0 330 248 532q200 159 459 159q291 0 479 -210q158 -179 158 -427q0 -335 -251 -535q-197 -159 -459 -159q-297 0 -483 215q-151 179 -151 425zM312 615q0 -261 184 -395q118 -84 272 -84q263 0 410 196q107 147 107 347q0 263 -186 393q-115 83 -269 83 q-261 0 -410 -195q-108 -146 -108 -345z" />
<glyph unicode="1" horiz-adv-x="736" d="M159 1141l25 149h456l-228 -1290h-177l200 1141h-276z" />
<glyph unicode="2" horiz-adv-x="1146" d="M-5 0v22l557 454q242 193 308 300q46 79 46 159q0 164 -148 206q-39 10 -82 11q-220 0 -320 -231q-2 -7 -5 -15l-161 49q108 310 409 350q41 5 82 6q233 0 343 -159q61 -90 61 -204q0 -200 -235 -418q-59 -56 -154 -134l-222 -181l-120 -74q2 0 132 10h528l-29 -151h-990 z" />
<glyph unicode="3" horiz-adv-x="1251" d="M-10 59l154 80q122 -244 384 -247q232 0 334 172q52 90 52 212q0 235 -186 318q-74 31 -164 31q-115 0 -219 -49l-17 25l461 459q41 46 107 90q-2 0 -146 -9h-491l25 149h922v-18l-441 -440q-41 -41 -103 -82q244 -18 362 -208q74 -120 75 -276q0 -276 -213 -427 q-151 -103 -356 -103q-310 0 -479 223q-36 49 -61 100z" />
<glyph unicode="4" horiz-adv-x="1325" d="M-18 54l16 87l1177 1175h26l-200 -1121h191l-24 -141h-193l-51 -295h-176l51 295h-817zM235 190q3 0 134 5h455l105 584l41 152q-2 -2 -102 -115l-519 -530z" />
<glyph unicode="5" horiz-adv-x="1222" d="M10 25l154 75q107 -205 337 -208q235 0 341 179q52 95 52 213q0 241 -193 315q-71 29 -159 29q-187 -3 -352 -124l-16 11l134 775h811l-27 -149h-654l-69 -409q90 44 222 44q264 0 403 -197q90 -128 88 -295q0 -279 -212 -435q-156 -113 -366 -113q-292 0 -445 208 q-29 41 -49 81z" />
<glyph unicode="6" horiz-adv-x="1295" d="M105 481q3 218 203 440l564 643h206l-453 -512q-20 -20 -61.5 -53.5t-72.5 -56.5l-30 -23q139 85 253 85q248 0 385 -188q92 -130 91 -298q0 -269 -208 -423q-152 -115 -360 -115q-278 0 -424 201q-93 130 -93 300zM286 476q0 -202 154 -295q80 -45 182 -45 q223 0 328 172q56 94 56 212q0 220 -168 304q-74 36 -167 36q-230 0 -333 -181q-52 -93 -52 -203z" />
<glyph unicode="7" horiz-adv-x="1128" d="M39 -241l875 1382h-735l26 149h977v-22l-952 -1509h-191z" />
<glyph unicode="8" horiz-adv-x="1322" d="M95 445q0 274 245 397q88 42 188 59q-174 103 -172 284q0 197 166 315q120 82 277 82q222 0 345 -151q76 -97 77 -215q0 -217 -210 -320q-39 -20 -82 -34q225 -92 269 -307q7 -41 8 -84q0 -269 -224 -405q-148 -87 -347 -86q-286 0 -440 186q-100 123 -100 279zM281 452 q0 -187 159 -271q85 -45 195 -45q223 0 330 155q56 88 56 198q0 207 -179 283q-78 34 -177 34q-233 0 -333 -166q-51 -82 -51 -188zM528 1180q0 -156 137 -210q53 -20 111 -20q179 0 243 140q25 54 26 119q0 149 -134 201q-51 22 -115 24q-171 0 -241 -132q-29 -56 -27 -122 z" />
<glyph unicode="9" horiz-adv-x="1292" d="M120 765q0 269 202 427q157 118 362 119q278 0 425 -205q92 -130 92 -300q-2 -244 -231 -491l-525 -556h-213l433 451q31 31 73.5 66.5t70.5 55.5l29 22q-110 -74 -239 -75q-247 0 -384 185q-95 130 -95 301zM302 765q0 -225 169 -306q71 -37 164 -37q235 0 337 187 q49 90 49 202q0 208 -156 298q-79 46 -181 46q-218 0 -323 -173q-59 -94 -59 -217z" />
<glyph unicode=":" horiz-adv-x="523" d="M59 118q0 87 77 126q29 12 56 12q90 0 123 -82q13 -29 13 -56q0 -90 -79 -123q-28 -13 -57 -13q-82 0 -121 77q-12 29 -12 59zM159 694q0 87 76 125q29 12 56 13q90 0 124 -82q13 -29 13 -56q0 -93 -86 -125q-26 -11 -51 -11q-82 0 -120 74q-12 32 -12 62z" />
<glyph unicode=";" horiz-adv-x="523" d="M-8 -286l140 286q-71 36 -73 122q0 90 80 124q29 13 53 13q93 0 126 -83q10 -25 10 -54q-3 -53 -47 -117l-191 -291h-98zM159 694q0 87 76 125q29 12 56 13q90 0 124 -82q13 -29 13 -56q0 -93 -86 -125q-26 -11 -51 -11q-82 0 -120 74q-12 32 -12 62z" />
<glyph unicode="&#x3c;" horiz-adv-x="905" d="M100 609v29l752 366l-31 -172l-467 -214l391 -222l-26 -155z" />
<glyph unicode="=" horiz-adv-x="943" d="M85 389l25 159h730l-29 -159h-726zM141 722l28 156h730l-29 -156h-729z" />
<glyph unicode="&#x3e;" horiz-adv-x="905" d="M64 241l31 171l471 216l-395 220l27 156l618 -369v-29z" />
<glyph unicode="?" horiz-adv-x="1197" d="M230 1454q115 244 376 297q59 10 122 10q273 0 403 -195q79 -117 80 -271q0 -261 -200 -404q-141 -100 -335 -100l-54 -312h-166l79 450h113q253 0 346 192q38 79 37 174q0 207 -163 283q-67 28 -143 27q-223 0 -346 -213l-10 -14zM345 118q0 87 80 123q25 13 51 13 q85 0 120 -78q15 -28 15 -58q0 -86 -76 -123q-30 -13 -59 -13q-78 0 -117 77q-13 29 -14 59z" />
<glyph unicode="@" horiz-adv-x="2231" d="M110 432q0 450 298 756q281 286 691 310q36 2 66 2q453 0 719 -289q232 -253 234 -627q0 -403 -234 -543q-93 -53 -202 -53q-227 0 -287 186q-5 15 -7 28q-113 -200 -316 -220q-20 -2 -38 -2q-233 0 -353 189q-73 117 -75 269q0 271 185 424q125 103 284 103 q210 0 313 -174q22 -41 36 -85l35 234h172l-105 -581q-38 -208 118 -237q20 -2 41 -2q156 0 230 185q46 117 46 284q0 379 -259 596q-212 176 -534 177q-389 0 -643 -272q-249 -264 -249 -655q0 -399 254 -630q218 -195 548 -194q227 0 430 94l56 -125q-203 -108 -486 -108 q-450 0 -722 296q-246 266 -246 664zM786 438q0 -206 149 -284q61 -32 135 -32q159 0 256 152q64 102 64 222q0 176 -125 269q-71 54 -159 54q-187 0 -274 -169q-46 -92 -46 -212z" />
<glyph unicode="A" horiz-adv-x="1642" d="M0 0l1019 1759h29l411 -1759h-181l-67 295h-860l-167 -295h-184zM438 445h740l-174 771l-32 200l-76 -170q-10 -17 -18 -30z" />
<glyph unicode="B" horiz-adv-x="1522" d="M130 0l305 1741h545q276 0 382 -200q43 -83 43 -182q0 -317 -289 -409q190 -49 259 -228q27 -73 27 -156v-11q0 -303 -222 -453q-154 -102 -374 -102h-676zM340 161h449q340 0 412 267q15 63 15 133v7q0 243 -210 292q-51 12 -107 12h-433zM494 1029h410q268 0 312 231 q8 44 8 86q0 159 -144 213q-54 20 -120 21h-369z" />
<glyph unicode="C" horiz-adv-x="1822" d="M181 819q0 405 275 676q276 259 655 266q450 -2 668 -340l-143 -95q-187 272 -530 274q-322 0 -537 -235q-200 -223 -200 -541q0 -335 222 -529q174 -154 420 -154q338 3 558 253l133 -105q-271 -309 -698 -309q-369 0 -605 255q-218 235 -218 584z" />
<glyph unicode="D" horiz-adv-x="1686" d="M139 0l306 1741h395q469 0 675 -317q123 -190 124 -456q0 -474 -315 -740q-272 -228 -696 -228h-489zM349 159h269q507 0 716 351q115 195 115 462q0 410 -308 549q-139 61 -322 61h-220z" />
<glyph unicode="E" horiz-adv-x="1448" d="M139 0l306 1741h1037l-26 -159h-860l-144 -822h764l-28 -156h-763l-80 -445h894l-28 -159h-1072z" />
<glyph unicode="F" horiz-adv-x="1392" d="M139 0l306 1741h1027l-31 -159h-845l-144 -822h769l-29 -161h-767l-105 -599h-181z" />
<glyph unicode="G" horiz-adv-x="1881" d="M469 1498q281 253 650 263q410 -2 625 -249l-134 -117q-161 193 -450 205h-44q-327 0 -542 -241q-198 -220 -198 -538q0 -356 242 -545q175 -137 426 -137h4q251 0 454 122l73 408h-507l28 159h675l-115 -664q-257 -184 -608 -184q-416 0 -657 269q-201 226 -201 564 q0 413 279 685z" />
<glyph unicode="H" horiz-adv-x="1732" d="M139 0l306 1741h183l-176 -981h910l174 981h182l-308 -1741h-181l105 599h-909l-105 -599h-181z" />
<glyph unicode="I" horiz-adv-x="662" d="M149 0l307 1741h182l-308 -1741h-181z" />
<glyph unicode="J" horiz-adv-x="1163" d="M18 246l156 86q112 -181 282 -188q230 0 286 247q3 15 6 29l232 1321h182l-236 -1347q-77 -412 -476 -414q-264 0 -396 201q-20 31 -36 65z" />
<glyph unicode="K" horiz-adv-x="1515" d="M139 0l306 1741h183l-139 -779q-10 -63 -59 -227q88 125 154 196l784 810h217l-796 -830l560 -911h-205l-489 796l-237 -235l-98 -561h-181z" />
<glyph unicode="L" horiz-adv-x="1317" d="M139 0l306 1741h183l-279 -1580h806l-29 -161h-987z" />
<glyph unicode="M" horiz-adv-x="2113" d="M139 0l309 1761h26l616 -1006l986 1006h25l-309 -1761h-174l202 1150l49 209l-105 -133q-25 -31 -49 -54l-637 -662h-28l-408 668q-48 73 -102 187q0 -3 -25 -215l-203 -1150h-173z" />
<glyph unicode="N" horiz-adv-x="1783" d="M139 0l309 1759h28l802 -1237l92 -163q0 2 18 193l210 1189h171l-310 -1759h-30l-799 1232l-95 164l-13 -169q-2 -15 -4 -27l-208 -1182h-171z" />
<glyph unicode="O" horiz-adv-x="2006" d="M188 814q0 415 276 686q268 261 652 261q366 0 604 -246q222 -235 222 -586q0 -415 -276 -685q-271 -262 -655 -264q-371 0 -606 250q-217 235 -217 584zM374 814q0 -340 227 -530q171 -143 418 -143q335 0 547 248q190 222 190 542q0 343 -230 530q-171 137 -412 137 q-338 0 -550 -247q-190 -220 -190 -537z" />
<glyph unicode="P" horiz-adv-x="1463" d="M141 0l307 1741h356q384 0 542 -263q85 -142 85 -328q0 -394 -283 -586q-196 -130 -488 -132h-261l-77 -432h-181zM428 589h232q459 0 559 363q25 90 25 203q0 308 -248 396q-92 34 -207 34h-188z" />
<glyph unicode="Q" horiz-adv-x="2006" d="M188 814q0 415 276 686q268 261 652 261q366 0 604 -246q222 -235 222 -586q0 -394 -268 -670q-28 -29 -56 -54l202 -261l-135 -103l-205 264q-220 -125 -469 -125q-371 0 -606 250q-217 235 -217 584zM374 814q0 -340 225 -530q172 -145 417 -145h3h5q204 0 361 89 l-235 304l135 103l236 -307q235 224 235 603q0 343 -230 530q-171 137 -412 137q-338 0 -550 -247q-190 -220 -190 -537z" />
<glyph unicode="R" horiz-adv-x="1476" d="M130 0l308 1741h346q388 0 550 -259q82 -138 82 -322q-2 -376 -261 -559q-83 -57 -183 -89l274 -512h-194l-248 471q-59 -10 -144 -10h-266l-82 -461h-182zM422 618h238q512 0 564 450q5 46 5 96q0 321 -287 397q-78 20 -177 21h-174z" />
<glyph unicode="S" horiz-adv-x="1351" d="M36 322l156 93q147 -241 358 -271q36 -5 72 -5q262 0 343 189q29 63 29 143q0 133 -126 235q-47 39 -120 88l-120 76q-257 164 -298 361q-10 49 -10 100q0 247 198 364q112 66 252 66q289 -2 441 -235l-143 -100q-98 149 -233 172q-36 4 -73 4q-166 0 -234 -132 q-29 -59 -29 -131q0 -141 126 -240q41 -34 94 -68l121 -76q230 -149 296 -290q42 -87 42 -196q0 -277 -226 -410q-137 -79 -330 -79q-324 0 -520 242q-38 49 -66 100z" />
<glyph unicode="T" horiz-adv-x="1390" d="M266 1582l29 159h1231l-28 -159h-523l-279 -1582h-184l282 1582h-528z" />
<glyph unicode="U" horiz-adv-x="1658" d="M238 645l192 1096h185l-193 -1099q-12 -69 -12 -128q0 -236 184 -326q92 -47 215 -47q353 0 440 340q10 37 16 71l207 1189h184l-215 -1211q-100 -548 -640 -550q-312 0 -471 201q-105 134 -105 325q0 66 13 139z" />
<glyph unicode="V" horiz-adv-x="1640" d="M305 1741h186l269 -1157q10 -42 19.5 -103t14.5 -102l5 -44l92 203q10 22 20 41l664 1162h191l-1008 -1759h-33z" />
<glyph unicode="W" horiz-adv-x="2385" d="M300 1741h189l161 -1137l12 -215l83 187q5 13 10 20l643 1163h31l227 -1155q18 -74 34 -213l56 167q10 22 18 41l564 1142h188l-875 -1759h-29l-237 1198l-26 198l-74 -167q-7 -15 -13 -26l-673 -1203h-31z" />
<glyph unicode="X" horiz-adv-x="1568" d="M2 0l756 950l-353 791h194l241 -530q10 -25 20 -62.5t15 -63.5l6 -23l64 118q10 15 17 26l426 535h202l-630 -793l425 -948h-197l-304 681q-10 25 -21 62.5t-15 60.5l-6 26l-66 -116q-10 -15 -18 -25l-553 -689h-203z" />
<glyph unicode="Y" horiz-adv-x="1640" d="M302 1741h192l315 -860q10 -31 21.5 -77t17.5 -76l4 -32l74 146q13 23 24 39l614 860h202l-847 -1193l-98 -548h-181l98 550z" />
<glyph unicode="Z" horiz-adv-x="1476" d="M22 0v29l1202 1556h-814l28 156h1096v-29l-1204 -1556h952l-27 -156h-1233z" />
<glyph unicode="[" horiz-adv-x="765" d="M36 -328l384 2177h489l-25 -151h-313l-330 -1874h311l-27 -152h-489z" />
<glyph unicode="\" horiz-adv-x="1043" d="M295 1849h171l384 -2177h-171z" />
<glyph unicode="]" horiz-adv-x="767" d="M-61 -328l27 152h313l330 1874h-311l24 151h492l-384 -2177h-491z" />
<glyph unicode="^" horiz-adv-x="1053" d="M286 1185l444 576h25l246 -576h-141l-156 330l-266 -330h-152z" />
<glyph unicode="_" horiz-adv-x="650" d="M-156 -328l28 157h660l-24 -157h-664z" />
<glyph unicode="`" horiz-adv-x="1271" d="M440 1769h205l156 -494h-139z" />
<glyph unicode="a" horiz-adv-x="1351" d="M115 489q0 302 200 473q141 120 323 120q212 0 330 -171q43 -63 63 -141l44 290h174l-145 -838q-1 -9 -1 -18q0 -61 52 -63h96l-25 -141h-115q-171 0 -180 128q0 24 4 56l7 34q-148 -236 -390 -238q-241 0 -360 201q-76 130 -77 308zM295 486q0 -222 147 -315 q69 -41 154 -41q198 0 310 168q76 114 76 266q0 217 -144 317q-73 48 -165 48h-4q-210 0 -313 -187q-61 -112 -61 -256z" />
<glyph unicode="b" horiz-adv-x="1381" d="M110 0l322 1849h174l-174 -991q157 214 387 224q249 0 373 -204q77 -130 78 -304q0 -295 -198 -469q-142 -125 -330 -125q-224 0 -351 176q-46 64 -66 142l-41 -298h-174zM376 496q0 -220 152 -317q76 -49 173 -49q218 0 325 188q64 112 64 256q0 227 -155 317 q-69 38 -155 38h-4q-207 0 -324 -171q-76 -113 -76 -262z" />
<glyph unicode="c" horiz-adv-x="1163" d="M118 508q0 273 200 442q158 132 373 132q261 -2 408 -188l-129 -103q-102 137 -279 138q-222 0 -330 -181q-63 -108 -63 -244q0 -210 147 -314q87 -59 195 -60q164 0 281 105l103 -115q-154 -140 -384 -140q-261 0 -412 191q-110 144 -110 337z" />
<glyph unicode="d" horiz-adv-x="1383" d="M115 489q0 302 203 473q146 120 332 120q210 0 335 -163q46 -61 67 -130l189 1060h175l-287 -1627v-12q0 -64 49 -69h97l-24 -141h-117q-174 0 -179 136q0 23 3 52l7 32q-113 -198 -325 -232q-38 -8 -76 -8q-244 0 -369 204q-79 130 -80 305zM295 486q0 -227 155 -317 q71 -39 159 -39q210 0 322 170q77 115 78 264v6q0 208 -147 305q-78 54 -181 54q-220 0 -325 -189q-61 -110 -61 -254z" />
<glyph unicode="e" horiz-adv-x="1276" d="M118 508q0 276 197 444q151 130 354 130q325 0 445 -276q51 -122 54 -278l-870 -93q31 -205 206 -279q71 -31 156 -31q202 3 331 134l110 -108q-169 -171 -441 -171q-286 0 -440 204q-102 138 -102 324zM295 569l687 71q-20 210 -183 276q-61 23 -134 24 q-215 0 -316 -190q-44 -81 -54 -181z" />
<glyph unicode="f" horiz-adv-x="792" d="M-122 -542l24 140h78q95 0 128 102q10 31 17 68l203 1143h-169l25 149h170l86 494q61 325 325 327q164 -2 256 -127l-120 -103q-61 71 -131 74q-108 0 -145 -123q-7 -28 -14 -58l-83 -484h273l-25 -149h-275l-203 -1162q-42 -225 -173 -271q-56 -20 -140 -20h-107z" />
<glyph unicode="g" horiz-adv-x="1363" d="M15 -291l141 86q113 -195 318 -210q22 -3 44 -3q317 6 388 367l52 253q-147 -220 -389 -222q-244 0 -369 204q-79 130 -80 305q0 300 205 473q144 120 333 120q214 0 341 -171q43 -63 66 -141l41 290h174l-200 -1131q-79 -440 -462 -493q-49 -7 -100 -7q-282 0 -447 195 q-33 41 -56 85zM300 486q0 -227 156 -317q72 -39 159 -39q210 0 325 172q74 116 76 262q0 212 -148 311q-79 54 -182 54q-217 0 -322 -187q-64 -112 -64 -256z" />
<glyph unicode="h" horiz-adv-x="1305" d="M108 0l324 1849h174l-174 -987q139 218 369 220q215 0 303 -173q41 -85 41 -191q0 -51 -9 -107l-68 -389q-1 -11 -2 -21q0 -57 50 -60h98l-24 -141h-112q-185 4 -185 175q0 30 6 66l61 355q10 55 10 101q0 168 -132 214q-44 15 -98 15q-279 0 -346 -298q-5 -16 -8 -32 l-105 -596h-173z" />
<glyph unicode="i" horiz-adv-x="596" d="M141 144q0 41 8 91l142 825h175l-146 -838q-1 -11 -1 -21q0 -57 50 -60h105l-26 -141h-123q-176 0 -184 144zM332 1492q0 88 78 118q22 8 46 8q79 0 113 -72q10 -25 10 -54q0 -87 -80 -114q-23 -8 -43 -8q-82 0 -114 71q-10 25 -10 51z" />
<glyph unicode="j" horiz-adv-x="575" d="M-298 -466l110 102q54 -56 119 -56q93 0 120 100q5 22 10 46l237 1334h173l-233 -1334q-57 -292 -294 -295q-149 3 -242 103zM338 1492q0 88 77 118q23 8 46 8q79 0 113 -72q10 -25 10 -54q0 -87 -80 -114q-23 -8 -43 -8q-82 0 -112 71q-10 25 -11 51z" />
<glyph unicode="k" horiz-adv-x="1182" d="M108 0l324 1849h174l-210 -1187q-12 -68 -37 -154l583 552h208l-474 -451l245 -414q37 -54 95 -54h66l-24 -141h-76q-122 0 -186 90q-12 18 -24 38l-227 382l-207 -178l-57 -332h-173z" />
<glyph unicode="l" horiz-adv-x="601" d="M154 156q0 36 7 79l287 1614h174l-290 -1627q-1 -11 -1 -21q0 -57 50 -60h118l-25 -141h-136q-182 0 -184 156z" />
<glyph unicode="m" horiz-adv-x="1898" d="M90 0l186 1060h174l-40 -192q130 212 342 214q203 0 274 -183q8 -23 13 -44q127 225 382 227q210 0 287 -178q30 -78 30 -174q0 -56 -10 -119l-69 -389q-1 -9 -1 -18q0 -61 52 -63h98l-27 -141h-117q-182 0 -182 156q0 36 8 79l61 361q11 64 11 115q0 197 -164 213 q-18 2 -30 2q-259 -5 -318 -330l-105 -596h-175l105 596q11 64 11 115q0 180 -138 210q-29 5 -54 5q-264 -5 -325 -330l-105 -596h-174z" />
<glyph unicode="n" horiz-adv-x="1282" d="M90 0l186 1060h174l-42 -212q130 232 376 234q215 0 301 -171q44 -85 43 -193q0 -51 -9 -107l-69 -389q-1 -11 -1 -20q0 -58 52 -61h97l-26 -141h-117q-181 0 -185 156q0 36 8 79l64 361q10 55 10 102q0 167 -133 213q-44 15 -97 15q-278 0 -346 -298q-5 -16 -7 -32 l-105 -596h-174z" />
<glyph unicode="o" horiz-adv-x="1333" d="M118 504q0 274 202 446q159 132 371 132q251 0 408 -186q120 -148 120 -341q0 -276 -203 -445q-158 -130 -368 -130q-249 0 -407 186q-122 146 -123 338zM298 501q0 -212 154 -313q88 -58 198 -58q220 0 328 182q61 108 61 246q0 212 -153 314q-87 57 -197 57 q-213 0 -323 -177q-68 -110 -68 -251z" />
<glyph unicode="p" horiz-adv-x="1366" d="M-5 -542l281 1602h174l-45 -218q136 223 367 240h32q244 0 368 -201q83 -130 83 -307q0 -295 -197 -469q-147 -125 -333 -125q-220 0 -346 169q-44 61 -64 130l-146 -821h-174zM359 496q0 -220 151 -317q79 -49 176 -49q215 0 323 185q66 113 66 259q0 222 -156 315 q-69 40 -157 40h-4q-208 0 -323 -171q-76 -113 -76 -262z" />
<glyph unicode="q" horiz-adv-x="1366" d="M115 489q0 302 203 473q146 120 332 120q220 0 341 -171q47 -63 67 -141l43 290h174l-244 -1380q-1 -11 -1 -21q0 -58 50 -61h98l-23 -140h-119q-176 0 -184 143q0 41 8 91l92 510q-146 -220 -388 -222q-244 0 -369 204q-79 130 -80 305zM295 486q0 -227 155 -317 q71 -39 159 -39q210 0 322 170q77 115 78 264v6q0 207 -147 305q-78 54 -181 54q-220 0 -325 -189q-61 -110 -61 -254z" />
<glyph unicode="r" horiz-adv-x="843" d="M90 0l186 1060h174l-51 -228q125 247 331 248q74 0 138 -32l-69 -157q-47 25 -105 25q-228 0 -310 -271q-15 -44 -23 -93l-97 -552h-174z" />
<glyph unicode="s" horiz-adv-x="1031" d="M41 212l133 86q110 -172 307 -176q213 3 215 159q0 74 -97 134q-37 23 -135 74q-195 95 -242 205q-20 51 -20 107q0 184 177 254q68 27 150 27h11q220 -2 341 -161l-121 -97q-85 105 -189 116q-17 2 -33 2q-147 0 -169 -100q-3 -14 -3 -28q0 -79 103 -140q36 -20 97 -52 q195 -94 253 -180q46 -71 46 -156q0 -210 -205 -278q-81 -28 -184 -28q-274 0 -410 191q-15 20 -25 41z" />
<glyph unicode="t" horiz-adv-x="838" d="M154 911l25 149h159l100 552h171l-97 -552h287l-27 -149h-286l-105 -591q-5 -35 -6 -63q0 -126 106 -127q74 2 139 58l81 -119q-101 -89 -237 -89h-3q-212 0 -253 176q-8 35 -8 75q0 45 10 97l102 583h-158z" />
<glyph unicode="u" horiz-adv-x="1287" d="M159 448l107 612h174l-105 -596q-10 -55 -10 -100q0 -168 134 -215q43 -15 96 -17q269 0 341 286q5 22 10 46l108 596h174l-149 -838q-1 -9 -1 -18q0 -61 52 -63h98l-26 -141h-114q-177 0 -180 144q0 22 2 44l2 17q-141 -225 -378 -227q-215 0 -302 173q-42 86 -42 193 q0 50 9 104z" />
<glyph unicode="v" horiz-adv-x="1153" d="M149 1060h181l180 -612q10 -32 17.5 -77.5t10.5 -72.5l2 -32l61 144q10 20 19 32l374 618h186l-665 -1080h-31z" />
<glyph unicode="w" horiz-adv-x="1712" d="M156 1060h182l131 -594l25 -161l72 147q5 8 8 14l366 609h22l174 -601l32 -162l61 144q7 10 10 18l322 586h183l-600 -1082h-28l-176 628q-20 69 -31 159l-57 -127q-7 -13 -12 -23l-400 -637h-28z" />
<glyph unicode="x" horiz-adv-x="1177" d="M-15 0l506 566l-266 494h195l146 -276l43 -115l60 99q7 7 10 13l247 279h205l-432 -486l312 -574h-197l-184 345l-49 129l-61 -100q-10 -15 -21 -25l-311 -349h-203z" />
<glyph unicode="y" horiz-adv-x="1290" d="M20 -318l139 90q100 -176 281 -190h31q274 0 345 303q5 20 8 39l46 252q-139 -197 -360 -198q-215 0 -302 171q-44 85 -44 193q0 50 10 106l107 612h175l-105 -596q-10 -55 -10 -101q0 -168 133 -214q44 -15 97 -17q289 6 350 332l108 596h175l-205 -1160 q-74 -415 -433 -466q-46 -5 -95 -5q-283 0 -420 200q-17 29 -31 53z" />
<glyph unicode="z" horiz-adv-x="1077" d="M25 0v25l754 889h-541l26 146h814v-29l-750 -887h588l-25 -144h-866z" />
<glyph unicode="{" horiz-adv-x="923" d="M74 609l26 151h144q120 0 161 112q13 34 20 78l100 555q54 295 266 336q44 8 95 8h182l-26 -151h-141q-120 0 -166 -90q-20 -47 -34 -116l-102 -581q-31 -173 -159 -215q-22 -7 -51 -12q159 -46 123 -254l-67 -386q-34 -188 75 -213q29 -7 61 -7h130l-27 -152h-129 q-295 0 -296 274q0 54 10 113l63 376q26 149 -56 169q-20 5 -51 5h-151z" />
<glyph unicode="|" horiz-adv-x="603" d="M64 -328l384 2177h172l-385 -2177h-171z" />
<glyph unicode="}" horiz-adv-x="926" d="M-64 -328l25 152h144q123 0 166 94q20 43 31 111l74 427q32 179 164 220q22 5 49 10q-159 42 -125 252l97 540q34 187 -75 212q-28 8 -61 8h-130l25 151h130q281 0 298 -249q2 -64 -10 -139l-96 -530q-28 -151 62 -169q20 -4 46 -4h154l-29 -149h-140q-120 0 -161 -110 q-15 -37 -24 -81l-71 -403q-54 -300 -279 -337q-39 -6 -82 -6h-182z" />
<glyph unicode="~" horiz-adv-x="987" d="M151 589q51 279 238 281q76 -2 163 -79q77 -66 96 -72q12 -5 23 -5q57 0 87 87q10 31 18 67l130 -16q-51 -276 -235 -281q-79 3 -167 79q-74 66 -94 75q-10 3 -21 3q-59 0 -91 -98q-9 -25 -17 -56z" />
<glyph unicode="&#xa1;" horiz-adv-x="601" d="M105 0l259 1255h135l-197 -1255h-197zM361 1622q0 86 77 124q30 13 58 13q79 0 119 -77q13 -28 13 -60q0 -87 -80 -122q-26 -12 -52 -12q-85 0 -120 76q-15 28 -15 58z" />
<glyph unicode="&#xa2;" horiz-adv-x="1163" d="M118 508q0 273 197 440q151 127 356 134l48 272h129l-49 -279q183 -34 300 -181l-129 -103q-82 105 -198 133l-140 -796h8q156 0 279 102l2 2l103 -112q-154 -141 -384 -140h-34l-48 -278h-128l51 300q-220 67 -315 274q-48 108 -48 232zM295 504q0 -203 137 -309 q37 -25 76 -41l137 775q-213 -20 -305 -210q-46 -98 -45 -215z" />
<glyph unicode="&#xa3;" horiz-adv-x="1381" d="M20 205q0 154 144 210q56 20 120 20q107 -3 224 -71v22q-2 123 -27 279h-246l26 141h200q-25 200 -26 290q0 305 230 425q115 61 264 61q300 -2 439 -271l-142 -85q-95 176 -248 198q-26 2 -52 2q-310 -5 -311 -344q0 -58 17 -276h402l-25 -141h-361q14 -117 14 -253 q0 -78 -20 -151q152 -115 249 -129q18 -2 33 -2q130 2 238 114l106 -108q-137 -156 -344 -156q-162 2 -343 152q-107 -151 -300 -152q-173 0 -237 125q-23 46 -24 100zM159 208q0 -83 79 -106q20 -4 43 -4q123 0 188 117q2 7 5 10q-110 93 -190 93q-98 0 -120 -77 q-5 -17 -5 -33z" />
<glyph unicode="&#xa4;" horiz-adv-x="1542" d="M69 420l23 135h184q-2 23 -2 65q0 56 7 105h-159l24 135h166q93 259 338 381q144 69 298 70q334 -2 501 -253l-135 -93q-108 169 -303 187q-31 3 -63 3q-238 0 -382 -183q-38 -53 -65 -112h579l-22 -135h-594q-8 -49 -8 -103q0 -46 3 -67h567l-22 -135h-518 q76 -232 313 -279q49 -7 100 -9q210 0 361 154q8 10 12 16l120 -97q-187 -225 -496 -225q-312 0 -488 225q-74 95 -108 215h-231z" />
<glyph unicode="&#xa5;" horiz-adv-x="1390" d="M105 286l23 142h451l-71 178h-349l22 142h269l-215 542h187l230 -594q26 -76 42 -181l56 123q18 33 34 56l440 596h197l-407 -542h266l-22 -142h-349l-133 -178h450l-22 -142h-464l-49 -286h-179l52 286h-459z" />
<glyph unicode="&#xa6;" d="M136 625q0 87 82 125q28 12 56 12q87 0 125 -76q12 -31 13 -61q0 -90 -82 -129q-28 -12 -56 -12q-85 0 -123 77q-15 31 -15 64z" />
<glyph unicode="&#xa7;" horiz-adv-x="1243" d="M82 10l146 69q92 -195 307 -197q181 0 230 126q15 38 16 77q0 113 -123 181q-26 15 -57 29l-205 94q-212 97 -257 236q-18 56 -19 125q0 184 169 274q41 21 82 34q-31 71 -31 156q0 202 170 307q102 61 232 61q274 -2 389 -233l-140 -74q-87 159 -246 161 q-171 0 -217 -138q-13 -39 -13 -82q0 -138 133 -205l14 -7l229 -108q271 -130 277 -348q-6 -210 -247 -299q39 -71 39 -164q0 -215 -192 -305q-100 -44 -228 -44q-266 0 -404 182q-36 43 -54 92zM286 768q0 -118 110 -187q29 -17 68 -36l205 -93q117 -56 179 -112 q148 54 151 192q0 120 -147 198q-14 8 -31 15l-222 105q-103 49 -167 115q-138 -61 -146 -197z" />
<glyph unicode="&#xa8;" horiz-adv-x="1271" d="M466 1439q0 79 74 110q20 7 41 7q71 0 105 -68q10 -26 10 -49q0 -74 -68 -105q-24 -10 -47 -10q-73 0 -105 66q-10 25 -10 49zM901 1439q0 76 71 107q23 10 44 10q74 0 105 -68q10 -26 10 -49q0 -77 -71 -108q-24 -7 -44 -7q-71 0 -105 66q-10 25 -10 49z" />
<glyph unicode="&#xa9;" horiz-adv-x="1532" d="M122 645q0 305 223 503q190 163 444 163q289 0 483 -205q182 -192 182 -461q0 -303 -220 -496q-192 -167 -445 -167q-289 0 -484 206q-181 192 -183 457zM230 645q0 -279 205 -440q151 -120 354 -120q269 0 430 196q125 154 125 364q0 281 -205 443q-151 120 -350 121 q-269 0 -430 -195q-128 -156 -129 -369zM420 638q0 212 161 324q100 67 220 67q177 -3 289 -125l-108 -95q-68 82 -176 82q-138 0 -200 -126q-28 -59 -27 -127q0 -154 115 -213q46 -23 95 -23q110 3 181 77l100 -95q-112 -120 -281 -120q-198 0 -303 156q-66 98 -66 218z " />
<glyph unicode="&#xaa;" horiz-adv-x="1205" d="M166 806q0 274 190 418q118 87 264 87q188 0 284 -153q28 -49 44 -106l34 238h157l-123 -701q-7 -67 46 -69h82l-23 -129h-97q-162 0 -159 139v18v16q-125 -188 -320 -190q-207 0 -313 174q-66 110 -66 258zM332 806q0 -205 142 -271q51 -23 110 -23q176 0 266 150 q56 90 56 208q0 198 -138 271q-57 31 -126 31q-187 0 -268 -168q-42 -88 -42 -198z" />
<glyph unicode="&#xab;" horiz-adv-x="997" d="M92 481l3 20l301 423h193l-320 -440l171 -389h-179zM479 481l2 20l303 423h191l-323 -440l176 -389h-183z" />
<glyph unicode="&#xac;" d="M136 625q0 87 82 125q28 12 56 12q87 0 125 -76q12 -31 13 -61q0 -90 -82 -129q-28 -12 -56 -12q-85 0 -123 77q-15 31 -15 64z" />
<glyph unicode="&#xad;" horiz-adv-x="708" d="M112 515l29 154h481l-26 -154h-484z" />
<glyph unicode="&#xae;" horiz-adv-x="1317" d="M225 1226q0 269 200 428q154 122 354 122q261 0 427 -186q133 -154 133 -364q0 -264 -203 -425q-155 -122 -357 -122q-259 0 -423 189q-130 151 -131 358zM328 1226q0 -264 194 -388q110 -73 257 -73q256 0 381 187q79 118 79 274q0 264 -197 392q-114 71 -263 72 q-251 0 -377 -190q-73 -118 -74 -274zM530 929l108 605h163q174 0 225 -136q18 -49 13 -103q-10 -140 -140 -194l90 -172h-119l-76 146h-32h-93l-27 -146h-112zM684 1165h81q146 3 159 130q15 113 -82 141q-22 5 -46 5h-64z" />
<glyph unicode="&#xaf;" horiz-adv-x="1271" d="M512 1329l23 139h535l-25 -139h-533z" />
<glyph unicode="&#xb0;" horiz-adv-x="826" d="M192 1011q0 167 140 254q77 46 167 46q159 0 241 -129q44 -68 44 -151q0 -163 -139 -250q-76 -49 -166 -49q-159 0 -244 128q-44 69 -43 151zM322 1009q0 -120 100 -154q28 -10 57 -10q115 0 156 110q15 39 15 79q0 125 -102 154q-26 7 -52 7q-115 0 -158 -105 q-16 -41 -16 -81z" />
<glyph unicode="&#xb1;" horiz-adv-x="1898" d="M-122 -542l24 140h78q95 0 128 102q10 31 17 68l203 1143h-169l25 149h170l78 450q59 318 320 320q154 -2 237 -112l-114 -108q-56 61 -117 64q-103 0 -138 -115q-10 -29 -16 -59l-76 -440h450l77 428q83 386 437 393q242 0 326 -179q53 -114 26 -273l-210 -1207 q-10 -78 48 -81h116l-24 -141h-135q-177 0 -185 144q0 41 7 91l210 1204q44 227 -107 279q-36 12 -79 12q-193 0 -249 -212q-5 -26 -10 -54l-71 -404h261l-26 -149h-261l-198 -1106q-39 -225 -173 -274q-57 -17 -138 -17h-100l25 141h73q94 0 130 110q7 25 12 56l192 1090 h-451l-203 -1162q-42 -225 -173 -271q-56 -20 -140 -20h-107z" />
<glyph unicode="&#xb2;" d="M136 625q0 87 82 125q28 12 56 12q87 0 125 -76q12 -31 13 -61q0 -90 -82 -129q-28 -12 -56 -12q-85 0 -123 77q-15 31 -15 64z" />
<glyph unicode="&#xb3;" d="M136 625q0 87 82 125q28 12 56 12q87 0 125 -76q12 -31 13 -61q0 -90 -82 -129q-28 -12 -56 -12q-85 0 -123 77q-15 31 -15 64z" />
<glyph unicode="&#xb4;" horiz-adv-x="1271" d="M684 1275l251 494h215l-326 -494h-140z" />
<glyph unicode="&#xb5;" d="M136 625q0 87 82 125q28 12 56 12q87 0 125 -76q12 -31 13 -61q0 -90 -82 -129q-28 -12 -56 -12q-85 0 -123 77q-15 31 -15 64z" />
<glyph unicode="&#xb6;" horiz-adv-x="1583" d="M256 1224q0 256 192 405q146 112 353 112h763l-306 -1741h-178l279 1588h-201l-280 -1588h-177l137 779h-106q-288 0 -414 206q-62 105 -62 239zM448 1226q0 -230 192 -281q49 -13 102 -14h123l115 657h-186q-223 0 -308 -180q-38 -83 -38 -182z" />
<glyph unicode="&#xb7;" d="M136 625q0 87 82 125q28 12 56 12q87 0 125 -76q12 -31 13 -61q0 -90 -82 -129q-28 -12 -56 -12q-85 0 -123 77q-15 31 -15 64z" />
<glyph unicode="&#xb8;" horiz-adv-x="1271" d="M274 -440l112 61q46 -92 142 -95q94 0 114 85q6 18 6 33q0 100 -96 121q-17 3 -34 3h-54l40 232h118l-23 -136q115 -18 163 -125q20 -47 22 -98q0 -151 -134 -212q-56 -23 -115 -23q-174 0 -249 130q-7 13 -12 24z" />
<glyph unicode="&#xb9;" d="M136 625q0 87 82 125q28 12 56 12q87 0 125 -76q12 -31 13 -61q0 -90 -82 -129q-28 -12 -56 -12q-85 0 -123 77q-15 31 -15 64z" />
<glyph unicode="&#xba;" horiz-adv-x="1138" d="M169 828q0 243 182 383q128 100 289 100q222 0 351 -175q90 -122 89 -278q0 -257 -189 -394q-126 -90 -282 -90q-225 0 -353 174q-87 120 -87 280zM338 821q0 -197 138 -276q62 -33 135 -33q179 0 261 162q42 85 42 188q0 184 -130 269q-66 41 -146 41q-182 0 -262 -166 q-38 -82 -38 -185z" />
<glyph unicode="&#xbb;" horiz-adv-x="995" d="M20 95l322 443l-173 386h182l169 -384l-5 -20l-303 -425h-192zM408 95l322 443l-175 386h183l166 -384l-3 -20l-302 -425h-191z" />
<glyph unicode="&#xbc;" d="M136 625q0 87 82 125q28 12 56 12q87 0 125 -76q12 -31 13 -61q0 -90 -82 -129q-28 -12 -56 -12q-85 0 -123 77q-15 31 -15 64z" />
<glyph unicode="&#xbd;" d="M136 625q0 87 82 125q28 12 56 12q87 0 125 -76q12 -31 13 -61q0 -90 -82 -129q-28 -12 -56 -12q-85 0 -123 77q-15 31 -15 64z" />
<glyph unicode="&#xbe;" d="M136 625q0 87 82 125q28 12 56 12q87 0 125 -76q12 -31 13 -61q0 -90 -82 -129q-28 -12 -56 -12q-85 0 -123 77q-15 31 -15 64z" />
<glyph unicode="&#xbf;" horiz-adv-x="1195" d="M110 448q0 261 200 404q141 100 335 100l54 313h166l-79 -451h-112q-254 0 -346 -192q-39 -78 -39 -174q0 -208 163 -282q67 -28 144 -27q223 0 346 212q6 8 10 15l136 -77q-110 -241 -369 -294q-61 -13 -125 -13q-274 0 -404 194q-79 118 -80 272zM709 1625q0 87 80 121 q29 13 53 13q86 0 120 -77q13 -28 13 -57q0 -85 -76 -123q-29 -12 -57 -12q-82 0 -120 76q-12 29 -13 59z" />
<glyph unicode="&#xc0;" horiz-adv-x="1642" d="M0 0l1019 1759h29l411 -1759h-181l-67 295h-860l-167 -295h-184zM438 445h740l-174 771l-32 200l-76 -170q-10 -17 -18 -30zM730 2421h205l155 -493h-138z" />
<glyph unicode="&#xc1;" horiz-adv-x="1642" d="M0 0l1019 1759h29l411 -1759h-181l-67 295h-860l-167 -295h-184zM438 445h740l-174 771l-32 200l-76 -170q-10 -17 -18 -30zM958 1928l251 493h215l-325 -493h-141z" />
<glyph unicode="&#xc2;" horiz-adv-x="1642" d="M0 0l1019 1759h29l411 -1759h-181l-67 295h-860l-167 -295h-184zM438 445h740l-174 771l-32 200l-76 -170q-10 -17 -18 -30zM679 1922l403 494h27l240 -494h-140l-144 272l-233 -272h-153z" />
<glyph unicode="&#xc3;" horiz-adv-x="1642" d="M0 0l1019 1759h29l411 -1759h-181l-67 295h-860l-167 -295h-184zM438 445h740l-174 771l-32 200l-76 -170q-10 -17 -18 -30zM650 1928q51 278 239 281q76 -3 163 -79q77 -66 96 -71q12 -5 22 -7q56 0 88 88q10 31 17 66l130 -15q-51 -276 -235 -281q-79 2 -166 79 q-74 66 -95 75q-10 2 -20 2q-59 0 -93 -97q-7 -25 -15 -57z" />
<glyph unicode="&#xc4;" horiz-adv-x="1642" d="M0 0l1019 1759h29l411 -1759h-181l-67 295h-860l-167 -295h-184zM438 445h740l-174 771l-32 200l-76 -170q-10 -17 -18 -30zM716 2091q0 79 75 110q20 8 41 8q72 0 106 -69q10 -25 10 -49q0 -73 -70 -105q-23 -10 -46 -10q-73 0 -104 66q-10 26 -12 49zM1152 2091 q0 77 72 108q22 10 44 10q73 0 104 -69q10 -25 10 -49q0 -76 -71 -107q-23 -8 -43 -8q-72 0 -106 66q-10 26 -10 49z" />
<glyph unicode="&#xc5;" horiz-adv-x="1642" d="M0 0l1019 1759h29l411 -1759h-181l-67 295h-860l-167 -295h-184zM438 445h740l-174 771l-32 200l-76 -170q-10 -17 -18 -30zM781 2148q0 141 120 217q67 41 147 41q148 0 224 -120q42 -64 42 -138q0 -139 -122 -216q-66 -41 -144 -41q-149 0 -227 121q-41 64 -40 136z M911 2148q0 -106 90 -136q24 -7 47 -7q97 0 124 91q8 25 8 52q0 112 -95 138q-20 5 -37 5q-100 0 -129 -90q-8 -29 -8 -53z" />
<glyph unicode="&#xc6;" horiz-adv-x="2372" d="M-25 0l1437 1741h994l-25 -159h-850l-146 -822h755l-25 -159h-759l-78 -442h886l-29 -159h-1065l51 291h-706l-239 -291h-201zM540 445h608l137 789l61 227l-120 -173q-12 -18 -22 -30z" />
<glyph unicode="&#xc7;" horiz-adv-x="1822" d="M181 819q0 405 275 676q276 259 655 266q450 -2 668 -340l-143 -95q-187 272 -530 274q-322 0 -537 -235q-200 -223 -200 -541q0 -335 222 -529q174 -154 420 -154q338 3 558 253l133 -105q-271 -310 -698 -309h-34l-20 -116q115 -18 164 -125q20 -47 20 -98 q0 -151 -133 -212q-56 -23 -115 -23q-174 0 -248 130q-8 13 -13 24l113 61q46 -92 140 -95q94 0 116 85q5 18 5 33q0 100 -95 121q-18 3 -36 3h-54l38 224q-337 57 -524 336q-147 214 -147 491z" />
<glyph unicode="&#xc8;" horiz-adv-x="1448" d="M139 0l306 1741h1037l-26 -159h-860l-144 -822h764l-28 -156h-763l-80 -445h894l-28 -159h-1072zM696 2421h205l157 -493h-139z" />
<glyph unicode="&#xc9;" horiz-adv-x="1448" d="M139 0l306 1741h1037l-26 -159h-860l-144 -822h764l-28 -156h-763l-80 -445h894l-28 -159h-1072zM899 1928l251 493h215l-326 -493h-140z" />
<glyph unicode="&#xca;" horiz-adv-x="1448" d="M139 0l306 1741h1037l-26 -159h-860l-144 -822h764l-28 -156h-763l-80 -445h894l-28 -159h-1072zM645 1922l405 494h25l241 -494h-141l-144 272l-232 -272h-154z" />
<glyph unicode="&#xcb;" horiz-adv-x="1448" d="M139 0l306 1741h1037l-26 -159h-860l-144 -822h764l-28 -156h-763l-80 -445h894l-28 -159h-1072zM662 2091q0 79 76 110q20 8 41 8q71 0 105 -69q10 -25 10 -49q0 -73 -70 -105q-23 -10 -45 -10q-74 0 -105 66q-10 26 -12 49zM1099 2091q0 77 71 108q22 10 44 10 q74 0 105 -69q10 -25 10 -49q0 -76 -71 -107q-24 -8 -44 -8q-72 0 -105 66q-10 26 -10 49z" />
<glyph unicode="&#xcc;" horiz-adv-x="662" d="M149 0l307 1741h182l-308 -1741h-181zM261 2421h205l156 -493h-138z" />
<glyph unicode="&#xcd;" horiz-adv-x="662" d="M149 0l307 1741h182l-308 -1741h-181zM484 1928l251 493h215l-325 -493h-141z" />
<glyph unicode="&#xce;" horiz-adv-x="662" d="M149 0l307 1741h182l-308 -1741h-181zM235 1922l405 494h25l241 -494h-141l-143 272l-233 -272h-154z" />
<glyph unicode="&#xcf;" horiz-adv-x="662" d="M149 0l307 1741h182l-308 -1741h-181zM281 2091q0 79 75 110q20 8 40 8q72 0 105 -69q10 -25 11 -49q0 -73 -70 -105q-23 -10 -46 -10q-74 0 -105 66q-10 26 -10 49zM716 2091q0 77 73 108q22 10 43 10q74 0 106 -69q10 -25 10 -49q0 -76 -73 -107q-23 -8 -43 -8 q-71 0 -104 66q-10 26 -12 49z" />
<glyph unicode="&#xd0;" horiz-adv-x="1686" d="M49 622l27 159h200l169 960h395q445 0 658 -297q141 -198 141 -476q0 -474 -315 -740q-272 -228 -696 -228h-489l110 622h-200zM349 159h269q507 0 716 351q115 195 115 462q0 410 -308 549q-139 61 -322 61h-220l-140 -801h460l-28 -159h-461z" />
<glyph unicode="&#xd1;" horiz-adv-x="1783" d="M139 0l309 1759h28l802 -1237l92 -163q0 2 18 193l210 1189h171l-310 -1759h-30l-799 1232l-95 164l-13 -169q-2 -15 -4 -27l-208 -1182h-171zM745 1928q51 278 237 281q77 -3 166 -79q76 -66 93 -71q13 -5 24 -7q56 0 86 88q10 31 19 66l130 -15q-51 -276 -235 -281 q-79 2 -166 79q-74 66 -95 75q-10 2 -22 2q-58 0 -91 -97q-9 -25 -16 -57z" />
<glyph unicode="&#xd2;" horiz-adv-x="2006" d="M188 814q0 415 276 686q268 261 652 261q366 0 604 -246q222 -235 222 -586q0 -415 -276 -685q-271 -262 -655 -264q-371 0 -606 250q-217 235 -217 584zM374 814q0 -340 227 -530q171 -143 418 -143q335 0 547 248q190 222 190 542q0 343 -230 530q-171 137 -412 137 q-338 0 -550 -247q-190 -220 -190 -537zM860 2421h205l156 -493h-139z" />
<glyph unicode="&#xd3;" horiz-adv-x="2006" d="M188 814q0 415 276 686q268 261 652 261q366 0 604 -246q222 -235 222 -586q0 -415 -276 -685q-271 -262 -655 -264q-371 0 -606 250q-217 235 -217 584zM374 814q0 -340 227 -530q171 -143 418 -143q335 0 547 248q190 222 190 542q0 343 -230 530q-171 137 -412 137 q-338 0 -550 -247q-190 -220 -190 -537zM1099 1928l250 493h215l-325 -493h-140z" />
<glyph unicode="&#xd4;" horiz-adv-x="2006" d="M188 814q0 415 276 686q268 261 652 261q366 0 604 -246q222 -235 222 -586q0 -415 -276 -685q-271 -262 -655 -264q-371 0 -606 250q-217 235 -217 584zM374 814q0 -340 227 -530q171 -143 418 -143q335 0 547 248q190 222 190 542q0 343 -230 530q-171 137 -412 137 q-338 0 -550 -247q-190 -220 -190 -537zM838 1922l403 494h27l240 -494h-140l-144 272l-233 -272h-153z" />
<glyph unicode="&#xd5;" horiz-adv-x="2006" d="M188 814q0 415 276 686q268 261 652 261q366 0 604 -246q222 -235 222 -586q0 -415 -276 -685q-271 -262 -655 -264q-371 0 -606 250q-217 235 -217 584zM374 814q0 -340 227 -530q171 -143 418 -143q335 0 547 248q190 222 190 542q0 343 -230 530q-171 137 -412 137 q-338 0 -550 -247q-190 -220 -190 -537zM806 1928q52 278 239 281q76 -3 164 -79q76 -66 93 -71q13 -5 24 -7q56 0 86 88q10 31 19 66l130 -15q-51 -276 -235 -281q-78 2 -166 79q-74 66 -95 75q-10 2 -20 2q-59 0 -93 -97q-7 -25 -14 -57z" />
<glyph unicode="&#xd6;" horiz-adv-x="2006" d="M188 814q0 415 276 686q268 261 652 261q366 0 604 -246q222 -235 222 -586q0 -415 -276 -685q-271 -262 -655 -264q-371 0 -606 250q-217 235 -217 584zM374 814q0 -340 227 -530q171 -143 418 -143q335 0 547 248q190 222 190 542q0 343 -230 530q-171 137 -412 137 q-338 0 -550 -247q-190 -220 -190 -537zM868 2091q0 79 74 110q20 8 40 8q72 0 106 -69q10 -25 11 -49q0 -73 -70 -105q-24 -10 -47 -10q-73 0 -104 66q-10 26 -10 49zM1302 2091q0 77 73 108q23 10 44 10q73 0 105 -69q10 -25 10 -49q0 -76 -73 -107q-22 -8 -42 -8 q-71 0 -105 66q-10 26 -12 49z" />
<glyph unicode="&#xd7;" d="M136 625q0 87 82 125q28 12 56 12q87 0 125 -76q12 -31 13 -61q0 -90 -82 -129q-28 -12 -56 -12q-85 0 -123 77q-15 31 -15 64z" />
<glyph unicode="&#xd8;" horiz-adv-x="2006" d="M156 88l203 198q-171 223 -171 528q0 415 276 686q266 261 647 261q325 -2 553 -195l200 195l107 -110l-200 -195q171 -225 171 -527q0 -415 -276 -685q-271 -262 -650 -264q-322 2 -552 194l-200 -196zM374 814q2 -230 112 -402l1055 1034q-169 152 -430 152 q-332 0 -545 -244q-192 -220 -192 -540zM586 295q176 -154 435 -154q330 0 543 245q192 223 192 545q-2 231 -112 400z" />
<glyph unicode="&#xd9;" horiz-adv-x="1658" d="M238 645l192 1096h185l-193 -1099q-58 -342 172 -454q92 -47 215 -47q353 0 440 340q10 37 16 71l207 1189h184l-215 -1211q-100 -548 -640 -550q-312 0 -471 201q-141 181 -92 464zM740 2421h205l156 -493h-139z" />
<glyph unicode="&#xda;" horiz-adv-x="1658" d="M238 645l192 1096h185l-193 -1099q-58 -342 172 -454q92 -47 215 -47q353 0 440 340q10 37 16 71l207 1189h184l-215 -1211q-100 -548 -640 -550q-312 0 -471 201q-141 181 -92 464zM962 1928l252 493h215l-325 -493h-142z" />
<glyph unicode="&#xdb;" horiz-adv-x="1658" d="M238 645l192 1096h185l-193 -1099q-58 -342 172 -454q92 -47 215 -47q353 0 440 340q10 37 16 71l207 1189h184l-215 -1211q-100 -548 -640 -550q-312 0 -471 201q-141 181 -92 464zM719 1922l405 494h26l240 -494h-141l-143 272l-234 -272h-153z" />
<glyph unicode="&#xdc;" horiz-adv-x="1658" d="M238 645l192 1096h185l-193 -1099q-58 -342 172 -454q92 -47 215 -47q353 0 440 340q10 37 16 71l207 1189h184l-215 -1211q-100 -548 -640 -550q-312 0 -471 201q-141 181 -92 464zM738 2091q0 79 73 110q20 8 41 8q72 0 106 -69q10 -25 10 -49q0 -73 -69 -105 q-24 -10 -47 -10q-73 0 -104 66q-10 26 -10 49zM1172 2091q0 77 72 108q22 10 44 10q73 0 104 -69q10 -25 10 -49q0 -76 -71 -107q-23 -8 -43 -8q-72 0 -106 66q-10 26 -10 49z" />
<glyph unicode="&#xdd;" horiz-adv-x="1640" d="M302 1741h192l315 -860q10 -31 21.5 -77t17.5 -76l4 -32l74 146q13 23 24 39l614 860h202l-847 -1193l-98 -548h-181l98 550zM958 1928l251 493h215l-325 -493h-141z" />
<glyph unicode="&#xde;" horiz-adv-x="1448" d="M141 0l307 1741h182l-36 -202h156q376 0 540 -259q90 -144 90 -335q-2 -407 -295 -594q-193 -122 -476 -123h-245l-42 -228h-181zM391 386h220q487 0 567 408q14 71 14 151q3 307 -242 401q-92 36 -212 36h-172z" />
<glyph unicode="&#xdf;" horiz-adv-x="1348" d="M-200 -542l26 140h76q96 0 129 102q10 31 18 68l289 1644q84 467 476 469q244 0 351 -181q54 -98 54 -225q0 -266 -225 -405q-52 -31 -105 -51q241 -74 315 -300q28 -83 27 -174q0 -333 -232 -476q-133 -83 -313 -81q-132 0 -230 43l45 140q90 -33 178 -32q271 0 347 247 q23 79 24 178q0 271 -241 352q-77 25 -169 29l25 143q223 12 329 174q58 93 58 210q0 228 -190 258q-24 2 -51 2q-217 0 -286 -254q-7 -39 -15 -78l-292 -1651q-39 -228 -174 -274q-56 -17 -136 -17h-108z" />
<glyph unicode="&#xe0;" horiz-adv-x="1351" d="M115 489q0 302 200 473q141 120 323 120q212 0 330 -171q43 -63 63 -141l44 290h174l-145 -838q-8 -78 51 -81h96l-25 -141h-115q-171 0 -180 128q0 24 4 56l7 34q-148 -236 -390 -238q-241 0 -360 201q-76 130 -77 308zM295 486q0 -222 147 -315q69 -41 154 -41 q198 0 310 168q76 114 76 266q0 217 -144 317q-74 49 -169 48q-210 0 -313 -187q-61 -112 -61 -256zM442 1769h206l156 -494h-139z" />
<glyph unicode="&#xe1;" horiz-adv-x="1351" d="M115 489q0 302 200 473q141 120 323 120q212 0 330 -171q43 -63 63 -141l44 290h174l-145 -838q-8 -78 51 -81h96l-25 -141h-115q-171 0 -180 128q0 24 4 56l7 34q-148 -236 -390 -238q-241 0 -360 201q-76 130 -77 308zM295 486q0 -222 147 -315q69 -41 154 -41 q198 0 310 168q76 114 76 266q0 217 -144 317q-74 49 -169 48q-210 0 -313 -187q-61 -112 -61 -256zM660 1275l251 494h215l-325 -494h-141z" />
<glyph unicode="&#xe2;" horiz-adv-x="1351" d="M115 489q0 302 200 473q141 120 323 120q212 0 330 -171q43 -63 63 -141l44 290h174l-145 -838q-8 -78 51 -81h96l-25 -141h-115q-171 0 -180 128q0 24 4 56l7 34q-148 -236 -390 -238q-241 0 -360 201q-76 130 -77 308zM295 486q0 -222 147 -315q69 -41 154 -41 q198 0 310 168q76 114 76 266q0 217 -144 317q-74 49 -169 48q-210 0 -313 -187q-61 -112 -61 -256zM432 1270l406 494h24l242 -494h-142l-143 271l-233 -271h-154z" />
<glyph unicode="&#xe3;" horiz-adv-x="1351" d="M115 489q0 302 200 473q141 120 323 120q212 0 330 -171q43 -63 63 -141l44 290h174l-145 -838q-8 -78 51 -81h96l-25 -141h-115q-171 0 -180 128q0 24 4 56l7 34q-148 -236 -390 -238q-241 0 -360 201q-76 130 -77 308zM295 486q0 -222 147 -315q69 -41 154 -41 q198 0 310 168q76 114 76 266q0 217 -144 317q-74 49 -169 48q-210 0 -313 -187q-61 -112 -61 -256zM420 1275q51 279 238 281q76 -2 163 -78q77 -67 95 -73q13 -5 24 -5q56 0 86 88q10 31 19 66l130 -15q-51 -277 -235 -281q-79 2 -168 78q-73 66 -93 74q-10 2 -21 2 q-59 0 -92 -96q-8 -25 -16 -56z" />
<glyph unicode="&#xe4;" horiz-adv-x="1351" d="M115 489q0 302 200 473q141 120 323 120q212 0 330 -171q43 -63 63 -141l44 290h174l-145 -838q-8 -78 51 -81h96l-25 -141h-115q-171 0 -180 128q0 24 4 56l7 34q-148 -236 -390 -238q-241 0 -360 201q-76 130 -77 308zM295 486q0 -222 147 -315q69 -41 154 -41 q198 0 310 168q76 114 76 266q0 217 -144 317q-74 49 -169 48q-210 0 -313 -187q-61 -112 -61 -256zM479 1439q0 79 73 110q20 7 42 7q71 0 105 -68q10 -26 10 -49q0 -74 -69 -105q-24 -10 -46 -10q-74 0 -105 66q-10 25 -10 49zM914 1439q0 76 71 107q23 10 44 10 q73 0 105 -68q10 -26 10 -49q0 -77 -72 -108q-23 -7 -43 -7q-71 0 -105 66q-10 25 -10 49z" />
<glyph unicode="&#xe5;" horiz-adv-x="1351" d="M115 489q0 302 200 473q141 120 323 120q212 0 330 -171q43 -63 63 -141l44 290h174l-145 -838q-8 -78 51 -81h96l-25 -141h-115q-171 0 -180 128q0 24 4 56l7 34q-148 -236 -390 -238q-241 0 -360 201q-76 130 -77 308zM295 486q0 -222 147 -315q69 -41 154 -41 q198 0 310 168q76 114 76 266q0 217 -144 317q-74 49 -169 48q-210 0 -313 -187q-61 -112 -61 -256zM542 1495q0 141 120 217q67 42 147 42q149 0 225 -120q41 -64 41 -139q0 -139 -120 -215q-67 -41 -146 -41q-149 0 -225 120q-42 63 -42 136zM674 1495q0 -105 88 -136 q24 -8 47 -8q97 0 126 93q7 25 7 51q0 113 -94 139q-20 5 -39 5q-100 0 -128 -90q-7 -29 -7 -54z" />
<glyph unicode="&#xe6;" horiz-adv-x="1991" d="M76 281q0 261 275 325q74 15 157 16h340l2 8q39 220 -108 286q-48 23 -107 24q-187 -2 -303 -151l-104 102q132 179 383 191h29q212 0 310 -158q15 -26 25 -49q151 205 405 207q328 0 448 -281q51 -120 53 -273l-870 -93q29 -203 200 -279q74 -31 161 -31q206 3 333 134 l110 -108q-169 -171 -443 -171q-283 0 -420 215q-20 31 -36 64q-112 -277 -455 -279q-253 0 -346 156q-39 66 -39 145zM254 291q0 -139 151 -166q34 -5 69 -5q261 0 322 202q5 18 8 34l24 135h-320q-252 -5 -254 -200zM1009 569l689 71q-20 202 -177 271q-63 29 -141 29 q-212 0 -315 -185q-46 -84 -56 -186z" />
<glyph unicode="&#xe7;" horiz-adv-x="1163" d="M118 508q0 273 200 442q158 132 373 132q261 -2 408 -188l-129 -103q-102 137 -279 138q-222 0 -330 -181q-63 -108 -63 -244q0 -210 147 -314q87 -59 195 -60q164 0 281 105l103 -115q-154 -141 -384 -140h-31l-20 -116q115 -18 163 -125q20 -47 20 -98 q0 -151 -132 -212q-56 -23 -115 -23q-174 0 -249 130q-7 13 -12 24l112 61q46 -92 142 -95q94 0 114 85q6 18 6 33q0 100 -96 121q-17 3 -34 3h-56l42 230q-230 63 -328 276q-48 107 -48 234z" />
<glyph unicode="&#xe8;" horiz-adv-x="1276" d="M118 508q0 276 197 444q151 130 354 130q325 0 445 -276q51 -122 54 -278l-870 -93q31 -205 206 -279q71 -31 156 -31q202 3 331 134l110 -108q-169 -171 -441 -171q-286 0 -440 204q-102 138 -102 324zM295 569l687 71q-20 210 -183 276q-61 23 -134 24 q-215 0 -316 -190q-44 -81 -54 -181zM412 1769h206l154 -494h-137z" />
<glyph unicode="&#xe9;" horiz-adv-x="1276" d="M118 508q0 276 197 444q151 130 354 130q325 0 445 -276q51 -122 54 -278l-870 -93q31 -205 206 -279q71 -31 156 -31q202 3 331 134l110 -108q-169 -171 -441 -171q-286 0 -440 204q-102 138 -102 324zM295 569l687 71q-20 210 -183 276q-61 23 -134 24 q-215 0 -316 -190q-44 -81 -54 -181zM671 1275l250 494h215l-325 -494h-140z" />
<glyph unicode="&#xea;" horiz-adv-x="1276" d="M118 508q0 276 197 444q151 130 354 130q325 0 445 -276q51 -122 54 -278l-870 -93q31 -205 206 -279q71 -31 156 -31q202 3 331 134l110 -108q-169 -171 -441 -171q-286 0 -440 204q-102 138 -102 324zM295 569l687 71q-20 210 -183 276q-61 23 -134 24 q-215 0 -316 -190q-44 -81 -54 -181zM396 1270l405 494h27l240 -494h-142l-142 271l-234 -271h-154z" />
<glyph unicode="&#xeb;" horiz-adv-x="1276" d="M118 508q0 276 197 444q151 130 354 130q325 0 445 -276q51 -122 54 -278l-870 -93q31 -205 206 -279q71 -31 156 -31q202 3 331 134l110 -108q-169 -171 -441 -171q-286 0 -440 204q-102 138 -102 324zM295 569l687 71q-20 210 -183 276q-61 23 -134 24 q-215 0 -316 -190q-44 -81 -54 -181zM435 1439q0 79 75 110q20 7 40 7q71 0 105 -68q10 -26 10 -49q0 -74 -69 -105q-24 -10 -46 -10q-74 0 -105 66q-10 25 -10 49zM870 1439q0 76 72 107q23 10 43 10q74 0 105 -68q10 -26 11 -49q0 -77 -72 -108q-24 -7 -44 -7 q-71 0 -104 66q-10 25 -11 49z" />
<glyph unicode="&#xec;" horiz-adv-x="596" d="M110 1769h205l156 -494h-139zM141 144q0 41 8 91l142 825h175l-146 -838q-10 -78 49 -81h105l-26 -141h-123q-176 0 -184 144z" />
<glyph unicode="&#xed;" horiz-adv-x="596" d="M141 144q0 41 8 91l142 825h175l-146 -838q-10 -78 49 -81h105l-26 -141h-123q-176 0 -184 144zM335 1275l251 494h215l-325 -494h-141z" />
<glyph unicode="&#xee;" horiz-adv-x="596" d="M69 1270l405 494h25l241 -494h-141l-143 271l-234 -271h-153zM141 144q0 41 8 91l142 825h175l-146 -838q-10 -78 49 -81h105l-26 -141h-123q-176 0 -184 144z" />
<glyph unicode="&#xef;" horiz-adv-x="596" d="M105 1439q0 79 74 110q20 7 41 7q71 0 105 -68q10 -26 10 -49q0 -74 -69 -105q-24 -10 -46 -10q-74 0 -105 66q-10 25 -10 49zM141 144q0 41 8 91l142 825h175l-146 -838q-10 -78 49 -81h105l-26 -141h-123q-176 0 -184 144zM540 1439q0 76 71 107q23 10 44 10 q74 0 105 -68q10 -26 10 -49q0 -77 -71 -108q-24 -7 -44 -7q-71 0 -105 66q-10 25 -10 49z" />
<glyph unicode="&#xf0;" horiz-adv-x="1333" d="M122 512q0 279 208 448q154 122 344 122q235 -2 352 -178q-56 302 -232 581l-195 -151l-69 97l195 154q-83 117 -161 205l110 99q107 -108 178 -204l193 150l71 -96l-195 -151q303 -448 303 -948q0 -396 -249 -566q-139 -95 -327 -94q-269 0 -420 199q-106 141 -106 333z M300 508q0 -226 159 -327q83 -53 191 -53q225 0 330 192q59 110 59 254q0 210 -153 307q-85 51 -190 50q-210 0 -322 -169q-74 -112 -74 -254z" />
<glyph unicode="&#xf1;" horiz-adv-x="1282" d="M90 0l186 1060h174l-42 -212q130 232 376 234q215 0 301 -171q64 -125 34 -300l-69 -389q-10 -78 51 -81h97l-26 -141h-117q-181 0 -185 156q0 36 8 79l64 361q47 256 -123 315q-44 15 -97 15q-278 0 -346 -298q-5 -16 -7 -32l-105 -596h-174zM376 1275q52 279 239 281 q76 -2 164 -78q76 -67 93 -73q13 -5 24 -5q56 0 86 88q10 31 19 66l130 -15q-51 -277 -235 -281q-78 2 -166 78q-74 66 -95 74q-10 2 -20 2q-59 0 -93 -96q-7 -25 -14 -56z" />
<glyph unicode="&#xf2;" horiz-adv-x="1333" d="M118 504q0 274 202 446q159 132 371 132q251 0 408 -186q120 -148 120 -341q0 -276 -203 -445q-158 -130 -368 -130q-249 0 -407 186q-122 146 -123 338zM298 501q0 -212 154 -313q88 -58 198 -58q220 0 328 182q61 108 61 246q0 212 -153 314q-87 57 -197 57 q-213 0 -323 -177q-68 -110 -68 -251zM448 1769h204l157 -494h-138z" />
<glyph unicode="&#xf3;" horiz-adv-x="1333" d="M118 504q0 274 202 446q159 132 371 132q251 0 408 -186q120 -148 120 -341q0 -276 -203 -445q-158 -130 -368 -130q-249 0 -407 186q-122 146 -123 338zM298 501q0 -212 154 -313q88 -58 198 -58q220 0 328 182q61 108 61 246q0 212 -153 314q-87 57 -197 57 q-213 0 -323 -177q-68 -110 -68 -251zM676 1275l250 494h215l-325 -494h-140z" />
<glyph unicode="&#xf4;" horiz-adv-x="1333" d="M118 504q0 274 202 446q159 132 371 132q251 0 408 -186q120 -148 120 -341q0 -276 -203 -445q-158 -130 -368 -130q-249 0 -407 186q-122 146 -123 338zM298 501q0 -212 154 -313q88 -58 198 -58q220 0 328 182q61 108 61 246q0 212 -153 314q-87 57 -197 57 q-213 0 -323 -177q-68 -110 -68 -251zM428 1270l404 494h26l241 -494h-141l-144 271l-233 -271h-153z" />
<glyph unicode="&#xf5;" horiz-adv-x="1333" d="M118 504q0 274 202 446q159 132 371 132q251 0 408 -186q120 -148 120 -341q0 -276 -203 -445q-158 -130 -368 -130q-249 0 -407 186q-122 146 -123 338zM298 501q0 -212 154 -313q88 -58 198 -58q220 0 328 182q61 108 61 246q0 212 -153 314q-87 57 -197 57 q-213 0 -323 -177q-68 -110 -68 -251zM389 1275q51 279 239 281q76 -2 163 -78q77 -67 95 -73q13 -5 23 -5q56 0 87 88q10 31 18 66l130 -15q-52 -277 -235 -281q-79 2 -167 78q-73 66 -94 74q-10 2 -20 2q-59 0 -93 -96q-7 -25 -15 -56z" />
<glyph unicode="&#xf6;" horiz-adv-x="1333" d="M118 504q0 274 202 446q159 132 371 132q251 0 408 -186q120 -148 120 -341q0 -276 -203 -445q-158 -130 -368 -130q-249 0 -407 186q-122 146 -123 338zM298 501q0 -212 154 -313q88 -58 198 -58q220 0 328 182q61 108 61 246q0 212 -153 314q-87 57 -197 57 q-213 0 -323 -177q-68 -110 -68 -251zM469 1439q0 79 73 110q20 7 42 7q71 0 105 -68q10 -26 10 -49q0 -74 -69 -105q-24 -10 -46 -10q-74 0 -105 66q-10 25 -10 49zM904 1439q0 76 71 107q23 10 44 10q73 0 105 -68q10 -26 10 -49q0 -77 -72 -108q-23 -7 -43 -7 q-71 0 -105 66q-10 25 -10 49z" />
<glyph unicode="&#xf7;" d="M136 625q0 87 82 125q28 12 56 12q87 0 125 -76q12 -31 13 -61q0 -90 -82 -129q-28 -12 -56 -12q-85 0 -123 77q-15 31 -15 64z" />
<glyph unicode="&#xf8;" horiz-adv-x="1333" d="M66 64l149 136q-95 141 -95 304q0 274 202 446q159 132 372 132q202 -2 345 -127l146 133l87 -94l-146 -134q95 -139 95 -305q0 -276 -202 -445q-159 -130 -369 -130q-200 2 -345 125l-149 -136zM295 501q-1 -106 43 -189l588 538q-92 88 -235 88q-217 0 -330 -183 q-66 -110 -66 -254zM415 208q97 -86 237 -86q220 0 330 186q64 110 66 250q0 107 -44 190z" />
<glyph unicode="&#xf9;" horiz-adv-x="1287" d="M159 448l107 612h174l-105 -596q-46 -256 124 -315q43 -15 96 -17q269 0 341 286q5 22 10 46l108 596h174l-149 -838q-8 -78 51 -81h98l-26 -141h-114q-177 0 -180 144q0 22 2 44l2 17q-141 -225 -378 -227q-215 0 -302 173q-61 125 -33 297zM445 1769h205l156 -494h-137 z" />
<glyph unicode="&#xfa;" horiz-adv-x="1287" d="M159 448l107 612h174l-105 -596q-46 -256 124 -315q43 -15 96 -17q269 0 341 286q5 22 10 46l108 596h174l-149 -838q-8 -78 51 -81h98l-26 -141h-114q-177 0 -180 144q0 22 2 44l2 17q-141 -225 -378 -227q-215 0 -302 173q-61 125 -33 297zM669 1275l250 494h215 l-325 -494h-140z" />
<glyph unicode="&#xfb;" horiz-adv-x="1287" d="M159 448l107 612h174l-105 -596q-46 -256 124 -315q43 -15 96 -17q269 0 341 286q5 22 10 46l108 596h174l-149 -838q-8 -78 51 -81h98l-26 -141h-114q-177 0 -180 144q0 22 2 44l2 17q-141 -225 -378 -227q-215 0 -302 173q-61 125 -33 297zM422 1270l406 494h24 l240 -494h-140l-143 271l-233 -271h-154z" />
<glyph unicode="&#xfc;" horiz-adv-x="1287" d="M159 448l107 612h174l-105 -596q-46 -256 124 -315q43 -15 96 -17q269 0 341 286q5 22 10 46l108 596h174l-149 -838q-8 -78 51 -81h98l-26 -141h-114q-177 0 -180 144q0 22 2 44l2 17q-141 -225 -378 -227q-215 0 -302 173q-61 125 -33 297zM440 1439q0 79 75 110 q20 7 40 7q71 0 105 -68q10 -26 11 -49q0 -74 -70 -105q-23 -10 -46 -10q-74 0 -105 66q-10 25 -10 49zM875 1439q0 76 73 107q22 10 43 10q74 0 105 -68q10 -26 10 -49q0 -77 -72 -108q-23 -7 -43 -7q-71 0 -105 66q-10 25 -11 49z" />
<glyph unicode="&#xfd;" horiz-adv-x="1290" d="M29 -318l137 90q100 -176 282 -190h31q273 0 345 303q5 20 8 39l46 252q-139 -197 -360 -198q-216 0 -303 171q-64 125 -34 299l108 612h175l-105 -596q-47 -256 122 -315q44 -15 98 -17q289 6 350 332l107 596h175l-205 -1160q-74 -415 -432 -466q-46 -5 -95 -5 q-284 0 -420 200q-18 29 -30 53zM699 1275l251 494h215l-325 -494h-141z" />
<glyph unicode="&#xfe;" horiz-adv-x="1366" d="M-5 -542l420 2391h174l-174 -997q146 223 389 230q244 0 368 -201q83 -130 83 -307q0 -295 -197 -469q-147 -125 -333 -125q-220 0 -346 169q-44 61 -64 130l-146 -821h-174zM359 496q0 -220 151 -317q79 -49 176 -49q215 0 323 185q66 113 66 259q0 222 -156 315 q-71 41 -161 40q-208 0 -323 -171q-76 -113 -76 -262z" />
<glyph unicode="&#xff;" horiz-adv-x="1290" d="M20 -318l139 90q100 -176 281 -190h31q274 0 345 303q5 20 8 39l46 252q-139 -197 -360 -198q-215 0 -302 171q-64 125 -34 299l107 612h175l-105 -596q-46 -256 123 -315q44 -15 97 -17q289 6 350 332l108 596h175l-205 -1160q-74 -415 -433 -466q-46 -5 -95 -5 q-283 0 -420 200q-17 29 -31 53zM445 1439q0 79 75 110q20 7 41 7q71 0 104 -68q10 -26 11 -49q0 -74 -70 -105q-22 -10 -45 -10q-73 0 -105 66q-10 25 -11 49zM881 1439q0 76 71 107q23 10 44 10q74 0 105 -68q10 -26 10 -49q0 -77 -72 -108q-23 -7 -43 -7q-71 0 -105 66 q-10 25 -10 49z" />
<glyph unicode="&#x152;" horiz-adv-x="2508" d="M174 772q0 482 322 746q272 222 692 223h1354l-31 -161h-857l-144 -820h764l-26 -161h-766l-77 -438h891l-27 -161h-1294q-459 0 -667 305q-133 195 -134 467zM364 768q0 -410 307 -548q139 -61 323 -61h230l251 1423h-280q-507 0 -716 -351q-115 -195 -115 -463z" />
<glyph unicode="&#x153;" horiz-adv-x="2198" d="M118 504q0 274 202 446q161 132 374 132q264 0 402 -212q23 -36 40 -74q108 223 342 274q56 12 112 12q330 0 448 -283q48 -120 51 -271l-870 -93q31 -205 207 -279q72 -31 156 -31q203 3 330 134l110 -108q-168 -171 -440 -171q-283 0 -422 215q-24 33 -39 69 q-120 -235 -376 -276q-49 -8 -97 -8q-249 0 -407 186q-122 146 -123 338zM298 501q0 -212 154 -313q88 -58 198 -58q220 0 328 182q61 108 61 246q0 212 -153 314q-87 57 -197 57q-213 0 -323 -177q-68 -110 -68 -251zM1216 569l689 71q-20 210 -185 276q-61 23 -132 24 q-216 0 -318 -190q-44 -81 -54 -181z" />
<glyph unicode="&#x178;" horiz-adv-x="1640" d="M302 1741h192l315 -860q10 -31 21.5 -77t17.5 -76l4 -32l74 146q13 23 24 39l614 860h202l-847 -1193l-98 -548h-181l98 550zM719 2091q0 79 75 110q20 8 41 8q71 0 105 -69q10 -25 10 -49q0 -73 -69 -105q-23 -10 -46 -10q-74 0 -105 66q-10 26 -11 49zM1155 2091 q0 77 71 108q23 10 44 10q74 0 105 -69q10 -25 10 -49q0 -76 -71 -107q-24 -8 -44 -8q-71 0 -105 66q-10 26 -10 49z" />
<glyph unicode="&#x2c6;" horiz-adv-x="1268" d="M430 1270l405 494h25l241 -494h-141l-144 271l-232 -271h-154z" />
<glyph unicode="&#x2dc;" horiz-adv-x="1253" d="M402 1275q52 279 238 281q76 -2 164 -78q76 -67 95 -73q12 -5 22 -5q57 0 88 88q10 31 17 66l132 -15q-52 -277 -237 -281q-79 2 -166 78q-74 66 -95 74q-10 2 -20 2q-59 0 -92 -96q-8 -25 -16 -56z" />
<glyph unicode="&#x2000;" horiz-adv-x="1210" />
<glyph unicode="&#x2001;" horiz-adv-x="2421" />
<glyph unicode="&#x2002;" horiz-adv-x="1210" />
<glyph unicode="&#x2003;" horiz-adv-x="2421" />
<glyph unicode="&#x2004;" horiz-adv-x="807" />
<glyph unicode="&#x2005;" horiz-adv-x="605" />
<glyph unicode="&#x2006;" horiz-adv-x="403" />
<glyph unicode="&#x2007;" horiz-adv-x="403" />
<glyph unicode="&#x2008;" horiz-adv-x="302" />
<glyph unicode="&#x2009;" horiz-adv-x="484" />
<glyph unicode="&#x200a;" horiz-adv-x="134" />
<glyph unicode="&#x2010;" horiz-adv-x="708" d="M112 515l29 154h481l-26 -154h-484z" />
<glyph unicode="&#x2011;" horiz-adv-x="708" d="M112 515l29 154h481l-26 -154h-484z" />
<glyph unicode="&#x2012;" horiz-adv-x="708" d="M112 515l29 154h481l-26 -154h-484z" />
<glyph unicode="&#x2013;" horiz-adv-x="980" d="M69 420l29 154h803l-26 -154h-806z" />
<glyph unicode="&#x2014;" horiz-adv-x="1551" d="M69 420l29 154h1374l-28 -154h-1375z" />
<glyph unicode="&#x2018;" horiz-adv-x="496" d="M264 1344q2 54 44 124l176 273h97l-133 -277q71 -34 74 -120q0 -83 -77 -118q-29 -10 -54 -10q-95 0 -122 84q-5 22 -5 44z" />
<glyph unicode="&#x2019;" horiz-adv-x="496" d="M256 1234l130 276q-71 36 -74 121q0 83 77 118q29 10 53 10q96 0 124 -83q8 -22 8 -45q-3 -56 -46 -123l-177 -274h-95z" />
<glyph unicode="&#x201a;" horiz-adv-x="496" d="M5 -238l117 250q-71 37 -73 120q0 83 76 119q29 10 54 10q100 0 126 -87q5 -20 5 -42q-2 -53 -44 -122l-164 -248h-97z" />
<glyph unicode="&#x201c;" horiz-adv-x="897" d="M264 1344q2 54 44 124l176 273h97l-133 -277q71 -34 74 -120q0 -83 -77 -118q-29 -10 -54 -10q-95 0 -122 84q-5 22 -5 44zM665 1344q3 54 44 124l180 273h93l-130 -277q72 -36 74 -120q0 -83 -76 -118q-29 -10 -54 -10q-95 0 -122 82q-8 22 -9 46z" />
<glyph unicode="&#x201d;" horiz-adv-x="897" d="M256 1234l130 276q-71 36 -74 121q0 83 77 118q29 10 53 10q96 0 124 -83q8 -22 8 -45q-3 -56 -46 -123l-177 -274h-95zM658 1234l133 276q-71 34 -75 121q0 83 78 118q28 10 54 10q94 0 122 -85q5 -23 5 -43q-3 -53 -44 -123l-176 -274h-97z" />
<glyph unicode="&#x201e;" horiz-adv-x="900" d="M5 -238l117 250q-71 37 -73 120q0 83 76 119q29 10 54 10q100 0 126 -87q5 -20 5 -42q-2 -53 -44 -122l-164 -248h-97zM410 -238l118 250q-72 34 -76 120q0 83 78 119q29 10 54 10q95 0 122 -82q8 -23 8 -47q-3 -51 -45 -122l-165 -248h-94z" />
<glyph unicode="&#x2022;" horiz-adv-x="706" d="M136 650q0 139 118 208q58 36 122 36q130 0 203 -110q39 -62 39 -134q0 -130 -114 -202q-62 -38 -128 -38q-127 0 -202 110q-39 61 -38 130z" />
<glyph unicode="&#x2026;" horiz-adv-x="1520" d="M46 118q0 87 79 126q29 12 56 12q85 0 121 -77q13 -31 13 -61q0 -90 -80 -123q-29 -13 -54 -13q-82 0 -120 77q-15 29 -15 59zM555 118q0 87 80 126q29 12 56 12q85 0 120 -77q13 -31 13 -61q0 -90 -79 -123q-29 -13 -54 -13q-82 0 -120 77q-15 29 -16 59zM1065 118 q0 87 79 126q28 12 57 12q85 0 120 -77q13 -31 13 -61q0 -90 -79 -123q-29 -13 -54 -13q-82 0 -121 77q-15 29 -15 59z" />
<glyph unicode="&#x202f;" horiz-adv-x="484" />
<glyph unicode="&#x2039;" horiz-adv-x="611" d="M90 479v20l304 425h192l-322 -440l174 -389h-182z" />
<glyph unicode="&#x203a;" horiz-adv-x="608" d="M20 95l322 443l-173 386h182l167 -382v-20l-306 -427h-192z" />
<glyph unicode="&#x205f;" horiz-adv-x="605" />
<glyph unicode="&#x20ac;" horiz-adv-x="1542" d="M69 420l23 135h184q-2 23 -2 65q0 56 7 105h-159l24 135h166q93 259 338 381q144 69 298 70q334 -2 501 -253l-135 -93q-108 169 -303 187q-31 3 -63 3q-238 0 -382 -183q-38 -53 -65 -112h579l-22 -135h-594q-8 -49 -8 -103q0 -46 3 -67h567l-22 -135h-518 q76 -232 313 -279q49 -7 100 -9q210 0 361 154q8 10 12 16l120 -97q-187 -225 -496 -225q-312 0 -488 225q-74 95 -108 215h-231z" />
<glyph unicode="&#x2122;" horiz-adv-x="1817" d="M312 1625l20 116h589l-22 -116h-223l-112 -645h-139l113 645h-226zM948 980l137 774h21l286 -415l436 415h21l-137 -774h-134l83 479l-281 -284h-26l-184 286l-85 -481h-137z" />
<glyph unicode="&#x25fc;" horiz-adv-x="1061" d="M0 0v1062h1062v-1062h-1062z" />
<glyph unicode="&#xfb03;" horiz-adv-x="1911" d="M-122 -542l24 140h78q95 0 128 102q10 31 17 68l203 1143h-169l25 149h170l78 450q59 318 320 320q154 -2 237 -112l-114 -108q-56 61 -117 64q-103 0 -138 -115q-10 -29 -16 -59l-76 -440h452l88 499q58 320 320 322q166 -2 253 -125l-120 -102q-66 66 -129 71 q-110 0 -146 -143q-5 -17 -7 -33l-84 -489h626l-147 -838q2 -76 51 -81h103l-24 -141h-125q-181 0 -185 156q0 36 7 79l121 676h-456l-191 -1106q-39 -225 -175 -274q-56 -17 -138 -17h-100l26 141h72q95 0 130 110q8 25 12 56l190 1090h-451l-203 -1162q-42 -225 -173 -271 q-56 -20 -140 -20h-107zM1651 1492q0 86 77 113q22 7 43 7q77 0 110 -68q10 -25 10 -52q0 -84 -76 -112q-24 -8 -44 -8q-82 0 -112 74q-8 23 -8 46z" />
<glyph unicode="&#xfb04;" horiz-adv-x="1898" d="M-122 -542l24 140h78q95 0 128 102q10 31 17 68l203 1143h-169l25 149h170l78 450q59 318 320 320q154 -2 237 -112l-114 -108q-56 61 -117 64q-103 0 -138 -115q-10 -29 -16 -59l-76 -440h450l77 428q83 386 437 393q242 0 326 -179q53 -114 26 -273l-210 -1207 q-10 -78 48 -81h116l-24 -141h-135q-177 0 -185 144q0 41 7 91l210 1204q44 227 -107 279q-36 12 -79 12q-193 0 -249 -212q-5 -26 -10 -54l-71 -404h261l-26 -149h-261l-198 -1106q-39 -225 -173 -274q-57 -17 -138 -17h-100l25 141h73q94 0 130 110q7 25 12 56l192 1090 h-451l-203 -1162q-42 -225 -173 -271q-56 -20 -140 -20h-107z" />
</font>
</defs>
</svg>
