<?xml version="1.0" standalone="no"?>
<!DOCTYPE svg PUBLIC "-//W3C//DTD SVG 1.1//EN" "http://www.w3.org/Graphics/SVG/1.1/DTD/svg11.dtd" >
<svg xmlns="http://www.w3.org/2000/svg" xmlns:xlink="http://www.w3.org/1999/xlink" version="1.1">
<metadata></metadata>
<defs>
<font id="webfontregular" horiz-adv-x="608" >
<font-face units-per-em="2048" ascent="1638" descent="-410" />
<missing-glyph horiz-adv-x="513" />
<glyph unicode="&#xfb01;" horiz-adv-x="1440" d="M-93 -529l48 247h100q50 0 65 47q0 7 2 15l178 1012h-176l48 272h176l67 380q57 325 295 380q55 12 120 12q169 -2 292 -115l-192 -217q-43 38 -86 38q-77 0 -100 -88q0 -10 -2 -17l-65 -373h682l-132 -754q-5 -60 44 -62h76l-43 -248h-124q-215 0 -267 83 q-43 69 -16 224l85 485h-352l-182 -1035q-36 -205 -143 -255q-70 -33 -224 -31h-174zM1070 1454q0 122 105 172q43 20 86 21q120 0 176 -100q22 -43 22 -93q0 -124 -107 -174q-43 -21 -88 -21q-117 0 -172 100q-22 45 -22 95z" />
<glyph unicode="&#xfb02;" horiz-adv-x="1440" d="M-93 -529l48 247h100q50 0 65 47q0 7 2 15l178 1012h-176l48 272h176l55 315q69 395 414 447q63 10 127 10q327 0 430 -222q60 -129 28 -312l-175 -992q-5 -60 44 -62h95l-42 -248h-144q-215 0 -267 83q-43 69 -16 224l178 1009q30 230 -150 238q-130 0 -173 -114 q-15 -41 -25 -98l-50 -278h232l-46 -272h-233l-182 -1035q-36 -205 -143 -255q-70 -33 -224 -31h-174z" />
<glyph horiz-adv-x="0" />
<glyph horiz-adv-x="682" />
<glyph unicode="&#xd;" horiz-adv-x="830" />
<glyph unicode=" "  horiz-adv-x="513" />
<glyph unicode="&#x09;" horiz-adv-x="513" />
<glyph unicode="&#xa0;" horiz-adv-x="513" />
<glyph unicode="!" horiz-adv-x="671" d="M77 193q0 124 108 182q46 24 94 25q115 0 176 -100q31 -50 29 -107q0 -127 -107 -186q-48 -22 -98 -22q-117 0 -174 103q-28 47 -28 105zM205 577l157 1122h370l-272 -1122h-255z" />
<glyph unicode="&#x22;" horiz-adv-x="999" d="M224 1082l74 617h351l-154 -617h-271zM694 1082l71 617h357l-157 -617h-271z" />
<glyph unicode="#" horiz-adv-x="1185" d="M98 608l45 252h157l48 192h-171l45 252h188l62 243h258l-63 -243h177l62 243h258l-62 -243h145l-45 -252h-163l-47 -192h174l-44 -252h-192l-63 -253h-257l62 253h-177l-63 -253h-258l64 253h-140zM558 860h176l48 192h-177z" />
<glyph unicode="$" horiz-adv-x="1188" d="M-20 305l258 129q72 -142 210 -186l50 289q-310 102 -358 312q-9 48 -11 100q0 230 216 328q113 50 258 49h31l46 250h162l-48 -272q205 -52 315 -215l-227 -157q-50 85 -133 120l-44 -255q345 -113 392 -335q10 -42 10 -87q0 -288 -313 -370q-105 -28 -232 -27l-47 -268 h-162l50 283q-301 57 -423 312zM432 970q0 -81 116 -123q2 -3 5 -3l39 238q-158 -10 -160 -112zM605 229q186 20 189 124q0 80 -100 122q-19 7 -41 14z" />
<glyph unicode="%" horiz-adv-x="2188" d="M138 925q0 217 172 332q105 69 234 69q220 0 331 -162q64 -95 64 -212q0 -215 -167 -335q-107 -75 -240 -75q-215 0 -327 166q-67 97 -67 217zM412 927q0 -105 83 -135q20 -8 39 -8q83 0 121 86q12 35 12 72q0 117 -92 140q-15 3 -31 3q-93 0 -122 -93q-10 -33 -10 -65z M437 0l1048 1304h317l-1048 -1304h-317zM1299 360q0 217 172 332q105 69 236 70q219 0 329 -162q65 -95 65 -213q0 -215 -167 -335q-106 -74 -239 -74q-215 0 -329 165q-67 97 -67 217zM1574 362q0 -105 83 -135q21 -7 40 -7q83 0 120 85q12 35 12 72q0 117 -93 140 q-15 3 -29 3q-93 0 -123 -93q-10 -33 -10 -65z" />
<glyph unicode="&#x26;" horiz-adv-x="1700" d="M81 455q0 275 301 454q65 40 145 76q-80 154 -79 319q0 238 194 350q117 65 275 65q225 0 342 -157q67 -96 67 -215q-4 -267 -361 -432l212 -338q77 143 100 325h302q-45 -353 -232 -590q33 -33 85 -33h144l-50 -279h-136q-186 2 -286 98q-200 -120 -417 -120 q-375 0 -530 225q-76 112 -76 252zM442 479q0 -133 123 -184q55 -22 119 -23q138 0 251 60l-286 450q-205 -115 -207 -303zM775 1307q0 -96 57 -185l10 -15q188 90 190 223q0 93 -73 124q-22 8 -44 8q-102 0 -133 -98q-7 -28 -7 -57z" />
<glyph unicode="'" horiz-adv-x="527" d="M224 1082l74 617h351l-154 -617h-271z" />
<glyph unicode="(" horiz-adv-x="841" d="M135 529q0 685 523 1150q64 57 141 118l155 -178q-477 -437 -477 -1094q0 -401 178 -723l-221 -134q-255 327 -294 735q-5 64 -5 126z" />
<glyph unicode=")" horiz-adv-x="841" d="M-35 -155q477 437 477 1094q0 401 -177 723l219 135q255 -327 296 -736q4 -64 4 -126q0 -685 -517 -1150q-66 -57 -143 -117z" />
<glyph unicode="*" horiz-adv-x="1033" d="M240 1257l285 50l-272 105l164 230l186 -223l-50 280h291l-105 -285l220 190l116 -262l-288 -50l274 -105l-164 -228l-180 216l50 -281h-292l105 286l-225 -181z" />
<glyph unicode="+" horiz-adv-x="1006" d="M100 532l50 276h265l50 279h284l-50 -279h266l-50 -276h-262l-50 -279h-286l50 279h-267z" />
<glyph unicode="," horiz-adv-x="599" d="M-2 -284l154 296q-107 62 -109 186q0 119 102 177q48 24 100 25q117 0 175 -102q28 -50 28 -105q-3 -93 -88 -208l-198 -269h-164z" />
<glyph unicode="-" horiz-adv-x="729" d="M72 460l52 289h565l-52 -289h-565z" />
<glyph unicode="." horiz-adv-x="599" d="M43 193q0 124 107 182q45 24 95 25q117 0 175 -102q28 -50 28 -105q0 -127 -108 -186q-45 -22 -95 -22q-117 0 -175 103q-29 47 -27 105z" />
<glyph unicode="/" horiz-adv-x="989" d="M-183 -320l1055 2124h327l-1054 -2124h-328z" />
<glyph unicode="0" horiz-adv-x="1528" d="M107 634q0 346 260 543q198 150 446 149q297 0 489 -210q169 -185 169 -446q0 -345 -260 -543q-196 -149 -444 -149q-297 0 -490 210q-170 185 -170 446zM458 634q0 -231 159 -324q70 -40 158 -40q200 0 291 167q55 97 56 233q0 232 -161 324q-69 41 -157 41 q-193 0 -287 -160q-59 -103 -59 -241z" />
<glyph unicode="1" horiz-adv-x="801" d="M152 1032l48 272h575l-231 -1304h-334l183 1032h-241z" />
<glyph unicode="2" horiz-adv-x="1185" d="M-17 0v30l551 520q191 175 226 254q20 45 20 90q0 115 -105 136q-17 2 -36 2q-133 0 -205 -165q-2 -7 -5 -13l-305 78q113 355 460 392q38 2 74 2q302 0 414 -206q48 -88 48 -190q0 -180 -148 -348q-55 -62 -147 -150l-91 -84q-45 -43 -129 -86q3 0 142 12h323l-48 -274 h-1039z" />
<glyph unicode="3" horiz-adv-x="1271" d="M-43 90l298 148q88 -200 284 -203q165 0 233 125q31 60 30 135q0 158 -135 227q-67 33 -147 33q-110 0 -210 -47l-20 29l342 395q24 28 54.5 56.5t47.5 43.5l20 15q-2 0 -165 -12h-362l47 269h997v-27l-362 -421q-20 -22 -47.5 -45.5t-41.5 -35.5l-18 -13 q183 -42 283 -204q69 -118 69 -268q0 -272 -202 -425q-161 -122 -404 -122q-365 0 -541 257q-30 43 -50 90z" />
<glyph unicode="4" horiz-adv-x="1356" d="M-30 0l40 229l1199 1090h35l-190 -1069h173l-45 -250h-173l-39 -235h-333l43 235h-710zM367 243q5 0 138 7h220l40 229q10 55 50 165l-107 -112q-8 -7 -11 -10l-210 -190q-55 -50 -120 -89z" />
<glyph unicode="5" horiz-adv-x="1211" d="M-43 81l303 134q62 -165 210 -180h25q210 0 237 187q5 28 5 55q0 155 -132 215q-60 24 -133 25q-145 -2 -293 -97l-19 12l152 872h840l-48 -269h-554l-45 -260q53 12 100 12q260 0 399 -198q90 -133 90 -299q0 -277 -202 -430q-155 -117 -384 -117q-332 0 -493 229 q-36 52 -58 109z" />
<glyph unicode="6" horiz-adv-x="1306" d="M85 505q0 229 232 494q10 15 20 26l445 496h387l-377 -419q-58 -63 -212 -148q87 38 190 38q207 0 341 -162q110 -136 110 -318q0 -297 -236 -445q-151 -89 -348 -89q-277 0 -437 192q-115 142 -115 335zM425 500q0 -143 109 -205q53 -28 113 -28q150 0 209 131 q22 55 24 114q0 148 -115 205q-48 25 -105 25q-152 0 -212 -130q-22 -52 -23 -112z" />
<glyph unicode="7" horiz-adv-x="1199" d="M33 -235l747 1270h-613l48 269h1062v-27l-888 -1512h-356z" />
<glyph unicode="8" horiz-adv-x="1321" d="M77 465q0 297 293 407q42 15 88 25q-143 97 -141 262q0 174 153 290q127 96 312 96q248 0 379 -166q77 -98 79 -218q-3 -222 -253 -314q245 -127 243 -385q0 -264 -224 -397q-147 -88 -357 -87q-288 0 -454 184q-117 133 -118 303zM427 489q0 -140 115 -199 q50 -25 107 -25q150 0 211 130q24 53 24 115q0 140 -109 202q-50 29 -113 27q-150 0 -209 -131q-25 -55 -26 -119zM637 1135q0 -100 83 -133q27 -10 55 -10q92 0 124 85q12 31 14 60q0 105 -93 132q-20 5 -43 5q-95 0 -130 -82q-10 -28 -10 -57z" />
<glyph unicode="9" horiz-adv-x="1306" d="M135 787q0 290 227 440q153 100 353 99q290 0 446 -194q110 -140 110 -333q0 -248 -269 -549q-5 -7 -8 -10l-422 -475h-393l391 428q74 83 214 164q-85 -45 -192 -45q-213 0 -349 163q-108 133 -108 312zM477 792q0 -155 120 -210q47 -20 100 -20q155 0 212 135 q22 52 23 111q0 155 -122 209q-48 20 -100 20q-152 0 -210 -135q-22 -50 -23 -110z" />
<glyph unicode=":" horiz-adv-x="613" d="M50 193q0 124 107 182q46 24 96 25q117 0 174 -102q28 -50 28 -105q0 -127 -107 -186q-45 -22 -95 -22q-118 0 -176 103q-28 47 -27 105zM150 772q0 125 107 182q46 24 96 26q117 0 174 -103q28 -50 28 -105q0 -127 -107 -185q-45 -22 -95 -22q-118 0 -176 102 q-28 48 -27 105z" />
<glyph unicode=";" horiz-adv-x="613" d="M5 -284l155 296q-108 62 -110 186q0 119 102 177q48 24 101 25q117 0 174 -102q28 -50 28 -105q-2 -93 -88 -208l-197 -269h-165zM150 772q0 125 107 182q46 24 96 26q117 0 174 -103q28 -50 28 -105q0 -127 -107 -185q-45 -22 -95 -22q-118 0 -176 102q-28 48 -27 105z " />
<glyph unicode="&#x3c;" horiz-adv-x="875" d="M77 594v28l803 413l-53 -301l-310 -140l260 -139l-47 -276z" />
<glyph unicode="=" horiz-adv-x="991" d="M48 288l52 287h817l-52 -287h-817zM120 697l50 288h817l-50 -288h-817z" />
<glyph unicode="&#x3e;" horiz-adv-x="875" d="M33 179l52 300l310 141l-260 140l48 275l651 -415v-28z" />
<glyph unicode="?" horiz-adv-x="1256" d="M238 1414q100 193 312 270q100 35 204 35q320 0 455 -229q72 -120 73 -274q0 -260 -210 -399q-105 -67 -235 -85l-27 -155h-307l69 398h88q235 0 282 174q7 36 7 70q0 147 -117 193q-40 14 -83 14q-155 -2 -257 -162zM393 193q0 124 107 182q45 24 94 25q115 0 176 -100 q30 -50 29 -107q0 -127 -107 -186q-48 -22 -98 -22q-117 0 -174 103q-28 47 -27 105z" />
<glyph unicode="@" horiz-adv-x="2238" d="M88 455q0 475 319 775q291 272 715 289h44q482 0 760 -298q232 -250 232 -606q0 -470 -304 -591q-90 -35 -200 -34q-212 0 -307 153q-12 22 -23 45q-117 -198 -310 -210q-230 0 -347 189q-74 122 -75 286q0 281 185 431q115 93 258 93q209 -2 297 -195l22 170h315 l-98 -547q-30 -179 98 -183q138 0 190 188q22 90 22 212q0 367 -284 539q-179 110 -431 110q-362 0 -584 -251q-198 -227 -198 -567q0 -401 274 -593q187 -130 467 -130q200 0 382 60l88 -227q-187 -80 -475 -80q-508 0 -795 314q-238 265 -237 658zM932 458 q0 -175 127 -210q23 -5 48 -5q104 0 154 119q22 60 24 127q0 133 -88 193q-38 24 -77 26q-140 0 -178 -155q-10 -45 -10 -95z" />
<glyph unicode="A" horiz-adv-x="1626" d="M-38 0l1035 1714h28l460 -1714h-348l-50 198h-665l-117 -198h-343zM584 470h433l-78 307q-14 60 -25.5 130t-14.5 110l-2 40l-70 -165q-30 -62 -60 -112z" />
<glyph unicode="B" horiz-adv-x="1493" d="M81 0l298 1699h560q288 0 403 -205q55 -97 55 -220q0 -230 -198 -330q-38 -17 -77 -29q203 -67 260 -250q17 -57 17 -121q0 -290 -224 -442q-158 -102 -378 -102h-716zM475 298h307q198 0 250 160q15 47 15 100q0 197 -184 219q-22 3 -43 3h-260zM610 1066h250 q155 0 187 126q7 28 7 57q0 115 -102 145q-28 8 -55 8h-227z" />
<glyph unicode="C" horiz-adv-x="1765" d="M170 815q0 384 264 647q250 245 605 257h27q358 0 563 -207q59 -63 116 -143l-281 -182q-145 225 -407 227q-260 0 -413 -215q-117 -164 -117 -386q0 -277 183 -429q124 -102 284 -102q263 2 418 195l257 -198q-248 -290 -652 -301h-35q-357 0 -589 251 q-222 241 -223 586z" />
<glyph unicode="D" horiz-adv-x="1666" d="M81 0l298 1699h446q447 0 656 -300q140 -197 140 -484q0 -467 -324 -717q-255 -198 -637 -198h-579zM475 300h192q380 0 527 292q72 145 72 338q0 369 -312 449q-80 19 -172 20h-112z" />
<glyph unicode="E" horiz-adv-x="1438" d="M81 0l298 1699h1102l-52 -300h-762l-97 -550h667l-52 -294h-668l-45 -255h797l-55 -300h-1133z" />
<glyph unicode="F" horiz-adv-x="1354" d="M81 0l298 1699h1073l-53 -300h-729l-100 -569h662l-55 -305h-662l-93 -525h-341z" />
<glyph unicode="G" horiz-adv-x="1865" d="M179 817q0 413 288 670q260 232 622 232q360 0 565 -167q31 -28 60 -55l-240 -233q-158 150 -392 150q-274 0 -429 -205q-120 -160 -121 -389q0 -343 240 -475q122 -64 285 -66q176 0 317 66l47 267h-401l52 297h714l-132 -757q-257 -174 -602 -174q-468 0 -702 301 q-169 220 -171 538z" />
<glyph unicode="H" horiz-adv-x="1736" d="M81 0l298 1699h343l-152 -869h710l155 869h341l-300 -1699h-341l92 527h-712l-93 -527h-341z" />
<glyph unicode="I" horiz-adv-x="701" d="M90 0l299 1699h343l-300 -1699h-342z" />
<glyph unicode="J" horiz-adv-x="1213" d="M-2 300l297 162q65 -140 144 -167q31 -10 64 -11q122 0 169 98q25 52 38 128l210 1189h341l-217 -1232q-67 -382 -345 -465q-89 -24 -204 -24q-292 0 -445 222q-33 48 -52 100z" />
<glyph unicode="K" horiz-adv-x="1588" d="M81 0l298 1699h343l-97 -550q-22 -122 -105 -367q150 240 238 340l516 577h397l-701 -779l492 -920h-380l-367 692l-207 -210l-86 -482h-341z" />
<glyph unicode="L" horiz-adv-x="1359" d="M81 0l298 1699h343l-247 -1399h755l-53 -300h-1096z" />
<glyph unicode="M" horiz-adv-x="2022" d="M81 0l301 1717h25l637 -925l990 925h30l-302 -1717h-327l112 637l67 310l-127 -160q-50 -55 -88 -93l-397 -377h-27l-265 377q-30 43 -67.5 106t-62.5 104l-22 43l-36 -303q-2 -5 -2 -7l-113 -637h-326z" />
<glyph unicode="N" horiz-adv-x="1705" d="M81 0l301 1714h33l692 -830q76 -92 157 -245l21 253q5 33 9 60l132 747h321l-303 -1714h-32l-690 828q-77 95 -157 244l-23 -258q-5 -30 -10 -55l-132 -744h-319z" />
<glyph unicode="O" horiz-adv-x="1948" d="M170 820q0 417 288 674q254 225 614 225q363 0 597 -245q229 -241 229 -597q0 -419 -289 -674q-255 -225 -615 -225q-362 0 -599 246q-224 241 -225 596zM522 813q0 -301 203 -446q122 -85 281 -85q298 0 446 235q95 153 95 367q0 301 -203 446q-121 84 -279 84h-4 q-297 0 -444 -234q-95 -153 -95 -367z" />
<glyph unicode="P" horiz-adv-x="1455" d="M81 0l298 1699h410q408 0 582 -262q98 -147 98 -350q0 -398 -310 -579q-203 -120 -494 -121h-176l-67 -387h-341zM542 684h133q429 20 441 403q-5 312 -356 315h-90z" />
<glyph unicode="Q" horiz-adv-x="1948" d="M170 820q0 417 288 674q254 225 614 225q363 0 597 -245q229 -241 229 -597q-2 -390 -277 -655l188 -244l-255 -198l-205 268q-152 -70 -355 -70q-362 0 -599 246q-224 241 -225 596zM522 813q0 -298 198 -446q122 -93 286 -93q91 2 155 19l-172 227l255 197l191 -250 q112 153 112 417q0 301 -203 446q-121 84 -279 84h-4q-297 0 -444 -234q-95 -153 -95 -367z" />
<glyph unicode="R" horiz-adv-x="1503" d="M81 0l298 1699h379q445 0 611 -280q83 -138 83 -325q0 -319 -220 -491q-75 -58 -168 -93l271 -510h-360l-226 425q-28 -3 -77 -3h-174l-76 -422h-341zM548 717h129q420 5 422 377q0 277 -300 305q-38 3 -77 3h-55z" />
<glyph unicode="S" horiz-adv-x="1313" d="M2 322l270 183q143 -224 355 -228q172 0 227 110q15 33 16 71q0 82 -90 154q-38 31 -122 85l-81 52q-243 157 -298 340q-22 75 -22 160q0 253 196 382q137 88 334 88q295 -2 462 -212l-245 -210q-120 119 -234 127q-140 0 -170 -115q-5 -22 -6 -45q0 -93 105 -170 q31 -22 71 -47l82 -53q231 -147 305 -269q62 -108 62 -243q0 -312 -270 -439q-139 -65 -322 -65q-315 0 -522 210q-65 65 -103 134z" />
<glyph unicode="T" horiz-adv-x="1435" d="M229 1399l53 300h1294l-52 -300h-472l-248 -1399h-344l248 1399h-479z" />
<glyph unicode="U" horiz-adv-x="1671" d="M193 675l179 1024h345l-185 -1050q-10 -55 -10 -102q0 -216 208 -257q45 -7 95 -8q255 0 332 235q14 45 25 98l192 1084h345l-203 -1139q-82 -460 -491 -558q-103 -24 -217 -24q-330 0 -503 207q-124 151 -124 357q0 64 12 133z" />
<glyph unicode="V" horiz-adv-x="1616" d="M257 1699h348l172 -638q20 -69 38.5 -176.5t28.5 -179.5l8 -73l130 288q35 74 65 124l377 655h355l-1002 -1714h-35z" />
<glyph unicode="W" horiz-adv-x="2332" d="M257 1699h355l113 -660l37 -342l94 207q36 67 66 113l442 697h35l185 -677q14 -55 32 -139.5t29 -143.5l9 -57l87 228q24 55 45 92l360 682h350l-915 -1714h-32l-219 799q-31 113 -53 296l-108 -213q-20 -37 -34 -63l-525 -819h-33z" />
<glyph unicode="X" horiz-adv-x="1603" d="M-33 0l710 935l-317 764h370l109 -275q17 -45 36 -112.5t29 -112.5l11 -47l91 172q29 50 53 83l218 292h372l-579 -767l387 -932h-370l-174 437q-41 97 -79 278l-97 -181q-33 -50 -57 -81l-340 -453h-373z" />
<glyph unicode="Y" horiz-adv-x="1657" d="M255 1699h362l196 -547q45 -130 79 -337l102 207q43 81 78 130l380 547h372l-799 -1141l-98 -558h-343l96 542z" />
<glyph unicode="Z" horiz-adv-x="1485" d="M5 0v30l972 1372h-632l53 297h1154v-30l-975 -1371h727l-52 -298h-1247z" />
<glyph unicode="[" horiz-adv-x="823" d="M0 -320l375 2124h605l-48 -278h-274l-279 -1569h276l-50 -277h-605z" />
<glyph unicode="\" horiz-adv-x="989" d="M245 1804h310l322 -2124h-310z" />
<glyph unicode="]" horiz-adv-x="823" d="M-74 -320l50 277h274l277 1569h-274l47 278h604l-375 -2124h-603z" />
<glyph unicode="^" horiz-adv-x="1073" d="M240 1116l497 601h25l287 -601h-255l-112 191l-172 -191h-270z" />
<glyph unicode="_" horiz-adv-x="691" d="M-152 -320l52 292h703l-53 -292h-702z" />
<glyph unicode="`" horiz-adv-x="1223" d="M337 1719h380l98 -470h-250z" />
<glyph unicode="a" horiz-adv-x="1328" d="M298 992q127 95 289 95q240 -2 343 -193l22 170h330l-133 -754v-10q0 -50 45 -52h75l-42 -248h-125q-225 0 -270 88q-12 24 -19 60l-3 12q-100 -148 -226 -175q-39 -7 -84 -7q-207 0 -328 179q-89 136 -89 326q0 344 215 509zM427 503q0 -196 145 -233q29 -8 60 -8 q145 0 205 143q30 67 30 148q0 195 -140 236q-30 10 -65 10q-157 0 -214 -160q-20 -62 -21 -136z" />
<glyph unicode="b" horiz-adv-x="1338" d="M40 0l317 1804h330l-155 -882q124 163 302 165q218 0 341 -185q89 -135 89 -321q0 -321 -205 -493q-132 -110 -299 -110q-255 2 -365 220l-25 -198h-330zM455 510q0 -183 134 -233q41 -15 83 -15q167 0 225 160q22 62 23 138q0 183 -140 227q-38 12 -78 12 q-153 0 -218 -141q-29 -66 -29 -143v-5z" />
<glyph unicode="c" horiz-adv-x="1135" d="M88 522q0 284 212 445q158 120 375 120q295 -2 447 -212l-242 -191q-72 113 -208 115q-152 0 -214 -139q-29 -65 -29 -138q0 -227 174 -257q22 -3 44 -3q107 3 202 81l190 -219q-150 -146 -392 -146q-298 0 -454 205q-105 143 -105 339z" />
<glyph unicode="d" horiz-adv-x="1354" d="M300 989q133 98 300 98q243 -2 349 -181l158 898h330l-262 -1494v-11q0 -50 44 -51h75l-42 -248h-125q-232 0 -275 98q-10 22 -15 54l-3 18q-109 -190 -322 -192q-214 0 -338 182q-91 137 -91 323q0 341 217 506zM427 503q0 -183 140 -229q37 -12 77 -12q153 0 219 143 q29 65 29 143v5q0 183 -134 231q-41 15 -83 15q-167 0 -225 -160q-22 -62 -23 -136z" />
<glyph unicode="e" horiz-adv-x="1285" d="M307 975q153 112 355 112q440 0 537 -422q17 -83 22 -176l-789 -84q57 -155 262 -157q138 2 253 89l200 -210q-185 -149 -451 -149h-4q-358 0 -515 237q-87 133 -87 306q0 294 217 454zM420 589l443 48q-10 162 -158 185q-19 3 -40 3q-217 -6 -245 -236z" />
<glyph unicode="f" horiz-adv-x="928" d="M-93 -529l48 247h100q50 0 65 47q0 7 2 15l178 1012h-176l48 272h176l67 380q62 356 355 390q33 2 67 2q198 -2 312 -134l-193 -217q-45 55 -104 57q-88 0 -110 -100v-5l-65 -373h275l-48 -272h-274l-182 -1035q-36 -205 -143 -255q-66 -31 -207 -31h-17h-174z" />
<glyph unicode="g" horiz-adv-x="1335" d="M-22 -350l220 212q120 -136 295 -136h5q243 4 294 276l25 141q-119 -163 -302 -165q-215 0 -338 182q-92 137 -92 323q0 341 218 506q133 98 300 98q252 -2 353 -193l24 170h329l-195 -1109q-83 -475 -554 -508q-32 -2 -65 -2q-297 0 -480 166q-22 22 -37 39zM429 503 q0 -183 141 -229q36 -12 77 -12q152 0 218 143q29 65 29 143v5q0 183 -134 231q-40 15 -83 15q-167 0 -224 -160q-22 -62 -24 -136z" />
<glyph unicode="h" horiz-adv-x="1311" d="M40 0l317 1804h330l-162 -922q137 203 338 205q205 0 289 -178q41 -88 41 -199q0 -57 -11 -121l-50 -279v-10q0 -50 45 -52h75l-43 -248h-107q-263 0 -300 160q-6 31 -6 68q0 42 8 92l45 260q1 12 1 23q0 178 -151 191q-162 0 -212 -152q-10 -31 -15 -65l-102 -577h-330z " />
<glyph unicode="i" horiz-adv-x="649" d="M107 307l133 757h330l-133 -754v-10q0 -50 45 -52h76l-43 -248h-126q-215 0 -267 83q-26 42 -26 115q0 48 11 109zM270 1454q0 125 107 180q45 22 95 23q125 0 183 -103q25 -47 25 -100q0 -129 -110 -183q-45 -22 -95 -22q-122 0 -180 103q-24 47 -25 102z" />
<glyph unicode="j" horiz-adv-x="641" d="M-343 -434l171 205q43 -45 102 -45q75 4 90 91l220 1247h330l-217 -1234q-71 -383 -396 -385q-192 2 -300 121zM270 1454q0 125 107 180q45 22 95 23q125 0 183 -103q25 -47 25 -100q0 -129 -110 -183q-45 -22 -95 -22q-122 0 -180 103q-24 47 -25 102z" />
<glyph unicode="k" horiz-adv-x="1226" d="M40 0l317 1804h330l-162 -920q-20 -114 -60 -242l402 422h375l-432 -442l155 -312q45 -60 84 -62h78l-42 -248h-120q-162 0 -233 88q-33 40 -74 124l-105 213l-128 -113l-55 -312h-330z" />
<glyph unicode="l" horiz-adv-x="649" d="M107 307l263 1497h329l-262 -1494v-10q0 -50 45 -52h95l-43 -248h-145q-215 0 -267 83q-26 42 -26 115q0 48 11 109z" />
<glyph unicode="m" horiz-adv-x="1933" d="M40 0l187 1064h331l-38 -172q114 179 288 193q19 2 39 2q192 0 269 -174q5 -13 11 -26q136 200 367 200q213 0 290 -188q31 -81 31 -182q0 -61 -11 -128l-50 -279v-10q0 -50 46 -52h74l-43 -248h-124q-215 0 -267 83q-26 42 -26 117q0 47 10 107l47 273q6 37 6 68 q0 144 -128 146q-142 0 -188 -134q-14 -35 -22 -83l-102 -577h-329l102 580q6 36 6 67q0 146 -132 147q-142 0 -189 -129q-12 -38 -23 -88l-102 -577h-330z" />
<glyph unicode="n" horiz-adv-x="1311" d="M40 0l187 1064h331l-41 -192q133 213 346 215q205 0 289 -178q41 -88 41 -199q0 -57 -11 -121l-50 -279q0 -5 -1 -10q0 -50 46 -52h75l-43 -248h-124q-215 0 -268 83q-26 42 -26 116q0 47 11 108l47 273q1 12 1 23q0 178 -151 191q-162 0 -212 -152q-10 -31 -15 -65 l-102 -577h-330z" />
<glyph unicode="o" horiz-adv-x="1323" d="M88 517q0 291 219 453q160 117 373 117q272 0 436 -190q125 -150 126 -353q0 -293 -222 -454q-159 -112 -371 -112q-270 0 -434 189q-127 148 -127 350zM427 512q0 -179 135 -238q46 -17 98 -17q160 0 220 155q22 60 22 136q0 179 -135 236q-45 18 -97 18 q-160 0 -220 -155q-22 -60 -23 -135z" />
<glyph unicode="p" horiz-adv-x="1338" d="M-52 -529l279 1593h331l-36 -155q133 174 312 178q218 0 341 -185q89 -135 89 -321q0 -321 -205 -493q-133 -110 -299 -110q-245 2 -357 207l-126 -714h-329zM455 510q0 -183 134 -233q41 -15 83 -15q167 0 225 160q22 62 23 138q0 183 -140 227q-38 12 -78 12 q-153 0 -218 -141q-29 -66 -29 -143v-5z" />
<glyph unicode="q" horiz-adv-x="1345" d="M300 989q133 98 300 98q253 -2 354 -193l23 170h330l-227 -1284v-10q0 -49 45 -52h74l-42 -247h-125q-215 0 -267 81q-26 43 -26 118q0 48 10 108l66 365q-120 -163 -303 -165q-214 0 -338 182q-91 137 -91 323q0 341 217 506zM427 503q0 -183 140 -229q37 -12 77 -12 q153 0 219 143q29 65 29 143v5q0 183 -134 231q-41 15 -83 15q-167 0 -225 -160q-22 -62 -23 -136z" />
<glyph unicode="r" horiz-adv-x="946" d="M40 0l187 1064h331l-43 -204q145 217 327 227q85 0 160 -43l-125 -302q-57 35 -138 35q-172 0 -239 -145q-30 -65 -47 -160l-83 -472h-330z" />
<glyph unicode="s" horiz-adv-x="1030" d="M10 198l228 159q90 -122 234 -122q125 3 128 65q0 33 -52 57q-15 5 -56 25q-58 24 -92 40q-202 95 -235 248q-8 35 -8 74q0 222 203 308q88 35 198 35q237 -2 372 -157l-215 -181q-70 83 -157 85q-88 -9 -98 -64q0 -36 72 -73q24 -13 80 -35q193 -82 251 -167 q50 -74 50 -183q0 -219 -219 -300q-100 -34 -229 -34q-303 0 -445 205q-5 10 -10 15z" />
<glyph unicode="t" horiz-adv-x="904" d="M124 792l48 272h155l98 555h327l-97 -555h258l-48 -272h-257l-71 -403q-2 -18 -1 -33q0 -95 64 -99q55 0 115 38l105 -233q-116 -84 -274 -84h-4q-325 0 -342 277v19q0 59 10 126l69 392h-155z" />
<glyph unicode="u" horiz-adv-x="1318" d="M120 475l102 589h333l-102 -580q-1 -12 -1 -23q0 -178 151 -191q162 0 212 152q10 31 15 65l102 577h329l-131 -754v-10q0 -50 45 -52h74l-42 -248h-125q-232 0 -274 98q-10 22 -16 54l-3 18q-124 -177 -310 -190q-20 -2 -40 -2q-205 0 -289 177q-41 88 -41 199 q0 57 11 121z" />
<glyph unicode="v" horiz-adv-x="1195" d="M117 1064h345l110 -310q38 -103 62 -256l86 196q17 36 32 60l175 310h344l-689 -1086h-32z" />
<glyph unicode="w" horiz-adv-x="1686" d="M120 1064h345l90 -304l50 -228l87 180q14 29 28 48l210 332h24l138 -332q17 -40 33.5 -96t23.5 -94l8 -38q2 2 104 228l160 304h341l-620 -1092h-28l-170 426q-30 74 -55 212l-62 -140q-17 -33 -33 -55l-296 -443h-28z" />
<glyph unicode="x" horiz-adv-x="1249" d="M-50 0l484 558l-262 506h362l58 -132q24 -57 57 -183l61 128q20 36 34 53l110 134h376l-417 -480l303 -584h-364l-82 174q-38 77 -78 219l-70 -140q-24 -46 -47 -70l-153 -183h-372z" />
<glyph unicode="y" horiz-adv-x="1293" d="M-28 -350l218 210q108 -136 275 -137q227 5 274 255l31 165q-138 -160 -331 -165q-205 0 -289 177q-41 88 -41 199q0 57 11 121l102 589h333l-102 -580q-1 -12 -1 -23q0 -178 151 -191q162 0 212 152q10 31 15 65l102 577h329l-197 -1124q-101 -488 -609 -495 q-317 2 -483 205z" />
<glyph unicode="z" horiz-adv-x="1090" d="M-2 0v28l560 766h-401l48 270h904v-27l-559 -767h409l-46 -270h-915z" />
<glyph unicode="{" horiz-adv-x="1013" d="M70 553l50 277h147q95 0 126 54q22 43 36 122l81 451q57 314 317 345q31 2 62 2h277l-46 -278h-178q-81 0 -98 -79q-2 -7 -2 -12l-88 -503q-31 -183 -167 -230q-45 -15 -108 -22q220 -38 181 -277l-63 -355q-15 -77 45 -88q14 -3 28 -3h172l-50 -277h-189 q-238 0 -315 158q-45 95 -23 229l57 333q20 125 -43 144q-22 7 -55 9h-154z" />
<glyph unicode="|" horiz-adv-x="679" d="M33 -320l374 2124h318l-375 -2124h-317z" />
<glyph unicode="}" horiz-adv-x="1013" d="M-83 -320l48 277h178q80 0 97 81q3 7 3 12l69 398q31 183 167 229q46 15 108 22q-220 38 -180 278l80 460q14 77 -45 87q-15 2 -27 2h-172l50 278h189q238 0 315 -157q45 -95 23 -231l-78 -436q-25 -127 47 -148q22 -5 53 -5h155l-50 -277h-148q-95 0 -127 -55 q-22 -42 -38 -123l-59 -344q-63 -345 -380 -348h-278z" />
<glyph unicode="~" horiz-adv-x="921" d="M70 539q35 270 200 336q42 14 85 14q85 -2 157 -50q86 -55 91 -57q12 -5 22 -5q57 5 77 112l218 -22q-28 -262 -193 -333q-45 -17 -93 -17q-85 3 -157 50q-15 10 -38 25q-50 38 -74 38q-58 -5 -77 -113z" />
<glyph unicode="&#xa1;" horiz-adv-x="671" d="M60 0l272 1122h255l-158 -1122h-369zM307 1507q0 127 108 184q47 22 97 23q118 0 175 -102q28 -48 28 -105q0 -125 -107 -183q-46 -25 -96 -25q-114 0 -175 100q-31 50 -30 108z" />
<glyph unicode="&#xa2;" horiz-adv-x="1135" d="M88 522q0 288 215 448q155 112 362 117l47 265h163l-50 -280q190 -40 300 -197l-245 -186q-38 60 -105 98l-95 -532q80 10 169 82l190 -213q-150 -147 -392 -146h-15l-48 -268h-162l50 290q-250 70 -343 298q-42 105 -41 224zM422 522q3 -169 100 -238l93 520 q-153 -31 -186 -199q-7 -40 -7 -83z" />
<glyph unicode="&#xa3;" horiz-adv-x="1416" d="M2 240q0 183 168 244q62 22 133 24q95 0 176 -41q-2 50 -17 153h-255l43 247h165q-22 130 -22 208q0 274 222 396q127 72 305 74q324 -3 470 -276l-265 -162q-67 117 -150 137q-28 8 -58 8q-133 0 -178 -117q-12 -41 -12 -83q0 -83 12 -185h346l-43 -247h-272 q5 -81 5 -125q0 -97 -28 -188q97 -52 178 -52q114 2 214 105l185 -200q-153 -183 -404 -182q-160 2 -305 115q-125 -115 -305 -115q-203 0 -277 144q-31 55 -31 118zM229 245q15 -64 86 -73q88 4 130 76q-80 64 -135 64q-67 0 -78 -52q-3 -10 -3 -15z" />
<glyph unicode="&#xa4;" horiz-adv-x="1473" d="M28 387l34 205h160v40q0 51 2 76h-143l36 205h160q102 245 348 353q135 60 274 60q300 0 472 -182q31 -33 58 -67l-247 -171q-80 115 -212 131q-33 2 -66 2q-174 -2 -270 -126h338l-37 -205h-375v-36q-2 -24 -2 -38v-42h359l-35 -205h-262q83 -125 257 -127 q158 2 265 119l222 -181q-177 -220 -492 -220q-307 0 -495 220q-72 85 -112 189h-237z" />
<glyph unicode="&#xa5;" horiz-adv-x="1400" d="M72 248l35 207h410l-55 148h-327l35 207h212l-182 494h350l122 -389q36 -112 55 -281l65 155q35 70 68 117l267 398h354l-361 -494h215l-36 -207h-329l-107 -148h408l-34 -207h-417l-43 -248h-335l45 248h-415z" />
<glyph unicode="&#xa6;" d="M120 644q0 127 107 186q47 24 100 24q120 0 178 -100q31 -52 29 -110q0 -129 -107 -186q-48 -26 -100 -26q-120 0 -179 102q-28 53 -28 110z" />
<glyph unicode="&#xa7;" horiz-adv-x="1285" d="M67 10l267 130q58 -129 198 -133q140 3 143 88q-5 62 -86 100l-219 95q-248 108 -272 302q-5 30 -5 61q0 222 212 299q29 11 62 18q-45 85 -45 196q0 203 181 310q112 67 251 69q307 0 415 -231q5 -10 8 -17l-264 -131q-48 113 -151 116q-114 -17 -128 -107 q0 -72 74 -109q4 -2 7 -5l241 -109q248 -108 276 -303q3 -28 3 -57q-5 -227 -263 -313q38 -69 37 -172q0 -257 -251 -334q-98 -30 -219 -30q-272 0 -412 164q-40 48 -60 103zM395 712q0 -87 92 -132q7 -3 13 -5l225 -98q72 -33 112 -57q88 33 90 117q-5 95 -107 143 l-238 107q-50 22 -93 52q-93 -37 -94 -127z" />
<glyph unicode="&#xa8;" horiz-adv-x="1223" d="M337 1454q0 105 95 160q43 24 85 24q100 0 155 -89q28 -45 27 -95q0 -107 -94 -160q-43 -25 -88 -25q-97 0 -152 90q-28 45 -28 95zM860 1454q0 103 92 160q45 24 90 24q100 0 155 -89q24 -45 24 -95q0 -107 -91 -160q-43 -25 -88 -25q-98 0 -153 88q-30 47 -29 97z" />
<glyph unicode="&#xa9;" horiz-adv-x="1485" d="M98 658q0 300 222 496q195 172 452 172q280 0 477 -199q188 -195 188 -469q0 -303 -223 -501q-189 -169 -442 -169q-284 0 -482 200q-192 195 -192 470zM253 658q0 -272 202 -423q140 -100 317 -100q245 0 392 180q117 143 118 343q0 272 -200 422q-135 100 -310 100 q-252 0 -405 -183q-114 -143 -114 -339zM403 653q0 217 169 322q95 55 212 55q191 -3 310 -136l-181 -160q-46 53 -114 55q-102 0 -117 -107q-2 -15 -2 -29q0 -103 82 -124q18 -4 32 -4q67 2 108 45l170 -153q-111 -124 -283 -127q-229 0 -334 165q-52 88 -52 198z" />
<glyph unicode="&#xaa;" horiz-adv-x="1223" d="M150 820q0 298 200 432q108 72 237 72q197 -3 283 -163l19 143h296l-110 -620q-5 -52 39 -54h63l-38 -225h-122q-195 0 -230 79q-10 17 -15 45l-2 13q-86 -133 -203 -149q-27 -6 -55 -6q-183 0 -288 161q-74 114 -74 272zM460 832q0 -152 110 -190q27 -8 55 -8 q119 0 169 126q22 53 23 115q0 164 -123 191q-22 5 -41 6q-133 0 -178 -135q-15 -48 -15 -105z" />
<glyph unicode="&#xab;" horiz-adv-x="1249" d="M77 489v21l307 422h333l-319 -437l182 -414h-323zM603 489v21l306 422h333l-320 -437l182 -414h-322z" />
<glyph unicode="&#xac;" d="M120 644q0 127 107 186q47 24 100 24q120 0 178 -100q31 -52 29 -110q0 -129 -107 -186q-48 -26 -100 -26q-120 0 -179 102q-28 53 -28 110z" />
<glyph unicode="&#xad;" horiz-adv-x="729" d="M72 460l52 289h565l-52 -289h-565z" />
<glyph unicode="&#xae;" horiz-adv-x="1261" d="M205 1177q0 272 200 430q148 114 339 114q258 0 415 -184q129 -152 131 -360q0 -269 -201 -428q-150 -117 -345 -117q-257 0 -415 188q-124 152 -124 357zM332 1177q0 -267 197 -375q96 -53 215 -53q245 0 355 183q62 105 62 245q0 267 -200 375q-95 52 -217 52 q-240 0 -349 -183q-62 -105 -63 -244zM487 909l95 543h200q155 0 205 -126q12 -38 12 -74q-2 -130 -110 -180l65 -163h-162l-53 138h-2h-3h-2h-2h-5h-3h-2h-3h-5h-2h-2h-6h-3h-5h-22l-25 -138h-160zM692 1172h83q62 5 64 72q-2 68 -59 70h-63z" />
<glyph unicode="&#xaf;" horiz-adv-x="1223" d="M460 1321l43 241h599l-43 -241h-599z" />
<glyph unicode="&#xb0;" horiz-adv-x="811" d="M150 994q0 183 155 277q88 55 195 55q180 0 277 -134q60 -83 60 -183q0 -183 -148 -279q-90 -60 -200 -60q-174 0 -277 134q-62 85 -62 190zM370 992q0 -105 90 -125q17 -2 32 -2q88 0 118 84q10 28 10 57q0 105 -95 124q-15 2 -27 2q-91 0 -121 -85q-7 -28 -7 -55z" />
<glyph unicode="&#xb1;" horiz-adv-x="2122" d="M-93 -529l48 247h100q50 0 65 47q0 7 2 15l178 1012h-176l48 272h176l59 330q63 348 330 387q40 5 80 5q163 -2 258 -87l-155 -242q-45 35 -88 35q-74 0 -95 -95q-3 -5 -3 -10l-57 -323h353l55 315q69 395 414 447q63 10 127 10q327 0 431 -222q60 -129 27 -312 l-175 -992q-5 -60 45 -62h94l-41 -248h-145q-215 0 -267 83q-43 69 -16 224l178 1009q30 230 -150 238q-130 0 -172 -114q-15 -41 -26 -98l-50 -278h233l-47 -272h-233l-173 -971q-35 -205 -142 -255q-70 -33 -225 -33h-152l47 247h80q50 0 66 48q0 7 2 15l167 949h-352 l-182 -1035q-36 -205 -143 -255q-70 -33 -224 -31h-174z" />
<glyph unicode="&#xb2;" d="M120 644q0 127 107 186q47 24 100 24q120 0 178 -100q31 -52 29 -110q0 -129 -107 -186q-48 -26 -100 -26q-120 0 -179 102q-28 53 -28 110z" />
<glyph unicode="&#xb3;" d="M120 644q0 127 107 186q47 24 100 24q120 0 178 -100q31 -52 29 -110q0 -129 -107 -186q-48 -26 -100 -26q-120 0 -179 102q-28 53 -28 110z" />
<glyph unicode="&#xb4;" horiz-adv-x="1223" d="M575 1249l200 470h394l-339 -470h-255z" />
<glyph unicode="&#xb5;" d="M120 644q0 127 107 186q47 24 100 24q120 0 178 -100q31 -52 29 -110q0 -129 -107 -186q-48 -26 -100 -26q-120 0 -179 102q-28 53 -28 110z" />
<glyph unicode="&#xb6;" horiz-adv-x="1733" d="M190 1111q0 280 203 448q169 140 429 140h947l-300 -1699h-325l250 1414h-162l-250 -1414h-324l107 608h-21q-324 0 -472 219q-83 125 -82 284zM550 1130q0 -191 152 -231q32 -7 65 -7h48l91 522h-102q-153 0 -220 -129q-35 -67 -34 -155z" />
<glyph unicode="&#xb7;" d="M120 644q0 127 107 186q47 24 100 24q120 0 178 -100q31 -52 29 -110q0 -129 -107 -186q-48 -26 -100 -26q-120 0 -179 102q-28 53 -28 110z" />
<glyph unicode="&#xb8;" horiz-adv-x="1223" d="M207 -445l163 90q42 -67 109 -70q93 5 96 91q-5 90 -105 91h-88l43 243h178l-19 -102q118 -20 168 -130q19 -50 20 -105q0 -169 -147 -235q-58 -28 -125 -28q-215 2 -293 155z" />
<glyph unicode="&#xb9;" d="M120 644q0 127 107 186q47 24 100 24q120 0 178 -100q31 -52 29 -110q0 -129 -107 -186q-48 -26 -100 -26q-120 0 -179 102q-28 53 -28 110z" />
<glyph unicode="&#xba;" horiz-adv-x="1168" d="M152 842q0 240 193 383q143 102 322 101q238 0 372 -177q98 -124 98 -286q0 -241 -193 -381q-139 -103 -322 -103q-240 0 -374 179q-96 124 -96 284zM465 832q0 -157 115 -193q24 -7 52 -7q122 0 172 126q20 52 21 114q0 148 -105 189q-31 10 -62 11q-136 0 -179 -140 q-14 -48 -14 -100z" />
<glyph unicode="&#xbb;" horiz-adv-x="1249" d="M7 81l320 436l-182 415h322l180 -410v-19l-307 -422h-333zM532 81l320 436l-182 415h322l180 -410v-19l-307 -422h-333z" />
<glyph unicode="&#xbc;" d="M120 644q0 127 107 186q47 24 100 24q120 0 178 -100q31 -52 29 -110q0 -129 -107 -186q-48 -26 -100 -26q-120 0 -179 102q-28 53 -28 110z" />
<glyph unicode="&#xbd;" d="M120 644q0 127 107 186q47 24 100 24q120 0 178 -100q31 -52 29 -110q0 -129 -107 -186q-48 -26 -100 -26q-120 0 -179 102q-28 53 -28 110z" />
<glyph unicode="&#xbe;" d="M120 644q0 127 107 186q47 24 100 24q120 0 178 -100q31 -52 29 -110q0 -129 -107 -186q-48 -26 -100 -26q-120 0 -179 102q-28 53 -28 110z" />
<glyph unicode="&#xbf;" horiz-adv-x="1256" d="M95 487q0 260 210 400q105 67 234 85l28 155h308l-71 -397h-87q-235 0 -283 -175q-7 -35 -7 -71q0 -147 117 -191q40 -15 83 -16q155 2 257 162l255 -149q-100 -192 -312 -270q-100 -35 -205 -35q-319 0 -455 230q-72 119 -72 272zM577 1512q0 126 107 185q48 22 98 22 q117 0 174 -103q29 -47 29 -104q0 -125 -108 -182q-45 -26 -95 -26q-115 0 -174 100q-31 50 -31 108z" />
<glyph unicode="&#xc0;" horiz-adv-x="1626" d="M-38 0l1035 1714h28l460 -1714h-348l-50 198h-665l-117 -198h-343zM584 470h433l-78 307q-14 60 -25.5 130t-14.5 110l-2 40l-70 -165q-30 -62 -60 -112zM649 2339h381l97 -470h-250z" />
<glyph unicode="&#xc1;" horiz-adv-x="1626" d="M-38 0l1035 1714h28l460 -1714h-348l-50 198h-665l-117 -198h-343zM584 470h433l-78 307q-14 60 -25.5 130t-14.5 110l-2 40l-70 -165q-30 -62 -60 -112zM894 1869l200 470h396l-341 -470h-255z" />
<glyph unicode="&#xc2;" horiz-adv-x="1626" d="M-38 0l1035 1714h28l460 -1714h-348l-50 198h-665l-117 -198h-343zM584 470h433l-78 307q-14 60 -25.5 130t-14.5 110l-2 40l-70 -165q-30 -62 -60 -112zM584 1869l482 539h28l293 -539h-255l-107 179l-169 -179h-272z" />
<glyph unicode="&#xc3;" horiz-adv-x="1626" d="M-38 0l1035 1714h28l460 -1714h-348l-50 198h-665l-117 -198h-343zM584 470h433l-78 307q-14 60 -25.5 130t-14.5 110l-2 40l-70 -165q-30 -62 -60 -112zM587 1891q35 270 200 335q43 15 85 15q86 -2 158 -50q85 -55 90 -57q12 -5 22 -5q57 5 77 112l218 -22 q-28 -262 -193 -333q-45 -17 -92 -17q-86 2 -158 50q-14 10 -38 24q-50 38 -74 38q-58 -5 -78 -112z" />
<glyph unicode="&#xc4;" horiz-adv-x="1626" d="M-38 0l1035 1714h28l460 -1714h-348l-50 198h-665l-117 -198h-343zM584 470h433l-78 307q-14 60 -25.5 130t-14.5 110l-2 40l-70 -165q-30 -62 -60 -112zM600 2074q0 105 94 160q43 24 86 24q100 0 155 -89q28 -45 26 -95q0 -107 -94 -160q-42 -25 -87 -25q-98 0 -153 90 q-28 45 -27 95zM1122 2074q0 102 92 160q45 24 90 24q100 0 155 -89q25 -45 26 -95q0 -107 -93 -160q-43 -25 -88 -25q-97 0 -152 87q-31 48 -30 98z" />
<glyph unicode="&#xc5;" horiz-adv-x="1626" d="M-38 0l1035 1714h28l460 -1714h-348l-50 198h-665l-117 -198h-343zM584 470h433l-78 307q-14 60 -25.5 130t-14.5 110l-2 40l-70 -165q-30 -62 -60 -112zM725 2101q0 155 131 245q83 53 181 53q167 0 260 -132q52 -75 52 -166q0 -153 -130 -239q-82 -58 -182 -58 q-167 0 -260 132q-52 77 -52 165zM932 2101q0 -90 74 -110q19 -5 31 -5q77 0 100 76q5 19 5 39q0 90 -76 110q-17 5 -29 6q-77 0 -100 -76q-5 -19 -5 -40z" />
<glyph unicode="&#xc6;" horiz-adv-x="2415" d="M-50 0l1442 1699h1069l-53 -300h-761l-98 -550h668l-53 -294h-667l-45 -255h796l-54 -300h-1137l35 193h-603l-160 -193h-379zM725 475h417l83 472q17 102 77 278l-127 -203q-22 -33 -40 -52z" />
<glyph unicode="&#xc7;" horiz-adv-x="1765" d="M170 815q0 384 264 647q250 245 605 257h27q358 0 563 -207q59 -63 116 -143l-281 -182q-145 225 -407 227q-260 0 -413 -215q-117 -164 -117 -386q0 -277 183 -429q124 -102 284 -102q263 2 418 195l257 -198q-243 -284 -637 -301h-33l-12 -80q117 -20 167 -130 q20 -50 21 -105q0 -169 -148 -235q-57 -28 -125 -28q-215 2 -292 155l162 90q43 -67 110 -70q93 5 95 91q-5 90 -105 91h-88l41 236q-322 57 -508 329q-147 217 -147 493z" />
<glyph unicode="&#xc8;" horiz-adv-x="1438" d="M81 0l298 1699h1102l-52 -300h-762l-97 -550h667l-52 -294h-668l-45 -255h797l-55 -300h-1133zM592 2339h380l98 -470h-250z" />
<glyph unicode="&#xc9;" horiz-adv-x="1438" d="M81 0l298 1699h1102l-52 -300h-762l-97 -550h667l-52 -294h-668l-45 -255h797l-55 -300h-1133zM815 1869l199 470h395l-339 -470h-255z" />
<glyph unicode="&#xca;" horiz-adv-x="1438" d="M81 0l298 1699h1102l-52 -300h-762l-97 -550h667l-52 -294h-668l-45 -255h797l-55 -300h-1133zM553 1869l482 539h26l293 -539h-255l-107 179l-167 -179h-272z" />
<glyph unicode="&#xcb;" horiz-adv-x="1438" d="M81 0l298 1699h1102l-52 -300h-762l-97 -550h667l-52 -294h-668l-45 -255h797l-55 -300h-1133zM520 2074q0 105 95 160q43 24 84 24q100 0 155 -89q28 -45 28 -95q0 -107 -95 -160q-43 -25 -88 -25q-98 0 -151 90q-28 45 -28 95zM1042 2074q0 102 93 160q45 24 90 24 q100 0 154 -89q24 -45 25 -95q0 -107 -92 -160q-42 -25 -87 -25q-98 0 -153 87q-30 48 -30 98z" />
<glyph unicode="&#xcc;" horiz-adv-x="701" d="M90 0l299 1699h343l-300 -1699h-342zM253 2339h379l98 -470h-251z" />
<glyph unicode="&#xcd;" horiz-adv-x="701" d="M90 0l299 1699h343l-300 -1699h-342zM425 1869l200 470h395l-340 -470h-255z" />
<glyph unicode="&#xce;" horiz-adv-x="701" d="M90 0l299 1699h343l-300 -1699h-342zM177 1869l483 539h27l293 -539h-255l-108 179l-167 -179h-273z" />
<glyph unicode="&#xcf;" horiz-adv-x="701" d="M90 0l299 1699h343l-300 -1699h-342zM183 2074q0 105 94 160q43 24 85 24q100 0 155 -89q28 -45 27 -95q0 -107 -94 -160q-43 -25 -88 -25q-97 0 -152 90q-28 45 -27 95zM705 2074q0 102 92 160q45 24 90 24q100 0 155 -89q24 -45 24 -95q0 -107 -91 -160 q-43 -25 -88 -25q-98 0 -153 87q-30 48 -29 98z" />
<glyph unicode="&#xd0;" horiz-adv-x="1666" d="M45 600l53 297h140l141 802h446q447 0 656 -300q140 -197 140 -484q0 -467 -324 -717q-255 -198 -637 -198h-579l104 600h-140zM475 300h192q380 0 527 292q72 145 72 338q0 369 -312 449q-80 19 -172 20h-112l-90 -502h374l-52 -297h-375z" />
<glyph unicode="&#xd1;" horiz-adv-x="1705" d="M81 0l301 1714h33l692 -830q76 -92 157 -245l21 253q5 33 9 60l132 747h321l-303 -1714h-32l-690 828q-77 95 -157 244l-23 -258q-5 -30 -10 -55l-132 -744h-319zM647 1891q35 270 200 335q42 15 85 15q85 -2 157 -50q86 -55 91 -57q12 -5 22 -5q57 5 78 112l217 -22 q-28 -262 -193 -333q-45 -17 -93 -17q-85 2 -157 50q-15 10 -37 24q-50 38 -75 38q-58 -5 -77 -112z" />
<glyph unicode="&#xd2;" horiz-adv-x="1948" d="M170 820q0 417 288 674q254 225 614 225q363 0 597 -245q229 -241 229 -597q0 -419 -289 -674q-255 -225 -615 -225q-362 0 -599 246q-224 241 -225 596zM522 813q0 -301 203 -446q122 -85 281 -85q298 0 446 235q95 153 95 367q0 301 -203 446q-122 85 -283 84 q-297 0 -444 -234q-95 -153 -95 -367zM760 2339h379l98 -470h-250z" />
<glyph unicode="&#xd3;" horiz-adv-x="1948" d="M170 820q0 417 288 674q254 225 614 225q363 0 597 -245q229 -241 229 -597q0 -419 -289 -674q-255 -225 -615 -225q-362 0 -599 246q-224 241 -225 596zM522 813q0 -301 203 -446q122 -85 281 -85q298 0 446 235q95 153 95 367q0 301 -203 446q-122 85 -283 84 q-297 0 -444 -234q-95 -153 -95 -367zM982 1869l200 470h394l-339 -470h-255z" />
<glyph unicode="&#xd4;" horiz-adv-x="1948" d="M170 820q0 417 288 674q254 225 614 225q363 0 597 -245q229 -241 229 -597q0 -419 -289 -674q-255 -225 -615 -225q-362 0 -599 246q-224 241 -225 596zM522 813q0 -301 203 -446q122 -85 281 -85q298 0 446 235q95 153 95 367q0 301 -203 446q-122 85 -283 84 q-297 0 -444 -234q-95 -153 -95 -367zM727 1869l482 539h28l292 -539h-255l-108 179l-167 -179h-272z" />
<glyph unicode="&#xd5;" horiz-adv-x="1948" d="M170 820q0 417 288 674q254 225 614 225q363 0 597 -245q229 -241 229 -597q0 -419 -289 -674q-255 -225 -615 -225q-362 0 -599 246q-224 241 -225 596zM522 813q0 -301 203 -446q122 -85 281 -85q298 0 446 235q95 153 95 367q0 301 -203 446q-122 85 -283 84 q-297 0 -444 -234q-95 -153 -95 -367zM725 1891q35 270 200 335q42 15 84 15q85 -2 157 -50q86 -55 91 -57q12 -5 23 -5q57 5 77 112l217 -22q-28 -262 -192 -333q-45 -17 -92 -17q-86 2 -158 50q-14 10 -38 24q-50 38 -74 38q-59 -5 -78 -112z" />
<glyph unicode="&#xd6;" horiz-adv-x="1948" d="M170 820q0 417 288 674q254 225 614 225q363 0 597 -245q229 -241 229 -597q0 -419 -289 -674q-255 -225 -615 -225q-362 0 -599 246q-224 241 -225 596zM522 813q0 -301 203 -446q122 -85 281 -85q298 0 446 235q95 153 95 367q0 301 -203 446q-122 85 -283 84 q-297 0 -444 -234q-95 -153 -95 -367zM712 2074q0 105 96 160q42 24 84 24q100 0 155 -89q28 -45 28 -95q0 -107 -95 -160q-43 -25 -88 -25q-98 0 -153 90q-28 45 -27 95zM1235 2074q0 102 91 160q45 24 90 24q100 0 155 -89q25 -45 26 -95q0 -107 -93 -160q-42 -25 -88 -25 q-97 0 -152 87q-31 48 -29 98z" />
<glyph unicode="&#xd7;" d="M120 644q0 127 107 186q47 24 100 24q120 0 178 -100q31 -52 29 -110q0 -129 -107 -186q-48 -26 -100 -26q-120 0 -179 102q-28 53 -28 110z" />
<glyph unicode="&#xd8;" horiz-adv-x="1948" d="M95 167l203 186q-127 207 -128 467q0 417 285 674q253 225 604 225q312 -2 536 -179l198 181l181 -192l-203 -185q127 -212 127 -467q0 -415 -284 -672q-252 -227 -608 -227q-317 2 -534 179l-200 -181zM522 813q0 -121 36 -221l796 729q-122 93 -300 93 q-277 0 -424 -220q-108 -157 -108 -381zM712 377q122 -95 302 -95q279 0 428 223q105 157 105 379q0 118 -35 223z" />
<glyph unicode="&#xd9;" horiz-adv-x="1671" d="M193 675l179 1024h345l-185 -1050q-55 -310 198 -359q45 -7 95 -8q255 0 332 235q14 45 25 98l192 1084h345l-203 -1139q-82 -460 -491 -558q-103 -24 -217 -24q-330 0 -503 207q-162 198 -112 490zM689 2339h381l96 -470h-249z" />
<glyph unicode="&#xda;" horiz-adv-x="1671" d="M193 675l179 1024h345l-185 -1050q-55 -310 198 -359q45 -7 95 -8q255 0 332 235q14 45 25 98l192 1084h345l-203 -1139q-82 -460 -491 -558q-103 -24 -217 -24q-330 0 -503 207q-162 198 -112 490zM917 1869l199 470h396l-340 -470h-255z" />
<glyph unicode="&#xdb;" horiz-adv-x="1671" d="M193 675l179 1024h345l-185 -1050q-55 -310 198 -359q45 -7 95 -8q255 0 332 235q14 45 25 98l192 1084h345l-203 -1139q-82 -460 -491 -558q-103 -24 -217 -24q-330 0 -503 207q-162 198 -112 490zM658 1869l481 539h27l293 -539h-255l-107 179l-167 -179h-272z" />
<glyph unicode="&#xdc;" horiz-adv-x="1671" d="M193 675l179 1024h345l-185 -1050q-55 -310 198 -359q45 -7 95 -8q255 0 332 235q14 45 25 98l192 1084h345l-203 -1139q-82 -460 -491 -558q-103 -24 -217 -24q-330 0 -503 207q-162 198 -112 490zM637 2074q0 105 95 160q43 24 85 24q100 0 155 -89q28 -45 27 -95 q0 -107 -95 -160q-41 -25 -87 -25q-97 0 -152 90q-28 45 -28 95zM1159 2074q0 102 93 160q45 24 90 24q100 0 155 -89q24 -45 24 -95q0 -107 -92 -160q-42 -25 -87 -25q-98 0 -152 87q-31 48 -31 98z" />
<glyph unicode="&#xdd;" horiz-adv-x="1657" d="M255 1699h362l196 -547q45 -130 79 -337l102 207q43 81 78 130l380 547h372l-799 -1141l-98 -558h-343l96 542zM920 1869l200 470h394l-339 -470h-255z" />
<glyph unicode="&#xde;" horiz-adv-x="1455" d="M81 0l298 1699h343l-33 -183h60q395 0 577 -250q110 -152 111 -362q0 -434 -350 -606q-188 -93 -448 -93h-181l-36 -205h-341zM510 503h139q362 0 423 269q13 60 13 132q-5 312 -358 315h-90z" />
<glyph unicode="&#xdf;" horiz-adv-x="1411" d="M-212 -529l47 247h100q50 0 65 47q0 7 2 15l275 1552q80 460 477 499q40 5 78 5q282 0 412 -191q72 -110 72 -255q-2 -287 -259 -420q272 -115 275 -420q0 -336 -245 -485q-138 -81 -325 -80q-162 0 -240 43l70 260q64 -24 138 -26q209 0 257 193q10 48 10 103 q-5 267 -300 276l45 255q255 29 260 293q0 155 -132 180q-22 4 -45 4q-158 0 -210 -190q-7 -30 -12 -62l-276 -1557q-35 -205 -142 -255q-69 -33 -225 -31h-172z" />
<glyph unicode="&#xe0;" horiz-adv-x="1328" d="M83 487q0 340 215 505q127 95 289 95q240 -2 343 -193l22 170h330l-133 -754q-5 -60 45 -62h75l-42 -248h-125q-225 0 -270 88q-12 24 -19 60l-3 12q-100 -148 -226 -175q-39 -7 -84 -7q-207 0 -328 179q-90 138 -89 330zM393 1719h379l98 -470h-250zM427 503 q0 -196 145 -233q29 -8 60 -8q145 0 205 143q30 67 30 148q0 195 -140 236q-30 10 -65 10q-157 0 -214 -160q-20 -62 -21 -136z" />
<glyph unicode="&#xe1;" horiz-adv-x="1328" d="M83 487q0 340 215 505q127 95 289 95q240 -2 343 -193l22 170h330l-133 -754q-5 -60 45 -62h75l-42 -248h-125q-225 0 -270 88q-12 24 -19 60l-3 12q-100 -148 -226 -175q-39 -7 -84 -7q-207 0 -328 179q-90 138 -89 330zM427 503q0 -196 145 -233q29 -8 60 -8 q145 0 205 143q30 67 30 148q0 195 -140 236q-30 10 -65 10q-157 0 -214 -160q-20 -62 -21 -136zM603 1249l199 470h395l-341 -470h-253z" />
<glyph unicode="&#xe2;" horiz-adv-x="1328" d="M83 487q0 340 215 505q127 95 289 95q240 -2 343 -193l22 170h330l-133 -754q-5 -60 45 -62h75l-42 -248h-125q-225 0 -270 88q-12 24 -19 60l-3 12q-100 -148 -226 -175q-39 -7 -84 -7q-207 0 -328 179q-90 138 -89 330zM372 1249l482 540h28l293 -540h-255l-107 180 l-169 -180h-272zM427 503q0 -196 145 -233q29 -8 60 -8q145 0 205 143q30 67 30 148q0 195 -140 236q-30 10 -65 10q-157 0 -214 -160q-20 -62 -21 -136z" />
<glyph unicode="&#xe3;" horiz-adv-x="1328" d="M83 487q0 340 215 505q127 95 289 95q240 -2 343 -193l22 170h330l-133 -754q-5 -60 45 -62h75l-42 -248h-125q-225 0 -270 88q-12 24 -19 60l-3 12q-100 -148 -226 -175q-39 -7 -84 -7q-207 0 -328 179q-90 138 -89 330zM389 1271q36 270 200 336q43 14 86 14 q85 -2 157 -50q85 -55 90 -57q13 -5 22 -5q58 5 78 112l218 -22q-29 -262 -193 -333q-45 -17 -93 -17q-85 3 -157 50q-15 10 -37 25q-50 38 -76 38q-57 -5 -76 -113zM427 503q0 -196 145 -233q29 -8 60 -8q145 0 205 143q30 67 30 148q0 195 -140 236q-30 10 -65 10 q-157 0 -214 -160q-20 -62 -21 -136z" />
<glyph unicode="&#xe4;" horiz-adv-x="1328" d="M83 487q0 340 215 505q127 95 289 95q240 -2 343 -193l22 170h330l-133 -754q-5 -60 45 -62h75l-42 -248h-125q-225 0 -270 88q-12 24 -19 60l-3 12q-100 -148 -226 -175q-39 -7 -84 -7q-207 0 -328 179q-90 138 -89 330zM384 1454q0 105 95 160q43 24 86 24 q100 0 155 -89q28 -45 27 -95q0 -107 -94 -160q-43 -25 -88 -25q-98 0 -153 90q-28 45 -28 95zM427 503q0 -196 145 -233q29 -8 60 -8q145 0 205 143q30 67 30 148q0 195 -140 236q-30 10 -65 10q-157 0 -214 -160q-20 -62 -21 -136zM906 1454q0 103 93 160q45 24 90 24 q101 0 155 -89q25 -45 25 -95q0 -107 -92 -160q-42 -25 -88 -25q-97 0 -152 88q-31 47 -31 97z" />
<glyph unicode="&#xe5;" horiz-adv-x="1328" d="M83 487q0 340 215 505q127 95 289 95q240 -2 343 -193l22 170h330l-133 -754q-5 -60 45 -62h75l-42 -248h-125q-225 0 -270 88q-12 24 -19 60l-3 12q-100 -148 -226 -175q-39 -7 -84 -7q-207 0 -328 179q-90 138 -89 330zM427 503q0 -196 145 -233q29 -8 60 -8 q145 0 205 143q30 67 30 148q0 195 -140 236q-30 10 -65 10q-157 0 -214 -160q-20 -62 -21 -136zM492 1481q0 155 133 245q83 53 179 53q167 0 260 -132q52 -74 52 -166q0 -152 -129 -239q-83 -57 -183 -57q-167 0 -260 131q-52 77 -52 165zM699 1481q0 -90 76 -110 q17 -5 29 -5q77 0 100 76q5 20 5 39q0 90 -75 111q-17 5 -30 5q-77 0 -99 -76q-5 -19 -6 -40z" />
<glyph unicode="&#xe6;" horiz-adv-x="1928" d="M38 295q5 327 460 330h264q13 197 -173 200q-145 -3 -244 -86l-175 205q162 143 435 143q229 -2 342 -140q138 140 357 140q439 0 537 -422q17 -83 23 -176l-789 -84q57 -155 262 -157q138 2 253 89l199 -210q-186 -150 -454 -149q-300 2 -438 192q-125 -193 -422 -192 q-296 0 -398 165q-40 67 -39 152zM367 334q5 -100 145 -102q183 2 208 140l10 62h-238q-122 -2 -125 -100zM1061 589l443 48q-10 162 -157 185q-20 3 -40 3q-218 -6 -246 -236z" />
<glyph unicode="&#xe7;" horiz-adv-x="1135" d="M88 522q0 284 212 445q158 120 375 120q295 -2 447 -212l-242 -191q-72 113 -208 115q-152 0 -214 -139q-29 -65 -29 -138q0 -227 174 -257q22 -3 44 -3q107 3 202 81l190 -219q-150 -147 -392 -146h-25l-12 -80q117 -20 167 -130q20 -50 20 -105q0 -169 -148 -235 q-57 -28 -124 -28q-215 2 -293 155l163 90q43 -67 110 -70q93 5 95 91q-5 90 -105 91h-88l43 248q-245 80 -330 312q-33 95 -32 205z" />
<glyph unicode="&#xe8;" horiz-adv-x="1285" d="M90 525q0 290 217 450q153 112 355 112q440 0 537 -422q17 -83 22 -176l-789 -84q57 -155 262 -157q138 2 253 89l200 -210q-186 -150 -455 -149q-358 0 -515 237q-88 135 -87 310zM357 1719h380l97 -470h-250zM420 589l443 48q-10 162 -158 185q-19 3 -40 3 q-217 -6 -245 -236z" />
<glyph unicode="&#xe9;" horiz-adv-x="1285" d="M90 525q0 290 217 450q153 112 355 112q440 0 537 -422q17 -83 22 -176l-789 -84q57 -155 262 -157q138 2 253 89l200 -210q-186 -150 -455 -149q-358 0 -515 237q-88 135 -87 310zM420 589l443 48q-10 162 -158 185q-19 3 -40 3q-217 -6 -245 -236zM608 1249l200 470 h394l-339 -470h-255z" />
<glyph unicode="&#xea;" horiz-adv-x="1285" d="M90 525q0 290 217 450q153 112 355 112q440 0 537 -422q17 -83 22 -176l-789 -84q57 -155 262 -157q138 2 253 89l200 -210q-186 -150 -455 -149q-358 0 -515 237q-88 135 -87 310zM327 1249l483 540h27l293 -540h-255l-108 180l-167 -180h-273zM420 589l443 48 q-10 162 -158 185q-19 3 -40 3q-217 -6 -245 -236z" />
<glyph unicode="&#xeb;" horiz-adv-x="1285" d="M90 525q0 290 217 450q153 112 355 112q440 0 537 -422q17 -83 22 -176l-789 -84q57 -155 262 -157q138 2 253 89l200 -210q-186 -150 -455 -149q-358 0 -515 237q-88 135 -87 310zM348 1454q0 105 94 160q42 24 85 24q100 0 155 -89q28 -45 28 -95q0 -107 -95 -160 q-43 -25 -88 -25q-98 0 -152 90q-29 45 -27 95zM420 589l443 48q-10 162 -158 185q-19 3 -40 3q-217 -6 -245 -236zM870 1454q0 103 91 160q45 24 91 24q100 0 155 -89q24 -45 25 -95q0 -107 -93 -160q-42 -25 -87 -25q-98 0 -153 88q-30 47 -29 97z" />
<glyph unicode="&#xec;" horiz-adv-x="649" d="M107 307l133 757h330l-133 -754q-5 -60 45 -62h76l-43 -248h-126q-215 0 -267 83q-43 69 -15 224zM112 1719h380l97 -470h-249z" />
<glyph unicode="&#xed;" horiz-adv-x="649" d="M107 307l133 757h330l-133 -754q-5 -60 45 -62h76l-43 -248h-126q-215 0 -267 83q-43 69 -15 224zM284 1249l200 470h396l-341 -470h-255z" />
<glyph unicode="&#xee;" horiz-adv-x="649" d="M40 1249l482 540h28l292 -540h-255l-108 180l-167 -180h-272zM107 307l133 757h330l-133 -754q-5 -60 45 -62h76l-43 -248h-126q-215 0 -267 83q-43 69 -15 224z" />
<glyph unicode="&#xef;" horiz-adv-x="649" d="M43 1454q0 105 95 160q43 24 84 24q100 0 155 -89q28 -45 28 -95q0 -107 -95 -160q-43 -25 -88 -25q-98 0 -152 90q-29 45 -27 95zM107 307l133 757h330l-133 -754q-5 -60 45 -62h76l-43 -248h-126q-215 0 -267 83q-43 69 -15 224zM565 1454q0 103 93 160q45 24 89 24 q100 0 155 -89q24 -45 25 -95q0 -107 -93 -160q-42 -25 -87 -25q-98 0 -153 88q-30 47 -29 97z" />
<glyph unicode="&#xf0;" horiz-adv-x="1313" d="M93 534q0 282 210 446q142 107 307 107q172 -2 267 -88q-38 160 -128 315l-149 -117l-123 162l157 126q-47 62 -139 174l207 184q92 -85 170 -172l165 131l124 -164l-164 -129q255 -379 255 -856q0 -430 -277 -596q-141 -80 -326 -79q-272 0 -432 194q-124 153 -124 362z M432 525q0 -196 135 -253q43 -17 93 -17q165 0 224 160q22 62 22 140q0 175 -126 234q-46 20 -98 21q-172 0 -229 -161q-20 -57 -21 -124z" />
<glyph unicode="&#xf1;" horiz-adv-x="1311" d="M40 0l187 1064h331l-41 -192q133 213 346 215q205 0 289 -178q62 -133 30 -320l-50 -279q-5 -60 45 -62h75l-43 -248h-124q-215 0 -268 83q-42 69 -15 224l47 273q10 200 -150 214q-162 0 -212 -152q-10 -31 -15 -65l-102 -577h-330zM343 1271q35 270 199 336 q42 14 85 14q85 -2 157 -50q86 -55 91 -57q12 -5 22 -5q57 5 78 112l217 -22q-28 -262 -193 -333q-45 -17 -93 -17q-85 3 -157 50q-15 10 -37 25q-50 38 -75 38q-57 -5 -77 -113z" />
<glyph unicode="&#xf2;" horiz-adv-x="1323" d="M88 517q0 291 219 453q160 117 373 117q272 0 436 -190q125 -150 126 -353q0 -293 -222 -454q-159 -112 -371 -112q-270 0 -434 189q-127 148 -127 350zM400 1719h380l97 -470h-250zM427 512q0 -179 135 -238q46 -17 98 -17q160 0 220 155q22 60 22 136q0 179 -135 236 q-45 18 -97 18q-160 0 -220 -155q-22 -60 -23 -135z" />
<glyph unicode="&#xf3;" horiz-adv-x="1323" d="M88 517q0 291 219 453q160 117 373 117q272 0 436 -190q125 -150 126 -353q0 -293 -222 -454q-159 -112 -371 -112q-270 0 -434 189q-127 148 -127 350zM427 512q0 -179 135 -238q46 -17 98 -17q160 0 220 155q22 60 22 136q0 179 -135 236q-45 18 -97 18 q-160 0 -220 -155q-22 -60 -23 -135zM589 1249l200 470h396l-341 -470h-255z" />
<glyph unicode="&#xf4;" horiz-adv-x="1323" d="M88 517q0 291 219 453q160 117 373 117q272 0 436 -190q125 -150 126 -353q0 -293 -222 -454q-159 -112 -371 -112q-270 0 -434 189q-127 148 -127 350zM355 1249l482 540h28l292 -540h-255l-108 180l-167 -180h-272zM427 512q0 -179 135 -238q46 -17 98 -17 q160 0 220 155q22 60 22 136q0 179 -135 236q-45 18 -97 18q-160 0 -220 -155q-22 -60 -23 -135z" />
<glyph unicode="&#xf5;" horiz-adv-x="1323" d="M88 517q0 291 219 453q160 117 373 117q272 0 436 -190q125 -150 126 -353q0 -293 -222 -454q-159 -112 -371 -112q-270 0 -434 189q-127 148 -127 350zM327 1271q35 270 200 336q43 14 85 14q86 -2 158 -50q85 -55 90 -57q12 -5 22 -5q57 5 77 112l218 -22 q-28 -262 -192 -333q-46 -17 -93 -17q-86 3 -158 50q-14 10 -37 25q-50 38 -75 38q-58 -5 -78 -113zM427 512q0 -179 135 -238q46 -17 98 -17q160 0 220 155q22 60 22 136q0 179 -135 236q-45 18 -97 18q-160 0 -220 -155q-22 -60 -23 -135z" />
<glyph unicode="&#xf6;" horiz-adv-x="1323" d="M88 517q0 291 219 453q160 117 373 117q272 0 436 -190q125 -150 126 -353q0 -293 -222 -454q-159 -112 -371 -112q-270 0 -434 189q-127 148 -127 350zM355 1454q0 105 95 160q43 24 84 24q100 0 155 -89q28 -45 28 -95q0 -107 -95 -160q-42 -25 -88 -25q-97 0 -152 90 q-28 45 -27 95zM427 512q0 -179 135 -238q46 -17 98 -17q160 0 220 155q22 60 22 136q0 179 -135 236q-45 18 -97 18q-160 0 -220 -155q-22 -60 -23 -135zM877 1454q0 103 93 160q45 24 89 24q100 0 155 -89q24 -45 26 -95q0 -107 -93 -160q-43 -25 -88 -25q-98 0 -153 88 q-30 47 -29 97z" />
<glyph unicode="&#xf7;" d="M120 644q0 127 107 186q47 24 100 24q120 0 178 -100q31 -52 29 -110q0 -129 -107 -186q-48 -26 -100 -26q-120 0 -179 102q-28 53 -28 110z" />
<glyph unicode="&#xf8;" horiz-adv-x="1323" d="M0 122l157 126q-69 122 -69 269q0 291 219 453q160 117 373 117q212 -2 364 -122l165 134l115 -157l-152 -125q70 -122 70 -273q0 -293 -222 -454q-157 -112 -371 -112q-212 2 -365 122l-164 -135zM410 512q0 -22 5 -54l400 322q-62 42 -145 42q-165 0 -233 -157 q-28 -67 -27 -153zM510 282q62 -45 150 -44q165 0 232 157q28 67 28 153q0 24 -5 62z" />
<glyph unicode="&#xf9;" horiz-adv-x="1318" d="M120 475l102 589h333l-102 -580q-10 -200 150 -214q162 0 212 152q10 31 15 65l102 577h329l-131 -754q-5 -60 45 -62h74l-42 -248h-125q-232 0 -274 98q-10 22 -16 54l-3 18q-124 -177 -310 -190q-20 -2 -40 -2q-205 0 -289 177q-62 133 -30 320zM425 1719h379l98 -470 h-249z" />
<glyph unicode="&#xfa;" horiz-adv-x="1318" d="M120 475l102 589h333l-102 -580q-10 -200 150 -214q162 0 212 152q10 31 15 65l102 577h329l-131 -754q-5 -60 45 -62h74l-42 -248h-125q-232 0 -274 98q-10 22 -16 54l-3 18q-124 -177 -310 -190q-20 -2 -40 -2q-205 0 -289 177q-62 133 -30 320zM627 1249l200 470h394 l-339 -470h-255z" />
<glyph unicode="&#xfb;" horiz-adv-x="1318" d="M120 475l102 589h333l-102 -580q-10 -200 150 -214q162 0 212 152q10 31 15 65l102 577h329l-131 -754q-5 -60 45 -62h74l-42 -248h-125q-232 0 -274 98q-10 22 -16 54l-3 18q-124 -177 -310 -190q-20 -2 -40 -2q-205 0 -289 177q-62 133 -30 320zM367 1249l482 540h28 l292 -540h-254l-107 180l-169 -180h-272z" />
<glyph unicode="&#xfc;" horiz-adv-x="1318" d="M120 475l102 589h333l-102 -580q-10 -200 150 -214q162 0 212 152q10 31 15 65l102 577h329l-131 -754q-5 -60 45 -62h74l-42 -248h-125q-232 0 -274 98q-10 22 -16 54l-3 18q-124 -177 -310 -190q-20 -2 -40 -2q-205 0 -289 177q-62 133 -30 320zM348 1454q0 105 94 160 q42 24 85 24q100 0 155 -89q28 -45 28 -95q0 -107 -95 -160q-43 -25 -88 -25q-98 0 -152 90q-29 45 -27 95zM870 1454q0 103 91 160q45 24 91 24q100 0 155 -89q24 -45 25 -95q0 -107 -93 -160q-42 -25 -87 -25q-98 0 -153 88q-30 47 -29 97z" />
<glyph unicode="&#xfd;" horiz-adv-x="1293" d="M-28 -350l218 210q108 -136 275 -137q227 5 274 255l31 165q-138 -160 -331 -165q-205 0 -289 177q-62 133 -30 320l102 589h333l-102 -580q-10 -200 150 -214q162 0 212 152q10 31 15 65l102 577h329l-197 -1124q-101 -488 -609 -495q-317 2 -483 205zM634 1249l200 470 h396l-341 -470h-255z" />
<glyph unicode="&#xfe;" horiz-adv-x="1338" d="M-52 -529l409 2333h330l-158 -895q113 174 305 178q218 0 341 -185q90 -136 89 -325q0 -317 -205 -489q-133 -110 -299 -110q-245 2 -357 207l-126 -714h-329zM455 510q0 -183 134 -233q41 -15 83 -15q167 0 225 160q22 62 23 138q0 183 -140 227q-38 12 -78 12 q-153 0 -218 -141q-30 -68 -29 -148z" />
<glyph unicode="&#xff;" horiz-adv-x="1293" d="M-28 -350l218 210q108 -136 275 -137q227 5 274 255l31 165q-138 -160 -331 -165q-205 0 -289 177q-62 133 -30 320l102 589h333l-102 -580q-10 -200 150 -214q162 0 212 152q10 31 15 65l102 577h329l-197 -1124q-101 -488 -609 -495q-317 2 -483 205zM337 1454 q0 105 95 160q43 24 85 24q100 0 155 -89q28 -45 27 -95q0 -107 -94 -160q-43 -25 -88 -25q-97 0 -152 90q-28 45 -28 95zM860 1454q0 103 92 160q45 24 90 24q100 0 155 -89q24 -45 24 -95q0 -107 -91 -160q-43 -25 -88 -25q-98 0 -153 88q-30 47 -29 97z" />
<glyph unicode="&#x152;" horiz-adv-x="2455" d="M172 784q0 427 295 682q267 232 668 233h1366l-52 -300h-763l-96 -550h666l-53 -294h-666l-45 -255h797l-55 -300h-1264q-445 0 -658 298q-140 200 -140 486zM527 770q0 -370 312 -450q80 -20 172 -20h138l195 1099h-217q-379 0 -527 -292q-72 -146 -73 -337z" />
<glyph unicode="&#x153;" horiz-adv-x="2098" d="M88 517q0 293 222 455q162 115 377 115q255 -2 388 -190q145 188 399 190q439 0 538 -422q17 -83 22 -176l-790 -84q58 -155 263 -157q138 2 252 89l200 -210q-185 -150 -455 -149q-300 1 -438 192q-145 -191 -417 -192q-270 0 -434 189q-127 148 -127 350zM427 512 q0 -179 135 -238q46 -17 98 -17q162 0 220 155q22 63 22 138q0 177 -132 232q-48 20 -100 20q-160 0 -220 -155q-22 -60 -23 -135zM1232 589l442 48q-10 162 -158 185q-19 3 -40 3q-216 -6 -244 -236z" />
<glyph unicode="&#x178;" horiz-adv-x="1657" d="M255 1699h362l196 -547q45 -130 79 -337l102 207q43 81 78 130l380 547h372l-799 -1141l-98 -558h-343l96 542zM612 2074q0 105 96 160q42 24 84 24q100 0 155 -89q28 -45 28 -95q0 -107 -95 -160q-43 -25 -88 -25q-98 0 -153 90q-28 45 -27 95zM1135 2074q0 102 92 160 q45 24 89 24q100 0 155 -89q25 -45 26 -95q0 -107 -93 -160q-42 -25 -88 -25q-97 0 -152 87q-31 48 -29 98z" />
<glyph unicode="&#x2c6;" horiz-adv-x="1223" d="M340 1249l482 540h27l293 -540h-255l-107 180l-168 -180h-272z" />
<glyph unicode="&#x2dc;" horiz-adv-x="1223" d="M343 1271q35 270 199 336q42 14 85 14q85 -2 157 -50q86 -55 91 -57q12 -5 22 -5q57 5 78 112l217 -22q-28 -262 -193 -333q-45 -17 -93 -17q-85 3 -157 50q-15 10 -37 25q-50 38 -75 38q-57 -5 -77 -113z" />
<glyph unicode="&#x2000;" horiz-adv-x="1204" />
<glyph unicode="&#x2001;" horiz-adv-x="2408" />
<glyph unicode="&#x2002;" horiz-adv-x="1204" />
<glyph unicode="&#x2003;" horiz-adv-x="2408" />
<glyph unicode="&#x2004;" horiz-adv-x="802" />
<glyph unicode="&#x2005;" horiz-adv-x="602" />
<glyph unicode="&#x2006;" horiz-adv-x="401" />
<glyph unicode="&#x2007;" horiz-adv-x="401" />
<glyph unicode="&#x2008;" horiz-adv-x="301" />
<glyph unicode="&#x2009;" horiz-adv-x="481" />
<glyph unicode="&#x200a;" horiz-adv-x="133" />
<glyph unicode="&#x2010;" horiz-adv-x="729" d="M72 460l52 289h565l-52 -289h-565z" />
<glyph unicode="&#x2011;" horiz-adv-x="729" d="M72 460l52 289h565l-52 -289h-565z" />
<glyph unicode="&#x2012;" horiz-adv-x="729" d="M72 460l52 289h565l-52 -289h-565z" />
<glyph unicode="&#x2013;" horiz-adv-x="994" d="M57 427l53 290h846l-52 -290h-847z" />
<glyph unicode="&#x2014;" horiz-adv-x="1607" d="M57 427l53 290h1461l-52 -290h-1462z" />
<glyph unicode="&#x2018;" horiz-adv-x="596" d="M232 1227q2 93 83 208l185 264h160l-148 -300q103 -62 105 -178q0 -117 -102 -169q-43 -22 -90 -22q-115 0 -168 100q-24 45 -25 97z" />
<glyph unicode="&#x2019;" horiz-adv-x="596" d="M243 1049l146 300q-102 63 -105 177q0 117 103 171q42 22 90 22q115 0 167 -100q25 -45 26 -98q-3 -92 -83 -207l-184 -265h-160z" />
<glyph unicode="&#x201a;" horiz-adv-x="596" d="M12 -257l148 300q-103 62 -105 177q0 117 102 169q43 22 91 23q114 0 167 -100q24 -45 24 -97q-2 -93 -82 -208l-185 -264h-160z" />
<glyph unicode="&#x201c;" horiz-adv-x="1128" d="M232 1227q2 93 83 208l185 264h160l-148 -300q103 -62 105 -178q0 -117 -102 -169q-43 -22 -90 -22q-115 0 -168 100q-24 45 -25 97zM762 1227q3 93 82 208l186 264h160l-148 -300q102 -62 105 -178q0 -117 -103 -169q-42 -22 -90 -22q-115 0 -167 100q-25 45 -25 97z " />
<glyph unicode="&#x201d;" horiz-adv-x="1126" d="M243 1049l146 300q-102 63 -105 177q0 117 103 171q42 22 90 22q115 0 167 -100q25 -45 26 -98q-3 -92 -83 -207l-184 -265h-160zM772 1049l148 300q-103 63 -105 177q0 117 102 171q43 22 89 22q115 0 169 -100q24 -45 24 -98q-2 -92 -83 -207l-184 -265h-160z" />
<glyph unicode="&#x201e;" horiz-adv-x="1126" d="M12 -257l148 300q-103 62 -105 177q0 117 102 169q43 22 91 23q114 0 167 -100q24 -45 24 -97q-2 -93 -82 -208l-185 -264h-160zM542 -257l147 300q-102 62 -105 177q0 117 103 169q43 22 90 23q115 0 167 -100q25 -45 26 -97q-3 -93 -83 -208l-185 -264h-160z" />
<glyph unicode="&#x2022;" horiz-adv-x="668" d="M95 632q0 150 122 228q65 43 138 42q138 0 217 -115q48 -70 48 -155q0 -145 -120 -225q-71 -45 -145 -45q-135 0 -212 115q-48 72 -48 155z" />
<glyph unicode="&#x2026;" horiz-adv-x="1783" d="M43 193q0 124 107 182q45 24 95 25q117 0 175 -102q28 -50 28 -105q0 -127 -108 -186q-45 -22 -95 -22q-117 0 -175 103q-29 47 -27 105zM634 193q0 124 108 182q45 24 95 25q117 0 174 -102q28 -50 28 -105q0 -127 -107 -186q-45 -22 -95 -22q-117 0 -175 103 q-28 47 -28 105zM1227 193q0 124 108 182q45 24 94 25q117 0 175 -102q28 -50 27 -105q0 -127 -107 -186q-45 -22 -95 -22q-117 0 -175 103q-28 47 -27 105z" />
<glyph unicode="&#x202f;" horiz-adv-x="481" />
<glyph unicode="&#x2039;" horiz-adv-x="723" d="M77 489v21l307 422h333l-319 -437l182 -414h-323z" />
<glyph unicode="&#x203a;" horiz-adv-x="723" d="M7 81l320 436l-182 415h322l180 -410v-19l-307 -422h-333z" />
<glyph unicode="&#x205f;" horiz-adv-x="602" />
<glyph unicode="&#x20ac;" horiz-adv-x="1473" d="M28 387l34 205h160v40q0 51 2 76h-143l36 205h160q102 245 348 353q135 60 274 60q300 0 472 -182q31 -33 58 -67l-247 -171q-80 115 -212 131q-33 2 -66 2q-174 -2 -270 -126h338l-37 -205h-375v-36q-2 -24 -2 -38v-42h359l-35 -205h-262q83 -125 257 -127 q158 2 265 119l222 -181q-177 -220 -492 -220q-307 0 -495 220q-72 85 -112 189h-237z" />
<glyph unicode="&#x2122;" horiz-adv-x="1740" d="M262 1514l33 185h622l-33 -185h-197l-100 -570h-225l100 570h-200zM913 944l134 765h23l296 -367l427 367h24l-136 -765h-219l52 305l-184 -177h-21l-124 177l-53 -305h-219z" />
<glyph unicode="&#x25fc;" horiz-adv-x="1061" d="M0 0v1061h1061v-1061h-1061z" />
<glyph unicode="&#xfb03;" horiz-adv-x="2122" d="M-93 -529l48 247h100q50 0 65 47q0 7 2 15l178 1012h-176l48 272h176l59 330q63 348 330 387q40 5 80 5q153 -2 244 -82l-141 -247q-45 35 -88 35q-74 0 -95 -95q-3 -5 -3 -10l-57 -323h353l67 380q57 325 295 380q55 12 120 12q169 -2 292 -115l-192 -217q-43 38 -86 38 q-77 0 -100 -88q0 -10 -2 -17l-67 -373h684l-132 -754q-5 -60 45 -62h75l-43 -248h-124q-215 0 -267 83q-43 69 -16 224l85 485h-352l-173 -971q-35 -205 -142 -255q-70 -33 -225 -33h-152l47 247h80q50 0 66 48q0 7 2 15l167 949h-352l-182 -1035q-36 -205 -143 -255 q-70 -33 -224 -31h-174zM1752 1454q0 122 105 172q43 20 86 21q120 0 176 -100q22 -43 22 -93q0 -124 -107 -174q-43 -21 -88 -21q-117 0 -172 100q-22 45 -22 95z" />
<glyph unicode="&#xfb04;" horiz-adv-x="2122" d="M-93 -529l48 247h100q50 0 65 47q0 7 2 15l178 1012h-176l48 272h176l59 330q63 348 330 387q40 5 80 5q163 -2 258 -87l-155 -242q-45 35 -88 35q-74 0 -95 -95q-3 -5 -3 -10l-57 -323h353l55 315q69 395 414 447q63 10 127 10q327 0 431 -222q60 -129 27 -312 l-175 -992q-5 -60 45 -62h94l-41 -248h-145q-215 0 -267 83q-43 69 -16 224l178 1009q30 230 -150 238q-130 0 -172 -114q-15 -41 -26 -98l-50 -278h233l-47 -272h-233l-173 -971q-35 -205 -142 -255q-70 -33 -225 -33h-152l47 247h80q50 0 66 48q0 7 2 15l167 949h-352 l-182 -1035q-36 -205 -143 -255q-70 -33 -224 -31h-174z" />
</font>
</defs>
</svg>
