<?xml version="1.0" encoding="utf-8"?>
<svg version="1.1" id="Camada_1" xmlns="http://www.w3.org/2000/svg" xmlns:xlink="http://www.w3.org/1999/xlink" x="0px"
	y="0px" viewBox="0 0 87.4 87.1" style="enable-background:new 0 0 87.4 87.1;" xml:space="preserve">
	<g>
		<path class="st0"
			d="M0.3,70.1c0-18.1,0-36.2,0-54.3c0.1-0.3,0.2-0.5,0.2-0.8C1.4,9.2,4.7,4.9,10.1,2.5c1.6-0.7,3.4-1,5.1-1.5
		c18.2,0,36.4,0,54.5,0c0.2,0.1,0.4,0.2,0.6,0.2c7.1,0.9,12.5,6.1,13.9,13.1c0.2,0.9,0.3,1.8,0.4,2.7c0,17.3,0,34.5,0,51.8
		c-0.1,0.4-0.2,0.8-0.2,1.2c-0.6,7-5.7,13-12.6,14.5c-1.1,0.2-2.3,0.3-3.5,0.5c-17.3,0-34.5,0-51.8,0c-0.4-0.1-0.7-0.1-1.1-0.2
		c-7-0.5-12.8-5.3-14.6-12C0.7,71.9,0.5,71,0.3,70.1z M47.1,78.3c0-8.7,0-17.3,0-26c-2.7,0-5.2,0-7.8,0c0-3.5,0-6.9,0-10.3
		c2.6,0,5.2,0,7.9,0c0-0.5,0-1,0-1.4c0-2.7-0.1-5.4,0.1-8.1c0.4-5.2,2.8-9,7.8-10.9c4.4-1.6,9-0.8,13.5-0.5c0,3.2,0,6.2,0,9.3
		c-1.1,0-2.2,0-3.3,0c-1.1,0-2.1,0-3.2,0c-2.3,0.1-3.8,1.1-4,3.1c-0.2,2.8-0.1,5.6-0.1,8.5c3.4,0,6.8,0,10.2,0
		c-0.4,3-0.8,5.8-1.1,8.7c-0.2,1.6-0.2,1.6-1.8,1.6c-2.4,0-4.9,0-7.3,0c0,8.7,0,17.3,0,26c3.3,0,6.5,0,9.7,0c6.2,0,10.2-4,10.2-10.1
		c0-16.9,0-33.7,0-50.6c0-6-4.1-10.1-10.1-10.1c-17,0-33.9,0-50.9,0c-0.9,0-1.8,0-2.6,0.2c-4.7,1.1-7.6,4.8-7.6,10
		c0,16.8,0,33.5,0,50.3c0,0.9,0,1.8,0.2,2.7c1,4.6,4.8,7.6,9.8,7.6c9.7,0,19.4,0,29.1,0C46.3,78.3,46.7,78.3,47.1,78.3z" />
	</g>
</svg>