<svg id="Camada_1" data-name="Camada 1" xmlns="http://www.w3.org/2000/svg" viewBox="0 0 47.61 47.61"><defs><style>.cls-1{fill:#fff;}</style></defs><path class="cls-1" d="M675.25,461.54a23.81,23.81,0,1,1,23.81-23.8A23.83,23.83,0,0,1,675.25,461.54Zm0-46.61a22.81,22.81,0,1,0,22.81,22.81A22.83,22.83,0,0,0,675.25,414.93Z" transform="translate(-651.45 -413.93)"/><path class="cls-1" d="M669.25,437.85c0-2.94,0-5.88,0-8.82a1.57,1.57,0,0,1,.54-1.24,1.62,1.62,0,0,1,1.34.24q6.69,4.35,13.32,8.77c1.1.72,1.1,1.41,0,2.14-4.43,2.93-8.86,5.87-13.32,8.77a1.66,1.66,0,0,1-1.34.22,1.64,1.64,0,0,1-.53-1.25C669.23,443.74,669.25,440.79,669.25,437.85Zm2.1-7.32V445.2l11.11-7.34Z" transform="translate(-651.45 -413.93)"/></svg>