<?xml version="1.0" encoding="utf-8"?>
<svg version="1.1" id="Camada_1" xmlns="http://www.w3.org/2000/svg" xmlns:xlink="http://www.w3.org/1999/xlink" x="0px"
	y="0px" viewBox="0 0 87.4 87.4" style="enable-background:new 0 0 87.4 87.4;" xml:space="preserve">
	<g id="icone_zap_7_">
		<path class="st0" d="M0,87.3C0,87.2,0,87.2,0,87.3c0.1-0.1,0.1-0.2,0.1-0.3c0.1-0.3,0.2-0.6,0.2-0.9c0.9-3.3,1.8-6.6,2.7-9.9
		c0.9-3.2,1.7-6.3,2.6-9.5c0.1-0.5,0.3-1,0.4-1.4C6.1,65,6.1,64.8,6,64.6c0,0,0-0.1-0.1-0.1c-0.4-0.7-0.8-1.4-1.2-2.2
		c-1.2-2.5-2.2-5.2-3-7.9c-0.3-1.3-0.6-2.5-0.8-3.8c-0.1-0.7-0.2-1.4-0.3-2.2C0.6,48,0.6,47.5,0.5,47c0-0.5-0.1-1.1-0.1-1.6
		c0-0.5,0-1.1,0-1.6c0-1.2,0-2.4,0.1-3.5c0.1-0.8,0.1-1.7,0.3-2.5C0.8,36.8,1,35.9,1.2,35c0.4-1.8,0.8-3.6,1.4-5.4
		c0.7-2.1,1.6-4.2,2.6-6.2c2.2-4.2,5-7.9,8.3-11.2c2.1-2.1,4.4-3.9,6.9-5.5c0.5-0.3,0.9-0.6,1.4-0.9c0.2-0.1,0.5-0.3,0.7-0.4
		C24,4.7,25.4,4,26.9,3.4c0.3-0.1,0.6-0.2,0.9-0.4C28,3,28.3,2.9,28.5,2.8c0.6-0.2,1.3-0.5,1.9-0.7c0.1,0,0.3-0.1,0.4-0.2
		c0,0,0.1,0,0.1,0c0.4-0.2,0.9-0.3,1.3-0.4c0.2,0,0.3,0,0.5-0.1c0.4-0.1,0.8-0.2,1.2-0.3c0,0,0.1,0,0.1,0C34.2,1,34.3,1,34.4,0.9
		c0.8-0.2,1.5-0.3,2.3-0.4c0.6-0.1,1.2-0.2,1.8-0.3c0.5-0.1,0.9-0.1,1.4-0.1C40.5,0,41.1,0,41.6,0c0.1,0,0.1,0,0.1,0
		c1.4,0,2.9,0,4.3,0c0.1,0.1,0.2,0,0.4,0c0.3,0,0.6,0,0.8,0c0.3,0,0.7,0,1,0.1c0.5,0,1,0.1,1.5,0.2c0.6,0.1,1.1,0.2,1.7,0.3
		C52.2,0.7,53,0.8,53.8,1c0.2,0,0.3,0.1,0.4,0.2c0,0,0.1,0,0.1,0c0.1,0,0.2,0,0.3,0.1c0.1,0,0.3,0.1,0.4,0.1c0.2,0,0.4,0.1,0.6,0.1
		c0.3,0.1,0.6,0.2,0.9,0.3c0.2,0.1,0.3,0.1,0.5,0.1c0.1,0,0.1,0,0.2,0.1c0.1,0.1,0.2,0.1,0.4,0.2c0.4,0.2,0.9,0.3,1.3,0.4
		c0.3,0.1,0.6,0.2,0.9,0.4c0.5,0.2,0.9,0.4,1.4,0.6c1.4,0.6,2.8,1.3,4.1,2c1.2,0.7,2.4,1.4,3.5,2.2c2.6,1.8,5,3.9,7.2,6.3
		c2.8,3,5.1,6.4,6.9,10.1c0.9,1.9,1.7,3.8,2.4,5.8c0.5,1.6,0.9,3.1,1.2,4.7c0.2,0.8,0.3,1.6,0.4,2.3c0.1,0.5,0.1,1,0.2,1.5
		c0.1,0.7,0.2,1.4,0.2,2.1c0,0.1,0,0.2,0,0.2c0,1.6,0,3.3,0,4.9c-0.1,0.1,0,0.2,0,0.2c0,0.7-0.1,1.3-0.2,2c-0.1,0.7-0.2,1.4-0.3,2.1
		c-0.2,1-0.4,2.1-0.6,3.1c-0.8,3.4-2,6.6-3.6,9.7c-2.4,4.6-5.4,8.6-9.2,12.1c-1.7,1.6-3.5,3-5.5,4.3c-3.5,2.3-7.3,4.1-11.3,5.4
		c-1.5,0.5-3,0.8-4.5,1.1c-0.8,0.1-1.6,0.3-2.4,0.4c-0.5,0.1-0.9,0.1-1.4,0.2c-0.4,0-0.8,0.1-1.2,0.1c-0.6,0.1-1.3,0.1-2,0.1
		c-1.2,0-2.5,0-3.7,0c-0.5,0-1-0.1-1.6-0.1c-0.7-0.1-1.5-0.2-2.2-0.3c-0.9-0.1-1.9-0.3-2.8-0.5c-1.9-0.4-3.7-0.9-5.6-1.5
		c-2.1-0.7-4.1-1.6-6.1-2.7c-0.2-0.1-0.5-0.2-0.7-0.1c0,0-0.1,0-0.1,0c-2.5,0.7-5,1.3-7.5,2c-2.6,0.7-5.2,1.4-7.8,2
		c-2.3,0.6-4.5,1.2-6.8,1.8c-0.1,0-0.1,0-0.2,0.1C0.2,87.4,0.2,87.4,0,87.3C0.1,87.3,0.1,87.3,0,87.3z M43.9,79.3c0.2,0,0.3,0,0.5,0
		c0.9,0,1.8-0.1,2.7-0.1c0.8-0.1,1.5-0.2,2.3-0.3c1.2-0.2,2.3-0.4,3.5-0.7c4-1,7.8-2.7,11.2-5c2.2-1.5,4.2-3.2,6-5.1
		c1.6-1.7,3.1-3.6,4.4-5.6c1.3-2,2.4-4.2,3.2-6.4c0.8-2.2,1.4-4.4,1.8-6.6c0.1-0.6,0.2-1.1,0.2-1.7c0.1-0.6,0.1-1.1,0.2-1.7
		c0-0.1,0-0.2,0-0.3c0.1-0.4,0-0.8,0.1-1.1c0-0.4,0-0.7,0-1.1c0-0.6,0-1.2,0-1.8c0-0.5,0-0.9-0.1-1.4c0-0.3,0-0.6-0.1-0.9
		c-0.1-0.6-0.1-1.2-0.2-1.7c-0.2-1.2-0.4-2.3-0.7-3.5c-0.4-1.7-1-3.3-1.7-4.9c-0.5-1.2-1-2.3-1.7-3.4c-0.3-0.4-0.5-0.9-0.8-1.3
		c-1.2-2-2.6-3.8-4.2-5.5c-0.3-0.4-0.7-0.7-1-1.1c-1.5-1.5-3.2-2.9-4.9-4.2c-1.6-1.1-3.3-2.1-5-3c-2.3-1.1-4.6-1.9-7-2.5
		c-1-0.2-2-0.5-3-0.6c-0.5-0.1-0.9-0.1-1.4-0.2c-0.5-0.1-1.1-0.1-1.6-0.2c-0.5,0-0.9-0.1-1.4-0.1c-0.7,0-1.4,0-2.1,0
		c-0.9,0-1.8,0.1-2.6,0.2c-0.7,0.1-1.4,0.1-2,0.2c-1.3,0.2-2.5,0.4-3.7,0.8c-4.4,1.2-8.5,3.1-12.2,5.8c-2.1,1.6-4.1,3.3-5.8,5.3
		c-1.9,2.2-3.6,4.6-4.9,7.2c-0.4,0.8-0.9,1.7-1.2,2.6c-0.4,1.1-0.9,2.2-1.2,3.3c-0.1,0.5-0.3,1-0.4,1.5c-0.4,1.3-0.6,2.7-0.8,4.1
		C8,38.9,8,39.7,7.9,40.4c-0.1,0.9-0.1,1.7-0.1,2.6c0,0.6,0,1.2,0,1.8c0,0.5,0,1,0.1,1.6c0,0.2,0,0.4,0.1,0.5C8,47.2,8,47.4,8,47.7
		c0,0.2,0.1,0.4,0.1,0.6c0,0.3,0.1,0.6,0.1,0.8c0,0.3,0.1,0.6,0.2,0.9c0.2,0.9,0.4,1.8,0.6,2.7c0.5,1.8,1.1,3.5,1.9,5.2
		c0.4,0.8,0.8,1.7,1.2,2.5c0.4,0.8,0.9,1.6,1.4,2.3c0.2,0.3,0.4,0.6,0.6,1c0.1,0.1,0.1,0.2,0,0.4c0,0.1,0,0.2-0.1,0.2
		c-0.4,1.4-0.8,2.8-1.1,4.1c-0.5,1.8-1,3.5-1.4,5.3c-0.1,0.5-0.3,0.9-0.4,1.4c-0.2,0.6-0.3,1.2-0.5,1.9c0,0.1,0,0.2,0.1,0.1
		c0,0,0.1,0,0.1,0c0.8-0.2,1.7-0.4,2.5-0.7c3.1-0.8,6.2-1.6,9.3-2.4c0.4-0.1,0.9-0.2,1.3-0.3c0.1,0,0.3,0,0.4,0c0,0,0.1,0.1,0.1,0.1
		c0.4,0.2,0.8,0.5,1.3,0.7c2.2,1.3,4.6,2.3,7.1,3.1c2.8,0.9,5.8,1.4,8.7,1.7C42.3,79.3,43.1,79.3,43.9,79.3z" />
		<path class="st0" d="M0,87.3C0.1,87.3,0.1,87.3,0,87.3C0.1,87.4,0,87.4,0,87.3C0,87.3,0,87.3,0,87.3z" />
		<path class="st0" d="M29.6,23.3c0.4,0,0.7,0,1.1,0c0.2,0,0.4,0,0.5,0.1c0.3,0.1,0.6,0.2,0.9,0.5c0.2,0.2,0.3,0.3,0.4,0.5
		c0.2,0.3,0.4,0.6,0.5,1c0.2,0.5,0.4,1,0.7,1.6c0.3,0.8,0.6,1.5,0.9,2.3c0.1,0.2,0.2,0.4,0.3,0.6c0.1,0.1,0.1,0.3,0.2,0.4
		c0.4,1.1,0.9,2.1,1.3,3.2c0.1,0.3,0.2,0.6,0.2,0.9c0,0.1,0,0.3,0,0.4c-0.2,0.8-0.6,1.5-1.1,2.1c-0.7,0.8-1.3,1.7-2.1,2.4
		c-0.3,0.3-0.4,0.6-0.5,0.9c0,0.1,0,0.1,0,0.2c0,0.3,0.2,0.6,0.3,0.8c0.2,0.3,0.3,0.5,0.5,0.8c0.2,0.4,0.5,0.8,0.7,1.1
		c0.5,0.8,1.1,1.5,1.7,2.2c1.3,1.6,2.7,3,4.3,4.3c1.9,1.5,3.9,2.7,6.1,3.7c0.6,0.3,1.3,0.6,1.9,0.8c0.2,0.1,0.3,0.1,0.5,0.2
		c0.4,0.1,0.7,0,1-0.2c0.2-0.1,0.3-0.3,0.5-0.4c0.3-0.3,0.6-0.6,0.8-1c0.5-0.6,1.1-1.3,1.6-1.9c0.3-0.3,0.5-0.6,0.7-1
		c0.2-0.2,0.3-0.4,0.5-0.6c0.1-0.1,0.2-0.2,0.3-0.3c0.3-0.2,0.6-0.3,1-0.2c0.3,0.1,0.7,0.1,1,0.3c0.4,0.2,0.9,0.4,1.3,0.6
		c2.4,1.1,4.7,2.3,7,3.4c0.3,0.1,0.5,0.3,0.7,0.4c0.3,0.2,0.5,0.5,0.5,0.9c0,0.5,0,1,0,1.4c0,0.1,0,0.2,0,0.3c0,0.1,0,0.2-0.1,0.3
		c0,0,0,0,0,0c-0.1,0.7-0.3,1.3-0.5,2c-0.2,0.9-0.8,1.7-1.4,2.4c-0.5,0.5-1.1,1-1.8,1.4c-0.9,0.6-1.9,1.1-2.9,1.5
		c-0.7,0.3-1.4,0.4-2.2,0.4c-0.2,0-0.5,0-0.7,0.1c-0.7,0.1-1.4,0-2.1,0c-1.2-0.1-2.3-0.4-3.4-0.7c-0.4-0.1-0.7-0.2-1.1-0.3
		c-0.2-0.1-0.4-0.1-0.7-0.2c-1.6-0.5-3.2-1.1-4.8-1.7c-2.1-0.8-4-1.9-5.9-3.2c-1.7-1.2-3.3-2.5-4.8-4c-0.5-0.5-1.1-1-1.6-1.6
		c-0.6-0.7-1.3-1.4-1.9-2.1c-0.5-0.6-0.9-1.1-1.4-1.7c-0.3-0.4-0.6-0.8-0.9-1.2c-0.9-1.3-1.8-2.5-2.7-3.8c-1.1-1.6-1.9-3.3-2.6-5.1
		c-0.3-0.9-0.5-1.8-0.7-2.7c-0.1-0.3-0.1-0.7-0.1-1.1c0-0.2-0.1-0.4,0-0.6c0-0.3,0-0.6,0-0.9c0-0.5,0.1-0.9,0.1-1.4
		c0.1-1,0.4-1.9,0.8-2.8c0.2-0.5,0.5-1.1,0.8-1.6c0.4-0.7,1-1.4,1.5-2c0.2-0.2,0.4-0.5,0.7-0.7c0.5-0.5,1.1-0.9,1.8-1.1
		c0.3-0.1,0.7-0.2,1-0.1C28.9,23.3,29.3,23.3,29.6,23.3C29.6,23.3,29.6,23.3,29.6,23.3z" />
	</g>
</svg>