<?xml version="1.0" encoding="UTF-8" standalone="no"?>
<svg
   xmlns:dc="http://purl.org/dc/elements/1.1/"
   xmlns:cc="http://creativecommons.org/ns#"
   xmlns:rdf="http://www.w3.org/1999/02/22-rdf-syntax-ns#"
   xmlns:svg="http://www.w3.org/2000/svg"
   xmlns="http://www.w3.org/2000/svg"
   xmlns:sodipodi="http://sodipodi.sourceforge.net/DTD/sodipodi-0.dtd"
   xmlns:inkscape="http://www.inkscape.org/namespaces/inkscape"
   version="1.1"
   x="0px"
   y="0px"
   viewBox="0 0 262.86297 306.45657"
   xml:space="preserve"
   id="svg53"
   sodipodi:docname="bmb-medical-logo.svg"
   width="262.86298"
   height="306.45657"
   inkscape:version="1.0.1 (3bc2e813f5, 2020-09-07)"><metadata
   id="metadata59"><rdf:RDF><cc:Work
       rdf:about=""><dc:format>image/svg+xml</dc:format><dc:type
         rdf:resource="http://purl.org/dc/dcmitype/StillImage" /><dc:title></dc:title></cc:Work></rdf:RDF></metadata><defs
   id="defs57" /><sodipodi:namedview
   pagecolor="#ffffff"
   bordercolor="#666666"
   borderopacity="1"
   objecttolerance="10"
   gridtolerance="10"
   guidetolerance="10"
   inkscape:pageopacity="0"
   inkscape:pageshadow="2"
   inkscape:window-width="820"
   inkscape:window-height="705"
   id="namedview55"
   showgrid="false"
   inkscape:zoom="0.8126741"
   inkscape:cx="223.45884"
   inkscape:cy="252.86926"
   inkscape:window-x="314"
   inkscape:window-y="0"
   inkscape:window-maximized="0"
   inkscape:current-layer="stuffs"
   inkscape:document-rotation="0" />
<style
   type="text/css"
   id="style2">
	.st0{fill:#FFFFFF;}
	.st1{opacity:0.1;}
	.st2{clip-path:url(#SVGID_2_);}
	.st3{clip-path:url(#SVGID_4_);}
	.st4{filter:url(#Adobe_OpacityMaskFilter);}
	.st5{clip-path:url(#SVGID_6_);}
	.st6{opacity:0.05;}
	.st7{clip-path:url(#SVGID_11_);}
	.st8{clip-path:url(#SVGID_13_);}
	.st9{opacity:0.66;fill:url(#SVGID_16_);}
	.st10{display:none;}
	.st11{display:inline;}
	.st12{display:inline;clip-path:url(#SVGID_18_);}
	.st13{fill:#EBF9FB;}
	.st14{fill:#3B3D40;}
	.st15{fill:#8D9298;}
	.st16{display:inline;fill:#FFFFFF;}
	.st17{display:inline;fill:#FBB032;}
	.st18{fill:none;stroke:#000000;stroke-miterlimit:10;}
	.st19{clip-path:url(#SVGID_20_);}
	.st20{fill:url(#SVGID_21_);}
	.st21{opacity:0.19;fill:#FFFFFF;stroke:#FFFFFF;stroke-width:2;stroke-miterlimit:10;}
	.st22{fill:none;stroke:#FFFFFF;stroke-width:2;stroke-miterlimit:10;}
	.st23{display:inline;fill:url(#SVGID_22_);}
	.st24{fill:#005CAB;}
	.st25{clip-path:url(#SVGID_24_);}
	.st26{clip-path:url(#SVGID_32_);}
	.st27{opacity:0.82;fill:#2A224C;}
	.st28{clip-path:url(#SVGID_34_);}
	.st29{clip-path:url(#SVGID_36_);}
	.st30{fill:#757575;}
	.st31{display:inline;opacity:0.3;}
	.st32{clip-path:url(#SVGID_38_);}
	.st33{fill:none;stroke:#FFFFFF;stroke-width:3;stroke-miterlimit:10;}
	.st34{fill:#009BD5;}
	.st35{fill:url(#SVGID_39_);}
	.st36{clip-path:url(#SVGID_41_);}
	.st37{opacity:0.47;}
	.st38{fill:url(#SVGID_42_);}
	.st39{fill:url(#SVGID_43_);}
	.st40{fill:none;stroke:url(#SVGID_44_);stroke-width:7;stroke-miterlimit:10;stroke-dasharray:12.0209,12.0209;}
	.st41{fill:url(#SVGID_45_);}
	.st42{fill:url(#SVGID_46_);}
	.st43{fill:none;stroke:url(#SVGID_47_);stroke-width:7;stroke-miterlimit:10;stroke-dasharray:12.0209,12.0209;}
	.st44{fill:#392862;}
	.st45{display:none;fill:#44FAB5;}
	.st46{display:inline;fill:none;stroke:#FFFFFF;stroke-miterlimit:10;}
	.st47{fill:none;stroke:#FFFFFF;stroke-miterlimit:10;}
	.st48{display:none;opacity:0.5;}
	.st49{opacity:0.56;}
	.st50{fill:none;stroke:#FFFFFF;stroke-width:4;stroke-linecap:round;stroke-linejoin:round;stroke-miterlimit:10;}
	.st51{display:none;fill:none;stroke:#00AEEE;stroke-miterlimit:10;}
	.st52{fill:none;stroke:#FFFFFF;stroke-width:4;stroke-miterlimit:10;}
	.st53{display:none;fill:none;stroke:#3B3D40;stroke-width:4;stroke-miterlimit:10;}
	.st54{fill:none;stroke:#3B3D40;stroke-width:4;stroke-miterlimit:10;}
	.st55{fill:#2A224C;}
	.st56{fill:#028FBA;}
	.st57{fill:#493782;}
	.st58{fill:#03B2E8;}
	.st59{fill:#51459B;}
	.st60{fill:#00CFFF;}
	.st61{opacity:0.51;}
	.st62{fill:#78B2E4;}
	.st63{fill:#4784C8;}
	.st64{fill:#FDFDFE;}
	.st65{fill:#FDFDFE;stroke:#000000;stroke-miterlimit:10;}
	.st66{fill:#FDFDFD;}
	.st67{fill:#3CC102;}
</style>
<g
   id="Camada_9"
   transform="translate(-87.318394,-29.793261)">
</g>
<g
   id="Camada_14"
   transform="translate(-87.318394,-29.793261)">
</g>
<g
   id="Rodapé"
   transform="translate(-87.318394,-29.793261)">
</g>
<g
   id="newsletter_1_"
   transform="translate(-87.318394,-29.793261)">
</g>
<g
   id="faça_sua_cotaçao"
   class="st10"
   transform="translate(-87.318394,-29.793261)">
</g>
<g
   id="Somos_representantes"
   transform="translate(-87.318394,-29.793261)">
</g>
<g
   id="Consumiveis_hosp"
   transform="translate(-87.318394,-29.793261)">
</g>
<g
   id="BW_hospitalar"
   transform="translate(-87.318394,-29.793261)">
</g>
<g
   id="qualidade_dos_equi"
   transform="translate(-87.318394,-29.793261)">
</g>
<g
   id="Banners"
   transform="translate(-87.318394,-29.793261)">
</g>
<g
   id="menu"
   transform="translate(-87.318394,-29.793261)">
	<g
   id="Background">
	</g>
	<g
   id="barra_menu_1_">
	</g>
	<g
   id="cabeçario">
	</g>
</g>
<g
   id="stuffs"
   transform="translate(-87.318394,-29.793261)">
	<path
   class="st62"
   d="m 262.05978,29.803261 c 0.04,24.16 0.03,48.32 0.17,72.479999 0.02,2.97 -0.97,3.81 -3.9,4.23 -16.76,2.41 -33.58,4.07 -50.49,4.86 -5.64,0.26 -11.28,0.49 -16.9,0.94 -2.81,0.22 -3.77,-0.67 -3.8,-3.54 -0.11,-12.889999 -0.97,-25.739999 -1.8,-38.599999 -0.87,-13.52 -2.04,-26.99 -4.13,-40.38 26.95,0.01 53.9,0.01 80.85,0.01 z"
   id="path18" />
	<path
   class="st63"
   d="m 169.58383,246.93705 c 0.0254,12.53315 0.006,25.06631 0.11178,37.5944 0.0254,2.75973 -1.86526,1.71783 -3.13077,1.82456 -1.2706,0.1068 -2.63775,0.4625 -2.60725,-1.82964 0.11686,-9.82934 0.051,-19.65869 0.051,-30.25545 -2.21085,5.45849 -4.14216,10.24101 -6.08363,15.01844 -2.05836,5.05697 -4.20313,10.08346 -6.13952,15.19127 -0.64038,1.69243 -1.63653,1.98721 -3.23746,1.95672 -1.61113,-0.0304 -2.72418,-0.13215 -3.46621,-1.9923 -3.7203,-9.36684 -7.63882,-18.66253 -11.4862,-27.98362 -0.21343,-0.51333 -0.42181,-1.02665 -0.96564,-1.46881 0,3.21714 0,6.43939 0,9.65653 0,6.47496 -0.0457,12.95499 0.0304,19.42996 0.0205,1.63146 -0.24395,2.43448 -2.16,2.35315 -4.34545,-0.18298 -3.57802,0.35068 -3.58308,-3.6644 -0.0153,-11.94361 0.0355,-23.88723 0.061,-35.83081 2.87665,0 5.74819,0 8.62481,0 2.9173,8.21312 6.63761,16.10606 9.89034,24.18199 0.93515,2.32772 1.9313,4.63003 3.00369,7.19665 3.80161,-9.29061 7.47112,-18.2051 11.08978,-27.14502 0.55396,-1.37225 1.51453,-2.63268 1.37731,-4.23872 2.87155,0.006 5.7431,0.006 8.61973,0.006 z"
   id="path20"
   style="stroke-width:0.508237" />
	<path
   class="st63"
   d="m 199.51401,246.93705 c 1.16386,0.87924 2.65809,0.78269 3.9541,1.32649 3.32896,1.40273 5.33649,3.73556 5.61605,7.3847 0.29477,3.84738 -1.06223,6.90188 -4.46743,8.92468 -0.48284,0.28461 -0.99107,0.53366 -1.48914,0.79792 0.39134,0.73696 1.06223,0.65056 1.59585,0.84877 3.89314,1.44339 6.35299,3.99983 6.60204,8.31989 0.24904,4.32 -1.28076,7.6998 -5.16879,9.84963 -2.80548,1.55014 -5.87015,2.00247 -9.02632,2.00247 -4.80794,0 -9.62605,-0.11177 -14.4289,0.051 -2.18034,0.0762 -2.87154,-0.45234 -2.84614,-2.74447 0.12705,-11.33373 0.061,-22.67253 0.051,-34.01135 0,-0.91482 -0.11687,-1.82965 -0.1779,-2.74956 6.59693,0 13.18879,0 19.78572,0 z m -7.05943,21.20879 c -1.51964,0 -3.04436,0.0355 -4.56397,-0.0153 -1.05206,-0.0356 -1.52472,0.31512 -1.50949,1.43324 0.0457,3.61357 0.0355,7.23224 0.006,10.84582 -0.006,0.93515 0.31511,1.40272 1.31127,1.36207 3.95918,-0.16262 7.94885,0.41168 11.87246,-0.4879 3.37977,-0.77762 5.3619,-3.11552 5.43813,-6.37332 0.0712,-2.95795 -1.96686,-5.35176 -5.25008,-6.2615 -2.40907,-0.66578 -4.85877,-0.47266 -7.3034,-0.50316 z m -6.05311,-10.40874 c 0,1.50948 0.0101,3.01894 -0.006,4.53348 -0.006,0.74711 0.13215,1.3621 1.07239,1.31636 3.6898,-0.16265 7.44062,0.54888 11.06435,-0.54383 2.90713,-0.87924 4.27938,-3.085 4.04559,-6.16493 -0.19821,-2.65301 -1.71785,-4.25395 -4.63005,-4.86386 -1.82967,-0.38624 -3.68474,-0.34559 -5.53981,-0.3405 -6.01247,0.006 -6.01247,0 -6.00739,6.06328 z"
   id="path22"
   style="stroke-width:0.508237" />
	<path
   class="st63"
   d="m 107.1874,246.93705 c 0.803,0.88941 1.99228,0.67593 2.98843,1.01646 4.11165,1.41289 6.35805,3.97443 6.53085,8.04542 0.16773,3.93885 -1.42306,7.01876 -5.07221,8.85353 -0.35578,0.17785 -0.71151,0.34558 -1.08762,0.52347 0.55397,0.76235 1.40272,0.68612 2.08885,0.96058 3.66947,1.48404 5.98705,3.98459 6.2615,8.07082 0.2897,4.31495 -1.18421,7.7354 -5.09762,9.91574 -2.72924,1.51963 -5.69228,2.04821 -8.7722,2.05837 -5.072226,0.0101 -10.144445,-0.0864 -15.206506,0.051 -1.936387,0.051 -2.393803,-0.55908 -2.383638,-2.41923 0.0559,-12.36037 -0.005,-24.72074 -0.03048,-37.08109 6.591857,0.006 13.183694,0.006 19.780654,0.006 z m -13.188801,27.70408 c 0,2.17017 0.02032,3.93884 -0.0102,5.70242 -0.01524,0.85894 0.106725,1.47897 1.204525,1.43323 4.040506,-0.1677 8.111476,0.42695 12.111326,-0.52347 3.30355,-0.7827 5.08238,-2.98845 5.13321,-6.26659 0.051,-3.12058 -1.63653,-5.33649 -4.81302,-6.26148 -2.21592,-0.6455 -4.50301,-0.6455 -6.78498,-0.5794 -2.180343,0.061 -5.077308,-0.6963 -6.347905,0.40659 -1.499305,1.29601 -0.259202,4.26411 -0.492991,6.0887 z m 0,-17.13273 c 0,1.59587 -0.005,3.19173 0.005,4.7876 0.005,0.58447 -0.04574,1.29601 0.813181,1.26552 3.938842,-0.15246 7.959,0.69629 11.79622,-0.71662 2.55644,-0.94025 3.84737,-3.25272 3.58814,-6.02262 -0.22869,-2.48022 -1.81439,-4.19805 -4.47757,-4.78253 -1.90588,-0.41676 -3.85244,-0.3761 -5.793928,-0.37102 -5.931126,0.0101 -5.931126,0.006 -5.931126,5.83967 z"
   id="path24"
   style="stroke-width:0.508237" />
	<path
   class="st64"
   d="m 160.95903,246.93705 c 0.13726,1.60094 -0.82333,2.86645 -1.37732,4.23869 -3.61866,8.93485 -7.28815,17.84934 -11.08977,27.14504 -1.07239,-2.56663 -2.06346,-4.86893 -3.00369,-7.19667 -3.25274,-8.081 -6.97304,-15.96886 -9.89034,-24.18199 8.45204,-0.006 16.90401,-0.006 25.36112,-0.006 z"
   id="path26"
   style="stroke-width:0.508237" />
	<path
   class="st62"
   d="m 350.17627,335.79239 c -7.51177,-0.0153 -15.01845,-0.0914 -22.53022,-0.006 -1.88556,0.0205 -2.43953,-0.50314 -2.42428,-2.40396 0.0864,-11.67425 0.0864,-23.34847 0,-35.01763 -0.0153,-1.94149 0.62003,-2.60729 2.45985,-2.34808 0.41169,0.0559 0.84877,0.061 1.26551,0 2.17529,-0.3151 2.93256,0.48791 2.90714,2.76483 -0.12197,9.4888 0.0559,18.98271 -0.12197,28.46645 -0.051,2.64284 0.76746,3.26288 3.26799,3.15615 5.05189,-0.21853 10.11903,-0.13214 15.18108,-0.16772 -0.006,1.85507 -0.006,3.70507 -0.006,5.55505 z"
   id="path28"
   style="stroke-width:0.508237" />
	<path
   class="st62"
   d="m 87.589784,30.873261 c -0.07,-0.35 -0.14,-0.71 -0.21,-1.07 24.289996,0 48.579996,0 72.859996,0 -0.07,0.36 -0.14,0.71 -0.21,1.07 -24.14,0 -48.29,0 -72.439996,0 z"
   id="path30" />
	<path
   class="st63"
   d="m 87.589784,30.873261 c 24.149996,0 48.299996,0 72.439996,0 3.44,22.07 4.86,44.32 5.58,66.62 0.13,4.119999 0.26,8.249999 0.5,12.369999 0.13,2.25 -0.58,3.33 -3.06,3.27 -24.23,-0.57 -48.48,-0.76 -72.499996,-4.61 -2.11,-0.34 -3.23,-0.77 -3.22,-3.24 0.16,-24.799999 0.19,-49.609999 0.26,-74.409999 z"
   id="path32" />
	<path
   class="st63"
   d="m 221.75978,204.49326 c -11.96,0 -23.92,-0.05 -35.88,0.04 -2.87,0.02 -4.5,0.04 -3.81,-3.92 3.68,-21.04 4.78,-42.32 5.05,-63.63 0.04,-3.25 1.26,-3.71 4.08,-3.81 22.72,-0.84 45.41,-2.29 67.91,-5.67 2.62,-0.39 3.12,0.56 3.12,2.85 -0.05,23.64 -0.08,47.29 0.03,70.93 0.02,3.3 -1.77,3.25 -4.11,3.24 -12.13,-0.06 -24.26,-0.03 -36.39,-0.03 z"
   id="path34" />
	<path
   class="st62"
   d="m 87.379784,166.59326 c 0,-11.07 0.07,-22.15 -0.04,-33.22 -0.03,-3.11 0.36,-4.11 4.12,-3.59 16.099996,2.21 32.289996,3.36 48.559996,3.66 7.62,0.14 15.23,0.69 22.86,0.52 2.63,-0.06 3.43,0.91 3.39,3.47 -0.4,21.13 -1.79,42.18 -5.21,63.06 -0.45,2.74 -1.51,4.16 -4.83,4.13 -21.59,-0.17 -43.18,-0.15 -64.769996,-0.02 -3.37,0.02 -4.18,-1.13 -4.14,-4.3 0.16,-11.23 0.06,-22.47 0.06,-33.71 z"
   id="path36" />
	<path
   class="st62"
   d="m 93.495441,304.55605 c 0,9.50406 -0.121977,19.0132 0.07623,28.51219 0.0559,2.70382 -1.174032,2.68859 -3.145998,2.72415 -2.002462,0.0408 -3.00369,-0.19312 -2.973198,-2.65809 0.14739,-11.44044 0.121981,-22.88598 0.01525,-34.32644 -0.02032,-2.24642 0.66071,-2.9122 2.881714,-2.83087 7.283061,0.27952 5.199282,-1.18422 8.050505,5.41273 3.664386,8.47236 7.125496,17.026 10.871206,26.01165 2.28199,-5.54995 4.39117,-10.68826 6.49527,-15.82654 1.88051,-4.5894 3.80164,-9.16355 5.61098,-13.77836 0.51332,-1.30617 1.25533,-1.76358 2.63775,-1.80932 6.51055,-0.20838 6.51055,-0.24395 6.51055,6.10904 0,10.34773 -0.061,20.70055 0.051,31.04828 0.0254,2.12952 -0.59973,2.75974 -2.69875,2.64792 -1.82966,-0.0967 -3.10533,0.0354 -3.05959,-2.5666 0.16771,-9.73277 0.0661,-19.46555 0.0661,-29.86919 -2.85121,7.02894 -5.4534,13.45308 -8.06574,19.87214 -1.42818,3.50177 -2.95796,6.96795 -4.2743,10.51038 -0.55397,1.49929 -1.30108,2.08886 -2.92745,2.0482 -1.70261,-0.0408 -2.93761,-0.11176 -3.71523,-2.06852 -3.71013,-9.28554 -7.593069,-18.50499 -11.415022,-27.74986 -0.213461,-0.5133 -0.411674,-1.0368 -0.620051,-1.5552 -0.127065,0.0559 -0.249038,0.0967 -0.371014,0.14231 z"
   id="path38"
   style="stroke-width:0.508237" />
	<path
   class="st62"
   d="m 142.30159,315.84911 c 0,-5.80408 0.061,-11.60818 -0.0355,-17.40716 -0.0305,-1.88051 0.59466,-2.47514 2.47513,-2.4548 7.68966,0.0864 15.37932,0.13215 23.06897,-0.0254 2.3582,-0.0458 2.27689,1.11812 2.32264,2.76481 0.051,1.79411 -0.20837,2.73433 -2.41922,2.67335 -5.57028,-0.16264 -11.15076,0.006 -16.73122,-0.0864 -1.6721,-0.0254 -2.24641,0.49809 -2.17525,2.15493 0.10666,2.5158 0.12704,5.05189 -0.006,7.56768 -0.0915,1.75342 0.64547,2.09394 2.22102,2.06853 5.06713,-0.0814 10.14445,0.0762 15.20649,-0.0814 2.13968,-0.0661 2.24135,0.92499 2.26674,2.57167 0.0254,1.72802 -0.24394,2.59202 -2.31755,2.53103 -5.06713,-0.1474 -10.13937,0.0154 -15.20651,-0.0814 -1.66703,-0.0304 -2.23624,0.47774 -2.16509,2.13967 0.11176,2.6886 0.12706,5.38735 0,8.07085 -0.0864,1.84997 0.5184,2.51068 2.43446,2.47513 5.82949,-0.10172 11.66407,0.0609 17.48849,-0.0914 2.1346,-0.0559 2.45479,0.76236 2.49545,2.61743 0.0458,2.00245 -0.57431,2.56154 -2.57677,2.53611 -8.02508,-0.11176 -16.05526,-0.0915 -24.08035,-0.0101 -1.76359,0.0203 -2.33282,-0.493 -2.30232,-2.27184 0.1017,-5.88539 0.0354,-11.77081 0.0354,-17.6613 z"
   id="path40"
   style="stroke-width:0.508237" />
	<path
   class="st62"
   d="m 299.79459,296.19043 c 2.96303,-0.85383 4.08623,0.46759 5.02139,3.05962 4.09132,11.29812 8.44691,22.49463 12.69071,33.73687 1.03174,2.73434 0.97584,2.53104 -1.84998,2.82582 -2.89695,0.29985 -4.34544,-0.7268 -4.99091,-3.51194 -0.45233,-1.95165 -1.42307,-3.77622 -1.99229,-5.70752 -0.41675,-1.42308 -1.07747,-2.03297 -2.66316,-1.99229 -4.13707,0.11176 -8.28431,0.0762 -12.42645,0.0153 -1.28585,-0.0203 -2.00245,0.36084 -2.38872,1.66194 -0.57431,1.92621 -1.38241,3.78638 -2.06854,5.68211 -1.37731,3.80671 -1.37731,3.6898 -5.45847,3.82705 -2.25659,0.0762 -2.44971,-0.53875 -1.69752,-2.49039 4.33527,-11.20665 8.60956,-22.43365 12.79238,-33.7013 0.9504,-2.54629 1.87537,-4.63513 5.03156,-3.40521 z m 0.39641,5.92608 c -0.20328,0 -0.40659,0 -0.60988,0 -1.92623,5.36193 -3.83719,10.734 -5.79899,16.08067 -0.41169,1.11304 -0.18297,1.50946 1.02663,1.49929 3.2934,-0.0407 6.58678,-0.0304 9.88016,-0.006 1.1232,0.0101 1.5857,-0.3761 1.1791,-1.50948 -1.89064,-5.35681 -3.78129,-10.70859 -5.67702,-16.06543 z"
   id="path42"
   style="stroke-width:0.508237" />
	<path
   class="st62"
   d="m 260.62462,336.24982 c -10.52054,-0.0204 -17.44783,-6.38348 -18.58629,-16.77698 -0.4015,-3.65423 -0.23887,-7.19157 0.57939,-10.72891 2.37349,-10.2969 10.68319,-13.69703 19.64344,-13.07698 5.63127,0.38626 10.20035,2.67333 13.2447,7.62867 1.0673,1.74324 0.80301,2.5412 -1.18928,3.27304 -2.19053,0.80303 -3.53735,1.00632 -5.00616,-1.4434 -3.86769,-6.42921 -16.30936,-5.80406 -19.32321,1.86526 -2.3125,5.87523 -2.35823,11.79621 0.1982,17.62063 3.44077,7.82686 15.0896,8.91449 19.93311,1.36716 0.59462,-0.92501 0.86401,-2.63775 2.13969,-2.47512 1.52979,0.19312 3.05451,1.00123 4.40642,1.8195 1.06731,0.64544 0.0559,1.51963 -0.30494,2.16001 -3.32895,5.83965 -8.64513,8.77728 -15.73507,8.76712 z"
   id="path44"
   style="stroke-width:0.508237" />
	<path
   class="st62"
   d="m 190.12685,330.35425 c 1.77374,0 3.55259,0.006 5.32633,0 7.80148,-0.0153 12.69071,-4.26922 13.6208,-12.02493 0.2287,-1.9059 0.24903,-3.89312 -0.0406,-5.78377 -1.04697,-6.88154 -5.56522,-10.85597 -12.6094,-11.09992 -4.55892,-0.15755 -9.12797,-0.18805 -13.68688,-0.0458 -2.26674,0.0712 -2.41412,-1.0419 -2.41412,-2.78515 0,-1.67211 0.20836,-2.69874 2.3074,-2.62759 5.47879,0.18805 10.97793,-0.2338 16.44659,0.43708 12.33496,1.51962 17.59524,10.39349 16.4466,21.79327 -0.83858,8.32495 -4.874,14.41873 -13.42256,16.69564 -1.85508,0.493 -3.82198,0.74204 -5.74311,0.78779 -4.56399,0.11175 -9.13304,-0.0661 -13.69195,0.0864 -2.02279,0.066 -2.40906,-0.71661 -2.34807,-2.49547 0.061,-1.74324 -0.0304,-3.18155 2.47006,-2.98334 2.42429,0.19313 4.88417,0.0457 7.33895,0.0457 z"
   id="path46"
   style="stroke-width:0.508237" />
	<path
   class="st62"
   d="m 225.43419,316.10322 c 0,-5.80408 0.0864,-11.61326 -0.0458,-17.41732 -0.0458,-2.12446 0.65565,-2.93256 2.7445,-2.67843 0.7471,0.0914 1.52471,0.061 2.28198,0.0101 1.23501,-0.0814 1.59079,0.49807 1.5857,1.65687 -0.0254,12.1164 -0.0305,24.23282 0.006,36.34921 0.006,1.32143 -0.46248,1.69753 -1.76358,1.75344 -4.80792,0.1982 -4.80792,0.24395 -4.80792,-4.52841 0,-5.0468 0,-10.0987 0,-15.14554 z"
   id="path48"
   style="stroke-width:0.508237" />
	<path
   class="st62"
   d="m 186.88429,316.19472 c 0,3.6085 -0.0712,7.22207 0.0305,10.83054 0.0458,1.61114 -0.4015,2.23627 -2.11429,2.19052 -5.40763,-0.15246 -4.39116,0.57431 -4.44199,-4.3556 -0.0661,-6.46479 0.051,-12.92959 -0.0559,-19.39437 -0.0305,-1.92623 0.43709,-2.89698 2.5107,-2.54121 0.0814,0.0153 0.1677,0 0.25411,0 4.39628,0.0559 3.76606,-0.48792 3.80671,3.69998 0.0408,3.18665 0.0101,6.3784 0.0101,9.57014 z"
   id="path50"
   style="stroke-width:0.508237" />
</g>
</svg>
