<?xml version="1.0" encoding="UTF-8" standalone="no"?>
<svg
   xmlns:dc="http://purl.org/dc/elements/1.1/"
   xmlns:cc="http://creativecommons.org/ns#"
   xmlns:rdf="http://www.w3.org/1999/02/22-rdf-syntax-ns#"
   xmlns:svg="http://www.w3.org/2000/svg"
   xmlns="http://www.w3.org/2000/svg"
   xmlns:sodipodi="http://sodipodi.sourceforge.net/DTD/sodipodi-0.dtd"
   xmlns:inkscape="http://www.inkscape.org/namespaces/inkscape"
   version="1.1"
   id="Camada_1"
   x="0px"
   y="0px"
   viewBox="0 0 268.81385 126.16999"
   xml:space="preserve"
   sodipodi:docname="Logo-20.svg"
   width="268.81384"
   height="126.17"
   inkscape:version="1.0.1 (3bc2e813f5, 2020-09-07)"><metadata
   id="metadata47"><rdf:RDF><cc:Work
       rdf:about=""><dc:format>image/svg+xml</dc:format><dc:type
         rdf:resource="http://purl.org/dc/dcmitype/StillImage" /></cc:Work></rdf:RDF></metadata><defs
   id="defs45" /><sodipodi:namedview
   pagecolor="#ffffff"
   bordercolor="#666666"
   borderopacity="1"
   objecttolerance="10"
   gridtolerance="10"
   guidetolerance="10"
   inkscape:pageopacity="0"
   inkscape:pageshadow="2"
   inkscape:window-width="1366"
   inkscape:window-height="705"
   id="namedview43"
   showgrid="false"
   inkscape:zoom="4.264426"
   inkscape:cx="134.40885"
   inkscape:cy="63.080002"
   inkscape:window-x="-8"
   inkscape:window-y="-8"
   inkscape:window-maximized="1"
   inkscape:current-layer="g10" />
<style
   type="text/css"
   id="style2">
	.st0{fill:#FFFFFF;}
	.st1{opacity:0.1;}
	.st2{clip-path:url(#SVGID_2_);}
	.st3{opacity:0.05;}
	.st4{clip-path:url(#SVGID_6_);}
	.st5{opacity:0.66;fill:url(#SVGID_9_);}
	.st6{clip-path:url(#SVGID_11_);}
	.st7{fill:url(#SVGID_12_);}
	.st8{clip-path:url(#SVGID_14_);}
	.st9{opacity:0.82;fill:#2A224C;}
	.st10{clip-path:url(#SVGID_16_);}
	.st11{fill:url(#SVGID_17_);}
	.st12{fill:#009BD5;}
	.st13{fill:#392862;}
	.st14{fill:#757575;}
	.st15{clip-path:url(#SVGID_19_);}
</style>
<g
   id="g40"
   transform="translate(0.00385353)">
	<g
   id="g10">
		<path
   class="st12"
   d="m 138.92,78.46 c -0.13,-1.43 -0.58,-2.78 -1.38,-3.97 -1.53,-2.26 -2.95,-4.58 -4.14,-7.04 -2.5,-5.13 -4.34,-10.47 -5.25,-16.12 -1.35,-8.41 -0.41,-16.46 3.77,-24 2.54,-4.59 6.02,-8.36 10.2,-11.51 0.13,-0.1 0.26,-0.21 0.39,-0.32 0.02,-0.02 0.02,-0.07 0.04,-0.16 -1.65,0.43 -3.24,0.98 -4.65,1.88 -2.37,1.51 -4.66,3.13 -6.99,4.71 -1.23,0.84 -2.45,1.7 -3.7,2.5 -0.45,0.29 -0.98,0.51 -1.5,0.61 -1.49,0.28 -2.69,-0.41 -3.27,-1.82 -0.55,-1.35 -0.5,-2.77 -0.32,-4.16 0.55,-4.24 2.43,-7.99 4.55,-11.62 0.13,-0.22 0.26,-0.43 0.38,-0.65 0.99,-1.89 2.56,-2.61 4.65,-2.37 5.35,0.62 10.5,1.92 15.34,4.33 7.69,3.83 13.32,9.73 17.32,17.26 2.23,4.2 3.77,8.63 4.44,13.34 1.01,7.09 -0.07,13.9 -2.8,20.48 -1.33,3.21 -2.95,6.26 -4.98,9.08 -1.14,1.59 -1.55,1.65 -3.16,0.54 -3.56,-2.46 -7.02,-5.05 -10.11,-8.11 -2.42,-2.4 -4.56,-5.04 -6.46,-7.87 -1.58,-2.35 -3.13,-4.72 -4.69,-7.08 -0.08,-0.12 -0.16,-0.23 -0.35,-0.29 0.25,0.75 0.51,1.49 0.76,2.24 2.32,6.96 6.32,12.88 11.27,18.21 2.24,2.41 4.66,4.6 7.52,6.27 0.78,0.46 0.86,0.86 0.26,1.49 -0.74,0.77 -1.51,1.52 -2.34,2.19 -1.06,0.86 -1.95,0.87 -2.92,-0.1 -1.45,-1.45 -2.84,-2.98 -4.17,-4.54 -3.27,-3.81 -6.28,-7.82 -8.72,-12.23 -2.03,-3.67 -3.87,-7.43 -4.79,-11.57 -0.76,-3.4 -1.28,-6.84 -1.23,-10.34 0.03,-2.02 0.01,-4.03 -0.14,-6.08 -0.33,1.16 -0.71,2.32 -0.99,3.49 -1.35,5.49 -0.73,10.9 0.67,16.28 2.68,10.29 7.87,19.13 15.46,26.58 0.36,0.35 0.72,0.71 1.03,1.1 0.42,0.55 0.36,0.95 -0.24,1.3 -0.69,0.4 -1.42,0.72 -2.15,1.04 -4.3,1.85 -8.79,3.02 -13.45,3.47 -4.48,0.43 -8.93,0.15 -13.32,-0.86 -1.84,-0.42 -2.13,-0.96 -1.47,-2.7 1.35,-3.53 2.44,-7.14 2.94,-10.89 0.3,-2.21 0.25,-4.48 0.32,-6.72 0.04,-1.57 0.02,-3.15 0.01,-4.72 0,-0.4 -0.1,-0.8 -0.05,-1.19 0.03,-0.26 0.23,-0.51 0.35,-0.76 0.24,0.15 0.58,0.23 0.7,0.45 3.62,6.25 7.76,12.12 12.83,17.29 1.35,1.38 2.95,2.53 4.43,3.78 0.01,-0.03 0.06,-0.08 0.1,-0.12 z M 124.24,17.55 c 0.12,0.36 0.25,1.08 0.58,1.68 1.14,2.06 3.52,2.49 5.23,0.91 0.77,-0.72 1.41,-1.6 1.98,-2.49 0.57,-0.89 0.69,-1.9 0.47,-2.97 -0.37,-1.85 -1.91,-3.07 -3.7,-2.83 -1,0.13 -1.79,0.71 -2.49,1.38 -1.11,1.09 -1.99,2.32 -2.07,4.32 z"
   id="path4" />
		<path
   class="st13"
   d="m 119.91,8.51 c -0.29,0.55 -0.58,1.1 -0.86,1.65 -3.67,7.06 -5.63,14.55 -5.87,22.51 -0.14,4.63 0.27,9.23 0.57,13.83 0.34,5.17 0.92,10.34 0.98,15.51 0.13,10.65 -2.06,20.76 -7.94,29.84 -1.26,1.95 -2.71,3.79 -4.08,5.67 -0.25,0.35 -0.53,0.69 -0.79,1.03 -0.08,-0.07 -0.17,-0.14 -0.25,-0.21 0.22,-0.56 0.44,-1.12 0.68,-1.67 2.91,-6.79 4.78,-13.87 5.78,-21.18 0.77,-5.63 0.92,-11.29 0.69,-16.96 -0.16,-4.05 -0.36,-8.09 -0.41,-12.14 -0.05,-3.73 -0.07,-7.47 0.15,-11.2 0.34,-5.8 1.93,-11.31 4.44,-16.55 1.43,-2.98 3.13,-5.79 5.12,-8.44 0.49,-0.65 1.07,-1.22 1.61,-1.83 0.06,0.06 0.12,0.1 0.18,0.14 z"
   id="path6" />
		<path
   class="st13"
   d="m 119.59,0 c -1.41,1.95 -2.81,3.86 -4.18,5.78 -5.15,7.22 -8.19,15.3 -9.78,23.97 -0.71,3.87 -0.98,7.78 -0.97,11.71 0.01,6.41 0.47,12.78 1.56,19.11 0.25,1.45 0.42,2.91 0.6,4.36 0.03,0.24 -0.03,0.49 -0.14,0.76 -0.12,-0.25 -0.25,-0.51 -0.36,-0.76 -2.52,-5.76 -4.65,-11.64 -5.78,-17.85 -2.2,-12.05 -0.49,-23.38 6.32,-33.75 3.39,-5.16 7.7,-9.46 12.53,-13.26 0.05,-0.03 0.11,-0.04 0.2,-0.07 z"
   id="path8" />
	</g>
	<g
   id="g38">
		<path
   class="st13"
   d="m 112.32,126.13 c -0.46,0 -0.92,0 -1.39,0 m 0.01,0 c -1.16,-0.11 -2.33,-0.35 -3.43,-0.7 -5.45,-1.74 -8.98,-6.81 -8.75,-12.46 0.23,-5.69 4.3,-10.59 9.89,-11.9 7.49,-1.75 14.79,3.33 15.73,10.96 0.82,6.57 -3.9,12.82 -10.45,13.84 -0.53,0.08 -1.06,0.21 -1.6,0.25 m -9.62,-12.73 c -0.01,4.89 3.96,8.95 8.77,8.96 5,0.01 9.02,-3.95 9.04,-8.89 0.02,-5.01 -3.85,-8.99 -8.75,-9 -5.19,-0.02 -9.05,3.79 -9.06,8.93 z"
   id="path12" />
		<path
   class="st13"
   d="m 0.03,112.77 c 0.13,-1.2 0.38,-2.42 0.79,-3.54 1.66,-4.51 4.87,-7.38 9.6,-8.25 4.91,-0.91 9.06,0.65 12.35,4.44 0.07,0.08 0.13,0.16 0.19,0.25 0.02,0.03 0.04,0.07 0.09,0.16 -0.91,0.86 -1.84,1.74 -2.79,2.64 -1.05,-1.52 -2.37,-2.67 -4.04,-3.37 -5.13,-2.15 -10.94,0.97 -12.02,6.45 -0.92,4.66 1.97,9.37 6.49,10.61 3.86,1.06 8.25,-1.51 9.1,-5.32 0.02,-0.08 0.02,-0.16 0.04,-0.34 -2,0 -3.98,0 -6,0 0,-1.26 0,-2.42 0,-3.64 3.41,0 6.82,0 10.28,0 0.14,2.21 -0.05,4.35 -0.95,6.36 -1.8,4.05 -4.95,6.28 -9.34,6.79 -0.23,0.03 -0.45,0.08 -0.67,0.12 -0.42,0 -0.84,0 -1.26,0 -0.16,-0.04 -0.32,-0.09 -0.49,-0.11 -5.43,-0.59 -9.76,-4.44 -10.99,-9.77 -0.16,-0.69 -0.31,-1.39 -0.38,-2.09 -0.04,-0.46 -0.05,-0.93 0,-1.39 z"
   id="path14" />
		<path
   class="st13"
   d="m 134.63,126.13 c -1.05,-0.16 -2.1,-0.47 -3.03,-0.95 -2.59,-1.34 -3.88,-3.59 -4.21,-6.53 1.35,-0.28 2.65,-0.56 3.97,-0.83 0.05,0.53 0.05,1.02 0.14,1.48 0.43,2.16 2.81,3.54 5.01,2.91 2.04,-0.58 3.38,-3.06 2.58,-5.02 -0.27,-0.67 -0.84,-1.34 -1.45,-1.74 -0.97,-0.64 -2.1,-1.04 -3.15,-1.56 -1.11,-0.55 -2.26,-1.03 -3.29,-1.7 -3.86,-2.5 -3.41,-7.75 0.04,-10.08 3.01,-2.04 7.18,-1.84 9.78,0.6 0.66,0.62 1.15,1.41 1.75,2.18 -1.17,0.7 -2.21,1.32 -3.27,1.95 -0.22,-0.32 -0.41,-0.62 -0.62,-0.9 -1.35,-1.81 -4.13,-1.99 -5.71,-0.37 -1.05,1.07 -1.01,2.54 0.19,3.46 0.61,0.46 1.33,0.79 2.03,1.12 1.35,0.62 2.78,1.09 4.07,1.81 2.97,1.67 4.2,4.33 3.7,7.61 -0.49,3.16 -2.82,5.62 -5.98,6.31 -0.47,0.1 -0.94,0.22 -1.41,0.27 -0.38,0.02 -0.77,0.04 -1.14,-0.02 z"
   id="path16" />
		<path
   class="st13"
   d="m 34.44,126.13 c -0.71,-0.17 -1.44,-0.28 -2.13,-0.52 -2.91,-1.01 -5.04,-3.9 -5.14,-6.97 1.29,-0.27 2.6,-0.55 3.93,-0.83 0.05,0.49 0.06,0.95 0.14,1.4 0.42,2.19 2.62,3.55 4.88,3.02 2.04,-0.48 3.4,-2.8 2.82,-4.86 -0.24,-0.85 -0.77,-1.51 -1.52,-1.94 -0.92,-0.53 -1.92,-0.94 -2.87,-1.42 -1.32,-0.68 -2.74,-1.23 -3.93,-2.09 -2.9,-2.11 -3.21,-6.24 -0.74,-8.86 3.1,-3.29 9.9,-3.51 12.51,1.89 -1.04,0.62 -2.08,1.25 -3.15,1.88 -0.19,-0.29 -0.36,-0.53 -0.51,-0.77 -1.37,-2.1 -4.15,-1.93 -5.6,-0.71 -1.22,1.02 -1.31,2.56 -0.09,3.59 0.61,0.51 1.38,0.86 2.11,1.2 1.25,0.58 2.58,1.01 3.8,1.66 3.24,1.72 4.57,4.6 3.88,8.15 -0.63,3.22 -3.36,5.67 -6.74,6.06 -0.18,0.02 -0.36,0.08 -0.54,0.13 -0.35,-0.01 -0.73,-0.01 -1.11,-0.01 z"
   id="path18" />
		<path
   class="st13"
   d="m 90.81,114.41 c -3.44,0 -6.78,0 -10.21,0 0,3.72 0,7.41 0,11.14 -1.33,0 -2.58,0 -3.88,0 0,-8.09 0,-16.18 0,-24.33 1.19,0 2.36,0 3.53,0 0.45,0 0.34,0.35 0.34,0.59 0.01,2.48 0,4.96 0,7.43 0,0.44 0,0.87 0,1.35 3.41,0 6.76,0 10.21,0 0,-0.24 0,-0.48 0,-0.72 0,-2.69 0.01,-5.38 -0.01,-8.06 0,-0.46 0.11,-0.63 0.6,-0.61 0.92,0.04 1.85,0.03 2.77,0 0.47,-0.02 0.61,0.13 0.61,0.6 -0.03,1.89 -0.01,3.78 -0.01,5.67 0,5.8 -0.01,11.59 0.01,17.39 0,0.58 -0.15,0.77 -0.73,0.73 -0.88,-0.05 -1.76,-0.04 -2.64,0 -0.48,0.02 -0.6,-0.14 -0.6,-0.61 0.02,-3.28 0.01,-6.55 0.01,-9.83 0,-0.22 0,-0.45 0,-0.74 z"
   id="path20" />
		<path
   class="st13"
   d="m 261.34,115.31 c 2.49,3.41 4.95,6.77 7.47,10.21 -0.23,0.03 -0.38,0.06 -0.54,0.06 -1.22,0 -2.44,-0.02 -3.65,0.01 -0.43,0.01 -0.68,-0.13 -0.93,-0.48 -2.06,-2.96 -4.14,-5.92 -6.21,-8.87 -0.08,-0.12 -0.15,-0.27 -0.26,-0.35 -0.12,-0.09 -0.3,-0.15 -0.44,-0.13 -0.06,0.01 -0.12,0.23 -0.15,0.36 -0.03,0.14 -0.01,0.29 -0.01,0.44 0,2.75 0,5.5 0,8.25 0,0.23 0,0.46 0,0.73 -1.3,0 -2.55,0 -3.85,0 0,-8.09 0,-16.17 0,-24.4 2.48,0.09 4.93,0.13 7.37,0.27 1.31,0.08 2.56,0.5 3.62,1.31 2.21,1.67 3.08,3.96 2.74,6.65 -0.36,2.82 -1.92,4.77 -4.62,5.75 -0.15,0.06 -0.31,0.11 -0.54,0.19 z m -4.68,-3.04 c 1.59,0.02 3.14,0.01 4.55,-0.76 2.15,-1.18 2.21,-4.59 0.09,-5.83 -1.43,-0.84 -3.02,-0.85 -4.65,-0.87 0.01,2.52 0.01,4.96 0.01,7.46 z"
   id="path22" />
		<path
   class="st13"
   d="m 186.75,125.59 c 4.03,-8.72 8,-17.31 12.04,-26.06 4.04,8.74 8.01,17.34 12.04,26.06 -1.43,0 -2.74,0.02 -4.05,-0.02 -0.15,0 -0.34,-0.27 -0.43,-0.45 -0.77,-1.63 -1.52,-3.27 -2.26,-4.91 -0.16,-0.35 -0.35,-0.5 -0.75,-0.5 -3.04,0.02 -6.09,0.02 -9.13,0 -0.38,0 -0.56,0.14 -0.71,0.47 -0.74,1.64 -1.51,3.28 -2.24,4.92 -0.17,0.38 -0.38,0.52 -0.8,0.51 -1.19,-0.04 -2.38,-0.02 -3.71,-0.02 z m 12.04,-17.23 c -1.17,2.64 -2.27,5.13 -3.39,7.66 2.31,0 4.5,0 6.79,0 -1.13,-2.53 -2.23,-5.01 -3.4,-7.66 z"
   id="path24" />
		<path
   class="st13"
   d="m 249.62,125.58 c -1.42,0 -2.72,0.01 -4.01,-0.02 -0.16,0 -0.37,-0.24 -0.45,-0.42 -0.76,-1.61 -1.51,-3.23 -2.23,-4.86 -0.18,-0.42 -0.4,-0.6 -0.88,-0.6 -2.98,0.02 -5.96,0.02 -8.94,0 -0.45,0 -0.66,0.15 -0.84,0.55 -0.72,1.63 -1.49,3.24 -2.22,4.86 -0.16,0.36 -0.36,0.49 -0.75,0.49 -1.19,-0.02 -2.39,-0.01 -3.74,-0.01 4.01,-8.69 7.99,-17.3 12.03,-26.06 4.03,8.74 8,17.34 12.03,26.07 z m -12.03,-17.22 c -1.18,2.66 -2.27,5.14 -3.4,7.68 2.3,0 4.5,0 6.79,0 -1.12,-2.54 -2.22,-5.02 -3.39,-7.68 z"
   id="path26" />
		<path
   class="st13"
   d="m 151.81,115.84 c 0,3.25 0,6.46 0,9.7 -1.34,0 -2.61,0 -3.91,0 0,-8.1 0,-16.17 0,-24.23 0.06,-0.03 0.09,-0.07 0.13,-0.07 2.75,0 5.5,-0.21 8.21,0.42 3.7,0.86 5.46,2.97 5.49,6.54 0.03,3.84 -1.81,6.35 -5.44,7.18 -1.31,0.3 -2.7,0.29 -4.05,0.42 -0.11,0.01 -0.21,0.02 -0.43,0.04 z m 0.03,-3.67 c 1.53,0.04 2.97,-0.01 4.32,-0.63 1.35,-0.62 1.83,-1.76 1.82,-3.17 -0.01,-1.37 -0.58,-2.38 -1.87,-2.92 -1.36,-0.58 -2.79,-0.63 -4.27,-0.61 0,2.45 0,4.85 0,7.33 z"
   id="path28" />
		<path
   class="st13"
   d="m 51.58,115.78 c 0,3.3 0,6.5 0,9.8 -1.26,0 -2.46,0.01 -3.67,-0.01 -0.09,0 -0.23,-0.16 -0.25,-0.27 -0.05,-0.18 -0.02,-0.37 -0.02,-0.56 0,-7.56 0,-15.11 0,-22.67 0,-0.85 0,-0.85 0.85,-0.84 2.37,0.02 4.74,-0.12 7.09,0.35 0.49,0.1 0.98,0.22 1.46,0.38 2.86,0.94 4.35,2.93 4.46,5.94 0.09,2.3 -0.41,4.39 -2.26,5.95 -1.69,1.42 -3.72,1.86 -5.86,1.94 -0.58,0.01 -1.17,-0.01 -1.8,-0.01 z m 0.01,-3.61 c 1.59,0.01 3.13,0 4.55,-0.76 1.2,-0.64 1.59,-1.73 1.6,-3 0.01,-1.24 -0.44,-2.26 -1.61,-2.85 -1.43,-0.72 -2.97,-0.75 -4.54,-0.75 0,2.49 0,4.89 0,7.36 z"
   id="path30" />
		<path
   class="st13"
   d="m 178.78,104.87 c -1.9,0 -3.7,0 -5.53,0 0,-1.23 0,-2.4 0,-3.61 5,0 9.98,0 15.02,0 0,1.17 0,2.33 0,3.58 -1.8,0 -3.61,0 -5.49,0 -0.02,0.35 -0.04,0.61 -0.04,0.87 0,6.38 -0.01,12.77 0.01,19.15 0,0.57 -0.13,0.78 -0.73,0.74 -0.88,-0.05 -1.76,-0.04 -2.64,0 -0.47,0.02 -0.61,-0.13 -0.61,-0.6 0.02,-3.19 0.01,-6.38 0.01,-9.57 0,-3.23 0,-6.47 0,-9.7 0,-0.26 0,-0.51 0,-0.86 z"
   id="path32" />
		<path
   class="st13"
   d="m 213.95,125.55 c 0,-8.11 0,-16.18 0,-24.29 1.28,0 2.54,0 3.89,0 0,0.3 0,0.57 0,0.83 0,6.34 0,12.68 0,19.02 0,0.82 0,0.82 0.82,0.82 2.08,0 4.15,0 6.28,0 0,1.23 0,2.41 0,3.62 -3.67,0 -7.31,0 -10.99,0 z"
   id="path34" />
		<path
   class="st13"
   d="m 165.69,101.22 c 1.21,0 2.38,-0.01 3.55,0.02 0.11,0 0.27,0.2 0.32,0.34 0.06,0.15 0.02,0.33 0.02,0.5 0,7.55 0,15.11 0,22.66 0,0.85 0,0.85 -0.84,0.85 -1,0 -2.01,0 -3.05,0 0,-8.13 0,-16.2 0,-24.37 z"
   id="path36" />
	</g>
</g>
</svg>
