<?xml version="1.0" encoding="utf-8"?>
<!-- Generator: Adobe Illustrator 24.2.0, SVG Export Plug-In . SVG Version: 6.00 Build 0)  -->
<svg version="1.1" xmlns="http://www.w3.org/2000/svg" xmlns:xlink="http://www.w3.org/1999/xlink" x="0px" y="0px"
	 viewBox="0 0 244.28 244.28" style="enable-background:new 0 0 244.28 244.28;" xml:space="preserve">
<style type="text/css">
	.st0{fill:#FFFFFF;}
	.st1{opacity:0.1;}
	.st2{clip-path:url(#SVGID_2_);}
	.st3{clip-path:url(#SVGID_4_);}
	.st4{filter:url(#Adobe_OpacityMaskFilter);}
	.st5{clip-path:url(#SVGID_6_);}
	.st6{opacity:0.05;}
	.st7{clip-path:url(#SVGID_11_);}
	.st8{clip-path:url(#SVGID_13_);}
	.st9{opacity:0.66;fill:url(#SVGID_16_);}
	.st10{display:none;}
	.st11{display:inline;}
	.st12{display:inline;clip-path:url(#SVGID_18_);}
	.st13{fill:#EBF9FB;}
	.st14{fill:#3B3D40;}
	.st15{fill:#8D9298;}
	.st16{display:inline;fill:#FFFFFF;}
	.st17{display:inline;fill:#FBB032;}
	.st18{fill:none;stroke:#000000;stroke-miterlimit:10;}
	.st19{clip-path:url(#SVGID_20_);}
	.st20{fill:url(#SVGID_21_);}
	.st21{opacity:0.19;fill:#FFFFFF;stroke:#FFFFFF;stroke-width:2;stroke-miterlimit:10;}
	.st22{fill:none;stroke:#FFFFFF;stroke-width:2;stroke-miterlimit:10;}
	.st23{display:inline;fill:url(#SVGID_22_);}
	.st24{fill:#005CAB;}
	.st25{clip-path:url(#SVGID_24_);}
	.st26{clip-path:url(#SVGID_32_);}
	.st27{opacity:0.82;fill:#2A224C;}
	.st28{clip-path:url(#SVGID_34_);}
	.st29{clip-path:url(#SVGID_36_);}
	.st30{fill:#757575;}
	.st31{display:inline;opacity:0.3;}
	.st32{clip-path:url(#SVGID_38_);}
	.st33{fill:none;stroke:#FFFFFF;stroke-width:3;stroke-miterlimit:10;}
	.st34{fill:#009BD5;}
	.st35{fill:url(#SVGID_39_);}
	.st36{clip-path:url(#SVGID_41_);}
	.st37{opacity:0.47;}
	.st38{fill:url(#SVGID_42_);}
	.st39{fill:url(#SVGID_43_);}
	.st40{fill:none;stroke:url(#SVGID_44_);stroke-width:7;stroke-miterlimit:10;stroke-dasharray:12.0209,12.0209;}
	.st41{fill:url(#SVGID_45_);}
	.st42{fill:url(#SVGID_46_);}
	.st43{fill:none;stroke:url(#SVGID_47_);stroke-width:7;stroke-miterlimit:10;stroke-dasharray:12.0209,12.0209;}
	.st44{fill:#392862;}
	.st45{display:none;fill:#44FAB5;}
	.st46{display:inline;fill:none;stroke:#FFFFFF;stroke-miterlimit:10;}
	.st47{fill:none;stroke:#FFFFFF;stroke-miterlimit:10;}
	.st48{display:none;opacity:0.5;}
	.st49{opacity:0.56;}
	.st50{fill:none;stroke:#FFFFFF;stroke-width:4;stroke-linecap:round;stroke-linejoin:round;stroke-miterlimit:10;}
	.st51{display:none;fill:none;stroke:#00AEEE;stroke-miterlimit:10;}
	.st52{fill:none;stroke:#FFFFFF;stroke-width:4;stroke-miterlimit:10;}
	.st53{display:none;fill:none;stroke:#3B3D40;stroke-width:4;stroke-miterlimit:10;}
	.st54{fill:none;stroke:#3B3D40;stroke-width:4;stroke-miterlimit:10;}
	.st55{fill:#2A224C;}
	.st56{fill:#028FBA;}
	.st57{fill:#493782;}
	.st58{fill:#03B2E8;}
	.st59{fill:#51459B;}
	.st60{fill:#00CFFF;}
	.st61{opacity:0.51;}
	.st62{fill:#78B2E4;}
	.st63{fill:#4784C8;}
	.st64{fill:#FDFDFE;}
	.st65{fill:#FDFDFE;stroke:#000000;stroke-miterlimit:10;}
	.st66{fill:#FDFDFD;}
	.st67{fill:#3CC102;}
</style>
<g id="Camada_9">
</g>
<g id="Camada_14">
</g>
<g id="Rodapé">
</g>
<g id="newsletter_1_">
</g>
<g id="faça_sua_cotaçao" class="st10">
</g>
<g id="Somos_representantes">
</g>
<g id="Consumiveis_hosp">
</g>
<g id="BW_hospitalar">
</g>
<g id="qualidade_dos_equi">
	<g class="st37">
		<g>
			
				<linearGradient id="SVGID_2_" gradientUnits="userSpaceOnUse" x1="62.5573" y1="-67.6706" x2="279.5177" y2="-67.6706" gradientTransform="matrix(0.9715 0.2371 -0.2371 0.9715 -60.0645 147.3272)">
				<stop  offset="0" style="stop-color:#BED240"/>
				<stop  offset="0.1225" style="stop-color:#8BC53F"/>
				<stop  offset="0.6779" style="stop-color:#69C060"/>
				<stop  offset="1" style="stop-color:#009145"/>
			</linearGradient>
			<path style="fill:url(#SVGID_2_);" d="M144.8,16.07C88.59,3.97,30.87,38.32,16.69,96.68C2.58,154.76,38.36,215.07,99.55,228.23
				c56.75,12.2,113.54-22.65,127.91-80.1C242,88.4,204.58,28.93,144.8,16.07z M98.92,216.98c-52.35-12.78-84.61-65.79-71.59-118.2
				c13.12-52.83,65.07-82.53,114.6-72.25c53.85,11.18,88.25,65.12,74.96,119.06C204.06,197.69,151.18,229.73,98.92,216.98z"/>
			
				<linearGradient id="SVGID_4_" gradientUnits="userSpaceOnUse" x1="110.0375" y1="-71.1498" x2="227.1969" y2="-71.1498" gradientTransform="matrix(0.9715 0.2371 -0.2371 0.9715 -60.0645 147.3272)">
				<stop  offset="0" style="stop-color:#BED240"/>
				<stop  offset="0.1225" style="stop-color:#8BC53F"/>
				<stop  offset="0.6779" style="stop-color:#69C060"/>
				<stop  offset="1" style="stop-color:#009145"/>
			</linearGradient>
			<path style="fill:url(#SVGID_4_);" d="M183.73,89.32c-2.04-1.11-3.96-0.65-5.88,0.52c-22.19,13.51-44.41,26.99-66.61,40.49
				c-6.4,3.89-12.77,7.82-19.6,12.01c-0.3-0.77-0.41-1.22-0.64-1.6c-6.16-10.15-12.35-20.3-18.5-30.45c-1.09-1.8-2.4-3.25-4.63-3.42
				c-2.17-0.17-3.98,0.62-5.12,2.51c-1.28,2.11-1.01,4.19,0.27,6.29c7.2,11.78,14.35,23.59,21.53,35.39
				c2.65,4.36,5.19,4.98,9.54,2.34c23.09-14.03,46.19-28.06,69.28-42.1c6.79-4.13,13.59-8.23,20.35-12.4
				C187.65,96.47,187.63,91.45,183.73,89.32z"/>
		</g>
		<g>
			<linearGradient id="SVGID_6_" gradientUnits="userSpaceOnUse" x1="3.5098" y1="93.1867" x2="240.7716" y2="151.0946">
				<stop  offset="0" style="stop-color:#BED240"/>
				<stop  offset="0.1225" style="stop-color:#8BC53F"/>
				<stop  offset="0.6779" style="stop-color:#69C060"/>
				<stop  offset="1" style="stop-color:#009145"/>
			</linearGradient>
			
				<ellipse transform="matrix(0.7071 -0.7071 0.7071 0.7071 -50.5923 122.1407)" style="fill:none;stroke:url(#SVGID_6_);stroke-width:7;stroke-miterlimit:10;stroke-dasharray:12.0209,12.0209;" cx="122.14" cy="122.14" rx="118.61" ry="118.61"/>
		</g>
	</g>
</g>
<g id="Banners">
</g>
<g id="menu">
	<g id="Background">
	</g>
	<g id="barra_menu_1_">
	</g>
	<g id="cabeçario">
	</g>
</g>
<g id="stuffs">
</g>
</svg>
