<?xml version="1.0" encoding="UTF-8" standalone="no"?>
<svg
   xmlns:dc="http://purl.org/dc/elements/1.1/"
   xmlns:cc="http://creativecommons.org/ns#"
   xmlns:rdf="http://www.w3.org/1999/02/22-rdf-syntax-ns#"
   xmlns:svg="http://www.w3.org/2000/svg"
   xmlns="http://www.w3.org/2000/svg"
   xmlns:sodipodi="http://sodipodi.sourceforge.net/DTD/sodipodi-0.dtd"
   xmlns:inkscape="http://www.inkscape.org/namespaces/inkscape"
   version="1.1"
   x="0px"
   y="0px"
   viewBox="0 0 101.85601 102.52801"
   xml:space="preserve"
   id="svg27"
   sodipodi:docname="whatsapp-brand.svg"
   width="101.856"
   height="102.52801"
   inkscape:version="1.0.1 (3bc2e813f5, 2020-09-07)"><metadata
   id="metadata33"><rdf:RDF><cc:Work
       rdf:about=""><dc:format>image/svg+xml</dc:format><dc:type
         rdf:resource="http://purl.org/dc/dcmitype/StillImage" /></cc:Work></rdf:RDF></metadata><defs
   id="defs31"><filter
     style="color-interpolation-filters:sRGB"
     inkscape:label="Drop Shadow"
     id="filter1228"><feFlood
       flood-opacity="0.498039"
       flood-color="rgb(0,0,0)"
       result="flood"
       id="feFlood1218" /><feComposite
       in="flood"
       in2="SourceGraphic"
       operator="in"
       result="composite1"
       id="feComposite1220" /><feGaussianBlur
       in="composite1"
       stdDeviation="5"
       result="blur"
       id="feGaussianBlur1222" /><feOffset
       dx="4"
       dy="4"
       result="offset"
       id="feOffset1224" /><feComposite
       in="SourceGraphic"
       in2="offset"
       operator="over"
       result="composite2"
       id="feComposite1226" /></filter></defs><sodipodi:namedview
   pagecolor="#ffffff"
   bordercolor="#666666"
   borderopacity="1"
   objecttolerance="10"
   gridtolerance="10"
   guidetolerance="10"
   inkscape:pageopacity="0"
   inkscape:pageshadow="2"
   inkscape:window-width="1366"
   inkscape:window-height="705"
   id="namedview29"
   showgrid="false"
   inkscape:zoom="3.1033687"
   inkscape:cx="65.619297"
   inkscape:cy="75.035999"
   inkscape:window-x="-8"
   inkscape:window-y="-8"
   inkscape:window-maximized="1"
   inkscape:current-layer="g24" />
<style
   type="text/css"
   id="style2">
	.st0{fill:#FFFFFF;}
	.st1{opacity:0.1;}
	.st2{clip-path:url(#SVGID_2_);}
	.st3{clip-path:url(#SVGID_4_);}
	.st4{filter:url(#Adobe_OpacityMaskFilter);}
	.st5{clip-path:url(#SVGID_6_);}
	.st6{opacity:0.05;}
	.st7{clip-path:url(#SVGID_11_);}
	.st8{clip-path:url(#SVGID_13_);}
	.st9{opacity:0.66;fill:url(#SVGID_16_);}
	.st10{display:none;}
	.st11{display:inline;}
	.st12{display:inline;clip-path:url(#SVGID_18_);}
	.st13{fill:#EBF9FB;}
	.st14{fill:#3B3D40;}
	.st15{fill:#8D9298;}
	.st16{display:inline;fill:#FFFFFF;}
	.st17{display:inline;fill:#FBB032;}
	.st18{fill:none;stroke:#000000;stroke-miterlimit:10;}
	.st19{clip-path:url(#SVGID_20_);}
	.st20{fill:url(#SVGID_21_);}
	.st21{opacity:0.19;fill:#FFFFFF;stroke:#FFFFFF;stroke-width:2;stroke-miterlimit:10;}
	.st22{fill:none;stroke:#FFFFFF;stroke-width:2;stroke-miterlimit:10;}
	.st23{display:inline;fill:url(#SVGID_22_);}
	.st24{fill:#005CAB;}
	.st25{clip-path:url(#SVGID_24_);}
	.st26{clip-path:url(#SVGID_32_);}
	.st27{opacity:0.82;fill:#2A224C;}
	.st28{clip-path:url(#SVGID_34_);}
	.st29{clip-path:url(#SVGID_36_);}
	.st30{fill:#757575;}
	.st31{display:inline;opacity:0.3;}
	.st32{clip-path:url(#SVGID_38_);}
	.st33{fill:none;stroke:#FFFFFF;stroke-width:3;stroke-miterlimit:10;}
	.st34{fill:#009BD5;}
	.st35{fill:url(#SVGID_39_);}
	.st36{clip-path:url(#SVGID_41_);}
	.st37{opacity:0.47;}
	.st38{fill:url(#SVGID_42_);}
	.st39{fill:url(#SVGID_43_);}
	.st40{fill:none;stroke:url(#SVGID_44_);stroke-width:7;stroke-miterlimit:10;stroke-dasharray:12.0209,12.0209;}
	.st41{fill:url(#SVGID_45_);}
	.st42{fill:url(#SVGID_46_);}
	.st43{fill:none;stroke:url(#SVGID_47_);stroke-width:7;stroke-miterlimit:10;stroke-dasharray:12.0209,12.0209;}
	.st44{fill:#392862;}
	.st45{display:none;fill:#44FAB5;}
	.st46{display:inline;fill:none;stroke:#FFFFFF;stroke-miterlimit:10;}
	.st47{fill:none;stroke:#FFFFFF;stroke-miterlimit:10;}
	.st48{display:none;opacity:0.5;}
	.st49{opacity:0.56;}
	.st50{fill:none;stroke:#FFFFFF;stroke-width:4;stroke-linecap:round;stroke-linejoin:round;stroke-miterlimit:10;}
	.st51{display:none;fill:none;stroke:#00AEEE;stroke-miterlimit:10;}
	.st52{fill:none;stroke:#FFFFFF;stroke-width:4;stroke-miterlimit:10;}
	.st53{display:none;fill:none;stroke:#3B3D40;stroke-width:4;stroke-miterlimit:10;}
	.st54{fill:none;stroke:#3B3D40;stroke-width:4;stroke-miterlimit:10;}
	.st55{fill:#2A224C;}
	.st56{fill:#028FBA;}
	.st57{fill:#493782;}
	.st58{fill:#03B2E8;}
	.st59{fill:#51459B;}
	.st60{fill:#00CFFF;}
	.st61{opacity:0.51;}
	.st62{fill:#78B2E4;}
	.st63{fill:#4784C8;}
	.st64{fill:#FDFDFE;}
	.st65{fill:#FDFDFE;stroke:#000000;stroke-miterlimit:10;}
	.st66{fill:#FDFDFD;}
	.st67{fill:#3CC102;}
</style>
<g
   id="Camada_9"
   transform="translate(7.8679999,7.9239997)">
</g>
<g
   id="Camada_14"
   transform="translate(7.8679999,7.9239997)">
</g>
<g
   id="Rodapé"
   transform="translate(7.8679999,7.9239997)">
</g>
<g
   id="newsletter_1_"
   transform="translate(7.8679999,7.9239997)">
</g>
<g
   id="faça_sua_cotaçao"
   class="st10"
   transform="translate(7.8679999,7.9239997)">
</g>
<g
   id="Somos_representantes"
   transform="translate(7.8679999,7.9239997)">
</g>
<g
   id="Consumiveis_hosp"
   transform="translate(7.8679999,7.9239997)">
</g>
<g
   id="BW_hospitalar"
   transform="translate(7.8679999,7.9239997)">
</g>
<g
   id="qualidade_dos_equi"
   transform="translate(7.8679999,7.9239997)">
</g>
<g
   id="Banners"
   transform="translate(7.8679999,7.9239997)">
</g>
<g
   id="menu"
   transform="translate(7.8679999,7.9239997)">
	<g
   id="Background">
	</g>
	<g
   id="barra_menu_1_">
	</g>
	<g
   id="cabeçario">
	</g>
</g>
<g
   id="stuffs"
   transform="translate(7.8679999,7.9239997)">
	<g
   id="g24">
		<path
   class="st66"
   d="M 0.62,86.06 23.81,78.57 C 29.78,81.89 36.64,83.8 43.9,83.8 66.88,83.8 85.5,65.18 85.5,42.21 85.5,19.24 66.88,0.62 43.9,0.62 20.92,0.62 2.3,19.24 2.3,42.21 c 0,7.78 2.03,14.86 5.75,21.08 z"
   id="path18"
   style="filter:url(#filter1228)" />
		<path
   class="st67"
   d="m 10.95,75.56 13.34,-4.31 c 6.26,4.18 13.25,5.71 19.25,5.71 20.65,0 35.07,-16.59 35.07,-35.56 C 78.61,22.43 62.7,7.06 43.72,7.06 24.74,7.06 8.66,22.11 8.66,41.09 c 0,6.42 1.14,13.72 6.63,21.51 z"
   id="path20" />
		<path
   class="st66"
   d="m 31.16,23.06 c 0.29,0 0.59,0.03 0.87,0 0.93,-0.1 1.53,0.35 1.91,1.13 0.37,0.77 0.7,1.56 1.03,2.35 0.82,1.95 1.61,3.9 2.44,5.84 0.31,0.72 0.31,1.36 -0.04,2.06 -0.62,1.24 -1.56,2.23 -2.47,3.24 -0.8,0.89 -0.86,1.26 -0.24,2.28 2.75,4.54 6.35,8.2 11.13,10.61 0.94,0.47 1.91,0.9 2.88,1.31 0.8,0.33 1.26,0.23 1.8,-0.42 1.06,-1.27 2.11,-2.55 3.13,-3.85 0.69,-0.89 1.14,-1.12 2.16,-0.67 2.11,0.93 4.19,1.94 6.28,2.92 0.72,0.34 1.42,0.71 2.14,1.06 0.58,0.28 0.85,0.72 0.85,1.39 0,1.43 -0.25,2.82 -0.8,4.12 -0.26,0.63 -0.72,1.22 -1.21,1.7 -1.4,1.38 -3.07,2.32 -4.96,2.87 -1.98,0.58 -3.97,0.61 -5.97,0 -3.47,-1.05 -6.92,-2.17 -10.11,-3.93 -3.37,-1.86 -6.27,-4.33 -8.88,-7.14 -2.67,-2.87 -4.98,-6.02 -6.99,-9.38 -1.18,-1.97 -2.01,-4.09 -2.27,-6.4 -0.41,-3.62 0.6,-6.78 3.11,-9.44 0.63,-0.67 1.28,-1.31 2.2,-1.5 0.65,-0.14 1.33,-0.14 2,-0.2 0.01,0.01 0.01,0.03 0.01,0.05 z"
   id="path22" />
	</g>
</g>
</svg>
