<?xml version="1.0" standalone="no"?>
<!DOCTYPE svg PUBLIC "-//W3C//DTD SVG 1.1//EN" "http://www.w3.org/Graphics/SVG/1.1/DTD/svg11.dtd" >
<svg xmlns="http://www.w3.org/2000/svg" xmlns:xlink="http://www.w3.org/1999/xlink" version="1.1">
<metadata></metadata>
<defs>
<font id="hindmedium" horiz-adv-x="1235" >
<font-face units-per-em="2048" ascent="1638" descent="-410" />
<missing-glyph horiz-adv-x="538" />
<glyph unicode="&#xfb01;" horiz-adv-x="1165" d="M65 945v166h178v85q0 176 94 274.5t268 98.5q177 0 336 -81v-186q-178 84 -316 83q-167 0 -167 -191v-83h572v-1111h-215v945h-357v-945h-215v945h-178z" />
<glyph unicode="&#xfb02;" horiz-adv-x="1169" d="M65 945v166h178v85q0 176 94 274.5t265 98.5q199 0 417 -116v-1453h-214v1355q-88 31 -169 30q-178 0 -178 -191v-83h234v-166h-234v-945h-215v945h-178z" />
<glyph horiz-adv-x="0" />
<glyph horiz-adv-x="682" />
<glyph horiz-adv-x="0" />
<glyph horiz-adv-x="0" />
<glyph unicode="&#xd;" horiz-adv-x="728" />
<glyph unicode=" "  horiz-adv-x="538" />
<glyph unicode="&#x09;" horiz-adv-x="538" />
<glyph unicode="&#xa0;" horiz-adv-x="538" />
<glyph unicode="!" horiz-adv-x="573" d="M136 131q0 64 42.5 107.5t106.5 43.5q61 0 106.5 -44.5t45.5 -105.5q0 -64 -44 -106.5t-108 -42.5t-106.5 42t-42.5 106zM182 469v1008h211v-1008h-211z" />
<glyph unicode="&#x22;" horiz-adv-x="705" d="M94 958v535h186v-535h-186zM425 958v535h186v-535h-186z" />
<glyph unicode="#" horiz-adv-x="1583" d="M111 362v171h270l83 402h-247v176h285l77 366h192l-77 -366h364l77 366h189l-77 -366h227v-176h-265l-84 -402h247v-171h-283l-77 -362h-190l77 362h-364l-77 -362h-188l77 362h-236zM572 533h363l86 402h-364z" />
<glyph unicode="$" horiz-adv-x="1110" d="M103 1081q0 173 116 280t307 125v235h187v-240q130 -19 220 -63v-224q-144 92 -333 92q-121 0 -188 -53.5t-67 -141.5q0 -48 20 -86.5t72 -72t88 -51.5t115 -53q83 -37 135.5 -66.5t114 -80t91 -119.5t29.5 -159q0 -177 -112 -285.5t-298 -128.5v-234h-184v234 q-180 17 -305 90v235q174 -130 402 -130q120 0 191.5 55.5t71.5 155.5q0 24 -4.5 44.5t-18 40.5t-24 34.5t-35.5 30.5t-39.5 26t-48.5 26t-49.5 24t-57 25.5t-56.5 24.5q-161 73 -250.5 162t-89.5 248z" />
<glyph unicode="%" horiz-adv-x="1936" d="M105 1140q0 150 107.5 257.5t258.5 107.5q153 0 260.5 -107.5t107.5 -257.5q0 -153 -107 -261t-261 -108q-151 0 -258.5 108t-107.5 261zM287 1140q0 -77 54 -132t130.5 -55t131 55t54.5 132t-54.5 130.5t-131 53.5t-130.5 -55t-54 -129zM464 -2l799 1485h203l-799 -1485 h-203zM1098 351q0 151 107.5 259.5t260.5 108.5q151 0 258.5 -108.5t107.5 -259.5q0 -153 -107.5 -259.5t-258.5 -106.5q-153 0 -260.5 106.5t-107.5 259.5zM1280 350.5q0 -76.5 54.5 -131t131.5 -54.5t130.5 54.5t53.5 131t-53.5 131.5t-130.5 55t-131.5 -55t-54.5 -131.5z " />
<glyph unicode="&#x26;" horiz-adv-x="1566" d="M134 391q0 258 339 378q-188 195 -188 364q0 173 118 276t310 103q197 0 316 -108.5t119 -281.5q0 -127 -77.5 -228t-259.5 -184l324 -311q51 92 57 208h202q-8 -193 -112 -346q63 -59 163 -153.5t115 -107.5h-280l-130 121q-180 -138 -445 -138q-259 0 -415 116 t-156 292zM355 397q0 -103 98.5 -164.5t249.5 -61.5q173 0 303 86l-401 379l-3 2q-129 -48 -188 -104.5t-59 -136.5zM506 1133q0 -65 42 -132.5t134 -165.5q247 121 247 280q0 92 -57 150.5t-162 58.5q-89 0 -146.5 -50.5t-57.5 -140.5z" />
<glyph unicode="'" horiz-adv-x="374" d="M94 958v535h186v-535h-186z" />
<glyph unicode="(" horiz-adv-x="696" d="M136 572q0 548 339 977h233q-169 -219 -255.5 -476.5t-86.5 -511.5q0 -245 92 -505.5t267 -484.5h-234q-355 445 -355 1001z" />
<glyph unicode=")" horiz-adv-x="696" d="M-29 -429q176 224 269 485.5t93 504.5q0 252 -88 509.5t-254 478.5h233q337 -427 337 -977q0 -554 -352 -1001h-238z" />
<glyph unicode="*" horiz-adv-x="956" d="M63 1111l54 167l203 -66q54 -19 90 -51q-19 50 -19 104v212h174v-212q0 -57 -17 -99q39 31 90 48l201 64l56 -167l-203 -66q-39 -12 -87 -12h-11q39 -25 73 -71l122 -173l-141 -103l-125 171q-27 38 -43 88q-8 -40 -43 -88l-128 -171l-142 103l126 171q31 42 73 70h-13 q-48 0 -88 13z" />
<glyph unicode="+" d="M117 646v195h396v410h200v-410h404v-195h-404v-407h-200v407h-396z" />
<glyph unicode="," horiz-adv-x="536" d="M-17 -272l210 513h265l-287 -513h-188z" />
<glyph unicode="-" horiz-adv-x="766" d="M117 493v184h534v-184h-534z" />
<glyph unicode="." horiz-adv-x="422" d="M63 132q0 61 43 103.5t107 42.5q61 0 104 -42.5t43 -103.5t-43 -105t-104 -44q-63 0 -106.5 44t-43.5 105z" />
<glyph unicode="/" horiz-adv-x="922" d="M-15 -224l795 1773h222l-795 -1773h-222z" />
<glyph unicode="0" horiz-adv-x="1194" d="M90 721q0 337 135 535.5t369 198.5q238 0 374 -197.5t136 -536.5q0 -335 -132.5 -536.5t-377.5 -201.5q-234 0 -369 201.5t-135 536.5zM309 720.5q0 -256.5 80 -397.5t205 -141q136 0 212.5 140t76.5 399q0 261 -80 398t-209 137q-123 0 -204 -139.5t-81 -396z" />
<glyph unicode="1" horiz-adv-x="744" d="M35 991v230l358 212h194v-1433h-213v1198z" />
<glyph unicode="2" horiz-adv-x="1086" d="M79 0v178q276 201 465.5 417t189.5 394q0 125 -72 191.5t-200 66.5q-175 0 -343 -132v213q157 121 374 121q201 0 333 -113t132 -322q0 -385 -584 -828h623v-186h-918z" />
<glyph unicode="3" horiz-adv-x="1031" d="M79 61v211q163 -88 355 -88q130 0 203 65t73 165q0 105 -81 162t-244 57h-86v184h86q121 0 203.5 60.5t82.5 165.5t-67 157.5t-183 52.5q-149 0 -296 -92v209q136 79 302 79q219 0 343.5 -108.5t124.5 -273.5q0 -119 -58.5 -207.5t-172.5 -134.5q126 -31 195.5 -116.5 t69.5 -213.5q0 -178 -127 -293t-357 -115q-217 0 -366 74z" />
<glyph unicode="4" horiz-adv-x="1196" d="M83 335v186l515 914h349v-914h201v-186h-201v-335h-215v335h-649zM301 521h431v783z" />
<glyph unicode="5" horiz-adv-x="1110" d="M113 59v209q141 -86 339 -86q346 0 345 280q0 112 -77.5 174.5t-209.5 62.5q-167 0 -328 -76v812h742v-186h-529v-377q81 17 149 17q223 0 350 -117t127 -316q0 -215 -141.5 -343t-392.5 -128q-226 0 -374 74z" />
<glyph unicode="6" horiz-adv-x="1158" d="M103 651q0 359 183 589t490 230q110 0 208 -33v-208q-85 44 -200 44q-192 0 -308 -137t-148 -352q143 138 338 138t308 -124.5t113 -330.5q0 -220 -127.5 -358t-341.5 -138q-249 0 -382 187t-133 493zM322 592q9 -213 91 -319t208 -106q113 0 179 82t66 215 q0 126 -66 198t-175 72q-171 0 -303 -142z" />
<glyph unicode="7" horiz-adv-x="1005" d="M31 1247v186h944v-186l-582 -1247h-230l584 1247h-716z" />
<glyph unicode="8" horiz-adv-x="1178" d="M101 370q0 255 244 349q-103 44 -161.5 127t-58.5 195q0 193 134 302.5t324 109.5q197 0 331 -106.5t134 -307.5q0 -217 -216 -318q245 -83 247 -340q0 -182 -141 -291t-355 -109q-211 0 -346.5 106t-135.5 283zM320 379q0 -92 68 -153t197 -61q134 0 205 65t71 162 t-70 163t-206 66q-131 -3 -198 -72t-67 -170zM345 1043q0 -111 69 -169.5t178 -58.5q102 0 169 60t67 170q0 97 -60 160.5t-185 63.5q-111 0 -174.5 -66t-63.5 -160z" />
<glyph unicode="9" horiz-adv-x="1121" d="M67 971q0 208 125.5 344t340.5 136q245 0 373.5 -181t128.5 -468q0 -390 -166 -604.5t-474 -214.5q-141 0 -253 42v207q112 -50 237 -50q376 0 434 447q-105 -121 -313 -121q-180 0 -306.5 127.5t-126.5 335.5zM291 975q0 -132 71 -207.5t190 -75.5q167 0 270 130 q-5 199 -74 316.5t-207 117.5q-113 0 -181.5 -76t-68.5 -205z" />
<glyph unicode=":" horiz-adv-x="547" d="M127 145q0 62 43 104t104 42t104 -42t43 -104t-43 -104.5t-104 -42.5q-63 0 -105 42.5t-42 104.5zM127 857q0 61 43 104t104 43t104 -43t43 -104.5t-43 -104t-104 -42.5q-63 0 -105 42t-42 105z" />
<glyph unicode=";" horiz-adv-x="536" d="M-17 -272l210 513h265l-287 -513h-188zM155 855q0 63 42 106t104 43q63 0 105.5 -44t42.5 -105.5t-42.5 -103t-105.5 -41.5q-61 0 -103.5 42t-42.5 103z" />
<glyph unicode="&#x3c;" horiz-adv-x="1194" d="M117 642v209l972 405v-219q-635 -235 -750 -290q53 -27 240.5 -98.5t349.5 -131.5l160 -61v-220z" />
<glyph unicode="=" d="M117 423v186h1000v-186h-1000zM117 883v184h1000v-184h-1000z" />
<glyph unicode="&#x3e;" horiz-adv-x="1194" d="M105 236v220q631 234 750 291q-53 24 -240.5 96.5t-346.5 133.5l-163 60v219l971 -405v-209z" />
<glyph unicode="?" horiz-adv-x="994" d="M111 1201v212q143 82 345 82q208 0 334 -106.5t126 -294.5q0 -187 -127.5 -290t-282.5 -114l-2 -221h-203l-2 353q397 0 395 257q0 102 -65.5 164.5t-191.5 62.5q-163 -1 -326 -105zM249 131q0 64 44 107.5t106 43.5q63 0 107 -43.5t44 -107.5t-44 -106t-107.5 -42 t-106.5 42t-43 106z" />
<glyph unicode="@" horiz-adv-x="2028" d="M119 431q0 268 132 487t355.5 340.5t487.5 121.5q353 0 597 -217.5t244 -577.5q0 -252 -122.5 -402t-282.5 -150q-219 0 -281 203q-105 -208 -327 -207q-167 0 -263 120.5t-96 299.5q0 207 125 342.5t307 135.5q178 0 261 -147q0 19 3.5 65.5t5.5 72.5h175l-22 -226 q-15 -197 -15 -263q0 -226 136 -226q90 0 149.5 102.5t59.5 266.5q0 303 -186 466t-475 163q-320 0 -544.5 -223.5t-224.5 -548.5q0 -307 182 -476.5t445 -169.5q221 0 403 96l-9 -199q-165 -79 -396 -79q-381 0 -602.5 236t-221.5 594zM763 439q0 -109 57.5 -176.5 t147.5 -67.5q86 0 159.5 60.5t104.5 167.5q4 52 6 112q-35 226 -224 226q-109 0 -180 -91t-71 -231z" />
<glyph unicode="A" horiz-adv-x="1445" d="M67 0l512 1477h295l504 -1477h-241l-116 362h-596l-118 -362h-240zM487 550h473l-25 75q-83 259 -135.5 428.5t-63.5 211.5l-11 41q-24 -102 -215 -681z" />
<glyph unicode="B" horiz-adv-x="1272" d="M160 0v1477h484q232 0 366 -108.5t134 -285.5q0 -123 -69 -215t-176 -119q121 -21 202.5 -111t81.5 -241q0 -176 -119 -286.5t-336 -110.5h-568zM385 186h290q278 0 278 230q0 112 -75.5 174.5t-224.5 62.5h-268v-467zM385 837h205q164 0 244 66.5t80 175.5 q0 94 -71.5 152.5t-215.5 58.5h-242v-453z" />
<glyph unicode="C" horiz-adv-x="1325" d="M101 740q0 335 211 546t537 211q236 0 378 -81v-222q-96 53 -174 73.5t-198 20.5q-222 0 -370 -149.5t-148 -398.5q0 -252 147 -401t388 -149q213 0 357 111v-228q-135 -90 -376 -90q-331 0 -541.5 206t-210.5 551z" />
<glyph unicode="D" horiz-adv-x="1461" d="M160 0v1477h461q328 0 538.5 -204t210.5 -519q0 -328 -198.5 -541t-546.5 -213h-465zM391 190h232q252 0 383 158t131 406q0 228 -142 379t-380 151h-224v-1094z" />
<glyph unicode="E" horiz-adv-x="1125" d="M160 0v1477h842v-189h-617v-456h546v-188h-546v-456h627v-188h-852z" />
<glyph unicode="F" horiz-adv-x="1081" d="M160 0v1477h837v-189h-612v-483h537v-190h-537v-615h-225z" />
<glyph unicode="G" horiz-adv-x="1491" d="M101 740q0 340 214 551.5t542 211.5q257 0 429 -98v-232q-186 117 -416 117h-4q-237 0 -383 -150.5t-146 -399.5q0 -254 144 -400.5t395 -146.5q132 0 251 48v407h-301v195h522v-707h-3l3 -15q-190 -138 -478 -138q-347 0 -558 204t-211 553z" />
<glyph unicode="H" horiz-adv-x="1437" d="M160 0v1477h225v-636h665v636h225v-1477h-225v646h-665v-646h-225z" />
<glyph unicode="I" horiz-adv-x="577" d="M178 0v1477h223v-1477h-223z" />
<glyph unicode="J" horiz-adv-x="805" d="M65 46v209q90 -55 180 -56q180 0 180 192v1086h226v-1078q0 -203 -99.5 -301t-269.5 -98q-135 0 -217 46z" />
<glyph unicode="K" horiz-adv-x="1311" d="M160 0v1477h225v-1477h-225zM414 730l537 747h274l-541 -745l574 -732h-285z" />
<glyph unicode="L" horiz-adv-x="1051" d="M160 0v1477h225v-1278h606v-199h-831z" />
<glyph unicode="M" horiz-adv-x="1901" d="M140 0l115 1477h266l198 -539q52 -138 104.5 -292.5t79.5 -239.5l28 -86q100 298 221 618l207 539h267l136 -1477h-223l-53 579l-46 592q-98 -279 -215 -592l-206 -550h-178l-199 550l-199 582q0 -96 -35 -582l-44 -579h-224z" />
<glyph unicode="N" horiz-adv-x="1489" d="M160 0v1477h267l364 -618q100 -173 182.5 -319.5t113.5 -206.5l30 -61q-13 199 -13 585v620h226v-1477h-267l-366 615q-99 167 -181 315.5t-115 213.5l-33 63q17 -219 17 -589v-618h-225z" />
<glyph unicode="O" horiz-adv-x="1557" d="M101 745q0 344 184 552t493 208q316 0 497.5 -207t181.5 -553t-183 -554t-494 -208q-309 0 -494 207.5t-185 554.5zM337 745q0 -254 121 -403t322 -149q209 0 325 147t116 405q0 257 -117 403.5t-326 146.5q-207 0 -324 -148t-117 -402z" />
<glyph unicode="P" horiz-adv-x="1204" d="M160 0v1477h423q255 0 403.5 -135t148.5 -345.5t-150 -342t-389 -131.5h-211v-523h-225zM385 710h194q160 0 244 79t84 208q0 136 -85.5 214.5t-246.5 78.5h-190v-580z" />
<glyph unicode="Q" horiz-adv-x="1575" d="M101 745q0 344 184 552t493 208q316 0 497.5 -207t181.5 -553q0 -247 -96 -429t-272 -268l443 -265l-250 -99l-431 301q-25 -2 -71 -2q-309 0 -494 208t-185 554zM337 745q0 -254 121 -403t322 -149q209 0 325 147t116 405q0 257 -117 403.5t-326 146.5q-207 0 -324 -148 t-117 -402z" />
<glyph unicode="R" horiz-adv-x="1244" d="M160 0v1477h412q255 0 392.5 -124t137.5 -337q-2 -155 -78.5 -263.5t-212.5 -156.5l385 -596h-269l-346 561h-196v-561h-225zM385 749h205q140 0 212 74t72 196q0 269 -295 269h-194v-539z" />
<glyph unicode="S" horiz-adv-x="1141" d="M127 1081q0 188 137 297.5t354 109.5q199 0 340 -70v-224q-147 92 -333 92q-121 0 -190 -53.5t-69 -141t68 -140t208 -114.5q92 -40 143.5 -68.5t118 -79.5t99 -122.5t32.5 -163.5q0 -194 -138 -306t-358 -112q-243 0 -403 94v235q173 -130 401 -130q121 0 190.5 55.5 t69.5 155.5q0 59 -41 108t-89.5 74t-145.5 69q-57 27 -80 37.5t-75 39t-77.5 48.5t-63 55t-54 70t-30.5 82t-14 103z" />
<glyph unicode="T" horiz-adv-x="1095" d="M48 1288v189h1000v-189h-389v-1288h-225v1288h-386z" />
<glyph unicode="U" horiz-adv-x="1428" d="M155 548v929h226v-927q0 -188 91 -275t241 -87q335 0 335 373v916h225v-912q0 -287 -149 -435.5t-411 -148.5q-259 0 -408.5 145.5t-149.5 421.5z" />
<glyph unicode="V" horiz-adv-x="1408" d="M67 1477h242l189 -588q61 -188 111 -360t70 -249l22 -79q70 263 211 688l190 588h241l-511 -1477h-267z" />
<glyph unicode="W" horiz-adv-x="2074" d="M67 1477h236l138 -546l161 -692q99 368 193 692l152 524h199l156 -526l199 -695q82 399 151 695l130 548h227l-361 -1477h-270l-140 467l-190 660q-51 -209 -185 -660l-135 -467h-272z" />
<glyph unicode="X" horiz-adv-x="1376" d="M77 0l473 747l-447 730h261l313 -530q17 35 156.5 270.5t153.5 259.5h269l-447 -732l488 -745h-264l-351 554q-20 -37 -169 -280t-166 -274h-270z" />
<glyph unicode="Y" horiz-adv-x="1332" d="M50 1477h259l105 -217q101 -203 162.5 -335t71.5 -162l13 -29q20 65 255 526l107 217h259l-506 -927v-550h-226v550z" />
<glyph unicode="Z" horiz-adv-x="1279" d="M119 0v178l744 1112h-734v187h1002v-173l-748 -1118h778v-186h-1042z" />
<glyph unicode="[" horiz-adv-x="711" d="M160 -408v1957h539v-190h-329v-1576h329v-191h-539z" />
<glyph unicode="\" horiz-adv-x="920" d="M-81 1549h223l796 -1775h-221z" />
<glyph unicode="]" horiz-adv-x="711" d="M15 -217h330v1576h-330v190h537v-1957h-537v191z" />
<glyph unicode="^" horiz-adv-x="1029" d="M90 728l318 574h219l311 -574h-208l-213 416l-216 -416h-211z" />
<glyph unicode="_" horiz-adv-x="1219" d="M57 -77h1106v-184h-1106v184z" />
<glyph unicode="`" horiz-adv-x="972" d="M265 1748h239l209 -354h-184z" />
<glyph unicode="a" horiz-adv-x="1092" d="M94 314q0 160 120.5 248.5t337.5 88.5h184v64q0 113 -54.5 171.5t-181.5 58.5q-178 0 -322 -99v208q129 75 341 75q437 0 437 -424v-705h-213v132q-86 -141 -300 -141q-157 0 -253 91t-96 232zM322 324q0 -77 48 -120.5t140 -43.5q105 0 165.5 58t60.5 152v125h-167 q-123 0 -185 -48t-62 -123z" />
<glyph unicode="b" horiz-adv-x="1274" d="M155 0v1549h217v-606q119 184 336 184q211 0 344.5 -158t133.5 -419q0 -234 -127.5 -399.5t-348.5 -165.5t-338 184v-169h-217zM372 563q0 -197 88 -293.5t215 -96.5q123 0 206 104t83 269q0 188 -83.5 290t-211.5 102q-114 0 -205.5 -92t-91.5 -283z" />
<glyph unicode="c" horiz-adv-x="1031" d="M90 552q0 239 156.5 409t424.5 170q144 0 264 -62v-197q-107 67 -243 69q-173 0 -277 -110t-104 -281q5 -169 103.5 -277t275.5 -108q132 0 245 71v-192q-107 -65 -274 -65q-261 0 -416 164t-155 409z" />
<glyph unicode="d" horiz-adv-x="1270" d="M90 550q0 261 133.5 419t343.5 158q217 0 336 -184v606h217v-1549h-217v169q-117 -184 -340 -184q-220 0 -346.5 165.5t-126.5 399.5zM311 546q0 -167 82 -270t207 -103q128 0 215.5 96.5t87.5 293.5q0 190 -91 282.5t-205 92.5q-130 0 -213 -102t-83 -290z" />
<glyph unicode="e" horiz-adv-x="1150" d="M90 552q0 268 140 420.5t357 152.5q213 0 338 -133t125 -383q0 -68 -13 -142h-730q21 -145 122.5 -221.5t254.5 -76.5q176 0 295 84v-194q-121 -70 -318 -70h-6q-259 0 -412 156t-153 407zM305 636h536v39q-4 125 -67.5 198.5t-181.5 73.5q-109 0 -188.5 -80.5 t-98.5 -230.5z" />
<glyph unicode="f" horiz-adv-x="731" d="M65 945v166h178v85q0 174 93 273.5t262 99.5q62 0 125 -17v-189q-50 22 -105 22q-160 0 -160 -191v-83h234v-166h-234v-945h-215v945h-178z" />
<glyph unicode="g" horiz-adv-x="1224" d="M94 563q0 245 125.5 404.5t330.5 159.5q221 0 322 -189v173h215v-1017q0 -257 -146 -387t-374 -130q-215 0 -360 72v217q140 -92 339 -92q326 0 326 322v115q-107 -180 -322 -180q-188 0 -322 139t-134 393zM320 567q0 -173 80 -262.5t190 -89.5q113 0 197.5 89t84.5 248 q0 197 -79.5 291.5t-194.5 94.5q-129 0 -203.5 -102t-74.5 -269z" />
<glyph unicode="h" horiz-adv-x="1206" d="M151 0v1549h215v-629q94 207 344 207q163 0 261 -101.5t98 -280.5v-745h-214v701q0 113 -58.5 176.5t-152.5 63.5q-109 0 -193.5 -83.5t-84.5 -255.5v-602h-215z" />
<glyph unicode="i" horiz-adv-x="536" d="M134 1451q0 57 38.5 96.5t95 39.5t96 -39.5t39.5 -96.5q0 -55 -39.5 -94.5t-96 -39.5t-95 38.5t-38.5 95.5zM160 0v1111h217v-1111h-217z" />
<glyph unicode="j" horiz-adv-x="529" d="M-96 -215q68 -34 136 -34h4q121 0 121 155v1205h214v-1209q0 -156 -82 -243.5t-234 -87.5h-4q-68 0 -155 32v182zM136 1451q0 57 38.5 96.5t95 39.5t96.5 -39.5t40 -96.5q0 -55 -40 -94.5t-96 -39.5q-55 0 -94.5 38.5t-39.5 95.5z" />
<glyph unicode="k" horiz-adv-x="1095" d="M151 0v1534h215v-1534h-215zM374 581l419 530h252l-422 -530l435 -581h-256z" />
<glyph unicode="l" horiz-adv-x="536" d="M160 0v1549h217v-1549h-217z" />
<glyph unicode="m" horiz-adv-x="1817" d="M151 0v1111h215v-178q94 193 313 194q250 0 320 -215q46 102 134 158.5t197 56.5q171 0 260 -101.5t89 -278.5v-747h-215v701q0 238 -193 240q-96 0 -172 -86t-76 -253v-602h-214v701q0 238 -196 240q-94 0 -170.5 -86t-76.5 -253v-602h-215z" />
<glyph unicode="n" horiz-adv-x="1206" d="M151 0v1111h215v-191q98 207 347 207q164 0 260 -101.5t96 -274.5v-751h-214v701q0 116 -58.5 178t-154.5 62q-113 0 -194.5 -89t-81.5 -250v-602h-215z" />
<glyph unicode="o" d="M90 546q0 249 144.5 415t380.5 166q255 0 393 -161t138 -411t-142 -412t-389 -162q-245 0 -385 160t-140 405zM314 552q0 -165 80.5 -277t220.5 -112q149 0 227 109t78 278q0 173 -75 284t-232 111q-142 0 -220.5 -113t-78.5 -280z" />
<glyph unicode="p" horiz-adv-x="1270" d="M151 -425v1536h215v-170q113 186 342 186q220 0 346.5 -159t126.5 -405q0 -253 -130.5 -415.5t-347.5 -162.5q-221 0 -337 184v-594h-215zM366 559q0 -193 91 -289.5t207 -96.5q130 0 213 102t83 286q0 173 -81.5 275t-206 102t-215.5 -91t-91 -288z" />
<glyph unicode="q" horiz-adv-x="1270" d="M90 563q0 245 128.5 404.5t347 159.5t337.5 -182v166h217v-1536h-217v596q-119 -186 -335.5 -186t-347 163t-130.5 415zM311 561q0 -182 84 -285t212 -103q118 0 207 96.5t89 289.5q0 196 -90 287.5t-213 91.5q-125 0 -207 -103t-82 -274z" />
<glyph unicode="r" horiz-adv-x="742" d="M151 0v1111h215v-195q81 206 291 206q31 0 68 -7v-210q-46 19 -102 19q-112 0 -184.5 -98t-72.5 -234v-592h-215z" />
<glyph unicode="s" horiz-adv-x="918" d="M230 1039q109 83 274 83q180 0 280 -48v-196q-107 64 -276 65q-77 0 -122 -35.5t-45 -92.5q0 -15 4 -29.5t12.5 -28.5t16 -24t25 -21t28 -18.5t33.5 -18.5t33.5 -16.5t38 -17.5t37.5 -16q130 -57 203.5 -128.5t73.5 -189.5q0 -149 -105 -233.5t-285 -84.5q-197 0 -329 66 v204q153 -94 318 -94q86 0 133 34.5t47 91.5q0 48 -37.5 86.5t-76 57.5t-130.5 58q-260 107 -260 314q0 149 109 232z" />
<glyph unicode="t" horiz-adv-x="818" d="M40 945v166h173v271h216v-271h292v-166h-292v-612q0 -160 152 -160h2q90 0 151 48v-192q-73 -40 -178 -40q-344 0 -343 348v608h-173z" />
<glyph unicode="u" horiz-adv-x="1206" d="M138 353v758h217v-705q0 -114 56 -174.5t154 -60.5q125 0 200.5 88t75.5 247v605h215v-1111h-215v190q-88 -203 -346 -203q-164 0 -260.5 97.5t-96.5 268.5z" />
<glyph unicode="v" horiz-adv-x="1125" d="M42 1111h226l150 -469q53 -163 89.5 -281t44.5 -154l9 -38q19 107 144 473l156 469h224l-403 -1111h-245z" />
<glyph unicode="w" horiz-adv-x="1744" d="M42 1111h228l102 -368q51 -176 86 -309t44 -179l8 -46q29 138 145 536l108 366h207l111 -366q52 -182 89 -317t49 -179l8 -42q27 129 149 538l110 366h216l-352 -1111h-246l-102 364q-46 167 -80.5 294.5t-45.5 173.5l-8 44q-31 -142 -134 -512l-101 -364h-242z" />
<glyph unicode="x" horiz-adv-x="1077" d="M48 0l379 565l-354 548h243l232 -392l238 392h242l-371 -550l371 -563h-244l-243 408l-256 -408h-237z" />
<glyph unicode="y" horiz-adv-x="1104" d="M15 1111h240l138 -362l172 -469q19 66 158 469l126 362h227l-401 -1080q-160 -427 -489 -428q-59 0 -100 12v184q35 -9 74 -10q212 1 298 236z" />
<glyph unicode="z" horiz-adv-x="1010" d="M94 0v165l539 766h-520v180h774v-153l-546 -776h575v-182h-822z" />
<glyph unicode="{" horiz-adv-x="761" d="M101 464v211q31 0 54 2q90 9 141 79t51 164q0 46 -20 143.5t-20 153.5q0 153 88 249t214 96q57 0 116 -19v-207q-37 20 -72 21q-61 0 -95.5 -42t-34.5 -108q0 -50 20 -154t20 -166q0 -125 -71 -212.5t-191 -105.5q121 -17 191.5 -106t70.5 -214q0 -61 -20 -164.5 t-20 -151.5q0 -66 34.5 -109t95.5 -43q35 0 72 20v-207q-58 -19 -116 -19q-127 0 -214.5 96.5t-87.5 249.5q0 54 20 152t20 144q0 94 -49 163t-143 82q-19 2 -54 2z" />
<glyph unicode="|" horiz-adv-x="531" d="M167 -425v1948h199v-1948h-199z" />
<glyph unicode="}" horiz-adv-x="761" d="M37 -199q34 -19 70 -20q61 0 96.5 42.5t35.5 109.5q0 48 -20 151.5t-20 164.5q0 125 70 214t191 106q-121 17 -191 105.5t-70 212.5q0 61 20 165.5t20 154.5q0 63 -35 106.5t-97 43.5q-36 -1 -70 -21v207q59 19 114 19q129 0 216 -95t87 -250q0 -55 -20 -153t-20 -144 q0 -94 50.5 -164t142.5 -79q21 -2 54 -2v-211q-37 0 -54 -2q-97 -13 -145 -82t-48 -163q0 -46 20 -144t20 -152q0 -155 -87 -250.5t-216 -95.5q-55 0 -114 19v207z" />
<glyph unicode="~" horiz-adv-x="1347" d="M75 546q151 217 350 217q98 0 188 -36.5t164 -72.5t133 -36q119 -1 207 129l156 -116q-138 -210 -332 -210q-112 0 -262 73t-215 73q-138 0 -245 -144z" />
<glyph unicode="&#xa1;" horiz-adv-x="573" d="M136 984q0 64 42.5 106.5t106.5 42.5t108 -42.5t44 -106.5t-45 -108t-107 -44q-64 0 -106.5 44t-42.5 108zM182 -362v1008h211v-1008h-211z" />
<glyph unicode="&#xa2;" horiz-adv-x="1007" d="M90 552q2 213 128.5 371t344.5 192v237h184v-232q92 -11 173 -51v-193q-105 59 -223 59q-174 0 -278.5 -108t-107.5 -277q5 -167 106.5 -274t279.5 -107q118 0 223 61v-193q-75 -35 -173 -50v-230h-184v232q-217 36 -345 191t-128 372z" />
<glyph unicode="&#xa3;" horiz-adv-x="1154" d="M123 0v180q113 56 157 138.5t44 229.5q0 24 -4 77h-188v164h171q-15 111 -16 177q0 228 121 353t343 125q151 0 257 -59v-210q-105 65 -224 65q-267 0 -267 -274q0 -54 14 -177h385v-164h-368q0 -13 1 -39.5t1 -37.5q0 -259 -163 -362h687v-186h-951z" />
<glyph unicode="&#xa4;" horiz-adv-x="1206" d="M71 285l128 127q-76 110 -76 267q0 145 78 268l-130 132l132 128l132 -131q119 82 274 81q144 0 269 -74l128 124l131 -128l-127 -128q77 -121 77 -263q0 -149 -83 -272l133 -131l-131 -130l-136 132q-114 -77 -270 -76q-157 0 -269 71l-128 -127zM307 683.5 q0 -127.5 84 -214t214 -86.5q131 0 214.5 85.5t83.5 215.5q0 127 -84.5 213.5t-214 86.5t-213.5 -86.5t-84 -214z" />
<glyph unicode="&#xa5;" horiz-adv-x="1313" d="M57 1433h259l335 -657l344 657h256l-354 -640h255v-149h-339l-48 -88v-89h387v-149h-387v-318h-226v318h-386v149h386v89l-48 88h-338v149h255z" />
<glyph unicode="&#xa6;" horiz-adv-x="531" d="M167 -351v730h199v-730h-199zM167 805v729h199v-729h-199z" />
<glyph unicode="&#xa7;" horiz-adv-x="1175" d="M117 651q0 142 94 252q-79 84 -79 203q0 182 133.5 283.5t347.5 101.5q200 0 340 -71v-224q-153 92 -332 92q-123 0 -189 -46t-66 -129q0 -38 13.5 -65t49 -52.5t64 -40t96.5 -46t110 -50.5q83 -39 134.5 -69.5t107.5 -80.5t82.5 -116.5t26.5 -151.5q0 -153 -92 -257 q83 -98 83 -224q0 -188 -135 -291t-356 -103q-243 0 -403 95v234q173 -129 401 -129q125 0 194 49t69 143q0 82 -66 133t-256 135q-178 79 -275 172t-97 253zM335 651q0 -90 69 -142.5t227 -123.5q97 -39 160 -74q41 55 41 132q0 88 -62 138t-205 120q-19 8 -28 14 q-27 10 -77 34.5t-77 36.5q-48 -61 -48 -135z" />
<glyph unicode="&#xa8;" horiz-adv-x="972" d="M111 1575.5q0 57.5 37.5 94.5t96.5 37q57 0 94.5 -38t37.5 -93.5t-37 -93.5t-95 -38q-59 0 -96.5 37t-37.5 94.5zM596 1575.5q0 55.5 37.5 93.5t94 38t95 -37t38.5 -94.5t-38.5 -94.5t-95 -37t-94 38t-37.5 93.5z" />
<glyph unicode="&#xa9;" horiz-adv-x="1691" d="M90 738.5q0 311.5 222.5 534t533.5 222.5t533.5 -222.5t222.5 -534t-222.5 -534.5t-533.5 -223t-533.5 223t-222.5 534.5zM255 736.5q0 -247.5 171.5 -420t422.5 -172.5q247 0 417.5 172.5t170.5 420t-171.5 420.5t-416.5 173q-250 0 -422 -173t-172 -420.5zM489 734 q0 169 109.5 286t296.5 117q102 0 186 -46v-160q-75 48 -174 48q-102 0 -170 -67t-68 -178q2 -105 67.5 -174t168.5 -69q99 0 176 55v-163q-79 -46 -194 -46q-175 0 -286.5 114t-111.5 283z" />
<glyph unicode="&#xaa;" horiz-adv-x="799" d="M9 1125q0 133 102 209.5t286 76.5h153v48q0 97 -46 146t-155 49q-151 0 -270 -81v173q111 63 289 64q188 0 277 -88.5t89 -266.5v-596h-180v116q-85 -125 -251 -124q-134 0 -214 74t-80 200zM197 1131q0 -63 41.5 -99.5t121.5 -36.5q83 0 136.5 49.5t53.5 118.5v112h-125 q-109 0 -168.5 -37t-59.5 -107z" />
<glyph unicode="&#xab;" horiz-adv-x="1121" d="M59 554l328 356h236l-322 -356l322 -355h-236zM487 554l330 356h233l-320 -356l320 -355h-233z" />
<glyph unicode="&#xac;" horiz-adv-x="1237" d="M67 723v184h1085v-572h-190v388h-895z" />
<glyph unicode="&#xad;" horiz-adv-x="766" d="M117 493v184h534v-184h-534z" />
<glyph unicode="&#xae;" horiz-adv-x="1012" d="M21 1243q0 210 137 346t348 136t348 -136t137 -346t-137 -346t-348 -136t-348 136t-137 346zM136 1242.5q0 -166.5 101.5 -269.5t270.5 -103q167 0 268.5 103t101.5 269.5t-101.5 270.5t-268.5 104q-169 0 -270.5 -104t-101.5 -270.5zM357 1016v483h141q184 0 184 -154 q0 -96 -80 -136l123 -193h-123l-104 176h-38v-176h-103zM460 1275h53q63 0 64 70q0 67 -71 68h-46v-138z" />
<glyph unicode="&#xaf;" horiz-adv-x="972" d="M153 1493v148h667v-148h-667z" />
<glyph unicode="&#xb0;" horiz-adv-x="832" d="M65 1140q0 146 102.5 247t251 101t248.5 -99t100 -245q0 -149 -102 -249t-251 -100t-249 98t-100 247zM230 1142q0 -79 54.5 -135t134 -56t131.5 56t52 135t-54.5 134.5t-133.5 55.5t-131.5 -55.5t-52.5 -134.5z" />
<glyph unicode="&#xb1;" d="M117 65v184h1000v-184h-1000zM117 721v186h396v351h200v-351h404v-186h-404v-351h-200v351h-396z" />
<glyph unicode="&#xb2;" horiz-adv-x="799" d="M94 859v125q416 310 416 521q0 73 -42.5 111t-114.5 38q-111 0 -230 -88v174q117 73 245 73q136 0 227 -77.5t91 -215.5q0 -129 -100.5 -263.5t-265.5 -254.5h397v-143h-623z" />
<glyph unicode="&#xb3;" horiz-adv-x="728" d="M77 905v153q117 -61 243 -61q77 0 120 36t43 96q0 136 -207 136h-46v142h46q79 0 129.5 33.5t50.5 98.5q0 125 -145 124q-100 0 -206 -72v162q94 59 215 60q147 0 228 -74t81 -183q0 -88 -46 -143.5t-127 -73.5q83 -9 140 -70.5t57 -155.5q0 -117 -83 -189.5t-233 -72.5 q-151 0 -260 54z" />
<glyph unicode="&#xb4;" horiz-adv-x="972" d="M265 1394l208 354h240l-264 -354h-184z" />
<glyph unicode="&#xb5;" horiz-adv-x="1219" d="M151 -393v1504h215v-705q0 -112 71 -173.5t174 -61.5q117 0 180.5 87t63.5 248v605h214v-1111h-214v157q-79 -171 -274 -170q-125 0 -215 63v-443h-215z" />
<glyph unicode="&#xb6;" horiz-adv-x="1224" d="M46 1102q0 153 113 264t328 111h164v-1801h-180v1056q-201 0 -313 106.5t-112 263.5zM887 -324l2 1801h180v-1801h-182z" />
<glyph unicode="&#xb7;" horiz-adv-x="529" d="M119 657.5q0 61.5 42 104.5t107 43q60 0 103 -43t43 -104.5t-43 -105.5t-103.5 -44t-104.5 44t-44 105.5z" />
<glyph unicode="&#xb8;" horiz-adv-x="972" d="M311 -414q180 11 180 151q0 70 -54 152h184q38 -56 38 -159q0 -123 -89.5 -207t-258.5 -86v149z" />
<glyph unicode="&#xb9;" horiz-adv-x="564" d="M21 1486v164l268 154h136v-945h-164v758z" />
<glyph unicode="&#xba;" horiz-adv-x="864" d="M-2 1324q0 213 118 352t315 139q211 0 324 -136t113 -347q0 -213 -115 -349.5t-322 -136.5q-203 0 -318 134.5t-115 343.5zM186 1328q0 -140 66 -235.5t179 -95.5q121 0 183.5 93t62.5 238q0 146 -59 240.5t-189 94.5q-117 0 -180 -96.5t-63 -238.5z" />
<glyph unicode="&#xbb;" horiz-adv-x="1125" d="M73 199l320 355l-320 356h232l331 -356l-331 -355h-232zM502 199l320 355l-320 356h232l329 -356l-329 -355h-232z" />
<glyph unicode="&#xbc;" horiz-adv-x="1820" d="M107 1242v165l267 151h136v-945h-163v759zM303 0l972 1560h180l-972 -1560h-180zM1028 209v132l339 600h250v-600h129v-132h-129v-209h-160v209h-429zM1192 341h265v476z" />
<glyph unicode="&#xbd;" horiz-adv-x="1824" d="M107 1242v165l267 151h136v-945h-163v759zM303 0l972 1560h180l-972 -1560h-180zM1131 0v125q416 309 416 521q0 73 -42.5 111t-115.5 38q-111 0 -230 -87v173q116 72 246 72q136 0 227 -76.5t91 -215.5q0 -129 -101.5 -263.5t-264.5 -255.5h396v-142h-622z" />
<glyph unicode="&#xbe;" horiz-adv-x="1919" d="M127 659v154q114 -61 243 -62q75 0 119 36.5t44 95.5q0 136 -207 136h-48v140h48q77 0 128.5 35t51.5 99q0 125 -144 125q-106 0 -207 -73v163q94 58 213 58q149 0 230 -73t81 -184q0 -86 -46 -143t-127 -75q81 -6 139 -67.5t58 -155.5q0 -119 -83 -191t-233 -72 q-151 0 -260 54zM423 0l973 1560h182l-976 -1560h-179zM1148 209v132l340 600h250v-600h129v-132h-129v-209h-160v209h-430zM1315 341h263v476z" />
<glyph unicode="&#xbf;" horiz-adv-x="994" d="M111 21q0 130 68 223t157 135t185 48l2 221h205l2 -355q-397 0 -397 -253q0 -103 64.5 -165.5t194.5 -62.5q163 0 324 102v-213q-149 -81 -347 -80q-208 0 -333 106t-125 294zM477 984q0 64 44 106.5t107.5 42.5t106.5 -42.5t43 -106.5t-43 -106.5t-106.5 -42.5 t-107.5 42.5t-44 106.5z" />
<glyph unicode="&#xc0;" horiz-adv-x="1445" d="M67 0l512 1477h295l504 -1477h-241l-116 362h-596l-118 -362h-240zM362 1944h238l209 -355h-184zM487 550h473l-25 75q-83 259 -135.5 428.5t-63.5 211.5l-11 41q-24 -102 -215 -681z" />
<glyph unicode="&#xc1;" horiz-adv-x="1445" d="M67 0l512 1477h295l504 -1477h-241l-116 362h-596l-118 -362h-240zM487 550h473l-25 75q-83 259 -135.5 428.5t-63.5 211.5l-11 41q-24 -102 -215 -681zM653 1589l208 355h239l-263 -355h-184z" />
<glyph unicode="&#xc2;" horiz-adv-x="1445" d="M67 0l512 1477h295l504 -1477h-241l-116 362h-596l-118 -362h-240zM335 1589l296 355h197l297 -355h-213l-184 224l-180 -224h-213zM487 550h473l-25 75q-83 259 -135.5 428.5t-63.5 211.5l-11 41q-24 -102 -215 -681z" />
<glyph unicode="&#xc3;" horiz-adv-x="1445" d="M67 0l512 1477h295l504 -1477h-241l-116 362h-596l-118 -362h-240zM339 1736q31 67 93.5 114.5t136.5 47.5q71 0 163 -45t134 -45q81 0 127 94l122 -92q-77 -162 -239 -162q-63 0 -151.5 45t-124.5 45q-50 0 -83.5 -24t-69.5 -77zM487 550h473l-25 75 q-83 259 -135.5 428.5t-63.5 211.5l-11 41q-24 -102 -215 -681z" />
<glyph unicode="&#xc4;" horiz-adv-x="1445" d="M67 0l512 1477h295l504 -1477h-241l-116 362h-596l-118 -362h-240zM360 1768q0 57 37 94.5t96 37.5q55 0 93.5 -38.5t38.5 -93t-38.5 -93t-93.5 -38.5q-59 0 -96 37t-37 94zM487 550h473l-25 75q-83 259 -135.5 428.5t-63.5 211.5l-11 41q-24 -102 -215 -681zM843 1768.5 q0 54.5 38.5 93t93.5 38.5q56 0 95 -37.5t39 -94.5t-39 -94t-95 -37q-55 0 -93.5 38.5t-38.5 93z" />
<glyph unicode="&#xc5;" horiz-adv-x="1445" d="M67 0l512 1477h295l504 -1477h-241l-116 362h-596l-118 -362h-240zM480 1817q0 105 73.5 179t176.5 74q105 0 179.5 -74t74.5 -179q0 -103 -74.5 -177t-179.5 -74q-103 0 -176.5 74t-73.5 177zM487 550h473l-25 75q-83 259 -135.5 428.5t-63.5 211.5l-11 41 q-24 -102 -215 -681zM613 1821q0 -48 34.5 -84.5t82.5 -36.5q50 0 84.5 36.5t34.5 84.5t-34.5 83t-84.5 35q-48 0 -82.5 -35t-34.5 -83z" />
<glyph unicode="&#xc6;" horiz-adv-x="1965" d="M42 0l801 1477h997v-189h-615v-456h546v-188h-546v-456h627v-188h-846v362h-529l-199 -362h-236zM583 550h423v782q-123 -247 -381 -707z" />
<glyph unicode="&#xc7;" horiz-adv-x="1325" d="M101 740q0 335 211 546t537 211q236 0 378 -81v-222q-96 53 -174 73.5t-198 20.5q-222 0 -370 -149.5t-148 -398.5q0 -252 147 -401t388 -149q213 0 357 111v-228q-135 -90 -376 -90q-331 0 -541.5 206t-210.5 551zM594 -414q180 11 180 151q0 70 -55 152h184 q40 -55 40 -159q0 -123 -90 -207t-259 -86v149z" />
<glyph unicode="&#xc8;" horiz-adv-x="1125" d="M160 0v1477h842v-189h-617v-456h546v-188h-546v-456h627v-188h-852zM270 1944h238l209 -355h-184z" />
<glyph unicode="&#xc9;" horiz-adv-x="1125" d="M160 0v1477h842v-189h-617v-456h546v-188h-546v-456h627v-188h-852zM521 1589l209 355h238l-263 -355h-184z" />
<glyph unicode="&#xca;" horiz-adv-x="1125" d="M160 0v1477h842v-189h-617v-456h546v-188h-546v-456h627v-188h-852zM203 1589l297 355h197l296 -355h-213l-184 224l-180 -224h-213z" />
<glyph unicode="&#xcb;" horiz-adv-x="1125" d="M160 0v1477h842v-189h-617v-456h546v-188h-546v-456h627v-188h-852zM215 1766q0 57 37 94.5t97 37.5q54 0 92.5 -37.5t38.5 -94.5t-38.5 -94t-92.5 -37q-59 0 -96.5 37t-37.5 94zM699 1766q0 57 38.5 94.5t92.5 37.5q57 0 95.5 -37.5t38.5 -94.5t-38.5 -94t-95.5 -37 q-54 0 -92.5 37t-38.5 94z" />
<glyph unicode="&#xcc;" horiz-adv-x="577" d="M-77 1944h240l207 -355h-184zM178 0v1477h223v-1477h-223z" />
<glyph unicode="&#xcd;" horiz-adv-x="577" d="M178 0v1477h223v-1477h-223zM207 1589l207 355h239l-262 -355h-184z" />
<glyph unicode="&#xce;" horiz-adv-x="577" d="M-103 1589l296 355h198l295 -355h-213l-184 224l-180 -224h-212zM178 0v1477h223v-1477h-223z" />
<glyph unicode="&#xcf;" horiz-adv-x="577" d="M-79 1768q0 57 37.5 94.5t96.5 37.5q54 0 92.5 -38.5t38.5 -93t-38.5 -93t-92.5 -38.5q-59 0 -96.5 37t-37.5 94zM178 0v1477h223v-1477h-223zM406 1768.5q0 54.5 38.5 93t92.5 38.5q57 0 95.5 -37.5t38.5 -94.5t-38.5 -94t-95.5 -37q-54 0 -92.5 38.5t-38.5 93z" />
<glyph unicode="&#xd0;" horiz-adv-x="1612" d="M136 644v184h175v649h458q329 0 539 -204t210 -519q0 -328 -198 -541t-546 -213h-463v644h-175zM539 190h232q255 0 386 158t131 406q0 228 -143 379t-380 151h-226v-456h360v-184h-360v-454z" />
<glyph unicode="&#xd1;" horiz-adv-x="1489" d="M160 0v1477h267l364 -618q100 -173 182.5 -319.5t113.5 -206.5l30 -61q-13 199 -13 585v620h226v-1477h-267l-366 615q-99 167 -181 315.5t-115 213.5l-33 63q17 -219 17 -589v-618h-225zM374 1736q32 67 94.5 114.5t136.5 47.5q70 0 162 -45t134 -45q81 0 127 94 l122 -92q-77 -162 -238 -162q-63 0 -152 45t-124 45q-51 0 -85 -24t-68 -77z" />
<glyph unicode="&#xd2;" horiz-adv-x="1557" d="M101 745q0 344 184 552t493 208q316 0 497.5 -207t181.5 -553t-183 -554t-494 -208q-309 0 -494 207.5t-185 554.5zM337 745q0 -254 121 -403t322 -149q209 0 325 147t116 405q0 257 -117 403.5t-326 146.5q-207 0 -324 -148t-117 -402zM445 1944h239l208 -355h-184z" />
<glyph unicode="&#xd3;" horiz-adv-x="1557" d="M101 745q0 344 184 552t493 208q316 0 497.5 -207t181.5 -553t-183 -554t-494 -208q-309 0 -494 207.5t-185 554.5zM337 745q0 -254 121 -403t322 -149q209 0 325 147t116 405q0 257 -117 403.5t-326 146.5q-207 0 -324 -148t-117 -402zM701 1589l209 355h238l-263 -355 h-184z" />
<glyph unicode="&#xd4;" horiz-adv-x="1557" d="M101 745q0 344 184 552t493 208q316 0 497.5 -207t181.5 -553t-183 -554t-494 -208q-309 0 -494 207.5t-185 554.5zM337 745q0 -254 121 -403t322 -149q209 0 325 147t116 405q0 257 -117 403.5t-326 146.5q-207 0 -324 -148t-117 -402zM399 1589l295 355h198l296 -355 h-213l-184 224l-180 -224h-212z" />
<glyph unicode="&#xd5;" horiz-adv-x="1557" d="M101 745q0 344 184 552t493 208q316 0 497.5 -207t181.5 -553t-183 -554t-494 -208q-309 0 -494 207.5t-185 554.5zM337 745q0 -254 121 -403t322 -149q209 0 325 147t116 405q0 257 -117 403.5t-326 146.5q-207 0 -324 -148t-117 -402zM395 1738q31 67 93 114.5 t137 47.5q71 0 162 -45t133 -45q82 0 128 95l123 -92q-77 -163 -240 -163q-63 0 -152 45t-124 45q-50 0 -84 -24t-69 -77z" />
<glyph unicode="&#xd6;" horiz-adv-x="1557" d="M101 745q0 344 184 552t493 208q316 0 497.5 -207t181.5 -553t-183 -554t-494 -208q-309 0 -494 207.5t-185 554.5zM337 745q0 -254 121 -403t322 -149q209 0 325 147t116 405q0 257 -117 403.5t-326 146.5q-207 0 -324 -148t-117 -402zM416 1768q0 57 37.5 94.5 t96.5 37.5q55 0 93.5 -38.5t38.5 -93t-38.5 -93t-93.5 -38.5q-59 0 -96.5 37t-37.5 94zM901 1768.5q0 54.5 38 93t94 38.5t94.5 -37.5t38.5 -94.5t-38.5 -94t-94.5 -37q-55 0 -93.5 38.5t-38.5 93z" />
<glyph unicode="&#xd7;" horiz-adv-x="1102" d="M119 1037l138 138l291 -290l291 290l140 -140l-291 -290l287 -285l-138 -138l-287 285l-285 -283l-140 138l285 285z" />
<glyph unicode="&#xd8;" horiz-adv-x="1502" d="M88 -17l169 228q-169 206 -169 534q0 344 184 552t495 208q215 0 377 -102l77 100h228l-167 -225q165 -207 165 -533q0 -347 -183 -554.5t-495 -207.5q-215 0 -374 105l-79 -105h-228zM320 745q0 -206 79 -346l617 833q-98 72 -249 72q-208 0 -327.5 -150t-119.5 -409z M521 259q105 -75 248 -75q211 0 328 150.5t117 410.5q0 206 -74 344z" />
<glyph unicode="&#xd9;" horiz-adv-x="1428" d="M155 548v929h226v-927q0 -188 91 -275t241 -87q335 0 335 373v916h225v-912q0 -287 -149 -435.5t-411 -148.5q-259 0 -408.5 145.5t-149.5 421.5zM368 1944h239l208 -355h-184z" />
<glyph unicode="&#xda;" horiz-adv-x="1428" d="M155 548v929h226v-927q0 -188 91 -275t241 -87q335 0 335 373v916h225v-912q0 -287 -149 -435.5t-411 -148.5q-259 0 -408.5 145.5t-149.5 421.5zM651 1589l208 355h239l-263 -355h-184z" />
<glyph unicode="&#xdb;" horiz-adv-x="1428" d="M155 548v929h226v-927q0 -188 91 -275t241 -87q335 0 335 373v916h225v-912q0 -287 -149 -435.5t-411 -148.5q-259 0 -408.5 145.5t-149.5 421.5zM322 1589l296 355h197l296 -355h-212l-184 224l-180 -224h-213z" />
<glyph unicode="&#xdc;" horiz-adv-x="1428" d="M155 548v929h226v-927q0 -188 91 -275t241 -87q335 0 335 373v916h225v-912q0 -287 -149 -435.5t-411 -148.5q-259 0 -408.5 145.5t-149.5 421.5zM345 1768q0 57 36.5 94.5t95.5 37.5q57 0 94.5 -38.5t37.5 -93t-37 -93t-95 -38.5q-59 0 -95.5 37t-36.5 94zM828 1768.5 q0 54.5 37.5 93t94 38.5t95.5 -37.5t39 -94.5t-39 -94t-95.5 -37t-94 38.5t-37.5 93z" />
<glyph unicode="&#xdd;" horiz-adv-x="1332" d="M50 1477h259l105 -217q101 -203 162.5 -335t71.5 -162l13 -29q20 65 255 526l107 217h259l-506 -927v-550h-226v550zM609 1589l208 355h239l-263 -355h-184z" />
<glyph unicode="&#xde;" horiz-adv-x="1191" d="M160 0v1477h225v-263h187q262 0 407.5 -132.5t145.5 -347.5q0 -213 -147.5 -342t-392.5 -129h-200v-263h-225zM385 449h196q157 0 236.5 78t79.5 203q0 133 -80.5 215.5t-249.5 82.5h-182v-579z" />
<glyph unicode="&#xdf;" horiz-adv-x="1221" d="M155 0v1065q0 219 119 333t324 114q184 0 299 -101.5t115 -247.5q0 -92 -39.5 -163t-77.5 -120.5t-38 -91t48 -87.5t105 -86t105 -120.5t48 -180.5q0 -147 -100.5 -239t-276.5 -92q-128 -1 -207 34v198q94 -52 197 -52q81 0 130.5 39t49.5 105q0 53 -33.5 97.5 t-81.5 80.5t-96 74.5t-81 92t-33 119.5q0 88 81 198t81 184t-52.5 119t-140.5 45q-232 0 -232 -243v-1074h-213z" />
<glyph unicode="&#xe0;" horiz-adv-x="1092" d="M94 314q0 160 120.5 248.5t337.5 88.5h184v64q0 113 -54.5 171.5t-181.5 58.5q-178 0 -322 -99v208q129 75 341 75q437 0 437 -424v-705h-213v132q-86 -141 -300 -141q-157 0 -253 91t-96 232zM213 1578h239l207 -355h-184zM322 324q0 -77 48 -120.5t140 -43.5 q105 0 165.5 58t60.5 152v125h-167q-123 0 -185 -48t-62 -123z" />
<glyph unicode="&#xe1;" horiz-adv-x="1092" d="M94 314q0 160 120.5 248.5t337.5 88.5h184v64q0 113 -54.5 171.5t-181.5 58.5q-178 0 -322 -99v208q129 75 341 75q437 0 437 -424v-705h-213v132q-86 -141 -300 -141q-157 0 -253 91t-96 232zM322 324q0 -77 48 -120.5t140 -43.5q105 0 165.5 58t60.5 152v125h-167 q-123 0 -185 -48t-62 -123zM471 1223l208 355h239l-263 -355h-184z" />
<glyph unicode="&#xe2;" horiz-adv-x="1092" d="M94 314q0 160 120.5 248.5t337.5 88.5h184v64q0 113 -54.5 171.5t-181.5 58.5q-178 0 -322 -99v208q129 75 341 75q437 0 437 -424v-705h-213v132q-86 -141 -300 -141q-157 0 -253 91t-96 232zM165 1223l295 355h197l296 -355h-213l-184 224l-179 -224h-212zM322 324 q0 -77 48 -120.5t140 -43.5q105 0 165.5 58t60.5 152v125h-167q-123 0 -185 -48t-62 -123z" />
<glyph unicode="&#xe3;" horiz-adv-x="1092" d="M94 314q0 160 120.5 248.5t337.5 88.5h184v64q0 113 -54.5 171.5t-181.5 58.5q-178 0 -322 -99v208q129 75 341 75q437 0 437 -424v-705h-213v132q-86 -141 -300 -141q-157 0 -253 91t-96 232zM165 1370q31 67 93 114.5t137 47.5q70 0 161.5 -45t133.5 -45q81 0 127 95 l124 -93q-78 -162 -240 -162q-63 0 -152 45t-124 45q-51 0 -84.5 -24t-68.5 -77zM322 324q0 -77 48 -120.5t140 -43.5q105 0 165.5 58t60.5 152v125h-167q-123 0 -185 -48t-62 -123z" />
<glyph unicode="&#xe4;" horiz-adv-x="1092" d="M94 314q0 160 120.5 248.5t337.5 88.5h184v64q0 113 -54.5 171.5t-181.5 58.5q-178 0 -322 -99v208q129 75 341 75q437 0 437 -424v-705h-213v132q-86 -141 -300 -141q-157 0 -253 91t-96 232zM186 1398q0 57 37.5 94.5t96.5 37.5q57 0 94.5 -37.5t37.5 -94.5t-37.5 -94 t-94.5 -37q-59 0 -96.5 37t-37.5 94zM322 324q0 -77 48 -120.5t140 -43.5q105 0 165.5 58t60.5 152v125h-167q-123 0 -185 -48t-62 -123zM671 1398q0 57 37 94.5t94 37.5t95 -37.5t38 -94.5t-38 -94t-95 -37t-94 37t-37 94z" />
<glyph unicode="&#xe5;" horiz-adv-x="1092" d="M94 314q0 160 120.5 248.5t337.5 88.5h184v64q0 113 -54.5 171.5t-181.5 58.5q-178 0 -322 -99v208q129 75 341 75q437 0 437 -424v-705h-213v132q-86 -141 -300 -141q-157 0 -253 91t-96 232zM311 1451q0 105 73.5 179.5t176.5 74.5q105 0 179.5 -74.5t74.5 -179.5 q0 -103 -74.5 -176.5t-179.5 -73.5q-103 0 -176.5 73.5t-73.5 176.5zM322 324q0 -77 48 -120.5t140 -43.5q105 0 165.5 58t60.5 152v125h-167q-123 0 -185 -48t-62 -123zM445 1455q0 -48 34 -84.5t82 -36.5q50 0 84 36.5t34 84.5t-34 83t-84 35q-48 0 -82 -35t-34 -83z" />
<glyph unicode="&#xe6;" horiz-adv-x="1787" d="M105 314q0 160 122 249.5t340 89.5h180v62q0 113 -54.5 171.5t-182.5 58.5q-175 0 -322 -96v203q128 77 333 77q274 0 351 -186q123 182 372 182q218 0 337 -134t119 -389q0 -61 -13 -135h-725q25 -145 124.5 -221.5t243.5 -76.5q175 0 294 84v-194q-123 -71 -313 -70 q-138 0 -260 58t-185 164q-42 -97 -141.5 -159.5t-251.5 -62.5q-169 0 -268.5 88t-99.5 237zM331 322q0 -75 48 -117t142 -42q96 0 161 59.5t65 160.5v110h-147q-269 0 -269 -171zM958 636h535v39q-2 130 -68 201t-178 71q-110 0 -190 -79t-99 -232z" />
<glyph unicode="&#xe7;" horiz-adv-x="1031" d="M90 552q0 239 156.5 409t424.5 170q144 0 264 -62v-197q-107 67 -243 69q-173 0 -277 -110t-104 -281q5 -169 103.5 -277t275.5 -108q132 0 245 71v-192q-107 -65 -274 -65q-261 0 -416 164t-155 409zM414 -414q180 11 180 151q0 70 -55 152h184q40 -56 40 -159 q0 -123 -90 -207t-259 -86v149z" />
<glyph unicode="&#xe8;" horiz-adv-x="1150" d="M90 552q0 268 140 420.5t357 152.5q213 0 338 -133t125 -383q0 -68 -13 -142h-730q21 -145 122.5 -221.5t254.5 -76.5q176 0 295 84v-194q-123 -71 -324 -70q-259 0 -412 156t-153 407zM263 1578h239l208 -355h-184zM305 636h536v39q-4 125 -67.5 198.5t-181.5 73.5 q-109 0 -188.5 -80.5t-98.5 -230.5z" />
<glyph unicode="&#xe9;" horiz-adv-x="1150" d="M90 552q0 268 140 420.5t357 152.5q213 0 338 -133t125 -383q0 -68 -13 -142h-730q21 -145 122.5 -221.5t254.5 -76.5q176 0 295 84v-194q-123 -71 -324 -70q-259 0 -412 156t-153 407zM305 636h536v39q-4 125 -67.5 198.5t-181.5 73.5q-109 0 -188.5 -80.5t-98.5 -230.5 zM535 1223l208 355h239l-263 -355h-184z" />
<glyph unicode="&#xea;" horiz-adv-x="1150" d="M90 552q0 268 140 420.5t357 152.5q213 0 338 -133t125 -383q0 -68 -13 -142h-730q21 -145 122.5 -221.5t254.5 -76.5q176 0 295 84v-194q-123 -71 -324 -70q-259 0 -412 156t-153 407zM215 1223l295 355h198l296 -355h-213l-184 224l-180 -224h-212zM305 636h536v39 q-4 125 -67.5 198.5t-181.5 73.5q-109 0 -188.5 -80.5t-98.5 -230.5z" />
<glyph unicode="&#xeb;" horiz-adv-x="1150" d="M90 552q0 268 140 420.5t357 152.5q213 0 338 -133t125 -383q0 -68 -13 -142h-730q21 -145 122.5 -221.5t254.5 -76.5q176 0 295 84v-194q-123 -71 -324 -70q-259 0 -412 156t-153 407zM243 1402q0 57 37.5 94.5t96.5 37.5q56 0 93.5 -37.5t37.5 -94.5t-37.5 -94 t-93.5 -37q-59 0 -96.5 37t-37.5 94zM305 636h536v39q-4 125 -67.5 198.5t-181.5 73.5q-109 0 -188.5 -80.5t-98.5 -230.5zM728 1402q0 57 37 94.5t94 37.5t95.5 -37.5t38.5 -94.5t-38.5 -94t-95.5 -37t-94 37t-37 94z" />
<glyph unicode="&#xec;" horiz-adv-x="536" d="M-101 1578h239l209 -355h-184zM160 0v1111h217v-1111h-217z" />
<glyph unicode="&#xed;" horiz-adv-x="536" d="M160 0v1111h217v-1111h-217zM193 1223l208 355h239l-263 -355h-184z" />
<glyph unicode="&#xee;" horiz-adv-x="536" d="M-123 1223l296 355h197l297 -355h-213l-184 224l-180 -224h-213zM160 0v1111h217v-1111h-217z" />
<glyph unicode="&#xef;" horiz-adv-x="536" d="M-105 1405q0 57 37 94.5t97 37.5q54 0 92.5 -39t38.5 -93.5t-38.5 -93t-92.5 -38.5q-59 0 -96.5 37.5t-37.5 94.5zM160 0v1111h217v-1111h-217zM379 1404.5q0 54.5 38.5 93.5t92.5 39q57 0 95.5 -37.5t38.5 -94.5t-38.5 -94.5t-95.5 -37.5q-54 0 -92.5 38.5t-38.5 93z " />
<glyph unicode="&#xf0;" horiz-adv-x="1156" d="M81 445q0 203 126 323.5t310 120.5q190 0 320 -135q-38 218 -178 405l-308 -155v146l218 110q-125 128 -284 217h311q81 -55 151 -127l263 131v-147l-175 -87q223 -294 223 -645q0 -295 -131.5 -458t-365.5 -163q-218 0 -349 136t-131 328zM305 434q0 -118 71 -188.5 t185 -70.5q116 0 195 88t90 285q-118 151 -296 151q-109 0 -177 -70t-68 -195z" />
<glyph unicode="&#xf1;" horiz-adv-x="1206" d="M151 0v1111h215v-191q98 207 347 207q164 0 260 -101.5t96 -274.5v-751h-214v701q0 116 -58.5 178t-154.5 62q-113 0 -194.5 -89t-81.5 -250v-602h-215zM232 1370q31 67 93 114.5t137 47.5q71 0 163 -45t134 -45q80 0 126 95l123 -93q-77 -162 -239 -162q-63 0 -151.5 45 t-124.5 45q-50 0 -84.5 -24t-69.5 -77z" />
<glyph unicode="&#xf2;" d="M90 546q0 249 144.5 415t380.5 166q255 0 393 -161t138 -411t-142 -412t-389 -162q-245 0 -385 160t-140 405zM274 1578h239l208 -355h-184zM314 552q0 -165 80.5 -277t220.5 -112q149 0 227 109t78 278q0 173 -75 284t-232 111q-142 0 -220.5 -113t-78.5 -280z" />
<glyph unicode="&#xf3;" d="M90 546q0 249 144.5 415t380.5 166q255 0 393 -161t138 -411t-142 -412t-389 -162q-245 0 -385 160t-140 405zM314 552q0 -165 80.5 -277t220.5 -112q149 0 227 109t78 278q0 173 -75 284t-232 111q-142 0 -220.5 -113t-78.5 -280zM552 1223l209 355h238l-263 -355h-184z " />
<glyph unicode="&#xf4;" d="M90 546q0 249 144.5 415t380.5 166q255 0 393 -161t138 -411t-142 -412t-389 -162q-245 0 -385 160t-140 405zM230 1221l296 355h197l296 -355h-212l-184 223l-180 -223h-213zM314 552q0 -165 80.5 -277t220.5 -112q149 0 227 109t78 278q0 173 -75 284t-232 111 q-142 0 -220.5 -113t-78.5 -280z" />
<glyph unicode="&#xf5;" d="M90 546q0 249 144.5 415t380.5 166q255 0 393 -161t138 -411t-142 -412t-389 -162q-245 0 -385 160t-140 405zM236 1370q32 67 94.5 114.5t136.5 47.5q70 0 162 -45t134 -45q80 0 126 95l123 -93q-77 -162 -238 -162q-64 0 -152.5 45t-123.5 45q-51 0 -85 -24t-68 -77z M314 552q0 -165 80.5 -277t220.5 -112q149 0 227 109t78 278q0 173 -75 284t-232 111q-142 0 -220.5 -113t-78.5 -280z" />
<glyph unicode="&#xf6;" d="M90 546q0 249 144.5 415t380.5 166q255 0 393 -161t138 -411t-142 -412t-389 -162q-245 0 -385 160t-140 405zM263 1400q0 57 37 94.5t97 37.5q55 0 93.5 -38.5t38.5 -93.5t-38.5 -93t-93.5 -38q-59 0 -96.5 37t-37.5 94zM314 552q0 -165 80.5 -277t220.5 -112 q149 0 227 109t78 278q0 173 -75 284t-232 111q-142 0 -220.5 -113t-78.5 -280zM747 1400q0 55 38.5 93.5t92.5 38.5q57 0 95.5 -37.5t38.5 -94.5t-38.5 -94t-95.5 -37q-54 0 -92.5 38t-38.5 93z" />
<glyph unicode="&#xf7;" d="M117 648v193h1000v-193h-1000zM485 355.5q0 52.5 38 92t91 39.5t91 -39.5t38 -92t-38 -91t-91 -38.5t-91 38.5t-38 91zM485 1135.5q0 52.5 38 91t91 38.5t91 -38.5t38 -91t-38 -92t-91 -39.5t-91 39.5t-38 92z" />
<glyph unicode="&#xf8;" horiz-adv-x="1233" d="M109 -19l130 172q-130 155 -130 393q0 249 145 415t382 166q160 0 276 -69l50 69h206l-129 -174q129 -155 129 -399q0 -249 -142.5 -411t-389.5 -162q-156 0 -272 67l-50 -67h-205zM314 552q0 -129 50 -230l443 596q-71 46 -171 46q-153 0 -237.5 -118t-84.5 -294z M471 193q70 -51 167 -51q157 0 240.5 115t83.5 293q0 144 -46 239z" />
<glyph unicode="&#xf9;" horiz-adv-x="1206" d="M138 353v758h217v-705q0 -114 56 -174.5t154 -60.5q125 0 200.5 88t75.5 247v605h215v-1111h-215v190q-88 -203 -346 -203q-164 0 -260.5 97.5t-96.5 268.5zM249 1576h240l208 -355h-184z" />
<glyph unicode="&#xfa;" horiz-adv-x="1206" d="M138 353v758h217v-705q0 -114 56 -174.5t154 -60.5q125 0 200.5 88t75.5 247v605h215v-1111h-215v190q-88 -203 -346 -203q-164 0 -260.5 97.5t-96.5 268.5zM526 1223l208 355h239l-263 -355h-184z" />
<glyph unicode="&#xfb;" horiz-adv-x="1206" d="M138 353v758h217v-705q0 -114 56 -174.5t154 -60.5q125 0 200.5 88t75.5 247v605h215v-1111h-215v190q-88 -203 -346 -203q-164 0 -260.5 97.5t-96.5 268.5zM209 1223l295 355h197l296 -355h-213l-184 224l-179 -224h-212z" />
<glyph unicode="&#xfc;" horiz-adv-x="1206" d="M138 353v758h217v-705q0 -114 56 -174.5t154 -60.5q125 0 200.5 88t75.5 247v605h215v-1111h-215v190q-88 -203 -346 -203q-164 0 -260.5 97.5t-96.5 268.5zM228 1400q0 57 37.5 94.5t96.5 37.5q54 0 92.5 -38.5t38.5 -93.5t-38.5 -93t-92.5 -38q-59 0 -96.5 37t-37.5 94 zM713 1400q0 55 38 93.5t92 38.5q57 0 95.5 -37.5t38.5 -94.5t-38.5 -94t-95.5 -37q-54 0 -92 38t-38 93z" />
<glyph unicode="&#xfd;" horiz-adv-x="1104" d="M15 1111h240l138 -362l172 -469q19 66 158 469l126 362h227l-401 -1080q-160 -427 -489 -428q-59 0 -100 12v184q35 -9 74 -10q212 1 298 236zM489 1223l208 355h238l-262 -355h-184z" />
<glyph unicode="&#xfe;" horiz-adv-x="1270" d="M151 -425v1974h215v-608q113 186 342 186q220 0 346.5 -159t126.5 -405q0 -253 -130.5 -415.5t-347.5 -162.5q-221 0 -337 184v-594h-215zM366 559q0 -193 91 -289.5t207 -96.5q130 0 213 102t83 286q0 173 -81.5 275t-206 102t-215.5 -91t-91 -288z" />
<glyph unicode="&#xff;" horiz-adv-x="1104" d="M15 1111h240l138 -362l172 -469q19 66 158 469l126 362h227l-401 -1080q-160 -427 -489 -428q-59 0 -100 12v184q35 -9 74 -10q212 1 298 236zM197 1400q0 57 37.5 94.5t96.5 37.5q54 0 92.5 -38.5t38.5 -93.5t-38.5 -93t-92.5 -38q-59 0 -96.5 37t-37.5 94zM682 1400 q0 55 38.5 93.5t92.5 38.5q57 0 95.5 -37.5t38.5 -94.5t-38.5 -94t-95.5 -37q-54 0 -92.5 38t-38.5 93z" />
<glyph unicode="&#x152;" horiz-adv-x="2164" d="M101 745q0 346 178.5 553t487.5 207q266 0 434 -173v145h842v-189h-627v-456h556v-188h-556v-456h637v-188h-852v157q-172 -175 -432 -174q-307 0 -487.5 208t-180.5 554zM337 745.5q0 -256.5 116.5 -404.5t315.5 -148q207 0 319.5 147t112.5 405.5t-113 404t-321 145.5 q-203 0 -316.5 -146.5t-113.5 -403z" />
<glyph unicode="&#x153;" horiz-adv-x="1947" d="M90 546q0 252 139 416.5t373 164.5q268 0 404 -200q144 197 395 198q217 0 336 -134t119 -389q0 -61 -13 -135h-728q25 -143 125.5 -220.5t247.5 -77.5q175 0 294 84v-194q-128 -71 -323 -70q-291 0 -447 204q-140 -213 -410 -212q-242 0 -377 160t-135 405zM314 552 q0 -167 75 -278t213 -111q147 0 221 108t74 279q0 175 -69 285t-226 110q-142 0 -215 -112t-73 -281zM1113 636h535v48q-4 125 -70 194t-175.5 69t-189.5 -79t-100 -232z" />
<glyph unicode="&#x178;" horiz-adv-x="1332" d="M50 1477h259l105 -217q101 -203 162.5 -335t71.5 -162l13 -29q20 65 255 526l107 217h259l-506 -927v-550h-226v550zM299 1766q0 57 36.5 94.5t95.5 37.5q55 0 93.5 -37.5t38.5 -94.5t-38.5 -94t-93.5 -37q-59 0 -95.5 37t-36.5 94zM782 1766q0 57 38.5 94.5t93.5 37.5 q56 0 95 -37.5t39 -94.5t-39 -94t-95 -37q-55 0 -93.5 37t-38.5 94z" />
<glyph unicode="&#x2c6;" horiz-adv-x="972" d="M92 1394l295 354h198l296 -354h-212l-184 223l-180 -223h-213z" />
<glyph unicode="&#x2dc;" horiz-adv-x="972" d="M111 1505q31 68 94 115.5t136 47.5q71 0 163 -45t134 -45q81 0 127 94l122 -92q-77 -162 -239 -162q-63 0 -151.5 45t-124.5 45q-50 0 -83.5 -24.5t-69.5 -76.5z" />
<glyph unicode="&#x2000;" horiz-adv-x="1035" />
<glyph unicode="&#x2001;" horiz-adv-x="2070" />
<glyph unicode="&#x2002;" horiz-adv-x="1035" />
<glyph unicode="&#x2003;" horiz-adv-x="2070" />
<glyph unicode="&#x2004;" horiz-adv-x="690" />
<glyph unicode="&#x2005;" horiz-adv-x="517" />
<glyph unicode="&#x2006;" horiz-adv-x="345" />
<glyph unicode="&#x2007;" horiz-adv-x="345" />
<glyph unicode="&#x2008;" horiz-adv-x="258" />
<glyph unicode="&#x2009;" horiz-adv-x="414" />
<glyph unicode="&#x200a;" horiz-adv-x="115" />
<glyph unicode="&#x2010;" horiz-adv-x="766" d="M117 493v184h534v-184h-534z" />
<glyph unicode="&#x2011;" horiz-adv-x="766" d="M117 493v184h534v-184h-534z" />
<glyph unicode="&#x2012;" horiz-adv-x="766" d="M117 493v184h534v-184h-534z" />
<glyph unicode="&#x2013;" horiz-adv-x="1191" d="M117 506v171h959v-171h-959z" />
<glyph unicode="&#x2014;" horiz-adv-x="1809" d="M117 510v172h1577v-172h-1577z" />
<glyph unicode="&#x2018;" horiz-adv-x="448" d="M35 1008l272 515h178l-196 -515h-254z" />
<glyph unicode="&#x2019;" horiz-adv-x="450" d="M37 1008l193 515h257l-274 -515h-176z" />
<glyph unicode="&#x201a;" horiz-adv-x="450" d="M-2 -272l195 513h254l-272 -513h-177z" />
<glyph unicode="&#x201c;" horiz-adv-x="790" d="M35 1008l279 515h171l-198 -515h-252zM395 1008l258 515h173l-190 -515h-241z" />
<glyph unicode="&#x201d;" horiz-adv-x="790" d="M37 1008l189 515h241l-258 -515h-172zM377 1008l198 515h251l-276 -515h-173z" />
<glyph unicode="&#x201e;" horiz-adv-x="790" d="M2 -272l191 513h238l-256 -513h-173zM345 -272l196 513h252l-278 -513h-170z" />
<glyph unicode="&#x2022;" horiz-adv-x="968" d="M193 780q0 125 82 208t208 83q123 0 207 -84t84 -207t-83.5 -207t-205.5 -84q-125 0 -208.5 83t-83.5 208z" />
<glyph unicode="&#x2026;" horiz-adv-x="1715" d="M94 132q0 61 43 103.5t106 42.5q61 0 104.5 -42.5t43.5 -103.5t-43 -105t-105 -44q-63 0 -106 44t-43 105zM710 132q0 61 42.5 103.5t106.5 42.5q61 0 104 -42.5t43 -103.5t-43 -105t-104.5 -44t-105 44t-43.5 105zM1326 132q0 61 42.5 103.5t105.5 42.5 q61 0 104.5 -42.5t43.5 -103.5t-42.5 -105t-105.5 -44t-105.5 44t-42.5 105z" />
<glyph unicode="&#x202f;" horiz-adv-x="414" />
<glyph unicode="&#x2039;" horiz-adv-x="700" d="M61 554l332 356h232l-320 -356l320 -355h-232z" />
<glyph unicode="&#x203a;" horiz-adv-x="696" d="M77 199l320 355l-320 356h232l331 -356l-331 -355h-232z" />
<glyph unicode="&#x205f;" horiz-adv-x="517" />
<glyph unicode="&#x20ac;" horiz-adv-x="1313" d="M105 471v147h194q-5 57 -6 90q0 38 6 107h-194v147h219q63 230 228 358.5t383 128.5q179 -1 292 -62v-212q-105 67 -261 67q-142 0 -247.5 -72t-155.5 -208h426v-147h-460q-7 -52 -8 -110q0 -31 5 -87h463v-147h-430q50 -138 155.5 -212.5t241.5 -74.5q162 0 271 73v-215 q-113 -59 -296 -59q-224 0 -387 131t-222 357h-217z" />
<glyph unicode="&#x2122;" horiz-adv-x="1557" d="M9 1341v136h528v-136h-184v-618h-154v618h-190zM607 725l62 752h184l111 -311q27 -72 48 -136t27 -92l6 -26q29 92 90 254l116 311h186l64 -752h-151l-24 314l-7 260q-19 -86 -85 -262l-114 -299h-145l-105 299l-84 262q5 -92 -6 -262l-19 -312h-154z" />
<glyph unicode="&#x25fc;" horiz-adv-x="1117" d="M0 0v1117h1117v-1117h-1117z" />
<glyph unicode="&#xfb03;" horiz-adv-x="1838" d="M65 945v166h178v85q0 176 95.5 274.5t272.5 98.5q165 0 322 -76q94 77 244 76q173 0 335 -81v-186q-178 84 -316 83q-167 0 -166 -191v-83h572v-1111h-215v945h-357v-945h-215v945h-357v-945h-215v945h-178zM458 1111h357v85q0 79 20 145q-112 44 -204 44 q-173 0 -173 -191v-83z" />
<glyph unicode="&#xfb04;" horiz-adv-x="1744" d="M65 945v166h178v85q0 176 95.5 274.5t272.5 98.5q169 0 322 -78q88 79 244 78q195 0 416 -116v-1453h-217v1355q-88 31 -169 30q-83 0 -128.5 -43t-45.5 -148v-83h232v-166h-232v-945h-216v945h-359v-945h-215v945h-178zM458 1111h359v85q0 79 20 145q-112 44 -206 44 q-173 0 -173 -191v-83z" />
</font>
</defs>
</svg>
