<?xml version="1.0" standalone="no"?>
<!DOCTYPE svg PUBLIC "-//W3C//DTD SVG 1.1//EN" "http://www.w3.org/Graphics/SVG/1.1/DTD/svg11.dtd" >
<svg xmlns="http://www.w3.org/2000/svg" xmlns:xlink="http://www.w3.org/1999/xlink" version="1.1">
<metadata></metadata>
<defs>
<font id="hindlight" horiz-adv-x="1158" >
<font-face units-per-em="2048" ascent="1638" descent="-410" />
<missing-glyph horiz-adv-x="529" />
<glyph unicode="&#xfb01;" horiz-adv-x="1090" d="M65 997v114h205v118q0 151 79.5 241t231.5 90q144 0 274 -69v-132q-142 75 -280 74q-172 0 -172 -206v-116h521v-1111h-133v997h-388v-997h-133v997h-205z" />
<glyph unicode="&#xfb02;" horiz-adv-x="1068" d="M65 997v114h205v118q0 153 79.5 242t229.5 89q171 0 324 -98v-1462h-134v1391q-102 42 -184 42q-182 0 -182 -206v-116h254v-114h-254v-997h-133v997h-205z" />
<glyph horiz-adv-x="0" />
<glyph horiz-adv-x="682" />
<glyph horiz-adv-x="0" />
<glyph horiz-adv-x="0" />
<glyph unicode="&#xd;" horiz-adv-x="728" />
<glyph unicode=" "  horiz-adv-x="529" />
<glyph unicode="&#x09;" horiz-adv-x="529" />
<glyph unicode="&#xa0;" horiz-adv-x="529" />
<glyph unicode="!" horiz-adv-x="527" d="M151 92q0 46 32 78.5t78 32.5q48 0 80.5 -32.5t32.5 -78.5q0 -48 -32.5 -78.5t-80.5 -30.5t-79 30.5t-31 78.5zM197 429v1048h134v-1048h-134z" />
<glyph unicode="&#x22;" horiz-adv-x="593" d="M98 989v504h126v-504h-126zM370 989v504h125v-504h-125z" />
<glyph unicode="#" horiz-adv-x="1526" d="M121 381v112h266l104 491h-242v112h266l79 381h129l-81 -381h416l82 381h125l-79 -381h221v-112h-246l-103 -491h224v-112h-247l-79 -381h-130l81 381h-416l-81 -381h-125l79 381h-243zM515 493h416l104 491h-417z" />
<glyph unicode="$" horiz-adv-x="1099" d="M127 1096q0 177 121.5 280t301.5 115v220h121v-225q134 -16 224 -62v-151q-53 36 -138.5 60t-166.5 24q-147 0 -234.5 -69t-87.5 -184q0 -59 25 -106t73 -81t99.5 -60.5t121.5 -56.5q25 -8 38 -16q81 -35 132.5 -64.5t108 -76.5t85 -113t28.5 -149q0 -182 -117 -283.5 t-303 -112.5v-219h-120v223q-174 13 -307 92v151q65 -50 169.5 -82.5t211.5 -32.5q155 0 241.5 68t86.5 194q0 59 -25 106.5t-74.5 81t-100.5 59t-124 56.5q-7 2 -11 4t-10.5 4t-10.5 4q-82 36 -133 64t-109.5 76.5t-87 113t-28.5 148.5z" />
<glyph unicode="%" horiz-adv-x="1783" d="M109 1117.5q0 135.5 97 232.5t233 97t232 -97t96 -232.5t-96 -232t-232 -96.5t-233 96.5t-97 232zM232 1118q0 -85 60.5 -145.5t145.5 -60.5t145.5 60.5t60.5 145.5t-60.5 145.5t-145.5 60.5t-145.5 -60.5t-60.5 -145.5zM439 -2l770 1435h136l-773 -1435h-133z M1016 313.5q0 135.5 96.5 232t232.5 96.5t233 -97.5t97 -230.5q0 -136 -97 -232.5t-233 -96.5t-232.5 96.5t-96.5 232zM1140 313.5q0 -85.5 60 -146t145.5 -60.5t146 60.5t60.5 146t-60.5 145.5t-146 60t-145.5 -60t-60 -145.5z" />
<glyph unicode="&#x26;" horiz-adv-x="1518" d="M151 381q0 129 90 219t263 163q-117 123 -164 210t-47 184q0 157 106.5 257t288.5 100q173 0 284 -108.5t111 -261.5q0 -128 -83.5 -228.5t-278.5 -185.5q123 -112 416 -381q53 92 66 218h133q-19 -178 -100 -308l280 -259h-192l-169 157q-172 -175 -471 -174 q-235 0 -384 110t-149 288zM291 381q0 -123 108.5 -195.5t277.5 -72.5q237 0 381 134q-438 401 -462 426q-153 -65 -229 -129t-76 -163zM437 1155q0 -75 36.5 -144.5t153.5 -190.5q165 75 240.5 149t75.5 177q0 98 -67 167t-192 69q-109 0 -178 -59.5t-69 -167.5z" />
<glyph unicode="'" horiz-adv-x="322" d="M98 989v504h126v-504h-126z" />
<glyph unicode="(" horiz-adv-x="663" d="M175 575q0 261 90 517t243 457h156q-346 -475 -346 -986q0 -517 361 -992h-153q-351 447 -351 1004z" />
<glyph unicode=")" horiz-adv-x="663" d="M-15 -429q362 475 362 992q0 510 -347 986h155q153 -201 243.5 -457.5t90.5 -516.5q0 -557 -351 -1004h-153z" />
<glyph unicode="*" horiz-adv-x="834" d="M63 1179l33 105l203 -65q46 -15 80 -44q-19 33 -19 92v210h109v-210q0 -48 -15 -90q26 29 79 46l201 63l35 -103l-202 -68q-32 -11 -72 -11h-18q36 -15 69 -61l123 -171l-88 -65l-125 170q-33 44 -40 86q-4 -42 -37 -88l-124 -168l-90 63l124 171q31 42 71 63 q-9 -2 -29 -2q-36 0 -68 11z" />
<glyph unicode="+" horiz-adv-x="1191" d="M132 684v123h391v420h125v-420h412v-123h-412v-421h-125v421h-391z" />
<glyph unicode="," horiz-adv-x="452" d="M-17 -268l199 469h197l-278 -469h-118z" />
<glyph unicode="-" horiz-adv-x="755" d="M132 533v120h493v-120h-493z" />
<glyph unicode="." horiz-adv-x="310" d="M44 94q0 48 31.5 80.5t79.5 32.5t80.5 -32.5t32.5 -80.5t-32.5 -79.5t-80.5 -31.5t-79.5 31.5t-31.5 79.5z" />
<glyph unicode="/" horiz-adv-x="847" d="M-25 -224l803 1773h136l-805 -1773h-134z" />
<glyph unicode="0" horiz-adv-x="1189" d="M98 720.5q0 333.5 138 530t354 196.5q223 0 362 -195.5t139 -530.5q0 -333 -131.5 -535.5t-369.5 -202.5q-220 0 -356 202t-136 535.5zM236 721q0 -284 103.5 -446t250.5 -162q164 0 263.5 158t99.5 450q0 287 -104 440.5t-259 153.5q-141 0 -247.5 -155.5t-106.5 -438.5 z" />
<glyph unicode="1" horiz-adv-x="674" d="M44 1085v151l322 197h134v-1433h-134v1286z" />
<glyph unicode="2" horiz-adv-x="1077" d="M88 0v121q701 537 701 893q0 149 -84 227t-228 78q-165 0 -337 -127v136q149 119 343 119q184 0 315 -111t131 -315q0 -381 -651 -900h701v-121h-891z" />
<glyph unicode="3" horiz-adv-x="1010" d="M88 59v136q155 -82 351 -82q146 0 229 79.5t83 206.5q0 130 -92 197.5t-251 67.5h-97v120h97q123 0 210 75.5t87 203t-77.5 192t-213.5 64.5q-153 0 -287 -87v135q119 80 285 80q211 0 322.5 -107.5t111.5 -263.5q0 -249 -228 -348q124 -29 197.5 -117t73.5 -216 q0 -176 -118 -292t-334 -116q-197 0 -349 72z" />
<glyph unicode="4" horiz-adv-x="1169" d="M98 360v120l575 953h222v-953h220v-120h-220v-360h-132v360h-665zM236 480h527v877z" />
<glyph unicode="5" horiz-adv-x="1121" d="M142 55v135q140 -81 343 -81q387 0 387 336q0 138 -92 212.5t-232 74.5q-161 0 -333 -77v778h697v-120h-561v-478q107 24 190 24q213 0 342 -114t129 -306q0 -211 -136 -333.5t-370 -122.5q-211 0 -364 72z" />
<glyph unicode="6" horiz-adv-x="1145" d="M125 646q0 230 69 415.5t218 301.5t355 116q103 1 195 -32v-136q-90 41 -197 41q-219 0 -348.5 -169t-153.5 -420q71 75 171.5 117t201.5 42q199 0 311.5 -124.5t112.5 -330.5q0 -220 -120 -352t-315 -132q-239 0 -369.5 184t-130.5 479zM257 623q4 -250 104.5 -383 t263.5 -133q136 0 215.5 101t79.5 263q0 149 -79.5 236.5t-207.5 87.5q-109 0 -210 -49t-166 -123z" />
<glyph unicode="7" horiz-adv-x="970" d="M21 1313v120h928v-120l-602 -1313h-146l606 1313h-786z" />
<glyph unicode="8" horiz-adv-x="1167" d="M121 355q0 136 75.5 228t204.5 130q-121 37 -189 125.5t-68 211.5q0 186 131 291.5t302 105.5q175 0 304 -104.5t129 -297.5q0 -116 -66.5 -203.5t-184.5 -124.5q136 -35 212.5 -123t76.5 -228q0 -173 -136 -278t-335 -105q-191 0 -323.5 101.5t-132.5 270.5zM259 364 q0 -107 83.5 -181t236.5 -74q160 0 245.5 80.5t85.5 195.5q0 111 -82.5 189.5t-248.5 76.5q-161 -3 -240.5 -84.5t-79.5 -202.5zM282 1050q0 -136 85 -204t218 -68q128 0 207.5 72t79.5 204q0 113 -77.5 189t-217.5 76q-134 0 -214.5 -78t-80.5 -191z" />
<glyph unicode="9" horiz-adv-x="1086" d="M88 987q0 199 117 331.5t318 132.5q237 0 352.5 -177.5t115.5 -441.5q0 -392 -148.5 -620.5t-459.5 -228.5q-126 0 -245 42v135q117 -50 245 -51q414 0 468 544q-114 -136 -334 -136q-171 0 -300 128.5t-129 341.5zM228 987q0 -167 86.5 -256t235.5 -89q190 0 309 149v41 q0 95 -15.5 176t-50 155.5t-103.5 117.5t-164 43q-135 0 -216.5 -91t-81.5 -246z" />
<glyph unicode=":" horiz-adv-x="485" d="M132 107q0 46 31.5 79t77.5 33q48 0 81 -33t33 -79q0 -48 -33 -78.5t-81 -30.5t-78.5 30.5t-30.5 78.5zM132 809q0 46 31.5 78.5t77.5 32.5q48 0 81 -32.5t33 -78.5q0 -48 -33 -79t-81 -31t-78.5 31t-30.5 79z" />
<glyph unicode=";" horiz-adv-x="452" d="M-17 -268l199 469h197l-278 -469h-118zM151 807q0 46 32 78.5t78 32.5q48 0 80.5 -32.5t32.5 -78.5q0 -48 -32.5 -79t-80.5 -31t-79 31t-31 79z" />
<glyph unicode="&#x3c;" horiz-adv-x="1117" d="M132 682v131l876 419v-143q-523 -240 -730 -340l730 -343v-143z" />
<glyph unicode="=" horiz-adv-x="1191" d="M132 471v123h928v-123h-928zM132 899v120h928v-120h-928z" />
<glyph unicode="&#x3e;" horiz-adv-x="1117" d="M109 263v143q519 240 730 343l-730 340v143l878 -419v-131z" />
<glyph unicode="?" horiz-adv-x="985" d="M88 1256v142q59 40 156 68.5t197 28.5q211 0 334.5 -105.5t123.5 -295.5q0 -187 -130.5 -290t-319.5 -120v-255h-133v373q206 0 324.5 73.5t118.5 220.5q0 121 -79.5 196t-236.5 75q-180 0 -355 -111zM270 92q0 46 31.5 78.5t77.5 32.5q48 0 81 -32.5t33 -78.5 q0 -48 -33 -78.5t-81 -30.5t-78.5 30.5t-30.5 78.5z" />
<glyph unicode="@" horiz-adv-x="1940" d="M142 427q0 381 267.5 631.5t650.5 250.5q327 0 549.5 -202t222.5 -538q0 -249 -115 -380.5t-258 -131.5q-188 0 -238 175q-121 -182 -320 -182q-157 0 -248.5 110t-91.5 277q0 188 118 321.5t298 133.5q175 0 259 -136q2 51 6 122h117l-40 -370q-6 -61 -6 -121 q0 -219 155 -218q101 0 170 112t69 282q0 293 -184 461t-467 168q-309 0 -543.5 -215.5t-234.5 -547.5q0 -313 176.5 -480.5t426.5 -167.5q222 0 377 92l-9 -143q-132 -70 -373 -69q-337 0 -535.5 213.5t-198.5 552.5zM694 427q0 -117 59.5 -187.5t158.5 -70.5 q92 0 175.5 63t121.5 178q0 29 10 121q-17 118 -74.5 179t-174.5 61q-123 0 -199.5 -102t-76.5 -242z" />
<glyph unicode="A" horiz-adv-x="1395" d="M83 0l522 1477h197l511 -1477h-147l-141 410h-653l-142 -410h-147zM414 531h573l-34 94l-250 738q-29 -88 -256 -740z" />
<glyph unicode="B" horiz-adv-x="1230" d="M175 0v1477h412q224 0 363 -102t139 -281q0 -132 -73 -225t-190 -118q125 -15 216 -107t91 -251q0 -178 -115 -285.5t-330 -107.5h-513zM311 121h377q142 0 222.5 71t80.5 205q0 138 -91 213.5t-254 75.5h-335v-565zM311 807h266q190 0 280 81.5t90 209.5 q0 109 -86.5 184t-258.5 75h-291v-550z" />
<glyph unicode="C" horiz-adv-x="1311" d="M109 747q0 333 213 541.5t527 208.5q217 0 372 -79v-143q-96 51 -171 71.5t-207 20.5q-255 0 -424.5 -172t-169.5 -448q0 -289 168 -462.5t446 -173.5q218 0 362 115v-149q-134 -94 -368 -94q-335 0 -541.5 204t-206.5 560z" />
<glyph unicode="D" horiz-adv-x="1434" d="M175 0v1477h421q324 0 532 -201.5t208 -528.5q0 -199 -76.5 -364.5t-246.5 -274t-406 -108.5h-432zM311 125h296q151 0 267.5 52.5t184.5 142.5t101.5 197.5t33.5 229.5q0 252 -167.5 428.5t-430.5 176.5h-285v-1227z" />
<glyph unicode="E" horiz-adv-x="1073" d="M175 0v1477h787v-125h-651v-552h574v-125h-574v-550h664v-125h-800z" />
<glyph unicode="F" horiz-adv-x="1060" d="M175 0v1477h787v-125h-651v-563h574v-125h-574v-664h-136z" />
<glyph unicode="G" horiz-adv-x="1447" d="M109 740q0 333 200.5 548t507.5 215q262 0 430 -102v-152q-170 118 -412 118q-259 0 -422.5 -172t-163.5 -455q0 -291 163 -456t447 -165q169 0 300 67v506h-348v121h484v-704q-173 -126 -434 -126h-4q-337 0 -542.5 202t-205.5 555z" />
<glyph unicode="H" horiz-adv-x="1384" d="M175 0v1477h136v-662h763v662h135v-1477h-135v690h-763v-690h-136z" />
<glyph unicode="I" horiz-adv-x="508" d="M186 0v1477h136v-1477h-136z" />
<glyph unicode="J" horiz-adv-x="763" d="M65 50v138q88 -59 190 -59q199 0 199 210v1138h136v-1115q0 -362 -322 -362q-119 0 -203 50z" />
<glyph unicode="K" horiz-adv-x="1202" d="M175 0v1477h136v-1477h-136zM351 728l584 749h171l-583 -749l614 -728h-179z" />
<glyph unicode="L" horiz-adv-x="1037" d="M175 0v1477h136v-1352h651v-125h-787z" />
<glyph unicode="M" horiz-adv-x="1857" d="M165 0l103 1477h186l192 -542l261 -751q151 416 276 751l202 542h186l125 -1477h-136l-50 585l-59 714q-132 -366 -261 -714l-203 -548h-161l-193 548l-246 699q-19 -331 -46 -699l-40 -585h-136z" />
<glyph unicode="N" horiz-adv-x="1461" d="M175 0v1477h187l376 -624l417 -693q-5 228 -5 691v626h136v-1477h-186l-375 621l-418 696q4 -236 4 -692v-625h-136z" />
<glyph unicode="O" horiz-adv-x="1514" d="M109 745q0 349 174.5 556t472.5 207q308 0 478.5 -205t170.5 -558q0 -351 -173.5 -556.5t-470.5 -205.5q-293 0 -472.5 207.5t-179.5 554.5zM249 745q0 -291 140 -461.5t372 -170.5q241 0 372.5 168t131.5 464q0 298 -133 464.5t-376 166.5q-236 0 -371.5 -168 t-135.5 -463z" />
<glyph unicode="P" horiz-adv-x="1182" d="M175 0v1477h356q259 0 406.5 -130t147.5 -343q0 -184 -144 -313.5t-387 -129.5h-243v-561h-136zM311 682h258q174 0 276 92t102 230q0 162 -105.5 257.5t-295.5 95.5h-235v-675z" />
<glyph unicode="Q" horiz-adv-x="1535" d="M109 745q0 349 174.5 556t472.5 207q308 0 478.5 -205t170.5 -558q0 -261 -99 -444.5t-276 -263.5l434 -280l-143 -62l-443 296q-50 -8 -117 -8q-293 0 -472.5 208t-179.5 554zM249 745q0 -291 140 -461.5t372 -170.5q241 0 372.5 168t131.5 464q0 298 -133 464.5 t-376 166.5q-236 0 -371.5 -168t-135.5 -463z" />
<glyph unicode="R" horiz-adv-x="1163" d="M175 0v1477h333q259 0 387 -117.5t128 -331.5q-4 -148 -83 -256t-223 -147l392 -625h-162l-370 600h-42h-224v-600h-136zM311 721h239q163 0 250 90t87 224q0 322 -364 322h-212v-636z" />
<glyph unicode="S" horiz-adv-x="1154" d="M160 1096q0 186 133.5 290.5t327.5 104.5q183 -2 306 -67v-151q-53 36 -138.5 60t-165.5 24q-147 0 -234.5 -69t-87.5 -184q0 -59 23 -105t77.5 -84.5t95 -59t124.5 -55.5q77 -33 116 -51.5t100.5 -58t93 -77.5t56.5 -98.5t25 -133.5q0 -193 -129 -294.5t-331 -101.5 q-228 0 -387 96v151q65 -50 169.5 -82.5t211.5 -32.5q155 0 241.5 68t86.5 194q0 96 -65.5 156.5t-190.5 115.5q-17 8 -76 33.5t-83.5 36.5t-75 37t-73.5 46t-58 52.5t-50.5 66t-28.5 78t-13 95.5z" />
<glyph unicode="T" horiz-adv-x="1018" d="M33 1352v125h954v-125h-410v-1352h-136v1352h-408z" />
<glyph unicode="U" horiz-adv-x="1399" d="M175 541v936h136v-933q0 -222 104 -326.5t282 -104.5q392 0 392 441v923h136v-918q0 -285 -138 -430.5t-390 -145.5q-248 0 -385 142.5t-137 415.5z" />
<glyph unicode="V" horiz-adv-x="1382" d="M88 1477h146l195 -585l255 -771l263 771l201 585h147l-519 -1477h-186z" />
<glyph unicode="W" horiz-adv-x="2035" d="M88 1477h142l138 -548l199 -791q147 523 226 791l154 526h159l165 -528l245 -798q121 561 174 795l123 553h135l-336 -1477h-186l-146 467l-250 811q-83 -303 -235 -811l-138 -467h-186z" />
<glyph unicode="X" horiz-adv-x="1313" d="M92 0l477 745l-448 732h157l366 -609l366 609h158l-447 -732l502 -745h-158l-419 629l-397 -629h-157z" />
<glyph unicode="Y" horiz-adv-x="1270" d="M65 1477h156l116 -217l296 -570q18 42 300 570l117 217h155l-504 -925v-552h-136v552z" />
<glyph unicode="Z" horiz-adv-x="1215" d="M109 0v121l811 1236h-801v120h955v-120l-811 -1236h843v-121h-997z" />
<glyph unicode="[" horiz-adv-x="648" d="M175 -393v1942h473v-121h-337v-1698h337v-123h-473z" />
<glyph unicode="\" horiz-adv-x="845" d="M-65 1549h136l801 -1775h-136z" />
<glyph unicode="]" horiz-adv-x="648" d="M0 -270h337v1698h-337v121h473v-1942h-473v123z" />
<glyph unicode="^" horiz-adv-x="991" d="M105 728l307 574h180l295 -574h-140l-247 495l-255 -495h-140z" />
<glyph unicode="_" horiz-adv-x="1237" d="M65 -59h1108v-121h-1108v121z" />
<glyph unicode="`" horiz-adv-x="876" d="M241 1748h177l224 -328h-121z" />
<glyph unicode="a" horiz-adv-x="1064" d="M109 314q0 160 124 248.5t328 88.5h217v50q0 149 -63.5 225t-212.5 76q-174 0 -312 -95v145q128 77 314 77q408 0 408 -428v-701h-134v129q-92 -140 -320 -140q-153 0 -251 91t-98 234zM253 318q0 -92 59.5 -149.5t176.5 -57.5q132 0 210.5 73t78.5 184v161h-217 q-155 0 -231.5 -60.5t-76.5 -150.5z" />
<glyph unicode="b" horiz-adv-x="1224" d="M175 0v1549h134v-604q123 184 339 184q211 0 345 -163.5t134 -421.5q0 -235 -125.5 -398t-348.5 -163q-228 0 -344 180v-163h-134zM309 561q0 -243 103 -347.5t245.5 -104.5t236 121t93.5 311q0 222 -97 341.5t-246 119.5q-52 0 -105.5 -21t-107.5 -68t-88 -138t-34 -214 z" />
<glyph unicode="c" horiz-adv-x="1033" d="M98 552q0 232 155 405.5t418 173.5q136 0 243 -60v-136q-99 65 -230 67q-204 0 -324.5 -133t-120.5 -319q0 -188 116 -317.5t331 -129.5q134 0 228 70v-136q-94 -63 -243 -64q-270 0 -421.5 170.5t-151.5 408.5z" />
<glyph unicode="d" horiz-adv-x="1215" d="M98 544q0 258 134 421.5t345 163.5q217 0 339 -184v604h134v-1549h-134v163q-117 -180 -344 -180q-223 0 -348.5 163t-125.5 398zM239 541q0 -190 93 -311t235.5 -121t245.5 104.5t103 347.5q0 123 -33.5 214t-88 138t-108 68t-105.5 21q-149 0 -245.5 -119.5 t-96.5 -341.5z" />
<glyph unicode="e" horiz-adv-x="1136" d="M98 550q0 267 136 421t353 154q204 0 325 -134t121 -378q0 -75 -10 -118h-784q15 -184 126.5 -281t295.5 -97h5q186 0 296 73v-135q-132 -66 -307 -66q-247 0 -402 155t-155 406zM239 618h656v51q0 151 -85 240.5t-227 89.5q-140 0 -234 -98.5t-110 -282.5z" />
<glyph unicode="f" horiz-adv-x="711" d="M65 997v114h205v118q0 151 78.5 241t220.5 90q42 0 90 -13v-131q-46 17 -96 17q-65 0 -112.5 -51.5t-47.5 -154.5v-116h254v-114h-254v-997h-133v997h-205z" />
<glyph unicode="g" horiz-adv-x="1180" d="M98 554q0 250 124.5 412.5t325.5 162.5q238 0 347 -213v195h133v-1025q0 -253 -136 -378.5t-351 -125.5q-190 0 -324 63v131q136 -67 314 -67q167 0 265.5 91t98.5 286v144q-112 -203 -334 -203q-193 0 -328 142t-135 385zM239 561q0 -199 100.5 -303.5t223.5 -104.5 q125 0 228.5 98t103.5 299q0 230 -99 341t-221 111q-156 0 -246 -123t-90 -318z" />
<glyph unicode="h" d="M167 0v1549h134v-629q100 209 352 209q160 0 256.5 -99t96.5 -254v-776h-134v734q0 129 -66 197t-173 68q-135 0 -233.5 -104t-98.5 -282v-613h-134z" />
<glyph unicode="i" horiz-adv-x="483" d="M149 1465.5q0 39.5 26 67t65.5 27.5t67 -27.5t27.5 -67t-27.5 -65.5t-67 -26t-65.5 26t-26 65.5zM175 0v1111h134v-1111h-134z" />
<glyph unicode="j" horiz-adv-x="472" d="M-103 -263q77 -36 153 -36q125 0 125 163v1247h134v-1251q0 -136 -69 -210.5t-192 -74.5h-5q-69 0 -146 30v132zM147 1465.5q0 39.5 26 67t65.5 27.5t67 -27.5t27.5 -67t-27.5 -65.5t-67 -26t-65.5 26t-26 65.5z" />
<glyph unicode="k" horiz-adv-x="1012" d="M167 0v1549h134v-1549h-134zM333 583l451 528h165l-454 -528l469 -583h-167z" />
<glyph unicode="l" horiz-adv-x="483" d="M175 0v1549h134v-1549h-134z" />
<glyph unicode="m" horiz-adv-x="1767" d="M167 0v1111h134v-182q94 199 310 200q267 0 330 -219q102 219 328 219q175 0 260.5 -98t85.5 -255v-776h-134v734q0 265 -232 265q-114 0 -202.5 -105t-88.5 -281v-613h-134v734q0 265 -232 265q-114 0 -202.5 -105t-88.5 -281v-613h-134z" />
<glyph unicode="n" d="M167 0v1111h134v-191q102 209 352 209q160 0 256.5 -99t96.5 -254v-776h-134v734q0 129 -66 197t-173 68q-135 0 -233.5 -104t-98.5 -282v-613h-134z" />
<glyph unicode="o" horiz-adv-x="1228" d="M98 550q0 243 142.5 410t368.5 167q247 0 384.5 -163.5t137.5 -413.5q0 -247 -139.5 -408t-382.5 -161q-235 0 -373 162t-138 407zM239 550q0 -182 102 -312.5t268 -130.5q182 0 282 128.5t100 314.5q0 193 -95 321t-287 128q-174 0 -272 -131.5t-98 -317.5z" />
<glyph unicode="p" horiz-adv-x="1215" d="M167 -439v1550h134v-162q116 180 343 180q224 0 348.5 -163.5t124.5 -398.5q0 -259 -133 -421.5t-344 -162.5q-217 0 -339 184v-606h-134zM301 550q0 -123 33.5 -214t87 -138t107.5 -68t107 -21q148 0 244.5 120t96.5 340q0 191 -93 312t-235.5 121t-245 -104.5 t-102.5 -347.5z" />
<glyph unicode="q" horiz-adv-x="1215" d="M98 567q0 234 125.5 398t348.5 164q228 0 344 -180v162h134v-1550h-134v606q-123 -184 -339 -184q-211 0 -345 163t-134 421zM239 569q0 -221 96.5 -340.5t245.5 -119.5q52 0 105.5 21t108 68t88 138t33.5 214q0 243 -103 347.5t-245.5 104.5t-235.5 -120.5t-93 -312.5z " />
<glyph unicode="r" horiz-adv-x="688" d="M167 0v1111h134v-189q92 202 310 203q15 0 56 -5v-136q-44 13 -88 13q-119 0 -198.5 -117t-79.5 -259v-621h-134z" />
<glyph unicode="s" horiz-adv-x="889" d="M125 828q0 134 98.5 214t247.5 80q180 -1 276 -51v-133q-103 59 -278 59q-97 0 -152.5 -45t-55.5 -117q0 -44 16 -77t56.5 -60t69 -40.5t92.5 -39.5q153 -61 235.5 -134.5t82.5 -198.5q0 -138 -95 -218t-262 -80q-201 0 -324 65v138q146 -83 315 -83q112 0 170 46t58 121 q0 88 -60.5 136t-198.5 103q-134 52 -212.5 122t-78.5 193z" />
<glyph unicode="t" horiz-adv-x="797" d="M55 997v114h181v278h136v-278h318v-114h-318v-690q0 -190 178 -190q88 0 149 50v-136q-63 -42 -147 -42q-316 0 -316 325v683h-181z" />
<glyph unicode="u" d="M153 339v772h134v-734q0 -128 67 -196t177 -68q146 0 237 105.5t91 274.5v618h134v-1111h-134v199q-88 -214 -351 -214h-2q-163 0 -258 97.5t-95 256.5z" />
<glyph unicode="v" horiz-adv-x="1088" d="M65 1111h142l155 -467l177 -537q22 81 182 537l162 467h140l-394 -1111h-180z" />
<glyph unicode="w" horiz-adv-x="1725" d="M65 1111h148l109 -368q61 -207 104 -359t57 -200l10 -50q40 142 176 611l105 366h157l110 -366l180 -616q35 130 186 616l113 366h141l-350 -1111h-180l-108 364l-170 592q-38 -139 -165 -592l-103 -364h-179z" />
<glyph unicode="x" horiz-adv-x="1018" d="M59 0l366 572l-344 541h158l271 -438l270 438h155l-348 -544l373 -569h-160l-292 467l-297 -467h-152z" />
<glyph unicode="y" horiz-adv-x="1056" d="M19 1111h154l151 -373l215 -535q15 51 191 535l136 373h148l-403 -1082q-83 -226 -196.5 -311.5t-259.5 -85.5q-44 0 -82 11v131q39 -10 74 -10q234 0 326 267z" />
<glyph unicode="z" horiz-adv-x="976" d="M98 0v111l584 871h-561v129h728v-101l-592 -878h621v-132h-780z" />
<glyph unicode="{" horiz-adv-x="705" d="M109 513v133q46 0 71 5q96 17 145 90.5t49 178.5q0 53 -25 161.5t-25 169.5q0 142 78 225.5t190 83.5q48 0 92 -15v-136q-38 19 -75 19q-73 0 -109 -49t-36 -123q0 -65 25.5 -184t25.5 -187q0 -119 -67 -202t-203 -104q136 -22 203 -107t67 -202q0 -68 -25.5 -186.5 t-25.5 -184.5q0 -74 36.5 -123.5t108.5 -49.5q39 0 75 19v-136q-44 -15 -92 -15q-112 0 -190 83.5t-78 226.5q0 61 25 169.5t25 160.5q0 226 -194 274q-17 5 -71 5z" />
<glyph unicode="|" horiz-adv-x="468" d="M175 -425v1948h118v-1948h-118z" />
<glyph unicode="}" horiz-adv-x="705" d="M21 -255q36 -19 75 -19q73 0 109 49.5t36 123.5q0 66 -25.5 184t-25.5 187q0 118 67 202.5t203 106.5q-136 21 -203 104.5t-67 201.5q0 67 25.5 186t25.5 185q0 75 -36 123.5t-109 48.5q-39 0 -75 -19v136q44 15 92 15q112 0 190 -83t78 -226q0 -61 -25 -169.5 t-25 -161.5q0 -105 49 -178t146 -91q25 -5 70 -5v-133q-52 0 -70 -5q-194 -48 -195 -274q0 -52 25 -160.5t25 -169.5q0 -143 -77.5 -226.5t-190.5 -83.5q-48 0 -92 15v136z" />
<glyph unicode="~" horiz-adv-x="1281" d="M83 529q143 199 333 199q109 0 259.5 -88t225.5 -88q122 0 193 132l102 -71q-116 -186 -295 -186q-99 0 -255.5 89t-214.5 89q-153 0 -260 -158z" />
<glyph unicode="&#xa1;" horiz-adv-x="527" d="M151 1023q0 48 31 79t79 31t80.5 -31t32.5 -79q0 -46 -32.5 -78.5t-80.5 -32.5q-46 0 -78 32.5t-32 78.5zM197 -362v1048h134v-1048h-134z" />
<glyph unicode="&#xa2;" horiz-adv-x="974" d="M109 552q0 211 130.5 374t356.5 191v228h121v-225q80 -4 170 -41v-136q-94 50 -193 50q-203 0 -324 -129.5t-121 -313.5q0 -186 117 -312.5t331 -126.5q104 0 190 49v-135q-90 -38 -170 -40v-228h-121v230q-230 29 -358.5 188.5t-128.5 376.5z" />
<glyph unicode="&#xa3;" horiz-adv-x="1132" d="M142 0v113q136 61 184 154t48 279q0 50 -6 109h-211v112h200q-19 189 -20 235q0 215 114 328.5t316 113.5q117 0 222 -53v-135q-107 59 -220 59q-300 0 -300 -301q0 -54 20 -247h403v-112h-390q4 -75 4 -107q0 -191 -49 -283t-135 -144h723v-121h-903z" />
<glyph unicode="&#xa4;" horiz-adv-x="1173" d="M79 265l128 128q-88 117 -88 284q0 165 94 289l-134 136l90 90l134 -136q127 96 293 96q160 0 282 -87l128 127l90 -90l-128 -127q88 -123 88 -283q0 -164 -98 -291l138 -136l-90 -90l-138 136q-123 -92 -289 -92q-165 0 -280 86l-130 -130zM236 686q0 -153 99 -253 t252 -100t252 99t99 252t-99 254t-252 101t-252 -100t-99 -253z" />
<glyph unicode="&#xa5;" horiz-adv-x="1252" d="M88 1433h148l385 -751l387 751h149l-340 -640h264v-109h-322l-71 -132v-77h393v-109h-393v-366h-136v366h-392v109h392v77l-69 132h-323v109h265z" />
<glyph unicode="&#xa6;" horiz-adv-x="468" d="M175 295h118v-720h-118v720zM175 802v721h118v-721h-118z" />
<glyph unicode="&#xa7;" horiz-adv-x="1071" d="M109 657q0 147 88 248q-88 84 -88 212q0 184 131.5 279t328.5 95q184 -2 307 -67v-151q-52 36 -137.5 60t-166.5 24q-150 0 -236.5 -59.5t-86.5 -170.5q0 -40 13.5 -73t32.5 -52.5t53.5 -40t62.5 -32t78 -31.5l80 -32q77 -34 116.5 -52.5t101.5 -57.5t93.5 -77.5 t56.5 -99t25 -132.5q0 -160 -94 -261q94 -98 94 -243q0 -192 -129.5 -294.5t-330.5 -102.5q-228 0 -389 97v150q66 -50 170 -82.5t212 -32.5q156 0 242.5 68t86.5 195q0 96 -66 156t-191 116q-17 8 -76.5 33.5t-83.5 36t-74.5 37.5t-73.5 46t-57.5 52.5t-50 66t-29 77.5 t-13.5 95zM245 661q0 -48 20 -89t44 -68t77 -57.5t83.5 -45t99.5 -44.5q132 -56 194 -92q65 71 65 182q0 97 -68 158.5t-193 115.5q-31 13 -121.5 49.5t-136.5 57.5q-64 -64 -64 -167z" />
<glyph unicode="&#xa8;" horiz-adv-x="876" d="M142 1591q0 42 26.5 68t67.5 26q40 0 67.5 -26t27.5 -68q0 -39 -27.5 -66.5t-67.5 -27.5q-41 0 -67.5 27.5t-26.5 66.5zM546 1591q0 42 27 68t67 26q42 0 68 -26t26 -68q0 -39 -26 -66.5t-68 -27.5q-40 0 -67 27.5t-27 66.5z" />
<glyph unicode="&#xa9;" horiz-adv-x="1708" d="M98 736q0 309 224 534t532.5 225t532 -225t223.5 -534t-223.5 -532t-532 -223t-532.5 223t-224 532zM228 736q0 -259 185 -444t443.5 -185t444 185t185.5 444t-185.5 445t-444 186t-443.5 -186t-185 -445zM491 732q0 171 113 299t308 128q100 0 177 -44v-124 q-75 50 -169 50q-136 0 -219 -87.5t-83 -223.5q0 -130 83 -217.5t219 -87.5q105 0 169 55v-125q-65 -48 -177 -48q-197 0 -309 124.5t-112 300.5z" />
<glyph unicode="&#xaa;" horiz-adv-x="738" d="M0 1122q0 136 104.5 211.5t278.5 75.5h178v40q0 125 -52.5 189t-180.5 64q-147 1 -261 -78v116q110 67 264 68q341 0 342 -359v-590h-112v118q-105 -127 -268 -126q-131 0 -212 73t-81 198zM117 1125q0 -75 52 -121t149 -46q103 0 173 59t70 138v144h-151 q-293 0 -293 -174z" />
<glyph unicode="&#xab;" horiz-adv-x="985" d="M59 554l328 356h154l-322 -356l322 -355h-154zM447 554l329 356h153l-322 -356l322 -355h-153z" />
<glyph unicode="&#xac;" horiz-adv-x="1171" d="M44 774v129h1052v-539h-134v410h-918z" />
<glyph unicode="&#xad;" horiz-adv-x="755" d="M132 533v120h493v-120h-493z" />
<glyph unicode="&#xae;" horiz-adv-x="959" d="M21 1268.5q0 199.5 129.5 329t329 129.5t329 -129.5t129.5 -329t-129.5 -327.5t-329 -128t-329 128t-129.5 327.5zM121 1268.5q0 -162.5 98.5 -262t263.5 -99.5q162 0 261 99.5t99 262t-99.5 263.5t-260.5 101q-165 0 -263.5 -101t-98.5 -263.5zM339 1056v456h130 q173 0 173 -145q0 -94 -77 -127l114 -184h-104l-100 167h-46v-167h-90zM429 1295h58q65 0 65 72q0 71 -72 70h-51v-142z" />
<glyph unicode="&#xaf;" horiz-adv-x="876" d="M149 1543v98h576v-98h-576z" />
<glyph unicode="&#xb0;" horiz-adv-x="726" d="M65 1181.5q0 129.5 85.5 212.5t217.5 83t212.5 -79t80.5 -208.5t-85 -212t-216.5 -82.5t-213 78.5t-81.5 208zM182 1186q0 -80 53.5 -134.5t132.5 -54.5t128.5 53.5t49.5 135.5q0 79 -53.5 133.5t-133 54.5t-128.5 -53.5t-49 -134.5z" />
<glyph unicode="&#xb1;" horiz-adv-x="1191" d="M132 67v123h928v-123h-928zM132 728v123h391v387h125v-387h412v-123h-412v-389h-125v389h-391z" />
<glyph unicode="&#xb2;" horiz-adv-x="799" d="M109 859v90q450 341 450 571q0 92 -49.5 137t-128.5 45q-119 0 -239 -96v130q119 72 235 72q123 0 212.5 -73.5t89.5 -209.5q0 -128 -110.5 -277.5t-288.5 -287.5h433v-101h-604z" />
<glyph unicode="&#xb3;" horiz-adv-x="696" d="M77 903v111q109 -58 241 -58q85 0 134.5 41.5t49.5 115.5q0 81 -59.5 126t-162.5 45h-59v101h59q80 0 135.5 44.5t55.5 122.5q0 150 -170 150q-94 0 -200 -67v116q89 56 198 57q142 0 216.5 -71.5t74.5 -178.5q0 -176 -172 -219q82 -7 142.5 -71.5t60.5 -156.5 q0 -117 -79.5 -188.5t-223.5 -71.5q-132 0 -241 52z" />
<glyph unicode="&#xb4;" horiz-adv-x="876" d="M241 1420l223 328h178l-280 -328h-121z" />
<glyph unicode="&#xb5;" horiz-adv-x="1171" d="M167 -393v1504h134v-734q0 -126 85 -195t201 -69q130 0 207.5 105.5t77.5 274.5v618h134v-1111h-134v178q-79 -193 -309 -193q-167 0 -262 103v-481h-134z" />
<glyph unicode="&#xb6;" horiz-adv-x="1167" d="M65 1111q0 146 108.5 256t297.5 110h134v-1801h-132v1085q-193 0 -300.5 99.5t-107.5 250.5zM870 -324v1801h132v-1801h-132z" />
<glyph unicode="&#xb7;" horiz-adv-x="485" d="M132 738q0 48 31.5 80.5t79.5 32.5t80 -32.5t32 -80.5t-32 -79.5t-80 -31.5t-79.5 31.5t-31.5 79.5z" />
<glyph unicode="&#xb8;" horiz-adv-x="876" d="M280 -437q191 20 191 161q0 81 -50 165h133q40 -58 40 -154q0 -114 -81.5 -193t-232.5 -86v107z" />
<glyph unicode="&#xb9;" horiz-adv-x="529" d="M21 1534v124l249 141h94v-940h-115v802z" />
<glyph unicode="&#xba;" horiz-adv-x="784" d="M-21 1328q0 203 112 344t296 141q201 0 310.5 -137t109.5 -348t-111.5 -346.5t-308.5 -135.5q-190 0 -299 137t-109 345zM94 1328q0 -157 81.5 -267t211.5 -110q145 0 223 107.5t78 269.5q0 165 -73 272t-228 107q-138 0 -215.5 -112t-77.5 -267z" />
<glyph unicode="&#xbb;" horiz-adv-x="991" d="M57 199l322 355l-322 356h154l328 -356l-328 -355h-154zM445 199l322 355l-322 356h153l329 -356l-329 -355h-153z" />
<glyph unicode="&#xbc;" horiz-adv-x="1824" d="M175 1293v125l248 140h94v-940h-114v802zM328 0l1000 1560h136l-1002 -1560h-134zM1019 224v92l379 625h164v-625h143v-92h-143v-224h-109v224h-434zM1135 316h318v530z" />
<glyph unicode="&#xbd;" horiz-adv-x="1824" d="M175 1293v125l248 140h94v-940h-114v802zM328 0l1000 1560h136l-1002 -1560h-134zM1122 0v90q450 341 449 571q0 92 -49.5 137t-127.5 45q-119 0 -239 -96v129q118 73 234 73q123 0 213 -73.5t90 -208.5q0 -128 -111 -278t-288 -288h432v-101h-603z" />
<glyph unicode="&#xbe;" horiz-adv-x="1879" d="M186 661v113q109 -59 241 -59q86 0 135 41t49 116q0 81 -59 126t-161 45h-60v101h60q79 0 134.5 45t55.5 122q0 151 -171 151q-94 0 -199 -68v116q90 56 197 56q142 0 216.5 -71t74.5 -178q0 -175 -170 -219q81 -7 141 -71.5t60 -156.5q0 -117 -79 -189t-224 -72 q-132 0 -241 52zM454 0l999 1560h136l-1002 -1560h-133zM1144 224v92l379 625h164v-625h143v-92h-143v-224h-109v224h-434zM1260 316h318v530z" />
<glyph unicode="&#xbf;" horiz-adv-x="985" d="M88 21q0 187 130.5 290t318.5 120v255h134v-372q-207 0 -325 -73.5t-118 -221.5q0 -121 78.5 -196.5t237.5 -75.5q179 2 355 113v-142q-59 -40 -157 -68.5t-196 -28.5q-211 0 -334.5 105t-123.5 295zM493 1023q0 48 33 79t81 31t79 -31t31 -79q0 -46 -32 -78.5t-78 -32.5 q-48 0 -81 32.5t-33 78.5z" />
<glyph unicode="&#xc0;" horiz-adv-x="1395" d="M83 0l522 1477h197l511 -1477h-147l-141 410h-653l-142 -410h-147zM347 1926h176l224 -328h-120zM414 531h573l-34 94l-250 738q-29 -88 -256 -740z" />
<glyph unicode="&#xc1;" horiz-adv-x="1395" d="M83 0l522 1477h197l511 -1477h-147l-141 410h-653l-142 -410h-147zM414 531h573l-34 94l-250 738q-29 -88 -256 -740zM657 1598l224 328h177l-280 -328h-121z" />
<glyph unicode="&#xc2;" horiz-adv-x="1395" d="M83 0l522 1477h197l511 -1477h-147l-141 410h-653l-142 -410h-147zM374 1598l262 328h138l261 -328h-140l-192 234l-188 -234h-141zM414 531h573l-34 94l-250 738q-29 -88 -256 -740z" />
<glyph unicode="&#xc3;" horiz-adv-x="1395" d="M83 0l522 1477h197l511 -1477h-147l-141 410h-653l-142 -410h-147zM351 1729q29 63 86.5 106t125.5 43q61 0 156.5 -50.5t135.5 -50.5q65 0 109 94l92 -61q-65 -140 -195 -140q-54 0 -152 50.5t-132 50.5q-92 0 -148 -108zM414 531h573l-34 94l-250 738 q-29 -88 -256 -740z" />
<glyph unicode="&#xc4;" horiz-adv-x="1395" d="M83 0l522 1477h197l511 -1477h-147l-141 410h-653l-142 -410h-147zM408 1764q0 42 26 68.5t68 26.5q39 0 66.5 -26.5t27.5 -68.5q0 -39 -27.5 -66.5t-66.5 -27.5q-42 0 -68 27.5t-26 66.5zM414 531h573l-34 94l-250 738q-29 -88 -256 -740zM811 1764q0 42 27.5 68.5 t66.5 26.5q42 0 68 -26.5t26 -68.5q0 -39 -26 -66.5t-68 -27.5q-39 0 -66.5 27.5t-27.5 66.5z" />
<glyph unicode="&#xc5;" horiz-adv-x="1395" d="M83 0l522 1477h197l511 -1477h-147l-141 410h-653l-142 -410h-147zM414 531h573l-34 94l-250 738q-29 -88 -256 -740zM489 1790q0 90 62 153.5t152 63.5t153.5 -63.5t63.5 -153.5t-63.5 -152t-153.5 -62t-152 62t-62 152zM587 1790q0 -48 34 -81.5t82 -33.5t83.5 33.5 t35.5 81.5q0 50 -34.5 84.5t-84.5 34.5q-48 0 -82 -35.5t-34 -83.5z" />
<glyph unicode="&#xc6;" horiz-adv-x="1890" d="M59 0l872 1477h848v-125h-650v-552h573v-125h-573v-550h663v-125h-799v410h-544l-242 -410h-148zM521 531h472v810q-140 -255 -416 -718z" />
<glyph unicode="&#xc7;" horiz-adv-x="1311" d="M109 747q0 333 213 541.5t527 208.5q217 0 372 -79v-143q-96 51 -171 71.5t-207 20.5q-255 0 -424.5 -172t-169.5 -448q0 -289 168 -462.5t446 -173.5q218 0 362 115v-149q-134 -94 -368 -94q-335 0 -541.5 204t-206.5 560zM596 -437q190 20 190 161q0 81 -50 165h134 q40 -57 40 -154q0 -114 -81.5 -193t-232.5 -86v107z" />
<glyph unicode="&#xc8;" horiz-adv-x="1073" d="M175 0v1477h787v-125h-651v-552h574v-125h-574v-550h664v-125h-800zM285 1924h177l224 -329h-121z" />
<glyph unicode="&#xc9;" horiz-adv-x="1073" d="M175 0v1477h787v-125h-651v-552h574v-125h-574v-550h664v-125h-800zM548 1598l223 328h178l-280 -328h-121z" />
<glyph unicode="&#xca;" horiz-adv-x="1073" d="M175 0v1477h787v-125h-651v-552h574v-125h-574v-550h664v-125h-800zM270 1598l261 328h138l260 -328h-140l-191 234l-188 -234h-140z" />
<glyph unicode="&#xcb;" horiz-adv-x="1073" d="M175 0v1477h787v-125h-651v-552h574v-125h-574v-550h664v-125h-800zM289 1760q0 42 26 68t68 26q40 0 67 -26.5t27 -67.5q0 -39 -27 -67t-67 -28q-42 0 -68 28t-26 67zM692 1760q0 42 27.5 68t66.5 26q42 0 68.5 -26.5t26.5 -67.5q0 -39 -26.5 -67t-68.5 -28 q-39 0 -66.5 28t-27.5 67z" />
<glyph unicode="&#xcc;" horiz-adv-x="508" d="M-96 1926h177l224 -328h-121zM186 0v1477h136v-1477h-136z" />
<glyph unicode="&#xcd;" horiz-adv-x="508" d="M186 0v1477h136v-1477h-136zM203 1598l224 328h178l-281 -328h-121z" />
<glyph unicode="&#xce;" horiz-adv-x="508" d="M-75 1598l261 328h138l261 -328h-140l-190 234l-190 -234h-140zM186 0v1477h136v-1477h-136z" />
<glyph unicode="&#xcf;" horiz-adv-x="508" d="M-40 1762q0 42 26.5 68t68.5 26q39 0 66.5 -26t27.5 -68q0 -39 -27.5 -66.5t-66.5 -27.5q-42 0 -68.5 27.5t-26.5 66.5zM186 0v1477h136v-1477h-136zM364 1762q0 42 27 68t67 26q42 0 68 -26t26 -68q0 -39 -26 -66.5t-68 -27.5q-40 0 -67 27.5t-27 66.5z" />
<glyph unicode="&#xd0;" horiz-adv-x="1587" d="M132 686v116h196v675h421q324 0 533 -201.5t209 -528.5q0 -199 -77.5 -364.5t-247 -274t-405.5 -108.5h-433v686h-196zM464 125h297q151 0 267 52.5t184 142.5t102 197.5t34 229.5q0 252 -168 428.5t-431 176.5h-285v-550h404v-116h-404v-561z" />
<glyph unicode="&#xd1;" horiz-adv-x="1461" d="M175 0v1477h187l376 -624l417 -693q-5 228 -5 691v626h136v-1477h-186l-375 621l-418 696q4 -236 4 -692v-625h-136zM399 1727q29 63 87 106t125 43q61 0 156.5 -50.5t135.5 -50.5q65 0 109 94l92 -61q-65 -140 -194 -140q-55 0 -153 50.5t-132 50.5q-92 0 -148 -108z " />
<glyph unicode="&#xd2;" horiz-adv-x="1514" d="M109 745q0 349 174.5 556t472.5 207q308 0 478.5 -205t170.5 -558q0 -351 -173.5 -556.5t-470.5 -205.5q-293 0 -472.5 207.5t-179.5 554.5zM249 745q0 -291 140 -461.5t372 -170.5q241 0 372.5 168t131.5 464q0 298 -133 464.5t-376 166.5q-236 0 -371.5 -168 t-135.5 -463zM437 1926h176l224 -328h-120z" />
<glyph unicode="&#xd3;" horiz-adv-x="1514" d="M109 745q0 349 174.5 556t472.5 207q308 0 478.5 -205t170.5 -558q0 -351 -173.5 -556.5t-470.5 -205.5q-293 0 -472.5 207.5t-179.5 554.5zM249 745q0 -291 140 -461.5t372 -170.5q241 0 372.5 168t131.5 464q0 298 -133 464.5t-376 166.5q-236 0 -371.5 -168 t-135.5 -463zM717 1598l224 328h176l-280 -328h-120z" />
<glyph unicode="&#xd4;" horiz-adv-x="1514" d="M109 745q0 349 174.5 556t472.5 207q308 0 478.5 -205t170.5 -558q0 -351 -173.5 -556.5t-470.5 -205.5q-293 0 -472.5 207.5t-179.5 554.5zM249 745q0 -291 140 -461.5t372 -170.5q241 0 372.5 168t131.5 464q0 298 -133 464.5t-376 166.5q-236 0 -371.5 -168 t-135.5 -463zM445 1598l260 328h138l261 -328h-140l-190 234l-189 -234h-140z" />
<glyph unicode="&#xd5;" horiz-adv-x="1514" d="M109 745q0 349 174.5 556t472.5 207q308 0 478.5 -205t170.5 -558q0 -351 -173.5 -556.5t-470.5 -205.5q-293 0 -472.5 207.5t-179.5 554.5zM249 745q0 -291 140 -461.5t372 -170.5q241 0 372.5 168t131.5 464q0 298 -133 464.5t-376 166.5q-236 0 -371.5 -168 t-135.5 -463zM410 1731q29 63 86.5 106t126.5 43q61 0 156 -50.5t135 -50.5q65 0 109 95l92 -61q-65 -141 -195 -141q-54 0 -151.5 50.5t-132.5 50.5q-92 0 -147 -108z" />
<glyph unicode="&#xd6;" horiz-adv-x="1514" d="M109 745q0 349 174.5 556t472.5 207q308 0 478.5 -205t170.5 -558q0 -351 -173.5 -556.5t-470.5 -205.5q-293 0 -472.5 207.5t-179.5 554.5zM249 745q0 -291 140 -461.5t372 -170.5q241 0 372.5 168t131.5 464q0 298 -133 464.5t-376 166.5q-236 0 -371.5 -168 t-135.5 -463zM467 1764q0 42 26 68.5t68 26.5q39 0 66.5 -26.5t27.5 -68.5q0 -39 -27.5 -66.5t-66.5 -27.5q-42 0 -68 27.5t-26 66.5zM870 1764q0 42 27 68.5t67 26.5q42 0 68 -26.5t26 -68.5q0 -39 -26 -66.5t-68 -27.5q-40 0 -67 27.5t-27 66.5z" />
<glyph unicode="&#xd7;" horiz-adv-x="1053" d="M138 1043l88 88l300 -296l300 298l88 -88l-301 -298l290 -287l-88 -88l-289 287l-290 -287l-87 88l290 287z" />
<glyph unicode="&#xd8;" horiz-adv-x="1454" d="M90 -19l169 226q-167 203 -167 538q0 349 174.5 556t471.5 207q235 0 397 -128l97 128h157l-162 -218q161 -208 160 -545q0 -351 -173 -556.5t-471 -205.5q-228 0 -396 134l-102 -136h-155zM232 745q1 -258 113 -425l709 951q-125 105 -316 105q-236 0 -371 -167.5 t-135 -463.5zM429 226q130 -112 314 -113q240 0 372 168t132 464q0 265 -107 430z" />
<glyph unicode="&#xd9;" horiz-adv-x="1399" d="M175 541v936h136v-933q0 -222 104 -326.5t282 -104.5q392 0 392 441v923h136v-918q0 -285 -138 -430.5t-390 -145.5q-248 0 -385 142.5t-137 415.5zM364 1926h177l224 -328h-121z" />
<glyph unicode="&#xda;" horiz-adv-x="1399" d="M175 541v936h136v-933q0 -222 104 -326.5t282 -104.5q392 0 392 441v923h136v-918q0 -285 -138 -430.5t-390 -145.5q-248 0 -385 142.5t-137 415.5zM667 1598l222 328h178l-281 -328h-119z" />
<glyph unicode="&#xdb;" horiz-adv-x="1399" d="M175 541v936h136v-933q0 -222 104 -326.5t282 -104.5q392 0 392 441v923h136v-918q0 -285 -138 -430.5t-390 -145.5q-248 0 -385 142.5t-137 415.5zM377 1598l261 328h138l261 -328h-140l-192 234l-188 -234h-140z" />
<glyph unicode="&#xdc;" horiz-adv-x="1399" d="M175 541v936h136v-933q0 -222 104 -326.5t282 -104.5q392 0 392 441v923h136v-918q0 -285 -138 -430.5t-390 -145.5q-248 0 -385 142.5t-137 415.5zM406 1764q0 42 26 68.5t68 26.5q39 0 66.5 -26.5t27.5 -68.5q0 -39 -27.5 -66.5t-66.5 -27.5q-42 0 -68 27.5t-26 66.5z M809 1764q0 42 27 68.5t67 26.5q42 0 68 -26.5t26 -68.5q0 -39 -26 -66.5t-68 -27.5q-40 0 -67 27.5t-27 66.5z" />
<glyph unicode="&#xdd;" horiz-adv-x="1270" d="M65 1477h156l116 -217l296 -570q18 42 300 570l117 217h155l-504 -925v-552h-136v552zM613 1595l224 329h177l-280 -329h-121z" />
<glyph unicode="&#xde;" d="M175 0v1477h136v-281h197q272 0 413.5 -129t141.5 -344q0 -188 -137 -315.5t-393 -127.5h-222v-280h-136zM311 401h237q186 0 281 90t95 232q0 167 -99.5 260t-301.5 93h-212v-675z" />
<glyph unicode="&#xdf;" horiz-adv-x="1152" d="M175 0v1106q0 204 111 305t295 101q163 0 262.5 -94t99.5 -232q0 -101 -46 -177t-91 -129.5t-45 -99.5q0 -52 50 -107t110.5 -96.5t111 -118.5t50.5 -171q0 -132 -94 -217t-266 -85q-100 0 -171 21v141q81 -38 178 -38q98 0 157.5 46t59.5 121q0 59 -34.5 110t-82.5 90 t-97 79.5t-83.5 95t-34.5 120.5q0 61 30 117.5t66 91t66 90t30 116.5q0 89 -66 142.5t-172 53.5q-259 0 -258 -276v-1106h-136z" />
<glyph unicode="&#xe0;" horiz-adv-x="1064" d="M109 314q0 160 124 248.5t328 88.5h217v50q0 149 -63.5 225t-212.5 76q-174 0 -312 -95v145q128 77 314 77q408 0 408 -428v-701h-134v129q-92 -140 -320 -140q-153 0 -251 91t-98 234zM217 1560h178l223 -328h-120zM253 318q0 -92 59.5 -149.5t176.5 -57.5 q132 0 210.5 73t78.5 184v161h-217q-155 0 -231.5 -60.5t-76.5 -150.5z" />
<glyph unicode="&#xe1;" horiz-adv-x="1064" d="M109 314q0 160 124 248.5t328 88.5h217v50q0 149 -63.5 225t-212.5 76q-174 0 -312 -95v145q128 77 314 77q408 0 408 -428v-701h-134v129q-92 -140 -320 -140q-153 0 -251 91t-98 234zM253 318q0 -92 59.5 -149.5t176.5 -57.5q132 0 210.5 73t78.5 184v161h-217 q-155 0 -231.5 -60.5t-76.5 -150.5zM506 1232l224 328h177l-280 -328h-121z" />
<glyph unicode="&#xe2;" horiz-adv-x="1064" d="M109 314q0 160 124 248.5t328 88.5h217v50q0 149 -63.5 225t-212.5 76q-174 0 -312 -95v145q128 77 314 77q408 0 408 -428v-701h-134v129q-92 -140 -320 -140q-153 0 -251 91t-98 234zM226 1229l261 329h138l260 -329h-140l-191 235l-188 -235h-140zM253 318 q0 -92 59.5 -149.5t176.5 -57.5q132 0 210.5 73t78.5 184v161h-217q-155 0 -231.5 -60.5t-76.5 -150.5z" />
<glyph unicode="&#xe3;" horiz-adv-x="1064" d="M109 314q0 160 124 248.5t328 88.5h217v50q0 149 -63.5 225t-212.5 76q-174 0 -312 -95v145q128 77 314 77q408 0 408 -428v-701h-134v129q-92 -140 -320 -140q-153 0 -251 91t-98 234zM193 1363q28 63 86 106t127 43q61 0 156 -50.5t135 -50.5q66 0 110 94l92 -61 q-65 -140 -196 -140q-55 0 -152 50.5t-133 50.5q-92 0 -146 -108zM253 318q0 -92 59.5 -149.5t176.5 -57.5q132 0 210.5 73t78.5 184v161h-217q-155 0 -231.5 -60.5t-76.5 -150.5z" />
<glyph unicode="&#xe4;" horiz-adv-x="1064" d="M109 314q0 160 124 248.5t328 88.5h217v50q0 149 -63.5 225t-212.5 76q-174 0 -312 -95v145q128 77 314 77q408 0 408 -428v-701h-134v129q-92 -140 -320 -140q-153 0 -251 91t-98 234zM249 1389q0 42 27 68t69 26q39 0 66.5 -26t27.5 -68q0 -40 -27.5 -67t-66.5 -27 q-42 0 -69 27.5t-27 66.5zM253 318q0 -92 59.5 -149.5t176.5 -57.5q132 0 210.5 73t78.5 184v161h-217q-155 0 -231.5 -60.5t-76.5 -150.5zM653 1389q0 42 27.5 68t66.5 26q42 0 68 -26t26 -68q0 -40 -26 -67t-68 -27q-40 0 -67 27.5t-27 66.5z" />
<glyph unicode="&#xe5;" horiz-adv-x="1064" d="M109 314q0 160 124 248.5t328 88.5h217v50q0 149 -63.5 225t-212.5 76q-174 0 -312 -95v145q128 77 314 77q408 0 408 -428v-701h-134v129q-92 -140 -320 -140q-153 0 -251 91t-98 234zM253 318q0 -92 59.5 -149.5t176.5 -57.5q132 0 210.5 73t78.5 184v161h-217 q-155 0 -231.5 -60.5t-76.5 -150.5zM339 1424q0 90 62.5 153.5t152.5 63.5t153.5 -63.5t63.5 -153.5t-63.5 -152.5t-153.5 -62.5t-152.5 63.5t-62.5 151.5zM439 1424q0 -48 33.5 -81.5t81.5 -33.5t83.5 33.5t35.5 81.5t-34 83.5t-85 35.5q-48 0 -81.5 -35.5t-33.5 -83.5z " />
<glyph unicode="&#xe6;" horiz-adv-x="1800" d="M121 311q0 163 124.5 252.5t333.5 89.5h210v48q0 149 -64 225t-212 76q-178 0 -312 -92v138q130 81 314 81q289 0 370 -209q134 204 393 205q213 0 324.5 -136t111.5 -387q-1 -63 -9 -107h-781q15 -184 129.5 -281t285.5 -97q181 0 294 73v-135q-132 -66 -301 -66 q-149 0 -271.5 65t-190.5 170q-44 -107 -149.5 -171t-251.5 -64q-153 0 -250.5 87t-97.5 235zM261 316q0 -90 61 -143.5t178 -53.5q121 0 205 74.5t84 197.5v132h-180q-349 0 -348 -207zM924 618h652v51q0 160 -84.5 245t-218.5 85q-138 0 -234 -96t-115 -285z" />
<glyph unicode="&#xe7;" horiz-adv-x="1033" d="M98 552q0 232 155 405.5t418 173.5q136 0 243 -60v-136q-99 65 -230 67q-204 0 -324.5 -133t-120.5 -319q0 -188 116 -317.5t331 -129.5q134 0 228 70v-136q-94 -63 -243 -64q-270 0 -421.5 170.5t-151.5 408.5zM412 -437q190 20 190 161q0 81 -50 165h134 q39 -58 39 -154q0 -114 -81 -193t-232 -86v107z" />
<glyph unicode="&#xe8;" horiz-adv-x="1136" d="M98 550q0 267 136 421t353 154q204 0 325 -134t121 -378q0 -75 -10 -118h-784q15 -184 126.5 -281t295.5 -97q190 -1 301 73v-135q-132 -66 -307 -66q-247 0 -402 155t-155 406zM239 618h656v51q0 151 -85 240.5t-227 89.5q-140 0 -234 -98.5t-110 -282.5zM287 1560h177 l224 -328h-121z" />
<glyph unicode="&#xe9;" horiz-adv-x="1136" d="M98 550q0 267 136 421t353 154q204 0 325 -134t121 -378q0 -75 -10 -118h-784q15 -184 126.5 -281t295.5 -97q190 -1 301 73v-135q-132 -66 -307 -66q-247 0 -402 155t-155 406zM239 618h656v51q0 151 -85 240.5t-227 89.5q-140 0 -234 -98.5t-110 -282.5zM565 1232 l224 328h177l-280 -328h-121z" />
<glyph unicode="&#xea;" horiz-adv-x="1136" d="M98 550q0 267 136 421t353 154q204 0 325 -134t121 -378q0 -75 -10 -118h-784q15 -184 126.5 -281t295.5 -97q190 -1 301 73v-135q-132 -66 -307 -66q-247 0 -402 155t-155 406zM239 618h656v51q0 151 -85 240.5t-227 89.5q-140 0 -234 -98.5t-110 -282.5zM293 1232 l261 328h138l261 -328h-140l-190 234l-189 -234h-141z" />
<glyph unicode="&#xeb;" horiz-adv-x="1136" d="M98 550q0 267 136 421t353 154q204 0 325 -134t121 -378q0 -75 -10 -118h-784q15 -184 126.5 -281t295.5 -97q190 -1 301 73v-135q-132 -66 -307 -66q-247 0 -402 155t-155 406zM239 618h656v51q0 151 -85 240.5t-227 89.5q-140 0 -234 -98.5t-110 -282.5zM320 1396 q0 42 26 68.5t68 26.5q40 0 67 -27t27 -68q0 -39 -27 -66.5t-67 -27.5q-42 0 -68 27.5t-26 66.5zM723 1396q0 42 27.5 68.5t66.5 26.5q42 0 68.5 -27t26.5 -68q0 -39 -26.5 -66.5t-68.5 -27.5q-39 0 -66.5 27.5t-27.5 66.5z" />
<glyph unicode="&#xec;" horiz-adv-x="483" d="M-107 1558h178l222 -329h-120zM175 0v1111h134v-1111h-134z" />
<glyph unicode="&#xed;" horiz-adv-x="483" d="M175 0v1111h134v-1111h-134zM195 1232l223 328h178l-280 -328h-121z" />
<glyph unicode="&#xee;" horiz-adv-x="483" d="M-86 1232l261 328h139l261 -328h-141l-191 234l-188 -234h-141zM175 0v1111h134v-1111h-134z" />
<glyph unicode="&#xef;" horiz-adv-x="483" d="M-52 1401q0 41 26 67.5t68 26.5q39 0 66.5 -26.5t27.5 -67.5q0 -40 -27.5 -67.5t-66.5 -27.5q-42 0 -68 27.5t-26 67.5zM175 0v1111h134v-1111h-134zM351 1401q0 41 27.5 67.5t66.5 26.5q42 0 68 -26.5t26 -67.5q0 -40 -26 -67.5t-68 -27.5q-39 0 -66.5 27.5t-27.5 67.5z " />
<glyph unicode="&#xf0;" horiz-adv-x="1108" d="M86 443q0 213 132.5 334.5t314.5 121.5q211 0 339 -161q-42 243 -213 450l-304 -158v122l228 119q-142 136 -294 206h237q97 -59 175 -145l272 140v-122l-197 -101q234 -299 234 -670q0 -299 -127 -448.5t-342 -149.5q-201 0 -328 136t-127 326zM226 443 q0 -155 88.5 -245.5t226.5 -90.5q145 0 243.5 117t100.5 351q-136 192 -359 192q-127 0 -213.5 -85.5t-86.5 -238.5z" />
<glyph unicode="&#xf1;" d="M167 0v1111h134v-191q102 209 352 209q160 0 256.5 -99t96.5 -254v-776h-134v734q0 129 -66 197t-173 68q-135 0 -233.5 -104t-98.5 -282v-613h-134zM255 1361q29 63 86.5 106t125.5 43q61 0 156.5 -50.5t135.5 -50.5q65 0 109 94l92 -61q-65 -140 -195 -140 q-55 0 -152.5 50.5t-132.5 50.5q-92 0 -147 -108z" />
<glyph unicode="&#xf2;" horiz-adv-x="1228" d="M98 550q0 243 142.5 410t368.5 167q247 0 384.5 -163.5t137.5 -413.5q0 -247 -139.5 -408t-382.5 -161q-235 0 -373 162t-138 407zM239 550q0 -182 102 -312.5t268 -130.5q182 0 282 128.5t100 314.5q0 193 -95 321t-287 128q-174 0 -272 -131.5t-98 -317.5zM276 1560 h178l223 -328h-121z" />
<glyph unicode="&#xf3;" horiz-adv-x="1228" d="M98 550q0 243 142.5 410t368.5 167q247 0 384.5 -163.5t137.5 -413.5q0 -247 -139.5 -408t-382.5 -161q-235 0 -373 162t-138 407zM239 550q0 -182 102 -312.5t268 -130.5q182 0 282 128.5t100 314.5q0 193 -95 321t-287 128q-174 0 -272 -131.5t-98 -317.5zM579 1232 l223 328h177l-280 -328h-120z" />
<glyph unicode="&#xf4;" horiz-adv-x="1228" d="M98 550q0 243 142.5 410t368.5 167q247 0 384.5 -163.5t137.5 -413.5q0 -247 -139.5 -408t-382.5 -161q-235 0 -373 162t-138 407zM239 550q0 -182 102 -312.5t268 -130.5q182 0 282 128.5t100 314.5q0 193 -95 321t-287 128q-174 0 -272 -131.5t-98 -317.5zM291 1229 l261 329h138l261 -329h-140l-190 235l-190 -235h-140z" />
<glyph unicode="&#xf5;" horiz-adv-x="1228" d="M98 550q0 243 142.5 410t368.5 167q247 0 384.5 -163.5t137.5 -413.5q0 -247 -139.5 -408t-382.5 -161q-235 0 -373 162t-138 407zM239 550q0 -182 102 -312.5t268 -130.5q182 0 282 128.5t100 314.5q0 193 -95 321t-287 128q-174 0 -272 -131.5t-98 -317.5zM268 1361 q28 63 86 106t126 43q61 0 156.5 -50.5t134.5 -50.5q66 0 110 94l92 -61q-66 -140 -195 -140q-55 0 -152 50.5t-133 50.5q-92 0 -146 -108z" />
<glyph unicode="&#xf6;" horiz-adv-x="1228" d="M98 550q0 243 142.5 410t368.5 167q247 0 384.5 -163.5t137.5 -413.5q0 -247 -139.5 -408t-382.5 -161q-235 0 -373 162t-138 407zM239 550q0 -182 102 -312.5t268 -130.5q182 0 282 128.5t100 314.5q0 193 -95 321t-287 128q-174 0 -272 -131.5t-98 -317.5zM335 1391 q0 42 26 68.5t68 26.5q40 0 67 -26.5t27 -68.5q0 -40 -27 -67t-67 -27q-42 0 -68 27t-26 67zM738 1391q0 42 27.5 68.5t66.5 26.5q42 0 68.5 -26.5t26.5 -68.5q0 -40 -26.5 -67t-68.5 -27q-39 0 -66.5 27t-27.5 67z" />
<glyph unicode="&#xf7;" horiz-adv-x="1191" d="M132 684v123h928v-123h-928zM495 353q0 42 29.5 71.5t71.5 29.5t71.5 -29.5t29.5 -71.5t-29.5 -71t-71.5 -29t-71.5 29t-29.5 71zM495 1137.5q0 41.5 29.5 71t71.5 29.5t71.5 -29.5t29.5 -71t-29.5 -71t-71.5 -29.5t-71.5 29.5t-29.5 71z" />
<glyph unicode="&#xf8;" horiz-adv-x="1233" d="M136 -19l132 170q-132 157 -132 399q0 243 142.5 410t367.5 167q176 0 299 -86l65 86h158l-131 -171q131 -156 131 -406q0 -247 -139.5 -408t-382.5 -161q-169 0 -289 86l-66 -86h-155zM270 550q0 -164 81 -287l519 680q-92 63 -224 63q-175 0 -275.5 -133t-100.5 -323z M437 171q94 -70 209 -70q184 0 286.5 129.5t102.5 319.5q0 182 -77 301z" />
<glyph unicode="&#xf9;" d="M153 339v772h134v-734q0 -128 67 -196t177 -68q146 0 237 105.5t91 274.5v618h134v-1111h-134v199q-88 -215 -353 -214q-163 0 -258 97.5t-95 256.5zM239 1558h177l224 -329h-121z" />
<glyph unicode="&#xfa;" d="M153 339v772h134v-734q0 -128 67 -196t177 -68q146 0 237 105.5t91 274.5v618h134v-1111h-134v199q-88 -215 -353 -214q-163 0 -258 97.5t-95 256.5zM529 1232l222 328h178l-281 -328h-119z" />
<glyph unicode="&#xfb;" d="M153 339v772h134v-734q0 -128 67 -196t177 -68q146 0 237 105.5t91 274.5v618h134v-1111h-134v199q-88 -215 -353 -214q-163 0 -258 97.5t-95 256.5zM247 1232l261 328h138l261 -328h-140l-190 234l-190 -234h-140z" />
<glyph unicode="&#xfc;" d="M153 339v772h134v-734q0 -128 67 -196t177 -68q146 0 237 105.5t91 274.5v618h134v-1111h-134v199q-88 -215 -353 -214q-163 0 -258 97.5t-95 256.5zM287 1391q0 42 26 68.5t68 26.5q40 0 67 -26.5t27 -68.5q0 -40 -27 -67t-67 -27q-42 0 -68 27.5t-26 66.5zM690 1391 q0 42 27.5 68.5t66.5 26.5q42 0 68 -26.5t26 -68.5q0 -40 -26 -67t-68 -27q-39 0 -66.5 27.5t-27.5 66.5z" />
<glyph unicode="&#xfd;" horiz-adv-x="1056" d="M19 1111h154l151 -373l215 -535q15 51 191 535l136 373h148l-403 -1082q-83 -226 -196.5 -311.5t-259.5 -85.5q-44 0 -82 11v131q39 -10 74 -10q234 0 326 267zM487 1232l223 328h177l-280 -328h-120z" />
<glyph unicode="&#xfe;" horiz-adv-x="1215" d="M167 -439v1988h134v-600q116 180 343 180q224 0 348.5 -163.5t124.5 -398.5q0 -259 -133 -421.5t-344 -162.5q-217 0 -339 184v-606h-134zM301 550q0 -123 33.5 -214t87 -138t107.5 -68t107 -21q148 0 244.5 120t96.5 340q0 191 -93 312t-235.5 121t-245 -104.5 t-102.5 -347.5z" />
<glyph unicode="&#xff;" horiz-adv-x="1056" d="M19 1111h154l151 -373l215 -535q15 51 191 535l136 373h148l-403 -1082q-83 -226 -196.5 -311.5t-259.5 -85.5q-44 0 -82 11v131q39 -10 74 -10q234 0 326 267zM253 1391q0 42 26 68.5t68 26.5q39 0 66.5 -26.5t27.5 -68.5q0 -40 -28 -67t-66 -27q-42 0 -68 27t-26 67z M655 1391q0 42 27.5 68.5t66.5 26.5q42 0 68 -26.5t26 -68.5q0 -40 -26 -67t-68 -27q-40 0 -67 27t-27 67z" />
<glyph unicode="&#x152;" horiz-adv-x="2144" d="M109 745q0 351 170 557t466 206q332 0 502 -245v214h787v-125h-652v-552h575v-125h-575v-550h665v-125h-800v232q-170 -249 -498 -249q-291 0 -465.5 207t-174.5 555zM249 745q0 -293 135 -462.5t365 -169.5q241 0 369.5 167t128.5 465t-129 464.5t-373 166.5 q-237 0 -366.5 -167.5t-129.5 -463.5z" />
<glyph unicode="&#x153;" horiz-adv-x="1963" d="M98 550q0 245 133 411t356 166q299 0 421 -251q132 248 423 249q213 0 324.5 -136t111.5 -387q0 -63 -8 -107h-780q15 -184 128.5 -281t285.5 -97q182 -1 293 73v-135q-132 -66 -300 -66q-153 0 -277 66t-197 186q-123 -261 -425 -260q-232 0 -360.5 161t-128.5 408z M239 550q0 -186 92 -314.5t256 -128.5q180 0 264 125t84 318q0 449 -348 449q-171 0 -259.5 -129.5t-88.5 -319.5zM1079 618h650v51q0 160 -84.5 245t-218.5 85q-138 0 -234 -96t-113 -285z" />
<glyph unicode="&#x178;" horiz-adv-x="1270" d="M65 1477h156l116 -217l296 -570q18 42 300 570l117 217h155l-504 -925v-552h-136v552zM337 1762q0 42 27 68t67 26t67.5 -26t27.5 -68q0 -39 -27.5 -66.5t-67.5 -27.5q-42 0 -68 27.5t-26 66.5zM740 1762q0 42 27.5 68t67.5 26q41 0 67.5 -26t26.5 -68q0 -39 -26.5 -66.5 t-67.5 -27.5q-40 0 -67.5 27.5t-27.5 66.5z" />
<glyph unicode="&#x2c6;" horiz-adv-x="876" d="M107 1420l261 328h138l261 -328h-140l-190 234l-190 -234h-140z" />
<glyph unicode="&#x2dc;" horiz-adv-x="876" d="M109 1523q29 63 87.5 106t125.5 43q61 0 157 -50.5t134 -50.5q66 0 110 94l92 -61q-65 -140 -194 -140q-55 0 -153 50t-133 50q-92 0 -147 -107z" />
<glyph unicode="&#x2000;" horiz-adv-x="1003" />
<glyph unicode="&#x2001;" horiz-adv-x="2007" />
<glyph unicode="&#x2002;" horiz-adv-x="1003" />
<glyph unicode="&#x2003;" horiz-adv-x="2007" />
<glyph unicode="&#x2004;" horiz-adv-x="669" />
<glyph unicode="&#x2005;" horiz-adv-x="501" />
<glyph unicode="&#x2006;" horiz-adv-x="334" />
<glyph unicode="&#x2007;" horiz-adv-x="334" />
<glyph unicode="&#x2008;" horiz-adv-x="250" />
<glyph unicode="&#x2009;" horiz-adv-x="401" />
<glyph unicode="&#x200a;" horiz-adv-x="111" />
<glyph unicode="&#x2010;" horiz-adv-x="755" d="M132 533v120h493v-120h-493z" />
<glyph unicode="&#x2011;" horiz-adv-x="755" d="M132 533v120h493v-120h-493z" />
<glyph unicode="&#x2012;" horiz-adv-x="755" d="M132 533v120h493v-120h-493z" />
<glyph unicode="&#x2013;" horiz-adv-x="1173" d="M132 533v120h911v-120h-911z" />
<glyph unicode="&#x2014;" horiz-adv-x="1794" d="M132 537v120h1531v-120h-1531z" />
<glyph unicode="&#x2018;" horiz-adv-x="343" d="M15 1054l253 469h98l-173 -469h-178z" />
<glyph unicode="&#x2019;" horiz-adv-x="345" d="M17 1054l173 469h178l-251 -469h-100z" />
<glyph unicode="&#x201a;" horiz-adv-x="345" d="M9 -268l173 469h178l-253 -469h-98z" />
<glyph unicode="&#x201c;" horiz-adv-x="634" d="M17 1054l253 469h98l-173 -469h-178zM307 1054l252 469h98l-172 -469h-178z" />
<glyph unicode="&#x201d;" horiz-adv-x="632" d="M17 1054l173 469h178l-251 -469h-100zM307 1054l173 469h177l-251 -469h-99z" />
<glyph unicode="&#x201e;" horiz-adv-x="632" d="M9 -268l173 469h178l-253 -469h-98zM299 -268l172 469h177l-251 -469h-98z" />
<glyph unicode="&#x2022;" horiz-adv-x="996" d="M209 780q0 125 81.5 208t207.5 83q123 0 207 -84t84 -207t-83 -207t-206 -84q-126 0 -208.5 83t-82.5 208z" />
<glyph unicode="&#x2026;" horiz-adv-x="1449" d="M65 94q0 48 32 80.5t80.5 32.5t80 -32.5t31.5 -80.5t-31.5 -79.5t-80 -31.5t-80.5 31.5t-32 79.5zM613 94q0 48 32 80.5t80.5 32.5t80 -32.5t31.5 -80.5t-31.5 -79.5t-80 -31.5t-80.5 31.5t-32 79.5zM1161 94q0 48 32 80.5t80 32.5t80 -32.5t32 -80.5t-32 -79.5 t-80 -31.5t-80 31.5t-32 79.5z" />
<glyph unicode="&#x202f;" horiz-adv-x="401" />
<glyph unicode="&#x2039;" horiz-adv-x="613" d="M65 554l330 356h153l-322 -356l322 -355h-153z" />
<glyph unicode="&#x203a;" horiz-adv-x="606" d="M65 199l322 355l-322 356h154l329 -356l-329 -355h-154z" />
<glyph unicode="&#x205f;" horiz-adv-x="501" />
<glyph unicode="&#x20ac;" horiz-adv-x="1274" d="M121 495v107h212q-7 53 -7 111q0 77 9 130h-214v108h232q57 232 216 362.5t378 130.5q157 0 241 -41v-130q-82 42 -228 42q-171 0 -292.5 -93t-169.5 -271h445v-108h-468q-8 -54 -8 -130q0 -57 6 -111h470v-107h-450q48 -181 172 -282.5t284 -101.5q155 0 239 46v-128 q-90 -46 -257 -46q-211 0 -370.5 138t-211.5 374h-228z" />
<glyph unicode="&#x2122;" horiz-adv-x="1485" d="M0 1376v101h491v-101h-186v-653h-112v653h-193zM559 725l59 752h158l138 -394l68 -215q36 107 74 215l147 394h162l51 -752h-114l-24 366l-11 248q-19 -57 -90 -248l-132 -348h-125l-123 348l-84 248q-7 -59 -19 -248l-19 -366h-116z" />
<glyph unicode="&#x25fc;" horiz-adv-x="1117" d="M0 0v1117h1117v-1117h-1117z" />
<glyph unicode="&#xfb03;" horiz-adv-x="1612" d="M65 997v114h205v118q0 153 82 242t240 89q146 0 291 -77q83 77 219 77q145 0 274 -69v-132q-142 75 -280 74q-172 0 -172 -206v-116h523v-1111h-134v997h-389v-997h-133v997h-388v-997h-133v997h-205zM403 1111h388v118q0 82 24 149q-105 55 -230 55q-182 0 -182 -206 v-116z" />
<glyph unicode="&#xfb04;" horiz-adv-x="1592" d="M65 997v114h205v118q0 153 82 242t240 89q146 0 291 -77q83 77 219 77q171 0 324 -98v-1462h-133v1391q-103 42 -184 42q-182 0 -182 -206v-116h254v-114h-254v-997h-134v997h-390v-997h-133v997h-205zM403 1111h390v118q0 82 24 149q-104 55 -232 55q-182 0 -182 -206 v-116z" />
</font>
</defs>
</svg>
