<?xml version="1.0" standalone="no"?>
<!DOCTYPE svg PUBLIC "-//W3C//DTD SVG 1.1//EN" "http://www.w3.org/Graphics/SVG/1.1/DTD/svg11.dtd" >
<svg xmlns="http://www.w3.org/2000/svg" xmlns:xlink="http://www.w3.org/1999/xlink" version="1.1">
<metadata></metadata>
<defs>
<font id="hindsemibold" horiz-adv-x="1249" >
<font-face units-per-em="2048" ascent="1638" descent="-410" />
<missing-glyph horiz-adv-x="547" />
<glyph unicode="&#xfb01;" horiz-adv-x="1220" d="M66 922v199h164v67q0 188 104 294t292 106q190 0 374 -86v-223q-188 88 -341 88q-82 0 -122.5 -41t-40.5 -140v-65h608v-1121h-266v922h-342v-922h-266v922h-164z" />
<glyph unicode="&#xfb02;" horiz-adv-x="1242" d="M66 922v199h164v67q0 188 104 294t290 106q219 0 475 -128v-1460h-267v1342q-87 25 -161 25q-87 0 -131 -38.5t-44 -142.5v-65h223v-199h-223v-922h-266v922h-164z" />
<glyph horiz-adv-x="0" />
<glyph horiz-adv-x="682" />
<glyph horiz-adv-x="0" />
<glyph horiz-adv-x="0" />
<glyph unicode="&#xd;" horiz-adv-x="735" />
<glyph unicode=" "  horiz-adv-x="547" />
<glyph unicode="&#x09;" horiz-adv-x="547" />
<glyph unicode="&#xa0;" horiz-adv-x="547" />
<glyph unicode="!" horiz-adv-x="608" d="M126 157q0 73 50 124t125 51q74 0 124 -51t50 -124q0 -76 -50.5 -125t-123.5 -49q-75 0 -125 49t-50 125zM177 496v994h254v-994h-254z" />
<glyph unicode="&#x22;" horiz-adv-x="777" d="M93 949v558h226v-558h-226zM460 949v558h228v-558h-228z" />
<glyph unicode="#" horiz-adv-x="1634" d="M106 354v205h272l78 359h-257v213h301l75 357h230l-75 -357h338l76 357h228l-76 -357h232v-213h-276l-78 -359h263v-205h-304l-76 -354h-230l76 354h-339l-75 -354h-228l75 354h-230zM608 559h339l75 359h-338z" />
<glyph unicode="$" horiz-adv-x="1127" d="M91 1081q0 173 115 283.5t311 132.5v244h226v-248q129 -18 224 -64v-270q-167 99 -355 99q-103 0 -162 -46.5t-59 -118.5q0 -40 19 -72.5t63 -62t78.5 -47.5t102.5 -48q85 -38 140 -68.5t118 -83t94.5 -126.5t31.5 -167q0 -173 -109.5 -287t-295.5 -140v-246h-224v244 q-183 17 -307 89v285q190 -137 415 -137q102 0 164 49.5t62 133.5q0 25 -7.5 45.5t-18 37.5t-32.5 34.5t-37 28.5t-49.5 29t-52.5 25.5t-61.5 26t-62.5 27.5q-152 71 -241.5 164t-89.5 254z" />
<glyph unicode="%" horiz-adv-x="2045" d="M104 1161.5q0 163.5 115 278.5t278.5 115t278.5 -115t115 -279q0 -162 -116 -277.5t-277 -115.5q-164 0 -279 115t-115 278.5zM321 1161q0 -71 51.5 -123t125.5 -52q71 0 123 52.5t52 122.5q0 73 -52.5 125t-122.5 52q-74 0 -125.5 -52t-51.5 -125zM485 -2l820 1530h246 l-823 -1530h-243zM1157 376.5q0 163.5 115 278.5t279 115q162 0 277.5 -115t115.5 -278.5t-116 -278.5t-277 -115q-164 0 -279 115t-115 278.5zM1376 376q0 -71 50.5 -123t124.5 -52q71 0 122.5 52.5t51.5 122.5q0 73 -52 125t-122 52q-74 0 -124.5 -52t-50.5 -125z" />
<glyph unicode="&#x26;" horiz-adv-x="1607" d="M124 401q0 135 79.5 227.5t252.5 150.5q-175 188 -175 349q0 185 127.5 290.5t325.5 105.5q213 0 339 -109.5t126 -293.5q0 -131 -76 -231.5t-254 -184.5l277 -270q46 84 51 202h243q-7 -208 -117 -369q205 -202 279 -268h-337q-29 27 -110 104q-182 -122 -429 -121 q-277 0 -439.5 119t-162.5 299zM396 409q0 -90 93 -145.5t237 -55.5q141 0 256 62l-349 336l-21 20q-117 -40 -166.5 -92t-49.5 -125zM553 1131q0 -104 168 -277q209 106 208 254q0 89 -52 140.5t-145 51.5q-78 0 -128.5 -44t-50.5 -125z" />
<glyph unicode="'" horiz-adv-x="410" d="M93 949v558h226v-558h-226z" />
<glyph unicode="(" horiz-adv-x="724" d="M114 575q0 565 346 989h281q-166 -211 -255.5 -480.5t-89.5 -517.5q0 -241 93 -509.5t272 -489.5h-288q-359 449 -359 1008z" />
<glyph unicode=")" horiz-adv-x="724" d="M-36 -433q177 221 270 489.5t93 509.5q0 247 -88.5 517t-253.5 481h281q344 -427 344 -989q0 -558 -361 -1008h-285z" />
<glyph unicode="*" horiz-adv-x="1038" d="M62 1079l69 206l203 -67q53 -17 95 -48q-18 46 -18 107v213h218v-213q0 -60 -19 -107q36 29 95 48l207 67l65 -206l-203 -66q-53 -15 -99 -15h-10q45 -29 78 -76l126 -175l-175 -126l-126 173q-33 51 -46 93q-13 -42 -49 -91l-128 -175l-174 126l127 175q36 45 76 74h-7 q-48 0 -99 17z" />
<glyph unicode="+" horiz-adv-x="1273" d="M110 631v238h401v410h245v-410h407v-238h-407v-405h-245v405h-401z" />
<glyph unicode="," horiz-adv-x="591" d="M-15 -279l216 547h308l-294 -547h-230z" />
<glyph unicode="-" horiz-adv-x="779" d="M110 473v224h563v-224h-563z" />
<glyph unicode="." horiz-adv-x="492" d="M76 155q0 71 50.5 120.5t121.5 49.5t120.5 -49.5t49.5 -120.5t-49.5 -121.5t-120.5 -50.5t-121.5 50.5t-50.5 121.5z" />
<glyph unicode="/" horiz-adv-x="975" d="M-11 -228l798 1792h277l-800 -1792h-275z" />
<glyph unicode="0" horiz-adv-x="1207" d="M84 730q0 342 135 542.5t383 200.5q249 0 385 -200.5t136 -542.5q0 -340 -133.5 -543.5t-387.5 -203.5q-248 0 -383 203.5t-135 543.5zM356 730q0 -243 65.5 -374.5t180.5 -131.5q119 0 184 130.5t65 375.5t-67 373.5t-182 128.5q-113 0 -179.5 -129.5t-66.5 -372.5z" />
<glyph unicode="1" horiz-adv-x="791" d="M29 944v276l382 226h235v-1446h-264v1159z" />
<glyph unicode="2" horiz-adv-x="1100" d="M73 0v213q260 183 447 392t187 377q0 110 -63.5 172t-185.5 62q-184 0 -352 -137v259q73 55 181.5 90.5t216.5 35.5q213 0 346.5 -116t133.5 -326q1 -393 -543 -794h576v-228h-944z" />
<glyph unicode="3" horiz-adv-x="1051" d="M73 62v259q173 -93 362 -93q120 0 187.5 56t67.5 145q0 192 -312 192h-84v224h84q118 0 197 51t79 144q0 186 -227 186q-151 0 -301 -93v249q150 82 317 82q228 0 357 -110.5t129 -283.5q0 -249 -228 -340q124 -31 192.5 -116.5t68.5 -214.5q0 -182 -134 -296t-374 -114 q-224 0 -381 73z" />
<glyph unicode="4" horiz-adv-x="1224" d="M78 325v228l481 895h427v-895h191v-228h-191v-325h-265v325h-643zM340 553h381v728z" />
<glyph unicode="5" horiz-adv-x="1114" d="M97 62v254q146 -88 338 -88q325 0 326 249q0 98 -70 153.5t-197 55.5q-169 0 -330 -76v838h778v-228h-518v-317q64 13 125 13q232 0 359 -119.5t127 -325.5q0 -222 -146 -354t-409 -132q-228 0 -383 77z" />
<glyph unicode="6" horiz-adv-x="1178" d="M93 659q0 367 192 594t502 227q120 0 217 -36v-250q-86 45 -199 45q-178 0 -288 -119.5t-141 -307.5q133 122 314 121q192 0 308.5 -126t116.5 -338q0 -220 -133 -362.5t-361 -142.5q-259 0 -393.5 189t-134.5 506zM365 582q13 -194 83 -286.5t176 -92.5q100 0 158 72.5 t58 191.5q0 108 -57 172t-157 64q-143 0 -261 -121z" />
<glyph unicode="7" horiz-adv-x="1036" d="M38 1218v230h962v-230l-576 -1218h-283l578 1218h-681z" />
<glyph unicode="8" horiz-adv-x="1195" d="M91 382q0 243 228 344q-206 103 -207 321q0 198 138.5 310t342.5 112q213 0 349.5 -106.5t136.5 -316.5t-199 -314q226 -88 226 -338q0 -186 -143.5 -299.5t-369.5 -113.5t-364 108t-138 293zM359 391q0 -82 59 -138t177 -56q120 0 181.5 59.5t61.5 144.5q0 88 -63 147.5 t-180 59.5q-118 -2 -177 -65t-59 -152zM382 1051q0 -100 62.5 -153t154.5 -53q91 0 152 53t61 153q0 88 -50.5 144.5t-168.5 56.5q-102 0 -156.5 -58.5t-54.5 -142.5z" />
<glyph unicode="9" horiz-adv-x="1154" d="M57 973q0 213 131 353.5t354 140.5q255 0 391.5 -185t136.5 -490q0 -397 -175.5 -603t-489.5 -206q-145 0 -259 42v254q114 -53 234 -53q363 0 416 393q-99 -110 -302 -110q-188 0 -312.5 127.5t-124.5 336.5zM332 977q0 -112 62 -179.5t165 -67.5q153 0 246 117 q-9 185 -74.5 282t-175.5 97q-101 0 -162 -66.5t-61 -182.5z" />
<glyph unicode=":" horiz-adv-x="589" d="M126 168q0 71 49 120.5t119.5 49.5t120 -49.5t49.5 -120.5t-49.5 -119.5t-120 -48.5t-119.5 48.5t-49 119.5zM126 893.5q0 70.5 49 120.5t119.5 50t120 -50t49.5 -120.5t-49.5 -120t-120 -49.5t-119.5 49.5t-49 120z" />
<glyph unicode=";" horiz-adv-x="591" d="M-15 -279l216 547h308l-294 -547h-230zM159 893.5q0 70.5 49 120.5t120 50t121.5 -50t50.5 -120.5t-50.5 -120t-121.5 -49.5t-120 49.5t-49 120z" />
<glyph unicode="&#x3c;" d="M110 626v254l1038 403v-268q-707 -232 -770 -261q29 -13 221.5 -79.5t369.5 -125.5l179 -60v-265z" />
<glyph unicode="=" horiz-adv-x="1273" d="M110 401v223h1053v-223h-1053zM110 882v222h1053v-222h-1053z" />
<glyph unicode="&#x3e;" d="M104 224v265q703 235 768 265q-27 13 -219.5 78t-369.5 124l-179 59v268l1038 -403v-254z" />
<glyph unicode="?" horiz-adv-x="1007" d="M129 1182v253q139 74 342 74q208 0 336 -108.5t128 -296.5q0 -100 -39.5 -179.5t-100.5 -126t-125 -71t-124 -28.5l-4 -203h-246l-7 346q374 0 374 235q0 93 -57 148.5t-171 55.5q-154 0 -306 -99zM241 157q0 73 49.5 124t125.5 51q73 0 124 -51t51 -124q0 -76 -51 -125 t-124 -49q-76 0 -125.5 49t-49.5 125z" />
<glyph unicode="@" horiz-adv-x="2100" d="M106 441q0 276 138 506t371.5 359t509.5 129q368 0 628 -229t260 -604q0 -260 -127.5 -422.5t-300.5 -162.5q-238 0 -306 224q-102 -224 -335 -224q-173 0 -273.5 127.5t-100.5 317.5q0 219 131 357.5t314 138.5q177 0 264 -153q4 48 8 146h217l-16 -143 q-19 -298 -19 -348q0 -234 126 -234q84 0 139.5 97t55.5 261q0 310 -189 471t-486 161q-330 0 -550 -231t-220 -552q0 -306 187 -479t459 -173q226 0 425 99l-9 -232q-179 -86 -416 -86q-411 0 -648 252t-237 627zM810 449q0 -106 58.5 -170t144.5 -64q80 0 149.5 58.5 t95.5 167.5q0 15 1 46.5t4 48.5q-16 110 -71 167.5t-141 57.5q-102 0 -171.5 -85t-69.5 -227z" />
<glyph unicode="A" horiz-adv-x="1490" d="M62 0l504 1490h361l504 -1490h-300l-107 338h-564l-106 -338h-292zM534 566h420l-21 67q-75 239 -122 401.5t-59 204.5l-9 44q-19 -110 -190 -652z" />
<glyph unicode="B" horiz-adv-x="1308" d="M154 0v1490h530q238 0 371 -112.5t133 -291.5q0 -122 -66.5 -211.5t-170.5 -118.5q120 -29 197.5 -116t77.5 -237q0 -177 -124.5 -290t-343.5 -113h-604zM433 228h240q267 0 267 201q0 210 -279 210h-228v-411zM433 863h169q150 0 225.5 59.5t75.5 152.5q0 86 -63 137 t-192 51h-215v-400z" />
<glyph unicode="C" horiz-adv-x="1346" d="M95 745q0 338 213.5 552t550.5 214q245 0 382 -82v-272q-169 97 -372.5 97t-339 -138.5t-135.5 -370.5t135.5 -369t355.5 -137q210 0 358 111v-279q-137 -88 -384 -88q-332 0 -548 209t-216 553z" />
<glyph unicode="D" horiz-adv-x="1492" d="M154 0v1490h488q333 0 545.5 -205.5t212.5 -518.5q0 -343 -206 -554.5t-552 -211.5h-488zM441 232h196q235 0 356.5 145t121.5 389q0 215 -129.5 352.5t-352.5 137.5h-192v-1024z" />
<glyph unicode="E" horiz-adv-x="1167" d="M154 0v1490h881v-227h-600v-404h534v-226h-534v-405h609v-228h-890z" />
<glyph unicode="F" horiz-adv-x="1102" d="M154 0v1490h874v-227h-593v-440h519v-228h-519v-595h-281z" />
<glyph unicode="G" horiz-adv-x="1532" d="M95 747q0 345 224.5 557.5t567.5 212.5q255 0 436 -95v-285q-201 121 -428 121h-4q-224 0 -360.5 -139t-136.5 -372q0 -236 133.5 -372t367.5 -136q115 0 224 40v352h-274v238h548v-717h-2l2 -23q-203 -146 -508 -146q-355 0 -572.5 205.5t-217.5 558.5z" />
<glyph unicode="H" horiz-adv-x="1481" d="M154 0v1490h279v-623h614v623h280v-1490h-280v626h-614v-626h-279z" />
<glyph unicode="I" horiz-adv-x="623" d="M173 0v1490h278v-1490h-278z" />
<glyph unicode="J" horiz-adv-x="838" d="M66 44v252q84 -53 177 -53q171 0 171 181v1064h278v-1064q0 -210 -106 -318t-292 -108q-140 0 -228 46z" />
<glyph unicode="K" horiz-adv-x="1388" d="M154 0v1490h279v-1490h-279zM456 739l515 751h334l-518 -747l555 -743h-351z" />
<glyph unicode="L" horiz-adv-x="1070" d="M154 0v1490h279v-1243h582v-247h-861z" />
<glyph unicode="M" horiz-adv-x="1946" d="M129 0l118 1490h319l204 -541q53 -137 99.5 -273t65.5 -203l21 -68q68 230 190 544l207 541h319l146 -1490h-279l-53 582l-40 522q-80 -228 -190 -522l-207 -560h-190l-205 560l-174 515q0 -108 -29 -515l-44 -582h-278z" />
<glyph unicode="N" horiz-adv-x="1521" d="M154 0v1490h317l358 -621q89 -152 158.5 -283.5t93.5 -186.5l25 -57q-17 184 -17 527v621h280v-1490h-318l-363 619q-86 146 -156 279.5t-97 194.5l-26 62q24 -203 24 -509v-25v-621h-279z" />
<glyph unicode="O" horiz-adv-x="1598" d="M95 750q0 347 191 557t512 210q325 0 515.5 -209t190.5 -558q0 -345 -191.5 -555t-512 -210t-513 210t-192.5 555zM394 750q0 -235 110.5 -372t295.5 -137q188 0 296.5 136t108.5 372.5t-108.5 373.5t-298.5 137q-188 0 -296 -137t-108 -373z" />
<glyph unicode="P" horiz-adv-x="1229" d="M154 0v1490h467q252 0 404 -137t152 -351q0 -228 -156 -361.5t-392 -133.5h-196v-507h-279zM433 732h158q152 0 227 73t75 197q0 122 -75 191.5t-221 69.5h-164v-531z" />
<glyph unicode="Q" horiz-adv-x="1611" d="M95 750q0 347 191 557t512 210q325 0 515.5 -209t190.5 -558q0 -243 -97.5 -422.5t-273.5 -268.5l452 -262l-313 -122l-438 310h-34q-320 0 -512.5 210t-192.5 555zM394 750q0 -235 110.5 -372t295.5 -137q188 0 296.5 136t108.5 372.5t-108.5 373.5t-298.5 137 q-188 0 -296 -137t-108 -373z" />
<glyph unicode="R" horiz-adv-x="1302" d="M154 0v1490h461q254 0 399 -128t145 -342q-2 -159 -77 -268.5t-206 -162.5l382 -589h-334l-338 544h-153v-544h-279zM433 774h186q128 0 192.5 65.5t64.5 182.5q0 114 -67.5 176t-193.5 62h-182v-486z" />
<glyph unicode="S" horiz-adv-x="1144" d="M108 1081q0 190 140.5 305.5t372.5 115.5q211 0 363 -73v-270q-166 99 -353 99q-104 0 -163 -46.5t-59 -119t63.5 -120.5t188.5 -105q89 -40 144.5 -69.5t120.5 -83t97 -127.5t32 -169q0 -199 -142.5 -317t-374.5 -118q-252 0 -418 95v285q190 -137 416 -137 q101 0 163 49.5t62 133.5q0 40 -15.5 71t-63 61.5t-73 44t-105.5 49.5q-21 11 -33 15q-82 38 -133 67.5t-110.5 80.5t-89.5 122t-30 161z" />
<glyph unicode="T" horiz-adv-x="1149" d="M57 1260v230h1038v-230h-378v-1260h-282v1260h-378z" />
<glyph unicode="U" horiz-adv-x="1456" d="M146 557v933h278v-931q0 -170 84.5 -246t219.5 -76q304 0 304 333v920h279v-918q0 -289 -155.5 -440t-427.5 -151q-266 0 -424 149t-158 427z" />
<glyph unicode="V" horiz-adv-x="1439" d="M55 1490h304l183 -593q55 -177 99.5 -337.5t61.5 -234.5l16 -73q53 247 178 645l187 593h298l-508 -1490h-319z" />
<glyph unicode="W" horiz-adv-x="2117" d="M55 1490h295l139 -550q36 -148 71 -307.5t52 -243.5l19 -86q71 279 171 637l152 529h225l153 -529l177 -642q55 308 137 644l135 548h283l-380 -1490h-323l-135 471q-55 188 -94 332t-53 193l-11 51q-31 -155 -154 -576l-140 -471h-320z" />
<glyph unicode="X" horiz-adv-x="1423" d="M71 0l473 754l-451 736h325l285 -488q31 60 147.5 262.5t129.5 225.5h339l-452 -736l488 -754h-331l-317 515q-33 -64 -158 -270.5t-144 -244.5h-334z" />
<glyph unicode="Y" horiz-adv-x="1379" d="M40 1490h325l99 -216q87 -188 142 -315t67 -159l13 -32q19 82 228 506l101 216h325l-513 -937v-553h-278v544z" />
<glyph unicode="Z" horiz-adv-x="1328" d="M126 0v213l712 1050h-701v227h1037v-205l-714 -1057h743v-228h-1077z" />
<glyph unicode="[" horiz-adv-x="758" d="M154 -422v1986h580v-232h-325v-1520h325v-234h-580z" />
<glyph unicode="\" horiz-adv-x="975" d="M-91 1564h279l798 -1792h-276z" />
<glyph unicode="]" horiz-adv-x="758" d="M25 -188h325v1520h-325v232h579v-1986h-579v234z" />
<glyph unicode="^" horiz-adv-x="1061" d="M84 734l325 580h245l323 -580h-251l-195 374l-197 -374h-250z" />
<glyph unicode="_" horiz-adv-x="1220" d="M51 -89h1119v-223h-1119v223z" />
<glyph unicode="`" horiz-adv-x="1038" d="M281 1765h278l202 -374h-223z" />
<glyph unicode="a" horiz-adv-x="1121" d="M89 319q0 158 119 249t345 91h164v69q0 93 -49 141.5t-166 48.5q-179 0 -329 -99v245q126 78 363 78q455 0 455 -425v-717h-263v135q-78 -144 -293 -144q-159 0 -252.5 93t-93.5 235zM365 329q0 -141 163 -141q89 0 139 52t50 136v106h-137q-104 0 -159.5 -43t-55.5 -110 z" />
<glyph unicode="b" horiz-adv-x="1315" d="M146 0v1564h268v-613q117 186 336 186q210 0 346 -156t136 -422q0 -238 -129.5 -406t-350.5 -168t-338 188v-173h-268zM414 570q0 -175 79 -266t199 -91q115 0 192.5 95t77.5 247q0 169 -78.5 263t-193.5 94q-108 0 -192 -85.5t-84 -256.5z" />
<glyph unicode="c" horiz-adv-x="1038" d="M84 557q2 245 160.5 413.5t432.5 168.5q164 0 279 -62v-235q-110 72 -253 72q-154 0 -249 -97.5t-98 -259.5q5 -158 96.5 -256t248.5 -98q137 0 255 76v-230q-118 -68 -293 -68q-259 0 -419 163.5t-160 412.5z" />
<glyph unicode="d" horiz-adv-x="1313" d="M84 559q0 266 136 422t348 156q219 0 337 -188v615h265v-1564h-265v175q-114 -190 -341 -190q-222 0 -351 168t-129 406zM356 555q0 -152 78 -247t192 -95q120 0 199.5 91.5t79.5 265.5q0 171 -84 256.5t-192 85.5q-115 0 -194 -94t-79 -263z" />
<glyph unicode="e" horiz-adv-x="1169" d="M84 559q0 268 146 421t365 153t347 -133t128 -388q0 -61 -15 -158h-703q29 -122 120.5 -186.5t228.5 -64.5q177 0 299 89v-230q-116 -73 -333 -73h-6q-268 0 -422.5 159.5t-154.5 410.5zM348 652h471v34q-5 108 -59.5 173t-157.5 65q-95 0 -165 -69.5t-89 -202.5z" />
<glyph unicode="f" horiz-adv-x="751" d="M66 922v199h164v67q0 188 104 294t287 106q85 0 147 -20v-223q-57 21 -111 22q-162 0 -161 -181v-65h223v-199h-223v-922h-266v922h-164z" />
<glyph unicode="g" horiz-adv-x="1262" d="M93 575q0 243 127.5 401.5t334.5 158.5q211 0 312 -175v161h266v-1019q0 -266 -154 -399.5t-390 -133.5q-222 0 -388 79v270q150 -106 361 -106q305 0 305 292v97q-100 -165 -315 -165h-3q-188 0 -322 138t-134 401zM369 575q0 -157 69 -240t174 -83q108 0 181.5 85 t73.5 222q0 180 -70.5 264t-179.5 84q-115 0 -181.5 -89.5t-66.5 -242.5z" />
<glyph unicode="h" d="M144 0v1564h265v-633q91 203 343 204q164 0 264.5 -103t100.5 -298v-734h-266v688q0 106 -54 166t-140 60q-95 0 -171.5 -73t-76.5 -239v-602h-265z" />
<glyph unicode="i" horiz-adv-x="574" d="M129 1458q0 66 46 112.5t112.5 46.5t113 -46.5t46.5 -112.5q0 -68 -46.5 -115t-113 -47t-112.5 47t-46 115zM154 0v1121h266v-1121h-266z" />
<glyph unicode="j" horiz-adv-x="568" d="M-93 -190q78 -34 135 -34q118 0 117 153v1192h265v-1197q0 -166 -90.5 -262.5t-257.5 -96.5h-4q-78 0 -165 34v211zM131 1458q0 66 46.5 112.5t111.5 46.5q68 0 115 -46.5t47 -112.5q0 -68 -46 -115t-116 -47q-65 0 -111.5 47t-46.5 115z" />
<glyph unicode="k" horiz-adv-x="1154" d="M144 0v1537h265v-942l396 526h310l-412 -535l420 -586h-311l-403 580v-580h-265z" />
<glyph unicode="l" horiz-adv-x="574" d="M154 0v1564h266v-1564h-266z" />
<glyph unicode="m" horiz-adv-x="1864" d="M144 0v1121h265v-177q95 190 317 191q245 0 318 -213q45 102 133 157.5t201 55.5q171 0 263.5 -103t92.5 -293v-739h-267v688q0 226 -173 226q-87 0 -154.5 -75t-67.5 -237v-602h-267v688q0 226 -172 226q-87 0 -155.5 -75t-68.5 -237v-602h-265z" />
<glyph unicode="n" d="M144 0v1121h265v-192q95 205 345 206q168 0 265.5 -102t97.5 -288v-745h-266v690q0 110 -53 167t-144 57q-103 0 -174 -81t-71 -231v-602h-265z" />
<glyph unicode="o" d="M84 549q0 257 148 423.5t392 166.5q259 0 400 -162.5t141 -412.5q0 -255 -142 -418t-399 -163q-255 0 -397.5 159t-142.5 407zM363 557q0 -154 68.5 -258.5t194.5 -104.5q131 0 197 102.5t66 258.5q0 162 -64 264.5t-201 102.5q-126 0 -193.5 -103.5t-67.5 -261.5z" />
<glyph unicode="p" horiz-adv-x="1313" d="M144 -422v1543h265v-172q120 188 343 188q219 0 348.5 -157t129.5 -414q0 -252 -129.5 -416.5t-350.5 -164.5q-226 0 -341 183v-590h-265zM409 569q0 -170 82 -263t197 -93q120 0 195 91.5t75 257.5t-75 258t-190 92t-199.5 -86.5t-84.5 -256.5z" />
<glyph unicode="q" horiz-adv-x="1313" d="M84 566q0 257 132 414t350.5 157t338.5 -188v172h265v-1543h-265v595q-114 -188 -339 -188q-221 0 -351.5 164.5t-130.5 416.5zM356 562.5q0 -161.5 78.5 -255.5t196.5 -94q112 0 193 93t81 263t-83 256.5t-198 86.5q-112 0 -190 -94t-78 -255.5z" />
<glyph unicode="r" horiz-adv-x="779" d="M141 0l3 1121h265v-199q78 209 283 209q47 0 76 -8v-256q-51 22 -114 22q-108 0 -176.5 -88.5t-68.5 -220.5v-580h-268z" />
<glyph unicode="s" horiz-adv-x="943" d="M120 802q0 155 117 244t294 89q171 0 283 -49v-235q-110 66 -276 67q-68 0 -107.5 -29.5t-39.5 -76.5q0 -17 6 -32.5t20 -30.5t27.5 -26t38 -23t42 -20.5t48.5 -22t48 -22.5q118 -57 186.5 -128.5t68.5 -183.5q0 -157 -113 -245.5t-301 -88.5q-208 0 -336 68v244 q148 -99 321 -100q74 0 114.5 28t40.5 77q0 29 -13.5 51.5t-51 44.5t-58.5 32.5t-83 36.5q-6 2 -10 4t-10.5 4.5t-10.5 5.5q-245 110 -245 317z" />
<glyph unicode="t" horiz-adv-x="838" d="M33 922v199h168v270h266v-270h278v-199h-278v-570q0 -71 37.5 -107.5t103.5 -36.5q84 0 156 47v-228q-78 -38 -200 -38q-363 0 -363 367v566h-168z" />
<glyph unicode="u" d="M133 363v758h266v-697q0 -105 51.5 -160.5t142.5 -55.5q114 0 179.5 77.5t65.5 233.5v602h268v-1121h-268v184q-88 -195 -344 -195q-171 0 -266 97.5t-95 276.5z" />
<glyph unicode="v" horiz-adv-x="1158" d="M29 1121h279l148 -475q44 -139 75 -249t39 -150l8 -39q21 125 125 438l156 475h274l-412 -1121h-288z" />
<glyph unicode="w" horiz-adv-x="1771" d="M29 1121h277l101 -369q44 -159 74 -284.5t36 -169.5l9 -43q22 135 128 497l110 369h240l108 -369q49 -164 81.5 -289t40.5 -167l7 -44q22 130 131 500l105 369h266l-356 -1121h-288l-99 367q-40 144 -68.5 262t-38.5 163l-8 46q-30 -146 -115 -471l-99 -367h-289z" />
<glyph unicode="x" horiz-adv-x="1123" d="M42 0l391 566l-367 555h299l210 -365l221 365h297l-390 -557l376 -564h-294l-221 376l-230 -376h-292z" />
<glyph unicode="y" horiz-adv-x="1142" d="M13 1121h295l130 -357q60 -159 96 -268t46 -137l6 -32q22 78 142 437l117 357h278l-404 -1090q-168 -449 -514 -449q-64 0 -110 11v219q36 -9 76 -9h2q199 0 283 219z" />
<glyph unicode="z" horiz-adv-x="1036" d="M93 0v197l519 712h-500v212h806v-186l-522 -720h551v-215h-854z" />
<glyph unicode="{" horiz-adv-x="802" d="M95 441v258q25 0 49 2q88 4 139 71.5t51 158.5q0 40 -18 132t-18 144q0 165 93.5 268.5t234.5 103.5q66 0 130 -22v-250q-33 19 -70 20q-53 0 -87.5 -40t-34.5 -99q0 -38 16.5 -135t16.5 -156q0 -130 -73 -219t-188 -108q114 -17 187.5 -109t73.5 -222q0 -58 -16.5 -154 t-16.5 -136q0 -59 33.5 -98t88.5 -39q38 0 70 20v-250q-68 -25 -130 -25q-141 0 -234.5 105.5t-93.5 269.5q0 53 18 143.5t18 132.5q0 91 -50 157t-140 76h-49z" />
<glyph unicode="|" horiz-adv-x="574" d="M162 -429v1966h252v-1966h-252z" />
<glyph unicode="}" horiz-adv-x="802" d="M46 -168q34 -20 68 -20q56 0 90.5 39t34.5 98q0 40 -17 136t-17 154q0 130 73.5 222t188.5 109q-115 18 -188.5 108t-73.5 219q0 58 17 155.5t17 135.5q0 59 -34 99t-91 40q-34 -1 -68 -20v250q64 22 129 22q141 0 234 -103.5t93 -268.5q0 -52 -16.5 -144t-16.5 -132 q0 -91 49.5 -158.5t140.5 -71.5q21 -2 48 -2v-258h-48q-91 -9 -140.5 -76t-49.5 -157q0 -42 16.5 -132.5t16.5 -143.5q0 -164 -93 -269.5t-234 -105.5q-59 0 -129 25v250z" />
<glyph unicode="~" horiz-adv-x="1399" d="M68 562q68 97 164.5 163.5t202.5 66.5q135 0 282.5 -64.5t206.5 -64.5q69 0 119 33.5t101 97.5l185 -146q-147 -226 -356 -226q-120 0 -267 64.5t-215 64.5q-132 0 -239 -137z" />
<glyph unicode="&#xa1;" horiz-adv-x="608" d="M126 969q0 75 50 125t125 50q74 0 124 -50t50 -125q0 -74 -50.5 -124.5t-123.5 -50.5q-75 0 -125 50.5t-50 124.5zM177 -365v996h254v-996h-254z" />
<glyph unicode="&#xa2;" horiz-adv-x="1034" d="M80 557q2 215 125.5 372t343.5 196v242h223v-236q91 -14 175 -56v-230q-110 65 -242 67q-154 0 -252.5 -96.5t-100.5 -258.5q4 -158 98 -255t251 -97q128 0 246 69v-230q-80 -40 -175 -53v-236h-223v236q-213 36 -341 191.5t-128 374.5z" />
<glyph unicode="&#xa3;" horiz-adv-x="1178" d="M112 0v221q104 53 144 130.5t40 201.5q0 40 -2 59h-180v198h156q-11 84 -11 144q0 240 126 373t367 133q164 0 278 -67v-254q-106 68 -228 68q-254 0 -253 -258q0 -42 8 -139h380v-198h-357q2 -19 2 -59q-1 -230 -151 -325h671v-228h-990z" />
<glyph unicode="&#xa4;" horiz-adv-x="1239" d="M66 301l131 126q-71 117 -71 259q0 146 71 258l-131 131l160 153l130 -129q118 74 268 73q142 0 261 -68l128 124l159 -153l-128 -128q72 -112 71 -255q0 -146 -75 -263l132 -128l-159 -155l-133 128q-118 -68 -263 -69q-144 0 -261 69l-130 -128zM350 690 q0 -114 77 -194t194.5 -80t193.5 79.5t76 192.5q0 114 -76 194t-193.5 80t-194.5 -80t-77 -192z" />
<glyph unicode="&#xa5;" horiz-adv-x="1361" d="M40 1448h325l310 -608l323 608h323l-367 -650h253v-172h-351l-40 -69v-93h391v-172h-391v-292h-278v292h-388v172h388v93l-38 69h-350v172h253z" />
<glyph unicode="&#xa6;" horiz-adv-x="574" d="M162 -310v741h252v-741h-252zM162 814v741h252v-741h-252z" />
<glyph unicode="&#xa7;" horiz-adv-x="1251" d="M122 654q0 142 97 255q-73 89 -73 201q0 184 136 289t364 105q206 0 361 -73v-270q-162 99 -353 99q-105 0 -160.5 -38t-55.5 -107q0 -32 12 -56t48 -48.5t65.5 -39.5t102.5 -49.5t119 -58.5q106 -53 169 -98.5t110.5 -129.5t47.5 -194q0 -148 -90 -255q75 -93 75 -215 q0 -188 -139 -293t-372 -105q-257 0 -418 95v286q186 -138 416 -138q226 0 226 153q0 71 -65.5 118.5t-297.5 149.5q-154 68 -239.5 166.5t-85.5 250.5zM391 650q0 -78 64 -128.5t220 -116.5q120 -53 139 -65q32 47 31 105q0 29 -6.5 51.5t-25.5 44t-33 36t-51 35.5 t-56 30.5t-73 36t-76 38.5q-15 9 -47 24t-48 23q-38 -54 -38 -114z" />
<glyph unicode="&#xa8;" horiz-adv-x="1038" d="M95 1581q0 64 44.5 108.5t112.5 44.5q66 0 110.5 -44t44.5 -109q0 -66 -44 -110t-111 -44q-68 0 -112.5 44t-44.5 110zM631 1581q0 64 45 108.5t111 44.5q68 0 112.5 -44t44.5 -109q0 -66 -44 -110t-113 -44q-66 0 -111 44t-45 110z" />
<glyph unicode="&#xa9;" horiz-adv-x="1695" d="M84 745q0 317 226 541.5t539.5 224.5t538 -226t224.5 -540t-224.5 -538t-538.5 -224q-317 0 -541 224t-224 538zM274 745q0 -247 165 -412t410 -165q243 0 409.5 166t166.5 411q0 243 -166 409.5t-410 166.5q-245 0 -410 -166.5t-165 -409.5zM491 743q3 171 109.5 281.5 t290.5 110.5q106 0 193 -46v-184q-75 49 -175 49q-84 0 -144 -57t-62 -154q4 -93 61 -150t143 -57q97 0 177 55v-186q-80 -46 -202 -46q-168 0 -279.5 108t-111.5 276z" />
<glyph unicode="&#xaa;" horiz-adv-x="842" d="M15 1135q0 135 102 212.5t292 77.5h140v55q0 80 -42.5 121t-141.5 41q-154 0 -279 -82v205q115 63 308 65q197 0 290 -87.5t93 -269.5v-606h-220v117q-75 -124 -247 -123q-137 0 -216 76t-79 198zM249 1144q0 -118 140 -118q71 0 115.5 43t44.5 110v95h-111 q-90 0 -139.5 -35.5t-49.5 -94.5z" />
<glyph unicode="&#xab;" horiz-adv-x="1213" d="M57 559l337 359h281l-323 -359l323 -358h-281zM515 559l336 359h282l-323 -359l323 -358h-282z" />
<glyph unicode="&#xac;" horiz-adv-x="1288" d="M84 701v219h1113v-599h-228v380h-885z" />
<glyph unicode="&#xad;" horiz-adv-x="779" d="M110 473v224h563v-224h-563z" />
<glyph unicode="&#xae;" horiz-adv-x="1051" d="M22 1237q0 221 143 362.5t361.5 141.5t361 -142.5t142.5 -362t-142.5 -359.5t-361 -140t-361.5 140t-143 360zM148 1237q0 -171 104 -276t276.5 -105t275.5 105t103 276q0 172 -103 278t-275.5 106t-276.5 -106t-104 -278zM372 1002v505h147q193 0 193 -160 q0 -102 -81 -142l127 -203h-134l-109 184h-33v-184h-110zM482 1277h54q61 0 61 70q0 66 -71 67h-44v-137z" />
<glyph unicode="&#xaf;" horiz-adv-x="1038" d="M157 1475v184h725v-184h-725z" />
<glyph unicode="&#xb0;" horiz-adv-x="901" d="M66 1123.5q0 161.5 111.5 273.5t273.5 112q165 0 275 -111t110 -272.5t-113 -272t-274.5 -110.5t-272 109.5t-110.5 271zM259 1126q0 -79 56.5 -137t136 -58t135 58t55.5 137t-57 136t-136.5 57t-134.5 -57t-55 -136z" />
<glyph unicode="&#xb1;" horiz-adv-x="1273" d="M110 64v223h1053v-223h-1053zM110 726v223h401v332h245v-332h407v-223h-407v-335h-245v335h-401z" />
<glyph unicode="&#xb2;" horiz-adv-x="806" d="M89 867v146q170 126 284 257.5t114 238.5q0 135 -149 135q-108 0 -226 -87v201q118 74 253 74q144 0 236.5 -80t92.5 -219q0 -258 -349 -495h383v-171h-639z" />
<glyph unicode="&#xb3;" horiz-adv-x="758" d="M78 916v179q124 -64 247 -65q71 0 110.5 32.5t39.5 85.5q0 115 -199 115h-39v168h39q78 0 128 29.5t50 86.5q0 108 -133 108q-108 0 -211 -74v190q102 60 224 61q152 0 238.5 -74t86.5 -190q0 -86 -47.5 -143.5t-129.5 -75.5q84 -7 141.5 -66t57.5 -158 q0 -120 -88.5 -193t-240.5 -73q-166 0 -274 57z" />
<glyph unicode="&#xb4;" horiz-adv-x="1038" d="M281 1391l201 374h279l-257 -374h-223z" />
<glyph unicode="&#xb5;" horiz-adv-x="1260" d="M144 -399v1520h265v-697q0 -103 64.5 -159.5t159.5 -56.5q219 0 218 311v602h266v-1121h-266v148q-76 -159 -254 -159q-101 0 -188 49v-437h-265z" />
<glyph unicode="&#xb6;" horiz-adv-x="1269" d="M36 1106q0 159 117 271.5t349 112.5h184v-1817h-213v1048q-211 0 -324 111.5t-113 273.5zM907 -327l2 1817h210v-1817h-212z" />
<glyph unicode="&#xb7;" horiz-adv-x="561" d="M110 615q0 71 51.5 120.5t122 49.5t120.5 -49.5t50 -120.5t-50 -121.5t-120.5 -50.5t-122 50.5t-51.5 121.5z" />
<glyph unicode="&#xb8;" horiz-adv-x="1038" d="M332 -407q175 6 175 148q0 64 -56 147h214q40 -61 40 -162q0 -131 -95 -217.5t-278 -88.5v173z" />
<glyph unicode="&#xb9;" horiz-adv-x="591" d="M22 1473v188l284 162h158v-956h-194v741z" />
<glyph unicode="&#xba;" horiz-adv-x="922" d="M9 1334q0 217 124 358.5t329 141.5q215 0 333.5 -137t118.5 -350q0 -215 -119.5 -354t-332.5 -139q-217 0 -335 134.5t-118 345.5zM243 1342.5q0 -132.5 58 -220t161 -87.5q106 0 160.5 85t54.5 218q0 314 -219 314q-104 0 -159.5 -88.5t-55.5 -221z" />
<glyph unicode="&#xbb;" horiz-adv-x="1216" d="M82 201l323 358l-323 359h281l334 -359l-334 -358h-281zM540 201l323 358l-323 359h281l334 -359l-334 -358h-281z" />
<glyph unicode="&#xbc;" horiz-adv-x="1834" d="M68 1224v190l284 158h159v-955h-195v741zM289 0l967 1572h208l-964 -1572h-211zM1042 201v160l321 590h300v-590h124v-160h-124v-201h-190v201h-431zM1239 361h234v447z" />
<glyph unicode="&#xbd;" horiz-adv-x="1841" d="M68 1224v190l284 158h159v-955h-195v741zM289 0l967 1572h208l-964 -1572h-211zM1148 0v146q401 296 401 496q0 65 -40 100t-109 35q-108 0 -226 -87v201q118 73 253 73q143 0 236 -79.5t93 -219.5q0 -257 -349 -494h380v-171h-639z" />
<glyph unicode="&#xbe;" horiz-adv-x="1959" d="M93 665v180q118 -64 247 -64q71 0 111 32t40 84q0 115 -199 116h-43v169h40q80 0 129 28.5t49 83.5q0 110 -133 110q-106 1 -210 -75v193q102 57 226 57q152 0 238.5 -74t86.5 -188q0 -87 -47.5 -143.5t-129.5 -74.5q82 -8 139 -68t57 -155q0 -120 -87.5 -194t-239.5 -74 q-166 0 -274 57zM409 0l967 1572h209l-966 -1572h-210zM1161 201v160l321 590h301v-590h123v-160h-123v-201h-190v201h-432zM1358 361h235v447z" />
<glyph unicode="&#xbf;" horiz-adv-x="1007" d="M129 25q0 99 38 178.5t100 126t125.5 70.5t122.5 29l4 204h249l4 -348q-373 0 -373 -234q0 -93 57 -149t170 -56q153 0 309 101v-257q-146 -71 -344 -70q-211 0 -336.5 107t-125.5 298zM471 970.5q0 73.5 50.5 124.5t124.5 51q75 0 125 -51t50 -124.5t-50 -124 t-125 -50.5q-74 0 -124.5 50.5t-50.5 124z" />
<glyph unicode="&#xc0;" horiz-adv-x="1490" d="M62 0l504 1490h361l504 -1490h-300l-107 338h-564l-106 -338h-292zM374 1973h278l202 -374h-223zM534 566h420l-21 67q-75 239 -122 401.5t-59 204.5l-9 44q-19 -110 -190 -652z" />
<glyph unicode="&#xc1;" horiz-adv-x="1490" d="M62 0l504 1490h361l504 -1490h-300l-107 338h-564l-106 -338h-292zM534 566h420l-21 67q-75 239 -122 401.5t-59 204.5l-9 44q-19 -110 -190 -652zM657 1599l202 374h278l-257 -374h-223z" />
<glyph unicode="&#xc2;" horiz-adv-x="1490" d="M62 0l504 1490h361l504 -1490h-300l-107 338h-564l-106 -338h-292zM312 1599l321 374h234l321 -374h-259l-179 219l-180 -219h-258zM534 566h420l-21 67q-75 239 -122 401.5t-59 204.5l-9 44q-19 -110 -190 -652z" />
<glyph unicode="&#xc3;" horiz-adv-x="1490" d="M62 0l504 1490h361l504 -1490h-300l-107 338h-564l-106 -338h-292zM336 1756q36 74 101 123.5t145 49.5q76 0 166 -42t132 -42q95 0 142 95l141 -113q-86 -175 -270 -175q-66 0 -152.5 42.5t-119.5 42.5q-53 0 -86 -21t-73 -77zM534 566h420l-21 67q-75 239 -122 401.5 t-59 204.5l-9 44q-19 -110 -190 -652z" />
<glyph unicode="&#xc4;" horiz-adv-x="1490" d="M62 0l504 1490h361l504 -1490h-300l-107 338h-564l-106 -338h-292zM334 1790q0 63 44 107.5t113 44.5q66 0 110.5 -44.5t44.5 -107.5q0 -66 -44.5 -111t-110.5 -45q-68 0 -112.5 44.5t-44.5 111.5zM534 566h420l-21 67q-75 239 -122 401.5t-59 204.5l-9 44 q-19 -110 -190 -652zM869 1790q0 63 45.5 107.5t111.5 44.5q68 0 113 -44.5t45 -107.5q0 -66 -45 -111t-113 -45q-66 0 -111.5 44.5t-45.5 111.5z" />
<glyph unicode="&#xc5;" horiz-adv-x="1490" d="M62 0l504 1490h361l504 -1490h-300l-107 338h-564l-106 -338h-292zM477 1852q0 115 81 195.5t196 80.5t195.5 -80.5t80.5 -195.5t-80.5 -196t-195.5 -81t-196 81t-81 196zM534 566h420l-21 67q-75 239 -122 401.5t-59 204.5l-9 44q-19 -110 -190 -652zM637 1855.5 q0 -48.5 33 -85t84 -36.5t84.5 36.5t33.5 85t-33.5 85t-84.5 36.5t-84 -36.5t-33 -85z" />
<glyph unicode="&#xc6;" horiz-adv-x="2028" d="M31 0l767 1490h1097v-227h-599v-404h534v-226h-534v-405h608v-228h-880v338h-520l-179 -338h-294zM626 566h398v785q-104 -243 -365 -720z" />
<glyph unicode="&#xc7;" horiz-adv-x="1346" d="M95 745q0 338 213.5 552t550.5 214q245 0 382 -82v-272q-169 97 -372.5 97t-339 -138.5t-135.5 -370.5t135.5 -369t355.5 -137q210 0 358 111v-279q-137 -88 -384 -88q-332 0 -548 209t-216 553zM597 -407q175 6 175 148q0 65 -55 147h214q40 -60 40 -162 q0 -131 -95 -217.5t-279 -88.5v173z" />
<glyph unicode="&#xc8;" horiz-adv-x="1167" d="M154 0v1490h881v-227h-600v-404h534v-226h-534v-405h609v-228h-890zM264 1973h278l201 -374h-224z" />
<glyph unicode="&#xc9;" horiz-adv-x="1167" d="M154 0v1490h881v-227h-600v-404h534v-226h-534v-405h609v-228h-890zM511 1599l201 374h279l-257 -374h-223z" />
<glyph unicode="&#xca;" horiz-adv-x="1167" d="M154 0v1490h881v-227h-600v-404h534v-226h-534v-405h609v-228h-890zM166 1599l321 374h234l321 -374h-259l-179 219l-180 -219h-258z" />
<glyph unicode="&#xcb;" horiz-adv-x="1167" d="M154 0v1490h881v-227h-600v-404h534v-226h-534v-405h609v-228h-890zM175 1785q0 64 44.5 108.5t112.5 44.5q65 0 110 -44.5t45 -108.5q0 -66 -45 -110.5t-110 -44.5q-68 0 -112.5 44t-44.5 111zM710 1785q0 64 45 108.5t112 44.5q68 0 112.5 -44.5t44.5 -108.5 q0 -66 -44.5 -110.5t-112.5 -44.5q-66 0 -111.5 44t-45.5 111z" />
<glyph unicode="&#xcc;" horiz-adv-x="623" d="M-66 1973h279l201 -374h-224zM173 0v1490h278v-1490h-278z" />
<glyph unicode="&#xcd;" horiz-adv-x="623" d="M173 0v1490h278v-1490h-278zM208 1599l201 374h279l-257 -374h-223z" />
<glyph unicode="&#xce;" horiz-adv-x="623" d="M-122 1599l321 374h234l321 -374h-258l-180 219l-179 -219h-259zM173 0v1490h278v-1490h-278z" />
<glyph unicode="&#xcf;" horiz-adv-x="623" d="M-102 1787q0 64 44.5 108.5t112.5 44.5q66 0 111 -44.5t45 -108.5q0 -65 -44.5 -110t-111.5 -45q-68 0 -112.5 45t-44.5 110zM173 0v1490h278v-1490h-278zM433 1787q0 64 45.5 108.5t112.5 44.5q68 0 112 -44.5t44 -108.5q0 -65 -44 -110t-112 -45q-66 0 -112 45t-46 110 z" />
<glyph unicode="&#xd0;" horiz-adv-x="1640" d="M141 624v227h162v639h486q334 0 547 -205.5t213 -518.5q0 -345 -205 -555.5t-555 -210.5h-486v624h-162zM589 232h196q235 0 357.5 145t122.5 389q0 215 -130.5 352.5t-353.5 137.5h-192v-405h335v-227h-335v-392z" />
<glyph unicode="&#xd1;" horiz-adv-x="1521" d="M154 0v1490h317l358 -621q89 -152 158.5 -283.5t93.5 -186.5l25 -57q-17 184 -17 527v621h280v-1490h-318l-363 619q-86 146 -156 279.5t-97 194.5l-26 62q25 -211 24 -534v-621h-279zM361 1756q35 74 100 123.5t145 49.5q75 0 166 -42t133 -42q95 0 142 95l141 -113 q-86 -175 -270 -175q-68 0 -152.5 42.5t-119.5 42.5q-53 0 -86.5 -21t-72.5 -77z" />
<glyph unicode="&#xd2;" horiz-adv-x="1598" d="M95 750q0 347 191 557t512 210q325 0 515.5 -209t190.5 -558q0 -345 -191.5 -555t-512 -210t-513 210t-192.5 555zM394 750q0 -235 110.5 -372t295.5 -137q188 0 296.5 136t108.5 372.5t-108.5 373.5t-298.5 137q-188 0 -296 -137t-108 -373zM451 1973h279l201 -374h-224 z" />
<glyph unicode="&#xd3;" horiz-adv-x="1598" d="M95 750q0 347 191 557t512 210q325 0 515.5 -209t190.5 -558q0 -345 -191.5 -555t-512 -210t-513 210t-192.5 555zM394 750q0 -235 110.5 -372t295.5 -137q188 0 296.5 136t108.5 372.5t-108.5 373.5t-298.5 137q-188 0 -296 -137t-108 -373zM699 1599l202 374h278 l-257 -374h-223z" />
<glyph unicode="&#xd4;" horiz-adv-x="1598" d="M95 750q0 347 191 557t512 210q325 0 515.5 -209t190.5 -558q0 -345 -191.5 -555t-512 -210t-513 210t-192.5 555zM374 1599l320 374h235l321 -374h-259l-179 219l-179 -219h-259zM394 750q0 -235 110.5 -372t295.5 -137q188 0 296.5 136t108.5 372.5t-108.5 373.5 t-298.5 137q-188 0 -296 -137t-108 -373z" />
<glyph unicode="&#xd5;" horiz-adv-x="1598" d="M95 750q0 347 191 557t512 210q325 0 515.5 -209t190.5 -558q0 -345 -191.5 -555t-512 -210t-513 210t-192.5 555zM387 1756q35 74 100.5 123.5t145.5 49.5q75 0 165.5 -42t132.5 -42q95 0 141 95l142 -113q-86 -175 -270 -175q-68 0 -152.5 42.5t-118.5 42.5 q-53 0 -86.5 -21t-73.5 -77zM394 750q0 -235 110.5 -372t295.5 -137q188 0 296.5 136t108.5 372.5t-108.5 373.5t-298.5 137q-188 0 -296 -137t-108 -373z" />
<glyph unicode="&#xd6;" horiz-adv-x="1598" d="M95 750q0 347 191 557t512 210q325 0 515.5 -209t190.5 -558q0 -345 -191.5 -555t-512 -210t-513 210t-192.5 555zM389 1790q0 63 44 107.5t113 44.5q66 0 110.5 -44.5t44.5 -107.5q0 -66 -44.5 -111t-110.5 -45q-68 0 -112.5 45t-44.5 111zM394 750q0 -235 110.5 -372 t295.5 -137q188 0 296.5 136t108.5 372.5t-108.5 373.5t-298.5 137q-188 0 -296 -137t-108 -373zM924 1790q0 63 45.5 107.5t111.5 44.5q68 0 113 -44.5t45 -107.5q0 -66 -44.5 -111t-113.5 -45q-66 0 -111.5 45t-45.5 111z" />
<glyph unicode="&#xd7;" horiz-adv-x="1138" d="M106 1042l170 170l290 -290l288 288l174 -172l-287 -288l287 -288l-169 -168l-289 286l-285 -284l-173 173l284 283z" />
<glyph unicode="&#xd8;" horiz-adv-x="1545" d="M86 750q0 347 191.5 557t511.5 210q209 0 370 -92l67 90h271l-172 -232q171 -203 170 -533q0 -345 -191.5 -555t-511.5 -210q-209 0 -363 91l-68 -93h-272l172 232q-175 205 -175 535zM374 750q0 -174 59 -301l571 767q-90 57 -215 58q-192 0 -303.5 -140t-111.5 -384z M584 283q85 -55 208 -55q192 0 303.5 140.5t111.5 381.5q0 172 -57 299z" />
<glyph unicode="&#xd9;" horiz-adv-x="1456" d="M146 557v933h278v-931q0 -170 84.5 -246t219.5 -76q304 0 304 333v920h279v-918q0 -289 -155.5 -440t-427.5 -151q-266 0 -424 149t-158 427zM374 1973h278l202 -374h-223z" />
<glyph unicode="&#xda;" horiz-adv-x="1456" d="M146 557v933h278v-931q0 -170 84.5 -246t219.5 -76q304 0 304 333v920h279v-918q0 -289 -155.5 -440t-427.5 -151q-266 0 -424 149t-158 427zM646 1599l201 374h278l-256 -374h-223z" />
<glyph unicode="&#xdb;" horiz-adv-x="1456" d="M146 557v933h278v-931q0 -170 84.5 -246t219.5 -76q304 0 304 333v920h279v-918q0 -289 -155.5 -440t-427.5 -151q-266 0 -424 149t-158 427zM289 1599l321 374h235l320 -374h-258l-179 219l-179 -219h-260z" />
<glyph unicode="&#xdc;" horiz-adv-x="1456" d="M146 557v933h278v-931q0 -170 84.5 -246t219.5 -76q304 0 304 333v920h279v-918q0 -289 -155.5 -440t-427.5 -151q-266 0 -424 149t-158 427zM312 1787q0 64 44.5 108.5t112.5 44.5q66 0 110.5 -44.5t44.5 -108.5q0 -65 -44 -110t-111 -45q-68 0 -112.5 45t-44.5 110z M847 1787q0 64 45 108.5t112 44.5q68 0 112.5 -44.5t44.5 -108.5q0 -65 -44.5 -110t-112.5 -45q-65 0 -111 45t-46 110z" />
<glyph unicode="&#xdd;" horiz-adv-x="1379" d="M40 1490h325l99 -216q87 -188 142 -315t67 -159l13 -32q19 82 228 506l101 216h325l-513 -937v-553h-278v544zM612 1599l202 374h279l-257 -374h-224z" />
<glyph unicode="&#xde;" horiz-adv-x="1222" d="M154 0v1490h279v-253h182q257 0 406 -137.5t149 -352.5q0 -228 -153.5 -360t-395.5 -132h-188v-255h-279zM433 480h175q139 0 209 73t70 186q0 114 -68.5 192t-219.5 78h-166v-529z" />
<glyph unicode="&#xdf;" horiz-adv-x="1273" d="M146 0v1049q0 232 122.5 354.5t346.5 122.5q200 0 323.5 -107.5t123.5 -255.5q0 -91 -35.5 -159.5t-70 -116t-34.5 -85.5q0 -33 47.5 -74.5t103 -82.5t103.5 -124t48 -187q0 -157 -105.5 -254t-284.5 -97q-159 0 -232 42v234q99 -61 210 -62q71 0 115 35.5t44 95t-51 114 t-112 90.5t-111.5 101.5t-50.5 143.5q0 88 73 195t73 172q0 66 -44.5 106t-123.5 40q-217 0 -217 -226v-1064h-261z" />
<glyph unicode="&#xe0;" horiz-adv-x="1121" d="M89 319q0 158 119 249t345 91h164v69q0 93 -49 141.5t-166 48.5q-179 0 -329 -99v245q126 78 363 78q455 0 455 -425v-717h-263v135q-78 -144 -293 -144q-159 0 -252.5 93t-93.5 235zM213 1604h278l201 -374h-223zM365 329q0 -141 163 -141q89 0 139 52t50 136v106h-137 q-104 0 -159.5 -43t-55.5 -110z" />
<glyph unicode="&#xe1;" horiz-adv-x="1121" d="M89 319q0 158 119 249t345 91h164v69q0 93 -49 141.5t-166 48.5q-179 0 -329 -99v245q126 78 363 78q455 0 455 -425v-717h-263v135q-78 -144 -293 -144q-159 0 -252.5 93t-93.5 235zM365 329q0 -141 163 -141q89 0 139 52t50 136v106h-137q-104 0 -159.5 -43t-55.5 -110 zM454 1230l200 374h279l-256 -374h-223z" />
<glyph unicode="&#xe2;" horiz-adv-x="1121" d="M89 319q0 158 119 249t345 91h164v69q0 93 -49 141.5t-166 48.5q-179 0 -329 -99v245q126 78 363 78q455 0 455 -425v-717h-263v135q-78 -144 -293 -144q-159 0 -252.5 93t-93.5 235zM126 1230l321 374h234l321 -374h-259l-179 218l-180 -218h-258zM365 329 q0 -141 163 -141q89 0 139 52t50 136v106h-137q-104 0 -159.5 -43t-55.5 -110z" />
<glyph unicode="&#xe3;" horiz-adv-x="1121" d="M89 319q0 158 119 249t345 91h164v69q0 93 -49 141.5t-166 48.5q-179 0 -329 -99v245q126 78 363 78q455 0 455 -425v-717h-263v135q-78 -144 -293 -144q-159 0 -252.5 93t-93.5 235zM148 1387q36 73 101 123t145 50q76 0 166 -42.5t132 -42.5q95 0 142 95l141 -112 q-86 -175 -270 -175q-68 0 -152 42t-120 42q-53 0 -86 -21t-73 -76zM365 329q0 -141 163 -141q89 0 139 52t50 136v106h-137q-104 0 -159.5 -43t-55.5 -110z" />
<glyph unicode="&#xe4;" horiz-adv-x="1121" d="M89 319q0 158 119 249t345 91h164v69q0 93 -49 141.5t-166 48.5q-179 0 -329 -99v245q126 78 363 78q455 0 455 -425v-717h-263v135q-78 -144 -293 -144q-159 0 -252.5 93t-93.5 235zM150 1416q0 64 44.5 108t113.5 44q66 0 110 -44t44 -108q0 -66 -44 -111t-110 -45 q-68 0 -113 44.5t-45 111.5zM365 329q0 -141 163 -141q89 0 139 52t50 136v106h-137q-104 0 -159.5 -43t-55.5 -110zM686 1416q0 64 45.5 108t110.5 44q68 0 113 -44t45 -108q0 -66 -45 -111t-113 -45q-65 0 -110.5 44.5t-45.5 111.5z" />
<glyph unicode="&#xe5;" horiz-adv-x="1121" d="M89 319q0 158 119 249t345 91h164v69q0 93 -49 141.5t-166 48.5q-179 0 -329 -99v245q126 78 363 78q455 0 455 -425v-717h-263v135q-78 -144 -293 -144q-159 0 -252.5 93t-93.5 235zM294 1482q0 115 81 195.5t196 80.5t195.5 -80.5t80.5 -195.5t-80.5 -196t-195.5 -81 t-196 81t-81 196zM365 329q0 -141 163 -141q89 0 139 52t50 136v106h-137q-104 0 -159.5 -43t-55.5 -110zM454 1486q0 -49 32.5 -85t83.5 -36t84.5 36t33.5 85t-33.5 85.5t-84.5 36.5t-83.5 -36.5t-32.5 -85.5z" />
<glyph unicode="&#xe6;" horiz-adv-x="1794" d="M99 316q0 162 120.5 252.5t346.5 90.5h162v69q0 93 -48.5 141.5t-166.5 48.5q-184 0 -329 -99v245q132 78 347 78q264 0 343 -180q114 171 363 171q221 0 345.5 -133t124.5 -392q0 -57 -15 -154h-698q29 -120 121 -185.5t223 -65.5q175 0 296 89v-230q-120 -74 -325 -73 q-133 0 -253.5 55t-183.5 159q-40 -91 -138.5 -151.5t-253.5 -60.5q-180 0 -280.5 87.5t-100.5 237.5zM376 329q0 -139 164 -139q84 0 136 52t52 140v98h-126q-108 0 -167 -39.5t-59 -111.5zM986 652h470v32q-4 112 -59 176t-154 64q-93 0 -164.5 -69.5t-92.5 -202.5z" />
<glyph unicode="&#xe7;" horiz-adv-x="1038" d="M84 557q2 245 160.5 413.5t432.5 168.5q164 0 279 -62v-235q-110 72 -253 72q-154 0 -249 -97.5t-98 -259.5q5 -158 96.5 -256t248.5 -98q137 0 255 76v-230q-118 -68 -293 -68q-259 0 -419 163.5t-160 412.5zM418 -407q175 6 175 148q0 64 -55 147h214q40 -61 40 -162 q0 -131 -95 -217.5t-279 -88.5v173z" />
<glyph unicode="&#xe8;" horiz-adv-x="1169" d="M84 559q0 268 146 421t365 153t347 -133t128 -388q0 -61 -15 -158h-703q29 -122 120.5 -186.5t228.5 -64.5q177 0 299 89v-230q-118 -74 -339 -73q-268 0 -422.5 159.5t-154.5 410.5zM247 1604h279l202 -374h-224zM348 652h471v34q-5 108 -59.5 173t-157.5 65 q-95 0 -165 -69.5t-89 -202.5z" />
<glyph unicode="&#xe9;" horiz-adv-x="1169" d="M84 559q0 268 146 421t365 153t347 -133t128 -388q0 -61 -15 -158h-703q29 -122 120.5 -186.5t228.5 -64.5q177 0 299 89v-230q-118 -74 -339 -73q-268 0 -422.5 159.5t-154.5 410.5zM348 652h471v34q-5 108 -59.5 173t-157.5 65q-95 0 -165 -69.5t-89 -202.5zM519 1230 l202 374h279l-257 -374h-224z" />
<glyph unicode="&#xea;" horiz-adv-x="1169" d="M84 559q0 268 146 421t365 153t347 -133t128 -388q0 -61 -15 -158h-703q29 -122 120.5 -186.5t228.5 -64.5q177 0 299 89v-230q-118 -74 -339 -73q-268 0 -422.5 159.5t-154.5 410.5zM168 1230l321 374h235l320 -374h-259l-179 218l-179 -218h-259zM348 652h471v34 q-5 108 -59.5 173t-157.5 65q-95 0 -165 -69.5t-89 -202.5z" />
<glyph unicode="&#xeb;" horiz-adv-x="1169" d="M84 559q0 268 146 421t365 153t347 -133t128 -388q0 -61 -15 -158h-703q29 -122 120.5 -186.5t228.5 -64.5q177 0 299 89v-230q-118 -74 -339 -73q-268 0 -422.5 159.5t-154.5 410.5zM201 1418q0 64 44 108t114 44q65 0 109.5 -44t44.5 -108q0 -66 -44.5 -110.5 t-109.5 -44.5q-68 0 -113 44t-45 111zM348 652h471v34q-5 108 -59.5 173t-157.5 65q-95 0 -165 -69.5t-89 -202.5zM737 1418q0 64 45 108t111 44q68 0 113 -44t45 -108q0 -66 -45 -110.5t-113 -44.5q-66 0 -111 44t-45 111z" />
<glyph unicode="&#xec;" horiz-adv-x="574" d="M-99 1604h278l201 -374h-223zM154 0v1121h266v-1121h-266z" />
<glyph unicode="&#xed;" horiz-adv-x="574" d="M154 0v1121h266v-1121h-266zM190 1230l201 374h280l-257 -374h-224z" />
<glyph unicode="&#xee;" horiz-adv-x="574" d="M-148 1230l321 374h234l321 -374h-259l-180 218l-179 -218h-258zM154 0v1121h266v-1121h-266z" />
<glyph unicode="&#xef;" horiz-adv-x="574" d="M-135 1420q0 64 44.5 108t112.5 44q65 0 110 -44t45 -108q0 -66 -44 -110.5t-111 -44.5q-68 0 -112.5 44.5t-44.5 110.5zM154 0v1121h266v-1121h-266zM401 1420q0 64 45 108t111 44q68 0 113 -44t45 -108q0 -66 -44.5 -110.5t-113.5 -44.5q-66 0 -111 44.5t-45 110.5z " />
<glyph unicode="&#xf0;" horiz-adv-x="1198" d="M80 449q0 203 122.5 323.5t308.5 120.5q188 0 312 -123q-31 201 -160 382l-311 -156v163l216 109q-110 118 -283 222h357q71 -46 141 -116l259 128v-162l-164 -82q217 -291 217 -634q0 -301 -134 -473.5t-381 -172.5q-230 0 -365 138.5t-135 332.5zM354 433 q0 -97 61 -155.5t163 -58.5q228 0 251 319q-108 126 -259 125q-99 0 -157.5 -60.5t-58.5 -169.5z" />
<glyph unicode="&#xf1;" d="M144 0v1121h265v-192q95 205 345 206q168 0 265.5 -102t97.5 -288v-745h-266v690q0 110 -53 167t-144 57q-103 0 -174 -81t-71 -231v-602h-265zM221 1387q36 73 101 123t145 50q75 0 166 -42.5t133 -42.5q95 0 141 95l142 -112q-87 -175 -270 -175q-66 0 -152.5 42 t-119.5 42q-53 0 -86.5 -21t-72.5 -76z" />
<glyph unicode="&#xf2;" d="M84 549q0 257 148 423.5t392 166.5q259 0 400 -162.5t141 -412.5q0 -255 -142 -418t-399 -163q-255 0 -397.5 159t-142.5 407zM272 1604h279l201 -374h-224zM363 557q0 -154 68.5 -258.5t194.5 -104.5q131 0 197 102.5t66 258.5q0 162 -64 264.5t-201 102.5 q-126 0 -193.5 -103.5t-67.5 -261.5z" />
<glyph unicode="&#xf3;" d="M84 549q0 257 148 423.5t392 166.5q259 0 400 -162.5t141 -412.5q0 -255 -142 -418t-399 -163q-255 0 -397.5 159t-142.5 407zM363 557q0 -154 68.5 -258.5t194.5 -104.5q131 0 197 102.5t66 258.5q0 162 -64 264.5t-201 102.5q-126 0 -193.5 -103.5t-67.5 -261.5z M540 1230l201 374h279l-256 -374h-224z" />
<glyph unicode="&#xf4;" d="M84 549q0 257 148 423.5t392 166.5q259 0 400 -162.5t141 -412.5q0 -255 -142 -418t-399 -163q-255 0 -397.5 159t-142.5 407zM194 1228l321 374h235l320 -374h-258l-179 218l-179 -218h-260zM363 557q0 -154 68.5 -258.5t194.5 -104.5q131 0 197 102.5t66 258.5 q0 162 -64 264.5t-201 102.5q-126 0 -193.5 -103.5t-67.5 -261.5z" />
<glyph unicode="&#xf5;" d="M84 549q0 257 148 423.5t392 166.5q259 0 400 -162.5t141 -412.5q0 -255 -142 -418t-399 -163q-255 0 -397.5 159t-142.5 407zM219 1387q36 73 100.5 123t144.5 50q76 0 166.5 -42.5t133.5 -42.5q95 0 141 95l142 -112q-87 -175 -270 -175q-69 0 -153 42t-120 42 q-53 0 -86.5 -21t-72.5 -76zM363 557q0 -154 68.5 -258.5t194.5 -104.5q131 0 197 102.5t66 258.5q0 162 -64 264.5t-201 102.5q-126 0 -193.5 -103.5t-67.5 -261.5z" />
<glyph unicode="&#xf6;" d="M84 549q0 257 148 423.5t392 166.5q259 0 400 -162.5t141 -412.5q0 -255 -142 -418t-399 -163q-255 0 -397.5 159t-142.5 407zM224 1418q0 64 44 108t112 44q66 0 111 -44t45 -108q0 -66 -44.5 -110.5t-111.5 -44.5q-68 0 -112 44.5t-44 110.5zM363 557 q0 -154 68.5 -258.5t194.5 -104.5q131 0 197 102.5t66 258.5q0 162 -64 264.5t-201 102.5q-126 0 -193.5 -103.5t-67.5 -261.5zM758 1418q0 64 45.5 108t112.5 44q68 0 112 -44t44 -108q0 -66 -44 -110.5t-112 -44.5q-66 0 -112 44.5t-46 110.5z" />
<glyph unicode="&#xf7;" horiz-adv-x="1273" d="M110 633v239h1053v-239h-1053zM482 360.5q0 59.5 43 104t106 44.5q59 0 103.5 -44.5t44.5 -104t-44.5 -103.5t-103.5 -44q-62 0 -105.5 44t-43.5 103.5zM482 1143.5q0 59.5 43 104t106 44.5q59 0 103.5 -44.5t44.5 -104t-44.5 -103.5t-103.5 -44q-62 0 -105.5 44 t-43.5 103.5z" />
<glyph unicode="&#xf8;" horiz-adv-x="1242" d="M95 -17l129 174q-129 154 -129 392q0 255 148 422.5t392 167.5q152 0 262 -58l43 58h237l-128 -177q128 -158 128 -398q0 -255 -143 -418t-399 -163q-152 0 -263 57l-43 -57h-234zM342 557q0 -106 34 -192l401 551q-56 33 -142 33q-141 0 -217 -111.5t-76 -280.5z M496 208q59 -40 141 -40q144 0 218 108t74 279q0 119 -32 203z" />
<glyph unicode="&#xf9;" d="M133 363v758h266v-697q0 -105 51.5 -160.5t142.5 -55.5q114 0 179.5 77.5t65.5 233.5v602h268v-1121h-268v184q-88 -195 -344 -195q-171 0 -266 97.5t-95 276.5zM257 1602h279l201 -374h-224z" />
<glyph unicode="&#xfa;" d="M133 363v758h266v-697q0 -105 51.5 -160.5t142.5 -55.5q114 0 179.5 77.5t65.5 233.5v602h268v-1121h-268v184q-88 -195 -344 -195q-171 0 -266 97.5t-95 276.5zM528 1230l202 374h279l-257 -374h-224z" />
<glyph unicode="&#xfb;" d="M133 363v758h266v-697q0 -105 51.5 -160.5t142.5 -55.5q114 0 179.5 77.5t65.5 233.5v602h268v-1121h-268v184q-88 -195 -344 -195q-171 0 -266 97.5t-95 276.5zM184 1230l320 374h235l320 -374h-259l-179 218l-178 -218h-259z" />
<glyph unicode="&#xfc;" d="M133 363v758h266v-697q0 -105 51.5 -160.5t142.5 -55.5q114 0 179.5 77.5t65.5 233.5v602h268v-1121h-268v184q-88 -195 -344 -195q-171 0 -266 97.5t-95 276.5zM197 1418q0 64 44 108t113 44q66 0 110.5 -44t44.5 -108q0 -66 -44.5 -110.5t-110.5 -44.5q-68 0 -112.5 44 t-44.5 111zM732 1418q0 64 45.5 108t111.5 44q68 0 113 -44t45 -108q0 -66 -45 -110.5t-113 -44.5q-66 0 -111.5 44t-45.5 111z" />
<glyph unicode="&#xfd;" horiz-adv-x="1142" d="M13 1121h295l130 -357q60 -159 96 -268t46 -137l6 -32q22 78 142 437l117 357h278l-404 -1090q-168 -449 -514 -449q-64 0 -110 11v219q36 -9 76 -9q201 -1 285 219zM496 1230l201 374h278l-256 -374h-223z" />
<glyph unicode="&#xfe;" horiz-adv-x="1313" d="M144 -422v1986h265v-615q120 188 343 188q219 0 348.5 -157t129.5 -414q0 -252 -129.5 -416.5t-350.5 -164.5q-226 0 -341 183v-590h-265zM409 569q0 -170 82 -263t197 -93q120 0 195 91.5t75 257.5t-75 258t-190 92t-199.5 -86.5t-84.5 -256.5z" />
<glyph unicode="&#xff;" horiz-adv-x="1142" d="M13 1121h295l130 -357q60 -159 96 -268t46 -137l6 -32q22 78 142 437l117 357h278l-404 -1090q-168 -449 -514 -449q-64 0 -110 11v219q36 -9 76 -9q201 -1 285 219zM168 1418q0 64 44.5 108t112.5 44q66 0 110.5 -44t44.5 -108q0 -66 -44.5 -110.5t-110.5 -44.5 q-68 0 -112.5 44.5t-44.5 110.5zM703 1418q0 64 45.5 108t112.5 44q68 0 112 -44t44 -108q0 -66 -44 -110.5t-112 -44.5q-66 0 -112 44.5t-46 110.5z" />
<glyph unicode="&#x152;" horiz-adv-x="2197" d="M95 750q0 347 187 557t505 210q230 0 397 -141v114h882v-227h-616v-404h549v-226h-549v-405h625v-228h-891v129q-169 -144 -395 -144q-320 0 -507 209t-187 556zM394 749.5q0 -236.5 105 -372.5t290 -136q188 0 291.5 136t103.5 373q0 238 -104.5 374t-292.5 136 q-185 0 -289 -137t-104 -373.5z" />
<glyph unicode="&#x153;" horiz-adv-x="1954" d="M84 549q0 257 145 423.5t388 166.5q251 0 398 -181q148 175 380 175q222 0 347 -133t125 -392q0 -71 -14 -154h-703q29 -120 123 -185.5t227 -65.5q170 0 296 89v-230q-122 -74 -338 -73q-276 0 -438 184q-144 -190 -403 -190q-255 0 -394 159t-139 407zM363 557 q0 -154 66 -258.5t190 -104.5q131 0 197 102.5t66 258.5q0 162 -64 264.5t-201 102.5q-127 0 -190.5 -102.5t-63.5 -262.5zM1146 652h469v47q-7 106 -61 165.5t-152 59.5q-95 0 -166 -68.5t-90 -203.5z" />
<glyph unicode="&#x178;" horiz-adv-x="1379" d="M40 1490h325l99 -216q87 -188 142 -315t67 -159l13 -32q19 82 228 506l101 216h325l-513 -937v-553h-278v544zM276 1787q0 64 44.5 108.5t112.5 44.5q66 0 111 -44.5t45 -108.5q0 -65 -45 -110t-111 -45q-68 0 -112.5 44t-44.5 111zM812 1787q0 64 45.5 108.5t111.5 44.5 q68 0 112 -44.5t44 -108.5q0 -65 -44 -110t-112 -45q-66 0 -111.5 44t-45.5 111z" />
<glyph unicode="&#x2c6;" horiz-adv-x="1038" d="M82 1391l321 374h234l321 -374h-259l-180 219l-179 -219h-258z" />
<glyph unicode="&#x2dc;" horiz-adv-x="1038" d="M112 1509q36 73 101.5 122t145.5 49q75 0 165.5 -41.5t132.5 -41.5q95 0 141 95l142 -113q-87 -175 -269 -175q-68 0 -153 42t-119 42q-53 0 -86.5 -21t-73.5 -76z" />
<glyph unicode="&#x2000;" horiz-adv-x="1064" />
<glyph unicode="&#x2001;" horiz-adv-x="2128" />
<glyph unicode="&#x2002;" horiz-adv-x="1064" />
<glyph unicode="&#x2003;" horiz-adv-x="2128" />
<glyph unicode="&#x2004;" horiz-adv-x="709" />
<glyph unicode="&#x2005;" horiz-adv-x="532" />
<glyph unicode="&#x2006;" horiz-adv-x="354" />
<glyph unicode="&#x2007;" horiz-adv-x="354" />
<glyph unicode="&#x2008;" horiz-adv-x="266" />
<glyph unicode="&#x2009;" horiz-adv-x="425" />
<glyph unicode="&#x200a;" horiz-adv-x="118" />
<glyph unicode="&#x2010;" horiz-adv-x="779" d="M110 473v224h563v-224h-563z" />
<glyph unicode="&#x2011;" horiz-adv-x="779" d="M110 473v224h563v-224h-563z" />
<glyph unicode="&#x2012;" horiz-adv-x="779" d="M110 473v224h563v-224h-563z" />
<glyph unicode="&#x2013;" horiz-adv-x="1213" d="M110 494v203h996v-203h-996z" />
<glyph unicode="&#x2014;" horiz-adv-x="1837" d="M110 500v203h1617v-203h-1617z" />
<glyph unicode="&#x2018;" horiz-adv-x="517" d="M46 988l288 547h223l-207 -547h-304z" />
<glyph unicode="&#x2019;" horiz-adv-x="517" d="M49 988l208 547h302l-285 -547h-225z" />
<glyph unicode="&#x201a;" horiz-adv-x="517" d="M-9 -279l210 547h303l-287 -547h-226z" />
<glyph unicode="&#x201c;" horiz-adv-x="891" d="M46 988l296 547h217l-214 -547h-299zM451 988l266 547h216l-201 -547h-281z" />
<glyph unicode="&#x201d;" horiz-adv-x="891" d="M49 988l200 547h279l-262 -547h-217zM422 988l215 547h298l-296 -547h-217z" />
<glyph unicode="&#x201e;" horiz-adv-x="891" d="M0 -279l201 547h279l-263 -547h-217zM374 -279l212 547h299l-294 -547h-217z" />
<glyph unicode="&#x2022;" horiz-adv-x="959" d="M188 787.5q0 126.5 83 210t209 83.5q124 0 209 -84.5t85 -209t-84 -209t-208 -84.5q-127 0 -210.5 83.5t-83.5 210z" />
<glyph unicode="&#x2026;" horiz-adv-x="1891" d="M112 155q0 71 51.5 120.5t122 49.5t120.5 -49.5t50 -120.5t-50 -121.5t-120.5 -50.5t-122 50.5t-51.5 121.5zM774 155q0 71 51 120.5t121.5 49.5t120.5 -49.5t50 -120.5t-50 -121.5t-120.5 -50.5t-121.5 50.5t-51 121.5zM1435 155q0 71 51 120.5t121.5 49.5t121 -49.5 t50.5 -120.5t-50.5 -121.5t-121 -50.5t-121.5 50.5t-51 121.5z" />
<glyph unicode="&#x202f;" horiz-adv-x="425" />
<glyph unicode="&#x2039;" horiz-adv-x="760" d="M59 559l337 359h281l-323 -359l323 -358h-281z" />
<glyph unicode="&#x203a;" horiz-adv-x="758" d="M84 201l323 358l-323 359h281l336 -359l-336 -358h-281z" />
<glyph unicode="&#x205f;" horiz-adv-x="532" />
<glyph unicode="&#x20ac;" horiz-adv-x="1348" d="M99 462v171h180q-3 27 -3 79q0 31 5 93h-182v172h213q64 230 234.5 358.5t390.5 128.5q199 0 323 -71v-268q-117 87 -280 87q-264 0 -370 -235h414v-172h-460q-7 -47 -7 -95q0 -30 5 -77h462v-171h-418q48 -112 143.5 -172t219.5 -60q168 0 291 89v-268 q-130 -68 -318 -68q-232 0 -399 129t-233 350h-211z" />
<glyph unicode="&#x2122;" horiz-adv-x="1616" d="M15 1334v156h553v-156h-186v-602h-179v602h-188zM642 732l61 758h202l97 -262q36 -89 59 -158.5t28 -96.5l6 -26q25 84 97 281l102 262h201l71 -758h-177l-22 285q-6 72 -6 139.5t2 99.5l2 31q-21 -103 -86 -272l-102 -272h-160l-97 272q-27 74 -46.5 141.5t-28.5 99.5 l-7 31q11 -110 0 -272l-19 -283h-177z" />
<glyph unicode="&#x25fc;" horiz-adv-x="1116" d="M0 0v1117h1117v-1117h-1117z" />
<glyph unicode="&#xfb03;" horiz-adv-x="1990" d="M66 922v199h164v67q0 188 105.5 294t293.5 106q181 0 344 -77q97 78 259 77q188 0 376 -86v-223q-192 88 -340 88q-82 0 -124 -41t-42 -140v-65h608v-1121h-266v922h-342v-922h-264v922h-342v-922h-266v922h-164zM496 1121h342v67q0 76 18 141q-105 38 -193 38 q-84 0 -125.5 -41t-41.5 -140v-65z" />
<glyph unicode="&#xfb04;" horiz-adv-x="1848" d="M66 922v199h164v67q0 188 105.5 294t293.5 106q181 0 344 -77q102 78 259 77q222 0 473 -128v-1460h-265v1342q-87 25 -161 25q-87 0 -131 -38.5t-44 -142.5v-65h223v-199h-223v-922h-266v922h-342v-922h-266v922h-164zM496 1121h342v67q0 76 18 141q-105 38 -193 38 q-84 0 -125.5 -41t-41.5 -140v-65z" />
</font>
</defs>
</svg>
