<?xml version="1.0" standalone="no"?>
<!DOCTYPE svg PUBLIC "-//W3C//DTD SVG 1.1//EN" "http://www.w3.org/Graphics/SVG/1.1/DTD/svg11.dtd" >
<svg xmlns="http://www.w3.org/2000/svg" xmlns:xlink="http://www.w3.org/1999/xlink" version="1.1">
<metadata></metadata>
<defs>
<font id="hindbold" horiz-adv-x="1281" >
<font-face units-per-em="2048" ascent="1638" descent="-410" />
<missing-glyph horiz-adv-x="552" />
<glyph unicode="&#xfb01;" horiz-adv-x="1271" d="M66 885v236h147v42q0 203 114 316.5t315 113.5q217 0 417 -93v-261q-210 95 -365 95q-82 0 -121 -38t-39 -133v-42h643v-1121h-323v885h-320v-885h-321v885h-147z" />
<glyph unicode="&#xfb02;" horiz-adv-x="1311" d="M66 885v236h147v42q0 203 114 316.5t315 113.5q243 0 537 -139v-1454h-323v1311q-88 22 -151 23q-88 0 -129.5 -35.5t-41.5 -135.5v-42h209v-236h-209v-885h-321v885h-147z" />
<glyph horiz-adv-x="0" />
<glyph horiz-adv-x="682" />
<glyph horiz-adv-x="0" />
<glyph horiz-adv-x="0" />
<glyph unicode="&#xd;" horiz-adv-x="735" />
<glyph unicode=" "  horiz-adv-x="552" />
<glyph unicode="&#x09;" horiz-adv-x="552" />
<glyph unicode="&#xa0;" horiz-adv-x="552" />
<glyph unicode="!" horiz-adv-x="638" d="M114 183.5q0 84.5 59 142.5t143.5 58t142.5 -58t58 -142.5t-58 -142.5t-142.5 -58t-143.5 58t-59 142.5zM166 522v968h307v-968h-307z" />
<glyph unicode="&#x22;" horiz-adv-x="855" d="M89 929v578h270v-578h-270zM498 929v578h270v-578h-270z" />
<glyph unicode="#" horiz-adv-x="1674" d="M99 340v246h275l61 299h-260v257h316l73 346h274l-72 -346h300l73 346h275l-74 -346h235v-257h-290l-65 -299h280v-246h-330l-73 -340h-272l70 340h-300l-73 -340h-273l72 340h-222zM646 586h303l62 299h-301z" />
<glyph unicode="$" horiz-adv-x="1136" d="M76 1070q0 171 112.5 285t313.5 138v254h270v-259q118 -17 222 -63v-319q-180 104 -373 104q-86 0 -131 -35.5t-45 -91t55 -98.5t165 -92q68 -31 114 -54t104.5 -64t93 -86t58.5 -111.5t24 -144.5q0 -168 -107 -285t-291 -152v-257h-267v250q-183 17 -305 87v342 q200 -146 428 -146q78 0 129 41t51 107q0 22 -6.5 42t-24.5 37.5t-34.5 30t-48.5 29t-54 27.5t-65.5 31t-69.5 31q-143 66 -230.5 163.5t-87.5 258.5z" />
<glyph unicode="%" horiz-adv-x="2151" d="M99 1176.5q0 174.5 123 297.5t297.5 123t297.5 -123t123 -297.5t-123 -297.5t-297.5 -123t-297.5 123t-123 297.5zM359 1176.5q0 -66.5 47.5 -114t113.5 -47.5t113.5 47.5t47.5 114t-47.5 114t-113.5 47.5t-113.5 -47.5t-47.5 -114zM502 -2l838 1566h292l-840 -1566h-290 zM1212 403q0 175 123 297.5t297.5 122.5t297.5 -122.5t123 -297.5t-123 -297.5t-297.5 -122.5t-297.5 122.5t-123 297.5zM1471 402.5q0 -66.5 47.5 -114t114 -47.5t114 47.5t47.5 114t-47.5 114t-114 47.5t-114 -47.5t-47.5 -114z" />
<glyph unicode="&#x26;" horiz-adv-x="1640" d="M110 407q0 274 314 376q-150 166 -150 327q0 197 135 304.5t341 107.5q232 0 363.5 -110t131.5 -306q0 -131 -74 -231.5t-240 -184.5l217 -213q40 87 40 188h289q0 -221 -124 -393l277 -272h-396l-86 86q-179 -103 -407 -103q-292 0 -461.5 123.5t-169.5 300.5zM441 418 q0 -76 85.5 -123.5t216.5 -47.5q104 0 197 40l-281 275q-7 6 -21 19.5t-23 22.5q-102 -36 -138 -80t-36 -106zM602 1115q0 -98 152 -250q166 91 166 224q0 82 -45.5 125.5t-124.5 43.5q-64 0 -106 -37t-42 -106z" />
<glyph unicode="'" horiz-adv-x="446" d="M89 929v578h270v-578h-270z" />
<glyph unicode="(" horiz-adv-x="747" d="M89 572q0 575 346 992h335q-162 -197 -251.5 -478t-89.5 -522q0 -235 93 -507.5t270 -489.5h-343q-360 449 -360 1005z" />
<glyph unicode=")" horiz-adv-x="747" d="M-44 -433q177 217 270 489.5t93 507.5q0 241 -90 522t-251 478h334q348 -416 347 -992q0 -557 -361 -1005h-342z" />
<glyph unicode="*" horiz-adv-x="1123" d="M62 1032l82 249l206 -67q57 -20 99 -51q-15 53 -16 111v216h261v-216q0 -57 -15 -111q40 29 98 49l207 67l80 -249l-203 -66q-56 -17 -111 -17h-5q47 -35 80 -80l129 -177l-213 -152l-126 174q-36 48 -49 96q-17 -42 -53 -93l-131 -177l-209 154l128 175q34 45 77 77 q-51 0 -108 20z" />
<glyph unicode="+" horiz-adv-x="1302" d="M99 606v287h403v401h296v-401h405v-287h-405v-398h-296v398h-403z" />
<glyph unicode="," horiz-adv-x="650" d="M-15 -281l223 577h356l-300 -577h-279z" />
<glyph unicode="-" horiz-adv-x="789" d="M99 447v265h591v-265h-591z" />
<glyph unicode="." horiz-adv-x="570" d="M89 179q0 82 57 139.5t139 57.5t139.5 -57.5t57.5 -139.5t-57.5 -139t-139.5 -57t-139 57t-57 139z" />
<glyph unicode="/" horiz-adv-x="1026" d="M-4 -228l793 1792h336l-796 -1792h-333z" />
<glyph unicode="0" horiz-adv-x="1209" d="M78 730q0 345 132 546t393.5 201t395.5 -201t134 -546q0 -340 -134 -543.5t-395.5 -203.5t-393.5 202.5t-132 544.5zM407 730q0 -460 197 -460q198 0 198 460t-198 460q-197 0 -197 -460z" />
<glyph unicode="1" horiz-adv-x="840" d="M22 880v330l407 236h278v-1446h-320v1099z" />
<glyph unicode="2" horiz-adv-x="1108" d="M66 0v249q239 165 422 364t183 351q0 93 -56 147t-168 54q-188 0 -356 -139v312q73 53 190.5 91t229.5 38q226 0 359.5 -118.5t133.5 -331.5q0 -382 -487 -743h513v-274h-964z" />
<glyph unicode="3" horiz-adv-x="1068" d="M66 64v310q177 -98 365 -98q108 0 169 46.5t61 118.5q0 162 -298 161h-78v265h78q118 0 193 40t75 119q0 152 -200 153q-152 0 -307 -95v301q164 82 330 82q234 0 371 -112t137 -291q0 -245 -223 -338q251 -60 252 -327q0 -186 -140.5 -298t-392.5 -112q-237 0 -392 75z " />
<glyph unicode="4" horiz-adv-x="1242" d="M66 308v274l443 868h513v-868h177v-274h-177v-308h-321v308h-635zM382 582h319v655z" />
<glyph unicode="5" horiz-adv-x="1105" d="M78 64v305q150 -93 336 -93q296 0 296 213q0 80 -60.5 126t-182.5 46q-171 0 -328 -72v861h812v-273h-497v-246q48 6 97 6q236 0 362.5 -121.5t126.5 -330.5q0 -226 -149.5 -362t-423.5 -136q-241 0 -389 77z" />
<glyph unicode="6" horiz-adv-x="1186" d="M78 661q0 369 202 590.5t512 221.5q117 0 228 -36v-298q-87 47 -201 47q-157 0 -258 -96t-137 -258q120 101 286 101q190 0 306.5 -126t116.5 -338q0 -220 -138.5 -366.5t-377.5 -146.5q-268 0 -403.5 191t-135.5 514zM411 566q24 -323 208 -323q86 0 134.5 60t48.5 159 q0 91 -47.5 145t-133.5 54q-120 0 -210 -95z" />
<glyph unicode="7" horiz-adv-x="1061" d="M44 1174v274h973v-274l-561 -1174h-342l565 1174h-635z" />
<glyph unicode="8" horiz-adv-x="1205" d="M78 391q0 234 209 339q-188 108 -188 311.5t140.5 317.5t357.5 114q226 0 366.5 -108.5t140.5 -322.5q0 -200 -182 -305q206 -95 206 -334q0 -190 -147 -307.5t-384 -117.5q-238 0 -378.5 111.5t-140.5 301.5zM401 401q0 -68 47.5 -117.5t150.5 -49.5q102 0 154 50 t52 121q0 80 -54 130.5t-152 50.5q-99 0 -148.5 -55.5t-49.5 -129.5zM424 1047q0 -85 51 -131.5t129 -46.5q75 0 126 46.5t51 131.5q0 169 -184 169q-88 0 -130.5 -49.5t-42.5 -119.5z" />
<glyph unicode="9" horiz-adv-x="1178" d="M44 962q0 217 136 361t369 144q259 0 406 -187t147 -510q0 -396 -188 -591.5t-503 -195.5q-151 0 -263 42v304q114 -55 228 -55q173 0 268 78.5t124 246.5q-95 -95 -288 -95q-195 0 -315.5 125t-120.5 333zM374 969q0 -89 50.5 -146t137.5 -57q132 0 215 99 q-27 314 -213 314q-87 0 -138.5 -55.5t-51.5 -154.5z" />
<glyph unicode=":" horiz-adv-x="631" d="M122 194q0 82 56 138.5t138.5 56.5t138.5 -56.5t56 -138.5t-56 -138t-138.5 -56t-138.5 56t-56 138zM122 927q0 82 56 138t138.5 56t138.5 -56t56 -138t-56 -138.5t-138.5 -56.5t-138.5 56.5t-56 138.5z" />
<glyph unicode=";" horiz-adv-x="650" d="M-15 -281l223 577h356l-300 -577h-279zM162 927q0 82 56 138t138 56t138.5 -56t56.5 -138t-56.5 -138.5t-138.5 -56.5t-138 56.5t-56 138.5z" />
<glyph unicode="&#x3c;" horiz-adv-x="1302" d="M99 599v306l1104 393v-318l-783 -228l783 -228v-319z" />
<glyph unicode="=" horiz-adv-x="1302" d="M99 367v266h1104v-266h-1104zM99 872v265h1104v-265h-1104z" />
<glyph unicode="&#x3e;" horiz-adv-x="1302" d="M99 205v319l783 228l-783 228v318l1104 -393v-306z" />
<glyph unicode="?" horiz-adv-x="1011" d="M144 1144v302q132 62 338 63q208 0 336.5 -109.5t128.5 -295.5q0 -100 -40 -181t-100 -126t-117 -69.5t-104 -24.5l-6 -181h-295l-6 334q340 0 340 208q0 80 -47.5 127.5t-140.5 47.5q-144 0 -287 -95zM228 183.5q0 84.5 58.5 142.5t142.5 58t143 -58t59 -142.5 t-59 -142.5t-143 -58t-142.5 58t-58.5 142.5z" />
<glyph unicode="@" horiz-adv-x="2160" d="M89 443q0 285 143.5 526t387 378t528.5 137q247 0 458.5 -101.5t344 -304t132.5 -466.5q0 -261 -131 -436.5t-318 -175.5q-261 0 -338 241q-44 -118 -134 -178.5t-202 -60.5q-179 0 -283.5 136t-104.5 333q0 230 135 370.5t319 140.5q179 0 266 -161q8 108 10 156h258 l-3 -44q-27 -398 -27 -444q0 -238 114 -240q78 0 126 92t48 250q0 314 -191.5 473.5t-489.5 159.5q-228 0 -406 -114t-268.5 -293.5t-90.5 -383.5q0 -298 190 -474t470 -176q233 1 445 103l-8 -273q-203 -90 -434 -90q-296 0 -515 129t-325 334.5t-106 456.5zM856 458 q0 -102 58.5 -164t138.5 -62q73 0 136 56.5t85 162.5q0 13 1.5 44t1.5 45q-13 104 -69 158t-129 54q-93 0 -158 -77.5t-65 -216.5z" />
<glyph unicode="A" horiz-adv-x="1526" d="M51 0l498 1490h428l498 -1490h-365l-90 306h-522l-91 -306h-356zM580 580h357l-15 53q-63 217 -104 369.5t-50 196.5l-10 44q-17 -122 -163 -610z" />
<glyph unicode="B" horiz-adv-x="1338" d="M144 0v1490h580q245 0 373.5 -116t128.5 -295q0 -118 -62 -206t-162 -119q258 -78 259 -347q0 -179 -127 -293t-347 -114h-643zM485 272h178q253 0 253 173q0 172 -251 172h-180v-345zM485 885h125q133 0 200.5 48.5t67.5 128.5q0 156 -213 156h-180v-333z" />
<glyph unicode="C" horiz-adv-x="1355" d="M89 741q0 340 213 555t557 215q251 0 386 -84v-328q-166 102 -369 102q-179 0 -300.5 -125t-121.5 -335q0 -205 121.5 -326t313.5 -121q208 0 356 107v-335q-133 -83 -383 -83h-6q-327 0 -547 211t-220 547z" />
<glyph unicode="D" horiz-adv-x="1509" d="M144 0v1490h513q336 0 550.5 -206.5t214.5 -513.5q0 -359 -211 -564.5t-559 -205.5h-508zM494 279h154q205 0 317 128.5t112 362.5q0 199 -113 319.5t-318 120.5h-152v-931z" />
<glyph unicode="E" horiz-adv-x="1203" d="M144 0v1490h918v-272h-575v-338h513v-270h-513v-338h583v-272h-926z" />
<glyph unicode="F" horiz-adv-x="1118" d="M144 0v1490h909v-272h-566v-384h493v-272h-493v-562h-343z" />
<glyph unicode="G" horiz-adv-x="1560" d="M89 747q0 350 233 560t592 210q251 0 435 -92v-341q-211 121 -431 121h-4q-211 0 -334.5 -124.5t-123.5 -333.5q0 -210 121.5 -334t331.5 -124q95 0 188 30v280h-241v290h573v-752q-213 -154 -536 -154q-358 0 -581 205.5t-223 558.5z" />
<glyph unicode="H" horiz-adv-x="1516" d="M144 0v1490h341v-605h545v605h344v-1490h-344v595h-545v-595h-341z" />
<glyph unicode="I" horiz-adv-x="671" d="M166 0v1490h341v-1490h-341z" />
<glyph unicode="J" horiz-adv-x="866" d="M66 42v300q82 -50 171 -50q156 0 157 168v1028h340v-1037q0 -214 -113.5 -333.5t-317.5 -119.5q-153 0 -237 44z" />
<glyph unicode="K" horiz-adv-x="1463" d="M144 0v1490h341v-1490h-341zM500 741l482 749h405l-490 -745l530 -745h-427z" />
<glyph unicode="L" horiz-adv-x="1078" d="M144 0v1490h341v-1192h550v-298h-891z" />
<glyph unicode="M" horiz-adv-x="1974" d="M110 0l129 1490h373l209 -539q53 -135 90.5 -247.5t48.5 -159.5l11 -44q36 146 154 451l211 539h374l154 -1490h-340l-55 578l-29 435q-58 -166 -159 -435l-211 -563h-201l-208 563q-51 137 -86 245t-47 150l-11 40q0 -157 -19 -435l-47 -578h-341z" />
<glyph unicode="N" horiz-adv-x="1541" d="M144 0v1490h373l348 -616q74 -131 128 -245t69 -160l17 -49q-22 164 -22 454v616h341v-1490h-374l-357 617q-71 120 -124.5 236t-73.5 171l-18 55q34 -199 34 -462v-617h-341z" />
<glyph unicode="O" horiz-adv-x="1627" d="M89 750q0 342 198 553.5t527 211.5q332 0 528.5 -210t196.5 -555q0 -343 -197.5 -554t-527.5 -211q-331 0 -528 210t-197 555zM454 750q0 -210 97 -333t263 -123t263 123t97 333t-97 332.5t-263 122.5t-263 -122.5t-97 -332.5z" />
<glyph unicode="P" horiz-adv-x="1245" d="M144 0v1490h513q247 0 401 -139t154 -353q0 -245 -160.5 -380.5t-394.5 -135.5h-172v-482h-341zM485 752h112q270 0 270 246q0 220 -248 220h-2h-132v-466z" />
<glyph unicode="Q" horiz-adv-x="1638" d="M89 750q0 343 198 554t527 211q332 0 528.5 -210t196.5 -555q0 -235 -95 -411.5t-267 -270.5l455 -254l-387 -148l-440 319q-328 2 -522 212t-194 553zM454 750q0 -210 97 -333t263 -123t263 123t97 333t-97 332.5t-263 122.5t-263 -122.5t-97 -332.5z" />
<glyph unicode="R" horiz-adv-x="1357" d="M144 0v1490h515q249 0 401 -132t152 -345q0 -319 -272 -441l379 -572h-407l-323 517h-104v-517h-341zM485 794h161q221 0 221 217q0 95 -57.5 149t-157.5 54h-167v-420z" />
<glyph unicode="S" horiz-adv-x="1136" d="M86 1070q0 193 141.5 311.5t391.5 118.5q223 0 385 -75v-319q-179 104 -371 104q-87 0 -132 -35.5t-45 -91t55 -98.5t166 -92q68 -31 113.5 -54t104.5 -64t93 -86t58 -111.5t24 -144.5q0 -201 -148 -325.5t-394 -124.5q-263 0 -429 93v342q201 -146 429 -146 q78 0 128.5 41t50.5 107q0 22 -6.5 42t-24 37.5t-34 30t-48.5 29t-54.5 27.5t-65.5 31t-69 31q-144 66 -231.5 163.5t-87.5 258.5z" />
<glyph unicode="T" horiz-adv-x="1203" d="M66 1216v274h1071v-274h-363v-1216h-343v1216h-365z" />
<glyph unicode="U" horiz-adv-x="1477" d="M133 562v928h340v-926q0 -277 265.5 -277t265.5 288v915h341v-912q0 -292 -164 -446t-442 -154q-275 0 -440.5 152.5t-165.5 431.5z" />
<glyph unicode="V" horiz-adv-x="1456" d="M42 1490h367l180 -595q48 -158 83 -305t47 -214l11 -68q36 230 144 587l179 595h363l-502 -1490h-376z" />
<glyph unicode="W" horiz-adv-x="2147" d="M42 1490h359l137 -548q44 -177 72.5 -319.5t35.5 -198.5l8 -52q38 172 151 570l149 527h251l146 -527q47 -167 83.5 -309t49.5 -202l13 -59q29 196 124 572l137 546h348l-399 -1490h-380l-130 471q-47 171 -76.5 288t-36.5 150l-5 33q-7 -91 -119 -471l-137 -471h-380z " />
<glyph unicode="X" horiz-adv-x="1465" d="M59 0l472 756l-449 734h395l249 -435q44 82 125.5 231t110.5 204h416l-451 -736l480 -754h-405l-270 464q-48 -90 -141 -252.5t-120 -211.5h-412z" />
<glyph unicode="Y" horiz-adv-x="1421" d="M29 1490h398l90 -216q72 -168 118 -287.5t59 -154.5l11 -36q22 99 196 478l97 216h395l-515 -941v-549h-340v546z" />
<glyph unicode="Z" horiz-adv-x="1372" d="M133 0v249l667 967h-654v274h1068v-240l-672 -976h699v-274h-1108z" />
<glyph unicode="[" horiz-adv-x="802" d="M144 -433v1997h626v-281h-321v-1433h321v-283h-626z" />
<glyph unicode="\" horiz-adv-x="1026" d="M-99 1564h336l793 -1792h-333z" />
<glyph unicode="]" horiz-adv-x="802" d="M33 -150h321v1433h-321v281h626v-1997h-626v283z" />
<glyph unicode="^" horiz-adv-x="1085" d="M73 734l334 580h272l334 -580h-298l-171 323l-172 -323h-299z" />
<glyph unicode="_" horiz-adv-x="1207" d="M44 -99h1119v-268h-1119v268z" />
<glyph unicode="`" horiz-adv-x="1105" d="M296 1765h323l191 -391h-268z" />
<glyph unicode="a" horiz-adv-x="1140" d="M78 319q0 162 118 251t350 89h142v78q0 141 -188 141q-181 0 -336 -101v289q133 76 382 76q239 0 356.5 -103.5t117.5 -319.5v-719h-317v137q-71 -143 -279 -143q-164 0 -255 92.5t-91 232.5zM414 334q0 -113 130 -113q68 0 106 42.5t38 114.5v82h-104q-82 0 -126 -35.5 t-44 -90.5z" />
<glyph unicode="b" horiz-adv-x="1351" d="M133 0v1564h323v-615q114 186 333 186q211 0 348 -153t137 -418q0 -237 -131.5 -407t-350.5 -170q-224 0 -336 188v-175h-323zM456 572q0 -143 68.5 -229t178.5 -86q102 0 173 82.5t71 217.5q0 146 -69.5 228t-171.5 82t-176 -77.5t-74 -217.5z" />
<glyph unicode="c" horiz-adv-x="1036" d="M78 557q4 252 163.5 417t435.5 165q171 0 294 -64v-277q-118 74 -261 74q-135 0 -219 -81t-86 -234q9 -148 88 -230t210 -82q139 0 268 78v-270q-129 -70 -309 -70h-5q-252 0 -415.5 160t-163.5 414z" />
<glyph unicode="d" horiz-adv-x="1351" d="M78 564q0 265 137 418t347 153q219 0 333 -186v615h323v-1564h-323v175q-112 -188 -336 -188q-219 0 -350 170t-131 407zM405 557q0 -135 70.5 -217.5t172.5 -82.5q110 0 178.5 86t68.5 229q0 140 -74 217.5t-175.5 77.5t-171 -82t-69.5 -228z" />
<glyph unicode="e" horiz-adv-x="1178" d="M78 562q0 267 149 419t368 152q226 0 356 -132t130 -393q0 -51 -17 -175h-659q33 -93 115 -143.5t197 -50.5q170 0 296 95v-270q-113 -75 -346 -75h-6q-277 0 -430 160.5t-153 412.5zM391 663h390v27q-15 197 -173 197q-78 0 -137.5 -56.5t-79.5 -167.5z" />
<glyph unicode="f" horiz-adv-x="764" d="M66 885v236h147v42q0 203 114 316.5t315 113.5q104 -1 168 -23v-261q-62 25 -116 25q-82 0 -121 -38t-39 -133v-42h209v-236h-209v-885h-321v885h-147z" />
<glyph unicode="g" horiz-adv-x="1293" d="M89 582q0 239 129.5 395t338.5 156q199 0 294 -160v148h321v-1013q0 -270 -161.5 -405.5t-404.5 -135.5q-237 0 -414 83v331q155 -125 380 -125q146 0 212.5 62.5t66.5 193.5v76q-97 -150 -309 -150q-186 0 -319.5 137t-133.5 407zM424 580q0 -139 53.5 -212.5 t153.5 -73.5q103 0 161.5 78.5t58.5 189.5q0 301 -218 301q-97 0 -153 -75.5t-56 -207.5z" />
<glyph unicode="h" d="M133 0v1564h323v-633q86 201 336 202q164 0 266.5 -104.5t102.5 -313.5v-715h-323v663q0 97 -48.5 153t-126.5 56q-33 0 -63 -10.5t-65 -36t-57 -86t-22 -146.5v-593h-323z" />
<glyph unicode="i" horiz-adv-x="610" d="M118 1446.5q0 77.5 55 132.5t132 55t133 -55t56 -132.5t-56 -133t-133 -55.5t-132 55.5t-55 133zM144 0v1121h323v-1121h-323z" />
<glyph unicode="j" horiz-adv-x="605" d="M-89 -157q74 -33 127 -33q114 0 114 148v1163h321v-1167q0 -178 -99.5 -285t-287.5 -107q-77 0 -175 35v246zM124 1446.5q0 77.5 55 132.5t132.5 55t133 -55t55.5 -132.5t-55.5 -133t-133 -55.5t-132.5 55.5t-55 133z" />
<glyph unicode="k" horiz-adv-x="1211" d="M133 0v1526h323v-907l354 502h372l-390 -537l396 -584h-374l-358 551v-551h-323z" />
<glyph unicode="l" horiz-adv-x="610" d="M144 0v1564h323v-1564h-323z" />
<glyph unicode="m" horiz-adv-x="1899" d="M133 0v1121h323v-174q93 186 316 186q237 0 314 -213q38 100 126 156.5t208 56.5q167 0 263 -105.5t96 -308.5v-719h-323v665q0 95 -38 151t-109 56q-76 0 -134 -61t-58 -218v-593h-323v665q0 95 -37.5 151t-108.5 56q-76 0 -134 -61t-58 -218v-593h-323z" />
<glyph unicode="n" d="M133 0v1121h323v-190q42 93 129.5 147.5t208.5 54.5q173 0 270 -103t97 -302v-728h-323v667q0 100 -46.5 152.5t-130.5 52.5q-89 0 -147 -70t-58 -209v-593h-323z" />
<glyph unicode="o" horiz-adv-x="1253" d="M78 546q0 260 150 426.5t401 166.5q261 0 404.5 -161.5t143.5 -411.5q0 -255 -144.5 -419t-403.5 -164q-264 0 -407.5 157.5t-143.5 405.5zM414 559.5q0 -143.5 54 -235.5t163 -92q106 0 157.5 89.5t51.5 236.5q0 327 -214 327q-105 0 -158.5 -91t-53.5 -234.5z" />
<glyph unicode="p" horiz-adv-x="1351" d="M133 -414v1535h323v-172q117 186 338 186q217 0 348.5 -154t131.5 -417q0 -250 -127 -413.5t-353 -163.5q-228 0 -338 179v-580h-323zM456 572q0 -143 70.5 -229t180.5 -86q106 0 173 80.5t67 219.5q0 153 -67.5 231.5t-172.5 78.5q-101 0 -176 -77.5t-75 -217.5z" />
<glyph unicode="q" horiz-adv-x="1351" d="M78 564q0 263 132 417t351.5 154t333.5 -186v172h323v-1535h-323v589q-112 -188 -336 -188q-225 0 -353 163.5t-128 413.5zM405 557q0 -135 70.5 -217.5t172.5 -82.5q110 0 178.5 86t68.5 229q0 140 -74 217.5t-175.5 77.5t-171 -82t-69.5 -228z" />
<glyph unicode="r" horiz-adv-x="817" d="M131 0l2 1121h321v-207q31 97 103 155.5t167 58.5q53 0 84 -9v-305q-51 24 -117 24h-5q-104 0 -168 -76t-64 -203v-559h-323z" />
<glyph unicode="s" horiz-adv-x="963" d="M242.5 1044.5q124.5 90.5 310.5 90.5q173 0 287 -46v-277q-117 68 -274 68q-57 0 -88 -23t-31 -59q0 -19 11 -37t36 -33.5t48.5 -27.5t64.5 -30t66 -31q101 -53 162.5 -122.5t61.5 -178.5q0 -166 -119 -256.5t-316 -90.5q-203 0 -340 68v289q152 -106 323 -107 q121 0 121 77v1q0 19 -11 37t-37.5 33.5t-48.5 25t-64 27.5t-65 29q-222 106 -222 316q0 167 124.5 257.5z" />
<glyph unicode="t" horiz-adv-x="853" d="M22 885v236h162v266h323v-266h261v-236h-261v-516q0 -59 34 -90.5t90 -31.5q88 0 156 45v-267q-82 -36 -221 -36q-382 0 -382 383v513h-162z" />
<glyph unicode="u" d="M122 372v749h323v-676q0 -197 172 -198q210 0 210 281v593h323v-1121h-323v179q-88 -188 -340 -188q-173 0 -269 96.5t-96 284.5z" />
<glyph unicode="v" horiz-adv-x="1184" d="M11 1121h339l146 -477q33 -110 57.5 -209t30.5 -143l9 -43q19 144 99 395l150 477h332l-418 -1121h-332z" />
<glyph unicode="w" horiz-adv-x="1782" d="M11 1121h334l98 -369q35 -140 59 -251.5t29 -152.5l7 -42q15 132 108 446l108 369h278l107 -369q40 -142 66.5 -253.5t33.5 -153.5l6 -39q15 130 104 446l105 369h317l-357 -1121h-333l-97 367q-31 120 -54 223.5t-29 148.5l-8 44q-21 -148 -93 -416l-97 -367h-331z" />
<glyph unicode="x" horiz-adv-x="1163" d="M36 0l399 562l-376 559h359l181 -334l201 334h355l-403 -562l373 -559h-351l-188 336l-202 -336h-348z" />
<glyph unicode="y" horiz-adv-x="1176" d="M11 1121h352l122 -349q46 -135 76 -232t36 -129l7 -31q25 89 120 392l110 349h331l-404 -1088q-175 -470 -533 -471q-68 0 -124 11v256q35 -8 75 -8q184 0 266 196z" />
<glyph unicode="z" horiz-adv-x="1058" d="M89 0v232l491 642h-472v247h836v-224l-490 -648h517v-249h-882z" />
<glyph unicode="{" horiz-adv-x="840" d="M89 407v312h37q87 0 137.5 64t50.5 148q0 36 -13.5 120t-13.5 133q0 172 99 284.5t253 112.5q68 0 146 -26v-299q-33 19 -68 21q-46 0 -79.5 -35t-33.5 -87q0 -27 13.5 -114t13.5 -140q0 -135 -77 -229t-180 -108q103 -13 180 -108t77 -230q0 -53 -13.5 -140.5 t-13.5 -114.5q0 -53 33.5 -87t79.5 -34q36 0 68 19v-298q-78 -27 -146 -27q-154 0 -253 113t-99 286q0 48 13.5 132t13.5 119q0 85 -50.5 150t-137.5 65z" />
<glyph unicode="|" horiz-adv-x="618" d="M154 -429v1966h310v-1966h-310z" />
<glyph unicode="}" horiz-adv-x="840" d="M55 -131q34 -19 69 -19q47 0 80 34t33 87q0 27 -13 114.5t-13 140.5q0 135 76 230t180 108q-104 13 -180 107.5t-76 229.5q0 53 13 140t13 114q0 52 -33 87t-80 35q-35 0 -69 -21v299q78 27 146 26q154 0 253 -113t99 -284q0 -49 -13.5 -133t-13.5 -120q0 -84 51.5 -148 t137.5 -64h37v-312q-15 2 -37 2q-86 0 -137.5 -65t-51.5 -150q0 -35 13.5 -119t13.5 -132q0 -173 -98.5 -286t-253.5 -113q-68 0 -146 27v298z" />
<glyph unicode="~" horiz-adv-x="1446" d="M62 575q68 97 167.5 169t213.5 72q146 0 290.5 -54.5t197.5 -54.5q73 0 122 31.5t106 99.5l223 -179q-170 -241 -382 -241q-126 0 -268.5 54t-218.5 54q-73 0 -122 -31t-106 -96z" />
<glyph unicode="&#xa1;" horiz-adv-x="638" d="M114 942.5q0 83.5 59 142.5t143.5 59t142.5 -59t58 -142.5t-58 -142.5t-142.5 -59t-143.5 59t-59 142.5zM166 -365v969h307v-969h-307z" />
<glyph unicode="&#xa2;" horiz-adv-x="1056" d="M66 557q4 215 125 369.5t333 196.5v249h270v-244q95 -18 175 -60v-270q-118 74 -262 74q-137 0 -224 -82.5t-89 -232.5q9 -146 91.5 -229t215.5 -83q139 0 268 78v-270q-78 -40 -175 -57v-241h-268v239q-203 39 -331.5 191.5t-128.5 371.5z" />
<glyph unicode="&#xa3;" horiz-adv-x="1193" d="M97 591v234h133q-6 53 -6 104q0 249 130.5 390t386.5 141q188 0 303 -71v-305q-101 74 -230 73q-232 0 -232 -241q0 -29 4 -91h368v-234h-344v-38q0 -194 -135 -281h646v-272h-1022v268q162 84 162 287v36h-164z" />
<glyph unicode="&#xa4;" horiz-adv-x="1262" d="M62 314l130 127q-63 114 -63 247q0 131 61 243l-128 126l187 182l129 -127q112 62 255 62q137 0 252 -59l128 124l188 -182l-129 -126q64 -118 65 -243q0 -131 -67 -247l131 -127l-188 -181l-131 124q-110 -57 -249 -58q-142 0 -255 60l-129 -126zM399 688q0 -97 66 -167 t167.5 -70t168 70t66.5 167t-66.5 166.5t-168 69.5t-167.5 -69.5t-66 -166.5z" />
<glyph unicode="&#xa5;" horiz-adv-x="1404" d="M19 1448h399l279 -543l291 543h397l-376 -650h247v-199h-363l-24 -42v-99h387v-199h-387v-259h-341v259h-382v199h382v99l-24 42h-358v199h245z" />
<glyph unicode="&#xa6;" horiz-adv-x="618" d="M154 -259v748h310v-748h-310zM154 816v748h310v-748h-310z" />
<glyph unicode="&#xa7;" horiz-adv-x="1324" d="M126 650q0 137 102 259q-66 85 -66 195q0 181 135.5 290.5t377.5 109.5q216 0 384 -77v-319q-183 106 -371 106q-171 0 -171 -108q0 -17 5.5 -33t22.5 -30.5t33.5 -26.5t50.5 -30.5t64.5 -34.5t83 -42.5t97.5 -49.5q152 -80 226 -173t74 -251q0 -143 -93 -254 q68 -90 69 -198q0 -184 -142.5 -290.5t-388.5 -106.5q-264 0 -429 93v343q201 -146 429 -146q181 0 181 107q0 57 -66.5 100t-339.5 162q-268 120 -268 405zM454 644q0 -62 57 -108.5t206 -111.5q74 -31 112 -52q18 35 18 71q0 31 -12 56t-29 44t-53 41t-65 36.5t-86.5 43 t-97.5 48.5l-27 14q-24 -42 -23 -82z" />
<glyph unicode="&#xa8;" horiz-adv-x="1105" d="M73 1570q0 76 52 128t132 52q78 0 129.5 -52t51.5 -128q0 -77 -52 -129t-129 -52q-80 0 -132 52t-52 129zM665 1570q0 76 52.5 128t131.5 52q78 0 130.5 -52t52.5 -128q0 -77 -52.5 -129t-130.5 -52q-80 0 -132 52t-52 129z" />
<glyph unicode="&#xa9;" horiz-adv-x="1682" d="M78 747.5q0 316.5 224 540t540.5 223.5t540 -224.5t223.5 -539.5q0 -316 -223.5 -540t-540 -224t-540.5 224t-224 540.5zM292 745q0 -241 156 -396t394 -155q237 0 393 155t156 396q0 237 -156 393t-393 156q-238 0 -394 -156t-156 -393zM489 745q2 167 107 270.5 t282 103.5q108 0 199 -49v-207q-78 49 -176 49q-62 0 -111 -42.5t-51 -124.5q4 -78 49.5 -120.5t106.5 -42.5q95 0 182 53v-211q-87 -46 -212 -46q-152 0 -264 102t-112 265z" />
<glyph unicode="&#xaa;" horiz-adv-x="884" d="M22 1137q0 135 99.5 212.5t296.5 77.5h122v61q0 120 -162 120q-152 0 -285 -84v245q114 62 325 63q203 0 302 -86.5t99 -268.5v-610h-266v115q-57 -122 -239 -121q-137 0 -214.5 77t-77.5 199zM306 1148q0 -95 112 -95q55 0 88.5 36t33.5 97v70h-91q-68 0 -105.5 -29.5 t-37.5 -78.5z" />
<glyph unicode="&#xab;" horiz-adv-x="1308" d="M57 559l337 359h336l-323 -359l323 -358h-336zM544 559l336 359h336l-323 -359l323 -358h-336z" />
<glyph unicode="&#xac;" horiz-adv-x="1332" d="M99 665v257h1135v-621h-265v364h-870z" />
<glyph unicode="&#xad;" horiz-adv-x="789" d="M99 447v265h591v-265h-591z" />
<glyph unicode="&#xae;" horiz-adv-x="1087" d="M22 1218.5q0 227.5 147 374t375 146.5q226 0 374 -147.5t148 -372.5t-148 -371.5t-374 -146.5q-228 0 -375 145t-147 372.5zM159 1218.5q0 -174.5 105 -280.5t282 -106q175 0 280 106t105 280.5t-105 283t-280 108.5q-177 0 -282 -108.5t-105 -283zM384 973v524h156 q201 0 201 -165q0 -106 -84 -146l132 -213h-145l-110 190h-30v-190h-120zM504 1263h49q29 0 45.5 19.5t16.5 49.5q0 66 -71 66h-40v-135z" />
<glyph unicode="&#xaf;" horiz-adv-x="1105" d="M159 1440v219h788v-219h-788z" />
<glyph unicode="&#xb0;" horiz-adv-x="973" d="M66 1095q0 175 123 297.5t297.5 122.5t297.5 -122.5t123 -297.5t-123 -297.5t-297.5 -122.5t-297.5 122.5t-123 297.5zM292 1094.5q0 -79.5 57.5 -136.5t137 -57t137 57t57.5 136.5t-57.5 137.5t-137 58t-137 -58t-57.5 -137.5z" />
<glyph unicode="&#xb1;" horiz-adv-x="1302" d="M99 62v265h1104v-265h-1104zM99 721v265h403v308h296v-308h405v-265h-405v-310h-296v310h-403z" />
<glyph unicode="&#xb2;" horiz-adv-x="806" d="M78 867v171q159 114 267.5 238t108.5 221q0 112 -135 113q-104 0 -220 -82v232q115 74 260 74q152 0 246 -81t94 -223q0 -255 -327 -464h358v-199h-652z" />
<glyph unicode="&#xb3;" horiz-adv-x="779" d="M78 918v207q126 -66 249 -66q62 0 98.5 29t36.5 71q0 91 -188 91h-33v196h31q171 0 171 91t-116 91q-112 0 -215 -77v222q104 60 238 61q157 0 247.5 -74t90.5 -194q0 -86 -47.5 -142.5t-131.5 -74.5q84 -9 139 -66t55 -155q0 -123 -92 -196t-246 -73q-177 0 -287 59z " />
<glyph unicode="&#xb4;" horiz-adv-x="1105" d="M296 1374l191 391h323l-246 -391h-268z" />
<glyph unicode="&#xb5;" horiz-adv-x="1293" d="M133 -399v1520h323v-676q0 -95 55 -146.5t139 -51.5q97 0 142.5 63.5t45.5 217.5v593h323v-1121h-323v133q-76 -142 -230 -142q-80 0 -152 31v-421h-323z" />
<glyph unicode="&#xb6;" horiz-adv-x="1308" d="M22 1099q0 165 121 278t370 113h204v-1817h-246v1028q-215 0 -332 116t-117 282zM920 -327l2 1817h243v-1817h-245z" />
<glyph unicode="&#xb7;" horiz-adv-x="591" d="M99 557q0 82 58 139.5t139.5 57.5t139.5 -57.5t58 -139.5t-58 -139t-139.5 -57t-139.5 57t-58 139z" />
<glyph unicode="&#xb8;" horiz-adv-x="1105" d="M354 -391q80 0 122.5 37.5t42.5 104.5q0 61 -57 137h250q38 -61 38 -164q0 -140 -100.5 -228.5t-295.5 -88.5v202z" />
<glyph unicode="&#xb9;" horiz-adv-x="616" d="M22 1440v217l297 168h188v-958h-228v710z" />
<glyph unicode="&#xba;" horiz-adv-x="977" d="M22 1332q0 221 127 362.5t342 141.5q224 0 344.5 -137t120.5 -350q0 -217 -122.5 -356t-342.5 -139q-225 0 -347 134.5t-122 343.5zM308 1342q0 -122 46.5 -199t139.5 -77q90 0 133.5 75t43.5 197q0 283 -184 283q-91 0 -135 -77t-44 -202z" />
<glyph unicode="&#xbb;" horiz-adv-x="1306" d="M91 201l323 358l-323 359h336l337 -359l-337 -358h-336zM578 201l323 358l-323 359h336l336 -359l-336 -358h-336z" />
<glyph unicode="&#xbc;" horiz-adv-x="1832" d="M22 1188v216l297 168h188v-957h-228v710zM272 0l948 1572h240l-947 -1572h-241zM1047 190v188l293 573h361v-573h114v-188h-114v-190h-226v190h-428zM1279 378h196v403z" />
<glyph unicode="&#xbd;" horiz-adv-x="1841" d="M22 1188v216l297 168h188v-957h-228v710zM272 0l948 1572h240l-947 -1572h-241zM1155 0v171q158 114 266.5 238.5t108.5 221.5q0 112 -135 112q-103 0 -218 -82v232q115 74 258 74q153 0 247.5 -81t94.5 -223q0 -255 -329 -464h359v-199h-652z" />
<glyph unicode="&#xbe;" horiz-adv-x="1986" d="M51 663v209q126 -66 250 -67q62 0 98 29t36 71q0 91 -188 91h-32v196h30q171 0 171 91t-115 91q-113 0 -215 -78v224q102 59 237 59q157 0 247.5 -74t90.5 -194q0 -86 -47.5 -142.5t-131.5 -73.5q84 -9 139.5 -66.5t55.5 -154.5q0 -122 -91.5 -196t-247.5 -74 q-177 0 -287 59zM389 0l949 1572h239l-946 -1572h-242zM1163 190v188l295 573h360v-573h115v-188h-115v-190h-225v190h-430zM1395 378h198v403z" />
<glyph unicode="&#xbf;" horiz-adv-x="1011" d="M144 25q0 99 40 179.5t99 126t117 69.5t104 24l7 182h294l7 -334q-340 0 -341 -208q0 -80 47.5 -127t140.5 -47q145 0 288 95v-304q-133 -61 -339 -61q-208 0 -336 109t-128 296zM460 944.5q0 83.5 59 142.5t142.5 59t142.5 -59t59 -142.5t-59 -142.5t-142.5 -59 t-142.5 59t-59 142.5z" />
<glyph unicode="&#xc0;" horiz-adv-x="1526" d="M51 0l498 1490h428l498 -1490h-365l-90 306h-522l-91 -306h-356zM384 1986h323l190 -391h-266zM580 580h357l-15 53q-63 217 -104 369.5t-50 196.5l-10 44q-17 -122 -163 -610z" />
<glyph unicode="&#xc1;" horiz-adv-x="1526" d="M51 0l498 1490h428l498 -1490h-365l-90 306h-522l-91 -306h-356zM580 580h357l-15 53q-63 217 -104 369.5t-50 196.5l-10 44q-17 -122 -163 -610zM652 1595l190 391h323l-245 -391h-268z" />
<glyph unicode="&#xc2;" horiz-adv-x="1526" d="M51 0l498 1490h428l498 -1490h-365l-90 306h-522l-91 -306h-356zM283 1595l346 391h274l344 -391h-307l-174 212l-175 -212h-308zM580 580h357l-15 53q-63 217 -104 369.5t-50 196.5l-10 44q-17 -122 -163 -610z" />
<glyph unicode="&#xc3;" horiz-adv-x="1526" d="M51 0l498 1490h428l498 -1490h-365l-90 306h-522l-91 -306h-356zM329 1763q36 75 105.5 128t151.5 53q80 0 169.5 -38.5t131.5 -38.5q109 0 155 95l163 -135q-95 -188 -300 -188q-73 0 -152.5 38.5t-113.5 38.5q-55 0 -86 -19t-80 -76zM580 580h357l-15 53 q-63 217 -104 369.5t-50 196.5l-10 44q-17 -122 -163 -610z" />
<glyph unicode="&#xc4;" horiz-adv-x="1526" d="M51 0l498 1490h428l498 -1490h-365l-90 306h-522l-91 -306h-356zM298 1792q0 75 52.5 127t131.5 52q77 0 129 -52t52 -127q0 -78 -52 -130t-129 -52q-80 0 -132 52t-52 130zM580 580h357l-15 53q-63 217 -104 369.5t-50 196.5l-10 44q-17 -122 -163 -610zM891 1792 q0 75 52.5 127t131.5 52q77 0 130 -52t53 -127q0 -78 -53 -130t-130 -52q-80 0 -132 52t-52 130z" />
<glyph unicode="&#xc5;" horiz-adv-x="1526" d="M51 0l498 1490h428l498 -1490h-365l-90 306h-522l-91 -306h-356zM471 1871q0 124 88.5 212.5t212 88.5t212 -88.5t88.5 -212.5t-88.5 -212.5t-212 -88.5t-212 88.5t-88.5 212.5zM580 580h357l-15 53q-63 217 -104 369.5t-50 196.5l-10 44q-17 -122 -163 -610zM654 1878 q0 -51 33.5 -87.5t84.5 -36.5t84 36.5t33 87.5t-33 87t-84 36t-84.5 -36t-33.5 -87z" />
<glyph unicode="&#xc6;" horiz-adv-x="2079" d="M17 0l720 1490h1201v-272h-575v-338h513v-270h-513v-338h583v-272h-914v306h-506l-152 -306h-357zM665 580h367v778q-90 -235 -340 -725z" />
<glyph unicode="&#xc7;" horiz-adv-x="1355" d="M89 741q0 340 213 555t557 215q251 0 386 -84v-328q-166 102 -369 102q-179 0 -300.5 -125t-121.5 -335q0 -205 121.5 -326t313.5 -121q208 0 356 107v-335q-135 -84 -389 -83q-327 0 -547 211t-220 547zM595 -391q80 0 123 37.5t43 104.5q-1 61 -58 137h251 q37 -60 37 -164q0 -140 -101 -228.5t-295 -88.5v202z" />
<glyph unicode="&#xc8;" horiz-adv-x="1203" d="M144 0v1490h918v-272h-575v-338h513v-270h-513v-338h583v-272h-926zM252 1986h323l191 -391h-268z" />
<glyph unicode="&#xc9;" horiz-adv-x="1203" d="M144 0v1490h918v-272h-575v-338h513v-270h-513v-338h583v-272h-926zM491 1595l190 391h323l-246 -391h-267z" />
<glyph unicode="&#xca;" horiz-adv-x="1203" d="M120 1595l344 391h275l345 -391h-307l-175 212l-175 -212h-307zM144 0v1490h918v-272h-575v-338h513v-270h-513v-338h583v-272h-926z" />
<glyph unicode="&#xcb;" horiz-adv-x="1203" d="M122 1790q0 75 52 127t132 52q77 0 129 -52.5t52 -126.5q0 -78 -52 -130t-129 -52q-80 0 -132 52t-52 130zM144 0v1490h918v-272h-575v-338h513v-270h-513v-338h583v-272h-926zM715 1790q0 75 52 127t130 52t131 -52.5t53 -126.5q0 -78 -53 -130t-131 -52 q-79 0 -130.5 52t-51.5 130z" />
<glyph unicode="&#xcc;" horiz-adv-x="671" d="M-53 1986h323l190 -391h-268zM166 0v1490h341v-1490h-341z" />
<glyph unicode="&#xcd;" horiz-adv-x="671" d="M166 0v1490h341v-1490h-341zM208 1595l191 391h322l-246 -391h-267z" />
<glyph unicode="&#xce;" horiz-adv-x="671" d="M-141 1595l344 391h274l346 -391h-308l-175 212l-174 -212h-307zM166 0v1490h341v-1490h-341z" />
<glyph unicode="&#xcf;" horiz-adv-x="671" d="M-131 1792q0 75 52 127t132 52q78 0 129.5 -52t51.5 -127q0 -78 -51.5 -130t-129.5 -52q-80 0 -132 52t-52 130zM166 0v1490h341v-1490h-341zM462 1792q0 75 52 127t132 52q78 0 130.5 -52t52.5 -127q0 -78 -52.5 -130t-130.5 -52q-80 0 -132 52t-52 130z" />
<glyph unicode="&#xd0;" horiz-adv-x="1655" d="M144 595v274h145v621h513q336 0 551 -206.5t215 -513.5q0 -359 -211 -564.5t-559 -205.5h-509v595h-145zM639 279h155q205 0 317.5 128.5t112.5 362.5q0 199 -113 319.5t-319 120.5h-153v-341h305v-274h-305v-316z" />
<glyph unicode="&#xd1;" horiz-adv-x="1541" d="M144 0v1490h373l348 -616q74 -131 128 -245t69 -160l17 -49q-22 164 -22 454v616h341v-1490h-374l-357 617q-71 120 -124.5 236t-73.5 171l-18 55q34 -199 34 -462v-617h-341zM345 1763q35 75 104.5 128t152.5 53q79 0 169 -38.5t132 -38.5q106 0 154 95l163 -135 q-92 -188 -300 -188q-73 0 -152.5 38.5t-113.5 38.5q-55 0 -85.5 -19t-79.5 -76z" />
<glyph unicode="&#xd2;" horiz-adv-x="1627" d="M89 750q0 342 198 553.5t527 211.5q332 0 528.5 -210t196.5 -555q0 -343 -197.5 -554t-527.5 -211q-331 0 -528 210t-197 555zM454 750q0 -210 97 -333t263 -123t263 123t97 333t-97 332.5t-263 122.5t-263 -122.5t-97 -332.5zM456 1986h323l190 -391h-268z" />
<glyph unicode="&#xd3;" horiz-adv-x="1627" d="M89 750q0 342 198 553.5t527 211.5q332 0 528.5 -210t196.5 -555q0 -343 -197.5 -554t-527.5 -211q-331 0 -528 210t-197 555zM454 750q0 -210 97 -333t263 -123t263 123t97 333t-97 332.5t-263 122.5t-263 -122.5t-97 -332.5zM688 1595l190 391h323l-245 -391h-268z" />
<glyph unicode="&#xd4;" horiz-adv-x="1627" d="M89 750q0 342 198 553.5t527 211.5q332 0 528.5 -210t196.5 -555q0 -343 -197.5 -554t-527.5 -211q-331 0 -528 210t-197 555zM340 1595l346 391h274l345 -391h-307l-175 212l-175 -212h-308zM454 750q0 -210 97 -333t263 -123t263 123t97 333t-97 332.5t-263 122.5 t-263 -122.5t-97 -332.5z" />
<glyph unicode="&#xd5;" horiz-adv-x="1627" d="M89 750q0 342 198 553.5t527 211.5q332 0 528.5 -210t196.5 -555q0 -343 -197.5 -554t-527.5 -211q-331 0 -528 210t-197 555zM376 1760q35 76 105 129t152 53q80 0 169 -39t131 -39q107 1 156 96l163 -135q-93 -188 -301 -188q-73 0 -152.5 38.5t-112.5 38.5 q-55 0 -86.5 -19t-80.5 -76zM454 750q0 -210 97 -333t263 -123t263 123t97 333t-97 332.5t-263 122.5t-263 -122.5t-97 -332.5z" />
<glyph unicode="&#xd6;" horiz-adv-x="1627" d="M89 750q0 342 198 553.5t527 211.5q332 0 528.5 -210t196.5 -555q0 -343 -197.5 -554t-527.5 -211q-331 0 -528 210t-197 555zM354 1792q0 75 52 127t132 52q78 0 129.5 -52t51.5 -127q0 -78 -52 -130t-129 -52q-80 0 -132 52t-52 130zM454 750q0 -210 97 -333t263 -123 t263 123t97 333t-97 332.5t-263 122.5t-263 -122.5t-97 -332.5zM947 1792q0 75 52 127t132 52q78 0 130.5 -52t52.5 -127q0 -78 -53.5 -130t-129.5 -52q-80 0 -132 52t-52 130z" />
<glyph unicode="&#xd7;" horiz-adv-x="1171" d="M93 1038l203 203l286 -283l281 281l209 -209l-283 -283l288 -285l-203 -203l-288 285l-280 -280l-211 207l283 283z" />
<glyph unicode="&#xd8;" horiz-adv-x="1578" d="M84 750q0 342 198 553.5t528 211.5q197 0 351 -78l55 76h321l-174 -236q173 -203 172 -527q0 -343 -198 -554t-527 -211q-190 0 -346 74l-55 -74h-323l173 234q-175 205 -175 531zM433 750q0 -142 40 -241l502 679q-78 36 -165 36q-173 0 -275 -128.5t-102 -345.5z M650 310q71 -34 160 -34q173 0 274.5 129t101.5 345q0 135 -38 234z" />
<glyph unicode="&#xd9;" horiz-adv-x="1477" d="M133 562v928h340v-926q0 -277 265.5 -277t265.5 288v915h341v-912q0 -292 -164 -446t-442 -154q-275 0 -440.5 152.5t-165.5 431.5zM376 1986h323l190 -391h-268z" />
<glyph unicode="&#xda;" horiz-adv-x="1477" d="M133 562v928h340v-926q0 -277 265.5 -277t265.5 288v915h341v-912q0 -292 -164 -446t-442 -154q-275 0 -440.5 152.5t-165.5 431.5zM635 1595l190 391h323l-245 -391h-268z" />
<glyph unicode="&#xdb;" horiz-adv-x="1477" d="M133 562v928h340v-926q0 -277 265.5 -277t265.5 288v915h341v-912q0 -292 -164 -446t-442 -154q-275 0 -440.5 152.5t-165.5 431.5zM252 1595l345 391h275l344 -391h-307l-175 212l-175 -212h-307z" />
<glyph unicode="&#xdc;" horiz-adv-x="1477" d="M133 562v928h340v-926q0 -277 265.5 -277t265.5 288v915h341v-912q0 -292 -164 -446t-442 -154q-275 0 -440.5 152.5t-165.5 431.5zM270 1790q0 75 52 127t132 52q77 0 129 -52.5t52 -126.5q0 -78 -52 -130t-129 -52q-80 0 -132 52t-52 130zM863 1790q0 75 52 127t132 52 q77 0 130 -52.5t53 -126.5q0 -78 -53.5 -130t-129.5 -52q-80 0 -132 52t-52 130z" />
<glyph unicode="&#xdd;" horiz-adv-x="1421" d="M29 1490h398l90 -216q72 -168 118 -287.5t59 -154.5l11 -36q22 99 196 478l97 216h395l-515 -941v-549h-340v546zM608 1595l190 391h323l-245 -391h-268z" />
<glyph unicode="&#xde;" horiz-adv-x="1245" d="M144 0v1490h341v-243h172q249 0 402 -138t153 -353q0 -245 -160.5 -379t-394.5 -134h-172v-243h-341zM485 513h146q117 0 176.5 64.5t59.5 165.5q0 95 -55.5 163.5t-180.5 68.5h-146v-462z" />
<glyph unicode="&#xdf;" horiz-adv-x="1321" d="M133 0v1020q0 240 128 373t365 133q217 0 350.5 -112t133.5 -266q0 -84 -30.5 -150.5t-61 -111t-30.5 -76.5q0 -25 45.5 -62.5t100 -77t100 -125t45.5 -193.5q0 -168 -110 -269.5t-291 -101.5q-179 0 -259 52v273q112 -74 223 -74q60 0 97.5 31t37.5 85q0 44 -32.5 83.5 t-79 73t-94 68.5t-81 87t-33.5 117q0 84 63 186.5t63 155.5q0 126 -137 126q-199 0 -199 -205v-1040h-314z" />
<glyph unicode="&#xe0;" horiz-adv-x="1140" d="M78 319q0 162 118 251t350 89h142v78q0 141 -188 141q-181 0 -336 -101v289q133 76 382 76q239 0 356.5 -103.5t117.5 -319.5v-719h-317v137q-71 -143 -279 -143q-164 0 -255 92.5t-91 232.5zM208 1617h323l190 -391h-267zM414 334q0 -113 130 -113q68 0 106 42.5 t38 114.5v82h-104q-82 0 -126 -35.5t-44 -90.5z" />
<glyph unicode="&#xe1;" horiz-adv-x="1140" d="M78 319q0 162 118 251t350 89h142v78q0 141 -188 141q-181 0 -336 -101v289q133 76 382 76q239 0 356.5 -103.5t117.5 -319.5v-719h-317v137q-71 -143 -279 -143q-164 0 -255 92.5t-91 232.5zM414 334q0 -113 130 -113q68 0 106 42.5t38 114.5v82h-104q-82 0 -126 -35.5 t-44 -90.5zM429 1226l190 391h323l-245 -391h-268z" />
<glyph unicode="&#xe2;" horiz-adv-x="1140" d="M78 319q0 162 118 251t350 89h142v78q0 141 -188 141q-181 0 -336 -101v289q133 76 382 76q239 0 356.5 -103.5t117.5 -319.5v-719h-317v137q-71 -143 -279 -143q-164 0 -255 92.5t-91 232.5zM84 1226l345 391h274l346 -391h-308l-175 211l-175 -211h-307zM414 334 q0 -113 130 -113q68 0 106 42.5t38 114.5v82h-104q-82 0 -126 -35.5t-44 -90.5z" />
<glyph unicode="&#xe3;" horiz-adv-x="1140" d="M78 319q0 162 118 251t350 89h142v78q0 141 -188 141q-181 0 -336 -101v289q133 76 382 76q239 0 356.5 -103.5t117.5 -319.5v-719h-317v137q-71 -143 -279 -143q-164 0 -255 92.5t-91 232.5zM129 1393q35 76 104.5 129t150.5 53q80 0 170 -39t132 -39q106 1 154 96 l164 -135q-92 -188 -301 -188q-73 0 -152.5 38.5t-112.5 38.5q-55 0 -86 -19t-80 -76zM414 334q0 -113 130 -113q68 0 106 42.5t38 114.5v82h-104q-82 0 -126 -35.5t-44 -90.5z" />
<glyph unicode="&#xe4;" horiz-adv-x="1140" d="M78 319q0 162 118 251t350 89h142v78q0 141 -188 141q-181 0 -336 -101v289q133 76 382 76q239 0 356.5 -103.5t117.5 -319.5v-719h-317v137q-71 -143 -279 -143q-164 0 -255 92.5t-91 232.5zM106 1422q0 76 52.5 128t130.5 52t130 -52.5t52 -127.5q0 -77 -52 -129 t-130 -52q-79 0 -131 52t-52 129zM414 334q0 -113 130 -113q68 0 106 42.5t38 114.5v82h-104q-82 0 -126 -35.5t-44 -90.5zM699 1422q0 76 51.5 128t131.5 52q78 0 131 -52.5t53 -127.5q0 -77 -53 -129t-131 -52q-80 0 -131.5 52t-51.5 129z" />
<glyph unicode="&#xe5;" horiz-adv-x="1140" d="M78 319q0 162 118 251t350 89h142v78q0 141 -188 141q-181 0 -336 -101v289q133 76 382 76q239 0 356.5 -103.5t117.5 -319.5v-719h-317v137q-71 -143 -279 -143q-164 0 -255 92.5t-91 232.5zM274 1501.5q0 123.5 88.5 212.5t212.5 89t212.5 -89t88.5 -212.5t-88.5 -212 t-212.5 -88.5t-212.5 88.5t-88.5 212zM414 334q0 -113 130 -113q68 0 106 42.5t38 114.5v82h-104q-82 0 -126 -35.5t-44 -90.5zM458 1509q0 -51 33 -87.5t84 -36.5t84 36.5t33 87.5t-33 87t-84 36t-84 -36t-33 -87z" />
<glyph unicode="&#xe6;" horiz-adv-x="1786" d="M89 319q0 162 118 251t350 89h142v78q0 141 -188 141q-182 0 -336 -101v289q133 76 361 76q120 0 206.5 -44.5t122.5 -120.5q51 74 144 115t203 41q225 0 356 -132t131 -393q-1 -51 -19 -175h-660q35 -93 116.5 -143.5t197.5 -50.5q170 0 296 95v-270q-118 -76 -336 -75 q-127 0 -246 51t-181 154q-35 -84 -130 -143.5t-255 -59.5q-188 0 -290.5 88.5t-102.5 239.5zM424 334q0 -113 131 -113q68 0 106 42t38 115v82h-104q-82 0 -126.5 -35.5t-44.5 -90.5zM1009 663h389v25q-16 199 -172 199q-76 0 -137 -57.5t-80 -166.5z" />
<glyph unicode="&#xe7;" horiz-adv-x="1036" d="M78 557q4 252 163.5 417t435.5 165q171 0 294 -64v-277q-118 74 -261 74q-135 0 -219 -81t-86 -234q9 -148 88 -230t210 -82q139 0 268 78v-270q-131 -71 -314 -70q-252 0 -415.5 160t-163.5 414zM420 -391q80 0 123 37.5t43 104.5q0 61 -58 137h251q37 -61 37 -164 q0 -140 -100.5 -228.5t-295.5 -88.5v202z" />
<glyph unicode="&#xe8;" horiz-adv-x="1178" d="M78 562q0 267 149 419t368 152q226 0 356 -132t130 -393q0 -51 -17 -175h-659q33 -93 115 -143.5t197 -50.5q170 0 296 95v-270q-114 -76 -352 -75q-277 0 -430 160.5t-153 412.5zM230 1617h323l190 -391h-268zM391 663h390v27q-15 197 -173 197q-78 0 -137.5 -56.5 t-79.5 -167.5z" />
<glyph unicode="&#xe9;" horiz-adv-x="1178" d="M78 562q0 267 149 419t368 152q226 0 356 -132t130 -393q0 -51 -17 -175h-659q33 -93 115 -143.5t197 -50.5q170 0 296 95v-270q-114 -76 -352 -75q-277 0 -430 160.5t-153 412.5zM391 663h390v27q-15 197 -173 197q-78 0 -137.5 -56.5t-79.5 -167.5zM498 1224l190 391 h323l-245 -391h-268z" />
<glyph unicode="&#xea;" horiz-adv-x="1178" d="M78 562q0 267 149 419t368 152q226 0 356 -132t130 -393q0 -51 -17 -175h-659q33 -93 115 -143.5t197 -50.5q170 0 296 95v-270q-114 -76 -352 -75q-277 0 -430 160.5t-153 412.5zM112 1226l346 391h274l345 -391h-307l-175 211l-175 -211h-308zM391 663h390v27 q-15 197 -173 197q-78 0 -137.5 -56.5t-79.5 -167.5z" />
<glyph unicode="&#xeb;" horiz-adv-x="1178" d="M78 562q0 267 149 419t368 152q226 0 356 -132t130 -393q0 -51 -17 -175h-659q33 -93 115 -143.5t197 -50.5q170 0 296 95v-270q-114 -76 -352 -75q-277 0 -430 160.5t-153 412.5zM148 1422q0 76 52 128t132 52q77 0 129 -52.5t52 -127.5q0 -77 -52 -129t-129 -52 q-80 0 -132 52t-52 129zM391 663h390v27q-15 197 -173 197q-78 0 -137.5 -56.5t-79.5 -167.5zM741 1422q0 76 52 128t131 52q78 0 131 -52.5t53 -127.5q0 -77 -53 -129t-131 -52q-79 0 -131 52t-52 129z" />
<glyph unicode="&#xec;" horiz-adv-x="610" d="M-95 1617h323l190 -391h-268zM144 0v1121h323v-1121h-323z" />
<glyph unicode="&#xed;" horiz-adv-x="610" d="M144 0v1121h323v-1121h-323zM188 1226l190 391h323l-245 -391h-268z" />
<glyph unicode="&#xee;" horiz-adv-x="610" d="M-175 1226l346 391h274l344 -391h-307l-174 211l-175 -211h-308zM144 0v1121h323v-1121h-323z" />
<glyph unicode="&#xef;" horiz-adv-x="610" d="M-173 1422q0 76 52.5 128t131.5 52q78 0 129.5 -52.5t51.5 -127.5q0 -77 -51.5 -129t-129.5 -52q-80 0 -132 52t-52 129zM144 0v1121h323v-1121h-323zM420 1422q0 76 52 128t132 52q77 0 130 -52.5t53 -127.5q0 -77 -53 -129t-130 -52q-80 0 -132 52t-52 129z" />
<glyph unicode="&#xf0;" horiz-adv-x="1231" d="M78 451q0 197 118 317.5t304 120.5q181 0 300 -112q-29 190 -137 356l-315 -156v180l214 103q-111 120 -279 230h407q62 -44 126 -103l250 122v-180l-144 -71q100 -139 153 -304t53 -315q0 -298 -137 -479.5t-398 -181.5q-241 0 -378 137t-137 336zM407 429 q0 -74 50 -118.5t134 -44.5t139 55t72 198q-92 98 -213 98q-87 0 -134.5 -50t-47.5 -138z" />
<glyph unicode="&#xf1;" d="M133 0v1121h323v-190q42 93 129.5 147.5t208.5 54.5q173 0 270 -103t97 -302v-728h-323v667q0 100 -46.5 152.5t-130.5 52.5q-89 0 -147 -70t-58 -209v-593h-323zM208 1393q36 76 105 129t151 53q80 0 170 -39t132 -39q106 1 154 96l164 -135q-93 -188 -301 -188 q-73 0 -152.5 38.5t-113.5 38.5q-55 0 -85.5 -19t-79.5 -76z" />
<glyph unicode="&#xf2;" horiz-adv-x="1253" d="M78 546q0 260 150 426.5t401 166.5q261 0 404.5 -161.5t143.5 -411.5q0 -255 -144.5 -419t-403.5 -164q-264 0 -407.5 157.5t-143.5 405.5zM270 1615h323l190 -391h-268zM414 559.5q0 -143.5 54 -235.5t163 -92q106 0 157.5 89.5t51.5 233.5q1 330 -214 330 q-105 0 -158.5 -91t-53.5 -234.5z" />
<glyph unicode="&#xf3;" horiz-adv-x="1253" d="M78 546q0 260 150 426.5t401 166.5q261 0 404.5 -161.5t143.5 -411.5q0 -255 -144.5 -419t-403.5 -164q-264 0 -407.5 157.5t-143.5 405.5zM414 559.5q0 -143.5 54 -235.5t163 -92q106 0 157.5 89.5t51.5 233.5q1 330 -214 330q-105 0 -158.5 -91t-53.5 -234.5zM519 1224 l191 391h322l-245 -391h-268z" />
<glyph unicode="&#xf4;" horiz-adv-x="1253" d="M78 546q0 260 150 426.5t401 166.5q261 0 404.5 -161.5t143.5 -411.5q0 -255 -144.5 -419t-403.5 -164q-264 0 -407.5 157.5t-143.5 405.5zM152 1224l346 391h274l345 -391h-307l-175 211l-175 -211h-308zM414 559.5q0 -143.5 54 -235.5t163 -92q106 0 157.5 89.5 t51.5 233.5q1 330 -214 330q-105 0 -158.5 -91t-53.5 -234.5z" />
<glyph unicode="&#xf5;" horiz-adv-x="1253" d="M78 546q0 260 150 426.5t401 166.5q261 0 404.5 -161.5t143.5 -411.5q0 -255 -144.5 -419t-403.5 -164q-264 0 -407.5 157.5t-143.5 405.5zM197 1393q35 76 105 129t152 53q80 0 169 -39t131 -39q109 1 155 96l163 -135q-95 -188 -300 -188q-73 0 -152.5 38.5 t-112.5 38.5q-56 0 -87 -19t-80 -76zM414 559.5q0 -143.5 54 -235.5t163 -92q106 0 157.5 89.5t51.5 233.5q1 330 -214 330q-105 0 -158.5 -91t-53.5 -234.5z" />
<glyph unicode="&#xf6;" horiz-adv-x="1253" d="M78 546q0 260 150 426.5t401 166.5q261 0 404.5 -161.5t143.5 -411.5q0 -255 -144.5 -419t-403.5 -164q-264 0 -407.5 157.5t-143.5 405.5zM173 1425q0 75 51.5 127t131.5 52q78 0 130 -52t52 -127q0 -78 -52.5 -130t-129.5 -52q-80 0 -131.5 52t-51.5 130zM414 559.5 q0 -143.5 54 -235.5t163 -92q106 0 157.5 89.5t51.5 233.5q1 330 -214 330q-105 0 -158.5 -91t-53.5 -234.5zM766 1425q0 75 51.5 127t131.5 52q78 0 131 -52t53 -127q0 -78 -53.5 -130t-130.5 -52q-80 0 -131.5 52t-51.5 130z" />
<glyph unicode="&#xf7;" horiz-adv-x="1302" d="M99 608v287h1104v-287h-1104zM473 362.5q0 68.5 49.5 118.5t118.5 50t119 -50t50 -118.5t-50 -118.5t-119 -50t-118.5 50t-49.5 118.5zM473 1141q0 69 49.5 118.5t118.5 49.5t119 -49.5t50 -118.5t-50 -118.5t-119 -49.5t-118.5 49.5t-49.5 118.5z" />
<glyph unicode="&#xf8;" horiz-adv-x="1242" d="M78 -17l125 176q-126 152 -125 387q0 260 150 426.5t401 166.5q130 0 245 -46l33 46h270l-128 -179q128 -150 128 -394q0 -255 -145 -419t-403 -164q-140 0 -249 48l-35 -48h-267zM374 559q0 -79 15 -141l345 479q-50 22 -108 23q-124 0 -188 -100.5t-64 -260.5zM519 224 q47 -27 112 -27q126 0 187.5 99.5t61.5 258.5q0 87 -15 150z" />
<glyph unicode="&#xf9;" d="M122 372v749h323v-676q0 -197 172 -198q210 0 210 281v593h323v-1121h-323v179q-88 -188 -340 -188q-173 0 -269 96.5t-96 284.5zM264 1615h322l191 -391h-268z" />
<glyph unicode="&#xfa;" d="M122 372v749h323v-676q0 -197 172 -198q210 0 210 281v593h323v-1121h-323v179q-88 -188 -340 -188q-173 0 -269 96.5t-96 284.5zM526 1224l191 391h323l-246 -391h-268z" />
<glyph unicode="&#xfb;" d="M122 372v749h323v-676q0 -197 172 -198q210 0 210 281v593h323v-1121h-323v179q-88 -188 -340 -188q-173 0 -269 96.5t-96 284.5zM154 1226l346 391h274l345 -391h-307l-175 211l-175 -211h-308z" />
<glyph unicode="&#xfc;" d="M122 372v749h323v-676q0 -197 172 -198q210 0 210 281v593h323v-1121h-323v179q-88 -188 -340 -188q-173 0 -269 96.5t-96 284.5zM154 1422q0 76 52.5 128t131.5 52q78 0 129.5 -52.5t51.5 -127.5q0 -77 -51.5 -129t-129.5 -52q-80 0 -132 52t-52 129zM747 1422 q0 76 52 128t132 52q78 0 131 -52.5t53 -127.5q0 -77 -53 -129t-131 -52q-80 0 -132 52t-52 129z" />
<glyph unicode="&#xfd;" horiz-adv-x="1176" d="M11 1121h352l122 -349q46 -135 76 -232t36 -129l7 -31q25 89 120 392l110 349h331l-404 -1088q-175 -470 -533 -471q-68 0 -124 11v256q35 -8 75 -8q184 0 266 196zM496 1226l190 391h323l-245 -391h-268z" />
<glyph unicode="&#xfe;" horiz-adv-x="1351" d="M133 -414v1978h323v-615q117 186 338 186q217 0 348.5 -154t131.5 -417q0 -250 -127 -413.5t-353 -163.5q-228 0 -338 179v-580h-323zM456 572q0 -143 70.5 -229t180.5 -86q106 0 173 80.5t67 219.5q0 153 -67.5 231.5t-172.5 78.5q-101 0 -176 -77.5t-75 -217.5z" />
<glyph unicode="&#xff;" horiz-adv-x="1176" d="M11 1121h352l122 -349q46 -135 76 -232t36 -129l7 -31q25 89 120 392l110 349h331l-404 -1088q-175 -470 -533 -471q-68 0 -124 11v256q35 -8 75 -8q184 0 266 196zM131 1422q0 76 51.5 128t131.5 52q78 0 130 -52.5t52 -127.5q0 -77 -52.5 -129t-129.5 -52 q-80 0 -131.5 52t-51.5 129zM724 1422q0 76 51.5 128t131.5 52q78 0 131 -52.5t53 -127.5q0 -77 -53.5 -129t-130.5 -52q-80 0 -131.5 52t-51.5 129z" />
<glyph unicode="&#x152;" horiz-adv-x="2211" d="M89 750q0 344 192 554.5t521 210.5q195 0 350 -111v86h918v-272h-597v-338h536v-270h-536v-338h606v-272h-927v97q-154 -112 -350 -112q-329 0 -521 209t-192 556zM454 750q0 -210 92.5 -333t256.5 -123t256.5 123t92.5 333t-92.5 332.5t-256.5 122.5t-256.5 -122.5 t-92.5 -332.5z" />
<glyph unicode="&#x153;" horiz-adv-x="1944" d="M78 546q0 260 150 426.5t401 166.5q238 0 384 -159q152 152 361 153q225 0 355.5 -132t130.5 -393q0 -51 -18 -175h-658q33 -93 114.5 -143.5t196.5 -50.5q170 0 297 95v-270q-115 -76 -352 -75q-260 0 -423 163q-148 -170 -388 -169q-264 0 -407.5 157.5t-143.5 405.5z M414 559.5q0 -143.5 54 -235.5t162.5 -92t167 91t58.5 232q0 144 -57.5 237t-172.5 93q-105 0 -158.5 -91t-53.5 -234.5zM1170 663h390q0 9 -1.5 24.5t-1.5 22.5q-19 177 -170 177q-78 0 -138 -57t-79 -167z" />
<glyph unicode="&#x178;" horiz-adv-x="1421" d="M29 1490h398l90 -216q72 -168 118 -287.5t59 -154.5l11 -36q22 99 196 478l97 216h395l-515 -941v-549h-340v546zM247 1790q0 75 52.5 127t131.5 52q78 0 129.5 -52.5t51.5 -126.5q0 -78 -51.5 -130t-129.5 -52q-80 0 -132 52t-52 130zM840 1790q0 75 52 127t132 52 q78 0 130.5 -52.5t52.5 -126.5q0 -78 -52.5 -130t-130.5 -52q-80 0 -132 52t-52 130z" />
<glyph unicode="&#x2c6;" horiz-adv-x="1105" d="M71 1374l345 391h274l345 -391h-307l-175 211l-175 -211h-307z" />
<glyph unicode="&#x2dc;" horiz-adv-x="1105" d="M114 1497q36 75 105.5 128t152.5 53q79 0 169 -38t132 -38q106 0 154 95l164 -135q-92 -188 -301 -188q-73 0 -152.5 38t-113.5 38q-55 0 -85.5 -18t-79.5 -77z" />
<glyph unicode="&#x2000;" horiz-adv-x="1086" />
<glyph unicode="&#x2001;" horiz-adv-x="2172" />
<glyph unicode="&#x2002;" horiz-adv-x="1086" />
<glyph unicode="&#x2003;" horiz-adv-x="2172" />
<glyph unicode="&#x2004;" horiz-adv-x="724" />
<glyph unicode="&#x2005;" horiz-adv-x="543" />
<glyph unicode="&#x2006;" horiz-adv-x="362" />
<glyph unicode="&#x2007;" horiz-adv-x="362" />
<glyph unicode="&#x2008;" horiz-adv-x="271" />
<glyph unicode="&#x2009;" horiz-adv-x="434" />
<glyph unicode="&#x200a;" horiz-adv-x="120" />
<glyph unicode="&#x2010;" horiz-adv-x="789" d="M99 447v265h591v-265h-591z" />
<glyph unicode="&#x2011;" horiz-adv-x="789" d="M99 447v265h591v-265h-591z" />
<glyph unicode="&#x2012;" horiz-adv-x="789" d="M99 447v265h591v-265h-591z" />
<glyph unicode="&#x2013;" horiz-adv-x="1226" d="M99 475v237h1029v-237h-1029z" />
<glyph unicode="&#x2014;" horiz-adv-x="1848" d="M99 482v237h1651v-237h-1651z" />
<glyph unicode="&#x2018;" horiz-adv-x="589" d="M59 958l302 577h278l-223 -577h-357z" />
<glyph unicode="&#x2019;" horiz-adv-x="589" d="M62 958l223 577h357l-302 -577h-278z" />
<glyph unicode="&#x201a;" horiz-adv-x="589" d="M-15 -281l223 577h356l-300 -577h-279z" />
<glyph unicode="&#x201c;" horiz-adv-x="999" d="M59 958l313 577h267l-230 -577h-350zM513 958l268 577h268l-213 -577h-323z" />
<glyph unicode="&#x201d;" horiz-adv-x="999" d="M62 958l212 577h323l-268 -577h-267zM471 958l230 577h350l-312 -577h-268z" />
<glyph unicode="&#x201e;" horiz-adv-x="999" d="M-4 -281l212 577h323l-267 -577h-268zM405 -281l230 577h349l-311 -577h-268z" />
<glyph unicode="&#x2022;" horiz-adv-x="939" d="M177 787.5q0 126.5 82.5 210t209.5 83.5q124 0 209.5 -84.5t85.5 -209t-84.5 -209t-208.5 -84.5q-126 0 -210 83.5t-84 210z" />
<glyph unicode="&#x2026;" horiz-adv-x="2074" d="M133 179q0 82 57 139.5t139 57.5t139.5 -57.5t57.5 -139.5t-57.5 -139t-139.5 -57t-139 57t-57 139zM840 179q0 82 58 139.5t139.5 57.5t139 -57.5t57.5 -139.5t-57.5 -139t-139 -57t-139.5 57t-58 139zM1549 179q0 82 57 139.5t139 57.5t139.5 -57.5t57.5 -139.5 t-57.5 -139t-139.5 -57t-139 57t-57 139z" />
<glyph unicode="&#x202f;" horiz-adv-x="434" />
<glyph unicode="&#x2039;" horiz-adv-x="819" d="M57 559l337 359h336l-323 -359l323 -358h-336z" />
<glyph unicode="&#x203a;" horiz-adv-x="819" d="M91 201l323 358l-323 359h336l337 -359l-337 -358h-336z" />
<glyph unicode="&#x205f;" horiz-adv-x="543" />
<glyph unicode="&#x20ac;" horiz-adv-x="1374" d="M89 445v199h168q-2 21 -2 63q0 53 2 78h-168v199h203q68 230 243 356.5t396 126.5q217 0 356 -85v-325q-130 106 -303 106q-217 0 -323 -179h394v-199h-456q-4 -53 -4 -80q0 -42 2 -61h458v-199h-396q99 -166 314 -166q182 0 314 108v-328q-141 -77 -345 -76 q-237 0 -408 124.5t-240 337.5h-205z" />
<glyph unicode="&#x2122;" horiz-adv-x="1665" d="M22 1309v181h577v-181h-183v-577h-208v577h-186zM675 732l64 758h219l80 -205q40 -103 65 -180t30 -101l6 -27q20 74 108 308l80 205h220l76 -758h-201l-22 248q-7 71 -7 140.5t5 105.5l2 34q-22 -124 -83 -283l-89 -236h-173l-86 236q-25 64 -44.5 135.5t-27.5 107.5 l-8 40q2 -15 4 -39t7 -102.5t-5 -141.5l-19 -245h-201z" />
<glyph unicode="&#x25fc;" horiz-adv-x="1116" d="M0 0v1117h1117v-1117h-1117z" />
<glyph unicode="&#xfb03;" horiz-adv-x="2144" d="M66 885v236h147v42q0 203 114 316.5t315 113.5q192 0 367 -78q108 78 274 78q217 0 418 -93v-261q-211 95 -365 95q-82 0 -122 -38t-40 -133v-42h644v-1121h-323v885h-321v-885h-320v885h-320v-885h-321v885h-147zM534 1121h320v42q0 78 15 137q-112 34 -175 34 q-82 0 -121 -38t-39 -133v-42z" />
<glyph unicode="&#xfb04;" horiz-adv-x="1952" d="M66 885v236h147v42q0 203 114 316.5t315 113.5q192 0 367 -78q108 78 274 78q243 0 538 -139v-1454h-324v1311q-89 22 -150 23q-89 0 -131 -35.5t-42 -135.5v-42h211v-236h-211v-885h-320v885h-320v-885h-321v885h-147zM534 1121h320v42q0 78 15 137q-112 34 -175 34 q-82 0 -121 -38t-39 -133v-42z" />
</font>
</defs>
</svg>
