<?xml version="1.0" standalone="no"?>
<!DOCTYPE svg PUBLIC "-//W3C//DTD SVG 1.1//EN" "http://www.w3.org/Graphics/SVG/1.1/DTD/svg11.dtd" >
<svg xmlns="http://www.w3.org/2000/svg" xmlns:xlink="http://www.w3.org/1999/xlink" version="1.1">
<metadata></metadata>
<defs>
<font id="poppinssemibold" horiz-adv-x="1360" >
<font-face units-per-em="2048" ascent="1638" descent="-410" />
<missing-glyph horiz-adv-x="477" />
<glyph horiz-adv-x="0" />
<glyph horiz-adv-x="682" />
<glyph horiz-adv-x="0" />
<glyph horiz-adv-x="0" />
<glyph unicode="&#xd;" horiz-adv-x="477" />
<glyph unicode=" "  horiz-adv-x="477" />
<glyph unicode="&#x09;" horiz-adv-x="477" />
<glyph unicode="&#xa0;" horiz-adv-x="477" />
<glyph unicode="!" horiz-adv-x="709" d="M182 151q0 70 49.5 117.5t126.5 47.5q74 0 122 -48t48 -117q0 -71 -48.5 -118t-121.5 -47q-77 0 -126.5 47t-49.5 118zM199 1425h303l-33 -969h-236z" />
<glyph unicode="&#x22;" horiz-adv-x="730" d="M74 1601h242l-25 -425h-191zM414 1601h243l-27 -425h-190z" />
<glyph unicode="#" horiz-adv-x="1779" d="M52 341v251h358l65 310h-301v250h356l70 334h265l-70 -334h365l70 334h267l-70 -334h257v-250h-311l-67 -310h255v-251h-309l-72 -341h-267l73 341h-366l-72 -341h-265l72 341h-303zM674 592h366l65 310h-364z" />
<glyph unicode="$" horiz-adv-x="1312" d="M107 391h301q11 -144 148 -174v383q-144 36 -232.5 72.5t-152.5 116.5t-64 218q0 175 125.5 285.5t323.5 126.5v163h128v-163q193 -16 308 -116.5t130 -276.5h-303q-6 58 -41 101t-94 61v-380q151 -38 238 -72.5t151.5 -114t64.5 -217.5q0 -105 -53 -196t-156.5 -150.5 t-244.5 -69.5v-162h-128v164q-201 18 -323 121.5t-126 279.5zM400 1021q0 -65 39.5 -106.5t116.5 -67.5v348q-73 -10 -114.5 -54.5t-41.5 -119.5zM684 213q76 13 119.5 61.5t43.5 116.5q0 67 -42.5 107t-120.5 66v-351z" />
<glyph unicode="%" horiz-adv-x="1663" d="M74 1103q0 153 89.5 239.5t229.5 86.5t229.5 -86.5t89.5 -239.5q0 -154 -89 -240t-230 -86q-140 0 -229.5 86.5t-89.5 239.5zM281 1103q0 -158 110 -157q54 0 84.5 38.5t30.5 118.5q0 157 -115 157q-110 0 -110 -157zM301 0l787 1405h275l-789 -1405h-273zM956 303 q0 155 89 240t229 85t228 -85t88 -240t-87.5 -241t-228.5 -86q-142 0 -230 86.5t-88 240.5zM1158 303q0 -159 114 -159q113 0 113 159q0 157 -113 157q-114 0 -114 -157z" />
<glyph unicode="&#x26;" horiz-adv-x="1561" d="M71 406q0 138 77.5 248t230.5 179q-54 67 -78 127.5t-24 131.5q0 96 50 173.5t143.5 121.5t217.5 44q126 0 217 -48t135 -128.5t38 -178.5h-273q2 67 -32 101.5t-93 34.5q-56 0 -93 -33t-37 -85q0 -50 30.5 -99t97.5 -122l354 -349q4 4 6 8l4 8l114 190h293l-141 -246 q-40 -78 -86 -149l339 -335h-345l-153 151q-195 -175 -475 -175q-155 0 -272 53t-181 150.5t-64 226.5zM347 421q0 -90 68.5 -151t180.5 -61q164 0 291 116l-345 341q-195 -86 -195 -245z" />
<glyph unicode="'" horiz-adv-x="391" d="M74 1601h242l-25 -425h-191z" />
<glyph unicode="(" horiz-adv-x="973" d="M215 714q0 343 112.5 645.5t327.5 494.5h282v-25q-221 -211 -336 -506t-115 -609q0 -304 109.5 -588.5t311.5 -493.5v-27h-283q-195 188 -302 481t-107 628z" />
<glyph unicode=")" horiz-adv-x="973" d="M36 1829v25h283q215 -193 327.5 -495t112.5 -645q0 -335 -107.5 -628t-302.5 -481h-282v27q203 209 312 493.5t109 588.5q0 313 -115.5 608.5t-336.5 506.5z" />
<glyph unicode="*" horiz-adv-x="1038" d="M136 1009l262 94l-260 92l103 184l223 -177l-47 279h211l-48 -279l221 175l101 -180l-262 -95l262 -95l-105 -186l-217 179l46 -278h-209l45 278l-215 -183z" />
<glyph unicode="+" horiz-adv-x="1352" d="M165 592v245h379v389h264v-389h380v-245h-380v-389h-264v389h-379z" />
<glyph unicode="," horiz-adv-x="509" d="M30 -269l131 564h285l-235 -564h-181z" />
<glyph unicode="-" horiz-adv-x="1169" d="M142 598v237h852v-237h-852z" />
<glyph unicode="." horiz-adv-x="521" d="M88 151q0 70 49 117.5t126 47.5q74 0 122 -48t48 -117q0 -71 -48 -118t-122 -47q-77 0 -126 47t-49 118z" />
<glyph unicode="/" horiz-adv-x="975" d="M74 -364l542 2264h275l-542 -2264h-275z" />
<glyph unicode="0" horiz-adv-x="1296" d="M107 751q0 347 125.5 544t416.5 197t416 -197t125 -544q0 -349 -125.5 -548t-415.5 -199q-291 0 -416.5 199t-125.5 548zM383 751q0 -153 18 -256.5t76.5 -166.5t171.5 -63q112 0 170 63t76 166.5t18 256.5q0 149 -19 250t-76.5 165t-168.5 64q-113 0 -170.5 -64 t-76.5 -165t-19 -250z" />
<glyph unicode="1" horiz-adv-x="726" d="M73 1204v259h483v-1463h-289v1204h-194z" />
<glyph unicode="2" horiz-adv-x="1151" d="M88 1005q8 242 144 366t344 124q229 0 351.5 -121.5t122.5 -319.5q0 -157 -84.5 -299.5t-193 -247.5t-282.5 -254h592v-233h-992v208l105 90q193 160 307 267.5t190 223.5t76 229q0 102 -48 160t-148 58t-154 -67t-56 -184h-274z" />
<glyph unicode="3" horiz-adv-x="1201" d="M90 442h274q4 -98 67 -158t173 -60q102 0 157.5 57.5t55.5 147.5q0 121 -76.5 173.5t-236.5 52.5h-58v230h58q285 0 285 191q0 86 -51.5 134t-147.5 48q-94 0 -145.5 -51t-59.5 -129h-274q10 201 141 310t346 109q147 0 251.5 -51t157 -138.5t52.5 -197.5 q0 -126 -65 -214t-155 -117v-9q117 -36 182 -128t65 -236q0 -121 -55.5 -215.5t-163 -147.5t-256.5 -53q-227 0 -370 114.5t-151 337.5z" />
<glyph unicode="4" horiz-adv-x="1325" d="M94 285v221l657 940h327v-916h176v-245h-176v-285h-281v285h-703zM404 530h410v614z" />
<glyph unicode="5" horiz-adv-x="1291" d="M159 414h272q18 -81 81.5 -129t161.5 -48q119 0 179 74t60 197q0 124 -61 189t-180 65q-84 0 -140.5 -42t-79.5 -111h-270v858h908v-247h-650v-343q42 52 120 85.5t166 33.5q161 0 263.5 -70.5t148.5 -180t46 -233.5q0 -232 -131.5 -372t-374.5 -140q-228 0 -365 114 t-154 300z" />
<glyph unicode="6" horiz-adv-x="1283" d="M138 755q0 367 126.5 554.5t399.5 187.5q211 0 327 -114.5t135 -284.5h-261q-20 84 -69 126t-141 42q-139 0 -204.5 -111t-67.5 -362q48 80 140.5 125t200.5 45q131 0 231 -56t156.5 -163.5t56.5 -257.5q0 -142 -57 -253.5t-167.5 -174t-263.5 -62.5q-209 0 -328 92 t-166.5 258t-47.5 409zM410 490q0 -119 67 -187t189 -68q109 0 172.5 66.5t63.5 177.5q0 117 -61.5 185.5t-179.5 68.5q-107 0 -179 -62t-72 -181z" />
<glyph unicode="7" horiz-adv-x="1099" d="M71 1218v241h967v-209l-534 -1250h-285l538 1218h-686z" />
<glyph unicode="8" horiz-adv-x="1289" d="M117 416q0 126 62 219t172 140q-200 104 -200 323q0 108 55 197.5t166.5 143t271.5 53.5q161 0 272.5 -53.5t166.5 -143t55 -197.5q0 -111 -54 -194t-145 -129q111 -48 173 -140.5t62 -218.5q0 -137 -69 -238.5t-189.5 -155.5t-271.5 -54t-270 54t-188 155.5t-69 238.5z M387 427q0 -100 69.5 -163t187.5 -63t187 64t69 162q0 107 -70.5 166.5t-185.5 59.5q-114 0 -185.5 -58.5t-71.5 -167.5zM425 1055q0 -90 61.5 -144t157.5 -54t158.5 55t62.5 145q0 99 -59 153t-162 54q-100 0 -159.5 -54t-59.5 -155z" />
<glyph unicode="9" horiz-adv-x="1256" d="M130 1011q0 223 132.5 354.5t361.5 131.5q285 0 402.5 -182.5t117.5 -550.5q0 -260 -45 -426.5t-154.5 -253t-298.5 -86.5q-149 0 -253 57.5t-159.5 150.5t-62.5 206h260q17 -89 74 -136.5t154 -47.5q124 0 180 103.5t56 348.5q-46 -65 -129.5 -100.5t-179.5 -35.5 q-128 0 -231.5 53.5t-164 158.5t-60.5 255zM400 1013q0 -107 60.5 -174t183.5 -67q105 0 165 65t60 172q0 119 -63 184t-172 65t-171.5 -67t-62.5 -178z" />
<glyph unicode=":" horiz-adv-x="527" d="M88 151q0 70 49 117.5t126 47.5q74 0 122 -48t48 -117q0 -71 -48 -118t-122 -47q-77 0 -126 47t-49 118zM88 982q0 70 49 117.5t126 47.5q74 0 122 -48t48 -117q0 -71 -48 -118t-122 -47q-77 0 -126 47t-49 118z" />
<glyph unicode=";" horiz-adv-x="649" d="M82 -269l131 564h285l-235 -564h-181zM138 974q0 70 49 117.5t126 47.5q74 0 122 -48t48 -117q0 -71 -48 -118t-122 -47q-77 0 -126 47t-49 118z" />
<glyph unicode="&#x3c;" horiz-adv-x="1172" d="M159 714l437 450h354l-438 -450l438 -449h-354z" />
<glyph unicode="=" horiz-adv-x="1480" d="M193 351v245h1094v-245h-1094zM193 833v245h1094v-245h-1094z" />
<glyph unicode="&#x3e;" horiz-adv-x="1137" d="M178 265l440 449l-440 450h356l437 -450l-437 -449h-356z" />
<glyph unicode="?" horiz-adv-x="1078" d="M71 1026q-2 123 51.5 219t159 150t248.5 54q209 0 336.5 -113.5t127.5 -312.5q0 -197 -126.5 -300t-335.5 -103l-8 -154h-247l-10 341h91q174 0 268 46.5t94 167.5q0 88 -51 140.5t-139 52.5q-92 0 -143.5 -50t-51.5 -138h-264zM224 151q0 70 49.5 117.5t126.5 47.5 q74 0 122 -48t48 -117q0 -71 -48.5 -118t-121.5 -47q-77 0 -126.5 47t-49.5 118z" />
<glyph unicode="@" horiz-adv-x="2108" d="M142 263q0 295 137.5 536t382 379t546.5 138q233 0 404 -86t262 -242.5t91 -361.5q0 -164 -57.5 -310.5t-165.5 -237t-256 -90.5q-104 0 -169 43t-82 124q-58 -79 -150.5 -124t-195.5 -45q-153 0 -239 91.5t-86 249.5q0 151 62 281.5t172.5 209.5t249.5 79 q172 0 237 -120l17 104h236l-94 -542q-6 -38 -7 -70q0 -49 20 -73t68 -24q72 0 121.5 68.5t74.5 171t25 204.5q0 243 -148.5 376.5t-419.5 133.5q-231 0 -417.5 -111t-291.5 -303.5t-105 -426.5q0 -249 147.5 -383.5t417.5 -134.5q195 0 343 70l40 -184q-191 -80 -423 -80 q-225 0 -393.5 85t-261 241.5t-92.5 363.5zM817 373q0 -82 40 -130t120 -48q73 0 133 42t95.5 112t35.5 151q0 84 -46.5 136t-129.5 52q-74 0 -130 -45t-87 -117t-31 -153z" />
<glyph unicode="A" horiz-adv-x="1436" d="M52 0l504 1403h327l504 -1403h-297l-92 267h-558l-93 -267h-295zM515 492h406l-203 586z" />
<glyph unicode="B" horiz-adv-x="1289" d="M138 0v1401h578q142 0 245.5 -46.5t157 -128.5t53.5 -186q0 -123 -65 -205t-174 -117q119 -21 195 -117.5t76 -221.5q0 -112 -55 -197.5t-159.5 -133.5t-246.5 -48h-605zM419 228h284q102 0 159 48.5t57 137.5q0 90 -60 141t-162 51h-278v-378zM419 823h257 q100 0 154.5 45t54.5 130q0 84 -54 130t-155 46h-257v-351z" />
<glyph unicode="C" horiz-adv-x="1540" d="M71 703q0 206 93 370t254.5 255t362.5 91q235 0 411.5 -120.5t246.5 -333.5h-323q-48 100 -135.5 150.5t-201.5 50.5q-122 0 -217.5 -57t-148.5 -161.5t-53 -244.5q0 -139 53 -244.5t148.5 -162.5t217.5 -57q115 0 202 51t135 152h323q-71 -215 -246.5 -334.5 t-411.5 -119.5q-201 0 -362.5 91.5t-254.5 254t-93 369.5z" />
<glyph unicode="D" horiz-adv-x="1438" d="M138 0v1401h490q221 0 388.5 -86.5t259 -246t91.5 -369.5q0 -211 -91.5 -369t-259 -244t-388.5 -86h-490zM419 239h199q221 0 341.5 120t120.5 340q0 218 -120.5 341.5t-341.5 123.5h-199v-925z" />
<glyph unicode="E" horiz-adv-x="1067" d="M138 0v1403h814v-229h-533v-351h472v-223h-472v-372h533v-228h-814z" />
<glyph unicode="F" horiz-adv-x="1063" d="M138 0v1401h866v-227h-585v-360h448v-222h-448v-592h-281z" />
<glyph unicode="G" horiz-adv-x="1540" d="M71 703q0 206 93 370t256.5 255t364.5 91q237 0 411.5 -115.5t240.5 -324.5h-323q-48 88 -132.5 134.5t-196.5 46.5q-124 0 -221 -56t-150.5 -160.5t-53.5 -240.5q0 -140 54.5 -245t153 -161t229.5 -56q160 0 262.5 85.5t135.5 237.5h-483v215h759v-245 q-28 -147 -120.5 -271.5t-238 -199.5t-325.5 -75q-203 0 -366.5 91.5t-256.5 254t-93 369.5z" />
<glyph unicode="H" horiz-adv-x="1438" d="M138 0v1401h281v-576h600v576h281v-1401h-281v596h-600v-596h-281z" />
<glyph unicode="I" horiz-adv-x="557" d="M138 0v1401h281v-1401h-281z" />
<glyph unicode="J" horiz-adv-x="1143" d="M73 427h280q2 -90 43 -140t119 -50q77 0 117 48t40 132v984h284v-984q0 -204 -119 -317.5t-318 -113.5q-201 0 -323.5 116.5t-122.5 324.5z" />
<glyph unicode="K" horiz-adv-x="1329" d="M138 0v1401h281v-629l510 629h339l-577 -694l594 -707h-356l-510 624v-624h-281z" />
<glyph unicode="L" horiz-adv-x="921" d="M138 0v1401h281v-1179h462v-222h-743z" />
<glyph unicode="M" horiz-adv-x="1804" d="M138 0v1401h320l446 -1041l444 1041h318v-1401h-281v911l-376 -911h-212l-378 911v-911h-281z" />
<glyph unicode="N" horiz-adv-x="1474" d="M138 0v1403h281l636 -963v963h282v-1403h-282l-636 961v-961h-281z" />
<glyph unicode="O" horiz-adv-x="1574" d="M71 705q0 204 96 368t260.5 256t361.5 92q199 0 362 -92t258.5 -256t95.5 -368q0 -207 -95.5 -370.5t-259.5 -256t-361 -92.5t-361.5 92.5t-260.5 256t-96 370.5zM360 705q0 -141 53.5 -247.5t151 -163.5t224.5 -57q126 0 222 57t150.5 163.5t54.5 247.5q0 140 -54.5 245 t-150.5 161.5t-222 56.5q-127 0 -224.5 -56.5t-151 -161.5t-53.5 -245z" />
<glyph unicode="P" horiz-adv-x="1220" d="M138 0v1401h517q162 0 276.5 -56t171.5 -154.5t57 -223.5q0 -112 -53 -210t-166.5 -158.5t-285.5 -60.5h-236v-538h-281zM419 764h223q117 0 173 53.5t56 149.5q0 205 -229 205h-223v-408z" />
<glyph unicode="Q" horiz-adv-x="1578" d="M71 705q0 204 96 368t260.5 256t361.5 92q199 0 362 -92t258.5 -256t95.5 -368q0 -187 -79 -340.5t-216 -249.5l322 -362h-350l-213 255q-84 -22 -172 -22h-8q-197 0 -361.5 92.5t-260.5 256t-96 370.5zM360 705q0 -141 53.5 -247.5t151 -163.5t224.5 -57q126 0 222 57 t150.5 163.5t54.5 247.5q0 140 -54.5 245t-150.5 161.5t-222 56.5q-127 0 -224.5 -56.5t-151 -161.5t-53.5 -245z" />
<glyph unicode="R" horiz-adv-x="1285" d="M138 0v1401h526q163 0 277 -57t171.5 -154.5t57.5 -218.5q0 -138 -80.5 -249t-238.5 -154l335 -568h-325l-309 546h-133v-546h-281zM419 757h236q114 0 170 55t56 153q0 96 -56.5 149.5t-169.5 53.5h-236v-411z" />
<glyph unicode="S" horiz-adv-x="1222" d="M102 404h302q6 -86 60.5 -136.5t151.5 -50.5q98 0 154.5 47t56.5 123q0 62 -38 102.5t-95.5 63.5t-157.5 51q-136 40 -222 79t-146.5 118.5t-60.5 211.5q0 125 62 217.5t174.5 141.5t256.5 49q216 0 352 -105.5t150 -294.5h-309q-4 73 -61.5 120t-151.5 47 q-82 0 -131 -42.5t-49 -122.5q0 -56 36.5 -93t92 -60t155.5 -53q136 -40 223 -80t149 -120.5t62 -210.5q0 -113 -58 -209.5t-170.5 -153.5t-267.5 -57q-147 0 -264 50t-185.5 144.5t-70.5 223.5z" />
<glyph unicode="T" horiz-adv-x="1157" d="M65 1174v227h1027v-227h-374v-1174h-281v1174h-372z" />
<glyph unicode="U" horiz-adv-x="1398" d="M134 536v865h282v-867q0 -142 74 -217.5t209 -75.5q136 0 210.5 75t74.5 218v867h282v-865q0 -178 -77 -301.5t-206.5 -186t-287.5 -62.5q-157 0 -284.5 62.5t-202 186t-74.5 301.5z" />
<glyph unicode="V" horiz-adv-x="1426" d="M28 1401h301l385 -1114l384 1114h298l-513 -1401h-341z" />
<glyph unicode="W" horiz-adv-x="2055" d="M44 1401h301l247 -1088l285 1088h313l269 -1082l249 1082h303l-391 -1401h-331l-263 998l-275 -998l-330 -2z" />
<glyph unicode="X" horiz-adv-x="1375" d="M76 1401h324l303 -470l272 470h318l-440 -704l447 -697h-323l-303 471l-274 -471h-318l442 707z" />
<glyph unicode="Y" horiz-adv-x="1275" d="M23 1401h316l301 -641l299 641h313l-473 -913v-488h-281v488z" />
<glyph unicode="Z" horiz-adv-x="1155" d="M100 0v217l626 947h-626v237h955v-217l-630 -947h630v-237h-955z" />
<glyph unicode="[" horiz-adv-x="996" d="M270 -395v2249h505v-228h-239v-1789h239v-232h-505z" />
<glyph unicode="\" horiz-adv-x="1517" d="M347 1900h273l575 -2264h-276z" />
<glyph unicode="]" horiz-adv-x="994" d="M220 -163h240v1789h-240v228h504v-2249h-504v232z" />
<glyph unicode="^" horiz-adv-x="1364" d="M67 335l481 1070h269l481 -1070h-289l-325 737l-331 -737h-286z" />
<glyph unicode="_" horiz-adv-x="1584" d="M215 -80h1178v-267h-1178v267z" />
<glyph unicode="`" horiz-adv-x="543" d="M20 1401v229l462 -239v-201z" />
<glyph unicode="a" d="M67 560q0 168 67 299t182 201t258 70q125 0 218 -50t150 -126v158h282v-1112h-282v163q-54 -79 -149.5 -130t-220.5 -51q-140 0 -255.5 72t-182.5 203.5t-67 302.5zM353 560q0 -100 41 -175.5t108.5 -116t143.5 -40.5q78 0 146.5 39.5t109 113t40.5 175.5 q0 103 -40.5 176t-109 112t-146.5 39q-79 0 -145 -38t-107 -111t-41 -174z" />
<glyph unicode="b" d="M138 0v1486h281v-536q54 80 149.5 130t218.5 50q142 0 257.5 -70t183 -200t67.5 -300q0 -171 -67.5 -302.5t-183 -203.5t-257.5 -72q-125 0 -218.5 49t-149.5 128v-159h-281zM419 556q0 -100 41.5 -174.5t108.5 -114t143 -39.5q79 0 146 40.5t108 115t41 176.5 q0 101 -41 174t-108 111t-146 38q-76 0 -143 -39t-108.5 -113t-41.5 -175z" />
<glyph unicode="c" horiz-adv-x="1207" d="M67 556q0 172 70 302t194.5 201t284.5 71q207 0 342.5 -103.5t181.5 -289.5h-303q-25 72 -81.5 113t-141.5 41q-120 0 -190.5 -87.5t-70.5 -247.5q0 -159 70.5 -246.5t190.5 -87.5q171 0 223 153h303q-46 -180 -182.5 -286.5t-341.5 -106.5q-160 0 -284.5 71 t-194.5 200.5t-70 302.5z" />
<glyph unicode="d" d="M67 560q0 168 67 299t183 201t259 70q109 0 207 -47t156 -126v529h285v-1486h-285v165q-52 -83 -146 -133t-219 -50q-140 0 -256.5 72t-183.5 203.5t-67 302.5zM353 560q0 -100 41 -175.5t108.5 -116t143.5 -40.5q78 0 146.5 39.5t109 113t40.5 175.5q0 103 -40.5 176 t-109 112t-146.5 39q-79 0 -145 -38t-107 -111t-41 -174z" />
<glyph unicode="e" horiz-adv-x="1237" d="M67 556q0 172 70 303t196.5 201t290.5 70q159 0 284.5 -68t194.5 -193.5t69 -288.5q0 -61 -8 -109h-813q10 -120 84.5 -188t182.5 -68q157 0 223 134h303q-48 -161 -184.5 -264t-335.5 -103q-160 0 -287.5 71t-198.5 201.5t-71 301.5zM353 661h528q-2 108 -78.5 173.5 t-186.5 65.5q-103 0 -175 -64t-88 -175z" />
<glyph unicode="f" horiz-adv-x="691" d="M42 881v231h127v56q0 205 117 301q109 90 323 90h27v-236h-10q-94 0 -132 -35q-40 -36 -40 -130v-46h195v-231h-195v-881h-285v881h-127z" />
<glyph unicode="g" d="M67 560q0 168 67 299t182 201t258 70q125 0 219 -49t149 -127v158h282v-1120q0 -155 -62 -276.5t-186.5 -192.5t-301.5 -71q-237 0 -388.5 110.5t-170.5 301.5h278q23 -77 96 -122t177 -45q123 0 199.5 73t76.5 222v173q-54 -79 -149.5 -131t-218.5 -52q-140 0 -256.5 72 t-183.5 203.5t-67 302.5zM353 560q0 -100 41 -175.5t108.5 -116t143.5 -40.5q78 0 146.5 39.5t109 113t40.5 175.5q0 103 -40.5 176t-109 112t-146.5 39q-79 0 -145 -38t-107 -111t-41 -174z" />
<glyph unicode="h" horiz-adv-x="1325" d="M138 0v1486h281v-513q54 73 145 114t200 41q127 0 225.5 -55.5t154 -162.5t55.5 -257v-653h-282v614q0 133 -66 204t-181 71q-116 0 -183.5 -71t-67.5 -204v-614h-281z" />
<glyph unicode="i" horiz-adv-x="557" d="M109 1409q0 71 49 118t123 47q75 0 124 -47.5t49 -117.5t-49.5 -117t-123.5 -47t-123 47t-49 117zM138 0v1112h281v-1112h-281z" />
<glyph unicode="j" horiz-adv-x="557" d="M-58 -291h81q64 0 89.5 25t25.5 82v1296h281v-1294q0 -185 -91 -266.5t-261 -81.5h-125v239zM107 1409q0 71 49 118t125 47q75 0 123 -47.5t48 -117.5t-48.5 -117t-122.5 -47q-76 0 -125 47t-49 117z" />
<glyph unicode="k" horiz-adv-x="1172" d="M138 0v1486h281v-846l374 472h365l-490 -558l494 -554h-365l-378 473v-473h-281z" />
<glyph unicode="l" horiz-adv-x="557" d="M138 0v1486h281v-1486h-281z" />
<glyph unicode="m" horiz-adv-x="2103" d="M138 0v1112h281v-135q54 71 139.5 111t188.5 40q130 0 232.5 -55.5t158.5 -157.5q54 96 157 154.5t224 58.5q205 0 330.5 -125.5t125.5 -349.5v-653h-281v614q0 131 -66.5 200t-180.5 69t-181 -69t-67 -200v-614h-282v614q0 131 -66 200t-181 69q-116 0 -183.5 -69 t-67.5 -200v-614h-281z" />
<glyph unicode="n" horiz-adv-x="1325" d="M138 0v1112h281v-139q56 73 144 114t192 41q199 0 321.5 -125.5t122.5 -349.5v-653h-282v614q0 133 -66 204t-181 71q-116 0 -183.5 -71t-67.5 -204v-614h-281z" />
<glyph unicode="o" horiz-adv-x="1279" d="M69 556q0 170 75 301t205 202t291 71t291 -71t205.5 -202t75.5 -301q0 -171 -77.5 -301.5t-208.5 -201.5t-294 -71q-161 0 -289 71t-201 201.5t-73 301.5zM353 556q0 -159 79.5 -244.5t199.5 -85.5q77 0 144 37.5t107 112t40 180.5q0 158 -83 243.5t-204 85.5t-202 -85.5 t-81 -243.5z" />
<glyph unicode="p" d="M138 -530v1642h281v-160q54 76 149.5 127t218.5 51q142 0 257.5 -70t183 -200t67.5 -300q0 -171 -67.5 -302.5t-183 -203.5t-257.5 -72q-123 0 -216.5 50t-151.5 127v-689h-281zM419 556q0 -100 41.5 -174.5t108.5 -114t143 -39.5q79 0 146 40.5t108 115t41 176.5 q0 101 -41 174t-108 111t-146 38q-76 0 -143 -39t-108.5 -113t-41.5 -175z" />
<glyph unicode="q" d="M67 558q0 166 69 296t187.5 202t260.5 72q119 0 210 -45t148 -116v145h282v-1642h-282v683q-56 -73 -150.5 -121t-213.5 -48q-140 0 -257.5 73t-185.5 203.5t-68 297.5zM353 558q0 -102 42 -177.5t109.5 -114t141.5 -38.5q76 0 143.5 38.5t110 113t42.5 176.5 q0 103 -42.5 177t-110 112t-143.5 38q-75 0 -142 -38t-109 -111t-42 -176z" />
<glyph unicode="r" horiz-adv-x="810" d="M138 0v1112h281v-173q54 89 142 139t199 50v-295h-74q-132 0 -199.5 -62t-67.5 -217v-554h-281z" />
<glyph unicode="s" horiz-adv-x="1093" d="M78 351h284q7 -65 62 -106.5t138 -41.5q80 0 125.5 32t45.5 83q0 53 -55.5 80t-175.5 60q-125 30 -204 62t-136.5 98t-57.5 179q0 92 53.5 168.5t153 120.5t233.5 44q199 0 317 -99.5t131 -268.5h-270q-6 67 -55 106t-131 39q-76 0 -117.5 -28t-41.5 -78 q0 -56 56.5 -85.5t175.5 -58.5q120 -31 198 -63t135.5 -99.5t59.5 -176.5q0 -97 -53.5 -173t-152.5 -119.5t-232 -43.5q-137 0 -245 49t-171.5 133.5t-69.5 186.5z" />
<glyph unicode="t" horiz-adv-x="778" d="M50 881v231h132v275h284v-275h248v-231h-248v-538q0 -56 26.5 -81t91.5 -25h130v-237h-176q-355 0 -356 345v536h-132z" />
<glyph unicode="u" horiz-adv-x="1325" d="M128 460v652h282v-612q0 -132 66 -204t181 -72q116 0 182.5 72t66.5 204v612h282v-1112h-282v140q-54 -72 -142 -113t-190 -41q-130 0 -230.5 55t-158 162.5t-57.5 256.5z" />
<glyph unicode="v" horiz-adv-x="1201" d="M20 1112h301l281 -853l281 853h299l-412 -1112h-341z" />
<glyph unicode="w" horiz-adv-x="1693" d="M14 1112h285l197 -847l213 847h296l209 -845l197 845h269l-326 -1112h-302l-203 777l-203 -777h-305z" />
<glyph unicode="x" horiz-adv-x="1082" d="M16 1112h317l227 -344l204 344h301l-364 -554l369 -558h-317l-229 345l-203 -345h-301l363 558z" />
<glyph unicode="y" horiz-adv-x="1214" d="M10 1112h315l287 -777l292 777h298l-688 -1638h-299l241 554z" />
<glyph unicode="z" horiz-adv-x="969" d="M76 0v226l486 655h-484v231h807v-227l-490 -654h496v-231h-815z" />
<glyph unicode="{" horiz-adv-x="1019" d="M220 620v219q97 8 146.5 52t49.5 118q0 85 -18 243q-20 190 -21 276q0 157 93.5 243.5t247.5 86.5h139v-236h-85q-124 0 -123 -119q0 -56 15 -224q2 -20 10 -113.5t8 -165.5q0 -107 -52 -177t-159 -90v-5q107 -22 159 -91t52 -177q0 -69 -8 -162t-10 -118 q-15 -168 -15 -222q0 -62 30 -90.5t93 -28.5h85v-239h-139q-154 0 -247.5 88t-93.5 243q0 89 21 278q18 159 18 241q0 74 -49 118t-147 52z" />
<glyph unicode="|" horiz-adv-x="619" d="M169 -243v1865h283v-1865h-283z" />
<glyph unicode="}" horiz-adv-x="1019" d="M163 -161h84q65 0 94.5 28.5t29.5 90.5q0 54 -16 222q-2 25 -10 118t-8 162q0 108 52.5 177.5t158.5 90.5v5q-107 20 -159 90t-52 177q0 72 8 165t10 114q15 168 16 224q0 119 -124 119h-84v236h138q155 0 248 -87t93 -243q0 -86 -20 -276q-17 -158 -18 -243 q0 -74 49.5 -118t145.5 -52v-219q-96 -8 -145.5 -52t-49.5 -118q0 -82 18 -241q20 -189 20 -278q0 -156 -93 -243.5t-248 -87.5h-138v239z" />
<glyph unicode="~" horiz-adv-x="1187" d="M65 450q33 194 125.5 286.5t230.5 92.5q60 0 109.5 -19t105.5 -55q46 -29 79.5 -42.5t69.5 -13.5q52 0 87 31.5t43 96.5h209q-34 -195 -127 -287t-233 -92q-59 0 -106 19t-106 54q-50 29 -81 43t-67 14q-52 0 -88.5 -33t-46.5 -95h-204z" />
<glyph unicode="&#xa1;" horiz-adv-x="709" d="M182 977q0 71 49.5 118t126.5 47q73 0 121.5 -47t48.5 -118t-48.5 -118t-121.5 -47q-77 0 -126.5 47.5t-49.5 117.5zM199 -297l34 969h236l33 -969h-303z" />
<glyph unicode="&#xa2;" horiz-adv-x="1329" d="M111 517q0 217 122 359.5t345 163.5v170h129v-170q176 -16 293.5 -116.5t131.5 -253.5h-261q-46 142 -225 142q-125 0 -197 -77.5t-72 -217.5q0 -138 72 -216.5t197 -78.5q91 0 148 37.5t77 106.5h261q-14 -153 -131.5 -253.5t-293.5 -116.5v-170h-129v170 q-222 20 -344.5 162.5t-122.5 358.5z" />
<glyph unicode="&#xa3;" horiz-adv-x="1312" d="M78 592v193h167q-40 136 -40 247q0 136 59 235.5t165.5 151.5t244.5 52q223 0 340.5 -123.5t123.5 -315.5h-259q-2 96 -50 151.5t-151 55.5q-94 0 -149.5 -56.5t-55.5 -173.5q0 -52 11.5 -103t32.5 -121h378v-193h-327q4 -32 4 -48q0 -86 -33 -171.5t-102 -153.5h711 v-225h-974l-44 144q90 88 132.5 180t42.5 228q0 14 -4 46h-223z" />
<glyph unicode="&#xa4;" horiz-adv-x="1125" d="M121 433l114 115q-62 86 -63 209q0 122 65 212l-116 117l116 116l129 -128q84 42 198 42t198 -42l129 128l114 -116l-112 -115q66 -88 66 -214q0 -119 -66 -211l112 -113l-114 -115l-127 124q-92 -44 -202 -44q-113 0 -200 44l-125 -124zM398 757q0 -93 47 -142t117 -49 t119 50t49 141q0 92 -48 142.5t-118 50.5q-71 0 -118.5 -50.5t-47.5 -142.5z" />
<glyph unicode="&#xa5;" horiz-adv-x="1275" d="M23 1401h316l299 -654l297 654h317l-300 -580h228v-195l-331 -4l-70 -134v-19h401v-194h-401v-275h-281v275h-402v194h402v19l-71 136l-331 2v195h229z" />
<glyph unicode="&#xa6;" horiz-adv-x="701" d="M211 -243v801h281v-801h-281zM211 821v801h281v-801h-281z" />
<glyph unicode="&#xa7;" horiz-adv-x="1167" d="M73 490q0 104 55.5 184.5t172.5 126.5q-161 108 -161 271q0 96 53.5 174.5t155 124.5t237.5 46q195 0 313 -95.5t122 -258.5h-280q-4 77 -43 117t-114 40q-76 0 -118.5 -33t-42.5 -95q0 -44 27 -77.5t93 -66.5t192 -83q182 -72 271.5 -159.5t89.5 -215.5 q0 -211 -229 -312q161 -107 161 -270q0 -96 -53.5 -174.5t-155 -124.5t-237.5 -46q-195 0 -313 95t-122 258h280q12 -157 157 -157q77 0 119 33.5t42 94.5q0 44 -27 77.5t-92.5 67t-192.5 83.5q-182 72 -271 159.5t-89 215.5zM368 490q0 -78 60 -131.5t158 -53.5t157.5 53.5 t59.5 131.5t-60.5 131t-158.5 53t-157 -53t-59 -131z" />
<glyph unicode="&#xa8;" horiz-adv-x="678" d="M20 1377q0 56 38 95t95 39q56 0 95 -39t39 -95t-39 -94t-95 -38q-57 0 -95 38t-38 94zM391 1377q0 56 38 95t95 39q56 0 95.5 -39t39.5 -95t-39.5 -94t-95.5 -38q-57 0 -95 38t-38 94z" />
<glyph unicode="&#xa9;" horiz-adv-x="1574" d="M84 703q0 208 89.5 372t249 255t366.5 91q205 0 364 -91t249 -255t90 -372q0 -209 -90 -372.5t-249 -255t-364 -91.5q-207 0 -366.5 91.5t-249 255t-89.5 372.5zM195 703q0 -185 72 -324.5t207 -217t315 -77.5q178 0 313 77.5t207 216.5t72 325t-72 325.5t-206 215 t-314 75.5t-315 -75.5t-207 -215t-72 -325.5zM345 705q0 -137 57.5 -241t158 -160.5t226.5 -56.5q155 0 267 85t146 226h-246q-23 -56 -64 -86t-109 -30q-92 0 -145.5 67t-53.5 196q0 128 53 194t146 66q65 0 109.5 -29.5t63.5 -86.5h246q-34 144 -145 227.5t-268 83.5 q-126 0 -226.5 -56t-158 -159.5t-57.5 -239.5z" />
<glyph unicode="&#xaa;" horiz-adv-x="927" d="M56 1063q0 107 45.5 189.5t121.5 127.5t168 45q165 0 247 -104v92h217v-704h-217v90q-36 -46 -97.5 -73t-142.5 -27q-94 0 -172.5 46t-124 129t-45.5 189zM279 1061q0 -90 53 -142t128 -52q74 0 126 52t52 142q0 91 -52 143t-126 52q-75 0 -128 -52t-53 -143z" />
<glyph unicode="&#xab;" horiz-adv-x="1045" d="M90 592l177 352h267l-185 -352l185 -351h-267zM506 592l178 352h266l-186 -352l186 -351h-266z" />
<glyph unicode="&#xac;" horiz-adv-x="1366" d="M82 662v217h1184v-488h-280v271h-904z" />
<glyph unicode="&#xad;" horiz-adv-x="1169" d="M142 598v237h852v-237h-852z" />
<glyph unicode="&#xae;" horiz-adv-x="1034" d="M90 996q0 124 55.5 221t152.5 151.5t219 54.5q123 0 220.5 -54.5t152 -151.5t54.5 -221q0 -123 -54.5 -219.5t-152 -151.5t-220.5 -55q-122 0 -219 55t-152.5 151.5t-55.5 219.5zM201 996q0 -147 86 -235.5t230 -88.5q145 0 232.5 89.5t87.5 234.5q0 147 -87.5 236 t-232.5 89q-144 0 -230 -89.5t-86 -235.5zM341 787v429h211q70 0 112.5 -39t42.5 -101q0 -44 -21.5 -76.5t-59.5 -47.5l104 -165h-156l-86 150h-13v-150h-134zM473 1038h65q14 0 24 8t10 24q0 31 -34 30h-65v-62z" />
<glyph unicode="&#xaf;" horiz-adv-x="806" d="M20 1268v201h767v-201h-767z" />
<glyph unicode="&#xb0;" horiz-adv-x="890" d="M54 1057q0 165 109.5 261.5t284.5 96.5q172 0 280.5 -97.5t108.5 -260.5q0 -164 -109.5 -262t-283.5 -98q-173 0 -281.5 98t-108.5 262zM273 1055q0 -96 49 -148t122 -52q70 0 121 52t51 148q0 99 -50.5 152t-121.5 53t-121 -53t-50 -152z" />
<glyph unicode="&#xb1;" horiz-adv-x="1356" d="M167 239v245h379v249h-379v244h379v273h266v-273h378v-244h-378v-249h378v-245h-1023z" />
<glyph unicode="&#xb2;" horiz-adv-x="722" d="M60 1197q6 103 86 167.5t220 64.5q88 0 152 -32t97.5 -83.5t33.5 -109.5q0 -72 -48.5 -127.5t-163.5 -120.5l-138 -79h345v-170h-575v160l228 154q62 42 93 83.5t31 85.5q0 36 -20 58t-52 22q-62 0 -72 -73h-217z" />
<glyph unicode="&#xb3;" horiz-adv-x="716" d="M34 929h217q12 -76 90 -76q38 0 62 21t24 57t-26 57t-70 21h-70v115h62q94 0 94 76q0 35 -22 53.5t-60 18.5q-74 0 -86 -66h-205q4 98 85.5 160.5t225.5 62.5q126 0 210 -60.5t84 -150.5q0 -60 -34.5 -99t-95.5 -54v-6q65 -17 102.5 -59.5t37.5 -102.5 q0 -89 -86.5 -144.5t-221.5 -55.5q-149 0 -230 62t-87 170z" />
<glyph unicode="&#xb4;" horiz-adv-x="501" d="M20 1190v201l462 239v-229z" />
<glyph unicode="&#xb5;" d="M151 -530v1642h278v-612q0 -131 67.5 -201.5t181.5 -70.5q115 0 182 70.5t67 201.5v612h283v-1112h-283v171q-52 -89 -141 -137t-206 -48q-88 0 -151 38v-554h-278z" />
<glyph unicode="&#xb6;" horiz-adv-x="1335" d="M65 979q0 117 51 212.5t157 152.5t267 57h646v-1401h-238v1184h-131v-1184h-241v558h-36q-237 0 -356 119.5t-119 301.5z" />
<glyph unicode="&#xb7;" horiz-adv-x="540" d="M102 655q0 70 49 117.5t126 47.5q74 0 122 -48t48 -117q0 -71 -48 -118t-122 -47q-77 0 -126 47t-49 118z" />
<glyph unicode="&#xb8;" horiz-adv-x="591" d="M20 -366h239q48 0 73.5 14.5t25.5 50.5t-25.5 49t-73.5 13h-125v253h177v-100q110 0 185.5 -56.5t75.5 -162.5q0 -109 -77.5 -167t-189.5 -58h-285v164z" />
<glyph unicode="&#xb9;" horiz-adv-x="456" d="M40 1249v164h329v-706h-214v542h-115z" />
<glyph unicode="&#xba;" horiz-adv-x="902" d="M56 1059q0 109 51.5 191.5t140.5 127.5t204 45q114 0 204.5 -45t140.5 -127.5t50 -191.5q0 -106 -51 -188t-141.5 -128t-204.5 -46q-115 0 -204 46t-139.5 128.5t-50.5 187.5zM279 1057q0 -90 49 -141t122 -51q72 0 124 51t52 141q0 95 -51 147t-125 52q-73 0 -122 -52 t-49 -147z" />
<glyph unicode="&#xbb;" horiz-adv-x="1045" d="M100 241l183 351l-183 352h266l178 -352l-178 -351h-266zM515 241l186 351l-186 352h266l178 -352l-178 -351h-266z" />
<glyph unicode="&#xbc;" horiz-adv-x="1465" d="M74 1249v164h330v-706h-215v542h-115zM151 0l770 1403h267l-769 -1403h-268zM712 130v117l299 462h299v-450h85v-129h-85v-130h-216v130h-382zM923 261h179v293z" />
<glyph unicode="&#xbd;" horiz-adv-x="1519" d="M74 1249v164h330v-706h-215v542h-115zM151 0l756 1405h271l-759 -1405h-268zM827 488q6 104 86.5 168t218.5 64q88 0 152 -31.5t97.5 -83t33.5 -109.5q0 -73 -48 -128t-163 -121l-139 -78h346v-171h-576v161l228 154q62 42 93.5 83t31.5 86q0 36 -20 58t-52 22 q-62 0 -72 -74h-217z" />
<glyph unicode="&#xbe;" horiz-adv-x="1626" d="M82 929h217q12 -76 90 -76q38 0 62 21t24 57t-26 57t-70 21h-70v115h62q95 0 95 76q0 35 -22.5 53.5t-60.5 18.5q-74 0 -86 -66h-205q4 98 85.5 160.5t226.5 62.5q126 0 209.5 -60.5t83.5 -150.5q0 -60 -34.5 -99t-94.5 -54v-6q65 -17 102 -59.5t37 -102.5 q0 -89 -86.5 -144.5t-220.5 -55.5q-149 0 -230.5 62t-87.5 170zM339 0l791 1405h268l-789 -1405h-270zM900 130v117l286 462h309v-450h87v-129h-87v-130h-214v130h-381zM1107 259h182v305z" />
<glyph unicode="&#xbf;" horiz-adv-x="1078" d="M86 98q0 197 126.5 300.5t335.5 103.5l8 155h247l9 -341h-90q-176 0 -270 -47t-92 -173q0 -88 51 -138t139 -50q92 0 143.5 50t51.5 138h264q2 -122 -51.5 -218.5t-159 -150.5t-248.5 -54q-209 0 -336.5 113.5t-127.5 311.5zM510 971q0 71 48 118t122 47q77 0 126 -47 t49 -118q0 -70 -49 -117t-126 -47q-74 0 -122 47.5t-48 116.5z" />
<glyph unicode="&#xc0;" horiz-adv-x="1436" d="M52 0l504 1403h327l504 -1403h-297l-92 267h-558l-93 -267h-295zM476 1692v229l462 -239v-201zM515 492h406l-203 586z" />
<glyph unicode="&#xc1;" horiz-adv-x="1436" d="M52 0l504 1403h327l504 -1403h-297l-92 267h-558l-93 -267h-295zM476 1481v201l462 239v-229zM515 492h406l-203 586z" />
<glyph unicode="&#xc2;" horiz-adv-x="1436" d="M52 0l504 1403h327l504 -1403h-297l-92 267h-558l-93 -267h-295zM422 1481v205l299 162l297 -162v-205l-297 168zM515 492h406l-203 586z" />
<glyph unicode="&#xc3;" horiz-adv-x="1436" d="M52 0l504 1403h327l504 -1403h-297l-92 267h-558l-93 -267h-295zM357 1509q18 132 83.5 197.5t165.5 65.5q42 0 74 -13t73 -37q59 -38 100 -38q74 0 86 86h151q-18 -132 -83.5 -197.5t-165.5 -65.5q-42 0 -74.5 13.5t-72.5 36.5q-58 40 -100 40q-75 0 -88 -88h-149z M515 492h406l-203 586z" />
<glyph unicode="&#xc4;" horiz-adv-x="1436" d="M52 0l504 1403h327l504 -1403h-297l-92 267h-558l-93 -267h-295zM399 1668q0 56 38 95t95 39q56 0 95 -39t39 -95t-39 -94t-95 -38q-57 0 -95 38t-38 94zM515 492h406l-203 586zM770 1668q0 56 38 95t95 39q56 0 95.5 -39t39.5 -95t-39.5 -94t-95.5 -38q-57 0 -95 38 t-38 94z" />
<glyph unicode="&#xc5;" horiz-adv-x="1436" d="M52 0l504 1403h327l504 -1403h-297l-92 267h-558l-93 -267h-295zM485 1730q0 104 68.5 167.5t166.5 63.5q100 0 167.5 -63t67.5 -168q0 -104 -67.5 -167.5t-167.5 -63.5q-98 0 -166.5 63.5t-68.5 167.5zM515 492h406l-203 586zM624 1730q0 -43 28 -71.5t68 -28.5t68 28.5 t28 71.5q0 47 -28 74t-68 27t-68 -27t-28 -74z" />
<glyph unicode="&#xc6;" horiz-adv-x="1879" d="M18 0l746 1403h1000v-221h-525v-361h465v-217h-465v-382h525v-222h-808v263h-492l-139 -263h-307zM578 479h378v720z" />
<glyph unicode="&#xc7;" horiz-adv-x="1540" d="M71 703q0 206 93 370t254.5 255t362.5 91q235 0 411.5 -120.5t246.5 -333.5h-323q-48 100 -135.5 150.5t-201.5 50.5q-122 0 -217.5 -57t-148.5 -161.5t-53 -244.5q0 -139 53 -244.5t148.5 -162.5t217.5 -57q114 0 201.5 51t135.5 152h323q-62 -193 -213.5 -310.5 t-356.5 -139.5v-82q111 0 186 -56.5t75 -162.5q0 -108 -77.5 -166.5t-189.5 -58.5h-285v165h239q48 0 73 14t25 50t-25 49t-73 13h-124v235q-179 20 -320.5 115.5t-221.5 250t-80 345.5z" />
<glyph unicode="&#xc8;" horiz-adv-x="1067" d="M138 0v1403h814v-229h-533v-351h472v-223h-472v-372h533v-228h-814zM293 1692v229l462 -239v-201z" />
<glyph unicode="&#xc9;" horiz-adv-x="1067" d="M138 0v1403h814v-229h-533v-351h472v-223h-472v-372h533v-228h-814zM293 1481v201l462 239v-229z" />
<glyph unicode="&#xca;" horiz-adv-x="1067" d="M138 0v1403h814v-229h-533v-351h472v-223h-472v-372h533v-228h-814zM237 1481v205l299 162l297 -162v-205l-297 168z" />
<glyph unicode="&#xcb;" horiz-adv-x="1067" d="M138 0v1403h814v-229h-533v-351h472v-223h-472v-372h533v-228h-814zM217 1668q0 56 38 95t95 39q56 0 95 -39t39 -95t-39 -94t-95 -38q-57 0 -95 38t-38 94zM588 1668q0 56 38 95t95 39q56 0 95.5 -39t39.5 -95t-39.5 -94t-95.5 -38q-57 0 -95 38t-38 94z" />
<glyph unicode="&#xcc;" horiz-adv-x="557" d="M36 1692v229l462 -239v-201zM138 0v1401h281v-1401h-281z" />
<glyph unicode="&#xcd;" horiz-adv-x="557" d="M36 1481v201l462 239v-229zM138 0v1401h281v-1401h-281z" />
<glyph unicode="&#xce;" horiz-adv-x="557" d="M-18 1481v205l299 162l297 -162v-205l-297 168zM138 0v1401h281v-1401h-281z" />
<glyph unicode="&#xcf;" horiz-adv-x="557" d="M-40 1668q0 56 38 95t95 39q56 0 95 -39t39 -95t-39 -94t-95 -38q-57 0 -95 38t-38 94zM138 0v1401h281v-1401h-281zM331 1668q0 56 38 95t95 39q56 0 95.5 -39t39.5 -95t-39.5 -94t-95.5 -38q-57 0 -95 38t-38 94z" />
<glyph unicode="&#xd0;" horiz-adv-x="1456" d="M14 576v245h141v580h491q221 0 388.5 -86.5t259 -246t91.5 -369.5q0 -211 -91.5 -369t-259 -244t-388.5 -86h-491v576h-141zM437 228h199q219 0 339.5 124.5t120.5 346.5q0 220 -120.5 343.5t-339.5 123.5h-199v-345h335v-245h-335v-348z" />
<glyph unicode="&#xd1;" horiz-adv-x="1474" d="M138 0v1403h281l636 -963v963h282v-1403h-282l-636 961v-961h-281zM378 1509q18 132 83.5 197.5t165.5 65.5q42 0 74 -13t73 -37q59 -38 100 -38q74 0 86 86h151q-18 -132 -83.5 -197.5t-165.5 -65.5q-42 0 -74.5 13.5t-72.5 36.5q-58 40 -100 40q-75 0 -88 -88h-149z " />
<glyph unicode="&#xd2;" horiz-adv-x="1574" d="M71 705q0 204 96 368t260.5 256t361.5 92q199 0 362 -92t258.5 -256t95.5 -368q0 -207 -95.5 -370.5t-259.5 -256t-361 -92.5t-361.5 92.5t-260.5 256t-96 370.5zM360 705q0 -141 53.5 -247.5t151 -163.5t224.5 -57q126 0 222 57t150.5 163.5t54.5 247.5q0 140 -54.5 245 t-150.5 161.5t-222 56.5q-127 0 -224.5 -56.5t-151 -161.5t-53.5 -245zM546 1692v229l462 -239v-201z" />
<glyph unicode="&#xd3;" horiz-adv-x="1574" d="M71 705q0 204 96 368t260.5 256t361.5 92q199 0 362 -92t258.5 -256t95.5 -368q0 -207 -95.5 -370.5t-259.5 -256t-361 -92.5t-361.5 92.5t-260.5 256t-96 370.5zM360 705q0 -141 53.5 -247.5t151 -163.5t224.5 -57q126 0 222 57t150.5 163.5t54.5 247.5q0 140 -54.5 245 t-150.5 161.5t-222 56.5q-127 0 -224.5 -56.5t-151 -161.5t-53.5 -245zM546 1481v201l462 239v-229z" />
<glyph unicode="&#xd4;" horiz-adv-x="1574" d="M71 705q0 204 96 368t260.5 256t361.5 92q199 0 362 -92t258.5 -256t95.5 -368q0 -207 -95.5 -370.5t-259.5 -256t-361 -92.5t-361.5 92.5t-260.5 256t-96 370.5zM360 705q0 -141 53.5 -247.5t151 -163.5t224.5 -57q126 0 222 57t150.5 163.5t54.5 247.5q0 140 -54.5 245 t-150.5 161.5t-222 56.5q-127 0 -224.5 -56.5t-151 -161.5t-53.5 -245zM489 1481v205l299 162l297 -162v-205l-297 168z" />
<glyph unicode="&#xd5;" horiz-adv-x="1574" d="M71 705q0 204 96 368t260.5 256t361.5 92q199 0 362 -92t258.5 -256t95.5 -368q0 -207 -95.5 -370.5t-259.5 -256t-361 -92.5t-361.5 92.5t-260.5 256t-96 370.5zM360 705q0 -141 53.5 -247.5t151 -163.5t224.5 -57q126 0 222 57t150.5 163.5t54.5 247.5q0 140 -54.5 245 t-150.5 161.5t-222 56.5q-127 0 -224.5 -56.5t-151 -161.5t-53.5 -245zM428 1509q18 132 83.5 197.5t165.5 65.5q42 0 74 -13t73 -37q59 -38 100 -38q74 0 86 86h151q-18 -132 -83.5 -197.5t-165.5 -65.5q-42 0 -74.5 13.5t-72.5 36.5q-58 40 -100 40q-75 0 -88 -88h-149z " />
<glyph unicode="&#xd6;" horiz-adv-x="1574" d="M71 705q0 204 96 368t260.5 256t361.5 92q199 0 362 -92t258.5 -256t95.5 -368q0 -207 -95.5 -370.5t-259.5 -256t-361 -92.5t-361.5 92.5t-260.5 256t-96 370.5zM360 705q0 -141 53.5 -247.5t151 -163.5t224.5 -57q126 0 222 57t150.5 163.5t54.5 247.5q0 140 -54.5 245 t-150.5 161.5t-222 56.5q-127 0 -224.5 -56.5t-151 -161.5t-53.5 -245zM470 1668q0 56 38 95t95 39q56 0 95 -39t39 -95t-39 -94t-95 -38q-57 0 -95 38t-38 94zM841 1668q0 56 38 95t95 39q56 0 95.5 -39t39.5 -95t-39.5 -94t-95.5 -38q-57 0 -95 38t-38 94z" />
<glyph unicode="&#xd7;" horiz-adv-x="1344" d="M197 431l291 293l-283 283l182 183l283 -283l284 283l184 -183l-283 -283l293 -295l-185 -182l-293 293l-291 -291z" />
<glyph unicode="&#xd8;" horiz-adv-x="1574" d="M48 0l201 220q-84 97 -131 220.5t-47 264.5q0 204 96 368t260.5 256t361.5 92q120 0 230.5 -35.5t202.5 -100.5l111 120h195l-199 -219q84 -94 130 -216.5t46 -264.5q0 -207 -95.5 -370.5t-259.5 -256t-361 -92.5q-121 0 -232 36t-202 102l-112 -124h-195zM360 705 q-1 -165 73 -284l611 669q-107 78 -255 78q-127 0 -224.5 -56.5t-151 -161.5t-53.5 -245zM532 316q111 -79 257 -79q126 0 222 57t150.5 163.5t54.5 247.5q0 164 -74 279z" />
<glyph unicode="&#xd9;" horiz-adv-x="1398" d="M134 536v865h282v-867q0 -142 74 -217.5t209 -75.5q136 0 210.5 75t74.5 218v867h282v-865q0 -178 -77 -301.5t-206.5 -186t-287.5 -62.5q-157 0 -284.5 62.5t-202 186t-74.5 301.5zM455 1692v229l462 -239v-201z" />
<glyph unicode="&#xda;" horiz-adv-x="1398" d="M134 536v865h282v-867q0 -142 74 -217.5t209 -75.5q136 0 210.5 75t74.5 218v867h282v-865q0 -178 -77 -301.5t-206.5 -186t-287.5 -62.5q-157 0 -284.5 62.5t-202 186t-74.5 301.5zM455 1481v201l462 239v-229z" />
<glyph unicode="&#xdb;" horiz-adv-x="1398" d="M134 536v865h282v-867q0 -142 74 -217.5t209 -75.5q136 0 210.5 75t74.5 218v867h282v-865q0 -178 -77 -301.5t-206.5 -186t-287.5 -62.5q-157 0 -284.5 62.5t-202 186t-74.5 301.5zM401 1481v205l299 162l297 -162v-205l-297 168z" />
<glyph unicode="&#xdc;" horiz-adv-x="1398" d="M134 536v865h282v-867q0 -142 74 -217.5t209 -75.5q136 0 210.5 75t74.5 218v867h282v-865q0 -178 -77 -301.5t-206.5 -186t-287.5 -62.5q-157 0 -284.5 62.5t-202 186t-74.5 301.5zM382 1668q0 56 38 95t95 39q56 0 95 -39t39 -95t-39 -94t-95 -38q-57 0 -95 38t-38 94z M753 1668q0 56 38 95t95 39q56 0 95.5 -39t39.5 -95t-39.5 -94t-95.5 -38q-57 0 -95 38t-38 94z" />
<glyph unicode="&#xdd;" horiz-adv-x="1275" d="M23 1401h316l301 -641l299 641h313l-473 -913v-488h-281v488zM395 1481v201l462 239v-229z" />
<glyph unicode="&#xde;" horiz-adv-x="1220" d="M138 0v1403h279v-273h238q162 0 276.5 -56.5t171.5 -152.5t57 -218q0 -113 -53 -209t-166.5 -156.5t-285.5 -60.5h-236v-277h-281zM419 492h223q115 0 172 56t57 155q0 98 -57 154t-172 56h-223v-421z" />
<glyph unicode="&#xdf;" horiz-adv-x="1458" d="M104 0v1102q0 128 60 229.5t180 158.5t290 57q149 0 259.5 -49t167.5 -130t57 -175q0 -98 -44 -163t-122 -137q-43 -38 -62 -61.5t-19 -44.5q0 -34 39.5 -60t157.5 -68q153 -54 220.5 -133.5t67.5 -202.5q0 -154 -113 -248.5t-306 -94.5q-191 0 -308 98t-137 277h270 q6 -77 50.5 -119.5t120.5 -42.5q71 0 108 28t37 84t-37 91t-137 70q-169 57 -242.5 120t-73.5 157q0 66 35.5 118t100.5 116q58 58 85.5 96.5t27.5 84.5q0 73 -57.5 113.5t-155.5 40.5q-124 0 -181.5 -61t-57.5 -177v-1074h-281z" />
<glyph unicode="&#xe0;" d="M67 560q0 168 67 299t182 201t258 70q125 0 218 -50t150 -126v158h282v-1112h-282v163q-54 -79 -149.5 -130t-220.5 -51q-140 0 -255.5 72t-182.5 203.5t-67 302.5zM353 560q0 -100 41 -175.5t108.5 -116t143.5 -40.5q78 0 146.5 39.5t109 113t40.5 175.5 q0 103 -40.5 176t-109 112t-146.5 39q-79 0 -145 -38t-107 -111t-41 -174zM441 1401v229l462 -239v-201z" />
<glyph unicode="&#xe1;" d="M67 560q0 168 67 299t182 201t258 70q125 0 218 -50t150 -126v158h282v-1112h-282v163q-54 -79 -149.5 -130t-220.5 -51q-140 0 -255.5 72t-182.5 203.5t-67 302.5zM353 560q0 -100 41 -175.5t108.5 -116t143.5 -40.5q78 0 146.5 39.5t109 113t40.5 175.5 q0 103 -40.5 176t-109 112t-146.5 39q-79 0 -145 -38t-107 -111t-41 -174zM441 1190v201l462 239v-229z" />
<glyph unicode="&#xe2;" d="M67 560q0 168 67 299t182 201t258 70q125 0 218 -50t150 -126v158h282v-1112h-282v163q-54 -79 -149.5 -130t-220.5 -51q-140 0 -255.5 72t-182.5 203.5t-67 302.5zM353 560q0 -100 41 -175.5t108.5 -116t143.5 -40.5q78 0 146.5 39.5t109 113t40.5 175.5 q0 103 -40.5 176t-109 112t-146.5 39q-79 0 -145 -38t-107 -111t-41 -174zM386 1190v205l299 162l297 -162v-205l-297 168z" />
<glyph unicode="&#xe3;" d="M67 560q0 168 67 299t182 201t258 70q125 0 218 -50t150 -126v158h282v-1112h-282v163q-54 -79 -149.5 -130t-220.5 -51q-140 0 -255.5 72t-182.5 203.5t-67 302.5zM323 1218q18 132 83.5 197.5t165.5 65.5q42 0 74 -13t73 -37q59 -38 100 -38q74 0 86 86h151 q-18 -132 -83.5 -197.5t-165.5 -65.5q-42 0 -74.5 13.5t-72.5 36.5q-58 40 -100 40q-75 0 -88 -88h-149zM353 560q0 -100 41 -175.5t108.5 -116t143.5 -40.5q78 0 146.5 39.5t109 113t40.5 175.5q0 103 -40.5 176t-109 112t-146.5 39q-79 0 -145 -38t-107 -111t-41 -174z " />
<glyph unicode="&#xe4;" d="M67 560q0 168 67 299t182 201t258 70q125 0 218 -50t150 -126v158h282v-1112h-282v163q-54 -79 -149.5 -130t-220.5 -51q-140 0 -255.5 72t-182.5 203.5t-67 302.5zM353 560q0 -100 41 -175.5t108.5 -116t143.5 -40.5q78 0 146.5 39.5t109 113t40.5 175.5 q0 103 -40.5 176t-109 112t-146.5 39q-79 0 -145 -38t-107 -111t-41 -174zM365 1377q0 56 38 95t95 39q56 0 95 -39t39 -95t-39 -94t-95 -38q-57 0 -95 38t-38 94zM736 1377q0 56 38 95t95 39q56 0 95.5 -39t39.5 -95t-39.5 -94t-95.5 -38q-57 0 -95 38t-38 94z" />
<glyph unicode="&#xe5;" d="M67 560q0 168 67 299t182 201t258 70q125 0 218 -50t150 -126v158h282v-1112h-282v163q-54 -79 -149.5 -130t-220.5 -51q-140 0 -255.5 72t-182.5 203.5t-67 302.5zM353 560q0 -100 41 -175.5t108.5 -116t143.5 -40.5q78 0 146.5 39.5t109 113t40.5 175.5 q0 103 -40.5 176t-109 112t-146.5 39q-79 0 -145 -38t-107 -111t-41 -174zM449 1439q0 104 68.5 167.5t166.5 63.5q100 0 167.5 -63t67.5 -168q0 -104 -67.5 -167.5t-167.5 -63.5q-98 0 -166.5 63.5t-68.5 167.5zM588 1439q0 -43 28 -71.5t68 -28.5t68 28.5t28 71.5 q0 47 -28 74t-68 27t-68 -27t-28 -74z" />
<glyph unicode="&#xe6;" horiz-adv-x="2160" d="M67 560q0 170 67 300t185 200t265 70q233 0 368 -174v156h252v-156q73 90 167 132t217 42q149 0 264 -69t180 -194.5t65 -284.5q0 -45 -10 -105h-857q16 -126 99.5 -194t187.5 -68q96 0 159 36t88 98h303q-46 -161 -172.5 -264t-306.5 -103q-123 0 -224.5 50t-159.5 133 v-165h-256v165q-62 -83 -158.5 -133t-215.5 -50q-140 0 -256.5 72t-183.5 203.5t-67 302.5zM353 560q0 -100 41 -175.5t108.5 -116t143.5 -40.5q78 0 146.5 39.5t109 113t40.5 175.5t-40.5 175.5t-109 112.5t-146.5 39q-79 0 -145 -38t-107 -111t-41 -174zM1230 649h576 q-2 114 -82.5 182.5t-200.5 68.5q-111 0 -192 -68t-101 -183z" />
<glyph unicode="&#xe7;" horiz-adv-x="1207" d="M67 556q0 172 70 302t194.5 201t284.5 71q207 0 342.5 -103.5t181.5 -289.5h-303q-25 72 -81.5 113t-141.5 41q-120 0 -190.5 -87.5t-70.5 -247.5q0 -159 70.5 -246.5t190.5 -87.5q171 0 223 153h303q-42 -162 -155.5 -264.5t-283.5 -122.5v-78q110 0 185 -56.5 t75 -162.5q0 -108 -77 -166.5t-189 -58.5h-285v165h239q48 0 73 14t25 50t-25 49t-73 13h-125v231q-136 20 -240 95.5t-160.5 197t-56.5 275.5z" />
<glyph unicode="&#xe8;" horiz-adv-x="1237" d="M67 556q0 172 70 303t196.5 201t290.5 70q159 0 284.5 -68t194.5 -193.5t69 -288.5q0 -61 -8 -109h-813q10 -120 84.5 -188t182.5 -68q157 0 223 134h303q-48 -161 -184.5 -264t-335.5 -103q-160 0 -287.5 71t-198.5 201.5t-71 301.5zM353 661h528q-2 108 -78.5 173.5 t-186.5 65.5q-103 0 -175 -64t-88 -175zM378 1405v229l462 -239v-201z" />
<glyph unicode="&#xe9;" horiz-adv-x="1237" d="M67 556q0 172 70 303t196.5 201t290.5 70q159 0 284.5 -68t194.5 -193.5t69 -288.5q0 -61 -8 -109h-813q10 -120 84.5 -188t182.5 -68q157 0 223 134h303q-48 -161 -184.5 -264t-335.5 -103q-160 0 -287.5 71t-198.5 201.5t-71 301.5zM353 661h528q-2 108 -78.5 173.5 t-186.5 65.5q-103 0 -175 -64t-88 -175zM378 1194v201l462 239v-229z" />
<glyph unicode="&#xea;" horiz-adv-x="1237" d="M67 556q0 172 70 303t196.5 201t290.5 70q159 0 284.5 -68t194.5 -193.5t69 -288.5q0 -61 -8 -109h-813q10 -120 84.5 -188t182.5 -68q157 0 223 134h303q-48 -161 -184.5 -264t-335.5 -103q-160 0 -287.5 71t-198.5 201.5t-71 301.5zM321 1194v205l299 162l297 -162 v-205l-297 168zM353 661h528q-2 108 -78.5 173.5t-186.5 65.5q-103 0 -175 -64t-88 -175z" />
<glyph unicode="&#xeb;" horiz-adv-x="1237" d="M67 556q0 172 70 303t196.5 201t290.5 70q159 0 284.5 -68t194.5 -193.5t69 -288.5q0 -61 -8 -109h-813q10 -120 84.5 -188t182.5 -68q157 0 223 134h303q-48 -161 -184.5 -264t-335.5 -103q-160 0 -287.5 71t-198.5 201.5t-71 301.5zM301 1381q0 56 38 95t95 39 q56 0 95 -39t39 -95t-39 -94t-95 -38q-57 0 -95 38t-38 94zM353 661h528q-2 108 -78.5 173.5t-186.5 65.5q-103 0 -175 -64t-88 -175zM672 1381q0 56 38 95t95 39q56 0 95.5 -39t39.5 -95t-39.5 -94t-95.5 -38q-57 0 -95 38t-38 94z" />
<glyph unicode="&#xec;" horiz-adv-x="581" d="M48 1401v229l462 -239v-201zM151 0v1112h280v-1112h-280z" />
<glyph unicode="&#xed;" horiz-adv-x="581" d="M48 1190v201l462 239v-229zM151 0v1112h280v-1112h-280z" />
<glyph unicode="&#xee;" horiz-adv-x="581" d="M-6 1190v205l299 162l297 -162v-205l-297 168zM151 0v1112h280v-1112h-280z" />
<glyph unicode="&#xef;" horiz-adv-x="581" d="M-28 1377q0 56 38 95t95 39q56 0 95 -39t39 -95t-39 -94t-95 -38q-57 0 -95 38t-38 94zM151 0v1112h280v-1112h-280zM343 1377q0 56 38 95t95 39q56 0 95.5 -39t39.5 -95t-39.5 -94t-95.5 -38q-57 0 -95 38t-38 94z" />
<glyph unicode="&#xf0;" horiz-adv-x="1279" d="M67 558q0 170 73 300t197.5 200t276.5 70q155 0 279 -90q-48 111 -131 214l-232 -72v128l142 46q-48 52 -142 132h269q26 -23 72 -69l225 71v-130l-135 -42q123 -152 188 -323.5t65 -356.5q0 -209 -75.5 -356.5t-205.5 -221.5t-297 -74q-161 0 -290 71t-204 201.5 t-75 301.5zM355 556q0 -161 81 -247.5t200 -86.5q76 0 142.5 37.5t106.5 113t40 183.5t-40 183t-106.5 112.5t-140.5 37.5q-76 0 -140.5 -37.5t-103.5 -112.5t-39 -183z" />
<glyph unicode="&#xf1;" horiz-adv-x="1325" d="M138 0v1112h281v-139q56 73 144 114t192 41q199 0 321.5 -125.5t122.5 -349.5v-653h-282v614q0 133 -66 204t-181 71q-116 0 -183.5 -71t-67.5 -204v-614h-281zM335 1218q18 132 83.5 197.5t165.5 65.5q42 0 74 -13t73 -37q59 -38 100 -38q74 0 86 86h151 q-18 -132 -83.5 -197.5t-165.5 -65.5q-42 0 -74.5 13.5t-72.5 36.5q-58 40 -100 40q-75 0 -88 -88h-149z" />
<glyph unicode="&#xf2;" horiz-adv-x="1279" d="M69 556q0 170 75 301t205 202t291 71t291 -71t205.5 -202t75.5 -301q0 -171 -77.5 -301.5t-208.5 -201.5t-294 -71q-161 0 -289 71t-201 201.5t-73 301.5zM353 556q0 -159 79.5 -244.5t199.5 -85.5q77 0 144 37.5t107 112t40 180.5q0 158 -83 243.5t-204 85.5t-202 -85.5 t-81 -243.5zM409 1415v229l462 -239v-201z" />
<glyph unicode="&#xf3;" horiz-adv-x="1279" d="M69 556q0 170 75 301t205 202t291 71t291 -71t205.5 -202t75.5 -301q0 -171 -77.5 -301.5t-208.5 -201.5t-294 -71q-161 0 -289 71t-201 201.5t-73 301.5zM353 556q0 -159 79.5 -244.5t199.5 -85.5q77 0 144 37.5t107 112t40 180.5q0 158 -83 243.5t-204 85.5t-202 -85.5 t-81 -243.5zM409 1204v201l462 239v-229z" />
<glyph unicode="&#xf4;" horiz-adv-x="1279" d="M69 556q0 170 75 301t205 202t291 71t291 -71t205.5 -202t75.5 -301q0 -171 -77.5 -301.5t-208.5 -201.5t-294 -71q-161 0 -289 71t-201 201.5t-73 301.5zM353 556q0 -159 79.5 -244.5t199.5 -85.5q77 0 144 37.5t107 112t40 180.5q0 158 -83 243.5t-204 85.5t-202 -85.5 t-81 -243.5zM353 1204v205l299 162l297 -162v-205l-297 168z" />
<glyph unicode="&#xf5;" horiz-adv-x="1279" d="M69 556q0 170 75 301t205 202t291 71t291 -71t205.5 -202t75.5 -301q0 -171 -77.5 -301.5t-208.5 -201.5t-294 -71q-161 0 -289 71t-201 201.5t-73 301.5zM291 1232q18 132 83.5 197.5t165.5 65.5q42 0 74 -13t73 -37q59 -38 100 -38q74 0 86 86h151 q-18 -132 -83.5 -197.5t-165.5 -65.5q-42 0 -74.5 13.5t-72.5 36.5q-58 40 -100 40q-75 0 -88 -88h-149zM353 556q0 -159 79.5 -244.5t199.5 -85.5q77 0 144 37.5t107 112t40 180.5q0 158 -83 243.5t-204 85.5t-202 -85.5t-81 -243.5z" />
<glyph unicode="&#xf6;" horiz-adv-x="1279" d="M69 556q0 170 75 301t205 202t291 71t291 -71t205.5 -202t75.5 -301q0 -171 -77.5 -301.5t-208.5 -201.5t-294 -71q-161 0 -289 71t-201 201.5t-73 301.5zM333 1391q0 56 38 95t95 39q56 0 95 -39t39 -95t-39 -94t-95 -38q-57 0 -95 38t-38 94zM353 556 q0 -159 79.5 -244.5t199.5 -85.5q77 0 144 37.5t107 112t40 180.5q0 158 -83 243.5t-204 85.5t-202 -85.5t-81 -243.5zM704 1391q0 56 38 95t95 39q56 0 95.5 -39t39.5 -95t-39.5 -94t-95.5 -38q-57 0 -95 38t-38 94z" />
<glyph unicode="&#xf7;" horiz-adv-x="1300" d="M147 594v245h1023v-245h-1023zM490 275q0 71 49 118t125 47q75 0 123 -47.5t48 -117.5t-48 -117t-123 -47q-76 0 -125 47t-49 117zM490 1160q0 71 49 118t125 47q75 0 123 -47.5t48 -117.5t-48 -117t-123 -47q-76 0 -125 47t-49 117z" />
<glyph unicode="&#xf8;" horiz-adv-x="1272" d="M42 0l155 169q-65 76 -98.5 174.5t-33.5 212.5q0 170 75 301t205 202t291 71q199 0 345 -104l78 86h171l-156 -170q65 -75 99.5 -173.5t34.5 -212.5q0 -171 -77 -301.5t-208.5 -201.5t-294.5 -71q-193 0 -339 102l-76 -84h-171zM349 556q0 -102 36 -181l418 456 q-75 54 -171 54q-120 0 -201.5 -85.5t-81.5 -243.5zM467 277q69 -50 161 -51q77 0 144 37.5t107 112t40 180.5q0 99 -36 177z" />
<glyph unicode="&#xf9;" horiz-adv-x="1325" d="M128 460v652h282v-612q0 -132 66 -204t181 -72q116 0 182.5 72t66.5 204v612h282v-1112h-282v140q-54 -72 -142 -113t-190 -41q-130 0 -230.5 55t-158 162.5t-57.5 256.5zM422 1401v229l462 -239v-201z" />
<glyph unicode="&#xfa;" horiz-adv-x="1325" d="M128 460v652h282v-612q0 -132 66 -204t181 -72q116 0 182.5 72t66.5 204v612h282v-1112h-282v140q-54 -72 -142 -113t-190 -41q-130 0 -230.5 55t-158 162.5t-57.5 256.5zM422 1190v201l462 239v-229z" />
<glyph unicode="&#xfb;" horiz-adv-x="1325" d="M128 460v652h282v-612q0 -132 66 -204t181 -72q116 0 182.5 72t66.5 204v612h282v-1112h-282v140q-54 -72 -142 -113t-190 -41q-130 0 -230.5 55t-158 162.5t-57.5 256.5zM365 1190v205l299 162l297 -162v-205l-297 168z" />
<glyph unicode="&#xfc;" horiz-adv-x="1325" d="M128 460v652h282v-612q0 -132 66 -204t181 -72q116 0 182.5 72t66.5 204v612h282v-1112h-282v140q-54 -72 -142 -113t-190 -41q-130 0 -230.5 55t-158 162.5t-57.5 256.5zM345 1377q0 56 38 95t95 39q56 0 95 -39t39 -95t-39 -94t-95 -38q-57 0 -95 38t-38 94zM716 1377 q0 56 38 95t95 39q56 0 95.5 -39t39.5 -95t-39.5 -94t-95.5 -38q-57 0 -95 38t-38 94z" />
<glyph unicode="&#xfd;" horiz-adv-x="1214" d="M10 1112h315l287 -777l292 777h298l-688 -1638h-299l241 554zM365 1190v201l462 239v-229z" />
<glyph unicode="&#xfe;" d="M138 -530v2016h281v-547q56 89 148 139t212 50q142 0 260.5 -72t187 -202t68.5 -296q0 -167 -68.5 -298.5t-187 -203.5t-260.5 -72q-120 0 -211 54t-149 148v-716h-281zM419 556q0 -102 42.5 -176.5t109.5 -113t143 -38.5q77 0 144 38.5t108 114t41 177.5 q0 103 -41 176.5t-108 111t-144 37.5q-76 0 -143 -38t-109.5 -112t-42.5 -177z" />
<glyph unicode="&#xff;" horiz-adv-x="1214" d="M10 1112h315l287 -777l292 777h298l-688 -1638h-299l241 554zM289 1377q0 56 38 95t95 39q56 0 95 -39t39 -95t-39 -94t-95 -38q-57 0 -95 38t-38 94zM660 1377q0 56 38 95t95 39q56 0 95.5 -39t39.5 -95t-39.5 -94t-95.5 -38q-57 0 -95 38t-38 94z" />
<glyph unicode="&#x152;" horiz-adv-x="2151" d="M71 703q0 206 93 370t252.5 256t347.5 92q142 0 259 -50t199 -149v179h813v-221h-532v-363h472v-215h-472v-380h532v-222h-813v186q-161 -199 -456 -202q-191 0 -350 92.5t-252 256t-93 370.5zM360 703q0 -139 53.5 -243.5t151 -161.5t224.5 -57q126 0 222 57 t150.5 161.5t54.5 243.5q0 138 -54.5 242.5t-150.5 160.5t-222 56q-127 0 -224.5 -56t-151 -160.5t-53.5 -242.5z" />
<glyph unicode="&#x153;" horiz-adv-x="2110" d="M67 556q0 170 75 301t206 202t292 71q128 0 239 -52t186 -149q71 96 179 148.5t242 52.5q158 0 283 -68t195 -192.5t70 -287.5q-1 -57 -9 -105h-813q8 -126 79.5 -194t181.5 -68q157 0 223 134h303q-48 -161 -185.5 -264t-336.5 -103q-130 0 -235.5 53t-178.5 151 q-74 -98 -187.5 -151t-243.5 -53q-161 0 -290 71t-202 201.5t-73 301.5zM353 556q0 -159 80.5 -246.5t198.5 -87.5q77 0 144 38.5t107 114t40 181.5t-40 181t-105.5 113.5t-143.5 38.5q-76 0 -139.5 -38.5t-102.5 -113.5t-39 -181zM1214 642h528q-2 118 -77 188t-188 70 q-107 0 -179 -69t-84 -189z" />
<glyph unicode="&#x178;" horiz-adv-x="1275" d="M23 1401h316l301 -641l299 641h313l-473 -913v-488h-281v488zM319 1668q0 56 38 95t95 39q56 0 95 -39t39 -95t-39 -94t-95 -38q-57 0 -95 38t-38 94zM690 1668q0 56 38 95t95 39q56 0 95.5 -39t39.5 -95t-39.5 -94t-95.5 -38q-57 0 -95 38t-38 94z" />
<glyph unicode="&#x2c6;" horiz-adv-x="636" d="M20 1190v205l299 162l297 -162v-205l-297 168z" />
<glyph unicode="&#x2dc;" horiz-adv-x="764" d="M16 1218q18 132 83.5 197.5t165.5 65.5q42 0 74 -13t73 -37q59 -38 100 -38q74 0 86 86h151q-18 -132 -83.5 -197.5t-165.5 -65.5q-42 0 -74.5 13.5t-72.5 36.5q-58 40 -100 40q-75 0 -88 -88h-149z" />
<glyph unicode="&#x2000;" horiz-adv-x="980" />
<glyph unicode="&#x2001;" horiz-adv-x="1961" />
<glyph unicode="&#x2002;" horiz-adv-x="980" />
<glyph unicode="&#x2003;" horiz-adv-x="1961" />
<glyph unicode="&#x2004;" horiz-adv-x="653" />
<glyph unicode="&#x2005;" horiz-adv-x="490" />
<glyph unicode="&#x2006;" horiz-adv-x="326" />
<glyph unicode="&#x2007;" horiz-adv-x="326" />
<glyph unicode="&#x2008;" horiz-adv-x="245" />
<glyph unicode="&#x2009;" horiz-adv-x="392" />
<glyph unicode="&#x200a;" horiz-adv-x="108" />
<glyph unicode="&#x2010;" horiz-adv-x="1169" d="M142 598v237h852v-237h-852z" />
<glyph unicode="&#x2011;" horiz-adv-x="1169" d="M142 598v237h852v-237h-852z" />
<glyph unicode="&#x2012;" horiz-adv-x="1169" d="M142 598v237h852v-237h-852z" />
<glyph unicode="&#x2013;" horiz-adv-x="1408" d="M159 598v237h1091v-237h-1091z" />
<glyph unicode="&#x2014;" horiz-adv-x="1860" d="M159 598v237h1543v-237h-1543z" />
<glyph unicode="&#x2018;" horiz-adv-x="551" d="M62 895l217 506h194l-113 -506h-298z" />
<glyph unicode="&#x2019;" horiz-adv-x="551" d="M80 895l115 506h295l-217 -506h-193z" />
<glyph unicode="&#x201a;" horiz-adv-x="503" d="M28 -209l114 506h298l-218 -506h-194z" />
<glyph unicode="&#x201c;" horiz-adv-x="956" d="M62 895l217 506h194l-113 -506h-298zM467 895l217 506h195l-115 -506h-297z" />
<glyph unicode="&#x201d;" horiz-adv-x="956" d="M80 895l115 506h295l-217 -506h-193zM486 895l114 506h295l-217 -506h-192z" />
<glyph unicode="&#x201e;" horiz-adv-x="910" d="M30 -209l114 506h296l-218 -506h-192zM435 -209l115 506h297l-217 -506h-195z" />
<glyph unicode="&#x2022;" horiz-adv-x="963" d="M201 668q0 79 37 143t101.5 101.5t139.5 37.5q79 0 144 -37.5t102 -101.5t37 -143q0 -76 -37 -140t-102 -101.5t-144 -37.5q-75 0 -139.5 37.5t-101.5 101.5t-37 140z" />
<glyph unicode="&#x2026;" horiz-adv-x="1394" d="M88 151q0 70 49 117.5t126 47.5q74 0 122 -48t48 -117q0 -71 -48 -118t-122 -47q-77 0 -126 47t-49 118zM528 151q0 70 49 117.5t126 47.5q74 0 122 -48t48 -117q0 -71 -48 -118t-122 -47q-77 0 -126 47t-49 118zM969 151q0 70 49 117.5t126 47.5q74 0 122 -48t48 -117 q0 -71 -48 -118t-122 -47q-77 0 -126 47t-49 118z" />
<glyph unicode="&#x202f;" horiz-adv-x="392" />
<glyph unicode="&#x2039;" horiz-adv-x="634" d="M90 592l177 352h267l-185 -352l185 -351h-267z" />
<glyph unicode="&#x203a;" horiz-adv-x="634" d="M100 241l183 351l-183 352h266l178 -352l-178 -351h-266z" />
<glyph unicode="&#x205f;" horiz-adv-x="490" />
<glyph unicode="&#x20ac;" horiz-adv-x="1603" d="M46 464v166h138q-4 48 -4 73q0 28 4 76h-138v167h173q70 216 252 344.5t420 128.5q235 0 410.5 -120.5t245.5 -333.5h-321q-50 96 -136 145.5t-201 49.5q-123 0 -218 -56t-147 -158h385v-167h-436q-4 -48 -4 -76q0 -25 4 -73h436v-166h-388q52 -102 148.5 -160.5 t219.5 -58.5q115 0 201 50t136 147h321q-70 -215 -245.5 -334.5t-410.5 -119.5q-241 0 -422.5 129.5t-251.5 346.5h-171z" />
<glyph unicode="&#x2122;" horiz-adv-x="1693" d="M50 1250v165h532v-165h-161v-541h-210l2 541h-163zM693 709v706h278l171 -454l185 454h261v-706h-195l-4 443l-183 -443h-143l-182 459v-459h-188z" />
<glyph unicode="&#x25fc;" horiz-adv-x="1113" d="M0 0v1114h1114v-1114h-1114z" />
<glyph unicode="&#xfb01;" horiz-adv-x="1251" d="M42 881v231h127v56q0 205 114.5 301t344.5 90v-236q-96 2 -135 -34.5t-39 -130.5v-46h648v-1112h-281v881h-367v-881h-285v881h-127zM791 1396q0 71 48 117t122 46q77 0 126 -46t49 -117q0 -70 -49 -115.5t-126 -45.5q-74 0 -122 46t-48 115z" />
<glyph unicode="&#xfb02;" horiz-adv-x="1249" d="M42 881v231h127v56q0 205 116.5 301t350.5 90v-236q-102 2 -142 -34.5t-40 -130.5v-46h195v-231h-195v-881h-285v881h-127zM831 0v1486h281v-1486h-281z" />
</font>
</defs>
</svg>
